<svg width="319" height="236" viewBox="0 0 319 236" fill="none" xmlns="http://www.w3.org/2000/svg">
<mask id="path-1-inside-1_5569_424938" fill="white">
<path d="M0 24C0 10.7452 10.7452 0 24 0H295C308.255 0 319 10.7452 319 24V212C319 225.255 308.255 236 295 236H24C10.7452 236 0 225.255 0 212V24Z"/>
</mask>
<path d="M0 24C0 10.7452 10.7452 0 24 0H295C308.255 0 319 10.7452 319 24V212C319 225.255 308.255 236 295 236H24C10.7452 236 0 225.255 0 212V24Z" fill="white"/>
<path d="M24 0V1H295V0V-1H24V0ZM319 24H318V212H319H320V24H319ZM295 236V235H24V236V237H295V236ZM0 212H1V24H0H-1V212H0ZM24 236V235C11.2975 235 1 224.703 1 212H0H-1C-1 225.807 10.1929 237 24 237V236ZM319 212H318C318 224.703 307.703 235 295 235V236V237C308.807 237 320 225.807 320 212H319ZM295 0V1C307.703 1 318 11.2975 318 24H319H320C320 10.1929 308.807 -1 295 -1V0ZM24 0V-1C10.1929 -1 -1 10.1929 -1 24H0H1C1 11.2975 11.2975 1 24 1V0Z" fill="#CDD1D5" mask="url(#path-1-inside-1_5569_424938)"/>
<path d="M17.9023 29.2188C17.9023 30.6367 18.9805 31.9375 20.4922 32.4531L19.9883 33.1797C18.834 32.7578 17.9258 31.8965 17.4688 30.8125C17.0234 32.0371 16.0977 33.0039 14.8789 33.4727L14.3867 32.7344C15.9453 32.1484 16.9883 30.7539 17 29.1484V28.0703H17.9023V29.2188ZM22.5664 27.5312V30.25H24.1367V31.0234H22.5664V33.8711H21.6523V27.5312H22.5664ZM19.2266 34.1406C21.3711 34.1406 22.6602 34.832 22.6602 36.0273C22.6602 37.2461 21.3711 37.9258 19.2266 37.9258C17.082 37.9258 15.7695 37.2461 15.7695 36.0273C15.7695 34.832 17.082 34.1406 19.2266 34.1406ZM19.2266 34.8789C17.6562 34.8789 16.6836 35.3125 16.6953 36.0273C16.6836 36.7656 17.6562 37.1875 19.2266 37.1992C20.8086 37.1875 21.7695 36.7656 21.7695 36.0273C21.7695 35.3125 20.8086 34.8789 19.2266 34.8789ZM34.2852 32.5703V33.332H29.9844V34.5625H33.125V37.8086H25.9531V34.5625H29.082V33.332H24.793V32.5703H34.2852ZM33.3828 27.8711V28.6328H31.7773V30.8242H33.3477V31.5859H25.7188V30.8242H27.2891V28.6328H25.6836V27.8711H33.3828ZM26.8672 35.2891V37.0586H32.2227V35.2891H26.8672ZM28.2031 30.8242H30.8633V28.6328H28.2031V30.8242ZM43.4492 28.0938V28.8672C43.4492 29.6758 43.4492 30.625 43.1797 31.9258H44.7031V32.6875H35.1641V31.9258H42.2539C42.5352 30.6191 42.5352 29.6758 42.5352 28.8672V28.8555H36.3711V28.0938H43.4492ZM43.4961 34.1289V37.8086H36.3359V34.1289H43.4961ZM37.25 34.8555V37.0586H42.582V34.8555H37.25ZM48.0312 28.1875C49.4023 28.1875 50.4219 29.207 50.4219 30.6484C50.4219 32.1016 49.4023 33.0859 48.0312 33.0859C46.6367 33.0859 45.6406 32.1016 45.6523 30.6484C45.6406 29.207 46.6367 28.1875 48.0312 28.1875ZM48.0312 28.9844C47.1406 28.9844 46.4727 29.6875 46.4844 30.6484C46.4727 31.6094 47.1406 32.3125 48.0312 32.3125C48.9219 32.3125 49.5664 31.6094 49.5781 30.6484C49.5664 29.6875 48.9219 28.9844 48.0312 28.9844ZM54.3828 27.543V33.7422H53.5039V30.9883H52.1211V33.6719H51.2539V27.7422H52.1211V30.2266H53.5039V27.543H54.3828ZM54.3828 34.3281V37.9492H53.4805V35.0664H47.3633V34.3281H54.3828Z" fill="#464C53"/>
<path d="M262.844 197.531V207.949H261.965V202.488H260.43V207.41H259.586V197.766H260.43V201.727H261.965V197.531H262.844ZM258.227 198.809V199.57H255.238V204.586C256.674 204.58 257.67 204.527 258.824 204.293L258.906 205.066C257.652 205.324 256.586 205.371 254.992 205.371H254.324V198.809H258.227ZM273.801 202.172V202.887H269.5V203.859H272.582V206.109H266.395V207.129H272.898V207.832H265.48V205.453H271.68V204.551H265.457V203.859H268.598V202.887H264.32V202.172H273.801ZM269.5 197.473V198.445H272.84V199.172H269.57C269.74 200.209 271.369 200.865 273.285 200.988L273.004 201.691C271.264 201.545 269.693 201.006 269.055 200.016C268.416 201.006 266.846 201.545 265.094 201.691L264.824 200.988C266.729 200.865 268.357 200.209 268.539 199.172H265.293V198.445H268.598V197.473H269.5ZM283.293 197.531V207.949H282.367V197.531H283.293ZM280.211 198.668C280.199 201.668 278.805 204.316 275.312 205.992L274.809 205.242C277.627 203.906 279.062 201.908 279.273 199.418H275.289V198.668H280.211ZM293.195 197.531V200.707H294.766V201.48H293.195V205.16H292.27V197.531H293.195ZM290.383 198.34C290.383 201.023 288.461 203.016 285.461 203.953L285.062 203.215C287.559 202.436 289.188 200.947 289.387 199.113H285.496V198.34H290.383ZM293.676 206.953V207.727H286.668V204.387H287.582V206.953H293.676Z" fill="#464C53"/>
<mask id="path-5-inside-2_5569_424938" fill="white">
<path d="M38 50H303V190H38V50Z"/>
</mask>
<path d="M38 50H303V190H38V50Z" fill="white"/>
<path d="M38 190H37V191H38V190ZM303 190V189H38V190V191H303V190ZM38 190H39V50H38H37V190H38Z" fill="#CDD1D5" mask="url(#path-5-inside-2_5569_424938)"/>
<path d="M71.8 172.25C71.8 171.808 71.4418 171.45 71 171.45C70.5582 171.45 70.2 171.808 70.2 172.25H71.8ZM70.2 188.25V189.05H71.8V188.25H70.2ZM71 172.25H70.2V188.25H71H71.8V172.25H71Z" fill="#F8633C"/>
<path d="M105.8 172.25C105.8 171.808 105.442 171.45 105 171.45C104.558 171.45 104.2 171.808 104.2 172.25H105.8ZM104.2 188.25V189.05H105.8V188.25H104.2ZM105 172.25H104.2V188.25H105H105.8V172.25H105Z" fill="#F8633C"/>
<path d="M139.8 172.25C139.8 171.808 139.442 171.45 139 171.45C138.558 171.45 138.2 171.808 138.2 172.25H139.8ZM138.2 188.25V189.05H139.8V188.25H138.2ZM139 172.25H138.2V188.25H139H139.8V172.25H139Z" fill="#F8633C"/>
<path d="M173.8 172.25C173.8 171.808 173.442 171.45 173 171.45C172.558 171.45 172.2 171.808 172.2 172.25H173.8ZM172.2 188.25V189.05H173.8V188.25H172.2ZM173 172.25H172.2V188.25H173H173.8V172.25H173Z" fill="#F8633C"/>
<path d="M207.8 172.25C207.8 171.808 207.442 171.45 207 171.45C206.558 171.45 206.2 171.808 206.2 172.25H207.8ZM206.2 188.25V189.05H207.8V188.25H206.2ZM207 172.25H206.2V188.25H207H207.8V172.25H207Z" fill="#F8633C"/>
<path d="M241.8 172.25C241.8 171.808 241.442 171.45 241 171.45C240.558 171.45 240.2 171.808 240.2 172.25H241.8ZM240.2 188.25V189.05H241.8V188.25H240.2ZM241 172.25H240.2V188.25H241H241.8V172.25H241Z" fill="#F8633C"/>
<path d="M241 151V167" stroke="#063A74" stroke-width="1.6" stroke-linecap="round"/>
<path d="M241 130V146" stroke="#063A74" stroke-width="1.6" stroke-linecap="round"/>
<path d="M241 109V125" stroke="#063A74" stroke-width="1.6" stroke-linecap="round"/>
<path d="M241 88V104" stroke="#063A74" stroke-width="1.6" stroke-linecap="round"/>
<path d="M241 67V83" stroke="#063A74" stroke-width="1.6" stroke-linecap="round"/>
<path d="M285.5 159C291.851 159 297 164.149 297 170.5C297 176.851 291.851 182 285.5 182H260.5C254.149 182 249 176.851 249 170.5C249 164.149 254.149 159 260.5 159H285.5Z" fill="#F8633C"/>
<path d="M272.141 164.531V174.973H271.215V164.531H272.141ZM266.598 165.34C268.145 165.352 269.258 166.758 269.258 168.973C269.258 171.188 268.145 172.594 266.598 172.594C265.039 172.594 263.938 171.188 263.938 168.973C263.938 166.758 265.039 165.352 266.598 165.34ZM266.598 166.16C265.555 166.172 264.828 167.273 264.828 168.973C264.828 170.672 265.555 171.773 266.598 171.773C267.641 171.773 268.367 170.672 268.367 168.973C268.367 167.273 267.641 166.172 266.598 166.16ZM277.449 167.73C277.438 169.406 278.645 171.246 280.156 171.961L279.629 172.688C278.457 172.119 277.467 170.877 277.004 169.465C276.523 171 275.475 172.348 274.309 172.945L273.746 172.219C275.246 171.492 276.535 169.512 276.547 167.73V166.371H274.121V165.609H279.793V166.371H277.449V167.73ZM281.984 164.531V168.75H283.73V169.535H281.984V174.949H281.07V164.531H281.984Z" fill="white"/>
<path d="M247.611 178.952C246.623 179.133 246.018 178.072 246.676 177.314L251.739 171.479L255.209 177.559L247.611 178.952Z" fill="#F8633C"/>
<path d="M285.5 67C291.851 67 297 72.1487 297 78.5C297 84.8513 291.851 90 285.5 90H260.5C254.149 90 249 84.8513 249 78.5C249 72.1487 254.149 67 260.5 67H285.5Z" fill="#063A74"/>
<path d="M272.141 72.543V80.4531H271.215V79.375H269.059V78.707H271.215V72.543H272.141ZM272.398 81.9531V82.7266H264.992V79.6797H265.918V81.9531H272.398ZM263.492 77.3711C265.438 77.3594 268.039 77.3477 270.277 77.0664L270.336 77.7344C269.404 77.8809 268.432 77.9746 267.477 78.0273V80.0898H266.551V78.0742C265.496 78.1211 264.494 78.127 263.621 78.1211L263.492 77.3711ZM266.914 72.9648C268.438 72.9648 269.48 73.6914 269.492 74.7812C269.48 75.8945 268.438 76.5859 266.914 76.5859C265.379 76.5859 264.336 75.8945 264.336 74.7812C264.336 73.6914 265.379 72.9648 266.914 72.9648ZM266.914 73.668C265.895 73.6562 265.203 74.1133 265.215 74.7812C265.203 75.4609 265.895 75.9062 266.914 75.9062C267.898 75.9062 268.602 75.4609 268.613 74.7812C268.602 74.1133 267.898 73.6562 266.914 73.668ZM282.207 73.0938V73.8672C282.207 74.6758 282.207 75.625 281.938 76.9258H283.461V77.6875H273.922V76.9258H281.012C281.293 75.6191 281.293 74.6758 281.293 73.8672V73.8555H275.129V73.0938H282.207ZM282.254 79.1289V82.8086H275.094V79.1289H282.254ZM276.008 79.8555V82.0586H281.34V79.8555H276.008Z" fill="white"/>
<path d="M245.68 71.6716C245.026 70.9103 245.636 69.8526 246.623 70.0384L254.214 71.4688L250.714 77.5309L245.68 71.6716Z" fill="#063A74"/>
</svg>
