<svg width="287" height="222" viewBox="0 0 287 222" fill="none" xmlns="http://www.w3.org/2000/svg">
<mask id="path-1-inside-1_5569_425161" fill="white">
<path d="M0 16C0 7.16345 7.16344 0 16 0H271C279.837 0 287 7.16344 287 16V206C287 214.837 279.837 222 271 222H16C7.16344 222 0 214.837 0 206V16Z"/>
</mask>
<path d="M0 16C0 7.16345 7.16344 0 16 0H271C279.837 0 287 7.16344 287 16V206C287 214.837 279.837 222 271 222H16C7.16344 222 0 214.837 0 206V16Z" fill="white"/>
<path d="M16 0V1H271V0V-1H16V0ZM287 16H286V206H287H288V16H287ZM271 222V221H16V222V223H271V222ZM0 206H1V16H0H-1V206H0ZM16 222V221C7.71573 221 1 214.284 1 206H0H-1C-1 215.389 6.61116 223 16 223V222ZM287 206H286C286 214.284 279.284 221 271 221V222V223C280.389 223 288 215.389 288 206H287ZM271 0V1C279.284 1 286 7.71573 286 16H287H288C288 6.61116 280.389 -1 271 -1V0ZM16 0V-1C6.61116 -1 -1 6.61116 -1 16H0H1C1 7.71573 7.71573 1 16 1V0Z" fill="#CDD1D5" mask="url(#path-1-inside-1_5569_425161)"/>
<mask id="path-3-inside-2_5569_425161" fill="white">
<path d="M23 48H263V198H23V48Z"/>
</mask>
<path d="M23 48H263V198H23V48Z" fill="white"/>
<path d="M23 198H22V199H23V198ZM263 198V197H23V198V199H263V198ZM23 198H24V48H23H22V198H23Z" fill="#CDD1D5" mask="url(#path-3-inside-2_5569_425161)"/>
<path d="M226.502 166.002C232.853 166.002 238.002 171.151 238.002 177.502C238.002 183.853 232.853 189.002 226.502 189.002H133.502C127.151 189.002 122.002 183.853 122.002 177.502C122.002 176.197 122.222 174.943 122.623 173.773L120.19 169.335C119.754 168.541 120.514 167.623 121.375 167.902L125.502 169.244C127.572 167.238 130.392 166.002 133.502 166.002H226.502Z" fill="#F8633C"/>
<path d="M138.873 171.531V174.25H140.432V175.023H138.873V177.754H137.947V171.531H138.873ZM135.521 177.953C137.643 177.953 138.955 178.691 138.955 179.934C138.955 181.199 137.643 181.926 135.521 181.926C133.389 181.926 132.064 181.199 132.064 179.934C132.064 178.691 133.389 177.953 135.521 177.953ZM135.521 178.715C133.951 178.703 132.967 179.172 132.967 179.934C132.967 180.707 133.951 181.188 135.521 181.188C137.08 181.188 138.064 180.707 138.064 179.934C138.064 179.172 137.08 178.703 135.521 178.715ZM135.826 172.328V173.09H132.1V176.148C134.209 176.137 135.428 176.072 136.822 175.785L136.916 176.547C135.463 176.84 134.209 176.898 132.006 176.898H131.197V172.328H135.826ZM144.041 171.918C145.6 171.93 146.736 172.867 146.736 174.227C146.736 175.586 145.6 176.523 144.041 176.523C142.459 176.523 141.334 175.586 141.334 174.227C141.334 172.867 142.459 171.93 144.041 171.918ZM144.041 172.691C142.998 172.691 142.225 173.324 142.236 174.227C142.225 175.141 142.998 175.773 144.041 175.773C145.072 175.773 145.846 175.141 145.846 174.227C145.846 173.324 145.072 172.691 144.041 172.691ZM149.689 171.531V176.887H148.775V171.531H149.689ZM149.689 177.391V179.898H143.842V181.07H150.064V181.809H142.939V179.207H148.775V178.129H142.916V177.391H149.689ZM157.775 181.117C156.088 181.117 154.881 180.215 154.822 178.867H155.889C155.947 179.676 156.756 180.18 157.764 180.18C158.877 180.18 159.697 179.57 159.697 178.691C159.697 177.766 158.959 177.109 157.635 177.109H156.943V176.184H157.635C158.666 176.184 159.381 175.609 159.381 174.73C159.381 173.887 158.76 173.312 157.799 173.312C156.896 173.312 156.064 173.816 156.018 174.648H154.998C155.057 173.301 156.299 172.398 157.811 172.398C159.428 172.398 160.412 173.453 160.4 174.672C160.412 175.633 159.85 176.348 158.959 176.594V176.652C160.061 176.828 160.74 177.613 160.729 178.691C160.74 180.086 159.463 181.117 157.775 181.117ZM170.771 171.531V181.949H169.869V176.5H168.428V181.434H167.549V171.812H168.428V175.738H169.869V171.531H170.771ZM166.365 172.891C166.354 175.539 165.428 178.047 162.428 179.711L161.889 179.066C164.309 177.719 165.311 175.809 165.463 173.652H162.287V172.891H166.365ZM180.838 171.543V177.684H179.912V177.109H177.803V176.5H179.912V171.543H180.838ZM172.213 175.469C174.229 175.48 176.807 175.457 179.057 175.211L179.115 175.809C178.096 175.955 177.035 176.043 175.998 176.09V177.719H175.096V176.125C174.111 176.16 173.168 176.166 172.318 176.16L172.213 175.469ZM180.838 178.059V180.215H174.756V181.152H181.178V181.832H173.854V179.57H179.924V178.727H173.807V178.059H180.838ZM175.611 171.742C177.158 171.742 178.189 172.352 178.201 173.312C178.189 174.285 177.158 174.871 175.611 174.871C174.041 174.871 173.021 174.285 173.021 173.312C173.021 172.352 174.041 171.742 175.611 171.742ZM175.611 172.387C174.557 172.387 173.877 172.75 173.889 173.312C173.877 173.863 174.557 174.238 175.611 174.238C176.654 174.238 177.334 173.863 177.334 173.312C177.334 172.75 176.654 172.387 175.611 172.387ZM194.537 171.531V181.949H193.658V171.531H194.537ZM192.428 171.789V181.41H191.561V176.043H189.803V175.293H191.561V171.789H192.428ZM188.689 174.508C188.689 176.312 189.498 178.105 190.939 178.938L190.377 179.617C189.352 179.002 188.625 177.877 188.268 176.547C187.887 177.982 187.131 179.207 186.088 179.863L185.502 179.172C186.955 178.305 187.799 176.406 187.799 174.508V173.523H185.795V172.762H190.6V173.523H188.689V174.508ZM205.494 176.172V176.887H201.193V177.859H204.275V180.109H198.088V181.129H204.592V181.832H197.174V179.453H203.373V178.551H197.15V177.859H200.291V176.887H196.014V176.172H205.494ZM201.193 171.473V172.445H204.533V173.172H201.264C201.434 174.209 203.062 174.865 204.979 174.988L204.697 175.691C202.957 175.545 201.387 175.006 200.748 174.016C200.109 175.006 198.539 175.545 196.787 175.691L196.518 174.988C198.422 174.865 200.051 174.209 200.232 173.172H196.986V172.445H200.291V171.473H201.193ZM217.67 172.094V172.867C217.67 173.676 217.67 174.625 217.4 175.926H218.924V176.688H209.385V175.926H216.475C216.756 174.619 216.756 173.676 216.756 172.867V172.855H210.592V172.094H217.67ZM217.717 178.129V181.809H210.557V178.129H217.717ZM211.471 178.855V181.059H216.803V178.855H211.471ZM228.357 171.531V181.973H227.443V171.531H228.357ZM225.193 172.504V176.207H221.303V178.668C223.031 178.668 224.572 178.592 226.436 178.293L226.529 179.066C224.607 179.371 223.025 179.441 221.232 179.441H220.365V175.457H224.268V173.266H220.342V172.504H225.193Z" fill="white"/>
<path d="M149.354 27.543V35.1836H148.428V31.1875H146.283V30.4258H148.428V27.543H149.354ZM149.646 36.9531V37.7266H142.662V34.4922H143.588V36.9531H149.646ZM144.338 29.6875C144.338 31.0352 145.381 32.3477 146.904 32.8633L146.424 33.6016C145.246 33.1797 144.338 32.3008 143.893 31.2227C143.441 32.4238 142.48 33.3848 141.244 33.8477L140.764 33.0977C142.299 32.5586 143.412 31.1875 143.412 29.6875V29.1484H141.057V28.3867H146.67V29.1484H144.338V29.6875ZM154.041 27.918C155.6 27.9297 156.736 28.8672 156.736 30.2266C156.736 31.5859 155.6 32.5234 154.041 32.5234C152.459 32.5234 151.334 31.5859 151.334 30.2266C151.334 28.8672 152.459 27.9297 154.041 27.918ZM154.041 28.6914C152.998 28.6914 152.225 29.3242 152.236 30.2266C152.225 31.1406 152.998 31.7734 154.041 31.7734C155.072 31.7734 155.846 31.1406 155.846 30.2266C155.846 29.3242 155.072 28.6914 154.041 28.6914ZM159.689 27.5312V32.8867H158.775V27.5312H159.689ZM159.689 33.3906V35.8984H153.842V37.0703H160.064V37.8086H152.939V35.207H158.775V34.1289H152.916V33.3906H159.689ZM167.611 37.1172C166.076 37.1172 164.916 36.168 164.857 34.8672H165.877C165.959 35.6289 166.697 36.1914 167.611 36.1914C168.713 36.1914 169.51 35.3828 169.51 34.3164C169.51 33.2148 168.678 32.4062 167.541 32.3945C166.826 32.3828 166.275 32.6055 165.959 33.1562H164.939L165.537 28.5156H170.131V29.4531H166.416L166.1 31.9375H166.182C166.557 31.6445 167.131 31.4453 167.729 31.4453C169.346 31.4453 170.541 32.6406 170.541 34.293C170.541 35.9336 169.299 37.1172 167.611 37.1172ZM180.525 27.5312V37.9492H179.623V32.5H178.182V37.4336H177.303V27.8125H178.182V31.7383H179.623V27.5312H180.525ZM176.119 28.8906C176.107 31.5391 175.182 34.0469 172.182 35.7109L171.643 35.0664C174.062 33.7188 175.064 31.8086 175.217 29.6523H172.041V28.8906H176.119ZM190.592 27.543V33.6836H189.666V33.1094H187.557V32.5H189.666V27.543H190.592ZM181.967 31.4688C183.982 31.4805 186.561 31.457 188.811 31.2109L188.869 31.8086C187.85 31.9551 186.789 32.043 185.752 32.0898V33.7188H184.85V32.125C183.865 32.1602 182.922 32.166 182.072 32.1602L181.967 31.4688ZM190.592 34.0586V36.2148H184.51V37.1523H190.932V37.832H183.607V35.5703H189.678V34.7266H183.561V34.0586H190.592ZM185.365 27.7422C186.912 27.7422 187.943 28.3516 187.955 29.3125C187.943 30.2852 186.912 30.8711 185.365 30.8711C183.795 30.8711 182.775 30.2852 182.775 29.3125C182.775 28.3516 183.795 27.7422 185.365 27.7422ZM185.365 28.3867C184.311 28.3867 183.631 28.75 183.643 29.3125C183.631 29.8633 184.311 30.2383 185.365 30.2383C186.408 30.2383 187.088 29.8633 187.088 29.3125C187.088 28.75 186.408 28.3867 185.365 28.3867ZM203.67 28.0938V28.8672C203.67 29.6758 203.67 30.625 203.4 31.9258H204.924V32.6875H195.385V31.9258H202.475C202.756 30.6191 202.756 29.6758 202.756 28.8672V28.8555H196.592V28.0938H203.67ZM203.717 34.1289V37.8086H196.557V34.1289H203.717ZM197.471 34.8555V37.0586H202.803V34.8555H197.471ZM214.357 27.5312V37.9727H213.443V27.5312H214.357ZM211.193 28.5039V32.207H207.303V34.668C209.031 34.668 210.572 34.5918 212.436 34.293L212.529 35.0664C210.607 35.3711 209.025 35.4414 207.232 35.4414H206.365V31.457H210.268V29.2656H206.342V28.5039H211.193Z" fill="#464C53"/>
<path d="M215.578 113.531V116.25H217.137V117.023H215.578V119.754H214.652V113.531H215.578ZM212.227 119.953C214.348 119.953 215.66 120.691 215.66 121.934C215.66 123.199 214.348 123.926 212.227 123.926C210.094 123.926 208.77 123.199 208.77 121.934C208.77 120.691 210.094 119.953 212.227 119.953ZM212.227 120.715C210.656 120.703 209.672 121.172 209.672 121.934C209.672 122.707 210.656 123.188 212.227 123.188C213.785 123.188 214.77 122.707 214.77 121.934C214.77 121.172 213.785 120.703 212.227 120.715ZM212.531 114.328V115.09H208.805V118.148C210.914 118.137 212.133 118.072 213.527 117.785L213.621 118.547C212.168 118.84 210.914 118.898 208.711 118.898H207.902V114.328H212.531ZM220.746 113.918C222.305 113.93 223.441 114.867 223.441 116.227C223.441 117.586 222.305 118.523 220.746 118.523C219.164 118.523 218.039 117.586 218.039 116.227C218.039 114.867 219.164 113.93 220.746 113.918ZM220.746 114.691C219.703 114.691 218.93 115.324 218.941 116.227C218.93 117.141 219.703 117.773 220.746 117.773C221.777 117.773 222.551 117.141 222.551 116.227C222.551 115.324 221.777 114.691 220.746 114.691ZM226.395 113.531V118.887H225.48V113.531H226.395ZM226.395 119.391V121.898H220.547V123.07H226.77V123.809H219.645V121.207H225.48V120.129H219.621V119.391H226.395ZM234.316 123.117C232.781 123.117 231.621 122.168 231.562 120.867H232.582C232.664 121.629 233.402 122.191 234.316 122.191C235.418 122.191 236.215 121.383 236.215 120.316C236.215 119.215 235.383 118.406 234.246 118.395C233.531 118.383 232.98 118.605 232.664 119.156H231.645L232.242 114.516H236.836V115.453H233.121L232.805 117.938H232.887C233.262 117.645 233.836 117.445 234.434 117.445C236.051 117.445 237.246 118.641 237.246 120.293C237.246 121.934 236.004 123.117 234.316 123.117ZM247.23 113.531V123.949H246.328V118.5H244.887V123.434H244.008V113.812H244.887V117.738H246.328V113.531H247.23ZM242.824 114.891C242.812 117.539 241.887 120.047 238.887 121.711L238.348 121.066C240.768 119.719 241.77 117.809 241.922 115.652H238.746V114.891H242.824ZM257.297 113.543V119.684H256.371V119.109H254.262V118.5H256.371V113.543H257.297ZM248.672 117.469C250.688 117.48 253.266 117.457 255.516 117.211L255.574 117.809C254.555 117.955 253.494 118.043 252.457 118.09V119.719H251.555V118.125C250.57 118.16 249.627 118.166 248.777 118.16L248.672 117.469ZM257.297 120.059V122.215H251.215V123.152H257.637V123.832H250.312V121.57H256.383V120.727H250.266V120.059H257.297ZM252.07 113.742C253.617 113.742 254.648 114.352 254.66 115.312C254.648 116.285 253.617 116.871 252.07 116.871C250.5 116.871 249.48 116.285 249.48 115.312C249.48 114.352 250.5 113.742 252.07 113.742ZM252.07 114.387C251.016 114.387 250.336 114.75 250.348 115.312C250.336 115.863 251.016 116.238 252.07 116.238C253.113 116.238 253.793 115.863 253.793 115.312C253.793 114.75 253.113 114.387 252.07 114.387ZM208.77 131.977V133.477H211.805V131.977H212.719V136.512H207.867V131.977H208.77ZM208.77 135.762H211.805V134.191H208.77V135.762ZM215.566 131.531V133.793H217.137V134.566H215.566V136.922H214.652V131.531H215.566ZM215.566 137.414V139.934H209.848V141.082H215.953V141.832H208.945V139.23H214.652V138.152H208.922V137.414H215.566ZM226.641 131.531V138.129H225.762V135.141H224.367V137.754H223.5V131.742H224.367V134.379H225.762V131.531H226.641ZM223.078 132.785V133.523H217.734V132.785H219.961V131.613H220.875V132.785H223.078ZM220.418 134.086C221.742 134.086 222.645 134.777 222.656 135.867C222.645 136.934 221.742 137.637 220.418 137.637C219.105 137.637 218.18 136.934 218.191 135.867C218.18 134.777 219.105 134.086 220.418 134.086ZM220.418 134.766C219.586 134.766 219.012 135.211 219.012 135.867C219.012 136.512 219.586 136.945 220.418 136.945C221.25 136.945 221.824 136.512 221.824 135.867C221.824 135.211 221.25 134.766 220.418 134.766ZM223.195 138.305C225.387 138.305 226.699 138.961 226.699 140.133C226.699 141.27 225.387 141.926 223.195 141.926C221.004 141.926 219.691 141.27 219.703 140.133C219.691 138.961 221.004 138.305 223.195 138.305ZM223.195 139.031C221.578 139.02 220.605 139.418 220.617 140.133C220.605 140.812 221.578 141.211 223.195 141.211C224.812 141.211 225.773 140.812 225.785 140.133C225.773 139.418 224.812 139.02 223.195 139.031ZM236.449 132.094V132.867C236.449 133.676 236.449 134.625 236.18 135.926H237.703V136.688H228.164V135.926H235.254C235.535 134.619 235.535 133.676 235.535 132.867V132.855H229.371V132.094H236.449ZM236.496 138.129V141.809H229.336V138.129H236.496ZM230.25 138.855V141.059H235.582V138.855H230.25ZM247.137 131.531V141.973H246.223V131.531H247.137ZM243.973 132.504V136.207H240.082V138.668C241.811 138.668 243.352 138.592 245.215 138.293L245.309 139.066C243.387 139.371 241.805 139.441 240.012 139.441H239.145V135.457H243.047V133.266H239.121V132.504H243.973Z" fill="#D3430A"/>
<path d="M41.0586 65.543V73.1836H40.1328V69.1875H37.9883V68.4258H40.1328V65.543H41.0586ZM41.3516 74.9531V75.7266H34.3672V72.4922H35.293V74.9531H41.3516ZM36.043 67.6875C36.043 69.0352 37.0859 70.3477 38.6094 70.8633L38.1289 71.6016C36.9512 71.1797 36.043 70.3008 35.5977 69.2227C35.1465 70.4238 34.1855 71.3848 32.9492 71.8477L32.4688 71.0977C34.0039 70.5586 35.1172 69.1875 35.1172 67.6875V67.1484H32.7617V66.3867H38.375V67.1484H36.043V67.6875ZM45.7461 65.918C47.3047 65.9297 48.4414 66.8672 48.4414 68.2266C48.4414 69.5859 47.3047 70.5234 45.7461 70.5234C44.1641 70.5234 43.0391 69.5859 43.0391 68.2266C43.0391 66.8672 44.1641 65.9297 45.7461 65.918ZM45.7461 66.6914C44.7031 66.6914 43.9297 67.3242 43.9414 68.2266C43.9297 69.1406 44.7031 69.7734 45.7461 69.7734C46.7773 69.7734 47.5508 69.1406 47.5508 68.2266C47.5508 67.3242 46.7773 66.6914 45.7461 66.6914ZM51.3945 65.5312V70.8867H50.4805V65.5312H51.3945ZM51.3945 71.3906V73.8984H45.5469V75.0703H51.7695V75.8086H44.6445V73.207H50.4805V72.1289H44.6211V71.3906H51.3945ZM35.7266 93.1172C34.0391 93.1172 32.832 92.2148 32.7734 90.8672H33.8398C33.8984 91.6758 34.707 92.1797 35.7148 92.1797C36.8281 92.1797 37.6484 91.5703 37.6484 90.6914C37.6484 89.7656 36.9102 89.1094 35.5859 89.1094H34.8945V88.1836H35.5859C36.6172 88.1836 37.332 87.6094 37.332 86.7305C37.332 85.8867 36.7109 85.3125 35.75 85.3125C34.8477 85.3125 34.0156 85.8164 33.9688 86.6484H32.9492C33.0078 85.3008 34.25 84.3984 35.7617 84.3984C37.3789 84.3984 38.3633 85.4531 38.3516 86.6719C38.3633 87.6328 37.8008 88.3477 36.9102 88.5938V88.6523C38.0117 88.8281 38.6914 89.6133 38.6797 90.6914C38.6914 92.0859 37.4141 93.1172 35.7266 93.1172ZM48.7227 83.5312V93.9492H47.8203V88.5H46.3789V93.4336H45.5V83.8125H46.3789V87.7383H47.8203V83.5312H48.7227ZM44.3164 84.8906C44.3047 87.5391 43.3789 90.0469 40.3789 91.7109L39.8398 91.0664C42.2598 89.7188 43.2617 87.8086 43.4141 85.6523H40.2383V84.8906H44.3164ZM58.7891 83.543V89.6836H57.8633V89.1094H55.7539V88.5H57.8633V83.543H58.7891ZM50.1641 87.4688C52.1797 87.4805 54.7578 87.457 57.0078 87.2109L57.0664 87.8086C56.0469 87.9551 54.9863 88.043 53.9492 88.0898V89.7188H53.0469V88.125C52.0625 88.1602 51.1191 88.166 50.2695 88.1602L50.1641 87.4688ZM58.7891 90.0586V92.2148H52.707V93.1523H59.1289V93.832H51.8047V91.5703H57.875V90.7266H51.7578V90.0586H58.7891ZM53.5625 83.7422C55.1094 83.7422 56.1406 84.3516 56.1523 85.3125C56.1406 86.2852 55.1094 86.8711 53.5625 86.8711C51.9922 86.8711 50.9727 86.2852 50.9727 85.3125C50.9727 84.3516 51.9922 83.7422 53.5625 83.7422ZM53.5625 84.3867C52.5078 84.3867 51.8281 84.75 51.8398 85.3125C51.8281 85.8633 52.5078 86.2383 53.5625 86.2383C54.6055 86.2383 55.2852 85.8633 55.2852 85.3125C55.2852 84.75 54.6055 84.3867 53.5625 84.3867ZM71.8672 84.0938V84.8672C71.8672 85.6758 71.8672 86.625 71.5977 87.9258H73.1211V88.6875H63.582V87.9258H70.6719C70.9531 86.6191 70.9531 85.6758 70.9531 84.8672V84.8555H64.7891V84.0938H71.8672ZM71.9141 90.1289V93.8086H64.7539V90.1289H71.9141ZM65.668 90.8555V93.0586H71V90.8555H65.668ZM82.5547 83.5312V93.9727H81.6406V83.5312H82.5547ZM79.3906 84.5039V88.207H75.5V90.668C77.2285 90.668 78.7695 90.5918 80.6328 90.293L80.7266 91.0664C78.8047 91.3711 77.2227 91.4414 75.4297 91.4414H74.5625V87.457H78.4648V85.2656H74.5391V84.5039H79.3906Z" fill="#464C53"/>
<path d="M94.5225 52.3594C94.5225 54.1406 96.5615 55.7344 98.3779 56.0742L97.9561 56.8477C96.3857 56.4844 94.7275 55.3652 94.0537 53.8242C93.3799 55.3594 91.7275 56.4785 90.1514 56.8477L89.7295 56.0742C91.5342 55.7227 93.5615 54.1523 93.5615 52.3594V51.5625H94.5225V52.3594ZM98.8701 59.0625V59.8242H89.3311V59.0625H98.8701ZM109.241 59.1211V59.9062H99.7021V59.1211H109.241ZM108.327 51.8789V52.6406H106.675V56.2852H108.304V57.0352H100.569V56.2852H102.198V52.6406H100.546V51.8789H108.327ZM103.112 56.2852H105.772V52.6406H103.112V56.2852ZM114.14 51.9844V55.582H111.315V57.9023C112.517 57.8965 113.653 57.8555 115.042 57.6094L115.112 58.3711C113.624 58.6406 112.44 58.6641 111.116 58.6758H110.425V54.8203H113.261V52.7461H110.401V51.9844H114.14ZM118.979 50.8242V61.2422H118.101V50.8242H118.979ZM116.847 51.082V60.6914H115.979V55.3359H114.644V54.5859H115.979V51.082H116.847ZM128.858 55.8398V56.6016H121.663V51.7969H128.753V52.5586H122.577V55.8398H128.858ZM129.983 59.0508V59.8242H120.444V59.0508H129.983ZM131.46 57.0586C131.472 54.8438 132.069 53.0039 133.147 51.4453H134.038C133.241 52.6055 132.503 54.9727 132.503 57.0586C132.503 59.1445 133.241 61.5234 134.038 62.6836H133.147C132.069 61.1133 131.472 59.2734 131.46 57.0586ZM135.796 60.293H134.694L137.8 51.8086H138.913L142.019 60.293H140.905L140.062 57.9023H136.651L135.796 60.293ZM136.968 56.9766H139.733L138.386 53.1797H138.315L136.968 56.9766ZM145.253 57.0586C145.241 59.2734 144.644 61.1133 143.565 62.6836H142.675C143.472 61.5234 144.21 59.1445 144.21 57.0586C144.21 54.9727 143.472 52.6055 142.675 51.4453H143.565C144.644 53.0039 145.241 54.8438 145.253 57.0586Z" fill="#464C53"/>
<rect x="76.1772" y="104.129" width="5.6" height="5.6" rx="2.8" transform="rotate(-30 76.1772 104.129)" fill="white" stroke="#F8633C" stroke-width="1.6"/>
<rect x="173.172" y="48.1291" width="5.6" height="5.6" rx="2.8" transform="rotate(-30 173.172 48.1291)" fill="white" stroke="#063A74" stroke-width="1.6"/>
<rect x="204.172" y="101.822" width="5.6" height="5.6" rx="2.8" transform="rotate(-30 204.172 101.822)" fill="white" stroke="#063A74" stroke-width="1.6"/>
<rect x="107.177" y="157.822" width="5.6" height="5.6" rx="2.8" transform="rotate(-30 107.177 157.822)" fill="white" stroke="#063A74" stroke-width="1.6"/>
<path d="M86.9302 101.154C119.398 82.4091 137.601 71.8995 170.069 53.1543" stroke="#063A74" stroke-width="1.6" stroke-linecap="round" stroke-linejoin="round" stroke-dasharray="3 4"/>
<path d="M89.2349 96.0397C89.6445 95.4194 90.5638 95.4469 90.9355 96.0907L93.3174 100.216C93.6891 100.86 93.2534 101.67 92.5113 101.715L87.1946 102.034C86.3721 102.083 85.8462 101.172 86.3002 100.485L89.2349 96.0397Z" fill="#063A74"/>
<path d="M164.488 52.5925C163.746 52.637 163.31 53.4469 163.682 54.0907L166.064 58.2164C166.435 58.8602 167.355 58.8877 167.764 58.2674L170.699 53.8226C171.153 53.1349 170.627 52.224 169.804 52.2734L164.488 52.5925Z" fill="#063A74"/>
<path d="M117.93 154.848C150.398 136.102 168.601 125.593 201.069 106.848" stroke="#063A74" stroke-width="1.6" stroke-linecap="round" stroke-linejoin="round" stroke-dasharray="3 4"/>
<path d="M120.235 149.733C120.645 149.113 121.564 149.14 121.935 149.784L124.317 153.91C124.689 154.554 124.253 155.363 123.511 155.408L118.195 155.727C117.372 155.776 116.846 154.866 117.3 154.178L120.235 149.733Z" fill="#063A74"/>
<path d="M195.488 106.286C194.746 106.33 194.31 107.14 194.682 107.784L197.064 111.91C197.435 112.554 198.355 112.581 198.764 111.961L201.699 107.516C202.153 106.828 201.627 105.917 200.804 105.967L195.488 106.286Z" fill="#063A74"/>
<path d="M105.002 148.454L83.5022 111.215" stroke="#063A74" stroke-width="1.6" stroke-linecap="round" stroke-linejoin="round"/>
<path d="M100.888 147.881C100.268 147.472 100.296 146.552 100.939 146.181L105.065 143.799C105.709 143.427 106.519 143.863 106.563 144.605L106.882 149.922C106.932 150.744 106.021 151.27 105.333 150.816L100.888 147.881Z" fill="#063A74"/>
<path d="M153.5 120.454L132 83.2148" stroke="#063A74" stroke-width="1.6" stroke-linecap="round" stroke-linejoin="round"/>
<path d="M149.386 119.881C148.765 119.472 148.793 118.552 149.437 118.181L153.562 115.799C154.206 115.427 155.016 115.863 155.061 116.605L155.38 121.922C155.429 122.744 154.518 123.27 153.83 122.816L149.386 119.881Z" fill="#063A74"/>
<path d="M201.997 92.4539L180.497 55.2148" stroke="#063A74" stroke-width="1.6" stroke-linecap="round" stroke-linejoin="round"/>
<path d="M197.883 91.8813C197.263 91.4717 197.29 90.5524 197.934 90.1807L202.06 87.7988C202.704 87.4271 203.514 87.8628 203.558 88.6049L203.877 93.9216C203.927 94.7441 203.016 95.27 202.328 94.816L197.883 91.8813Z" fill="#063A74"/>
<rect opacity="0.2" x="97.342" y="155.188" width="20" height="20" rx="10" transform="rotate(-30 97.342 155.188)" fill="#F8633C"/>
<rect x="107.177" y="157.822" width="5.6" height="5.6" rx="2.8" transform="rotate(-30 107.177 157.822)" fill="white" stroke="#F8633C" stroke-width="1.6"/>
</svg>
