<svg width="311" height="161" viewBox="0 0 311 161" fill="none" xmlns="http://www.w3.org/2000/svg">
<mask id="path-1-inside-1_5569_425270" fill="white">
<path d="M0 16C0 7.16344 7.16344 0 16 0H295C303.837 0 311 7.16344 311 16V145C311 153.837 303.837 161 295 161H16C7.16345 161 0 153.837 0 145V16Z"/>
</mask>
<path d="M0 16C0 7.16344 7.16344 0 16 0H295C303.837 0 311 7.16344 311 16V145C311 153.837 303.837 161 295 161H16C7.16345 161 0 153.837 0 145V16Z" fill="white"/>
<path d="M16 0V1H295V0V-1H16V0ZM311 16H310V145H311H312V16H311ZM295 161V160H16V161V162H295V161ZM0 145H1V16H0H-1V145H0ZM16 161V160C7.71574 160 1 153.284 1 145H0H-1C-1 154.389 6.61117 162 16 162V161ZM311 145H310C310 153.284 303.284 160 295 160V161V162C304.389 162 312 154.389 312 145H311ZM295 0V1C303.284 1 310 7.71573 310 16H311H312C312 6.61116 304.389 -1 295 -1V0ZM16 0V-1C6.61116 -1 -1 6.61116 -1 16H0H1C1 7.71573 7.71573 1 16 1V0Z" fill="#CDD1D5" mask="url(#path-1-inside-1_5569_425270)"/>
<path d="M295 60H24" stroke="#CDD1D5"/>
<path d="M39 50V60" stroke="#CDD1D5"/>
<path d="M88 50V60" stroke="#CDD1D5"/>
<path d="M137 50V60" stroke="#CDD1D5"/>
<path d="M186 50V60" stroke="#CDD1D5"/>
<path d="M235 50V60" stroke="#CDD1D5"/>
<path d="M284 50V60" stroke="#CDD1D5"/>
<path d="M124.213 27.9766V29.4766H127.248V27.9766H128.162V32.5117H123.311V27.9766H124.213ZM124.213 31.7617H127.248V30.1914H124.213V31.7617ZM131.01 27.5312V29.793H132.58V30.5664H131.01V32.9219H130.096V27.5312H131.01ZM131.01 33.4141V35.9336H125.291V37.082H131.396V37.832H124.389V35.2305H130.096V34.1523H124.365V33.4141H131.01ZM136.342 29.6055C136.342 30.7539 137.15 31.9258 138.486 32.4297L138.006 33.1328C137.004 32.7461 136.283 32.002 135.908 31.1055C135.521 32.1016 134.777 32.9863 133.752 33.4258L133.248 32.7109C134.619 32.1133 135.463 30.7656 135.463 29.6055V28.1875H136.342V29.6055ZM142.084 27.543V33.9766H141.205V31.1055H139.822V33.6484H138.955V27.7422H139.822V30.3438H141.205V27.543H142.084ZM138.639 34.2109C140.795 34.2109 142.143 34.8906 142.143 36.0742C142.143 37.2461 140.795 37.9258 138.639 37.9258C136.471 37.9258 135.135 37.2461 135.146 36.0742C135.135 34.8906 136.471 34.2109 138.639 34.2109ZM138.639 34.9141C137.045 34.9141 136.049 35.3477 136.061 36.0742C136.049 36.7891 137.045 37.2109 138.639 37.2109C140.221 37.2109 141.217 36.7891 141.229 36.0742C141.217 35.3477 140.221 34.9141 138.639 34.9141ZM146.561 27.918C148.119 27.9297 149.256 28.8672 149.256 30.2266C149.256 31.5859 148.119 32.5234 146.561 32.5234C144.979 32.5234 143.854 31.5859 143.854 30.2266C143.854 28.8672 144.979 27.9297 146.561 27.918ZM146.561 28.6914C145.518 28.6914 144.744 29.3242 144.756 30.2266C144.744 31.1406 145.518 31.7734 146.561 31.7734C147.592 31.7734 148.365 31.1406 148.365 30.2266C148.365 29.3242 147.592 28.6914 146.561 28.6914ZM152.209 27.5312V32.8867H151.295V27.5312H152.209ZM152.209 33.3906V35.8984H146.361V37.0703H152.584V37.8086H145.459V35.207H151.295V34.1289H145.436V33.3906H152.209Z" fill="#464C53"/>
<path d="M28.2773 72.5156V81H27.2109V73.6172H27.1641L25.1016 74.9883V73.9219L27.2109 72.5156H28.2773ZM33.3164 81.1172C31.4297 81.1172 30.3516 79.5352 30.3516 76.7578C30.3516 74.0039 31.4531 72.3984 33.3164 72.3984C35.1797 72.3984 36.2812 74.0039 36.2812 76.7578C36.2812 79.5352 35.1914 81.1172 33.3164 81.1172ZM33.3164 80.1797C34.5352 80.1797 35.25 78.9492 35.25 76.7578C35.25 74.5664 34.5352 73.3125 33.3164 73.3125C32.0977 73.3125 31.3711 74.5664 31.3711 76.7578C31.3711 78.9492 32.0859 80.1797 33.3164 80.1797ZM40.7227 72.1172L37.9805 82.2773H37.0664L39.7969 72.1172H40.7227ZM44.6953 72.5156V81H43.6289V73.6172H43.582L41.5195 74.9883V73.9219L43.6289 72.5156H44.6953ZM49.9102 81.1172C48.4336 81.0938 46.8164 80.2266 46.8164 77.0859C46.8164 74.0859 48.0469 72.3984 50.0391 72.3984C51.5273 72.3984 52.5703 73.3125 52.793 74.6484H51.75C51.5508 73.8984 50.9883 73.3359 50.0391 73.3359C48.6445 73.3359 47.8125 74.5312 47.8125 76.5703H47.918C48.4102 75.8672 49.1836 75.4453 50.0977 75.4453C51.6094 75.4453 52.8633 76.6172 52.8633 78.2578C52.8633 79.8516 51.6914 81.1289 49.9102 81.1172ZM49.9102 80.1914C51.0117 80.1914 51.832 79.3242 51.8438 78.2695C51.832 77.2266 51.0469 76.3711 49.9336 76.3711C48.8203 76.3711 47.9648 77.2734 47.9531 78.2812C47.9531 79.2773 48.7734 80.1914 49.9102 80.1914Z" fill="#464C53"/>
<path d="M78.2207 72.5156V81H77.1543V73.6172H77.1074L75.0449 74.9883V73.9219L77.1543 72.5156H78.2207ZM83.4824 72.5156V81H82.416V73.6172H82.3691L80.3066 74.9883V73.9219L82.416 72.5156H83.4824ZM88.7793 72.1172L86.0371 82.2773H85.123L87.8535 72.1172H88.7793ZM92.752 72.5156V81H91.6855V73.6172H91.6387L89.5762 74.9883V73.9219L91.6855 72.5156H92.752ZM97.9668 81.1172C96.4902 81.0938 94.873 80.2266 94.873 77.0859C94.873 74.0859 96.1035 72.3984 98.0957 72.3984C99.584 72.3984 100.627 73.3125 100.85 74.6484H99.8066C99.6074 73.8984 99.0449 73.3359 98.0957 73.3359C96.7012 73.3359 95.8691 74.5312 95.8691 76.5703H95.9746C96.4668 75.8672 97.2402 75.4453 98.1543 75.4453C99.666 75.4453 100.92 76.6172 100.92 78.2578C100.92 79.8516 99.748 81.1289 97.9668 81.1172ZM97.9668 80.1914C99.0684 80.1914 99.8887 79.3242 99.9004 78.2695C99.8887 77.2266 99.1035 76.3711 97.9902 76.3711C96.877 76.3711 96.0215 77.2734 96.0098 78.2812C96.0098 79.2773 96.8301 80.1914 97.9668 80.1914Z" fill="#464C53"/>
<path d="M130.01 72.5156V81H128.943V73.6172H128.896L126.834 74.9883V73.9219L128.943 72.5156H130.01ZM132.271 81L132.26 80.2266L135.154 77.1797C136.162 76.1133 136.643 75.5391 136.643 74.7539C136.643 73.8867 135.904 73.3125 134.955 73.3125C133.947 73.3125 133.303 73.957 133.303 74.9062H132.307C132.295 73.4062 133.455 72.3984 134.99 72.3984C136.525 72.3984 137.627 73.4297 137.627 74.7539C137.627 75.7031 137.182 76.4414 135.682 77.9883L133.736 79.9922V80.0625H137.779V81H132.271ZM142.35 72.1172L139.607 82.2773H138.693L141.424 72.1172H142.35ZM146.322 72.5156V81H145.256V73.6172H145.209L143.146 74.9883V73.9219L145.256 72.5156H146.322Z" fill="#464C53"/>
<path d="M174.83 72.5156V81H173.764V73.6172H173.717L171.654 74.9883V73.9219L173.764 72.5156H174.83ZM177.092 81L177.08 80.2266L179.975 77.1797C180.982 76.1133 181.463 75.5391 181.463 74.7539C181.463 73.8867 180.725 73.3125 179.775 73.3125C178.768 73.3125 178.123 73.957 178.123 74.9062H177.127C177.115 73.4062 178.275 72.3984 179.811 72.3984C181.346 72.3984 182.447 73.4297 182.447 74.7539C182.447 75.7031 182.002 76.4414 180.502 77.9883L178.557 79.9922V80.0625H182.6V81H177.092ZM187.17 72.1172L184.428 82.2773H183.514L186.244 72.1172H187.17ZM191.143 72.5156V81H190.076V73.6172H190.029L187.967 74.9883V73.9219L190.076 72.5156H191.143ZM196.357 81.1172C194.881 81.0938 193.264 80.2266 193.264 77.0859C193.264 74.0859 194.494 72.3984 196.486 72.3984C197.975 72.3984 199.018 73.3125 199.24 74.6484H198.197C197.998 73.8984 197.436 73.3359 196.486 73.3359C195.092 73.3359 194.26 74.5312 194.26 76.5703H194.365C194.857 75.8672 195.631 75.4453 196.545 75.4453C198.057 75.4453 199.311 76.6172 199.311 78.2578C199.311 79.8516 198.139 81.1289 196.357 81.1172ZM196.357 80.1914C197.459 80.1914 198.279 79.3242 198.291 78.2695C198.279 77.2266 197.494 76.3711 196.381 76.3711C195.268 76.3711 194.412 77.2734 194.4 78.2812C194.4 79.2773 195.221 80.1914 196.357 80.1914Z" fill="#464C53"/>
<path d="M231.031 72.5156V81H229.965V73.6172H229.918L227.855 74.9883V73.9219L229.965 72.5156H231.031ZM236.328 72.1172L233.586 82.2773H232.672L235.402 72.1172H236.328ZM240.301 72.5156V81H239.234V73.6172H239.188L237.125 74.9883V73.9219L239.234 72.5156H240.301Z" fill="#464C53"/>
<path d="M276.951 72.5156V81H275.885V73.6172H275.838L273.775 74.9883V73.9219L275.885 72.5156H276.951ZM282.248 72.1172L279.506 82.2773H278.592L281.322 72.1172H282.248ZM286.221 72.5156V81H285.154V73.6172H285.107L283.045 74.9883V73.9219L285.154 72.5156H286.221ZM291.248 81.1172C289.713 81.1172 288.553 80.168 288.494 78.8672H289.514C289.596 79.6289 290.334 80.1914 291.248 80.1914C292.35 80.1914 293.146 79.3828 293.146 78.3164C293.146 77.2148 292.314 76.4062 291.178 76.3945C290.463 76.3828 289.912 76.6055 289.596 77.1562H288.576L289.174 72.5156H293.768V73.4531H290.053L289.736 75.9375H289.818C290.193 75.6445 290.768 75.4453 291.365 75.4453C292.982 75.4453 294.178 76.6406 294.178 78.293C294.178 79.9336 292.936 81.1172 291.248 81.1172Z" fill="#464C53"/>
<path d="M225.754 29.3359V30.0859H220.527V29.3359H222.695V27.8477H223.609V29.3359H225.754ZM223.141 30.7891C224.453 30.7891 225.391 31.7734 225.402 33.1562C225.391 34.5508 224.453 35.5469 223.141 35.5469C221.84 35.5469 220.902 34.5508 220.902 33.1562C220.902 31.7734 221.84 30.7891 223.141 30.7891ZM223.141 31.5625C222.32 31.5742 221.723 32.2422 221.723 33.1562C221.723 34.082 222.32 34.75 223.141 34.7383C223.973 34.75 224.582 34.082 224.582 33.1562C224.582 32.2422 223.973 31.5742 223.141 31.5625ZM229.422 27.5312V37.9492H228.543V32.6875H227.16V37.4336H226.293V27.7891H227.16V31.9258H228.543V27.5312H229.422ZM239.828 27.5312V37.9492H238.949V27.5312H239.828ZM237.719 27.7891V37.4102H236.852V32.043H235.094V31.293H236.852V27.7891H237.719ZM233.98 30.5078C233.98 32.3125 234.789 34.1055 236.23 34.9375L235.668 35.6172C234.643 35.002 233.916 33.877 233.559 32.5469C233.178 33.9824 232.422 35.207 231.379 35.8633L230.793 35.1719C232.246 34.3047 233.09 32.4062 233.09 30.5078V29.5234H231.086V28.7617H235.891V29.5234H233.98V30.5078Z" fill="#464C53"/>
<rect width="98" height="28" transform="translate(39 99)" fill="#FEEFEC"/>
<path d="M73.7471 111.656C73.542 110.68 72.7021 110.152 71.7744 110.152C70.4951 110.152 69.499 111.139 69.499 112.965C69.499 114.791 70.4951 115.777 71.7744 115.777C72.7021 115.777 73.5322 115.25 73.7471 114.283H74.626C74.3721 115.729 73.21 116.598 71.7744 116.598C69.958 116.598 68.6494 115.201 68.6494 112.965C68.6494 110.729 69.958 109.332 71.7744 109.332C73.2002 109.332 74.3623 110.191 74.626 111.656H73.7471ZM78.0537 116.5H75.8564V109.43H78.1416C80.2021 109.43 81.4229 110.758 81.4229 112.955C81.4229 115.162 80.2021 116.5 78.0537 116.5ZM76.7354 115.719H77.9951C79.7334 115.719 80.5635 114.674 80.5635 112.955C80.5635 111.246 79.7334 110.211 78.083 110.211H76.7354V115.719ZM86.6377 109.42C86.6377 110.641 88.2393 111.705 89.8018 111.92L89.4893 112.545C88.1416 112.32 86.8086 111.573 86.2471 110.504C85.6904 111.578 84.3525 112.32 83.0049 112.545L82.6924 111.92C84.2549 111.705 85.8467 110.66 85.8467 109.42V108.922H86.6377V109.42ZM90.1924 113.502V114.146H86.5986V117.291H85.8467V114.146H82.2822V113.502H90.1924ZM98.0928 114.244V117.291H97.3311V114.889H92.2529V114.244H98.0928ZM98.0928 108.609V113.775H97.3311V108.609H98.0928ZM93.4053 109.137C94.7236 109.127 95.6807 109.977 95.6807 111.178C95.6807 112.398 94.7236 113.238 93.4053 113.238C92.0869 113.238 91.1299 112.398 91.1299 111.178C91.1299 109.977 92.0869 109.127 93.4053 109.137ZM93.4053 109.791C92.5166 109.791 91.8721 110.357 91.8818 111.178C91.8721 112.008 92.5166 112.584 93.4053 112.574C94.2842 112.584 94.9287 112.008 94.9287 111.178C94.9287 110.357 94.2842 109.791 93.4053 109.791ZM107.507 112.574V113.17H105.358V113.961H106.511V115.807H101.296V116.637H106.794V117.193H100.524V115.27H105.749V114.527H100.515V113.961H101.716V113.17H99.5576V112.574H107.507ZM106.481 108.873V110.66H101.354V111.402H106.638V111.959H100.593V110.143H105.71V109.42H100.563V108.873H106.481ZM102.468 113.961H104.597V113.17H102.468V113.961Z" fill="#D3430A"/>
<rect width="49" height="28" transform="translate(235 99)" fill="#FEEFEC"/>
<path d="M245.247 111.656C245.042 110.68 244.202 110.152 243.274 110.152C241.995 110.152 240.999 111.139 240.999 112.965C240.999 114.791 241.995 115.777 243.274 115.777C244.202 115.777 245.032 115.25 245.247 114.283H246.126C245.872 115.729 244.71 116.598 243.274 116.598C241.458 116.598 240.149 115.201 240.149 112.965C240.149 110.729 241.458 109.332 243.274 109.332C244.7 109.332 245.862 110.191 246.126 111.656H245.247ZM249.554 116.5H247.356V109.43H249.642C251.702 109.43 252.923 110.758 252.923 112.955C252.923 115.162 251.702 116.5 249.554 116.5ZM248.235 115.719H249.495C251.233 115.719 252.063 114.674 252.063 112.955C252.063 111.246 251.233 110.211 249.583 110.211H248.235V115.719ZM258.138 109.42C258.138 110.641 259.739 111.705 261.302 111.92L260.989 112.545C259.642 112.32 258.309 111.573 257.747 110.504C257.19 111.578 255.853 112.32 254.505 112.545L254.192 111.92C255.755 111.705 257.347 110.66 257.347 109.42V108.922H258.138V109.42ZM261.692 113.502V114.146H258.099V117.291H257.347V114.146H253.782V113.502H261.692ZM269.593 114.244V117.291H268.831V114.889H263.753V114.244H269.593ZM269.593 108.609V113.775H268.831V108.609H269.593ZM264.905 109.137C266.224 109.127 267.181 109.977 267.181 111.178C267.181 112.398 266.224 113.238 264.905 113.238C263.587 113.238 262.63 112.398 262.63 111.178C262.63 109.977 263.587 109.127 264.905 109.137ZM264.905 109.791C264.017 109.791 263.372 110.357 263.382 111.178C263.372 112.008 264.017 112.584 264.905 112.574C265.784 112.584 266.429 112.008 266.429 111.178C266.429 110.357 265.784 109.791 264.905 109.791ZM279.007 112.574V113.17H276.858V113.961H278.011V115.807H272.796V116.637H278.294V117.193H272.024V115.27H277.249V114.527H272.015V113.961H273.216V113.17H271.058V112.574H279.007ZM277.981 108.873V110.66H272.854V111.402H278.138V111.959H272.093V110.143H277.21V109.42H272.063V108.873H277.981ZM273.968 113.961H276.097V113.17H273.968V113.961Z" fill="#D3430A"/>
<rect width="98" height="28" transform="translate(137 99)" fill="#EEF2F7"/>
<path d="M174.586 107.531V117.949H173.707V112.488H172.172V117.41H171.328V107.766H172.172V111.727H173.707V107.531H174.586ZM169.969 108.809V109.57H166.98V114.586C168.416 114.58 169.412 114.527 170.566 114.293L170.648 115.066C169.395 115.324 168.328 115.371 166.734 115.371H166.066V108.809H169.969ZM179.098 110.742C179.098 112.418 179.953 114.129 181.371 114.891L180.844 115.582C179.807 115.02 179.057 113.941 178.676 112.688C178.301 114.023 177.557 115.184 176.52 115.816L175.969 115.113C177.387 114.293 178.219 112.465 178.23 110.742V110.227H176.25V109.465H178.23V107.918H179.109V109.465H181.055V110.227H179.098V110.742ZM184.957 107.531V117.949H184.078V107.531H184.957ZM182.848 107.789V117.41H181.98V112.43H180.34V111.645H181.98V107.789H182.848ZM194.707 108.094V108.867C194.707 109.676 194.707 110.625 194.438 111.926H195.961V112.688H186.422V111.926H193.512C193.793 110.619 193.793 109.676 193.793 108.867V108.855H187.629V108.094H194.707ZM194.754 114.129V117.809H187.594V114.129H194.754ZM188.508 114.855V117.059H193.84V114.855H188.508ZM205.395 107.531V117.973H204.48V107.531H205.395ZM202.23 108.504V112.207H198.34V114.668C200.068 114.668 201.609 114.592 203.473 114.293L203.566 115.066C201.645 115.371 200.062 115.441 198.27 115.441H197.402V111.457H201.305V109.266H197.379V108.504H202.23Z" fill="#052B57"/>
<path d="M39 95V126" stroke="#F8633C" stroke-width="1.2" stroke-linecap="round" stroke-linejoin="round" stroke-dasharray="3 3"/>
<path d="M137 95V126" stroke="#063A74" stroke-width="1.2" stroke-linecap="round" stroke-linejoin="round" stroke-dasharray="3 3"/>
<path d="M235 95V126" stroke="#063A74" stroke-width="1.2" stroke-linecap="round" stroke-linejoin="round" stroke-dasharray="3 3"/>
<path d="M284 95V126" stroke="#F8633C" stroke-width="1.2" stroke-linecap="round" stroke-linejoin="round" stroke-dasharray="3 3"/>
</svg>
