<svg width="287" height="222" viewBox="0 0 287 222" fill="none" xmlns="http://www.w3.org/2000/svg">
<mask id="path-1-inside-1_5569_425144" fill="white">
<path d="M0 16C0 7.16345 7.16344 0 16 0H271C279.837 0 287 7.16344 287 16V206C287 214.837 279.837 222 271 222H16C7.16344 222 0 214.837 0 206V16Z"/>
</mask>
<path d="M0 16C0 7.16345 7.16344 0 16 0H271C279.837 0 287 7.16344 287 16V206C287 214.837 279.837 222 271 222H16C7.16344 222 0 214.837 0 206V16Z" fill="white"/>
<path d="M16 0V1H271V0V-1H16V0ZM287 16H286V206H287H288V16H287ZM271 222V221H16V222V223H271V222ZM0 206H1V16H0H-1V206H0ZM16 222V221C7.71573 221 1 214.284 1 206H0H-1C-1 215.389 6.61116 223 16 223V222ZM287 206H286C286 214.284 279.284 221 271 221V222V223C280.389 223 288 215.389 288 206H287ZM271 0V1C279.284 1 286 7.71573 286 16H287H288C288 6.61116 280.389 -1 271 -1V0ZM16 0V-1C6.61116 -1 -1 6.61116 -1 16H0H1C1 7.71573 7.71573 1 16 1V0Z" fill="#CDD1D5" mask="url(#path-1-inside-1_5569_425144)"/>
<mask id="path-3-inside-2_5569_425144" fill="white">
<path d="M24 48H264V198H24V48Z"/>
</mask>
<path d="M24 48H264V198H24V48Z" fill="white"/>
<path d="M24 198H23V199H24V198ZM264 198V197H24V198V199H264V198ZM24 198H25V48H24H23V198H24Z" fill="#CDD1D5" mask="url(#path-3-inside-2_5569_425144)"/>
<path d="M59 150.5L228 48" stroke="#063A74" stroke-width="1.6" stroke-linecap="round" stroke-linejoin="round" stroke-dasharray="3 4"/>
<path d="M202.594 35.2656V34.3984L206.414 28.5156H207.715V34.3398H208.898V35.2656H207.715V37H206.707V35.2656H202.594ZM203.73 34.3398H206.707V29.8516H206.602L203.73 34.2695V34.3398ZM218.812 27.5312V37.9492H217.91V32.5H216.469V37.4336H215.59V27.8125H216.469V31.7383H217.91V27.5312H218.812ZM214.406 28.8906C214.395 31.5391 213.469 34.0469 210.469 35.7109L209.93 35.0664C212.35 33.7188 213.352 31.8086 213.504 29.6523H210.328V28.8906H214.406ZM228.879 27.543V33.6836H227.953V33.1094H225.844V32.5H227.953V27.543H228.879ZM220.254 31.4688C222.27 31.4805 224.848 31.457 227.098 31.2109L227.156 31.8086C226.137 31.9551 225.076 32.043 224.039 32.0898V33.7188H223.137V32.125C222.152 32.1602 221.209 32.166 220.359 32.1602L220.254 31.4688ZM228.879 34.0586V36.2148H222.797V37.1523H229.219V37.832H221.895V35.5703H227.965V34.7266H221.848V34.0586H228.879ZM223.652 27.7422C225.199 27.7422 226.23 28.3516 226.242 29.3125C226.23 30.2852 225.199 30.8711 223.652 30.8711C222.082 30.8711 221.062 30.2852 221.062 29.3125C221.062 28.3516 222.082 27.7422 223.652 27.7422ZM223.652 28.3867C222.598 28.3867 221.918 28.75 221.93 29.3125C221.918 29.8633 222.598 30.2383 223.652 30.2383C224.695 30.2383 225.375 29.8633 225.375 29.3125C225.375 28.75 224.695 28.3867 223.652 28.3867ZM241.957 28.0938V28.8672C241.957 29.6758 241.957 30.625 241.688 31.9258H243.211V32.6875H233.672V31.9258H240.762C241.043 30.6191 241.043 29.6758 241.043 28.8672V28.8555H234.879V28.0938H241.957ZM242.004 34.1289V37.8086H234.844V34.1289H242.004ZM235.758 34.8555V37.0586H241.09V34.8555H235.758ZM252.645 27.5312V37.9727H251.73V27.5312H252.645ZM249.48 28.5039V32.207H245.59V34.668C247.318 34.668 248.859 34.5918 250.723 34.293L250.816 35.0664C248.895 35.3711 247.312 35.4414 245.52 35.4414H244.652V31.457H248.555V29.2656H244.629V28.5039H249.48Z" fill="#464C53"/>
<path d="M121.5 67.002C127.851 67.002 133 72.1507 133 78.502C133 80.5239 132.476 82.4224 131.56 84.0732L133.817 88.1885C134.253 88.9824 133.493 89.9005 132.632 89.6211L127.873 88.0732C126.049 89.2904 123.858 90.002 121.5 90.002H76.5C70.1489 90.0018 65 84.8531 65 78.502C65 72.1508 70.1489 67.0021 76.5 67.002H121.5Z" fill="#F8633C"/>
<path d="M76.7756 82.1172C75.0881 82.1172 73.8811 81.2148 73.8225 79.8672H74.8889C74.9475 80.6758 75.7561 81.1797 76.7639 81.1797C77.8772 81.1797 78.6975 80.5703 78.6975 79.6914C78.6975 78.7656 77.9592 78.1094 76.635 78.1094H75.9436V77.1836H76.635C77.6663 77.1836 78.3811 76.6094 78.3811 75.7305C78.3811 74.8867 77.76 74.3125 76.7991 74.3125C75.8967 74.3125 75.0647 74.8164 75.0178 75.6484H73.9983C74.0569 74.3008 75.2991 73.3984 76.8108 73.3984C78.428 73.3984 79.4124 74.4531 79.4006 75.6719C79.4124 76.6328 78.8499 77.3477 77.9592 77.5938V77.6523C79.0608 77.8281 79.7405 78.6133 79.7288 79.6914C79.7405 81.0859 78.4631 82.1172 76.7756 82.1172ZM89.7717 72.5312V82.9492H88.8694V77.5H87.428V82.4336H86.5491V72.8125H87.428V76.7383H88.8694V72.5312H89.7717ZM85.3655 73.8906C85.3538 76.5391 84.428 79.0469 81.428 80.7109L80.8889 80.0664C83.3088 78.7188 84.3108 76.8086 84.4631 74.6523H81.2874V73.8906H85.3655ZM99.8381 72.543V78.6836H98.9124V78.1094H96.803V77.5H98.9124V72.543H99.8381ZM91.2131 76.4688C93.2288 76.4805 95.8069 76.457 98.0569 76.2109L98.1155 76.8086C97.0959 76.9551 96.0354 77.043 94.9983 77.0898V78.7188H94.0959V77.125C93.1116 77.1602 92.1682 77.166 91.3186 77.1602L91.2131 76.4688ZM99.8381 79.0586V81.2148H93.7561V82.1523H100.178V82.832H92.8538V80.5703H98.9241V79.7266H92.8069V79.0586H99.8381ZM94.6116 72.7422C96.1584 72.7422 97.1897 73.3516 97.2014 74.3125C97.1897 75.2852 96.1584 75.8711 94.6116 75.8711C93.0413 75.8711 92.0217 75.2852 92.0217 74.3125C92.0217 73.3516 93.0413 72.7422 94.6116 72.7422ZM94.6116 73.3867C93.5569 73.3867 92.8772 73.75 92.8889 74.3125C92.8772 74.8633 93.5569 75.2383 94.6116 75.2383C95.6545 75.2383 96.3342 74.8633 96.3342 74.3125C96.3342 73.75 95.6545 73.3867 94.6116 73.3867ZM112.916 73.0938V73.8672C112.916 74.6758 112.916 75.625 112.647 76.9258H114.17V77.6875H104.631V76.9258H111.721C112.002 75.6191 112.002 74.6758 112.002 73.8672V73.8555H105.838V73.0938H112.916ZM112.963 79.1289V82.8086H105.803V79.1289H112.963ZM106.717 79.8555V82.0586H112.049V79.8555H106.717ZM123.604 72.5312V82.9727H122.69V72.5312H123.604ZM120.44 73.5039V77.207H116.549V79.668C118.278 79.668 119.819 79.5918 121.682 79.293L121.776 80.0664C119.854 80.3711 118.272 80.4414 116.479 80.4414H115.612V76.457H119.514V74.2656H115.588V73.5039H120.44Z" fill="white"/>
<path d="M34.0273 170L34.0156 169.227L36.9102 166.18C37.918 165.113 38.3984 164.539 38.3984 163.754C38.3984 162.887 37.6602 162.312 36.7109 162.312C35.7031 162.312 35.0586 162.957 35.0586 163.906H34.0625C34.0508 162.406 35.2109 161.398 36.7461 161.398C38.2812 161.398 39.3828 162.43 39.3828 163.754C39.3828 164.703 38.9375 165.441 37.4375 166.988L35.4922 168.992V169.062H39.5352V170H34.0273ZM49.5898 160.531V170.949H48.6875V165.5H47.2461V170.434H46.3672V160.812H47.2461V164.738H48.6875V160.531H49.5898ZM45.1836 161.891C45.1719 164.539 44.2461 167.047 41.2461 168.711L40.707 168.066C43.127 166.719 44.1289 164.809 44.2812 162.652H41.1055V161.891H45.1836ZM59.6562 160.543V166.684H58.7305V166.109H56.6211V165.5H58.7305V160.543H59.6562ZM51.0312 164.469C53.0469 164.48 55.625 164.457 57.875 164.211L57.9336 164.809C56.9141 164.955 55.8535 165.043 54.8164 165.09V166.719H53.9141V165.125C52.9297 165.16 51.9863 165.166 51.1367 165.16L51.0312 164.469ZM59.6562 167.059V169.215H53.5742V170.152H59.9961V170.832H52.6719V168.57H58.7422V167.727H52.625V167.059H59.6562ZM54.4297 160.742C55.9766 160.742 57.0078 161.352 57.0195 162.312C57.0078 163.285 55.9766 163.871 54.4297 163.871C52.8594 163.871 51.8398 163.285 51.8398 162.312C51.8398 161.352 52.8594 160.742 54.4297 160.742ZM54.4297 161.387C53.375 161.387 52.6953 161.75 52.707 162.312C52.6953 162.863 53.375 163.238 54.4297 163.238C55.4727 163.238 56.1523 162.863 56.1523 162.312C56.1523 161.75 55.4727 161.387 54.4297 161.387ZM72.7344 161.094V161.867C72.7344 162.676 72.7344 163.625 72.4648 164.926H73.9883V165.688H64.4492V164.926H71.5391C71.8203 163.619 71.8203 162.676 71.8203 161.867V161.855H65.6562V161.094H72.7344ZM72.7812 167.129V170.809H65.6211V167.129H72.7812ZM66.5352 167.855V170.059H71.8672V167.855H66.5352ZM83.4219 160.531V170.973H82.5078V160.531H83.4219ZM80.2578 161.504V165.207H76.3672V167.668C78.0957 167.668 79.6367 167.592 81.5 167.293L81.5938 168.066C79.6719 168.371 78.0898 168.441 76.2969 168.441H75.4297V164.457H79.332V162.266H75.4062V161.504H80.2578Z" fill="#464C53"/>
<rect x="56.2" y="148.2" width="5.6" height="5.6" rx="2.8" fill="white" stroke="#063A74" stroke-width="1.6"/>
<rect x="225.2" y="45.2" width="5.6" height="5.6" rx="2.8" fill="white" stroke="#063A74" stroke-width="1.6"/>
<rect opacity="0.2" x="134" y="89" width="20" height="20" rx="10" fill="#F8633C"/>
<rect x="141.2" y="96.2" width="5.6" height="5.6" rx="2.8" fill="white" stroke="#F8633C" stroke-width="1.6"/>
</svg>
