<svg width="25" height="25" viewBox="0 0 25 25" fill="none" xmlns="http://www.w3.org/2000/svg">
<g clip-path="url(#clip0_8041_125330)">
<path fill-rule="evenodd" clip-rule="evenodd" d="M8.36621 13.592C7.10643 13.592 5.89825 14.0925 5.00745 14.9833C4.11666 15.8741 3.61621 17.0823 3.61621 18.342C3.61621 19.0979 3.91648 19.8228 4.45096 20.3573C4.98544 20.8918 5.71034 21.192 6.46621 21.192H17.8662C18.6221 21.192 19.347 20.8918 19.8815 20.3573C20.4159 19.8228 20.7162 19.0979 20.7162 18.342C20.7162 17.0823 20.2158 15.8741 19.325 14.9833C18.4342 14.0925 17.226 13.592 15.9662 13.592H8.36621Z" fill="#FA967C"/>
<path d="M8.98452 4.95986C8.14061 5.80378 7.6665 6.94837 7.6665 8.14185C7.6665 9.33532 8.14061 10.4799 8.98452 11.3238C9.82844 12.1677 10.973 12.6418 12.1665 12.6418C13.36 12.6418 14.5046 12.1677 15.3485 11.3238C16.1924 10.4799 16.6665 9.33532 16.6665 8.14185C16.6665 6.94837 16.1924 5.80378 15.3485 4.95986C14.5046 4.11595 13.36 3.64185 12.1665 3.64185C10.973 3.64185 9.82844 4.11595 8.98452 4.95986Z" fill="#FA967C"/>
<path d="M8.98452 4.95986C8.14061 5.80378 7.6665 6.94837 7.6665 8.14185C7.6665 9.33532 8.14061 10.4799 8.98452 11.3238C9.82844 12.1677 10.973 12.6418 12.1665 12.6418C13.36 12.6418 14.5046 12.1677 15.3485 11.3238C16.1924 10.4799 16.6665 9.33532 16.6665 8.14185C16.6665 6.94837 16.1924 5.80378 15.3485 4.95986C14.5046 4.11595 13.36 3.64185 12.1665 3.64185C10.973 3.64185 9.82844 4.11595 8.98452 4.95986Z" fill="#D63D4A"/>
</g>
<defs>
<clipPath id="clip0_8041_125330">
<rect width="24" height="24" fill="white" transform="translate(0.166504 0.666748)"/>
</clipPath>
</defs>
</svg>
