<svg width="24" height="25" viewBox="0 0 24 25" fill="none" xmlns="http://www.w3.org/2000/svg">
<g clip-path="url(#clip0_3334_97565)">
<path d="M15 11.2727C15 10.1681 15.8954 9.27271 17 9.27271H21C22.1046 9.27271 23 10.1681 23 11.2727V20C23 21.1045 22.1046 22 21 22H17C15.8954 22 15 21.1045 15 20V11.2727Z" fill="#D63D4A"/>
<rect x="3" y="3" width="15" height="19" rx="2" fill="#FA967C"/>
<path fill-rule="evenodd" clip-rule="evenodd" d="M6.5 8.5C6.5 7.94772 6.94772 7.5 7.5 7.5H13.5C14.0523 7.5 14.5 7.94772 14.5 8.5C14.5 9.05228 14.0523 9.5 13.5 9.5H7.5C6.94772 9.5 6.5 9.05228 6.5 8.5ZM6.5 12.5C6.5 11.9477 6.94772 11.5 7.5 11.5H13.5C14.0523 11.5 14.5 11.9477 14.5 12.5C14.5 13.0523 14.0523 13.5 13.5 13.5H7.5C6.94772 13.5 6.5 13.0523 6.5 12.5ZM8 17C7.44772 17 7 17.4477 7 18V22H14V18C14 17.4477 13.5523 17 13 17H8Z" fill="#D63D4A"/>
</g>
<defs>
<clipPath id="clip0_3334_97565">
<rect width="24" height="24" fill="white" transform="translate(0 0.5)"/>
</clipPath>
</defs>
</svg>
