<svg width="24" height="25" viewBox="0 0 24 25" fill="none" xmlns="http://www.w3.org/2000/svg">
<g clip-path="url(#clip0_3334_97546)">
<path fill-rule="evenodd" clip-rule="evenodd" d="M7.5 7C7.5 5.80653 7.97411 4.66193 8.81802 3.81802C9.66193 2.97411 10.8065 2.5 12 2.5C13.1935 2.5 14.3381 2.97411 15.182 3.81802C16.0259 4.66193 16.5 5.80653 16.5 7C16.5 8.19347 16.0259 9.33807 15.182 10.182C14.3381 11.0259 13.1935 11.5 12 11.5C10.8065 11.5 9.66193 11.0259 8.81802 10.182C7.97411 9.33807 7.5 8.19347 7.5 7Z" fill="#D63D4A"/>
<path fill-rule="evenodd" clip-rule="evenodd" d="M7.55556 12.5C6.08213 12.5 4.66905 13.1585 3.62718 14.3306C2.58532 15.5027 2 17.0924 2 18.75C2 19.7446 2.35119 20.6984 2.97631 21.4017C3.60143 22.1049 4.44928 22.5 5.33333 22.5H18.6667C19.5507 22.5 20.3986 22.1049 21.0237 21.4017C21.6488 20.6984 22 19.7446 22 18.75C22 17.0924 21.4147 15.5027 20.3728 14.3306C19.3309 13.1585 17.9179 12.5 16.4444 12.5H7.55556Z" fill="#FA967C"/>
</g>
<defs>
<clipPath id="clip0_3334_97546">
<rect width="24" height="24" fill="white" transform="translate(0 0.5)"/>
</clipPath>
</defs>
</svg>
