<svg width="120" height="120" viewBox="0 0 120 120" fill="none" xmlns="http://www.w3.org/2000/svg">
<g clip-path="url(#clip0_2404_113417)">
<rect x="43.002" y="62.9775" width="3.56369" height="46.3279" fill="#EFF5FF"/>
<rect x="44.7852" y="62.9775" width="1.78184" height="46.3279" fill="#D5E4F5"/>
<rect width="3.63566" height="45.4457" transform="matrix(0.5 0.866025 -0.84576 0.533564 63.0938 72.4434)" fill="#EFF5FF"/>
<rect width="1.81783" height="45.4457" transform="matrix(0.5 0.866025 -0.84576 0.533564 64.002 74.0176)" fill="#D5E4F5"/>
<rect width="3.63566" height="45.4457" transform="matrix(-0.5 0.866025 -0.845759 -0.533564 64.9121 96.6914)" fill="#EFF5FF"/>
<rect width="1.81783" height="45.4457" transform="matrix(-0.5 0.866025 -0.845759 -0.533564 64.002 98.2656)" fill="#D5E4F5"/>
<path d="M44.7852 61.5361C56.0235 61.5362 65.6845 72.2254 65.6846 86.1416C65.6846 100.058 56.0235 110.747 44.7852 110.747C33.5468 110.747 23.8857 100.058 23.8857 86.1416C23.8858 72.2254 33.5468 61.5361 44.7852 61.5361Z" stroke="#586F8C" stroke-width="4.52984"/>
<path d="M44.7842 64.3369C54.6545 64.3371 63.0254 73.8775 63.0254 86.1416C63.0253 98.4056 54.6545 107.946 44.7842 107.946C34.9138 107.946 26.543 98.4058 26.543 86.1416C26.543 73.8774 34.9137 64.3369 44.7842 64.3369Z" stroke="#EFF5FF" stroke-width="2.7179"/>
<path d="M52.9824 68.5889C58.4305 71.7793 62.1786 78.4403 62.1787 86.1416C62.1787 93.84 58.433 100.498 52.9883 103.69C57.8373 100.193 61.2431 93.8136 61.2432 86.1416C61.243 78.4665 57.8346 72.0858 52.9824 68.5889Z" fill="#D5E4F5"/>
<path d="M44.7842 62.5615C55.7455 62.5615 64.7656 73.0388 64.7656 86.1426C64.7655 99.2463 55.7454 109.724 44.7842 109.724C33.823 109.724 24.8029 99.2463 24.8027 86.1426C24.8027 73.0388 33.8229 62.5615 44.7842 62.5615Z" stroke="#425264" stroke-width="1.01921"/>
<ellipse cx="44.785" cy="87.1714" rx="5.34553" ry="6.4859" fill="#586F8C"/>
<ellipse cx="45.6756" cy="87.1715" rx="5.34553" ry="6.48591" fill="#22354B"/>
<path d="M91.627 84.3311V88.3311H46.1369C45.303 88.3311 44.627 87.655 44.627 86.8211V85.841C44.627 85.0071 45.303 84.3311 46.1369 84.3311H91.627Z" fill="#61676E"/>
<path d="M91.627 84.3311V86.3311H44.627V85.8417C44.627 85.0074 45.3033 84.3311 46.1376 84.3311H91.627Z" fill="#6E7882"/>
<rect x="25.7383" y="48.4824" width="32.9443" height="15.4426" fill="#FF9538"/>
<path d="M27.8135 63.9248H22.666V45.3936H22.6504C22.6591 42.5507 24.9706 40.2461 27.8135 40.2461H59.7285L59.7129 45.3936H27.8135V63.9248Z" fill="#EFF5FF"/>
<path d="M59.7285 43.334V45.3936H27.8135V63.9248H25.7539V44.8447C25.7539 44.0108 26.4307 43.334 27.2646 43.334H59.7285Z" fill="#D5E4F5"/>
<rect x="60.7461" y="6.27246" width="16.4721" height="6.58886" rx="3.29443" fill="#425264"/>
<path d="M73.9229 6.27246C75.742 6.27269 77.2166 7.74729 77.2168 9.56641C77.2168 9.85083 77.1811 10.1274 77.1133 10.3906H67.2295C67.2973 10.1273 67.334 9.85088 67.334 9.56641C67.3337 7.80411 65.9494 6.36474 64.209 6.27637L64.0391 6.27246H73.9229Z" fill="#65809F"/>
<path d="M63.7038 7.53217C64.7041 7.51336 65.5281 8.30863 65.5442 9.30901L65.5512 9.78105C65.567 10.7813 64.7693 11.6077 63.7692 11.627L62.8533 11.6439L60.2878 53.2318C60.226 54.2305 59.3659 54.9899 58.3672 54.9283L57.9754 54.9041C56.9767 54.8425 56.2164 53.9831 56.2779 52.9844L58.943 9.7814C59.0252 8.44979 60.1716 7.4367 61.5032 7.51872L62.1796 7.56045L63.7038 7.53217Z" fill="#EFF5FF"/>
<path d="M65.5459 9.57413C65.5479 10.6916 64.6535 11.6095 63.5327 11.6308L62.8539 11.6428L60.3005 53.0348C60.242 53.9829 59.5337 54.7339 58.6363 54.888L61.3546 10.8233C61.3929 10.204 61.8944 9.71409 62.5145 9.69043L65.5459 9.57413Z" fill="#D5E4F5"/>
<rect x="18.5312" y="58.7773" width="41.1804" height="11.3246" rx="2.26492" fill="#FFC16B"/>
<path d="M52.0301 18.228C52.1984 16.6971 53.4918 15.5381 55.0319 15.5381H97.6515C99.4031 15.5381 100.787 17.0234 100.664 18.7707L97.2375 67.2949C97.1258 68.8763 95.8104 70.1021 94.2251 70.1021H49.6982C47.8997 70.1021 46.4998 68.5399 46.6963 66.7522L52.0301 18.228Z" fill="#FFC16B"/>
<path d="M96.4453 15.4876L98.9277 15.6165C100.469 15.697 101.652 16.9189 101.72 18.4192C101.722 18.5178 101.72 18.6175 101.712 18.718L97.9648 67.3147C97.8435 68.8877 96.5317 70.1026 94.9541 70.1028H93.9892L92.3164 70.0159C90.6508 69.929 89.4023 68.51 89.5283 66.8469L93.2021 18.3411C93.3282 16.6782 94.7799 15.4009 96.4453 15.4876Z" fill="#FF9538"/>
<path d="M59.7119 70.1025H20.7969C19.5462 70.1025 18.5316 69.0885 18.5312 67.8379V64.8174C18.5315 65.2341 18.8703 65.5732 19.2871 65.5732H51.9561C52.3153 65.5732 52.6142 65.3207 52.6904 64.9844V61.042C52.6907 59.7913 53.7044 58.7774 54.9551 58.7773H59.7119V70.1025Z" fill="#FF9538"/>
<rect x="99.4102" y="6.27246" width="20.5902" height="8.23607" rx="4.11804" fill="#425264"/>
<path d="M115.882 6.27246C118.156 6.2726 120 8.11638 120 10.3906C120 10.746 119.955 11.091 119.87 11.4199H107.516C107.6 11.0909 107.645 10.7461 107.646 10.3906C107.646 8.18732 105.915 6.38757 103.739 6.27734L103.527 6.27246H115.882Z" fill="#65809F"/>
<path d="M103.106 7.8478C104.356 7.82404 105.387 8.81915 105.407 10.0699L105.417 10.6585C105.437 11.9092 104.438 12.9423 103.187 12.966L102.043 12.9874L98.8363 64.9726C98.7593 66.221 97.6849 67.1704 96.4365 67.0935L95.9453 67.0632C94.697 66.986 93.7474 65.9118 93.8244 64.6634L97.1557 10.6596C97.2587 8.99533 98.6911 7.72929 100.355 7.83175L101.203 7.88406L103.106 7.8478Z" fill="#EFF5FF"/>
<path d="M105.41 10.4021C105.412 11.7986 104.293 12.9459 102.893 12.9727L102.043 12.9878L98.8516 64.7283C98.7783 65.9133 97.8932 66.8526 96.7715 67.045L100.169 11.9632C100.217 11.189 100.845 10.5765 101.62 10.5469L105.41 10.4021Z" fill="#D5E4F5"/>
<path d="M62.8008 49.5117H95.7451V69.3469C95.7451 69.7639 95.4071 70.1019 94.9901 70.1019H62.8008V49.5117Z" fill="#FF9538"/>
<rect x="86.4785" y="58.7764" width="4.11804" height="51.4755" fill="#EFF5FF"/>
<rect x="88.5371" y="58.7764" width="2.05902" height="51.4755" fill="#D5E4F5"/>
<rect x="109.836" y="99.1123" width="4.11804" height="51.4755" transform="rotate(129 109.836 99.1123)" fill="#EFF5FF"/>
<rect x="108.539" y="100.712" width="2.05902" height="51.4755" transform="rotate(129 108.539 100.712)" fill="#D5E4F5"/>
<rect x="109.797" y="69.8623" width="4.11804" height="51.4755" transform="rotate(60 109.797 69.8623)" fill="#EFF5FF"/>
<rect x="110.826" y="71.6455" width="2.05902" height="51.4755" transform="rotate(60 110.826 71.6455)" fill="#D5E4F5"/>
<path d="M88.5361 57.3018C100.937 57.3018 111.632 69.1036 111.632 84.5146C111.632 99.9259 100.937 111.729 88.5361 111.729C76.1356 111.728 65.4414 99.9257 65.4414 84.5146C65.4415 69.1038 76.1357 57.302 88.5361 57.3018Z" stroke="#586F8C" stroke-width="5.28481"/>
<path d="M88.5381 60.2861C99.505 60.2863 108.805 70.8871 108.806 84.5137C108.806 98.1405 99.5052 108.742 88.5381 108.742C77.5709 108.742 68.2695 98.1406 68.2695 84.5137C68.2697 70.887 77.571 60.2861 88.5381 60.2861Z" stroke="#EFF5FF" stroke-width="3.01989"/>
<path d="M98.8828 65.9844C104.264 69.7675 107.863 76.6498 107.863 84.5137C107.863 92.3775 104.264 99.2597 98.8828 103.043C103.606 99.0086 106.823 92.3722 106.823 84.5137C106.823 76.6551 103.606 70.0184 98.8828 65.9844Z" fill="#D5E4F5"/>
<path d="M88.5371 58.3135C100.716 58.3135 110.739 69.9548 110.739 84.5146C110.739 99.0743 100.716 110.715 88.5371 110.715C76.3582 110.715 66.3361 99.0741 66.3359 84.5146C66.3359 69.955 76.3581 58.3137 88.5371 58.3135Z" stroke="#425264" stroke-width="1.13246"/>
<ellipse cx="88.5364" cy="85.5444" rx="6.17706" ry="7.20656" fill="#425264"/>
<path d="M88.0879 88.4785H82.8945C82.5516 87.5822 82.3594 86.5898 82.3594 85.5449C82.3594 82.0506 84.4913 79.1376 87.3203 78.4785H88.0879V88.4785Z" fill="#586F8C"/>
<ellipse cx="89.5657" cy="85.5445" rx="6.17706" ry="7.20657" fill="#425264"/>
<ellipse cx="89.5653" cy="85.544" rx="4.11804" ry="5.14755" fill="#65809F"/>
<ellipse cx="60.8703" cy="104.771" rx="8.57143" ry="10" fill="#425264"/>
<path d="M60.8711 94.7715C61.4892 94.7715 62.0918 94.8491 62.6729 94.9941V114.548C62.0917 114.693 61.4894 114.771 60.8711 114.771C56.1372 114.771 52.2988 110.294 52.2988 104.771C52.299 99.2488 56.1373 94.7715 60.8711 94.7715Z" fill="#586F8C"/>
<ellipse cx="62.2999" cy="104.771" rx="8.57143" ry="10" fill="#425264"/>
<ellipse cx="62.3002" cy="104.772" rx="5.71428" ry="7.14286" fill="#FFC16B"/>
<ellipse cx="62.2988" cy="104.771" rx="3" ry="4" fill="#FF9538"/>
<ellipse cx="62.3496" cy="104.772" rx="1.75" ry="2.3" fill="#425264"/>
<path d="M59.6992 69.7725H64.8468V90.7724H59.6992V69.7725Z" fill="#E8F0FC"/>
<path d="M62.7891 69.7725H64.8481V91.2725H62.7891V69.7725Z" fill="#D0E0F1"/>
<path d="M59.6992 90.7725H64.8492V96.7725L63.1148 104.273C63.0472 104.565 62.7867 104.772 62.4866 104.772V104.772C62.1983 104.772 61.945 104.581 61.8663 104.304L59.7313 96.7725L59.6992 90.7725Z" fill="#E8F0FC"/>
<path d="M64.8184 96.9111L63.1162 104.272C63.0757 104.448 62.9644 104.591 62.8184 104.679V90.7725H64.8184V96.9111Z" fill="#D0E0F1"/>
<ellipse cx="23.792" cy="104.458" rx="8.30763" ry="9.69223" fill="#425264"/>
<path d="M23.792 94.7646C24.9888 94.7647 26.1254 95.0622 27.1533 95.5938V113.319C26.1253 113.851 24.9889 114.149 23.792 114.149C19.2038 114.149 15.4844 109.81 15.4844 104.457C15.4844 99.1042 19.2038 94.7646 23.792 94.7646Z" fill="#586F8C"/>
<ellipse cx="25.1768" cy="104.457" rx="8.30763" ry="9.69224" fill="#425264"/>
<ellipse cx="25.1771" cy="104.457" rx="5.53842" ry="6.92303" fill="#FFC16B"/>
<ellipse cx="25.1772" cy="104.457" rx="2.90767" ry="3.8769" fill="#FF9538"/>
<ellipse cx="25.2254" cy="104.457" rx="1.69614" ry="2.22922" fill="#425264"/>
<path d="M22.6582 72.4727H27.6473V90.8879H22.6582V72.4727Z" fill="#E8F0FC"/>
<path d="M25.6504 72.4727H27.646V91.3726H25.6504V72.4727Z" fill="#D0E0F1"/>
<path d="M22.6582 90.8877H27.6497V96.703L25.9686 103.973C25.9031 104.256 25.6507 104.457 25.3598 104.457V104.457C25.0803 104.457 24.8349 104.271 24.7586 104.002L22.6893 96.703L22.6582 90.8877Z" fill="#E8F0FC"/>
<path d="M27.6182 96.834L25.9678 103.973C25.9285 104.142 25.8212 104.281 25.6797 104.366V90.8877H27.6182V96.834Z" fill="#D0E0F1"/>
<path d="M9.55078 87.6035H51.0594L50.6074 89.1228C50.5122 89.443 50.2179 89.6625 49.8838 89.6625H10.296L9.55078 87.6035Z" fill="#FF9538"/>
<path d="M18.5312 70.8565C18.5312 70.4396 18.8693 70.1016 19.2862 70.1016H64.8592V70.1016C64.8592 72.9445 62.5545 75.2491 59.7116 75.2491H19.2862C18.8693 75.2491 18.5312 74.9111 18.5312 74.4941V70.8565Z" fill="#D5E4F5"/>
<path d="M20.2011 70.1049C21.2507 70.1148 22.0914 70.9737 22.0784 72.0233L22.0659 73.0048C22.0504 74.2556 21.0237 75.2598 19.7729 75.2481L18.957 75.2397L13.7854 97.1643C13.4982 98.3818 12.279 99.1361 11.0616 98.849L10.4598 98.7077C9.24248 98.4204 8.48819 97.2003 8.77533 95.9829L13.9013 74.2511C14.3739 71.8628 16.4927 70.0703 19.0135 70.0939L20.2011 70.1049Z" fill="#EFF5FF"/>
<path d="M22.0665 73.0061C22.0509 74.2568 21.024 75.2619 19.7733 75.2503L18.9562 75.2426L13.786 97.1656C13.5154 98.3125 12.4172 99.0469 11.273 98.8882L16.9215 75.0161L16.9252 74.5764C16.9294 74.124 17.0927 73.7096 17.3611 73.387C17.6773 72.8003 18.3571 72.4738 19.0365 72.6344L19.3643 72.712L22.0692 72.7358L22.0665 73.0061Z" fill="#D5E4F5"/>
<path d="M13.5582 94.8096C14.0886 94.8096 14.5801 95.0878 14.8529 95.5426L17.3887 99.7683C17.4628 99.8918 17.502 100.033 17.502 100.177V100.177C17.502 100.983 16.4409 101.277 16.0263 100.586L14.4131 97.8975L16.13 100.759C16.7338 101.766 16.0088 103.046 14.8352 103.046H4.84395C4.38521 103.046 3.95135 102.837 3.66481 102.479L0.330811 98.311C0.116666 98.0433 0 97.7107 0 97.3679V95.5645C0 95.1475 0.337958 94.8096 0.754883 94.8096H13.5582Z" fill="#425264"/>
<path d="M0 95.5645C0 95.1476 0.338013 94.8096 0.754973 94.8096H12.6286C13.0456 94.8096 13.3836 95.1476 13.3836 95.5645V97.1431C13.3836 97.5601 13.0456 97.8981 12.6286 97.8981H0.754974C0.338014 97.8981 0 97.5601 0 97.1431V95.5645Z" fill="#65809F"/>
<path d="M96.7556 45.3927L64.8565 45.3924L64.8566 70.1013L60.054 70.0999L64.8566 70.1224C64.8213 72.9691 62.4921 75.2595 59.6451 75.2466L52.9287 75.2159L52.9344 75.2172L47.7583 97.1649C47.471 98.3822 46.251 99.1365 45.0336 98.8494L44.433 98.7073C43.2155 98.4201 42.4614 97.2 42.7485 95.9825L47.8736 74.2505C48.345 71.8574 50.4617 70.057 52.9866 70.0684L59.7082 70.0984L59.7094 45.3928L59.6933 45.393C59.702 42.5502 62.0134 40.2454 64.8562 40.2452L96.7713 40.2453L96.7556 45.3927Z" fill="#EFF5FF"/>
<path d="M64.8574 70.1025C64.857 72.9451 62.5526 75.25 59.71 75.25V75.2451C59.6892 75.2453 59.6683 75.2472 59.6475 75.2471L53.9395 75.2207L52.9648 75.2129L52.9639 75.2158L52.9326 75.2168H52.9365L47.7598 97.165C47.4891 98.3116 46.3901 99.0461 45.2461 98.8877L50.9033 74.9795C50.9132 74.7261 50.9722 74.4855 51.0723 74.2676L51.0771 74.2451C51.2694 73.4342 52.0834 72.9314 52.8945 73.123L53.0879 73.1689L61.0449 73.2324C62.0493 73.0004 62.7986 72.1031 62.7988 71.0283V70.1025H64.8574ZM64.8574 43.335H96.7725V45.3936H64.8574V70.1016H62.7988V44.8447C62.7989 44.011 63.4749 43.3342 64.3086 43.334H64.8574V43.335Z" fill="#D5E4F5"/>
<path d="M50.1023 100.76C50.7062 101.766 49.9813 103.047 48.8076 103.047H38.8165C38.3578 103.047 37.924 102.838 37.6375 102.48L35.9353 100.353C35.1444 99.364 35.8483 97.8994 37.1144 97.8994H47.5309C48.0612 97.8994 48.5527 98.1777 48.8256 98.6324L50.1023 100.76ZM47.5309 94.8105C48.0612 94.8105 48.5527 95.0888 48.8256 95.5436L51.3614 99.7693C51.4355 99.8928 51.4746 100.034 51.4746 100.178V100.178C51.4746 100.984 50.4136 101.278 49.999 100.587L48.8045 98.5963C48.5447 98.1633 48.0768 97.8984 47.5719 97.8984H35.4826C34.6487 97.8984 33.9727 97.2224 33.9727 96.3885V95.5654C33.9727 95.1486 34.3107 94.8107 34.7275 94.8105H47.5309Z" fill="#425264"/>
<path d="M33.9727 95.5655C33.9727 95.1486 34.3107 94.8105 34.7276 94.8105H46.6013C47.0183 94.8105 47.3563 95.1486 47.3563 95.5655V97.1441C47.3563 97.5611 47.0183 97.8991 46.6013 97.8991H34.7276C34.3107 97.8991 33.9727 97.5611 33.9727 97.1441V95.5655Z" fill="#65809F"/>
<path d="M11.3906 79.9428C11.4733 79.6049 11.7761 79.3672 12.124 79.3672H52.0423C52.5292 79.3672 52.8888 79.8212 52.7772 80.2951L50.9516 88.0508C50.8713 88.3918 50.567 88.6328 50.2167 88.6328H10.2275C9.7379 88.6328 9.37781 88.174 9.4941 87.6985L11.3906 79.9428Z" fill="#FFC16B"/>
<rect x="64.8574" y="45.3936" width="5.14755" height="24.7082" fill="#FFFCF5"/>
<path d="M67.9473 38.1875H73.0948V77.3088H70.9672C69.2993 77.3088 67.9473 75.9568 67.9473 74.289V38.1875Z" fill="#633309" fill-opacity="0.3"/>
<path d="M93.999 37.1582C96.0838 37.1582 97.7743 38.8479 97.7744 40.9326V74.2891C97.7743 75.9568 96.4217 77.3086 94.7539 77.3086H73.0264C71.3588 77.3084 70.0069 75.9567 70.0068 74.2891V40.2461H64.8594V40.1777C64.8594 38.51 66.2112 37.1583 67.8789 37.1582H93.999Z" fill="#FFFCF5"/>
<path d="M97.7666 74.3145C97.7666 75.9822 96.4147 77.3338 94.7471 77.334H73.0195C72.2257 77.334 71.5058 77.0253 70.9668 76.5244C70.9973 76.4507 71.0399 76.3787 71.0977 76.3125L73.4473 73.6211C73.8773 73.1284 74.4993 72.8458 75.1533 72.8457H91.876C92.9895 72.8457 94.0125 72.2326 94.5381 71.251L97.7666 65.2227V74.3145Z" fill="#633309" fill-opacity="0.08"/>
<path d="M66.918 40.2463C66.918 39.6777 67.3789 39.2168 67.9475 39.2168H68.977C69.5456 39.2168 70.0065 39.6777 70.0065 40.2463V40.2463H66.918V40.2463Z" fill="#633309" fill-opacity="0.3"/>
<rect x="75.4004" y="48.4824" width="16.4721" height="16.4721" rx="8.23607" fill="#FF9538"/>
<path d="M83.6357 51.9141C84.2991 51.9141 84.8369 52.4519 84.8369 53.1152V55.5176H87.2393C87.9026 55.5176 88.4404 56.0554 88.4404 56.7188C88.4404 57.382 87.9026 57.9199 87.2393 57.9199H84.8369V60.3223C84.8367 60.9854 84.299 61.5234 83.6357 61.5234C82.9726 61.5234 82.4348 60.9854 82.4346 60.3223V57.9199H80.0332C79.3699 57.9199 78.8321 57.382 78.832 56.7188C78.832 56.0554 79.3699 55.5176 80.0332 55.5176H82.4346V53.1152C82.4346 52.452 82.9725 51.9141 83.6357 51.9141Z" fill="white"/>
<path d="M8.09864 55.8797C8.28356 54.7068 9.71644 54.7068 9.90136 55.8797L10.4025 59.0586C10.4589 59.4162 10.6656 59.7161 10.9518 59.8558L13.4354 61.068C14.2383 61.4598 14.1682 62.8203 13.3309 63.0959L11.0519 63.846C10.7106 63.9583 10.4551 64.2914 10.3958 64.7014L9.90374 68.1046C9.73111 69.2985 8.26889 69.2985 8.09626 68.1046L7.60416 64.7014C7.54488 64.2914 7.28939 63.9583 6.94807 63.846L4.66907 63.0959C3.83176 62.8203 3.76166 61.4598 4.56457 61.068L7.04823 59.8558C7.33445 59.7161 7.54108 59.4162 7.59745 59.0586L8.09864 55.8797Z" fill="#FFE640"/>
<path d="M110.509 25.9504C110.712 24.6832 112.288 24.6832 112.491 25.9504L113.043 29.3847C113.105 29.771 113.332 30.095 113.647 30.246L116.379 31.5556C117.262 31.9789 117.185 33.4487 116.264 33.7464L113.757 34.5568C113.382 34.6782 113.101 35.0381 113.035 35.481L112.494 39.1576C112.304 40.4474 110.696 40.4475 110.506 39.1576L109.965 35.481C109.899 35.0381 109.618 34.6782 109.243 34.5568L106.736 33.7464C105.815 33.4487 105.738 31.9789 106.621 31.5556L109.353 30.246C109.668 30.095 109.895 29.771 109.957 29.3847L110.509 25.9504Z" fill="#FFE640"/>
</g>
<defs>
<clipPath id="clip0_2404_113417">
<rect width="120" height="120" fill="white"/>
</clipPath>
</defs>
</svg>
