<svg width="41" height="40" viewBox="0 0 41 40" fill="none" xmlns="http://www.w3.org/2000/svg">
<rect x="7.16699" y="5" width="21.6667" height="30" rx="2.66667" fill="#FA967C"/>
<rect x="16.5" y="8.3335" width="3" height="5" rx="0.533333" fill="white"/>
<g style="mix-blend-mode:multiply">
<path fill-rule="evenodd" clip-rule="evenodd" d="M28.0919 5.20012C27.9341 5.34178 27.7689 5.47497 27.5969 5.59913C27.2989 5.79913 26.9639 5.93714 26.6119 6.00714C26.4589 6.03714 26.2989 6.05014 25.9799 6.07514C25.1789 6.13914 24.7779 6.17114 24.4438 6.28915C24.0618 6.4238 23.7149 6.64237 23.4284 6.92878C23.142 7.2152 22.9235 7.56217 22.7888 7.94419C22.6708 8.2782 22.6388 8.67921 22.5748 9.48023C22.5633 9.69195 22.5406 9.90292 22.5068 10.1122C22.4368 10.4643 22.2988 10.7993 22.0988 11.0973C22.0118 11.2273 21.9078 11.3493 21.6998 11.5923C21.1788 12.2043 20.9178 12.5103 20.7648 12.8303C20.4117 13.5703 20.4117 14.4304 20.7648 15.1704C20.9178 15.4904 21.1788 15.7964 21.6998 16.4084C21.9078 16.6514 22.0118 16.7734 22.0988 16.9034C22.2988 17.2014 22.4368 17.5364 22.5068 17.8884C22.5368 18.0414 22.5498 18.2014 22.5748 18.5205C22.6388 19.3215 22.6708 19.7225 22.7888 20.0565C22.9235 20.4385 23.142 20.7855 23.4284 21.0719C23.7149 21.3583 24.0618 21.5769 24.4438 21.7115C24.7779 21.8295 25.1789 21.8615 25.9799 21.9255C26.2989 21.9505 26.4589 21.9635 26.6119 21.9935C26.9639 22.0635 27.2989 22.2025 27.5969 22.4015C27.7269 22.4886 27.8489 22.5926 28.0919 22.8006C28.704 23.3216 29.01 23.5826 29.33 23.7356C30.07 24.0886 30.93 24.0886 31.67 23.7356C31.99 23.5826 32.296 23.3216 32.9081 22.8006C33.1511 22.5926 33.2731 22.4886 33.4031 22.4015C33.7011 22.2015 34.0361 22.0635 34.3881 21.9935C34.5411 21.9635 34.7011 21.9505 35.0201 21.9255C35.8211 21.8615 36.2221 21.8295 36.5562 21.7115C36.9382 21.5769 37.2851 21.3583 37.5716 21.0719C37.858 20.7855 38.0765 20.4385 38.2112 20.0565C38.3292 19.7225 38.3612 19.3215 38.4252 18.5205C38.4502 18.2014 38.4632 18.0414 38.4932 17.8884C38.5632 17.5364 38.7022 17.2014 38.9012 16.9034C38.9882 16.7734 39.0922 16.6514 39.3002 16.4084C39.8212 15.7964 40.0822 15.4904 40.2352 15.1704C40.5883 14.4304 40.5883 13.5703 40.2352 12.8303C40.0822 12.5103 39.8212 12.2043 39.3002 11.5923C39.1586 11.4344 39.0254 11.2692 38.9012 11.0973C38.7011 10.7993 38.5624 10.4644 38.4932 10.1122C38.4594 9.90292 38.4367 9.69195 38.4252 9.48023C38.3612 8.67921 38.3292 8.2782 38.2112 7.94419C38.0765 7.56217 37.858 7.2152 37.5716 6.92878C37.2851 6.64237 36.9382 6.4238 36.5562 6.28915C36.2221 6.17114 35.8211 6.13914 35.0201 6.07514C34.8084 6.06366 34.5974 6.04096 34.3881 6.00714C34.0359 5.93796 33.701 5.79925 33.4031 5.59913C33.2311 5.47497 33.0659 5.34178 32.9081 5.20012C32.296 4.67911 31.99 4.4181 31.67 4.2651C31.3048 4.09026 30.905 3.99951 30.5 3.99951C30.095 3.99951 29.6952 4.09026 29.33 4.2651C29.01 4.4181 28.704 4.67911 28.0919 5.20012ZM34.3311 10.1702C34.4834 10.3229 34.5689 10.5297 34.5689 10.7453C34.5689 10.9609 34.4834 11.1677 34.3311 11.3203L27.8199 17.8324C27.7457 17.9136 27.6559 17.979 27.5557 18.0245C27.4556 18.07 27.3473 18.0947 27.2373 18.0972C27.1274 18.0997 27.018 18.0798 26.916 18.0389C26.8139 17.9979 26.7211 17.9367 26.6434 17.859C26.5656 17.7812 26.5044 17.6885 26.4635 17.5864C26.4225 17.4843 26.4027 17.375 26.4052 17.265C26.4076 17.1551 26.4324 17.0467 26.4779 16.9466C26.5234 16.8465 26.5887 16.7566 26.6699 16.6824L33.1801 10.1712C33.3327 10.0189 33.5395 9.93341 33.7551 9.93341C33.9707 9.93341 34.1775 10.0189 34.3301 10.1712M34.2971 16.7144C34.2971 17.0022 34.1828 17.2782 33.9793 17.4816C33.7758 17.6851 33.4998 17.7994 33.2121 17.7994C32.9243 17.7994 32.6483 17.6851 32.4448 17.4816C32.2414 17.2782 32.127 17.0022 32.127 16.7144C32.127 16.4266 32.2414 16.1507 32.4448 15.9472C32.6483 15.7437 32.9243 15.6294 33.2121 15.6294C33.4998 15.6294 33.7758 15.7437 33.9793 15.9472C34.1828 16.1507 34.2971 16.4266 34.2971 16.7144ZM27.7869 12.3743C28.0747 12.3743 28.3507 12.26 28.5542 12.0565C28.7576 11.853 28.872 11.577 28.872 11.2893C28.872 11.0015 28.7576 10.7255 28.5542 10.522C28.3507 10.3186 28.0747 10.2042 27.7869 10.2042C27.4992 10.2042 27.2232 10.3186 27.0197 10.522C26.8162 10.7255 26.7019 11.0015 26.7019 11.2893C26.7019 11.577 26.8162 11.853 27.0197 12.0565C27.2232 12.26 27.4992 12.3743 27.7869 12.3743Z" fill="#D63D4A"/>
</g>
</svg>
