<svg width="40" height="40" viewBox="0 0 40 40" fill="none" xmlns="http://www.w3.org/2000/svg">
<ellipse cx="19.7134" cy="31.0927" rx="18.963" ry="3.55556" fill="#FDCFC3"/>
<path d="M14.1665 27.5C15.5472 27.5 16.6665 28.6193 16.6665 30C16.6665 31.3807 15.5472 32.5 14.1665 32.5C12.7858 32.5 11.6665 31.3807 11.6665 30C11.6665 28.6193 12.7858 27.5 14.1665 27.5ZM25.8335 27.5C27.2141 27.5001 28.3335 28.6193 28.3335 30C28.3335 31.3807 27.2141 32.4999 25.8335 32.5C24.4528 32.5 23.3335 31.3807 23.3335 30C23.3335 28.6193 24.4528 27.5 25.8335 27.5Z" fill="#D63D4A"/>
<path d="M25.4165 3.33325C26.1069 3.33325 26.6665 3.8929 26.6665 4.58325C26.6665 5.27361 26.1069 5.83325 25.4165 5.83325H24.9995V8.75024C24.9994 9.44049 24.4398 10.0002 23.7495 10.0002C23.0595 9.99998 22.4996 9.44033 22.4995 8.75024V5.83325H17.4995V8.75024C17.4994 9.44049 16.9398 10.0002 16.2495 10.0002C15.5595 9.99998 14.9996 9.44033 14.9995 8.75024V5.83325H14.5835C13.8931 5.83325 13.3335 5.27361 13.3335 4.58325C13.3335 3.8929 13.8931 3.33325 14.5835 3.33325H25.4165Z" fill="#D63D4A"/>
<path d="M6.6665 11.1538C6.6665 9.13588 8.30239 7.5 10.3203 7.5H29.6793C31.6973 7.5 33.3332 9.13588 33.3332 11.1538V25.5128C33.3332 27.5308 31.6973 29.1667 29.6793 29.1667H10.3203C8.30238 29.1667 6.6665 27.5308 6.6665 25.5128V11.1538Z" fill="#FA967C"/>
<path d="M16.25 14.1667C16.9404 14.1667 17.5 14.7264 17.5 15.4167V21.2498C17.5 21.9401 16.9404 22.4998 16.25 22.4998C15.5596 22.4998 15 21.9401 15 21.2498V15.4167C15 14.7264 15.5596 14.1667 16.25 14.1667ZM23.75 14.1667C24.4404 14.1667 25 14.7264 25 15.4167V21.2498C25 21.9401 24.4404 22.4998 23.75 22.4998C23.0596 22.4998 22.5 21.9401 22.5 21.2498V15.4167C22.5 14.7264 23.0596 14.1667 23.75 14.1667Z" fill="#D63D4A"/>
</svg>
