<svg width="41" height="40" viewBox="0 0 41 40" fill="none" xmlns="http://www.w3.org/2000/svg">
<ellipse cx="20.213" cy="31.093" rx="18.963" ry="3.55556" fill="#FDCFC3"/>
<path fill-rule="evenodd" clip-rule="evenodd" d="M16.2508 9.7753C15.4504 8.30591 11.3126 6.1614 9.7239 6.77389C8.82897 7.11892 8.87751 8.35617 8.94316 10.03C8.99406 11.3275 9.05525 12.8874 8.69519 14.4973C8.07551 17.268 12.7838 12.9525 15.7091 10.2712C15.8977 10.0983 16.0789 9.93225 16.2508 9.7753ZM24.6819 9.7753C25.4824 8.30591 29.6201 6.1614 31.2088 6.77389C32.1038 7.11892 32.0552 8.35617 31.9896 10.03C31.9387 11.3275 31.8775 12.8874 32.2375 14.4973C32.8572 17.268 28.1489 12.9525 25.2236 10.2712C25.035 10.0983 24.8538 9.93225 24.6819 9.7753Z" fill="#D63D4A"/>
<path fill-rule="evenodd" clip-rule="evenodd" d="M23.0986 31.153C25.8141 31.4251 28.7455 31.7214 30.9543 30.1186C33.2205 28.4741 34.6673 26.0457 34.6673 22.6823C34.6673 15.3364 30.1137 8.35822 20.5006 8.35822C10.8876 8.35822 6.33398 15.3364 6.33398 22.6823C6.33398 26.0459 7.78101 28.4744 10.0474 30.1189C12.2563 31.7216 15.1877 31.4252 17.9032 31.153C18.7388 31.0693 19.6083 31.025 20.5012 31.025C21.3938 31.025 22.2631 31.0692 23.0986 31.153Z" fill="#FA967C"/>
<path d="M17.2003 19.5118C17.2003 20.2321 16.6163 20.816 15.896 20.816C15.1757 20.816 14.5918 20.2321 14.5918 19.5118C14.5918 18.7915 15.1757 18.2076 15.896 18.2076C16.6163 18.2076 17.2003 18.7915 17.2003 19.5118Z" fill="#D63D4A"/>
<path d="M25.0257 20.816C25.746 20.816 26.3299 20.2321 26.3299 19.5118C26.3299 18.7915 25.746 18.2076 25.0257 18.2076C24.3053 18.2076 23.7214 18.7915 23.7214 19.5118C23.7214 20.2321 24.3053 20.816 25.0257 20.816Z" fill="#D63D4A"/>
<path d="M22.3893 22.7613C22.3893 23.4133 21.5436 23.9418 20.5004 23.9418C19.4572 23.9418 18.6115 23.4133 18.6115 22.7613C18.6115 22.1093 19.4572 21.5807 20.5004 21.5807C21.5436 21.5807 22.3893 22.1093 22.3893 22.7613Z" fill="#D63D4A"/>
<ellipse cx="29.4724" cy="23.2333" rx="2.36111" ry="1.65278" fill="white"/>
<ellipse cx="11.5281" cy="23.2333" rx="2.36111" ry="1.65278" fill="white"/>
<path fill-rule="evenodd" clip-rule="evenodd" d="M20.501 22.9974C20.7618 22.9974 20.9732 23.2089 20.9732 23.4697C20.9732 24.6581 20.1565 25.4308 19.2183 25.7085C18.2932 25.9824 17.1623 25.8087 16.3915 25.0483C16.2059 24.8651 16.2039 24.5661 16.3871 24.3805C16.5702 24.1948 16.8692 24.1928 17.0549 24.376C17.5434 24.858 18.3013 24.995 18.9503 24.8029C19.5862 24.6147 20.0288 24.1449 20.0288 23.4697C20.0288 23.2089 20.2402 22.9974 20.501 22.9974Z" fill="#D63D4A"/>
<path fill-rule="evenodd" clip-rule="evenodd" d="M20.501 22.9974C20.2402 22.9974 20.0288 23.2089 20.0288 23.4697C20.0288 24.6581 20.8455 25.4308 21.7836 25.7085C22.7087 25.9824 23.8397 25.8087 24.6104 25.0483C24.7961 24.8651 24.7981 24.5661 24.6149 24.3805C24.4317 24.1948 24.1327 24.1928 23.9471 24.376C23.4586 24.858 22.7006 24.995 22.0517 24.8029C21.4158 24.6147 20.9732 24.1449 20.9732 23.4697C20.9732 23.2089 20.7618 22.9974 20.501 22.9974Z" fill="#D63D4A"/>
</svg>
