<svg width="40" height="40" viewBox="0 0 40 40" fill="none" xmlns="http://www.w3.org/2000/svg">
<ellipse cx="19.713" cy="31.0929" rx="18.963" ry="3.55556" fill="#FDCFC3"/>
<path d="M9.22314 6.77368C10.812 6.16146 14.9491 8.30631 15.7495 9.77563C12.9117 12.367 7.53522 17.4466 8.19482 14.4973C9.01924 10.8107 7.63449 7.38616 9.22314 6.77368ZM24.1802 9.77563C24.9806 8.30625 29.1188 6.16119 30.7075 6.77368C32.296 7.38632 30.9114 10.8108 31.7358 14.4973C32.3955 17.4467 27.0179 12.3669 24.1802 9.77563Z" fill="#D63D4A"/>
<path d="M20 8.35889C29.6129 8.35889 34.1668 15.3364 34.167 22.6821C34.167 26.711 32.0903 29.3967 29.0166 31.0014C27.5672 31.7582 25.8662 31.658 24.2551 31.379C22.9361 31.1507 21.5011 31.0249 20 31.0249C18.4988 31.0249 17.0636 31.1506 15.7444 31.3789C14.133 31.6578 12.4316 31.7581 10.982 31.001C7.90909 29.3961 5.83301 26.7104 5.83301 22.6821C5.83317 15.3364 10.3871 8.35889 20 8.35889Z" fill="#FA967C"/>
<path d="M19.9995 21.5808C21.0427 21.5808 21.8882 22.1095 21.8882 22.7615C21.888 23.4134 21.0426 23.9421 19.9995 23.9421C18.9565 23.9421 18.111 23.4134 18.1108 22.7615C18.1108 22.1095 18.9564 21.5809 19.9995 21.5808ZM15.395 18.2078C16.1152 18.2078 16.6995 18.7913 16.6997 19.5115C16.6997 20.2318 16.1153 20.8162 15.395 20.8162C14.6748 20.816 14.0913 20.2317 14.0913 19.5115C14.0915 18.7914 14.675 18.2079 15.395 18.2078ZM24.5249 18.2078C25.2451 18.2078 25.8294 18.7913 25.8296 19.5115C25.8296 20.2318 25.2452 20.8162 24.5249 20.8162C23.8046 20.8161 23.2212 20.2318 23.2212 19.5115C23.2214 18.7914 23.8047 18.2078 24.5249 18.2078Z" fill="#D63D4A"/>
<ellipse cx="28.9724" cy="23.2333" rx="2.36111" ry="1.65278" fill="white"/>
<ellipse cx="11.0276" cy="23.2333" rx="2.36111" ry="1.65278" fill="white"/>
<path fill-rule="evenodd" clip-rule="evenodd" d="M20 22.9976C20.2608 22.9976 20.4722 23.209 20.4722 23.4698C20.4722 24.6582 19.6555 25.4309 18.7174 25.7086C17.7922 25.9825 16.6613 25.8089 15.8906 25.0484C15.7049 24.8652 15.7029 24.5662 15.8861 24.3806C16.0693 24.1949 16.3682 24.1929 16.5539 24.3761C17.0424 24.8581 17.8003 24.9951 18.4493 24.803C19.0852 24.6148 19.5278 24.1451 19.5278 23.4698C19.5278 23.209 19.7392 22.9976 20 22.9976Z" fill="#D63D4A"/>
<path fill-rule="evenodd" clip-rule="evenodd" d="M20 22.9976C19.7392 22.9976 19.5278 23.209 19.5278 23.4698C19.5278 24.6582 20.3445 25.4309 21.2826 25.7086C22.2078 25.9825 23.3387 25.8089 24.1094 25.0484C24.2951 24.8652 24.2971 24.5662 24.1139 24.3806C23.9307 24.1949 23.6318 24.1929 23.4461 24.3761C22.9576 24.8581 22.1997 24.9951 21.5507 24.803C20.9148 24.6148 20.4722 24.1451 20.4722 23.4698C20.4722 23.209 20.2608 22.9976 20 22.9976Z" fill="#D63D4A"/>
</svg>
