<svg width="41" height="40" viewBox="0 0 41 40" fill="none" xmlns="http://www.w3.org/2000/svg">
<ellipse cx="20.213" cy="31.0927" rx="18.963" ry="3.55556" fill="#FFDACF"/>
<g style="mix-blend-mode:multiply">
<path d="M5.93924 18.5509C5.13432 18.1529 4.35582 19.1343 4.92652 19.8276L8.81397 24.5497C8.87242 24.6207 8.91871 24.7009 8.95097 24.787L11.0968 30.5148C11.4118 31.3556 12.651 31.1721 12.7088 30.276L13.1966 22.7114C13.2183 22.3757 13.0359 22.0598 12.7344 21.9107L5.93924 18.5509Z" fill="#E63C0B"/>
</g>
<g style="mix-blend-mode:multiply">
<path d="M27.8211 15.297C27.7218 14.3591 27.2299 13.507 26.4673 12.9522L15.4534 4.93913C14.8078 4.4694 13.9461 4.42396 13.2547 4.82317C12.2883 5.38108 11.9572 6.61671 12.5152 7.58303L25.4948 30.0644C26.0527 31.0308 27.2883 31.3618 28.2547 30.8039C28.9461 30.4047 29.3376 29.6357 29.2536 28.8418L27.8211 15.297Z" fill="#E63C0B"/>
</g>
<path d="M22.9629 11.3204C25.3058 9.61096 28.2097 8.85332 31.0891 9.20024C32.9856 9.42873 34.1317 11.4138 33.3813 13.1705C32.2421 15.8376 30.134 17.9736 27.4821 19.1479L12.4372 25.81C11.1371 26.3857 9.61221 25.8885 8.9013 24.6572C8.19039 23.4259 8.52228 21.8567 9.67087 21.0186L22.9629 11.3204Z" fill="url(#paint0_linear_2995_43113)"/>
<path d="M22.9629 11.3204C25.3058 9.61096 28.2097 8.85332 31.0891 9.20024C32.9856 9.42873 34.1317 11.4138 33.3813 13.1705C32.2421 15.8376 30.134 17.9736 27.4821 19.1479L12.4372 25.81C11.1371 26.3857 9.61221 25.8885 8.9013 24.6572C8.19039 23.4259 8.52228 21.8567 9.67087 21.0186L22.9629 11.3204Z" fill="#F48771"/>
<path d="M27.0207 10.9633C26.5657 11.1102 26.4085 11.6462 26.6476 12.0603L28.684 15.5874C28.9231 16.0015 29.4658 16.1334 29.8205 15.8127C30.5454 15.1575 31.1068 14.3097 31.4522 13.3265C31.8243 12.2673 31.0931 11.0007 29.9897 10.7934C28.9656 10.601 27.9506 10.6632 27.0207 10.9633Z" fill="url(#paint1_linear_2995_43113)"/>
<path d="M27.0207 10.9633C26.5657 11.1102 26.4085 11.6462 26.6476 12.0603L28.684 15.5874C28.9231 16.0015 29.4658 16.1334 29.8205 15.8127C30.5454 15.1575 31.1068 14.3097 31.4522 13.3265C31.8243 12.2673 31.0931 11.0007 29.9897 10.7934C28.9656 10.601 27.9506 10.6632 27.0207 10.9633Z" fill="white"/>
<defs>
<linearGradient id="paint0_linear_2995_43113" x1="30.7244" y1="9.12174" x2="33.2423" y2="25.3638" gradientUnits="userSpaceOnUse">
<stop stop-color="#EB7D00"/>
<stop offset="1" stop-color="#F8623C"/>
</linearGradient>
<linearGradient id="paint1_linear_2995_43113" x1="29.7758" y1="10.7319" x2="30.8639" y2="20.9548" gradientUnits="userSpaceOnUse">
<stop stop-color="#EB7D00"/>
<stop offset="1" stop-color="#F8623C"/>
</linearGradient>
</defs>
</svg>