<svg width="20" height="20" viewBox="0 0 20 20" fill="none" xmlns="http://www.w3.org/2000/svg">
<g id="icon/fill/dog">
<g id="Vector">
<path d="M12.8761 2.42309C12.1745 2.25183 11.7792 3.1846 12.3641 3.60979C14.3171 5.02964 15.6005 7.23369 15.8383 9.62581L15.9244 10.4915C15.9509 10.7587 16.0467 11.0149 16.2023 11.2348C16.9772 12.3303 18.6794 12.004 18.9751 10.7032L19.1241 10.0479C19.1723 9.8356 19.1794 9.61577 19.145 9.4002L19.1082 9.16957C18.5828 5.87938 16.1219 3.21536 12.8761 2.42309Z" fill="#6D7882"/>
<path d="M7.12335 2.42387C7.82497 2.25261 8.22022 3.18538 7.63537 3.61057C5.68239 5.03042 4.39894 7.23446 4.16114 9.62659L4.07508 10.4923C4.04853 10.7595 3.95274 11.0156 3.79715 11.2356C3.02227 12.3311 1.32002 12.0048 1.02434 10.704L0.875373 10.0487C0.827118 9.83638 0.820011 9.61655 0.854434 9.40098L0.891261 9.17035C1.41664 5.88016 3.87755 3.21614 7.12335 2.42387Z" fill="#6D7882"/>
<path fill-rule="evenodd" clip-rule="evenodd" d="M8.62354 2.55232C8.82529 3.10389 8.70965 3.81494 8.10424 4.25508C6.33134 5.54401 5.16932 7.54403 4.95449 9.7052L4.86843 10.5709C4.82817 10.976 4.68305 11.3635 4.44807 11.6957C3.96457 12.3792 3.23534 12.6975 2.51572 12.6932C2.81687 15.5459 4.14477 17.5729 10.0001 17.5729C15.8554 17.5729 17.1833 15.5459 17.4845 12.6932C16.7647 12.6977 16.0352 12.3794 15.5515 11.6957C15.3166 11.3635 15.1714 10.976 15.1312 10.5709L15.0451 9.7052C14.8303 7.54403 13.6683 5.54401 11.8954 4.25508C11.2899 3.81491 11.1743 3.1038 11.3761 2.55222C10.9299 2.47031 10.47 2.42751 10.0001 2.42751C9.53001 2.42751 9.06993 2.47034 8.62354 2.55232ZM7.52014 11.3659C7.91147 11.3659 8.2287 11.06 8.2287 10.6827C8.2287 10.3053 7.91147 9.99944 7.52014 9.99944C7.12882 9.99944 6.81159 10.3053 6.81159 10.6827C6.81159 11.06 7.12882 11.3659 7.52014 11.3659ZM10.0001 13.5865C10.7827 13.5865 11.4172 13.1277 11.4172 12.5616C11.4172 11.9956 10.7827 11.5368 10.0001 11.5368C9.21744 11.5368 8.58298 11.9956 8.58298 12.5616C8.58298 13.1277 9.21744 13.5865 10.0001 13.5865ZM12.48 11.3659C12.8714 11.3659 13.1886 11.06 13.1886 10.6827C13.1886 10.3053 12.8714 9.99944 12.48 9.99944C12.0887 9.99944 11.7715 10.3053 11.7715 10.6827C11.7715 11.06 12.0887 11.3659 12.48 11.3659Z" fill="#6D7882"/>
</g>
</g>
</svg>
