<svg width="20" height="20" viewBox="0 0 20 20" fill="none" xmlns="http://www.w3.org/2000/svg">
<g id="icon/fill/cat">
<path id="Vector" fill-rule="evenodd" clip-rule="evenodd" d="M6.37665 3.41226C1.51488 0.128482 1.54658 3.46479 2.82581 7.76886C2.60886 8.47058 2.49204 9.21627 2.49204 9.98925C2.49204 11.3788 2.86953 12.6801 3.52754 13.7963L2.52098 14.2996C2.11667 14.5017 1.95279 14.9934 2.15495 15.3977C2.3571 15.802 2.84873 15.9658 3.25304 15.7637L4.52574 15.1273C5.89524 16.5857 7.84093 17.4966 9.99937 17.4966C12.1261 17.4966 14.0463 16.6123 15.4123 15.1913L16.5571 15.7637C16.9614 15.9658 17.453 15.802 17.6552 15.3977C17.8574 14.9934 17.6935 14.5017 17.2892 14.2996L16.4278 13.8689C17.1126 12.7367 17.5067 11.409 17.5067 9.98925C17.5067 9.21627 17.3899 8.47058 17.1729 7.76886C18.4522 3.46478 18.4839 0.128481 13.6221 3.41226C12.548 2.81934 11.3131 2.48192 9.99937 2.48192C8.68568 2.48192 7.45079 2.81934 6.37665 3.41226ZM12.3699 10.7795C12.8063 10.7795 13.1601 10.4257 13.1601 9.98925C13.1601 9.55281 12.8063 9.19901 12.3699 9.19901C11.9335 9.19901 11.5796 9.55281 11.5796 9.98925C11.5796 10.4257 11.9335 10.7795 12.3699 10.7795ZM7.62856 10.7795C8.065 10.7795 8.41881 10.4257 8.41881 9.98926C8.41881 9.55282 8.065 9.19902 7.62856 9.19902C7.19212 9.19902 6.83831 9.55282 6.83831 9.98926C6.83831 10.4257 7.19212 10.7795 7.62856 10.7795ZM11.1845 12.1226C11.1845 12.5591 10.7894 13.1502 9.99915 13.1502C9.20891 13.1502 8.81378 12.5591 8.81378 12.1226C8.81378 11.6862 9.56271 11.5697 9.99915 11.5697C10.4356 11.5697 11.1845 11.6862 11.1845 12.1226Z" fill="#6D7882"/>
</g>
</svg>
