<svg width="24" height="25" viewBox="0 0 24 25" fill="none" xmlns="http://www.w3.org/2000/svg">
<g clip-path="url(#clip0_5378_237309)">
<path fill-rule="evenodd" clip-rule="evenodd" d="M12 22.5C17.5228 22.5 22 18.0228 22 12.5C22 6.97715 17.5228 2.5 12 2.5C6.47715 2.5 2 6.97715 2 12.5C2 18.0228 6.47715 22.5 12 22.5ZM16.2551 10.2643C16.4011 9.8473 16.1813 9.39092 15.7643 9.24496C15.3473 9.099 14.8909 9.31874 14.7449 9.73577L13.75 12.5784L12.7551 9.73577C12.6428 9.4149 12.34 9.20005 12 9.20005C11.6601 9.20005 11.3572 9.4149 11.2449 9.73577L10.25 12.5784L9.2551 9.73577C9.10914 9.31874 8.65275 9.099 8.23573 9.24496C7.81871 9.39092 7.59897 9.8473 7.74493 10.2643L8.24741 11.7H7.5C7.05817 11.7 6.7 12.0582 6.7 12.5C6.7 12.9418 7.05817 13.3 7.5 13.3H8.80741L9.49493 15.2643C9.60723 15.5852 9.91006 15.8 10.25 15.8C10.59 15.8 10.8928 15.5852 11.0051 15.2643L12 12.4217L12.9949 15.2643C13.1072 15.5852 13.4101 15.8 13.75 15.8C14.09 15.8 14.3928 15.5852 14.5051 15.2643L15.1926 13.3H16.5C16.9418 13.3 17.3 12.9419 17.3 12.5C17.3 12.0582 16.9418 11.7 16.5 11.7H15.7526L16.2551 10.2643Z" fill="#6D7882"/>
</g>
<defs>
<clipPath id="clip0_5378_237309">
<rect width="24" height="24" fill="white" transform="translate(0 0.5)"/>
</clipPath>
</defs>
</svg>
