<svg width="40" height="40" viewBox="0 0 40 40" fill="none" xmlns="http://www.w3.org/2000/svg">
<ellipse cx="19.713" cy="31.0932" rx="18.963" ry="3.55556" fill="#FDCFC3"/>
<rect x="5.83594" y="10.3882" width="28.3333" height="18.8889" rx="2.19" fill="#FA967C"/>
<rect x="14.3359" y="14.167" width="11.3333" height="11.3333" rx="5.66667" fill="#D63D4A"/>
<path d="M20.001 16.5278C20.4573 16.5278 20.8271 16.8977 20.8271 17.354V19.0063H22.4805C22.9366 19.0065 23.3065 19.3764 23.3066 19.8325C23.3066 20.2888 22.9367 20.6595 22.4805 20.6597H20.8271V22.312C20.8271 22.7684 20.4574 23.1392 20.001 23.1392C19.5446 23.1391 19.1748 22.7684 19.1748 22.312V20.6597H17.5215C17.0652 20.6595 16.6953 20.2888 16.6953 19.8325C16.6955 19.3764 17.0654 19.0065 17.5215 19.0063H19.1748V17.354C19.1749 16.8977 19.5446 16.5278 20.001 16.5278Z" fill="white"/>
<path d="M26.4229 5.6665C27.0488 5.6665 27.5566 6.17437 27.5566 6.80029V10.3892H24.7236V8.15576C24.7236 7.82441 24.4544 7.55615 24.123 7.55615H15.8789C15.5475 7.55615 15.2793 7.82441 15.2793 8.15576V10.3892H12.4453V6.80029C12.4453 6.17437 12.9532 5.6665 13.5791 5.6665H26.4229Z" fill="#D63D4A"/>
<path d="M8.98438 29.2783H12.1325V30.0524C12.1325 30.4942 11.7744 30.8524 11.3325 30.8524H9.78437C9.34255 30.8524 8.98438 30.4942 8.98438 30.0524V29.2783Z" fill="#D63D4A"/>
<path d="M27.875 29.2783H31.0231V30.0524C31.0231 30.4942 30.665 30.8524 30.2231 30.8524H28.675C28.2332 30.8524 27.875 30.4942 27.875 30.0524V29.2783Z" fill="#D63D4A"/>
</svg>
