<svg width="40" height="40" viewBox="0 0 40 40" fill="none" xmlns="http://www.w3.org/2000/svg">
<ellipse cx="19.713" cy="31.0929" rx="18.963" ry="3.55556" fill="#FDCFC3"/>
<path d="M32.2084 24.5384C31.5002 28.7725 28.9663 31.697 19.9003 31.697C10.8342 31.697 8.3003 28.7725 7.59209 24.5384C7.23347 24.4373 6.88696 24.2798 6.56607 24.0659L5.59733 23.42C5.09969 23.0883 4.80078 22.5298 4.80078 21.9317V20.8663C4.80078 15.8127 7.21887 11.0641 11.306 8.09166C11.5759 7.89531 11.9063 7.78954 12.2401 7.78954C12.7274 7.78954 13.1536 7.99097 13.4573 8.30366C15.3419 7.17804 17.5456 6.53125 19.9003 6.53125C22.255 6.53125 24.4586 7.17804 26.3432 8.30366C26.6469 7.99097 27.0731 7.78954 27.5604 7.78954C27.8942 7.78954 28.2246 7.89531 28.4945 8.09166C32.5816 11.0641 34.9997 15.8127 34.9997 20.8663V21.9317C34.9997 22.5298 34.7008 23.0883 34.2032 23.42L33.2344 24.0659C32.9136 24.2798 32.567 24.4373 32.2084 24.5384Z" fill="white"/>
<path d="M32.4832 19.1141C32.4832 26.0635 32.4832 31.697 19.9003 31.697C7.31738 31.697 7.31738 26.0635 7.31738 19.1141C7.31738 12.1648 12.9509 6.53125 19.9003 6.53125C26.8496 6.53125 32.4832 12.1648 32.4832 19.1141Z" fill="#FA967C"/>
<ellipse cx="17.0689" cy="24.7771" rx="2.83115" ry="1.88743" fill="white"/>
<ellipse cx="22.7311" cy="24.7771" rx="2.83115" ry="1.88743" fill="white"/>
<path d="M16.7544 19.114C16.7544 19.8089 16.191 20.3723 15.4961 20.3723C14.8011 20.3723 14.2378 19.8089 14.2378 19.114C14.2378 18.4191 14.8011 17.8557 15.4961 17.8557C16.191 17.8557 16.7544 18.4191 16.7544 19.114Z" fill="#D63D4A"/>
<path d="M22.4167 22.5743C22.4167 23.6167 21.29 24.4617 19.9001 24.4617C18.5102 24.4617 17.3835 23.6167 17.3835 22.5743C17.3835 21.5319 18.5102 20.6869 19.9001 20.6869C21.29 20.6869 22.4167 21.5319 22.4167 22.5743Z" fill="#D63D4A"/>
<path d="M24.3041 20.3723C24.999 20.3723 25.5624 19.8089 25.5624 19.114C25.5624 18.4191 24.999 17.8557 24.3041 17.8557C23.6092 17.8557 23.0458 18.4191 23.0458 19.114C23.0458 19.8089 23.6092 20.3723 24.3041 20.3723Z" fill="#D63D4A"/>
<path d="M14.9763 6.70217C16.2169 6.38204 17.0474 7.94793 16.0866 8.79541L15.9728 8.89579C12.9957 11.5218 11.1252 15.1791 10.7387 19.13L10.5731 20.8224C10.5017 21.552 10.1953 22.2386 9.69996 22.779C7.84344 24.8044 4.47462 23.8891 3.89819 21.2028L3.7347 20.4409C3.65503 20.0696 3.64407 19.6868 3.70239 19.3116L3.73389 19.1088C4.66778 13.0994 9.08767 8.2218 14.9763 6.70217Z" fill="#D63D4A"/>
<path d="M24.8243 6.70217C23.5838 6.38204 22.7532 7.94793 23.7141 8.79541L23.8279 8.89579C26.805 11.5218 28.6755 15.1791 29.062 19.13L29.2276 20.8224C29.2989 21.552 29.6054 22.2386 30.1007 22.779C31.9572 24.8044 35.326 23.8891 35.9025 21.2028L36.066 20.4409C36.1456 20.0696 36.1566 19.6868 36.0983 19.3116L36.0668 19.1088C35.1329 13.0994 30.713 8.2218 24.8243 6.70217Z" fill="#D63D4A"/>
</svg>
