<svg width="41" height="40" viewBox="0 0 41 40" fill="none" xmlns="http://www.w3.org/2000/svg">
<g clip-path="url(#clip0_97_5448)">
<ellipse cx="20.713" cy="31.0927" rx="18.963" ry="3.55556" fill="#FDCFC3"/>
<path fill-rule="evenodd" clip-rule="evenodd" d="M14.8763 7.3894C14.4214 7.38956 13.9746 7.51961 13.5813 7.76636C13.1879 8.01311 12.8619 8.3678 12.6363 8.7945L8.01691 17.5275C7.79372 17.949 7.6763 18.4261 7.67627 18.9117V25.1816C7.6763 25.6142 7.76951 26.0409 7.94853 26.4278L9.39111 29.5447C9.60538 30.0079 9.93484 30.3975 10.3426 30.6698C10.7503 30.9421 11.2201 31.0864 11.6995 31.0864H12.8376C13.522 31.0864 14.1784 30.7927 14.6624 30.2698C15.1463 29.747 15.4182 29.0379 15.4182 28.2985H25.7408C25.7408 29.0379 26.0127 29.747 26.4966 30.2698C26.9806 30.7927 27.637 31.0864 28.3214 31.0864H29.4595C29.9388 31.0864 30.4087 30.9421 30.8164 30.6698C31.2242 30.3975 31.5536 30.0079 31.7679 29.5447L33.2105 26.4278C33.3898 26.0417 33.4827 25.6138 33.4827 25.1816V18.9117C33.4827 18.4261 33.3653 17.949 33.1421 17.5275L28.5227 8.7945C28.2971 8.3678 27.9711 8.01311 27.5777 7.76636C27.1843 7.51961 26.7376 7.38956 26.2827 7.3894H14.8763Z" fill="#FA967C"/>
<g style="mix-blend-mode:multiply">
<path d="M10.5341 30.813C10.1263 30.5406 9.79689 30.151 9.58262 29.6878L8.86133 28.1294H32.6807L31.9594 29.6878C31.7451 30.151 31.4157 30.5406 31.0079 30.813C30.6002 31.0853 30.1303 31.2295 29.651 31.2295H28.5129C27.8285 31.2295 27.1721 30.9358 26.6881 30.413C26.2042 29.8901 25.9323 29.181 25.9323 28.4416H15.6097C15.6097 29.181 15.3378 29.8901 14.8539 30.413C14.3699 30.9358 13.7135 31.2295 13.0291 31.2295H11.891C11.4117 31.2295 10.9418 31.0853 10.5341 30.813Z" fill="#D63D4A"/>
</g>
<g style="mix-blend-mode:multiply">
<path d="M11.6754 16.3585L14.2038 10.6696C14.3179 10.4128 14.5726 10.2473 14.8536 10.2473H26.5713C26.8523 10.2473 27.107 10.4128 27.2211 10.6696L29.7495 16.3585C29.9585 16.8288 29.6143 17.3584 29.0997 17.3584H12.3252C11.8106 17.3584 11.4664 16.8288 11.6754 16.3585Z" fill="#D63D4A"/>
</g>
<path d="M14.1948 21.0181C15.1766 21.0181 15.9721 21.8137 15.9722 22.7954C15.9722 23.7772 15.1766 24.5737 14.1948 24.5737C13.213 24.5737 12.4165 23.7772 12.4165 22.7954C12.4166 21.8137 13.213 21.0181 14.1948 21.0181ZM27.2319 21.0181C28.2137 21.0181 29.0092 21.8137 29.0093 22.7954C29.0093 23.7772 28.2137 24.5737 27.2319 24.5737C26.2501 24.5737 25.4536 23.7772 25.4536 22.7954C25.4537 21.8137 26.2502 21.0181 27.2319 21.0181Z" fill="white"/>
</g>
<g style="mix-blend-mode:multiply">
<path fill-rule="evenodd" clip-rule="evenodd" d="M28.5919 5.20012C28.4341 5.34178 28.2689 5.47497 28.0969 5.59913C27.7989 5.79913 27.4639 5.93714 27.1119 6.00714C26.9589 6.03714 26.7989 6.05014 26.4799 6.07514C25.6789 6.13914 25.2779 6.17114 24.9438 6.28915C24.5618 6.4238 24.2149 6.64237 23.9284 6.92878C23.642 7.2152 23.4235 7.56217 23.2888 7.94419C23.1708 8.2782 23.1388 8.67921 23.0748 9.48023C23.0633 9.69195 23.0406 9.90292 23.0068 10.1122C22.9368 10.4643 22.7988 10.7993 22.5988 11.0973C22.5118 11.2273 22.4078 11.3493 22.1998 11.5923C21.6788 12.2043 21.4178 12.5103 21.2648 12.8303C20.9117 13.5703 20.9117 14.4304 21.2648 15.1704C21.4178 15.4904 21.6788 15.7964 22.1998 16.4084C22.4078 16.6514 22.5118 16.7734 22.5988 16.9034C22.7988 17.2014 22.9368 17.5364 23.0068 17.8884C23.0368 18.0414 23.0498 18.2014 23.0748 18.5205C23.1388 19.3215 23.1708 19.7225 23.2888 20.0565C23.4235 20.4385 23.642 20.7855 23.9284 21.0719C24.2149 21.3583 24.5618 21.5769 24.9438 21.7115C25.2779 21.8295 25.6789 21.8615 26.4799 21.9255C26.7989 21.9505 26.9589 21.9635 27.1119 21.9935C27.4639 22.0635 27.7989 22.2025 28.0969 22.4015C28.2269 22.4886 28.3489 22.5926 28.5919 22.8006C29.204 23.3216 29.51 23.5826 29.83 23.7356C30.57 24.0886 31.43 24.0886 32.17 23.7356C32.49 23.5826 32.796 23.3216 33.4081 22.8006C33.6511 22.5926 33.7731 22.4886 33.9031 22.4015C34.2011 22.2015 34.5361 22.0635 34.8881 21.9935C35.0411 21.9635 35.2011 21.9505 35.5201 21.9255C36.3211 21.8615 36.7221 21.8295 37.0562 21.7115C37.4382 21.5769 37.7851 21.3583 38.0716 21.0719C38.358 20.7855 38.5765 20.4385 38.7112 20.0565C38.8292 19.7225 38.8612 19.3215 38.9252 18.5205C38.9502 18.2014 38.9632 18.0414 38.9932 17.8884C39.0632 17.5364 39.2022 17.2014 39.4012 16.9034C39.4882 16.7734 39.5922 16.6514 39.8002 16.4084C40.3212 15.7964 40.5822 15.4904 40.7352 15.1704C41.0883 14.4304 41.0883 13.5703 40.7352 12.8303C40.5822 12.5103 40.3212 12.2043 39.8002 11.5923C39.6586 11.4344 39.5254 11.2692 39.4012 11.0973C39.2011 10.7993 39.0624 10.4644 38.9932 10.1122C38.9594 9.90292 38.9367 9.69195 38.9252 9.48023C38.8612 8.67921 38.8292 8.2782 38.7112 7.94419C38.5765 7.56217 38.358 7.2152 38.0716 6.92878C37.7851 6.64237 37.4382 6.4238 37.0562 6.28915C36.7221 6.17114 36.3211 6.13914 35.5201 6.07514C35.3084 6.06366 35.0974 6.04096 34.8881 6.00714C34.5359 5.93796 34.201 5.79925 33.9031 5.59913C33.7311 5.47497 33.5659 5.34178 33.4081 5.20012C32.796 4.67911 32.49 4.4181 32.17 4.2651C31.8048 4.09026 31.405 3.99951 31 3.99951C30.595 3.99951 30.1952 4.09026 29.83 4.2651C29.51 4.4181 29.204 4.67911 28.5919 5.20012ZM34.8311 10.1702C34.9834 10.3229 35.0689 10.5297 35.0689 10.7453C35.0689 10.9609 34.9834 11.1677 34.8311 11.3203L28.3199 17.8324C28.2457 17.9136 28.1559 17.979 28.0557 18.0245C27.9556 18.07 27.8473 18.0947 27.7373 18.0972C27.6274 18.0997 27.518 18.0798 27.416 18.0389C27.3139 17.9979 27.2211 17.9367 27.1434 17.859C27.0656 17.7812 27.0044 17.6885 26.9635 17.5864C26.9225 17.4843 26.9027 17.375 26.9052 17.265C26.9076 17.1551 26.9324 17.0467 26.9779 16.9466C27.0234 16.8465 27.0887 16.7566 27.1699 16.6824L33.6801 10.1712C33.8327 10.0189 34.0395 9.93341 34.2551 9.93341C34.4707 9.93341 34.6775 10.0189 34.8301 10.1712M34.7971 16.7144C34.7971 17.0022 34.6828 17.2782 34.4793 17.4816C34.2758 17.6851 33.9998 17.7994 33.7121 17.7994C33.4243 17.7994 33.1483 17.6851 32.9448 17.4816C32.7414 17.2782 32.627 17.0022 32.627 16.7144C32.627 16.4266 32.7414 16.1507 32.9448 15.9472C33.1483 15.7437 33.4243 15.6294 33.7121 15.6294C33.9998 15.6294 34.2758 15.7437 34.4793 15.9472C34.6828 16.1507 34.7971 16.4266 34.7971 16.7144ZM28.2869 12.3743C28.5747 12.3743 28.8507 12.26 29.0542 12.0565C29.2576 11.853 29.372 11.577 29.372 11.2893C29.372 11.0015 29.2576 10.7255 29.0542 10.522C28.8507 10.3186 28.5747 10.2042 28.2869 10.2042C27.9992 10.2042 27.7232 10.3186 27.5197 10.522C27.3162 10.7255 27.2019 11.0015 27.2019 11.2893C27.2019 11.577 27.3162 11.853 27.5197 12.0565C27.7232 12.26 27.9992 12.3743 28.2869 12.3743Z" fill="#D63D4A"/>
</g>
<defs>
<clipPath id="clip0_97_5448">
<rect width="40" height="30.6667" fill="white" transform="translate(0.86084 7.16577)"/>
</clipPath>
</defs>
</svg>
