<svg width="40" height="40" viewBox="0 0 40 40" fill="none" xmlns="http://www.w3.org/2000/svg">
<ellipse cx="19.713" cy="31.0927" rx="18.963" ry="3.55556" fill="#FDCFC3"/>
<circle cx="20.1654" cy="18.3333" r="14.5833" fill="white"/>
<circle cx="20.1654" cy="18.3333" r="14.5833" fill="#FA967C"/>
<circle cx="20.166" cy="18.333" r="12.5" fill="#FA967C"/>
<g style="mix-blend-mode:multiply">
<path d="M30.416 18.3333C30.416 12.5804 25.7523 7.91667 19.9993 7.91667C14.2464 7.91667 9.58268 12.5804 9.58268 18.3333C9.58268 19.4839 8.64994 20.4167 7.49935 20.4167C6.34876 20.4167 5.41602 19.4839 5.41602 18.3333C5.41602 10.2792 11.9452 3.75 19.9993 3.75C28.0535 3.75 34.5827 10.2792 34.5827 18.3333C34.5827 19.4839 33.6499 20.4167 32.4993 20.4167C31.3488 20.4167 30.416 19.4839 30.416 18.3333Z" fill="#D63D4A"/>
</g>
<g style="mix-blend-mode:multiply">
<path d="M16.4824 15.2372C16.3068 14.6226 15.6662 14.2667 15.0515 14.4423C14.4369 14.6179 14.081 15.2585 14.2566 15.8731L14.9925 18.4487H14.2121C13.5729 18.4487 13.0547 18.9669 13.0547 19.6061C13.0547 20.2453 13.5729 20.7635 14.2121 20.7635H15.6539L16.2408 22.8176C16.3777 23.2968 16.8061 23.6346 17.3041 23.656C17.802 23.6773 18.2578 23.3774 18.4352 22.9116L19.9991 18.8064L21.5631 22.9116C21.7405 23.3774 22.1962 23.6773 22.6942 23.656C23.1922 23.6346 23.6206 23.2968 23.7575 22.8176L24.3444 20.7635H25.7862C26.4254 20.7635 26.9436 20.2453 26.9436 19.6061C26.9436 18.9669 26.4254 18.4487 25.7862 18.4487H25.0058L25.7416 15.8731C25.9172 15.2585 25.5613 14.6179 24.9467 14.4423C24.3321 14.2667 23.6915 14.6226 23.5159 15.2372L22.4876 18.8362L21.0807 15.1431C20.9097 14.6943 20.4794 14.3978 19.9991 14.3978C19.5189 14.3978 19.0885 14.6943 18.9175 15.1431L17.5107 18.8362L16.4824 15.2372Z" fill="#D63D4A"/>
</g>
</svg>
