<svg width="40" height="40" viewBox="0 0 40 40" fill="none" xmlns="http://www.w3.org/2000/svg">
<ellipse cx="19.8463" cy="32.7589" rx="18.963" ry="3.55556" fill="#FDCFC3"/>
<path d="M7.5 7.66667C7.5 6.19391 8.69391 5 10.1667 5H26.5C27.9728 5 29.1667 6.19391 29.1667 7.66667V30.6667C29.1667 32.1394 27.9728 33.3333 26.5 33.3333H10.1667C8.6939 33.3333 7.5 32.1394 7.5 30.6667V7.66667Z" fill="#FA967C"/>
<rect x="16.8335" y="8.33325" width="3" height="5" rx="0.533333" fill="white"/>
<g style="mix-blend-mode:multiply">
<path fill-rule="evenodd" clip-rule="evenodd" d="M27.5919 5.20012C27.4341 5.34178 27.2689 5.47497 27.0969 5.59913C26.7989 5.79913 26.4639 5.93714 26.1119 6.00714C25.9589 6.03714 25.7989 6.05014 25.4799 6.07514C24.6789 6.13914 24.2779 6.17114 23.9438 6.28915C23.5618 6.4238 23.2149 6.64237 22.9284 6.92878C22.642 7.2152 22.4235 7.56217 22.2888 7.94419C22.1708 8.2782 22.1388 8.67921 22.0748 9.48023C22.0633 9.69195 22.0406 9.90292 22.0068 10.1122C21.9368 10.4643 21.7988 10.7993 21.5988 11.0973C21.5118 11.2273 21.4078 11.3493 21.1998 11.5923C20.6788 12.2043 20.4178 12.5103 20.2648 12.8303C19.9117 13.5703 19.9117 14.4304 20.2648 15.1704C20.4178 15.4904 20.6788 15.7964 21.1998 16.4084C21.4078 16.6514 21.5118 16.7734 21.5988 16.9034C21.7988 17.2014 21.9368 17.5364 22.0068 17.8884C22.0368 18.0414 22.0498 18.2014 22.0748 18.5205C22.1388 19.3215 22.1708 19.7225 22.2888 20.0565C22.4235 20.4385 22.642 20.7855 22.9284 21.0719C23.2149 21.3583 23.5618 21.5769 23.9438 21.7115C24.2779 21.8295 24.6789 21.8615 25.4799 21.9255C25.7989 21.9505 25.9589 21.9635 26.1119 21.9935C26.4639 22.0635 26.7989 22.2025 27.0969 22.4016C27.2269 22.4886 27.3489 22.5926 27.5919 22.8006C28.204 23.3216 28.51 23.5826 28.83 23.7356C29.57 24.0886 30.43 24.0886 31.17 23.7356C31.49 23.5826 31.796 23.3216 32.4081 22.8006C32.6511 22.5926 32.7731 22.4886 32.9031 22.4016C33.2011 22.2015 33.5361 22.0635 33.8881 21.9935C34.0411 21.9635 34.2011 21.9505 34.5201 21.9255C35.3211 21.8615 35.7221 21.8295 36.0562 21.7115C36.4382 21.5769 36.7851 21.3583 37.0716 21.0719C37.358 20.7855 37.5765 20.4385 37.7112 20.0565C37.8292 19.7225 37.8612 19.3215 37.9252 18.5205C37.9502 18.2014 37.9632 18.0414 37.9932 17.8884C38.0632 17.5364 38.2022 17.2014 38.4012 16.9034C38.4882 16.7734 38.5922 16.6514 38.8002 16.4084C39.3212 15.7964 39.5822 15.4904 39.7352 15.1704C40.0883 14.4304 40.0883 13.5703 39.7352 12.8303C39.5822 12.5103 39.3212 12.2043 38.8002 11.5923C38.6586 11.4344 38.5254 11.2692 38.4012 11.0973C38.2011 10.7993 38.0624 10.4644 37.9932 10.1122C37.9594 9.90292 37.9367 9.69195 37.9252 9.48023C37.8612 8.67921 37.8292 8.2782 37.7112 7.94419C37.5765 7.56217 37.358 7.2152 37.0716 6.92878C36.7851 6.64237 36.4382 6.4238 36.0562 6.28915C35.7221 6.17114 35.3211 6.13914 34.5201 6.07514C34.3084 6.06366 34.0974 6.04096 33.8881 6.00714C33.5359 5.93796 33.201 5.79925 32.9031 5.59913C32.7311 5.47497 32.5659 5.34178 32.4081 5.20012C31.796 4.67911 31.49 4.4181 31.17 4.2651C30.8048 4.09026 30.405 3.99951 30 3.99951C29.595 3.99951 29.1952 4.09026 28.83 4.2651C28.51 4.4181 28.204 4.67911 27.5919 5.20012ZM33.8311 10.1702C33.9834 10.3229 34.0689 10.5297 34.0689 10.7453C34.0689 10.9609 33.9834 11.1677 33.8311 11.3203L27.3199 17.8324C27.2457 17.9136 27.1559 17.979 27.0557 18.0245C26.9556 18.07 26.8473 18.0947 26.7373 18.0972C26.6274 18.0997 26.518 18.0798 26.416 18.0389C26.3139 17.9979 26.2211 17.9367 26.1434 17.859C26.0656 17.7812 26.0044 17.6885 25.9635 17.5864C25.9225 17.4843 25.9027 17.375 25.9052 17.265C25.9076 17.1551 25.9324 17.0467 25.9779 16.9466C26.0234 16.8465 26.0887 16.7566 26.1699 16.6824L32.6801 10.1712C32.8327 10.0189 33.0395 9.93341 33.2551 9.93341C33.4707 9.93341 33.6775 10.0189 33.8301 10.1712M33.7971 16.7144C33.7971 17.0022 33.6828 17.2782 33.4793 17.4816C33.2758 17.6851 32.9998 17.7994 32.7121 17.7994C32.4243 17.7994 32.1483 17.6851 31.9448 17.4816C31.7414 17.2782 31.627 17.0022 31.627 16.7144C31.627 16.4266 31.7414 16.1507 31.9448 15.9472C32.1483 15.7437 32.4243 15.6294 32.7121 15.6294C32.9998 15.6294 33.2758 15.7437 33.4793 15.9472C33.6828 16.1507 33.7971 16.4266 33.7971 16.7144ZM27.2869 12.3743C27.5747 12.3743 27.8507 12.26 28.0542 12.0565C28.2576 11.853 28.372 11.577 28.372 11.2893C28.372 11.0015 28.2576 10.7255 28.0542 10.522C27.8507 10.3186 27.5747 10.2042 27.2869 10.2042C26.9992 10.2042 26.7232 10.3186 26.5197 10.522C26.3162 10.7255 26.2019 11.0015 26.2019 11.2893C26.2019 11.577 26.3162 11.853 26.5197 12.0565C26.7232 12.26 26.9992 12.3743 27.2869 12.3743Z" fill="#D63D4A"/>
</g>
</svg>
