<svg width="40" height="40" viewBox="0 0 40 40" fill="none" xmlns="http://www.w3.org/2000/svg">
<ellipse cx="19.713" cy="31.0932" rx="18.963" ry="3.55556" fill="#FDCFC3"/>
<path d="M8.33594 6.1665C8.33594 5.06193 9.23137 4.1665 10.3359 4.1665H29.6693C30.7738 4.1665 31.6693 5.06193 31.6693 6.1665V28.8332C31.6693 29.9377 30.7738 30.8332 29.6693 30.8332H10.3359C9.23137 30.8332 8.33594 29.9377 8.33594 28.8332V6.1665Z" fill="#D9D9D9"/>
<path d="M8.33594 6.1665C8.33594 5.06193 9.23137 4.1665 10.3359 4.1665H29.6693C30.7738 4.1665 31.6693 5.06193 31.6693 6.1665V28.8332C31.6693 29.9377 30.7738 30.8332 29.6693 30.8332H10.3359C9.23137 30.8332 8.33594 29.9377 8.33594 28.8332V6.1665Z" fill="#FA967C"/>
<path d="M15 5.49984C15 4.76346 15.597 4.1665 16.3333 4.1665H23.6667C24.403 4.1665 25 4.76346 25 5.49984C25 6.23622 24.403 6.83317 23.6667 6.83317H16.3333C15.597 6.83317 15 6.23622 15 5.49984Z" fill="white"/>
<path d="M16.3356 4.16667L16.1989 4.17318C15.527 4.24176 15.0028 4.8097 15.0026 5.49967C15.0026 6.18978 15.5269 6.75755 16.1989 6.82617L16.3356 6.83268H23.6696L23.8063 6.82617C24.4335 6.76213 24.9324 6.26365 24.9961 5.63639L25.0026 5.49967C25.0024 4.8097 24.4782 4.24176 23.8063 4.17318L23.6696 4.16667V2.5C25.3262 2.50018 26.6691 3.84308 26.6693 5.49967C26.6693 7.15642 25.3263 8.49917 23.6696 8.49935H16.3356C14.7827 8.49918 13.5061 7.31965 13.3522 5.80729L13.3359 5.49967L13.3522 5.19369C13.5057 3.68086 14.7823 2.50016 16.3356 2.5V4.16667ZM23.6696 2.5V4.16667H16.3356V2.5H23.6696Z" fill="#FA967C"/>
<path fill-rule="evenodd" clip-rule="evenodd" d="M11.6719 25.9165C11.6719 25.2261 12.2688 24.6665 13.0052 24.6665H27.0052C27.7416 24.6665 28.3385 25.2261 28.3385 25.9165C28.3385 26.6069 27.7416 27.1665 27.0052 27.1665H13.0052C12.2688 27.1665 11.6719 26.6069 11.6719 25.9165Z" fill="#D63D4A"/>
<path d="M11.6719 20.9165C11.6719 20.2261 12.2688 19.6665 13.0052 19.6665H27.0052C27.7416 19.6665 28.3385 20.2261 28.3385 20.9165C28.3385 21.6069 27.7416 22.1665 27.0052 22.1665H13.0052C12.2688 22.1665 11.6719 21.6069 11.6719 20.9165Z" fill="#D63D4A"/>
<path d="M15.8379 9.58301C16.4131 9.58302 16.8799 10.0497 16.8799 10.625V12.707H18.9629C19.538 12.7071 20.0039 13.1738 20.0039 13.749C20.0039 14.3242 19.538 14.7909 18.9629 14.791H16.8799V16.874C16.8799 17.4493 16.4131 17.916 15.8379 17.916C15.2626 17.916 14.7959 17.4493 14.7959 16.874V14.791H12.7129C12.1377 14.7909 11.6719 14.3242 11.6719 13.749C11.6719 13.1738 12.1377 12.7072 12.7129 12.707H14.7959V10.625C14.7959 10.0497 15.2626 9.58301 15.8379 9.58301Z" fill="#D63D4A"/>
</svg>
