<svg width="20" height="20" viewBox="0 0 20 20" fill="none" xmlns="http://www.w3.org/2000/svg">
<path d="M12.8081 3.17288C15.5251 1.81562 19.1483 2.84393 19.5034 3.37601C19.8581 3.90865 19.0754 7.13605 16.3588 8.49319C14.5594 9.39206 12.3636 9.24335 10.9823 8.88616C10.4427 8.74661 9.82497 8.95968 9.64322 9.48659C8.76346 12.0371 9.21627 14.5589 9.72017 16.17C9.97467 16.9835 9.38416 17.917 8.5317 17.917C7.67826 17.9169 6.93535 17.3412 6.83931 16.4932C6.6108 14.4726 6.63198 10.7289 9.27544 8.11097C9.46933 7.91896 9.58765 7.66359 9.63653 7.39512C9.85585 6.19056 10.8055 4.17335 12.8081 3.17288Z" fill="#59C46D"/>
<path d="M9.41516 5.46237C9.08035 6.12874 8.88221 6.77132 8.79889 7.28199C8.78617 7.35994 8.75723 7.40024 8.74236 7.4147C8.12986 8.0106 7.64375 8.65806 7.25999 9.3289C5.9856 9.25883 4.48734 8.91652 3.29081 8.05301C0.827975 6.27564 0.576052 2.96318 1.0122 2.49528C1.44835 2.02738 5.18948 1.59661 7.65231 3.37398C8.45961 3.95659 9.02935 4.70413 9.41516 5.46237Z" fill="#59C46D"/>
</svg>
