<svg width="20" height="20" viewBox="0 0 20 20" fill="none" xmlns="http://www.w3.org/2000/svg">
<path d="M10.4963 1.69342C11.3186 0.820942 12.6519 0.820942 13.4742 1.69342C14.2965 2.56591 14.2965 3.98047 13.4742 4.85295L10.3058 8.21466C10.1399 8.39063 9.8601 8.39063 9.69425 8.21466L6.52583 4.85295C5.70351 3.98047 5.70351 2.56591 6.52583 1.69342C7.34815 0.820942 8.68137 0.820942 9.50369 1.69342L9.69425 1.89561C9.8601 2.07158 10.1399 2.07158 10.3058 1.89561L10.4963 1.69342Z" fill="#FF9567"/>
<path d="M16.8456 9.03537C17.7181 9.85769 17.7181 11.1909 16.8456 12.0132C15.9732 12.8356 14.5586 12.8356 13.6861 12.0132L10.3244 8.84481C10.1484 8.67896 10.1484 8.39917 10.3244 8.23331L13.6861 5.06489C14.5586 4.24257 15.9732 4.24257 16.8456 5.06489C17.7181 5.88721 17.7181 7.22044 16.8456 8.04275L16.6435 8.23331C16.4675 8.39917 16.4675 8.67896 16.6435 8.84481L16.8456 9.03537Z" fill="#FF9567"/>
<path d="M13.4742 15.3847C12.6519 16.2572 11.3186 16.2572 10.4963 15.3847L10.3058 15.1825C10.1399 15.0065 9.8601 15.0065 9.69425 15.1825L9.50369 15.3847C8.68137 16.2572 7.34815 16.2572 6.52583 15.3847C5.70351 14.5122 5.70351 13.0977 6.52583 12.2252L9.69425 8.86347C9.8601 8.68749 10.1399 8.68749 10.3058 8.86347L13.4742 12.2252C14.2965 13.0977 14.2965 14.5122 13.4742 15.3847Z" fill="#FF9567"/>
<path d="M3.15436 9.03537C2.28188 9.85769 2.28188 11.1909 3.15436 12.0132C4.02684 12.8356 5.4414 12.8356 6.31389 12.0132L9.6756 8.84481C9.85157 8.67896 9.85157 8.39917 9.6756 8.23331L6.31389 5.06489C5.44141 4.24257 4.02684 4.24257 3.15436 5.06489C2.28188 5.88721 2.28188 7.22044 3.15436 8.04275L3.35655 8.23331C3.53252 8.39917 3.53252 8.67896 3.35655 8.84481L3.15436 9.03537Z" fill="#FF9567"/>
<path d="M13.3047 8.52246C13.3047 10.3481 11.8247 11.8281 9.99903 11.8281C8.17336 11.8281 6.69336 10.3481 6.69336 8.52246C6.69336 6.69679 8.17336 5.2168 9.99903 5.2168C11.8247 5.2168 13.3047 6.69679 13.3047 8.52246Z" fill="#FFE25F"/>
<path opacity="0.7" d="M4.79562 13.9668C4.87033 13.8875 4.97966 13.8627 5.07687 13.8906C5.09611 14.6399 5.37641 15.3834 5.91866 15.959C6.40805 16.4782 7.03106 16.7767 7.67355 16.8545C7.80737 17.3567 7.68869 17.9191 7.31612 18.3144C6.768 18.896 5.879 18.8958 5.33077 18.3144L5.20382 18.1797C5.09325 18.0623 4.90619 18.0623 4.79562 18.1797L4.66866 18.3144C4.12044 18.8958 3.23145 18.896 2.68331 18.3144C2.13518 17.7329 2.13534 16.7897 2.68331 16.208L4.79562 13.9668ZM0.436241 11.4345C0.785175 11.1057 1.26351 10.9763 1.71651 11.042C1.82368 11.622 2.1106 12.178 2.58273 12.623C3.16973 13.1761 3.93152 13.4549 4.69601 13.4638L4.7839 13.5468C4.9007 13.6574 4.90078 13.8436 4.7839 13.9541L2.54269 16.0664C1.96107 16.6146 1.01791 16.6145 0.436241 16.0664C-0.145414 15.5182 -0.145414 14.6292 0.436241 14.081L0.571007 13.9541C0.688022 13.8436 0.687946 13.6574 0.571007 13.5468L0.436241 13.4199C-0.145414 12.8717 -0.145414 11.9828 0.436241 11.4345ZM5.08175 13.6074C4.98325 13.6377 4.87168 13.6149 4.79562 13.5342L4.73019 13.4648C4.85214 13.465 4.97415 13.46 5.09542 13.4463C5.08936 13.4998 5.0851 13.5536 5.08175 13.6074Z" fill="#FF9567"/>
<path opacity="0.7" d="M14.9216 13.8898C15.019 13.8616 15.1289 13.8866 15.2039 13.966L17.3162 16.2072C17.8643 16.7888 17.8641 17.732 17.3162 18.3136C16.7679 18.8953 15.879 18.8953 15.3308 18.3136L15.2039 18.1789C15.0933 18.0616 14.9062 18.0616 14.7956 18.1789L14.6687 18.3136C14.1205 18.8953 13.2316 18.8953 12.6833 18.3136C12.3108 17.9182 12.1928 17.356 12.3269 16.8537C12.9691 16.7757 13.5916 16.4782 14.0808 15.9592C14.6234 15.3835 14.9025 14.6395 14.9216 13.8898ZM18.282 11.0422C18.7352 10.9761 19.2141 11.1049 19.5632 11.4338C20.1449 11.982 20.1449 12.8709 19.5632 13.4191L19.4285 13.5461C19.3112 13.6566 19.3112 13.8437 19.4285 13.9543L19.5632 14.0812C20.1449 14.6294 20.1449 15.5184 19.5632 16.0666C18.9815 16.6145 18.0383 16.6147 17.4568 16.0666L15.2165 13.9543C15.0992 13.8437 15.0992 13.6566 15.2165 13.5461L15.3025 13.464C16.0675 13.4553 16.8294 13.1757 17.4167 12.6222C17.8887 12.1774 18.1747 11.622 18.282 11.0422ZM14.904 13.4455C15.025 13.4592 15.1467 13.4651 15.2683 13.465L15.2039 13.5343C15.1278 13.6149 15.0161 13.6379 14.9177 13.6076C14.9144 13.5535 14.9101 13.4993 14.904 13.4455Z" fill="#FF9567"/>
</svg>
