<svg width="32" height="32" viewBox="0 0 32 32" fill="none" xmlns="http://www.w3.org/2000/svg">
<g style="mix-blend-mode:multiply">
<path d="M3.59991 12.8996C3.59991 7.76336 7.76367 3.59961 12.8999 3.59961H19.0999C24.2362 3.59961 28.3999 7.76336 28.3999 12.8996V19.0996C28.3999 24.2359 24.2362 28.3996 19.0999 28.3996H12.8999C7.76367 28.3996 3.59991 24.2359 3.59991 19.0996V12.8996Z" fill="#FFCC00"/>
<path d="M3.59991 12.8996C3.59991 7.76336 7.76367 3.59961 12.8999 3.59961H19.0999C24.2362 3.59961 28.3999 7.76336 28.3999 12.8996V19.0996C28.3999 24.2359 24.2362 28.3996 19.0999 28.3996H12.8999C7.76367 28.3996 3.59991 24.2359 3.59991 19.0996V12.8996Z" fill="#FA967C"/>
<g style="mix-blend-mode:multiply">
<path d="M10.8333 10.9138V21.1663H14.1269V15.6456L17.8736 21.1461H21.1666V10.833H17.7945V16.3737L13.9292 10.9141L10.8333 10.9138Z" fill="#D63D4A"/>
</g>
</g>
</svg>
