<svg width="32" height="32" viewBox="0 0 32 32" fill="none" xmlns="http://www.w3.org/2000/svg">
<g clip-path="url(#clip0_18356_448704)">
<path d="M13.8548 13.3913L9.91424 5.51013C9.56734 4.81632 10.0719 4 10.8476 4L19.9925 4C20.7682 4 21.2727 4.81632 20.9258 5.51013L16.9852 13.3913H13.8548Z" fill="#FA967C"/>
<path d="M26.8984 19.1301C26.8984 24.139 22.7245 27.9996 18.5506 27.9996H12.2897C8.1158 27.9996 3.94189 24.139 3.94189 19.1301C3.94189 12.6511 9.08087 8.69531 15.4201 8.69531C21.7594 8.69531 26.8984 12.6511 26.8984 19.1301Z" fill="#FA967C"/>
<path d="M15.4945 15.2412C15.7058 15.2412 15.9232 15.3004 16.105 15.4363C16.259 15.5513 16.3901 15.7217 16.4654 15.9659L17.509 19.7109L18.5243 15.8531C18.5855 15.6112 18.7219 15.4474 18.8934 15.3494C19.0721 15.2473 19.2959 15.2169 19.5291 15.266C19.7721 15.3149 19.9451 15.4401 20.0477 15.6063C20.1497 15.7714 20.1858 15.9849 20.1252 16.2294L19.5917 18.125L20.6942 18.1251C20.9143 18.1251 21.1136 18.2137 21.2579 18.357C21.4022 18.5002 21.4914 18.6981 21.4914 18.9167C21.4914 19.1353 21.4022 19.3332 21.2579 19.4765C21.1136 19.6197 20.9143 19.7083 20.6941 19.7083L19.1459 19.7082L18.4979 22.0092C18.4294 22.2583 18.3044 22.434 18.1556 22.5546C17.9772 22.6994 17.7608 22.7659 17.5483 22.772C17.3151 22.7724 17.093 22.7128 16.9097 22.576C16.7519 22.4582 16.6194 22.2824 16.5439 22.0265L15.4799 18.0839L14.377 22.0091C14.3067 22.2644 14.175 22.443 14.0185 22.5641C13.8304 22.7096 13.6025 22.7725 13.385 22.7725C13.1677 22.7725 12.9482 22.713 12.7656 22.5759C12.6104 22.4595 12.479 22.2866 12.4037 22.037L11.7557 19.7082L10.1463 19.7083C9.92619 19.7083 9.72689 19.6197 9.58262 19.4765C9.43835 19.3332 9.34912 19.1353 9.34912 18.9167C9.34912 18.6981 9.43835 18.5002 9.58262 18.357C9.72689 18.2137 9.92619 18.1251 10.1463 18.1251L11.3154 18.125L10.8135 16.3199C10.7414 16.0656 10.7719 15.848 10.8671 15.6757C10.9674 15.4939 11.1445 15.3553 11.3876 15.2868C11.6413 15.2251 11.8769 15.2264 12.0658 15.3094C12.2464 15.3887 12.3972 15.5374 12.4753 15.8009L13.4655 19.7071L14.5024 16.0053C14.5731 15.7478 14.704 15.5685 14.8605 15.4474C15.0459 15.304 15.2714 15.2412 15.4945 15.2412Z" fill="#D63D4A"/>
<path d="M9.68115 8.41124C9.68115 7.99211 10.0209 7.65234 10.44 7.65234H20.4005C20.8196 7.65234 21.1594 7.99211 21.1594 8.41124V8.9804C21.1594 9.39953 20.8196 9.7393 20.4005 9.7393H10.44C10.0209 9.7393 9.68115 9.39953 9.68115 8.9804V8.41124Z" fill="#FA967C"/>
<path d="M9.68115 8.41124C9.68115 7.99211 10.0209 7.65234 10.44 7.65234H20.4005C20.8196 7.65234 21.1594 7.99211 21.1594 8.41124V8.9804C21.1594 9.39953 20.8196 9.7393 20.4005 9.7393H10.44C10.0209 9.7393 9.68115 9.39953 9.68115 8.9804V8.41124Z" fill="#D63D4A"/>
</g>
<defs>
<clipPath id="clip0_18356_448704">
<rect width="32" height="32" fill="white"/>
</clipPath>
</defs>
</svg>
