<svg width="32" height="32" viewBox="0 0 32 32" fill="none" xmlns="http://www.w3.org/2000/svg">
<path d="M16.884 2.83774L25.6988 6.36017C26.1789 6.55196 26.5927 6.89538 26.8848 7.3445C27.1769 7.79363 27.3334 8.32706 27.3333 8.8735V16.07C27.3333 18.3128 26.7473 20.5114 25.6408 22.4193C24.5343 24.3272 22.951 25.869 21.0685 26.8721L16.8449 29.121C16.5826 29.2609 16.2933 29.3337 16 29.3337C15.7066 29.3337 15.4173 29.2609 15.155 29.121L10.9314 26.8707C9.0489 25.8677 7.46567 24.3258 6.35916 22.4179C5.25265 20.51 4.66658 18.3115 4.66663 16.0686V8.87484C4.66631 8.32818 4.82266 7.79445 5.11476 7.34506C5.40686 6.89566 5.82078 6.55204 6.30114 6.36017L15.116 2.83774C15.6859 2.61007 16.314 2.61007 16.884 2.83774Z" fill="#FA967C"/>
<g style="mix-blend-mode:multiply">
<path fill-rule="evenodd" clip-rule="evenodd" d="M16.0952 20.0231C16.4394 20.0231 16.6255 20.2052 16.9535 20.5651L16.9715 20.5847C17.2669 20.9087 17.7123 21.3977 18.5182 21.3267C18.9988 21.284 19.4577 20.9745 19.8416 20.6087C20.2418 20.2274 20.633 19.7179 20.9754 19.1503C21.6557 18.022 22.1905 16.585 22.1905 15.3378V15.2994C22.1905 14.2137 22.1905 12.004 19.9085 10.9663C19.0584 10.5816 18.3248 10.632 17.6852 10.7637C17.4944 10.8051 17.3046 10.8507 17.1161 10.9004C17.0095 10.9278 16.9116 10.9523 16.8225 10.974C16.5855 11.0364 16.3412 11.0709 16.0952 11.0765C15.8667 11.0765 15.6309 11.0364 15.3635 10.974C15.2731 10.9534 15.1738 10.9292 15.0654 10.9013C14.8829 10.8568 14.6859 10.8073 14.5025 10.7697C13.8684 10.6397 13.1402 10.5884 12.3073 10.9671C9.9991 12.0168 10 14.2137 10 15.3028V15.337C10 16.591 10.5737 18.0331 11.2693 19.158C11.6198 19.7256 12.0137 20.2334 12.4048 20.6112C12.6 20.8001 12.8023 20.9643 13.0056 21.0874C13.2053 21.2079 13.432 21.3053 13.6714 21.3267C14.4772 21.3977 14.9235 20.9079 15.2189 20.5847L15.237 20.5651C15.5649 20.206 15.751 20.0231 16.0952 20.0231Z" fill="#D63D4A"/>
</g>
<path d="M17.2341 12.7087C17.5247 12.6002 17.8614 12.7076 18.0322 12.9809C18.227 13.293 18.132 13.7037 17.82 13.8988L17.5856 14.0355C17.0358 14.3361 16.4611 14.5003 15.8669 14.5004C15.2723 14.5004 14.6969 14.3363 14.1468 14.0355L13.9137 13.8988L13.807 13.8168C13.582 13.6032 13.5308 13.2542 13.7015 12.9809C13.8722 12.7078 14.2079 12.6007 14.4984 12.7087L14.6195 12.7686L14.7861 12.8663C15.1694 13.076 15.528 13.1671 15.8669 13.1671C16.2542 13.167 16.6666 13.0476 17.113 12.7686L17.2341 12.7087Z" fill="#FA967C"/>
<path d="M6.83887 7.64768L12.1912 5.41962C12.4037 5.33116 12.5953 5.67492 12.4153 5.81835C9.64576 8.02504 7.65204 10.7949 6.43409 15.0934C6.37187 15.313 6.00351 15.2692 6.00403 15.0409L6.01796 8.8756C6.01917 8.33827 6.3428 7.85418 6.83887 7.64768Z" fill="white"/>
</svg>
