<svg width="32" height="32" viewBox="0 0 32 32" fill="none" xmlns="http://www.w3.org/2000/svg">
<g clip-path="url(#clip0_18356_448732)">
<path d="M15.9998 17.6081L10.5987 21.3333L4.0714 11.2318C3.28899 10.021 3.60996 8.40698 4.79666 7.58854L8.06749 5.33333L15.9998 17.6081Z" fill="#FA967C"/>
<path d="M27.2029 7.58854C28.3896 8.40694 28.7118 10.021 27.9295 11.2318L21.4008 21.3333L15.9998 17.6081L23.9321 5.33333L27.2029 7.58854Z" fill="#FA967C"/>
<path d="M15.9998 4C19.7098 4 22.1284 4.6489 23.2576 5.04167L20.2784 9.65234C19.1219 9.46848 17.6955 9.33333 15.9998 9.33333C14.3034 9.33335 12.8766 9.46837 11.7198 9.65234L8.74067 5.04167C9.86928 4.64896 12.2884 4.00003 15.9998 4Z" fill="#FA967C"/>
<path d="M24 20C24 24.4183 20.4183 28 16 28C11.5817 28 8 24.4183 8 20C8 15.5817 11.5817 12 16 12C20.4183 12 24 15.5817 24 20Z" fill="#D63D4A"/>
<path d="M17.2178 24C17.8239 24.1926 18.2627 24.7598 18.2627 25.4297C18.2627 26.2581 17.5911 26.9297 16.7627 26.9297C16.0928 26.9295 15.5255 26.4899 15.333 25.8838C15.5732 26.1178 15.9009 26.2626 16.2627 26.2627C16.9991 26.2627 17.5967 25.6661 17.5967 24.9297C17.5967 24.5679 17.4517 24.2402 17.2178 24ZM21.2178 20.4033C21.8238 20.5959 22.2626 21.1632 22.2627 21.833C22.2627 22.6614 21.5911 23.333 20.7627 23.333C20.0929 23.3329 19.5256 22.8941 19.333 22.2881C19.5732 22.5221 19.9009 22.6669 20.2627 22.667C20.9991 22.667 21.5967 22.0694 21.5967 21.333C21.5966 20.9712 21.4518 20.6435 21.2178 20.4033ZM17.2178 20C17.8239 20.1926 18.2627 20.7598 18.2627 21.4297C18.2627 22.2581 17.5911 22.9297 16.7627 22.9297C16.0928 22.9295 15.5255 22.4899 15.333 21.8838C15.5732 22.1178 15.9009 22.2626 16.2627 22.2627C16.9991 22.2627 17.5967 21.6661 17.5967 20.9297C17.5967 20.5679 17.4517 20.2402 17.2178 20Z" fill="#EA9EA4"/>
</g>
<defs>
<clipPath id="clip0_18356_448732">
<rect width="32" height="32" fill="white"/>
</clipPath>
</defs>
</svg>
