<svg width="28" height="21" viewBox="0 0 28 21" fill="none" xmlns="http://www.w3.org/2000/svg">
<path d="M23.5337 0.333008C24.5415 0.333008 25.508 0.733364 26.2207 1.446C26.9333 2.15864 27.3337 3.12518 27.3337 4.13301V5.39967H0.666992V4.13301C0.666992 3.12518 1.06735 2.15864 1.77999 1.446C2.49262 0.733364 3.45917 0.333008 4.46699 0.333008H23.5337Z" fill="#D63D4A"/>
<path d="M27.3337 16.866V6.66602H0.666992V16.866C0.666992 17.8738 1.06735 18.8404 1.77999 19.553C2.49262 20.2657 3.45917 20.666 4.46699 20.666H23.5337C24.5415 20.666 25.508 20.2657 26.2207 19.553C26.9333 18.8404 27.3337 17.8738 27.3337 16.866Z" fill="#FA967C"/>
<ellipse cx="6.43369" cy="16.233" rx="1.9" ry="1.9" fill="white"/>
<ellipse cx="8.96689" cy="16.233" rx="1.9" ry="1.9" fill="white"/>
</svg>
