<svg width="32" height="32" viewBox="0 0 32 32" fill="none" xmlns="http://www.w3.org/2000/svg">
<g clip-path="url(#clip0_18356_448720)">
<path d="M16.8838 2.83774L25.6987 6.36017C26.1788 6.55196 26.5926 6.89538 26.8847 7.3445C27.1768 7.79363 27.3332 8.32706 27.3332 8.8735V16.07C27.3332 18.3128 26.7471 20.5114 25.6406 22.4193C24.5341 24.3272 22.9509 25.869 21.0684 26.8721L16.8448 29.121C16.5825 29.2609 16.2932 29.3337 15.9998 29.3337C15.7065 29.3337 15.4172 29.2609 15.1549 29.121L10.9313 26.8707C9.04878 25.8677 7.46554 24.3258 6.35904 22.4179C5.25253 20.51 4.66646 18.3115 4.6665 16.0686V8.87484C4.66618 8.32818 4.82253 7.79445 5.11463 7.34506C5.40674 6.89566 5.82066 6.55204 6.30102 6.36017L15.1158 2.83774C15.6858 2.61007 16.3139 2.61007 16.8838 2.83774Z" fill="#FA967C"/>
<path d="M6.83875 7.64768L12.1911 5.41962C12.4035 5.33116 12.5951 5.67492 12.4151 5.81835C9.64564 8.02504 7.65192 10.7949 6.43396 15.0934C6.37175 15.313 6.00339 15.2692 6.00391 15.0409L6.01784 8.8756C6.01905 8.33827 6.34268 7.85418 6.83875 7.64768Z" fill="white"/>
<g style="mix-blend-mode:multiply">
<path d="M19.7772 15.2021C20.3664 15.2021 20.9321 15.4304 21.3488 15.8363C21.7655 16.2422 21.9997 16.7934 21.9998 17.3675C21.9998 17.7121 21.8593 18.0431 21.6092 18.2868C21.3592 18.5303 21.02 18.667 20.6665 18.667H19.285C19.1694 18.5114 19.0443 18.3615 18.9035 18.2243C18.2874 17.6241 17.4817 17.2589 16.6287 17.1813C17.1392 16.6331 17.4595 15.9404 17.5415 15.2021H19.7772Z" fill="#D63D4A"/>
<path d="M17.9998 10.667C18.558 10.667 19.0934 10.8829 19.4881 11.2673C19.8828 11.6518 20.1052 12.1739 20.1053 12.7178C20.1053 13.2618 19.8829 13.7836 19.4881 14.1683C19.0933 14.553 18.5582 14.7699 17.9998 14.7699C17.8501 14.7699 17.7026 14.7519 17.5584 14.7217C17.5342 13.9433 17.249 13.1998 16.7498 12.6058L16.5129 12.3493C16.3667 12.2069 16.2079 12.0805 16.0415 11.9665C16.1465 11.7069 16.3053 11.4682 16.5116 11.2673C16.9063 10.8828 17.4417 10.667 17.9998 10.667Z" fill="#D63D4A"/>
</g>
<g style="mix-blend-mode:multiply">
<path fill-rule="evenodd" clip-rule="evenodd" d="M11.9261 17.9586C11.2385 17.9586 10.5791 18.2247 10.0928 18.6985C9.60664 19.1722 9.3335 19.8147 9.3335 20.4847C9.3335 20.8866 9.49738 21.2722 9.78911 21.5564C10.0808 21.8406 10.4765 22.0003 10.8891 22.0003H17.1113C17.5238 22.0003 17.9195 21.8406 18.2112 21.5564C18.5029 21.2722 18.6668 20.8866 18.6668 20.4847C18.6668 19.8147 18.3937 19.1722 17.9075 18.6985C17.4213 18.2247 16.7618 17.9586 16.0742 17.9586H11.9261Z" fill="#D63D4A"/>
<path d="M12.2634 13.3679C11.8028 13.8167 11.544 14.4254 11.544 15.0601C11.544 15.6948 11.8028 16.3035 12.2634 16.7523C12.7241 17.2011 13.3488 17.4533 14.0002 17.4533C14.6516 17.4533 15.2763 17.2011 15.7369 16.7523C16.1976 16.3035 16.4563 15.6948 16.4563 15.0601C16.4563 14.4254 16.1976 13.8167 15.7369 13.3679C15.2763 12.9191 14.6516 12.667 14.0002 12.667C13.3488 12.667 12.7241 12.9191 12.2634 13.3679Z" fill="#D63D4A"/>
</g>
</g>
<defs>
<clipPath id="clip0_18356_448720">
<rect width="32" height="32" fill="white"/>
</clipPath>
</defs>
</svg>
