<svg width="32" height="32" viewBox="0 0 32 32" fill="none" xmlns="http://www.w3.org/2000/svg">
<circle cx="16" cy="15.6667" r="11.6667" fill="#FA967C"/>
<g style="mix-blend-mode:multiply">
<path d="M24.3334 15.6667C24.3334 11.0643 20.6024 7.33333 16 7.33333C11.3977 7.33333 7.66671 11.0643 7.66671 15.6667C7.66671 16.5871 6.92052 17.3333 6.00004 17.3333C5.07957 17.3333 4.33337 16.5871 4.33337 15.6667C4.33337 9.22334 9.55672 4 16 4C22.4434 4 27.6667 9.22334 27.6667 15.6667C27.6667 16.5871 26.9205 17.3333 26 17.3333C25.0796 17.3333 24.3334 16.5871 24.3334 15.6667Z" fill="#D63D4A"/>
</g>
<g style="mix-blend-mode:multiply">
<path d="M13.1867 13.5234C13.0462 13.0317 12.5338 12.7469 12.0421 12.8874C11.5504 13.0279 11.2656 13.5404 11.4061 14.0321L11.9948 16.0925H11.3705C10.8591 16.0925 10.4446 16.5071 10.4446 17.0185C10.4446 17.5298 10.8591 17.9444 11.3705 17.9444H12.5239L12.9934 19.5877C13.103 19.9711 13.4457 20.2413 13.8441 20.2584C14.2425 20.2754 14.607 20.0355 14.749 19.6629L16.0001 16.3787L17.2513 19.6629C17.3932 20.0355 17.7578 20.2754 18.1562 20.2584C18.5546 20.2413 18.8973 19.9711 19.0068 19.5877L19.4763 17.9444H20.6298C21.1411 17.9444 21.5557 17.5298 21.5557 17.0185C21.5557 16.5071 21.1411 16.0925 20.6298 16.0925H20.0054L20.5941 14.0321C20.7346 13.5404 20.4499 13.0279 19.9582 12.8874C19.4665 12.7469 18.954 13.0317 18.8135 13.5234L17.9909 16.4026L16.8654 13.4481C16.7286 13.0891 16.3843 12.8518 16.0001 12.8518C15.6159 12.8518 15.2716 13.0891 15.1349 13.4481L14.0094 16.4026L13.1867 13.5234Z" fill="#D63D4A"/>
</g>
</svg>
