<svg width="32" height="32" viewBox="0 0 32 32" fill="none" xmlns="http://www.w3.org/2000/svg">
<g clip-path="url(#clip0_18356_448718)">
<path d="M6.6665 6.67407C6.6665 5.19722 7.86041 4 9.33317 4H22.6665C24.1393 4 25.3332 5.19722 25.3332 6.67407V26.6593C25.3332 28.1361 24.1393 29.3333 22.6665 29.3333H9.33317C7.86041 29.3333 6.6665 28.1361 6.6665 26.6593V6.67407Z" fill="#FA967C"/>
<g style="mix-blend-mode:multiply">
<path fill-rule="evenodd" clip-rule="evenodd" d="M25.3332 26.9873C25.3331 28.2833 24.1392 29.3337 22.6665 29.3337H9.33317C7.86046 29.3337 6.66659 28.2833 6.6665 26.9873V23.4678H25.3332V26.9873ZM15.9998 25.0667C15.2636 25.0667 14.6667 25.6638 14.6665 26.4001C14.6665 27.1364 15.2635 27.7334 15.9998 27.7334C16.7362 27.7334 17.3332 27.1364 17.3332 26.4001C17.333 25.6638 16.7361 25.0667 15.9998 25.0667Z" fill="#D63D4A"/>
<path d="M17.5819 8.96648C17.9647 8.5672 18.5858 8.56712 18.9686 8.96648C19.3513 9.36614 19.3509 10.0145 18.9686 10.4144L16.7407 12.7412H18.2759C18.672 12.7416 19.0291 12.9918 19.1808 13.374C19.3325 13.7565 19.2487 14.1971 18.9686 14.4899L13.7668 19.9222C13.3839 20.3221 12.7629 20.3221 12.38 19.9222C11.9973 19.5223 11.9972 18.8741 12.38 18.4743L15.9087 14.7894H14.3735C13.977 14.7894 13.6191 14.5404 13.4673 14.1579C13.3158 13.7755 13.3995 13.3348 13.6795 13.042L17.5819 8.96648Z" fill="#D63D4A"/>
</g>
</g>
<defs>
<clipPath id="clip0_18356_448718">
<rect width="32" height="32" fill="white"/>
</clipPath>
</defs>
</svg>
