<svg width="32" height="32" viewBox="0 0 32 32" fill="none" xmlns="http://www.w3.org/2000/svg">
<g clip-path="url(#clip0_12657_351459)">
<g style="mix-blend-mode:multiply">
<g clip-path="url(#clip1_12657_351459)">
<path d="M14.1091 7.23941C13.5938 6.72816 13.333 6.097 13.333 5.33329C13.333 4.57274 13.5938 3.93527 14.1091 3.42718C14.6213 2.91909 15.2081 2.66663 15.9593 2.66663C16.7106 2.66663 17.347 2.91909 17.8747 3.42718C18.4025 3.93527 18.6663 4.56958 18.6663 5.33329C18.6663 6.097 18.4025 6.72816 17.8747 7.23941C17.347 7.74749 16.6826 7.99996 15.9593 7.99996C15.236 7.99996 14.6213 7.74749 14.1091 7.23941Z" fill="white"/>
<path d="M16 21.333C17.4727 21.333 18.6665 22.5271 18.6667 23.9997V26.6663H13.3333V23.9997C13.3335 22.5271 14.5273 21.333 16 21.333Z" fill="#FA967C"/>
<path d="M18.6667 9.33301C21.6121 9.33301 23.9998 11.721 24 14.6663V21.333C24 23.8181 22.3003 25.9063 20 26.4984V23.9997C19.9998 21.7907 18.209 19.9997 16 19.9997C13.791 19.9997 12.0002 21.7907 12 23.9997V26.4984C9.69973 25.9063 8 23.8181 8 21.333V14.6663C8.00018 11.721 10.3879 9.33301 13.3333 9.33301H18.6667Z" fill="#FA967C"/>
<path d="M13.333 23.9999C13.333 22.5272 14.5269 21.3333 15.9997 21.3333C17.4724 21.3333 18.6663 22.5272 18.6663 23.9999V27.9999C18.6663 29.4727 17.4724 30.6666 15.9997 30.6666C14.5269 30.6666 13.333 29.4727 13.333 27.9999V23.9999Z" fill="#D9D9D9"/>
<path d="M13.333 23.9999C13.333 22.5272 14.5269 21.3333 15.9997 21.3333C17.4724 21.3333 18.6663 22.5272 18.6663 23.9999V27.9999C18.6663 29.4727 17.4724 30.6666 15.9997 30.6666C14.5269 30.6666 13.333 29.4727 13.333 27.9999V23.9999Z" fill="#D63D4A"/>
<ellipse cx="11.9993" cy="14.6666" rx="1.33333" ry="1.33333" fill="white"/>
<ellipse cx="19.9993" cy="14.6666" rx="1.33333" ry="1.33333" fill="white"/>
<path d="M17.8665 6.66659C17.8665 6.17976 17.7264 5.79482 17.4473 5.47127L17.3197 5.33716C16.9453 4.97679 16.5095 4.7994 15.959 4.7994C15.4227 4.7994 15.0375 4.96617 14.6725 5.32804L14.6699 5.33065C14.3149 5.68094 14.1322 6.10973 14.1322 6.66659C14.1322 7.22487 14.3141 7.64954 14.6725 8.00513L14.8105 8.13013C15.1388 8.40302 15.51 8.53377 15.959 8.53377C16.4201 8.53377 16.832 8.39617 17.1764 8.12231L17.3197 7.99601C17.6852 7.64101 17.8665 7.22019 17.8665 6.66659ZM19.4655 6.66659C19.4655 7.63917 19.12 8.48005 18.4316 9.14705L18.429 9.14966C17.7449 9.8081 16.8785 10.1327 15.959 10.1327C15.1423 10.1327 14.4145 9.87664 13.8014 9.37231L13.5449 9.14054C12.8729 8.47369 12.5332 7.63559 12.5332 6.66659C12.5332 5.70357 12.871 4.85811 13.5449 4.19263L13.7988 3.96216C14.4046 3.4592 15.1137 3.20044 15.959 3.20044C16.9108 3.20044 17.7479 3.52798 18.429 4.18351L18.6725 4.44263C19.2015 5.06356 19.4655 5.8169 19.4655 6.66659Z" fill="#D63D4A"/>
<path d="M25.333 5.33325L25.4697 5.33976C26.1419 5.4082 26.6663 5.97635 26.6663 6.66659C26.6663 7.35682 26.1419 7.92497 25.4697 7.99341L25.333 7.99992H6.66634C5.92996 7.99992 5.33301 7.40297 5.33301 6.66659C5.33301 5.93021 5.92996 5.33325 6.66634 5.33325H25.333Z" fill="#D63D4A"/>
<circle cx="16" cy="6.66663" r="2" fill="white"/>
</g>
</g>
</g>
<defs>
<clipPath id="clip0_12657_351459">
<rect width="32" height="32" fill="white"/>
</clipPath>
<clipPath id="clip1_12657_351459">
<rect width="21.3333" height="28" fill="white" transform="translate(5.33301 2.66663)"/>
</clipPath>
</defs>
</svg>
