<svg width="32" height="32" viewBox="0 0 32 32" fill="none" xmlns="http://www.w3.org/2000/svg">
<g clip-path="url(#clip0_18356_448709)">
<g clip-path="url(#clip1_18356_448709)">
<path d="M14.1096 7.23977C13.5943 6.72853 13.3335 6.09737 13.3335 5.33366C13.3335 4.57311 13.5943 3.93563 14.1096 3.42754C14.6218 2.91946 15.2085 2.66699 15.9598 2.66699C16.7111 2.66699 17.3475 2.91946 17.8752 3.42754C18.403 3.93563 18.6668 4.56995 18.6668 5.33366C18.6668 6.09737 18.403 6.72853 17.8752 7.23977C17.3475 7.74786 16.6831 8.00033 15.9598 8.00033C15.2365 8.00033 14.6218 7.74786 14.1096 7.23977Z" fill="white"/>
<path d="M16 21.333C17.4727 21.333 18.6665 22.5271 18.6667 23.9997V26.6663H13.3333V23.9997C13.3335 22.5271 14.5273 21.333 16 21.333Z" fill="#FA967C"/>
<path d="M18.6667 9.33301C21.6121 9.33301 23.9998 11.721 24 14.6663V21.333C24 23.8181 22.3003 25.9063 20 26.4984V23.9997C19.9998 21.7907 18.209 19.9997 16 19.9997C13.791 19.9997 12.0002 21.7907 12 23.9997V26.4984C9.69973 25.9063 8 23.8181 8 21.333V14.6663C8.00018 11.721 10.3879 9.33301 13.3333 9.33301H18.6667Z" fill="#FA967C"/>
<path d="M13.3335 24.0007C13.3335 22.5279 14.5274 21.334 16.0002 21.334C17.4729 21.334 18.6668 22.5279 18.6668 24.0007V28.0007C18.6668 29.4734 17.4729 30.6673 16.0002 30.6673C14.5274 30.6673 13.3335 29.4734 13.3335 28.0007V24.0007Z" fill="#D9D9D9"/>
<path d="M13.3335 24.0007C13.3335 22.5279 14.5274 21.334 16.0002 21.334C17.4729 21.334 18.6668 22.5279 18.6668 24.0007V28.0007C18.6668 29.4734 17.4729 30.6673 16.0002 30.6673C14.5274 30.6673 13.3335 29.4734 13.3335 28.0007V24.0007Z" fill="#D63D4A"/>
<ellipse cx="12.0003" cy="14.6673" rx="1.33333" ry="1.33333" fill="white"/>
<ellipse cx="20.0003" cy="14.6673" rx="1.33333" ry="1.33333" fill="white"/>
<path d="M17.8675 6.66732C17.8675 6.18049 17.7273 5.79555 17.4482 5.47201L17.3206 5.33789C16.9463 4.97752 16.5105 4.80013 15.96 4.80013C15.4237 4.80013 15.0385 4.9669 14.6735 5.32878L14.6709 5.33138C14.3159 5.68167 14.1331 6.11046 14.1331 6.66732C14.1331 7.22561 14.3151 7.65027 14.6735 8.00586L14.8115 8.13086C15.1398 8.40375 15.511 8.5345 15.96 8.53451C16.421 8.53451 16.833 8.3969 17.1774 8.12305L17.3206 7.99675C17.6862 7.64174 17.8675 7.22092 17.8675 6.66732ZM19.4665 6.66732C19.4665 7.6399 19.1209 8.48078 18.4326 9.14779L18.43 9.15039C17.7459 9.80883 16.8795 10.1335 15.96 10.1335C15.1433 10.1335 14.4155 9.87738 13.8024 9.37305L13.5459 9.14128C12.8738 8.47442 12.5342 7.63632 12.5342 6.66732C12.5342 5.7043 12.872 4.85884 13.5459 4.19336L13.7998 3.96289C14.4056 3.45993 15.1146 3.20117 15.96 3.20117C16.9118 3.20117 17.7489 3.52872 18.43 4.18424L18.6735 4.44336C19.2025 5.06429 19.4665 5.81763 19.4665 6.66732Z" fill="#D63D4A"/>
<path d="M25.3335 5.33398L25.4702 5.34049C26.1424 5.40894 26.6668 5.97708 26.6668 6.66732C26.6668 7.35755 26.1424 7.9257 25.4702 7.99414L25.3335 8.00065H6.66683C5.93045 8.00065 5.3335 7.4037 5.3335 6.66732C5.3335 5.93094 5.93045 5.33398 6.66683 5.33398H25.3335Z" fill="#D63D4A"/>
<circle cx="16" cy="6.66699" r="2" fill="white"/>
</g>
</g>
<defs>
<clipPath id="clip0_18356_448709">
<rect width="32" height="32" fill="white"/>
</clipPath>
<clipPath id="clip1_18356_448709">
<rect width="21.3333" height="28" fill="white" transform="translate(5.3335 2.66699)"/>
</clipPath>
</defs>
</svg>
