<svg width="32" height="32" viewBox="0 0 32 32" fill="none" xmlns="http://www.w3.org/2000/svg">
<g style="mix-blend-mode:multiply">
<path fill-rule="evenodd" clip-rule="evenodd" d="M10.2197 4.66699C9.78465 4.66714 9.35737 4.79152 8.98114 5.02752C8.60491 5.26351 8.29311 5.60275 8.07733 6.01085L3.6593 14.3633C3.44583 14.7664 3.33352 15.2227 3.3335 15.6871V21.6838C3.33352 22.0975 3.42267 22.5056 3.59389 22.8757L4.9736 25.8567C5.17853 26.2997 5.49363 26.6723 5.88358 26.9328C6.27353 27.1932 6.72292 27.3312 7.18138 27.3312H8.26984C8.92444 27.3312 9.55223 27.0503 10.0151 26.5502C10.478 26.0502 10.738 25.372 10.738 24.6648H20.6107C20.6107 25.372 20.8708 26.0502 21.3336 26.5502C21.7965 27.0503 22.4243 27.3312 23.0789 27.3312H24.1674C24.6258 27.3312 25.0752 27.1932 25.4652 26.9328C25.8551 26.6723 26.1702 26.2997 26.3751 25.8567L27.7548 22.8757C27.9264 22.5064 28.0152 22.0971 28.0152 21.6838V15.6871C28.0152 15.2227 27.9029 14.7664 27.6894 14.3633L23.2714 6.01085C23.0556 5.60275 22.7438 5.26351 22.3676 5.02752C21.9914 4.79152 21.5641 4.66714 21.129 4.66699H10.2197Z" fill="#FA967C"/>
<g style="mix-blend-mode:multiply">
<path d="M5.87718 26.9357C5.48723 26.6753 5.17213 26.3027 4.9672 25.8596L4.27734 24.3691H27.0586L26.3687 25.8596C26.1638 26.3027 25.8487 26.6753 25.4588 26.9357C25.0688 27.1962 24.6194 27.3341 24.161 27.3342H23.0725C22.4179 27.3342 21.7901 27.0532 21.3272 26.5532C20.8644 26.0531 20.6043 25.3749 20.6043 24.6678H10.7316C10.7316 25.3749 10.4716 26.0531 10.0087 26.5532C9.54584 27.0532 8.91805 27.3342 8.26345 27.3342H7.17498C6.71653 27.3341 6.26713 27.1962 5.87718 26.9357Z" fill="#D63D4A"/>
</g>
<g style="mix-blend-mode:multiply">
<path d="M7.2647 13.0062L9.53176 7.90526C9.66821 7.59825 9.97267 7.40039 10.3086 7.40039H21.2947C21.6306 7.40039 21.9351 7.59825 22.0715 7.90526L24.3386 13.0062C24.5885 13.5683 24.177 14.2016 23.5617 14.2016H8.04158C7.42636 14.2016 7.01484 13.5684 7.2647 13.0062Z" fill="#D63D4A"/>
</g>
<circle cx="9.56749" cy="19.4015" r="1.7003" fill="white"/>
<circle cx="22.0367" cy="19.4015" r="1.7003" fill="white"/>
<path d="M18.707 23.2404C18.707 25.9812 22.3272 28.0008 23.6848 28.0008C25.0424 28.0008 28.6626 25.9812 28.6626 23.2404C28.6626 21.7976 28.6626 20.4919 28.6626 19.5787C28.6626 18.789 28.1525 18.0906 27.4013 17.8511L24.508 16.9288C23.9724 16.7581 23.3972 16.7581 22.8616 16.9288L19.9683 17.8511C19.2172 18.0906 18.707 18.789 18.707 19.5787C18.707 20.4919 18.707 21.7976 18.707 23.2404Z" fill="#D63D4A"/>
<path d="M21.0181 21.5901L23.1478 23.8484L26.3514 20.8008" stroke="white" stroke-width="0.914286" stroke-linecap="round" stroke-linejoin="round"/>
</g>
</svg>
