<svg width="32" height="32" viewBox="0 0 32 32" fill="none" xmlns="http://www.w3.org/2000/svg">
<g clip-path="url(#clip0_12657_353001)">
<g clip-path="url(#clip1_12657_353001)">
<circle cx="16.1667" cy="15.8333" r="11.6667" fill="#FA967C"/>
<g style="mix-blend-mode:multiply">
<path d="M24.5 15.8333C24.5 11.2309 20.769 7.49996 16.1667 7.49996C11.5643 7.49996 7.83333 11.2309 7.83333 15.8333C7.83333 16.7538 7.08714 17.5 6.16667 17.5C5.24619 17.5 4.5 16.7538 4.5 15.8333C4.5 9.38997 9.72334 4.16663 16.1667 4.16663C22.61 4.16663 27.8333 9.38997 27.8333 15.8333C27.8333 16.7538 27.0871 17.5 26.1667 17.5C25.2462 17.5 24.5 16.7538 24.5 15.8333Z" fill="#D63D4A"/>
</g>
<g style="mix-blend-mode:multiply">
<path d="M13.3535 13.69C13.213 13.1983 12.7005 12.9136 12.2088 13.0541C11.7171 13.1945 11.4324 13.707 11.5729 14.1987L12.1616 16.2592H11.5373C11.0259 16.2592 10.6113 16.6737 10.6113 17.1851C10.6113 17.6965 11.0259 18.111 11.5373 18.111H12.6907L13.1602 19.7543C13.2697 20.1377 13.6124 20.4079 14.0108 20.425C14.4092 20.4421 14.7738 20.2022 14.9157 19.8295L16.1669 16.5453L17.418 19.8295C17.56 20.2022 17.9246 20.4421 18.3229 20.425C18.7213 20.4079 19.064 20.1377 19.1736 19.7543L19.6431 18.111H20.7965C21.3079 18.111 21.7224 17.6965 21.7224 17.1851C21.7224 16.6737 21.3079 16.2592 20.7965 16.2592H20.1722L20.7609 14.1987C20.9014 13.707 20.6167 13.1945 20.125 13.0541C19.6333 12.9136 19.1208 13.1983 18.9803 13.69L18.1577 16.5692L17.0322 13.6147C16.8954 13.2557 16.5511 13.0184 16.1669 13.0184C15.7827 13.0184 15.4384 13.2557 15.3016 13.6147L14.1761 16.5692L13.3535 13.69Z" fill="#D63D4A"/>
</g>
</g>
</g>
<defs>
<clipPath id="clip0_12657_353001">
<path d="M0 10C0 4.47715 4.47715 0 10 0H22C27.5228 0 32 4.47715 32 10V22C32 27.5228 27.5228 32 22 32H10C4.47715 32 0 27.5228 0 22V10Z" fill="white"/>
</clipPath>
<clipPath id="clip1_12657_353001">
<rect width="32" height="32" fill="white" transform="translate(0.166504 0.166626)"/>
</clipPath>
</defs>
</svg>
