<svg width="16" height="16" viewBox="0 0 16 16" fill="none" xmlns="http://www.w3.org/2000/svg">
<path fill-rule="evenodd" clip-rule="evenodd" d="M12.7141 3.28615C12.8167 3.38873 12.8731 3.52868 12.8702 3.67373L12.776 8.48205C12.7702 8.77655 12.5268 9.0106 12.2323 9.00483C11.9378 8.99905 11.7037 8.75564 11.7095 8.46114L11.7778 4.97671L4.04065 12.7139C3.83237 12.9221 3.49469 12.9221 3.28641 12.7139C3.07813 12.5056 3.07813 12.1679 3.28641 11.9596L11.0236 4.22246L7.53913 4.29078C7.24464 4.29656 7.00122 4.0625 6.99545 3.76801C6.98967 3.47351 7.22373 3.2301 7.51822 3.22432L12.3265 3.13004C12.4716 3.1272 12.6115 3.18356 12.7141 3.28615Z" fill="#464C53"/>
</svg>
