<svg width="32" height="32" viewBox="0 0 32 32" fill="none" xmlns="http://www.w3.org/2000/svg">
<path fill-rule="evenodd" clip-rule="evenodd" d="M16.0006 25.3325C15.7104 25.3325 15.4328 25.2143 15.2317 25.0052L8.565 18.0718C8.15668 17.6472 8.16992 16.9719 8.59457 16.5636C9.01922 16.1553 9.69446 16.1686 10.1028 16.5932L14.9339 21.6176L14.9339 7.73356C14.9339 7.14446 15.4114 6.6669 16.0006 6.6669C16.5897 6.6669 17.0672 7.14446 17.0672 7.73356L17.0672 21.6176L21.8983 16.5932C22.3066 16.1686 22.9819 16.1553 23.4065 16.5636C23.8312 16.9719 23.8444 17.6472 23.4361 18.0718L16.7694 25.0052C16.5683 25.2143 16.2907 25.3325 16.0006 25.3325Z" fill="#33363D"/>
</svg>
