<svg width="24" height="24" viewBox="0 0 24 24" fill="none" xmlns="http://www.w3.org/2000/svg">
<path fill-rule="evenodd" clip-rule="evenodd" d="M19 11.9992C19 12.2168 18.9113 12.4251 18.7545 12.5759L13.5545 17.5759C13.236 17.8821 12.7296 17.8722 12.4233 17.5537C12.1171 17.2352 12.127 16.7288 12.4455 16.4226L16.2138 12.7992L5.80078 12.7992C5.35896 12.7992 5.00078 12.441 5.00078 11.9992C5.00078 11.5574 5.35896 11.1992 5.80078 11.1992L16.2138 11.1992L12.4455 7.57589C12.127 7.26965 12.1171 6.76322 12.4233 6.44473C12.7296 6.12625 13.236 6.11632 13.5545 6.42255L18.7545 11.4226C18.9113 11.5734 19 11.7816 19 11.9992Z" fill="white"/>
</svg>
