<svg width="33" height="32" viewBox="0 0 33 32" fill="none" xmlns="http://www.w3.org/2000/svg">
<path fill-rule="evenodd" clip-rule="evenodd" d="M16.501 25.3328C16.2109 25.3328 15.9333 25.2146 15.7322 25.0054L9.06548 18.0721C8.65717 17.6474 8.67041 16.9722 9.09506 16.5639C9.5197 16.1556 10.1949 16.1688 10.6033 16.5934L15.4344 21.6178L15.4344 7.73381C15.4344 7.1447 15.9119 6.66714 16.501 6.66714C17.0901 6.66714 17.5677 7.1447 17.5677 7.73381L17.5677 21.6178L22.3988 16.5934C22.8071 16.1688 23.4824 16.1556 23.907 16.5639C24.3317 16.9722 24.3449 17.6474 23.9366 18.0721L17.2699 25.0054C17.0688 25.2146 16.7912 25.3328 16.501 25.3328Z" fill="#33363D"/>
</svg>
