<svg width="20" height="20" viewBox="0 0 20 20" fill="none" xmlns="http://www.w3.org/2000/svg">
<path d="M13.4361 3.1665C12.7326 3.17693 12.0445 3.36412 11.4411 3.70915C10.8378 4.05418 10.3407 4.82992 10 5.41667C9.65929 4.82992 9.16217 4.05418 8.55885 3.70915C7.95554 3.36412 7.26738 3.17693 6.56389 3.1665C5.44243 3.21295 4.38583 3.68055 3.62494 4.46716C2.86404 5.25378 2.4607 6.29545 2.50302 7.36462C2.50302 11.399 9.34776 16.469 9.6389 16.6667L10 16.9102L10.3611 16.6667C10.6522 16.4702 17.497 11.399 17.497 7.36462C17.5393 6.29545 17.136 5.25378 16.3751 4.46716C15.6142 3.68055 14.5576 3.21295 13.4361 3.1665Z" fill="#FA967C"/>
<path d="M10 16.9104L9.6389 16.6669C9.46858 16.5512 7.05517 14.7679 5.08154 12.5H14.9188C12.9451 14.7683 10.5314 16.5519 10.3611 16.6669L10 16.9104Z" fill="#D63D4A"/>
</svg>
