<svg width="21" height="20" viewBox="0 0 21 20" fill="none" xmlns="http://www.w3.org/2000/svg">
<path d="M14.2605 1.66699C14.6284 1.66717 14.9263 1.96508 14.9265 2.33301V4.16699H16.7605C17.5889 4.167 18.2605 4.83857 18.2605 5.66699V16C18.2605 16.8284 17.5889 17.5 16.7605 17.5H4.76147C3.93305 17.5 3.26147 16.8284 3.26147 16V5.66699C3.26147 4.83856 3.93305 4.16699 4.76147 4.16699H6.59448V2.33301C6.59466 1.96497 6.89339 1.66699 7.26147 1.66699C7.62956 1.66699 7.92829 1.96497 7.92847 2.33301V4.16699H13.5935V2.33301C13.5937 1.96497 13.8924 1.66699 14.2605 1.66699ZM4.59448 16C4.59448 16.092 4.66943 16.167 4.76147 16.167H16.7605C16.8525 16.167 16.9275 16.092 16.9275 16V9H4.59448V16ZM7.09644 11.667C7.55652 11.6672 7.92944 12.0399 7.92944 12.5C7.92944 12.9601 7.55652 13.3328 7.09644 13.333C6.6362 13.333 6.26245 12.9602 6.26245 12.5C6.26245 12.0398 6.6362 11.667 7.09644 11.667ZM10.7615 11.667C11.2217 11.667 11.5945 12.0398 11.5945 12.5C11.5945 12.9602 11.2217 13.333 10.7615 13.333C10.3012 13.333 9.92847 12.9602 9.92847 12.5C9.92847 12.0398 10.3012 11.667 10.7615 11.667ZM14.4304 11.667C14.8905 11.6672 15.2634 12.0399 15.2634 12.5C15.2634 12.9601 14.8905 13.3328 14.4304 13.333C13.9702 13.333 13.5964 12.9602 13.5964 12.5C13.5964 12.0398 13.9702 11.667 14.4304 11.667ZM4.76147 5.5C4.66943 5.5 4.59448 5.57494 4.59448 5.66699V7.66699H16.9275V5.66699C16.9275 5.57494 16.8525 5.5 16.7605 5.5H4.76147Z" fill="#33363D"/>
</svg>
