<svg width="32" height="32" viewBox="0 0 32 32" fill="none" xmlns="http://www.w3.org/2000/svg">
<g clip-path="url(#clip0_9159_190553)">
<path fill-rule="evenodd" clip-rule="evenodd" d="M22.6304 8.23433C22.9428 7.9219 23.4493 7.92189 23.7618 8.2343C24.0742 8.54671 24.0742 9.05324 23.7618 9.36567L17.1294 15.9985L23.7657 22.6352C24.0781 22.9476 24.0781 23.4542 23.7657 23.7666C23.4532 24.079 22.9467 24.079 22.6343 23.7665L15.998 17.1299L9.3618 23.7665C9.04939 24.079 8.54285 24.079 8.23043 23.7666C7.918 23.4542 7.91798 22.9476 8.23039 22.6352L14.8667 15.9985L8.2343 9.36567C7.92189 9.05324 7.9219 8.54671 8.23433 8.2343C8.54676 7.92189 9.05329 7.9219 9.3657 8.23433L15.998 14.8671L22.6304 8.23433Z" fill="#33363D"/>
</g>
<defs>
<clipPath id="clip0_9159_190553">
<rect width="32" height="32" fill="white"/>
</clipPath>
</defs>
</svg>
