<svg width="17" height="16" viewBox="0 0 17 16" fill="none" xmlns="http://www.w3.org/2000/svg">
<path d="M9.5 1.33203C9.64134 1.33203 9.77696 1.3884 9.87695 1.48828L13.6768 5.28906C13.7766 5.38906 13.833 5.52469 13.833 5.66602V13.4658C13.833 14.1286 13.2956 14.666 12.6328 14.666H4.36621C3.70368 14.6658 3.16699 14.1284 3.16699 13.4658V2.53223C3.16706 1.8697 3.70372 1.33228 4.36621 1.33203H9.5ZM4.36621 2.39941C4.29283 2.39966 4.23347 2.4588 4.2334 2.53223V13.4658C4.2334 13.5393 4.29278 13.5994 4.36621 13.5996H12.6328C12.7064 13.5996 12.7666 13.5395 12.7666 13.4658V6.19922H10.167C9.50425 6.19922 8.9668 5.66177 8.9668 4.99902V2.39941H4.36621ZM10.499 10.666C10.7936 10.666 11.0332 10.9047 11.0332 11.1992C11.0331 11.4937 10.7935 11.7324 10.499 11.7324H5.83301C5.53852 11.7324 5.29991 11.4937 5.2998 11.1992C5.2998 10.9047 5.53846 10.666 5.83301 10.666H10.499ZM8.49902 8.39941C8.79358 8.39941 9.0332 8.63807 9.0332 8.93262C9.0331 9.22708 8.79351 9.46582 8.49902 9.46582H5.83301C5.53852 9.46582 5.29991 9.22708 5.2998 8.93262C5.2998 8.63807 5.53846 8.39941 5.83301 8.39941H8.49902ZM10.0332 4.99902C10.0332 5.07266 10.0934 5.13281 10.167 5.13281H12.0117L10.0332 3.15332V4.99902Z" fill="#33363D"/>
</svg>
