<svg width="20" height="20" viewBox="0 0 20 20" fill="none" xmlns="http://www.w3.org/2000/svg">
<path d="M11.2529 1.66797C11.4298 1.66797 11.5996 1.73823 11.7246 1.86328L16.4736 6.61328C16.5986 6.7383 16.6689 6.90819 16.6689 7.08496V16.834C16.6689 17.6624 15.9974 18.334 15.1689 18.334H4.83594C4.00766 18.3338 3.33594 17.6623 3.33594 16.834V3.16797C3.33594 2.33965 4.00766 1.66814 4.83594 1.66797H11.2529ZM4.83594 3.00098C4.74404 3.00115 4.66992 3.07603 4.66992 3.16797V16.834C4.66992 16.9259 4.74404 17.0008 4.83594 17.001H15.1689C15.261 17.001 15.3359 16.926 15.3359 16.834V7.75098H12.0859C11.2577 7.7508 10.5859 7.0793 10.5859 6.25098V3.00098H4.83594ZM12.502 13.334C12.8701 13.334 13.1689 13.6328 13.1689 14.001C13.1689 14.3692 12.8701 14.668 12.502 14.668H6.66895C6.30076 14.668 6.00195 14.3692 6.00195 14.001C6.00195 13.6328 6.30076 13.334 6.66895 13.334H12.502ZM10.002 10.501C10.3701 10.501 10.6689 10.7998 10.6689 11.168C10.6688 11.536 10.3701 11.834 10.002 11.834H6.66895C6.30084 11.834 6.00209 11.536 6.00195 11.168C6.00195 10.7998 6.30076 10.501 6.66895 10.501H10.002ZM11.9199 6.25098C11.9199 6.34292 11.994 6.41779 12.0859 6.41797H14.3926L11.9199 3.94434V6.25098Z" fill="#F8633C"/>
</svg>
