<svg width="24" height="25" viewBox="0 0 24 25" fill="none" xmlns="http://www.w3.org/2000/svg">
<path fill-rule="evenodd" clip-rule="evenodd" d="M19 4C20.6569 4 22 5.42709 22 7.1875V17.8125C22 19.5729 20.6569 21 19 21H5C3.34315 21 2 19.5729 2 17.8125V7.1875C2 5.42709 3.34315 4 5 4H19ZM3.75 10C3.33579 10 3 10.3358 3 10.75C3 11.1642 3.33579 11.5 3.75 11.5H20.25C20.6642 11.5 21 11.1642 21 10.75C21 10.3358 20.6642 10 20.25 10H3.75ZM5 6C4.44772 6 4 6.44772 4 7C4 7.55228 4.44772 8 5 8C5.55228 8 6 7.55228 6 7C6 6.44772 5.55228 6 5 6ZM8 6C7.44772 6 7 6.44772 7 7C7 7.55228 7.44772 8 8 8C8.55228 8 9 7.55228 9 7C9 6.44772 8.55228 6 8 6ZM11 6C10.4477 6 10 6.44772 10 7C10 7.55228 10.4477 8 11 8C11.5523 8 12 7.55228 12 7C12 6.44772 11.5523 6 11 6Z" fill="#6D7882"/>
</svg>
