<svg width="24" height="24" viewBox="0 0 24 24" fill="none" xmlns="http://www.w3.org/2000/svg">
<g clip-path="url(#clip0_97_10039)">
<path d="M8.3843 2.47912C8.9094 2.3208 9.47289 2.34711 9.98095 2.55365C10.489 2.7602 10.911 3.13453 11.1767 3.61432L11.2655 3.79312L12.0599 5.55832C12.3005 6.0942 12.3785 6.68893 12.2842 7.26873C12.19 7.84854 11.9275 8.3879 11.5295 8.81992L11.3699 8.97832L10.1183 10.1459C9.8927 10.3595 10.0619 11.1863 10.8779 12.5999C11.6123 13.8719 12.2099 14.4659 12.5039 14.4983H12.5555L12.6191 14.4863L15.0791 13.7339C15.4097 13.6325 15.7625 13.6285 16.0954 13.7224C16.4282 13.8162 16.727 14.004 16.9559 14.2631L17.0651 14.4011L18.6935 16.6571C19.0126 17.0993 19.1717 17.637 19.1444 18.1817C19.1171 18.7263 18.9052 19.2454 18.5435 19.6535L18.3971 19.8047L17.7467 20.4215C17.1627 20.9746 16.4321 21.3484 15.6418 21.4984C14.8515 21.6483 14.0348 21.5682 13.2887 21.2675C10.9667 20.3315 8.8571 18.1931 6.9407 14.8739C5.0207 11.5463 4.2227 8.64592 4.5791 6.16192C4.68695 5.41104 4.99615 4.70339 5.47387 4.11412C5.95158 3.52485 6.57997 3.07596 7.2923 2.81512L7.5239 2.73832L8.3843 2.47912Z" fill="#33363D"/>
</g>
<defs>
<clipPath id="clip0_97_10039">
<rect width="24" height="24" fill="white"/>
</clipPath>
</defs>
</svg>
