<svg width="24" height="24" viewBox="0 0 24 24" fill="none" xmlns="http://www.w3.org/2000/svg">
<path d="M3.5 10.7722C3.5 11.7272 3.6881 12.6728 4.05356 13.5551C4.41902 14.4374 4.95469 15.2391 5.62997 15.9144C6.30526 16.5897 7.10694 17.1253 7.98924 17.4908C8.87154 17.8563 9.81719 18.0444 10.7722 18.0444C11.7272 18.0444 12.6728 17.8563 13.5551 17.4908C14.4374 17.1253 15.2391 16.5897 15.9144 15.9144C16.5897 15.2391 17.1253 14.4374 17.4908 13.5551C17.8563 12.6728 18.0444 11.7272 18.0444 10.7722C18.0444 9.81719 17.8563 8.87154 17.4908 7.98924C17.1253 7.10694 16.5897 6.30526 15.9144 5.62997C15.2391 4.95469 14.4374 4.41902 13.5551 4.05356C12.6728 3.6881 11.7272 3.5 10.7722 3.5C9.81719 3.5 8.87154 3.6881 7.98924 4.05356C7.10694 4.41902 6.30526 4.95469 5.62997 5.62997C4.95469 6.30526 4.41902 7.10694 4.05356 7.98924C3.6881 8.87154 3.5 9.81719 3.5 10.7722Z" stroke="#4E5C6E" stroke-width="1.6" stroke-linecap="round"/>
<path d="M20.499 20.499L15.9648 15.9648" stroke="#4E5C6E" stroke-width="1.6" stroke-linecap="round"/>
</svg>
