<svg width="24" height="25" viewBox="0 0 24 25" fill="none" xmlns="http://www.w3.org/2000/svg">
<g style="mix-blend-mode:multiply">
<ellipse cx="11.8309" cy="21.1568" rx="11.3778" ry="2.13333" fill="#FDCFC3"/>
<g clip-path="url(#clip0_4345_564847)">
<path d="M10.5821 3.92959C10.1956 3.54615 10 3.07278 10 2.5C10 1.92959 10.1956 1.45148 10.5821 1.07041C10.9662 0.689349 11.4063 0.5 11.9697 0.5C12.5332 0.5 13.0105 0.689349 13.4063 1.07041C13.8021 1.45148 14 1.92722 14 2.5C14 3.07278 13.8021 3.54615 13.4063 3.92959C13.0105 4.31065 12.5122 4.5 11.9697 4.5C11.4272 4.5 10.9662 4.31065 10.5821 3.92959Z" fill="white"/>
<path d="M12 14.5C13.1045 14.5 13.9999 15.3955 14 16.5V18.5H10V16.5C10.0001 15.3955 10.8955 14.5 12 14.5Z" fill="#FA967C"/>
<path d="M14 5.5C16.2091 5.5 17.9999 7.29097 18 9.5V14.5C18 16.3638 16.7252 17.93 15 18.374V16.5C14.9999 14.8433 13.6568 13.5 12 13.5C10.3432 13.5 9.00013 14.8433 9 16.5V18.374C7.2748 17.93 6 16.3638 6 14.5V9.5C6.00013 7.29097 7.79094 5.5 10 5.5H14Z" fill="#FA967C"/>
<path d="M10 16.5C10 15.3954 10.8954 14.5 12 14.5C13.1046 14.5 14 15.3954 14 16.5V19.5C14 20.6046 13.1046 21.5 12 21.5C10.8954 21.5 10 20.6046 10 19.5V16.5Z" fill="#D9D9D9"/>
<path d="M10 16.5C10 15.3954 10.8954 14.5 12 14.5C13.1046 14.5 14 15.3954 14 16.5V19.5C14 20.6046 13.1046 21.5 12 21.5C10.8954 21.5 10 20.6046 10 19.5V16.5Z" fill="#D63D4A"/>
<circle cx="9" cy="9.5" r="1" fill="white"/>
<circle cx="15" cy="9.5" r="1" fill="white"/>
<path d="M13.3984 3.49805C13.3984 3.13293 13.2933 2.84422 13.084 2.60156L12.9883 2.50098C12.7075 2.2307 12.3806 2.09766 11.9678 2.09766C11.5656 2.09766 11.2767 2.22273 11.0029 2.49414L11.001 2.49609C10.7347 2.75881 10.5977 3.0804 10.5977 3.49805C10.5977 3.91676 10.7341 4.23526 11.0029 4.50195L11.1064 4.5957C11.3526 4.80037 11.631 4.89844 11.9678 4.89844C12.3136 4.89844 12.6225 4.79524 12.8809 4.58984L12.9883 4.49512C13.2624 4.22887 13.3984 3.91325 13.3984 3.49805ZM14.5977 3.49805C14.5977 4.22749 14.3385 4.85814 13.8223 5.3584L13.8203 5.36035C13.3072 5.85418 12.6574 6.09766 11.9678 6.09766C11.3553 6.09765 10.8094 5.90559 10.3496 5.52734L10.1572 5.35352C9.65319 4.85337 9.39844 4.2248 9.39844 3.49805C9.39844 2.77579 9.65178 2.14169 10.1572 1.64258L10.3477 1.46973C10.802 1.09251 11.3338 0.898439 11.9678 0.898438C12.6816 0.898438 13.3095 1.1441 13.8203 1.63574L14.0029 1.83008C14.3997 2.29578 14.5977 2.86078 14.5977 3.49805Z" fill="#D63D4A"/>
<path d="M19 2.5L19.1025 2.50488C19.6067 2.55621 20 2.98232 20 3.5C20 4.01768 19.6067 4.44379 19.1025 4.49512L19 4.5H5C4.44772 4.5 4 4.05228 4 3.5C4 2.94772 4.44772 2.5 5 2.5H19Z" fill="#D63D4A"/>
<circle cx="12" cy="3.5" r="1.5" fill="white"/>
</g>
</g>
<defs>
<clipPath id="clip0_4345_564847">
<rect width="16" height="21" fill="white" transform="translate(4 0.5)"/>
</clipPath>
</defs>
</svg>
