<svg width="24" height="25" viewBox="0 0 24 25" fill="none" xmlns="http://www.w3.org/2000/svg">
<ellipse cx="11.828" cy="19.1558" rx="11.3778" ry="2.13333" fill="#FDCFC3"/>
<path d="M19.325 15.223C18.9 17.7635 17.3797 19.5182 11.9401 19.5182C6.50043 19.5182 4.98008 17.7635 4.55515 15.223C4.33998 15.1623 4.13208 15.0678 3.93955 14.9395L3.3583 14.552C3.05972 14.3529 2.88037 14.0178 2.88037 13.659V13.0198C2.88037 9.98755 4.33123 7.1384 6.78348 5.35495C6.94547 5.23713 7.14369 5.17367 7.34399 5.17367C7.63633 5.17367 7.89204 5.29453 8.0743 5.48215C9.20506 4.80678 10.5272 4.4187 11.9401 4.4187C13.3529 4.4187 14.6751 4.80678 15.8058 5.48215C15.9881 5.29453 16.2438 5.17367 16.5361 5.17367C16.7364 5.17367 16.9346 5.23713 17.0966 5.35495C19.5489 7.1384 20.9997 9.98755 20.9997 13.0198V13.659C20.9997 14.0178 20.8204 14.3529 20.5218 14.552L19.9406 14.9395C19.748 15.0678 19.5401 15.1623 19.325 15.223Z" fill="white"/>
<path d="M19.4896 11.9684C19.4896 16.138 19.4896 19.5182 11.9399 19.5182C4.39014 19.5182 4.39014 16.138 4.39014 11.9684C4.39014 7.79883 7.77027 4.4187 11.9399 4.4187C16.1095 4.4187 19.4896 7.79883 19.4896 11.9684Z" fill="#FA967C"/>
<ellipse cx="10.2412" cy="15.3662" rx="1.69869" ry="1.13246" fill="white"/>
<ellipse cx="13.6386" cy="15.3662" rx="1.69869" ry="1.13246" fill="white"/>
<path d="M10.0524 11.9685C10.0524 12.3854 9.71441 12.7234 9.29745 12.7234C8.88049 12.7234 8.54248 12.3854 8.54248 11.9685C8.54248 11.5515 8.88049 11.2135 9.29745 11.2135C9.71441 11.2135 10.0524 11.5515 10.0524 11.9685Z" fill="#D63D4A"/>
<path d="M13.4498 14.0447C13.4498 14.6701 12.7738 15.1771 11.9399 15.1771C11.1059 15.1771 10.4299 14.6701 10.4299 14.0447C10.4299 13.4192 11.1059 12.9122 11.9399 12.9122C12.7738 12.9122 13.4498 13.4192 13.4498 14.0447Z" fill="#D63D4A"/>
<path d="M14.5823 12.7234C14.9992 12.7234 15.3372 12.3854 15.3372 11.9685C15.3372 11.5515 14.9992 11.2135 14.5823 11.2135C14.1653 11.2135 13.8273 11.5515 13.8273 11.9685C13.8273 12.3854 14.1653 12.7234 14.5823 12.7234Z" fill="#D63D4A"/>
<path d="M8.9857 4.52135C9.73002 4.32927 10.2284 5.2688 9.65187 5.7773L9.58359 5.83752C7.79731 7.41311 6.67502 9.60751 6.44311 11.9781L6.34377 12.9935C6.30095 13.4312 6.11709 13.8432 5.81988 14.1675C4.70597 15.3827 2.68468 14.8335 2.33881 13.2217L2.24072 12.7646C2.19292 12.5418 2.18635 12.3121 2.22134 12.087L2.24024 11.9654C2.80057 8.35968 5.4525 5.43313 8.9857 4.52135Z" fill="#D63D4A"/>
<path d="M14.8945 4.52135C14.1502 4.32927 13.6518 5.2688 14.2283 5.7773L14.2966 5.83752C16.0829 7.41311 17.2052 9.60751 17.4371 11.9781L17.5364 12.9935C17.5793 13.4312 17.7631 13.8432 18.0603 14.1675C19.1742 15.3827 21.1955 14.8335 21.5414 13.2217L21.6395 12.7646C21.6873 12.5418 21.6939 12.3121 21.6589 12.087L21.64 11.9654C21.0796 8.35968 18.4277 5.43313 14.8945 4.52135Z" fill="#D63D4A"/>
</svg>
