<svg width="21" height="20" viewBox="0 0 21 20" fill="none" xmlns="http://www.w3.org/2000/svg">
<path d="M11.7505 1.66699C11.9271 1.66712 12.0963 1.73737 12.2212 1.8623L16.9712 6.6123C17.0959 6.73718 17.1664 6.90653 17.1665 7.08301V9.16699L17.2515 9.1709C17.6719 9.21339 17.9995 9.56839 17.9995 10V15C17.9995 15.4316 17.6719 15.7866 17.2515 15.8291L17.1665 15.833V16.833C17.1665 17.6613 16.4947 18.3327 15.6665 18.333H5.3335C4.50507 18.333 3.8335 17.6614 3.8335 16.833V3.16699C3.8335 2.33857 4.50507 1.66699 5.3335 1.66699H11.7505ZM5.3335 3C5.24145 3 5.1665 3.07494 5.1665 3.16699V16.833C5.1665 16.9251 5.24145 17 5.3335 17H15.6665C15.7583 16.9997 15.8325 16.9249 15.8325 16.833V15.833H7.1665C6.70634 15.8329 6.3335 15.4602 6.3335 15V10C6.3335 9.53982 6.70634 9.16708 7.1665 9.16699H15.8325V7.75H12.5835C11.7551 7.75 11.0835 7.07843 11.0835 6.25V3H5.3335ZM12.4165 6.25C12.4165 6.34205 12.4914 6.41699 12.5835 6.41699H14.8901L12.4165 3.94336V6.25Z" fill="#33363D"/>
<path d="M9.90918 13.1748C9.90918 13.8177 9.4772 14.208 8.83887 14.208C8.25574 14.2079 7.81055 13.891 7.81055 13.2803H8.40723C8.40723 13.5512 8.59136 13.7168 8.8623 13.7168C9.15144 13.7167 9.31182 13.5283 9.31641 13.1748V10.8369H9.90918V13.1748ZM15.0869 10.792C15.8217 10.792 16.3872 11.2464 16.4883 11.8984H15.877C15.7713 11.5449 15.4959 11.3291 15.0918 11.3291C14.5546 11.3291 14.1691 11.7469 14.1689 12.4951C14.1689 13.2528 14.5499 13.6708 15.1055 13.6709C15.6059 13.6709 15.9272 13.3683 15.9365 12.8955H15.165V12.4219H16.5156V12.8213C16.5156 13.6755 15.9275 14.208 15.1055 14.208C14.1871 14.2079 13.5674 13.5562 13.5674 12.5C13.5674 11.4348 14.2146 10.7922 15.0869 10.792ZM11.9971 10.8369C12.7592 10.837 13.1679 11.3012 13.168 11.9395C13.168 12.5778 12.7542 13.0371 11.9873 13.0371H11.3447V14.1621H10.748V10.8369H11.9971ZM11.3447 12.5459H11.9053C12.3552 12.5458 12.5576 12.293 12.5576 11.9395C12.5576 11.5814 12.3551 11.338 11.9053 11.3379H11.3447V12.5459Z" fill="white"/>
</svg>
