<svg width="24" height="24" viewBox="0 0 24 24" fill="none" xmlns="http://www.w3.org/2000/svg">
<ellipse cx="11.8309" cy="18.6568" rx="11.3778" ry="2.13333" fill="#FDCFC3"/>
<path d="M15.8943 3.25781C15.097 3.26963 14.3171 3.48177 13.6333 3.87281C12.9495 4.26384 12.3861 5.14302 12 5.808C11.6139 5.14302 11.0505 4.26384 10.3667 3.87281C9.68294 3.48177 8.90303 3.26963 8.10574 3.25781C6.83475 3.31045 5.63728 3.8404 4.77493 4.73189C3.91258 5.62339 3.45546 6.80396 3.50343 8.01568C3.50343 12.588 11.2608 18.3339 11.5907 18.558L12 18.834L12.4093 18.558C12.7392 18.3353 20.4966 12.588 20.4966 8.01568C20.5445 6.80396 20.0874 5.62339 19.2251 4.73189C18.3627 3.8404 17.1652 3.31045 15.8943 3.25781Z" fill="#FA967C"/>
<path d="M11.9998 18.8344L11.5905 18.5584C11.2975 18.3594 5.14658 13.8053 3.77344 9.58594H20.2262C18.8531 13.8056 12.7021 18.3606 12.409 18.5584L11.9998 18.8344Z" fill="#D63D4A"/>
</svg>
