<svg width="20" height="21" viewBox="0 0 20 21" fill="none" xmlns="http://www.w3.org/2000/svg">
<g id="icon/line/btn-shortcut-back">
<path id="Vector" fill-rule="evenodd" clip-rule="evenodd" d="M3 10.5001C3 10.6814 3.08865 10.8549 3.24551 10.9806L8.44551 15.1473C8.764 15.4025 9.27043 15.3942 9.57667 15.1288C9.8829 14.8634 9.87297 14.4414 9.55449 14.1862L5.78622 11.1667L16.1992 11.1667C16.641 11.1667 16.9992 10.8683 16.9992 10.5001C16.9992 10.1319 16.641 9.83342 16.1992 9.83342L5.78622 9.83341L9.55449 6.81397C9.87297 6.55877 9.8829 6.13675 9.57667 5.87134C9.27043 5.60594 8.764 5.59766 8.44551 5.85286L3.24551 10.0195C3.08865 10.1452 3 10.3187 3 10.5001Z" fill="#33363D"/>
</g>
</svg>
