<svg width="24" height="25" viewBox="0 0 24 25" fill="none" xmlns="http://www.w3.org/2000/svg">
<ellipse cx="11.828" cy="19.1558" rx="11.3778" ry="2.13333" fill="#FDCFC3"/>
<path fill-rule="evenodd" clip-rule="evenodd" d="M9.44999 6.36512C8.96973 5.48349 6.48706 4.19678 5.53385 4.56427C4.99689 4.77129 5.02602 5.51364 5.06541 6.51792C5.09595 7.29645 5.13266 8.23237 4.91663 9.19833C4.54482 10.8608 7.3698 8.27144 9.12499 6.66266C9.23815 6.55893 9.34687 6.45929 9.44999 6.36512ZM14.5082 6.36512C14.9885 5.48349 17.4711 4.19678 18.4244 4.56427C18.9613 4.77129 18.9322 5.51364 18.8928 6.51792C18.8623 7.29645 18.8255 8.23237 19.0416 9.19833C19.4134 10.8608 16.5884 8.27144 14.8332 6.66266C14.7201 6.55893 14.6113 6.45929 14.5082 6.36512Z" fill="#D63D4A"/>
<path fill-rule="evenodd" clip-rule="evenodd" d="M13.5586 19.1919C15.188 19.3551 16.9468 19.533 18.2722 18.5713C19.6319 17.5846 20.5 16.1276 20.5 14.1095C20.5 9.70192 17.7679 5.51501 12 5.51501C6.23214 5.51501 3.5 9.70192 3.5 14.1095C3.5 16.1276 4.36815 17.5846 5.72788 18.5713C7.05321 19.533 8.81208 19.3552 10.4414 19.1919C10.9428 19.1416 11.4644 19.1151 12.0001 19.1151C12.5357 19.1151 13.0573 19.1416 13.5586 19.1919Z" fill="#FA967C"/>
<path d="M10.0197 12.2071C10.0197 12.6393 9.66931 12.9896 9.23713 12.9896C8.80494 12.9896 8.45459 12.6393 8.45459 12.2071C8.45459 11.7749 8.80494 11.4246 9.23713 11.4246C9.66931 11.4246 10.0197 11.7749 10.0197 12.2071Z" fill="#D63D4A"/>
<path d="M14.7149 12.9896C15.1471 12.9896 15.4974 12.6393 15.4974 12.2071C15.4974 11.7749 15.1471 11.4246 14.7149 11.4246C14.2827 11.4246 13.9324 11.7749 13.9324 12.2071C13.9324 12.6393 14.2827 12.9896 14.7149 12.9896Z" fill="#D63D4A"/>
<path d="M13.1331 14.1568C13.1331 14.548 12.6257 14.8651 11.9998 14.8651C11.3738 14.8651 10.8664 14.548 10.8664 14.1568C10.8664 13.7656 11.3738 13.4484 11.9998 13.4484C12.6257 13.4484 13.1331 13.7656 13.1331 14.1568Z" fill="#D63D4A"/>
<ellipse cx="17.3835" cy="14.4399" rx="1.41667" ry="0.991667" fill="white"/>
<ellipse cx="6.61686" cy="14.4399" rx="1.41667" ry="0.991667" fill="white"/>
<path fill-rule="evenodd" clip-rule="evenodd" d="M12.0002 14.2985C12.1567 14.2985 12.2835 14.4253 12.2835 14.5818C12.2835 15.2949 11.7935 15.7585 11.2306 15.9251C10.6755 16.0894 9.99697 15.9852 9.53453 15.529C9.42314 15.4191 9.42194 15.2397 9.53184 15.1283C9.64175 15.0169 9.82114 15.0157 9.93253 15.1256C10.2256 15.4148 10.6804 15.497 11.0698 15.3818C11.4513 15.2688 11.7169 14.987 11.7169 14.5818C11.7169 14.4253 11.8437 14.2985 12.0002 14.2985Z" fill="#D63D4A"/>
<path fill-rule="evenodd" clip-rule="evenodd" d="M12.0002 14.2985C11.8437 14.2985 11.7169 14.4253 11.7169 14.5818C11.7169 15.2949 12.2069 15.7585 12.7698 15.9251C13.3248 16.0894 14.0034 15.9852 14.4659 15.529C14.5772 15.4191 14.5785 15.2397 14.4685 15.1283C14.3586 15.0169 14.1793 15.0157 14.0679 15.1256C13.7747 15.4148 13.32 15.497 12.9306 15.3818C12.5491 15.2688 12.2835 14.987 12.2835 14.5818C12.2835 14.4253 12.1567 14.2985 12.0002 14.2985Z" fill="#D63D4A"/>
</svg>
