<svg width="16" height="16" viewBox="0 0 16 16" fill="none" xmlns="http://www.w3.org/2000/svg">
<path d="M5.81596 4.7871L4.50725 8.45149H3.66667C2.19391 8.45149 1 9.6454 1 11.1182V12.1906C1 13.2952 1.89543 14.1906 3 14.1906H5.95593C6.46726 14.1906 6.96782 14.0436 7.39795 13.7671L13.9218 9.57318C14.875 8.96042 15.1292 7.67891 14.4821 6.7487L11.3802 2.28966C11.057 1.82515 10.3231 1.94906 10.0594 2.44971C9.77005 2.99907 9.41064 3.41492 8.97101 3.66889C8.33499 4.03631 7.57622 4.10988 6.94417 4.08299C6.45503 4.06218 5.98062 4.32604 5.81596 4.7871Z" fill="#FA967C"/>
<mask id="mask0_9412_67664" style="mask-type:alpha" maskUnits="userSpaceOnUse" x="1" y="2" width="14" height="13">
<path d="M5.81596 4.7871L4.50725 8.45149H3.66667C2.19391 8.45149 1 9.6454 1 11.1182V12.1906C1 13.2952 1.89543 14.1906 3 14.1906H5.95593C6.46726 14.1906 6.96782 14.0436 7.39795 13.7671L13.9218 9.57318C14.875 8.96042 15.1292 7.67891 14.4821 6.7487L11.3802 2.28966C11.057 1.82515 10.3231 1.94906 10.0594 2.44971C9.77005 2.99907 9.41064 3.41492 8.97101 3.66889C8.33499 4.03631 7.57622 4.10988 6.94417 4.08299C6.45503 4.06218 5.98062 4.32604 5.81596 4.7871Z" fill="#FA967C"/>
</mask>
<g mask="url(#mask0_9412_67664)">
<path d="M5.91111 4.52064L4.50723 8.45149H0.999986V12.1906C0.999986 13.2952 1.89542 14.1906 2.99999 14.1906H5.95591C6.46725 14.1906 6.96781 14.0436 7.39793 13.7671L13.9218 9.57318C14.875 8.96042 15.1292 7.67891 14.4821 6.7487L11.3802 2.28966C11.057 1.82515 10.3231 1.94906 10.0594 2.44971C9.77004 2.99907 9.41063 3.41492 8.971 3.66888C8.23689 4.09297 7.33926 4.12558 6.66171 4.06409C6.33665 4.03459 6.02088 4.21327 5.91111 4.52064Z" fill="#FA967C"/>
<path d="M6.00377 12.2776H0.999986L0.362305 14.8283L7.69564 14.5095L15.6667 9.08917L14.7101 6.53845L6.76272 12.0405C6.53974 12.1949 6.27498 12.2776 6.00377 12.2776Z" fill="#D63D4A"/>
<path fill-rule="evenodd" clip-rule="evenodd" d="M2.76577 6.0284C2.76577 5.74665 2.99417 5.51825 3.27591 5.51825H6.46432C6.74606 5.51825 6.97446 5.74665 6.97446 6.0284C6.97446 6.31014 6.74606 6.53854 6.46432 6.53854H3.27591C2.99417 6.53854 2.76577 6.31014 2.76577 6.0284ZM1.89274 7.94122C1.89274 7.65947 2.12114 7.43107 2.40288 7.43107H6.86665C7.1484 7.43107 7.3768 7.65947 7.3768 7.94122C7.3768 8.22296 7.1484 8.45136 6.86665 8.45136H2.40288C2.12114 8.45136 1.89274 8.22296 1.89274 7.94122Z" fill="#D63D4A"/>
</g>
</svg>
