<svg width="20" height="20" viewBox="0 0 20 20" fill="none" xmlns="http://www.w3.org/2000/svg">
<g clip-path="url(#clip0_97_10052)">
<path d="M17.9167 9.01769V15.7406C17.9167 16.2072 17.7314 16.6546 17.4014 16.9846C17.0715 17.3145 16.624 17.4998 16.1574 17.4998H3.84263C3.37605 17.4998 2.92857 17.3145 2.59865 16.9846C2.26872 16.6546 2.08337 16.2072 2.08337 15.7406V9.01769H17.9167ZM13.5186 1.6665C13.7519 1.6665 13.9756 1.75918 14.1406 1.92414C14.3055 2.0891 14.3982 2.31284 14.3982 2.54613V3.42576H16.1574C16.624 3.42576 17.0715 3.61111 17.4014 3.94104C17.7314 4.27096 17.9167 4.71844 17.9167 5.18502V7.32127H2.08337V5.18502C2.08337 4.71844 2.26872 4.27096 2.59865 3.94104C2.92857 3.61111 3.37605 3.42576 3.84263 3.42576H5.60189V2.54613C5.60189 2.31284 5.69457 2.0891 5.85953 1.92414C6.02449 1.75918 6.24823 1.6665 6.48152 1.6665C6.71481 1.6665 6.93855 1.75918 7.10351 1.92414C7.26848 2.0891 7.36115 2.31284 7.36115 2.54613V3.42576H12.6389V2.54613C12.6389 2.31284 12.7316 2.0891 12.8966 1.92414C13.0615 1.75918 13.2853 1.6665 13.5186 1.6665Z" fill="#6D7882"/>
</g>
<defs>
<clipPath id="clip0_97_10052">
<rect width="20" height="20" fill="white"/>
</clipPath>
</defs>
</svg>
