<svg width="16" height="16" viewBox="0 0 16 16" fill="none" xmlns="http://www.w3.org/2000/svg">
<g clip-path="url(#clip0_12640_222021)">
<path d="M1.33203 8.0013C1.33203 11.6832 4.3168 14.668 7.9987 14.668C11.6806 14.668 14.6654 11.6832 14.6654 8.0013C14.6654 4.3194 11.6806 1.33463 7.9987 1.33463C4.3168 1.33463 1.33203 4.3194 1.33203 8.0013Z" fill="#F8633C"/>
<path d="M4.46875 7C4.98406 7.00018 5.40137 7.41824 5.40137 7.93359C5.40123 8.44883 4.98397 8.86603 4.46875 8.86621C3.95337 8.86621 3.5353 8.44894 3.53516 7.93359C3.53516 7.41813 3.95328 7 4.46875 7ZM8.00195 7C8.51734 7.0001 8.93555 7.41819 8.93555 7.93359C8.93541 8.44888 8.51725 8.86611 8.00195 8.86621C7.48657 8.86621 7.0685 8.44894 7.06836 7.93359C7.06836 7.41813 7.48649 7 8.00195 7ZM11.5352 7C12.0506 7.00001 12.4688 7.41813 12.4688 7.93359C12.4686 8.44893 12.0505 8.8662 11.5352 8.86621C11.0198 8.86621 10.6017 8.44894 10.6016 7.93359C10.6016 7.41813 11.0197 7 11.5352 7Z" fill="white"/>
</g>
<defs>
<clipPath id="clip0_12640_222021">
<rect width="16" height="16" fill="white"/>
</clipPath>
</defs>
</svg>
