<svg width="24" height="24" viewBox="0 0 24 24" fill="none" xmlns="http://www.w3.org/2000/svg">
<g style="mix-blend-mode:multiply">
<path fill-rule="evenodd" clip-rule="evenodd" d="M12.001 2.50293C17.2472 2.50293 21.5008 6.75576 21.501 12.002C21.501 12.8584 21.387 13.6883 21.1738 14.4775C21.1529 14.5549 21.1248 14.6285 21.0928 14.6992C21.0826 14.7489 21.0724 14.7994 21.0566 14.8496C20.4073 16.9184 19.0698 18.6828 17.3115 19.873C17.0392 20.0574 16.7136 20.1435 16.3848 20.1436H7.60352C7.27469 20.1436 6.94913 20.0573 6.67676 19.873C4.91795 18.6828 3.5802 16.9187 2.93066 14.8496C2.9077 14.7765 2.89112 14.7038 2.87988 14.6318C2.86033 14.582 2.84339 14.5305 2.8291 14.4775C2.61627 13.6883 2.50195 12.8583 2.50195 12.002C2.50214 6.75587 6.7549 2.50312 12.001 2.50293ZM17.8818 12.002C17.8818 11.8169 17.6803 11.708 17.5186 11.7979L15.6689 12.8252C15.5611 12.8851 15.484 12.987 15.4463 13.1045C14.9789 14.562 13.6127 15.6172 12 15.6172C10.3876 15.6171 9.0214 14.5625 8.55371 13.1055C8.51599 12.988 8.43892 12.8861 8.33105 12.8262L6.48145 11.7988C6.32091 11.7097 6.12109 11.8183 6.12109 12.002C6.12114 12.3275 6.14817 12.6469 6.19922 12.958C6.22207 13.0973 6.22971 13.2408 6.22656 13.3857C6.27939 13.4708 6.32363 13.5628 6.35254 13.6611C7.0694 16.0996 9.32362 17.8797 11.9941 17.8799C14.6647 17.8796 16.9198 16.0997 17.6367 13.6611C17.6685 13.5531 17.7151 13.451 17.7754 13.3594C17.774 13.2241 17.7824 13.0902 17.8037 12.96C17.8549 12.6484 17.8818 12.3281 17.8818 12.002ZM12.002 6.12109C9.68893 6.12109 7.68699 7.45648 6.72656 9.39844C6.58876 9.67721 6.80135 9.98792 7.1123 9.99316L8.7168 10.0205C8.87221 10.0231 9.01659 9.94427 9.11035 9.82031C9.77085 8.94557 10.8194 8.37994 12 8.37988C13.1804 8.37988 14.2282 8.94575 14.8887 9.82031C14.9824 9.94427 15.1268 10.0231 15.2822 10.0205L16.8896 9.99316C17.2006 9.98793 17.4132 9.67722 17.2754 9.39844C16.3152 7.45678 14.3146 6.12131 12.002 6.12109Z" fill="white"/>
<path d="M5.412 12.9043C5.85833 12.9043 6.23062 13.2327 6.3565 13.6609C7.07335 16.0995 9.32757 17.8798 11.9982 17.8799C14.6687 17.8795 16.9232 16.0994 17.64 13.661C17.7659 13.2327 18.1382 12.9043 18.5845 12.9043H20.4573C20.9905 12.9043 21.4117 13.3649 21.3064 13.8876C20.4315 18.2299 16.5964 21.4998 11.9963 21.5C7.39607 21.4999 3.56106 18.23 2.68616 13.8876C2.58085 13.3649 3.00206 12.9043 3.53528 12.9043H5.412Z" fill="#D63D4A"/>
<g style="mix-blend-mode:multiply">
<path fill-rule="evenodd" clip-rule="evenodd" d="M12.0005 2.5C17.2471 2.50022 21.5 6.7539 21.5 12.0005C21.5 12.8567 21.3859 13.6861 21.1732 14.475C20.9824 15.1824 20.3063 15.6209 19.5737 15.6211C18.3793 15.6211 17.6099 14.1344 17.8035 12.9557C17.8548 12.6439 17.8816 12.3237 17.8816 11.9974C17.8815 11.8139 17.6825 11.706 17.522 11.7949L15.6675 12.8229C15.5597 12.8828 15.4827 12.9849 15.445 13.1023C15.164 13.9795 14.5566 14.7088 13.7665 15.1519C13.5122 15.2945 13.369 15.5935 13.465 15.8688L13.8582 16.9959C13.9577 17.2812 14.2733 17.4312 14.5457 17.3006C14.6451 17.2529 14.7425 17.2008 14.8388 17.1477C13.9964 17.6141 13.0285 17.8815 11.9974 17.8816C11.0525 17.8815 10.1608 17.6567 9.36999 17.2606C9.63954 17.3846 9.95019 17.2369 10.049 16.9537L10.4443 15.8203C10.5385 15.5504 10.4025 15.2575 10.1565 15.1118C9.40223 14.665 8.82407 13.9523 8.55183 13.1023C8.51416 12.9849 8.43713 12.8828 8.32937 12.8229L6.47692 11.7949C6.31698 11.7065 6.11951 11.8145 6.1195 11.9974C6.1195 12.3234 6.14642 12.6432 6.19752 12.9547C6.39091 14.1337 5.62102 15.6211 4.42625 15.6211C3.69367 15.6209 3.01761 15.1824 2.82684 14.475C2.61409 13.6861 2.50004 12.8567 2.5 12.0005C2.5 6.75376 6.75376 2.5 12.0005 2.5ZM12.0005 6.11634C9.68679 6.11634 7.68479 7.45245 6.72468 9.39529C6.58691 9.67409 6.79962 9.98466 7.11057 9.98993L8.7163 10.0173C8.87177 10.02 9.01579 9.94104 9.10957 9.81702C9.77021 8.94317 10.8185 8.37894 11.9984 8.37892C13.1782 8.37892 14.2256 8.94336 14.8862 9.81702C14.98 9.94103 15.124 10.02 15.2795 10.0173L16.8894 9.98993C17.2004 9.98467 17.4131 9.67411 17.2753 9.39529C16.3152 7.45266 14.314 6.11647 12.0005 6.11634Z" fill="#FA967C"/>
<path d="M4.38092 17.6791C4.37344 17.6691 4.36516 17.6596 4.35772 17.6496C4.35516 17.6461 4.3528 17.6425 4.35034 17.6391C4.36032 17.6526 4.37087 17.6657 4.38092 17.6791Z" fill="#FA967C"/>
<path d="M19.6328 17.6496C19.6252 17.6598 19.6161 17.6689 19.6085 17.6791C19.6186 17.6657 19.6291 17.6526 19.6391 17.6391C19.6368 17.6424 19.6352 17.6463 19.6328 17.6496Z" fill="#FA967C"/>
</g>
<path d="M10.1992 12.0096C10.1992 11.0103 11.0093 10.2002 12.0086 10.2002C13.0079 10.2002 13.818 11.0103 13.818 12.0096C13.818 13.0089 13.0079 13.819 12.0086 13.819C11.0093 13.819 10.1992 13.0089 10.1992 12.0096Z" fill="white"/>
</g>
</svg>
