<svg width="121" height="120" viewBox="0 0 121 120" fill="none" xmlns="http://www.w3.org/2000/svg">
<rect width="120" height="120" transform="translate(0.5)" fill="white"/>
<rect width="53.3333" height="53.3333" rx="26.6667" transform="matrix(1 0 0 -1 33.8335 86.6665)" fill="#CDD1D5"/>
<path d="M60.2313 53.1759C61.9986 53.1759 63.4313 51.7432 63.4313 49.9759C63.4313 48.2086 61.9986 46.7759 60.2313 46.7759C58.4639 46.7759 57.0312 48.2086 57.0312 49.9759C57.0312 51.7432 58.4639 53.1759 60.2313 53.1759Z" fill="white"/>
<path d="M58.1533 55.8162C57.9766 55.8162 57.8333 55.9595 57.8333 56.1362V59.0162V69.5832V72.4632C57.8333 72.6399 57.9766 72.7832 58.1533 72.7832H62.3133C62.4901 72.7832 62.6333 72.6399 62.6333 72.4632V69.5832V56.1362C62.6333 55.9595 62.4901 55.8162 62.3133 55.8162H58.1533Z" fill="white"/>
</svg>
