<svg width="24" height="24" viewBox="0 0 24 24" fill="none" xmlns="http://www.w3.org/2000/svg">
<g style="mix-blend-mode:multiply">
<path fill-rule="evenodd" clip-rule="evenodd" d="M7.90879 3.5C7.58251 3.50011 7.26204 3.59339 6.97987 3.77039C6.6977 3.94739 6.46385 4.20182 6.30201 4.50789L2.98849 10.7722C2.82839 11.0745 2.74416 11.4168 2.74414 11.7651V16.2626C2.74416 16.5729 2.81102 16.8789 2.93943 17.1565L3.97422 19.3923C4.12791 19.7245 4.36424 20.004 4.6567 20.1993C4.94917 20.3947 5.28621 20.4981 5.63005 20.4981H6.4464C6.93735 20.4981 7.40819 20.2875 7.75535 19.9124C8.1025 19.5374 8.29753 19.0287 8.29753 18.4984H15.7021C15.7021 19.0287 15.8971 19.5374 16.2442 19.9124C16.5914 20.2875 17.0622 20.4981 17.5532 20.4981H18.3695C18.7134 20.4981 19.0504 20.3947 19.3429 20.1993C19.6353 20.004 19.8717 19.7245 20.0254 19.3923L21.0602 17.1565C21.1888 16.8795 21.2554 16.5726 21.2554 16.2626V11.7651C21.2554 11.4168 21.1712 11.0745 21.0111 10.7722L17.6976 4.50789C17.5357 4.20182 17.3019 3.94739 17.0197 3.77039C16.7375 3.59339 16.4171 3.50011 16.0908 3.5H7.90879Z" fill="#FA967C"/>
<g style="mix-blend-mode:multiply">
<path d="M4.65178 20.2013C4.35932 20.006 4.12299 19.7265 3.9693 19.3942L3.4519 18.2764H20.5378L20.0204 19.3942C19.8667 19.7265 19.6304 20.006 19.338 20.2013C19.0455 20.3966 18.7085 20.5001 18.3646 20.5001H17.5483C17.0573 20.5001 16.5865 20.2894 16.2393 19.9144C15.8922 19.5394 15.6971 19.0307 15.6971 18.5003H8.29261C8.29261 19.0307 8.09758 19.5394 7.75043 19.9144C7.40327 20.2894 6.93243 20.5001 6.44148 20.5001H5.62513C5.28129 20.5001 4.94425 20.3966 4.65178 20.2013Z" fill="#D63D4A"/>
</g>
<g style="mix-blend-mode:multiply">
<path d="M5.82525 9.45576L7.33662 6.05516C7.47307 5.74815 7.77753 5.55029 8.1135 5.55029H16.0768C16.4127 5.55029 16.7172 5.74815 16.8537 6.05516L18.365 9.45576C18.6149 10.018 18.2034 10.6512 17.5882 10.6512H6.60212C5.9869 10.6512 5.57538 10.018 5.82525 9.45576Z" fill="#D63D4A"/>
</g>
<circle cx="7.41975" cy="14.5511" r="1.27522" fill="white"/>
<circle cx="16.7714" cy="14.5511" r="1.27522" fill="white"/>
<path fill-rule="evenodd" clip-rule="evenodd" d="M9.13275 5.80003C9.86494 5.0888 10.8761 4.64648 11.99 4.64648C13.1039 4.64648 14.115 5.0888 14.8472 5.80003C15.037 5.98433 15.0377 6.28383 14.8488 6.46897C14.6599 6.65411 14.353 6.65479 14.1632 6.47048C13.6044 5.92761 12.8359 5.59251 11.99 5.59251C11.144 5.59251 10.3756 5.92761 9.81676 6.47048C9.62702 6.65479 9.32009 6.65411 9.1312 6.46897C8.94232 6.28383 8.94301 5.98433 9.13275 5.80003Z" fill="white"/>
<path fill-rule="evenodd" clip-rule="evenodd" d="M11.9887 7.55443C11.5242 7.55443 11.1014 7.7388 10.792 8.03849C10.602 8.22253 10.295 8.22142 10.1064 8.03602C9.91781 7.85061 9.91894 7.55112 10.1089 7.36708C10.5905 6.9007 11.2552 6.6084 11.9887 6.6084C12.7212 6.6084 13.3898 6.90004 13.8697 7.36831C14.059 7.55303 14.059 7.85253 13.8697 8.03725C13.6804 8.22198 13.3734 8.22198 13.1841 8.03725C12.8789 7.73945 12.4542 7.55443 11.9887 7.55443Z" fill="white"/>
<path d="M11.9909 9.78952C12.3137 9.78952 12.5754 9.53419 12.5754 9.21922C12.5754 8.90426 12.3137 8.64893 11.9909 8.64893C11.6681 8.64893 11.4064 8.90426 11.4064 9.21922C11.4064 9.53419 11.6681 9.78952 11.9909 9.78952Z" fill="white"/>
</g>
</svg>
