<svg width="16" height="16" viewBox="0 0 16 16" fill="none" xmlns="http://www.w3.org/2000/svg">
<path fill-rule="evenodd" clip-rule="evenodd" d="M5.27257 2.33203C5.05504 2.33211 4.8414 2.39429 4.65329 2.51229C4.46518 2.63029 4.30928 2.79991 4.20138 3.00396L1.99237 7.18017C1.88563 7.38172 1.82948 7.60989 1.82947 7.8421V10.8404C1.82948 11.0473 1.87406 11.2513 1.95966 11.4364L2.64952 12.9269C2.75198 13.1484 2.90953 13.3347 3.10451 13.4649C3.29949 13.5951 3.52418 13.6641 3.75341 13.6641H4.29764C4.62494 13.6641 4.93884 13.5237 5.17027 13.2736C5.40171 13.0236 5.53173 12.6845 5.53173 12.3309H10.4681C10.4681 12.6845 10.5981 13.0236 10.8295 13.2736C11.061 13.5237 11.3749 13.6641 11.7022 13.6641H12.2464C12.4756 13.6641 12.7003 13.5951 12.8953 13.4649C13.0903 13.3347 13.2478 13.1484 13.3503 12.9269L14.0401 11.4364C14.1259 11.2517 14.1703 11.0471 14.1703 10.8404V7.8421C14.1703 7.60989 14.1142 7.38172 14.0074 7.18017L11.7984 3.00396C11.6905 2.79991 11.5346 2.63029 11.3465 2.51229C11.1584 2.39429 10.9448 2.33211 10.7272 2.33203H5.27257Z" fill="#FEEFEC"/>
<g style="mix-blend-mode:multiply">
<path d="M3.10119 13.4669C2.90621 13.3367 2.74866 13.1504 2.6462 12.9288L2.30127 12.1836H13.6919L13.347 12.9288C13.2445 13.1504 13.0869 13.3367 12.892 13.4669C12.697 13.5971 12.4723 13.6661 12.2431 13.6661H11.6988C11.3715 13.6661 11.0576 13.5256 10.8262 13.2756C10.5948 13.0256 10.4648 12.6865 10.4648 12.3329H5.52841C5.52841 12.6865 5.39839 13.0256 5.16695 13.2756C4.93551 13.5256 4.62162 13.6661 4.29432 13.6661H3.75009C3.52086 13.6661 3.29616 13.5971 3.10119 13.4669Z" fill="#FDCFC3"/>
</g>
<g style="mix-blend-mode:multiply">
<path d="M4.0606 5.90439L4.81629 4.20409C4.95274 3.89708 5.25719 3.69922 5.59316 3.69922H10.5337C10.8697 3.69922 11.1741 3.89708 11.3106 4.20409L12.0663 5.90439C12.3161 6.46658 11.9046 7.09982 11.2894 7.09982H4.83747C4.22226 7.09982 3.81073 6.46658 4.0606 5.90439Z" fill="#D63D4A"/>
</g>
<ellipse cx="4.94658" cy="9.69781" rx="0.850149" ry="0.850149" fill="#D63D4A"/>
<ellipse cx="11.181" cy="9.69781" rx="0.850149" ry="0.850149" fill="#D63D4A"/>
</svg>
