<svg width="32" height="32" viewBox="0 0 32 32" fill="none" xmlns="http://www.w3.org/2000/svg">
<g clip-path="url(#clip0_3522_185511)">
<path d="M16.8955 5.60156C17.259 5.60156 17.5765 5.8467 17.6689 6.19824L18.166 8.08789L19.9434 8.81934L21.2383 7.71387C21.5557 7.4426 22.028 7.46065 22.3232 7.75586L24.2432 9.67578C24.5373 9.96991 24.5567 10.4402 24.2881 10.7578L23.1875 12.0605L23.9014 13.7842L25.7949 14.2666C26.1494 14.3568 26.3975 14.6762 26.3975 15.042V16.9395C26.3974 17.3037 26.1513 17.6222 25.7988 17.7139L23.8936 18.21L23.1787 19.9365L24.2881 21.2441C24.5573 21.5617 24.5376 22.0328 24.2432 22.3271L22.3232 24.2471C22.0228 24.5475 21.54 24.5609 21.2236 24.2773L21.1699 24.2295C21.1354 24.1987 21.0855 24.1538 21.0244 24.0996C20.9018 23.9908 20.734 23.8434 20.5537 23.6865C20.345 23.5048 20.1325 23.322 19.9551 23.1748L18.2148 23.8955L17.7334 25.7979C17.6435 26.1527 17.324 26.4012 16.958 26.4014H15.0381C14.6718 26.4014 14.3515 26.1529 14.2617 25.7979L13.7822 23.8955L12.0938 23.2012L10.7432 24.3018C10.425 24.561 9.96208 24.5373 9.67188 24.2471L7.75195 22.3271C7.4522 22.0273 7.43861 21.546 7.7207 21.2295L8.83887 19.9746L8.11621 18.2598L6.18652 17.7334C5.8389 17.6383 5.59781 17.3223 5.59766 16.9619V15.042C5.59766 14.6702 5.8538 14.3472 6.21582 14.2627L8.08984 13.8252L8.79395 12.0957L7.69629 10.7461C7.43794 10.4279 7.46213 9.9656 7.75195 9.67578L9.67188 7.75586C9.97146 7.45628 10.453 7.44206 10.7695 7.72363L12.0283 8.84375L13.7393 8.12207L14.2461 6.19824C14.3386 5.8468 14.6561 5.60156 15.0195 5.60156H16.8955ZM15.1865 8.91016C15.1234 9.15011 14.9522 9.34691 14.7236 9.44336L12.1846 10.5137C11.9004 10.6335 11.5723 10.58 11.3418 10.375L10.2695 9.4209L9.39355 10.2969L10.334 11.4541C10.5181 11.6807 10.5641 11.9903 10.4541 12.2607L9.41602 14.8115C9.31819 15.0519 9.11009 15.23 8.85742 15.2891L7.19727 15.6768V16.3506L8.91309 16.8193C9.15005 16.884 9.34404 17.0539 9.43945 17.2803L10.5098 19.8184C10.6297 20.1029 10.5756 20.4316 10.3701 20.6621L9.41797 21.7305L10.292 22.6045L11.4521 21.6602C11.6797 21.4749 11.9904 21.4284 12.2617 21.54L14.7627 22.5693C14.997 22.6657 15.1723 22.8676 15.2344 23.1133L15.6611 24.8018H16.335L16.7627 23.1143C16.8247 22.8695 16.9983 22.668 17.2314 22.5713L19.7764 21.5176C20.0315 21.4119 20.3232 21.4449 20.5479 21.6055C20.7977 21.7841 21.2481 22.1693 21.6045 22.4795C21.6451 22.5148 21.6847 22.5499 21.7236 22.584L22.5908 21.7168L21.6426 20.5986C21.4487 20.37 21.399 20.0514 21.5137 19.7744L22.5684 17.2295C22.6643 16.998 22.8629 16.8249 23.1055 16.7617L24.7979 16.3213V15.6641L23.1182 15.2363C22.8737 15.1742 22.6728 15.0005 22.5762 14.7676L21.5225 12.2227C21.408 11.9462 21.4573 11.629 21.6504 11.4004L22.5918 10.2871L21.7148 9.41016L20.6113 10.3535C20.3831 10.5484 20.0647 10.5995 19.7871 10.4854L17.1885 9.41602C16.9568 9.32057 16.7834 9.12221 16.7197 8.87988L16.2783 7.20117H15.6357L15.1865 8.91016ZM15.999 12.2021C18.0978 12.2021 19.7988 13.9032 19.7988 16.002C19.7987 18.1005 18.0977 19.8018 15.999 19.8018C13.9005 19.8017 12.1994 18.1005 12.1992 16.002C12.1992 13.9033 13.9004 12.2023 15.999 12.2021ZM15.999 13.8018C14.784 13.8019 13.7988 14.7869 13.7988 16.002C13.799 17.2168 14.7841 18.202 15.999 18.2021C17.214 18.2021 18.1991 17.2169 18.1992 16.002C18.1992 14.7869 17.2141 13.8018 15.999 13.8018Z" fill="#33363D"/>
</g>
<defs>
<clipPath id="clip0_3522_185511">
<rect width="32" height="32" fill="white"/>
</clipPath>
</defs>
</svg>
