<svg width="24" height="24" viewBox="0 0 24 24" fill="none" xmlns="http://www.w3.org/2000/svg">
<g style="mix-blend-mode:multiply">
<ellipse cx="11.8309" cy="18.6568" rx="11.3778" ry="2.13333" fill="#FDCFC3"/>
<path d="M5.93279 18.7288H17.4809C19.1591 17.1752 20.2106 14.0912 20.2106 11.6241C20.2106 6.92778 16.3912 3.46183 11.7073 3.11996C6.71181 2.75582 3.20312 5.29675 3.20312 11.6241C3.20312 14.0912 4.25457 17.1752 5.93279 18.7288Z" fill="#FA967C"/>
<g style="mix-blend-mode:multiply">
<path d="M10.6493 7.15625H20.2147C20.2201 7.15625 20.2254 7.15981 20.2281 7.16515C20.8184 8.58073 21.1184 10.2509 21.1184 12.1695V13.6136L12.7816 12.1722C11.5485 11.9594 10.6484 10.8893 10.6484 9.63841V7.15625H10.6493Z" fill="#D63D4A"/>
</g>
<path d="M10.6462 9.68293C11.3439 9.68293 11.9095 9.11731 11.9095 8.41959C11.9095 7.72187 11.3439 7.15625 10.6462 7.15625C9.94843 7.15625 9.38281 7.72187 9.38281 8.41959C9.38281 9.11731 9.94843 9.68293 10.6462 9.68293Z" fill="#D63D4A"/>
<path d="M10.6491 10.22C9.65818 10.22 8.85156 9.41343 8.85156 8.42252C8.85156 7.43161 9.65818 6.625 10.6491 6.625C11.64 6.625 12.4466 7.43161 12.4466 8.42252C12.4466 9.41343 11.64 10.22 10.6491 10.22ZM10.6491 7.69336C10.2467 7.69336 9.91993 8.021 9.91993 8.42252C9.91993 8.82405 10.2467 9.15168 10.6491 9.15168C11.0515 9.15168 11.3782 8.82494 11.3782 8.42252C11.3782 8.0201 11.0515 7.69336 10.6491 7.69336Z" fill="white"/>
<path d="M16.579 8.4375L16.4693 8.44846C16.2216 8.49932 16.035 8.71867 16.035 8.98149C16.035 9.24431 16.2216 9.46366 16.4693 9.51452L16.579 9.52548H19.2998C19.6003 9.52548 19.8438 9.28198 19.8438 8.98149C19.8438 8.681 19.6003 8.4375 19.2998 8.4375H16.579Z" fill="white"/>
<path d="M7.05699 5.49996C6.91121 5.28128 6.63436 5.20242 6.39999 5.29755L6.30215 5.349L6.19504 5.4249C5.66545 5.81736 4.76921 6.74616 4.34548 8.09509L4.26283 8.39028L4.2468 8.49908C4.23571 8.75199 4.40328 8.98594 4.65838 9.04981C4.91344 9.11358 5.17144 8.98619 5.2808 8.758L5.31791 8.65426L5.38538 8.41727C5.70286 7.41098 6.35422 6.69618 6.74578 6.37456L6.90603 6.2548L6.99121 6.1848C7.16936 6.00506 7.20284 5.71874 7.05699 5.49996Z" fill="white"/>
</g>
</svg>
