<svg width="16" height="16" viewBox="0 0 16 16" fill="none" xmlns="http://www.w3.org/2000/svg">
<g clip-path="url(#clip0_97_10277)">
<path d="M8.52973 2.77718C8.4227 2.70201 8.39249 2.55147 8.48497 2.45899C8.83858 2.10539 9.31816 1.90674 9.81823 1.90674C10.3183 1.90674 10.7979 2.10539 11.1515 2.45899C11.5051 2.8126 11.7038 3.29218 11.7038 3.79226C11.7038 4.29233 11.5051 4.77191 11.1515 5.12552C10.7979 5.47912 10.3183 5.67777 9.81823 5.67777C9.80265 5.67777 9.79082 5.66392 9.79283 5.64847C9.80966 5.51932 9.81823 5.38854 9.81823 5.25688C9.81823 4.4532 9.49896 3.68243 8.93067 3.11414C8.80615 2.98962 8.67191 2.87705 8.52973 2.77718Z" fill="#D63D4A"/>
<path d="M13.7089 11.1766C13.4132 11.325 13.1211 11.0658 13.0543 10.7418C12.8965 9.97689 12.5495 9.26119 12.0344 8.68171C11.3061 7.86242 10.2938 7.37809 9.21217 7.37809C9.11532 7.37809 9.06432 7.25942 9.12593 7.1847C9.25206 7.03175 9.36224 6.86754 9.45541 6.69468C9.52253 6.57016 9.64902 6.48585 9.79047 6.48585H11.9731C12.6875 6.48585 13.3726 6.80511 13.8778 7.3734C14.3829 7.94169 14.6667 8.71246 14.6667 9.51615C14.6667 9.99836 14.4964 10.4608 14.1933 10.8018C14.0522 10.9605 13.8877 11.0869 13.7089 11.1766Z" fill="#D63D4A"/>
<path d="M5.28799 3.75703C4.89018 4.15483 4.6667 4.69437 4.6667 5.25695C4.6667 5.81953 4.89018 6.35907 5.28799 6.75687C5.68579 7.15467 6.22533 7.37816 6.78791 7.37816C7.35048 7.37816 7.89002 7.15467 8.28782 6.75687C8.68563 6.35907 8.90911 5.81953 8.90911 5.25695C8.90911 4.69437 8.68563 4.15483 8.28782 3.75703C7.89002 3.35923 7.35048 3.13574 6.78791 3.13574C6.22533 3.13574 5.68579 3.35923 5.28799 3.75703Z" fill="#FA967C"/>
<path d="M2.22093 9.28574C2.78922 8.64641 3.55998 8.28724 4.36367 8.28724H9.21214C10.0158 8.28724 10.7866 8.64641 11.3549 9.28574C11.9232 9.92507 12.2424 10.7922 12.2424 11.6963C12.2424 12.2388 12.0509 12.7591 11.7099 13.1427C11.3689 13.5263 10.9065 13.7418 10.4243 13.7418H3.15155C2.66934 13.7418 2.20688 13.5263 1.86591 13.1427C1.52493 12.7591 1.33337 12.2388 1.33337 11.6963C1.33337 10.7922 1.65264 9.92507 2.22093 9.28574Z" fill="#FA967C"/>
</g>
<defs>
<clipPath id="clip0_97_10277">
<rect width="16" height="16" fill="white"/>
</clipPath>
</defs>
</svg>
