<svg width="24" height="24" viewBox="0 0 24 24" fill="none" xmlns="http://www.w3.org/2000/svg">
<path d="M18.6269 4.2347C18.9393 3.92248 19.4454 3.92236 19.7578 4.2347C20.0701 4.54705 20.07 5.05312 19.7578 5.36556L13.1249 11.9984L19.7617 18.6351C20.0741 18.9475 20.0741 19.4545 19.7617 19.7669C19.4493 20.0792 18.9432 20.0791 18.6308 19.7669L11.9941 13.1292L5.35736 19.7669C5.04494 20.0791 4.53884 20.0792 4.2265 19.7669C3.91407 19.4545 3.91409 18.9475 4.2265 18.6351L10.8622 11.9984L4.23041 5.36556C3.91818 5.05312 3.91806 4.54705 4.23041 4.2347C4.54277 3.92236 5.04884 3.92248 5.36127 4.2347L11.9941 10.8675L18.6269 4.2347Z" fill="white"/>
</svg>
