<svg width="24" height="25" viewBox="0 0 24 25" fill="none" xmlns="http://www.w3.org/2000/svg">
<g style="mix-blend-mode:multiply">
<path d="M12.002 3.50293C17.5238 3.50293 22.0008 7.97917 22.001 13.501C22.001 14.402 21.8813 15.2751 21.6572 16.1055C21.6352 16.1871 21.605 16.2643 21.5713 16.3389C21.5606 16.3914 21.5499 16.4449 21.5332 16.498C20.8498 18.675 19.4419 20.5314 17.5918 21.7842C17.3051 21.9783 16.9624 22.0693 16.6162 22.0693H7.37012C7.02378 22.0693 6.68131 21.9784 6.39453 21.7842C4.54457 20.5314 3.13741 18.675 2.4541 16.498C2.42963 16.42 2.41317 16.3423 2.40137 16.2656C2.38109 16.2137 2.36252 16.1605 2.34766 16.1055C2.1236 15.2751 2.00391 14.402 2.00391 13.501C2.00412 7.9793 6.48028 3.50314 12.002 3.50293ZM18.1914 13.5C18.1914 13.3059 17.9803 13.191 17.8105 13.2852L15.8623 14.3672C15.7488 14.4302 15.6676 14.5375 15.6279 14.6611C15.136 16.1952 13.6984 17.3056 12.001 17.3057C10.3037 17.3057 8.86529 16.1958 8.37305 14.6621C8.33335 14.5385 8.25218 14.4312 8.13867 14.3682L6.19043 13.2861C6.02158 13.1925 5.8125 13.3069 5.8125 13.5C5.81251 13.8432 5.8407 14.1799 5.89453 14.5078C5.9185 14.6538 5.92701 14.8042 5.92383 14.9561C5.97973 15.0459 6.02609 15.1432 6.05664 15.2471C6.54824 16.919 7.72663 18.2962 9.26562 19.0537C9.49155 19.1649 9.74332 19.2119 9.99512 19.2119H13.9951C14.2468 19.2119 14.4988 19.1648 14.7246 19.0537C16.2634 18.2962 17.4421 16.9189 17.9336 15.2471C17.967 15.1335 18.0157 15.026 18.0791 14.9297C18.0775 14.7868 18.0868 14.6453 18.1094 14.5078C18.1631 14.1798 18.1914 13.8432 18.1914 13.5ZM12.002 7.31055C9.56739 7.31069 7.46093 8.71671 6.4502 10.7607C6.3053 11.0541 6.52822 11.3803 6.85547 11.3857L8.5459 11.4141C8.70939 11.4167 8.86135 11.3346 8.95996 11.2041C9.65521 10.2836 10.7585 9.68848 12.001 9.68848C13.2433 9.68852 14.3459 10.2837 15.041 11.2041C15.1396 11.3346 15.2916 11.4167 15.4551 11.4141L17.1475 11.3857C17.4747 11.3803 17.6976 11.0542 17.5527 10.7607C16.5421 8.71674 14.4365 7.31055 12.002 7.31055Z" fill="white"/>
<path d="M5.06291 14.4512C5.53269 14.4512 5.92453 14.7968 6.05704 15.2475C6.54862 16.9195 7.72704 18.2972 9.26606 19.0547C9.492 19.1659 9.74374 19.2129 9.99556 19.2129H13.9956C14.2474 19.2129 14.4991 19.1659 14.725 19.0547C16.2641 18.2972 17.4425 16.9195 17.9341 15.2475C18.0666 14.7968 18.4584 14.4512 18.9282 14.4512H19.854C20.9764 14.4512 21.8698 15.4281 21.5336 16.499C20.8502 18.6762 19.4426 20.5324 17.5922 21.7852C17.3055 21.9793 16.963 22.0703 16.6166 22.0703H7.37153C7.02521 22.0703 6.68273 21.9793 6.39595 21.7852C4.54562 20.5324 3.13801 18.6762 2.45454 16.499C2.11838 15.4281 3.01176 14.4512 4.13423 14.4512H5.06291Z" fill="#D63D4A"/>
<g style="mix-blend-mode:multiply">
<path d="M11.998 3.5C17.5199 3.5 21.9969 7.97624 21.9971 13.498C21.9971 14.3991 21.8774 15.2722 21.6533 16.1025C21.4524 16.8471 20.74 17.3086 19.9688 17.3086C18.712 17.3086 17.902 15.7441 18.1055 14.5039C18.1593 14.1756 18.1875 13.8387 18.1875 13.4951C18.1875 13.3024 17.978 13.1887 17.8095 13.2822L15.8586 14.3651C15.7449 14.4282 15.6634 14.5355 15.6238 14.6593C15.132 16.1936 13.6947 17.3047 11.9971 17.3047C10.2987 17.3047 8.85966 16.1929 8.36836 14.6575C8.32872 14.5337 8.24718 14.4262 8.13345 14.3631L6.18558 13.2821C6.0171 13.1886 5.80861 13.3024 5.80859 13.4951C5.80859 13.8389 5.83664 14.1764 5.89062 14.5049C6.09425 15.7449 5.28495 17.3086 4.02832 17.3086C3.25708 17.3086 2.54469 16.8471 2.34375 16.1025C2.1197 15.2722 2 14.3991 2 13.498C2.00021 7.97637 6.47637 3.50021 11.998 3.5ZM11.998 7.30566C9.56287 7.30583 7.45614 8.7125 6.44577 10.7575C6.30078 11.051 6.52403 11.3778 6.85131 11.3833L8.54277 11.4116C8.70639 11.4144 8.85821 11.3315 8.95688 11.201C9.65219 10.2811 10.7551 9.68652 11.9971 9.68652C13.2388 9.68655 14.3411 10.2813 15.0363 11.201C15.135 11.3315 15.2868 11.4144 15.4503 11.4116L17.1438 11.3833C17.4711 11.3778 17.6943 11.051 17.5493 10.7575C16.5391 8.7125 14.4333 7.30566 11.998 7.30566Z" fill="#FA967C"/>
</g>
<rect x="10.0918" y="11.5938" width="3.80893" height="3.80893" rx="1.90447" fill="white"/>
</g>
</svg>
