<svg width="32" height="32" viewBox="0 0 32 32" fill="none" xmlns="http://www.w3.org/2000/svg">
<path d="M2.66663 16.0002C2.66663 23.364 8.63616 29.3335 16 29.3335C23.3638 29.3335 29.3333 23.364 29.3333 16.0002C29.3333 8.63636 23.3638 2.66683 16 2.66683C8.63616 2.66683 2.66663 8.63636 2.66663 16.0002Z" fill="#DE3412"/>
<path d="M19.2471 11.2466C19.6636 10.8301 20.3383 10.8301 20.7549 11.2466C21.1714 11.6631 21.1714 12.3378 20.7549 12.7544L17.5078 16.0015L20.7529 19.2466C21.1694 19.6631 21.1694 20.3378 20.7529 20.7544C20.3364 21.1709 19.6617 21.1709 19.2451 20.7544L16 17.5093L12.7549 20.7544C12.3383 21.171 11.6636 21.171 11.2471 20.7544C10.8305 20.3378 10.8305 19.6631 11.2471 19.2466L14.4922 16.0015L11.2451 12.7544C10.8286 12.3378 10.8286 11.6631 11.2451 11.2466C11.6617 10.8301 12.3364 10.8301 12.7529 11.2466L16 14.4937L19.2471 11.2466Z" fill="white"/>
</svg>
