<svg width="20" height="20" viewBox="0 0 20 20" fill="none" xmlns="http://www.w3.org/2000/svg">
<path d="M14.749 2.5C16.2677 2.50018 17.499 3.73133 17.499 5.25C17.499 6.76867 16.2677 7.99982 14.749 8C13.8749 8 13.0975 7.59082 12.5938 6.95508L7.93848 9.42578C7.97787 9.61107 7.99999 9.80297 8 10C8 10.2621 7.96007 10.5148 7.8916 10.7549L12.4834 13.1914C12.9794 12.4719 13.809 12 14.749 12C16.2677 12.0002 17.499 13.2313 17.499 14.75C17.499 16.2686 16.2676 17.4998 14.749 17.5C13.2303 17.5 11.9991 16.2687 11.999 14.75C11.999 14.6494 12.0041 14.55 12.0146 14.4521L7.22461 11.9102C6.72464 12.4269 6.02584 12.75 5.25 12.75C3.73122 12.75 2.5 11.5188 2.5 10C2.50009 8.48129 3.73127 7.25 5.25 7.25C6.09342 7.25 6.84711 7.63074 7.35156 8.22852L12.0439 5.7373C12.0156 5.57902 11.999 5.41643 11.999 5.25C11.999 3.73122 13.2302 2.5 14.749 2.5ZM14.749 13.333C13.9666 13.333 13.332 13.9676 13.332 14.75C13.3321 15.5324 13.9666 16.167 14.749 16.167C15.5313 16.1668 16.165 15.5323 16.165 14.75C16.165 13.9677 15.5313 13.3332 14.749 13.333ZM5.25 8.58301C4.46765 8.58301 3.8331 9.21767 3.83301 10C3.83301 10.7824 4.4676 11.417 5.25 11.417C6.0324 11.417 6.66699 10.7824 6.66699 10C6.6669 9.21767 6.03235 8.58301 5.25 8.58301ZM14.749 3.83301C13.9666 3.83301 13.332 4.4676 13.332 5.25C13.332 6.0324 13.9666 6.66699 14.749 6.66699C15.5313 6.66682 16.165 6.03229 16.165 5.25C16.165 4.46771 15.5313 3.83318 14.749 3.83301Z" fill="#33363D"/>
</svg>
