<svg width="32" height="32" viewBox="0 0 32 32" fill="none" xmlns="http://www.w3.org/2000/svg">
<g clip-path="url(#clip0_15899_248889)">
<path d="M7.37809 6.75236C8.64898 6.26239 11.9589 7.9779 12.5994 9.1534C10.3292 11.2265 6.02749 15.2901 6.55517 12.9307C7.21466 9.98167 6.10759 7.24262 7.37809 6.75236Z" fill="#8A949E"/>
<path d="M19.3442 9.1534C19.9846 7.97791 23.2946 6.26244 24.5656 6.75236C25.8365 7.24234 24.729 9.98149 25.3885 12.9307C25.9162 15.2902 21.6144 11.2264 19.3442 9.1534Z" fill="#8A949E"/>
<path d="M16.0003 8.02002C23.6908 8.02002 27.3337 13.6029 27.3337 19.4797C27.3336 22.1753 26.1713 24.1189 24.3522 25.4337C22.5858 26.7105 20.2458 26.474 18.0772 26.2557C17.4092 26.1884 16.7141 26.1528 16.0003 26.1528C15.2865 26.1528 14.5913 26.1884 13.9232 26.2556C11.754 26.4737 9.41299 26.7104 7.64641 25.4326C5.82851 24.1177 4.6671 22.1744 4.66699 19.4797C4.66699 13.6029 8.30985 8.02002 16.0003 8.02002Z" fill="#CDD1D5"/>
<ellipse cx="23.178" cy="19.9199" rx="1.88889" ry="1.32222" fill="white"/>
<ellipse cx="8.82248" cy="19.9199" rx="1.88889" ry="1.32222" fill="white"/>
<path fill-rule="evenodd" clip-rule="evenodd" d="M15.9996 19.7312C16.2083 19.7312 16.3774 19.9003 16.3774 20.109C16.3774 21.0597 15.724 21.6779 14.9735 21.9001C14.2334 22.1191 13.3286 21.9802 12.7121 21.3719C12.5635 21.2253 12.5619 20.9861 12.7085 20.8376C12.855 20.6891 13.0942 20.6875 13.2427 20.834C13.6335 21.2197 14.2399 21.3293 14.7591 21.1756C15.2678 21.025 15.6218 20.6492 15.6218 20.109C15.6218 19.9003 15.791 19.7312 15.9996 19.7312Z" fill="#6D7882"/>
<path fill-rule="evenodd" clip-rule="evenodd" d="M15.9996 19.7312C15.791 19.7312 15.6218 19.9003 15.6218 20.109C15.6218 21.0597 16.2752 21.6779 17.0257 21.9001C17.7658 22.1191 18.6706 21.9802 19.2872 21.3719C19.4357 21.2253 19.4373 20.9861 19.2907 20.8376C19.1442 20.6891 18.905 20.6875 18.7565 20.834C18.3657 21.2197 17.7593 21.3293 17.2402 21.1756C16.7314 21.025 16.3774 20.6492 16.3774 20.109C16.3774 19.9003 16.2083 19.7312 15.9996 19.7312Z" fill="#6D7882"/>
<path d="M16 18.5973C16.8346 18.5973 17.5117 19.021 17.5117 19.5426C17.5115 20.0641 16.8344 20.4867 16 20.4867C15.1657 20.4866 14.4898 20.0641 14.4896 19.5426C14.4896 19.0211 15.1656 18.5974 16 18.5973Z" fill="#6D7882"/>
<path d="M12.3164 15.8994C12.8925 15.8994 13.3604 16.3663 13.3607 16.9424C13.3607 17.5186 12.8927 17.9867 12.3164 17.9867C11.7403 17.9864 11.2734 17.5185 11.2734 16.9424C11.2737 16.3665 11.7405 15.8996 12.3164 15.8994Z" fill="#6D7882"/>
<path d="M19.6211 15.8994C20.1969 15.8997 20.6638 16.3665 20.6641 16.9424C20.6641 17.5184 20.1971 17.9863 19.6211 17.9867C19.0448 17.9867 18.5768 17.5186 18.5768 16.9424C18.5771 16.3663 19.045 15.8994 19.6211 15.8994Z" fill="#6D7882"/>
</g>
<defs>
<clipPath id="clip0_15899_248889">
<rect width="32" height="32" fill="white"/>
</clipPath>
</defs>
</svg>
