<svg width="25" height="24" viewBox="0 0 25 24" fill="none" xmlns="http://www.w3.org/2000/svg">
<path d="M7.29981 8.79981C7.29981 9.06502 7.19445 9.31938 7.00691 9.50691C6.81938 9.69445 6.56502 9.79981 6.29981 9.79981C6.03459 9.79981 5.78024 9.69445 5.5927 9.50691C5.40516 9.31938 5.29981 9.06502 5.29981 8.79981C5.29981 8.53459 5.40516 8.28024 5.5927 8.0927C5.78024 7.90516 6.03459 7.79981 6.29981 7.79981C6.56502 7.79981 6.81938 7.90516 7.00691 8.0927C7.19445 8.28024 7.29981 8.53459 7.29981 8.79981ZM7.29981 11.7998C7.29981 12.065 7.19445 12.3194 7.00691 12.5069C6.81938 12.6944 6.56502 12.7998 6.29981 12.7998C6.03459 12.7998 5.78024 12.6944 5.5927 12.5069C5.40516 12.3194 5.29981 12.065 5.29981 11.7998C5.29981 11.5346 5.40516 11.2802 5.5927 11.0927C5.78024 10.9052 6.03459 10.7998 6.29981 10.7998C6.56502 10.7998 6.81938 10.9052 7.00691 11.0927C7.19445 11.2802 7.29981 11.5346 7.29981 11.7998ZM10.2998 11.7998C10.2998 12.065 10.1944 12.3194 10.0069 12.5069C9.81938 12.6944 9.56502 12.7998 9.29981 12.7998C9.03459 12.7998 8.78024 12.6944 8.5927 12.5069C8.40516 12.3194 8.29981 12.065 8.29981 11.7998C8.29981 11.5346 8.40516 11.2802 8.5927 11.0927C8.78024 10.9052 9.03459 10.7998 9.29981 10.7998C9.56502 10.7998 9.81938 10.9052 10.0069 11.0927C10.1944 11.2802 10.2998 11.5346 10.2998 11.7998ZM10.2998 8.79981C10.2998 9.06502 10.1944 9.31938 10.0069 9.50691C9.81938 9.69445 9.56502 9.79981 9.29981 9.79981C9.03459 9.79981 8.78024 9.69445 8.5927 9.50691C8.40516 9.31938 8.29981 9.06502 8.29981 8.79981C8.29981 8.53459 8.40516 8.28024 8.5927 8.0927C8.78024 7.90516 9.03459 7.79981 9.29981 7.79981C9.56502 7.79981 9.81938 7.90516 10.0069 8.0927C10.1944 8.28024 10.2998 8.53459 10.2998 8.79981ZM13.2998 8.79981C13.2998 9.06502 13.1944 9.31938 13.0069 9.50691C12.8194 9.69445 12.565 9.79981 12.2998 9.79981C12.0346 9.79981 11.7802 9.69445 11.5927 9.50691C11.4052 9.31938 11.2998 9.06502 11.2998 8.79981C11.2998 8.53459 11.4052 8.28024 11.5927 8.0927C11.7802 7.90516 12.0346 7.79981 12.2998 7.79981C12.565 7.79981 12.8194 7.90516 13.0069 8.0927C13.1944 8.28024 13.2998 8.53459 13.2998 8.79981ZM13.2998 11.7998C13.2998 12.065 13.1944 12.3194 13.0069 12.5069C12.8194 12.6944 12.565 12.7998 12.2998 12.7998C12.0346 12.7998 11.7802 12.6944 11.5927 12.5069C11.4052 12.3194 11.2998 12.065 11.2998 11.7998C11.2998 11.5346 11.4052 11.2802 11.5927 11.0927C11.7802 10.9052 12.0346 10.7998 12.2998 10.7998C12.565 10.7998 12.8194 10.9052 13.0069 11.0927C13.1944 11.2802 13.2998 11.5346 13.2998 11.7998ZM16.2998 8.79981C16.2998 9.06502 16.1944 9.31938 16.0069 9.50691C15.8194 9.69445 15.565 9.79981 15.2998 9.79981C15.0346 9.79981 14.7802 9.69445 14.5927 9.50691C14.4052 9.31938 14.2998 9.06502 14.2998 8.79981C14.2998 8.53459 14.4052 8.28024 14.5927 8.0927C14.7802 7.90516 15.0346 7.79981 15.2998 7.79981C15.565 7.79981 15.8194 7.90516 16.0069 8.0927C16.1944 8.28024 16.2998 8.53459 16.2998 8.79981ZM16.2998 11.7998C16.2998 12.065 16.1944 12.3194 16.0069 12.5069C15.8194 12.6944 15.565 12.7998 15.2998 12.7998C15.0346 12.7998 14.7802 12.6944 14.5927 12.5069C14.4052 12.3194 14.2998 12.065 14.2998 11.7998C14.2998 11.5346 14.4052 11.2802 14.5927 11.0927C14.7802 10.9052 15.0346 10.7998 15.2998 10.7998C15.565 10.7998 15.8194 10.9052 16.0069 11.0927C16.1944 11.2802 16.2998 11.5346 16.2998 11.7998ZM19.2998 8.79981C19.2998 9.06502 19.1945 9.31938 19.0069 9.50691C18.8194 9.69445 18.565 9.79981 18.2998 9.79981C18.0346 9.79981 17.7802 9.69445 17.5927 9.50691C17.4052 9.31938 17.2998 9.06502 17.2998 8.79981C17.2998 8.53459 17.4052 8.28024 17.5927 8.0927C17.7802 7.90516 18.0346 7.79981 18.2998 7.79981C18.565 7.79981 18.8194 7.90516 19.0069 8.0927C19.1945 8.28024 19.2998 8.53459 19.2998 8.79981ZM19.2998 11.7998C19.2998 12.065 19.1945 12.3194 19.0069 12.5069C18.8194 12.6944 18.565 12.7998 18.2998 12.7998C18.0346 12.7998 17.7802 12.6944 17.5927 12.5069C17.4052 12.3194 17.2998 12.065 17.2998 11.7998C17.2998 11.5346 17.4052 11.2802 17.5927 11.0927C17.7802 10.9052 18.0346 10.7998 18.2998 10.7998C18.565 10.7998 18.8194 10.9052 19.0069 11.0927C19.1945 11.2802 19.2998 11.5346 19.2998 11.7998Z" fill="#33363D"/>
<path d="M21.5 10.7998C21.5 9.36319 21.4985 8.36554 21.3975 7.61426C21.2995 6.88631 21.1211 6.51055 20.8555 6.24512L20.8545 6.24414C20.5891 5.97849 20.2133 5.80009 19.4854 5.70215C18.7341 5.60111 17.7364 5.59961 16.2998 5.59961H8.29981C6.86319 5.59961 5.86554 5.60111 5.11426 5.70215C4.38631 5.80009 4.01055 5.97849 3.74512 6.24414L3.74414 6.24512C3.47849 6.51055 3.30009 6.88631 3.20215 7.61426C3.10111 8.36554 3.09961 9.36319 3.09961 10.7998V12.7998C3.09961 14.2364 3.10111 15.2341 3.20215 15.9854C3.30009 16.7133 3.47849 17.0891 3.74414 17.3545L3.74512 17.3555C4.01055 17.6211 4.38631 17.7995 5.11426 17.8975C5.86554 17.9985 6.86319 18 8.29981 18H16.2998C17.7364 18 18.7341 17.9985 19.4854 17.8975C20.2133 17.7995 20.5891 17.6211 20.8545 17.3555L20.8555 17.3545C21.1211 17.0891 21.2995 16.7133 21.3975 15.9854C21.4985 15.2341 21.5 14.2364 21.5 12.7998V10.7998ZM23.0996 12.7998C23.0996 14.1912 23.1011 15.3155 22.9824 16.1982C22.8682 17.0473 22.6312 17.7774 22.0967 18.3701L21.9863 18.4863C21.3739 19.0993 20.6037 19.3606 19.6982 19.4824C18.8155 19.6011 17.6912 19.5996 16.2998 19.5996H8.29981C6.90843 19.5996 5.78408 19.6011 4.90137 19.4824C4.05226 19.3682 3.32216 19.1312 2.72949 18.5967L2.61328 18.4863C2.00032 17.8739 1.73897 17.1037 1.61719 16.1982C1.49848 15.3155 1.5 14.1912 1.5 12.7998V10.7998C1.5 9.40843 1.49848 8.28408 1.61719 7.40137C1.73897 6.49591 2.00032 5.72572 2.61328 5.11328L2.72949 5.00293C3.32216 4.46837 4.05226 4.23139 4.90137 4.11719C5.78408 3.99848 6.90843 4 8.29981 4H16.2998C17.6912 4 18.8155 3.99848 19.6982 4.11719C20.6037 4.23897 21.3739 4.50032 21.9863 5.11328L22.0967 5.22949C22.6312 5.82216 22.8682 6.55226 22.9824 7.40137C23.1011 8.28408 23.0996 9.40843 23.0996 10.7998V12.7998Z" fill="#33363D"/>
<path d="M17.2998 15C17.7416 15 18.0996 15.358 18.0996 15.7998C18.0996 16.2416 17.7416 16.5996 17.2998 16.5996H7.29981C6.85798 16.5996 6.5 16.2416 6.5 15.7998C6.5 15.358 6.85798 15 7.29981 15H17.2998Z" fill="#33363D"/>
</svg>
