<svg width="56" height="56" viewBox="0 0 56 56" fill="none" xmlns="http://www.w3.org/2000/svg">
<path d="M0 24C0 10.7452 10.7452 0 24 0H32C45.2548 0 56 10.7452 56 24V32C56 45.2548 45.2548 56 32 56H24C10.7452 56 0 45.2548 0 32V24Z" fill="#FFE300"/>
<path d="M28 15.2524C20.268 15.2524 14 20.1946 14 26.2909C14 30.2323 16.6204 33.6907 20.5622 35.6436C20.3478 36.3832 19.1842 40.4014 19.1379 40.7171C19.1379 40.7171 19.11 40.9543 19.2636 41.0447C19.4172 41.1352 19.5978 41.0649 19.5978 41.0649C20.0383 41.0034 24.7056 37.725 25.5134 37.1557C26.3204 37.27 27.1514 37.3294 28 37.3294C35.732 37.3294 42 32.3874 42 26.2909C42 20.1946 35.732 15.2524 28 15.2524Z" fill="black"/>
</svg>
