<svg width="20" height="20" viewBox="0 0 20 20" fill="none" xmlns="http://www.w3.org/2000/svg">
<path d="M11.25 1.66699C11.4268 1.66699 11.5967 1.73726 11.7217 1.8623L16.4707 6.6123C16.5957 6.73732 16.666 6.90721 16.666 7.08398V9.16699H16.667C17.1271 9.16717 17.5 9.53987 17.5 10V15C17.5 15.4601 17.1271 15.8328 16.667 15.833H16.666V16.834C16.6658 17.6622 15.9943 18.334 15.166 18.334H4.83301C4.00489 18.3338 3.33327 17.6621 3.33301 16.834V3.16699C3.33301 2.33867 4.00473 1.66717 4.83301 1.66699H11.25ZM4.83301 3C4.74111 3.00018 4.66699 3.07505 4.66699 3.16699V16.834C4.66726 16.9257 4.74127 16.9998 4.83301 17H15.166C15.2579 17 15.3327 16.9258 15.333 16.834V15.833H6.66699C6.20675 15.833 5.83301 15.4602 5.83301 15V10C5.83301 9.53976 6.20675 9.16699 6.66699 9.16699H15.333V7.75H12.083C11.2547 7.74982 10.583 7.07832 10.583 6.25V3H4.83301ZM11.917 6.25C11.917 6.34194 11.9911 6.41682 12.083 6.41699H14.3896L11.917 3.94336V6.25Z" fill="#33363D"/>
<path d="M11.6172 10.8809C12.472 10.8809 13.1297 11.4899 13.1299 12.5459C13.1299 13.6022 12.4721 14.2109 11.6172 14.2109C10.7535 14.2108 10.1006 13.5976 10.1006 12.5459C10.1008 11.49 10.7536 10.881 11.6172 10.8809ZM15.0596 10.8809C15.8068 10.8809 16.3703 11.311 16.46 12.0537H15.7803C15.7265 11.6959 15.4489 11.4767 15.0732 11.4766C14.5676 11.4766 14.2355 11.8659 14.2354 12.5459C14.2354 13.2441 14.5715 13.6162 15.0684 13.6162C15.4397 13.6162 15.713 13.4104 15.7803 13.0615L16.46 13.0654C16.3839 13.6652 15.883 14.2109 15.0596 14.2109C14.1912 14.2109 13.5508 13.6022 13.5508 12.5459C13.551 11.4899 14.2048 10.8809 15.0596 10.8809ZM8.10352 10.9258C9.07926 10.9258 9.6748 11.5349 9.6748 12.542C9.67477 13.5578 9.07973 14.1668 8.09082 14.167H6.94922V10.9258H8.10352ZM11.6172 11.4766C11.1161 11.4767 10.7853 11.8526 10.7852 12.5459C10.7852 13.2396 11.116 13.6161 11.6172 13.6162C12.1185 13.6162 12.4453 13.2397 12.4453 12.5459C12.4452 11.8524 12.1184 11.4766 11.6172 11.4766ZM7.62012 13.5889H8.06348C8.68113 13.5889 9.00388 13.267 9.00391 12.542C9.00391 11.8215 8.68135 11.504 8.06836 11.5039H7.62012V13.5889Z" fill="white"/>
</svg>
