<svg width="40" height="40" viewBox="0 0 40 40" fill="none" xmlns="http://www.w3.org/2000/svg">
<ellipse cx="19.7131" cy="31.0932" rx="18.963" ry="3.55556" fill="#FDCFC3"/>
<path d="M22.9127 9.10383C23.1953 9.16568 23.49 9.09989 23.7256 8.93203C25.2872 7.81933 27.6994 6.8545 28.8201 7.28656C29.699 7.62541 29.6513 8.84052 29.5868 10.4844C29.5686 10.9485 29.5491 11.4468 29.5487 11.9692C29.5485 12.2285 29.6643 12.4724 29.8528 12.6504C31.0741 13.8038 32.0071 15.1588 32.5628 16.6441C32.6543 16.8887 32.8838 17.058 33.145 17.058C34.1695 17.058 35.0001 17.8885 35.0001 18.9131V22.6232C35.0001 23.6478 34.1695 24.4783 33.145 24.4783H32.4207C32.0885 24.4783 31.7843 24.6578 31.6042 24.9371C31.3098 25.3935 30.9771 25.8316 30.6095 26.2485C30.4535 26.4255 30.3623 26.6515 30.3623 26.8874V30.9708C30.3623 31.483 29.947 31.8983 29.4348 31.8983H26.4488C26.0232 31.8983 25.6522 31.6086 25.549 31.1957L25.4761 30.9044C25.3412 30.3647 24.7652 30.0664 24.2335 30.2303C22.6814 30.7088 20.995 30.9711 19.232 30.9711C17.469 30.9711 15.7825 30.7088 14.2303 30.2302C13.6987 30.0663 13.1226 30.3646 12.9877 30.9044L12.9149 31.1957C12.8116 31.6086 12.4406 31.8983 12.015 31.8983H9.02905C8.51679 31.8983 8.10151 31.483 8.10151 30.9708V26.8873C8.10151 26.6513 8.01028 26.4253 7.85426 26.2483C6.44283 24.6473 5.54607 22.735 5.35655 20.6657C5.32117 20.2794 5.07436 19.9432 4.72431 19.7762C4.06343 19.4609 3.39451 18.9902 2.79249 18.3081C2.45352 17.924 2.57377 17.3421 3 17.058C3.42623 16.7738 3.99498 16.8986 4.35523 17.2628C4.40292 17.311 4.451 17.3575 4.4994 17.4022C4.9473 17.8158 5.60743 17.4961 5.80328 16.9187C7.40751 12.1889 12.8119 8.71017 19.232 8.71017C20.5062 8.71017 21.7403 8.84719 22.9127 9.10383Z" fill="#FA967C"/>
<path d="M18.3044 4.35107C20.7121 4.35107 22.6638 6.3028 22.6638 8.71045C22.6638 9.75055 22.299 10.7042 21.6912 11.4536C20.9021 11.2976 20.0787 11.2144 19.2322 11.2144C17.8355 11.2144 16.5021 11.4415 15.282 11.8501C14.458 11.0567 13.9451 9.94406 13.9451 8.71045C13.9451 6.3028 15.8968 4.35107 18.3044 4.35107Z" fill="#D63D4A" stroke="#D63D4A" stroke-width="0.556523"/>
<path d="M29.8323 17.4113C29.8323 18.1187 29.2588 18.6921 28.5514 18.6921C27.844 18.6921 27.2705 18.1187 27.2705 17.4113C27.2705 16.7038 27.844 16.1304 28.5514 16.1304C29.2588 16.1304 29.8323 16.7038 29.8323 17.4113Z" fill="#D63D4A"/>
<ellipse cx="27.9133" cy="22.1594" rx="2.31885" ry="1.39131" fill="white"/>
<path d="M23.8697 12.4034C22.4783 11.8214 20.902 11.4932 19.232 11.4932C16.9766 11.4932 14.8921 12.0919 13.203 13.1058" stroke="#D63D4A" stroke-width="0.890437" stroke-linecap="round"/>
</svg>
