<svg width="20" height="20" viewBox="0 0 20 20" fill="none" xmlns="http://www.w3.org/2000/svg">
<path d="M11.249 1.66699C11.4259 1.66699 11.5957 1.73726 11.7207 1.8623L16.4697 6.6123C16.5947 6.73732 16.665 6.90721 16.665 7.08398V16.834C16.6648 17.6622 15.9933 18.334 15.165 18.334H4.83203C4.00392 18.3338 3.33229 17.6621 3.33203 16.834V3.16699C3.33203 2.33867 4.00375 1.66717 4.83203 1.66699H11.249ZM4.83203 3C4.74013 3.00018 4.66602 3.07505 4.66602 3.16699V16.834C4.66628 16.9257 4.7403 16.9998 4.83203 17H15.165C15.2569 17 15.3318 16.9258 15.332 16.834V7.75H12.082C11.2538 7.74982 10.582 7.07832 10.582 6.25V3H4.83203ZM12.4492 8.79004C12.657 8.48622 13.0721 8.40853 13.376 8.61621C13.6798 8.82398 13.7575 9.23904 13.5498 9.54297L10.1338 14.543C10.0219 14.7067 9.842 14.8116 9.64453 14.8301C9.44719 14.8484 9.25152 14.7778 9.11133 14.6377L7.02734 12.5547C6.76706 12.2946 6.76653 11.8728 7.02637 11.6123C7.28661 11.3519 7.70929 11.3511 7.96973 11.6113L9.48633 13.127L12.4492 8.79004ZM11.916 6.25C11.916 6.34194 11.9901 6.41682 12.082 6.41699H14.3887L11.916 3.94336V6.25Z" fill="#33363D"/>
</svg>
