<svg width="24" height="24" viewBox="0 0 24 24" fill="none" xmlns="http://www.w3.org/2000/svg">
<path d="M15.7998 4C17.1912 4 18.3155 3.99848 19.1982 4.11719C20.1037 4.23897 20.8739 4.50032 21.4863 5.11328L21.5967 5.22949C22.1312 5.82216 22.3682 6.55226 22.4824 7.40137C22.6011 8.28408 22.5996 9.40843 22.5996 10.7998V12.7998C22.5996 14.1912 22.6011 15.3155 22.4824 16.1982C22.3682 17.0473 22.1312 17.7774 21.5967 18.3701L21.4863 18.4863C20.8739 19.0993 20.1037 19.3606 19.1982 19.4824C18.3155 19.6011 17.1912 19.5996 15.7998 19.5996H7.79981C6.40843 19.5996 5.28408 19.6011 4.40137 19.4824C3.55226 19.3682 2.82216 19.1312 2.22949 18.5967L2.11328 18.4863C1.50032 17.8739 1.23897 17.1037 1.11719 16.1982C0.998476 15.3155 1 14.1912 1 12.7998V10.7998C1 9.40843 0.998476 8.28408 1.11719 7.40137C1.23897 6.49591 1.50032 5.72572 2.11328 5.11328L2.22949 5.00293C2.82216 4.46837 3.55226 4.23139 4.40137 4.11719C5.28408 3.99848 6.40843 4 7.79981 4H15.7998ZM6.79981 15C6.35798 15 6 15.358 6 15.7998C6 16.2416 6.35798 16.5996 6.79981 16.5996H16.7998C17.2416 16.5996 17.5996 16.2416 17.5996 15.7998C17.5996 15.358 17.2416 15 16.7998 15H6.79981ZM5.79981 10.7998C5.53459 10.7998 5.28031 10.9052 5.09277 11.0928C4.90524 11.2803 4.79981 11.5346 4.79981 11.7998C4.79981 12.065 4.90524 12.3193 5.09277 12.5068C5.28031 12.6944 5.53459 12.7998 5.79981 12.7998C6.06502 12.7998 6.3193 12.6944 6.50684 12.5068C6.69437 12.3193 6.79981 12.065 6.79981 11.7998C6.79981 11.5346 6.69437 11.2803 6.50684 11.0928C6.3193 10.9052 6.06502 10.7998 5.79981 10.7998ZM8.79981 10.7998C8.53459 10.7998 8.28031 10.9052 8.09277 11.0928C7.90524 11.2803 7.79981 11.5346 7.79981 11.7998C7.79981 12.065 7.90524 12.3193 8.09277 12.5068C8.28031 12.6944 8.53459 12.7998 8.79981 12.7998C9.06502 12.7998 9.3193 12.6944 9.50684 12.5068C9.69437 12.3193 9.79981 12.065 9.79981 11.7998C9.79981 11.5346 9.69437 11.2803 9.50684 11.0928C9.3193 10.9052 9.06502 10.7998 8.79981 10.7998ZM11.7998 10.7998C11.5346 10.7998 11.2803 10.9052 11.0928 11.0928C10.9052 11.2803 10.7998 11.5346 10.7998 11.7998C10.7998 12.065 10.9052 12.3193 11.0928 12.5068C11.2803 12.6944 11.5346 12.7998 11.7998 12.7998C12.065 12.7998 12.3193 12.6944 12.5068 12.5068C12.6944 12.3193 12.7998 12.065 12.7998 11.7998C12.7998 11.5346 12.6944 11.2803 12.5068 11.0928C12.3193 10.9052 12.065 10.7998 11.7998 10.7998ZM14.7998 10.7998C14.5346 10.7998 14.2803 10.9052 14.0928 11.0928C13.9052 11.2803 13.7998 11.5346 13.7998 11.7998C13.7998 12.065 13.9052 12.3193 14.0928 12.5068C14.2803 12.6944 14.5346 12.7998 14.7998 12.7998C15.065 12.7998 15.3193 12.6944 15.5068 12.5068C15.6944 12.3193 15.7998 12.065 15.7998 11.7998C15.7998 11.5346 15.6944 11.2803 15.5068 11.0928C15.3193 10.9052 15.065 10.7998 14.7998 10.7998ZM17.7998 10.7998C17.5346 10.7998 17.2803 10.9052 17.0928 11.0928C16.9052 11.2803 16.7998 11.5346 16.7998 11.7998C16.7998 12.065 16.9052 12.3193 17.0928 12.5068C17.2803 12.6944 17.5346 12.7998 17.7998 12.7998C18.065 12.7998 18.3193 12.6944 18.5068 12.5068C18.6944 12.3193 18.7998 12.065 18.7998 11.7998C18.7998 11.5346 18.6944 11.2803 18.5068 11.0928C18.3193 10.9052 18.065 10.7998 17.7998 10.7998ZM5.79981 7.79981C5.53459 7.79981 5.28031 7.90524 5.09277 8.09277C4.90524 8.28031 4.79981 8.53459 4.79981 8.79981C4.79981 9.06502 4.90524 9.3193 5.09277 9.50684C5.28031 9.69437 5.53459 9.79981 5.79981 9.79981C6.06502 9.79981 6.3193 9.69437 6.50684 9.50684C6.69437 9.3193 6.79981 9.06502 6.79981 8.79981C6.79981 8.53459 6.69437 8.28031 6.50684 8.09277C6.3193 7.90524 6.06502 7.79981 5.79981 7.79981ZM8.79981 7.79981C8.53459 7.79981 8.28031 7.90524 8.09277 8.09277C7.90524 8.28031 7.79981 8.53459 7.79981 8.79981C7.79981 9.06502 7.90524 9.3193 8.09277 9.50684C8.28031 9.69437 8.53459 9.79981 8.79981 9.79981C9.06502 9.79981 9.3193 9.69437 9.50684 9.50684C9.69437 9.3193 9.79981 9.06502 9.79981 8.79981C9.79981 8.53459 9.69437 8.28031 9.50684 8.09277C9.3193 7.90524 9.06502 7.79981 8.79981 7.79981ZM11.7998 7.79981C11.5346 7.79981 11.2803 7.90524 11.0928 8.09277C10.9052 8.28031 10.7998 8.53459 10.7998 8.79981C10.7998 9.06502 10.9052 9.3193 11.0928 9.50684C11.2803 9.69437 11.5346 9.79981 11.7998 9.79981C12.065 9.79981 12.3193 9.69437 12.5068 9.50684C12.6944 9.3193 12.7998 9.06502 12.7998 8.79981C12.7998 8.53459 12.6944 8.28031 12.5068 8.09277C12.3193 7.90524 12.065 7.79981 11.7998 7.79981ZM14.7998 7.79981C14.5346 7.79981 14.2803 7.90524 14.0928 8.09277C13.9052 8.28031 13.7998 8.53459 13.7998 8.79981C13.7998 9.06502 13.9052 9.3193 14.0928 9.50684C14.2803 9.69437 14.5346 9.79981 14.7998 9.79981C15.065 9.79981 15.3193 9.69437 15.5068 9.50684C15.6944 9.3193 15.7998 9.06502 15.7998 8.79981C15.7998 8.53459 15.6944 8.28031 15.5068 8.09277C15.3193 7.90524 15.065 7.79981 14.7998 7.79981ZM17.7998 7.79981C17.5346 7.79981 17.2803 7.90524 17.0928 8.09277C16.9052 8.28031 16.7998 8.53459 16.7998 8.79981C16.7998 9.06502 16.9052 9.3193 17.0928 9.50684C17.2803 9.69437 17.5346 9.79981 17.7998 9.79981C18.065 9.79981 18.3193 9.69437 18.5068 9.50684C18.6944 9.3193 18.7998 9.06502 18.7998 8.79981C18.7998 8.53459 18.6944 8.28031 18.5068 8.09277C18.3193 7.90524 18.065 7.79981 17.7998 7.79981Z" fill="#33363D"/>
</svg>
