<svg width="24" height="24" viewBox="0 0 24 24" fill="none" xmlns="http://www.w3.org/2000/svg">
<path d="M6.79981 8.79981C6.79981 9.06502 6.69445 9.31938 6.50691 9.50691C6.31938 9.69445 6.06502 9.79981 5.79981 9.79981C5.53459 9.79981 5.28024 9.69445 5.0927 9.50691C4.90516 9.31938 4.79981 9.06502 4.79981 8.79981C4.79981 8.53459 4.90516 8.28024 5.0927 8.0927C5.28024 7.90516 5.53459 7.79981 5.79981 7.79981C6.06502 7.79981 6.31938 7.90516 6.50691 8.0927C6.69445 8.28024 6.79981 8.53459 6.79981 8.79981ZM6.79981 11.7998C6.79981 12.065 6.69445 12.3194 6.50691 12.5069C6.31938 12.6944 6.06502 12.7998 5.79981 12.7998C5.53459 12.7998 5.28024 12.6944 5.0927 12.5069C4.90516 12.3194 4.79981 12.065 4.79981 11.7998C4.79981 11.5346 4.90516 11.2802 5.0927 11.0927C5.28024 10.9052 5.53459 10.7998 5.79981 10.7998C6.06502 10.7998 6.31938 10.9052 6.50691 11.0927C6.69445 11.2802 6.79981 11.5346 6.79981 11.7998ZM9.79981 11.7998C9.79981 12.065 9.69445 12.3194 9.50691 12.5069C9.31938 12.6944 9.06502 12.7998 8.79981 12.7998C8.53459 12.7998 8.28024 12.6944 8.0927 12.5069C7.90516 12.3194 7.79981 12.065 7.79981 11.7998C7.79981 11.5346 7.90516 11.2802 8.0927 11.0927C8.28024 10.9052 8.53459 10.7998 8.79981 10.7998C9.06502 10.7998 9.31938 10.9052 9.50691 11.0927C9.69445 11.2802 9.79981 11.5346 9.79981 11.7998ZM9.79981 8.79981C9.79981 9.06502 9.69445 9.31938 9.50691 9.50691C9.31938 9.69445 9.06502 9.79981 8.79981 9.79981C8.53459 9.79981 8.28024 9.69445 8.0927 9.50691C7.90516 9.31938 7.79981 9.06502 7.79981 8.79981C7.79981 8.53459 7.90516 8.28024 8.0927 8.0927C8.28024 7.90516 8.53459 7.79981 8.79981 7.79981C9.06502 7.79981 9.31938 7.90516 9.50691 8.0927C9.69445 8.28024 9.79981 8.53459 9.79981 8.79981ZM12.7998 8.79981C12.7998 9.06502 12.6944 9.31938 12.5069 9.50691C12.3194 9.69445 12.065 9.79981 11.7998 9.79981C11.5346 9.79981 11.2802 9.69445 11.0927 9.50691C10.9052 9.31938 10.7998 9.06502 10.7998 8.79981C10.7998 8.53459 10.9052 8.28024 11.0927 8.0927C11.2802 7.90516 11.5346 7.79981 11.7998 7.79981C12.065 7.79981 12.3194 7.90516 12.5069 8.0927C12.6944 8.28024 12.7998 8.53459 12.7998 8.79981ZM12.7998 11.7998C12.7998 12.065 12.6944 12.3194 12.5069 12.5069C12.3194 12.6944 12.065 12.7998 11.7998 12.7998C11.5346 12.7998 11.2802 12.6944 11.0927 12.5069C10.9052 12.3194 10.7998 12.065 10.7998 11.7998C10.7998 11.5346 10.9052 11.2802 11.0927 11.0927C11.2802 10.9052 11.5346 10.7998 11.7998 10.7998C12.065 10.7998 12.3194 10.9052 12.5069 11.0927C12.6944 11.2802 12.7998 11.5346 12.7998 11.7998ZM15.7998 8.79981C15.7998 9.06502 15.6944 9.31938 15.5069 9.50691C15.3194 9.69445 15.065 9.79981 14.7998 9.79981C14.5346 9.79981 14.2802 9.69445 14.0927 9.50691C13.9052 9.31938 13.7998 9.06502 13.7998 8.79981C13.7998 8.53459 13.9052 8.28024 14.0927 8.0927C14.2802 7.90516 14.5346 7.79981 14.7998 7.79981C15.065 7.79981 15.3194 7.90516 15.5069 8.0927C15.6944 8.28024 15.7998 8.53459 15.7998 8.79981ZM15.7998 11.7998C15.7998 12.065 15.6944 12.3194 15.5069 12.5069C15.3194 12.6944 15.065 12.7998 14.7998 12.7998C14.5346 12.7998 14.2802 12.6944 14.0927 12.5069C13.9052 12.3194 13.7998 12.065 13.7998 11.7998C13.7998 11.5346 13.9052 11.2802 14.0927 11.0927C14.2802 10.9052 14.5346 10.7998 14.7998 10.7998C15.065 10.7998 15.3194 10.9052 15.5069 11.0927C15.6944 11.2802 15.7998 11.5346 15.7998 11.7998ZM18.7998 8.79981C18.7998 9.06502 18.6945 9.31938 18.5069 9.50691C18.3194 9.69445 18.065 9.79981 17.7998 9.79981C17.5346 9.79981 17.2802 9.69445 17.0927 9.50691C16.9052 9.31938 16.7998 9.06502 16.7998 8.79981C16.7998 8.53459 16.9052 8.28024 17.0927 8.0927C17.2802 7.90516 17.5346 7.79981 17.7998 7.79981C18.065 7.79981 18.3194 7.90516 18.5069 8.0927C18.6945 8.28024 18.7998 8.53459 18.7998 8.79981ZM18.7998 11.7998C18.7998 12.065 18.6945 12.3194 18.5069 12.5069C18.3194 12.6944 18.065 12.7998 17.7998 12.7998C17.5346 12.7998 17.2802 12.6944 17.0927 12.5069C16.9052 12.3194 16.7998 12.065 16.7998 11.7998C16.7998 11.5346 16.9052 11.2802 17.0927 11.0927C17.2802 10.9052 17.5346 10.7998 17.7998 10.7998C18.065 10.7998 18.3194 10.9052 18.5069 11.0927C18.6945 11.2802 18.7998 11.5346 18.7998 11.7998Z" fill="#33363D"/>
<path d="M21 10.7998C21 9.36319 20.9985 8.36554 20.8975 7.61426C20.7995 6.88631 20.6211 6.51055 20.3555 6.24512L20.3545 6.24414C20.0891 5.97849 19.7133 5.80009 18.9854 5.70215C18.2341 5.60111 17.2364 5.59961 15.7998 5.59961H7.79981C6.36319 5.59961 5.36554 5.60111 4.61426 5.70215C3.88631 5.80009 3.51055 5.97849 3.24512 6.24414L3.24414 6.24512C2.97849 6.51055 2.80009 6.88631 2.70215 7.61426C2.60111 8.36554 2.59961 9.36319 2.59961 10.7998V12.7998C2.59961 14.2364 2.60111 15.2341 2.70215 15.9854C2.80009 16.7133 2.97849 17.0891 3.24414 17.3545L3.24512 17.3555C3.51055 17.6211 3.88631 17.7995 4.61426 17.8975C5.36554 17.9985 6.36319 18 7.79981 18H15.7998C17.2364 18 18.2341 17.9985 18.9854 17.8975C19.7133 17.7995 20.0891 17.6211 20.3545 17.3555L20.3555 17.3545C20.6211 17.0891 20.7995 16.7133 20.8975 15.9854C20.9985 15.2341 21 14.2364 21 12.7998V10.7998ZM22.5996 12.7998C22.5996 14.1912 22.6011 15.3155 22.4824 16.1982C22.3682 17.0473 22.1312 17.7774 21.5967 18.3701L21.4863 18.4863C20.8739 19.0993 20.1037 19.3606 19.1982 19.4824C18.3155 19.6011 17.1912 19.5996 15.7998 19.5996H7.79981C6.40843 19.5996 5.28408 19.6011 4.40137 19.4824C3.55226 19.3682 2.82216 19.1312 2.22949 18.5967L2.11328 18.4863C1.50032 17.8739 1.23897 17.1037 1.11719 16.1982C0.998476 15.3155 1 14.1912 1 12.7998V10.7998C1 9.40843 0.998476 8.28408 1.11719 7.40137C1.23897 6.49591 1.50032 5.72572 2.11328 5.11328L2.22949 5.00293C2.82216 4.46837 3.55226 4.23139 4.40137 4.11719C5.28408 3.99848 6.40843 4 7.79981 4H15.7998C17.1912 4 18.3155 3.99848 19.1982 4.11719C20.1037 4.23897 20.8739 4.50032 21.4863 5.11328L21.5967 5.22949C22.1312 5.82216 22.3682 6.55226 22.4824 7.40137C22.6011 8.28408 22.5996 9.40843 22.5996 10.7998V12.7998Z" fill="#33363D"/>
<path d="M16.7998 15C17.2416 15 17.5996 15.358 17.5996 15.7998C17.5996 16.2416 17.2416 16.5996 16.7998 16.5996H6.79981C6.35798 16.5996 6 16.2416 6 15.7998C6 15.358 6.35798 15 6.79981 15H16.7998Z" fill="#33363D"/>
</svg>
