<svg width="32" height="32" viewBox="0 0 32 32" fill="none" xmlns="http://www.w3.org/2000/svg">
<g clip-path="url(#clip0_4428_127274)">
<g clip-path="url(#clip1_4428_127274)">
<path d="M21.5996 17.0928V8C21.5996 7.88967 21.5107 7.80002 21.4004 7.7998H9C8.88954 7.7998 8.7998 7.88954 8.7998 8V24.4004C8.80002 24.5107 8.88967 24.5996 9 24.5996H14.2773C14.3312 24.5996 14.3833 24.5786 14.4209 24.54L21.543 17.2324L21.585 17.1689C21.5947 17.1451 21.5996 17.119 21.5996 17.0928ZM23.2002 17.0928C23.2002 17.5037 23.0595 17.9008 22.8047 18.2188L22.6885 18.3496L15.5664 25.6562C15.2276 26.0038 14.7627 26.2002 14.2773 26.2002H9C8.00602 26.2002 7.20041 25.3943 7.2002 24.4004V8C7.2002 7.00589 8.00589 6.2002 9 6.2002H21.4004C22.3943 6.20041 23.2002 7.00602 23.2002 8V17.0928Z" fill="#33363D"/>
<path d="M19.1121 14.1587C19.7405 13.646 20.6678 13.6832 21.2537 14.269L24.3308 17.3452L24.4373 17.4634C24.6703 17.748 24.7996 18.1059 24.7996 18.4771C24.7996 18.8482 24.6703 19.2061 24.4373 19.4907L24.3308 19.6079L17.407 26.5317C17.107 26.8316 16.7003 27.0005 16.2761 27.0005H13.199C12.3154 27.0004 11.5994 26.2835 11.5994 25.3999V22.3228L11.6072 22.1646C11.6436 21.7985 11.8057 21.4543 12.0681 21.1919L18.991 14.269L19.1121 14.1587ZM14.7996 22.9858V23.8003H15.613L18.6287 20.7847L17.8142 19.9702L14.7996 22.9858ZM20.0769 17.7075L20.8914 18.522L20.9363 18.4771L20.1218 17.6626L20.0769 17.7075Z" fill="#33363D" stroke="white" stroke-width="1.6" stroke-linecap="round" stroke-linejoin="round"/>
<path d="M18.1992 10.2002L18.2812 10.2041C18.6845 10.2452 18.999 10.5859 18.999 11C18.999 11.4141 18.6845 11.7548 18.2812 11.7959L18.1992 11.7998H11.1992C10.7574 11.7998 10.3994 11.4418 10.3994 11C10.3994 10.5582 10.7574 10.2002 11.1992 10.2002H18.1992Z" fill="#33363D"/>
<path d="M16.1992 13.6001L16.2812 13.604C16.6845 13.6451 16.999 13.9858 16.999 14.3999C16.999 14.814 16.6845 15.1547 16.2812 15.1958L16.1992 15.1997H11.1992C10.7574 15.1997 10.3994 14.8417 10.3994 14.3999C10.3994 13.9581 10.7574 13.6001 11.1992 13.6001H16.1992Z" fill="#33363D"/>
</g>
</g>
<defs>
<clipPath id="clip0_4428_127274">
<rect width="32" height="32" fill="white"/>
</clipPath>
<clipPath id="clip1_4428_127274">
<rect width="24" height="24" fill="white" transform="translate(4 4)"/>
</clipPath>
</defs>
</svg>
