<svg width="24" height="24" viewBox="0 0 24 24" fill="none" xmlns="http://www.w3.org/2000/svg">
<ellipse cx="11.828" cy="18.6556" rx="11.3778" ry="2.13333" fill="#FDCFC3"/>
<path d="M3.26335 11.1306C2.7804 10.8918 2.31329 11.4806 2.65571 11.8966L4.98819 14.7299C5.02326 14.7725 5.05103 14.8206 5.07039 14.8723L6.35787 18.3089C6.54688 18.8134 7.29038 18.7033 7.32506 18.1657L7.61778 13.6269C7.63077 13.4254 7.52137 13.236 7.34043 13.1465L3.26335 11.1306Z" fill="#D63D4A"/>
<path d="M16.3925 9.17815C16.333 8.61538 16.0379 8.10417 15.5803 7.77124L8.97197 2.96343C8.58459 2.68159 8.06757 2.65433 7.6527 2.89385C7.0729 3.2286 6.87425 3.96998 7.209 4.54977L14.9968 18.0386C15.3315 18.6184 16.0729 18.8171 16.6527 18.4823C17.0676 18.2428 17.3025 17.7814 17.2521 17.305L16.3925 9.17815Z" fill="#D63D4A"/>
<path d="M13.4776 6.79221C14.8834 5.76653 16.6257 5.31195 18.3534 5.5201C19.4913 5.65719 20.1789 6.84826 19.7287 7.90224C19.0451 9.50252 17.7803 10.7841 16.1891 11.4887L7.16222 15.486C6.38219 15.8314 5.46723 15.5331 5.04068 14.7943C4.61413 14.0555 4.81327 13.1139 5.50243 12.6111L13.4776 6.79221Z" fill="#FA967C"/>
<path d="M15.9122 6.57793C15.6392 6.66606 15.5449 6.98763 15.6884 7.23609L16.9102 9.35237C17.0537 9.60083 17.3793 9.67997 17.5921 9.48758C18.027 9.09445 18.3639 8.58573 18.5711 7.99585C18.7944 7.36031 18.3556 6.60037 17.6936 6.47596C17.0791 6.3605 16.4701 6.39787 15.9122 6.57793Z" fill="white"/>
</svg>
