<svg width="24" height="25" viewBox="0 0 24 25" fill="none" xmlns="http://www.w3.org/2000/svg">
<path d="M4.03852 14.538C5.12958 14.538 6.01405 13.6535 6.01405 12.5624C6.01405 11.4714 5.12958 10.5869 4.03852 10.5869C2.94746 10.5869 2.06299 11.4714 2.06299 12.5624C2.06299 13.6535 2.94746 14.538 4.03852 14.538Z" fill="#FA967C"/>
<path d="M19.9619 14.538C21.0529 14.538 21.9374 13.6535 21.9374 12.5624C21.9374 11.4714 21.0529 10.5869 19.9619 10.5869C18.8708 10.5869 17.9863 11.4714 17.9863 12.5624C17.9863 13.6535 18.8708 14.538 19.9619 14.538Z" fill="#FA967C"/>
<path d="M12.0001 20.4875C16.3769 20.4875 19.925 16.9394 19.925 12.5626C19.925 8.1858 16.3769 4.6377 12.0001 4.6377C7.6233 4.6377 4.0752 8.1858 4.0752 12.5626C4.0752 16.9394 7.6233 20.4875 12.0001 20.4875Z" fill="#FA967C"/>
<ellipse cx="17.4504" cy="14.4399" rx="1.41667" ry="0.991667" fill="white"/>
<ellipse cx="6.61686" cy="14.4399" rx="1.41667" ry="0.991667" fill="white"/>
<path d="M9.77693 13.0546C10.1626 13.0546 10.4752 12.697 10.4752 12.2558C10.4752 11.8147 10.1626 11.457 9.77693 11.457C9.39126 11.457 9.07861 11.8147 9.07861 12.2558C9.07861 12.697 9.39126 13.0546 9.77693 13.0546Z" fill="#D22424"/>
<path d="M14.922 12.2558C14.922 12.6972 14.6091 13.0546 14.2237 13.0546C13.8383 13.0546 13.5254 12.6972 13.5254 12.2558C13.5254 11.8144 13.8383 11.457 14.2237 11.457C14.6091 11.457 14.922 11.8144 14.922 12.2558Z" fill="#D22424"/>
<path d="M4.14746 11.8563C4.14746 11.8563 7.42716 10.5101 9.41145 7.06208C9.41145 7.06208 9.58324 8.74487 8.98024 10.007H15.0208C15.0208 10.007 15.1926 8.91315 14.7613 6.97794C14.7613 6.97794 16.5738 10.0911 19.8518 11.3515C19.8518 11.3515 19.9377 4.11719 12.0864 4.11719C4.23511 4.11719 4.14746 10.3418 4.14746 11.8563Z" fill="#D63D4A"/>
<path d="M9.70752 14.1641C9.70752 15.4306 10.7336 16.4566 12.0001 16.4566C13.2666 16.4566 14.2927 15.4306 14.2927 14.1641H9.70917H9.70752Z" fill="#D63D4A"/>
</svg>
