<svg width="14" height="12" viewBox="0 0 14 12" fill="none" xmlns="http://www.w3.org/2000/svg">
<mask id="mask0_7597_155676" style="mask-type:alpha" maskUnits="userSpaceOnUse" x="1" y="0" width="13" height="12">
<path d="M5.26831 3.13716L4.10842 6.38486H3.36343C2.05814 6.38486 1 7.443 1 8.74829V9.6988C1 10.6778 1.79361 11.4714 2.77257 11.4714H5.39237C5.84556 11.4714 6.28919 11.3411 6.67041 11.096L12.4524 7.37899C13.2972 6.83591 13.5225 5.70013 12.949 4.87569L10.1998 0.923713C9.91341 0.512025 9.26294 0.621846 9.02923 1.06556C8.77277 1.55245 8.45423 1.92102 8.0646 2.1461C7.5009 2.47174 6.82841 2.53695 6.26824 2.51312C5.83471 2.49468 5.41426 2.72853 5.26831 3.13716Z" fill="#FA967C"/>
</mask>
<g mask="url(#mask0_7597_155676)">
<path fill-rule="evenodd" clip-rule="evenodd" d="M2.56477 4.23729C2.56477 3.98758 2.76719 3.78516 3.0169 3.78516H5.84274C6.09245 3.78516 6.29487 3.98758 6.29487 4.23729C6.29487 4.487 6.09245 4.68942 5.84274 4.68942H3.0169C2.76719 4.68942 2.56477 4.487 2.56477 4.23729ZM1.79102 5.93259C1.79102 5.68289 1.99344 5.48046 2.24315 5.48046H6.19932C6.44903 5.48046 6.65146 5.68289 6.65146 5.93259C6.65146 6.1823 6.44903 6.38473 6.19932 6.38473H2.24315C1.99344 6.38473 1.79102 6.1823 1.79102 5.93259Z" fill="#33363D"/>
<path d="M12.9006 4.21905C13.026 4.15207 13.1741 4.13769 13.3114 4.18064C13.4682 4.22972 13.5935 4.34847 13.6513 4.50225L14.4989 6.76332C14.5853 6.99368 14.5031 7.25324 14.2997 7.39158L7.23525 12.1956C7.15338 12.2513 7.05747 12.2831 6.95856 12.2874L0.459209 12.57C0.291062 12.5773 0.128794 12.5044 0.0223597 12.374C-0.0838532 12.2437 -0.12248 12.0709 -0.0818069 11.9079L0.467672 9.70798C0.467661 9.70505 0.467672 9.7018 0.467672 9.69887C0.467848 9.40449 0.706461 9.1657 1.00088 9.16566C1.10196 9.16566 1.19636 9.19429 1.27692 9.24314H5.43577C5.56762 9.24313 5.6965 9.20295 5.80491 9.1279L12.8485 4.25095L12.9006 4.21905ZM1.12653 11.473L1.29189 11.4658C1.24585 11.4271 1.2013 11.3868 1.15843 11.3447L1.12653 11.473ZM6.41168 10.0049C6.12493 10.2033 5.78449 10.3095 5.43577 10.3095H1.69554C1.90851 10.6849 2.31129 10.9385 2.77366 10.9385H5.39345C5.7443 10.9384 6.08791 10.8378 6.38304 10.6481L12.1649 6.93064C12.6078 6.64592 12.8069 6.12838 12.7099 5.64418L6.41168 10.0049Z" fill="#33363D"/>
</g>
<path d="M9.52148 0.145431C9.91113 0.0915814 10.3598 0.22036 10.6374 0.619389L13.3867 4.57121C14.1327 5.6437 13.8398 7.12125 12.7409 7.82772L6.95898 11.5445C6.4918 11.8448 5.94796 12.0048 5.39258 12.0048H2.77279C1.4993 12.0048 0.46685 10.9723 0.466797 9.69882V8.74829C0.466797 7.14851 1.76351 5.85124 3.36328 5.85116H3.73242L4.76628 2.95793C5.00498 2.28956 5.6689 1.9536 6.29102 1.98007C6.80531 2.00193 7.35984 1.9372 7.79753 1.68449C8.07557 1.52387 8.33253 1.24338 8.55729 0.816655C8.76106 0.429959 9.13878 0.198398 9.52148 0.145431ZM1.5332 9.69882C1.53326 10.3832 2.08841 10.9377 2.77279 10.9377H5.39258C5.74343 10.9377 6.08703 10.8371 6.38216 10.6474L12.1641 6.93059C12.7547 6.55091 12.912 5.75632 12.5111 5.17994L9.76172 1.22811C9.75303 1.21568 9.74555 1.21088 9.73633 1.20728C9.72413 1.20255 9.70099 1.19754 9.66797 1.20207C9.59559 1.21207 9.53124 1.25726 9.5013 1.31405C9.21317 1.86108 8.83256 2.31812 8.33138 2.60767C7.64175 3.00606 6.85132 3.0716 6.24544 3.04582C6.00058 3.03545 5.824 3.16778 5.77083 3.31665L4.61068 6.56405C4.5349 6.77622 4.334 6.91809 4.10872 6.91822H3.36328C2.35262 6.9183 1.5332 7.73761 1.5332 8.74829V9.69882Z" fill="#33363D"/>
</svg>
