<svg width="24" height="25" viewBox="0 0 24 25" fill="none" xmlns="http://www.w3.org/2000/svg">
<g style="mix-blend-mode:multiply">
<path fill-rule="evenodd" clip-rule="evenodd" d="M7.38444 4.40373C6.42203 4.49906 5.65057 5.19585 5.39032 6.12729L4.45949 9.45868C4.44177 9.52207 4.42709 9.58518 4.41541 9.64778L2.96703 9.44422C2.50773 9.37967 2.08306 9.69968 2.01851 10.159C1.88941 11.0776 2.52943 11.9269 3.44803 12.056L3.51378 12.0653C3.57298 12.0736 3.61594 12.1255 3.61594 12.1852V12.6049V13.8649V17.6438C3.61594 18.3395 4.17994 18.9035 4.87566 18.9035H5.71548C6.4112 18.9035 6.9752 18.3395 6.9752 17.6438V16.8042C6.9752 16.5723 7.1632 16.3843 7.39511 16.3843H15.7948C16.0267 16.3843 16.2147 16.5723 16.2147 16.8042V17.6438C16.2147 18.3395 16.7787 18.9035 17.4744 18.9035H18.3143C19.01 18.9035 19.574 18.3395 19.574 17.6438V12.6049C19.574 12.5837 19.5735 12.5626 19.5724 12.5417V12.1853C19.5724 12.126 19.615 12.0745 19.6738 12.0663L19.7397 12.057C20.6583 11.9279 21.2983 11.0786 21.1692 10.16C21.1046 9.70065 20.68 9.38064 20.2207 9.44519L18.7764 9.64817C18.7647 9.58544 18.75 9.5222 18.7323 9.45868L17.8014 6.12729C17.5412 5.19585 16.7697 4.49906 15.8073 4.40373C14.8074 4.30469 13.367 4.20605 11.5959 4.20605C9.82474 4.20605 8.38433 4.30469 7.38444 4.40373Z" fill="white"/>
<g style="mix-blend-mode:multiply">
<path fill-rule="evenodd" clip-rule="evenodd" d="M2.96508 9.44285C2.50577 9.3783 2.08111 9.69831 2.01656 10.1576C1.88745 11.0762 2.52747 11.9256 3.44608 12.0547L3.51182 12.0639C3.57103 12.0722 3.61399 12.1241 3.61399 12.1839V12.1839V12.6035V13.8635V17.6424C3.61399 18.3381 4.17798 18.9021 4.87371 18.9021H5.71352C6.40925 18.9021 6.97325 18.3381 6.97325 17.6424V16.8029C6.97325 16.5709 7.16124 16.383 7.39315 16.383H15.7929C16.0248 16.383 16.2128 16.5709 16.2128 16.8029V17.6424C16.2128 18.3381 16.7768 18.9021 17.4725 18.9021H18.3123C19.008 18.9021 19.572 18.3381 19.572 17.6424V12.6035C19.572 12.5823 19.5715 12.5612 19.5705 12.5403V12.1839V12.1839C19.5705 12.1246 19.6131 12.0731 19.6718 12.0649L19.7377 12.0556C20.6563 11.9265 21.2963 11.0772 21.1672 10.1586C21.1027 9.69928 20.678 9.37927 20.2187 9.44382L17.9079 9.76858C17.8457 9.77732 17.7825 9.77145 17.722 9.75476C17.5084 9.69588 17.2834 9.66443 17.051 9.66443H6.13343C5.90172 9.66443 5.67732 9.69571 5.46422 9.75428C5.40378 9.77089 5.3407 9.77672 5.27864 9.768L2.96508 9.44285Z" fill="#FA967C"/>
</g>
<path d="M5.38792 6.12436C5.64818 5.19292 6.41964 4.49613 7.38205 4.4008C8.38194 4.30176 9.82235 4.20312 11.5935 4.20312C13.3646 4.20312 14.805 4.30176 15.8049 4.4008C16.7673 4.49613 17.5388 5.19292 17.7991 6.12436L18.7299 9.45575C18.9882 10.3803 18.6019 11.2421 17.6555 11.4026C16.5642 11.5877 14.7099 11.7615 11.5935 11.7615C8.47706 11.7615 6.62275 11.5877 5.5315 11.4026C4.58509 11.2421 4.19877 10.3803 4.45709 9.45575L5.38792 6.12436Z" fill="#D63D4A"/>
<path d="M7.29025 5.73233C7.99173 5.60703 9.26548 5.42853 10.7361 5.34122C10.9386 5.32919 11.0033 5.71956 10.8159 5.79713C9.31499 6.41822 7.84126 7.39407 6.88073 8.16504C6.67672 8.32879 6.34341 8.11857 6.41832 7.86792L6.97029 6.02094C7.01479 5.87205 7.13727 5.75965 7.29025 5.73233Z" fill="white"/>
<path d="M13.7344 16.8505C13.7344 19.1221 16.7403 20.7958 17.8675 20.7958C18.9947 20.7958 22.0007 19.1221 22.0007 16.8505C22.0007 15.6549 22.0007 14.5727 22.0007 13.8159C22.0007 13.1614 21.5771 12.5826 20.9534 12.3842L18.5511 11.6198C18.1064 11.4783 17.6287 11.4783 17.184 11.6198L14.7816 12.3842C14.1579 12.5826 13.7344 13.1614 13.7344 13.8159C13.7344 14.5727 13.7344 15.6549 13.7344 16.8505Z" fill="#D63D4A"/>
<path fill-rule="evenodd" clip-rule="evenodd" d="M19.8393 14.6636C20.0262 14.8505 20.0262 15.1536 19.8393 15.3405L18.0989 17.0809C17.912 17.2678 17.609 17.2678 17.422 17.0809L16.1167 15.7756C15.9298 15.5887 15.9298 15.2856 16.1167 15.0987C16.3037 14.9118 16.6067 14.9118 16.7936 15.0987L17.7605 16.0656L19.1624 14.6636C19.3494 14.4767 19.6524 14.4767 19.8393 14.6636Z" fill="white"/>
</g>
</svg>
