<svg width="24" height="24" viewBox="0 0 24 24" fill="none" xmlns="http://www.w3.org/2000/svg">
<ellipse cx="11.8309" cy="18.6568" rx="11.3778" ry="2.13333" fill="#FDCFC3"/>
<path fill-rule="evenodd" clip-rule="evenodd" d="M12 16.7545C12.4518 16.7545 12.696 17.0124 13.1264 17.5223L13.1501 17.5501C13.5379 18.0091 14.1224 18.7018 15.1801 18.6013C15.8109 18.5407 16.4132 18.1023 16.9171 17.584C17.4424 17.0439 17.9558 16.3222 18.4052 15.5181C19.2981 13.9196 20 11.8839 20 10.117V10.0625C20 8.52455 20 5.39412 17.0049 3.92397C15.8891 3.37902 14.9263 3.45047 14.0869 3.63696C13.8364 3.69563 13.5874 3.76024 13.3399 3.83072C13.1999 3.86947 13.0715 3.90419 12.9545 3.93487C12.6434 4.02335 12.3228 4.07216 12 4.08019C11.7 4.08019 11.3905 4.02327 11.0396 3.93487C10.921 3.9058 10.7906 3.87149 10.6483 3.83193C10.4088 3.76896 10.1503 3.69872 9.90959 3.64544C9.07722 3.46137 8.12154 3.38871 7.02831 3.92518C3.99881 5.41229 4 8.52455 4 10.0674V10.1158C4 11.8923 4.75293 13.9353 5.66593 15.529C6.12598 16.3331 6.64295 17.0524 7.15637 17.5877C7.41248 17.8553 7.67808 18.0878 7.94486 18.2622C8.20691 18.433 8.50452 18.571 8.81873 18.6013C9.87639 18.7018 10.4621 18.0079 10.8499 17.5501L10.8736 17.5223C11.304 17.0137 11.5482 16.7545 12 16.7545Z" fill="#FA967C"/>
<path fill-rule="evenodd" clip-rule="evenodd" d="M14.492 6.94511C14.5259 7.03542 14.5417 7.13153 14.5384 7.22793C14.5351 7.32434 14.5129 7.41917 14.473 7.50698C14.4331 7.5948 14.3762 7.67388 14.3057 7.73972C14.2352 7.80555 14.1524 7.85684 14.0621 7.89066C13.3373 8.162 12.7078 8.32762 12.0465 8.32997C11.3828 8.33114 10.7497 8.16904 10.0179 7.88831C9.92791 7.85376 9.84559 7.80182 9.77566 7.73545C9.70573 7.66909 9.64955 7.5896 9.61034 7.50152C9.57113 7.41345 9.54965 7.31851 9.54713 7.22213C9.5446 7.12576 9.56109 7.02983 9.59564 6.93982C9.6302 6.84982 9.68214 6.7675 9.7485 6.69757C9.81487 6.62764 9.89436 6.57146 9.98243 6.53225C10.0705 6.49304 10.1654 6.47156 10.2618 6.46904C10.3582 6.46651 10.4541 6.483 10.5441 6.51755C11.1925 6.76657 11.633 6.86289 12.0418 6.86171C12.4529 6.85936 12.8945 6.7607 13.5476 6.5152C13.7298 6.44709 13.9317 6.45411 14.1088 6.53472C14.2858 6.61533 14.4237 6.76294 14.492 6.94511Z" fill="#D63D4A"/>
<g style="mix-blend-mode:multiply">
<path d="M22 16C22 18.2091 20.2091 20 18 20C15.7909 20 14 18.2091 14 16C14 13.7909 15.7909 12 18 12C20.2091 12 22 13.7909 22 16Z" fill="white"/>
<path d="M22 16C22 18.2091 20.2091 20 18 20C15.7909 20 14 18.2091 14 16C14 13.7909 15.7909 12 18 12C20.2091 12 22 13.7909 22 16Z" fill="#D63D4A"/>
</g>
<path d="M19.7146 14.5694C19.8949 14.4566 20.1355 14.4818 20.2879 14.6417C20.4402 14.8018 20.4534 15.0434 20.3318 15.2179L20.2723 15.2882L17.8689 17.5743C17.7809 17.6579 17.6632 17.7036 17.5418 17.7003C17.4203 17.697 17.3049 17.6451 17.2215 17.5567L15.6238 15.8624L15.5682 15.7891C15.4563 15.6084 15.4827 15.3685 15.6434 15.2169C15.8041 15.0653 16.0456 15.0525 16.2195 15.1749L16.2898 15.2354L17.5711 16.5948L19.6414 14.6261L19.7146 14.5694Z" fill="white"/>
</svg>
