<svg width="16" height="16" viewBox="0 0 16 16" fill="none" xmlns="http://www.w3.org/2000/svg">
<g clip-path="url(#clip0_7597_160566)">
<path d="M11.6006 1.4668C12.2631 1.46711 12.7998 2.00445 12.7998 2.66699V7.22559C12.4738 6.9819 12.1156 6.77913 11.7334 6.62305V2.66699C11.7334 2.59355 11.674 2.53352 11.6006 2.5332H3.33301C3.25952 2.53338 3.2002 2.59346 3.2002 2.66699V13.6006C3.20051 13.6738 3.25971 13.7332 3.33301 13.7334H5.8418C6.10116 14.1335 6.41764 14.4928 6.78027 14.7998H3.33301C2.67061 14.7996 2.13411 14.2629 2.13379 13.6006V2.66699C2.13379 2.00436 2.67042 1.46697 3.33301 1.4668H11.6006Z" fill="#33363D"/>
<path d="M9.46647 4.13379L9.52116 4.13639C9.79002 4.16378 9.99967 4.3909 9.99967 4.66699C9.99967 4.94308 9.79002 5.17021 9.52116 5.19759L9.46647 5.2002H4.7998C4.50525 5.2002 4.2666 4.96154 4.2666 4.66699C4.2666 4.37244 4.50525 4.13379 4.7998 4.13379H9.46647Z" fill="#33363D"/>
<path d="M8.13314 6.40039L8.18783 6.40299C8.45669 6.43038 8.66634 6.6575 8.66634 6.93359C8.66634 7.20968 8.45669 7.43681 8.18783 7.46419L8.13314 7.4668H4.7998C4.50525 7.4668 4.2666 7.22815 4.2666 6.93359C4.2666 6.63904 4.50525 6.40039 4.7998 6.40039H8.13314Z" fill="#33363D"/>
<path d="M12.2103 11.1051C12.2103 9.83205 11.178 8.79983 9.90495 8.7998C8.63184 8.7998 7.59961 9.83203 7.59961 11.1051C7.59963 12.3782 8.63185 13.4105 9.90495 13.4105C10.5274 13.4105 11.0918 13.163 11.5065 12.762C11.5184 12.7476 11.5313 12.7338 11.5449 12.7204C11.5541 12.7113 11.5639 12.7026 11.5736 12.6943C11.9676 12.2807 12.2103 11.7215 12.2103 11.1051ZM13.2767 11.1051C13.2767 11.8398 13.0408 12.5187 12.6419 13.0726L13.7135 14.1585C13.9204 14.3682 13.918 14.7062 13.7083 14.9131C13.5118 15.1068 13.2031 15.117 12.9948 14.945L12.9544 14.9079L11.8906 13.8291C11.3335 14.2359 10.6476 14.4769 9.90495 14.4769C8.04275 14.4769 6.53322 12.9673 6.5332 11.1051C6.5332 9.24293 8.04274 7.7334 9.90495 7.7334C11.7671 7.73342 13.2767 9.24294 13.2767 11.1051Z" fill="#33363D"/>
</g>
<defs>
<clipPath id="clip0_7597_160566">
<rect width="16" height="16" fill="white"/>
</clipPath>
</defs>
</svg>
