<svg width="24" height="24" viewBox="0 0 24 24" fill="none" xmlns="http://www.w3.org/2000/svg">
<g style="mix-blend-mode:multiply">
<ellipse cx="11.8309" cy="19.6568" rx="11.3778" ry="2.13333" fill="#FDCFC3"/>
<g style="mix-blend-mode:multiply">
<path d="M2.90909 4H13.8182C14.0593 4 14.2905 4.09579 14.461 4.26628C14.6315 4.43676 14.7273 4.66798 14.7273 4.90909V17.6364H2.90909C2.66798 17.6364 2.43676 17.5405 2.26628 17.3701C2.09579 17.1996 2 16.9684 2 16.7273V4.90909C2 4.66798 2.09579 4.43676 2.26628 4.26628C2.43676 4.09579 2.66798 4 2.90909 4Z" fill="#D63D4A"/>
</g>
<path d="M21.0902 17.6435H14.7266V6.73438H17.4538C17.7262 6.73454 17.995 6.7959 18.2405 6.91391C18.486 7.03192 18.7018 7.20357 18.872 7.41619L21.5993 10.7799C21.8579 11.1021 21.9989 11.5029 21.9993 11.9162V16.7344C21.9993 16.9755 21.9035 17.2067 21.733 17.3772C21.5626 17.5477 21.3313 17.6435 21.0902 17.6435Z" fill="#FA967C"/>
<g style="mix-blend-mode:multiply">
<path d="M6.09304 20.3658C7.34823 20.3658 8.36577 19.3482 8.36577 18.093C8.36577 16.8379 7.34823 15.8203 6.09304 15.8203C4.83785 15.8203 3.82031 16.8379 3.82031 18.093C3.82031 19.3482 4.83785 20.3658 6.09304 20.3658Z" fill="#D63D4A"/>
</g>
<path d="M6.08878 18.9979C6.59085 18.9979 6.99787 18.5909 6.99787 18.0888C6.99787 17.5867 6.59085 17.1797 6.08878 17.1797C5.5867 17.1797 5.17969 17.5867 5.17969 18.0888C5.17969 18.5909 5.5867 18.9979 6.08878 18.9979Z" fill="white"/>
<g style="mix-blend-mode:multiply">
<path d="M17.9055 20.3658C19.1607 20.3658 20.1783 19.3482 20.1783 18.093C20.1783 16.8379 19.1607 15.8203 17.9055 15.8203C16.6504 15.8203 15.6328 16.8379 15.6328 18.093C15.6328 19.3482 16.6504 20.3658 17.9055 20.3658Z" fill="#D63D4A"/>
</g>
<path d="M17.9091 18.9979C18.4112 18.9979 18.8182 18.5909 18.8182 18.0888C18.8182 17.5867 18.4112 17.1797 17.9091 17.1797C17.407 17.1797 17 17.5867 17 18.0888C17 18.5909 17.407 18.9979 17.9091 18.9979Z" fill="white"/>
<g style="mix-blend-mode:multiply">
<path d="M19.056 7.64844H17.456C17.2149 7.64844 16.9836 7.74421 16.8131 7.9147C16.6427 8.08518 16.5469 8.31642 16.5469 8.55753V11.0576C16.5469 11.2986 16.6427 11.5298 16.8131 11.7004C16.9836 11.8708 17.2149 11.9666 17.456 11.9666H22.0014C22.0022 11.5418 21.8907 11.1301 21.6196 10.803L19.056 7.64844Z" fill="#D63D4A"/>
</g>
</g>
</svg>
