<svg width="17" height="16" viewBox="0 0 17 16" fill="none" xmlns="http://www.w3.org/2000/svg">
<path d="M2.8335 3.6665C2.8335 2.56193 3.72893 1.6665 4.8335 1.6665H12.1668C13.2714 1.6665 14.1668 2.56193 14.1668 3.6665V7.09214C14.1668 9.10021 13.1041 10.9583 11.3733 11.9764C9.5999 13.0196 7.40043 13.0196 5.62705 11.9764C3.89623 10.9583 2.8335 9.10021 2.8335 7.09214V3.6665Z" fill="#FA967C"/>
<rect x="5.8335" y="12.3335" width="5.33333" height="2" rx="1" fill="#D63D4A"/>
<path fill-rule="evenodd" clip-rule="evenodd" d="M9.1665 5.1665C9.1665 4.89036 8.94265 4.6665 8.6665 4.6665H8.33317C8.05703 4.6665 7.83317 4.89036 7.83317 5.1665V6.33317H6.6665C6.39036 6.33317 6.1665 6.55703 6.1665 6.83317V7.1665C6.1665 7.44265 6.39036 7.6665 6.6665 7.6665H7.83317V8.83317C7.83317 9.10931 8.05703 9.33317 8.33317 9.33317H8.6665C8.94265 9.33317 9.1665 9.10931 9.1665 8.83317V7.6665H10.3332C10.6093 7.6665 10.8332 7.44265 10.8332 7.1665V6.83317C10.8332 6.55703 10.6093 6.33317 10.3332 6.33317H9.1665V5.1665Z" fill="#D63D4A"/>
</svg>
