<svg width="24" height="24" viewBox="0 0 24 24" fill="none" xmlns="http://www.w3.org/2000/svg">
<path d="M20.75 11.75C20.75 16.5825 16.8325 20.5 12 20.5C7.16751 20.5 3.25 16.5825 3.25 11.75C3.25 6.91751 7.16751 3 12 3C16.8325 3 20.75 6.91751 20.75 11.75Z" fill="white"/>
<path d="M20.75 11.75C20.75 16.5825 16.8325 20.5 12 20.5C7.16751 20.5 3.25 16.5825 3.25 11.75C3.25 6.91751 7.16751 3 12 3C16.8325 3 20.75 6.91751 20.75 11.75Z" fill="#FA967C"/>
<g style="mix-blend-mode:multiply">
<path d="M18.25 11.75C18.25 8.29822 15.4518 5.5 12 5.5C8.54822 5.5 5.75 8.29822 5.75 11.75C5.75 12.4404 5.19036 13 4.5 13C3.80964 13 3.25 12.4404 3.25 11.75C3.25 6.91751 7.16751 3 12 3C16.8325 3 20.75 6.91751 20.75 11.75C20.75 12.4404 20.1904 13 19.5 13C18.8096 13 18.25 12.4404 18.25 11.75Z" fill="#D63D4A"/>
</g>
<g style="mix-blend-mode:multiply">
<path d="M13.5079 9.75592C13.8494 9.41477 14.4028 9.41462 14.7442 9.75592C15.0857 10.0974 15.0857 10.6517 14.7442 10.9932L10.4932 15.2442C10.1517 15.5857 9.59743 15.5857 9.25592 15.2442C8.91462 14.9028 8.91477 14.3494 9.25592 14.0079L13.5079 9.75592Z" fill="#D63D4A"/>
<path d="M14.0001 13.5001C14.5523 13.5001 15 13.9478 15.0001 14.5001C15.0001 15.0523 14.5523 15.5001 14.0001 15.5001C13.4478 15.5 13.0001 15.0523 13.0001 14.5001C13.0001 13.9479 13.4479 13.5001 14.0001 13.5001Z" fill="#D63D4A"/>
<path d="M10.0001 9.50006C10.5523 9.50006 11 9.94782 11.0001 10.5001C11.0001 11.0523 10.5523 11.5001 10.0001 11.5001C9.44782 11.5 9.00006 11.0523 9.00006 10.5001C9.00012 9.94786 9.44786 9.50012 10.0001 9.50006Z" fill="#D63D4A"/>
</g>
</svg>
