<svg width="20" height="20" viewBox="0 0 20 20" fill="none" xmlns="http://www.w3.org/2000/svg">
<path d="M15.999 2.5C16.8274 2.5 17.499 3.17157 17.499 4V16C17.499 16.8284 16.8274 17.5 15.999 17.5H4C3.17157 17.5 2.5 16.8284 2.5 16V4C2.5 3.17157 3.17157 2.5 4 2.5H15.999ZM3.83301 12.5303V16C3.83301 16.092 3.90795 16.167 4 16.167H15.999C16.0911 16.167 16.166 16.092 16.166 16V15.8809L7.13281 9.59766L3.83301 12.5303ZM4 3.83301C3.90795 3.83301 3.83301 3.90795 3.83301 4V10.7461L6.63965 8.25195C6.86989 8.04729 7.21098 8.0272 7.46387 8.20312L16.166 14.2559V4C16.166 3.90795 16.0911 3.83301 15.999 3.83301H4ZM13.082 5C14.1406 5 14.999 5.85845 14.999 6.91699C14.9988 7.97539 14.1405 8.83301 13.082 8.83301C12.0236 8.83301 11.1652 7.97539 11.165 6.91699C11.165 5.85845 12.0235 5 13.082 5ZM13.082 6.33301C12.7599 6.33301 12.499 6.59483 12.499 6.91699C12.4992 7.23901 12.76 7.5 13.082 7.5C13.4041 7.5 13.6649 7.23901 13.665 6.91699C13.665 6.59483 13.4042 6.33301 13.082 6.33301Z" fill="#33363D"/>
</svg>
