<svg width="20" height="20" viewBox="0 0 20 20" fill="none" xmlns="http://www.w3.org/2000/svg">
<path fill-rule="evenodd" clip-rule="evenodd" d="M9.99996 2.99984C6.13397 2.99984 2.99996 6.13384 2.99996 9.99984C2.99996 13.8658 6.13397 16.9998 9.99996 16.9998C13.866 16.9998 17 13.8658 17 9.99984C17 6.13384 13.866 2.99984 9.99996 2.99984ZM1.66663 9.99984C1.66663 5.39746 5.39759 1.6665 9.99996 1.6665C14.6023 1.6665 18.3333 5.39746 18.3333 9.99984C18.3333 14.6022 14.6023 18.3332 9.99996 18.3332C5.39759 18.3332 1.66663 14.6022 1.66663 9.99984Z" fill="#33363D"/>
<path fill-rule="evenodd" clip-rule="evenodd" d="M8.94606 7.4043C8.73283 7.68387 8.66598 8.01635 8.66598 8.16667H7.33264C7.33264 7.76143 7.47412 7.13558 7.88589 6.5957C8.32283 6.02283 9.03862 5.58333 10.0826 5.58333C11.1012 5.58333 11.8232 5.97746 12.2366 6.58203C12.6248 7.14969 12.687 7.82753 12.563 8.32717C12.3591 9.14921 11.8634 9.77808 11.5259 10.0801C11.4318 10.1643 11.3507 10.2359 11.2802 10.2981C11.0206 10.527 10.905 10.6288 10.8184 10.7667C10.7413 10.8893 10.6647 11.0899 10.6647 11.6667H9.33134C9.33134 10.9934 9.41538 10.4933 9.68951 10.0572C9.88913 9.73958 10.1875 9.47946 10.4668 9.23597C10.5246 9.18557 10.5816 9.13588 10.6368 9.08654C10.818 8.92438 11.1421 8.51746 11.2689 8.00617C11.3103 7.83913 11.2892 7.55864 11.136 7.33464C11.0081 7.14754 10.7308 6.91667 10.0826 6.91667C9.45999 6.91667 9.13412 7.15772 8.94606 7.4043Z" fill="#33363D"/>
<path d="M9.16598 13.3333C9.16598 12.8731 9.53907 12.5 9.99931 12.5C10.4595 12.5 10.8326 12.8731 10.8326 13.3333C10.8326 13.7936 10.4595 14.1667 9.99931 14.1667C9.53907 14.1667 9.16598 13.7936 9.16598 13.3333Z" fill="#33363D"/>
</svg>
