<svg width="32" height="32" viewBox="0 0 32 32" fill="none" xmlns="http://www.w3.org/2000/svg">
<path d="M11.6892 11.2454L14.9709 4.63656C15.0664 4.4453 15.2134 4.28443 15.3952 4.17199C15.577 4.05956 15.7866 4 16.0004 4C16.2142 4 16.4237 4.05956 16.6056 4.17199C16.7874 4.28443 16.9343 4.4453 17.0299 4.63656L20.3116 11.2454L27.648 12.3115C27.8596 12.3409 28.0587 12.4291 28.2226 12.5662C28.3864 12.7033 28.5084 12.8836 28.5747 13.0868C28.6409 13.2899 28.6488 13.5075 28.5972 13.7148C28.5457 13.9222 28.437 14.1108 28.2834 14.2593L22.9756 19.4004L24.2286 26.6635C24.389 27.5957 23.4038 28.3056 22.5612 27.8661L16.0004 24.4353L9.43827 27.8661C8.59701 28.3069 7.61175 27.5957 7.77217 26.6623L9.02522 19.3991L3.71742 14.258C3.56456 14.1095 3.45645 13.921 3.40538 13.714C3.3543 13.5071 3.36232 13.2899 3.4285 13.0873C3.49469 12.8846 3.61639 12.7046 3.77978 12.5677C3.94318 12.4308 4.1417 12.3425 4.35279 12.3128L11.6892 11.2454Z" fill="#33363D"/>
<path d="M11.6892 11.2454L14.9709 4.63656C15.0664 4.4453 15.2134 4.28443 15.3952 4.17199C15.577 4.05956 15.7866 4 16.0004 4C16.2142 4 16.4237 4.05956 16.6056 4.17199C16.7874 4.28443 16.9343 4.4453 17.0299 4.63656L20.3116 11.2454L27.648 12.3115C27.8596 12.3409 28.0587 12.4291 28.2226 12.5662C28.3864 12.7033 28.5084 12.8836 28.5747 13.0868C28.6409 13.2899 28.6488 13.5075 28.5972 13.7148C28.5457 13.9222 28.437 14.1108 28.2834 14.2593L22.9756 19.4004L24.2286 26.6635C24.389 27.5957 23.4038 28.3056 22.5612 27.8661L16.0004 24.4353L9.43827 27.8661C8.59701 28.3069 7.61175 27.5957 7.77217 26.6623L9.02522 19.3991L3.71742 14.258C3.56456 14.1095 3.45645 13.921 3.40538 13.714C3.3543 13.5071 3.36232 13.2899 3.4285 13.0873C3.49469 12.8846 3.61639 12.7046 3.77978 12.5677C3.94318 12.4308 4.1417 12.3425 4.35279 12.3128L11.6892 11.2454Z" fill="#FA967C"/>
<path d="M11.6892 11.2454L14.9709 4.63656C15.0664 4.4453 15.2134 4.28443 15.3952 4.17199C15.577 4.05956 15.7866 4 16.0004 4C16.2142 4 16.4237 4.05956 16.6056 4.17199C16.7874 4.28443 16.9343 4.4453 17.0299 4.63656L20.3116 11.2454L27.648 12.3115C27.8596 12.3409 28.0587 12.4291 28.2226 12.5662C28.3864 12.7033 28.5084 12.8836 28.5747 13.0868C28.6409 13.2899 28.6488 13.5075 28.5972 13.7148C28.5457 13.9222 28.437 14.1108 28.2834 14.2593L22.9756 19.4004L24.2286 26.6635C24.389 27.5957 23.4038 28.3056 22.5612 27.8661L16.0004 24.4353L9.43827 27.8661C8.59701 28.3069 7.61175 27.5957 7.77217 26.6623L9.02522 19.3991L3.71742 14.258C3.56456 14.1095 3.45645 13.921 3.40538 13.714C3.3543 13.5071 3.36232 13.2899 3.4285 13.0873C3.49469 12.8846 3.61639 12.7046 3.77978 12.5677C3.94318 12.4308 4.1417 12.3425 4.35279 12.3128L11.6892 11.2454Z" stroke="#D63D4A" stroke-width="2" stroke-linecap="round" stroke-linejoin="round"/>
</svg>
