<svg width="16" height="16" viewBox="0 0 16 16" fill="none" xmlns="http://www.w3.org/2000/svg">
<path fill-rule="evenodd" clip-rule="evenodd" d="M12.6665 7.99997C12.6665 8.14504 12.6074 8.28386 12.5028 8.38441L9.03616 11.7177C8.82384 11.9219 8.48622 11.9153 8.28206 11.703C8.0779 11.4906 8.08452 11.153 8.29685 10.9489L10.809 8.5333L3.86703 8.5333C3.57247 8.5333 3.33369 8.29452 3.33369 7.99997C3.33369 7.70542 3.57247 7.46664 3.86703 7.46664L10.809 7.46663L8.29685 5.05108C8.08452 4.84692 8.0779 4.5093 8.28206 4.29698C8.48622 4.08465 8.82384 4.07803 9.03616 4.28219L12.5028 7.61552C12.6074 7.71608 12.6665 7.85489 12.6665 7.99997Z" fill="#33363D"/>
</svg>
