<svg xmlns="http://www.w3.org/2000/svg" width="24" height="24" viewBox="0 0 24 24" fill="none">
  <path d="M16.1233 3.7998C15.2791 3.81232 14.4534 4.03694 13.7294 4.45097C13.0054 4.86501 12.4089 5.79591 12 6.5C11.5911 5.79591 10.9946 4.86501 10.2706 4.45097C9.54665 4.03694 8.72086 3.81232 7.87666 3.7998C6.53091 3.85553 5.263 4.41666 4.34992 5.3606C3.43685 6.30453 2.95284 7.55454 3.00363 8.83754C3.00363 13.6788 11.2173 19.7628 11.5667 20L12 20.2923L12.4333 20C12.7827 19.7642 20.9964 13.6788 20.9964 8.83754C21.0472 7.55454 20.5632 6.30453 19.6501 5.3606C18.737 4.41666 17.4691 3.85553 16.1233 3.7998Z" fill="#F8633C"/>
  <path d="M11.9998 20.2925L11.5665 20.0002C11.2562 19.7895 4.74346 14.9676 3.28955 10.5H20.7101C19.2562 14.9678 12.7434 19.7908 12.4331 20.0002L11.9998 20.2925Z" fill="#D63D4A"/>
</svg>
