<svg width="20" height="21" viewBox="0 0 20 21" fill="none" xmlns="http://www.w3.org/2000/svg">
<path d="M13.4361 3.66663C12.7326 3.67706 12.0445 3.86424 11.4411 4.20927C10.8378 4.5543 10.3407 5.33005 10 5.91679C9.65929 5.33005 9.16217 4.5543 8.55885 4.20927C7.95554 3.86424 7.26738 3.67706 6.56389 3.66663C5.44243 3.71307 4.38583 4.18067 3.62494 4.96729C2.86404 5.7539 2.4607 6.79558 2.50302 7.86474C2.50302 11.8991 9.34776 16.9691 9.6389 17.1668L10 17.4103L10.3611 17.1668C10.6522 16.9703 17.497 11.8991 17.497 7.86474C17.5393 6.79558 17.136 5.7539 16.3751 4.96729C15.6142 4.18067 14.5576 3.71307 13.4361 3.66663Z" fill="#FA967C"/>
<path d="M10 17.4104L9.6389 17.1669C9.46858 17.0512 7.05517 15.2679 5.08154 13H14.9188C12.9451 15.2683 10.5314 17.0519 10.3611 17.1669L10 17.4104Z" fill="#D63D4A"/>
</svg>
