<svg width="21" height="20" viewBox="0 0 21 20" fill="none" xmlns="http://www.w3.org/2000/svg">
<g id="icon/line/calendar">
<path id="Vector" fill-rule="evenodd" clip-rule="evenodd" d="M7 1.66663C7.36819 1.66663 7.66667 1.9651 7.66667 2.33329V4.16666L13.332 4.16673V2.33329C13.332 1.9651 13.6305 1.66663 13.9987 1.66663C14.3669 1.66663 14.6654 1.9651 14.6654 2.33329V4.16675L16.4994 4.16677C17.3278 4.16678 17.9993 4.83835 17.9993 5.66677V16.0001C17.9993 16.8285 17.3278 17.5001 16.4993 17.5001H4.5C3.67157 17.5001 3 16.8285 3 16.0001V5.66663C3 4.83819 3.67158 4.16662 4.50002 4.16663L6.33333 4.16665V2.33329C6.33333 1.9651 6.63181 1.66663 7 1.66663ZM4.5 5.49996C4.40795 5.49996 4.33333 5.57458 4.33333 5.66663V7.66679H16.666V5.66677C16.666 5.57472 16.5914 5.5001 16.4994 5.5001L4.5 5.49996ZM4.33333 16.0001V9.00012H16.666V16.0001C16.666 16.0922 16.5914 16.1668 16.4993 16.1668H4.5C4.40795 16.1668 4.33333 16.0922 4.33333 16.0001ZM6.83464 11.6666C6.3744 11.6666 6.0013 12.0397 6.0013 12.5C6.0013 12.9602 6.3744 13.3333 6.83464 13.3333C7.29487 13.3333 7.66797 12.9602 7.66797 12.5C7.66797 12.0397 7.29487 11.6666 6.83464 11.6666ZM10.5 11.6666C10.0398 11.6666 9.66667 12.0397 9.66667 12.5C9.66667 12.9602 10.0398 13.3333 10.5 13.3333C10.9602 13.3333 11.3333 12.9602 11.3333 12.5C11.3333 12.0397 10.9602 11.6666 10.5 11.6666ZM13.3353 12.5C13.3353 12.0397 13.7084 11.6666 14.1686 11.6666C14.6289 11.6666 15.002 12.0397 15.002 12.5C15.002 12.9602 14.6289 13.3333 14.1686 13.3333C13.7084 13.3333 13.3353 12.9602 13.3353 12.5Z" fill="#33363D"/>
</g>
</svg>
