<svg width="20" height="20" viewBox="0 0 20 20" fill="none" xmlns="http://www.w3.org/2000/svg">
<path fill-rule="evenodd" clip-rule="evenodd" d="M10 6.41683C7.7909 6.41683 6.00004 8.20769 6.00004 10.4168C6.00004 12.626 7.7909 14.4168 10 14.4168C12.2092 14.4168 14 12.626 14 10.4168C14 8.20769 12.2092 6.41683 10 6.41683ZM7.33337 10.4168C7.33337 8.94407 8.52728 7.75016 10 7.75016C11.4728 7.75016 12.6667 8.94407 12.6667 10.4168C12.6667 11.8896 11.4728 13.0835 10 13.0835C8.52728 13.0835 7.33337 11.8896 7.33337 10.4168Z" fill="#F8633C"/>
<path fill-rule="evenodd" clip-rule="evenodd" d="M5.84795 2.58929C6.11501 2.12193 6.61203 1.8335 7.15031 1.8335H12.8498C13.3881 1.8335 13.8851 2.12192 14.1521 2.58929L15.3869 4.75016H16.6667C17.4951 4.75016 18.1667 5.42174 18.1667 6.25016V15.8335C18.1667 16.6619 17.4951 17.3335 16.6667 17.3335H3.33337C2.50495 17.3335 1.83337 16.6619 1.83337 15.8335V6.25016C1.83337 5.42174 2.50495 4.75016 3.33337 4.75016H4.61316L5.84795 2.58929ZM14.4212 5.74759C14.5399 5.95531 14.7608 6.0835 15 6.0835H16.6667C16.7588 6.0835 16.8334 6.15811 16.8334 6.25016V15.8335C16.8334 15.9255 16.7588 16.0002 16.6667 16.0002H3.33337C3.24133 16.0002 3.16671 15.9255 3.16671 15.8335V6.25016C3.16671 6.15811 3.24133 6.0835 3.33337 6.0835H5.00004C5.23928 6.0835 5.46018 5.95531 5.57887 5.74759L7.0056 3.25081C7.03528 3.19888 7.0905 3.16683 7.15031 3.16683H12.8498C12.9096 3.16683 12.9648 3.19888 12.9945 3.25081L14.4212 5.74759Z" fill="#F8633C"/>
</svg>
