<svg width="21" height="20" viewBox="0 0 21 20" fill="none" xmlns="http://www.w3.org/2000/svg">
<path fill-rule="evenodd" clip-rule="evenodd" d="M10.5007 6.41683C8.29151 6.41683 6.50065 8.20769 6.50065 10.4168C6.50065 12.626 8.29151 14.4168 10.5007 14.4168C12.7098 14.4168 14.5007 12.626 14.5007 10.4168C14.5007 8.20769 12.7098 6.41683 10.5007 6.41683ZM7.83398 10.4168C7.83398 8.94407 9.02789 7.75016 10.5007 7.75016C11.9734 7.75016 13.1673 8.94407 13.1673 10.4168C13.1673 11.8896 11.9734 13.0835 10.5007 13.0835C9.02789 13.0835 7.83398 11.8896 7.83398 10.4168Z" fill="#F8633C"/>
<path fill-rule="evenodd" clip-rule="evenodd" d="M6.34856 2.58929C6.61562 2.12193 7.11264 1.8335 7.65092 1.8335H13.3504C13.8887 1.8335 14.3857 2.12192 14.6527 2.58929L15.8875 4.75016H17.1673C17.9957 4.75016 18.6673 5.42174 18.6673 6.25016V15.8335C18.6673 16.6619 17.9957 17.3335 17.1673 17.3335H3.83398C3.00556 17.3335 2.33398 16.6619 2.33398 15.8335V6.25016C2.33398 5.42174 3.00556 4.75016 3.83398 4.75016H5.11377L6.34856 2.58929ZM14.9218 5.74759C15.0405 5.95531 15.2614 6.0835 15.5007 6.0835H17.1673C17.2594 6.0835 17.334 6.15811 17.334 6.25016V15.8335C17.334 15.9255 17.2594 16.0002 17.1673 16.0002H3.83398C3.74194 16.0002 3.66732 15.9255 3.66732 15.8335V6.25016C3.66732 6.15811 3.74194 6.0835 3.83398 6.0835H5.50065C5.73989 6.0835 5.96079 5.95531 6.07948 5.74759L7.50621 3.25081C7.53589 3.19888 7.59111 3.16683 7.65092 3.16683H13.3504C13.4102 3.16683 13.4654 3.19888 13.4951 3.25081L14.9218 5.74759Z" fill="#F8633C"/>
</svg>
