<svg width="44" height="32" viewBox="0 0 44 32" fill="none" xmlns="http://www.w3.org/2000/svg">
<g clip-path="url(#clip0_5229_282677)">
<ellipse cx="19.5" cy="27.5" rx="17" ry="2.5" fill="#ACB1B6" fill-opacity="0.2"/>
<path d="M36.9929 16.665C36.9929 15.0009 35.9363 13.5213 34.3631 12.9804L31.8566 11.9999H4.7171C3.773 11.9999 3.0071 12.8859 3.0071 13.83V20.6275H36.9938L36.9929 16.665Z" fill="#65B9EC"/>
<path d="M3.0071 20.6275V21.557C3.0071 22.4543 3.7343 23.1815 4.6316 23.1815H35.2829C36.227 23.1815 36.9929 22.4156 36.9929 21.4715L36.9938 20.6275H3.0071Z" fill="#65B9EC"/>
<path d="M26.8218 5.6752C25.9479 4.49981 23.8447 3.5296 22.4479 3.5296H10.8966C9.1641 3.5296 7.94788 4.99981 7.3587 6.4654L5.1095 12.0001H31.8107L26.8218 5.6752Z" fill="#285FA4"/>
<path d="M10.852 7.62099C11.165 6.88093 11.8905 6.40005 12.6941 6.40005H21.2503C22.187 6.40005 23.0699 6.83756 23.6373 7.58286L27 12H9L10.852 7.62099Z" fill="white"/>
<path d="M16 6H18.8V12H16V6Z" fill="#285FA4"/>
<g clip-path="url(#clip1_5229_282677)">
<circle cx="9.5" cy="23" r="5" fill="#313D4C"/>
<circle cx="9.5" cy="23" r="2" fill="#E5ECF9"/>
</g>
<g clip-path="url(#clip2_5229_282677)">
<circle cx="30.5" cy="23" r="5" fill="#313D4C"/>
<circle cx="30.5" cy="23" r="2" fill="#E5ECF9"/>
</g>
<path d="M37.1418 7.00669C37.2677 7.09556 37.4181 7.1431 37.5721 7.14272C37.7262 7.14233 37.8764 7.09405 38.0018 7.00455C38.1289 6.9117 38.2253 6.78313 38.2782 6.63457L38.5975 5.65391C38.6794 5.40811 38.8173 5.18472 39.0004 5.00139C39.1835 4.81806 39.4067 4.6798 39.6524 4.59754L40.6459 4.27613C40.7928 4.22295 40.9193 4.12502 41.0076 3.99614C41.0959 3.86726 41.1415 3.71393 41.138 3.55774C41.1346 3.40156 41.0822 3.25041 40.9882 3.12558C40.8943 3.00075 40.7636 2.90853 40.6145 2.86193L39.6324 2.54195C39.3865 2.46011 39.1629 2.3222 38.9795 2.13911C38.796 1.95602 38.6576 1.73277 38.5753 1.48701L38.2525 0.495633C38.2005 0.34958 38.1043 0.22336 37.9772 0.134534C37.8502 0.0457074 37.6986 -0.00130804 37.5435 2.76926e-05C37.3885 0.00136342 37.2378 0.0509839 37.1123 0.141986C36.9868 0.232989 36.8927 0.360848 36.8433 0.507775L36.5169 1.50772C36.4349 1.74689 36.2998 1.96436 36.1216 2.14376C35.9435 2.32315 35.7269 2.45978 35.4883 2.54337L34.4955 2.86264C34.3496 2.91474 34.2234 3.01099 34.1346 3.13805C34.0458 3.26511 33.9988 3.41666 34 3.57166C34.0013 3.72667 34.0508 3.87744 34.1416 4.00304C34.2325 4.12864 34.3602 4.22284 34.507 4.27256L35.4883 4.5904C35.7355 4.67243 35.96 4.81132 36.1437 4.99591C36.3274 5.1805 36.4653 5.40563 36.5461 5.6532L36.869 6.64671C36.9204 6.79242 37.0161 6.91813 37.1418 7.00669ZM41.5251 9.89367C41.5982 9.94503 41.6822 9.9787 41.7705 9.99199C41.8588 10.0053 41.949 9.99785 42.034 9.97028C42.1189 9.9427 42.1963 9.89574 42.26 9.83311C42.3236 9.77047 42.3718 9.69388 42.4008 9.6094L42.5779 9.06515C42.6163 8.95237 42.6798 8.84979 42.7636 8.76516C42.8479 8.67945 42.9508 8.6166 43.0636 8.57946L43.615 8.39947C43.7288 8.3602 43.8273 8.286 43.8964 8.18745C43.9655 8.08891 44.0018 7.97105 43.9999 7.85069C43.9981 7.73034 43.9583 7.61363 43.8863 7.51722C43.8142 7.42082 43.7135 7.34963 43.5986 7.31382L43.0529 7.13526C42.9401 7.09746 42.8375 7.03408 42.7533 6.95007C42.669 6.86607 42.6054 6.7637 42.5672 6.651L42.3872 6.09889C42.3486 5.98533 42.2752 5.88682 42.1774 5.81731C42.0797 5.7478 41.9625 5.71082 41.8426 5.71161C41.7226 5.7124 41.6059 5.75092 41.5091 5.82171C41.4123 5.8925 41.3402 5.99197 41.303 6.10603L41.1266 6.65028C41.0901 6.76225 41.0283 6.86427 40.9459 6.9484C40.8635 7.03252 40.7628 7.09647 40.6516 7.13526L40.0995 7.31525C39.9859 7.35375 39.8873 7.42702 39.8177 7.52469C39.748 7.62236 39.7109 7.73947 39.7115 7.85942C39.7122 7.97937 39.7505 8.09607 39.8212 8.193C39.8919 8.28993 39.9912 8.36217 40.1052 8.39947L40.6502 8.57589C40.7645 8.61446 40.8673 8.67803 40.9516 8.76231C41.0366 8.8473 41.0995 8.95015 41.1359 9.06372L41.3166 9.61654C41.3557 9.7283 41.4286 9.82513 41.5251 9.89367Z" fill="#F8C63C"/>
<path d="M35.1992 17.7998C35.1992 17.2475 35.6469 16.7998 36.1992 16.7998H36.9992V18.7998H36.1992C35.6469 18.7998 35.1992 18.3521 35.1992 17.7998Z" fill="#E5ECF9"/>
</g>
<defs>
<clipPath id="clip0_5229_282677">
<rect width="44" height="32" fill="white"/>
</clipPath>
<clipPath id="clip1_5229_282677">
<rect width="10" height="10" fill="white" transform="translate(4.5 18)"/>
</clipPath>
<clipPath id="clip2_5229_282677">
<rect width="10" height="10" fill="white" transform="translate(25.5 18)"/>
</clipPath>
</defs>
</svg>
