<svg width="20" height="20" viewBox="0 0 20 20" fill="none" xmlns="http://www.w3.org/2000/svg">
<path d="M14.1315 17.4077C13.8712 17.6679 13.4492 17.6678 13.1889 17.4077C12.9286 17.1474 12.9281 16.7249 13.1883 16.4645L15.2323 14.4206L4.99972 14.4206C4.63165 14.4205 4.33349 14.1222 4.33335 13.7542L4.33336 3.33289C4.33336 2.96472 4.63156 2.66656 4.99972 2.66652C5.36791 2.66652 5.66609 2.9647 5.66609 3.33289L5.66609 13.0867L15.2329 13.0873L13.1889 11.0433C12.9286 10.7829 12.9285 10.361 13.1889 10.1007C13.4492 9.84036 13.8711 9.84038 14.1315 10.1007L17.3137 13.2829C17.5738 13.5433 17.574 13.9652 17.3137 14.2255L14.1315 17.4077Z" fill="#8A949E"/>
</svg>
