<svg width="16" height="16" viewBox="0 0 16 16" fill="none" xmlns="http://www.w3.org/2000/svg">
<g clip-path="url(#clip0_17383_59411)">
<path fill-rule="evenodd" clip-rule="evenodd" d="M12.4203 2.82321C12.6285 2.61493 12.9662 2.61492 13.1745 2.82319C13.3828 3.03146 13.3828 3.36915 13.1745 3.57744L8.75292 7.99931L13.1771 12.4238C13.3854 12.6321 13.3854 12.9698 13.1771 13.178C12.9688 13.3863 12.6311 13.3863 12.4229 13.178L7.9987 8.75358L3.57453 13.178C3.36626 13.3863 3.02857 13.3863 2.82028 13.178C2.612 12.9698 2.61199 12.6321 2.82026 12.4238L7.24447 7.99931L2.82287 3.57744C2.61459 3.36915 2.6146 3.03146 2.82289 2.82319C3.03117 2.61492 3.36886 2.61493 3.57714 2.82321L7.9987 7.24504L12.4203 2.82321Z" fill="#33363D"/>
</g>
<defs>
<clipPath id="clip0_17383_59411">
<rect width="16" height="16" fill="white"/>
</clipPath>
</defs>
</svg>
