<svg width="16" height="16" viewBox="0 0 16 16" fill="none" xmlns="http://www.w3.org/2000/svg">
<g id="icon/line/close">
<path id="Vector" fill-rule="evenodd" clip-rule="evenodd" d="M12.4203 2.82028C12.6285 2.612 12.9662 2.61199 13.1745 2.82026C13.3828 3.02853 13.3828 3.36622 13.1745 3.57451L8.75292 7.99638L13.1771 12.4209C13.3854 12.6291 13.3854 12.9668 13.1771 13.1751C12.9688 13.3834 12.6311 13.3834 12.4229 13.1751L7.9987 8.75065L3.57453 13.1751C3.36626 13.3834 3.02857 13.3834 2.82028 13.1751C2.612 12.9668 2.61199 12.6291 2.82026 12.4209L7.24447 7.99638L2.82287 3.57451C2.61459 3.36622 2.6146 3.02853 2.82289 2.82026C3.03117 2.61199 3.36886 2.612 3.57714 2.82028L7.9987 7.24211L12.4203 2.82028Z" fill="white"/>
</g>
</svg>
