<svg width="24" height="24" viewBox="0 0 24 24" fill="none" xmlns="http://www.w3.org/2000/svg">
<ellipse cx="11.828" cy="18.6556" rx="11.3778" ry="2.13333" fill="#FDCFC3"/>
<path d="M4.03852 13.0381C5.12958 13.0381 6.01405 12.1536 6.01405 11.0626C6.01405 9.97151 5.12958 9.08704 4.03852 9.08704C2.94746 9.08704 2.06299 9.97151 2.06299 11.0626C2.06299 12.1536 2.94746 13.0381 4.03852 13.0381Z" fill="#FA967C"/>
<path d="M19.9619 13.0381C21.0529 13.0381 21.9374 12.1536 21.9374 11.0626C21.9374 9.97151 21.0529 9.08704 19.9619 9.08704C18.8708 9.08704 17.9863 9.97151 17.9863 11.0626C17.9863 12.1536 18.8708 13.0381 19.9619 13.0381Z" fill="#FA967C"/>
<path d="M12.0001 18.9874C16.3769 18.9874 19.925 15.4393 19.925 11.0625C19.925 6.68568 16.3769 3.13757 12.0001 3.13757C7.6233 3.13757 4.0752 6.68568 4.0752 11.0625C4.0752 15.4393 7.6233 18.9874 12.0001 18.9874Z" fill="#FA967C"/>
<ellipse cx="17.4504" cy="12.94" rx="1.41667" ry="0.991667" fill="white"/>
<ellipse cx="6.61686" cy="12.94" rx="1.41667" ry="0.991667" fill="white"/>
<path d="M9.77693 11.5542C10.1626 11.5542 10.4752 11.1966 10.4752 10.7554C10.4752 10.3143 10.1626 9.95667 9.77693 9.95667C9.39126 9.95667 9.07861 10.3143 9.07861 10.7554C9.07861 11.1966 9.39126 11.5542 9.77693 11.5542Z" fill="#D63D4A"/>
<path d="M14.922 10.7554C14.922 11.1968 14.6091 11.5542 14.2237 11.5542C13.8383 11.5542 13.5254 11.1968 13.5254 10.7554C13.5254 10.3141 13.8383 9.95667 14.2237 9.95667C14.6091 9.95667 14.922 10.3141 14.922 10.7554Z" fill="#D63D4A"/>
<path d="M4.14746 10.3565C4.14746 10.3565 7.42716 9.0103 9.41145 5.56232C9.41145 5.56232 9.58324 7.24512 8.98024 8.50721H15.0208C15.0208 8.50721 15.1926 7.4134 14.7613 5.47818C14.7613 5.47818 16.5738 8.59135 19.8518 9.8517C19.8518 9.8517 19.9377 2.61743 12.0864 2.61743C4.23511 2.61743 4.14746 8.84202 4.14746 10.3565Z" fill="#D63D4A"/>
<path d="M9.70752 12.6641C9.70752 13.9306 10.7336 14.9566 12.0001 14.9566C13.2666 14.9566 14.2927 13.9306 14.2927 12.6641H9.70917H9.70752Z" fill="#D63D4A"/>
</svg>
