<svg width="17" height="16" viewBox="0 0 17 16" fill="none" xmlns="http://www.w3.org/2000/svg">
<path d="M7.76562 1.60059C10.8951 1.60059 13.4324 4.13714 13.4326 7.2666C13.4326 8.63908 12.9437 9.89738 12.1318 10.8779L14.3438 13.0898C14.552 13.2981 14.552 13.6355 14.3438 13.8438C14.1355 14.0519 13.7981 14.052 13.5898 13.8438L11.3779 11.6318C10.3972 12.4444 9.13876 12.9336 7.76562 12.9336C4.63601 12.9336 2.09863 10.3962 2.09863 7.2666C2.09881 4.13714 4.63612 1.60059 7.76562 1.60059ZM7.76562 2.66699C5.22522 2.66699 3.16619 4.72624 3.16602 7.2666C3.16602 9.80711 5.22512 11.8672 7.76562 11.8672C8.97881 11.8672 10.0814 11.3963 10.9033 10.6289C10.9278 10.5819 10.9576 10.5366 10.9971 10.4971C11.0363 10.4579 11.0813 10.4278 11.1279 10.4033C11.8949 9.5815 12.3652 8.47937 12.3652 7.2666C12.3651 4.72624 10.306 2.66699 7.76562 2.66699Z" fill="#8A949E"/>
</svg>
