<svg width="12" height="12" viewBox="0 0 12 12" fill="none" xmlns="http://www.w3.org/2000/svg">
<path d="M6 0.999512C8.76132 0.999512 10.9999 3.2382 11 5.99951C11 8.76091 8.7614 10.9995 6 10.9995C3.23857 10.9995 1 8.76091 1 5.99951C1.00013 3.2382 3.23866 0.999512 6 0.999512ZM6 1.79932C3.68048 1.79932 1.79994 3.68003 1.7998 5.99951C1.7998 8.31909 3.68041 10.1997 6 10.1997C8.31957 10.1997 10.2002 8.31908 10.2002 5.99951C10.2001 3.68003 8.31949 1.79932 6 1.79932ZM6 3.3501C6.22062 3.35031 6.39923 3.52889 6.39941 3.74951V5.6001H8.25C8.4708 5.60023 8.64941 5.77966 8.64941 6.00049C8.64915 6.2211 8.47064 6.39977 8.25 6.3999H6C5.77925 6.3999 5.59987 6.22118 5.59961 6.00049V3.74951C5.59979 3.52875 5.7792 3.3501 6 3.3501Z" fill="#33363D"/>
</svg>
