<svg width="24" height="24" viewBox="0 0 24 24" fill="none" xmlns="http://www.w3.org/2000/svg">
<ellipse cx="11.828" cy="18.6568" rx="11.3778" ry="2.13333" fill="#FDCFC3"/>
<path d="M12.002 1.70312C16.8616 1.70333 20.8008 5.64327 20.8008 10.5029C20.8007 11.296 20.6951 12.0642 20.498 12.7949C20.4791 12.8651 20.4536 12.9318 20.4248 12.9961C20.4153 13.0436 20.4047 13.0916 20.3896 13.1396C19.788 15.0564 18.5474 16.6904 16.918 17.793C16.6658 17.9635 16.365 18.0439 16.0605 18.0439H7.92676C7.62237 18.0438 7.32145 17.9635 7.06934 17.793C5.44008 16.6904 4.19929 15.0563 3.59766 13.1396C3.57609 13.0708 3.56114 13.0022 3.55078 12.9346C3.53321 12.8894 3.5178 12.8428 3.50488 12.7949C3.30783 12.0642 3.20218 11.2959 3.20215 10.5029C3.20215 5.64314 7.14217 1.70312 12.002 1.70312ZM17.4492 10.501C17.4492 10.3301 17.2637 10.2295 17.1143 10.3125L15.3984 11.2646C15.2986 11.3201 15.2273 11.4147 15.1924 11.5234C14.7593 12.8735 13.4939 13.8506 12 13.8506C10.5065 13.8505 9.24089 12.874 8.80762 11.5244C8.77268 11.4157 8.70141 11.3211 8.60156 11.2656L6.88574 10.3135C6.7376 10.2316 6.5547 10.3316 6.55469 10.501C6.55469 10.8029 6.57966 11.0992 6.62695 11.3877C6.648 11.5162 6.65519 11.6486 6.65234 11.7822C6.7017 11.8614 6.74259 11.9474 6.76953 12.0391C7.43346 14.2978 9.52057 15.9469 11.9941 15.9473C14.4681 15.9473 16.5566 14.2981 17.2207 12.0391C17.2503 11.9384 17.2942 11.8431 17.3506 11.7578C17.3493 11.6324 17.3571 11.5083 17.377 11.3877C17.4243 11.0991 17.4492 10.803 17.4492 10.501ZM12.002 5.05371C9.85923 5.05371 8.00476 6.29077 7.11523 8.08984C6.98755 8.34808 7.18462 8.63575 7.47266 8.64062L8.95898 8.66602C9.10297 8.66842 9.23641 8.59536 9.32324 8.48047C9.93508 7.67028 10.9065 7.14656 12 7.14648C13.0935 7.14648 14.0649 7.6703 14.6768 8.48047C14.7636 8.59536 14.897 8.66842 15.041 8.66602L16.5303 8.64062C16.8183 8.63575 17.0153 8.34808 16.8877 8.08984C15.9982 6.29102 14.1444 5.05386 12.002 5.05371Z" fill="white"/>
<path d="M5.89512 11.3359C6.30858 11.3359 6.65345 11.6402 6.77005 12.0369C7.43407 14.2959 9.52253 15.9453 11.9965 15.9453C14.4704 15.9452 16.5589 14.2959 17.223 12.0369C17.3396 11.6402 17.6844 11.3359 18.0979 11.3359H19.8325C20.3264 11.3359 20.7166 11.7626 20.6191 12.2468C19.8086 16.2693 16.2559 19.2988 11.9945 19.2988C7.73331 19.2986 4.18045 16.2693 3.37002 12.2468C3.27247 11.7626 3.66265 11.3359 4.15657 11.3359H5.89512Z" fill="#D63D4A"/>
<g style="mix-blend-mode:multiply">
<path d="M11.9995 1.69922C16.8591 1.69943 20.7983 5.63937 20.7983 10.499C20.7983 11.2921 20.6927 12.0603 20.4956 12.791C20.3189 13.4462 19.6927 13.8524 19.0142 13.8525C17.9079 13.8525 17.1952 12.4755 17.3745 11.3838C17.422 11.0949 17.4468 10.7984 17.4468 10.4961C17.4468 10.3261 17.2621 10.2257 17.1134 10.3082L15.3964 11.2607C15.2964 11.3163 15.2246 11.4108 15.1897 11.5198C14.7571 12.8705 13.4919 13.8486 11.9976 13.8486C10.5032 13.8486 9.23802 12.8704 8.80541 11.5197C8.77051 11.4108 8.69879 11.3162 8.59875 11.2607L6.88368 10.3088C6.73548 10.2265 6.55225 10.3266 6.55225 10.4961C6.55225 10.7981 6.57718 11.0943 6.62451 11.3828C6.80364 12.4749 6.09053 13.8525 4.98389 13.8525C4.30533 13.8524 3.67914 13.4462 3.50244 12.791C3.30539 12.0603 3.19974 11.292 3.19971 10.499C3.19971 5.63924 7.13973 1.69922 11.9995 1.69922ZM11.9995 5.04883C9.85638 5.04883 8.00223 6.28655 7.11295 8.08616C6.98534 8.3444 7.18177 8.63204 7.46978 8.63691L8.95756 8.6621C9.10158 8.66454 9.23522 8.59163 9.32208 8.47673C9.934 7.66734 10.9046 7.14455 11.9976 7.14453C13.0903 7.14453 14.0602 7.66757 14.6721 8.47679C14.7589 8.59166 14.8925 8.66454 15.0365 8.66211L16.5282 8.6369C16.8162 8.63203 17.0127 8.34436 16.885 8.08611C15.9958 6.28674 14.1424 5.04895 11.9995 5.04883Z" fill="#FA967C"/>
</g>
<rect x="10.3203" y="8.82422" width="3.35216" height="3.35216" rx="1.67608" fill="white"/>
</svg>
