<svg width="24" height="24" viewBox="0 0 24 24" fill="none" xmlns="http://www.w3.org/2000/svg">
<ellipse cx="11.8309" cy="18.6568" rx="11.3778" ry="2.13333" fill="#FDCFC3"/>
<path d="M5.36886 3.28906C5.36886 3.28906 7.75569 4.62596 11.3359 4.62596C14.9162 4.62596 17.303 3.28906 17.303 3.28906L21.2126 15.2124C21.2872 15.4398 21.2154 15.6874 21.015 15.8183C20.094 16.4198 17.1291 17.9949 11.3359 17.9949C5.54276 17.9949 2.57792 16.4198 1.65686 15.8183C1.4565 15.6874 1.3847 15.4398 1.45927 15.2124L5.36886 3.28906Z" fill="#FA967C"/>
<path d="M18.4153 6.70348C18.2851 7.0849 18.0846 7.5067 17.7933 7.91204C17.0931 8.88602 15.8792 9.74911 13.9214 9.74916C13.141 9.74916 12.6062 9.95871 12.2364 10.2599C12.0545 10.408 11.9063 10.5842 11.786 10.7796C12.3428 10.9992 13.0182 11.5484 13.1946 11.7248C13.4441 11.9742 14.1926 11.226 14.4422 11.2258C14.6917 11.2258 14.6919 12.7226 14.193 12.9724C13.7938 13.172 12.6958 12.5564 12.1967 12.2237C12.2799 12.7228 12.3963 13.9706 12.1967 14.9687C11.947 16.2162 9.7013 16.7149 7.2062 15.2179C5.43874 14.1574 5.26685 12.4326 5.45963 11.2258C5.51672 10.8686 5.70179 10.7882 5.53302 10.5813C5.02806 10.1247 4.71094 9.4644 4.71094 8.72999C4.71102 7.35198 5.72813 6.43477 7.10617 6.43477C8.48417 6.43481 9.45162 7.35201 9.45169 8.72999C9.45169 8.99783 9.41815 9.25578 9.35522 9.49762C9.41702 9.64554 9.45169 9.80788 9.45169 9.97821C9.45164 10.3857 9.25498 10.7461 8.95276 10.9737V10.9761L9.45169 11.2258C9.61804 10.3109 10.0509 8.53096 10.4502 8.73058C10.9488 8.98005 10.6993 9.22978 10.6993 10.4771C10.6993 11.4752 10.2001 12.39 9.95063 12.7226L10.6993 12.9724C10.6993 12.852 10.704 12.7082 10.7118 12.5522C10.7142 12.141 10.7617 11.6994 10.884 11.2744C10.8887 11.2581 10.8945 11.2421 10.8994 11.2258C10.907 11.1999 10.9148 11.1746 10.923 11.1501C11.0896 10.6381 11.3728 10.1424 11.8345 9.76632C12.3366 9.35738 13.0209 9.11233 13.9214 9.11233C15.6612 9.11227 16.6881 8.35915 17.2766 7.54036C17.5747 7.12564 17.7634 6.68963 17.8702 6.31759C17.9663 5.98291 17.9895 5.72437 17.9821 5.59079L17.9774 5.54107L17.9738 5.47656C17.975 5.44968 17.9797 5.42349 17.9874 5.39844L18.4153 6.70348Z" fill="white"/>
<g style="mix-blend-mode:multiply">
<path d="M21.3465 13.3047C21.0026 13.3097 20.6662 13.4005 20.3712 13.5679C20.0763 13.7353 19.8332 14.1116 19.6667 14.3962C19.5001 14.1116 19.2571 13.7353 18.9621 13.5679C18.6671 13.4005 18.3307 13.3097 17.9868 13.3047C17.4385 13.3272 16.922 13.554 16.55 13.9356C16.178 14.3172 15.9808 14.8224 16.0015 15.3411C16.0015 17.298 19.3478 19.7573 19.4901 19.8532C19.597 19.9247 19.7364 19.9247 19.8432 19.8532C19.9855 19.7579 23.3318 17.298 23.3318 15.3411C23.3525 14.8224 23.1553 14.3172 22.7833 13.9356C22.4114 13.554 21.8948 13.3272 21.3465 13.3047Z" fill="#D63D4A"/>
</g>
</svg>
