<svg width="24" height="24" viewBox="0 0 24 24" fill="none" xmlns="http://www.w3.org/2000/svg">
<rect y="0.00390625" width="24" height="24" rx="12" fill="#DEECFD"/>
<path fill-rule="evenodd" clip-rule="evenodd" d="M8.24286 5.42605C7.38338 5.51118 6.69442 6.13345 6.462 6.96528L5.63072 9.94039C5.61501 9.99662 5.60197 10.0526 5.59157 10.1081L4.29937 9.92652C3.88918 9.86887 3.50993 10.1547 3.45228 10.5648C3.33699 11.3852 3.90856 12.1437 4.72893 12.259L4.78814 12.2673C4.84083 12.2747 4.87905 12.3209 4.87905 12.3741V12.7493V13.8741V17.2493C4.87905 17.8706 5.38273 18.3743 6.00405 18.3743H6.75405C7.37537 18.3743 7.87905 17.8706 7.87905 17.2493V16.4991C7.87905 16.292 8.04695 16.1241 8.25405 16.1241H15.7541C15.9612 16.1241 16.1291 16.292 16.1291 16.4991V17.2493C16.1291 17.8706 16.6327 18.3743 17.2541 18.3743H18.0041C18.6254 18.3743 19.1291 17.8706 19.1291 17.2493V13.8741V12.7493V12.3741C19.1291 12.3208 19.1674 12.2745 19.2201 12.2671L19.2782 12.2589C20.0986 12.1436 20.6702 11.3851 20.5549 10.5648C20.4972 10.1546 20.118 9.86881 19.7078 9.92646L18.4162 10.108C18.4058 10.0525 18.3928 9.99657 18.3771 9.94039L17.5458 6.96528C17.3134 6.13345 16.6244 5.51118 15.765 5.42605C14.872 5.3376 13.5856 5.24951 12.0039 5.24951C10.4222 5.24951 9.13582 5.3376 8.24286 5.42605Z" fill="white"/>
<g style="mix-blend-mode:multiply">
<path fill-rule="evenodd" clip-rule="evenodd" d="M19.1291 12.3742C19.1291 12.3209 19.1674 12.2746 19.2201 12.2672L19.2782 12.2591C20.0986 12.1438 20.6702 11.3853 20.5549 10.5649C20.4972 10.1547 20.118 9.86893 19.7078 9.92658L17.6428 10.2168C17.5874 10.2246 17.531 10.2194 17.477 10.2045C17.2866 10.1522 17.0861 10.1242 16.8791 10.1242H7.12905C6.92187 10.1242 6.72122 10.1522 6.5307 10.2046C6.47669 10.2195 6.42031 10.2247 6.36484 10.2169L4.29937 9.92664C3.88918 9.86899 3.50993 10.1548 3.45228 10.565C3.33699 11.3853 3.90856 12.1438 4.72893 12.2591L4.78814 12.2674C4.84083 12.2748 4.87905 12.321 4.87905 12.3742V12.7494V13.8742V17.2494C4.87905 17.8707 5.38273 18.3744 6.00405 18.3744H6.75405C7.37537 18.3744 7.87905 17.8707 7.87905 17.2494V16.4992C7.87905 16.2921 8.04695 16.1242 8.25405 16.1242H15.7541C15.9612 16.1242 16.1291 16.2921 16.1291 16.4992V17.2494C16.1291 17.8707 16.6327 18.3744 17.2541 18.3744H18.0041C18.6254 18.3744 19.1291 17.8707 19.1291 17.2494V13.8742V12.7494V12.3742Z" fill="#AFABFF"/>
</g>
<g style="mix-blend-mode:multiply">
<path d="M6.462 6.96528C6.69442 6.13345 7.38338 5.51118 8.24286 5.42605C9.13582 5.3376 10.4222 5.24951 12.0039 5.24951C13.5856 5.24951 14.872 5.3376 15.765 5.42605C16.6244 5.51118 17.3134 6.13345 17.5458 6.96528L18.3771 9.94039C18.6078 10.766 18.2628 11.5357 17.4176 11.6791C16.443 11.8444 14.787 11.9995 12.0039 11.9995C9.22077 11.9995 7.56477 11.8444 6.59022 11.6791C5.74502 11.5357 5.40002 10.766 5.63072 9.94039L6.462 6.96528Z" fill="#8394FF"/>
</g>
<path opacity="0.5" d="M8.16256 6.61412C8.78902 6.50223 9.92655 6.34282 11.2399 6.26484C11.4207 6.2541 11.4785 6.60272 11.3111 6.672C9.97076 7.22666 8.65465 8.09815 7.79684 8.78666C7.61464 8.9329 7.31698 8.74516 7.38388 8.52132L7.87682 6.87187C7.91656 6.7389 8.02594 6.63852 8.16256 6.61412Z" fill="white"/>
</svg>
