<svg width="24" height="25" viewBox="0 0 24 25" fill="none" xmlns="http://www.w3.org/2000/svg">
<g style="mix-blend-mode:multiply">
<path d="M11.836 18.1714C15.2522 18.1714 18.0215 15.5866 18.0215 12.3982C18.0215 9.20975 15.2522 6.625 11.836 6.625C8.41976 6.625 5.65039 9.20975 5.65039 12.3982C5.65039 15.5866 8.41976 18.1714 11.836 18.1714Z" fill="#FA967C"/>
<path d="M11.836 18.1714C15.2522 18.1714 18.0215 15.5866 18.0215 12.3982C18.0215 9.20975 15.2522 6.625 11.836 6.625C8.41976 6.625 5.65039 9.20975 5.65039 12.3982C5.65039 15.5866 8.41976 18.1714 11.836 18.1714Z" fill="#FA967C"/>
<path fill-rule="evenodd" clip-rule="evenodd" d="M4.26098 5.71101C6.23493 3.74596 8.95893 2.52539 11.9594 2.52539C14.9599 2.52539 17.6839 3.74596 19.6578 5.71101C19.971 6.02272 19.9721 6.52925 19.6604 6.84237C19.3487 7.1555 18.8421 7.15664 18.529 6.84493C16.8411 5.16462 14.5177 4.12539 11.9594 4.12539C9.40113 4.12539 7.07771 5.16462 5.3898 6.84493C5.07667 7.15664 4.57014 7.1555 4.25843 6.84237C3.94672 6.52925 3.94786 6.02272 4.26098 5.71101Z" fill="#D63D4A"/>
<path fill-rule="evenodd" clip-rule="evenodd" d="M11.95 8.04336C10.473 8.04336 9.13035 8.64487 8.1507 9.61731C7.83713 9.92858 7.33061 9.92671 7.01934 9.61314C6.70808 9.29957 6.70995 8.79304 7.02352 8.48178C8.28717 7.22741 10.0291 6.44336 11.95 6.44336C13.8693 6.44336 15.621 7.2263 16.8786 8.48386C17.191 8.79628 17.191 9.30281 16.8786 9.61523C16.5661 9.92765 16.0596 9.92765 15.7472 9.61523C14.778 8.64598 13.4286 8.04336 11.95 8.04336Z" fill="#D63D4A"/>
<path fill-rule="evenodd" clip-rule="evenodd" d="M4.25843 18.1594C4.57014 17.8463 5.07667 17.8452 5.3898 18.1569C7.07771 19.8372 9.40113 20.8764 11.9594 20.8764C14.5177 20.8764 16.8411 19.8372 18.529 18.1569C18.8421 17.8452 19.3487 17.8463 19.6604 18.1594C19.9721 18.4725 19.971 18.9791 19.6578 19.2908C17.6839 21.2558 14.9599 22.4764 11.9594 22.4764C8.95893 22.4764 6.23493 21.2558 4.26098 19.2908C3.94786 18.9791 3.94672 18.4725 4.25843 18.1594Z" fill="#D63D4A"/>
<path fill-rule="evenodd" clip-rule="evenodd" d="M7.01934 15.3878C7.33061 15.0742 7.83713 15.0723 8.1507 15.3836C9.13035 16.356 10.473 16.9576 11.95 16.9576C13.4286 16.9576 14.778 16.3549 15.7472 15.3857C16.0596 15.0733 16.5661 15.0733 16.8786 15.3857C17.191 15.6981 17.191 16.2046 16.8786 16.5171C15.621 17.7746 13.8693 18.5576 11.95 18.5576C10.0291 18.5576 8.28717 17.7735 7.02352 16.5191C6.70995 16.2079 6.70808 15.7013 7.01934 15.3878Z" fill="#D63D4A"/>
<path d="M11.9605 14.1534C12.876 14.1534 13.6182 13.4112 13.6182 12.4956C13.6182 11.5801 12.876 10.8379 11.9605 10.8379C11.0449 10.8379 10.3027 11.5801 10.3027 12.4956C10.3027 13.4112 11.0449 14.1534 11.9605 14.1534Z" fill="white"/>
</g>
</svg>
