<svg width="25" height="24" viewBox="0 0 25 24" fill="none" xmlns="http://www.w3.org/2000/svg">
<path fill-rule="evenodd" clip-rule="evenodd" d="M12.5 7.69995C9.84898 7.69995 7.69995 9.84898 7.69995 12.5C7.69995 15.1509 9.84898 17.3 12.5 17.3C15.1509 17.3 17.3 15.1509 17.3 12.5C17.3 9.84898 15.1509 7.69995 12.5 7.69995ZM9.29995 12.5C9.29995 10.7326 10.7326 9.29995 12.5 9.29995C14.2673 9.29995 15.7 10.7326 15.7 12.5C15.7 14.2673 14.2673 15.7 12.5 15.7C10.7326 15.7 9.29995 14.2673 9.29995 12.5Z" fill="#33363D"/>
<path fill-rule="evenodd" clip-rule="evenodd" d="M7.51744 3.1069C7.83792 2.54607 8.43433 2.19995 9.08028 2.19995H15.9196C16.5656 2.19995 17.162 2.54607 17.4825 3.1069L18.9642 5.69995H20.5C21.4941 5.69995 22.2999 6.50584 22.2999 7.49995V19C22.2999 19.9941 21.4941 20.8 20.5 20.8H4.49995C3.50584 20.8 2.69995 19.9941 2.69995 19V7.49995C2.69995 6.50584 3.50584 5.69995 4.49995 5.69995H6.0357L7.51744 3.1069ZM17.8054 6.89686C17.9478 7.14612 18.2129 7.29995 18.5 7.29995L20.5 7.29995C20.6104 7.29995 20.7 7.38949 20.7 7.49995V19C20.7 19.1104 20.6104 19.2 20.5 19.2H4.49995C4.38949 19.2 4.29995 19.1104 4.29995 19V7.49995C4.29995 7.38949 4.38949 7.29995 4.49995 7.29995L6.49995 7.29995C6.78704 7.29995 7.05211 7.14612 7.19455 6.89686L8.90663 3.90072C8.94224 3.83841 9.0085 3.79995 9.08028 3.79995H15.9196C15.9914 3.79995 16.0577 3.83841 16.0933 3.90072L17.8054 6.89686Z" fill="#33363D"/>
</svg>
