<svg width="21" height="20" viewBox="0 0 21 20" fill="none" xmlns="http://www.w3.org/2000/svg">
<path d="M11.75 1.66699C11.9268 1.66699 12.0967 1.73726 12.2217 1.8623L16.9707 6.6123C17.0957 6.73732 17.166 6.90721 17.166 7.08398V9.16699H17.167C17.6271 9.16717 18 9.53987 18 10V15C18 15.4601 17.6271 15.8328 17.167 15.833H17.166V16.834C17.1658 17.6622 16.4943 18.334 15.666 18.334H5.33301C4.50489 18.3338 3.83327 17.6621 3.83301 16.834V3.16699C3.83301 2.33867 4.50473 1.66717 5.33301 1.66699H11.75ZM5.33301 3C5.24111 3.00018 5.16699 3.07505 5.16699 3.16699V16.834C5.16726 16.9257 5.24127 16.9998 5.33301 17H15.666C15.7579 17 15.8327 16.9258 15.833 16.834V15.833H7.16699C6.70675 15.833 6.33301 15.4602 6.33301 15V10C6.33301 9.53976 6.70675 9.16699 7.16699 9.16699H15.833V7.75H12.583C11.7547 7.74982 11.083 7.07832 11.083 6.25V3H5.33301ZM12.417 6.25C12.417 6.34194 12.4911 6.41682 12.583 6.41699H14.8896L12.417 3.94336V6.25Z" fill="#33363D"/>
<path d="M9.25391 10.833C10.0189 10.8331 10.4287 11.2989 10.4287 11.9395C10.4287 12.5801 10.0139 13.041 9.24414 13.041H8.59961V14.1699H8V10.833H9.25391ZM12.0654 10.833C13.0609 10.8331 13.665 11.4602 13.665 12.4971C13.665 13.5387 13.0609 14.1699 12.0469 14.1699H10.9131V10.833H12.0654ZM16.333 11.3359H14.7939V12.248H16.1855V12.751H14.7939V14.1699H14.1943V10.833H16.333V11.3359ZM11.5117 13.6494H12.0146C12.7106 13.6494 13.0654 13.2668 13.0654 12.4971C13.0654 11.7321 12.7106 11.3546 12.0332 11.3545H11.5117V13.6494ZM8.59961 12.5479H9.16113C9.61283 12.5479 9.81641 12.2944 9.81641 11.9395C9.81638 11.58 9.6128 11.3359 9.16113 11.3359H8.59961V12.5479Z" fill="white"/>
</svg>
