<svg width="33" height="32" viewBox="0 0 33 32" fill="none" xmlns="http://www.w3.org/2000/svg">
<path d="M3.1665 16.0002C3.1665 23.364 9.13604 29.3335 16.4998 29.3335C23.8636 29.3335 29.8332 23.364 29.8332 16.0002C29.8332 8.63636 23.8636 2.66683 16.4998 2.66683C9.13604 2.66683 3.1665 8.63636 3.1665 16.0002Z" fill="#DE3412"/>
<path fill-rule="evenodd" clip-rule="evenodd" d="M13.253 11.246C12.8365 10.8295 12.1611 10.8295 11.7445 11.246C11.328 11.6626 11.328 12.3379 11.7445 12.7545L14.9913 16.0013L11.7466 19.246C11.3301 19.6626 11.3301 20.3379 11.7466 20.7545C12.1632 21.1711 12.8386 21.1711 13.2551 20.7545L16.4998 17.5098L19.7445 20.7545C20.1611 21.1711 20.8365 21.1711 21.253 20.7545C21.6696 20.3379 21.6696 19.6626 21.253 19.246L18.0083 16.0013L21.2551 12.7545C21.6717 12.3379 21.6717 11.6626 21.2551 11.246C20.8386 10.8295 20.1632 10.8295 19.7466 11.246L16.4998 14.4928L13.253 11.246Z" fill="white"/>
</svg>
