<svg width="41" height="40" viewBox="0 0 41 40" fill="none" xmlns="http://www.w3.org/2000/svg">
<ellipse cx="20.2131" cy="31.0927" rx="18.963" ry="3.55556" fill="#FDCFC3"/>
<path d="M23.4122 9.10258C23.6948 9.16444 23.9895 9.09863 24.2251 8.93076C25.7866 7.81801 28.1993 6.85307 29.3201 7.28505C30.4475 7.7197 30.052 9.59631 30.0506 11.97C30.0504 12.2291 30.1662 12.4732 30.3546 12.6512C31.575 13.8043 32.5074 15.1587 33.0628 16.6434C33.1544 16.8881 33.384 17.0575 33.6453 17.0575C34.6696 17.0577 35.4996 17.8877 35.4998 18.912V22.622C35.4998 23.6464 34.6697 24.4773 33.6453 24.4774H32.9198C32.5875 24.4774 32.2833 24.657 32.1032 24.9361C31.809 25.392 31.4765 25.8294 31.1092 26.2459C30.9532 26.4228 30.8621 26.6488 30.8621 26.8847V30.9698C30.8621 31.4821 30.4468 31.8974 29.9345 31.8974H26.9484C26.5229 31.8974 26.1519 31.6078 26.0486 31.195L25.9754 30.9022C25.8403 30.3626 25.2644 30.0644 24.7329 30.2284C23.181 30.7072 21.495 30.9706 19.7322 30.9706C17.969 30.9706 16.2824 30.7075 14.7301 30.2286C14.1984 30.0646 13.6222 30.3631 13.4874 30.9029L13.4145 31.1946C13.3114 31.6076 12.9403 31.8974 12.5147 31.8974H9.52887C9.0166 31.8974 8.60133 31.4821 8.60133 30.9698V26.8847C8.60133 26.6488 8.51012 26.4228 8.35414 26.2458C6.9425 24.6443 6.04567 22.7318 5.8567 20.6618C5.82144 20.2755 5.57464 19.9391 5.22439 19.7723C4.56362 19.4577 3.89454 18.9884 3.29257 18.3072C2.95346 17.9235 3.07357 17.3418 3.49957 17.0576C3.92573 16.7734 4.49456 16.8981 4.85562 17.2615C4.90315 17.3094 4.95107 17.3555 4.99931 17.3998C5.44808 17.8124 6.10858 17.4921 6.30459 16.9149C7.91004 12.1865 13.3135 8.70888 19.7322 8.70888C21.0061 8.70889 22.24 8.84601 23.4122 9.10258Z" fill="#FA967C"/>
<mask id="path-3-inside-1_4076_370284" fill="white">
<path d="M18.8043 4.07227C21.3656 4.07227 23.442 6.14863 23.442 8.70996C23.442 9.87725 23.0094 10.9426 22.2975 11.7578C21.4778 11.5841 20.6181 11.4922 19.7321 11.4922C18.3048 11.4922 16.946 11.7321 15.7125 12.165C14.7642 11.3159 14.1666 10.0831 14.1666 8.70996C14.1666 6.14863 16.243 4.07227 18.8043 4.07227Z"/>
</mask>
<path d="M18.8043 4.07227C21.3656 4.07227 23.442 6.14863 23.442 8.70996C23.442 9.87725 23.0094 10.9426 22.2975 11.7578C21.4778 11.5841 20.6181 11.4922 19.7321 11.4922C18.3048 11.4922 16.946 11.7321 15.7125 12.165C14.7642 11.3159 14.1666 10.0831 14.1666 8.70996C14.1666 6.14863 16.243 4.07227 18.8043 4.07227Z" fill="#D63D4A"/>
<path d="M18.8043 4.07227L18.8043 3.14473H18.8043V4.07227ZM23.442 8.70996L24.3696 8.70996V8.70996H23.442ZM22.2975 11.7578L22.1052 12.6652L22.638 12.7781L22.9961 12.3679L22.2975 11.7578ZM19.7321 11.4922L19.7321 10.5646H19.7321V11.4922ZM15.7125 12.165L15.0938 12.856L15.5023 13.2219L16.0197 13.0402L15.7125 12.165ZM14.1666 8.70996H13.2391V8.70996L14.1666 8.70996ZM18.8043 4.07227L18.8043 4.9998C20.8534 4.99981 22.5145 6.6609 22.5145 8.70996H23.442H24.3696C24.3696 5.63637 21.8779 3.14473 18.8043 3.14473L18.8043 4.07227ZM23.442 8.70996L22.5145 8.70996C22.5145 9.64343 22.1695 10.4942 21.5988 11.1477L22.2975 11.7578L22.9961 12.3679C23.8492 11.391 24.3696 10.1111 24.3696 8.70996L23.442 8.70996ZM22.2975 11.7578L22.4897 10.8504C21.6064 10.6633 20.6822 10.5647 19.7321 10.5646L19.7321 11.4922L19.7321 12.4197C20.5539 12.4197 21.3493 12.505 22.1052 12.6652L22.2975 11.7578ZM19.7321 11.4922V10.5646C18.2011 10.5646 16.7383 10.8219 15.4053 11.2899L15.7125 12.165L16.0197 13.0402C17.1536 12.6422 18.4086 12.4197 19.7321 12.4197V11.4922ZM15.7125 12.165L16.3313 11.474C15.5707 10.793 15.0942 9.80777 15.0942 8.70996L14.1666 8.70996L13.2391 8.70996C13.2391 10.3584 13.9578 11.8388 15.0938 12.856L15.7125 12.165ZM14.1666 8.70996H15.0942C15.0942 6.6609 16.7553 4.9998 18.8043 4.9998V4.07227V3.14473C15.7307 3.14473 13.2391 5.63637 13.2391 8.70996H14.1666Z" fill="#D63D4A" mask="url(#path-3-inside-1_4076_370284)"/>
<path d="M30.3323 17.4117C30.3323 18.1192 29.7588 18.6926 29.0514 18.6926C28.344 18.6926 27.7705 18.1192 27.7705 17.4117C27.7705 16.7043 28.344 16.1309 29.0514 16.1309C29.7588 16.1309 30.3323 16.7043 30.3323 17.4117Z" fill="#D63D4A"/>
<ellipse cx="28.4133" cy="22.1599" rx="2.31885" ry="1.39131" fill="white"/>
<path d="M24.3697 12.4024C22.9782 11.8205 21.402 11.4922 19.732 11.4922C17.4765 11.4922 15.392 12.091 13.703 13.1048" stroke="#D63D4A" stroke-width="1.48406" stroke-linecap="round"/>
</svg>
