<svg width="24" height="24" viewBox="0 0 24 24" fill="none" xmlns="http://www.w3.org/2000/svg">
<g style="mix-blend-mode:multiply">
<path fill-rule="evenodd" clip-rule="evenodd" d="M7.66465 3.5C7.33837 3.50011 7.0179 3.59339 6.73573 3.77039C6.45356 3.94739 6.21971 4.20182 6.05787 4.50789L2.74435 10.7722C2.58425 11.0745 2.50002 11.4168 2.5 11.7651V16.2626C2.50002 16.5729 2.56688 16.879 2.69529 17.1565L3.73008 19.3923C3.88377 19.7245 4.1201 20.004 4.41256 20.1993C4.70503 20.3947 5.04207 20.4981 5.38591 20.4982H6.20226C6.69321 20.4982 7.16405 20.2875 7.51121 19.9124C7.85836 19.5374 8.05339 19.0287 8.05339 18.4984H15.4579C15.4579 19.0287 15.6529 19.5374 16.0001 19.9124C16.3473 20.2875 16.8181 20.4982 17.309 20.4982H18.1254C18.4692 20.4981 18.8063 20.3947 19.0987 20.1993C19.3912 20.004 19.6275 19.7245 19.7812 19.3923L20.816 17.1565C20.9447 16.8795 21.0113 16.5726 21.0113 16.2626V11.7651C21.0113 11.4168 20.9271 11.0745 20.767 10.7722L17.4534 4.50789C17.2916 4.20182 17.0577 3.94739 16.7756 3.77039C16.4934 3.59339 16.1729 3.50011 15.8467 3.5H7.66465Z" fill="#FA967C"/>
<g style="mix-blend-mode:multiply">
<path d="M4.40691 20.2003C4.11445 20.005 3.87812 19.7255 3.72442 19.3933L3.20703 18.2754H20.293L19.7756 19.3933C19.6219 19.7255 19.3856 20.005 19.0931 20.2003C18.8006 20.3957 18.4636 20.4991 18.1197 20.4991H17.3034C16.8124 20.4991 16.3416 20.2885 15.9944 19.9134C15.6473 19.5384 15.4523 19.0297 15.4523 18.4994H8.04774C8.04774 19.0297 7.85271 19.5384 7.50555 19.9134C7.1584 20.2885 6.68756 20.4991 6.19661 20.4991H5.38026C5.03642 20.4991 4.69937 20.3957 4.40691 20.2003Z" fill="#D63D4A"/>
</g>
<g style="mix-blend-mode:multiply">
<path d="M5.58208 9.45625L7.09346 6.05565C7.22991 5.74864 7.53436 5.55078 7.87033 5.55078H15.8336C16.1696 5.55078 16.474 5.74864 16.6105 6.05565L18.1219 9.45625C18.3717 10.0184 17.9602 10.6517 17.345 10.6517H6.35896C5.74374 10.6517 5.33222 10.0184 5.58208 9.45625Z" fill="#D63D4A"/>
</g>
<circle cx="7.17561" cy="14.5506" r="1.27522" fill="white"/>
<circle cx="16.5272" cy="14.5506" r="1.27522" fill="white"/>
<g style="mix-blend-mode:multiply">
<circle cx="17.5" cy="6.5" r="4" fill="#D63D4A"/>
</g>
<path d="M17.501 4.20117C17.7941 4.20117 18.0321 4.43839 18.0322 4.73145V5.9707H19.2705L19.3779 5.98145C19.6196 6.031 19.8006 6.2447 19.8008 6.50098C19.8008 6.75744 19.6197 6.97191 19.3779 7.02148L19.2705 7.03223H18.0322V8.27051L18.0215 8.37793C17.9719 8.61975 17.7575 8.80078 17.501 8.80078C17.2447 8.80065 17.031 8.61962 16.9814 8.37793L16.9707 8.27051V7.03223H15.7314C15.4384 7.03207 15.2012 6.79406 15.2012 6.50098C15.2014 6.20808 15.4385 5.97085 15.7314 5.9707H16.9707V4.73145C16.9709 4.43849 17.208 4.20133 17.501 4.20117Z" fill="white"/>
</g>
</svg>
