<svg width="21" height="20" viewBox="0 0 21 20" fill="none" xmlns="http://www.w3.org/2000/svg">
<path d="M11.7505 1.66699C11.9271 1.66712 12.0963 1.73737 12.2212 1.8623L16.9712 6.6123C17.0959 6.73718 17.1664 6.90653 17.1665 7.08301V9.16699L17.2515 9.1709C17.6719 9.21339 17.9995 9.56839 17.9995 10V15C17.9995 15.4316 17.6719 15.7866 17.2515 15.8291L17.1665 15.833V16.833C17.1665 17.6613 16.4947 18.3327 15.6665 18.333H5.3335C4.50507 18.333 3.8335 17.6614 3.8335 16.833V3.16699C3.8335 2.33857 4.50507 1.66699 5.3335 1.66699H11.7505ZM5.3335 3C5.24145 3 5.1665 3.07494 5.1665 3.16699V16.833C5.1665 16.9251 5.24145 17 5.3335 17H15.6665C15.7583 16.9997 15.8325 16.9249 15.8325 16.833V15.833H7.1665C6.70634 15.8329 6.3335 15.4602 6.3335 15V10C6.3335 9.53982 6.70634 9.16708 7.1665 9.16699H15.8325V7.75H12.5835C11.7551 7.75 11.0835 7.07843 11.0835 6.25V3H5.3335ZM12.4165 6.25C12.4165 6.34205 12.4914 6.41699 12.5835 6.41699H14.8901L12.4165 3.94336V6.25Z" fill="#33363D"/>
<path d="M9.84717 10.792C10.5819 10.792 11.1475 11.2464 11.2485 11.8984H10.6372C10.5315 11.5449 10.2561 11.3291 9.85205 11.3291C9.31494 11.3292 8.92935 11.7469 8.9292 12.4951C8.9292 13.2527 9.31019 13.6708 9.86572 13.6709C10.3661 13.6709 10.6874 13.3683 10.6968 12.8955H9.92529V12.4219H11.2759V12.8213C11.2759 13.6755 10.6877 14.208 9.86572 14.208C8.9474 14.2079 8.32764 13.5561 8.32764 12.5C8.3277 11.4349 8.9749 10.7922 9.84717 10.792ZM12.6499 14.1631H12.0522V10.8379H12.6499V14.1631ZM15.6353 11.3389H14.1011V12.248H15.4888V12.749H14.1011V14.1631H13.5044V10.8379H15.6353V11.3389Z" fill="white"/>
</svg>
