<svg width="14" height="14" viewBox="0 0 14 14" fill="none" xmlns="http://www.w3.org/2000/svg">
<path d="M0.333374 6.99984C0.333374 10.6817 3.31814 13.6665 7.00004 13.6665C10.6819 13.6665 13.6667 10.6817 13.6667 6.99984C13.6667 3.31794 10.6819 0.33317 7.00004 0.33317C3.31814 0.33317 0.333374 3.31794 0.333374 6.99984Z" fill="#DE3412"/>
<path fill-rule="evenodd" clip-rule="evenodd" d="M5.37664 4.62301C5.16836 4.41473 4.83068 4.41473 4.6224 4.62301C4.41412 4.83129 4.41412 5.16897 4.6224 5.37725L6.24579 7.00065L4.62344 8.62301C4.41516 8.83129 4.41516 9.16897 4.62344 9.37725C4.83172 9.58553 5.1694 9.58553 5.37768 9.37725L7.00004 7.7549L8.6224 9.37725C8.83068 9.58553 9.16836 9.58553 9.37664 9.37725C9.58492 9.16897 9.58492 8.83129 9.37664 8.62301L7.75429 7.00065L9.37769 5.37725C9.58597 5.16897 9.58597 4.83129 9.37769 4.62301C9.16941 4.41473 8.83172 4.41473 8.62344 4.62301L7.00004 6.2464L5.37664 4.62301Z" fill="white"/>
</svg>
