<svg width="25" height="24" viewBox="0 0 25 24" fill="none" xmlns="http://www.w3.org/2000/svg">
<path d="M22 12C22 17.2467 17.7467 21.5 12.5 21.5C7.25329 21.5 3 17.2467 3 12C3 6.75329 7.25329 2.5 12.5 2.5C17.7467 2.5 22 6.75329 22 12Z" fill="white"/>
<path d="M22 12C22 17.2467 17.7467 21.5 12.5 21.5C7.25329 21.5 3 17.2467 3 12C3 6.75329 7.25329 2.5 12.5 2.5C17.7467 2.5 22 6.75329 22 12Z" fill="#FA967C"/>
<g style="mix-blend-mode:multiply">
<path d="M19.2857 12C19.2857 8.25235 16.2476 5.21429 12.5 5.21429C8.75235 5.21429 5.71429 8.25235 5.71429 12C5.71429 12.7495 5.10667 13.3571 4.35714 13.3571C3.60761 13.3571 3 12.7495 3 12C3 6.75329 7.25329 2.5 12.5 2.5C17.7467 2.5 22 6.75329 22 12C22 12.7495 21.3924 13.3571 20.6429 13.3571C19.8933 13.3571 19.2857 12.7495 19.2857 12Z" fill="#D63D4A"/>
</g>
<g style="mix-blend-mode:plus-darker">
<path d="M14.0079 10.2559C14.3494 9.91477 14.9028 9.91462 15.2442 10.2559C15.5857 10.5974 15.5857 11.1517 15.2442 11.4932L10.9932 15.7442C10.6517 16.0857 10.0974 16.0857 9.75592 15.7442C9.41462 15.4028 9.41477 14.8494 9.75592 14.5079L14.0079 10.2559Z" fill="#D63D4A"/>
<path d="M14.5001 14.0001C15.0523 14.0001 15.5 14.4478 15.5001 15.0001C15.5001 15.5523 15.0523 16.0001 14.5001 16.0001C13.9478 16 13.5001 15.5523 13.5001 15.0001C13.5001 14.4479 13.9479 14.0001 14.5001 14.0001Z" fill="#D63D4A"/>
<path d="M10.5001 10.0001C11.0523 10.0001 11.5 10.4478 11.5001 11.0001C11.5001 11.5523 11.0523 12.0001 10.5001 12.0001C9.94782 12 9.50006 11.5523 9.50006 11.0001C9.50012 10.4479 9.94786 10.0001 10.5001 10.0001Z" fill="#D63D4A"/>
</g>
</svg>
