<svg width="24" height="24" viewBox="0 0 24 24" fill="none" xmlns="http://www.w3.org/2000/svg">
<path d="M2.0697 6.7373C2.65373 5.86677 3.88797 5.74612 4.62927 6.4873L7.02673 8.88574C7.71873 9.57776 7.62837 10.7241 6.8363 11.2988L6.19372 11.7656C5.81115 12.0432 5.67352 12.5497 5.86364 12.9824C6.87568 15.2852 8.7152 17.1247 11.0179 18.1367C11.4506 18.3267 11.9572 18.1891 12.2347 17.8066L12.7015 17.1641C13.2762 16.3721 14.4226 16.2809 15.1146 16.9727L17.5131 19.3711C18.2539 20.1123 18.1333 21.3456 17.2631 21.9297L16.8568 22.2021C15.4573 23.141 13.6625 23.2594 12.1517 22.5127C7.52274 20.2248 3.77461 16.4776 1.48669 11.8486C0.739933 10.3377 0.859264 8.54215 1.79821 7.14258L2.0697 6.7373Z" fill="#6D7882"/>
<path fill-rule="evenodd" clip-rule="evenodd" d="M16.5013 1C20.09 1.00025 23.0004 3.69509 23.0004 7.01953C23.0002 10.3439 20.0913 13.0378 16.5013 13.0381C16.1358 13.0381 15.7765 13.011 15.4271 12.957C15.2961 12.9368 15.1608 12.96 15.0472 13.0283C14.5062 13.3543 13.8154 13.7703 13.264 14.1025C12.9026 14.3198 12.4408 14.0596 12.4398 13.6377L12.4359 11.9834C12.4355 11.8146 12.3553 11.6556 12.223 11.5508C10.926 10.5245 10.0004 9.34962 10.0004 7.01953C10.0004 3.69493 12.9111 1 16.5013 1ZM19.4242 5.09961C19.1899 4.86533 18.8109 4.8654 18.5765 5.09961L16.0004 7.67578L14.4242 6.09961L14.3304 6.02246C14.0976 5.86869 13.7816 5.89467 13.5765 6.09961C13.3715 6.30465 13.3456 6.62062 13.4994 6.85352L13.5765 6.94727L15.5765 8.94727L15.6703 9.02441C15.9032 9.1781 16.2192 9.15226 16.4242 8.94727L19.4242 5.94727C19.6584 5.71298 19.6584 5.3339 19.4242 5.09961Z" fill="#6D7882"/>
</svg>
