<svg width="20" height="20" viewBox="0 0 20 20" fill="none" xmlns="http://www.w3.org/2000/svg">
<path fill-rule="evenodd" clip-rule="evenodd" d="M3.86207 2.54866C4.35143 2.0827 5.00349 1.82582 5.67965 1.83316C6.362 1.84057 7.01396 2.11647 7.49437 2.60111C7.5078 2.61466 7.51733 2.62541 7.51982 2.62822C7.525 2.63404 7.5294 2.6392 7.53173 2.64196L7.5432 2.65581L7.55981 2.67654C7.57093 2.69056 7.58559 2.70924 7.60267 2.73111C7.63709 2.77517 7.68463 2.83638 7.74047 2.90845C7.85231 3.0528 7.99931 3.24313 8.14541 3.43251C8.29157 3.62196 8.43709 3.81078 8.54604 3.95221L8.70773 4.16215C9.15381 4.64448 9.40172 5.27788 9.40095 5.9358C9.40018 6.59866 9.14703 7.23606 8.69345 7.71867L7.97264 8.5747C8.33074 9.3255 8.81436 10.0108 9.40354 10.6007C9.99237 11.1903 10.6766 11.6745 11.4264 12.0334L12.2819 11.3103C12.7645 10.8556 13.4023 10.6016 14.0659 10.6005C14.7243 10.5994 15.3583 10.8475 15.8409 11.294L16.0511 11.4558C16.1927 11.5649 16.3818 11.7106 16.5715 11.8568C16.7612 12.0031 16.9517 12.1502 17.0962 12.262C17.1683 12.3179 17.2296 12.3654 17.2736 12.3998L17.3281 12.4425L17.3486 12.459L17.3624 12.4703C17.3651 12.4726 17.37 12.4768 17.3758 12.4819C17.378 12.4839 17.3908 12.4952 17.4068 12.5111C17.8933 12.9997 18.1664 13.6616 18.1667 14.3507C18.167 15.032 17.9007 15.686 17.4253 16.1731L16.868 16.8149C16.8545 16.8304 16.8402 16.8454 16.8253 16.8596C15.306 18.3122 13.2795 18.4244 11.3269 17.8222C9.37994 17.2218 7.40062 15.8898 5.76968 14.2624C4.13862 12.6349 2.80115 10.6573 2.1907 8.71138C1.57897 6.76142 1.6743 4.73361 3.10682 3.21042C3.12203 3.19425 3.13803 3.17886 3.15477 3.16429L3.86207 2.54866ZM15.002 12.3309C14.9835 12.3166 14.9658 12.3014 14.9488 12.2853C14.7114 12.0592 14.3959 11.9333 14.068 11.9338C13.7402 11.9344 13.4251 12.0613 13.1884 12.2882C13.1784 12.2978 13.1681 12.3071 13.1575 12.3161L11.9679 13.3216C11.7775 13.4826 11.5133 13.5238 11.2829 13.4286C10.2269 12.9923 9.2676 12.3514 8.46015 11.543C7.65269 10.7345 7.01301 9.7744 6.5779 8.71785C6.48326 8.48805 6.5243 8.22469 6.68438 8.03458L7.68612 6.84492C7.69517 6.83417 7.70455 6.82372 7.71426 6.81357C7.94069 6.57679 8.06724 6.26189 8.06762 5.93424C8.068 5.60659 7.94219 5.29139 7.71632 5.05409C7.70028 5.03724 7.68513 5.01956 7.67094 5.00113L7.48979 4.76591C7.38094 4.62462 7.23564 4.43607 7.08973 4.24695C6.94376 4.05775 6.79744 3.8683 6.68647 3.72507C6.63091 3.65336 6.58467 3.59383 6.55192 3.5519L6.52525 3.51794C6.29399 3.29587 5.9865 3.16991 5.66517 3.16642C5.33344 3.16281 5.01363 3.29003 4.77499 3.52053C4.7667 3.52853 4.75821 3.53632 4.74952 3.54388L4.05637 4.14719C3.0913 5.19229 2.93912 6.64266 3.4629 8.31227C3.99187 9.99841 5.18696 11.7974 6.71146 13.3186C8.23607 14.8399 10.0353 16.0286 11.7198 16.5481C13.3871 17.0624 14.8364 16.8997 15.8824 15.9162L16.4323 15.2831C16.4421 15.2719 16.4523 15.2609 16.4628 15.2503C16.7003 15.0114 16.8335 14.6882 16.8333 14.3513C16.8332 14.0254 16.7082 13.712 16.4853 13.476L16.4532 13.4509C16.4113 13.4181 16.3517 13.3719 16.2799 13.3163C16.1365 13.2052 15.9468 13.0588 15.7573 12.9127C15.568 12.7667 15.3791 12.6212 15.2376 12.5122L15.002 12.3309ZM6.54778 3.54011C6.54767 3.54 6.54788 3.54022 6.54778 3.54011V3.54011ZM6.55703 3.54925C6.55377 3.5461 6.55068 3.54303 6.54778 3.54011L6.55703 3.54925Z" fill="#33363D"/>
</svg>
