<svg width="24" height="24" viewBox="0 0 24 24" fill="none" xmlns="http://www.w3.org/2000/svg">
<path fill-rule="evenodd" clip-rule="evenodd" d="M12 7.7002C9.34898 7.7002 7.19995 9.84923 7.19995 12.5002C7.19995 15.1512 9.34898 17.3002 12 17.3002C14.6509 17.3002 16.8 15.1512 16.8 12.5002C16.8 9.84923 14.6509 7.7002 12 7.7002ZM8.79995 12.5002C8.79995 10.7329 10.2326 9.3002 12 9.3002C13.7673 9.3002 15.2 10.7329 15.2 12.5002C15.2 14.2675 13.7673 15.7002 12 15.7002C10.2326 15.7002 8.79995 14.2675 8.79995 12.5002Z" fill="#33363D"/>
<path fill-rule="evenodd" clip-rule="evenodd" d="M7.01744 3.10715C7.33792 2.54631 7.93433 2.2002 8.58028 2.2002H15.4196C16.0656 2.2002 16.662 2.54631 16.9825 3.10715L18.4642 5.7002H20C20.9941 5.7002 21.7999 6.50608 21.7999 7.5002V19.0002C21.7999 19.9943 20.9941 20.8002 20 20.8002H3.99995C3.00584 20.8002 2.19995 19.9943 2.19995 19.0002V7.5002C2.19995 6.50608 3.00584 5.7002 3.99995 5.7002H5.5357L7.01744 3.10715ZM17.3054 6.89711C17.4478 7.14637 17.7129 7.3002 18 7.3002L20 7.3002C20.1104 7.3002 20.2 7.38974 20.2 7.5002V19.0002C20.2 19.1107 20.1104 19.2002 20 19.2002H3.99995C3.88949 19.2002 3.79995 19.1107 3.79995 19.0002V7.5002C3.79995 7.38974 3.88949 7.3002 3.99995 7.3002L5.99995 7.3002C6.28704 7.3002 6.55211 7.14637 6.69455 6.89711L8.40663 3.90097C8.44224 3.83865 8.5085 3.8002 8.58028 3.8002H15.4196C15.4914 3.8002 15.5577 3.83865 15.5933 3.90097L17.3054 6.89711Z" fill="#33363D"/>
</svg>
