<svg width="24" height="25" viewBox="0 0 24 25" fill="none" xmlns="http://www.w3.org/2000/svg">
<path d="M4.71499 4.88925L4.44811 5.28706C3.52757 6.65918 3.41137 8.41891 4.14348 9.90017C6.38656 14.4385 10.0607 18.1126 14.599 20.3557C16.0803 21.0878 17.84 20.9716 19.2121 20.0511L19.6099 19.7842C20.4634 19.2116 20.5814 18.002 19.8547 17.2753L17.5038 14.9245C16.8254 14.246 15.701 14.3349 15.1376 15.1115L14.6803 15.7418C14.4082 16.1169 13.9113 16.2515 13.487 16.0651C11.2295 15.0729 9.42631 13.2697 8.43412 11.0121C8.24766 10.5879 8.38225 10.091 8.75736 9.8189L9.38767 9.36162C10.1643 8.79816 10.2532 7.67383 9.57472 6.99534L7.22389 4.64451C6.49714 3.91776 5.28759 4.03575 4.71499 4.88925Z" fill="#33363D"/>
</svg>
