<svg width="20" height="20" viewBox="0 0 20 20" fill="none" xmlns="http://www.w3.org/2000/svg">
<path d="M11.2505 1.66699C11.4271 1.66712 11.5963 1.73737 11.7212 1.8623L16.4712 6.6123C16.5959 6.73718 16.6664 6.90653 16.6665 7.08301V9.16699L16.7515 9.1709C17.1719 9.21339 17.4995 9.56839 17.4995 10V15C17.4995 15.4316 17.1719 15.7866 16.7515 15.8291L16.6665 15.833V16.833C16.6665 17.6613 15.9947 18.3327 15.1665 18.333H4.8335C4.00507 18.333 3.3335 17.6614 3.3335 16.833V3.16699C3.3335 2.33857 4.00507 1.66699 4.8335 1.66699H11.2505ZM4.8335 3C4.74145 3 4.6665 3.07494 4.6665 3.16699V16.833C4.6665 16.9251 4.74145 17 4.8335 17H15.1665C15.2583 16.9997 15.3325 16.9249 15.3325 16.833V15.833H6.6665C6.20634 15.8329 5.8335 15.4602 5.8335 15V10C5.8335 9.53982 6.20634 9.16708 6.6665 9.16699H15.3325V7.75H12.0835C11.2551 7.75 10.5835 7.07843 10.5835 6.25V3H4.8335ZM11.9165 6.25C11.9165 6.34205 11.9914 6.41699 12.0835 6.41699H14.3901L11.9165 3.94336V6.25Z" fill="#33363D"/>
<path d="M8.36426 10.916C9.0499 10.916 9.39046 11.2661 9.39062 11.7383C9.39062 12.1232 9.1461 12.3378 8.83594 12.4121V12.4424C9.17231 12.4599 9.5127 12.7406 9.5127 13.2217C9.51254 13.7157 9.15926 14.0828 8.43457 14.083H7.1543V10.916H8.36426ZM11.6143 13.2168H11.6533L12.5928 10.916H13.292V14.083H12.7451V11.9053H12.7148L11.8369 14.0742H11.4307L10.5527 11.8965H10.5264V14.083H9.97559V10.916H10.6748L11.6143 13.2168ZM15.0654 10.916C15.7905 10.916 16.1796 11.358 16.1797 11.9658C16.1797 12.5738 15.7862 13.0117 15.0566 13.0117H14.4453V14.083H13.877V10.916H15.0654ZM7.72168 13.6064H8.34668C8.76162 13.6064 8.93647 13.427 8.93652 13.1777C8.93652 12.8934 8.71322 12.6748 8.35938 12.6748H7.72168V13.6064ZM14.4453 12.543H14.9785C15.4064 12.5429 15.5986 12.3025 15.5986 11.9658C15.5985 11.6249 15.4063 11.3937 14.9785 11.3936H14.4453V12.543ZM7.72168 12.2637H8.29395C8.59537 12.2637 8.82324 12.0885 8.82324 11.8086C8.82324 11.5637 8.64821 11.3887 8.30762 11.3887H7.72168V12.2637Z" fill="white"/>
</svg>
