<svg width="20" height="20" viewBox="0 0 20 20" fill="none" xmlns="http://www.w3.org/2000/svg">
<path d="M11.25 1.66699C11.4268 1.66699 11.5967 1.73726 11.7217 1.8623L16.4707 6.6123C16.5957 6.73732 16.666 6.90721 16.666 7.08398V9.16699H16.667C17.1271 9.16717 17.5 9.53987 17.5 10V15C17.5 15.4602 17.1263 15.833 16.666 15.833V16.834C16.6658 17.6622 15.9943 18.334 15.166 18.334H4.83301C4.00489 18.3338 3.33327 17.6621 3.33301 16.834V3.16699C3.33301 2.33867 4.00473 1.66717 4.83301 1.66699H11.25ZM4.83301 3C4.74111 3.00018 4.66699 3.07505 4.66699 3.16699V16.834C4.66726 16.9257 4.74127 16.9998 4.83301 17H15.166C15.2579 17 15.3327 16.9258 15.333 16.834V15.833H6.66699C6.20675 15.833 5.83301 15.4602 5.83301 15V10C5.83301 9.53976 6.20675 9.16699 6.66699 9.16699H15.333V7.75H12.083C11.2547 7.74982 10.583 7.07832 10.583 6.25V3H4.83301ZM11.917 6.25C11.917 6.34194 11.9911 6.41682 12.083 6.41699H14.3896L11.917 3.94336V6.25Z" fill="#33363D"/>
<path d="M8.75391 10.833C9.51885 10.8331 9.92868 11.2989 9.92871 11.9395C9.92871 12.5801 9.51387 13.041 8.74414 13.041H8.09961V14.1699H7.5V10.833H8.75391ZM11.5654 10.833C12.5609 10.8331 13.165 11.4602 13.165 12.4971C13.165 13.5387 12.5609 14.1699 11.5469 14.1699H10.4131V10.833H11.5654ZM15.833 11.3359H14.2939V12.248H15.6855V12.751H14.2939V14.1699H13.6943V10.833H15.833V11.3359ZM11.0117 13.6494H11.5146C12.2106 13.6494 12.5654 13.2668 12.5654 12.4971C12.5654 11.7321 12.2106 11.3546 11.5332 11.3545H11.0117V13.6494ZM8.09961 12.5479H8.66113C9.11283 12.5479 9.31641 12.2944 9.31641 11.9395C9.31638 11.58 9.1128 11.3359 8.66113 11.3359H8.09961V12.5479Z" fill="white"/>
</svg>
