<svg width="24" height="24" viewBox="0 0 24 24" fill="none" xmlns="http://www.w3.org/2000/svg">
<path fill-rule="evenodd" clip-rule="evenodd" d="M12 7.7002C9.34905 7.7002 7.20001 9.84923 7.20001 12.5002C7.20001 15.1512 9.34905 17.3002 12 17.3002C14.651 17.3002 16.8 15.1512 16.8 12.5002C16.8 9.84923 14.651 7.7002 12 7.7002ZM8.80001 12.5002C8.80001 10.7329 10.2327 9.3002 12 9.3002C13.7673 9.3002 15.2 10.7329 15.2 12.5002C15.2 14.2675 13.7673 15.7002 12 15.7002C10.2327 15.7002 8.80001 14.2675 8.80001 12.5002Z" fill="#DE3412"/>
<path fill-rule="evenodd" clip-rule="evenodd" d="M7.0175 3.10715C7.33798 2.54631 7.93439 2.2002 8.58034 2.2002H15.4197C16.0656 2.2002 16.6621 2.54631 16.9825 3.10715L18.4643 5.7002H20C20.9941 5.7002 21.8 6.50608 21.8 7.5002V19.0002C21.8 19.9943 20.9941 20.8002 20 20.8002H4.00001C3.0059 20.8002 2.20001 19.9943 2.20001 19.0002V7.5002C2.20001 6.50608 3.0059 5.7002 4.00001 5.7002H5.53576L7.0175 3.10715ZM17.3054 6.89711C17.4479 7.14637 17.7129 7.3002 18 7.3002L20 7.3002C20.1105 7.3002 20.2 7.38974 20.2 7.5002V19.0002C20.2 19.1107 20.1105 19.2002 20 19.2002H4.00001C3.88956 19.2002 3.80001 19.1107 3.80001 19.0002V7.5002C3.80001 7.38974 3.88956 7.3002 4.00001 7.3002L6.00001 7.3002C6.2871 7.3002 6.55217 7.14637 6.69461 6.89711L8.40669 3.90097C8.4423 3.83865 8.50857 3.8002 8.58034 3.8002H15.4197C15.4915 3.8002 15.5577 3.83865 15.5933 3.90097L17.3054 6.89711Z" fill="#DE3412"/>
</svg>
