<svg width="56" height="56" viewBox="0 0 56 56" fill="none" xmlns="http://www.w3.org/2000/svg">
<path d="M0 24C0 10.7452 10.7452 0 24 0H32C45.2548 0 56 10.7452 56 24V32C56 45.2548 45.2548 56 32 56H24C10.7452 56 0 45.2548 0 32V24Z" fill="#1877F2"/>
<path d="M34.7631 29.79L35.6096 24.2709H30.3143V20.6895C30.3143 19.1796 31.0542 17.7078 33.4258 17.7078H35.8333V13.0091C35.8333 13.0091 33.6485 12.6362 31.5594 12.6362C27.1983 12.6362 24.3478 15.2794 24.3478 20.0645V24.2709H19.5V29.79H24.3478V43.1318C25.32 43.2844 26.316 43.3638 27.3311 43.3638C28.3461 43.3638 29.3421 43.2844 30.3143 43.1318V29.79H34.7631Z" fill="white"/>
</svg>
