<svg width="16" height="16" viewBox="0 0 16 16" fill="none" xmlns="http://www.w3.org/2000/svg">
<g id="icon/line/login">
<path id="Vector" d="M13.4663 2C13.6078 2 13.7442 2.05623 13.8442 2.15625C13.9441 2.25621 13.9995 2.39192 13.9995 2.5332V13.4688C13.9994 13.7632 13.7608 14.002 13.4663 14.002H8.53369C8.23927 14.0019 8.0006 13.7632 8.00049 13.4688C8.00049 13.1742 8.2392 12.9356 8.53369 12.9355H12.9331V3.06641H8.53369C8.23921 3.06634 8.0005 2.82771 8.00049 2.5332C8.00063 2.23882 8.23928 2.00007 8.53369 2H13.4663ZM6.14893 4.29688C6.35308 4.08455 6.69149 4.07807 6.90381 4.28223L10.3706 7.61523C10.4751 7.71576 10.5337 7.85498 10.5337 8C10.5337 8.14501 10.4751 8.28422 10.3706 8.38477L6.90381 11.7178C6.69149 11.9219 6.35308 11.9154 6.14893 11.7031C5.94499 11.4908 5.9523 11.1533 6.16455 10.9492L8.67627 8.5332H2.26807C1.97357 8.53313 1.73486 8.29451 1.73486 8C1.73493 7.70555 1.97362 7.46687 2.26807 7.4668H8.67627L6.16455 5.05078C5.95229 4.84665 5.94486 4.50919 6.14893 4.29688Z" fill="#33363D"/>
</g>
</svg>
