<svg width="16" height="16" viewBox="0 0 16 16" fill="none" xmlns="http://www.w3.org/2000/svg">
<path d="M1.33398 7.99935C1.33398 11.6812 4.31875 14.666 8.00065 14.666C11.6826 14.666 14.6673 11.6812 14.6673 7.99935C14.6673 4.31745 11.6826 1.33268 8.00065 1.33268C4.31875 1.33268 1.33398 4.31745 1.33398 7.99935Z" fill="#DE3412"/>
<path fill-rule="evenodd" clip-rule="evenodd" d="M6.37725 5.62301C6.16897 5.41473 5.83129 5.41473 5.62301 5.62301C5.41473 5.83129 5.41473 6.16897 5.62301 6.37725L7.2464 8.00065L5.62405 9.62301C5.41577 9.83129 5.41577 10.169 5.62405 10.3773C5.83233 10.5855 6.17002 10.5855 6.37829 10.3773L8.00065 8.7549L9.62301 10.3773C9.83129 10.5855 10.169 10.5855 10.3773 10.3773C10.5855 10.169 10.5855 9.83129 10.3773 9.62301L8.7549 8.00065L10.3783 6.37725C10.5866 6.16897 10.5866 5.83129 10.3783 5.62301C10.17 5.41473 9.83233 5.41473 9.62405 5.62301L8.00065 7.2464L6.37725 5.62301Z" fill="white"/>
</svg>
