<svg width="17" height="17" viewBox="0 0 17 17" fill="none" xmlns="http://www.w3.org/2000/svg">
<path d="M8.49902 2.125C8.8119 2.125 9.06627 2.37856 9.06641 2.69141V7.93262H14.3086C14.6213 7.93276 14.8748 8.18634 14.875 8.49902C14.875 8.8119 14.6214 9.06627 14.3086 9.06641H9.06641V14.3086C9.06634 14.6215 8.81194 14.875 8.49902 14.875C8.1863 14.8748 7.93268 14.6214 7.93262 14.3086V9.06641H2.69141C2.37856 9.06627 2.125 8.8119 2.125 8.49902C2.12523 8.18634 2.37871 7.93276 2.69141 7.93262H7.93262V2.69141C7.93276 2.37871 8.18634 2.12523 8.49902 2.125Z" fill="#6D7882"/>
</svg>
