<svg width="32" height="32" viewBox="0 0 32 32" fill="none" xmlns="http://www.w3.org/2000/svg">
<circle cx="15.9997" cy="15.9987" r="11.6667" fill="white"/>
<circle cx="15.9997" cy="15.9987" r="11.6667" fill="#FA967C"/>
<circle cx="16" cy="16" r="10" fill="#FA967C"/>
<g style="mix-blend-mode:multiply">
<path d="M24.333 15.9987C24.333 11.3963 20.602 7.66536 15.9997 7.66536C11.3973 7.66536 7.66634 11.3963 7.66634 15.9987C7.66634 16.9192 6.92015 17.6654 5.99967 17.6654C5.0792 17.6654 4.33301 16.9192 4.33301 15.9987C4.33301 9.55538 9.55635 4.33203 15.9997 4.33203C22.443 4.33203 27.6663 9.55538 27.6663 15.9987C27.6663 16.9192 26.9201 17.6654 25.9997 17.6654C25.0792 17.6654 24.333 16.9192 24.333 15.9987Z" fill="#D63D4A"/>
</g>
<g style="mix-blend-mode:multiply">
<path d="M13.1865 13.5273C13.046 13.0356 12.5335 12.7508 12.0418 12.8913C11.5501 13.0318 11.2654 13.5443 11.4059 14.036L11.9946 16.0964H11.3703C10.8589 16.0964 10.4443 16.511 10.4443 17.0224C10.4443 17.5337 10.8589 17.9483 11.3703 17.9483H12.5237L12.9932 19.5916C13.1027 19.975 13.4454 20.2452 13.8438 20.2623C14.2422 20.2793 14.6068 20.0394 14.7488 19.6668L15.9999 16.3826L17.251 19.6668C17.393 20.0394 17.7576 20.2793 18.1559 20.2623C18.5543 20.2452 18.897 19.975 19.0066 19.5916L19.4761 17.9483H20.6295C21.1409 17.9483 21.5554 17.5337 21.5554 17.0224C21.5554 16.511 21.1409 16.0964 20.6295 16.0964H20.0052L20.5939 14.036C20.7344 13.5443 20.4497 13.0318 19.958 12.8913C19.4663 12.7508 18.9538 13.0356 18.8133 13.5273L17.9907 16.4065L16.8652 13.452C16.7284 13.093 16.3841 12.8557 15.9999 12.8557C15.6157 12.8557 15.2714 13.093 15.1346 13.452L14.0091 16.4065L13.1865 13.5273Z" fill="#D63D4A"/>
</g>
</svg>
