<svg width="17" height="16" viewBox="0 0 17 16" fill="none" xmlns="http://www.w3.org/2000/svg">
<mask id="mask0_97_9981" style="mask-type:alpha" maskUnits="userSpaceOnUse" x="2" y="2" width="14" height="12">
<path d="M7.02979 5.13667L5.8699 8.38437H5.1249C3.81962 8.38437 2.76147 9.44251 2.76147 10.7478V11.6983C2.76147 12.6773 3.55508 13.4709 4.53405 13.4709H7.15384C7.60703 13.4709 8.05067 13.3406 8.43188 13.0955L14.2139 9.37851C15.0587 8.83542 15.284 7.69964 14.7105 6.87521L11.9613 2.92322C11.6749 2.51154 11.0244 2.62136 10.7907 3.06507C10.5342 3.55196 10.2157 3.92053 9.82607 4.14561C9.26237 4.47125 8.58988 4.53646 8.02971 4.51263C7.59619 4.49419 7.17573 4.72804 7.02979 5.13667Z" fill="#FA967C"/>
</mask>
<g mask="url(#mask0_97_9981)">
<path fill-rule="evenodd" clip-rule="evenodd" d="M4.32649 6.2368C4.32649 5.9871 4.52891 5.78467 4.77862 5.78467H7.60446C7.85416 5.78467 8.05659 5.9871 8.05659 6.2368C8.05659 6.48651 7.85416 6.68894 7.60446 6.68894H4.77862C4.52891 6.68894 4.32649 6.48651 4.32649 6.2368ZM3.55273 7.9321C3.55273 7.6824 3.75516 7.47997 4.00487 7.47997H7.96104C8.21075 7.47997 8.41318 7.6824 8.41318 7.9321C8.41318 8.18181 8.21075 8.38424 7.96104 8.38424H4.00487C3.75516 8.38424 3.55273 8.18181 3.55273 7.9321Z" fill="#33363D"/>
<path d="M14.6611 6.21807C14.7865 6.15109 14.9346 6.13671 15.0719 6.17966C15.2287 6.22874 15.354 6.34749 15.4118 6.50128L16.2594 8.76234C16.3458 8.9927 16.2636 9.25226 16.0602 9.3906L8.99575 14.1946C8.91387 14.2503 8.81797 14.2821 8.71906 14.2864L2.21971 14.569C2.05156 14.5763 1.88929 14.5034 1.78286 14.373C1.67664 14.2428 1.63802 14.07 1.67869 13.9069L2.22817 11.707C2.22816 11.7041 2.22817 11.7008 2.22817 11.6979C2.22835 11.4035 2.46696 11.1647 2.76137 11.1647C2.86246 11.1647 2.95686 11.1933 3.03742 11.2422H7.19627C7.32812 11.2422 7.457 11.202 7.56541 11.1269L14.609 6.24997L14.6611 6.21807ZM2.88702 13.472L3.05239 13.4648C3.00635 13.4262 2.9618 13.3858 2.91893 13.3437L2.88702 13.472ZM8.17218 12.0039C7.88543 12.2023 7.54499 12.3086 7.19627 12.3086H3.45603C3.66901 12.6839 4.07179 12.9375 4.53416 12.9375H7.15395C7.50479 12.9374 7.8484 12.8368 8.14354 12.6471L13.9254 8.92966C14.3683 8.64494 14.5674 8.1274 14.4704 7.6432L8.17218 12.0039Z" fill="#33363D"/>
</g>
<path d="M11.283 2.14494C11.6726 2.09109 12.1213 2.21987 12.3988 2.6189L15.1482 6.57072C15.8942 7.64321 15.6013 9.12076 14.5024 9.82723L8.72046 13.544C8.25328 13.8444 7.70944 14.0043 7.15405 14.0043H4.53426C3.26078 14.0043 2.22832 12.9718 2.22827 11.6983V10.7478C2.22827 9.14802 3.52499 7.85075 5.12476 7.85067H5.4939L6.52775 4.95744C6.76645 4.28907 7.43037 3.95311 8.05249 3.97958C8.56679 4.00144 9.12132 3.93671 9.559 3.684C9.83705 3.52338 10.094 3.24289 10.3188 2.81617C10.5225 2.42947 10.9003 2.19791 11.283 2.14494ZM3.29468 11.6983C3.29473 12.3827 3.84988 12.9373 4.53426 12.9373H7.15405C7.5049 12.9372 7.84851 12.8366 8.14364 12.6469L13.9255 8.9301C14.5161 8.55042 14.6735 7.75583 14.2725 7.17945L11.5232 3.22762C11.5145 3.21519 11.507 3.2104 11.4978 3.20679C11.4856 3.20206 11.4625 3.19705 11.4294 3.20158C11.3571 3.21159 11.2927 3.25678 11.2628 3.31356C10.9746 3.86059 10.594 4.31763 10.0929 4.60718C9.40322 5.00557 8.6128 5.07111 8.00692 5.04533C7.76206 5.03497 7.58548 5.16729 7.53231 5.31617L6.37215 8.56356C6.29638 8.77573 6.09547 8.9176 5.8702 8.91773H5.12476C4.11409 8.91781 3.29468 9.73712 3.29468 10.7478V11.6983Z" fill="#33363D"/>
</svg>
