<svg width="32" height="33" viewBox="0 0 32 33" fill="none" xmlns="http://www.w3.org/2000/svg">
<rect width="26.6667" height="26.6667" rx="13.3333" transform="matrix(1 0 0 -1 2.6665 29.8359)" fill="#CDD1D5"/>
<path d="M15.8656 13.0906C16.7493 13.0906 17.4656 12.3743 17.4656 11.4906C17.4656 10.607 16.7493 9.89062 15.8656 9.89062C14.982 9.89062 14.2656 10.607 14.2656 11.4906C14.2656 12.3743 14.982 13.0906 15.8656 13.0906Z" fill="white"/>
<path d="M14.8667 14.4108C14.7562 14.4108 14.6667 14.5004 14.6667 14.6108V16.0108V21.2943V22.6943C14.6667 22.8047 14.7562 22.8943 14.8667 22.8943H16.8667C16.9771 22.8943 17.0667 22.8047 17.0667 22.6943V21.2943V14.6108C17.0667 14.5004 16.9771 14.4108 16.8667 14.4108H14.8667Z" fill="white"/>
</svg>
