<svg width="16" height="16" viewBox="0 0 16 16" fill="none" xmlns="http://www.w3.org/2000/svg">
<path fill-rule="evenodd" clip-rule="evenodd" d="M8.53281 2.53333C8.53281 2.23878 8.29403 2 7.99948 2C7.70493 2 7.46615 2.23878 7.46615 2.53333V7.4668H2.53333C2.23878 7.4668 2 7.70558 2 8.00013C2 8.29468 2.23878 8.53346 2.53333 8.53346H7.46615V13.4668C7.46615 13.7613 7.70493 14.0001 7.99948 14.0001C8.29403 14.0001 8.53281 13.7613 8.53281 13.4668V8.53346H13.4667C13.7612 8.53346 14 8.29468 14 8.00013C14 7.70558 13.7612 7.4668 13.4667 7.4668H8.53281V2.53333Z" fill="#33363D"/>
</svg>
