<svg width="24" height="24" viewBox="0 0 24 24" fill="none" xmlns="http://www.w3.org/2000/svg">
<ellipse cx="11.8279" cy="18.6558" rx="11.3778" ry="2.13333" fill="#FDCFC3"/>
<path d="M5.53369 4.06445C6.48686 3.69698 8.96927 4.9836 9.44971 5.86523C7.74702 7.42005 4.52074 10.4678 4.9165 8.69824C5.41112 6.48644 4.58082 4.43215 5.53369 4.06445ZM14.5083 5.86523C14.9886 4.98361 17.4711 3.69702 18.4243 4.06445C19.3775 4.43194 18.5469 6.4863 19.0415 8.69824C19.4373 10.4678 16.2109 7.42 14.5083 5.86523Z" fill="#D63D4A"/>
<path d="M12 5.01514C17.7679 5.01514 20.5 9.20232 20.5 13.6099C20.4999 15.6316 19.6282 17.0893 18.2639 18.0754C16.9391 19.033 15.1841 18.8556 13.5577 18.6919C13.0567 18.6414 12.5353 18.6147 12 18.6147C11.4646 18.6147 10.9433 18.6414 10.4422 18.6918C8.81522 18.8554 7.0595 19.0329 5.73457 18.0746C4.37114 17.0884 3.50008 15.6309 3.5 13.6099C3.5 9.20232 6.23214 5.01514 12 5.01514Z" fill="#FA967C"/>
<path d="M11.9998 12.9482C12.6257 12.9482 13.1335 13.266 13.1335 13.6572C13.1334 14.0483 12.6256 14.3652 11.9998 14.3652C11.374 14.3652 10.8671 14.0483 10.8669 13.6572C10.8669 13.2661 11.3739 12.9483 11.9998 12.9482ZM9.23706 10.9248C9.66914 10.9248 10.0201 11.275 10.0203 11.707C10.0203 12.1392 9.66925 12.4902 9.23706 12.4902C8.80501 12.4901 8.45483 12.1391 8.45483 11.707C8.45501 11.2751 8.80511 10.925 9.23706 10.9248ZM14.7156 10.9248C15.1474 10.925 15.4976 11.2751 15.4978 11.707C15.4978 12.1391 15.1476 12.49 14.7156 12.4902C14.2834 12.4902 13.9324 12.1392 13.9324 11.707C13.9325 11.275 14.2835 10.9248 14.7156 10.9248Z" fill="#D63D4A"/>
<ellipse cx="17.3833" cy="13.9399" rx="1.41667" ry="0.991667" fill="white"/>
<ellipse cx="6.61662" cy="13.9399" rx="1.41667" ry="0.991667" fill="white"/>
<path fill-rule="evenodd" clip-rule="evenodd" d="M12 13.7983C12.1564 13.7983 12.2833 13.9252 12.2833 14.0817C12.2833 14.7947 11.7933 15.2584 11.2304 15.425C10.6753 15.5893 9.99673 15.4851 9.53429 15.0288C9.4229 14.9189 9.42169 14.7395 9.5316 14.6282C9.6415 14.5168 9.82089 14.5156 9.93228 14.6255C10.2254 14.9147 10.6802 14.9969 11.0695 14.8816C11.4511 14.7687 11.7166 14.4868 11.7166 14.0817C11.7166 13.9252 11.8435 13.7983 12 13.7983Z" fill="#D63D4A"/>
<path fill-rule="evenodd" clip-rule="evenodd" d="M12 13.7983C11.8435 13.7983 11.7166 13.9252 11.7166 14.0817C11.7166 14.7947 12.2066 15.2584 12.7695 15.425C13.3246 15.5893 14.0032 15.4851 14.4656 15.0288C14.577 14.9189 14.5782 14.7395 14.4683 14.6282C14.3584 14.5168 14.179 14.5156 14.0676 14.6255C13.7745 14.9147 13.3197 14.9969 12.9304 14.8816C12.5488 14.7687 12.2833 14.4868 12.2833 14.0817C12.2833 13.9252 12.1564 13.7983 12 13.7983Z" fill="#D63D4A"/>
</svg>
