<svg width="24" height="24" viewBox="0 0 24 24" fill="none" xmlns="http://www.w3.org/2000/svg">
<path fill-rule="evenodd" clip-rule="evenodd" d="M11.3369 1.63395C11.7644 1.4547 12.2356 1.4547 12.6631 1.63395L19.2744 4.40837C19.6344 4.55943 19.9451 4.83017 20.1641 5.18376C20.3829 5.53735 20.5 5.95772 20.5 6.38786V12.0549C20.5 13.821 20.0603 15.5524 19.2305 17.0549C18.4006 18.5572 17.2136 19.7718 15.8018 20.5617L12.6338 22.3322C12.437 22.4423 12.22 22.5002 12 22.5002C11.78 22.5002 11.563 22.4423 11.3662 22.3322L8.19824 20.5607C6.78644 19.7708 5.59939 18.5562 4.76953 17.0539C3.93968 15.5515 3.5 13.82 3.5 12.0539V6.38884C3.49976 5.95835 3.61687 5.53765 3.83594 5.18376C4.05495 4.82996 4.36544 4.5595 4.72559 4.40837L11.3369 1.63395ZM12 8.00016C10.067 8.00035 8.5 9.45132 8.5 11.2414C8.50013 12.3734 8.90756 12.9974 9.5 13.5148V15.6261C9.50022 15.7855 9.67778 15.8811 9.81055 15.7931L11.7871 14.4748C11.8576 14.4787 11.9285 14.4816 12 14.4816C13.933 14.4816 15.4997 13.0313 15.5 11.2414C15.5 9.45121 13.9325 8.00016 12 8.00016Z" fill="#6D7882"/>
</svg>
