<svg width="24" height="25" viewBox="0 0 24 25" fill="none" xmlns="http://www.w3.org/2000/svg">
<g style="mix-blend-mode:multiply">
<path d="M12.0017 3.94238C12.4052 3.94238 12.7324 4.26956 12.7324 4.67315L12.7324 10.5193C12.7324 10.9229 12.4052 11.2501 12.0017 11.2501C11.5981 11.2501 11.2709 10.9229 11.2709 10.5193L11.2709 4.67315C11.2709 4.26956 11.5981 3.94238 12.0017 3.94238Z" fill="#D63D4A"/>
<rect x="2.5" y="10.5195" width="19" height="10.2308" rx="2.19231" fill="#FA967C"/>
<rect x="4.69336" y="3.94238" width="14.6154" height="2.19231" rx="1.09615" fill="#D63D4A"/>
<circle cx="18.095" cy="13.595" r="1.095" fill="white"/>
<g style="mix-blend-mode:multiply">
<circle cx="7.98182" cy="15.6351" r="3.28846" fill="#D63D4A"/>
</g>
<path d="M5.2793 16.0012C5.2793 15.166 5.7804 13.4122 7.78479 13.0781C7.11666 13.7463 5.83607 15.3052 5.2793 16.0012Z" fill="white"/>
</g>
</svg>
