<svg width="20" height="20" viewBox="0 0 20 20" fill="none" xmlns="http://www.w3.org/2000/svg">
<path d="M11.25 1.66699C11.4268 1.66699 11.5967 1.73726 11.7217 1.8623L16.4707 6.6123C16.5957 6.73732 16.666 6.90721 16.666 7.08398V9.16699H16.667C17.1271 9.16717 17.5 9.53987 17.5 10V15C17.5 15.4602 17.1263 15.833 16.666 15.833V16.834C16.6658 17.6622 15.9943 18.334 15.166 18.334H4.83301C4.00489 18.3338 3.33327 17.6621 3.33301 16.834V3.16699C3.33301 2.33867 4.00473 1.66717 4.83301 1.66699H11.25ZM4.83301 3C4.74111 3.00018 4.66699 3.07505 4.66699 3.16699V16.834C4.66726 16.9257 4.74127 16.9998 4.83301 17H15.166C15.2579 17 15.3327 16.9258 15.333 16.834V15.833H6.66699C6.20675 15.833 5.83301 15.4602 5.83301 15V10C5.83301 9.53976 6.20675 9.16699 6.66699 9.16699H15.333V7.75H12.083C11.2547 7.74982 10.583 7.07832 10.583 6.25V3H4.83301ZM11.917 6.25C11.917 6.34194 11.9911 6.41682 12.083 6.41699H14.3896L11.917 3.94336V6.25Z" fill="#33363D"/>
<path d="M14.587 10.792C15.3218 10.792 15.8873 11.2464 15.9884 11.8984H15.3771C15.2714 11.545 14.996 11.3291 14.5919 11.3291C14.0548 11.3292 13.6692 11.7469 13.6691 12.4951C13.6691 13.2527 14.05 13.6708 14.6056 13.6709C15.106 13.6709 15.4273 13.3683 15.4366 12.8955H14.6652V12.4219H16.0157V12.8213C16.0157 13.6755 15.4276 14.209 14.6056 14.209C13.6873 14.2089 13.0675 13.5561 13.0675 12.5C13.0676 11.4349 13.7148 10.7922 14.587 10.792ZM9.4093 13.1748C9.4093 13.8177 8.97732 14.208 8.33899 14.208C7.75598 14.208 7.31087 13.8917 7.31067 13.2812H7.90735C7.90754 13.5519 8.09162 13.7168 8.36243 13.7168C8.65154 13.7167 8.81194 13.5283 8.81653 13.1748V10.8379H9.4093V13.1748ZM11.4972 10.8379C12.2591 10.838 12.6679 11.3014 12.6681 11.9395C12.6681 12.5778 12.2543 13.0371 11.4874 13.0371H10.8448V14.1621H10.2482V10.8379H11.4972ZM10.8448 12.5459H11.4054C11.8552 12.5457 12.0568 12.293 12.0568 11.9395C12.0566 11.5816 11.855 11.338 11.4054 11.3379H10.8448V12.5459Z" fill="white"/>
</svg>
