<svg width="17" height="16" viewBox="0 0 17 16" fill="none" xmlns="http://www.w3.org/2000/svg">
<g clip-path="url(#clip0_3591_18860)">
<path d="M9.08243 2.27243C8.96471 2.18974 8.93147 2.02415 9.0332 1.92242C9.42217 1.53346 9.94971 1.31494 10.4998 1.31494C11.0499 1.31494 11.5774 1.53346 11.9664 1.92242C12.3553 2.31139 12.5739 2.83894 12.5739 3.38902C12.5739 3.93909 12.3553 4.46664 11.9664 4.85561C11.5774 5.24457 11.0499 5.46309 10.4998 5.46309C10.4827 5.46309 10.4696 5.44786 10.4718 5.43086C10.4904 5.28879 10.4998 5.14494 10.4998 5.00011C10.4998 4.11605 10.1486 3.26821 9.52347 2.64309C9.3865 2.50611 9.23883 2.38229 9.08243 2.27243Z" fill="#D63D4A"/>
<path d="M14.7795 11.5118C14.4543 11.6751 14.133 11.3899 14.0595 11.0335C13.8859 10.1921 13.5042 9.40486 12.9375 8.76743C12.1365 7.8662 11.0229 7.33344 9.83312 7.33344C9.72659 7.33344 9.67048 7.20291 9.73826 7.12072C9.87699 6.95247 9.9982 6.77184 10.1007 6.58169C10.1745 6.44472 10.3137 6.35198 10.4693 6.35198H12.8702C13.656 6.35198 14.4096 6.70317 14.9653 7.32829C15.521 7.95341 15.8331 8.80126 15.8331 9.68531C15.8331 10.2157 15.6458 10.7245 15.3124 11.0995C15.1572 11.2742 14.9762 11.4132 14.7795 11.5118Z" fill="#D63D4A"/>
<path d="M5.51659 3.34992C5.079 3.78751 4.83317 4.381 4.83317 4.99984C4.83317 5.61868 5.079 6.21217 5.51659 6.64975C5.95417 7.08734 6.54767 7.33317 7.1665 7.33317C7.78534 7.33317 8.37884 7.08734 8.81642 6.64975C9.25401 6.21217 9.49984 5.61868 9.49984 4.99984C9.49984 4.381 9.25401 3.78751 8.81642 3.34992C8.37884 2.91234 7.78534 2.6665 7.1665 2.6665C6.54767 2.6665 5.95417 2.91234 5.51659 3.34992Z" fill="#FA967C"/>
<path d="M2.14281 9.43152C2.76794 8.72826 3.61578 8.33317 4.49984 8.33317H9.83317C10.7172 8.33317 11.5651 8.72826 12.1902 9.43152C12.8153 10.1348 13.1665 11.0886 13.1665 12.0832C13.1665 12.6799 12.9558 13.2522 12.5807 13.6742C12.2056 14.0961 11.6969 14.3332 11.1665 14.3332H3.1665C2.63607 14.3332 2.12736 14.0961 1.75229 13.6742C1.37722 13.2522 1.1665 12.6799 1.1665 12.0832C1.1665 11.0886 1.51769 10.1348 2.14281 9.43152Z" fill="#FA967C"/>
</g>
<defs>
<clipPath id="clip0_3591_18860">
<rect width="16" height="16" fill="white" transform="translate(0.5)"/>
</clipPath>
</defs>
</svg>
