<svg width="24" height="24" viewBox="0 0 24 24" fill="none" xmlns="http://www.w3.org/2000/svg">
<path d="M5.16702 4.29883C5.67584 4.14542 6.22255 4.17095 6.71487 4.37109C7.20706 4.57126 7.61567 4.93458 7.87307 5.39941L7.95901 5.57227L8.72854 7.28223C8.9617 7.80149 9.03768 8.3786 8.94631 8.94043C8.8549 9.50213 8.60047 10.0248 8.21487 10.4434L8.06057 10.5967L6.84768 11.7285C6.62935 11.9358 6.79352 12.737 7.58401 14.1064C8.29545 15.3386 8.87433 15.9138 9.1592 15.9453H9.20901L9.27053 15.9336L11.6543 15.2051C11.9747 15.1068 12.3172 15.1024 12.6397 15.1934C12.9621 15.2843 13.2519 15.4667 13.4737 15.7178L13.5791 15.8516L15.1572 18.0371C15.4665 18.4656 15.6202 18.9869 15.5938 19.5146C15.5674 20.0424 15.3622 20.5459 15.0117 20.9414L14.8701 21.0879L14.2393 21.6855C13.6735 22.2213 12.9657 22.5832 12.2002 22.7285C11.4345 22.8738 10.6428 22.7962 9.91994 22.5049C7.66994 21.5979 5.62556 19.5258 3.76858 16.3096C1.9081 13.0851 1.13514 10.2742 1.48049 7.86719C1.58505 7.13975 1.88389 6.4537 2.3467 5.88281C2.8096 5.31183 3.41917 4.87774 4.1094 4.625L4.33401 4.5498L5.16702 4.29883Z" fill="#6D7882"/>
<path fill-rule="evenodd" clip-rule="evenodd" d="M16.001 1C19.3136 1.00023 22 3.45386 22 6.48047C21.9998 9.50689 19.3147 11.9597 16.001 11.96C15.6637 11.96 15.3322 11.9348 15.0098 11.8857C14.8889 11.8673 14.764 11.889 14.6592 11.9512C14.1597 12.2479 13.5217 12.6262 13.0127 12.9287C12.6792 13.1263 12.2532 12.8896 12.252 12.5059L12.2481 10.999C12.2476 10.8455 12.1738 10.7008 12.0518 10.6055C10.8547 9.6712 10.0001 8.60157 10 6.48047C10 3.45377 12.687 1.00008 16.001 1ZM18.6992 4.73242C18.483 4.51916 18.1333 4.51929 17.917 4.73242L15.5391 7.07812L14.084 5.64258L13.9971 5.57227C13.7823 5.4325 13.491 5.45633 13.3018 5.64258C13.1125 5.82924 13.0885 6.11707 13.2305 6.3291L13.3018 6.41406L15.1475 8.23535L15.2344 8.30566C15.4493 8.4453 15.7406 8.42173 15.9297 8.23535L18.6992 5.50391C18.9153 5.29063 18.9153 4.94569 18.6992 4.73242Z" fill="#6D7882"/>
</svg>
