<svg width="33" height="32" viewBox="0 0 33 32" fill="none" xmlns="http://www.w3.org/2000/svg">
<rect width="26.6667" height="26.6667" rx="13.3333" transform="matrix(1 0 0 -1 3.16675 29.334)" fill="#CDD1D5"/>
<path d="M16.3656 12.5887C17.2493 12.5887 17.9656 11.8723 17.9656 10.9887C17.9656 10.105 17.2493 9.38867 16.3656 9.38867C15.482 9.38867 14.7656 10.105 14.7656 10.9887C14.7656 11.8723 15.482 12.5887 16.3656 12.5887Z" fill="white"/>
<path d="M15.3667 13.9089C15.2562 13.9089 15.1667 13.9984 15.1667 14.1089V15.5089V20.7923V22.1923C15.1667 22.3028 15.2562 22.3923 15.3667 22.3923H17.3667C17.4771 22.3923 17.5667 22.3028 17.5667 22.1923V20.7923V14.1089C17.5667 13.9984 17.4771 13.9089 17.3667 13.9089H15.3667Z" fill="white"/>
</svg>
