<svg width="16" height="16" viewBox="0 0 16 16" fill="none" xmlns="http://www.w3.org/2000/svg">
<g clip-path="url(#clip0_1489_23238)">
<path fill-rule="evenodd" clip-rule="evenodd" d="M10.3693 7.2231C10.5775 7.01482 10.9152 7.01482 11.1235 7.2231L13.1748 9.27439C13.2748 9.37441 13.331 9.51006 13.331 9.65151C13.331 9.79296 13.2748 9.92861 13.1748 10.0286L8.55939 14.644C8.45938 14.744 8.32372 14.8002 8.18227 14.8002H6.13099C5.83644 14.8002 5.59766 14.5614 5.59766 14.2669V12.2156C5.59766 12.0742 5.65385 11.9385 5.75387 11.8385L10.3693 7.2231ZM10.7464 8.35447L9.96216 9.13869L11.2592 10.4357L12.0434 9.65151L10.7464 8.35447ZM10.5049 11.19L9.20791 9.89294L6.66432 12.4365V13.7336H7.96136L10.5049 11.19Z" fill="#33363D"/>
<path d="M11.5996 1.4668C12.2621 1.46711 12.7988 2.00445 12.7988 2.66699V7.38867L11.8789 6.46875L11.7578 6.35938C11.7497 6.35273 11.7407 6.3463 11.7324 6.33984V2.66699C11.7324 2.59355 11.673 2.53352 11.5996 2.5332H3.33203C3.25854 2.53338 3.19922 2.59346 3.19922 2.66699V13.6006C3.19954 13.6738 3.25874 13.7332 3.33203 13.7334H4.53223V14.2666C4.53223 14.4538 4.56596 14.6328 4.625 14.7998H3.33203C2.66963 14.7996 2.13313 14.2629 2.13281 13.6006V2.66699C2.13281 2.00436 2.66944 1.46697 3.33203 1.4668H11.5996ZM12.7871 8.88574C12.7584 9.10257 12.6722 9.30848 12.5352 9.47949L12.458 9.56641L7.70996 14.4375C7.4841 14.6692 7.17416 14.7998 6.85059 14.7998H6.13184C5.83734 14.7997 5.59863 14.5611 5.59863 14.2666V13.7334H7.96289L10.5059 11.1895L9.93848 10.6221L10.6826 9.8584L11.2598 10.4355L12.0449 9.65137L11.457 9.06348L11.6943 8.82129L11.7227 8.7793C11.7291 8.76344 11.7324 8.74596 11.7324 8.72852V7.83008L12.7871 8.88574Z" fill="#33363D"/>
<path d="M9.46549 4.1333L9.52018 4.1359C9.78904 4.16329 9.9987 4.39041 9.9987 4.6665C9.9987 4.94259 9.78904 5.16972 9.52018 5.1971L9.46549 5.19971H4.79883C4.50428 5.19971 4.26562 4.96106 4.26562 4.6665C4.26562 4.37195 4.50428 4.1333 4.79883 4.1333H9.46549Z" fill="#33363D"/>
<path d="M8.13216 6.3999L8.18685 6.40251C8.45571 6.42989 8.66536 6.65702 8.66536 6.93311C8.66536 7.2092 8.45571 7.43632 8.18685 7.4637L8.13216 7.46631H4.79883C4.50428 7.46631 4.26562 7.22766 4.26562 6.93311C4.26562 6.63855 4.50428 6.3999 4.79883 6.3999H8.13216Z" fill="#33363D"/>
</g>
<defs>
<clipPath id="clip0_1489_23238">
<rect width="16" height="16" fill="white"/>
</clipPath>
</defs>
</svg>
