<svg width="24" height="25" viewBox="0 0 24 25" fill="none" xmlns="http://www.w3.org/2000/svg">
<ellipse cx="11.828" cy="19.1556" rx="11.3778" ry="2.13333" fill="#FDCFC3"/>
<path fill-rule="evenodd" clip-rule="evenodd" d="M8.243 3.69397C7.94335 3.69407 7.64905 3.77974 7.38992 3.94229C7.13078 4.10483 6.91603 4.33849 6.7674 4.61957L3.7244 10.3725C3.57737 10.6501 3.50002 10.9644 3.5 11.2843V15.4146C3.50002 15.6996 3.56142 15.9806 3.67935 16.2355L4.62965 18.2888C4.7708 18.5939 4.98783 18.8506 5.25642 19.0299C5.525 19.2093 5.83453 19.3043 6.1503 19.3044H6.9C7.35087 19.3044 7.78327 19.1109 8.10208 18.7664C8.42089 18.422 8.6 17.9549 8.6 17.4678H15.4C15.4 17.9549 15.5791 18.422 15.8979 18.7664C16.2167 19.1109 16.6491 19.3044 17.1 19.3044H17.8497C18.1655 19.3043 18.475 19.2093 18.7436 19.0299C19.0122 18.8506 19.2292 18.5939 19.3703 18.2888L20.3206 16.2355C20.4388 15.9812 20.5 15.6993 20.5 15.4146V11.2843C20.5 10.9644 20.4226 10.6501 20.2756 10.3725L17.2326 4.61957C17.084 4.33849 16.8692 4.10483 16.6101 3.94229C16.3509 3.77974 16.0566 3.69407 15.757 3.69397H8.243Z" fill="#FA967C"/>
<g style="mix-blend-mode:multiply">
<path d="M5.25182 19.0317C4.98323 18.8523 4.7662 18.5957 4.62505 18.2905L4.1499 17.2639H19.8409L19.3658 18.2905C19.2246 18.5957 19.0076 18.8523 18.739 19.0317C18.4704 19.2111 18.1609 19.3061 17.8451 19.3061H17.0954C16.6445 19.3061 16.2121 19.1126 15.8933 18.7682C15.5745 18.4238 15.3954 17.9567 15.3954 17.4696H8.5954C8.5954 17.9567 8.4163 18.4238 8.09748 18.7682C7.77867 19.1126 7.34627 19.3061 6.8954 19.3061H6.1457C5.82993 19.3061 5.52041 19.2111 5.25182 19.0317Z" fill="#D63D4A"/>
</g>
<g style="mix-blend-mode:multiply">
<path d="M6.32972 9.16358L7.71771 6.04062C7.84302 5.75867 8.12261 5.57697 8.43115 5.57697H15.7443C16.0528 5.57697 16.3324 5.75867 16.4577 6.04062L17.8457 9.16358C18.0752 9.67988 17.6973 10.2614 17.1323 10.2614H7.04317C6.47818 10.2614 6.10026 9.67987 6.32972 9.16358Z" fill="#D63D4A"/>
</g>
<circle cx="7.79367" cy="13.843" r="1.17111" fill="white"/>
<circle cx="16.382" cy="13.843" r="1.17111" fill="white"/>
</svg>
