<svg width="32" height="32" viewBox="0 0 32 32" fill="none" xmlns="http://www.w3.org/2000/svg">
<g clip-path="url(#clip0_18115_593153)">
<rect width="26.6667" height="26.6667" rx="13.3333" transform="matrix(1 0 0 -1 2.6665 29.334)" fill="#CDD1D5"/>
<path d="M15.8656 12.5887C16.7493 12.5887 17.4656 11.8723 17.4656 10.9887C17.4656 10.105 16.7493 9.38867 15.8656 9.38867C14.982 9.38867 14.2656 10.105 14.2656 10.9887C14.2656 11.8723 14.982 12.5887 15.8656 12.5887Z" fill="white"/>
<path d="M14.8667 13.9089C14.7562 13.9089 14.6667 13.9984 14.6667 14.1089V15.5089V20.7923V22.1923C14.6667 22.3028 14.7562 22.3923 14.8667 22.3923H16.8667C16.9771 22.3923 17.0667 22.3028 17.0667 22.1923V20.7923V14.1089C17.0667 13.9984 16.9771 13.9089 16.8667 13.9089H14.8667Z" fill="white"/>
</g>
<defs>
<clipPath id="clip0_18115_593153">
<rect width="32" height="32" fill="white"/>
</clipPath>
</defs>
</svg>
