<svg width="16" height="16" viewBox="0 0 16 16" fill="none" xmlns="http://www.w3.org/2000/svg">
<path d="M2.33331 2.99984C2.33331 2.26346 2.93027 1.6665 3.66665 1.6665H12.3333C13.0697 1.6665 13.6666 2.26346 13.6666 2.99984V7.66409C13.6666 9.31779 12.7915 10.848 11.3661 11.6864L10.3661 12.2747C8.90564 13.1338 7.09431 13.1338 5.63389 12.2747L4.63389 11.6864C3.20851 10.848 2.33331 9.31779 2.33331 7.66409V2.99984Z" fill="#FA967C"/>
<path d="M5.33331 13.0002C5.33331 12.632 5.63179 12.3335 5.99998 12.3335H9.99998C10.3682 12.3335 10.6666 12.632 10.6666 13.0002V13.6668C10.6666 14.035 10.3682 14.3335 9.99998 14.3335H5.99998C5.63179 14.3335 5.33331 14.035 5.33331 13.6668V13.0002Z" fill="#D63D4A"/>
<path d="M8.66669 4.99984C8.66669 4.81574 8.51745 4.6665 8.33335 4.6665H7.66669C7.48259 4.6665 7.33335 4.81574 7.33335 4.99984V6.33317H6.00002C5.81593 6.33317 5.66669 6.48241 5.66669 6.6665V7.33317C5.66669 7.51727 5.81593 7.6665 6.00002 7.6665H7.33335V8.99984C7.33335 9.18393 7.48259 9.33317 7.66669 9.33317H8.33335C8.51745 9.33317 8.66669 9.18393 8.66669 8.99984V7.6665H10C10.1841 7.6665 10.3334 7.51727 10.3334 7.33317V6.6665C10.3334 6.48241 10.1841 6.33317 10 6.33317H8.66669V4.99984Z" fill="#D63D4A"/>
</svg>
