<svg width="12" height="12" viewBox="0 0 12 12" fill="none" xmlns="http://www.w3.org/2000/svg">
<path d="M4.38354 4.21703L5.61417 1.73871C5.64999 1.66699 5.70509 1.60666 5.77328 1.5645C5.84146 1.52233 5.92005 1.5 6.00022 1.5C6.08039 1.5 6.15898 1.52233 6.22717 1.5645C6.29536 1.60666 6.35045 1.66699 6.38628 1.73871L7.61691 4.21703L10.3681 4.61682C10.4474 4.62782 10.5221 4.66091 10.5835 4.71232C10.645 4.76372 10.6907 4.83137 10.7156 4.90753C10.7404 4.9837 10.7434 5.06531 10.724 5.14306C10.7047 5.22081 10.6639 5.29156 10.6063 5.34724L8.61591 7.27514L9.08581 9.99883C9.14596 10.3484 8.77649 10.6146 8.46054 10.4498L6.00022 9.16325L3.53943 10.4498C3.22396 10.6151 2.85448 10.3484 2.91464 9.99835L3.38453 7.27467L1.39411 5.34677C1.33679 5.29105 1.29625 5.22037 1.27709 5.14276C1.25794 5.06515 1.26094 4.98372 1.28576 4.90773C1.31058 4.83174 1.35622 4.76424 1.4175 4.7129C1.47877 4.66156 1.55321 4.62843 1.63237 4.61729L4.38354 4.21703Z" fill="#33363D"/>
</svg>
