<svg width="24" height="25" viewBox="0 0 24 25" fill="none" xmlns="http://www.w3.org/2000/svg">
<path fill-rule="evenodd" clip-rule="evenodd" d="M11.3369 2.13444C11.7644 1.95519 12.2356 1.95519 12.6631 2.13444L19.2744 4.90886C19.6344 5.05992 19.9451 5.33066 20.1641 5.68425C20.3829 6.03784 20.5 6.45821 20.5 6.88835V12.5553C20.5 14.3215 20.0603 16.0529 19.2305 17.5553C18.4006 19.0577 17.2136 20.2723 15.8018 21.0622L12.6338 22.8327C12.437 22.9428 12.22 23.0007 12 23.0007C11.78 23.0007 11.563 22.9428 11.3662 22.8327L8.19824 21.0612C6.78644 20.2713 5.59939 19.0567 4.76953 17.5544C3.93968 16.052 3.5 14.3205 3.5 12.5544V6.88932C3.49976 6.45883 3.61687 6.03814 3.83594 5.68425C4.05495 5.33045 4.36544 5.05998 4.72559 4.90886L11.3369 2.13444ZM12 8.50065C10.067 8.50084 8.5 9.95181 8.5 11.7419C8.50013 12.8739 8.90756 13.4979 9.5 14.0153V16.1266C9.50022 16.286 9.67778 16.3816 9.81055 16.2936L11.7871 14.9753C11.8576 14.9791 11.9285 14.9821 12 14.9821C13.933 14.9821 15.4997 13.5318 15.5 11.7419C15.5 9.9517 13.9325 8.50065 12 8.50065Z" fill="#6D7882"/>
</svg>
