<svg width="24" height="24" viewBox="0 0 24 24" fill="none" xmlns="http://www.w3.org/2000/svg">
<g style="mix-blend-mode:multiply">
<path fill-rule="evenodd" clip-rule="evenodd" d="M7.66465 3.5C7.33837 3.50011 7.0179 3.59339 6.73573 3.77039C6.45356 3.94739 6.21971 4.20182 6.05787 4.50789L2.74435 10.7722C2.58425 11.0745 2.50002 11.4168 2.5 11.7651V16.2626C2.50002 16.5729 2.56688 16.879 2.69529 17.1565L3.73008 19.3923C3.88377 19.7245 4.1201 20.004 4.41256 20.1993C4.70503 20.3947 5.04207 20.4981 5.38591 20.4982H6.20226C6.69321 20.4982 7.16405 20.2875 7.51121 19.9124C7.85836 19.5374 8.05339 19.0287 8.05339 18.4984H15.4579C15.4579 19.0287 15.6529 19.5374 16.0001 19.9124C16.3473 20.2875 16.8181 20.4982 17.309 20.4982H18.1254C18.4692 20.4981 18.8063 20.3947 19.0987 20.1993C19.3912 20.004 19.6275 19.7245 19.7812 19.3923L20.816 17.1565C20.9447 16.8795 21.0113 16.5726 21.0113 16.2626V11.7651C21.0113 11.4168 20.9271 11.0745 20.767 10.7722L17.4534 4.50789C17.2916 4.20182 17.0577 3.94739 16.7756 3.77039C16.4934 3.59339 16.1729 3.50011 15.8467 3.5H7.66465Z" fill="#FA967C"/>
<g style="mix-blend-mode:multiply">
<path d="M4.4077 20.2013C4.11524 20.006 3.87891 19.7265 3.72522 19.3942L3.20782 18.2764H20.2938L19.7764 19.3942C19.6227 19.7265 19.3863 20.006 19.0939 20.2013C18.8014 20.3966 18.4644 20.5001 18.1205 20.5001H17.3042C16.8132 20.5001 16.3424 20.2894 15.9952 19.9144C15.6481 19.5394 15.4531 19.0307 15.4531 18.5003H8.04853C8.04853 19.0307 7.8535 19.5394 7.50635 19.9144C7.15919 20.2894 6.68835 20.5001 6.1974 20.5001H5.38105C5.03721 20.5001 4.70017 20.3966 4.4077 20.2013Z" fill="#D63D4A"/>
</g>
<g style="mix-blend-mode:multiply">
<path d="M5.58123 9.45576L7.0926 6.05516C7.22905 5.74815 7.53351 5.55029 7.86948 5.55029H15.8328C16.1687 5.55029 16.4732 5.74815 16.6096 6.05516L18.121 9.45576C18.3709 10.018 17.9594 10.6512 17.3441 10.6512H6.3581C5.74289 10.6512 5.33136 10.018 5.58123 9.45576Z" fill="#D63D4A"/>
</g>
<circle cx="7.17568" cy="14.5511" r="1.27522" fill="white"/>
<circle cx="16.5273" cy="14.5511" r="1.27522" fill="white"/>
<path d="M14.03 17.4298C14.03 19.4854 16.7452 21.0001 17.7634 21.0001C18.7815 21.0001 21.4967 19.4854 21.4967 17.4298C21.4967 16.3477 21.4967 15.3684 21.4967 14.6836C21.4967 14.0912 21.1141 13.5674 20.5507 13.3879L18.3808 12.6961C17.9791 12.5681 17.5476 12.5681 17.1459 12.6961L14.976 13.3879C14.4126 13.5674 14.03 14.0912 14.03 14.6836C14.03 15.3684 14.03 16.3477 14.03 17.4298Z" fill="#D63D4A"/>
<path d="M15.7634 16.1921L17.3608 17.8858L19.7634 15.6001" stroke="white" stroke-width="0.914286" stroke-linecap="round" stroke-linejoin="round"/>
</g>
</svg>
