<svg width="20" height="20" viewBox="0 0 20 20" fill="none" xmlns="http://www.w3.org/2000/svg">
<g id="icon/line/search">
<path id="Vector" fill-rule="evenodd" clip-rule="evenodd" d="M3.33138 9.08382C3.33138 5.90818 5.90574 3.33382 9.08138 3.33382C12.257 3.33382 14.8314 5.90818 14.8314 9.08382C14.8314 10.5947 14.2486 11.9695 13.2956 12.9957C13.2326 13.027 13.1735 13.0689 13.121 13.1215C13.0685 13.174 13.0265 13.2332 12.9952 13.2963C11.9688 14.2503 10.5932 14.8338 9.08138 14.8338C5.90574 14.8338 3.33138 12.2595 3.33138 9.08382ZM13.5977 14.5409C12.3717 15.5566 10.7978 16.1672 9.08138 16.1672C5.16936 16.1672 1.99805 12.9958 1.99805 9.08382C1.99805 5.1718 5.16936 2.00049 9.08138 2.00049C12.9934 2.00049 16.1647 5.1718 16.1647 9.08382C16.1647 10.7992 15.5549 12.3722 14.5403 13.5979L17.3045 16.3621C17.5649 16.6225 17.5649 17.0446 17.3045 17.3049C17.0442 17.5653 16.6221 17.5653 16.3617 17.3049L13.5977 14.5409Z" fill="#33363D"/>
</g>
</svg>
