<svg width="16" height="16" viewBox="0 0 16 16" fill="none" xmlns="http://www.w3.org/2000/svg">
<g clip-path="url(#clip0_5530_118550)">
<path fill-rule="evenodd" clip-rule="evenodd" d="M5.4668 2.00001C5.4668 1.70546 5.70558 1.46667 6.00013 1.46667H10.0001C10.2947 1.46667 10.5335 1.70546 10.5335 2.00001C10.5335 2.29456 10.2947 2.53334 10.0001 2.53334H6.00013C5.70558 2.53334 5.4668 2.29456 5.4668 2.00001ZM1.4668 4.33334C1.4668 4.03879 1.70558 3.80001 2.00013 3.80001H14.0001C14.2947 3.80001 14.5335 4.03879 14.5335 4.33334C14.5335 4.62789 14.2947 4.86668 14.0001 4.86668H13.2001V12.6667C13.2001 13.6976 12.3644 14.5333 11.3335 14.5333H4.6668C3.63587 14.5333 2.80013 13.6976 2.80013 12.6667V4.86668H2.00013C1.70558 4.86668 1.4668 4.62789 1.4668 4.33334ZM3.8668 4.86668V12.6667C3.8668 13.1085 4.22497 13.4667 4.6668 13.4667H11.3335C11.7753 13.4667 12.1335 13.1085 12.1335 12.6667V4.86668H3.8668ZM6.6668 7.46667C6.96135 7.46667 7.20013 7.70546 7.20013 8.00001V10C7.20013 10.2946 6.96135 10.5333 6.6668 10.5333C6.37225 10.5333 6.13346 10.2946 6.13346 10V8.00001C6.13346 7.70546 6.37225 7.46667 6.6668 7.46667ZM9.33346 7.46667C9.62802 7.46667 9.8668 7.70546 9.8668 8.00001V10C9.8668 10.2946 9.62802 10.5333 9.33346 10.5333C9.03891 10.5333 8.80013 10.2946 8.80013 10V8.00001C8.80013 7.70546 9.03891 7.46667 9.33346 7.46667Z" fill="#33363D"/>
</g>
<defs>
<clipPath id="clip0_5530_118550">
<rect width="16" height="16" fill="white"/>
</clipPath>
</defs>
</svg>
