<svg width="32" height="32" viewBox="0 0 32 32" fill="none" xmlns="http://www.w3.org/2000/svg">
<g clip-path="url(#clip0_15899_248855)">
<path d="M25.7669 20.9641C25.2004 24.3514 23.1732 26.691 15.9204 26.691C8.66756 26.691 6.64043 24.3514 6.07386 20.9641C5.78697 20.8832 5.50976 20.7572 5.25305 20.5861L4.47806 20.0694C4.07995 19.804 3.84082 19.3572 3.84082 18.8787V18.0264C3.84082 13.9835 5.7753 10.1846 9.04496 7.80668C9.26095 7.64959 9.52524 7.56498 9.79231 7.56498C10.1821 7.56498 10.523 7.72613 10.7661 7.97628C12.2737 7.07578 14.0366 6.55835 15.9204 6.55835C17.8042 6.55835 19.5671 7.07578 21.0747 7.97628C21.3178 7.72613 21.6587 7.56498 22.0485 7.56498C22.3156 7.56498 22.5798 7.64959 22.7958 7.80668C26.0655 10.1846 28 13.9835 28 18.0264V18.8787C28 19.3572 27.7609 19.804 27.3627 20.0694L26.5877 20.5861C26.331 20.7572 26.0538 20.8832 25.7669 20.9641Z" fill="white"/>
<path d="M25.9861 16.6247C25.9861 22.1841 25.9861 26.691 15.9198 26.691C5.85352 26.691 5.85352 22.1841 5.85352 16.6247C5.85352 11.0652 10.3604 6.55835 15.9198 6.55835C21.4793 6.55835 25.9861 11.0652 25.9861 16.6247Z" fill="#CDD1D5"/>
<ellipse cx="13.6555" cy="21.155" rx="2.26492" ry="1.50995" fill="white"/>
<ellipse cx="18.1848" cy="21.155" rx="2.26492" ry="1.50995" fill="white"/>
<path d="M13.4039 16.6246C13.4039 17.1805 12.9532 17.6312 12.3973 17.6312C11.8413 17.6312 11.3906 17.1805 11.3906 16.6246C11.3906 16.0686 11.8413 15.6179 12.3973 15.6179C12.9532 15.6179 13.4039 16.0686 13.4039 16.6246Z" fill="#6D7882"/>
<path d="M17.9337 19.3928C17.9337 20.2267 17.0324 20.9027 15.9205 20.9027C14.8086 20.9027 13.9072 20.2267 13.9072 19.3928C13.9072 18.5589 14.8086 17.8828 15.9205 17.8828C17.0324 17.8828 17.9337 18.5589 17.9337 19.3928Z" fill="#6D7882"/>
<path d="M19.4437 17.6312C19.9996 17.6312 20.4503 17.1805 20.4503 16.6246C20.4503 16.0686 19.9996 15.6179 19.4437 15.6179C18.8877 15.6179 18.437 16.0686 18.437 16.6246C18.437 17.1805 18.8877 17.6312 19.4437 17.6312Z" fill="#6D7882"/>
<path d="M11.9813 6.69514C12.9737 6.43903 13.6381 7.69174 12.8695 8.36973L12.7784 8.45003C10.3967 10.5508 8.90035 13.4767 8.59114 16.6374L8.45869 17.9913C8.40159 18.575 8.15645 19.1243 7.76017 19.5566C6.27495 21.1769 3.57989 20.4447 3.11874 18.2956L2.98796 17.6861C2.92422 17.3891 2.91545 17.0829 2.96211 16.7826L2.98731 16.6205C3.73442 11.8129 7.27033 7.91084 11.9813 6.69514Z" fill="#8A949E"/>
<path d="M19.8597 6.69514C18.8672 6.43903 18.2028 7.69174 18.9714 8.36973L19.0625 8.45003C21.4442 10.5508 22.9406 13.4767 23.2498 16.6374L23.3822 17.9913C23.4393 18.575 23.6845 19.1243 24.0808 19.5566C25.566 21.1769 28.261 20.4447 28.7222 18.2956L28.853 17.6861C28.9167 17.3891 28.9255 17.0829 28.8788 16.7826L28.8536 16.6205C28.1065 11.8129 24.5706 7.91084 19.8597 6.69514Z" fill="#8A949E"/>
</g>
<defs>
<clipPath id="clip0_15899_248855">
<rect width="32" height="32" fill="white"/>
</clipPath>
</defs>
</svg>
