<svg width="24" height="24" viewBox="0 0 24 24" fill="none" xmlns="http://www.w3.org/2000/svg">
<ellipse cx="11.828" cy="18.6556" rx="11.3778" ry="2.13333" fill="#FDCFC3"/>
<g style="mix-blend-mode:multiply">
<path d="M15.4287 4.10536C15.4287 3.78977 15.6845 3.53394 16.0001 3.53394H17.7144C18.03 3.53394 18.2859 3.78977 18.2859 4.10536V8.67679H15.4287V4.10536Z" fill="#D63D4A"/>
</g>
<path d="M4.98455 9.801L11.6312 4.17695C11.8442 3.99667 12.1563 3.99667 12.3694 4.17695L19.016 9.801C19.1443 9.90957 19.2183 10.0691 19.2183 10.2372L19.2183 17.4677C19.2183 17.9058 18.8592 18.2609 18.4163 18.2609H13.8048H10.1958H5.58423C5.1413 18.2609 4.78223 17.9058 4.78223 17.4677V10.2372C4.78223 10.0691 4.85623 9.90957 4.98455 9.801Z" fill="#FA967C"/>
<path d="M9.71436 13.8196C9.71436 13.504 9.97019 13.2482 10.2858 13.2482H13.7144C14.0299 13.2482 14.2858 13.504 14.2858 13.8196V18.261H9.71436L9.71436 13.8196Z" fill="white"/>
<path fill-rule="evenodd" clip-rule="evenodd" d="M11.4879 3.1532C11.7818 2.89848 12.2182 2.89848 12.5121 3.1532L19.7302 9.40883C20.0565 9.69167 20.0918 10.1855 19.8089 10.5119C19.5261 10.8382 19.0323 10.8735 18.7059 10.5907L12 4.77887L5.29409 10.5907C4.96774 10.8735 4.47389 10.8382 4.19105 10.5119C3.90821 10.1855 3.94349 9.69167 4.26984 9.40883L11.4879 3.1532Z" fill="#285FA4"/>
<path fill-rule="evenodd" clip-rule="evenodd" d="M11.4879 3.1532C11.7818 2.89848 12.2182 2.89848 12.5121 3.1532L19.7302 9.40883C20.0565 9.69167 20.0918 10.1855 19.8089 10.5119C19.5261 10.8382 19.0323 10.8735 18.7059 10.5907L12 4.77887L5.29409 10.5907C4.96774 10.8735 4.47389 10.8382 4.19105 10.5119C3.90821 10.1855 3.94349 9.69167 4.26984 9.40883L11.4879 3.1532Z" fill="#D63D4A"/>
</svg>
