<svg width="27" height="28" viewBox="0 0 27 28" fill="none" xmlns="http://www.w3.org/2000/svg">
<rect width="26.6667" height="26.6667" rx="13.3333" transform="matrix(1 0 0 -1 0.166748 27.3333)" fill="#CDD1D5"/>
<path d="M13.3656 10.588C14.2493 10.588 14.9656 9.87166 14.9656 8.988C14.9656 8.10434 14.2493 7.388 13.3656 7.388C12.482 7.388 11.7656 8.10434 11.7656 8.988C11.7656 9.87166 12.482 10.588 13.3656 10.588Z" fill="white"/>
<path d="M12.3667 11.9082C12.2562 11.9082 12.1667 11.9977 12.1667 12.1082V13.5082V18.7916V20.1916C12.1667 20.3021 12.2562 20.3916 12.3667 20.3916H14.3667C14.4771 20.3916 14.5667 20.3021 14.5667 20.1916V18.7916V12.1082C14.5667 11.9977 14.4771 11.9082 14.3667 11.9082H12.3667Z" fill="white"/>
</svg>
