<svg width="20" height="20" viewBox="0 0 20 20" fill="none" xmlns="http://www.w3.org/2000/svg">
<path fill-rule="evenodd" clip-rule="evenodd" d="M3 9.99984C3 10.1812 3.08865 10.3547 3.24551 10.4804L8.44551 14.6471C8.764 14.9023 9.27043 14.894 9.57667 14.6286C9.8829 14.3632 9.87297 13.9411 9.55449 13.6859L5.78622 10.6665L16.1992 10.6665C16.641 10.6665 16.9992 10.368 16.9992 9.99984C16.9992 9.63165 16.641 9.33317 16.1992 9.33317L5.78622 9.33317L9.55449 6.31373C9.87297 6.05853 9.8829 5.6365 9.57667 5.3711C9.27043 5.1057 8.764 5.09742 8.44551 5.35262L3.24551 9.51928C3.08865 9.64497 3 9.81849 3 9.99984Z" fill="#33363D"/>
</svg>
