<svg width="24" height="24" viewBox="0 0 24 24" fill="none" xmlns="http://www.w3.org/2000/svg">
<ellipse cx="11.828" cy="18.6558" rx="11.3778" ry="2.13333" fill="#FDCFC3"/>
<rect x="3.5" y="6.23303" width="17" height="11.3333" rx="2.19" fill="#FA967C"/>
<rect x="8.6001" y="8.50037" width="6.8" height="6.8" rx="3.4" fill="#D63D4A"/>
<path d="M12 9.91675C12.2738 9.91675 12.4961 10.139 12.4961 10.4128V11.4041H13.4873C13.7611 11.4041 13.9834 11.6263 13.9834 11.9001C13.9833 12.1739 13.7611 12.3953 13.4873 12.3953H12.4961V13.3875C12.4961 13.6613 12.2738 13.8835 12 13.8835C11.7262 13.8835 11.5039 13.6613 11.5039 13.3875V12.3953H10.5127C10.2389 12.3953 10.0167 12.1739 10.0166 11.9001C10.0166 11.6263 10.2389 11.4041 10.5127 11.4041H11.5039V10.4128C11.5039 10.139 11.7262 9.91677 12 9.91675Z" fill="white"/>
<path d="M15.4004 3.40015C16.0262 3.40029 16.5332 3.9081 16.5332 4.53394V6.23315H14.833V5.13354C14.833 4.80222 14.5647 4.53394 14.2334 4.53394H9.7666C9.43536 4.53405 9.16704 4.80229 9.16699 5.13354V6.23315H7.4668V4.53394C7.4668 3.90801 7.97466 3.40015 8.60059 3.40015H15.4004Z" fill="#D63D4A"/>
<path d="M5.38867 17.5673H7.27756V17.7117C7.27756 18.1535 6.91939 18.5117 6.47756 18.5117H6.18867C5.74684 18.5117 5.38867 18.1535 5.38867 17.7117V17.5673Z" fill="#D63D4A"/>
<path d="M16.7222 17.5673H18.6111V17.7117C18.6111 18.1535 18.2529 18.5117 17.8111 18.5117H17.5222C17.0803 18.5117 16.7222 18.1535 16.7222 17.7117V17.5673Z" fill="#D63D4A"/>
</svg>
