<svg width="24" height="24" viewBox="0 0 24 24" fill="none" xmlns="http://www.w3.org/2000/svg">
<g style="mix-blend-mode:multiply">
<path d="M11.8363 17.6719C15.2525 17.6719 18.0219 15.0871 18.0219 11.8987C18.0219 8.71024 15.2525 6.12549 11.8363 6.12549C8.42013 6.12549 5.65076 8.71024 5.65076 11.8987C5.65076 15.0871 8.42013 17.6719 11.8363 17.6719Z" fill="#FA967C"/>
<path d="M11.8363 17.6719C15.2525 17.6719 18.0219 15.0871 18.0219 11.8987C18.0219 8.71024 15.2525 6.12549 11.8363 6.12549C8.42013 6.12549 5.65076 8.71024 5.65076 11.8987C5.65076 15.0871 8.42013 17.6719 11.8363 17.6719Z" fill="#FA967C"/>
<path fill-rule="evenodd" clip-rule="evenodd" d="M4.26098 5.21101C6.23493 3.24596 8.95893 2.02539 11.9594 2.02539C14.9599 2.02539 17.6839 3.24596 19.6578 5.21101C19.971 5.52272 19.9721 6.02925 19.6604 6.34237C19.3487 6.6555 18.8421 6.65664 18.529 6.34493C16.8411 4.66462 14.5177 3.62539 11.9594 3.62539C9.40113 3.62539 7.07771 4.66462 5.3898 6.34493C5.07667 6.65664 4.57014 6.6555 4.25843 6.34237C3.94672 6.02925 3.94786 5.52272 4.26098 5.21101Z" fill="#D63D4A"/>
<path fill-rule="evenodd" clip-rule="evenodd" d="M11.9501 7.54336C10.4731 7.54336 9.13047 8.14487 8.15083 9.11731C7.83726 9.42858 7.33073 9.42671 7.01946 9.11314C6.7082 8.79957 6.71007 8.29304 7.02364 7.98178C8.28729 6.72741 10.0292 5.94336 11.9501 5.94336C13.8694 5.94336 15.6211 6.7263 16.8787 7.98386C17.1911 8.29628 17.1911 8.80281 16.8787 9.11523C16.5663 9.42765 16.0597 9.42765 15.7473 9.11523C14.7781 8.14598 13.4288 7.54336 11.9501 7.54336Z" fill="#D63D4A"/>
<path fill-rule="evenodd" clip-rule="evenodd" d="M4.25843 17.6594C4.57014 17.3463 5.07667 17.3452 5.3898 17.6569C7.07771 19.3372 9.40113 20.3764 11.9594 20.3764C14.5177 20.3764 16.8411 19.3372 18.529 17.6569C18.8421 17.3452 19.3487 17.3463 19.6604 17.6594C19.9721 17.9725 19.971 18.4791 19.6578 18.7908C17.6839 20.7558 14.9599 21.9764 11.9594 21.9764C8.95893 21.9764 6.23493 20.7558 4.26098 18.7908C3.94786 18.4791 3.94672 17.9725 4.25843 17.6594Z" fill="#D63D4A"/>
<path fill-rule="evenodd" clip-rule="evenodd" d="M7.01946 14.8878C7.33073 14.5742 7.83726 14.5723 8.15083 14.8836C9.13047 15.856 10.4731 16.4576 11.9501 16.4576C13.4288 16.4576 14.7781 15.8549 15.7473 14.8857C16.0597 14.5733 16.5663 14.5733 16.8787 14.8857C17.1911 15.1981 17.1911 15.7046 16.8787 16.0171C15.6211 17.2746 13.8694 18.0576 11.9501 18.0576C10.0292 18.0576 8.28729 17.2735 7.02364 16.0191C6.71007 15.7079 6.7082 15.2013 7.01946 14.8878Z" fill="#D63D4A"/>
<path d="M11.9601 13.6534C12.8756 13.6534 13.6178 12.9112 13.6178 11.9956C13.6178 11.0801 12.8756 10.3379 11.9601 10.3379C11.0446 10.3379 10.3024 11.0801 10.3024 11.9956C10.3024 12.9112 11.0446 13.6534 11.9601 13.6534Z" fill="white"/>
</g>
</svg>
