<svg width="12" height="12" viewBox="0 0 12 12" fill="none" xmlns="http://www.w3.org/2000/svg">
<path d="M6.00027 1.61224C6.13637 1.61225 6.26974 1.65013 6.38549 1.7217C6.48677 1.78433 6.57113 1.87048 6.63136 1.97262L6.65578 2.01725L6.6562 2.01809L7.68134 4.08269L9.9716 4.4157H9.97202C10.1073 4.43449 10.2348 4.49098 10.3396 4.57863C10.4443 4.6663 10.5224 4.78178 10.5648 4.91165C10.6071 5.04151 10.612 5.18072 10.5791 5.31328C10.5462 5.44578 10.4764 5.5661 10.3783 5.66103L10.3787 5.66145L8.7208 7.26674L9.11233 9.53426L9.11991 9.59025C9.17623 10.1625 8.56619 10.5727 8.05098 10.3039V10.3034L5.99985 9.23114L3.94915 10.303L3.94957 10.3034C3.41644 10.5828 2.78514 10.1336 2.88822 9.53384L3.27933 7.26632L1.62184 5.66103L1.62142 5.66061C1.52365 5.56558 1.45453 5.44482 1.42186 5.31244C1.38922 5.18011 1.39429 5.04121 1.4366 4.91165C1.47892 4.78208 1.55695 4.66704 1.66141 4.57947C1.75284 4.50287 1.86144 4.44971 1.97759 4.42497L2.02811 4.41613L4.31879 4.08269L5.34435 2.01809L5.34477 2.01725L5.36919 1.97262C5.42942 1.87049 5.51378 1.78433 5.61506 1.7217C5.73081 1.65014 5.86418 1.61224 6.00027 1.61224ZM6.00027 2.30185C5.99232 2.30185 5.98431 2.30398 5.97754 2.30816C5.97107 2.31218 5.96551 2.31785 5.96196 2.32458L5.96238 2.325L4.85683 4.55169C4.80649 4.65302 4.70945 4.72314 4.59749 4.73946L2.12578 5.09899L2.1241 5.09941C2.11687 5.10043 2.1099 5.10315 2.10431 5.10783C2.09872 5.11252 2.09479 5.119 2.09252 5.12594C2.09029 5.13284 2.08994 5.14037 2.09168 5.14741C2.0934 5.15422 2.09683 5.16054 2.10178 5.16551L3.89021 6.89752C3.97209 6.97684 4.00937 7.09166 3.98998 7.20401L3.56772 9.65046L3.56814 9.65088C3.56621 9.66221 3.56776 9.66814 3.5694 9.67193C3.57163 9.67707 3.57636 9.68358 3.58414 9.68919C3.5919 9.69478 3.60007 9.69744 3.60645 9.69803C3.61141 9.69847 3.61849 9.69814 3.62918 9.69256L3.6296 9.69214L5.84029 8.53648L5.87903 8.51922C5.97027 8.48495 6.07272 8.49071 6.16026 8.53648L8.37052 9.69214H8.3701C8.38123 9.69794 8.38884 9.69852 8.3941 9.69803C8.40073 9.69741 8.40905 9.69438 8.41683 9.68877C8.42447 9.68321 8.42898 9.67686 8.43115 9.67193L8.43241 9.6513L8.01056 7.20443C7.99118 7.09207 8.02844 6.97727 8.11034 6.89794L9.89876 5.16593V5.16551L9.90971 5.14699C9.91147 5.13991 9.91112 5.13245 9.90887 5.12552C9.9066 5.11857 9.90227 5.11252 9.89666 5.10783C9.89109 5.10318 9.88448 5.10001 9.87729 5.09899L9.87477 5.09857L7.40306 4.73946C7.29109 4.72315 7.19406 4.65302 7.14372 4.55169L6.03816 2.325V2.32458C6.03461 2.31789 6.02904 2.31215 6.02259 2.30816C6.01587 2.30407 6.00814 2.30185 6.00027 2.30185Z" fill="#33363D"/>
</svg>
