<svg width="20" height="20" viewBox="0 0 20 20" fill="none" xmlns="http://www.w3.org/2000/svg">
<g style="mix-blend-mode:multiply">
<path fill-rule="evenodd" clip-rule="evenodd" d="M4.74386 4.98034C4.95425 4.194 5.57697 3.60587 6.35472 3.52275C7.22606 3.42963 8.51313 3.33331 10.1094 3.33331C11.7057 3.33331 12.9928 3.42963 13.8641 3.52275C14.6419 3.60587 15.2646 4.194 15.475 4.98034L16.3349 8.19416C16.3401 8.21383 16.3451 8.23346 16.3497 8.25306L17.4952 8.08493C17.8943 8.02636 18.2632 8.3167 18.3193 8.73342C18.4314 9.56685 17.8754 10.3374 17.0773 10.4546C16.9941 10.4668 16.9322 10.5412 16.9322 10.6289V16.2857C16.9322 16.4961 16.7689 16.6666 16.5674 16.6666H14.3785C14.1771 16.6666 14.0137 16.4961 14.0137 16.2857V14.7608C14.0137 14.5504 13.8504 14.3798 13.6489 14.3798H6.35082C6.14934 14.3798 5.98601 14.5504 5.98601 14.7608V16.2857C5.98601 16.4961 5.82268 16.6666 5.62121 16.6666H3.43236C3.23088 16.6666 3.06755 16.4961 3.06755 16.2857V10.5701C3.06755 10.5156 3.02916 10.4695 2.97754 10.4619L2.92332 10.454C2.12525 10.3368 1.56921 9.56626 1.68138 8.73282C1.73746 8.3161 2.1064 8.02576 2.50543 8.08433L3.8623 8.28347C3.86877 8.2538 3.876 8.22402 3.88399 8.19416L4.74386 4.98034ZM11.8557 6.20109C12.095 5.95117 12.095 5.54598 11.8557 5.29606C11.6164 5.04615 11.2284 5.04615 10.989 5.29606L8.55037 7.84281C8.37511 8.02584 8.32268 8.30109 8.41753 8.54022C8.51238 8.77936 8.73583 8.93528 8.98368 8.93528H9.94294L7.73748 11.2385C7.49817 11.4884 7.49817 11.8936 7.73748 12.1435C7.97679 12.3934 8.36479 12.3934 8.6041 12.1435L11.8557 8.74784C12.0309 8.56481 12.0833 8.28956 11.9885 8.05043C11.8937 7.81129 11.6702 7.65537 11.4224 7.65537H10.4631L11.8557 6.20109Z" fill="#6D7882"/>
</g>
</svg>
