<svg width="41" height="40" viewBox="0 0 41 40" fill="none" xmlns="http://www.w3.org/2000/svg">
<ellipse cx="20.2134" cy="31.093" rx="18.963" ry="3.55556" fill="#FDCFC3"/>
<path d="M7.5376 14.6759C9.58272 14.6761 11.2404 16.3339 11.2407 18.379V27.6386C11.2407 28.15 10.8262 28.5646 10.3148 28.5646H7.5376C6.51494 28.5646 5.6852 27.7356 5.68506 26.713V22.1199C5.68506 21.7895 5.50309 21.4911 5.24376 21.2863C4.38513 20.6084 3.83362 19.559 3.8335 18.38C3.8335 16.3345 5.4921 14.6759 7.5376 14.6759ZM33.4634 14.6759C35.5086 14.676 37.1663 16.3338 37.1665 18.379C37.1665 19.5583 36.6151 20.6082 35.7563 21.2863C35.497 21.4911 35.3149 21.7895 35.3149 22.12V26.713C35.3148 27.7356 34.4859 28.5644 33.4634 28.5646H30.6852C30.1738 28.5646 29.7593 28.15 29.7593 27.6386V18.379C29.7595 16.3337 31.418 14.6759 33.4634 14.6759Z" fill="#FA967C"/>
<path d="M9.38916 9.12039C9.38916 7.07489 11.0474 5.41669 13.0929 5.41669H27.9077C29.9532 5.41669 31.6114 7.07489 31.6114 9.12039V28.5648H9.38916V9.12039Z" fill="#FA967C"/>
<path d="M11.2407 23.9352C11.2407 22.9124 12.0698 22.0833 13.0926 22.0833H27.9074C28.9301 22.0833 29.7592 22.9124 29.7592 23.9352V28.5648H11.2407V23.9352Z" fill="#D63D4A"/>
<path d="M7.53711 28.5648H11.2408V29.4907C11.2408 30.0021 10.8263 30.4167 10.3149 30.4167H8.46303C7.95166 30.4167 7.53711 30.0021 7.53711 29.4907V28.5648Z" fill="#D63D4A"/>
<path d="M29.7593 28.5648H33.463V29.4907C33.463 30.0021 33.0484 30.4167 32.5371 30.4167H30.6852C30.1738 30.4167 29.7593 30.0021 29.7593 29.4907V28.5648Z" fill="#D63D4A"/>
<path d="M16.333 16.5277C17.1 16.5277 17.7216 16.9422 17.7217 17.4535C17.7217 17.9649 17.1001 18.3793 16.333 18.3793C15.566 18.3793 14.9443 17.9649 14.9443 17.4535C14.9445 16.9422 15.566 16.5277 16.333 16.5277ZM24.666 16.5277C25.433 16.5277 26.0555 16.9422 26.0557 17.4535C26.0557 17.9649 25.4331 18.3793 24.666 18.3793C23.8991 18.3791 23.2773 17.9648 23.2773 17.4535C23.2775 16.9423 23.8992 16.5278 24.666 16.5277ZM16.333 10.0463C17.1 10.0463 17.7216 10.4607 17.7217 10.972C17.7217 11.4834 17.1001 11.8978 16.333 11.8978C15.566 11.8977 14.9443 11.4834 14.9443 10.972C14.9445 10.4608 15.5661 10.0463 16.333 10.0463ZM24.666 10.0463C25.433 10.0463 26.0556 10.4607 26.0557 10.972C26.0557 11.4834 25.4331 11.8978 24.666 11.8978C23.8991 11.8977 23.2773 11.4833 23.2773 10.972C23.2774 10.4608 23.8992 10.0464 24.666 10.0463Z" fill="white"/>
</svg>
