<svg width="24" height="24" viewBox="0 0 24 24" fill="none" xmlns="http://www.w3.org/2000/svg">
<g style="mix-blend-mode:multiply">
<path d="M12.0013 3.88477C12.3836 3.88477 12.6936 4.19472 12.6936 4.57707L12.6936 10.1155C12.6936 10.4979 12.3836 10.8078 12.0013 10.8078C11.6189 10.8078 11.309 10.4979 11.309 10.1155L11.309 4.57707C11.309 4.19472 11.6189 3.88477 12.0013 3.88477Z" fill="#D63D4A"/>
<rect x="3" y="10.1152" width="18" height="9.69231" rx="2.07692" fill="#FA967C"/>
<rect x="5.07727" y="3.88477" width="13.8462" height="2.07692" rx="1.03846" fill="#D63D4A"/>
<circle cx="17.7742" cy="13.0291" r="1.03737" fill="white"/>
<g style="mix-blend-mode:multiply">
<circle cx="8.19388" cy="14.9621" r="3.11538" fill="#D63D4A"/>
</g>
<path d="M5.63257 15.3088C5.63257 14.5176 6.10729 12.856 8.00619 12.5396C7.37323 13.1725 6.16004 14.6494 5.63257 15.3088Z" fill="white"/>
</g>
</svg>
