<svg width="21" height="20" viewBox="0 0 21 20" fill="none" xmlns="http://www.w3.org/2000/svg">
<path d="M15.249 2.5C16.7677 2.50018 17.999 3.73133 17.999 5.25C17.999 6.76867 16.7677 7.99982 15.249 8C14.3749 8 13.5975 7.59082 13.0938 6.95508L8.43848 9.42578C8.47787 9.61107 8.49999 9.80297 8.5 10C8.5 10.2621 8.46007 10.5148 8.3916 10.7549L12.9834 13.1914C13.4794 12.4719 14.309 12 15.249 12C16.7677 12.0002 17.999 13.2313 17.999 14.75C17.999 16.2686 16.7676 17.4998 15.249 17.5C13.7303 17.5 12.4991 16.2687 12.499 14.75C12.499 14.6494 12.5041 14.55 12.5146 14.4521L7.72461 11.9102C7.22464 12.4269 6.52584 12.75 5.75 12.75C4.23122 12.75 3 11.5188 3 10C3.00009 8.48129 4.23127 7.25 5.75 7.25C6.59342 7.25 7.34711 7.63074 7.85156 8.22852L12.5439 5.7373C12.5156 5.57902 12.499 5.41643 12.499 5.25C12.499 3.73122 13.7302 2.5 15.249 2.5ZM15.249 13.333C14.4666 13.333 13.832 13.9676 13.832 14.75C13.8321 15.5324 14.4666 16.167 15.249 16.167C16.0313 16.1668 16.665 15.5323 16.665 14.75C16.665 13.9677 16.0313 13.3332 15.249 13.333ZM5.75 8.58301C4.96765 8.58301 4.3331 9.21767 4.33301 10C4.33301 10.7824 4.9676 11.417 5.75 11.417C6.5324 11.417 7.16699 10.7824 7.16699 10C7.1669 9.21767 6.53235 8.58301 5.75 8.58301ZM15.249 3.83301C14.4666 3.83301 13.832 4.4676 13.832 5.25C13.832 6.0324 14.4666 6.66699 15.249 6.66699C16.0313 6.66682 16.665 6.03229 16.665 5.25C16.665 4.4677 16.0313 3.83318 15.249 3.83301Z" fill="#33363D"/>
</svg>
