<svg width="16" height="16" viewBox="0 0 16 16" fill="none" xmlns="http://www.w3.org/2000/svg">
<g clip-path="url(#clip0_3084_248)">
<path fill-rule="evenodd" clip-rule="evenodd" d="M5.46667 2.00013C5.46667 1.70558 5.70546 1.4668 6.00001 1.4668H10C10.2946 1.4668 10.5333 1.70558 10.5333 2.00013C10.5333 2.29468 10.2946 2.53346 10 2.53346H6.00001C5.70546 2.53346 5.46667 2.29468 5.46667 2.00013ZM1.46667 4.33346C1.46667 4.03891 1.70546 3.80013 2.00001 3.80013H14C14.2946 3.80013 14.5333 4.03891 14.5333 4.33346C14.5333 4.62802 14.2946 4.8668 14 4.8668H13.2V12.6668C13.2 13.6977 12.3643 14.5335 11.3333 14.5335H4.66668C3.63574 14.5335 2.80001 13.6977 2.80001 12.6668V4.8668H2.00001C1.70546 4.8668 1.46667 4.62802 1.46667 4.33346ZM3.86667 4.8668V12.6668C3.86667 13.1086 4.22485 13.4668 4.66668 13.4668H11.3333C11.7752 13.4668 12.1333 13.1086 12.1333 12.6668V4.8668H3.86667ZM6.66668 7.4668C6.96123 7.4668 7.20001 7.70558 7.20001 8.00013V10.0001C7.20001 10.2947 6.96123 10.5335 6.66668 10.5335C6.37212 10.5335 6.13334 10.2947 6.13334 10.0001V8.00013C6.13334 7.70558 6.37212 7.4668 6.66668 7.4668ZM9.33334 7.4668C9.62789 7.4668 9.86668 7.70558 9.86668 8.00013V10.0001C9.86668 10.2947 9.62789 10.5335 9.33334 10.5335C9.03879 10.5335 8.80001 10.2947 8.80001 10.0001V8.00013C8.80001 7.70558 9.03879 7.4668 9.33334 7.4668Z" fill="white"/>
</g>
<defs>
<clipPath id="clip0_3084_248">
<rect width="16" height="16" fill="white"/>
</clipPath>
</defs>
</svg>
