<svg width="21" height="20" viewBox="0 0 21 20" fill="none" xmlns="http://www.w3.org/2000/svg">
<path d="M12.0115 1.66699C12.1883 1.66699 12.3581 1.73726 12.4832 1.8623L17.2322 6.6123C17.3572 6.73732 17.4275 6.90721 17.4275 7.08398V9.16699H17.4285C17.8886 9.16717 18.2615 9.53987 18.2615 10V15C18.2615 15.4602 17.8877 15.833 17.4275 15.833V16.834C17.4272 17.6622 16.7558 18.334 15.9275 18.334H5.59448C4.76637 18.3338 4.09475 17.6621 4.09448 16.834V3.16699C4.09448 2.33867 4.7662 1.66717 5.59448 1.66699H12.0115ZM5.59448 3C5.50259 3.00018 5.42847 3.07505 5.42847 3.16699V16.834C5.42873 16.9257 5.50275 16.9998 5.59448 17H15.9275C16.0194 17 16.0942 16.9258 16.0945 16.834V15.833H7.42847C6.96823 15.833 6.59448 15.4602 6.59448 15V10C6.59448 9.53976 6.96823 9.16699 7.42847 9.16699H16.0945V7.75H12.8445C12.0162 7.74982 11.3445 7.07832 11.3445 6.25V3H5.59448ZM12.6785 6.25C12.6785 6.34194 12.7526 6.41682 12.8445 6.41699H15.1511L12.6785 3.94336V6.25Z" fill="#33363D"/>
<path d="M10.1086 10.792C10.8433 10.792 11.4088 11.2465 11.51 11.8984H10.8987C10.793 11.5451 10.5175 11.3291 10.1135 11.3291C9.57623 11.3291 9.19067 11.7475 9.19067 12.4961C9.19074 13.2537 9.57162 13.6718 10.1272 13.6719C10.6277 13.6719 10.949 13.3685 10.9583 12.8955H10.1868V12.4229H11.5374V12.8223C11.5372 13.6763 10.9491 14.209 10.1272 14.209C9.20892 14.2089 8.5893 13.5569 8.58911 12.501C8.58911 11.4357 9.23624 10.7921 10.1086 10.792ZM12.9114 14.1631H12.3137V10.8379H12.9114V14.1631ZM15.8967 11.3389H14.3635V12.248H15.7502V12.748H14.3635V14.1631H13.7659V10.8379H15.8967V11.3389Z" fill="white"/>
</svg>
