<svg width="16" height="16" viewBox="0 0 16 16" fill="none" xmlns="http://www.w3.org/2000/svg">
<path fill-rule="evenodd" clip-rule="evenodd" d="M2.79909 8.00007C2.79909 5.131 5.1388 2.80007 8.03129 2.80007C9.99587 2.80007 11.7071 3.87595 12.6018 5.4668H10.534C10.2394 5.4668 10.0007 5.70558 10.0007 6.00013C10.0007 6.29468 10.2394 6.53346 10.534 6.53346H13.8673C14.1619 6.53346 14.4007 6.29468 14.4007 6.00013V2.6668C14.4007 2.37225 14.1619 2.13346 13.8673 2.13346C13.5728 2.13346 13.334 2.37225 13.334 2.6668V4.61663C12.2136 2.88217 10.2571 1.7334 8.03129 1.7334C4.55534 1.7334 1.73242 4.53627 1.73242 8.00007C1.73242 11.4638 4.55534 14.2667 8.03129 14.2667C11.187 14.2667 13.8033 11.9574 14.2598 8.93984C14.3038 8.6486 14.1034 8.37679 13.8122 8.33273C13.521 8.28867 13.2491 8.48905 13.2051 8.78029C12.827 11.2797 10.6561 13.2001 8.03129 13.2001C5.13881 13.2001 2.79909 10.8691 2.79909 8.00007Z" fill="#8A949E"/>
</svg>
