<svg width="24" height="24" viewBox="0 0 24 24" fill="none" xmlns="http://www.w3.org/2000/svg">
<g style="mix-blend-mode:multiply">
<ellipse cx="11.8309" cy="19.6568" rx="11.3778" ry="2.13333" fill="#FDCFC3"/>
<g style="mix-blend-mode:multiply">
<path d="M14.7969 1.97656C15.3215 1.97656 15.7469 2.40189 15.7469 2.92656C15.7469 3.45123 15.3215 3.87656 14.7969 3.87656C14.5345 3.87656 14.3219 4.08923 14.3219 4.35156V7.67656C14.3219 8.20123 13.8965 8.62656 13.3719 8.62656H12.4219C11.8972 8.62656 11.4719 8.20123 11.4719 7.67656V4.35156C11.4719 4.08923 11.2592 3.87656 10.9969 3.87656C10.4722 3.87656 10.0469 3.45123 10.0469 2.92656C10.0469 2.40189 10.4722 1.97656 10.9969 1.97656H14.7969Z" fill="#D63D4A"/>
</g>
<path d="M12.9 4.82812C17.0974 4.82812 20.5 8.23076 20.5 12.4281C20.5 16.6255 17.0974 20.0281 12.9 20.0281C11.156 20.0281 9.54996 19.4402 8.26781 18.4521C7.35469 17.7484 6.29819 17.1781 5.1454 17.1781H4.63481C3.95292 17.178 3.40015 16.6252 3.4 15.9433C3.4 15.2613 3.95283 14.7086 4.63481 14.7085H5.72722C6.01594 14.7085 6.25 14.4744 6.25 14.1857C6.25 13.897 6.01594 13.6629 5.72722 13.6629H2.73481C2.05284 13.6628 1.50003 13.1101 1.5 12.4281C1.5 11.7461 2.05283 11.1934 2.73481 11.1933H6.67769C6.96615 11.1933 7.2 10.9595 7.2 10.671C7.2 10.3825 6.96615 10.1487 6.67769 10.1487L5.6479 10.1482L4.63481 10.1478C3.95283 10.1477 3.4 9.59495 3.4 8.91294C3.4001 8.23101 3.95289 7.67823 4.63481 7.67812H5.14529C6.29815 7.67812 7.35468 7.10774 8.26786 6.40404C9.54998 5.41603 11.1561 4.82812 12.9 4.82812Z" fill="white"/>
<path d="M12.9 4.82812C17.0974 4.82812 20.5 8.23076 20.5 12.4281C20.5 16.6255 17.0974 20.0281 12.9 20.0281C11.156 20.0281 9.54996 19.4402 8.26781 18.4521C7.35469 17.7484 6.29819 17.1781 5.1454 17.1781H4.63481C3.95292 17.178 3.40015 16.6252 3.4 15.9433C3.4 15.2613 3.95283 14.7086 4.63481 14.7085H5.72722C6.01594 14.7085 6.25 14.4744 6.25 14.1857C6.25 13.897 6.01594 13.6629 5.72722 13.6629H2.73481C2.05284 13.6628 1.50003 13.1101 1.5 12.4281C1.5 11.7461 2.05283 11.1934 2.73481 11.1933H6.67769C6.96615 11.1933 7.2 10.9595 7.2 10.671C7.2 10.3825 6.96615 10.1487 6.67769 10.1487L5.6479 10.1482L4.63481 10.1478C3.95283 10.1477 3.4 9.59495 3.4 8.91294C3.4001 8.23101 3.95289 7.67823 4.63481 7.67812H5.14529C6.29815 7.67812 7.35468 7.10774 8.26786 6.40404C9.54998 5.41603 11.1561 4.82812 12.9 4.82812Z" fill="#FA967C"/>
<path d="M11.9531 12.3384V8.62187C11.9531 8.0972 12.3785 7.67188 12.9031 7.67188C13.4278 7.67188 13.8531 8.0972 13.8531 8.62187V12.3384L16.2912 14.0139L16.3682 14.0732C16.7355 14.3847 16.8147 14.9296 16.5361 15.335C16.2575 15.7403 15.7199 15.8622 15.2976 15.6309L15.215 15.5799L12.777 13.9035C12.2937 13.5713 11.9927 13.0363 11.9568 12.4553L11.9531 12.3384Z" fill="#D63D4A"/>
</g>
</svg>
