<svg width="24" height="25" viewBox="0 0 24 25" fill="none" xmlns="http://www.w3.org/2000/svg">
<g style="mix-blend-mode:multiply">
<path fill-rule="evenodd" clip-rule="evenodd" d="M3.52807 10.5551C3.07225 10.491 2.6508 10.8086 2.58674 11.2644C2.45862 12.1761 3.09379 13.019 4.00542 13.1471L4.06973 13.1561C4.12794 13.1643 4.17018 13.2153 4.17018 13.2741V13.6919V14.941V18.6925C4.17018 19.383 4.7299 19.9427 5.42035 19.9427H6.2538C6.94424 19.9427 7.50396 19.383 7.50396 18.6925V17.858C7.50396 17.6279 7.69054 17.4413 7.92069 17.4413H16.2574C16.4875 17.4413 16.6741 17.6279 16.6741 17.858V18.6925C16.6741 19.383 17.2338 19.9427 17.9243 19.9427H18.7577C19.4482 19.9427 20.0079 19.383 20.0079 18.6925V13.6919C20.0079 13.6666 20.0071 13.6416 20.0056 13.6167V13.2741C20.0056 13.2159 20.0474 13.1655 20.105 13.1574L20.1737 13.1477C21.0853 13.0196 21.7205 12.1767 21.5923 11.2651C21.5283 10.8093 21.1068 10.4917 20.651 10.5557L18.3587 10.8779C18.2968 10.8866 18.2339 10.8807 18.1737 10.8641C17.9609 10.8052 17.7368 10.7737 17.5053 10.7737H6.67052C6.43984 10.7737 6.21646 10.805 6.00437 10.8634C5.94428 10.88 5.88155 10.8859 5.81983 10.8772L3.52807 10.5551Z" fill="white"/>
<g style="mix-blend-mode:multiply">
<path fill-rule="evenodd" clip-rule="evenodd" d="M3.52807 10.5551C3.07225 10.491 2.6508 10.8086 2.58674 11.2644C2.45862 12.1761 3.09379 13.019 4.00542 13.1471L4.06973 13.1561C4.12794 13.1643 4.17018 13.2153 4.17018 13.2741V13.6919V14.941V18.6925C4.17018 19.383 4.7299 19.9427 5.42035 19.9427H6.2538C6.94424 19.9427 7.50396 19.383 7.50396 18.6925V17.858C7.50396 17.6279 7.69054 17.4413 7.92069 17.4413H16.2574C16.4875 17.4413 16.6741 17.6279 16.6741 17.858V18.6925C16.6741 19.383 17.2338 19.9427 17.9243 19.9427H18.7577C19.4482 19.9427 20.0079 19.383 20.0079 18.6925V13.6919C20.0079 13.6666 20.0071 13.6416 20.0056 13.6167V13.2741C20.0056 13.2159 20.0474 13.1655 20.105 13.1574L20.1737 13.1477C21.0853 13.0196 21.7205 12.1767 21.5923 11.2651C21.5283 10.8093 21.1068 10.4917 20.651 10.5557L18.3587 10.8779C18.2968 10.8866 18.2339 10.8807 18.1737 10.8641C17.9609 10.8052 17.7368 10.7737 17.5053 10.7737H6.67052C6.43984 10.7737 6.21646 10.805 6.00437 10.8634C5.94428 10.88 5.88155 10.8859 5.81983 10.8772L3.52807 10.5551Z" fill="#FA967C"/>
</g>
<path d="M6.08431 7.15997C6.32464 6.29985 7.03598 5.65652 7.9244 5.56561C8.91975 5.46375 10.39 5.3584 12.2134 5.3584C14.0369 5.3584 15.5071 5.46375 16.5025 5.56561C17.3909 5.65652 18.1023 6.29985 18.3426 7.15997L19.3248 10.6754C19.5634 11.5291 19.2106 12.3286 18.338 12.4844C17.2709 12.675 15.412 12.8594 12.2134 12.8594C9.01485 12.8594 7.15596 12.675 6.08893 12.4844C5.2163 12.3286 4.86352 11.5291 5.10207 10.6754L6.08431 7.15997Z" fill="#D63D4A"/>
<path fill-rule="evenodd" clip-rule="evenodd" d="M9.14529 7.52013C9.90049 6.76834 10.9434 6.30078 12.0923 6.30078C13.2412 6.30078 14.2842 6.76834 15.0394 7.52013C15.2351 7.71495 15.2358 8.03154 15.041 8.22724C14.8461 8.42294 14.5296 8.42366 14.3339 8.22884C13.7574 7.655 12.9649 7.30078 12.0923 7.30078C11.2198 7.30078 10.4272 7.655 9.8508 8.22884C9.6551 8.42366 9.33852 8.42294 9.1437 8.22724C8.94888 8.03154 8.94959 7.71495 9.14529 7.52013Z" fill="white"/>
<path fill-rule="evenodd" clip-rule="evenodd" d="M12.0905 9.375C11.6114 9.375 11.1753 9.56989 10.8562 9.88667C10.6602 10.0812 10.3436 10.08 10.1491 9.88406C9.95451 9.68808 9.95568 9.3715 10.1517 9.17696C10.6483 8.68397 11.3339 8.375 12.0905 8.375C12.846 8.375 13.5356 8.68328 14.0306 9.17827C14.2258 9.37353 14.2258 9.69011 14.0306 9.88537C13.8353 10.0806 13.5187 10.0806 13.3235 9.88537C13.0087 9.57058 12.5706 9.375 12.0905 9.375Z" fill="white"/>
<path d="M12.0931 11.7369C12.426 11.7369 12.6959 11.467 12.6959 11.1341C12.6959 10.8011 12.426 10.5312 12.0931 10.5312C11.7601 10.5312 11.4902 10.8011 11.4902 11.1341C11.4902 11.467 11.7601 11.7369 12.0931 11.7369Z" fill="white"/>
</g>
</svg>
