<svg width="16" height="16" viewBox="0 0 16 16" fill="none" xmlns="http://www.w3.org/2000/svg">
<path fill-rule="evenodd" clip-rule="evenodd" d="M5.27245 2.33325C5.05492 2.33333 4.84128 2.39552 4.65317 2.51351C4.46505 2.63151 4.30915 2.80113 4.20126 3.00518L1.99225 7.18139C1.88551 7.38294 1.82936 7.61112 1.82935 7.84332V10.8417C1.82936 11.0485 1.87393 11.2526 1.95954 11.4376L2.6494 12.9281C2.75186 13.1496 2.90941 13.3359 3.10439 13.4661C3.29936 13.5964 3.52406 13.6653 3.75329 13.6654H4.29752C4.62482 13.6654 4.93871 13.5249 5.17015 13.2749C5.40159 13.0248 5.53161 12.6857 5.53161 12.3322H10.468C10.468 12.6857 10.598 13.0248 10.8294 13.2749C11.0608 13.5249 11.3747 13.6654 11.702 13.6654H12.2463C12.4755 13.6653 12.7002 13.5964 12.8952 13.4661C13.0901 13.3359 13.2477 13.1496 13.3502 12.9281L14.04 11.4376C14.1258 11.2529 14.1702 11.0483 14.1702 10.8417V7.84332C14.1702 7.61112 14.114 7.38294 14.0073 7.18139L11.7983 3.00518C11.6904 2.80113 11.5345 2.63151 11.3464 2.51351C11.1583 2.39552 10.9446 2.33333 10.7271 2.33325H5.27245Z" fill="#AAB3BE"/>
<g style="mix-blend-mode:multiply">
<path d="M3.10119 13.4674C2.90621 13.3372 2.74866 13.1509 2.6462 12.9293L2.30127 12.1841H13.6919L13.347 12.9293C13.2445 13.1509 13.0869 13.3372 12.892 13.4674C12.697 13.5976 12.4723 13.6666 12.2431 13.6666H11.6988C11.3715 13.6666 11.0576 13.5261 10.8262 13.2761C10.5948 13.0261 10.4648 12.687 10.4648 12.3334H5.52841C5.52841 12.687 5.39839 13.0261 5.16695 13.2761C4.93551 13.5261 4.62162 13.6666 4.29432 13.6666H3.75009C3.52086 13.6666 3.29616 13.5976 3.10119 13.4674Z" fill="#AAB3BE"/>
</g>
<g style="mix-blend-mode:multiply">
<path d="M4.0606 5.90512L4.81629 4.20482C4.95274 3.89781 5.25719 3.69995 5.59316 3.69995H10.5337C10.8697 3.69995 11.1741 3.89781 11.3106 4.20482L12.0663 5.90512C12.3161 6.46731 11.9046 7.10055 11.2894 7.10055H4.83747C4.22226 7.10055 3.81073 6.46731 4.0606 5.90512Z" fill="#AAB3BE"/>
</g>
<ellipse cx="4.94634" cy="9.70074" rx="0.850149" ry="0.850149" fill="white"/>
<ellipse cx="11.181" cy="9.70074" rx="0.850149" ry="0.850149" fill="white"/>
</svg>
