<svg width="24" height="24" viewBox="0 0 24 24" fill="none" xmlns="http://www.w3.org/2000/svg">
<ellipse cx="11.828" cy="18.6558" rx="11.3778" ry="2.13333" fill="#FDCFC3"/>
<path d="M13.7475 5.46232C13.917 5.49943 14.0939 5.45996 14.2352 5.35924C15.1721 4.69162 16.6195 4.11272 17.2919 4.37196C17.8192 4.57527 17.7906 5.30433 17.7519 6.29064C17.741 6.56911 17.7293 6.8681 17.729 7.18155C17.7289 7.33711 17.7984 7.48346 17.9115 7.59026C18.6443 8.2823 19.2041 9.09528 19.5375 9.98648C19.5924 10.1333 19.7301 10.2348 19.8868 10.2348C20.5015 10.2348 20.9999 10.7331 20.9999 11.3479V13.574C20.9999 14.1887 20.5015 14.687 19.8868 14.687H19.4523C19.2529 14.687 19.0704 14.7947 18.9623 14.9623C18.7857 15.2361 18.5861 15.499 18.3655 15.7491C18.2719 15.8553 18.2172 15.9909 18.2172 16.1325V18.5825C18.2172 18.8898 17.9681 19.139 17.6607 19.139H15.8691C15.6138 19.139 15.3912 18.9652 15.3292 18.7175L15.2855 18.5427C15.2046 18.2188 14.8589 18.0398 14.5399 18.1382C13.6087 18.4253 12.5968 18.5827 11.539 18.5827C10.4812 18.5827 9.46933 18.4253 8.53802 18.1382C8.21904 18.0398 7.8734 18.2188 7.79244 18.5426L7.74874 18.7175C7.6868 18.9652 7.4642 19.139 7.20883 19.139H5.41726C5.1099 19.139 4.86074 18.8898 4.86074 18.5825V16.1324C4.86074 15.9908 4.806 15.8552 4.71238 15.749C3.86553 14.7884 3.32747 13.641 3.21376 12.3994C3.19253 12.1677 3.04444 11.9659 2.83441 11.8657C2.43789 11.6766 2.03653 11.3941 1.67532 10.9849C1.47194 10.7544 1.54409 10.4053 1.79983 10.2348C2.05557 10.0643 2.39682 10.1392 2.61297 10.3577C2.64158 10.3866 2.67043 10.4145 2.69947 10.4413C2.96821 10.6895 3.36429 10.4977 3.48179 10.1512C4.44434 7.31336 7.68699 5.22613 11.539 5.22613C12.3035 5.22613 13.044 5.30834 13.7475 5.46232Z" fill="#FA967C"/>
<path d="M10.9824 2.7218C12.3654 2.7218 13.4871 3.84277 13.4873 5.22571C13.4873 5.80062 13.2914 6.32841 12.9658 6.7511C12.5067 6.66487 12.0292 6.61731 11.5391 6.61731C10.7152 6.61735 9.92693 6.74686 9.20215 6.98157C8.75603 6.52913 8.47852 5.91083 8.47852 5.22571C8.47873 3.8429 9.59961 2.72201 10.9824 2.7218Z" fill="#D63D4A" stroke="#D63D4A" stroke-width="0.556523"/>
<path d="M17.8994 10.4468C17.8994 10.8712 17.5553 11.2153 17.1308 11.2153C16.7064 11.2153 16.3623 10.8712 16.3623 10.4468C16.3623 10.0223 16.7064 9.67822 17.1308 9.67822C17.5553 9.67822 17.8994 10.0223 17.8994 10.4468Z" fill="#D63D4A"/>
<ellipse cx="16.7482" cy="13.2957" rx="1.39131" ry="0.834785" fill="white"/>
<path d="M14.3219 7.44189C13.487 7.09271 12.5413 6.89575 11.5393 6.89575C10.186 6.89575 8.93532 7.25501 7.92188 7.86333" stroke="#D63D4A" stroke-width="0.890437" stroke-linecap="round"/>
</svg>
