<svg width="16" height="16" viewBox="0 0 16 16" fill="none" xmlns="http://www.w3.org/2000/svg">
<rect width="13.3333" height="13.3333" rx="6.66667" transform="matrix(1 0 0 -1 1.3335 14.6665)" fill="#6D7882"/>
<path d="M7.93281 6.29385C8.37464 6.29385 8.73281 5.93568 8.73281 5.49385C8.73281 5.05202 8.37464 4.69385 7.93281 4.69385C7.49098 4.69385 7.13281 5.05202 7.13281 5.49385C7.13281 5.93568 7.49098 6.29385 7.93281 6.29385Z" fill="white"/>
<path d="M7.53333 6.95394C7.42288 6.95394 7.33333 7.04348 7.33333 7.15394V7.75394V10.3957V10.9957C7.33333 11.1061 7.42288 11.1957 7.53333 11.1957H8.33333C8.44379 11.1957 8.53333 11.1061 8.53333 10.9957V10.3957V7.15394C8.53333 7.04348 8.44379 6.95394 8.33333 6.95394H7.53333Z" fill="white"/>
</svg>
