<svg width="57" height="56" viewBox="0 0 57 56" fill="none" xmlns="http://www.w3.org/2000/svg">
<path d="M0.5 24C0.5 10.7452 11.2452 0 24.5 0H32.5C45.7548 0 56.5 10.7452 56.5 24V32C56.5 45.2548 45.7548 56 32.5 56H24.5C11.2452 56 0.5 45.2548 0.5 32V24Z" fill="#1877F2"/>
<path d="M35.2631 29.79L36.1096 24.2709H30.8143V20.6895C30.8143 19.1796 31.5542 17.7078 33.9258 17.7078H36.3333V13.0091C36.3333 13.0091 34.1485 12.6362 32.0594 12.6362C27.6983 12.6362 24.8478 15.2794 24.8478 20.0645V24.2709H20V29.79H24.8478V43.1318C25.82 43.2844 26.816 43.3638 27.8311 43.3638C28.8461 43.3638 29.8421 43.2844 30.8143 43.1318V29.79H35.2631Z" fill="white"/>
</svg>
