<svg width="24" height="24" viewBox="0 0 24 24" fill="none" xmlns="http://www.w3.org/2000/svg">
<ellipse cx="11.8309" cy="18.6568" rx="11.3778" ry="2.13333" fill="#FDCFC3"/>
<path d="M7.95567 17.4143C7.90143 17.113 8.13303 16.8359 8.43921 16.8359C8.74249 16.8359 8.97334 17.108 8.92397 17.4072L8.66267 18.9909C8.64569 19.0938 8.55671 19.1693 8.4524 19.1693C8.34773 19.1693 8.25808 19.0943 8.23953 18.9913L7.95567 17.4143Z" fill="#D63D4A"/>
<path d="M6.97656 16.25H9.89323V16.8333C9.89323 17.1555 9.63206 17.4167 9.3099 17.4167H7.5599C7.23773 17.4167 6.97656 17.1555 6.97656 16.8333V16.25Z" fill="#D63D4A"/>
<path d="M11.0576 15.4248C11.0576 16.2041 10.4257 16.8357 9.64648 16.8359H7.21875C6.43934 16.8359 5.80765 16.2042 5.80762 15.4248V5.75293H5.22363C4.90162 5.75275 4.64062 5.491 4.64062 5.16895C4.6408 4.84704 4.90172 4.58611 5.22363 4.58594H11.6406C11.9627 4.58594 12.2235 4.84693 12.2236 5.16895C12.2236 5.49111 11.9628 5.75293 11.6406 5.75293H11.0576V15.4248Z" fill="#FA967C"/>
<path d="M6.67969 14.5C6.84075 14.5 6.97168 14.6309 6.97168 14.792C6.97151 14.9529 6.84064 15.083 6.67969 15.083H5.80469V14.5H6.67969ZM6.67969 12.75C6.84075 12.75 6.97168 12.8809 6.97168 13.042C6.97151 13.2029 6.84064 13.333 6.67969 13.333H5.80469V12.75H6.67969ZM6.67969 11C6.84077 11 6.97168 11.1309 6.97168 11.292C6.9715 11.4529 6.84066 11.583 6.67969 11.583H5.80469V11H6.67969Z" fill="white"/>
<path d="M9.8877 4.58594H6.97168V4.00293H6.3877C6.06568 4.00275 5.80469 3.741 5.80469 3.41895C5.80486 3.09704 6.06579 2.83611 6.3877 2.83594H10.4717C10.7936 2.83611 11.0545 3.09704 11.0547 3.41895C11.0547 3.741 10.7937 4.00275 10.4717 4.00293H9.8877V4.58594Z" fill="#D63D4A"/>
<path d="M6.74219 6.04167C6.74219 5.88058 6.87277 5.75 7.03385 5.75H9.83385C9.99494 5.75 10.1255 5.88058 10.1255 6.04167V9.54167C10.1255 9.70275 9.99494 9.83333 9.83385 9.83333H7.03385C6.87277 9.83333 6.74219 9.70275 6.74219 9.54167V6.04167Z" fill="white"/>
<path d="M13.3906 5.46094C13.3906 4.01119 14.5659 2.83594 16.0156 2.83594C17.4654 2.83594 18.6406 4.01119 18.6406 5.46094L18.6406 11.0026L13.3906 11.0026L13.3906 5.46094Z" fill="#FA967C"/>
<path fill-rule="evenodd" clip-rule="evenodd" d="M15.8069 3.75597C15.7321 3.53337 15.503 3.42131 15.2952 3.50568C14.0604 4.0071 13.9219 5.27461 13.8667 5.78016C13.8658 5.78789 13.865 5.79544 13.8642 5.80281C13.8382 6.03965 13.9949 6.25117 14.2142 6.27525C14.4335 6.29934 14.6324 6.12687 14.6584 5.89002C14.7168 5.35856 14.8174 4.61586 15.5662 4.31182C15.774 4.22744 15.8818 3.97858 15.8069 3.75597Z" fill="white"/>
<path d="M13.3906 11L18.6406 11L18.6406 16.5417C18.6406 17.9914 17.4654 19.1667 16.0156 19.1667C14.5659 19.1667 13.3906 17.9914 13.3906 16.5417L13.3906 11Z" fill="#D63D4A"/>
<rect x="13.3906" y="10.5391" width="5.25" height="0.933333" fill="#D63D4A"/>
</svg>
