<svg width="25" height="24" viewBox="0 0 25 24" fill="none" xmlns="http://www.w3.org/2000/svg">
<path d="M16.2998 4C17.6912 4 18.8155 3.99848 19.6982 4.11719C20.6037 4.23897 21.3739 4.50032 21.9863 5.11328L22.0967 5.22949C22.6312 5.82216 22.8682 6.55226 22.9824 7.40137C23.1011 8.28408 23.0996 9.40843 23.0996 10.7998V12.7998C23.0996 14.1912 23.1011 15.3155 22.9824 16.1982C22.8682 17.0473 22.6312 17.7774 22.0967 18.3701L21.9863 18.4863C21.3739 19.0993 20.6037 19.3606 19.6982 19.4824C18.8155 19.6011 17.6912 19.5996 16.2998 19.5996H8.29981C6.90843 19.5996 5.78408 19.6011 4.90137 19.4824C4.05226 19.3682 3.32216 19.1312 2.72949 18.5967L2.61328 18.4863C2.00032 17.8739 1.73897 17.1037 1.61719 16.1982C1.49848 15.3155 1.5 14.1912 1.5 12.7998V10.7998C1.5 9.40843 1.49848 8.28408 1.61719 7.40137C1.73897 6.49591 2.00032 5.72572 2.61328 5.11328L2.72949 5.00293C3.32216 4.46837 4.05226 4.23139 4.90137 4.11719C5.78408 3.99848 6.90843 4 8.29981 4H16.2998ZM7.29981 15C6.85798 15 6.5 15.358 6.5 15.7998C6.5 16.2416 6.85798 16.5996 7.29981 16.5996H17.2998C17.7416 16.5996 18.0996 16.2416 18.0996 15.7998C18.0996 15.358 17.7416 15 17.2998 15H7.29981ZM6.29981 10.7998C6.03459 10.7998 5.78031 10.9052 5.59277 11.0928C5.40524 11.2803 5.29981 11.5346 5.29981 11.7998C5.29981 12.065 5.40524 12.3193 5.59277 12.5068C5.78031 12.6944 6.03459 12.7998 6.29981 12.7998C6.56502 12.7998 6.8193 12.6944 7.00684 12.5068C7.19437 12.3193 7.29981 12.065 7.29981 11.7998C7.29981 11.5346 7.19437 11.2803 7.00684 11.0928C6.8193 10.9052 6.56502 10.7998 6.29981 10.7998ZM9.29981 10.7998C9.03459 10.7998 8.78031 10.9052 8.59277 11.0928C8.40524 11.2803 8.29981 11.5346 8.29981 11.7998C8.29981 12.065 8.40524 12.3193 8.59277 12.5068C8.78031 12.6944 9.03459 12.7998 9.29981 12.7998C9.56502 12.7998 9.8193 12.6944 10.0068 12.5068C10.1944 12.3193 10.2998 12.065 10.2998 11.7998C10.2998 11.5346 10.1944 11.2803 10.0068 11.0928C9.8193 10.9052 9.56502 10.7998 9.29981 10.7998ZM12.2998 10.7998C12.0346 10.7998 11.7803 10.9052 11.5928 11.0928C11.4052 11.2803 11.2998 11.5346 11.2998 11.7998C11.2998 12.065 11.4052 12.3193 11.5928 12.5068C11.7803 12.6944 12.0346 12.7998 12.2998 12.7998C12.565 12.7998 12.8193 12.6944 13.0068 12.5068C13.1944 12.3193 13.2998 12.065 13.2998 11.7998C13.2998 11.5346 13.1944 11.2803 13.0068 11.0928C12.8193 10.9052 12.565 10.7998 12.2998 10.7998ZM15.2998 10.7998C15.0346 10.7998 14.7803 10.9052 14.5928 11.0928C14.4052 11.2803 14.2998 11.5346 14.2998 11.7998C14.2998 12.065 14.4052 12.3193 14.5928 12.5068C14.7803 12.6944 15.0346 12.7998 15.2998 12.7998C15.565 12.7998 15.8193 12.6944 16.0068 12.5068C16.1944 12.3193 16.2998 12.065 16.2998 11.7998C16.2998 11.5346 16.1944 11.2803 16.0068 11.0928C15.8193 10.9052 15.565 10.7998 15.2998 10.7998ZM18.2998 10.7998C18.0346 10.7998 17.7803 10.9052 17.5928 11.0928C17.4052 11.2803 17.2998 11.5346 17.2998 11.7998C17.2998 12.065 17.4052 12.3193 17.5928 12.5068C17.7803 12.6944 18.0346 12.7998 18.2998 12.7998C18.565 12.7998 18.8193 12.6944 19.0068 12.5068C19.1944 12.3193 19.2998 12.065 19.2998 11.7998C19.2998 11.5346 19.1944 11.2803 19.0068 11.0928C18.8193 10.9052 18.565 10.7998 18.2998 10.7998ZM6.29981 7.79981C6.03459 7.79981 5.78031 7.90524 5.59277 8.09277C5.40524 8.28031 5.29981 8.53459 5.29981 8.79981C5.29981 9.06502 5.40524 9.3193 5.59277 9.50684C5.78031 9.69437 6.03459 9.79981 6.29981 9.79981C6.56502 9.79981 6.8193 9.69437 7.00684 9.50684C7.19437 9.3193 7.29981 9.06502 7.29981 8.79981C7.29981 8.53459 7.19437 8.28031 7.00684 8.09277C6.8193 7.90524 6.56502 7.79981 6.29981 7.79981ZM9.29981 7.79981C9.03459 7.79981 8.78031 7.90524 8.59277 8.09277C8.40524 8.28031 8.29981 8.53459 8.29981 8.79981C8.29981 9.06502 8.40524 9.3193 8.59277 9.50684C8.78031 9.69437 9.03459 9.79981 9.29981 9.79981C9.56502 9.79981 9.8193 9.69437 10.0068 9.50684C10.1944 9.3193 10.2998 9.06502 10.2998 8.79981C10.2998 8.53459 10.1944 8.28031 10.0068 8.09277C9.8193 7.90524 9.56502 7.79981 9.29981 7.79981ZM12.2998 7.79981C12.0346 7.79981 11.7803 7.90524 11.5928 8.09277C11.4052 8.28031 11.2998 8.53459 11.2998 8.79981C11.2998 9.06502 11.4052 9.3193 11.5928 9.50684C11.7803 9.69437 12.0346 9.79981 12.2998 9.79981C12.565 9.79981 12.8193 9.69437 13.0068 9.50684C13.1944 9.3193 13.2998 9.06502 13.2998 8.79981C13.2998 8.53459 13.1944 8.28031 13.0068 8.09277C12.8193 7.90524 12.565 7.79981 12.2998 7.79981ZM15.2998 7.79981C15.0346 7.79981 14.7803 7.90524 14.5928 8.09277C14.4052 8.28031 14.2998 8.53459 14.2998 8.79981C14.2998 9.06502 14.4052 9.3193 14.5928 9.50684C14.7803 9.69437 15.0346 9.79981 15.2998 9.79981C15.565 9.79981 15.8193 9.69437 16.0068 9.50684C16.1944 9.3193 16.2998 9.06502 16.2998 8.79981C16.2998 8.53459 16.1944 8.28031 16.0068 8.09277C15.8193 7.90524 15.565 7.79981 15.2998 7.79981ZM18.2998 7.79981C18.0346 7.79981 17.7803 7.90524 17.5928 8.09277C17.4052 8.28031 17.2998 8.53459 17.2998 8.79981C17.2998 9.06502 17.4052 9.3193 17.5928 9.50684C17.7803 9.69437 18.0346 9.79981 18.2998 9.79981C18.565 9.79981 18.8193 9.69437 19.0068 9.50684C19.1944 9.3193 19.2998 9.06502 19.2998 8.79981C19.2998 8.53459 19.1944 8.28031 19.0068 8.09277C18.8193 7.90524 18.565 7.79981 18.2998 7.79981Z" fill="#33363D"/>
</svg>
