<svg width="57" height="56" viewBox="0 0 57 56" fill="none" xmlns="http://www.w3.org/2000/svg">
<g id="Frame 1321317205">
<path d="M0.5 24C0.5 10.7452 11.2452 0 24.5 0H32.5C45.7548 0 56.5 10.7452 56.5 24V32C56.5 45.2548 45.7548 56 32.5 56H24.5C11.2452 56 0.5 45.2548 0.5 32V24Z" fill="#FFE300"/>
<path id="Vector" d="M28.5 15.2524C20.768 15.2524 14.5 20.1946 14.5 26.2909C14.5 30.2323 17.1204 33.6907 21.0622 35.6436C20.8478 36.3832 19.6842 40.4014 19.6379 40.7171C19.6379 40.7171 19.61 40.9543 19.7636 41.0447C19.9172 41.1352 20.0978 41.0649 20.0978 41.0649C20.5383 41.0034 25.2056 37.725 26.0134 37.1557C26.8204 37.27 27.6514 37.3294 28.5 37.3294C36.232 37.3294 42.5 32.3874 42.5 26.2909C42.5 20.1946 36.232 15.2524 28.5 15.2524Z" fill="black"/>
</g>
</svg>
