<svg width="16" height="16" viewBox="0 0 16 16" fill="none" xmlns="http://www.w3.org/2000/svg">
<g clip-path="url(#clip0_12720_129124)">
<g clip-path="url(#clip1_12720_129124)">
<path d="M12.3346 6C12.3346 9.80907 8.0013 12 8.0013 12C8.0013 12 3.66797 9.80907 3.66797 6C3.66797 4.93913 4.12452 3.92172 4.93717 3.17157C5.74983 2.42143 6.85203 2 8.0013 2C9.15057 2 10.2528 2.42143 11.0654 3.17157C11.8781 3.92172 12.3346 4.93913 12.3346 6Z" fill="#FA967C"/>
</g>
<g style="mix-blend-mode:multiply">
<path d="M11.8242 11.623C12.0325 11.4147 12.3698 11.4147 12.5781 11.623L14.5781 13.623L14.6145 13.6634C14.7855 13.8729 14.7734 14.1816 14.5781 14.3769C14.3828 14.5722 14.074 14.5843 13.8645 14.4134L13.8242 14.3769L11.8242 12.3769C11.6159 12.1686 11.6159 11.8313 11.8242 11.623Z" fill="#D63D4A"/>
<path d="M14.1328 13.4668C14.4274 13.4668 14.666 13.7054 14.666 14C14.666 14.2946 14.4274 14.5332 14.1328 14.5332H2.13281C1.83826 14.5332 1.59961 14.2946 1.59961 14C1.59961 13.7054 1.83826 13.4668 2.13281 13.4668H14.1328Z" fill="#D63D4A"/>
</g>
<g style="mix-blend-mode:multiply">
<path d="M9.43554 5.45823C9.58572 5.3642 9.78622 5.3852 9.91317 5.51845C10.0401 5.65182 10.0511 5.85315 9.94979 5.99852L9.90015 6.05711L7.89767 7.96195C7.8243 8.03162 7.72623 8.06965 7.62508 8.06692C7.52384 8.06417 7.42769 8.02097 7.35819 7.94731L6.027 6.53556L5.98062 6.47453C5.88738 6.32391 5.90942 6.124 6.04327 5.99771C6.17721 5.8714 6.37842 5.86076 6.52335 5.96272L6.58193 6.01317L7.64949 7.14582L9.37451 5.50543L9.43554 5.45823Z" fill="#D63D4A"/>
</g>
</g>
<defs>
<clipPath id="clip0_12720_129124">
<rect width="16" height="16" fill="white"/>
</clipPath>
<clipPath id="clip1_12720_129124">
<rect width="9.33333" height="12.6667" fill="white" transform="translate(3.33398 2)"/>
</clipPath>
</defs>
</svg>
