<svg width="32" height="32" viewBox="0 0 32 32" fill="none" xmlns="http://www.w3.org/2000/svg">
<rect width="26.6667" height="26.6667" rx="13.3333" transform="matrix(1 0 0 -1 2.66669 29.3335)" fill="#CDD1D5"/>
<path d="M15.8656 12.5882C16.7493 12.5882 17.4656 11.8718 17.4656 10.9882C17.4656 10.1045 16.7493 9.38818 15.8656 9.38818C14.982 9.38818 14.2656 10.1045 14.2656 10.9882C14.2656 11.8718 14.982 12.5882 15.8656 12.5882Z" fill="white"/>
<path d="M14.8667 13.9084C14.7562 13.9084 14.6667 13.9979 14.6667 14.1084V15.5084V20.7918V22.1918C14.6667 22.3023 14.7562 22.3918 14.8667 22.3918H16.8667C16.9771 22.3918 17.0667 22.3023 17.0667 22.1918V20.7918V14.1084C17.0667 13.9979 16.9771 13.9084 16.8667 13.9084H14.8667Z" fill="white"/>
</svg>
