<svg width="20" height="20" viewBox="0 0 20 20" fill="none" xmlns="http://www.w3.org/2000/svg">
<path d="M16.8321 10.1976C16.8321 9.77568 16.6714 9.35111 16.2128 8.74984C15.8598 8.28719 15.3676 7.76622 14.7121 7.10352L14.0017 6.39063L12.6288 5.01856C12.0405 4.43032 11.6321 4.02217 11.2787 3.73031C10.9363 3.44755 10.6842 3.30706 10.4266 3.23308V3.23227C10.1691 3.15871 9.88101 3.14478 9.44112 3.20297C8.98666 3.26309 8.42352 3.39199 7.61251 3.57894L7.61332 3.57976L6.6921 3.79216H6.69128C6.0058 3.95014 5.54146 4.05848 5.18819 4.17953C4.84978 4.29551 4.66962 4.40579 4.53715 4.53842C4.40413 4.67165 4.29355 4.85261 4.17745 5.19109C4.1169 5.36762 4.05946 5.57188 3.9976 5.81771L3.79008 6.69418L3.57768 7.61459V7.6154C3.39037 8.4259 3.26098 8.98885 3.20089 9.4432C3.14267 9.88337 3.1579 10.1712 3.23181 10.4287V10.4295L3.26273 10.5256C3.34271 10.7509 3.48077 10.9817 3.72823 11.2816C4.01997 11.635 4.42756 12.044 5.01566 12.6325L6.38855 14.0046L7.10144 14.715C7.76378 15.3699 8.28431 15.8619 8.74695 16.2148C9.34834 16.6736 9.77291 16.8341 10.1947 16.8342C10.617 16.8342 11.0419 16.6737 11.6433 16.2148C12.2602 15.7442 12.9804 15.0258 14.0025 14.0037C15.0241 12.9821 15.7422 12.2621 16.2128 11.6454C16.6713 11.0443 16.832 10.6198 16.8321 10.1976ZM18.1651 10.1976C18.165 11.0284 17.8217 11.7342 17.2723 12.4543C16.7347 13.159 15.9399 13.9519 14.9449 14.9469C13.9496 15.9422 13.1569 16.7368 12.4522 17.2744C11.732 17.8239 11.0257 18.168 10.1947 18.168C9.36424 18.1679 8.65806 17.8245 7.93803 17.2752C7.40948 16.8721 6.83154 16.3242 6.1558 15.6558L5.44535 14.9478L4.07328 13.5749C3.5029 13.0041 3.04117 12.5435 2.69958 12.1296C2.39281 11.7578 2.15759 11.3945 2.00867 10.978L1.95007 10.7966C1.80809 10.3019 1.80702 9.81449 1.87927 9.26824C1.94967 8.73601 2.09718 8.10122 2.27885 7.31511L2.49044 6.3947L2.70447 5.49219C2.77319 5.21967 2.84161 4.97516 2.91605 4.75814C3.0699 4.30967 3.26659 3.92404 3.59314 3.59685C3.9204 3.26905 4.3073 3.07193 4.75606 2.91814C5.18999 2.76945 5.73363 2.64502 6.3918 2.49333L7.31221 2.28012H7.31303L8.38481 2.03923C8.70837 1.97096 9.00012 1.91655 9.26615 1.88135C9.81214 1.80912 10.2992 1.8099 10.7937 1.95134H10.7945L10.9768 2.00993C11.3929 2.15917 11.7559 2.39489 12.1275 2.70167C12.5413 3.04336 13.0016 3.50495 13.572 4.07536L14.9449 5.44825H14.944C15.9398 6.44366 16.7347 7.23624 17.2723 7.94092C17.8217 8.66106 18.1651 9.36705 18.1651 10.1976Z" fill="#464C53"/>
<path d="M8.04355 7.0709C7.7181 6.74558 7.19044 6.7455 6.86504 7.0709C6.53976 7.39631 6.53976 7.924 6.86504 8.24941C7.19044 8.57481 7.7181 8.57473 8.04355 8.24941C8.36899 7.92397 8.36899 7.39634 8.04355 7.0709ZM8.9867 6.12775C9.83284 6.97389 9.83284 8.34643 8.9867 9.19257C8.14055 10.0386 6.76856 10.0381 5.92246 9.19199C5.07648 8.34588 5.07648 6.97443 5.92246 6.12832C6.76856 5.28222 8.14055 5.28173 8.9867 6.12775Z" fill="#464C53"/>
<path d="M13.7499 9.99991C14.0103 9.73962 14.432 9.73961 14.6923 9.99991C14.9526 10.2602 14.9526 10.682 14.6923 10.9423L10.9423 14.6923C10.682 14.9525 10.2603 14.9525 9.99993 14.6923C9.73957 14.432 9.73964 14.0103 9.99993 13.7499L13.7499 9.99991Z" fill="#464C53"/>
</svg>
