<svg width="20" height="20" viewBox="0 0 20 20" fill="none" xmlns="http://www.w3.org/2000/svg">
<path d="M11.2505 1.66699C11.4271 1.66712 11.5963 1.73737 11.7212 1.8623L16.4712 6.6123C16.5959 6.73718 16.6664 6.90653 16.6665 7.08301V9.16699L16.7515 9.1709C17.1719 9.21339 17.4995 9.56839 17.4995 10V15C17.4995 15.4316 17.1719 15.7866 16.7515 15.8291L16.6665 15.833V16.833C16.6665 17.6613 15.9947 18.3327 15.1665 18.333H4.8335C4.00507 18.333 3.3335 17.6614 3.3335 16.833V3.16699C3.3335 2.33857 4.00507 1.66699 4.8335 1.66699H11.2505ZM4.8335 3C4.74145 3 4.6665 3.07494 4.6665 3.16699V16.833C4.6665 16.9251 4.74145 17 4.8335 17H15.1665C15.2583 16.9997 15.3325 16.9249 15.3325 16.833V15.833H6.6665C6.20634 15.8329 5.8335 15.4602 5.8335 15V10C5.8335 9.53982 6.20634 9.16708 6.6665 9.16699H15.3325V7.75H12.0835C11.2551 7.75 10.5835 7.07843 10.5835 6.25V3H4.8335ZM11.9165 6.25C11.9165 6.34205 11.9914 6.41699 12.0835 6.41699H14.3901L11.9165 3.94336V6.25Z" fill="#33363D"/>
<path d="M14.833 10.833C15.5499 10.833 16.1016 11.2769 16.2002 11.9131H15.6045C15.5014 11.5681 15.2321 11.3574 14.8379 11.3574C14.3138 11.3574 13.9376 11.7651 13.9375 12.4951C13.9375 13.2344 14.3094 13.6426 14.8516 13.6426C15.3396 13.6425 15.653 13.3469 15.6621 12.8857H14.9092V12.4238H16.2266V12.8135C16.2266 13.6467 15.6534 14.1669 14.8516 14.167C13.9555 14.167 13.3506 13.5305 13.3506 12.5C13.3506 11.4607 13.982 10.8332 14.833 10.833ZM8.55176 10.8779C9.29539 10.8779 9.69424 11.3305 9.69434 11.9531C9.69434 12.5759 9.2911 13.0244 8.54297 13.0244H7.91602V14.1221H7.33301V10.8779H8.55176ZM12.2217 13.0957H12.2529V10.8779H12.8301V14.1221H12.3105L10.7744 11.9043H10.7471V14.1221H10.165V10.8779H10.6934L12.2217 13.0957ZM7.91602 12.5449H8.46191C8.90098 12.5449 9.09863 12.2981 9.09863 11.9531C9.09854 11.6038 8.90088 11.3662 8.46191 11.3662H7.91602V12.5449Z" fill="white"/>
</svg>
