<svg width="16" height="16" viewBox="0 0 16 16" fill="none" xmlns="http://www.w3.org/2000/svg">
<path d="M8.27637 1.07251C8.5278 0.97576 8.8052 0.975779 9.05664 1.07251L12.9453 2.56958C13.1571 2.65109 13.3399 2.79765 13.4688 2.98853C13.5975 3.17934 13.667 3.40583 13.667 3.63794V6.69653C13.667 7.64968 13.4081 8.58397 12.9199 9.39478C12.8243 9.55367 12.7177 9.70443 12.6064 9.85083C12.6352 9.6456 12.656 9.43889 12.6631 9.23071L12.667 9.02954V5.97095C12.667 5.60719 12.5582 5.25039 12.3545 4.94849C12.176 4.68408 11.9306 4.47108 11.6436 4.33423L11.5186 4.28052L7.62988 2.78345C7.2751 2.64693 6.88727 2.63034 6.52441 2.73267L6.37012 2.78345L3.66699 3.82349V3.63892C3.66685 3.40668 3.73549 3.17947 3.86426 2.98853C3.99312 2.79754 4.17578 2.65113 4.3877 2.56958L8.27637 1.07251Z" fill="#AAB3BE"/>
<g style="mix-blend-mode:multiply">
<path d="M8.27637 1.073C8.52782 0.976238 8.80518 0.976238 9.05664 1.073L12.9453 2.57007C13.1571 2.65158 13.3399 2.79718 13.4688 2.98804C13.5975 3.1788 13.6669 3.40537 13.667 3.63745V6.69604C13.667 7.64925 13.4081 8.58441 12.9199 9.39526C12.8244 9.55392 12.7175 9.70415 12.6064 9.85034C12.6352 9.64516 12.656 9.43835 12.6631 9.23022L12.667 9.02905V5.97144C12.667 5.60764 12.5582 5.25093 12.3545 4.94897C12.1759 4.6845 11.9307 4.4716 11.6436 4.33472L11.5186 4.28101L7.62988 2.78394C7.2751 2.64742 6.88727 2.62985 6.52441 2.73218L6.37012 2.78394L3.66699 3.82397V3.63843C3.66686 3.40611 3.73539 3.17902 3.86426 2.98804C3.99308 2.79716 4.1759 2.65161 4.3877 2.57007L8.27637 1.073Z" fill="#AAB3BE"/>
</g>
<path d="M7.39 3.40607L11.2789 4.90309C11.4907 4.98461 11.6733 5.13056 11.8021 5.32144C11.931 5.51232 12 5.73903 12 5.97126V9.02976C12 9.98297 11.7415 10.9174 11.2533 11.7282C10.7651 12.5391 10.0666 13.1944 9.23611 13.6207L7.37278 14.5765C7.25704 14.6359 7.12941 14.6668 7 14.6668C6.87059 14.6668 6.74296 14.6359 6.62722 14.5765L4.76389 13.6201C3.93336 13.1938 3.23487 12.5385 2.74671 11.7276C2.25854 10.9168 1.99998 9.9824 2 9.02919V5.97183C1.99986 5.7395 2.06884 5.51266 2.1977 5.32167C2.32657 5.13068 2.50919 4.98464 2.72111 4.90309L6.61 3.40607C6.86146 3.30931 7.13854 3.30931 7.39 3.40607Z" fill="#AAB3BE"/>
<g style="mix-blend-mode:multiply">
<path fill-rule="evenodd" clip-rule="evenodd" d="M9.02429 6.8046C9.24272 7.00222 9.25958 7.33949 9.06196 7.55791L6.95085 9.89124C6.85014 10.0025 6.7072 10.0663 6.5571 10.0667C6.407 10.0672 6.26364 10.0045 6.16221 9.89381L4.93999 8.56047C4.74096 8.34334 4.75562 8.00597 4.97275 7.80694C5.18988 7.6079 5.52725 7.62257 5.72629 7.8397L6.55279 8.74133L8.27099 6.84227C8.46861 6.62384 8.80587 6.60698 9.02429 6.8046Z" fill="#AAB3BE"/>
</g>
<path d="M2.95816 5.56801L5.31947 4.62109C5.41322 4.58349 5.49774 4.72959 5.41833 4.79055C4.19649 5.72839 3.31691 6.90557 2.77957 8.73246C2.75213 8.82578 2.58962 8.80714 2.58984 8.71014L2.59599 6.08988C2.59652 5.86152 2.7393 5.65578 2.95816 5.56801Z" fill="white"/>
</svg>
