<svg width="9" height="12" viewBox="0 0 9 12" fill="none" xmlns="http://www.w3.org/2000/svg">
<path d="M7.99993 5.25237L5.55167 3.26173C4.56988 2.46345 3.9999 1.26538 3.99992 0V0L-6.67572e-05 0L-6.67572e-05 12L3.99992 12V12C3.9999 10.7346 4.56988 9.53655 5.55167 8.73827L7.99993 6.74763C8.44778 6.34981 8.44778 5.65019 7.99993 5.25237Z" fill="#FEEFEC"/>
<path d="M4.00537 12V10.4874C4.00537 10.1798 4.14699 9.88925 4.38933 9.69972L8.16412 6.74763C8.61196 6.34981 8.61196 5.65019 8.16412 5.25237L4.38933 2.30028C4.14699 2.11075 4.00537 1.82022 4.00537 1.51256V0" stroke="#F8633C"/>
</svg>
