<svg width="24" height="24" viewBox="0 0 24 24" fill="none" xmlns="http://www.w3.org/2000/svg">
<path d="M3.25877 2.8673L2.93851 3.34467C1.83387 4.99122 1.69442 7.10289 2.57296 8.8804C5.26466 14.3264 9.67361 18.7353 15.1196 21.427C16.8971 22.3056 19.0088 22.1661 20.6553 21.0615L21.1327 20.7412C22.1569 20.0541 22.2985 18.6026 21.4264 17.7305L18.6054 14.9096C17.7912 14.0954 16.442 14.202 15.7659 15.134L15.2171 15.8904C14.8906 16.3405 14.2943 16.502 13.7852 16.2783C11.0761 15.0877 8.91235 12.9239 7.72172 10.2148C7.49797 9.70566 7.65948 9.10944 8.10961 8.78288L8.86599 8.23413C9.79798 7.55798 9.90463 6.20879 9.09045 5.39461L6.26945 2.57361C5.39735 1.70151 3.94589 1.8431 3.25877 2.8673Z" fill="#6D7882"/>
</svg>
