<svg width="16" height="16" viewBox="0 0 16 16" fill="none" xmlns="http://www.w3.org/2000/svg">
<rect width="13.3333" height="13.3333" rx="6.66667" transform="matrix(1 0 0 -1 1.33398 14.6666)" fill="#6D7882"/>
<path d="M7.93411 6.29397C8.37594 6.29397 8.73411 5.9358 8.73411 5.49397C8.73411 5.05214 8.37594 4.69397 7.93411 4.69397C7.49229 4.69397 7.13411 5.05214 7.13411 5.49397C7.13411 5.9358 7.49229 6.29397 7.93411 6.29397Z" fill="white"/>
<path d="M7.00078 6.95406C6.89032 6.95406 6.80078 7.0436 6.80078 7.15406V7.55406C6.80078 7.66452 6.89032 7.75406 7.00078 7.75406H7.33516C7.44561 7.75406 7.53516 7.8436 7.53516 7.95406V10.3958H6.86797C6.75751 10.3958 6.66797 10.4853 6.66797 10.5958V10.9958C6.66797 11.1062 6.75751 11.1958 6.86797 11.1958H9.13463C9.24509 11.1958 9.33464 11.1062 9.33464 10.9958V10.5958C9.33464 10.4853 9.24509 10.3958 9.13464 10.3958H8.73516V7.15406C8.73516 7.0436 8.64561 6.95406 8.53516 6.95406H7.00078Z" fill="white"/>
</svg>
