<svg width="16" height="16" viewBox="0 0 16 16" fill="none" xmlns="http://www.w3.org/2000/svg">
<path d="M13.4668 2.66699C14.1293 2.66706 14.6667 3.20372 14.667 3.86621V12.1328C14.667 12.7955 14.1295 13.3329 13.4668 13.333H2.5332C1.87052 13.3329 1.33301 12.7955 1.33301 12.1328V3.86719C1.33301 3.20449 1.87052 2.66706 2.5332 2.66699H13.4668ZM8.30859 10.1025C8.12422 10.2327 7.87774 10.2327 7.69336 10.1025L2.40039 6.3623V12.1328C2.40039 12.2064 2.45963 12.2665 2.5332 12.2666H13.4668C13.5404 12.2665 13.5996 12.2064 13.5996 12.1328V6.36035L8.30859 10.1025ZM2.5332 3.7334C2.45963 3.73347 2.40039 3.79359 2.40039 3.86719V5.05566L8.00098 9.01367L13.5996 5.05371V3.86621C13.5994 3.79282 13.5402 3.73347 13.4668 3.7334H2.5332Z" fill="#33363D"/>
</svg>
