<svg width="17" height="16" viewBox="0 0 17 16" fill="none" xmlns="http://www.w3.org/2000/svg">
<path d="M13.9668 2.66797C14.6293 2.66804 15.1667 3.2047 15.167 3.86719V12.1338C15.167 12.7965 14.6295 13.3339 13.9668 13.334H3.0332C2.37052 13.3339 1.83301 12.7965 1.83301 12.1338V3.86816C1.83301 3.20547 2.37052 2.66804 3.0332 2.66797H13.9668ZM8.80859 10.1035C8.62422 10.2336 8.37774 10.2337 8.19336 10.1035L2.90039 6.36328V12.1338C2.90039 12.2074 2.95963 12.2675 3.0332 12.2676H13.9668C14.0404 12.2675 14.0996 12.2074 14.0996 12.1338V6.36133L8.80859 10.1035ZM3.0332 3.73438C2.95963 3.73445 2.90039 3.79457 2.90039 3.86816V5.05664L8.50098 9.01465L14.0996 5.05469V3.86719C14.0994 3.7938 14.0402 3.73444 13.9668 3.73438H3.0332Z" fill="#33363D"/>
</svg>
