<svg width="21" height="20" viewBox="0 0 21 20" fill="none" xmlns="http://www.w3.org/2000/svg">
<path d="M16.499 2.5C17.3274 2.5 17.999 3.17157 17.999 4V16C17.999 16.8284 17.3274 17.5 16.499 17.5H4.5C3.67157 17.5 3 16.8284 3 16V4C3 3.17157 3.67157 2.5 4.5 2.5H16.499ZM4.33301 12.5303V16C4.33301 16.092 4.40795 16.167 4.5 16.167H16.499C16.5911 16.167 16.666 16.092 16.666 16V15.8809L7.63281 9.59766L4.33301 12.5303ZM4.5 3.83301C4.40795 3.83301 4.33301 3.90795 4.33301 4V10.7461L7.13965 8.25195C7.36989 8.04729 7.71098 8.0272 7.96387 8.20312L16.666 14.2559V4C16.666 3.90795 16.5911 3.83301 16.499 3.83301H4.5ZM13.582 5C14.6406 5 15.499 5.85845 15.499 6.91699C15.4988 7.97539 14.6405 8.83301 13.582 8.83301C12.5236 8.83301 11.6652 7.97539 11.665 6.91699C11.665 5.85845 12.5235 5 13.582 5ZM13.582 6.33301C13.2599 6.33301 12.999 6.59483 12.999 6.91699C12.9992 7.23901 13.26 7.5 13.582 7.5C13.9041 7.5 14.1649 7.23901 14.165 6.91699C14.165 6.59483 13.9042 6.33301 13.582 6.33301Z" fill="#33363D"/>
</svg>
