<svg width="20" height="21" viewBox="0 0 20 21" fill="none" xmlns="http://www.w3.org/2000/svg">
<path fill-rule="evenodd" clip-rule="evenodd" d="M10.0001 3.49984C6.13409 3.49984 3.00008 6.63384 3.00008 10.4998C3.00008 14.3658 6.13409 17.4998 10.0001 17.4998C13.8661 17.4998 17.0001 14.3658 17.0001 10.4998C17.0001 6.63384 13.8661 3.49984 10.0001 3.49984ZM1.66675 10.4998C1.66675 5.89746 5.39771 2.1665 10.0001 2.1665C14.6025 2.1665 18.3334 5.89746 18.3334 10.4998C18.3334 15.1022 14.6025 18.8332 10.0001 18.8332C5.39771 18.8332 1.66675 15.1022 1.66675 10.4998Z" fill="#33363D"/>
<path fill-rule="evenodd" clip-rule="evenodd" d="M8.94618 7.9043C8.73295 8.18387 8.6661 8.51635 8.6661 8.66667H7.33276C7.33276 8.26143 7.47425 7.63558 7.88602 7.0957C8.32295 6.52283 9.03875 6.08333 10.0828 6.08333C11.1013 6.08333 11.8233 6.47746 12.2368 7.08203C12.6249 7.64969 12.6871 8.32753 12.5632 8.82717C12.3593 9.64921 11.8636 10.2781 11.526 10.5801C11.4319 10.6643 11.3508 10.7359 11.2803 10.7981C11.0207 11.027 10.9052 11.1288 10.8185 11.2667C10.7414 11.3893 10.6648 11.5899 10.6648 12.1667H9.33146C9.33146 11.4934 9.4155 10.9933 9.68963 10.5572C9.88926 10.2396 10.1876 9.97946 10.4669 9.73597C10.5248 9.68557 10.5818 9.63588 10.6369 9.58654C10.8181 9.42438 11.1422 9.01746 11.269 8.50617C11.3105 8.33913 11.2893 8.05864 11.1361 7.83464C11.0082 7.64754 10.7309 7.41667 10.0828 7.41667C9.46011 7.41667 9.13425 7.65772 8.94618 7.9043Z" fill="#33363D"/>
<path d="M9.1661 13.8333C9.1661 13.3731 9.53919 13 9.99943 13C10.4597 13 10.8328 13.3731 10.8328 13.8333C10.8328 14.2936 10.4597 14.6667 9.99943 14.6667C9.53919 14.6667 9.1661 14.2936 9.1661 13.8333Z" fill="#33363D"/>
</svg>
