<svg width="33" height="32" viewBox="0 0 33 32" fill="none" xmlns="http://www.w3.org/2000/svg">
<g id="icon/star">
<g id="Vector">
<path d="M12.1891 11.2454L15.4708 4.63656C15.5663 4.4453 15.7132 4.28443 15.8951 4.17199C16.0769 4.05956 16.2865 4 16.5003 4C16.7141 4 16.9236 4.05956 17.1055 4.17199C17.2873 4.28443 17.4342 4.4453 17.5297 4.63656L20.8114 11.2454L28.1479 12.3115C28.3595 12.3409 28.5586 12.4291 28.7224 12.5662C28.8863 12.7033 29.0083 12.8836 29.0746 13.0868C29.1408 13.2899 29.1486 13.5075 29.0971 13.7148C29.0456 13.9222 28.9368 14.1108 28.7832 14.2593L23.4754 19.4004L24.7285 26.6635C24.8889 27.5957 23.9036 28.3056 23.0611 27.8661L16.5003 24.4353L9.93815 27.8661C9.09689 28.3069 8.11162 27.5957 8.27204 26.6623L9.5251 19.3991L4.2173 14.258C4.06444 14.1095 3.95633 13.921 3.90526 13.714C3.85418 13.5071 3.86219 13.2899 3.92838 13.0873C3.99456 12.8846 4.11627 12.7046 4.27966 12.5677C4.44306 12.4308 4.64158 12.3425 4.85267 12.3128L12.1891 11.2454Z" fill="#33363D"/>
<path d="M12.1891 11.2454L15.4708 4.63656C15.5663 4.4453 15.7132 4.28443 15.8951 4.17199C16.0769 4.05956 16.2865 4 16.5003 4C16.7141 4 16.9236 4.05956 17.1055 4.17199C17.2873 4.28443 17.4342 4.4453 17.5297 4.63656L20.8114 11.2454L28.1479 12.3115C28.3595 12.3409 28.5586 12.4291 28.7224 12.5662C28.8863 12.7033 29.0083 12.8836 29.0746 13.0868C29.1408 13.2899 29.1486 13.5075 29.0971 13.7148C29.0456 13.9222 28.9368 14.1108 28.7832 14.2593L23.4754 19.4004L24.7285 26.6635C24.8889 27.5957 23.9036 28.3056 23.0611 27.8661L16.5003 24.4353L9.93815 27.8661C9.09689 28.3069 8.11162 27.5957 8.27204 26.6623L9.5251 19.3991L4.2173 14.258C4.06444 14.1095 3.95633 13.921 3.90526 13.714C3.85418 13.5071 3.86219 13.2899 3.92838 13.0873C3.99456 12.8846 4.11627 12.7046 4.27966 12.5677C4.44306 12.4308 4.64158 12.3425 4.85267 12.3128L12.1891 11.2454Z" fill="#FA967C"/>
<path d="M12.1891 11.2454L15.4708 4.63656C15.5663 4.4453 15.7132 4.28443 15.8951 4.17199C16.0769 4.05956 16.2865 4 16.5003 4C16.7141 4 16.9236 4.05956 17.1055 4.17199C17.2873 4.28443 17.4342 4.4453 17.5297 4.63656L20.8114 11.2454L28.1479 12.3115C28.3595 12.3409 28.5586 12.4291 28.7224 12.5662C28.8863 12.7033 29.0083 12.8836 29.0746 13.0868C29.1408 13.2899 29.1486 13.5075 29.0971 13.7148C29.0456 13.9222 28.9368 14.1108 28.7832 14.2593L23.4754 19.4004L24.7285 26.6635C24.8889 27.5957 23.9036 28.3056 23.0611 27.8661L16.5003 24.4353L9.93815 27.8661C9.09689 28.3069 8.11162 27.5957 8.27204 26.6623L9.5251 19.3991L4.2173 14.258C4.06444 14.1095 3.95633 13.921 3.90526 13.714C3.85418 13.5071 3.86219 13.2899 3.92838 13.0873C3.99456 12.8846 4.11627 12.7046 4.27966 12.5677C4.44306 12.4308 4.64158 12.3425 4.85267 12.3128L12.1891 11.2454Z" stroke="#D63D4A" stroke-width="2" stroke-linecap="round" stroke-linejoin="round"/>
</g>
</g>
</svg>
