<svg width="33" height="32" viewBox="0 0 33 32" fill="none" xmlns="http://www.w3.org/2000/svg">
<g id="icon/star">
<path id="Vector" d="M12.1901 11.2454L15.4718 4.63656C15.5673 4.4453 15.7142 4.28443 15.8961 4.17199C16.0779 4.05956 16.2875 4 16.5012 4C16.715 4 16.9246 4.05956 17.1064 4.17199C17.2883 4.28443 17.4352 4.4453 17.5307 4.63656L20.8124 11.2454L28.1488 12.3115C28.3605 12.3409 28.5595 12.4291 28.7234 12.5662C28.8873 12.7033 29.0093 12.8836 29.0755 13.0868C29.1418 13.2899 29.1496 13.5075 29.0981 13.7148C29.0466 13.9222 28.9378 14.1108 28.7842 14.2593L23.4764 19.4004L24.7295 26.6635C24.8899 27.5957 23.9046 28.3056 23.0621 27.8661L16.5012 24.4353L9.93913 27.8661C9.09786 28.3069 8.1126 27.5957 8.27302 26.6623L9.52608 19.3991L4.21828 14.258C4.06542 14.1095 3.95731 13.921 3.90623 13.714C3.85516 13.5071 3.86317 13.2899 3.92936 13.0873C3.99554 12.8846 4.11725 12.7046 4.28064 12.5677C4.44403 12.4308 4.64256 12.3425 4.85365 12.3128L12.1901 11.2454Z" fill="#8A949E" />
</g>
</svg>
