<svg width="56" height="56" viewBox="0 0 56 56" fill="none" xmlns="http://www.w3.org/2000/svg">
<ellipse cx="27.5984" cy="43.53" rx="26.5481" ry="4.97778" fill="#ACB1B6" fill-opacity="0.2"/>
<path d="M32.0772 12.745C32.4728 12.8316 32.8855 12.7395 33.2153 12.5044C35.4015 10.9467 38.7786 9.59591 40.3475 10.2008C41.578 10.6752 41.5113 12.3763 41.421 14.6777C41.3955 15.3275 41.3682 16.0251 41.3676 16.7565C41.3673 17.1195 41.5295 17.461 41.7933 17.7102C43.5031 19.3249 44.8094 21.2219 45.5873 23.3013C45.7155 23.6438 46.0368 23.8808 46.4024 23.8808C47.8368 23.8808 48.9995 25.0436 48.9995 26.4779V31.6721C48.9995 33.1065 47.8368 34.2692 46.4024 34.2692H45.3885C44.9233 34.2692 44.4974 34.5206 44.2453 34.9115C43.8331 35.5505 43.3674 36.1638 42.8528 36.7475C42.6343 36.9953 42.5067 37.3117 42.5067 37.642V43.3587C42.5067 44.0758 41.9253 44.6572 41.2081 44.6572H37.0278C36.4319 44.6572 35.9125 44.2517 35.768 43.6736L35.666 43.2658C35.4771 42.5102 34.6707 42.0925 33.9264 42.322C31.7534 42.9919 29.3924 43.3592 26.9242 43.3592C24.456 43.3592 22.0949 42.9919 19.9219 42.3219C19.1776 42.0924 18.3711 42.5101 18.1822 43.2657L18.0802 43.6736C17.9357 44.2517 17.4163 44.6572 16.8204 44.6572H12.6401C11.9229 44.6572 11.3416 44.0758 11.3416 43.3587V37.6418C11.3416 37.3115 11.2138 36.995 10.9954 36.7472C9.0194 34.5058 7.76394 31.8287 7.4986 28.9315C7.44908 28.3908 7.10354 27.9201 6.61347 27.6863C5.68824 27.2449 4.75175 26.5859 3.90892 25.6309C3.43436 25.0932 3.60271 24.2786 4.19943 23.8808C4.79616 23.483 5.59241 23.6577 6.09677 24.1676C6.16353 24.2351 6.23084 24.3 6.2986 24.3626C6.92566 24.9418 7.84985 24.4941 8.12402 23.6857C10.37 17.0641 17.9362 12.1938 26.9242 12.1938C28.7081 12.1938 30.4359 12.3857 32.0772 12.745Z" fill="#FBB4C1"/>
<path d="M30.519 16.4626C31.5156 15.3213 32.1193 13.8281 32.1193 12.1939C32.1193 8.60808 29.2124 5.70117 25.6266 5.70117C22.0407 5.70117 19.1338 8.60808 19.1338 12.1939C19.1338 14.1161 19.9691 15.8432 21.2965 17.032C23.0237 16.4255 24.9266 16.0896 26.9253 16.0896C28.1666 16.0896 29.3708 16.2192 30.519 16.4626Z" fill="#F8C63C"/>
<path d="M41.7652 24.3758C41.7652 25.3661 40.9623 26.169 39.972 26.169C38.9816 26.169 38.1787 25.3661 38.1787 24.3758C38.1787 23.3854 38.9816 22.5825 39.972 22.5825C40.9623 22.5825 41.7652 23.3854 41.7652 24.3758Z" fill="#313D4C"/>
<ellipse cx="39.0794" cy="31.0235" rx="3.24639" ry="1.94783" fill="white"/>
<path d="M33.4178 17.3651C31.4697 16.5504 29.263 16.0908 26.925 16.0908C23.7674 16.0908 20.8491 16.9291 18.4844 18.3485" stroke="#D63D4A" stroke-width="2.07769" stroke-linecap="round"/>
</svg>
