<svg width="57" height="56" viewBox="0 0 57 56" fill="none" xmlns="http://www.w3.org/2000/svg">
<ellipse cx="28.0989" cy="43.5297" rx="26.5481" ry="4.97778" fill="#ACB1B6" fill-opacity="0.2"/>
<path d="M14.2547 26.4551C15.2194 26.4551 16.0241 27.165 16.2962 28.0905C17.8456 33.3617 22.7187 37.2103 28.4913 37.2103C34.2637 37.2101 39.1369 33.3616 40.6863 28.0905C40.9584 27.165 41.7631 26.4551 42.7278 26.4551H46.7753C47.9278 26.4551 48.8382 27.4507 48.6106 28.5805C46.7196 37.9664 38.4298 45.035 28.4867 45.0352C18.5438 45.0347 10.2538 37.9662 8.36282 28.5805C8.13519 27.4507 9.04561 26.4551 10.1981 26.4551H14.2547Z" fill="white"/>
<path fill-rule="evenodd" clip-rule="evenodd" d="M28.4977 3.96655C39.8368 3.96704 49.0283 13.1602 49.0283 24.4994C49.0282 26.3498 48.7817 28.1424 48.3219 29.8474C47.9096 31.3761 46.4485 32.3239 44.8652 32.3243C42.2838 32.3243 40.621 29.1111 41.0394 26.5639C41.1501 25.8898 41.208 25.198 41.208 24.4926C41.208 24.0959 40.7771 23.8617 40.4302 24.0542L36.4239 26.2768C36.1904 26.4063 36.0229 26.6268 35.9415 26.8812C34.932 30.0328 31.9799 32.3152 28.4932 32.3152C25.0064 32.3151 22.0542 30.0327 21.0448 26.881C20.9634 26.6268 20.796 26.4063 20.5626 26.2767L16.5608 24.0555C16.215 23.8635 15.7874 24.0971 15.7874 24.4926C15.7874 25.1973 15.8456 25.8883 15.9561 26.5616C16.374 29.1097 14.7101 32.3243 12.1279 32.3243C10.5446 32.3239 9.08352 31.3761 8.67122 29.8474C8.21143 28.1423 7.96492 26.3498 7.96484 24.4994C7.96484 13.1599 17.1582 3.96655 28.4977 3.96655ZM28.4977 11.7823C23.4971 11.7823 19.1707 14.6703 17.0958 18.8694C16.798 19.472 17.2563 20.1431 17.9283 20.1545L21.3998 20.2133C21.7359 20.219 22.0477 20.0488 22.2504 19.7808C23.6782 17.8922 25.943 16.6723 28.4932 16.6723C31.0429 16.6723 33.306 17.8927 34.7337 19.7809C34.9363 20.0489 35.2481 20.219 35.5841 20.2133L39.0646 20.1545C39.7367 20.1431 40.1951 19.4719 39.8972 18.8693C37.8223 14.6708 33.4977 11.7826 28.4977 11.7823Z" fill="white"/>
<path d="M14.2542 26.4548C15.2189 26.4548 16.0236 27.1647 16.2956 28.0903C17.845 33.3614 22.7181 37.21 28.4907 37.21C34.2631 37.2099 39.1364 33.3613 40.6858 28.0903C40.9578 27.1647 41.7625 26.4548 42.7272 26.4548H46.7747C47.9272 26.4548 48.8376 27.4504 48.61 28.5802C46.719 37.9661 38.4292 45.0347 28.4861 45.0349C18.5433 45.0345 10.2532 37.966 8.36225 28.5802C8.13462 27.4504 9.04504 26.4548 10.1975 26.4548H14.2542Z" fill="#7E6254"/>
<g style="mix-blend-mode:multiply">
<path fill-rule="evenodd" clip-rule="evenodd" d="M28.4977 3.96655C39.8368 3.96704 49.0283 13.1602 49.0283 24.4994C49.0282 26.3498 48.7817 28.1424 48.3219 29.8474C47.9096 31.3761 46.4485 32.3239 44.8652 32.3243C42.2838 32.3243 40.621 29.1111 41.0394 26.5639C41.1501 25.8898 41.208 25.198 41.208 24.4926C41.208 24.096 40.7778 23.8628 40.431 24.0551L36.4228 26.2768C36.19 26.4063 36.0235 26.6269 35.9421 26.8806C35.3348 28.7765 34.0219 30.3527 32.3145 31.3103C31.7648 31.6185 31.4553 32.2647 31.6628 32.8598L32.5127 35.2957C32.7276 35.9122 33.4097 36.2364 33.9984 35.9542C34.2134 35.851 34.4238 35.7385 34.6318 35.6238C32.8113 36.6317 30.7195 37.2096 28.4909 37.2097C26.4488 37.2097 24.5217 36.7237 22.8125 35.8676C23.3951 36.1358 24.0665 35.8164 24.2799 35.2045L25.1344 32.755C25.3379 32.1716 25.044 31.5386 24.5124 31.2237C22.8822 30.2579 21.6327 28.7177 21.0443 26.8806C20.9629 26.6269 20.7964 26.4063 20.5635 26.2768L16.5599 24.0551C16.2142 23.864 15.7874 24.0974 15.7874 24.4926C15.7874 25.1973 15.8456 25.8883 15.9561 26.5616C16.374 29.1097 14.7101 32.3243 12.1279 32.3243C10.5446 32.3239 9.08352 31.3761 8.67122 29.8474C8.21143 28.1423 7.96492 26.3498 7.96484 24.4994C7.96484 13.1599 17.1582 3.96655 28.4977 3.96655ZM28.4977 11.7823C23.4972 11.7823 19.1704 14.67 17.0954 18.8689C16.7976 19.4715 17.2573 20.1427 17.9294 20.1541L21.3997 20.2133C21.7357 20.219 22.047 20.0484 22.2497 19.7804C23.6775 17.8918 25.943 16.6723 28.4932 16.6723C31.0429 16.6723 33.3067 17.8922 34.7344 19.7804C34.937 20.0484 35.2483 20.219 35.5843 20.2133L39.0638 20.1541C39.7359 20.1427 40.1956 19.4715 39.8978 18.8689C37.8228 14.6704 33.4977 11.7826 28.4977 11.7823Z" fill="#EECBAE"/>
<path d="M12.0299 36.7722C12.0138 36.7506 11.9959 36.7301 11.9798 36.7084C11.9743 36.7009 11.9692 36.6932 11.9639 36.6856C11.9854 36.7148 12.0082 36.7431 12.0299 36.7722Z" fill="#EECBAE"/>
<path d="M44.9928 36.7084C44.9765 36.7305 44.9569 36.7502 44.9404 36.7722C44.9621 36.7431 44.9849 36.7148 45.0065 36.6856C45.0014 36.6928 44.9981 36.7013 44.9928 36.7084Z" fill="#EECBAE"/>
</g>
<rect x="24.5811" y="20.5884" width="7.8217" height="7.8217" rx="3.91085" fill="white"/>
</svg>
