<svg width="40" height="40" viewBox="0 0 40 40" fill="none" xmlns="http://www.w3.org/2000/svg">
<path d="M10 18.3333C10 12.8104 14.4772 8.33325 20 8.33325C25.5228 8.33325 30 12.8104 30 18.3333V34.9999H10V18.3333Z" fill="#FA967C"/>
<g style="mix-blend-mode:multiply">
<path d="M26.6663 18.3334C26.6663 22.0153 23.6816 25.0001 19.9997 25.0001C16.3178 25.0001 13.333 22.0153 13.333 18.3334C13.333 14.6515 16.3178 11.6667 19.9997 11.6667C23.6816 11.6667 26.6663 14.6515 26.6663 18.3334Z" fill="#D63D4A"/>
</g>
<path d="M22.222 17.6672L22.3566 17.6803C22.6603 17.7425 22.8882 18.0114 22.8882 18.3335C22.8882 18.6556 22.6603 18.9245 22.3566 18.9867L22.222 18.9997H17.7776C17.4094 18.9997 17.1113 18.7017 17.1113 18.3335C17.1113 17.9653 17.4094 17.6672 17.7776 17.6672H22.222Z" fill="white"/>
<path d="M20.6665 20.5555L20.6534 20.69C20.5912 20.9938 20.3223 21.2217 20.0002 21.2217C19.6781 21.2217 19.4092 20.9938 19.347 20.69L19.334 20.5555L19.334 16.1111C19.334 15.7429 19.632 15.4448 20.0002 15.4448C20.3684 15.4448 20.6665 15.7429 20.6665 16.1111L20.6665 20.5555Z" fill="white"/>
<g style="mix-blend-mode:multiply">
<path d="M6.66699 32.5C6.66699 31.1193 7.78628 30 9.16699 30H30.8337C32.2144 30 33.3337 31.1193 33.3337 32.5C33.3337 33.8807 32.2144 35 30.8337 35H9.16699C7.78628 35 6.66699 33.8807 6.66699 32.5Z" fill="#D63D4A"/>
</g>
<path d="M21.333 6.49976L21.3265 6.63647C21.258 7.30863 20.6902 7.83276 20 7.83276C19.3098 7.83276 18.742 7.30863 18.6735 6.63647L18.667 6.49976L18.667 3.99976C18.667 3.26338 19.2636 2.66675 20 2.66675C20.7364 2.66675 21.333 3.26338 21.333 3.99976L21.333 6.49976Z" fill="#D63D4A"/>
<path d="M11.2622 9.37704L11.3543 9.47832C11.7812 10.002 11.7503 10.7741 11.2622 11.2622C10.7741 11.7503 10.002 11.7811 9.47832 11.3543L9.37704 11.2622L7.60927 9.49443C7.08858 8.97373 7.08858 8.12997 7.60927 7.60927C8.12997 7.08858 8.97373 7.08858 9.49443 7.60927L11.2622 9.37704Z" fill="#D63D4A"/>
<path d="M28.9561 9.37704L28.864 9.47832C28.4372 10.002 28.4681 10.7741 28.9561 11.2622C29.4442 11.7503 30.2163 11.7812 30.74 11.3543L30.8413 11.2622L32.609 9.49443C33.1297 8.97373 33.1297 8.12997 32.609 7.60927C32.0883 7.08858 31.2446 7.08858 30.7239 7.60927L28.9561 9.37704Z" fill="#D63D4A"/>
</svg>
