<svg width="40" height="40" viewBox="0 0 40 40" fill="none" xmlns="http://www.w3.org/2000/svg">
<rect x="5" y="5" width="30" height="10" rx="2" fill="#D63D4A"/>
<path d="M8.33301 10H31.6663V33C31.6663 34.1046 30.7709 35 29.6663 35H10.333C9.22844 35 8.33301 34.1046 8.33301 33V10Z" fill="#FA967C"/>
<g style="mix-blend-mode:multiply">
<path d="M20.0003 15.3336L20.137 15.3401C20.8092 15.4086 21.3333 15.9764 21.3333 16.6666C21.3333 17.3568 20.8092 17.9247 20.137 17.9931L20.0003 17.9996H11.667C10.9306 17.9996 10.334 17.403 10.334 16.6666C10.334 15.9302 10.9306 15.3336 11.667 15.3336H20.0003Z" fill="#D63D4A"/>
</g>
<g style="mix-blend-mode:multiply">
<path d="M23.3337 21.0002L23.4704 21.0068C24.1425 21.0752 24.6667 21.643 24.6667 22.3333C24.6667 23.0235 24.1425 23.5913 23.4704 23.6597L23.3337 23.6663H11.667C10.9306 23.6663 10.334 23.0696 10.334 22.3333C10.334 21.5969 10.9306 21.0002 11.667 21.0002H23.3337Z" fill="#D63D4A"/>
</g>
</svg>
