<svg width="57" height="56" viewBox="0 0 57 56" fill="none" xmlns="http://www.w3.org/2000/svg">
<ellipse cx="27.7979" cy="43.5295" rx="26.5481" ry="4.97778" fill="#ACB1B6" fill-opacity="0.2"/>
<path d="M9.62276 30.4223C12.1686 30.4223 14.2323 28.3585 14.2323 25.8127C14.2323 23.2669 12.1686 21.2031 9.62276 21.2031C7.07696 21.2031 5.01318 23.2669 5.01318 25.8127C5.01318 28.3585 7.07696 30.4223 9.62276 30.4223Z" fill="#FDD9BD"/>
<path d="M46.7775 30.4223C49.3233 30.4223 51.3871 28.3585 51.3871 25.8127C51.3871 23.2669 49.3233 21.2031 46.7775 21.2031C44.2317 21.2031 42.168 23.2669 42.168 25.8127C42.168 28.3585 44.2317 30.4223 46.7775 30.4223Z" fill="#FDD9BD"/>
<path d="M28.2002 44.3042C38.4128 44.3042 46.6917 36.0253 46.6917 25.8127C46.6917 15.6002 38.4128 7.32129 28.2002 7.32129C17.9877 7.32129 9.70874 15.6002 9.70874 25.8127C9.70874 36.0253 17.9877 44.3042 28.2002 44.3042Z" fill="#FDD9BD"/>
<ellipse cx="40.9169" cy="30.1938" rx="3.30556" ry="2.31389" fill="white"/>
<ellipse cx="15.6388" cy="30.1938" rx="3.30556" ry="2.31389" fill="white"/>
<path d="M23.0125 26.96C23.9123 26.96 24.6418 26.1256 24.6418 25.0962C24.6418 24.0669 23.9123 23.2324 23.0125 23.2324C22.1126 23.2324 21.3831 24.0669 21.3831 25.0962C21.3831 26.1256 22.1126 26.96 23.0125 26.96Z" fill="#313D4C"/>
<path d="M35.0173 25.0962C35.0173 26.1261 34.2872 26.96 33.3879 26.96C32.4887 26.96 31.7585 26.1261 31.7585 25.0962C31.7585 24.0663 32.4887 23.2324 33.3879 23.2324C34.2872 23.2324 35.0173 24.0663 35.0173 25.0962Z" fill="#313D4C"/>
<path d="M9.87646 24.1653C9.87646 24.1653 17.5291 21.0241 22.1591 12.9788C22.1591 12.9788 22.5599 16.9054 21.1529 19.8502H35.2475C35.2475 19.8502 35.6484 17.298 34.6422 12.7825C34.6422 12.7825 38.8714 20.0466 46.5199 22.9874C46.5199 22.9874 46.7203 6.10742 28.4006 6.10742C10.081 6.10742 9.87646 20.6315 9.87646 24.1653Z" fill="#313D4C"/>
<path d="M22.8508 29.5498C22.8508 32.505 25.245 34.8991 28.2002 34.8991C31.1554 34.8991 33.5495 32.505 33.5495 29.5498H22.8547H22.8508Z" fill="#D63D4A"/>
</svg>
