<svg width="56" height="57" viewBox="0 0 56 57" fill="none" xmlns="http://www.w3.org/2000/svg">
<g style="mix-blend-mode:multiply">
<ellipse cx="27.5984" cy="47.4973" rx="26.5481" ry="4.97778" fill="#ACB1B6" fill-opacity="0.2"/>
<g clip-path="url(#clip0_10821_523106)">
<path d="M28 32.667C30.5771 32.667 32.6664 34.7566 32.6667 37.3337V42.0003H23.3333V37.3337C23.3336 34.7566 25.4229 32.667 28 32.667Z" fill="#75D0D7"/>
<path d="M32.6667 11.667C37.8211 11.667 41.9997 15.8459 42 21.0003V32.667C42 37.0159 39.0255 40.6702 35 41.7064V37.3337C34.9997 33.4679 31.8658 30.3337 28 30.3337C24.1342 30.3337 21.0003 33.4679 21 37.3337V41.7064C16.9745 40.6702 14 37.0159 14 32.667V21.0003C14.0003 15.8459 18.1789 11.667 23.3333 11.667H32.6667Z" fill="#75D0D7"/>
<path d="M23.3335 37.3337C23.3335 34.7563 25.4228 32.667 28.0002 32.667C30.5775 32.667 32.6668 34.7563 32.6668 37.3337V44.3337C32.6668 46.911 30.5775 49.0003 28.0002 49.0003C25.4228 49.0003 23.3335 46.911 23.3335 44.3337V37.3337Z" fill="#19969F"/>
<circle cx="20.9998" cy="21.0003" r="2.33333" fill="white"/>
<circle cx="34.9998" cy="21.0003" r="2.33333" fill="white"/>
<path d="M31.2674 7.00033C31.2674 6.14839 31.0221 5.47473 30.5337 4.90853L30.3104 4.67383C29.6553 4.04318 28.8926 3.73275 27.9292 3.73275C26.9908 3.73275 26.3166 4.0246 25.6779 4.65788L25.6733 4.66243C25.052 5.27545 24.7323 6.02583 24.7323 7.00033C24.7323 7.97733 25.0506 8.72049 25.6779 9.34277L25.9194 9.56152C26.4938 10.0391 27.1435 10.2679 27.9292 10.2679C28.7361 10.2679 29.4569 10.0271 30.0597 9.54785L30.3104 9.32682C30.9501 8.70557 31.2674 7.96914 31.2674 7.00033ZM34.0656 7.00033C34.0656 8.70235 33.4609 10.1739 32.2563 11.3411L32.2518 11.3457C31.0545 12.498 29.5384 13.0661 27.9292 13.0661C26.5 13.0661 25.2264 12.6179 24.1535 11.7354L23.7046 11.3298C22.5285 10.1628 21.9341 8.69608 21.9341 7.00033C21.9341 5.31505 22.5252 3.83549 23.7046 2.6709L24.1489 2.26758C25.2091 1.3874 26.4499 0.934573 27.9292 0.93457C29.5949 0.93457 31.0599 1.50777 32.2518 2.65495L32.6779 3.1084C33.6037 4.19503 34.0656 5.51337 34.0656 7.00033Z" fill="#19969F"/>
<path d="M44.3335 4.66699L44.5728 4.67839C45.7491 4.79816 46.6668 5.79241 46.6668 7.00033C46.6668 8.20824 45.7491 9.20249 44.5728 9.32227L44.3335 9.33366H11.6668C10.3782 9.33366 9.3335 8.28899 9.3335 7.00033C9.3335 5.71166 10.3782 4.66699 11.6668 4.66699H44.3335Z" fill="#19969F"/>
<circle cx="28" cy="7" r="3.5" fill="white"/>
</g>
</g>
<defs>
<clipPath id="clip0_10821_523106">
<rect width="37.3333" height="49" fill="white" transform="translate(9.3335)"/>
</clipPath>
</defs>
</svg>
