<svg width="21" height="20" viewBox="0 0 21 20" fill="none" xmlns="http://www.w3.org/2000/svg">
<path fill-rule="evenodd" clip-rule="evenodd" d="M10.4999 1C11.3883 1.00006 12.1626 1.56608 12.4335 2.36963C13.2862 2.40568 14.0018 3.05884 14.0725 3.91667H15.6667L15.8197 3.92399C16.5761 4.00084 17.1666 4.63988 17.1666 5.4165V16.8333C17.1665 17.6615 16.4949 18.3329 15.6667 18.3332H5.33309C4.50472 18.3332 3.83334 17.6617 3.83325 16.8333V5.4165C3.83325 4.58808 4.50466 3.91667 5.33309 3.91667H6.92326C6.99405 3.05794 7.71169 2.40444 8.56551 2.36963C8.83633 1.56593 9.61143 1 10.4999 1ZM7.16659 12.6667C6.7984 12.6667 6.50008 12.965 6.50008 13.3332C6.50008 13.7014 6.7984 13.9997 7.16659 13.9997H10.6847L10.753 13.9964C11.0891 13.9622 11.3512 13.6783 11.3512 13.3332C11.3512 12.9881 11.0891 12.7042 10.753 12.6699L10.6847 12.6667H7.16659ZM7.16659 9.33333C6.7984 9.33333 6.50008 9.63165 6.50008 9.99984C6.50008 10.368 6.7984 10.6663 7.16659 10.6663H13.8333L13.9016 10.6631C14.2376 10.6288 14.4998 10.3449 14.4998 9.99984C14.4998 9.65478 14.2376 9.37089 13.9016 9.33659L13.8333 9.33333H7.16659ZM10.4999 2.33301C10.0931 2.33301 9.79598 2.64984 9.79598 2.99788V3.03288L9.79272 3.10124C9.75856 3.4372 9.47439 3.69912 9.12948 3.69938H8.63713C8.40553 3.69938 8.24995 3.8779 8.24976 4.05583V5.16667H12.7501V4.74268L12.7468 4.05908V4.05583L12.7395 3.98991C12.7067 3.83643 12.5622 3.69945 12.3595 3.69938H11.8671C11.5221 3.69922 11.238 3.43725 11.2039 3.10124L11.2006 3.03288C11.2006 3.0146 11.2021 2.99796 11.203 2.98324C11.195 2.64098 10.901 2.33309 10.4999 2.33301Z" fill="#6D7882"/>
</svg>
