<svg width="57" height="56" viewBox="0 0 57 56" fill="none" xmlns="http://www.w3.org/2000/svg">
<g style="mix-blend-mode:multiply">
<ellipse cx="28.0989" cy="45.8635" rx="26.5481" ry="4.97778" fill="#ACB1B6" fill-opacity="0.2"/>
<path d="M45.6467 10.5003L11.354 10.5C7.93701 10.5 5.16699 13.2007 5.16699 16.5323V39.4675C5.16699 42.799 7.93701 45.4997 11.354 45.4997L45.6467 45.5C49.0636 45.5 51.8337 42.7993 51.8337 39.4677V16.5325C51.8337 13.201 49.0636 10.5003 45.6467 10.5003Z" fill="#FBB4C1"/>
<path d="M11.1993 10.5002L45.8013 10.5002C49.1318 10.5002 51.8337 13.202 51.8337 16.5325V19.7675H5.16699V16.5325C5.16699 13.202 7.86882 10.5002 11.1993 10.5002Z" fill="#D63D4A"/>
<path d="M24.8654 15.1833C24.8654 16.16 24.0597 16.9495 23.0631 16.9495C22.0664 16.9495 21.2607 16.16 21.2607 15.1833C21.2607 14.2066 22.0703 13.417 23.0631 13.417C24.0559 13.417 24.8654 14.2103 24.8654 15.1833Z" fill="#FBB4C1"/>
<path d="M17.4078 16.9495C18.4032 16.9495 19.2101 16.1588 19.2101 15.1833C19.2101 14.2078 18.4032 13.417 17.4078 13.417C16.4124 13.417 15.6055 14.2078 15.6055 15.1833C15.6055 16.1588 16.4124 16.9495 17.4078 16.9495Z" fill="#FBB4C1"/>
<path d="M11.7652 16.9495C12.7606 16.9495 13.5676 16.1588 13.5676 15.1833C13.5676 14.2078 12.7606 13.417 11.7652 13.417C10.7698 13.417 9.96289 14.2078 9.96289 15.1833C9.96289 16.1588 10.7698 16.9495 11.7652 16.9495Z" fill="#FBB4C1"/>
<path d="M21.5 30.3334C22.041 30.3334 22.452 30.5999 22.7008 30.8119C22.9599 31.0326 23.1771 31.3084 23.3548 31.5638C23.7101 32.0748 24.0514 32.7289 24.346 33.2979C24.6278 33.8423 24.8746 34.3128 25.0979 34.6765C25.1211 34.6433 25.1484 34.6084 25.1754 34.5694C25.3235 34.355 25.5591 34.0096 25.8636 33.7308C26.1969 33.4258 26.6847 33.1338 27.3333 33.1338L27.5703 33.1475C28.1026 33.2081 28.5118 33.4651 28.803 33.7331C29.1067 34.0126 29.3402 34.3608 29.4866 34.5739C29.6228 34.7722 29.7098 34.8874 29.776 34.9659C29.855 34.9405 29.9783 34.8976 30.1497 34.8177C30.4648 34.671 30.8256 34.4645 31.1796 34.2435C31.5299 34.025 31.854 33.8043 32.0911 33.6374C32.2086 33.5547 32.304 33.4867 32.3691 33.4392C32.4016 33.4154 32.428 33.3966 32.4443 33.3845C32.4518 33.3789 32.4565 33.3736 32.4602 33.3708L32.4648 33.3685L32.6676 33.2455C33.1578 33.0129 33.7597 33.1483 34.0986 33.5987C34.4375 34.0494 34.4014 34.6665 34.0416 35.073L33.8684 35.2325H33.8662L33.8639 35.2347C33.8622 35.236 33.8598 35.2373 33.857 35.2393C33.8514 35.2435 33.8442 35.2501 33.8343 35.2575C33.8137 35.2728 33.7828 35.294 33.7454 35.3213C33.6707 35.3759 33.5638 35.4527 33.4332 35.5446C33.173 35.7277 32.8121 35.9756 32.4147 36.2237C32.0213 36.4691 31.5701 36.7293 31.1341 36.9323C30.7437 37.1141 30.1968 37.3334 29.6666 37.3334C29.0086 37.3334 28.5278 37.017 28.2151 36.7159C27.9302 36.4414 27.7022 36.0953 27.5634 35.8933C27.4634 35.7476 27.3891 35.6476 27.331 35.5743C27.272 35.648 27.1974 35.7491 27.0963 35.8955C26.9574 36.0966 26.729 36.4407 26.4469 36.7136C26.1383 37.0119 25.6589 37.3334 25 37.3334C24.425 37.3334 24.0147 37.0116 23.8059 36.8138C23.5733 36.5934 23.3771 36.3217 23.2158 36.0733C22.8924 35.5754 22.5638 34.9272 22.2747 34.3689C21.9655 33.7716 21.6915 33.2584 21.4384 32.8946L21.4362 32.8923C21.4062 32.9244 21.3739 32.9589 21.3404 32.9971C21.0187 33.3649 20.6563 33.887 20.3037 34.4509C19.956 35.007 19.6384 35.5688 19.4082 35.9935C19.2936 36.2049 19.2026 36.3818 19.1393 36.5039C19.1078 36.5646 19.0825 36.6113 19.0664 36.6429C19.0583 36.6588 19.052 36.6717 19.0481 36.6794C19.0465 36.6826 19.0444 36.6846 19.0436 36.6862V36.6885C18.7553 37.2646 18.0543 37.4984 17.4781 37.2103C16.9021 36.922 16.6683 36.221 16.9563 35.6449L16.9586 35.6426V35.6403L16.986 35.5857C17.0046 35.549 17.0312 35.495 17.0657 35.4284C17.1347 35.2954 17.235 35.1074 17.3574 34.8816C17.6013 34.4315 17.942 33.8261 18.3235 33.2159C18.7001 32.6136 19.1402 31.9682 19.5836 31.4613C19.8039 31.2094 20.0556 30.956 20.3287 30.7572C20.5776 30.5761 20.9877 30.3334 21.5 30.3334Z" fill="white"/>
<path d="M56.1918 25.1973C56.6023 24.7865 56.6023 24.1144 56.1918 23.7224L53.7664 21.2952C53.5714 21.1059 53.3104 21 53.0387 21C52.7671 21 52.5061 21.1059 52.3111 21.2952L50.4081 23.1996L54.2888 27.083M38.1744 35.4416C37.9558 35.6604 37.833 35.957 37.833 36.2663V38.9667C37.833 39.3533 38.1464 39.6667 38.533 39.6667H41.2303C41.5398 39.6667 41.8367 39.5436 42.0555 39.3247L53.188 28.1845L49.3073 24.3011L38.1744 35.4416Z" fill="#D63D4A"/>
</g>
</svg>
