<svg width="40" height="40" viewBox="0 0 40 40" fill="none" xmlns="http://www.w3.org/2000/svg">
<g style="mix-blend-mode:multiply">
<path fill-rule="evenodd" clip-rule="evenodd" d="M12.7743 5.8335C12.2304 5.83369 11.6963 5.98915 11.2261 6.28415C10.7558 6.57915 10.366 7.00319 10.0963 7.51331L4.57375 17.9538C4.30692 18.4577 4.16654 19.0282 4.1665 19.6087V27.1045C4.16654 27.6217 4.27797 28.1317 4.49199 28.5944L6.21663 32.3206C6.47279 32.8744 6.86667 33.3402 7.35411 33.6657C7.84155 33.9913 8.40329 34.1637 8.97636 34.1637H10.3369C11.1552 34.1637 11.9399 33.8126 12.5185 33.1875C13.0971 32.5625 13.4222 31.7147 13.4222 30.8308H25.763C25.763 31.7147 26.0881 32.5625 26.6667 33.1875C27.2453 33.8126 28.03 34.1637 28.8482 34.1637H30.2088C30.7819 34.1637 31.3436 33.9913 31.8311 33.6657C32.3185 33.3402 32.7124 32.8744 32.9686 32.3206L34.6932 28.5944C34.9076 28.1327 35.0187 27.6211 35.0187 27.1045V19.6087C35.0186 19.0282 34.8783 18.4577 34.6114 17.9538L29.0889 7.51331C28.8192 7.00319 28.4294 6.57915 27.9591 6.28415C27.4888 5.98915 26.9547 5.83369 26.4109 5.8335H12.7743Z" fill="#FA967C"/>
<g style="mix-blend-mode:multiply">
<path d="M7.34599 33.6689C6.85855 33.3434 6.46467 32.8776 6.20851 32.3238L5.34619 30.4607H33.8228L32.9604 32.3238C32.7043 32.8776 32.3104 33.3434 31.823 33.6689C31.3355 33.9945 30.7738 34.1669 30.2007 34.167H28.8401C28.0219 34.167 27.2371 33.8158 26.6585 33.1908C26.08 32.5657 25.7549 31.7179 25.7549 30.834H13.414C13.414 31.7179 13.089 32.5657 12.5104 33.1908C11.9318 33.8158 11.1471 34.167 10.3288 34.167H8.96824C8.39517 34.1669 7.83343 33.9945 7.34599 33.6689Z" fill="#D63D4A"/>
</g>
<g style="mix-blend-mode:multiply">
<path d="M8.9478 16.5566L11.9706 9.75536C12.107 9.44835 12.4115 9.25049 12.7474 9.25049H26.7562C27.0922 9.25049 27.3966 9.44835 27.5331 9.75536L30.5559 16.5566C30.8057 17.1187 30.3942 17.752 29.779 17.752H9.72468C9.10946 17.752 8.69794 17.1187 8.9478 16.5566Z" fill="#D63D4A"/>
</g>
<ellipse cx="11.9594" cy="24.2521" rx="2.12537" ry="2.12537" fill="white"/>
<circle cx="27.5453" cy="24.2521" r="2.12537" fill="white"/>
<g style="mix-blend-mode:multiply">
<ellipse cx="29.1667" cy="10.8334" rx="6.66667" ry="6.66667" fill="#D63D4A"/>
</g>
<path d="M29.1384 9.57619L28.4492 10.1946C28.5403 10.5064 28.6675 10.8066 28.8284 11.0888C28.9961 11.3691 29.1983 11.6272 29.4301 11.8572L30.3227 11.5822C30.8227 11.428 31.3686 11.5864 31.7011 11.9823L32.2095 12.5873C32.4154 12.8302 32.5185 13.1437 32.4972 13.4614C32.4759 13.779 32.3318 14.0759 32.0953 14.2891C31.2661 15.0459 29.9893 15.3017 29.0334 14.5508C28.1929 13.8897 27.4819 13.0788 26.9365 12.1589C26.3897 11.2436 26.0236 10.2319 25.8581 9.17865C25.6747 7.99353 26.5423 7.0451 27.6241 6.72174C28.2691 6.52839 28.9575 6.86009 29.1942 7.47848L29.4734 8.20772C29.6568 8.68777 29.5251 9.22948 29.1384 9.57619Z" fill="white"/>
</g>
</svg>
