<svg width="40" height="40" viewBox="0 0 40 40" fill="none" xmlns="http://www.w3.org/2000/svg">
<path d="M17.318 16.7391L12.3923 6.88767C11.9587 6.02041 12.5893 5 13.559 5L24.9901 5C25.9598 5 26.5904 6.0204 26.1568 6.88766L21.2311 16.7391H17.318Z" fill="#FA967C"/>
<path d="M33.6223 23.9131C33.6223 30.1742 28.405 35 23.1876 35H15.3615C10.1441 35 4.92676 30.1742 4.92676 23.9131C4.92676 15.8143 11.3505 10.8696 19.2745 10.8696C27.1986 10.8696 33.6223 15.8143 33.6223 23.9131Z" fill="#FA967C"/>
<path d="M19.3673 19.0513C19.6314 19.0513 19.9031 19.1252 20.1305 19.2951C20.3229 19.4389 20.4867 19.6519 20.5809 19.9572L21.8854 24.6384L23.1545 19.8161C23.2311 19.5137 23.4016 19.309 23.6159 19.1865C23.8393 19.0589 24.1191 19.0209 24.4105 19.0822C24.7143 19.1434 24.9305 19.2999 25.0588 19.5076C25.1862 19.7141 25.2314 19.9809 25.1557 20.2865L24.4888 22.656L25.8668 22.6561C26.142 22.6561 26.3912 22.7669 26.5715 22.946C26.7518 23.125 26.8634 23.3724 26.8634 23.6457C26.8634 23.9189 26.7518 24.1663 26.5715 24.3454C26.3912 24.5244 26.142 24.6352 25.8668 24.6352L23.9315 24.635L23.1216 27.5113C23.0359 27.8226 22.8796 28.0422 22.6937 28.193C22.4706 28.374 22.2002 28.4572 21.9345 28.4648C21.643 28.4652 21.3654 28.3908 21.1363 28.2198C20.939 28.0726 20.7735 27.8528 20.679 27.5328L19.3491 22.6046L17.9703 27.5112C17.8825 27.8302 17.7179 28.0535 17.5222 28.2048C17.2871 28.3868 17.0022 28.4654 16.7304 28.4654C16.4588 28.4654 16.1844 28.391 15.9561 28.2197C15.7622 28.0742 15.5979 27.858 15.5038 27.5461L14.6938 24.635L12.6821 24.6352C12.4069 24.6352 12.1578 24.5244 11.9774 24.3454C11.7971 24.1663 11.6855 23.9189 11.6855 23.6457C11.6855 23.3724 11.7971 23.125 11.9774 22.946C12.1578 22.7669 12.4069 22.6561 12.682 22.6561L14.1434 22.656L13.516 20.3996C13.4259 20.0818 13.464 19.8098 13.583 19.5943C13.7084 19.3671 13.9298 19.1939 14.2337 19.1083C14.5508 19.0311 14.8452 19.0328 15.0814 19.1365C15.3072 19.2356 15.4956 19.4215 15.5933 19.7509L16.831 24.6336L18.1271 20.0063C18.2155 19.6845 18.3792 19.4604 18.5748 19.309C18.8065 19.1298 19.0884 19.0513 19.3673 19.0513Z" fill="#D63D4A"/>
<path d="M12.1006 10.5142C12.1006 9.99026 12.5253 9.56555 13.0492 9.56555H25.4998C26.0237 9.56555 26.4484 9.99026 26.4484 10.5142V11.2256C26.4484 11.7495 26.0237 12.1742 25.4998 12.1742H13.0492C12.5253 12.1742 12.1006 11.7495 12.1006 11.2256V10.5142Z" fill="#FA967C"/>
<path d="M12.1006 10.5142C12.1006 9.99026 12.5253 9.56555 13.0492 9.56555H25.4998C26.0237 9.56555 26.4484 9.99026 26.4484 10.5142V11.2256C26.4484 11.7495 26.0237 12.1742 25.4998 12.1742H13.0492C12.5253 12.1742 12.1006 11.7495 12.1006 11.2256V10.5142Z" fill="#D63D4A"/>
</svg>
