<svg width="32" height="32" viewBox="0 0 32 32" fill="none" xmlns="http://www.w3.org/2000/svg">
<g clip-path="url(#clip0_1957_263754)">
<path d="M16 6.19922C17.9163 6.19922 19.7657 6.90159 21.1387 8.16895C22.5138 9.43829 23.2997 11.174 23.2998 12.999C23.2998 15.6698 22.0212 17.826 20.6133 19.3906C19.2049 20.9556 17.6136 21.9919 16.8467 22.4434C16.3224 22.752 15.6786 22.7518 15.1543 22.4434C14.3874 21.9919 12.7951 20.9556 11.3867 19.3906C9.97888 17.8261 8.7002 15.6697 8.7002 12.999C8.70025 11.1741 9.48628 9.43828 10.8613 8.16895C12.2343 6.90158 14.0837 6.19927 16 6.19922ZM16 7.79883C14.4686 7.79888 13.0112 8.36174 11.9463 9.34473C10.8838 10.3257 10.2999 11.6417 10.2998 12.999C10.2998 15.1333 11.3199 16.9242 12.5762 18.3203C13.8322 19.716 15.2711 20.6555 15.9658 21.0645C15.9794 21.0724 15.9909 21.0742 16 21.0742C16.0092 21.0742 16.0213 21.0726 16.0352 21.0645C16.73 20.6554 18.1679 19.7159 19.4238 18.3203C20.6801 16.9242 21.7002 15.1334 21.7002 12.999C21.7001 11.6416 21.1164 10.3257 20.0537 9.34473C18.9888 8.3617 17.5315 7.79883 16 7.79883Z" fill="#33363D"/>
<path d="M21.7348 21.4335C22.0472 21.1211 22.5532 21.1211 22.8657 21.4335L25.8657 24.4335L25.9203 24.4941C26.1768 24.8083 26.1586 25.2714 25.8657 25.5644C25.5727 25.8574 25.1096 25.8755 24.7953 25.6191L24.7348 25.5644L21.7348 22.5644C21.4224 22.252 21.4224 21.746 21.7348 21.4335Z" fill="#33363D"/>
<path d="M25.2002 24.1992C25.642 24.1992 26 24.5572 26 24.999C26 25.4409 25.642 25.7988 25.2002 25.7988H7.2002C6.75837 25.7988 6.40039 25.4409 6.40039 24.999C6.40039 24.5572 6.75837 24.1992 7.2002 24.1992H25.2002Z" fill="#33363D"/>
</g>
<defs>
<clipPath id="clip0_1957_263754">
<rect width="32" height="32" fill="white"/>
</clipPath>
</defs>
</svg>
