<svg width="32" height="32" viewBox="0 0 32 32" fill="none" xmlns="http://www.w3.org/2000/svg">
<path fill-rule="evenodd" clip-rule="evenodd" d="M6.19922 10.0002C6.19922 9.55837 6.55739 9.2002 6.99922 9.2002H24.9992C25.441 9.2002 25.7992 9.55837 25.7992 10.0002C25.7992 10.442 25.441 10.8002 24.9992 10.8002H6.99922C6.55739 10.8002 6.19922 10.442 6.19922 10.0002ZM6.19922 16.0002C6.19922 15.5584 6.55739 15.2002 6.99922 15.2002H24.9992C25.441 15.2002 25.7992 15.5584 25.7992 16.0002C25.7992 16.442 25.441 16.8002 24.9992 16.8002H6.99922C6.55739 16.8002 6.19922 16.442 6.19922 16.0002ZM6.99922 21.2002C6.55739 21.2002 6.19922 21.5584 6.19922 22.0002C6.19922 22.442 6.55739 22.8002 6.99922 22.8002H24.9992C25.441 22.8002 25.7992 22.442 25.7992 22.0002C25.7992 21.5584 25.441 21.2002 24.9992 21.2002H6.99922Z" fill="#33363D"/>
</svg>
