<svg width="32" height="32" viewBox="0 0 32 32" fill="none" xmlns="http://www.w3.org/2000/svg">
<circle cx="16.0833" cy="16" r="11.6667" fill="white"/>
<circle cx="16.0833" cy="16" r="11.6667" fill="#8C97C8"/>
<circle cx="16.0833" cy="16" r="10" fill="white"/>
<circle cx="16.0833" cy="16" r="10" fill="#8C97C8"/>
<g style="mix-blend-mode:multiply">
<path d="M24.3333 16C24.3333 11.3976 20.6024 7.66665 16 7.66665C11.3976 7.66665 7.66667 11.3976 7.66667 16C7.66667 16.9205 6.92048 17.6666 6 17.6666C5.07953 17.6666 4.33334 16.9205 4.33334 16C4.33334 9.55666 9.55668 4.33331 16 4.33331C22.4433 4.33331 27.6667 9.55666 27.6667 16C27.6667 16.9205 26.9205 17.6666 26 17.6666C25.0795 17.6666 24.3333 16.9205 24.3333 16Z" fill="#5B658C"/>
</g>
<g style="mix-blend-mode:multiply">
<path d="M13.1867 13.5234C13.0462 13.0317 12.5337 12.7469 12.042 12.8874C11.5503 13.0279 11.2656 13.5404 11.4061 14.0321L11.9948 16.0925H11.3704C10.8591 16.0925 10.4445 16.5071 10.4445 17.0185C10.4445 17.5298 10.8591 17.9444 11.3704 17.9444H12.5239L12.9934 19.5877C13.1029 19.9711 13.4456 20.2413 13.844 20.2584C14.2424 20.2754 14.607 20.0355 14.7489 19.6629L16.0001 16.3787L17.2512 19.6629C17.3931 20.0355 17.7577 20.2754 18.1561 20.2584C18.5545 20.2413 18.8972 19.9711 19.0068 19.5877L19.4763 17.9444H20.6297C21.1411 17.9444 21.5556 17.5298 21.5556 17.0185C21.5556 16.5071 21.1411 16.0925 20.6297 16.0925H20.0054L20.5941 14.0321C20.7345 13.5404 20.4498 13.0279 19.9581 12.8874C19.4664 12.7469 18.9539 13.0317 18.8135 13.5234L17.9908 16.4026L16.8653 13.4481C16.7286 13.0891 16.3843 12.8518 16.0001 12.8518C15.6159 12.8518 15.2716 13.0891 15.1348 13.4481L14.0093 16.4026L13.1867 13.5234Z" fill="#5B658C"/>
</g>
</svg>
