<svg width="25" height="25" viewBox="0 0 25 25" fill="none" xmlns="http://www.w3.org/2000/svg">
<path d="M16.3218 3.66741C17.8666 3.73138 19.3303 4.37574 20.3901 5.47112C21.4475 6.56421 22.0164 8.01867 21.9614 9.51994C21.957 10.9387 21.3604 12.3718 20.5532 13.6781C19.7359 15.0007 18.6553 16.2696 17.5845 17.3705C15.4466 19.5683 13.2635 21.1829 13.0464 21.3295L12.6128 21.6225C12.3426 21.8045 11.9884 21.8046 11.7182 21.6225L11.2847 21.3295L11.2827 21.3285C11.0662 21.1814 8.88415 19.567 6.74657 17.3696C5.6758 16.2688 4.59501 15.0004 3.77782 13.6781C2.97064 12.3719 2.37306 10.9386 2.36864 9.51994C2.31364 8.01889 2.88286 6.56415 3.93993 5.47112C4.99965 4.37557 6.46438 3.7315 8.00926 3.66741C8.02401 3.6668 8.03942 3.66623 8.05418 3.66643C9.0317 3.68095 9.9907 3.94138 10.8335 4.42326C11.3251 4.7045 11.7306 5.13312 12.0493 5.54143C12.0886 5.5918 12.1277 5.64272 12.1655 5.69377C12.2033 5.64268 12.2424 5.59184 12.2817 5.54143C12.6004 5.13311 13.0059 4.70456 13.4975 4.42326C14.3403 3.94129 15.2993 3.68102 16.2768 3.66643C16.2916 3.66621 16.307 3.6668 16.3218 3.66741ZM12.1714 9.87151C11.7298 9.87168 11.3717 10.2297 11.3716 10.6713V11.8666H10.1665C9.7248 11.8667 9.36676 12.2247 9.36668 12.6664C9.36668 13.1082 9.72475 13.4661 10.1665 13.4662H11.3716V14.6713L11.3755 14.7533C11.4165 15.1565 11.7574 15.471 12.1714 15.4711C12.5855 15.4711 12.9262 15.1566 12.9673 14.7533L12.9712 14.6713V13.4662H14.1665L14.2485 13.4623C14.6518 13.4213 14.9663 13.0806 14.9663 12.6664C14.9662 12.2524 14.6518 11.9116 14.2485 11.8705L14.1665 11.8666H12.9712V10.6713C12.971 10.2296 12.6131 9.87151 12.1714 9.87151Z" fill="#6D7882"/>
</svg>
