<svg width="20" height="20" viewBox="0 0 20 20" fill="none" xmlns="http://www.w3.org/2000/svg">
<path d="M17.2923 9.79167C17.2923 13.8187 14.0277 17.0833 10.0007 17.0833C5.97357 17.0833 2.70898 13.8187 2.70898 9.79167C2.70898 5.76459 5.97357 2.5 10.0007 2.5C14.0277 2.5 17.2923 5.76459 17.2923 9.79167Z" fill="white"/>
<path d="M17.2923 9.79167C17.2923 13.8187 14.0277 17.0833 10.0007 17.0833C5.97357 17.0833 2.70898 13.8187 2.70898 9.79167C2.70898 5.76459 5.97357 2.5 10.0007 2.5C14.0277 2.5 17.2923 5.76459 17.2923 9.79167Z" fill="#FA967C"/>
<g style="mix-blend-mode:multiply">
<path d="M15.209 9.79167C15.209 6.91518 12.8771 4.58333 10.0007 4.58333C7.12417 4.58333 4.79232 6.91518 4.79232 9.79167C4.79232 10.367 4.32595 10.8333 3.75065 10.8333C3.17535 10.8333 2.70898 10.367 2.70898 9.79167C2.70898 5.76459 5.97357 2.5 10.0007 2.5C14.0277 2.5 17.2923 5.76459 17.2923 9.79167C17.2923 10.367 16.8259 10.8333 16.2507 10.8333C15.6754 10.8333 15.209 10.367 15.209 9.79167Z" fill="#D63D4A"/>
</g>
<g style="mix-blend-mode:multiply">
<path d="M11.2566 8.13025C11.5411 7.84597 12.0023 7.84584 12.2868 8.13025C12.5714 8.41485 12.5714 8.87675 12.2868 9.16134L8.74435 12.7038C8.45975 12.9884 7.99786 12.9884 7.71326 12.7038C7.42885 12.4193 7.42897 11.9581 7.71326 11.6735L11.2566 8.13025Z" fill="#D63D4A"/>
<path d="M11.6667 11.2504C12.1269 11.2504 12.5 11.6235 12.5 12.0837C12.5 12.5439 12.127 12.917 11.6667 12.917C11.2065 12.917 10.8334 12.5439 10.8334 12.0837C10.8334 11.6235 11.2065 11.2504 11.6667 11.2504Z" fill="#D63D4A"/>
<path d="M8.33338 7.91704C8.79359 7.91704 9.16666 8.29018 9.16671 8.75037C9.16671 9.21061 8.79362 9.58371 8.33338 9.58371C7.87319 9.58366 7.50005 9.21058 7.50005 8.75037C7.5001 8.29021 7.87322 7.91709 8.33338 7.91704Z" fill="#D63D4A"/>
</g>
</svg>
