<svg width="24" height="24" viewBox="0 0 24 24" fill="none" xmlns="http://www.w3.org/2000/svg">
<g style="mix-blend-mode:multiply">
<path fill-rule="evenodd" clip-rule="evenodd" d="M7.66465 3.5C7.33837 3.50011 7.0179 3.59339 6.73573 3.77039C6.45356 3.94739 6.21971 4.20182 6.05787 4.50789L2.74435 10.7722C2.58425 11.0745 2.50002 11.4168 2.5 11.7651V16.2626C2.50002 16.5729 2.56688 16.879 2.69529 17.1565L3.73008 19.3923C3.88377 19.7245 4.1201 20.004 4.41256 20.1993C4.70503 20.3947 5.04207 20.4981 5.38591 20.4982H6.20226C6.69321 20.4982 7.16405 20.2875 7.51121 19.9124C7.85836 19.5374 8.05339 19.0287 8.05339 18.4984H15.4579C15.4579 19.0287 15.6529 19.5374 16.0001 19.9124C16.3473 20.2875 16.8181 20.4982 17.309 20.4982H18.1254C18.4692 20.4981 18.8063 20.3947 19.0987 20.1993C19.3912 20.004 19.6275 19.7245 19.7812 19.3923L20.816 17.1565C20.9447 16.8795 21.0113 16.5726 21.0113 16.2626V11.7651C21.0113 11.4168 20.9271 11.0745 20.767 10.7722L17.4534 4.50789C17.2916 4.20182 17.0577 3.94739 16.7756 3.77039C16.4934 3.59339 16.1729 3.50011 15.8467 3.5H7.66465Z" fill="#FA967C"/>
<g style="mix-blend-mode:multiply">
<path d="M4.40764 20.2013C4.11518 20.006 3.87885 19.7265 3.72515 19.3942L3.20776 18.2764H20.2937L19.7763 19.3942C19.6226 19.7265 19.3863 20.006 19.0938 20.2013C18.8014 20.3966 18.4643 20.5001 18.1205 20.5001H17.3041C16.8132 20.5001 16.3423 20.2894 15.9952 19.9144C15.648 19.5394 15.453 19.0307 15.453 18.5003H8.04847C8.04847 19.0307 7.85344 19.5394 7.50629 19.9144C7.15913 20.2894 6.68829 20.5001 6.19734 20.5001H5.38099C5.03715 20.5001 4.70011 20.3966 4.40764 20.2013Z" fill="#D63D4A"/>
</g>
<g style="mix-blend-mode:multiply">
<path d="M5.58111 9.45576L7.09248 6.05516C7.22893 5.74815 7.53339 5.55029 7.86936 5.55029H15.8326C16.1686 5.55029 16.4731 5.74815 16.6095 6.05516L18.1209 9.45576C18.3708 10.018 17.9592 10.6512 17.344 10.6512H6.35798C5.74276 10.6512 5.33124 10.018 5.58111 9.45576Z" fill="#D63D4A"/>
</g>
<circle cx="7.17561" cy="14.5511" r="1.27522" fill="white"/>
<circle cx="16.5274" cy="14.5511" r="1.27522" fill="white"/>
<g style="mix-blend-mode:multiply">
<circle cx="17.5" cy="6.5" r="4" fill="#D63D4A"/>
</g>
<path d="M19.2579 4.96957C19.4381 4.85671 19.6787 4.88192 19.8311 5.04183C19.9834 5.2019 19.9966 5.44354 19.875 5.61801L19.8155 5.68832L17.4121 7.97445C17.3241 8.05807 17.2064 8.10371 17.085 8.10043C16.9635 8.09713 16.8481 8.04528 16.7647 7.95687L15.167 6.26254L15.1114 6.18929C14.9995 6.00853 15.0259 5.7686 15.1866 5.61703C15.3473 5.46543 15.5888 5.45266 15.7627 5.57504L15.833 5.63558L17.1143 6.99496L19.1846 5.02621L19.2579 4.96957Z" fill="white"/>
</g>
</svg>
