<svg width="32" height="32" viewBox="0 0 32 32" fill="none" xmlns="http://www.w3.org/2000/svg">
<g clip-path="url(#clip0_11337_69104)">
<path d="M2.83325 8.16667C2.83325 6.69391 3.96083 5.5 5.35177 5.5H22.9814C24.3723 5.5 25.4999 6.69391 25.4999 8.16667V21.5C25.4999 22.9728 24.3723 24.1667 22.9814 24.1667H5.35177C3.96083 24.1667 2.83325 22.9728 2.83325 21.5V8.16667Z" fill="#8C97C8"/>
<g style="mix-blend-mode:multiply">
<path d="M20.1666 2.43359C20.7556 2.43359 21.2329 2.91105 21.233 3.5V5.5H23.4996C24.6041 5.5 25.4995 6.39558 25.4996 7.5V10.834H2.83362V7.5C2.83379 6.39558 3.72916 5.5 4.83362 5.5H7.10022V3.5C7.1004 2.91105 7.57763 2.43359 8.16663 2.43359C8.75562 2.43359 9.23286 2.91105 9.23303 3.5V5.5H19.1002V3.5C19.1004 2.91105 19.5776 2.43359 20.1666 2.43359Z" fill="#5B658C"/>
</g>
<g clip-path="url(#clip1_11337_69104)">
<g style="mix-blend-mode:multiply">
<circle cx="23.8332" cy="21.5013" r="5.33333" fill="white"/>
<circle cx="23.8332" cy="21.5013" r="5.33333" fill="#5B658C"/>
</g>
<path d="M26.5061 19.4597C26.7464 19.3093 27.0673 19.3429 27.2704 19.5561C27.4735 19.7695 27.4911 20.0917 27.329 20.3243L27.2496 20.4181L24.0452 23.4663C23.9278 23.5777 23.7708 23.6386 23.609 23.6342C23.447 23.6298 23.2931 23.5607 23.1819 23.4428L21.0517 21.1837L20.9775 21.0861C20.8283 20.845 20.8635 20.5251 21.0777 20.323C21.2921 20.1209 21.614 20.1039 21.846 20.267L21.9397 20.3478L23.648 22.1603L26.4085 19.5353L26.5061 19.4597Z" fill="white"/>
</g>
</g>
<defs>
<clipPath id="clip0_11337_69104">
<rect width="32" height="32" fill="white" transform="translate(0.166626 0.166016)"/>
</clipPath>
<clipPath id="clip1_11337_69104">
<path d="M18.8333 21.5013C18.8333 18.5558 21.2211 16.168 24.1666 16.168C27.1121 16.168 29.4999 18.5558 29.4999 21.5013C29.4999 24.4468 27.1121 26.8346 24.1666 26.8346C21.2211 26.8346 18.8333 24.4468 18.8333 21.5013Z" fill="white"/>
</clipPath>
</defs>
</svg>
