<svg width="32" height="32" viewBox="0 0 32 32" fill="none" xmlns="http://www.w3.org/2000/svg">
<g style="mix-blend-mode:multiply">
<g style="mix-blend-mode:multiply">
<path d="M20.1667 3.5C20.903 3.5 21.5 4.09695 21.5 4.83333C21.5 5.56971 20.903 6.16667 20.1667 6.16667C19.7985 6.16667 19.5 6.46514 19.5 6.83333V11.5C19.5 12.2364 18.903 12.8333 18.1667 12.8333H16.8333C16.097 12.8333 15.5 12.2364 15.5 11.5V6.83333C15.5 6.46514 15.2015 6.16667 14.8333 6.16667C14.097 6.16667 13.5 5.56971 13.5 4.83333C13.5 4.09695 14.097 3.5 14.8333 3.5H20.1667Z" fill="#5B658C"/>
</g>
<path d="M17.5 7.5C23.391 7.5 28.1667 12.2756 28.1667 18.1667C28.1667 24.0577 23.391 28.8333 17.5 28.8333C15.0523 28.8333 12.7982 28.0081 10.9987 26.6214C9.7171 25.6338 8.2343 24.8333 6.61634 24.8333H5.89974C4.9427 24.8332 4.16688 24.0573 4.16667 23.1003C4.16667 22.1431 4.94257 21.3673 5.89974 21.3672H7.43294C7.83817 21.3672 8.16667 21.0387 8.16667 20.6335C8.16667 20.2282 7.83817 19.8997 7.43294 19.8997H3.23307C2.27592 19.8996 1.50004 19.1238 1.5 18.1667C1.5 17.2095 2.2759 16.4337 3.23307 16.4336H8.76693C9.17179 16.4336 9.5 16.1054 9.5 15.7005C9.5 15.2957 9.17179 14.9674 8.76693 14.9674L7.32161 14.9668L5.89974 14.9661C4.94257 14.966 4.16667 14.1903 4.16667 13.2331C4.16681 12.276 4.94265 11.5001 5.89974 11.5H6.6162C8.23424 11.5 9.7171 10.6995 10.9987 9.71181C12.7982 8.32513 15.0524 7.5 17.5 7.5Z" fill="#8C97C8"/>
<g style="mix-blend-mode:multiply">
<path d="M16.166 18.0495V12.8333C16.166 12.097 16.763 11.5 17.4993 11.5C18.2357 11.5 18.8327 12.097 18.8327 12.8333V18.0495L22.2546 20.401L22.3626 20.4844C22.8781 20.9214 22.9893 21.6863 22.5983 22.2552C22.2072 22.8242 21.4528 22.9952 20.86 22.6706L20.7441 22.599L17.3223 20.2461C16.644 19.7798 16.2216 19.029 16.1712 18.2135L16.166 18.0495Z" fill="#5B658C"/>
</g>
</g>
</svg>
