<svg width="32" height="33" viewBox="0 0 32 33" fill="none" xmlns="http://www.w3.org/2000/svg">
<g style="mix-blend-mode:multiply">
<path d="M25.9645 6.66616L6.36868 6.66602C4.41612 6.66602 2.83325 8.2093 2.83325 10.113V23.2189C2.83325 25.1226 4.41612 26.6659 6.36868 26.6659L25.9645 26.666C27.9171 26.666 29.4999 25.1227 29.4999 23.219V10.1132C29.4999 8.20944 27.9171 6.66616 25.9645 6.66616Z" fill="#8C97C8"/>
<g style="mix-blend-mode:multiply">
<path d="M6.2803 6.66602L26.0529 6.66602C27.956 6.66602 29.4999 8.2099 29.4999 10.113V11.9616H2.83325V10.113C2.83325 8.2099 4.37715 6.66602 6.2803 6.66602Z" fill="#5B658C"/>
</g>
<path d="M14.09 9.34133C14.09 9.89944 13.6296 10.3506 13.0601 10.3506C12.4906 10.3506 12.0302 9.89944 12.0302 9.34133C12.0302 8.78322 12.4927 8.33203 13.0601 8.33203C13.6274 8.33203 14.09 8.78536 14.09 9.34133Z" fill="#8C97C8"/>
<path d="M9.82849 10.3506C10.3973 10.3506 10.8584 9.89875 10.8584 9.34133C10.8584 8.78391 10.3973 8.33203 9.82849 8.33203C9.25969 8.33203 8.79858 8.78391 8.79858 9.34133C8.79858 9.89875 9.25969 10.3506 9.82849 10.3506Z" fill="#8C97C8"/>
<path d="M6.60413 10.3506C7.17293 10.3506 7.63403 9.89875 7.63403 9.34133C7.63403 8.78391 7.17293 8.33203 6.60413 8.33203C6.03532 8.33203 5.57422 8.78391 5.57422 9.34133C5.57422 9.89875 6.03532 10.3506 6.60413 10.3506Z" fill="#8C97C8"/>
<path d="M16.4238 14.1328C13.8699 14.1328 12.085 16.0524 12.085 18.7996C12.085 21.5467 13.8596 23.1994 16.6064 23.1994C18.0055 23.1994 18.9597 22.9154 19.5127 22.6779C19.7621 22.5702 19.8984 22.3082 19.8341 22.0535L19.5847 21.0595C19.5461 20.9028 19.4355 20.7706 19.2863 20.6995C19.1372 20.6261 18.9597 20.6212 18.8028 20.6849C18.3502 20.8685 17.7946 21.0374 16.8044 21.0374C16.092 21.0374 14.9475 20.8195 14.68 19.4753H19.6901C19.9833 19.4753 20.2277 19.2672 20.2585 18.9905L20.2662 18.9269C20.2842 18.78 20.3125 18.5572 20.3125 18.2829C20.3125 16.2189 19.1089 14.1377 16.4212 14.1377L16.4238 14.1328ZM16.308 16.2189C16.7324 16.2189 17.0539 16.3315 17.2905 16.5617C17.5323 16.7967 17.6506 17.1126 17.7072 17.3868H14.788C14.9809 16.8702 15.4027 16.2189 16.3055 16.2189H16.308Z" fill="white"/>
</g>
</svg>
