<svg width="25" height="25" viewBox="0 0 25 25" fill="none" xmlns="http://www.w3.org/2000/svg">
<g style="mix-blend-mode:multiply">
<path d="M22.6644 15.8162C22.6644 10.0194 17.9634 5.31836 12.1644 5.31836C6.3655 5.31836 1.66663 10.0194 1.66663 15.8162C1.66663 16.611 1.75665 17.3817 1.92572 18.1261H22.4075C22.5744 17.3817 22.6666 16.611 22.6666 15.8162H22.6644Z" fill="#FA967C"/>
<path d="M22.6644 15.8162C22.6644 10.0194 17.9634 5.31836 12.1644 5.31836C6.3655 5.31836 1.66663 10.0194 1.66663 15.8162C1.66663 16.611 1.75665 17.3817 1.92572 18.1261H22.4075C22.5744 17.3817 22.6666 16.611 22.6666 15.8162H22.6644Z" fill="#FA967C"/>
<path d="M17.4539 15.5145H20.3259C20.3259 13.2617 19.4125 11.2197 17.9347 9.74414L15.9037 11.7752C16.861 12.7325 17.4517 14.0544 17.4517 15.5145H17.4539Z" fill="white"/>
<g style="mix-blend-mode:multiply">
<path d="M15.9049 11.7757L17.9359 9.74467C16.4582 8.26694 14.4184 7.35352 12.1655 7.35352V10.2255C13.6257 10.2255 14.9475 10.8184 15.9049 11.7735V11.7757Z" fill="#FA967C"/>
</g>
<path d="M12.1648 10.2255V7.35352C9.91198 7.35352 7.86994 8.26694 6.39441 9.74467L8.42546 11.7757C9.3828 10.8184 10.7046 10.2255 12.1648 10.2255Z" fill="white"/>
<path d="M8.42599 11.7752L6.39494 9.74414C4.91941 11.2219 4.00598 13.2617 4.00598 15.5145H6.878C6.878 14.0544 7.46865 12.7325 8.42599 11.7752Z" fill="#D63D4A"/>
<path d="M6.09497 11.6543L8.94064 13.782L11.7885 15.9118L11.0705 16.6298L10.3525 17.3478L8.22264 14.5L6.09497 11.6543Z" fill="white"/>
<path d="M14.22 17.8308C14.22 18.966 13.3 19.8882 12.1626 19.8882C11.0252 19.8882 10.1052 18.9682 10.1052 17.8308C10.1052 16.6935 11.0252 15.7734 12.1626 15.7734C13.3 15.7734 14.22 16.6935 14.22 17.8308Z" fill="#D63D4A"/>
</g>
</svg>
