<svg width="24" height="24" viewBox="0 0 24 24" fill="none" xmlns="http://www.w3.org/2000/svg">
<g style="mix-blend-mode:multiply">
<path d="M11.8364 17.6719C15.2526 17.6719 18.022 15.0871 18.022 11.8987C18.022 8.71024 15.2526 6.12549 11.8364 6.12549C8.42025 6.12549 5.65088 8.71024 5.65088 11.8987C5.65088 15.0871 8.42025 17.6719 11.8364 17.6719Z" fill="#FA967C"/>
<path d="M11.8364 17.6719C15.2526 17.6719 18.022 15.0871 18.022 11.8987C18.022 8.71024 15.2526 6.12549 11.8364 6.12549C8.42025 6.12549 5.65088 8.71024 5.65088 11.8987C5.65088 15.0871 8.42025 17.6719 11.8364 17.6719Z" fill="#FA967C"/>
<path fill-rule="evenodd" clip-rule="evenodd" d="M4.26098 5.21101C6.23493 3.24596 8.95893 2.02539 11.9594 2.02539C14.9599 2.02539 17.6839 3.24596 19.6578 5.21101C19.971 5.52272 19.9721 6.02925 19.6604 6.34237C19.3487 6.6555 18.8421 6.65664 18.529 6.34493C16.8411 4.66462 14.5177 3.62539 11.9594 3.62539C9.40113 3.62539 7.07771 4.66462 5.3898 6.34493C5.07667 6.65664 4.57014 6.6555 4.25843 6.34237C3.94672 6.02925 3.94786 5.52272 4.26098 5.21101Z" fill="#D63D4A"/>
<path fill-rule="evenodd" clip-rule="evenodd" d="M11.95 7.54336C10.473 7.54336 9.13035 8.14487 8.1507 9.11731C7.83713 9.42858 7.33061 9.42671 7.01934 9.11314C6.70808 8.79957 6.70995 8.29304 7.02352 7.98178C8.28717 6.72741 10.0291 5.94336 11.95 5.94336C13.8693 5.94336 15.621 6.7263 16.8786 7.98386C17.191 8.29628 17.191 8.80281 16.8786 9.11523C16.5661 9.42765 16.0596 9.42765 15.7472 9.11523C14.778 8.14598 13.4286 7.54336 11.95 7.54336Z" fill="#D63D4A"/>
<path fill-rule="evenodd" clip-rule="evenodd" d="M4.25843 17.6594C4.57014 17.3463 5.07667 17.3452 5.3898 17.6569C7.07771 19.3372 9.40113 20.3764 11.9594 20.3764C14.5177 20.3764 16.8411 19.3372 18.529 17.6569C18.8421 17.3452 19.3487 17.3463 19.6604 17.6594C19.9721 17.9725 19.971 18.4791 19.6578 18.7908C17.6839 20.7558 14.9599 21.9764 11.9594 21.9764C8.95893 21.9764 6.23493 20.7558 4.26098 18.7908C3.94786 18.4791 3.94672 17.9725 4.25843 17.6594Z" fill="#D63D4A"/>
<path fill-rule="evenodd" clip-rule="evenodd" d="M7.01934 14.8878C7.33061 14.5742 7.83713 14.5723 8.1507 14.8836C9.13035 15.856 10.473 16.4576 11.95 16.4576C13.4286 16.4576 14.778 15.8549 15.7472 14.8857C16.0596 14.5733 16.5661 14.5733 16.8786 14.8857C17.191 15.1981 17.191 15.7046 16.8786 16.0171C15.621 17.2746 13.8693 18.0576 11.95 18.0576C10.0291 18.0576 8.28717 17.2735 7.02352 16.0191C6.70995 15.7079 6.70808 15.2013 7.01934 14.8878Z" fill="#D63D4A"/>
<path d="M11.9602 13.6536C12.8758 13.6536 13.618 12.9114 13.618 11.9959C13.618 11.0803 12.8758 10.3381 11.9602 10.3381C11.0447 10.3381 10.3025 11.0803 10.3025 11.9959C10.3025 12.9114 11.0447 13.6536 11.9602 13.6536Z" fill="white"/>
</g>
</svg>
