<svg width="32" height="32" viewBox="0 0 32 32" fill="none" xmlns="http://www.w3.org/2000/svg">
<g style="mix-blend-mode:multiply">
<path d="M21.9586 28H23.7971C24.1364 28 24.3772 27.6691 24.2728 27.3462L21.8232 19.7657C21.7565 19.5593 21.5643 19.4194 21.3474 19.4194H19.8729C19.5336 19.4194 19.2928 19.7503 19.3972 20.0733L19.704 21.0222C19.8085 21.3451 19.5677 21.676 19.2283 21.676H13.2558C12.9164 21.676 12.6756 21.3451 12.7801 21.0222L13.0869 20.0733C13.1913 19.7503 12.9505 19.4194 12.6111 19.4194H11.1367C10.9198 19.4194 10.7276 19.5593 10.6609 19.7657L8.21126 27.3462C8.10691 27.6691 8.34769 28 8.68703 28H10.1616C10.3785 28 10.5707 27.8601 10.6374 27.6537L10.8123 27.1125C10.8789 26.9061 11.0711 26.7663 11.288 26.7663H21.1974C21.4143 26.7663 21.6065 26.9061 21.6732 27.1125L21.9595 27.9987C21.9597 27.9993 21.9592 28 21.9586 28ZM12.2128 24.8988C11.8734 24.8988 11.6326 24.5678 11.7371 24.2448L11.8513 23.8922C11.918 23.6859 12.1101 23.5462 12.327 23.5462H20.1544C20.3713 23.5462 20.5634 23.6859 20.6301 23.8922L20.7443 24.2448C20.8488 24.5678 20.608 24.8988 20.2686 24.8988H12.2128Z" fill="#D63D4A"/>
</g>
<path d="M25.3346 9.02942V18.9689C25.3346 20.4848 24.3509 21.7893 22.9428 22.3586C22.4566 22.5564 21.9184 22.6666 21.3525 22.6666H10.6485C10.0826 22.6666 9.54439 22.5564 9.05821 22.3586C7.65171 21.7893 6.66797 20.4848 6.66797 18.9689V9.02942C6.66797 6.98807 8.45008 5.33325 10.6485 5.33325H21.3525C23.5509 5.33325 25.3346 6.98807 25.3346 9.02942Z" fill="#FA967C"/>
<path d="M22.6654 9.36554V14.6667H9.33203V9.36554C9.33203 8.61192 9.94395 8 10.6976 8H21.2982C22.0518 8 22.6654 8.61192 22.6654 9.36554Z" fill="white"/>
<path d="M10.6654 19.9999C11.4017 19.9999 11.9987 19.403 11.9987 18.6666C11.9987 17.9302 11.4017 17.3333 10.6654 17.3333C9.92898 17.3333 9.33203 17.9302 9.33203 18.6666C9.33203 19.403 9.92898 19.9999 10.6654 19.9999Z" fill="white"/>
<path d="M21.3333 19.9999C22.0697 19.9999 22.6667 19.403 22.6667 18.6666C22.6667 17.9302 22.0697 17.3333 21.3333 17.3333C20.597 17.3333 20 17.9302 20 18.6666C20 19.403 20.597 19.9999 21.3333 19.9999Z" fill="white"/>
<g style="mix-blend-mode:multiply">
<rect x="12" y="4" width="8" height="2.66667" rx="1" fill="#D63D4A"/>
</g>
</svg>
