<svg width="25" height="25" viewBox="0 0 25 25" fill="none" xmlns="http://www.w3.org/2000/svg">
<path fill-rule="evenodd" clip-rule="evenodd" d="M8.36719 13.5918C7.10741 13.5918 5.89923 14.0922 5.00843 14.983C4.11763 15.8738 3.61719 17.082 3.61719 18.3418C3.61719 19.0977 3.91745 19.8226 4.45193 20.3571C4.98641 20.8915 5.71132 21.1918 6.46719 21.1918H17.8672C18.6231 21.1918 19.348 20.8915 19.8824 20.3571C20.4169 19.8226 20.7172 19.0977 20.7172 18.3418C20.7172 17.082 20.2167 15.8738 19.3259 14.983C18.4351 14.0922 17.227 13.5918 15.9672 13.5918H8.36719Z" fill="#FA967C"/>
<path d="M8.98501 4.95962C8.1411 5.80353 7.66699 6.94813 7.66699 8.1416C7.66699 9.33508 8.1411 10.4797 8.98501 11.3236C9.82893 12.1675 10.9735 12.6416 12.167 12.6416C13.3605 12.6416 14.5051 12.1675 15.349 11.3236C16.1929 10.4797 16.667 9.33508 16.667 8.1416C16.667 6.94813 16.1929 5.80353 15.349 4.95962C14.5051 4.11571 13.3605 3.6416 12.167 3.6416C10.9735 3.6416 9.82893 4.11571 8.98501 4.95962Z" fill="#FA967C"/>
<path d="M8.98501 4.95962C8.1411 5.80353 7.66699 6.94813 7.66699 8.1416C7.66699 9.33508 8.1411 10.4797 8.98501 11.3236C9.82893 12.1675 10.9735 12.6416 12.167 12.6416C13.3605 12.6416 14.5051 12.1675 15.349 11.3236C16.1929 10.4797 16.667 9.33508 16.667 8.1416C16.667 6.94813 16.1929 5.80353 15.349 4.95962C14.5051 4.11571 13.3605 3.6416 12.167 3.6416C10.9735 3.6416 9.82893 4.11571 8.98501 4.95962Z" fill="#D63D4A"/>
<g style="mix-blend-mode:multiply">
<path d="M19.9996 12.6665C19.6244 12.6718 19.2574 12.7672 18.9356 12.9429C18.6138 13.1186 18.3487 13.5137 18.167 13.8126C17.9853 13.5137 17.7202 13.1186 17.3984 12.9429C17.0766 12.7672 16.7096 12.6718 16.3344 12.6665C15.7363 12.6902 15.1728 12.9283 14.767 13.329C14.3611 13.7296 14.146 14.2602 14.1686 14.8047C14.1686 16.8595 17.8191 19.4418 17.9744 19.5425L18.167 19.6665L18.3596 19.5425C18.5149 19.4424 22.1654 16.8595 22.1654 14.8047C22.188 14.2602 21.9728 13.7296 21.567 13.329C21.1612 12.9283 20.5977 12.6902 19.9996 12.6665Z" fill="#D63D4A"/>
</g>
</svg>
