<svg width="24" height="24" viewBox="0 0 24 24" fill="none" xmlns="http://www.w3.org/2000/svg">
<path fill-rule="evenodd" clip-rule="evenodd" d="M8.19995 12.9253C6.94017 12.9253 5.73199 13.4257 4.84119 14.3165C3.9504 15.2073 3.44995 16.4155 3.44995 17.6753C3.44995 18.4312 3.75022 19.1561 4.2847 19.6905C4.81918 20.225 5.54408 20.5253 6.29995 20.5253H17.7C18.4558 20.5253 19.1807 20.225 19.7152 19.6905C20.2497 19.1561 20.55 18.4312 20.55 17.6753C20.55 16.4155 20.0495 15.2073 19.1587 14.3165C18.2679 13.4257 17.0597 12.9253 15.8 12.9253H8.19995Z" fill="#FA967C"/>
<path d="M8.81802 4.29312C7.97411 5.13703 7.5 6.28162 7.5 7.4751C7.5 8.66857 7.97411 9.81316 8.81802 10.6571C9.66193 11.501 10.8065 11.9751 12 11.9751C13.1935 11.9751 14.3381 11.501 15.182 10.6571C16.0259 9.81316 16.5 8.66857 16.5 7.4751C16.5 6.28162 16.0259 5.13703 15.182 4.29312C14.3381 3.4492 13.1935 2.9751 12 2.9751C10.8065 2.9751 9.66193 3.4492 8.81802 4.29312Z" fill="#FA967C"/>
<path d="M8.81802 4.29312C7.97411 5.13703 7.5 6.28162 7.5 7.4751C7.5 8.66857 7.97411 9.81316 8.81802 10.6571C9.66193 11.501 10.8065 11.9751 12 11.9751C13.1935 11.9751 14.3381 11.501 15.182 10.6571C16.0259 9.81316 16.5 8.66857 16.5 7.4751C16.5 6.28162 16.0259 5.13703 15.182 4.29312C14.3381 3.4492 13.1935 2.9751 12 2.9751C10.8065 2.9751 9.66193 3.4492 8.81802 4.29312Z" fill="#D63D4A"/>
<g style="mix-blend-mode:multiply">
<path d="M19.8326 12C19.4574 12.0053 19.0904 12.1006 18.7686 12.2764C18.4468 12.4521 18.1817 12.8472 18 13.1461C17.8183 12.8472 17.5532 12.4521 17.2314 12.2764C16.9096 12.1006 16.5426 12.0053 16.1674 12C15.5693 12.0237 15.0058 12.2618 14.6 12.6625C14.1942 13.0631 13.979 13.5936 14.0016 14.1382C14.0016 16.193 17.6521 18.7753 17.8074 18.876L18 19L18.1926 18.876C18.3479 18.7759 21.9984 16.193 21.9984 14.1382C22.021 13.5936 21.8058 13.0631 21.4 12.6625C20.9942 12.2618 20.4307 12.0237 19.8326 12Z" fill="#D63D4A"/>
</g>
</svg>
