<svg width="28" height="24" viewBox="0 0 28 24" fill="none" xmlns="http://www.w3.org/2000/svg">
<path d="M0.666626 6.4987C0.666626 5.02594 1.79421 3.83203 3.18514 3.83203H20.8148C22.2057 3.83203 23.3333 5.02594 23.3333 6.4987V19.832C23.3333 21.3048 22.2057 22.4987 20.8148 22.4987H3.18514C1.79421 22.4987 0.666626 21.3048 0.666626 19.832V6.4987Z" fill="#8C97C8"/>
<g style="mix-blend-mode:multiply">
<path d="M18 0.765625C18.589 0.765625 19.0662 1.24308 19.0664 1.83203V3.83203H21.333C22.4375 3.83203 23.3328 4.72761 23.333 5.83203V9.16602H0.666992V5.83203C0.667169 4.72761 1.56253 3.83203 2.66699 3.83203H4.93359V1.83203C4.93377 1.24308 5.41101 0.765625 6 0.765625C6.589 0.765625 7.06623 1.24308 7.06641 1.83203V3.83203H16.9336V1.83203C16.9338 1.24308 17.411 0.765625 18 0.765625Z" fill="#5B658C"/>
</g>
<g style="mix-blend-mode:multiply">
<circle cx="22" cy="18.4993" r="5.33333" fill="white"/>
<circle cx="22" cy="18.4993" r="5.33333" fill="#5B658C"/>
</g>
<path d="M24.2861 17.9246C24.5265 17.7741 24.8473 17.8077 25.0505 18.0209C25.2535 18.2344 25.2712 18.5566 25.1091 18.7892L25.0296 18.8829L21.8252 21.9311C21.7078 22.0426 21.5509 22.1034 21.389 22.0991C21.227 22.0947 21.0731 22.0255 20.9619 21.9077L18.8317 19.6486L18.7575 19.5509C18.6083 19.3099 18.6436 18.99 18.8578 18.7879C19.0721 18.5857 19.3941 18.5687 19.626 18.7319L19.7197 18.8126L21.4281 20.6251L24.1885 18.0001L24.2861 17.9246Z" fill="white"/>
</svg>
