<svg width="32" height="32" viewBox="0 0 32 32" fill="none" xmlns="http://www.w3.org/2000/svg">
<g style="mix-blend-mode:multiply">
<path d="M25.7992 6.00015L6.2034 6C4.25083 6 2.66797 7.54328 2.66797 9.44702V22.5528C2.66797 24.4566 4.25083 25.9999 6.2034 25.9999L25.7992 26C27.7518 26 29.3346 24.4567 29.3346 22.553V9.44717C29.3346 7.54343 27.7518 6.00015 25.7992 6.00015Z" fill="#FBB4C1"/>
<g style="mix-blend-mode:multiply">
<path d="M6.11501 6.00012L25.8876 6.00012C27.7907 6.00012 29.3346 7.54401 29.3346 9.44714V11.2957H2.66797V9.44714C2.66797 7.54401 4.21187 6.00012 6.11501 6.00012Z" fill="#D63D4A"/>
</g>
<path d="M13.927 8.67629C13.927 9.2344 13.4666 9.6856 12.8971 9.6856C12.3276 9.6856 11.8672 9.2344 11.8672 8.67629C11.8672 8.11818 12.3298 7.66699 12.8971 7.66699C13.4644 7.66699 13.927 8.12032 13.927 8.67629Z" fill="#FA967C"/>
<path d="M9.66272 9.6856C10.2315 9.6856 10.6926 9.23372 10.6926 8.67629C10.6926 8.11887 10.2315 7.66699 9.66272 7.66699C9.09392 7.66699 8.63281 8.11887 8.63281 8.67629C8.63281 9.23372 9.09392 9.6856 9.66272 9.6856Z" fill="#FA967C"/>
<path d="M6.44006 9.68547C7.00886 9.68547 7.46997 9.23359 7.46997 8.67617C7.46997 8.11875 7.00886 7.66687 6.44006 7.66687C5.87126 7.66687 5.41016 8.11875 5.41016 8.67617C5.41016 9.23359 5.87126 9.68547 6.44006 9.68547Z" fill="#FA967C"/>
<path d="M16.2568 13.4668C13.7029 13.4668 11.918 15.3864 11.918 18.1335C11.918 20.8807 13.6926 22.5334 16.4394 22.5334C17.8385 22.5334 18.7927 22.2494 19.3457 22.0119C19.5951 21.9041 19.7315 21.6422 19.6672 21.3875L19.4177 20.3935C19.3791 20.2368 19.2685 20.1045 19.1193 20.0335C18.9702 19.9601 18.7927 19.9552 18.6358 20.0188C18.1832 20.2025 17.6276 20.3714 16.6374 20.3714C15.925 20.3714 14.7805 20.1535 14.513 18.8093H19.5231C19.8163 18.8093 20.0607 18.6012 20.0915 18.3245L20.0992 18.2609C20.1172 18.114 20.1455 17.8911 20.1455 17.6169C20.1455 15.5529 18.9419 13.4717 16.2542 13.4717L16.2568 13.4668ZM16.1411 15.5529C16.5654 15.5529 16.8869 15.6655 17.1235 15.8957C17.3653 16.1307 17.4836 16.4466 17.5402 16.7208H14.6211C14.8139 16.2042 15.2357 15.5529 16.1385 15.5529H16.1411Z" fill="#D63D4A"/>
</g>
</svg>
