<svg width="24" height="24" viewBox="0 0 24 24" fill="none" xmlns="http://www.w3.org/2000/svg">
<g style="mix-blend-mode:multiply">
<path d="M22.4978 15.1509C22.4978 9.35414 17.7967 4.65308 11.9978 4.65308C6.19887 4.65308 1.5 9.35414 1.5 15.1509C1.5 15.9457 1.59003 16.7164 1.7591 17.4608H22.2409C22.4078 16.7164 22.5 15.9457 22.5 15.1509H22.4978Z" fill="#FA967C"/>
<path d="M22.4978 15.1509C22.4978 9.35414 17.7967 4.65308 11.9978 4.65308C6.19887 4.65308 1.5 9.35414 1.5 15.1509C1.5 15.9457 1.59003 16.7164 1.7591 17.4608H22.2409C22.4078 16.7164 22.5 15.9457 22.5 15.1509H22.4978Z" fill="#FA967C"/>
<path d="M17.2873 14.8488H20.1593C20.1593 12.5959 19.2458 10.5539 17.7681 9.07837L15.7371 11.1094C16.6944 12.0668 17.2851 13.3886 17.2851 14.8488H17.2873Z" fill="white"/>
<g style="mix-blend-mode:multiply">
<path d="M15.7381 11.1092L17.7692 9.07817C16.2914 7.60044 14.2516 6.68701 11.9988 6.68701V9.55903C13.4589 9.55903 14.7808 10.1519 15.7381 11.107V11.1092Z" fill="#FA967C"/>
</g>
<path d="M11.9982 9.55903V6.68701C9.74535 6.68701 7.70332 7.60044 6.22778 9.07817L8.25884 11.1092C9.21618 10.1519 10.538 9.55903 11.9982 9.55903Z" fill="white"/>
<path d="M8.25937 11.1094L6.22831 9.07837C4.75278 10.5561 3.83936 12.5959 3.83936 14.8488H6.71138C6.71138 13.3886 7.30203 12.0668 8.25937 11.1094Z" fill="#D63D4A"/>
<path d="M5.92847 10.988L8.77414 13.1157L11.622 15.2456L10.904 15.9636L10.186 16.6816L8.05613 13.8337L5.92847 10.988Z" fill="white"/>
<path d="M14.0535 17.1643C14.0535 18.2995 13.1335 19.2217 11.9961 19.2217C10.8587 19.2217 9.93872 18.3017 9.93872 17.1643C9.93872 16.0269 10.8587 15.1069 11.9961 15.1069C13.1335 15.1069 14.0535 16.0269 14.0535 17.1643Z" fill="#D63D4A"/>
</g>
</svg>
