<svg width="20" height="20" viewBox="0 0 20 20" fill="none" xmlns="http://www.w3.org/2000/svg">
<path d="M16.8335 10.1971C16.8335 9.7752 16.6729 9.35062 16.2142 8.74936C15.8613 8.2867 15.369 7.76573 14.7136 7.10303L14.0031 6.39014L12.6302 5.01807C12.042 4.42984 11.6336 4.02168 11.2802 3.72982C10.9377 3.44706 10.6857 3.30657 10.4281 3.23259C10.1706 3.15904 9.88247 3.14429 9.44258 3.20248C8.98813 3.2626 8.42499 3.3915 7.61397 3.57846L7.61479 3.57927L6.69356 3.79167C6.00807 3.94966 5.54292 4.05799 5.18966 4.17904C4.85124 4.29502 4.67109 4.4053 4.53861 4.53793C4.4056 4.67116 4.29502 4.85212 4.17891 5.1906C4.11837 5.36713 4.06092 5.5714 3.99906 5.81723L3.79154 6.69369L3.57914 7.6141C3.39184 8.4246 3.26245 8.98837 3.20235 9.44271C3.14414 9.88288 3.15936 10.1708 3.23327 10.4282L3.2642 10.5251C3.34417 10.7504 3.48223 10.9813 3.72969 11.2811C4.02144 11.6345 4.42903 12.0435 5.01713 12.632L6.39001 14.0041L7.1029 14.7145C7.76524 15.3694 8.28577 15.8615 8.74841 16.2144C9.3498 16.6731 9.77438 16.8336 10.1962 16.8337C10.6184 16.8337 11.0433 16.6732 11.6447 16.2144C12.2617 15.7437 12.9819 15.0254 14.0039 14.0033C15.0256 12.9816 15.7437 12.2617 16.2142 11.6449C16.6727 11.0438 16.8335 10.6193 16.8335 10.1971ZM18.1665 10.1971C18.1665 11.0279 17.8231 11.7337 17.2738 12.4538C16.7362 13.1585 15.9414 13.9514 14.9463 14.9465C13.9511 15.9417 13.1583 16.7363 12.4537 17.2739C11.7334 17.8234 11.0271 18.1675 10.1962 18.1675C9.36571 18.1674 8.65953 17.824 7.93949 17.2747C7.41095 16.8716 6.83301 16.3237 6.15727 15.6553L5.44682 14.9473L4.07475 13.5744C3.50436 13.0036 3.04264 12.543 2.70105 12.1291C2.39427 11.7573 2.15906 11.3941 2.01013 10.9775L1.95154 10.7961C1.80955 10.3014 1.80848 9.814 1.88074 9.26775C1.95114 8.73552 2.09865 8.10073 2.28031 7.31462L2.4919 6.39421L2.70593 5.49171C2.77465 5.21919 2.84308 4.97468 2.91752 4.75766C3.07137 4.30918 3.26806 3.92355 3.5946 3.59636C3.92187 3.26856 4.30876 3.07144 4.75753 2.91765C5.19146 2.76896 5.73509 2.64453 6.39327 2.49284L7.31368 2.27963L8.38627 2.03874C8.70984 1.97047 9.00158 1.91606 9.26762 1.88087C9.81361 1.80863 10.3007 1.80942 10.7951 1.95085L10.9782 2.00945C11.3944 2.15868 11.7574 2.39441 12.1289 2.70118C12.5427 3.04287 13.003 3.50446 13.5734 4.07488L14.9463 5.44776C15.9421 6.44317 16.7362 7.23575 17.2738 7.94044C17.8232 8.66057 18.1665 9.36656 18.1665 10.1971Z" fill="#33363D"/>
<path d="M8.04423 7.07036C7.71878 6.74504 7.19112 6.74496 6.86572 7.07036C6.54044 7.39577 6.54044 7.92346 6.86572 8.24887C7.19112 8.57427 7.71878 8.57419 8.04423 8.24887C8.36967 7.92343 8.36967 7.3958 8.04423 7.07036ZM8.98739 6.12721C9.83353 6.97335 9.83353 8.34589 8.98739 9.19203C8.14124 10.038 6.76924 10.0376 5.92314 9.19145C5.07716 8.34534 5.07716 6.97389 5.92314 6.12778C6.76924 5.28168 8.14124 5.28119 8.98739 6.12721Z" fill="#33363D"/>
<path d="M13.7501 10.0002C14.0104 9.73988 14.4321 9.73986 14.6925 10.0002C14.9528 10.2605 14.9528 10.6822 14.6925 10.9425L10.9425 14.6925C10.6821 14.9528 10.2604 14.9528 10.0001 14.6925C9.73973 14.4322 9.7398 14.0105 10.0001 13.7502L13.7501 10.0002Z" fill="#33363D"/>
</svg>
