<svg width="25" height="25" viewBox="0 0 25 25" fill="none" xmlns="http://www.w3.org/2000/svg">
<g style="mix-blend-mode:multiply">
<path fill-rule="evenodd" clip-rule="evenodd" d="M7.83067 4.1665C7.50438 4.16662 7.18392 4.2599 6.90175 4.4369C6.61958 4.61389 6.38573 4.86832 6.22389 5.17439L2.91036 11.4387C2.75027 11.741 2.66604 12.0833 2.66602 12.4316V16.9291C2.66604 17.2394 2.7329 17.5455 2.86131 17.823L3.89609 20.0588C4.04979 20.3911 4.28612 20.6705 4.57858 20.8658C4.87104 21.0612 5.20809 21.1646 5.55193 21.1647H6.36828C6.85923 21.1647 7.33007 20.954 7.67722 20.5789C8.02438 20.2039 8.21941 19.6952 8.21941 19.1649H15.6239C15.6239 19.6952 15.819 20.2039 16.1661 20.5789C16.5133 20.954 16.9841 21.1647 17.4751 21.1647H18.2914C18.6353 21.1646 18.9723 21.0612 19.2648 20.8658C19.5572 20.6705 19.7935 20.3911 19.9472 20.0588L20.982 17.823C21.1107 17.546 21.1773 17.2391 21.1773 16.9291V12.4316C21.1773 12.0833 21.0931 11.741 20.933 11.4387L17.6194 5.17439C17.4576 4.86832 17.2238 4.61389 16.9416 4.4369C16.6594 4.2599 16.339 4.16662 16.0127 4.1665H7.83067Z" fill="#FA967C"/>
<g style="mix-blend-mode:multiply">
<path d="M4.57293 20.8678C4.28046 20.6725 4.04414 20.393 3.89044 20.0607L3.37305 18.9429H20.459L19.9416 20.0607C19.7879 20.393 19.5516 20.6725 19.2591 20.8678C18.9666 21.0631 18.6296 21.1666 18.2858 21.1666H17.4694C16.9785 21.1666 16.5076 20.9559 16.1605 20.5809C15.8133 20.2059 15.6183 19.6972 15.6183 19.1668H8.21375C8.21375 19.6972 8.01872 20.2059 7.67157 20.5809C7.32442 20.9559 6.85357 21.1666 6.36262 21.1666H5.54627C5.20243 21.1666 4.86539 21.0631 4.57293 20.8678Z" fill="#D63D4A"/>
</g>
<g style="mix-blend-mode:multiply">
<path d="M5.7481 10.1223L7.25947 6.72167C7.39592 6.41466 7.70038 6.2168 8.03635 6.2168H15.9996C16.3356 6.2168 16.6401 6.41465 16.7765 6.72167L18.2879 10.1223C18.5377 10.6845 18.1262 11.3177 17.511 11.3177H6.52497C5.90976 11.3177 5.49823 10.6845 5.7481 10.1223Z" fill="#D63D4A"/>
</g>
<rect x="6.60742" y="12.6665" width="10.625" height="4.25" rx="1.0625" fill="white"/>
<path d="M8.99805 13.9946C9.43815 13.9946 9.79492 14.3514 9.79492 14.7915C9.79492 15.2316 9.43815 15.5884 8.99805 15.5884C8.55794 15.5884 8.20117 15.2316 8.20117 14.7915C8.20117 14.3514 8.55794 13.9946 8.99805 13.9946ZM11.9199 13.9946C12.36 13.9946 12.7168 14.3514 12.7168 14.7915C12.7168 15.2316 12.36 15.5884 11.9199 15.5884C11.4798 15.5884 11.123 15.2316 11.123 14.7915C11.123 14.3514 11.4798 13.9947 11.9199 13.9946ZM14.8418 13.9946C15.2819 13.9946 15.6387 14.3514 15.6387 14.7915C15.6387 15.2316 15.2819 15.5884 14.8418 15.5884C14.4017 15.5884 14.0449 15.2316 14.0449 14.7915C14.0449 14.3514 14.4017 13.9947 14.8418 13.9946Z" fill="#D63D4A"/>
<g style="mix-blend-mode:multiply">
<path d="M17.5657 3.1665L18.666 5.1665L20.4667 4.87874L19.666 6.6665L21.666 7.6665L19.666 8.6665V11.1665L17.166 10.1665L15.4329 11.3102L15.666 8.6665L13.666 8.05659L15.4329 6.55947L14.9061 4.87874L16.666 5.1665L17.5657 3.1665Z" fill="#D63D4A"/>
</g>
<path d="M17.665 8.48873C17.3398 8.48873 17.0761 8.75239 17.0761 9.07762C17.0761 9.40285 17.3398 9.6665 17.665 9.6665C17.9903 9.6665 18.2539 9.40285 18.2539 9.07762C18.2539 8.75239 17.9903 8.48873 17.665 8.48873Z" fill="white"/>
<path d="M18.0082 8.00283C18.0624 8.00283 18.1063 7.95889 18.1063 7.90469L18.1063 7.41395L18.1063 6.25539L18.1063 5.76465C18.1063 5.71045 18.0624 5.6665 18.0082 5.6665L17.3211 5.6665C17.2669 5.6665 17.223 5.71045 17.223 5.76465L17.223 6.25539L17.223 7.90469C17.223 7.95889 17.2669 8.00283 17.3211 8.00283L18.0082 8.00283Z" fill="white"/>
</g>
</svg>
