<svg width="32" height="32" viewBox="0 0 32 32" fill="none" xmlns="http://www.w3.org/2000/svg">
<path d="M16.8853 2.83744L25.7001 6.35986C26.1803 6.55166 26.5941 6.89507 26.8861 7.3442C27.1782 7.79332 27.3347 8.32676 27.3346 8.87319V16.0697C27.3347 18.3125 26.7486 20.5111 25.6421 22.419C24.5356 24.3268 22.9524 25.8687 21.0698 26.8718L16.8463 29.1207C16.5839 29.2606 16.2946 29.3334 16.0013 29.3334C15.708 29.3334 15.4187 29.2606 15.1563 29.1207L10.9328 26.8704C9.05024 25.8674 7.46701 24.3255 6.3605 22.4176C5.25399 20.5097 4.66792 18.3112 4.66797 16.0683V8.87453C4.66765 8.32787 4.824 7.79414 5.1161 7.34475C5.4082 6.89536 5.82212 6.55174 6.30249 6.35986L15.1173 2.83744C15.6873 2.60977 16.3153 2.60977 16.8853 2.83744Z" fill="#C8A1EF"/>
<path fill-rule="evenodd" clip-rule="evenodd" d="M18.9452 9.42419C19.1802 9.42428 19.4109 9.49157 19.6141 9.61903C19.8173 9.74649 19.9857 9.92969 20.1022 10.1501L22.4888 14.6623C22.6041 14.8799 22.6653 15.1262 22.6654 15.3769V18.6167C22.6654 18.8398 22.6173 19.0609 22.5247 19.2603L21.7791 20.8711C21.6684 21.1103 21.498 21.3114 21.2874 21.452C21.0768 21.5927 20.8338 21.6673 20.5862 21.6673H19.9981C19.6446 21.6672 19.3056 21.5153 19.0556 21.2453C18.6369 20.7928 18.1654 20.2268 17.5489 20.2268H14.4487C13.8321 20.2268 13.36 20.7927 12.9411 21.2453C12.6911 21.5153 12.3522 21.6673 11.9986 21.6673H11.4105C11.1629 21.6672 10.9199 21.5927 10.7093 21.452C10.4988 21.3114 10.329 21.1102 10.2183 20.8711L9.47271 19.2603C9.38027 19.0604 9.33205 18.8401 9.33203 18.6167V15.3769C9.3321 15.1262 9.39268 14.8799 9.50788 14.6623L11.8945 10.1501C12.011 9.92972 12.1795 9.74651 12.3826 9.61903C12.5858 9.49155 12.8172 9.42428 13.0522 9.42419H18.9452ZM12.6998 16.4658C12.1927 16.4658 11.7813 16.8765 11.7812 17.3837C11.7812 17.8909 12.1926 18.3023 12.6998 18.3023C13.207 18.3022 13.6177 17.8909 13.6177 17.3837C13.6176 16.8766 13.2069 16.4659 12.6998 16.4658ZM19.4354 16.4658C18.9283 16.4658 18.5169 16.8765 18.5168 17.3837C18.5168 17.8909 18.9282 18.3023 19.4354 18.3023C19.9426 18.3022 20.354 17.8909 20.354 17.3837C20.3539 16.8766 19.9426 16.4658 19.4354 16.4658ZM13.1992 10.9006C12.9575 10.9007 12.7384 11.0434 12.64 11.2642L11.5512 13.7141C11.3714 14.119 11.6681 14.575 12.1111 14.5751H20.0235C20.4665 14.5751 20.7631 14.119 20.5833 13.7141L19.4945 11.2642C19.3962 11.0434 19.1771 10.9007 18.9353 10.9006H13.1992Z" fill="#9548E5"/>
<path d="M6.83875 7.6478L12.1911 5.41974C12.4035 5.33129 12.5951 5.67504 12.4151 5.81847C9.64564 8.02516 7.65192 10.795 6.43396 15.0935C6.37175 15.3131 6.00339 15.2693 6.00391 15.0411L6.01784 8.87573C6.01905 8.3384 6.34268 7.8543 6.83875 7.6478Z" fill="white"/>
</svg>
