<svg width="20" height="26" viewBox="0 0 20 26" fill="none" xmlns="http://www.w3.org/2000/svg">
<path d="M0.667969 3.16667C0.667969 1.69391 1.86188 0.5 3.33464 0.5H16.668C18.1407 0.5 19.3346 1.69391 19.3346 3.16667V23.1667C19.3346 24.6394 18.1407 25.8333 16.668 25.8333H3.33464C1.86188 25.8333 0.667969 24.6394 0.667969 23.1667V3.16667Z" fill="#8C97C8"/>
<g style="mix-blend-mode:multiply">
<path d="M0.667969 19.1665H19.3346V23.1665C19.3346 24.6393 18.1407 25.8332 16.668 25.8332H3.33464C1.86188 25.8332 0.667969 24.6393 0.667969 23.1665V19.1665Z" fill="#5B658C"/>
</g>
<path d="M10.0013 23.8332C10.7377 23.8332 11.3346 23.2362 11.3346 22.4998C11.3346 21.7635 10.7377 21.1665 10.0013 21.1665C9.26492 21.1665 8.66797 21.7635 8.66797 22.4998C8.66797 23.2362 9.26492 23.8332 10.0013 23.8332Z" fill="#8C97C8"/>
<path fill-rule="evenodd" clip-rule="evenodd" d="M14.449 7.44221C14.8858 7.83744 14.9195 8.51198 14.5243 8.94882L10.3021 13.6155C10.1007 13.8381 9.81479 13.9655 9.51459 13.9665C9.21439 13.9675 8.92767 13.8419 8.72482 13.6206L6.28038 10.954C5.8823 10.5197 5.91164 9.84495 6.3459 9.44688C6.78016 9.04881 7.4549 9.07815 7.85297 9.51241L9.50596 11.3157L12.9424 7.51754C13.3376 7.0807 14.0121 7.04697 14.449 7.44221Z" fill="#5B658C"/>
</svg>
