<svg width="25" height="25" viewBox="0 0 25 25" fill="none" xmlns="http://www.w3.org/2000/svg">
<g style="mix-blend-mode:multiply">
<path d="M12.1683 3.16797C17.4146 3.16797 21.6681 7.42079 21.6683 12.667C21.6683 13.5235 21.5543 14.3534 21.3412 15.1426C21.3203 15.22 21.2921 15.2935 21.2601 15.3643C21.25 15.4139 21.2397 15.4645 21.224 15.5146C20.5747 17.5834 19.2372 19.3478 17.4789 20.5381C17.2066 20.7224 16.8809 20.8085 16.5521 20.8086H7.77087C7.44205 20.8086 7.11649 20.7223 6.84412 20.5381C5.0853 19.3479 3.74756 17.5837 3.09802 15.5146C3.07506 15.4415 3.05848 15.3688 3.04724 15.2969C3.02769 15.247 3.01075 15.1955 2.99646 15.1426C2.78363 14.3533 2.66931 13.5234 2.66931 12.667C2.6695 7.42091 6.92225 3.16816 12.1683 3.16797ZM18.0492 12.667C18.0492 12.482 17.8476 12.3731 17.6859 12.4629L15.8363 13.4902C15.7285 13.5501 15.6513 13.6521 15.6136 13.7695C15.1462 15.227 13.7801 16.2822 12.1674 16.2822C10.555 16.2821 9.18876 15.2275 8.72107 13.7705C8.68335 13.6531 8.60627 13.5511 8.49841 13.4912L6.6488 12.4639C6.48827 12.3747 6.28845 12.4834 6.28845 12.667C6.28849 12.9926 6.31553 13.312 6.36658 13.623C6.38943 13.7623 6.39707 13.9059 6.39392 14.0508C6.44674 14.1358 6.49099 14.2278 6.5199 14.3262C7.23675 16.7646 9.49098 18.5447 12.1615 18.5449C14.832 18.5447 17.0872 16.7647 17.8041 14.3262C17.8358 14.2182 17.8824 14.116 17.9427 14.0244C17.9413 13.8891 17.9497 13.7552 17.9711 13.625C18.0222 13.3134 18.0492 12.9931 18.0492 12.667ZM12.1693 6.78613C9.85629 6.78613 7.85435 8.12152 6.89392 10.0635C6.75612 10.3423 6.96871 10.653 7.27966 10.6582L8.88416 10.6855C9.03957 10.6882 9.18395 10.6093 9.27771 10.4854C9.93821 9.61061 10.9868 9.04498 12.1674 9.04492C13.3478 9.04492 14.3956 9.61079 15.056 10.4854C15.1498 10.6093 15.2942 10.6882 15.4496 10.6855L17.057 10.6582C17.368 10.653 17.5805 10.3423 17.4427 10.0635C16.4826 8.12182 14.482 6.78635 12.1693 6.78613Z" fill="white"/>
<path d="M5.57801 13.5703C6.02434 13.5703 6.39664 13.8987 6.52252 14.3269C7.23936 16.7655 9.49358 18.5458 12.1643 18.5459C14.8348 18.5456 17.0892 16.7655 17.806 14.327C17.9319 13.8988 18.3042 13.5703 18.7505 13.5703H20.6233C21.1565 13.5703 21.5777 14.0309 21.4724 14.5537C20.5975 18.896 16.7625 22.1659 12.1623 22.166C7.56208 22.1659 3.72707 18.896 2.85218 14.5537C2.74686 14.0309 3.16808 13.5703 3.7013 13.5703H5.57801Z" fill="#D63D4A"/>
<g style="mix-blend-mode:multiply">
<path d="M12.1656 3.16602C17.4119 3.16602 21.6655 7.41884 21.6656 12.665C21.6656 13.5215 21.5516 14.3514 21.3385 15.1406C21.1475 15.848 20.4706 16.2861 19.7379 16.2861C18.544 16.2861 17.7749 14.8002 17.9684 13.6221C18.0197 13.3101 18.0465 12.9896 18.0465 12.6631C18.0465 12.4795 17.8462 12.3711 17.6856 12.4602L15.8337 13.4882C15.7257 13.5481 15.6483 13.6501 15.6106 13.7677C15.1436 15.2258 13.7778 16.2812 12.1647 16.2812C10.5515 16.2812 9.18481 15.2259 8.71772 13.7678C8.68004 13.6501 8.60262 13.5481 8.49464 13.4882L6.6438 12.4607C6.48369 12.3718 6.28577 12.48 6.28577 12.6631C6.28578 12.9893 6.31274 13.3094 6.36389 13.6211C6.55723 14.7996 5.78763 16.2861 4.59338 16.2861C3.86075 16.2861 3.18462 15.8479 2.99377 15.1406C2.78094 14.3514 2.66663 13.5214 2.66663 12.665C2.66682 7.41896 6.91957 3.1662 12.1656 3.16602ZM12.1666 6.78223C9.85274 6.78223 7.85028 8.11858 6.89024 10.0617C6.7525 10.3405 6.96457 10.651 7.27548 10.6562L8.88262 10.6833C9.0381 10.6859 9.18237 10.6072 9.27613 10.4831C9.9367 9.60901 10.9846 9.04395 12.1647 9.04395C13.3446 9.04399 14.3918 9.6092 15.0522 10.4832C15.146 10.6072 15.2903 10.6859 15.4457 10.6833L17.0558 10.6562C17.3667 10.651 17.5788 10.3405 17.4411 10.0617C16.4813 8.11887 14.4801 6.78248 12.1666 6.78223Z" fill="#FA967C"/>
</g>
<rect x="10.3539" y="10.8555" width="3.61881" height="3.61881" rx="1.8094" fill="white"/>
</g>
</svg>
