<svg width="28" height="21" viewBox="0 0 28 21" fill="none" xmlns="http://www.w3.org/2000/svg">
<path d="M23.7979 0.500147L4.20206 0.5C2.24949 0.5 0.666626 2.04328 0.666626 3.94702V17.0528C0.666626 18.9566 2.24949 20.4999 4.20206 20.4999L23.7979 20.5C25.7504 20.5 27.3333 18.9567 27.3333 17.053V3.94717C27.3333 2.04343 25.7504 0.500147 23.7979 0.500147Z" fill="#8C97C8"/>
<g style="mix-blend-mode:multiply">
<path d="M4.11367 0.5L23.8862 0.5C25.7894 0.5 27.3333 2.04389 27.3333 3.94702V5.79556H0.666626V3.94702C0.666626 2.04389 2.21053 0.5 4.11367 0.5Z" fill="#5B658C"/>
</g>
<path d="M11.9233 3.17532C11.9233 3.73343 11.4629 4.18462 10.8934 4.18462C10.3239 4.18462 9.86353 3.73343 9.86353 3.17532C9.86353 2.61721 10.3261 2.16602 10.8934 2.16602C11.4608 2.16602 11.9233 2.61935 11.9233 3.17532Z" fill="#8C97C8"/>
<path d="M7.66186 4.18462C8.23067 4.18462 8.69177 3.73274 8.69177 3.17532C8.69177 2.6179 8.23067 2.16602 7.66186 2.16602C7.09306 2.16602 6.63196 2.6179 6.63196 3.17532C6.63196 3.73274 7.09306 4.18462 7.66186 4.18462Z" fill="#8C97C8"/>
<path d="M4.4375 4.18462C5.0063 4.18462 5.46741 3.73274 5.46741 3.17532C5.46741 2.6179 5.0063 2.16602 4.4375 2.16602C3.8687 2.16602 3.40759 2.6179 3.40759 3.17532C3.40759 3.73274 3.8687 4.18462 4.4375 4.18462Z" fill="#8C97C8"/>
<path d="M14.2572 7.9668C11.7032 7.9668 9.91833 9.88638 9.91833 12.6335C9.91833 15.3807 11.693 17.0334 14.4398 17.0334C15.8389 17.0334 16.7931 16.7494 17.346 16.5119C17.5955 16.4041 17.7318 16.1422 17.6675 15.8875L17.418 14.8935C17.3795 14.7368 17.2689 14.6045 17.1197 14.5335C16.9705 14.4601 16.7931 14.4552 16.6362 14.5188C16.1835 14.7025 15.628 14.8714 14.6378 14.8714C13.9254 14.8714 12.7809 14.6535 12.5134 13.3093H17.5235C17.8167 13.3093 18.061 13.1012 18.0919 12.8245L18.0996 12.7609C18.1176 12.614 18.1459 12.3911 18.1459 12.1169C18.1459 10.0529 16.9422 7.97169 14.2546 7.97169L14.2572 7.9668ZM14.1414 10.0529C14.5658 10.0529 14.8873 10.1655 15.1239 10.3957C15.3657 10.6307 15.484 10.9466 15.5405 11.2208H12.6214C12.8143 10.7042 13.2361 10.0529 14.1389 10.0529H14.1414Z" fill="white"/>
</svg>
