<svg width="32" height="32" viewBox="0 0 32 32" fill="none" xmlns="http://www.w3.org/2000/svg">
<g style="mix-blend-mode:multiply">
<path d="M6.31657 25.4084L6.31641 27.9791C6.31641 28.4452 6.69403 28.8228 7.16009 28.8228H9.87215C10.3382 28.8228 10.7158 28.4452 10.7158 27.9791V25.4131C10.7158 25.1802 10.5269 24.9912 10.294 24.9912H6.74652C6.74652 24.9912 6.74366 24.9912 6.74207 24.9912C6.50831 24.9906 6.31669 25.1747 6.31657 25.4084Z" fill="#D63D4A"/>
<path d="M25.6857 25.4084L25.6859 27.9791C25.6859 28.4452 25.3083 28.8228 24.8422 28.8228H22.1301C21.6641 28.8228 21.2865 28.4452 21.2865 27.9791V25.4131C21.2865 25.1802 21.4754 24.9912 21.7083 24.9912H25.2558C25.2558 24.9912 25.2586 24.9912 25.2602 24.9912C25.494 24.9906 25.6856 25.1747 25.6857 25.4084Z" fill="#D63D4A"/>
<path d="M3.41274 8.27954H4.58986C5.00094 8.27954 5.33464 8.53598 5.33464 8.85188V13.0405C5.33464 13.3564 5.00094 13.6129 4.58986 13.6129H3.41274C3.00167 13.6129 2.66797 13.3564 2.66797 13.0405V8.85188C2.66797 8.53598 3.00167 8.27954 3.41274 8.27954Z" fill="#D63D4A"/>
<path d="M27.4127 8.27954H28.5899C29.0009 8.27954 29.3346 8.53598 29.3346 8.85188V13.0405C29.3346 13.3564 29.0009 13.6129 28.5899 13.6129H27.4127C27.0017 13.6129 26.668 13.3564 26.668 13.0405V8.85188C26.668 8.53598 27.0017 8.27954 27.4127 8.27954Z" fill="#D63D4A"/>
<path d="M5.33203 8.00008C5.33203 5.05456 7.71985 2.66675 10.6654 2.66675H21.332C24.2775 2.66675 26.6654 5.05456 26.6654 8.00008V18.6667C26.6654 21.6123 24.2775 24.0001 21.332 24.0001H10.6654C7.71985 24.0001 5.33203 21.6123 5.33203 18.6667V8.00008Z" fill="#D63D4A"/>
<path d="M8 7.33325C8 6.22868 8.89543 5.33325 10 5.33325H22C23.1046 5.33325 24 6.22868 24 7.33325V11.3333C24 12.4378 23.1046 13.3333 22 13.3333H10C8.89543 13.3333 8 12.4378 8 11.3333V7.33325Z" fill="white"/>
<path d="M24.2489 25.855H7.75031C6.24842 25.855 5.03125 24.6375 5.03125 23.136V19.5436C5.03125 19.201 5.1445 18.8689 5.35034 18.595C9.41095 13.1858 22.5886 13.1858 26.6495 18.595C26.855 18.8689 26.9686 19.201 26.9686 19.5436V23.136C26.9686 24.6379 25.7511 25.855 24.2495 25.855H24.2489Z" fill="#FA967C"/>
<g style="mix-blend-mode:multiply">
<path d="M12 18.6667C12 18.2985 12.2985 18 12.6667 18H19.3333C19.7015 18 20 18.2985 20 18.6667C20 19.0349 19.7015 19.3333 19.3333 19.3333H12.6667C12.2985 19.3333 12 19.0349 12 18.6667Z" fill="#D63D4A"/>
<path d="M12 21.3333C12 20.9651 12.2985 20.6667 12.6667 20.6667H19.3333C19.7015 20.6667 20 20.9651 20 21.3333C20 21.7015 19.7015 22 19.3333 22H12.6667C12.2985 22 12 21.7015 12 21.3333Z" fill="#D63D4A"/>
</g>
<path d="M8.17559 23.7916C8.87663 23.7916 9.44493 23.2233 9.44493 22.5223C9.44493 21.8212 8.87663 21.2529 8.17559 21.2529C7.47455 21.2529 6.90625 21.8212 6.90625 22.5223C6.90625 23.2233 7.47455 23.7916 8.17559 23.7916Z" fill="white"/>
<path d="M23.824 23.7916C24.5251 23.7916 25.0934 23.2233 25.0934 22.5223C25.0934 21.8212 24.5251 21.2529 23.824 21.2529C23.123 21.2529 22.5547 21.8212 22.5547 22.5223C22.5547 23.2233 23.123 23.7916 23.824 23.7916Z" fill="white"/>
</g>
</svg>
