<svg width="25" height="25" viewBox="0 0 25 25" fill="none" xmlns="http://www.w3.org/2000/svg">
<g style="mix-blend-mode:multiply">
<path d="M12.0029 18.3374C15.4191 18.3374 18.1885 15.7527 18.1885 12.5642C18.1885 9.37576 15.4191 6.79102 12.0029 6.79102C8.58675 6.79102 5.81738 9.37576 5.81738 12.5642C5.81738 15.7527 8.58675 18.3374 12.0029 18.3374Z" fill="#FA967C"/>
<path d="M12.0029 18.3374C15.4191 18.3374 18.1885 15.7527 18.1885 12.5642C18.1885 9.37576 15.4191 6.79102 12.0029 6.79102C8.58675 6.79102 5.81738 9.37576 5.81738 12.5642C5.81738 15.7527 8.58675 18.3374 12.0029 18.3374Z" fill="#FA967C"/>
<path fill-rule="evenodd" clip-rule="evenodd" d="M4.42761 5.87702C6.40155 3.91197 9.12555 2.69141 12.126 2.69141C15.1265 2.69141 17.8505 3.91197 19.8245 5.87702C20.1376 6.18874 20.1387 6.69527 19.827 7.00839C19.5153 7.32151 19.0088 7.32266 18.6956 7.01094C17.0077 5.33063 14.6843 4.29141 12.126 4.29141C9.56776 4.29141 7.24434 5.33063 5.55642 7.01094C5.2433 7.32266 4.73677 7.32151 4.42506 7.00839C4.11334 6.69527 4.11449 6.18874 4.42761 5.87702Z" fill="#D63D4A"/>
<path fill-rule="evenodd" clip-rule="evenodd" d="M12.1167 8.20938C10.6397 8.20938 9.29709 8.81089 8.31745 9.78333C8.00388 10.0946 7.49735 10.0927 7.18609 9.77915C6.87482 9.46558 6.87669 8.95906 7.19026 8.64779C8.45392 7.39343 10.1958 6.60938 12.1167 6.60938C14.036 6.60938 15.7878 7.39232 17.0453 8.64988C17.3577 8.96229 17.3577 9.46883 17.0453 9.78125C16.7329 10.0937 16.2264 10.0937 15.9139 9.78125C14.9447 8.812 13.5954 8.20938 12.1167 8.20938Z" fill="#D63D4A"/>
<path fill-rule="evenodd" clip-rule="evenodd" d="M4.42506 18.3254C4.73677 18.0123 5.2433 18.0112 5.55642 18.3229C7.24434 20.0032 9.56776 21.0424 12.126 21.0424C14.6843 21.0424 17.0077 20.0032 18.6956 18.3229C19.0088 18.0112 19.5153 18.0123 19.827 18.3254C20.1387 18.6386 20.1376 19.1451 19.8245 19.4568C17.8505 21.4219 15.1265 22.6424 12.126 22.6424C9.12555 22.6424 6.40155 21.4219 4.42761 19.4568C4.11449 19.1451 4.11334 18.6386 4.42506 18.3254Z" fill="#D63D4A"/>
<path fill-rule="evenodd" clip-rule="evenodd" d="M7.18609 15.5528C7.49735 15.2392 8.00388 15.2374 8.31745 15.5486C9.29709 16.5211 10.6397 17.1226 12.1167 17.1226C13.5954 17.1226 14.9447 16.52 15.9139 15.5507C16.2264 15.2383 16.7329 15.2383 17.0453 15.5507C17.3577 15.8631 17.3577 16.3697 17.0453 16.6821C15.7878 17.9397 14.036 18.7226 12.1167 18.7226C10.1958 18.7226 8.45392 17.9385 7.19026 16.6842C6.87669 16.3729 6.87482 15.8664 7.18609 15.5528Z" fill="#D63D4A"/>
<path d="M12.1267 14.3194C13.0423 14.3194 13.7845 13.5772 13.7845 12.6616C13.7845 11.7461 13.0423 11.0039 12.1267 11.0039C11.2112 11.0039 10.469 11.7461 10.469 12.6616C10.469 13.5772 11.2112 14.3194 12.1267 14.3194Z" fill="white"/>
</g>
</svg>
