<svg width="16" height="16" viewBox="0 0 16 16" fill="none" xmlns="http://www.w3.org/2000/svg">
<path d="M7.99902 2C8.29353 2 8.53313 2.23871 8.5332 2.5332V7.4668H13.4668C13.7612 7.46687 13.9999 7.70555 14 8C14 8.29451 13.7613 8.53313 13.4668 8.5332H8.5332V13.4668C8.5332 13.7613 8.29358 14 7.99902 14C7.70468 13.9998 7.46582 13.7612 7.46582 13.4668V8.5332H2.5332C2.23871 8.53313 2 8.29451 2 8C2.00007 7.70555 2.23875 7.46687 2.5332 7.4668H7.46582V2.5332C7.46589 2.23886 7.70472 2.00025 7.99902 2Z" fill="#33363D"/>
</svg>
