<svg width="138" height="34" viewBox="0 0 138 34" fill="none" xmlns="http://www.w3.org/2000/svg">
<path d="M36.5136 23.3397H33.4972V27.5268C34.744 27.55 35.9903 27.4582 37.2202 27.2525L37.331 28.1549C35.9146 28.3758 34.4824 28.4797 33.0489 28.4655H32.395V22.4268H36.5136L36.5136 23.3397ZM39.0184 25.0213H40.321V25.9401H39.0184V30.5537H37.9057V21.583H39.0184V25.0213Z" fill="white"/>
<path d="M49.2609 26.0031V26.8891H45.8332V28.5812H44.71V26.8891H41.1504V26.0031H49.2609ZM42.0943 23.6348C42.0943 22.5953 43.302 21.8418 45.2109 21.8418C47.1199 21.8418 48.3381 22.5953 48.3381 23.6348C48.3381 24.6895 47.12 25.443 45.2215 25.443C43.302 25.443 42.0943 24.6895 42.0943 23.6348ZM43.2598 29.4297H48.3275V30.3109H42.1576V27.7585H43.2598V29.4297ZM43.2281 23.6453C43.2281 24.2195 44.0666 24.5898 45.2057 24.5898C46.3817 24.5898 47.1937 24.2195 47.1937 23.6453C47.1937 23.0594 46.3869 22.6856 45.2109 22.6856C44.0666 22.6855 43.2281 23.0594 43.2281 23.6453Z" fill="white"/>
<path d="M58.3833 28.5342V29.4201H50.2727V28.5342H53.769V27.0729H51.3116V24.1303H56.2317V23.0381H51.2958V22.1475H57.3549V25.0268H52.419V26.1869H57.5817V27.0728H54.8765V28.5342L58.3833 28.5342Z" fill="white"/>
<path d="M67.5014 29.3618H59.3909V28.4759H67.5014L67.5014 29.3618ZM66.4573 23.2399H61.5372V25.7079H66.5258V26.6032H60.4403V22.3423H66.4573L66.4573 23.2399Z" fill="white"/>
<path d="M76.4102 24.6269H71.179V23.7467H76.4102L76.4102 24.6269ZM73.8415 28.8515C73.4749 28.8057 73.1294 28.655 72.8464 28.4176C72.5634 28.1802 72.3549 27.8662 72.2459 27.5132C72.137 27.1602 72.1322 26.7833 72.2322 26.4277C72.3322 26.0721 72.5327 25.7529 72.8097 25.5084C73.0866 25.264 73.4282 25.1046 73.7935 25.0495C74.1588 24.9944 74.5322 25.0459 74.8689 25.1978C75.2056 25.3497 75.4914 25.5956 75.6918 25.9059C75.8922 26.2162 75.9989 26.5777 75.9989 26.9471C75.9925 27.2172 75.9303 27.4831 75.8163 27.7281C75.7022 27.9731 75.5388 28.1918 75.3362 28.3706C75.1336 28.5495 74.8963 28.6845 74.6391 28.7672C74.3818 28.85 74.1103 28.8787 73.8415 28.8515ZM75.1973 23.066H72.4762V22.1648H75.1973L75.1973 23.066ZM73.8415 27.975C73.9822 27.9837 74.1233 27.9636 74.2559 27.9157C74.3886 27.8679 74.51 27.7934 74.6128 27.6969C74.7156 27.6003 74.7975 27.4837 74.8535 27.3543C74.9094 27.2248 74.9383 27.0853 74.9383 26.9443C74.9383 26.8033 74.9094 26.6637 74.8535 26.5343C74.7975 26.4049 74.7156 26.2883 74.6128 26.1917C74.51 26.0952 74.3886 26.0207 74.2559 25.9728C74.1233 25.925 73.9822 25.9049 73.8415 25.9136C73.7029 25.9084 73.5646 25.9312 73.435 25.9807C73.3054 26.0301 73.1872 26.1052 73.0873 26.2014C72.9874 26.2977 72.9079 26.413 72.8536 26.5407C72.7994 26.6683 72.7714 26.8056 72.7714 26.9443C72.7714 27.083 72.7994 27.2203 72.8536 27.3479C72.9079 27.4755 72.9874 27.5909 73.0873 27.6871C73.1872 27.7834 73.3054 27.8584 73.435 27.9079C73.5646 27.9573 73.7029 27.9802 73.8415 27.975ZM78.229 25.2914H79.5157V26.2031H78.229V30.5543H77.1227V21.5894H78.229L78.229 25.2914Z" fill="white"/>
<path d="M80.9934 28.9236L80.3665 28.0541C81.3003 27.6536 82.1152 27.019 82.7322 26.2116C83.3493 25.4042 83.7478 24.4514 83.8891 23.4451H80.8668V22.5275H85.0704C85.0578 23.8685 84.6691 25.1789 83.9483 26.3097C83.2275 27.4405 82.2037 28.3462 80.9934 28.9236ZM87.7645 30.5596H86.6524V21.583H87.7645V30.5596Z" fill="white"/>
<path d="M40.3894 12.8645H35.5354L34.3706 16.3062H32.314L36.9124 3.57031H39.0475L43.646 16.3062H41.5542L40.3894 12.8645ZM36.0382 11.2754H39.8866L37.9882 5.68909H37.9354L36.0382 11.2754Z" fill="white"/>
<path d="M53.5936 11.6648C53.5936 14.55 52.0491 16.4039 49.7194 16.4039C49.129 16.435 48.5418 16.2991 48.0251 16.0119C47.5084 15.7246 47.0831 15.2976 46.7979 14.7797H46.7545V19.3781H44.8479V7.02186H46.6924V8.56639H46.7276C47.0258 8.0509 47.4583 7.62596 47.979 7.33684C48.4996 7.04772 49.089 6.90524 49.6842 6.92459C52.0409 6.92459 53.5936 8.7867 53.5936 11.6648ZM51.6342 11.6648C51.6342 9.78397 50.6639 8.54881 49.1815 8.54881C47.7248 8.54881 46.7452 9.81093 46.7452 11.6648C46.7452 13.5351 47.7249 14.7891 49.1815 14.7891C50.6639 14.789 51.6342 13.5621 51.6342 11.6648Z" fill="white"/>
<path d="M63.8329 11.6648C63.8329 14.55 62.2883 16.4039 59.9586 16.4039C59.3682 16.435 58.781 16.2992 58.2643 16.0119C57.7476 15.7246 57.3223 15.2976 57.0371 14.7797H56.9938V19.3781H55.0872V7.02186H56.9317V8.56639H56.9669C57.2651 8.0509 57.6976 7.62596 58.2182 7.33684C58.7389 7.04772 59.3282 6.90524 59.9235 6.92459C62.2801 6.92459 63.8329 8.7867 63.8329 11.6648ZM61.8735 11.6648C61.8735 9.78397 60.9032 8.54881 59.4207 8.54881C57.9641 8.54881 56.9844 9.81093 56.9844 11.6648C56.9844 13.5351 57.9641 14.7891 59.4207 14.7891C60.9032 14.789 61.8735 13.5621 61.8735 11.6648Z" fill="white"/>
<path d="M70.6181 12.7578C70.7599 14.0199 71.9857 14.8496 73.6627 14.8496C75.2693 14.8496 76.426 14.0199 76.426 12.882C76.426 11.893 75.7287 11.3023 74.0776 10.8957L72.4276 10.4984C70.0885 9.9336 69.0033 8.84023 69.0033 7.06602C69.0033 4.86876 70.9182 3.35938 73.6369 3.35938C76.3287 3.35938 78.1733 4.86875 78.2353 7.06602H76.3111C76.1963 5.79454 75.1463 5.02696 73.6099 5.02696C72.0748 5.02696 71.0248 5.80391 71.0248 6.9336C71.0248 7.8336 71.6951 8.36329 73.3369 8.76876L74.7396 9.11329C77.3517 9.73087 78.438 10.7809 78.438 12.6441C78.438 15.0266 76.5408 16.5184 73.522 16.5184C70.6978 16.5184 68.7917 15.0617 68.6687 12.7578L70.6181 12.7578Z" fill="white"/>
<path d="M82.561 4.82373V7.02099H84.3258V8.53036H82.5609V13.6491C82.5609 14.4437 82.9137 14.814 83.6906 14.814C83.8998 14.8108 84.1087 14.7963 84.3164 14.7706V16.2706C83.9675 16.3355 83.613 16.365 83.2582 16.3585C81.3773 16.3585 80.6449 15.653 80.6449 13.8519V8.53038H79.2949V7.021H80.6449V4.82373H82.561Z" fill="white"/>
<path d="M85.3684 11.6645C85.3684 8.74306 87.0887 6.90674 89.7723 6.90674C92.4641 6.90674 94.1762 8.74306 94.1762 11.6645C94.1762 14.5942 92.4735 16.4212 89.7723 16.4212C87.0712 16.4212 85.3684 14.5942 85.3684 11.6645ZM92.2344 11.6645C92.2344 9.66064 91.3168 8.47822 89.7723 8.47822C88.2278 8.47822 87.3102 9.66885 87.3102 11.6645C87.3102 13.6767 88.2278 14.8497 89.7723 14.8497C91.3168 14.8497 92.2344 13.6767 92.2344 11.6645Z" fill="white"/>
<path d="M95.7461 7.02175H97.5637V8.60144H97.6082C97.731 8.10799 98.02 7.67189 98.4266 7.36648C98.8332 7.06107 99.3325 6.90498 99.8406 6.92448C100.061 6.9231 100.28 6.94709 100.495 6.99596V8.77838C100.217 8.69381 99.9278 8.65502 99.6379 8.66354C99.3611 8.65224 99.0852 8.70098 98.829 8.80641C98.5729 8.91185 98.3426 9.07148 98.154 9.27434C97.9654 9.4772 97.8229 9.71848 97.7364 9.98162C97.6499 10.2447 97.6213 10.5235 97.6527 10.7987V16.3065H95.7461V7.02175Z" fill="white"/>
<path d="M109.282 13.5794C109.072 14.4569 108.552 15.2287 107.816 15.7513C107.081 16.2739 106.181 16.512 105.283 16.4212C102.583 16.4212 100.906 14.6118 100.906 11.7079C100.906 8.79583 102.592 6.90674 105.205 6.90674C107.772 6.90674 109.387 8.67158 109.387 11.4876V12.1403H102.831V12.2552C102.8 12.5968 102.843 12.9411 102.956 13.265C103.069 13.5889 103.249 13.885 103.486 14.1337C103.722 14.3825 104.008 14.5781 104.326 14.7076C104.644 14.8371 104.985 14.8975 105.328 14.8849C105.778 14.9272 106.23 14.8229 106.617 14.5877C107.003 14.3525 107.303 13.9989 107.472 13.5794H109.282ZM102.839 10.8079H107.482C107.499 10.5008 107.452 10.1934 107.345 9.90507C107.237 9.61677 107.072 9.35375 106.858 9.1325C106.644 8.91125 106.387 8.73654 106.103 8.61932C105.818 8.5021 105.512 8.4449 105.205 8.45129C104.894 8.44939 104.587 8.50897 104.299 8.62661C104.012 8.74425 103.751 8.91762 103.531 9.13671C103.311 9.3558 103.137 9.61628 103.018 9.90312C102.899 10.19 102.838 10.4975 102.839 10.8079Z" fill="white"/>
<path d="M117.102 3.78379H118.588V15.6982H117.102V9.68419H116.013C115.877 11.8088 115.014 13.6557 113.272 13.6557C111.358 13.6557 110.51 11.4338 110.51 9.06192C110.51 6.68887 111.358 4.51272 113.272 4.51272C114.977 4.51272 115.839 6.23889 116.005 8.29552H117.102L117.102 3.78379ZM114.571 9.06192C114.571 7.31232 114.151 5.97637 113.272 5.97637C112.416 5.97637 112.026 7.3123 112.026 9.06192C112.026 10.8186 112.416 12.1393 113.272 12.1393C114.151 12.1393 114.571 10.8186 114.571 9.06192ZM121.184 3.52832V16.2982H119.698V3.52832H121.184Z" fill="white"/>
<path d="M127.903 6.5251C127.851 7.65035 128.119 8.76732 128.678 9.74566C129.236 10.724 130.061 11.5234 131.057 12.0505L130.133 13.2446C128.769 12.4687 127.704 11.2583 127.108 9.80636C126.567 11.3867 125.481 12.7228 124.044 13.5751L123.068 12.4185C124.085 11.8316 124.922 10.9764 125.486 9.94639C126.05 8.91635 126.321 7.75106 126.267 6.57783V4.60322H127.903L127.903 6.5251ZM133.887 16.2997H132.295V9.28017H129.735V7.93721H132.295V3.52979H133.887V16.2997Z" fill="white"/>
<path d="M20.7172 17.3613C20.7301 16.3597 20.9962 15.3776 21.4906 14.5065C21.985 13.6353 22.6918 12.9034 23.5451 12.3788C23.003 11.6046 22.2879 10.9675 21.4565 10.518C20.6251 10.0686 19.7003 9.81914 18.7557 9.78959C16.7406 9.57807 14.7871 10.9954 13.7602 10.9954C12.7135 10.9954 11.1325 9.81059 9.43002 9.84561C8.32881 9.88119 7.2556 10.2014 6.31495 10.7751C5.37429 11.3488 4.59828 12.1563 4.06252 13.1191C1.74172 17.1372 3.47283 23.0424 5.69596 26.2904C6.80824 27.8808 8.10818 29.6573 9.80912 29.5943C11.4736 29.5253 12.0952 28.5329 14.1044 28.5329C16.0949 28.5329 16.6781 29.5943 18.4136 29.5543C20.1997 29.5253 21.325 27.9568 22.3982 26.3513C23.1974 25.2181 23.8123 23.9656 24.2203 22.6403C23.1827 22.2014 22.2972 21.4668 21.6742 20.528C21.0513 19.5893 20.7184 18.4879 20.7172 17.3613Z" fill="white"/>
<path d="M17.4418 7.65408C18.4156 6.48503 18.8954 4.98241 18.7792 3.46533C17.2914 3.6216 15.9171 4.33267 14.9301 5.45686C14.4475 6.00606 14.0779 6.64499 13.8424 7.33711C13.6069 8.02923 13.5102 8.76099 13.5576 9.49053C14.3018 9.49819 15.038 9.3369 15.7108 9.01879C16.3836 8.70069 16.9754 8.23407 17.4418 7.65408Z" fill="white"/>
</svg>
