<svg width="20" height="20" viewBox="0 0 20 20" fill="none" xmlns="http://www.w3.org/2000/svg">
<g clip-path="url(#clip0_5579_93828)">
<path d="M10.0003 1.66675C14.6027 1.66675 18.3337 5.39771 18.3337 10.0001C18.3337 14.6025 14.6027 18.3334 10.0003 18.3334C5.39795 18.3334 1.66699 14.6025 1.66699 10.0001C1.66699 5.39771 5.39795 1.66675 10.0003 1.66675ZM10.0003 5.83342C9.92979 5.83342 9.86012 5.85329 9.80013 5.89038C9.74024 5.92747 9.69164 5.98035 9.66016 6.04338L8.5778 8.22355L6.15755 8.57593C6.08793 8.58573 6.02183 8.6146 5.96794 8.65975C5.91405 8.70491 5.87422 8.76463 5.85238 8.83146C5.83056 8.89826 5.82744 8.96994 5.84424 9.03817C5.86109 9.10645 5.89716 9.169 5.94759 9.21802L7.69889 10.914L7.28548 13.3098C7.23256 13.6178 7.55725 13.8524 7.8348 13.707L10.0003 12.5758L12.1642 13.707C12.4422 13.852 12.7673 13.6182 12.7144 13.3106L12.3009 10.914L14.0522 9.21802C14.1029 9.16904 14.1386 9.10656 14.1556 9.03817C14.1725 8.96987 14.1701 8.89836 14.1483 8.83146C14.1264 8.76445 14.086 8.70497 14.0319 8.65975C13.978 8.61468 13.9127 8.58566 13.8431 8.57593L11.422 8.22355L10.3397 6.04338C10.3082 5.98034 10.2596 5.92747 10.1997 5.89038C10.1398 5.85335 10.0707 5.83348 10.0003 5.83342Z" fill="#052B57"/>
</g>
<defs>
<clipPath id="clip0_5579_93828">
<rect width="20" height="20" fill="white"/>
</clipPath>
</defs>
</svg>
