<svg width="20" height="20" viewBox="0 0 20 20" fill="none" xmlns="http://www.w3.org/2000/svg">
<g clip-path="url(#clip0_5579_93823)">
<path d="M10.0003 1.66675C14.6027 1.66675 18.3337 5.39771 18.3337 10.0001C18.3337 14.6025 14.6027 18.3334 10.0003 18.3334C5.39795 18.3334 1.66699 14.6025 1.66699 10.0001C1.66699 5.39771 5.39795 1.66675 10.0003 1.66675ZM5.26481 7.50008L3.33366 11.8751H4.59587L4.93685 11.0255H6.79232L7.1333 11.8751H8.42155L6.48389 7.50008H5.26481ZM8.52165 7.50008V11.8751H9.75944V10.7317H10.522C10.922 10.7317 11.2656 10.6664 11.5531 10.5372C11.8447 10.4039 12.0702 10.2165 12.2285 9.97485C12.3867 9.73325 12.4653 9.44777 12.4653 9.11873C12.4653 8.78544 12.3868 8.49775 12.2285 8.2561C12.0702 8.01029 11.8447 7.82293 11.5531 7.69377C11.2656 7.56465 10.9219 7.50008 10.522 7.50008H8.52165ZM12.8193 7.50008V11.8751H14.0563V10.7317H14.8188C15.2188 10.7317 15.5632 10.6664 15.8507 10.5372C16.1422 10.4039 16.3671 10.2164 16.5254 9.97485C16.6836 9.73322 16.763 9.44782 16.763 9.11873C16.763 8.78544 16.6837 8.49775 16.5254 8.2561C16.3671 8.01043 16.1422 7.8229 15.8507 7.69377C15.5632 7.5646 15.2188 7.50008 14.8188 7.50008H12.8193ZM6.42611 10.1124H5.30306L5.86458 8.71346L6.42611 10.1124ZM10.4471 8.47502C10.7051 8.47503 10.8967 8.53121 11.0216 8.64347C11.1508 8.75596 11.2153 8.91461 11.2153 9.11873C11.2153 9.31873 11.1508 9.47498 11.0216 9.58748C10.8967 9.69988 10.7053 9.75592 10.4471 9.75594H9.75944V8.47502H10.4471ZM14.744 8.47502C15.0023 8.47502 15.1943 8.531 15.3193 8.64347C15.4485 8.75596 15.513 8.91461 15.513 9.11873C15.513 9.31864 15.4484 9.475 15.3193 9.58748C15.1943 9.69998 15.0023 9.75594 14.744 9.75594H14.0563V8.47502H14.744Z" fill="#F8633C"/>
</g>
<defs>
<clipPath id="clip0_5579_93823">
<rect width="20" height="20" fill="white"/>
</clipPath>
</defs>
</svg>
