<svg width="24" height="24" viewBox="0 0 24 24" fill="none" xmlns="http://www.w3.org/2000/svg">
<path d="M14.5004 11.3317H10.8122C10.7919 11.3317 10.7838 11.3588 10.8 11.371L11.1999 11.6375L11.5647 11.8919C11.5809 11.9027 11.5998 11.9095 11.6201 11.9095L13.2278 11.9203C13.271 11.9203 13.3061 11.9636 13.3061 12.0163V12.2734C13.3061 12.5278 13.1454 12.609 12.9062 12.609H10.2961C10.1056 12.609 9.90294 12.4642 9.88943 12.2206V10.9353C9.90564 10.6823 10.0705 10.547 10.2596 10.547H12.8725C13.1345 10.547 13.2602 10.6525 13.2602 10.8473V10.9069H14.8827V10.7526C14.8827 10.3264 14.3896 10.0017 13.8938 10.0017H9.372C8.86403 10.0017 8.31146 10.317 8.31146 10.984V12.1733C8.31146 12.8079 8.87349 13.1556 9.38146 13.1556H13.9006C14.4599 13.1556 14.8827 12.9377 14.8827 12.1733V11.6619C14.8827 11.4264 14.8125 11.3317 14.5004 11.3317Z" fill="#464C53"/>
<path d="M8.32657 13.1585H6.40409C6.3487 13.1585 6.29331 13.1437 6.24603 13.1139L4.64238 12.0531C4.53971 11.9909 4.42081 11.9571 4.30058 11.9571H3.5859V13.1572H1.99982V10.002H3.58454V11.2021H4.29113C4.41136 11.2021 4.5289 11.1696 4.63157 11.1074L6.31898 10.0453C6.36626 10.0168 6.42165 10.002 6.47705 10.002H8.32657L6.06634 11.4794L5.47865 11.2968L8.32657 13.1558V13.1585Z" fill="#464C53"/>
<path d="M17.4631 10H15.5258V13.1566H17.1051V10.8849L18.3183 12.0268H19.3491L20.4219 10.8849V13.1566H21.9998V10H20.0638L18.902 11.1L19.3248 11.6493L17.4631 10Z" fill="#464C53"/>
</svg>
