<svg width="24" height="24" viewBox="0 0 24 24" fill="none" xmlns="http://www.w3.org/2000/svg">
<path fill-rule="evenodd" clip-rule="evenodd" d="M13.885 12.6453C14.0222 13.3531 13.6506 13.942 13.343 14.5127C12.9999 15.0432 12.435 15.5007 11.7546 15.432C10.2292 15.4092 8.73919 15.1747 7.35668 14.7585C7.29379 14.7414 7.23089 14.7013 7.19659 14.6442C7.168 14.5641 7.20802 14.4898 7.2652 14.4383C8.52764 13.416 10.0291 12.9415 11.5145 12.4452C12.0691 12.2851 12.6569 12.1136 13.279 12.1936C13.5362 12.2279 13.7935 12.4051 13.8839 12.6453M19.088 9.6184C19.7959 10.2004 20.4362 10.9952 20.219 11.9546C19.8645 13.3714 18.323 14.125 17.0949 14.6041C16.4271 14.8271 15.7524 15.0558 15.0217 15.1233C14.9759 15.1176 14.9016 15.129 14.8902 15.0604L14.9073 14.9804C15.9468 13.8094 16.7347 12.4966 17.4265 11.1656C17.7467 10.5664 18.0429 9.94887 18.3173 9.34395C18.3573 9.29821 18.3973 9.27534 18.4431 9.25819C18.7004 9.28106 18.8822 9.48118 19.088 9.6184ZM9.12113 8.11124L9.09826 8.19701C7.59682 9.90428 6.60767 11.886 5.67113 13.8574C5.48817 14.0289 5.31093 13.8002 5.14512 13.7259C4.31149 13.1782 3.55791 12.2919 3.77404 11.241C4.12281 9.86997 5.53277 9.13926 6.70945 8.64298C7.40585 8.37997 8.13198 8.16842 8.897 8.04835C8.97704 8.04835 9.07996 8.03691 9.11998 8.11124M16.5746 8.38454C16.6603 8.43028 16.7633 8.44744 16.8147 8.5332C16.8605 8.6304 16.769 8.69329 16.7175 8.75619C15.5351 9.68129 14.1812 10.1959 12.7998 10.6464C12.0977 10.8179 11.3887 11.1256 10.6066 10.9552C10.4236 10.9094 10.2578 10.7894 10.1549 10.6121C9.96047 10.0758 10.2235 9.51548 10.4522 9.04664C10.7552 8.45887 11.2915 7.76704 12.0348 7.75561C13.6334 7.74417 15.1417 7.98431 16.5757 8.38454M18.5506 8.43028C19.7616 9.09238 21.1326 10.2576 20.9897 11.8117C20.8239 13.2514 19.4814 14.2565 18.2818 14.8614C14.7804 16.5344 9.86327 16.5858 6.24747 15.1244C5.02505 14.6167 3.65397 13.7419 3.14053 12.4292C2.74602 11.3497 3.22629 10.2245 4.03133 9.4766C5.71687 7.94543 7.8644 7.41941 10.0748 7.11752C12.4739 6.82593 14.9977 7.08322 17.1452 7.81964C17.6255 7.99689 18.0989 8.19129 18.5506 8.43028Z" fill="#464C53"/>
</svg>
