<svg width="24" height="24" viewBox="0 0 24 24" fill="none" xmlns="http://www.w3.org/2000/svg">
<path d="M19.0574 11.2072L18.1244 12.9274H14.2008V14.1328H9.80331V12.9274H4.94694L5.87993 11.2072H9.80343V10.0016H14.2009V11.2072H19.0574ZM20.9279 10.5041H14.9393V9.41777C14.9393 9.35646 14.8864 9.30676 14.8213 9.30676H9.17872C9.11368 9.30676 9.06088 9.35636 9.06088 9.41777V10.5041H4.76861C4.70358 10.5041 4.62382 10.5537 4.59082 10.615L3.01441 13.521C2.9813 13.5822 3.00716 13.6318 3.07231 13.6318H9.06088V14.7184C9.06088 14.7795 9.11368 14.8291 9.17872 14.8291H14.8213C14.8864 14.8291 14.9393 14.7795 14.9393 14.7184V13.6318H19.2315C19.2966 13.6318 19.3763 13.5822 19.4094 13.521L20.9855 10.615C21.0188 10.5537 20.9929 10.5041 20.9279 10.5041Z" fill="#464C53"/>
</svg>
