<svg width="24" height="24" viewBox="0 0 24 24" fill="none" xmlns="http://www.w3.org/2000/svg">
<path d="M0 9C0 4.02944 4.02944 0 9 0H15C19.9706 0 24 4.02944 24 9V15C24 19.9706 19.9706 24 15 24H9C4.02944 24 0 19.9706 0 15V9Z" fill="#E2E8EF"/>
<g clip-path="url(#clip0_23311_20453)">
<path d="M15.6623 17.0011C15.4005 15.4173 14.968 13.8222 14.4899 12.3521C13.4882 13.2205 12.4809 14.0493 11.519 14.8043C13.3403 15.7125 14.9566 16.5469 15.6623 17.0011Z" fill="#E31736"/>
<path d="M11.9175 6C11.9175 6 11.024 9.10501 10.3638 10.5979C11.3199 10.3709 12.3671 10.0643 13.5111 9.64995C12.6631 7.48155 11.9118 6 11.9118 6H11.9175Z" fill="#E31736"/>
<path d="M10.3694 10.5978C5.81637 11.6877 3.5 10.9555 3.5 10.9555C3.5 10.9555 6.11801 12.1759 8.96368 13.5553C8.10998 15.2412 7.24489 16.8079 6.59608 17.9999C7.61483 17.648 9.45882 16.4105 11.5191 14.8098C12.4809 14.0605 13.4883 13.226 14.49 12.3575C16.8234 10.3254 19.0942 8.11724 20.5 6.3916C17.8706 7.88451 15.5429 8.92897 13.5167 9.64988C12.3728 10.0586 11.3199 10.3708 10.3694 10.5978Z" fill="#00A94F"/>
</g>
<defs>
<clipPath id="clip0_23311_20453">
<rect width="17" height="12" fill="white" transform="translate(3.5 6)"/>
</clipPath>
</defs>
</svg>
