<svg width="24" height="24" viewBox="0 0 24 24" fill="none" xmlns="http://www.w3.org/2000/svg">
<path d="M0 9C0 4.02944 4.02944 0 9 0H15C19.9706 0 24 4.02944 24 9V15C24 19.9706 19.9706 24 15 24H9C4.02944 24 0 19.9706 0 15V9Z" fill="#0071BC"/>
<path d="M12.025 14.9204C10.0946 15.1461 9.24221 15.7979 8.66559 16.525C9.64334 16.8759 10.7715 17.0514 12 17.0514C16.2871 17.0514 19.2705 14.7951 19.2705 11.9872C19.2705 11.7615 19.2454 11.4858 19.1952 11.2601C19.0448 14.5444 14.131 14.6447 12.025 14.9204Z" fill="white"/>
<path fill-rule="evenodd" clip-rule="evenodd" d="M15.9167 13.374C14.9229 13.7346 13.9189 13.9294 13.404 14.0185C10.9721 14.4447 9.01663 15.1718 8.49014 16.4754C6.18365 15.6481 4.72955 13.9684 4.72955 12.0129C4.72955 9.20496 7.73803 6.94861 12 6.94861C13.5544 6.94861 14.9333 7.22438 16.0615 7.7258C17.4905 8.42777 18.4181 9.40552 18.6187 10.3331C18.8645 11.5273 18.0278 12.3607 16.9333 12.9328C17.1156 12.734 17.2124 12.4746 17.2124 12.1629C17.2375 11.6865 16.8113 11.3105 16.2347 11.16C16.6358 11.0598 16.9868 10.7088 16.9868 10.2074C16.9868 9.65581 16.4854 9.3299 15.6831 9.3299H14.4547V9.35497C14.4547 9.35497 14.4797 9.50539 14.4797 9.88145V13.3913H14.5048H15.5828C15.6997 13.3913 15.8111 13.3855 15.9167 13.374ZM6.43317 9.35471H7.86219C9.14079 9.35471 9.94305 10.0818 9.94305 11.2601C9.94305 12.5387 9.09065 13.4161 7.81205 13.4161C7.21035 13.4161 6.55852 13.3911 6.55852 13.3911H6.53345V10.0818C6.53345 9.85612 6.53345 9.55527 6.48331 9.40485L6.43317 9.35471ZM7.29997 9.7221C7.22605 9.72684 7.1649 9.73076 7.13514 9.73076V12.6891C7.13514 13.1153 7.18528 13.1404 7.86219 13.1404C8.81487 13.1404 9.26614 12.5637 9.26614 11.3854C9.26614 10.2322 8.76473 9.70569 7.66162 9.70569C7.55556 9.70569 7.41287 9.71485 7.29997 9.7221ZM13.8031 13.3663C13.778 13.1407 13.778 12.9652 13.778 12.8399V11.4108H13.1011L13.1262 11.461C13.1262 11.461 13.2014 11.5863 13.2014 11.8872C13.2014 11.8872 13.2014 12.8649 13.1763 13.0906C13.0259 13.1407 12.7752 13.1407 12.6498 13.1407H12.6498C11.5718 13.1407 11.0202 12.5139 11.0202 11.3105C11.0202 10.3579 11.647 9.68096 12.5245 9.60575C13.0008 9.58068 13.4521 9.70603 13.7028 9.95674L13.7529 9.98181V9.40518H13.7279C13.427 9.35504 13.1262 9.3049 12.7752 9.3049C11.2208 9.3049 10.2681 10.1322 10.2681 11.486C10.2681 12.9652 11.3963 13.4666 12.4743 13.4666C12.9256 13.4666 13.402 13.4415 13.7529 13.3914H13.778L13.8031 13.3663ZM15.4324 11.3606H15.1065V12.6894C15.1065 13.0153 15.2318 13.1156 15.5578 13.1156C16.2096 13.1156 16.5355 12.8147 16.5355 12.213C16.5355 11.6615 16.1595 11.3606 15.4324 11.3606ZM15.5076 9.68088H15.1065V11.0347H15.3572C16.0592 11.0347 16.4102 10.8091 16.4102 10.3076C16.4102 9.85638 16.1344 9.68088 15.5076 9.68088Z" fill="white"/>
</svg>
