<svg width="24" height="24" viewBox="0 0 24 24" fill="none" xmlns="http://www.w3.org/2000/svg">
<path d="M0 9C0 4.02944 4.02944 0 9 0H15C19.9706 0 24 4.02944 24 9V15C24 19.9706 19.9706 24 15 24H9C4.02944 24 0 19.9706 0 15V9Z" fill="#E2E8EF"/>
<g clip-path="url(#clip0_23315_219465)">
<path d="M12.1505 13.517V11.6842L11.3705 12.8744H11.3542L10.5665 11.6973V13.517H9.97961V10.7046H10.6342L11.3705 11.8806L12.1036 10.7013H12.7374V13.517H12.1505ZM14.4011 13.5475C13.6505 13.5475 13.2011 13.1297 13.2011 12.3082V10.7046H13.788V12.2951C13.788 12.7522 14.0302 12.9846 14.4033 12.9846C14.7763 12.9846 15.0196 12.7588 15.0196 12.3159V10.7046H15.6065V12.2908C15.612 13.1373 15.1516 13.5508 14.4011 13.5508V13.5475ZM16.668 11.2871V11.8806H17.8996V12.4664H16.668V13.517H16.0822V10.7046H18.252V11.2904L16.668 11.2871ZM19.8316 13.5508C18.9589 13.5508 18.3731 12.941 18.3731 12.1173V12.1097C18.3633 11.322 18.9938 10.6751 19.7825 10.6653H19.8283C20.2287 10.6435 20.6203 10.782 20.9193 11.0493L20.5276 11.513C20.4316 11.4212 20.3183 11.3492 20.1944 11.3013C20.0704 11.2534 19.9383 11.2304 19.8054 11.2337C19.3582 11.2337 19.0134 11.6308 19.0134 12.1064V12.1151C19.0134 12.6246 19.356 12.9999 19.8523 12.9999C20.0548 13.0026 20.2533 12.944 20.4218 12.8319V12.462H19.776V11.8806H21.0054V13.1122C20.6795 13.3979 20.2606 13.555 19.8273 13.554L19.8316 13.5508Z" fill="#5A5A5A"/>
<path d="M6.83791 9.99984C6.54118 9.99984 6.24664 10.062 5.97609 10.1842C4.91137 9.70748 3.66228 10.1842 3.18555 11.2489C2.70882 12.3137 3.18555 13.5628 4.25028 14.0395C4.52176 14.1609 4.8158 14.2236 5.11318 14.2236C5.41057 14.2236 5.70461 14.1609 5.97609 14.0395C6.24688 14.1618 6.54076 14.2247 6.83791 14.2238C8.00409 14.2238 8.94991 13.2791 8.94991 12.1118C8.94991 10.9468 8.00409 9.99984 6.83791 9.99984ZM5.97609 14.0198C4.92228 14.0198 4.067 13.1646 4.067 12.1108C4.067 11.0569 4.92118 10.2017 5.97609 10.2017C7.031 10.2017 7.88518 11.0569 7.88518 12.1108V12.1129C7.88518 13.1657 7.031 14.0198 5.97828 14.0198H5.97609ZM6.85428 12.1129C6.85428 12.5984 6.45937 12.9922 5.97391 12.9911C5.48846 12.9911 5.09464 12.5962 5.09573 12.1108C5.09573 11.6253 5.49064 11.2315 5.97609 11.2326C6.46155 11.2326 6.85428 11.6253 6.85428 12.1108V12.1129Z" fill="#E60000"/>
</g>
<defs>
<clipPath id="clip0_23315_219465">
<rect width="18" height="4.25455" fill="white" transform="translate(3 10)"/>
</clipPath>
</defs>
</svg>
