<svg width="24" height="24" viewBox="0 0 24 24" fill="none" xmlns="http://www.w3.org/2000/svg">
<path d="M0 9C0 4.02944 4.02944 0 9 0H15C19.9706 0 24 4.02944 24 9V15C24 19.9706 19.9706 24 15 24H9C4.02944 24 0 19.9706 0 15V9Z" fill="#B10A32"/>
<path fill-rule="evenodd" clip-rule="evenodd" d="M13.2148 13.8381L10.259 13.8373C10.259 13.8373 10.1696 13.8274 10.1245 13.749C10.0802 13.6724 10.0919 13.6316 10.0919 13.6316V10.8765C10.0919 10.8765 10.0884 10.7787 10.1408 10.7201C10.1912 10.6639 10.2838 10.6613 10.2838 10.6613H14.1783C14.1783 10.6613 14.2407 10.6517 14.3123 10.6916C14.3744 10.7251 14.4084 10.8544 14.4084 10.8544V13.6817C14.4084 13.6817 14.3744 13.7604 14.3403 13.788C14.3097 13.8143 14.2456 13.8364 14.2456 13.8364L13.2148 13.8381ZM13.1921 8.88921V5.84139C16.3221 6.29693 18.7265 8.99174 18.7265 12.2478C18.7265 15.5036 16.3276 18.2022 13.1979 18.6592L13.1927 15.5904H14.4073C15.4212 15.5904 16.1659 14.8305 16.1659 13.8169V10.6412C16.1659 9.62787 15.3586 8.88776 14.3446 8.88776L13.1921 8.88921ZM8.29794 10.6412C8.29794 9.62787 8.91455 8.8828 9.92758 8.8828L11.277 8.87873V5.84867C8.16279 6.31849 5.77411 9.00281 5.77411 12.2478C5.77411 15.4934 8.16308 18.1847 11.277 18.6539L11.2721 15.6125L10.1434 15.6117C9.12922 15.6117 8.29794 14.8302 8.29794 13.8169V10.6412ZM4 12.2478C4 7.69269 7.69414 4 12.2501 4C16.8067 4 20.5 7.69298 20.5 12.2478C20.5 16.805 16.8064 20.4974 12.2501 20.4974C7.69414 20.4974 4 16.8053 4 12.2478Z" fill="white"/>
</svg>
