<svg width="24" height="24" viewBox="0 0 24 24" fill="none" xmlns="http://www.w3.org/2000/svg">
<path d="M0 9C0 4.02944 4.02944 0 9 0H15C19.9706 0 24 4.02944 24 9V15C24 19.9706 19.9706 24 15 24H9C4.02944 24 0 19.9706 0 15V9Z" fill="#E2E8EF"/>
<path d="M6.15002 14.8447V14.7033V14.8447ZM13.9866 8.48799C13.2147 8.48799 12.4889 8.7123 11.8773 9.10659L9.80755 10.4428V5.80005L6.1501 8.8788L6.15002 14.7033C6.15002 16.4311 7.28068 17.9026 8.84348 18.4165L9.54183 18.6342C8.11106 17.9255 7.13232 16.4877 7.13232 14.8183C7.13232 12.4565 9.11851 10.5373 11.5597 10.5373C13.8441 10.5373 15.7215 12.2066 15.9569 14.3593L13.4417 14.3559C13.2202 13.5127 12.4514 12.8934 11.542 12.8934C11.2844 12.8928 11.0292 12.9431 10.7912 13.0413C10.5531 13.1396 10.3367 13.2839 10.1545 13.466C9.97236 13.6481 9.82795 13.8644 9.72959 14.1025C9.63122 14.3405 9.58085 14.5957 9.58134 14.8532C9.58134 15.9288 10.4544 16.8084 11.542 16.8084C12.5412 16.8084 13.3674 16.0609 13.4832 15.0933L15.9771 15.0907C15.9199 15.9594 15.5999 16.7526 15.096 17.4002C15.096 17.4002 16.6395 15.5949 17.1673 14.7804C17.6453 14.0375 17.9095 13.2718 17.9095 12.4022C17.9095 10.2383 16.1544 8.48799 13.9866 8.48799Z" fill="#003B77"/>
</svg>
