<svg width="32" height="32" viewBox="0 0 32 32" fill="none" xmlns="http://www.w3.org/2000/svg">
<path d="M0 12C0 5.37258 5.37258 0 12 0H20C26.6274 0 32 5.37258 32 12V20C32 26.6274 26.6274 32 20 32H12C5.37258 32 0 26.6274 0 20V12Z" fill="#F1F2F4"/>
<g clip-path="url(#clip0_97_11357)">
<path d="M21.0471 18.326H21.0322L21.006 18.2886H20.991L20.9312 18.2139L20.8901 18.1765V18.1653L20.8639 18.1428V18.1316H20.8564L20.8415 18.1129H20.8303L20.8228 18.098L20.7891 18.0867V18.0793L20.763 18.068V18.0606L20.7368 18.0494L20.7293 18.0344L20.6882 18.0157V18.0082L20.6695 17.997L20.662 17.9821L20.6359 17.9708L20.6284 17.9559H20.6134L20.606 17.9409L20.5873 17.9297L20.576 17.9073H20.5611L20.5536 17.8923H20.5387L20.5125 17.855H20.4975L20.4452 17.7877H20.434V17.7802L20.4153 17.7652V17.754L20.3629 17.7017V17.6905L20.348 17.683L20.3256 17.6531V17.6419L20.3592 17.6045H20.3742L20.3891 17.5895H20.4003L20.4078 17.582H20.4265V17.5746H20.4377L20.4452 17.5671H20.4602L20.4676 17.5596H20.4826L20.4901 17.5521H20.5088L20.5274 17.5297H20.5424L20.5499 17.5222H20.5648L20.606 17.4886H20.6284V17.4736L20.6695 17.4437L20.6957 17.4288L20.7032 17.4101L20.7219 17.4026V17.3914L20.7405 17.3839V17.3727H20.7555V17.3577H20.7667V17.3428H20.7817L20.7891 17.3203H20.7966L20.8041 17.2979H20.8191L20.8265 17.2717H20.8452L20.8639 17.2456H20.8789L20.8901 17.2306H20.905L20.9125 17.2231H20.9275L20.9536 17.2007H20.9686L21.0135 17.1633H21.0247L21.0322 17.1558L21.0508 17.1484V17.1334H21.0583L21.0845 17.111H21.0994V17.0998L21.1144 17.0848L21.1406 17.0699V17.0586L21.1593 17.0512V17.0399L21.1817 17.0325V17.0213H21.1966V17.0026H21.2116V16.9839L21.2714 16.9465V16.9353L21.3238 16.9203V16.9091L21.3611 16.8979V16.8867L21.421 16.8605V16.8493H21.4322L21.4808 16.7895H21.492V16.7782H21.5069V16.767H21.5219L21.5481 16.7371V16.7184L21.5668 16.7109L21.578 16.6773H21.5929L21.6042 16.6399H21.6154V16.6175H21.6303V16.5951H21.6453L21.6528 16.5689H21.6602L21.6677 16.5278H21.6752V16.5165H21.6827V16.4941H21.6901V16.4829H21.6976V16.453H21.7126V16.4044H21.7275V16.3446H21.7425V16.2362H21.75V16.2137H21.7574L21.7425 16.1315V16.0268L21.7275 16.0193V15.9632L21.7126 15.9558V15.9109L21.6976 15.9034V15.8735H21.6901V15.8586H21.6827V15.8324H21.6752V15.8137H21.6677V15.7987H21.6602V15.7726H21.6528L21.6453 15.7389H21.6303V15.7314H21.6415L21.649 15.7464H21.664L21.6789 15.7688H21.6901L21.6976 15.7838H21.7126L21.7387 15.8212H21.75L21.8023 15.8885L21.8434 15.9221L21.8621 15.9558H21.8733L21.8808 15.9782L21.9145 16.0081V16.0193L21.9481 16.0492V16.0604L21.9631 16.0679V16.0791L21.9817 16.0941V16.1053L21.9967 16.1128V16.124L22.0117 16.1315L22.0191 16.1502H22.0266L22.4341 16.6025L22.4453 16.61V16.625L22.4603 16.6324L22.4678 16.6511H22.4752L22.5687 16.7596H22.5799L22.5949 16.782H22.6098L22.6323 16.8119H22.6435L22.6659 16.8418H22.6771L22.7182 16.8941L22.8042 16.9839L22.8304 17.0175L22.9426 17.1371L22.95 17.1484L22.9762 17.1596L22.9837 17.1745L23.0099 17.1857L23.0173 17.2007L23.2753 17.4549H23.2902L23.3089 17.4923H23.3164V17.5073L23.3314 17.5147V17.5222L23.3463 17.5297V17.5409L23.3575 17.5484V17.5596L23.3762 17.5746L23.4847 17.6867H23.4996L23.5071 17.7017H23.522L23.537 17.7241H23.5519L23.5632 17.7465H23.5781L23.5968 17.7764H23.6118L23.6641 17.8437H23.6791V17.8512L23.6977 17.8699V17.8811L23.7576 17.9409L23.8436 18.0232L23.8585 18.0307V18.0381L23.8697 18.0456L23.8959 18.0568L23.9295 18.083L23.937 18.098L23.9557 18.1129H23.9707L23.9894 18.1316L23.9968 18.1466L24.0193 18.1615H24.0305L24.0454 18.1765L24.0529 18.1914L24.1613 18.2961L24.3146 18.4531L24.3296 18.4681H24.3408L24.3483 18.483L24.6885 18.7933V18.8008L24.7072 18.8158L24.9053 19.0326H24.9165L24.9427 19.07H24.9539L24.9614 19.0849L25.0025 19.1223L25.0287 19.1522L25.0623 19.1934L25.0885 19.227L25.1072 19.2569L25.1221 19.2756L25.1408 19.3167L25.167 19.3504L25.182 19.3765L25.1894 19.3915L25.2119 19.4326V19.4476L25.2193 19.4513L25.2268 19.4775H25.2343V19.4924L25.2418 19.4999V19.5111H25.2493V19.5298H25.2567V19.5485H25.2642V19.5672H25.2717L25.3128 19.7541V19.8252H25.3203L25.3165 19.9822H25.3091V20.0233H25.3016V20.0532H25.2941V20.0831H25.2866V20.1056H25.2792V20.128H25.2717V20.1467H25.2679L25.2605 20.1878H25.253V20.199H25.2455V20.2177H25.238V20.2289H25.2306V20.2439H25.2231L25.2119 20.2775H25.2044V20.2888H25.1969V20.3H25.1894V20.3112H25.182L25.167 20.3448H25.1595L25.1521 20.3598H25.1408L25.1334 20.386H25.1184V20.4009L25.0997 20.4121V20.4233L25.081 20.4308V20.442L25.0548 20.457V20.4682L24.995 20.5056L24.9427 20.5505H24.9277L24.909 20.5692H24.8941L24.8791 20.5804H24.8642L24.8492 20.5953H24.838L24.8305 20.6028H24.8118V20.6103H24.7857L24.7782 20.6215H24.7408L24.7333 20.6364L24.6735 20.6439V20.6514H24.6473V20.6589H24.6287H24.6174H24.5987H24.5801H24.5614H24.5427H24.5165H24.4903L24.4567 20.6514V20.6589C24.4567 20.6589 24.2585 20.6327 24.18 20.614C24.1015 20.5953 23.8996 20.5205 23.8996 20.5205L23.8697 20.5093H23.8622V20.4981L23.8286 20.4869L23.8024 20.4682L23.7837 20.4607V20.4533L23.7576 20.442V20.4346L23.7314 20.4233L23.7239 20.4084L23.6828 20.3897V20.3822L23.4884 20.2626V20.2551H23.4622V20.2439H23.4435V20.2327H23.4248V20.2215L23.4061 20.2102L23.0996 20.0009H23.0884L23.0622 19.9635H23.051L22.864 19.8177V19.8102L22.8379 19.799V19.7915H22.8192V19.7803L22.7781 19.7616V19.7541H22.7631V19.7467L22.7369 19.7355L22.7295 19.7205L22.6921 19.7018L22.6846 19.6868H22.6734V19.6794L22.6547 19.6682L22.6472 19.6532H22.636L22.621 19.6308H22.6061L22.5986 19.6158H22.5837L22.5575 19.5784H22.5425L22.322 19.3952V19.3878L22.2808 19.3691V19.3616H22.2696V19.3541H22.2547V19.3466L22.2135 19.3279L22.2061 19.313L22.1799 19.3018L22.1724 19.2868L22.1462 19.2756L22.135 19.2532H22.1201L22.1126 19.2382H22.0976L22.0827 19.2158C22.0827 19.2158 21.8584 19.0363 21.7724 18.9578C21.6864 18.8793 21.4135 18.6363 21.3836 18.6027L21.3574 18.5802V18.569L21.3238 18.5391L21.3163 18.5204L21.3051 18.498L21.0658 18.2849L21.0471 18.326Z" fill="#AACF53"/>
<path d="M16.2581 16.8869V16.8981L16.3104 16.9317V16.9467L16.3665 16.9803V16.9916L16.3852 16.9953V17.0028L16.3926 17.014L16.4113 17.0364L16.4263 17.0402V17.0588L16.4412 17.0626L16.4525 17.0925L16.4599 17.0962V17.1074L16.4749 17.1187V17.1336L16.4861 17.1374L16.4898 17.1486L16.5011 17.1523L16.516 17.186L16.5272 17.1897V17.2009L16.5422 17.2046L16.5758 17.2607H16.5908V17.2719L16.6431 17.3131V17.328L16.6581 17.3318V17.343L16.6917 17.3617V17.3729L16.7067 17.3766V17.3878L16.7515 17.414L16.759 17.429L16.7777 17.4327L16.7852 17.4477H16.8001V17.4551L16.8188 17.4663V17.4776L16.845 17.4813V17.4963L16.8787 17.515L16.9759 17.6308V17.6421L16.9871 17.6458L17.0618 17.728V17.7393H17.0768V17.7542L17.0992 17.758V17.7692L17.1105 17.7729V17.7841L17.2002 17.8439L17.2263 17.8664V17.8739L17.2376 17.8776V17.8813L17.2525 17.8851L17.26 17.8963L17.2787 17.9L17.2862 17.915L17.3049 17.9187V17.9262L17.3348 17.9374V17.9486L17.3684 17.9673V17.9785L17.3796 17.9823V17.9935L17.3946 17.9972L17.417 18.0197V18.0309L17.4282 18.0346V18.0458L17.4432 18.0496L17.4768 18.087V18.0982L17.488 18.1019L17.5965 18.1954V18.2066L17.6189 18.2103V18.2215L17.6525 18.2402V18.2477L17.6712 18.2514V18.2589L17.6974 18.2701V18.2814L17.7273 18.2851V18.3L17.7722 18.315L17.7797 18.3262L17.8058 18.3337V18.3449L17.8395 18.3487L17.8469 18.3636L17.8806 18.3711V18.3748L17.903 18.3823V18.386L17.9292 18.3935V18.3973L17.9741 18.4047L17.9815 18.4197L18.0563 18.4346L18.0638 18.4496L18.1311 18.4608V18.4645L18.1498 18.4683V18.4758L18.1834 18.4832V18.487L18.1984 18.4907L18.2021 18.5057L18.2582 18.5206V18.5318L18.4975 18.6029L18.5872 18.6178V18.6141H18.6021V18.6104L18.7255 18.6216V18.6066L18.8489 18.5991V18.5879H18.8676L18.8601 18.5917V18.6029L18.8302 18.6216L18.7891 18.6515V18.6627L18.7704 18.6664L18.7255 18.7038H18.7106L18.6919 18.7225H18.6769L18.6582 18.7412L18.6433 18.7375L18.632 18.7562L18.6171 18.7524L18.6134 18.7636L18.5909 18.7674V18.7711H18.5797L18.5722 18.7786L18.5535 18.7823V18.7898L18.5124 18.7935L18.5049 18.8048H18.4825V18.8122L18.4676 18.8085V18.816L18.4526 18.8122V18.8197L18.4152 18.8234V18.8309L18.3965 18.8272V18.8309L18.3928 18.8496L18.3816 18.8459L18.3479 18.8758L18.318 18.8721V18.887L18.2769 18.9094L18.2171 18.958L18.2059 18.9543L18.1535 18.9879L18.075 19.0253L18.0563 19.0291V19.0328L18.0414 19.0291L18.0339 19.0403L18.0077 19.044L18.0002 19.0552L17.989 19.0515L17.9778 19.0627L17.9628 19.059V19.0627H17.9479V19.0702L17.9367 19.0665V19.0739L17.9217 19.0702V19.0777L17.9105 19.0739V19.0777H17.8955V19.0851L17.8582 19.0889V19.0926L17.8357 19.0889V19.0964L17.8245 19.0926V19.1001L17.8058 19.0964V19.1038L17.7871 19.1076V19.1151L17.7647 19.1113V19.1188L17.746 19.1151V19.1188L17.6525 19.1562L17.6264 19.1824L17.6152 19.1786L17.589 19.2048H17.574L17.5628 19.2197L17.5479 19.216L17.5366 19.231H17.5217L17.518 19.2422H17.4918L17.4843 19.2534L17.4656 19.2571V19.2609L17.4357 19.2646L17.432 19.2721L17.3908 19.2796V19.2833H17.3796V19.287H17.3647V19.2908H17.3535V19.2945L17.3123 19.302V19.3057L17.2936 19.302V19.3095L17.2787 19.3057V19.3132L17.26 19.3095V19.3132H17.245V19.3169L17.2263 19.3132V19.3207L17.2077 19.3169V19.3244L17.0843 19.373L17.0693 19.3693L17.0432 19.3954L17.0319 19.3917L17.017 19.4104L17.0058 19.4067L16.9908 19.4216L16.9759 19.4179L16.9721 19.4328L16.9572 19.4291L16.946 19.4441L16.9198 19.4478L16.9123 19.459H16.8861L16.8787 19.4702L16.8413 19.474L16.8338 19.4852L16.8151 19.4814L16.8076 19.4927L16.5908 19.53L16.5646 19.5263V19.53L16.5384 19.5263V19.5338L16.5123 19.53V19.5338L16.4861 19.53V19.5375L16.4525 19.53V19.5375L16.4188 19.53V19.5375L16.3665 19.5263V19.53L16.1235 19.4927V19.4852L16.0412 19.4702V19.4665L15.9889 19.4553V19.4515L15.9515 19.4441V19.4366L15.9216 19.4328V19.4254L15.8879 19.4179V19.4141L15.8169 19.388V19.3805L15.7982 19.3768V19.373L15.7496 19.3581V19.3506H15.7384V19.3431L15.716 19.3394V19.3319H15.7047V19.3244L15.6861 19.3207V19.3132L15.6561 19.302V19.2982L15.6375 19.2945V19.287L15.5963 19.2683V19.2609H15.5851V19.2534L15.5589 19.2422L15.5515 19.231L15.5103 19.2085L15.5066 19.1973L15.4767 19.1861V19.1786L15.458 19.1674L15.4505 19.1562L15.4393 19.1524L15.4318 19.1412L15.4169 19.1375L15.4057 19.1188L15.3907 19.1151L15.3795 19.0926H15.3645L15.3533 19.0702L15.3309 19.059L15.2711 18.9879H15.2599L15.2113 18.9244L15.2 18.9207L15.1664 18.8795V18.8646L15.1514 18.8571V18.8496L15.1365 18.8421V18.8309L15.1178 18.816V18.801L15.0991 18.7861V18.7748L15.0841 18.7674L15.0767 18.7449H15.0729L15.0692 18.7337L15.058 18.7262L15.0505 18.7038H15.043L15.0355 18.6776L15.0243 18.6702V18.659L15.0094 18.644V18.629H15.0056L15.0019 18.6178L14.9982 18.6141V18.6029H14.9907L14.9757 18.5617H14.972L14.9645 18.5318L14.957 18.5281V18.5169H14.9496V18.4982H14.9421L14.9346 18.472L14.9309 18.4683L14.9159 18.4047H14.9084V18.386H14.901V18.3673H14.8972L14.886 18.3225H14.8823V18.2963H14.8748L14.8673 18.2215L14.8823 17.7094H14.886V17.6907H14.8935V17.672L14.901 17.6757L14.9197 17.5972L14.9271 17.6009V17.5897H14.9309V17.571H14.9383L14.9458 17.5486L14.9496 17.5523V17.5336H14.957L14.9645 17.5112H14.972V17.4925L14.9832 17.4888V17.4776L14.9982 17.4663V17.4551H15.0019V17.4439H15.0094V17.4327L15.0243 17.429L15.0281 17.4065L15.043 17.4028V17.3916L15.0542 17.3878L15.0617 17.3654L15.0729 17.3617V17.3467L15.0954 17.3392V17.328L15.1141 17.3168V17.3056L15.144 17.2906V17.2757L15.1739 17.2645V17.2495L15.1851 17.242L15.2038 17.2383V17.2271L15.2187 17.2233L15.23 17.2084L15.2636 17.1934V17.1822L15.2748 17.1747H15.2898L15.3085 17.156H15.3234L15.3496 17.1336H15.3608L15.3758 17.1187L15.387 17.1224L15.4019 17.1074H15.4131L15.4206 17.0962H15.4468L15.4543 17.085L15.473 17.0813V17.0738H15.4991L15.5066 17.0626L15.5178 17.0663L15.5328 17.0551L15.5477 17.0588V17.0514L15.5589 17.0551V17.0514H15.5739L15.5776 17.0402L15.5963 17.0439V17.0402L15.6262 17.0364L15.6225 17.0327L15.6449 17.0364V17.0289H15.6711V17.0215L15.6898 17.0252V17.0177L15.7047 17.0215V17.014H15.787V17.0065L15.8094 17.0102V17.0028L15.8281 17.0065V17.0028H15.9066L15.9141 16.9953H15.9291L15.9403 16.9803L15.9515 16.9841L15.9664 16.9654L15.9814 16.9691L15.9926 16.9542L16.0076 16.9579L16.0113 16.9467L16.0375 16.943L16.045 16.9317L16.0562 16.9355L16.0674 16.9243L16.0786 16.928L16.0861 16.9168L16.0973 16.9205L16.1085 16.9093H16.1235V16.9056H16.1384V16.9018H16.1496L16.2468 16.8794L16.2581 16.8869Z" fill="#AACF53"/>
<path d="M18.3928 15.8365L18.3741 15.8589L18.3591 15.8627V15.8739L18.3479 15.8851L18.3329 15.8814L18.3255 15.8926L18.3143 15.8889V15.8963L18.303 15.8926V15.9001L18.2806 15.8963V15.9001L18.2432 15.9075V15.9113H18.2283V15.915L18.1909 15.9225L18.1834 15.9337H18.1572L18.1498 15.9449L18.1385 15.9412L18.1311 15.9524L18.1161 15.9487L18.1124 15.9599H18.0974L18.0899 15.9711L18.0787 15.9674L18.0712 15.9786L18.0376 15.9861L18.0413 15.9898V16.001L18.0675 16.0197V16.0309L18.1198 16.072L18.1236 16.0833L18.1348 16.087V16.0982L18.1498 16.102V16.1132L18.161 16.1169V16.1281L18.1759 16.1319L18.2096 16.1879H18.2245L18.2395 16.2216L18.2507 16.2253V16.2365L18.2656 16.2403L18.2993 16.315H18.3105L18.3404 16.3711L18.3666 16.401L18.4077 16.4197V16.4347L18.4339 16.4422V16.4571L18.4675 16.4758V16.487L18.4825 16.4908V16.502L18.4937 16.5057L18.4974 16.5169L18.5311 16.5543L18.5423 16.5581V16.5693L18.5573 16.573V16.5842H18.5685L18.6171 16.6627L18.632 16.6665V16.6777L18.6432 16.6814V16.7001H18.6582L18.6732 16.7412H18.6806L18.6918 16.7749L18.7068 16.7786L18.718 16.8123L18.733 16.816L18.7741 16.8459V16.8571L18.7853 16.8609V16.8721L18.8339 16.902V16.9132L18.8489 16.917L18.8676 16.9506L18.8825 16.9543V16.9656L18.8937 16.9693L18.9162 17.0029H18.9311V17.0179H18.9423L18.9648 17.0665L18.976 17.0702V17.0815L18.9909 17.0852L19.0134 17.1301L19.0246 17.1338V17.1525H19.0395L19.047 17.1749H19.0507L19.0582 17.2086L19.0732 17.216V17.2273L19.0881 17.2385V17.2572L19.0994 17.2646L19.1068 17.302L19.1218 17.3095V17.3357L19.1293 17.3394L19.133 17.3693L19.148 17.3731L19.1554 17.4366H19.1629V17.4478L19.1704 17.4516V17.489L19.1816 17.4964L19.1891 17.5525L19.204 17.56L19.219 17.6123L19.2302 17.6161L19.2452 17.6684H19.2564L19.2638 17.7133L19.2788 17.717L19.2863 17.7806H19.3012L19.3237 18.0011H19.3162V18.1021L19.3124 18.0983V18.1432L19.305 18.1395V18.1769L19.29 18.1806L19.2863 18.2292H19.2713L19.2414 18.3264H19.2265L19.1741 18.4124L19.1592 18.4161H19.1517V18.4348L19.1405 18.4311V18.4386L19.1143 18.4498L19.0956 18.4647V18.4834L19.047 18.4984V18.5096L19.0582 18.5133L19.062 18.5021H19.0769L19.0844 18.4909L19.0994 18.4946L19.1031 18.4834L19.1143 18.4872V18.4797H19.1367L19.1442 18.4685H19.1554L19.1741 18.4498H19.1891L19.2152 18.4273H19.2302L19.2751 18.39H19.2863V18.3825L19.3087 18.375L19.3124 18.36L19.3573 18.3301V18.3189L19.391 18.3002V18.289L19.4059 18.2853V18.2778L19.4171 18.2741V18.2628L19.4321 18.2591V18.2479L19.4433 18.2441V18.2292L19.462 18.2217L19.4844 18.1918L19.5106 18.1806L19.5143 18.1694L19.5293 18.1731L19.5368 18.1507L19.548 18.1544L19.5555 18.1432H19.5667L19.5741 18.132L19.5891 18.1357L19.5928 18.1245H19.6115L19.6414 18.0983H19.6527L19.6788 18.0759H19.6938V18.0684L19.705 18.0647V18.0535L19.72 18.0572L19.7461 18.0311H19.7499V18.0198L19.776 18.0124V18.0011L19.8097 17.9824V17.9712L19.8358 17.9563V17.9451H19.8545V17.9338L19.9069 17.9002H19.9331L19.9405 17.8778H19.9667V17.874L19.9891 17.8703L19.9929 17.8591L20.0078 17.8628V17.8553L20.0265 17.8516L20.034 17.8404L20.0452 17.8441L20.0564 17.8292L20.0714 17.8329L20.0789 17.8217H20.0863L20.0901 17.8105L20.105 17.8142V17.8067L20.1312 17.7993V17.788L20.2546 17.7058V17.6946L20.2733 17.6871V17.6721L20.2957 17.6647L20.3181 17.6422L20.2994 17.6161H20.292L20.2845 17.5899L20.2658 17.5712L20.2583 17.5413L20.2508 17.5376L20.2247 17.4964L20.1349 17.4366V17.4254L20.1162 17.4142L20.1088 17.403L20.0975 17.3992L20.0751 17.3731L20.0602 17.3693L20.0303 17.3319L20.0153 17.3095H20.0003L19.9817 17.2721L19.9667 17.2684L19.9331 17.2198H19.9256V17.2086L19.8844 17.1674V17.1562L19.8732 17.1487V17.1375L19.8583 17.1263V17.1151L19.8433 17.1001L19.8321 17.0964L19.7835 16.9955H19.7686L19.7125 16.8684L19.7013 16.8571V16.8459L19.6938 16.8422L19.6863 16.8048H19.6826L19.6788 16.7861H19.6751L19.6714 16.7674L19.6676 16.7637V16.745H19.6601V16.7188H19.6527L19.6452 16.6814L19.6377 16.6777V16.6665H19.634V16.6403H19.6265L19.6227 16.6029H19.619V16.5693H19.6115V16.5207L19.6041 16.5169L19.5966 16.3674H19.5891V16.3487L19.5741 16.3412L19.5667 16.2964L19.5555 16.2926L19.548 16.2664H19.5405V16.2403H19.533V16.2216L19.5181 16.2141V16.1805H19.5069L19.4994 16.1169H19.4919V16.102H19.4844V16.0608L19.4732 16.0496L19.4695 15.9823L19.4583 15.9748L19.4545 15.7804H19.4657V15.7094L19.4807 15.7131L19.4844 15.6533H19.4919V15.6272L19.4994 15.6309V15.5972L19.5106 15.5935V15.5711L19.5255 15.5673L19.533 15.5262H19.5442L19.5629 15.4627L19.5779 15.4664V15.4477L19.5891 15.4514L19.6452 15.3655L19.6564 15.3692L19.6788 15.3281L19.69 15.3318V15.3206H19.705L19.7349 15.2795L19.7499 15.2832V15.2682L19.7686 15.272L19.791 15.257L19.7872 15.2458L19.8022 15.2496V15.2346L19.8172 15.2383L19.8284 15.2234H19.8433L19.8471 15.2122H19.8695V15.1972L19.9031 15.1823L19.963 15.171V15.1598L20.0303 15.1561V15.1411L20.0901 15.1337L20.1088 15.1374V15.1337H20.1237V15.1299L20.1499 15.1337L20.1574 15.1224L20.2284 15.1299L20.2359 15.1187L20.2957 15.1299L20.3032 15.1187L20.4116 15.1374L20.4265 15.1337L20.606 15.1748V15.186L20.7518 15.2346V15.2458L20.7854 15.2533L20.7892 15.2645L20.8677 15.2982V15.3094L20.935 15.3393V15.3542L20.9612 15.3655V15.3729H20.9836L20.9948 15.3954L21.0172 15.3991V15.4066H21.0322V15.4141L21.0845 15.4253V15.429L21.1294 15.4402V15.444L21.163 15.4514V15.4589L21.2042 15.4664V15.4701L21.2303 15.4739L21.2378 15.4888L21.264 15.4963V15.5L21.2864 15.5038V15.5113L21.3051 15.515V15.5187L21.3313 15.5262V15.5337L21.4285 15.5748V15.586L21.5593 15.6608V15.672L21.5855 15.6832L21.5743 15.672V15.6608L21.5631 15.6533V15.6421L21.5481 15.6272V15.6122L21.5369 15.6047L21.5294 15.5786L21.5145 15.5711V15.5599L21.5107 15.5561L21.5032 15.5374L21.4883 15.5299V15.5187L21.4621 15.4926V15.4813L21.436 15.4589V15.4477L21.3874 15.4028L21.3836 15.3804H21.3687V15.3692L21.3537 15.3655L21.2602 15.2757L21.249 15.2533H21.2341L21.2266 15.2383L21.2154 15.2346L21.2004 15.2159L21.1743 15.2047L21.1705 15.1897L21.1481 15.1823V15.1748L21.1107 15.1561V15.1486H21.0957V15.1411L21.0546 15.1224V15.115L21.021 15.1038V15.0963H21.0098V15.0888L20.9873 15.0851V15.0776L20.9761 15.0738V15.0701L20.9574 15.0664V15.0589H20.9425V15.0514L20.8976 15.0365V15.0327L20.8752 15.0252V15.0215L20.849 15.0178V15.0103L20.8154 15.0028V14.9991L20.7854 14.9916V14.9841L20.677 14.9617V14.9542L20.3854 14.9131L20.3892 14.9168L20.3555 14.9131V14.9168L20.3219 14.9131V14.9168L20.3032 14.9131V14.9206L20.277 14.9168V14.9206L20.2508 14.9168V14.9243L20.2359 14.9206V14.928L20.1948 14.9243V14.9318L20.1835 14.928V14.9355L20.1648 14.9318V14.9393H20.1387V14.9467L20.1162 14.9393V14.9467L20.0789 14.9542V14.9579H20.0639V14.9617H20.0377L20.034 14.9729L20.0041 14.9766L20.0003 14.9879L19.9854 14.9841V14.9916H19.9667L19.9592 15.0028L19.9443 14.9991L19.9331 15.0178L19.9181 15.014L19.9069 15.029H19.8957L19.8732 15.0477H19.862L19.1517 15.444H19.1255L19.1293 15.4514H19.1068L19.0994 15.4627H19.0881V15.4664L19.062 15.4813L18.8451 15.6122V15.6234L18.8339 15.6272L18.8152 15.6458H18.8003L18.7853 15.6533L18.3928 15.8365Z" fill="#AACF53"/>
<path d="M10.1417 15.1333L10.1529 15.1071H10.1604L10.1679 15.0847H10.1754V15.0735H10.1791V15.0548L10.1866 15.0585L10.2015 15.0249H10.2053V15.0136H10.2128V15.0024H10.2202V14.9912H10.224V14.98H10.2315V14.9688L10.2464 14.9576V14.9463L10.2576 14.9426L10.2651 14.9202L10.2763 14.9164L10.2838 14.894L10.2987 14.8903L10.295 14.8753L10.3025 14.879V14.8678L10.3174 14.8641V14.8491L10.3287 14.8454V14.8342L10.3436 14.8304V14.8192L10.3548 14.8155V14.8043L10.3735 14.7931V14.7818L10.3959 14.7744V14.7632L10.4259 14.7445V14.7295L10.4408 14.7258V14.722L10.452 14.7183V14.7071L10.6165 14.5052H10.6203L10.639 14.4865H10.6464V14.4678H10.6539V14.4566H10.6576V14.4416H10.6651L10.6801 14.408H10.6838V14.3968H10.6913V14.3856H10.6988V14.3743H10.7025V14.3631H10.71V14.3519L10.7175 14.3556V14.3407L10.7249 14.3444V14.3295L10.7362 14.322V14.307L10.7511 14.3033L10.7549 14.2809L10.7698 14.2771L10.7735 14.2547L10.7885 14.251V14.2398H10.796V14.2285L10.8147 14.2211L10.8184 14.1949L10.8408 14.1874V14.1762L10.8595 14.1687L10.8932 14.1313V14.1201H10.9044L10.9193 14.0977L10.9268 14.1014V14.0902H10.9306L10.953 14.0678L10.9642 14.064V14.0528H10.9717L10.9904 14.0341L11.0016 14.0379L11.1773 13.8472L11.1736 13.836L11.181 13.8397L11.1885 13.8136L11.196 13.8173V13.8061H11.1997V13.7911L11.2072 13.7949V13.7799L11.2147 13.7836V13.7724H11.2222V13.7612H11.2259V13.75H11.2334V13.7388H11.2409V13.7276L11.2521 13.7164V13.7051L11.267 13.7014L11.2708 13.679L11.2932 13.6715L11.2969 13.6453H11.3119V13.6304H11.3194L11.3156 13.6192L11.3306 13.6154L11.3381 13.6005L11.3568 13.593V13.578L11.3755 13.5706L11.3829 13.5481L11.4166 13.5294V13.5182L11.4465 13.4995V13.4883L11.5474 13.3761L11.5512 13.3799V13.3649L11.5586 13.3687L11.5661 13.3275H11.5699V13.3163H11.5773L11.5848 13.2827H11.5923V13.2715H11.596V13.2528H11.6035L11.611 13.2303H11.6147V13.2154H11.6222L11.6372 13.1817H11.6409V13.1705H11.6484V13.1593H11.6558V13.1481H11.6596V13.1369H11.6671V13.1257L11.6745 13.1294V13.1144L11.682 13.1182V13.1032L11.6932 13.0958V13.0808L11.7082 13.0771L11.7194 13.0434L11.7344 13.0397V13.0285L11.753 13.021L11.7605 12.9985L11.7717 12.9948V12.9836L11.7904 12.9724V12.9612H11.7979L11.8054 12.9462L11.8166 12.9425V12.9275L11.8428 12.9163V12.9051L11.8764 12.8864V12.8752L11.9138 12.849V12.8378L11.9923 12.7182L11.9998 12.7219V12.7069L12.0073 12.7107L12.0185 12.6546L12.026 12.6583V12.6471H12.0334V12.6284H12.0372L12.0447 12.606L12.0521 12.6097V12.591H12.0559L12.0708 12.5574H12.0783V12.5462H12.082V12.535H12.0895V12.5238H12.097V12.5125L12.1045 12.5163L12.1007 12.5013L12.1082 12.5051V12.4901H12.1157V12.4789L12.1269 12.4714V12.4565H12.1419L12.1456 12.4303L12.1606 12.4265L12.168 12.4041L12.1792 12.4004V12.3892L12.1942 12.3854V12.3742L12.2054 12.3705V12.3555H12.2204V12.3406L12.2316 12.3368L12.2278 12.3181L12.2503 12.3107V12.2994L12.2727 12.2845L12.2802 12.2658L12.34 12.1873V12.1574H12.3437V12.1387L12.3512 12.1424V12.1237H12.3587V12.1013H12.3624V12.0826L12.3811 12.0863V12.0676H12.3886V12.049L12.3961 12.0527L12.3923 12.0415H12.3998L12.4073 12.0041L12.4148 12.0078V11.9929L12.4185 11.9966V11.9779H12.426L12.4335 11.9555H12.4372V11.9443H12.4447V11.9293H12.4522L12.4634 11.8957H12.4709V11.8845H12.4783V11.8732H12.4858L12.497 11.8396L12.5082 11.8359V11.8172L12.5232 11.8134L12.5307 11.791L12.5419 11.7873V11.776L12.5568 11.7723V11.7611L12.5681 11.7573V11.7424L12.583 11.7387V11.7274L12.5942 11.7237V11.7125H12.6017L12.6092 11.6975L12.6204 11.6938V11.6788L12.6391 11.6714V11.6601L12.6727 11.6414V11.6302L12.7699 11.4882V11.4732H12.7774V11.4545H12.7812V11.4321H12.7886V11.4209H12.7961V11.4022H12.8036V11.391L12.8073 11.3947V11.376H12.8148V11.3648H12.8223V11.3461H12.826L12.8335 11.3237L12.841 11.3274V11.3125L12.8447 11.3162L12.8484 11.2975L12.8597 11.2938V11.2751H12.8671V11.2639H12.8709V11.2526L12.8858 11.2489V11.2377L12.897 11.2265V11.2153H12.9045V11.204H12.912V11.1928L12.9232 11.1891L12.9307 11.1667L12.9457 11.1629V11.1517L12.9569 11.148V11.1367L12.9718 11.1293V11.118L12.983 11.1143V11.1031L12.998 11.0994V11.0881L13.0167 11.0807V11.0657L13.0354 11.0582V11.047L13.1176 10.9274H13.1251V10.9124H13.1326V10.8937H13.1401V10.8788H13.1438V10.8526L13.1513 10.8564V10.8414L13.1587 10.8451L13.17 10.7928H13.1774V10.7816H13.1849V10.7629L13.1924 10.7666L13.1961 10.7405L13.2036 10.7442L13.2111 10.7143H13.2148L13.2298 10.6806H13.2373V10.6694L13.241 10.6732V10.6582H13.2485V10.647L13.256 10.6507V10.6395L13.2672 10.6283V10.6171L13.2821 10.6133L13.2859 10.5872L13.3008 10.5834L13.3046 10.561L13.3195 10.5573L13.327 10.5348L13.3457 10.5274V10.5161L13.3569 10.5124V10.4974L13.3718 10.4937L13.3793 10.4788L13.398 10.4675V10.4563L13.4092 10.4526V10.4488L13.4242 10.4451V10.4302L13.4504 10.4189V10.404L13.6261 10.1722V10.161H13.6298V10.1498L13.6448 10.146V10.1311L13.656 10.1236V10.1086L13.6635 10.1124V10.1012L13.6784 10.0974L13.6821 10.0713L13.6896 10.075L13.6934 10.0563L13.7083 10.0526L13.7158 10.0301L13.7345 10.0226V10.0077H13.7494V9.99274L13.7681 9.98526V9.97405L13.7943 9.95909V9.94788L13.8205 9.93292V9.92171L13.8803 9.88432V9.87311L13.8915 9.86937L13.9027 9.85068L13.9177 9.85441L13.97 9.80955L13.985 9.81329L14.0037 9.79086L14.0149 9.7946L14.0411 9.76843L14.056 9.77217L14.0672 9.75347L14.0822 9.75721L14.0897 9.746H14.1083V9.73852L14.1196 9.74226L14.127 9.73104H14.142L14.1457 9.71983H14.1682V9.71235L14.2055 9.70861L14.213 9.69739H14.2242L14.2392 9.68992L14.2541 9.69366V9.68618L14.2654 9.68992V9.68244L14.2766 9.68618L14.2841 9.67496L14.3028 9.6787V9.67122H14.3327V9.66375L14.3514 9.66749V9.66375L14.3775 9.66001V9.65627L14.3962 9.66001V9.65253L14.4112 9.65627V9.64879L14.4299 9.65253V9.64505L14.4411 9.64879V9.64132L14.5532 9.61888L14.5682 9.62262L14.5757 9.61141H14.6018L14.6056 9.60019H14.6355V9.59271L14.6467 9.59645V9.58898L14.6878 9.58524V9.57776L14.7065 9.5815V9.57402H14.7327V9.56654L14.7514 9.57402V9.56654L14.7663 9.57028V9.56281H14.8037V9.55907L14.8224 9.56281V9.55533L14.8448 9.55907V9.55159L14.8635 9.55533V9.54785L14.8897 9.55533V9.54785L14.9159 9.55533V9.54785L14.9495 9.55533V9.54785L15.4729 9.66749V9.67496L15.4916 9.6787V9.68618L15.5103 9.68992V9.69366L15.5327 9.69739V9.70487L15.5514 9.70861V9.71235L15.5626 9.71609V9.72356L15.5851 9.7273V9.73104L15.6112 9.74226V9.74973L15.6299 9.75347V9.76095L15.6711 9.77964V9.78338L15.6972 9.7946L15.7047 9.80955L15.7309 9.82077L15.7384 9.83198L15.7496 9.83572L15.7571 9.85068H15.772L15.7795 9.86563L15.7907 9.86937L15.7982 9.88058L15.8094 9.88432L15.8169 9.89928H15.8318L15.8505 9.92919H15.8655L15.8916 9.96657H15.9029V9.97405L15.9178 9.98153V9.99648L16.0262 10.1161L16.0449 10.1348V10.146L16.0674 10.161V10.1722L16.0786 10.1834L16.086 10.2021H16.0898V10.2171L16.1047 10.2245L16.1122 10.2432L16.116 10.247V10.2582L16.1309 10.2694V10.2843H16.1384V10.2956L16.1459 10.2993V10.3105H16.1533V10.3217L16.1571 10.3255V10.3367H16.1646L16.1795 10.3778H16.187V10.3965H16.1907V10.4115H16.1982V10.4302H16.2057V10.4414L16.2132 10.4451V10.4638H16.2206V10.4825H16.2281L16.2356 10.5274H16.2393L16.3104 10.7367H16.3141L16.3216 10.7629H16.3291L16.3365 10.8003L16.344 10.804V10.8152H16.3477L16.3702 10.8975L16.3777 10.9012V10.9162L16.3814 10.9199L16.3851 10.9386H16.3889L16.3926 10.9648H16.3963L16.4113 11.0582V11.5629L16.3963 11.6452H16.3926V11.6639L16.3851 11.6601V11.6788L16.3291 11.9966H16.3253V12.0676H16.3178V12.1237H16.3104V12.1574H16.3066V12.1948L16.2991 12.191V12.2209H16.2917L16.2954 12.2471L16.2879 12.2434L16.2169 12.4677H16.2094L16.2057 12.4901H16.1982V12.5088L16.1907 12.5051L16.1833 12.5312L16.1795 12.5275V12.5424L16.172 12.5387V12.5574L16.1571 12.5611V12.5724L16.1459 12.5836L16.0748 12.7406L16.0674 12.7555L16.0636 12.7406L16.0449 12.7256L16.0374 12.6995L16.015 12.6808V12.6696L16.0001 12.6621V12.6471L15.9814 12.6322L15.9664 12.6135L15.9627 12.6097V12.5985L15.9365 12.5761L15.8991 12.5238H15.8879L15.8804 12.5051L15.8729 12.5013V12.4826H15.8655V12.4639H15.858V12.4452L15.8543 12.4415V12.4265L15.8468 12.4228V12.4041H15.8393V12.3854H15.8318L15.8206 12.3443H15.8131V12.3293H15.8057V12.3181H15.7982V12.3032H15.7907V12.292L15.787 12.2882L15.7832 12.277L15.772 12.2621V12.2508L15.7571 12.2434L15.7421 12.2022L15.7234 12.1873V12.1723L15.6972 12.1499L15.6898 12.1312L15.6748 12.1237V12.1088L15.6561 12.0938V12.0826L15.6337 12.0639V12.0527L15.5888 12.0078L15.5813 11.9891L15.5701 11.9854L15.5664 11.9742L15.5402 11.9555L15.5066 11.9106H15.4954V11.9031L15.4617 11.8807V11.8658L15.4393 11.8583V11.8508L15.4206 11.8396L15.4131 11.8284L15.372 11.8097L15.3682 11.7947L15.3458 11.7835V11.7798L15.3346 11.776L15.3196 11.7611L15.3047 11.7573V11.7536L15.2935 11.7499L15.286 11.7349H15.271V11.7274H15.2598L15.2449 11.7087H15.2299L15.2262 11.6938L15.1664 11.6639V11.6601L15.1514 11.6564V11.6489L15.1103 11.6377L14.957 11.5667L14.8822 11.5442V11.5405L14.6691 11.4956L14.2691 11.4994L14.2504 11.4956V11.5031L14.2093 11.5069V11.5106L14.1831 11.5143L14.1756 11.5256L14.1644 11.5218V11.5293L14.1495 11.5256V11.533L14.1383 11.5293L14.1233 11.5405L14.1083 11.5368L14.1046 11.548L14.0635 11.5517L14.0523 11.5704H14.0261L14.0186 11.5816L13.9962 11.5854V11.5891L13.9775 11.5928V11.6041L13.9438 11.6153V11.6228H13.9326L13.899 11.6527L13.8728 11.6601V11.6714L13.8541 11.6751V11.6863L13.8392 11.6901V11.6975L13.8242 11.6938L13.7943 11.7237V11.7349H13.7868L13.7719 11.7573L13.7607 11.7536L13.7532 11.7723H13.7457L13.742 11.7873L13.727 11.791L13.7195 11.8172L13.7008 11.8246L13.6896 11.8583L13.6747 11.862V11.8732L13.6597 11.8845L13.6635 11.8957H13.656V11.9069H13.6485V11.9181H13.641V11.9293H13.6373V11.9405H13.6298L13.6186 11.9742H13.6111L13.5438 12.1611L13.5326 12.2845H13.5251L13.5214 12.4228H13.5289L13.5363 12.5462L13.5438 12.5499L13.5513 12.6247H13.555L13.5588 12.6509H13.5663V12.677H13.57V12.7032H13.5775V12.7219H13.5849V12.7406H13.5924V12.7593L13.5999 12.763V12.7817H13.6074V12.8004H13.6111L13.6149 12.8191L13.6186 12.8228V12.8378L13.6261 12.8415L13.641 12.8789L13.6485 12.8827V12.8939H13.6522L13.656 12.9051L13.6597 12.9088V12.92H13.6672V12.935H13.6747V12.9499L13.6896 12.9612V12.9761L13.7008 12.9836L13.7158 13.0247L13.7345 13.0397L13.742 13.0658L13.7569 13.0733L13.7644 13.092L13.7681 13.0958L13.7756 13.1144H13.7906V13.1294L13.8093 13.1444V13.1556L13.8242 13.1668V13.178L13.8429 13.193V13.2004L13.8579 13.2042L13.8691 13.2191L13.8766 13.2378L13.9027 13.2602V13.2789H13.9102V13.2976L13.9177 13.3014V13.3163L13.9252 13.3201V13.3388H13.9326V13.35L13.9401 13.3537L13.9476 13.3911H13.9513L13.9663 13.4322H13.9738V13.4434L13.9812 13.4472V13.4584H13.9887V13.4733H13.9924V13.4846L14.0074 13.4995V13.5145L14.0186 13.5219L14.0336 13.5593L14.056 13.578L14.0635 13.6042L14.0747 13.6117L14.0822 13.6304L14.1083 13.6528V13.6678L14.142 13.6977V13.7089L14.1906 13.7537L14.1981 13.7724L14.2093 13.7762L14.2317 13.8248L14.2467 13.8809L14.2541 13.8846L14.2504 13.8958H14.2579V13.9145H14.2654L14.2803 13.9556H14.2841V13.9706H14.2915V13.9818H14.299V13.9967H14.3065V14.0154L14.3214 14.0267L14.3252 14.0528L14.3401 14.0603L14.3551 14.0977L14.3663 14.1052V14.1201L14.3813 14.1276L14.3887 14.1538L14.4 14.1612V14.1762L14.4261 14.1986V14.2098L14.456 14.2323V14.2472L14.4747 14.2622L14.4822 14.2771H14.4972V14.2846L14.5084 14.2921V14.307L14.5308 14.3145L14.5383 14.337H14.5495L14.557 14.3519H14.5645V14.3631L14.5757 14.3743L14.5831 14.4117H14.5906V14.4229L14.5981 14.4267V14.4454H14.6056L14.6168 14.4865H14.6243V14.4977L14.6317 14.5015V14.5127H14.6392V14.5239L14.6467 14.5276V14.5388H14.6504V14.5538L14.6654 14.5687V14.58L14.6803 14.5874L14.6916 14.6286L14.714 14.6435L14.7215 14.6622L14.7252 14.666V14.6772L14.7476 14.6921V14.7071L14.7738 14.7295V14.7407L14.8 14.7632L14.8037 14.7781L14.8486 14.823L14.8561 14.8417L14.8673 14.8454V14.8566L14.8897 14.8678V14.8716L14.9234 14.9015V14.9164L14.9383 14.9239V14.9351L14.942 14.9389V14.9501H14.9495V14.9688L14.957 14.9725L14.9757 15.0211L14.9682 15.0585L14.9607 15.0548V15.066H14.9533L14.957 15.0847H14.9495V15.1034L14.942 15.0996V15.1108H14.9346V15.1295H14.9308L14.9234 15.152L14.9159 15.1482V15.1669H14.9121L14.8972 15.2006H14.8897V15.2118H14.886V15.2305L14.871 15.2342V15.2454L14.8635 15.2417V15.2604L14.8523 15.2641V15.2791L14.8448 15.2753V15.2903L14.8336 15.2978V15.3127H14.8187L14.8075 15.3464L14.7925 15.3501V15.3651L14.7738 15.3725L14.7663 15.395L14.7476 15.4024V15.4174L14.7364 15.4211L14.7289 15.4361H14.7215V15.4473L14.7028 15.4585V15.4697L14.6691 15.4997L14.5944 15.6006L14.5869 15.6155H14.5794V15.6342H14.5719V15.6567H14.5645V15.6754L14.5607 15.6716L14.5495 15.6903L14.542 15.6866V15.7053H14.5383V15.724H14.5308V15.7352H14.5233V15.7539L14.5158 15.7501V15.7614H14.5121L14.4934 15.795H14.4859L14.4822 15.8174H14.4747V15.8286L14.4672 15.8249V15.8436H14.4635L14.4486 15.8473L14.4523 15.8511V15.8623L14.4448 15.8586L14.4336 15.8922L14.4224 15.8959L14.4074 15.9333L14.3925 15.9371L14.3813 15.9707L14.3663 15.9744V15.9857L14.3551 15.9894V16.0006L14.3401 16.0044L14.3439 16.0156H14.3364L14.3289 16.0343L14.3177 16.038V16.0492L14.2953 16.0567L14.299 16.0679L14.2841 16.0717V16.0866L14.2728 16.0903L14.2803 16.0978L14.2691 16.1016V16.1128L14.2429 16.1576V16.1651L14.1981 16.195V16.2062L14.1719 16.2212L14.0336 16.3969L14.0261 16.3932L14.0224 16.4193L14.0149 16.4156V16.4306L14.0074 16.4268V16.4455H13.9999L13.9887 16.4792H13.9812V16.4904H13.9775V16.5016H13.97V16.5128L13.9625 16.5091V16.524L13.9513 16.5315V16.5464H13.9364V16.5651H13.9326L13.9252 16.5838H13.9102L13.9027 16.61L13.8915 16.6137V16.625H13.884V16.6362L13.8728 16.6399V16.6511L13.8541 16.6586L13.8466 16.6848L13.8242 16.6923V16.7035L13.8055 16.7109V16.7259L13.7943 16.7296V16.7409L13.7681 16.7521V16.767L13.7345 16.7857V16.7969L13.6335 16.9166H13.6298V16.939H13.6223V16.954L13.6186 16.9502L13.5924 17.0026L13.5849 16.9988L13.5812 17.0287H13.5737V17.0399H13.5663V17.0586L13.5588 17.0549L13.5476 17.0885H13.5401V17.0998H13.5363V17.111H13.5289V17.1297L13.5139 17.1334V17.1521H13.5027V17.1671L13.4952 17.1633V17.1783L13.4877 17.1745L13.4915 17.1895L13.484 17.1857V17.2007L13.4691 17.2082V17.2194L13.4578 17.2269L13.4504 17.2493L13.4354 17.253L13.4317 17.2755L13.413 17.2829L13.4055 17.3054L13.3868 17.3129L13.3793 17.3315L13.3644 17.3353L13.3606 17.3577L13.3382 17.3689V17.3802L13.3083 17.3988V17.4101L13.2746 17.4288V17.44L13.1625 17.5671L13.1587 17.582H13.1513V17.6082L13.1438 17.6045L13.1401 17.6269H13.1326L13.1251 17.6605H13.1176L13.1139 17.6905L13.1064 17.6867L13.0989 17.7129L13.0952 17.7091V17.7204H13.0877V17.7391H13.0802L13.069 17.7727H13.0615V17.7839L13.0541 17.7802L13.0429 17.8176L13.0279 17.8213V17.8325L13.0167 17.84V17.8549L13.0092 17.8512V17.8662L13.0017 17.8624V17.8774L12.9905 17.8811L12.983 17.9036L12.9718 17.9073V17.9185L12.9569 17.9222V17.9335L12.9457 17.9372V17.9484L12.9307 17.9522V17.9671L12.9195 17.9708V17.9821L12.897 17.9895L12.9008 18.0008L12.8858 18.0082V18.0194L12.8597 18.0307V18.0456L12.826 18.0606V18.0755L12.7998 18.0867V18.0942L12.7886 18.098L12.6727 18.24L12.669 18.2512L12.654 18.2849H12.6503L12.6428 18.3073H12.6353V18.326L12.6279 18.3223L12.6316 18.3372L12.6241 18.3335V18.3522H12.6167L12.5942 18.3821H12.5867V18.3933H12.5793V18.412L12.5681 18.4157V18.4269L12.5568 18.4344L12.5531 18.4494H12.5494V18.4606H12.5419V18.4718L12.5307 18.483V18.4905L12.5157 18.498L12.5082 18.5204L12.497 18.5242V18.5354L12.4821 18.5391V18.5503L12.4709 18.5541L12.4634 18.5765L12.4447 18.5877L12.4372 18.6101L12.4185 18.6176L12.3849 18.655V18.6662L12.3737 18.6625L12.3587 18.6849H12.355V18.6961L12.34 18.6999V18.7073L12.3288 18.7111V18.7223L12.254 18.7709V18.7821L12.2428 18.7859L12.2092 18.8158H12.1979L12.1905 18.8232L11.9811 19.0176L11.9736 19.0139V19.0289H11.9699V19.0401L11.9549 19.0476V19.0625H11.94L11.9362 19.0887L11.9213 19.0924L11.9175 19.1148L11.8951 19.1223L11.8914 19.1448L11.8689 19.156L11.8652 19.1784L11.8465 19.1859V19.1971L11.8241 19.2083L11.8278 19.2195L11.7979 19.2307L11.7942 19.2494H11.7867V19.2606L11.7717 19.2569L11.6409 19.3803L11.6297 19.3765L11.6222 19.3878L11.5699 19.4139V19.4289L11.5624 19.4251L11.5362 19.4401V19.4476L11.525 19.4438V19.4551L11.4988 19.4625V19.47L11.4839 19.4663L11.4801 19.4775L11.4727 19.4737L11.4652 19.485L11.3343 19.6158L11.3231 19.6196L11.3156 19.642L11.3044 19.6457V19.6569L11.2895 19.6607V19.6719L11.2782 19.6756V19.6868L11.2633 19.6906V19.7055L11.2521 19.7093V19.7205L11.2296 19.728V19.7392L11.2184 19.7467V19.7579L11.2035 19.7616V19.7654L11.1923 19.7691V19.7803L11.1661 19.7953V19.8065L11.1212 19.8364V19.8476L11.0726 19.8775L11.0689 19.8925H11.0539L11.0502 19.9074L11.0278 19.9112L10.9717 19.9485L10.7997 20.1168L10.7735 20.1467V20.1616L10.7623 20.1654L10.7549 20.1878L10.7399 20.1916L10.7436 20.2028L10.7287 20.2065L10.7175 20.2215V20.2364L10.7025 20.2402H10.6913L10.6801 20.2439V20.2551L10.6651 20.2588V20.2701L10.6464 20.2775L10.6128 20.3149V20.3299L10.6016 20.3261L10.5941 20.3411L10.5754 20.3523V20.3635L10.5418 20.3822L10.4184 20.4757V20.4869L10.4072 20.4944H10.3922L10.381 20.5093L10.3137 20.5392V20.5505L10.295 20.5542L10.2539 20.5729L10.2427 20.5878L10.2277 20.5841L10.209 20.5916L10.2015 20.6028V20.614L10.1941 20.6252L10.1455 20.6327V20.6477H10.1193V20.6551L10.1081 20.6514L10.1006 20.6626L10.0894 20.6589V20.6664L10.0744 20.6626L10.0632 20.6664L9.66319 20.9281L9.64823 20.9243L9.62954 20.943H9.61833V20.9467L9.59589 20.958L9.58842 20.9692L9.5772 20.9654L9.56972 20.9767L9.55851 20.9729L9.54355 20.9916L9.53234 20.9879L9.51738 21.0028H9.49121L9.48 21.0215L9.46504 21.0178L9.46131 21.029H9.4314L9.42766 21.0402L9.40149 21.0439L9.39401 21.0514H9.37906L9.36784 21.0589H9.35289V21.0626H9.34167L9.33419 21.0739H9.30802V21.0813L9.29681 21.0776V21.0813L9.25569 21.0888V21.0963L9.23699 21.0925V21.0963H9.22204V21.1L9.18465 21.1038V21.1112H9.14353V21.115H9.13231V21.1187L9.0725 21.1225V21.1262L9.05754 21.1225V21.1299L9.03137 21.1262V21.1299L9.01268 21.1262V21.1337L8.99399 21.1299V21.1374L8.97155 21.1337V21.1374L8.94538 21.1337L8.83323 21.1449L8.76967 21.1374V21.1449L8.37338 21.0888V21.0813L8.23132 21.0514L7.96962 20.9542L7.96588 20.9467L7.88363 20.9131V20.9056H7.86868V20.8981L7.84998 20.8944V20.8869L7.80886 20.8757V20.8682L7.79391 20.8645V20.8608L7.77521 20.857V20.8495L7.74904 20.8383V20.8346L7.73409 20.8308V20.8234L7.7154 20.8196V20.8159L7.68923 20.8047V20.7972H7.67801L7.67427 20.7897L7.65558 20.786L7.6481 20.771H7.63689V20.7636H7.62193V20.7561L7.61072 20.7523V20.7449H7.59576L7.58081 20.7299L7.56959 20.7262L7.56211 20.715L7.52473 20.6963L7.51725 20.6813L7.49108 20.6701L7.47613 20.6477H7.46491L7.45743 20.6327H7.44248V20.6252L7.42379 20.614L7.41631 20.6028L7.40509 20.5991L7.39014 20.5804L7.37519 20.5766L7.37145 20.5617H7.35649L7.34528 20.5392H7.33032L7.30415 20.5019L7.2892 20.4981L7.25555 20.457L7.24434 20.4533L7.15835 20.3523L7.10227 20.3V20.2888L7.05741 20.2439V20.2327L7.0275 20.2065V20.1953L7.00133 20.1729V20.1616L6.99011 20.1504V20.1392L6.96768 20.1243V20.1093L6.95647 20.1018L6.94899 20.0831H6.94151V20.0719L6.9303 20.0607V20.0495L6.91534 20.042V20.0271L6.90413 20.0196L6.88917 19.9822L6.87422 19.9747L6.863 19.9336L6.84805 19.9261L6.84057 19.8999H6.83309V19.885H6.82562V19.8738L6.82188 19.87V19.8588H6.8144V19.8476L6.80692 19.8439V19.8252L6.79571 19.8177L6.79197 19.799H6.78823L6.78075 19.7728H6.77328V19.7541L6.7658 19.7504L6.75832 19.7242H6.75458L6.74711 19.6868H6.73963V19.6756L6.73215 19.6719V19.6495L6.72467 19.6457V19.6345H6.72094V19.6083H6.71346V19.5896H6.70598V19.571H6.69851L6.69103 19.5261H6.68355L6.67981 19.47L6.67234 19.4663V19.4438L6.66486 19.4401V19.4177H6.65738V19.3803H6.6499L6.64243 19.2906H6.63495L6.62 19.055L6.62747 19.0588L6.63869 18.8345H6.64243V18.8008H6.6499V18.7634L6.65738 18.7672L6.66112 18.7111L6.6686 18.7148V18.6812L6.67607 18.6849V18.6587L6.68355 18.6625L6.68729 18.6176L6.69477 18.6214V18.6027H6.70224V18.584L6.70598 18.5877V18.5615H6.71346V18.5503L6.72094 18.5541L6.73215 18.498L6.73963 18.5017L6.74711 18.4793H6.75084L6.75832 18.4456H6.7658L6.77701 18.412H6.78449V18.4008H6.79197L6.79571 18.3709L6.81066 18.3671L6.8144 18.341L6.82935 18.3372V18.326L6.84431 18.3148L6.84057 18.3036H6.84805V18.2924H6.85552V18.2811L6.86674 18.2774L6.88169 18.24L6.88917 18.2438L6.89291 18.2251L6.90786 18.2213V18.2101L6.91908 18.2064V18.1952L6.93777 18.1877L6.94525 18.1615L6.96394 18.154V18.1428L6.98637 18.1353V18.1204L7.01628 18.1017V18.0905L7.04993 18.0718V18.0606L7.0761 18.0456V18.0344L7.11722 18.0194V18.0082L7.16209 17.9783L7.16956 17.9671L7.18078 17.9708L7.19573 17.9596V17.9484L7.25929 17.9185V17.9036L7.31163 17.8849L7.31911 17.8736L7.33032 17.8774L7.34528 17.8587L7.35649 17.8624L7.37145 17.8475H7.3864L7.39014 17.8363H7.40883V17.8288L7.42379 17.8325L7.43126 17.8213L7.44248 17.825L7.44996 17.8138L7.46117 17.8176L7.63315 17.7017L7.73035 17.597H7.73783L7.78269 17.5521H7.79017V17.5409L7.81634 17.5222L7.83503 17.5185L7.88363 17.4811L8.07056 17.3428V17.3315L8.08177 17.3166L8.09673 17.3091V17.2942H8.10421V17.2829L8.11542 17.2792V17.268L8.13038 17.2568V17.2456L8.14159 17.2418V17.2306L8.15655 17.2269V17.2157L8.16776 17.197L8.18272 17.1932L8.21262 17.1596L8.25375 17.1185V17.1072H8.26496L8.29861 17.0885H8.30609V17.0773L8.33226 17.0661V17.0586L8.34347 17.0549V17.0437L8.3846 17.0212L8.46311 16.9353L8.47432 16.939L8.51545 16.9054H8.52666L8.54162 16.8717L8.55283 16.8754L8.579 16.8493H8.59396L8.5977 16.8418H8.61265L8.62387 16.8268L8.67995 16.7895L8.69116 16.7782L8.70238 16.7745L8.75472 16.7184L8.75846 16.696H8.76593L8.77341 16.6773L8.78463 16.6736V16.6623L8.79958 16.6586V16.6474L8.82575 16.6324L8.82949 16.61L8.84444 16.6063L8.85192 16.5913L8.88183 16.5726V16.5614L8.91548 16.5427V16.5278L8.98277 16.4866L8.98651 16.4717L9.23699 16.2137L9.25195 16.21L9.26316 16.1763L9.27812 16.1726L9.28933 16.1352H9.29681L9.30429 16.1203L9.3155 16.1165L9.32298 16.0941L9.34167 16.0866L9.34915 16.0642L9.36784 16.053V16.0417L9.38653 16.0343V16.0231L9.40149 16.0156V16.0044L9.43514 15.9857L9.4314 15.9744L9.46504 15.9558V15.9445L9.74918 15.5445L9.75665 15.5296L9.77161 15.5258L9.77535 15.5034L9.7903 15.4997L9.79778 15.4772L9.80899 15.4735V15.4623L9.82395 15.4585V15.4473L9.83516 15.4436V15.4286L9.85012 15.4249V15.4137L9.86881 15.4062V15.395L9.8875 15.3838V15.3725L9.92115 15.3538V15.3426L9.95106 15.3239V15.3127L9.98097 15.2978L9.97723 15.2866L9.99218 15.2753L10.0034 15.2791" fill="#00B1A9"/>
<path d="M14.9832 14.9951L15.0019 14.9241L15.0169 14.9278L15.0356 14.8456L15.0468 14.8418L15.0543 14.8231L15.0617 14.8269L15.0692 14.8082H15.0804L15.1066 14.7671H15.1216L15.1477 14.7185L15.1589 14.7222L15.1851 14.6624L15.2001 14.6661L15.2262 14.6213V14.6026L15.2375 14.5988V14.5801L15.2524 14.5764L15.2599 14.5502H15.2636V14.539L15.2786 14.5353L15.2861 14.4979L15.2973 14.5016L15.3047 14.4605L15.316 14.453L15.3234 14.4082L15.3347 14.4044L15.3421 14.3558L15.3571 14.3521L15.3533 14.3222H15.3646V14.296L15.3758 14.2923L15.3795 14.2212L15.3945 14.2175V14.1689H15.4019V14.1502L15.4057 14.1539L15.4132 14.124H15.4206L15.4319 14.1203L15.4393 14.0904H15.458V14.0717H15.473L15.4805 14.0418H15.4992V14.0231L15.5104 14.0268L15.5253 13.982L15.5403 13.9857L15.544 13.9521H15.559L15.6038 13.8511L15.615 13.8549L15.6225 13.8175L15.6375 13.8212L15.6412 13.7801H15.6562L15.6599 13.7277H15.6749L15.6936 13.6455L15.701 13.6492L15.7085 13.5894L15.7197 13.5857L15.7272 13.4997L15.7384 13.496V13.4735H15.7459L15.7646 13.4324L15.7795 13.4361L15.7982 13.4212L15.8319 13.3539L15.8431 13.3576L15.8693 13.2978L15.8842 13.3016L16.0637 12.7894H16.0712L16.0749 12.7744V12.7782H16.0824V12.7894H16.0898V12.8043H16.0973V12.8155L16.1011 12.8193V12.8305H16.1085V12.8454H16.116V12.8567H16.1235V12.8716H16.131L16.1422 12.909L16.1497 12.9127L16.2693 13.1221L16.273 13.1333L16.2992 13.1595V13.1707L16.3179 13.1857V13.1969L16.3366 13.2156V13.2268L16.3515 13.2343V13.2492L16.3665 13.2567L16.3702 13.2754H16.3777V13.2866L16.3927 13.3016V13.3165H16.3964V13.3277L16.4114 13.3352L16.4188 13.3614L16.4263 13.3651L16.4413 13.4025L16.445 13.4062V13.4212L16.4525 13.4249L16.46 13.4474L16.4674 13.4511L16.5796 13.6119V13.6231L16.6132 13.653V13.6679L16.6394 13.6904V13.7016L16.6618 13.7165V13.7277L16.6731 13.739V13.7502L16.6955 13.7651V13.7764L16.7067 13.7876L16.7142 13.8137L16.7254 13.8212L16.7404 13.8586L16.7553 13.8698L16.7628 13.8922L16.7703 13.896L16.774 13.9222H16.7815V13.9408H16.789L16.7964 13.967H16.8002L16.8077 14.0007H16.8151L16.931 14.1614V14.1726L16.9647 14.2063V14.2175L16.9834 14.2325V14.2437L17.0021 14.2586V14.2736L17.017 14.2811L17.0245 14.2997L17.0282 14.3035V14.3147L17.0432 14.3222L17.0507 14.3484L17.0619 14.3558L17.0768 14.397H17.0843V14.4082L17.0918 14.4119V14.4231H17.0993V14.4381H17.103L17.118 14.4755L17.1254 14.4792V14.4942L17.1329 14.4979V14.5091H17.1366V14.5278L17.1441 14.5315V14.5428H17.1516V14.5614H17.1591V14.5801L17.1666 14.5839V14.6026H17.1703L17.2114 14.6624L17.2451 14.7147H17.2525L17.26 14.7334L17.2787 14.7484V14.7596L17.2937 14.7708V14.782L17.3124 14.797V14.8082L17.3273 14.8194L17.3348 14.8381H17.3385L17.346 14.8643L17.361 14.8755V14.8867L17.3722 14.9017V14.9129H17.3797V14.9278H17.3871V14.939L17.4021 14.9465V14.9652L17.4058 14.969V14.9802H17.4133L17.4208 15.0063H17.4283V15.025L17.4357 15.0288V15.04H17.4395L17.4469 15.0736H17.4544V15.0923H17.4619L17.5404 15.2344L17.5666 15.2568L17.5703 15.2718L17.589 15.2867V15.2979L17.604 15.3054V15.3204L17.6488 15.3951L17.6638 15.4026V15.4176L17.675 15.4325L17.6787 15.4438H17.6825V15.455L17.69 15.4587V15.4699H17.6974V15.4811L17.7049 15.4849L17.7161 15.5223L17.7236 15.526L17.8358 15.6868L17.8507 15.7055H17.8582V15.7204L17.8844 15.7428V15.7541L17.9031 15.769V15.784L17.9255 15.7989V15.8101L17.9367 15.8213V15.8326L17.9517 15.84L17.9591 15.8587L17.9629 15.8625L17.9703 15.8849L17.9853 15.8961L17.9928 15.9223L18.0264 15.9858H18.0339V15.9933L18.0152 16.0008V16.0083L18.0003 16.0045V16.012L17.989 16.0083L17.9741 16.027L17.9666 16.0232V16.0382L17.9591 16.0344L17.9554 16.0457H17.9404L17.933 16.0606L17.9143 16.0756H17.9068V16.083L17.8956 16.0793V16.0868L17.8731 16.0943V16.1055L17.8619 16.1092V16.1204L17.8358 16.1354L17.8021 16.1616V16.1728H17.7946V16.184L17.7759 16.1915V16.1989L17.761 16.1952L17.7535 16.2064L17.7273 16.2102L17.6638 16.2251L17.6414 16.2401V16.2475L17.6264 16.2438L17.6301 16.2513L17.6152 16.2475L17.6002 16.2662L17.589 16.2625L17.5815 16.2737L17.5666 16.27L17.5292 16.3074L17.5142 16.3036L17.4955 16.3261L17.4769 16.3298L17.4694 16.3447L17.4469 16.3485V16.3597L17.4283 16.3747H17.4208L17.4245 16.3821H17.4021L17.3946 16.3933L17.3759 16.3896L17.3684 16.4008L17.3572 16.3971V16.4046L17.3423 16.4008V16.4083L17.3161 16.4008V16.4083L17.275 16.4158V16.4195L17.2563 16.4158V16.4233L17.2413 16.4195L17.2376 16.4307L17.2077 16.4345L17.1404 16.4793L17.0469 16.5242L16.8974 16.5952L16.8749 16.6102L16.7964 16.685L16.7777 16.6962L16.7179 16.7036L16.703 16.7223L16.6432 16.7298L16.6357 16.741H16.6095L16.5983 16.756H16.5833L16.5759 16.7672H16.5497L16.5385 16.7822L16.5123 16.7971L16.4974 16.7934V16.8083L16.4824 16.8046L16.4712 16.8195L16.4562 16.8158V16.8233L16.445 16.8195V16.827L16.4301 16.8308V16.842L16.4188 16.8457V16.8532H16.3889L16.3852 16.8644L16.2469 16.8756L16.1684 16.7784L16.1497 16.7635L16.1422 16.7448L16.116 16.7223V16.7074L16.0936 16.6924V16.6812L16.0749 16.6663V16.6513L16.0637 16.6438V16.6326L16.0487 16.6251L16.0412 16.599L16.03 16.5915L16.0226 16.5616H16.0151L16.0076 16.5354H16.0001V16.5242L15.9926 16.5205L15.9852 16.5092L15.9777 16.5055L15.9179 16.4233L15.8655 16.3634V16.3597L15.8394 16.3373V16.3223L15.7758 16.255V16.2438L15.7571 16.2251V16.2102L15.7422 16.2027V16.1915L15.7309 16.1802V16.169L15.716 16.1616V16.1503L15.7048 16.1391V16.1279L15.6898 16.1204V16.1055H15.6823L15.6749 16.0793L15.6636 16.0718L15.6562 16.0457H15.6487L15.6263 16.0045H15.6188V15.9858L15.6113 15.9821L15.6076 15.9597L15.6001 15.9559L15.473 15.7802V15.769L15.4393 15.7391V15.7279L15.4169 15.7092V15.698L15.3982 15.683V15.6718L15.3833 15.6606V15.6494L15.372 15.6419L15.3646 15.6232L15.3571 15.6195L15.3421 15.5821L15.3309 15.5746L15.1963 15.3353L15.1889 15.3166L15.1365 15.2643V15.2531L15.1103 15.2269V15.2157L15.0804 15.1933V15.1821L15.0692 15.1708L15.0617 15.1521H15.0543V15.1409L15.043 15.1297V15.1185L15.0281 15.111V15.0961L15.0169 15.0886L15.0131 15.0774L14.9795 15.0288V15.025H14.9832V14.9951Z" fill="#B7C620"/>
<path d="M16.0759 12.7593V12.7678L16.0674 12.7593H16.0759Z" fill="#81BB30"/>
<path d="M14.98 15.0253H14.9757V15.021H14.98V15.0253Z" fill="#81BB30"/>
<path d="M14.9495 14.9687V14.95H14.942V14.9388L14.9383 14.9351V14.9239L14.9233 14.9164V14.9014L14.8897 14.8715V14.8678L14.8672 14.8566V14.8454L14.856 14.8416L14.8486 14.8229L14.8037 14.7781L14.8 14.7631L14.7738 14.7407V14.7295L14.7476 14.707V14.6921L14.7252 14.6771V14.6659L14.7214 14.6622L14.714 14.6435L14.6915 14.6285L14.6803 14.5874L14.6654 14.5799V14.5687L14.6504 14.5538V14.5388H14.6467V14.5276L14.6392 14.5238V14.5126H14.6317V14.5014L14.6242 14.4977V14.4865H14.6168L14.6055 14.4453H14.5981V14.4266L14.5906 14.4229V14.4117H14.5831L14.5083 14.307V14.2921L14.4971 14.2846V14.2771H14.4822L14.4747 14.2621L14.456 14.2472V14.2322L14.4261 14.2098V14.1986L14.3999 14.1762V14.1612L14.3887 14.1537L14.3812 14.1276L14.3663 14.1201V14.1051L14.3551 14.0976L14.3401 14.0603L14.3252 14.0528L14.3214 14.0266L14.3065 14.0154V13.9967H14.299V13.9818H14.2915V13.9705H14.284V13.9556H14.2803L14.2653 13.9145H14.2579V13.8958H14.2504L14.2541 13.8846L14.2466 13.8808L14.142 13.7088V13.6976L14.1083 13.6677V13.6528L14.0821 13.6303L14.0747 13.6116L14.0635 13.6042L14.056 13.578L14.0335 13.5593L14.0186 13.5219L14.0074 13.5144V13.4995L13.9924 13.4845V13.4733H13.9887V13.4584H13.9812V13.4471L13.9737 13.4434V13.4322H13.9663L13.9513 13.3911H13.9476L13.9401 13.3537L13.9326 13.3499L13.9251 13.3387L13.9177 13.3163L13.8765 13.2378L13.8578 13.2041L13.8429 13.2004V13.1929L13.8242 13.178V13.1667L13.8092 13.1555V13.1443L13.7905 13.1294V13.1144H13.7756L13.7681 13.0957L13.7644 13.092L13.7569 13.0733L13.7419 13.0658L13.7345 13.0396L13.7158 13.0247L13.7008 12.9836L13.6896 12.9761V12.9611L13.6746 12.9499V12.935H13.6672V12.92H13.6597V12.9088L13.656 12.905L13.6522 12.8938H13.6485V12.8826L13.641 12.8789L13.626 12.8415L13.6186 12.8378V12.8228L13.6148 12.8191L13.6111 12.8004H13.6073V12.7817H13.5999V12.763L13.5924 12.7592V12.7405H13.5849V12.7219H13.5774V12.7032H13.57V12.677H13.5662V12.6508H13.5587L13.555 12.6247H13.5513L13.5438 12.5499L13.5363 12.5461L13.5288 12.4228H13.5214L13.5251 12.2844H13.5326L13.5438 12.1611L13.6111 11.9741H13.6186L13.6298 11.9405H13.6373V11.9293H13.641V11.9181H13.6485V11.9068H13.656V11.8956H13.6634L13.6597 11.8844L13.6746 11.8732V11.862L13.6896 11.8582L13.7008 11.8246L13.7195 11.8171L13.727 11.791L13.7419 11.7872L13.7457 11.7723H13.7532L13.7606 11.7536L13.7718 11.7573L13.7868 11.7349H13.7943V11.7237L13.8242 11.6937L13.8391 11.6975V11.69L13.8541 11.6863V11.6751L13.8728 11.6713V11.6601L13.899 11.6526L13.9326 11.6227H13.9438V11.6152L13.9775 11.604V11.5928L13.9962 11.5891V11.5853L14.0186 11.5816L14.0261 11.5704H14.0522L14.0635 11.5517L14.1046 11.5479L14.1083 11.5367L14.1233 11.5405L14.1382 11.5293L14.1494 11.533V11.5255L14.1644 11.5293V11.5218L14.1756 11.5255L14.1831 11.5143L14.2093 11.5106V11.5068L14.2504 11.5031V11.4956L14.2691 11.4993L14.6691 11.4956L14.8822 11.5405V11.5442L14.957 11.5666L15.1103 11.6377L15.1514 11.6489V11.6564L15.1663 11.6601V11.6638L15.2261 11.6937L15.2299 11.7087H15.2448L15.2598 11.7274H15.271V11.7349H15.286L15.2934 11.7498L15.3047 11.7536V11.7573L15.3196 11.761L15.3346 11.776L15.3458 11.7797V11.7835L15.3682 11.7947L15.372 11.8096L15.4131 11.8283L15.4206 11.8396L15.4392 11.8508V11.8582L15.4617 11.8657V11.8807L15.4953 11.9031V11.9106H15.5065L15.5402 11.9554L15.5664 11.9741L15.5701 11.9854L15.5813 11.9891L15.5888 12.0078L15.6337 12.0527V12.0639L15.6561 12.0826V12.0938L15.6748 12.1087V12.1237L15.6897 12.1312L15.6972 12.1499L15.7234 12.1723V12.1872L15.7421 12.2022L15.757 12.2433L15.772 12.2508V12.262L15.7832 12.277L15.7869 12.2882L15.7907 12.2919V12.3031H15.7981V12.3181H15.8056V12.3293H15.8131V12.3443H15.8206L15.8393 12.3854L15.9626 12.5985V12.6097L15.9664 12.6134L15.9813 12.6321L16 12.6471V12.662L16.015 12.6695V12.6807L16.0374 12.6994L16.0449 12.7256L16.0636 12.7405L16.0673 12.7555V12.7592L16.0748 12.7667V12.7742L16.0711 12.7891H16.0636L15.8841 13.3013L15.8692 13.2976L15.843 13.3574L15.8318 13.3537L15.7981 13.421L15.7196 13.5855L15.7084 13.5892L15.7009 13.649L15.6935 13.6453L15.6748 13.7275H15.6598L15.6561 13.7799H15.6411L15.6374 13.821L15.6224 13.8173L15.615 13.8546L15.6037 13.8509L15.5589 13.9518H15.5439L15.5402 13.9855L15.5252 13.9818L15.5103 14.0266L15.4991 14.0416L15.4729 14.0715L15.4579 14.0902L15.3944 14.2173L15.3757 14.2921L15.3645 14.2958V14.322H15.3533L15.357 14.3519L15.342 14.3556L15.3346 14.4042L15.3234 14.4079L15.3159 14.4528L15.3047 14.4603L15.2972 14.5014L15.286 14.4977L15.2785 14.5351L15.2635 14.5388V14.55H15.2598L15.2523 14.5762L15.2374 14.5799V14.5986L15.2261 14.6024V14.621L15.2 14.6659L15.185 14.6622L15.1589 14.722L15.1476 14.7183L15.1215 14.7669L15.0168 14.9276L14.9831 14.9949V15.0248H14.9794V15.0211H14.9757L14.957 14.9725L14.9495 14.9687Z" fill="#009096"/>
<path d="M20.3256 17.6458L20.3331 17.6533L20.3219 17.6496L20.3181 17.6421H20.3256V17.6458Z" fill="#81BB30"/>
<path d="M21.6004 15.6981L21.6079 15.7018V15.713L21.5854 15.6831L21.6004 15.6981Z" fill="#81BB30"/>
<path d="M20.2919 17.616L20.2844 17.5898L20.2657 17.5712L20.2583 17.5412L20.2508 17.5375L20.2246 17.4964L20.1349 17.4366V17.4253L20.1162 17.4141L20.1087 17.4029L20.0975 17.3992L20.0751 17.373L20.0601 17.3693L20.0302 17.3319L20.0153 17.3095H20.0003L19.9816 17.2721L19.9667 17.2683L19.933 17.2197H19.9255V17.2085L19.8844 17.1674V17.1562L19.8732 17.1487V17.1375L19.8582 17.1263V17.115L19.8321 17.1038L19.7835 16.9954H19.7685L19.7124 16.8683L19.7012 16.8571V16.8459L19.6937 16.8421L19.6863 16.8047H19.6825L19.6788 16.7861H19.675L19.6713 16.7674L19.6676 16.7636V16.7449H19.6601V16.7188H19.6526L19.6451 16.6814L19.6377 16.6776V16.6664H19.6339V16.6402H19.6264L19.6227 16.6029H19.619V16.5692H19.6115V16.5206L19.604 16.5169L19.5068 16.1804L19.4993 16.1168H19.4919V16.1019H19.4844V16.0608L19.4732 16.0496L19.4694 15.9823L19.4582 15.9748L19.4545 15.7804H19.4657V15.7093L19.4806 15.7131L19.4844 15.6533H19.4919V15.6271L19.4993 15.6308V15.5972L19.5105 15.5935V15.571L19.5255 15.5673L19.533 15.5262H19.5442L19.5629 15.4626L19.5778 15.4663V15.4476L19.5891 15.4514L19.6451 15.3654L19.6563 15.3691L19.6788 15.328L19.69 15.3318V15.3205H19.705L19.7349 15.2794L19.7498 15.2831V15.2682L19.7685 15.2719L19.7909 15.257L19.7872 15.2458L19.8022 15.2495V15.2345L19.8171 15.2383L19.8283 15.2233H19.8433L19.847 15.2121H19.8694V15.1972L19.9031 15.1822L19.9629 15.171V15.1598L20.0302 15.156V15.1411L20.09 15.1336L20.1087 15.1373V15.1336H20.1237V15.1299L20.1498 15.1336L20.1573 15.1224L20.2284 15.1299L20.2358 15.1187L20.2956 15.1299L20.3031 15.1187L20.4115 15.1373L20.4265 15.1336L20.6059 15.1747V15.1859L20.7517 15.2345V15.2458L20.7854 15.2532L20.7891 15.2645L20.8976 15.2981L21.1593 15.4402L21.2041 15.4663V15.4701L21.2303 15.4738L21.2378 15.4888L21.2639 15.4962V15.5L21.2864 15.5037V15.5112L21.3051 15.5149V15.5187L21.3312 15.5262V15.5336L21.4284 15.5748V15.586L21.5593 15.6607V15.672L21.5855 15.6832L21.6079 15.7131V15.7168L21.6228 15.7206L21.6303 15.7542H21.6378V15.7804H21.6415V15.7916L21.649 15.7953V15.814H21.6565V15.8402H21.664V15.8514H21.6714V15.8851L21.6827 15.8925L21.6864 15.9374L21.6976 15.9449L21.7013 16.001L21.7126 16.0084L21.7163 16.1131L21.7275 16.1954H21.72V16.2215L21.7163 16.2178V16.3262L21.7013 16.3299L21.7051 16.3823L21.6901 16.386V16.4309L21.6752 16.4346L21.6789 16.4645H21.6714V16.4758H21.664V16.5019L21.6565 16.4982V16.5094H21.6527L21.6453 16.5505H21.6378L21.6341 16.5804L21.6191 16.5767V16.6029L21.6041 16.5991L21.6079 16.6253L21.5929 16.6216L21.5817 16.6627L21.5668 16.6589L21.5555 16.6963L21.5331 16.7038V16.7225L21.5069 16.7524H21.4957V16.7636H21.4808V16.7748L21.4696 16.7711L21.421 16.8309L21.406 16.8272L21.4097 16.8421L21.3462 16.8683V16.8795L21.3088 16.8907V16.9019L21.1966 16.9879L21.1817 16.9842V17.0029L21.1705 17.0066V17.0178L21.148 17.0291V17.0403L21.1293 17.0478V17.0627L21.1032 17.0739L21.0882 17.0889V17.1038L21.077 17.1001L21.0508 17.1263L21.0434 17.1225V17.1375L21.0247 17.145L21.0172 17.1562L21.0022 17.1524L20.7891 17.3132L20.7854 17.3095L20.7779 17.3281L20.763 17.3319V17.3431L20.7517 17.3468V17.3581L20.7368 17.3655V17.3767L20.7181 17.3842V17.3992L20.6994 17.4067L20.6919 17.4253L20.6658 17.4366L20.6246 17.4665V17.4777L20.6059 17.4814L20.5648 17.5188L20.5536 17.5151L20.5461 17.5263L20.5312 17.5226L20.5125 17.545L20.4938 17.5487L20.4863 17.5599L20.4714 17.5562L20.4676 17.5674L20.4527 17.5637L20.4452 17.5749L20.434 17.5712V17.5786L20.4115 17.5824L20.4041 17.5936L20.3928 17.5898L20.3779 17.6085L20.3667 17.6048L20.333 17.6422V17.6534L20.3256 17.6459V17.6422H20.3181L20.2994 17.616H20.2919Z" fill="#57B14F"/>
<path d="M16.2473 16.8798L16.243 16.8755H16.2473L16.2516 16.8798H16.2473Z" fill="#81BB30"/>
<path d="M16.3889 16.8532H16.4188V16.8457L16.43 16.842V16.8308L16.445 16.827V16.8195L16.4562 16.8233V16.8158L16.4711 16.8195L16.4824 16.8046L16.4973 16.8083V16.7934L16.5123 16.7971L16.5384 16.7822L16.5496 16.7672H16.5758L16.5833 16.756H16.5983L16.6095 16.741H16.6356L16.6431 16.7298L16.7029 16.7223L16.7179 16.7036L16.7777 16.6962L16.7964 16.685L16.8749 16.6102L16.8973 16.5952L17.017 16.5279L17.0357 16.5317V16.5167L17.1291 16.4756L17.2076 16.4345L17.2375 16.4307L17.2413 16.4195L17.2562 16.4233V16.4158L17.2749 16.4195V16.4158L17.3161 16.4083V16.4008L17.3422 16.4083V16.4008L17.3572 16.4046V16.3971L17.3684 16.4008L17.3759 16.3896L17.3946 16.3933L17.402 16.3821H17.4245L17.4207 16.3747H17.4282L17.4469 16.3597V16.3485L17.4693 16.3447L17.4768 16.3298L17.4955 16.326L17.5142 16.3036L17.5292 16.3074L17.5665 16.27L17.5815 16.2737L17.589 16.2625L17.6002 16.2662L17.6151 16.2475L17.6301 16.2513L17.6264 16.2438L17.6413 16.2475V16.2401L17.6637 16.2251L17.7273 16.2102L17.8357 16.1354L17.8619 16.1204V16.1092L17.8731 16.1055V16.0943L17.8955 16.0868V16.0793L17.9068 16.083V16.0756H17.9142L17.9329 16.0606L17.9404 16.0457H17.9554L17.9591 16.0344L17.9666 16.0382V16.0232L17.974 16.027L17.989 16.0083L18.0002 16.012V16.0045L18.0152 16.0083V16.0008L18.0339 15.9933V15.9858H18.0376L18.0413 15.9896V16.0008L18.0675 16.0195V16.0307L18.1198 16.0718L18.1236 16.083L18.1348 16.0868V16.098L18.1498 16.1017V16.113L18.161 16.1167V16.1279L18.1759 16.1316L18.2096 16.1877H18.2245L18.2395 16.2214L18.2507 16.2251V16.2363L18.2657 16.2401L18.3105 16.3148L18.4077 16.4195V16.4345L18.4339 16.4419V16.4569L18.4675 16.4756V16.4868L18.4825 16.4905V16.5018L18.4937 16.5055L18.4974 16.5167L18.5311 16.5541L18.5423 16.5578V16.5691L18.5573 16.5728V16.584H18.5685L18.6171 16.6625L18.632 16.6663V16.6775L18.6432 16.6812V16.6999H18.6582L18.8339 16.9018V16.913L18.8489 16.9167L18.8676 16.9504L18.8825 16.9541V16.9653L18.8937 16.9691L18.9162 17.0027H18.9311V17.0177H18.9423L18.9648 17.0663L18.976 17.07V17.0812L18.9909 17.085L19.0134 17.1298L19.0246 17.1336V17.1523H19.0395L19.047 17.1747H19.0508L19.0582 17.2084L19.0732 17.2158V17.227L19.0881 17.2383V17.257L19.0994 17.2644L19.1068 17.3018L19.1218 17.3093V17.3355L19.1293 17.3392L19.133 17.3691L19.148 17.3728L19.1554 17.4364H19.1629V17.4476L19.1704 17.4514V17.4887L19.1816 17.4962L19.219 17.6121L19.2302 17.6159L19.2452 17.6682H19.2564L19.2638 17.7131L19.2788 17.7168L19.2863 17.7804H19.3012L19.3237 18.0009H19.3162V18.1019L19.3125 18.0981V18.143L19.305 18.1393V18.1766L19.29 18.1804L19.2863 18.229H19.2713L19.2414 18.3262H19.2265L19.1741 18.4122L19.1592 18.4159H19.1517V18.4346L19.1405 18.4309V18.4383L19.1143 18.4496L19.0956 18.4645V18.4832L19.047 18.4982V18.5094H19.0433V18.5131H19.0395L19.0283 18.5169H19.0246L19.0134 18.5281L18.9984 18.5243V18.5318L18.9872 18.5281V18.5355L18.9722 18.5318L18.9648 18.543L18.9274 18.5468L18.9199 18.558H18.9049L18.9012 18.5692L18.8676 18.5879H18.8489V18.5991L18.7255 18.6066V18.6215L18.6021 18.6103V18.6141H18.5872V18.6178L18.4974 18.6028L18.2582 18.5318V18.5206L18.2021 18.5056L18.1984 18.4907L18.1834 18.4869V18.4832L18.1498 18.4757V18.4682L18.1311 18.4645V18.4608L18.0638 18.4496L18.0563 18.4346L17.9815 18.4196L17.974 18.4047L17.9292 18.3972V18.3935L17.903 18.386V18.3823L17.8806 18.3748V18.371L17.8469 18.3636L17.8395 18.3486L17.8058 18.3449V18.3337L17.7796 18.3262L17.7722 18.315L17.7273 18.3V18.2851L17.6974 18.2813V18.2701L17.6712 18.2589V18.2514L17.6525 18.2477V18.2402L17.6189 18.2215V18.2103L17.5964 18.2065V18.1953L17.488 18.1019L17.4768 18.0981V18.0869L17.4432 18.0495L17.4282 18.0458V18.0346L17.417 18.0308V18.0196L17.2861 17.9149L17.26 17.8962L17.2525 17.885L17.2375 17.8813V17.8776L17.2263 17.8738V17.8663L17.2002 17.8439L17.1104 17.7841V17.7729L17.0992 17.7691V17.7579L17.0768 17.7542V17.7392H17.0618V17.728L16.9871 17.6458L16.9758 17.642V17.6308L16.845 17.4962V17.4813L16.8188 17.4775V17.4663L16.8001 17.4551V17.4476H16.7852L16.7777 17.4327L16.759 17.4289L16.7515 17.414L16.7067 17.3878V17.3766L16.6917 17.3728V17.3616L16.6581 17.3429V17.3317L16.6431 17.328V17.313L16.5908 17.2719V17.2607H16.5758L16.5422 17.2046L16.5272 17.2009V17.1897L16.516 17.1859L16.501 17.1523L16.4898 17.1485L16.4861 17.1373L16.4749 17.1336V17.1186L16.4599 17.1074V17.0962L16.4524 17.0925L16.4412 17.0625L16.4263 17.0588V17.0401L16.4113 17.0364L16.3926 17.0139L16.3852 17.0027V16.9953L16.3665 16.9915V16.9803L16.3104 16.9467V16.9317L16.258 16.8981V16.8868L16.2468 16.8794H16.2506L16.2468 16.8756L16.3852 16.8644L16.3889 16.8532Z" fill="#5FA225"/>
</g>
<defs>
<clipPath id="clip0_97_11357">
<rect width="18.6667" height="11.597" fill="white" transform="translate(6.62 9.54785)"/>
</clipPath>
</defs>
</svg>
