<svg width="33" height="32" viewBox="0 0 33 32" fill="none" xmlns="http://www.w3.org/2000/svg">
<path d="M0.5 12C0.5 5.37258 5.87258 0 12.5 0H20.5C27.1274 0 32.5 5.37258 32.5 12V20C32.5 26.6274 27.1274 32 20.5 32H12.5C5.87258 32 0.5 26.6274 0.5 20V12Z" fill="#F4731E"/>
<g clip-path="url(#clip0_13996_7946)">
<path d="M14.0577 16.6764C13.8159 14.4759 16.1208 12.7084 19.2081 12.7353C22.2953 12.7621 24.9944 14.5625 25.2362 16.76C25.4781 18.9635 23.1731 20.725 20.0859 20.7012C16.9986 20.6803 14.2995 18.8769 14.0577 16.6764ZM25.8125 17.3601C25.5348 14.6312 22.4267 12.3949 18.8737 12.365C15.3177 12.3352 12.6664 14.5237 12.944 17.2527C13.2217 19.9816 16.3298 22.2179 19.8828 22.2478C23.4358 22.2746 26.0931 20.0891 25.8125 17.3601Z" fill="white"/>
<path d="M20.4473 22.3015C18.6977 24.1318 15.8881 24.284 14.1713 22.6419C12.4575 20.9998 12.4844 18.1872 14.237 16.36C15.9867 14.5327 18.7992 14.3804 20.51 16.0196C22.2238 17.6617 22.1969 20.4743 20.4443 22.3015M13.9653 16.3003C11.9321 18.4261 11.8992 21.6954 13.8907 23.6033C15.8822 25.5112 19.1485 25.335 21.1818 23.2092C23.218 21.0834 23.2509 17.814 21.2564 15.9061C19.265 13.9983 15.9986 14.1744 13.9623 16.3003" fill="white"/>
<path d="M14.1502 9.45734C17.7898 8.09287 21.3906 9.47227 22.1908 12.5386C22.9909 15.6049 20.6889 19.1997 17.0494 20.5612C13.4098 21.9257 9.80901 20.5463 9.00884 17.4799C8.20568 14.4136 10.5106 10.8218 14.1502 9.45734ZM10.7704 10.6277C6.99348 13.6194 6.03208 17.9517 8.62069 20.3044C11.2123 22.6602 16.3716 22.1436 20.1515 19.1519C23.9284 16.1632 24.8898 11.831 22.2982 9.47526C19.7066 7.12252 14.5443 7.63904 10.7704 10.6277Z" fill="white"/>
</g>
<defs>
<clipPath id="clip0_13996_7946">
<rect width="18.6667" height="16.926" fill="white" transform="translate(7.16675 8)"/>
</clipPath>
</defs>
</svg>
