<svg width="24" height="24" viewBox="0 0 24 24" fill="none" xmlns="http://www.w3.org/2000/svg">
<path d="M0 9C0 4.02944 4.02944 0 9 0H15C19.9706 0 24 4.02944 24 9V15C24 19.9706 19.9706 24 15 24H9C4.02944 24 0 19.9706 0 15V9Z" fill="#E2E8EF"/>
<g clip-path="url(#clip0_23315_219464)">
<path d="M20.8972 15.0685C17.8286 14.5199 14.6743 14.2456 11.4514 14.2456C8.22858 14.2456 5.07429 14.537 2.00572 15.0685C1.98858 15.0685 1.97144 15.0685 1.97144 15.0513C1.97144 15.0342 1.97144 15.017 1.98858 15.017C4.97144 14.1085 8.16001 13.6113 11.4343 13.6113C14.7257 13.6113 17.8972 14.1085 20.8972 15.017C20.9143 15.017 20.9314 15.0342 20.9143 15.0513C20.9143 15.0685 20.9143 15.0685 20.8972 15.0685Z" fill="url(#paint0_linear_23315_219464)"/>
<path d="M5.7943 9.77148L5.33144 10.9029L5.10858 11.4001L4.88573 10.9029C4.7143 10.5258 4.56001 10.1486 4.40573 9.77148H3.18858V9.87434C3.32573 9.87434 3.44573 9.99434 3.44573 10.1315C3.42858 10.3886 3.41144 10.6458 3.37715 10.9029L3.29144 11.6915C3.25715 12.0686 3.20573 12.4458 3.1543 12.8229H3.54858C3.56573 12.4458 3.60001 12.0686 3.6343 11.6915L3.7543 10.4915C3.92573 10.8515 4.09715 11.2115 4.25144 11.5886L4.30287 11.6915C4.4743 12.0686 4.62858 12.4458 4.78287 12.8229H4.90287L5.36573 11.6915L5.4343 11.5372C5.58858 11.1772 5.76001 10.8001 5.93144 10.4401L6.05144 11.6915C6.08573 12.0686 6.12001 12.4458 6.13715 12.8229H7.04573C6.9943 12.4458 6.94287 12.0686 6.90858 11.6915L6.82287 10.9029C6.80573 10.5258 6.77144 10.1486 6.7543 9.77148H5.7943ZM9.85715 12.5143L10.1657 11.9486L11.2629 10.1315V10.0458H8.84572V10.6115H8.94858C8.94858 10.4743 9.05144 10.3715 9.18858 10.3543H10.1829C10.08 10.5429 9.97715 10.7143 9.8743 10.9029L8.77715 12.7372V12.8058H11.3829V12.4801C11.1943 12.5143 11.0057 12.5143 10.8172 12.5143H9.85715ZM14.3143 12.8229H14.3314C14.3143 12.6343 14.3143 12.4458 14.3143 12.2572V11.5715H15.3943V12.2572C15.3943 12.4458 15.3943 12.6343 15.3772 12.8229H16.2C16.1829 12.6343 16.1829 12.4458 16.1829 12.2572V10.6115C16.1829 10.4229 16.1829 10.2343 16.2 10.0458H15.1372V10.1315H15.1543C15.2743 10.1315 15.36 10.2172 15.3772 10.3372V11.2629H14.3143V10.6115C14.3143 10.4229 14.3143 10.2343 14.3314 10.0458H13.2686V10.1315H13.2857C13.4057 10.1315 13.4914 10.2172 13.5086 10.3372V12.5315C13.4057 12.5486 13.2857 12.5486 13.1829 12.5486C13.0629 12.5486 12.9429 12.5315 12.8229 12.5143C12.4972 12.4458 12.4457 12.1372 12.4457 11.9486V10.6115C12.4457 10.4229 12.4457 10.2515 12.4629 10.0629H11.4V10.1486H11.4172C11.5372 10.1486 11.6229 10.2343 11.64 10.3543V11.8286C11.64 12.1029 11.7257 12.7029 12.4629 12.8058C12.6857 12.8401 12.9257 12.8572 13.1657 12.8572C13.56 12.8572 13.9372 12.8572 14.3143 12.8229ZM19.7486 11.4343C19.7486 12.3772 18.9257 12.8572 18.1372 12.8572C17.3314 12.8572 16.5257 12.3772 16.5257 11.4343C16.5257 10.4915 17.3486 10.0115 18.1372 10.0115C18.9257 10.0115 19.7486 10.4915 19.7486 11.4343ZM18.96 11.4343C18.96 10.9201 18.7372 10.3201 18.1372 10.3201C17.52 10.3201 17.3143 10.9201 17.3143 11.4343C17.3143 11.9486 17.5372 12.5486 18.1372 12.5486C18.7372 12.5658 18.96 11.9486 18.96 11.4343ZM8.40001 10.6115C8.40001 10.4229 8.40001 10.2343 8.41715 10.0458H7.33715V10.1486H7.3543C7.49144 10.1486 7.61144 10.2686 7.61144 10.4058V12.2572C7.61144 12.4458 7.61144 12.6343 7.5943 12.8229H8.41715C8.40001 12.6343 8.40001 12.4458 8.40001 12.2572V10.6115Z" fill="#140078"/>
</g>
<defs>
<linearGradient id="paint0_linear_23315_219464" x1="1.9412" y1="14.3341" x2="20.8963" y2="14.3341" gradientUnits="userSpaceOnUse">
<stop stop-color="#FC0019" stop-opacity="0"/>
<stop offset="0.15" stop-color="#FC0019" stop-opacity="0"/>
<stop offset="0.4" stop-color="#FC0019"/>
<stop offset="1" stop-color="#FC0019"/>
</linearGradient>
<clipPath id="clip0_23315_219464">
<rect width="18" height="5.31429" fill="white" transform="translate(3 9.77148)"/>
</clipPath>
</defs>
</svg>
