<svg width="24" height="24" viewBox="0 0 24 24" fill="none" xmlns="http://www.w3.org/2000/svg">
<path d="M0 9C0 4.02944 4.02944 0 9 0H15C19.9706 0 24 4.02944 24 9V15C24 19.9706 19.9706 24 15 24H9C4.02944 24 0 19.9706 0 15V9Z" fill="#00408C"/>
<path d="M16.3096 11.8704C16.2251 11.835 16.1344 11.8167 16.0427 11.8164C15.9511 11.8161 15.8603 11.8339 15.7755 11.8687C15.6908 11.9036 15.6137 11.9547 15.5487 12.0194C15.4838 12.084 15.4322 12.1608 15.3969 12.2454L14.0319 15.5236C13.9939 15.6088 13.9734 15.7006 13.9715 15.7938C13.9696 15.887 13.9864 15.9796 14.0209 16.0662C14.0554 16.1528 14.1068 16.2316 14.1722 16.298C14.2377 16.3644 14.3157 16.417 14.4018 16.4528C14.4879 16.4885 14.5802 16.5067 14.6734 16.5062C14.7666 16.5057 14.8588 16.4865 14.9445 16.4498C15.0301 16.4131 15.1076 16.3597 15.1723 16.2926C15.237 16.2255 15.2876 16.1461 15.3211 16.0591L16.6861 12.7809C16.7571 12.6101 16.7575 12.4181 16.6872 12.247C16.6169 12.0759 16.4817 11.9397 16.3111 11.8681" fill="white"/>
<path d="M14.6814 11.4383C14.8665 11.4383 15.044 11.3648 15.1749 11.2339C15.3058 11.103 15.3793 10.9255 15.3793 10.7404C15.3793 10.5554 15.3058 10.3778 15.1749 10.247C15.044 10.1161 14.8665 10.0426 14.6814 10.0426H14.2502L14.9087 8.46006C14.9665 8.29228 14.9582 8.10877 14.8855 7.9469C14.8127 7.78503 14.681 7.65698 14.5171 7.58882C14.3533 7.52066 14.1696 7.51752 14.0035 7.58004C13.8375 7.64255 13.7014 7.76603 13.6232 7.92531L12.7374 10.0426H11.2554L11.9147 8.46006C11.9856 8.2888 11.9856 8.09638 11.9146 7.92514C11.8795 7.84035 11.828 7.76331 11.7631 7.69841C11.6982 7.63352 11.6211 7.58205 11.5363 7.54694C11.3651 7.47603 11.1726 7.47605 11.0014 7.54701C10.8302 7.61797 10.6941 7.75405 10.6232 7.92531L9.7442 10.0426C8.75847 10.0271 7.79798 10.3545 7.02695 10.9688C6.83262 11.1597 6.67895 11.388 6.57519 11.6398C6.47143 11.8917 6.41973 12.1619 6.4232 12.4343C6.42369 12.8667 6.57309 13.2858 6.84628 13.621C7.11947 13.9562 7.49977 14.1871 7.9232 14.2748C8.35796 14.3544 8.80687 14.2757 9.18855 14.0528C9.57022 13.8299 9.85941 13.4776 10.0037 13.0598C10.0032 13.0584 10.0032 13.0568 10.0037 13.0553L10.6787 11.4391H12.1569L11.6094 12.7778C11.5417 12.9481 11.5437 13.1382 11.6149 13.3071C11.6861 13.476 11.8209 13.6101 11.9901 13.6805C12.1594 13.7509 12.3495 13.7519 12.5195 13.6834C12.6894 13.6148 12.8257 13.4822 12.8987 13.3141L13.6689 11.4391L14.6814 11.4383ZM8.2007 12.9083C8.09293 12.884 7.99656 12.8239 7.92726 12.7378C7.85795 12.6518 7.81978 12.5448 7.81895 12.4343C7.81516 12.3467 7.83013 12.2593 7.86285 12.1779C7.89558 12.0966 7.9453 12.0232 8.0087 11.9626C8.33376 11.7045 8.7255 11.5443 9.1382 11.5006L8.71445 12.5176C8.6222 12.7253 8.46095 12.9601 8.2007 12.9061" fill="white"/>
<path d="M17.5767 10.7821C17.5728 10.9453 17.5205 11.1037 17.4265 11.2372C17.3325 11.3707 17.201 11.4733 17.0487 11.532C16.8963 11.5908 16.73 11.603 16.5707 11.5671C16.4114 11.5312 16.2664 11.4489 16.1539 11.3306C16.0414 11.2122 15.9666 11.0631 15.9389 10.9022C15.9112 10.7413 15.9319 10.5758 15.9983 10.4267C16.0647 10.2775 16.1739 10.1514 16.312 10.0643C16.4501 9.97727 16.611 9.93315 16.7742 9.93756C16.9925 9.94345 17.1996 10.0357 17.35 10.194C17.5004 10.3523 17.5819 10.5637 17.5767 10.7821Z" fill="#E40048"/>
</svg>
