<svg width="24" height="24" viewBox="0 0 24 24" fill="none" xmlns="http://www.w3.org/2000/svg">
<path d="M0 9C0 4.02944 4.02944 0 9 0H15C19.9706 0 24 4.02944 24 9V15C24 19.9706 19.9706 24 15 24H9C4.02944 24 0 19.9706 0 15V9Z" fill="#0071BC"/>
<path d="M12.7666 9.29175L12.7645 9.29806L12.7666 9.29175Z" fill="white"/>
<path d="M8.04854 9.26206C8.02823 9.31008 8.00976 9.35625 7.99313 9.40427C7.99313 9.40427 7.99313 9.40427 7.99313 9.40612C7.66253 10.3591 8.19999 11.2623 8.66542 11.6298C8.81872 11.7536 9.01264 11.8884 9.2195 12.0343C9.3414 12.123 9.47623 12.2227 9.59812 12.315C9.77912 12.4554 9.95458 12.6069 10.1079 12.7712C10.1947 12.871 10.287 12.9892 10.3665 13.1111C10.3794 13.1332 10.3923 13.1536 10.4052 13.1757C10.4163 13.196 10.4274 13.2163 10.4385 13.2348C10.4496 13.2551 10.4588 13.2736 10.468 13.2939C10.5345 13.4417 10.5752 13.5968 10.5752 13.7612C10.5752 13.8074 10.5733 13.8535 10.5696 13.8979C10.5087 14.5702 10.0211 14.934 10.0211 14.934C10.0266 14.9303 10.0322 14.9285 10.0377 14.9248C10.0358 14.9266 10.0322 14.9285 10.0303 14.9303C10.0248 14.934 10.0192 14.9377 10.0192 14.9377C10.0192 14.9377 10.0229 14.9377 10.0248 14.9358L10.0211 14.9377C10.0248 14.9358 10.0303 14.9322 10.034 14.9303C10.1005 14.8952 10.4256 14.7234 10.7765 14.4556C11.253 14.1029 11.6999 13.6245 11.759 12.9615C11.7683 12.8673 11.7664 12.7694 11.759 12.6697C11.759 12.666 11.759 12.6623 11.759 12.6586C11.7461 12.5071 11.7129 12.3464 11.6556 12.1765C11.3121 11.1496 10.2796 10.8264 9.80129 10.2409C9.73295 10.1578 9.6757 10.0692 9.63322 9.97128C9.55934 9.80321 9.55749 9.61667 9.60921 9.43013C9.7311 9.05889 9.99522 8.81694 10.215 8.67104C10.2649 8.64149 10.3184 8.61378 10.3738 8.58423C10.3812 8.58054 10.3886 8.57684 10.396 8.57315C10.4256 8.55837 10.4551 8.54729 10.4847 8.53436C10.5179 8.51959 10.5511 8.50666 10.5844 8.49373C10.5881 8.49373 10.5918 8.49004 10.5973 8.49004C10.6361 8.47526 10.6749 8.46418 10.7118 8.45125C10.734 8.44386 10.7562 8.43832 10.7765 8.43278C10.7968 8.42724 10.8171 8.4217 10.8374 8.41801C10.8744 8.40877 10.9113 8.39954 10.9464 8.394C10.9556 8.394 10.963 8.3903 10.9722 8.38845C10.9907 8.38476 11.0092 8.38291 11.0258 8.37922C11.3195 8.34413 11.6427 8.3626 11.9936 8.46603C12.797 8.69874 12.7712 9.2953 12.7712 9.2953L12.7767 9.28237L12.7712 9.29715L13.3142 8.20746C13.3142 8.20746 13.3105 8.21115 13.3086 8.21484L13.3123 8.2093C13.3123 8.2093 13.3899 8.10403 12.7693 7.87131C12.4295 7.74203 11.6464 7.55364 10.782 7.61089C10.5327 7.62382 10.2741 7.65707 10.0211 7.72356C9.84007 7.77158 9.66831 7.83253 9.50393 7.90271C9.50393 7.90271 9.50393 7.90271 9.50208 7.90271C8.85935 8.18344 8.36806 8.6341 8.10949 9.14385C8.1058 9.15124 8.1021 9.16047 8.09841 9.16786C8.08363 9.19926 8.06701 9.23066 8.05408 9.26206H8.04854Z" fill="white"/>
<path d="M17.0636 15.8717C17.0636 15.8052 17.0729 15.7313 17.1024 15.6501C17.1652 15.4727 17.8172 13.5926 17.88 13.3912C18.3214 12.0171 18.8071 10.4195 17.361 10.329V10.3327C16.4671 10.2773 15.4956 10.7557 14.8362 11.1675C14.7235 11.2377 14.6478 11.2876 14.6257 11.3024C14.6257 11.2987 14.6257 11.2968 14.6257 11.2931C14.6386 11.2617 14.6718 11.1842 14.7198 11.0696L15.8132 8.53011C15.8206 8.51164 15.8299 8.49686 15.8354 8.48209C15.9536 8.23275 15.9758 8.0222 15.8539 7.89291C15.8483 7.88737 15.8428 7.88183 15.8372 7.87629C15.8336 7.87445 15.8317 7.87075 15.828 7.8689C15.7634 7.8098 15.6544 7.76363 15.4808 7.75624C15.4605 7.75624 15.4402 7.75624 15.418 7.75439C15.418 7.75439 15.418 7.75439 15.4161 7.75439C15.4014 7.75439 15.3884 7.75439 15.3718 7.75439H14.1436C14.1436 7.75439 14.1491 7.75994 14.1528 7.76178C14.1732 7.77656 14.1935 7.79318 14.2101 7.8098C14.2175 7.81719 14.2249 7.82643 14.2341 7.83566C14.2341 7.83566 14.2341 7.83566 14.236 7.83751C14.3061 7.92247 14.3911 8.07946 14.3671 8.32695C14.3671 8.33433 14.3652 8.34172 14.3634 8.34911C14.3597 8.37497 14.356 8.40267 14.3505 8.43037C14.3505 8.43037 14.3505 8.43037 14.3505 8.43222C14.3357 8.50056 14.3135 8.57443 14.2821 8.6557C14.2692 8.68894 14.2507 8.73142 14.2304 8.77944C13.3162 10.8591 12.7399 12.1667 12.3632 13.0237C11.7906 14.1282 10.9429 15.0498 9.59274 15.2973C9.59274 15.2973 8.78563 15.3804 8.1392 15.1348C6.96086 14.6896 6.60994 13.4374 6.67458 12.5176L5.67169 14.7192C5.67169 14.7192 6.64688 16.2632 8.29989 16.3833C9.6186 16.4793 10.5624 16.1506 11.327 15.397C11.3196 15.4136 11.3159 15.4284 11.3104 15.445C11.303 15.4617 11.2919 15.4894 11.2808 15.5245C11.2753 15.5448 11.2679 15.5651 11.2642 15.5836C11.2568 15.6131 11.2494 15.6464 11.2439 15.6814C11.2439 15.6944 11.2402 15.7073 11.2384 15.7202C11.2347 15.7553 11.2347 15.7923 11.2384 15.8292C11.2384 15.8311 11.2384 15.8329 11.2384 15.8347C11.2458 15.9308 11.279 16.0268 11.3566 16.1026C11.5745 16.3408 12.0178 16.3279 12.0178 16.3279H13.0539C13.0539 16.3279 12.7787 16.1857 12.7584 15.8883V15.8846C12.7547 15.8144 12.7639 15.7369 12.7953 15.6519C12.8304 15.5577 13.1536 14.7137 13.1536 14.7137C13.1795 14.6601 13.2072 14.6102 13.2331 14.5585C13.2682 14.4902 13.3162 14.4034 13.3716 14.3018C13.3808 14.287 13.3937 14.2667 13.4085 14.239C13.4215 14.2205 13.4381 14.1928 13.4602 14.154C13.4713 14.1356 13.4879 14.1116 13.5046 14.082C13.523 14.0561 13.5452 14.0192 13.5711 13.973C13.5858 13.9509 13.6006 13.925 13.6191 13.8936C13.6394 13.8622 13.6616 13.8234 13.6874 13.781C13.7151 13.7385 13.7465 13.6868 13.7816 13.6295C13.8444 13.5353 13.922 13.4116 14.0125 13.273C14.0291 13.249 14.0457 13.225 14.0623 13.1992C14.0697 13.1881 14.079 13.1752 14.0863 13.1641C14.0993 13.1456 14.1122 13.1271 14.1251 13.1087C14.4262 12.7097 14.7198 12.4013 14.9932 12.1723C15.1779 12.0208 15.3626 11.8934 15.5362 11.7936C15.8982 11.596 16.1956 11.5443 16.3895 11.5849C16.4763 11.6108 16.5502 11.6588 16.6074 11.7345C16.6093 11.7382 16.6111 11.7419 16.613 11.7438C16.7773 12.1298 16.6074 12.8261 16.3581 13.5261C16.2343 13.8382 16.0275 14.3627 15.8742 14.7395C15.8151 14.8799 15.7615 15.0073 15.7154 15.1218C15.7135 15.1274 15.7098 15.1366 15.7061 15.1421C15.6285 15.3139 15.5454 15.5152 15.5214 15.7018C15.5214 15.7018 15.5214 15.7018 15.5214 15.7036C15.5048 15.8403 15.5214 15.9677 15.6008 16.0693C15.6008 16.0693 15.5916 16.0527 15.5805 16.025C15.7652 16.3427 16.2971 16.3279 16.2971 16.3279H17.3333C17.3333 16.3279 17.3277 16.3242 17.3203 16.3186C17.2816 16.2946 17.1689 16.2134 17.1061 16.0712C17.1024 16.0601 17.0969 16.049 17.0932 16.0379C17.0913 16.0324 17.0895 16.0268 17.0876 16.0213C17.0747 15.977 17.0655 15.9271 17.0636 15.8717ZM14.6386 11.295C14.6386 11.295 14.6293 11.3005 14.6257 11.3042C14.6293 11.3005 14.6349 11.2987 14.6386 11.2968V11.295Z" fill="white"/>
</svg>
