<svg width="33" height="32" viewBox="0 0 33 32" fill="none" xmlns="http://www.w3.org/2000/svg">
<path d="M0.5 12C0.5 5.37258 5.87258 0 12.5 0H20.5C27.1274 0 32.5 5.37258 32.5 12V20C32.5 26.6274 27.1274 32 20.5 32H12.5C5.87258 32 0.5 26.6274 0.5 20V12Z" fill="#007F41"/>
<path fill-rule="evenodd" clip-rule="evenodd" d="M10.5746 21.933C10.6188 22.5187 10.8652 22.8604 11.5509 22.8468C16.3309 22.7695 17.5856 16.9741 14.6323 14.2477C14.1584 13.812 13.5835 13.4527 12.8898 13.2098C12.541 13.0863 11.9664 12.9082 11.4765 12.9082C11.0555 12.9082 10.6972 13.0415 10.6041 13.4611C10.4312 14.2623 10.5119 21.1382 10.5746 21.933Z" fill="white"/>
<path fill-rule="evenodd" clip-rule="evenodd" d="M17.2426 7.50806C16.858 7.50806 16.5345 7.63182 16.4484 8.01236V8.01236C16.2908 8.73705 16.3667 14.9811 16.421 15.705V15.705C16.4626 16.2337 16.6846 16.5434 17.307 16.5347V16.5347C21.6481 16.4617 22.7902 11.2002 20.1083 8.72538V8.72538C19.6786 8.32965 19.1515 8.00367 18.5273 7.78382V7.78382C18.2086 7.6701 17.6883 7.50806 17.2426 7.50806Z" fill="white"/>
<path fill-rule="evenodd" clip-rule="evenodd" d="M17.4272 13.6324C17.2253 14.5452 17.3227 22.3879 17.3922 23.298V23.298C17.4457 23.967 17.722 24.3516 18.5029 24.3402V24.3402C23.9606 24.2528 25.3951 17.6396 22.0254 14.5286V14.5286C21.4869 14.0322 20.8227 13.6218 20.038 13.3458V13.3458C19.6379 13.2033 18.9816 13.0002 18.4252 13.0002V13.0002C17.9426 13.0002 17.5317 13.1531 17.4272 13.6324" fill="white"/>
</svg>
