<svg width="32" height="32" viewBox="0 0 32 32" fill="none" xmlns="http://www.w3.org/2000/svg">
<path d="M4 2C4 0.895431 4.89543 0 6 0H26C27.1046 0 28 0.895431 28 2V30C28 31.1046 27.1046 32 26 32H6C4.89543 32 4 31.1046 4 30V2Z" fill="#E83E45"/>
<g clip-path="url(#clip0_13983_4711)">
<path d="M22 16C22 19.3118 19.3118 21.999 16 21.999C12.6882 21.999 10 19.3128 10 16C10 12.6872 12.6862 10 16 10C19.3138 10 22 12.6862 22 16Z" fill="white"/>
<path d="M13.5051 14.8154C13.3162 14.7025 13.1024 14.6705 12.8875 14.7015C13.2802 14.2828 13.4941 13.8271 13.4941 13.3674C13.4941 13.3254 13.4931 13.2834 13.4881 13.2405C13.4681 12.9547 13.3362 12.7398 13.1313 12.6678C12.9275 12.5909 12.5517 12.6299 11.9561 13.2385L11.5984 13.6392C11.4994 13.7601 11.1237 14.3287 11.0537 14.9213C10.9368 15.9287 11.0118 16.934 11.2686 17.8244C11.2986 17.9283 11.3945 18.1802 11.6253 18.2731C11.8702 18.373 12.103 18.2521 12.3099 18.1462L12.3648 18.1192L12.5777 18.0243L12.7836 17.9333L13.0344 17.8234C13.2153 17.7495 13.3852 17.6815 13.5501 17.5426C13.7699 17.3547 13.9308 17.1099 14.0137 16.8311C14.0567 16.6872 14.0867 16.5293 14.1017 16.3514C14.1147 16.2125 14.1297 15.9427 14.0767 15.7058C13.9638 15.1842 13.704 14.9343 13.5041 14.8164L13.5051 14.8154ZM11.5964 15.5679L11.6074 15.6998C11.6054 15.7298 11.6213 15.7578 11.6483 15.7678C11.6723 15.7788 11.6983 15.7738 11.7223 15.7538C11.9461 15.5659 12.2849 15.398 12.5577 15.492C12.7716 15.5659 12.9165 15.7858 12.9914 16.1475C13.1463 16.904 12.6277 17.2688 12.3039 17.4177L12.2929 17.4227L11.8782 17.6265C11.8782 17.6265 11.8552 17.6365 11.8292 17.6245C11.8032 17.6116 11.7962 17.5946 11.7792 17.5496C11.4974 16.5093 11.4015 15.416 11.5064 14.3957C11.5174 14.3187 11.5524 14.2258 11.6114 14.1509L11.9591 13.7791L11.9981 13.7371C12.187 13.5533 12.3648 13.4613 12.4608 13.5013C12.5407 13.5353 12.5597 13.6622 12.5607 13.7631C12.5767 14.3058 12.2739 14.8594 11.6383 15.457C11.6383 15.457 11.5894 15.497 11.5954 15.5689L11.5964 15.5679Z" fill="#E83E45"/>
<path d="M18.2141 11.6533C18.0972 11.2536 17.9073 11.1706 17.8523 11.1517C17.3537 10.9928 16.836 10.9598 16.3333 11.0477C15.5788 11.1866 14.9263 11.5834 14.4926 12.163C14.0379 12.7736 13.862 13.5351 13.9969 14.3046C14.1338 15.078 14.5235 15.7036 15.1311 16.1134C15.8417 16.592 16.788 16.7379 17.7994 16.5261C18.397 16.3962 18.8906 16.1643 19.2724 15.8345C19.4433 15.6866 19.4752 15.4978 19.4752 15.3659C19.4752 15.3659 19.4842 15.2589 19.4013 14.9221C19.3793 14.8402 19.3433 14.8162 19.2854 14.8162C19.2434 14.8162 19.1994 14.8642 19.1914 14.8742C18.9066 15.204 18.4719 15.4338 17.9303 15.5407C16.5382 15.8086 15.4679 15.158 15.2021 13.8838C15.0892 13.3312 15.1831 12.8026 15.4709 12.3928C15.7597 11.9761 16.2344 11.7003 16.805 11.6144C17.2397 11.5514 17.6824 11.6044 18.0802 11.7702C18.0802 11.7702 18.2511 11.8202 18.2141 11.6523V11.6533Z" fill="#E83E45"/>
</g>
<defs>
<clipPath id="clip0_13983_4711">
<rect width="12" height="11.999" fill="white" transform="translate(10 10)"/>
</clipPath>
</defs>
</svg>
