<svg width="24" height="24" viewBox="0 0 24 24" fill="none" xmlns="http://www.w3.org/2000/svg">
<path d="M0 9C0 4.02944 4.02944 0 9 0H15C19.9706 0 24 4.02944 24 9V15C24 19.9706 19.9706 24 15 24H9C4.02944 24 0 19.9706 0 15V9Z" fill="#E2E8EF"/>
<path d="M18.6503 18.4652H5.00012V5H18.6503V18.4652Z" fill="white"/>
<path d="M10.4892 14.0886L11.9442 12.93C11.7002 12.6279 11.4686 12.3232 11.2504 12.0085C9.56735 9.6065 8.5702 7.16289 9.29019 5.00024H5V7.33425L10.4892 14.0886Z" fill="#F15A22"/>
<path d="M12.7839 10.5981C12.8749 9.83573 13.1093 8.39783 14.5268 7.32971C15.7543 6.40787 17.2903 6.23056 18.6507 6.80044V5H11.0771C10.5774 7.1907 11.8902 9.598 12.7839 10.5981Z" fill="#F15A22"/>
<path d="M14.621 8.4012L14.6156 8.40491C13.1904 9.54732 13.5408 11.3402 14.8677 12.9478C15.8896 14.1886 17.257 15.0596 18.6504 14.3992V9.10588C17.3986 7.84098 15.896 7.378 14.621 8.4012Z" fill="#F15A22"/>
<path d="M5 10.0952V18.4638H5.00201L9.13187 15.1687L5 10.0952Z" fill="#F15A22"/>
<path d="M12.5113 13.5935C12.1057 13.9224 11.6046 14.3249 11.0486 14.7729L11.5852 15.432C12.3607 16.3888 13.4958 18.0466 14.9013 17.5979L14.9535 17.6609L13.9547 18.4636H18.6506V15.28C16.2345 16.575 14.1572 15.3963 12.5113 13.5935Z" fill="#F15A22"/>
<path d="M10.245 16.5366L9.68906 15.8545C8.54931 16.7569 7.353 17.7028 6.38196 18.4639H11.6362C11.2951 17.7497 10.6752 17.0656 10.245 16.5366Z" fill="#F15A22"/>
</svg>
