<svg width="24" height="24" viewBox="0 0 24 24" fill="none" xmlns="http://www.w3.org/2000/svg">
<path d="M0 9C0 4.02944 4.02944 0 9 0H15C19.9706 0 24 4.02944 24 9V15C24 19.9706 19.9706 24 15 24H9C4.02944 24 0 19.9706 0 15V9Z" fill="#008E71"/>
<path d="M10.6843 6.57678C10.6843 7.2667 11.2564 7.85049 11.9326 7.85049C12.6088 7.85049 13.181 7.2667 13.181 6.57678C13.181 6.47064 13.181 6.36449 13.129 6.25835C13.025 6.04607 12.9209 5.93992 12.9209 5.6215C12.9209 5.25 12.4528 5.25 12.2447 5.25C11.9847 5.25 11.6726 5.25 11.4125 5.40921C11.2044 5.51536 11.0484 5.67457 10.9443 5.83378C10.8403 6.04607 10.7363 6.25835 10.7363 6.47064" fill="white"/>
<path d="M18.1747 8.1689C18.1747 8.1689 17.9146 8.00969 17.6025 8.11583C17.1344 8.22197 15.6779 8.48733 13.3892 8.59347C12.3489 8.59347 11.1526 8.59347 10.0082 8.5404C9.07193 8.43426 7.25138 8.1689 6.83525 8.11583C6.62719 8.11583 6.10703 8.06276 5.89897 8.27505C5.58687 8.5404 5.63889 8.96497 5.89897 9.33647C5.89897 9.33647 6.31509 10.0264 7.35541 10.2387C8.81185 10.504 11.1005 10.3979 11.8288 10.3448C13.4933 10.1856 14.7937 9.92025 15.782 9.65489C15.782 9.65489 17.1344 9.2834 17.8106 8.85883C18.0706 8.69961 18.4348 8.43426 18.2787 8.1689H18.1747Z" fill="white"/>
<path d="M13.233 11.247C12.4008 10.7694 11.4125 10.7694 10.5802 11.247C9.27985 11.99 8.81171 13.6883 9.59195 15.0681C10.2161 16.0765 11.1004 15.8642 11.3085 15.5989C11.6206 15.2274 11.5165 14.9089 11.3085 14.6966C10.9964 14.2721 10.9444 14.0067 10.9444 13.7944C10.9444 13.2637 11.3605 12.7861 11.9327 12.7861C12.1927 12.7861 12.5048 12.8922 12.6609 13.1576C12.921 13.476 12.921 13.9006 12.921 14.2721C12.8169 16.3949 11.9847 18.1993 11.9327 18.3055C11.9327 18.4116 11.8286 18.6239 11.9847 18.7301C12.1407 18.7831 12.2968 18.7301 12.4528 18.5708C12.8169 18.2524 13.5972 17.2971 13.9613 16.3419C14.1693 15.8111 14.6895 14.4844 14.5334 13.1576C14.3774 12.1492 13.7012 11.5124 13.129 11.194L13.233 11.247Z" fill="white"/>
</svg>
