<svg width="33" height="32" viewBox="0 0 33 32" fill="none" xmlns="http://www.w3.org/2000/svg">
<path d="M0.5 12C0.5 5.37258 5.87258 0 12.5 0H20.5C27.1274 0 32.5 5.37258 32.5 12V20C32.5 26.6274 27.1274 32 20.5 32H12.5C5.87258 32 0.5 26.6274 0.5 20V12Z" fill="#EE3424"/>
<g clip-path="url(#clip0_13996_8527)">
<path fill-rule="evenodd" clip-rule="evenodd" d="M5.74658 15.9514L11.0808 10.6208V21.2856L5.74658 15.9514Z" fill="white"/>
<path fill-rule="evenodd" clip-rule="evenodd" d="M11.0808 10.6208H21.7457L16.415 15.9514L11.0808 10.6208Z" fill="white"/>
<path fill-rule="evenodd" clip-rule="evenodd" d="M16.415 15.9514L21.7457 21.2856H11.0808L16.415 15.9514Z" fill="white"/>
<path fill-rule="evenodd" clip-rule="evenodd" d="M21.7493 21.2856V10.6208L27.0799 15.9514L21.7493 21.2856Z" fill="white"/>
</g>
<defs>
<clipPath id="clip0_13996_8527">
<rect width="21.3333" height="10.6649" fill="white" transform="matrix(1 0 0 -1 5.74658 21.2856)"/>
</clipPath>
</defs>
</svg>
