<svg width="33" height="32" viewBox="0 0 33 32" fill="none" xmlns="http://www.w3.org/2000/svg">
<path d="M0.5 12C0.5 5.37258 5.87258 0 12.5 0H20.5C27.1274 0 32.5 5.37258 32.5 12V20C32.5 26.6274 27.1274 32 20.5 32H12.5C5.87258 32 0.5 26.6274 0.5 20V12Z" fill="#F1F2F4"/>
<g clip-path="url(#clip0_13983_6804)">
<path d="M21.5472 18.3265H21.5323L21.5061 18.2891H21.4911L21.4313 18.2143L21.3902 18.177V18.1657L21.364 18.1433V18.1321H21.3566L21.3416 18.1134H21.3304L21.3229 18.0984L21.2893 18.0872V18.0798L21.2631 18.0685V18.0611L21.2369 18.0498L21.2294 18.0349L21.1883 18.0162V18.0087L21.1696 17.9975L21.1622 17.9826L21.136 17.9713L21.1285 17.9564H21.1136L21.1061 17.9414L21.0874 17.9302L21.0762 17.9078H21.0612L21.0537 17.8928H21.0388L21.0126 17.8554H20.9977L20.9453 17.7881H20.9341V17.7807L20.9154 17.7657V17.7545L20.8631 17.7022V17.6909L20.8481 17.6835L20.8257 17.6536V17.6423L20.8593 17.605H20.8743L20.8892 17.59H20.9005L20.9079 17.5825H20.9266V17.575H20.9378L20.9453 17.5676H20.9603L20.9677 17.5601H20.9827L20.9902 17.5526H21.0089L21.0276 17.5302H21.0425L21.05 17.5227H21.065L21.1061 17.4891H21.1285V17.4741L21.1696 17.4442L21.1958 17.4292L21.2033 17.4106L21.222 17.4031V17.3919L21.2407 17.3844V17.3732H21.2556V17.3582H21.2668V17.3433H21.2818L21.2893 17.3208H21.2967L21.3042 17.2984H21.3192L21.3267 17.2722H21.3453L21.364 17.2461H21.379L21.3902 17.2311H21.4052L21.4126 17.2236H21.4276L21.4538 17.2012H21.4687L21.5136 17.1638H21.5248L21.5323 17.1563L21.551 17.1489V17.1339H21.5584L21.5846 17.1115H21.5996V17.1002L21.6145 17.0853L21.6407 17.0703V17.0591L21.6594 17.0516V17.0404L21.6818 17.033V17.0217H21.6968V17.003H21.7117V16.9844L21.7715 16.947V16.9358L21.8239 16.9208V16.9096L21.8613 16.8984V16.8872L21.9211 16.861V16.8498H21.9323L21.9809 16.7899H21.9921V16.7787H22.0071V16.7675H22.022L22.0482 16.7376V16.7189L22.0669 16.7114L22.0781 16.6778H22.0931L22.1043 16.6404H22.1155V16.618H22.1304V16.5955H22.1454L22.1529 16.5694H22.1604L22.1678 16.5282H22.1753V16.517H22.1828V16.4946H22.1903V16.4834H22.1977V16.4535H22.2127V16.4049H22.2276V16.3451H22.2426V16.2366H22.2501V16.2142H22.2576L22.2426 16.132V16.0273L22.2276 16.0198V15.9637L22.2127 15.9562V15.9114L22.1977 15.9039V15.874H22.1903V15.859H22.1828V15.8329H22.1753V15.8142H22.1678V15.7992H22.1604V15.7731H22.1529L22.1454 15.7394H22.1304V15.7319H22.1417L22.1491 15.7469H22.1641L22.179 15.7693H22.1903L22.1977 15.7843H22.2127L22.2389 15.8217H22.2501L22.3024 15.889L22.3435 15.9226L22.3622 15.9562H22.3735L22.3809 15.9787L22.4146 16.0086V16.0198L22.4482 16.0497V16.0609L22.4632 16.0684V16.0796L22.4819 16.0946V16.1058L22.4968 16.1133V16.1245L22.5118 16.132L22.5193 16.1507H22.5267L22.9342 16.603L22.9455 16.6105V16.6255L22.9604 16.6329L22.9679 16.6516H22.9754L23.0688 16.76H23.08L23.095 16.7825H23.1099L23.1324 16.8124H23.1436L23.166 16.8423H23.1772L23.2184 16.8946L23.3044 16.9844L23.3305 17.018L23.4427 17.1376L23.4502 17.1489L23.4763 17.1601L23.4838 17.175L23.51 17.1862L23.5175 17.2012L23.7754 17.4554H23.7904L23.8091 17.4928H23.8165V17.5078L23.8315 17.5152V17.5227L23.8464 17.5302V17.5414L23.8577 17.5489V17.5601L23.8764 17.575L23.9848 17.6872H23.9997L24.0072 17.7022H24.0222L24.0371 17.7246H24.0521L24.0633 17.747H24.0782L24.0969 17.7769H24.1119L24.1642 17.8442H24.1792V17.8517L24.1979 17.8704V17.8816L24.2577 17.9414L24.3437 18.0237L24.3586 18.0312V18.0386L24.3698 18.0461L24.396 18.0573L24.4297 18.0835L24.4371 18.0984L24.4558 18.1134H24.4708L24.4895 18.1321L24.497 18.147L24.5194 18.162H24.5306L24.5456 18.177L24.553 18.1919L24.6615 18.2966L24.8147 18.4536L24.8297 18.4686H24.8409L24.8484 18.4835L25.1886 18.7938V18.8013L25.2073 18.8163L25.4054 19.0331H25.4166L25.4428 19.0705H25.454L25.4615 19.0854L25.5026 19.1228L25.5288 19.1527L25.5624 19.1938L25.5886 19.2275L25.6073 19.2574L25.6223 19.2761L25.641 19.3172L25.6671 19.3509L25.6821 19.377L25.6896 19.392L25.712 19.4331V19.4481L25.7195 19.4518L25.7269 19.478H25.7344V19.4929L25.7419 19.5004V19.5116H25.7494V19.5303H25.7569V19.549H25.7643V19.5677H25.7718L25.8129 19.7546V19.8257H25.8204L25.8167 19.9827H25.8092V20.0238H25.8017V20.0537H25.7942V20.0836H25.7868V20.1061H25.7793V20.1285H25.7718V20.1472H25.7681L25.7606 20.1883H25.7531V20.1995H25.7456V20.2182H25.7382V20.2294H25.7307V20.2444H25.7232L25.712 20.278H25.7045V20.2892H25.697V20.3005H25.6896V20.3117H25.6821L25.6671 20.3453H25.6597L25.6522 20.3603H25.641L25.6335 20.3864H25.6185V20.4014L25.5998 20.4126V20.4238L25.5811 20.4313V20.4425L25.555 20.4575V20.4687L25.4952 20.5061L25.4428 20.5509H25.4279L25.4092 20.5696H25.3942L25.3793 20.5809H25.3643L25.3493 20.5958H25.3381L25.3307 20.6033H25.312V20.6108H25.2858L25.2783 20.622H25.2409L25.2335 20.6369L25.1736 20.6444V20.6519H25.1475V20.6594H25.1288H25.1176H25.0989H25.0802H25.0615H25.0428H25.0166H24.9904L24.9568 20.6519V20.6594C24.9568 20.6594 24.7587 20.6332 24.6801 20.6145C24.6016 20.5958 24.3998 20.521 24.3998 20.521L24.3698 20.5098H24.3624V20.4986L24.3287 20.4874L24.3026 20.4687L24.2839 20.4612V20.4537L24.2577 20.4425V20.4351L24.2315 20.4238L24.224 20.4089L24.1829 20.3902V20.3827L23.9885 20.2631V20.2556H23.9623V20.2444H23.9436V20.2332H23.925V20.222L23.9063 20.2107L23.5997 20.0014H23.5885L23.5623 19.964H23.5511L23.3642 19.8182V19.8107L23.338 19.7995V19.792H23.3193V19.7808L23.2782 19.7621V19.7546H23.2632V19.7472L23.2371 19.7359L23.2296 19.721L23.1922 19.7023L23.1847 19.6873H23.1735V19.6799L23.1548 19.6686L23.1473 19.6537H23.1361L23.1212 19.6313H23.1062L23.0987 19.6163H23.0838L23.0576 19.5789H23.0427L22.8221 19.3957V19.3883L22.781 19.3696V19.3621H22.7697V19.3546H22.7548V19.3471L22.7137 19.3284L22.7062 19.3135L22.68 19.3023L22.6725 19.2873L22.6464 19.2761L22.6352 19.2537H22.6202L22.6127 19.2387H22.5978L22.5828 19.2163C22.5828 19.2163 22.3585 19.0368 22.2725 18.9583C22.1865 18.8798 21.9136 18.6368 21.8837 18.6032L21.8575 18.5807V18.5695L21.8239 18.5396L21.8164 18.5209L21.8052 18.4985L21.5659 18.2854L21.5472 18.3265Z" fill="#AACF53"/>
<path d="M16.7582 16.8871V16.8983L16.8105 16.932V16.9469L16.8666 16.9806V16.9918L16.8853 16.9955V17.003L16.8928 17.0142L16.9115 17.0367L16.9264 17.0404V17.0591L16.9414 17.0628L16.9526 17.0927L16.9601 17.0965V17.1077L16.975 17.1189V17.1339L16.9862 17.1376L16.99 17.1488L17.0012 17.1526L17.0161 17.1862L17.0274 17.1899V17.2012L17.0423 17.2049L17.076 17.261H17.0909V17.2722L17.1433 17.3133V17.3283L17.1582 17.332V17.3432L17.1919 17.3619V17.3731L17.2068 17.3769V17.3881L17.2517 17.4143L17.2591 17.4292L17.2778 17.4329L17.2853 17.4479H17.3003V17.4554L17.319 17.4666V17.4778L17.3451 17.4815V17.4965L17.3788 17.5152L17.476 17.6311V17.6423L17.4872 17.646L17.562 17.7283V17.7395H17.5769V17.7545L17.5994 17.7582V17.7694L17.6106 17.7732V17.7844L17.7003 17.8442L17.7265 17.8666V17.8741L17.7377 17.8778V17.8816L17.7526 17.8853L17.7601 17.8965L17.7788 17.9003L17.7863 17.9152L17.805 17.919V17.9264L17.8349 17.9377V17.9489L17.8685 17.9676V17.9788L17.8797 17.9825V17.9937L17.8947 17.9975L17.9171 18.0199V18.0311L17.9284 18.0349V18.0461L17.9433 18.0498L17.977 18.0872V18.0984L17.9882 18.1021L18.0966 18.1956V18.2068L18.119 18.2106V18.2218L18.1527 18.2405V18.248L18.1714 18.2517V18.2592L18.1975 18.2704V18.2816L18.2274 18.2853V18.3003L18.2723 18.3152L18.2798 18.3265L18.3059 18.3339V18.3452L18.3396 18.3489L18.3471 18.3638L18.3807 18.3713V18.3751L18.4031 18.3825V18.3863L18.4293 18.3938V18.3975L18.4742 18.405L18.4817 18.4199L18.5564 18.4349L18.5639 18.4498L18.6312 18.4611V18.4648L18.6499 18.4685V18.476L18.6835 18.4835V18.4872L18.6985 18.491L18.7022 18.5059L18.7583 18.5209V18.5321L18.9976 18.6031L19.0873 18.6181V18.6143H19.1023V18.6106L19.2256 18.6218V18.6069L19.349 18.5994V18.5882H19.3677L19.3602 18.5919V18.6031L19.3303 18.6218L19.2892 18.6517V18.6629L19.2705 18.6667L19.2256 18.7041H19.2107L19.192 18.7228H19.177L19.1583 18.7414L19.1434 18.7377L19.1322 18.7564L19.1172 18.7527L19.1135 18.7639L19.091 18.7676V18.7714H19.0798L19.0724 18.7788L19.0537 18.7826V18.79L19.0125 18.7938L19.0051 18.805H18.9826V18.8125L18.9677 18.8087V18.8162L18.9527 18.8125V18.82L18.9153 18.8237V18.8312L18.8966 18.8274V18.8312L18.8929 18.8499L18.8817 18.8461L18.848 18.876L18.8181 18.8723V18.8872L18.777 18.9097L18.7172 18.9583L18.706 18.9545L18.6536 18.9882L18.5751 19.0256L18.5564 19.0293V19.0331L18.5415 19.0293L18.534 19.0405L18.5078 19.0443L18.5004 19.0555L18.4891 19.0517L18.4779 19.063L18.463 19.0592V19.063H18.448V19.0704L18.4368 19.0667V19.0742L18.4218 19.0704V19.0779L18.4106 19.0742V19.0779H18.3957V19.0854L18.3583 19.0891V19.0929L18.3359 19.0891V19.0966L18.3246 19.0929V19.1003L18.3059 19.0966V19.1041L18.2873 19.1078V19.1153L18.2648 19.1116V19.119L18.2461 19.1153V19.119L18.1527 19.1564L18.1265 19.1826L18.1153 19.1789L18.0891 19.205H18.0742L18.0629 19.22L18.048 19.2162L18.0368 19.2312H18.0218L18.0181 19.2424H17.9919L17.9844 19.2536L17.9657 19.2574V19.2611L17.9358 19.2648L17.9321 19.2723L17.891 19.2798V19.2835H17.8797V19.2873H17.8648V19.291H17.8536V19.2948L17.8125 19.3022V19.306L17.7938 19.3022V19.3097L17.7788 19.306V19.3134L17.7601 19.3097V19.3134H17.7452V19.3172L17.7265 19.3134V19.3209L17.7078 19.3172V19.3247L17.5844 19.3733L17.5694 19.3695L17.5433 19.3957L17.5321 19.392L17.5171 19.4106L17.5059 19.4069L17.4909 19.4219L17.476 19.4181L17.4722 19.4331L17.4573 19.4293L17.4461 19.4443L17.4199 19.448L17.4124 19.4592H17.3863L17.3788 19.4705L17.3414 19.4742L17.3339 19.4854L17.3152 19.4817L17.3077 19.4929L17.0909 19.5303L17.0647 19.5265V19.5303L17.0386 19.5265V19.534L17.0124 19.5303V19.534L16.9862 19.5303V19.5378L16.9526 19.5303V19.5378L16.9189 19.5303V19.5378L16.8666 19.5265V19.5303L16.6236 19.4929V19.4854L16.5413 19.4705V19.4667L16.489 19.4555V19.4518L16.4516 19.4443V19.4368L16.4217 19.4331V19.4256L16.3881 19.4181V19.4144L16.317 19.3882V19.3807L16.2983 19.377V19.3733L16.2497 19.3583V19.3508H16.2385V19.3434L16.2161 19.3396V19.3321H16.2049V19.3247L16.1862 19.3209V19.3134L16.1563 19.3022V19.2985L16.1376 19.2948V19.2873L16.0965 19.2686V19.2611H16.0852V19.2536L16.0591 19.2424L16.0516 19.2312L16.0105 19.2088L16.0067 19.1975L15.9768 19.1863V19.1789L15.9581 19.1676L15.9506 19.1564L15.9394 19.1527L15.932 19.1415L15.917 19.1377L15.9058 19.119L15.8908 19.1153L15.8796 19.0929H15.8647L15.8534 19.0704L15.831 19.0592L15.7712 18.9882H15.76L15.7114 18.9246L15.7002 18.9209L15.6665 18.8798V18.8648L15.6516 18.8573V18.8499L15.6366 18.8424V18.8312L15.6179 18.8162V18.8013L15.5992 18.7863V18.7751L15.5843 18.7676L15.5768 18.7452H15.5731L15.5693 18.734L15.5581 18.7265L15.5506 18.7041H15.5431L15.5357 18.6779L15.5245 18.6704V18.6592L15.5095 18.6442V18.6293H15.5058L15.502 18.6181L15.4983 18.6143V18.6031H15.4908L15.4759 18.562H15.4721L15.4646 18.5321L15.4572 18.5283V18.5171H15.4497V18.4984H15.4422L15.4347 18.4723L15.431 18.4685L15.416 18.405H15.4086V18.3863H15.4011V18.3676H15.3973L15.3861 18.3227H15.3824V18.2966H15.3749L15.3674 18.2218L15.3824 17.7096H15.3861V17.6909H15.3936V17.6722L15.4011 17.676L15.4198 17.5974L15.4272 17.6012V17.59H15.431V17.5713H15.4385L15.4459 17.5488L15.4497 17.5526V17.5339H15.4572L15.4646 17.5115H15.4721V17.4928L15.4833 17.489V17.4778L15.4983 17.4666V17.4554H15.502V17.4442H15.5095V17.4329L15.5245 17.4292L15.5282 17.4068L15.5431 17.403V17.3918L15.5544 17.3881L15.5618 17.3657L15.5731 17.3619V17.347L15.5955 17.3395V17.3283L15.6142 17.3171V17.3058L15.6441 17.2909V17.2759L15.674 17.2647V17.2498L15.6852 17.2423L15.7039 17.2385V17.2273L15.7189 17.2236L15.7301 17.2086L15.7637 17.1937V17.1825L15.7749 17.175H15.7899L15.8086 17.1563H15.8235L15.8497 17.1339H15.8609L15.8759 17.1189L15.8871 17.1226L15.902 17.1077H15.9133L15.9207 17.0965H15.9469L15.9544 17.0853L15.9731 17.0815V17.074H15.9992L16.0067 17.0628L16.0179 17.0666L16.0329 17.0554L16.0479 17.0591V17.0516L16.0591 17.0554V17.0516H16.074L16.0778 17.0404L16.0965 17.0441V17.0404L16.1264 17.0367L16.1226 17.0329L16.1451 17.0367V17.0292H16.1712V17.0217L16.1899 17.0254V17.018L16.2049 17.0217V17.0142H16.2871V17.0068L16.3096 17.0105V17.003L16.3282 17.0068V17.003H16.4068L16.4142 16.9955H16.4292L16.4404 16.9806L16.4516 16.9843L16.4666 16.9656L16.4815 16.9694L16.4927 16.9544L16.5077 16.9581L16.5114 16.9469L16.5376 16.9432L16.5451 16.932L16.5563 16.9357L16.5675 16.9245L16.5787 16.9282L16.5862 16.917L16.5974 16.9208L16.6086 16.9095H16.6236V16.9058H16.6385V16.9021H16.6498L16.747 16.8796L16.7582 16.8871Z" fill="#AACF53"/>
<path d="M18.8928 15.8365L18.8741 15.8589L18.8591 15.8627V15.8739L18.8479 15.8851L18.8329 15.8814L18.8255 15.8926L18.8143 15.8889V15.8963L18.803 15.8926V15.9001L18.7806 15.8963V15.9001L18.7432 15.9075V15.9113H18.7283V15.915L18.6909 15.9225L18.6834 15.9337H18.6572L18.6498 15.9449L18.6385 15.9412L18.6311 15.9524L18.6161 15.9487L18.6124 15.9599H18.5974L18.5899 15.9711L18.5787 15.9674L18.5712 15.9786L18.5376 15.9861L18.5413 15.9898V16.001L18.5675 16.0197V16.0309L18.6198 16.072L18.6236 16.0833L18.6348 16.087V16.0982L18.6498 16.102V16.1132L18.661 16.1169V16.1281L18.6759 16.1319L18.7096 16.1879H18.7245L18.7395 16.2216L18.7507 16.2253V16.2365L18.7656 16.2403L18.7993 16.315H18.8105L18.8404 16.3711L18.8666 16.401L18.9077 16.4197V16.4347L18.9339 16.4422V16.4571L18.9675 16.4758V16.487L18.9825 16.4908V16.502L18.9937 16.5057L18.9974 16.5169L19.0311 16.5543L19.0423 16.5581V16.5693L19.0573 16.573V16.5842H19.0685L19.1171 16.6627L19.132 16.6665V16.6777L19.1432 16.6814V16.7001H19.1582L19.1732 16.7412H19.1806L19.1918 16.7749L19.2068 16.7786L19.218 16.8123L19.233 16.816L19.2741 16.8459V16.8571L19.2853 16.8609V16.8721L19.3339 16.902V16.9132L19.3489 16.917L19.3676 16.9506L19.3825 16.9543V16.9656L19.3937 16.9693L19.4162 17.0029H19.4311V17.0179H19.4423L19.4648 17.0665L19.476 17.0702V17.0815L19.4909 17.0852L19.5134 17.1301L19.5246 17.1338V17.1525H19.5395L19.547 17.1749H19.5507L19.5582 17.2086L19.5732 17.216V17.2273L19.5881 17.2385V17.2572L19.5994 17.2646L19.6068 17.302L19.6218 17.3095V17.3357L19.6293 17.3394L19.633 17.3693L19.648 17.3731L19.6554 17.4366H19.6629V17.4478L19.6704 17.4516V17.489L19.6816 17.4964L19.6891 17.5525L19.704 17.56L19.719 17.6123L19.7302 17.6161L19.7452 17.6684H19.7564L19.7638 17.7133L19.7788 17.717L19.7863 17.7806H19.8012L19.8237 18.0011H19.8162V18.1021L19.8124 18.0983V18.1432L19.805 18.1395V18.1769L19.79 18.1806L19.7863 18.2292H19.7713L19.7414 18.3264H19.7265L19.6741 18.4124L19.6592 18.4161H19.6517V18.4348L19.6405 18.4311V18.4386L19.6143 18.4498L19.5956 18.4647V18.4834L19.547 18.4984V18.5096L19.5582 18.5133L19.562 18.5021H19.5769L19.5844 18.4909L19.5994 18.4946L19.6031 18.4834L19.6143 18.4872V18.4797H19.6367L19.6442 18.4685H19.6554L19.6741 18.4498H19.6891L19.7152 18.4273H19.7302L19.7751 18.39H19.7863V18.3825L19.8087 18.375L19.8124 18.36L19.8573 18.3301V18.3189L19.891 18.3002V18.289L19.9059 18.2853V18.2778L19.9171 18.2741V18.2628L19.9321 18.2591V18.2479L19.9433 18.2441V18.2292L19.962 18.2217L19.9844 18.1918L20.0106 18.1806L20.0143 18.1694L20.0293 18.1731L20.0368 18.1507L20.048 18.1544L20.0555 18.1432H20.0667L20.0741 18.132L20.0891 18.1357L20.0928 18.1245H20.1115L20.1414 18.0983H20.1527L20.1788 18.0759H20.1938V18.0684L20.205 18.0647V18.0535L20.22 18.0572L20.2461 18.0311H20.2499V18.0198L20.276 18.0124V18.0011L20.3097 17.9824V17.9712L20.3358 17.9563V17.9451H20.3545V17.9338L20.4069 17.9002H20.4331L20.4405 17.8778H20.4667V17.874L20.4891 17.8703L20.4929 17.8591L20.5078 17.8628V17.8553L20.5265 17.8516L20.534 17.8404L20.5452 17.8441L20.5564 17.8292L20.5714 17.8329L20.5789 17.8217H20.5863L20.5901 17.8105L20.605 17.8142V17.8067L20.6312 17.7993V17.788L20.7546 17.7058V17.6946L20.7733 17.6871V17.6721L20.7957 17.6647L20.8181 17.6422L20.7994 17.6161H20.792L20.7845 17.5899L20.7658 17.5712L20.7583 17.5413L20.7508 17.5376L20.7247 17.4964L20.6349 17.4366V17.4254L20.6162 17.4142L20.6088 17.403L20.5975 17.3992L20.5751 17.3731L20.5602 17.3693L20.5303 17.3319L20.5153 17.3095H20.5003L20.4817 17.2721L20.4667 17.2684L20.4331 17.2198H20.4256V17.2086L20.3844 17.1674V17.1562L20.3732 17.1487V17.1375L20.3583 17.1263V17.1151L20.3433 17.1001L20.3321 17.0964L20.2835 16.9955H20.2686L20.2125 16.8684L20.2013 16.8571V16.8459L20.1938 16.8422L20.1863 16.8048H20.1826L20.1788 16.7861H20.1751L20.1714 16.7674L20.1676 16.7637V16.745H20.1601V16.7188H20.1527L20.1452 16.6814L20.1377 16.6777V16.6665H20.134V16.6403H20.1265L20.1227 16.6029H20.119V16.5693H20.1115V16.5207L20.1041 16.5169L20.0966 16.3674H20.0891V16.3487L20.0741 16.3412L20.0667 16.2964L20.0555 16.2926L20.048 16.2664H20.0405V16.2403H20.033V16.2216L20.0181 16.2141V16.1805H20.0069L19.9994 16.1169H19.9919V16.102H19.9844V16.0608L19.9732 16.0496L19.9695 15.9823L19.9583 15.9748L19.9545 15.7804H19.9657V15.7094L19.9807 15.7131L19.9844 15.6533H19.9919V15.6272L19.9994 15.6309V15.5972L20.0106 15.5935V15.5711L20.0255 15.5673L20.033 15.5262H20.0442L20.0629 15.4627L20.0779 15.4664V15.4477L20.0891 15.4514L20.1452 15.3655L20.1564 15.3692L20.1788 15.3281L20.19 15.3318V15.3206H20.205L20.2349 15.2795L20.2499 15.2832V15.2682L20.2686 15.272L20.291 15.257L20.2872 15.2458L20.3022 15.2496V15.2346L20.3172 15.2383L20.3284 15.2234H20.3433L20.3471 15.2122H20.3695V15.1972L20.4031 15.1823L20.463 15.171V15.1598L20.5303 15.1561V15.1411L20.5901 15.1337L20.6088 15.1374V15.1337H20.6237V15.1299L20.6499 15.1337L20.6574 15.1224L20.7284 15.1299L20.7359 15.1187L20.7957 15.1299L20.8032 15.1187L20.9116 15.1374L20.9265 15.1337L21.106 15.1748V15.186L21.2518 15.2346V15.2458L21.2854 15.2533L21.2892 15.2645L21.3677 15.2982V15.3094L21.435 15.3393V15.3542L21.4612 15.3655V15.3729H21.4836L21.4948 15.3954L21.5172 15.3991V15.4066H21.5322V15.4141L21.5845 15.4253V15.429L21.6294 15.4402V15.444L21.663 15.4514V15.4589L21.7042 15.4664V15.4701L21.7303 15.4739L21.7378 15.4888L21.764 15.4963V15.5L21.7864 15.5038V15.5113L21.8051 15.515V15.5187L21.8313 15.5262V15.5337L21.9285 15.5748V15.586L22.0593 15.6608V15.672L22.0855 15.6832L22.0743 15.672V15.6608L22.0631 15.6533V15.6421L22.0481 15.6272V15.6122L22.0369 15.6047L22.0294 15.5786L22.0145 15.5711V15.5599L22.0107 15.5561L22.0032 15.5374L21.9883 15.5299V15.5187L21.9621 15.4926V15.4813L21.936 15.4589V15.4477L21.8874 15.4028L21.8836 15.3804H21.8687V15.3692L21.8537 15.3655L21.7602 15.2757L21.749 15.2533H21.7341L21.7266 15.2383L21.7154 15.2346L21.7004 15.2159L21.6743 15.2047L21.6705 15.1897L21.6481 15.1823V15.1748L21.6107 15.1561V15.1486H21.5957V15.1411L21.5546 15.1224V15.115L21.521 15.1038V15.0963H21.5098V15.0888L21.4873 15.0851V15.0776L21.4761 15.0738V15.0701L21.4574 15.0664V15.0589H21.4425V15.0514L21.3976 15.0365V15.0327L21.3752 15.0252V15.0215L21.349 15.0178V15.0103L21.3154 15.0028V14.9991L21.2854 14.9916V14.9841L21.177 14.9617V14.9542L20.8854 14.9131L20.8892 14.9168L20.8555 14.9131V14.9168L20.8219 14.9131V14.9168L20.8032 14.9131V14.9206L20.777 14.9168V14.9206L20.7508 14.9168V14.9243L20.7359 14.9206V14.928L20.6948 14.9243V14.9318L20.6835 14.928V14.9355L20.6648 14.9318V14.9393H20.6387V14.9467L20.6162 14.9393V14.9467L20.5789 14.9542V14.9579H20.5639V14.9617H20.5377L20.534 14.9729L20.5041 14.9766L20.5003 14.9879L20.4854 14.9841V14.9916H20.4667L20.4592 15.0028L20.4443 14.9991L20.4331 15.0178L20.4181 15.014L20.4069 15.029H20.3957L20.3732 15.0477H20.362L19.6517 15.444H19.6255L19.6293 15.4514H19.6068L19.5994 15.4627H19.5881V15.4664L19.562 15.4813L19.3451 15.6122V15.6234L19.3339 15.6272L19.3152 15.6458H19.3003L19.2853 15.6533L18.8928 15.8365Z" fill="#AACF53"/>
<path d="M10.6418 15.1335L10.6531 15.1073H10.6605L10.668 15.0849H10.6755V15.0737H10.6792V15.055L10.6867 15.0587L10.7017 15.0251H10.7054V15.0139H10.7129V15.0027H10.7204V14.9915H10.7241V14.9802H10.7316V14.969L10.7465 14.9578V14.9466L10.7577 14.9428L10.7652 14.9204L10.7764 14.9167L10.7839 14.8942L10.7989 14.8905L10.7951 14.8756L10.8026 14.8793V14.8681L10.8176 14.8643V14.8494L10.8288 14.8456V14.8344L10.8437 14.8307V14.8195L10.8549 14.8157V14.8045L10.8736 14.7933V14.7821L10.8961 14.7746V14.7634L10.926 14.7447V14.7298L10.9409 14.726V14.7223L10.9521 14.7185V14.7073L11.1166 14.5054H11.1204L11.1391 14.4867H11.1466V14.4681H11.154V14.4568H11.1578V14.4419H11.1652L11.1802 14.4082H11.1839V14.397H11.1914V14.3858H11.1989V14.3746H11.2026V14.3634H11.2101V14.3522L11.2176 14.3559V14.3409L11.2251 14.3447V14.3297L11.2363 14.3222V14.3073L11.2512 14.3036L11.255 14.2811L11.2699 14.2774L11.2737 14.255L11.2886 14.2512V14.24H11.2961V14.2288L11.3148 14.2213L11.3185 14.1951L11.341 14.1877V14.1764L11.3597 14.169L11.3933 14.1316V14.1204H11.4045L11.4195 14.0979L11.4269 14.1017V14.0905H11.4307L11.4531 14.068L11.4643 14.0643V14.0531H11.4718L11.4905 14.0344L11.5017 14.0381L11.6774 13.8474L11.6737 13.8362L11.6812 13.84L11.6886 13.8138L11.6961 13.8175V13.8063H11.6999V13.7914L11.7073 13.7951V13.7802L11.7148 13.7839V13.7727H11.7223V13.7615H11.726V13.7502H11.7335V13.739H11.741V13.7278L11.7522 13.7166V13.7054L11.7672 13.7016L11.7709 13.6792L11.7933 13.6717L11.7971 13.6456H11.812V13.6306H11.8195L11.8158 13.6194L11.8307 13.6157L11.8382 13.6007L11.8569 13.5932V13.5783L11.8756 13.5708L11.8831 13.5484L11.9167 13.5297V13.5185L11.9466 13.4998V13.4885L12.0475 13.3764L12.0513 13.3801V13.3652L12.0588 13.3689L12.0662 13.3278H12.07V13.3166H12.0775L12.0849 13.2829H12.0924V13.2717H12.0962V13.253H12.1036L12.1111 13.2306H12.1148V13.2156H12.1223L12.1373 13.182H12.141V13.1708H12.1485V13.1596H12.156V13.1483H12.1597V13.1371H12.1672V13.1259L12.1747 13.1296V13.1147L12.1821 13.1184V13.1035L12.1934 13.096V13.081L12.2083 13.0773L12.2195 13.0437L12.2345 13.0399V13.0287L12.2532 13.0212L12.2606 12.9988L12.2719 12.9951V12.9838L12.2906 12.9726V12.9614H12.298L12.3055 12.9465L12.3167 12.9427V12.9278L12.3429 12.9165V12.9053L12.3765 12.8866V12.8754L12.4139 12.8493V12.838L12.4924 12.7184L12.4999 12.7221V12.7072L12.5074 12.7109L12.5186 12.6548L12.5261 12.6586V12.6474H12.5336V12.6287H12.5373L12.5448 12.6062L12.5523 12.61V12.5913H12.556L12.5709 12.5576H12.5784V12.5464H12.5822V12.5352H12.5896V12.524H12.5971V12.5128L12.6046 12.5165L12.6009 12.5016L12.6083 12.5053V12.4903H12.6158V12.4791L12.627 12.4717V12.4567H12.642L12.6457 12.4305L12.6607 12.4268L12.6682 12.4044L12.6794 12.4006V12.3894L12.6943 12.3857V12.3745L12.7055 12.3707V12.3558H12.7205V12.3408L12.7317 12.3371L12.728 12.3184L12.7504 12.3109V12.2997L12.7728 12.2847L12.7803 12.266L12.8401 12.1875V12.1576H12.8439V12.1389L12.8513 12.1427V12.124H12.8588V12.1015H12.8626V12.0828L12.8812 12.0866V12.0679H12.8887V12.0492L12.8962 12.0529L12.8925 12.0417H12.8999L12.9074 12.0043L12.9149 12.0081V11.9931L12.9186 11.9969V11.9782H12.9261L12.9336 11.9557H12.9373V11.9445H12.9448V11.9296H12.9523L12.9635 11.8959H12.971V11.8847H12.9785V11.8735H12.9859L12.9971 11.8398L13.0084 11.8361V11.8174L13.0233 11.8137L13.0308 11.7912L13.042 11.7875V11.7763L13.057 11.7725V11.7613L13.0682 11.7576V11.7426L13.0831 11.7389V11.7277L13.0943 11.7239V11.7127H13.1018L13.1093 11.6978L13.1205 11.694V11.6791L13.1392 11.6716V11.6604L13.1729 11.6417V11.6305L13.2701 11.4884V11.4735H13.2775V11.4548H13.2813V11.4323H13.2888V11.4211H13.2962V11.4024H13.3037V11.3912L13.3074 11.3949V11.3763H13.3149V11.365H13.3224V11.3463H13.3261L13.3336 11.3239L13.3411 11.3277V11.3127L13.3448 11.3164L13.3486 11.2977L13.3598 11.294V11.2753H13.3673V11.2641H13.371V11.2529L13.386 11.2491V11.2379L13.3972 11.2267V11.2155H13.4046V11.2043H13.4121V11.1931L13.4233 11.1893L13.4308 11.1669L13.4458 11.1632V11.1519L13.457 11.1482V11.137L13.4719 11.1295V11.1183L13.4832 11.1146V11.1033L13.4981 11.0996V11.0884L13.5168 11.0809V11.066L13.5355 11.0585V11.0473L13.6177 10.9276H13.6252V10.9127H13.6327V10.894H13.6402V10.879H13.6439V10.8529L13.6514 10.8566V10.8416L13.6589 10.8454L13.6701 10.793H13.6776V10.7818H13.685V10.7631L13.6925 10.7669L13.6963 10.7407L13.7037 10.7444L13.7112 10.7145H13.7149L13.7299 10.6809H13.7374V10.6697L13.7411 10.6734V10.6585H13.7486V10.6472L13.7561 10.651V10.6398L13.7673 10.6285V10.6173L13.7822 10.6136L13.786 10.5874L13.8009 10.5837L13.8047 10.5612L13.8196 10.5575L13.8271 10.5351L13.8458 10.5276V10.5164L13.857 10.5126V10.4977L13.872 10.494L13.8794 10.479L13.8981 10.4678V10.4566L13.9094 10.4528V10.4491L13.9243 10.4454V10.4304L13.9505 10.4192V10.4042L14.1262 10.1724V10.1612H14.1299V10.15L14.1449 10.1463V10.1313L14.1561 10.1238V10.1089L14.1636 10.1126V10.1014L14.1785 10.0977L14.1823 10.0715L14.1897 10.0752L14.1935 10.0565L14.2084 10.0528L14.2159 10.0304L14.2346 10.0229V10.0079H14.2496V9.99299L14.2683 9.98551V9.97429L14.2944 9.95934V9.94812L14.3206 9.93317V9.92195L14.3804 9.88457V9.87335L14.3916 9.86961L14.4028 9.85092L14.4178 9.85466L14.4701 9.8098L14.4851 9.81353L14.5038 9.7911L14.515 9.79484L14.5412 9.76867L14.5561 9.77241L14.5673 9.75372L14.5823 9.75746L14.5898 9.74624H14.6085V9.73876L14.6197 9.7425L14.6272 9.73129H14.6421L14.6459 9.72007H14.6683V9.71259L14.7057 9.70885L14.7131 9.69764H14.7244L14.7393 9.69016L14.7543 9.6939V9.68642L14.7655 9.69016V9.68268L14.7767 9.68642L14.7842 9.67521L14.8029 9.67895V9.67147H14.8328V9.66399L14.8515 9.66773V9.66399L14.8776 9.66025V9.65651L14.8963 9.66025V9.65278L14.9113 9.65651V9.64904L14.93 9.65278V9.6453L14.9412 9.64904V9.64156L15.0534 9.61913L15.0683 9.62287L15.0758 9.61165H15.102L15.1057 9.60044H15.1356V9.59296L15.1468 9.5967V9.58922L15.1879 9.58548V9.578L15.2066 9.58174V9.57427H15.2328V9.56679L15.2515 9.57427V9.56679L15.2665 9.57053V9.56305H15.3038V9.55931L15.3225 9.56305V9.55557L15.345 9.55931V9.55183L15.3637 9.55557V9.5481L15.3898 9.55557V9.5481L15.416 9.55557V9.5481L15.4496 9.55557V9.5481L15.973 9.66773V9.67521L15.9917 9.67895V9.68642L16.0104 9.69016V9.6939L16.0329 9.69764V9.70512L16.0516 9.70885V9.71259L16.0628 9.71633V9.72381L16.0852 9.72755V9.73129L16.1114 9.7425V9.74998L16.1301 9.75372V9.76119L16.1712 9.77989V9.78363L16.1974 9.79484L16.2048 9.8098L16.231 9.82101L16.2385 9.83223L16.2497 9.83597L16.2572 9.85092H16.2721L16.2796 9.86587L16.2908 9.86961L16.2983 9.88083L16.3095 9.88457L16.317 9.89952H16.3319L16.3506 9.92943H16.3656L16.3918 9.96682H16.403V9.97429L16.4179 9.98177V9.99672L16.5264 10.1164L16.545 10.1351V10.1463L16.5675 10.1612V10.1724L16.5787 10.1837L16.5862 10.2023H16.5899V10.2173L16.6049 10.2248L16.6123 10.2435L16.6161 10.2472V10.2584L16.631 10.2696V10.2846H16.6385V10.2958L16.646 10.2995V10.3108H16.6535V10.322L16.6572 10.3257V10.3369H16.6647L16.6796 10.3781H16.6871V10.3968H16.6908V10.4117H16.6983V10.4304H16.7058V10.4416L16.7133 10.4454V10.464H16.7208V10.4827H16.7282L16.7357 10.5276H16.7395L16.8105 10.737H16.8142L16.8217 10.7631H16.8292L16.8367 10.8005L16.8441 10.8043V10.8155H16.8479L16.8703 10.8977L16.8778 10.9015V10.9164L16.8815 10.9202L16.8853 10.9388H16.889L16.8927 10.965H16.8965L16.9114 11.0585V11.5632L16.8965 11.6454H16.8927V11.6641L16.8853 11.6604V11.6791L16.8292 11.9969H16.8254V12.0679H16.818V12.124H16.8105V12.1576H16.8067V12.195L16.7993 12.1913V12.2212H16.7918L16.7955 12.2473L16.7881 12.2436L16.717 12.4679H16.7095L16.7058 12.4903H16.6983V12.509L16.6908 12.5053L16.6834 12.5315L16.6796 12.5277V12.5427L16.6722 12.5389V12.5576L16.6572 12.5614V12.5726L16.646 12.5838L16.575 12.7408L16.5675 12.7558L16.5637 12.7408L16.545 12.7259L16.5376 12.6997L16.5151 12.681V12.6698L16.5002 12.6623V12.6474L16.4815 12.6324L16.4665 12.6137L16.4628 12.61V12.5988L16.4366 12.5763L16.3992 12.524H16.388L16.3805 12.5053L16.3731 12.5016V12.4829H16.3656V12.4642H16.3581V12.4455L16.3544 12.4417V12.4268L16.3469 12.4231V12.4044H16.3394V12.3857H16.3319L16.3207 12.3445H16.3133V12.3296H16.3058V12.3184H16.2983V12.3034H16.2908V12.2922L16.2871 12.2885L16.2833 12.2773L16.2721 12.2623V12.2511L16.2572 12.2436L16.2422 12.2025L16.2235 12.1875V12.1726L16.1974 12.1501L16.1899 12.1314L16.1749 12.124V12.109L16.1562 12.0941V12.0828L16.1338 12.0642V12.0529L16.0889 12.0081L16.0815 11.9894L16.0702 11.9856L16.0665 11.9744L16.0403 11.9557L16.0067 11.9109H15.9955V11.9034L15.9618 11.881V11.866L15.9394 11.8585V11.8511L15.9207 11.8398L15.9132 11.8286L15.8721 11.8099L15.8684 11.795L15.8459 11.7838V11.78L15.8347 11.7763L15.8198 11.7613L15.8048 11.7576V11.7539L15.7936 11.7501L15.7861 11.7352H15.7712V11.7277H15.7599L15.745 11.709H15.73L15.7263 11.694L15.6665 11.6641V11.6604L15.6515 11.6566V11.6492L15.6104 11.638L15.4571 11.5669L15.3824 11.5445V11.5408L15.1693 11.4959L14.7692 11.4996L14.7505 11.4959V11.5034L14.7094 11.5071V11.5108L14.6832 11.5146L14.6758 11.5258L14.6645 11.5221V11.5295L14.6496 11.5258V11.5333L14.6384 11.5295L14.6234 11.5408L14.6085 11.537L14.6047 11.5482L14.5636 11.552L14.5524 11.5707H14.5262L14.5187 11.5819L14.4963 11.5856V11.5894L14.4776 11.5931V11.6043L14.444 11.6155V11.623H14.4328L14.3991 11.6529L14.3729 11.6604V11.6716L14.3542 11.6753V11.6866L14.3393 11.6903V11.6978L14.3243 11.694L14.2944 11.7239V11.7352H14.287L14.272 11.7576L14.2608 11.7539L14.2533 11.7725H14.2458L14.2421 11.7875L14.2271 11.7912L14.2197 11.8174L14.201 11.8249L14.1897 11.8585L14.1748 11.8623V11.8735L14.1598 11.8847L14.1636 11.8959H14.1561V11.9071H14.1486V11.9183H14.1411V11.9296H14.1374V11.9408H14.1299L14.1187 11.9744H14.1112L14.0439 12.1614L14.0327 12.2847H14.0253L14.0215 12.4231H14.029L14.0365 12.5464L14.0439 12.5502L14.0514 12.6249H14.0552L14.0589 12.6511H14.0664V12.6773H14.0701V12.7034H14.0776V12.7221H14.0851V12.7408H14.0925V12.7595L14.1 12.7633V12.782H14.1075V12.8006H14.1112L14.115 12.8193L14.1187 12.8231V12.838L14.1262 12.8418L14.1411 12.8792L14.1486 12.8829V12.8941H14.1524L14.1561 12.9053L14.1598 12.9091V12.9203H14.1673V12.9352H14.1748V12.9502L14.1897 12.9614V12.9764L14.201 12.9838L14.2159 13.025L14.2346 13.0399L14.2421 13.0661L14.257 13.0736L14.2645 13.0923L14.2683 13.096L14.2757 13.1147H14.2907V13.1296L14.3094 13.1446V13.1558L14.3243 13.167V13.1782L14.343 13.1932V13.2007L14.358 13.2044L14.3692 13.2194L14.3767 13.2381L14.4028 13.2605V13.2792H14.4103V13.2979L14.4178 13.3016V13.3166L14.4253 13.3203V13.339H14.4328V13.3502L14.4402 13.354L14.4477 13.3913H14.4514L14.4664 13.4325H14.4739V13.4437L14.4814 13.4474V13.4586H14.4888V13.4736H14.4926V13.4848L14.5075 13.4998V13.5147L14.5187 13.5222L14.5337 13.5596L14.5561 13.5783L14.5636 13.6044L14.5748 13.6119L14.5823 13.6306L14.6085 13.653V13.668L14.6421 13.6979V13.7091L14.6907 13.754L14.6982 13.7727L14.7094 13.7764L14.7318 13.825L14.7468 13.8811L14.7543 13.8848L14.7505 13.896H14.758V13.9147H14.7655L14.7804 13.9559H14.7842V13.9708H14.7917V13.982H14.7991V13.997H14.8066V14.0157L14.8216 14.0269L14.8253 14.0531L14.8403 14.0605L14.8552 14.0979L14.8664 14.1054V14.1204L14.8814 14.1278L14.8889 14.154L14.9001 14.1615V14.1764L14.9262 14.1989V14.2101L14.9562 14.2325V14.2475L14.9748 14.2624L14.9823 14.2774H14.9973V14.2849L15.0085 14.2923V14.3073L15.0309 14.3148L15.0384 14.3372H15.0496L15.0571 14.3522H15.0646V14.3634L15.0758 14.3746L15.0833 14.412H15.0907V14.4232L15.0982 14.4269V14.4456H15.1057L15.1169 14.4867H15.1244V14.498L15.1319 14.5017V14.5129H15.1393V14.5241L15.1468 14.5279V14.5391H15.1506V14.554L15.1655 14.569V14.5802L15.1805 14.5877L15.1917 14.6288L15.2141 14.6438L15.2216 14.6625L15.2253 14.6662V14.6774L15.2478 14.6924V14.7073L15.2739 14.7298V14.741L15.3001 14.7634L15.3038 14.7784L15.3487 14.8232L15.3562 14.8419L15.3674 14.8456V14.8569L15.3898 14.8681V14.8718L15.4235 14.9017V14.9167L15.4384 14.9242V14.9354L15.4422 14.9391V14.9503H15.4496V14.969L15.4571 14.9728L15.4758 15.0214L15.4683 15.0587L15.4609 15.055V15.0662H15.4534L15.4571 15.0849H15.4496V15.1036L15.4422 15.0999V15.1111H15.4347V15.1298H15.431L15.4235 15.1522L15.416 15.1485V15.1672H15.4123L15.3973 15.2008H15.3898V15.212H15.3861V15.2307L15.3711 15.2345V15.2457L15.3637 15.2419V15.2606L15.3524 15.2644V15.2793L15.345 15.2756V15.2905L15.3337 15.298V15.313H15.3188L15.3076 15.3466L15.2926 15.3504V15.3653L15.2739 15.3728L15.2665 15.3952L15.2478 15.4027V15.4176L15.2365 15.4214L15.2291 15.4363H15.2216V15.4476L15.2029 15.4588V15.47L15.1693 15.4999L15.0945 15.6008L15.087 15.6158H15.0795V15.6345H15.072V15.6569H15.0646V15.6756L15.0608 15.6719L15.0496 15.6906L15.0421 15.6868V15.7055H15.0384V15.7242H15.0309V15.7354H15.0234V15.7541L15.016 15.7504V15.7616H15.0122L14.9935 15.7952H14.9861L14.9823 15.8177H14.9748V15.8289L14.9674 15.8252V15.8438H14.9636L14.9487 15.8476L14.9524 15.8513V15.8625L14.9449 15.8588L14.9337 15.8924L14.9225 15.8962L14.9076 15.9336L14.8926 15.9373L14.8814 15.971L14.8664 15.9747V15.9859L14.8552 15.9896V16.0009L14.8403 16.0046L14.844 16.0158H14.8365L14.829 16.0345L14.8178 16.0382V16.0495L14.7954 16.0569L14.7991 16.0682L14.7842 16.0719V16.0869L14.773 16.0906L14.7804 16.0981L14.7692 16.1018V16.113L14.7431 16.1579V16.1654L14.6982 16.1953V16.2065L14.672 16.2214L14.5337 16.3972L14.5262 16.3934L14.5225 16.4196L14.515 16.4158V16.4308L14.5075 16.4271V16.4458H14.5L14.4888 16.4794H14.4814V16.4906H14.4776V16.5018H14.4701V16.513L14.4627 16.5093V16.5243L14.4514 16.5317V16.5467H14.4365V16.5654H14.4328L14.4253 16.5841H14.4103L14.4028 16.6102L14.3916 16.614V16.6252H14.3842V16.6364L14.3729 16.6402V16.6514L14.3542 16.6589L14.3468 16.685L14.3243 16.6925V16.7037L14.3056 16.7112V16.7261L14.2944 16.7299V16.7411L14.2683 16.7523V16.7673L14.2346 16.786V16.7972L14.1337 16.9168H14.1299V16.9392H14.1225V16.9542L14.1187 16.9505L14.0925 17.0028L14.0851 16.9991L14.0813 17.029H14.0739V17.0402H14.0664V17.0589L14.0589 17.0551L14.0477 17.0888H14.0402V17.1H14.0365V17.1112H14.029V17.1299L14.014 17.1336V17.1523H14.0028V17.1673L13.9953 17.1636V17.1785L13.9879 17.1748L13.9916 17.1897L13.9841 17.186V17.2009L13.9692 17.2084V17.2196L13.958 17.2271L13.9505 17.2495L13.9355 17.2533L13.9318 17.2757L13.9131 17.2832L13.9056 17.3056L13.8869 17.3131L13.8794 17.3318L13.8645 17.3355L13.8608 17.358L13.8383 17.3692V17.3804L13.8084 17.3991V17.4103L13.7748 17.429V17.4402L13.6626 17.5673L13.6589 17.5823H13.6514V17.6084L13.6439 17.6047L13.6402 17.6271H13.6327L13.6252 17.6608H13.6177L13.614 17.6907L13.6065 17.687L13.5991 17.7131L13.5953 17.7094V17.7206H13.5878V17.7393H13.5804L13.5691 17.7729H13.5617V17.7842L13.5542 17.7804L13.543 17.8178L13.528 17.8215V17.8328L13.5168 17.8402V17.8552L13.5093 17.8515V17.8664L13.5019 17.8627V17.8776L13.4906 17.8814L13.4832 17.9038L13.4719 17.9075V17.9187L13.457 17.9225V17.9337L13.4458 17.9374V17.9487L13.4308 17.9524V17.9673L13.4196 17.9711V17.9823L13.3972 17.9898L13.4009 18.001L13.386 18.0085V18.0197L13.3598 18.0309V18.0459L13.3261 18.0608V18.0758L13.3 18.087V18.0945L13.2888 18.0982L13.1729 18.2403L13.1691 18.2515L13.1542 18.2851H13.1504L13.1429 18.3076H13.1355V18.3263L13.128 18.3225L13.1317 18.3375L13.1243 18.3337V18.3524H13.1168L13.0943 18.3823H13.0869V18.3935H13.0794V18.4122L13.0682 18.416V18.4272L13.057 18.4347L13.0532 18.4496H13.0495V18.4608H13.042V18.4721L13.0308 18.4833V18.4907L13.0158 18.4982L13.0084 18.5207L12.9971 18.5244V18.5356L12.9822 18.5394V18.5506L12.971 18.5543L12.9635 18.5767L12.9448 18.588L12.9373 18.6104L12.9186 18.6179L12.885 18.6552V18.6665L12.8738 18.6627L12.8588 18.6852H12.8551V18.6964L12.8401 18.7001V18.7076L12.8289 18.7113V18.7225L12.7541 18.7711V18.7824L12.7429 18.7861L12.7093 18.816H12.6981L12.6906 18.8235L12.4812 19.0179L12.4737 19.0141V19.0291H12.47V19.0403L12.4551 19.0478V19.0628H12.4401L12.4364 19.0889L12.4214 19.0927L12.4177 19.1151L12.3952 19.1226L12.3915 19.145L12.3691 19.1562L12.3653 19.1786L12.3466 19.1861V19.1973L12.3242 19.2086L12.3279 19.2198L12.298 19.231L12.2943 19.2497H12.2868V19.2609L12.2719 19.2572L12.141 19.3805L12.1298 19.3768L12.1223 19.388L12.07 19.4142V19.4291L12.0625 19.4254L12.0363 19.4403V19.4478L12.0251 19.4441V19.4553L11.9989 19.4628V19.4703L11.984 19.4665L11.9803 19.4777L11.9728 19.474L11.9653 19.4852L11.8345 19.6161L11.8232 19.6198L11.8158 19.6422L11.8045 19.646V19.6572L11.7896 19.6609V19.6721L11.7784 19.6759V19.6871L11.7634 19.6908V19.7058L11.7522 19.7095V19.7207L11.7298 19.7282V19.7394L11.7186 19.7469V19.7581L11.7036 19.7619V19.7656L11.6924 19.7693V19.7806L11.6662 19.7955V19.8067L11.6214 19.8366V19.8478L11.5728 19.8778L11.569 19.8927H11.5541L11.5503 19.9077L11.5279 19.9114L11.4718 19.9488L11.2998 20.117L11.2737 20.1469V20.1619L11.2624 20.1656L11.255 20.1881L11.24 20.1918L11.2438 20.203L11.2288 20.2068L11.2176 20.2217V20.2367L11.2026 20.2404H11.1914L11.1802 20.2441V20.2554L11.1652 20.2591V20.2703L11.1466 20.2778L11.1129 20.3152V20.3301L11.1017 20.3264L11.0942 20.3413L11.0755 20.3526V20.3638L11.0419 20.3825L10.9185 20.4759V20.4871L10.9073 20.4946H10.8923L10.8811 20.5096L10.8138 20.5395V20.5507L10.7951 20.5544L10.754 20.5731L10.7428 20.5881L10.7278 20.5843L10.7091 20.5918L10.7017 20.603V20.6143L10.6942 20.6255L10.6456 20.6329V20.6479H10.6194V20.6554L10.6082 20.6516L10.6007 20.6629L10.5895 20.6591V20.6666L10.5746 20.6629L10.5633 20.6666L10.1633 20.9283L10.1484 20.9246L10.1297 20.9432H10.1184V20.947L10.096 20.9582L10.0885 20.9694L10.0773 20.9657L10.0698 20.9769L10.0586 20.9732L10.0437 20.9919L10.0325 20.9881L10.0175 21.0031H9.99134L9.98012 21.0218L9.96517 21.018L9.96143 21.0292H9.93152L9.92778 21.0405L9.90161 21.0442L9.89413 21.0517H9.87918L9.86796 21.0591H9.85301V21.0629H9.84179L9.83432 21.0741H9.80815V21.0816L9.79693 21.0778V21.0816L9.75581 21.0891V21.0965L9.73711 21.0928V21.0965H9.72216V21.1003L9.68477 21.104V21.1115H9.64365V21.1152H9.63243V21.119L9.57262 21.1227V21.1264L9.55766 21.1227V21.1302L9.53149 21.1264V21.1302L9.5128 21.1264V21.1339L9.49411 21.1302V21.1377L9.47168 21.1339V21.1377L9.44551 21.1339L9.33335 21.1451L9.26979 21.1377V21.1451L8.87351 21.0891V21.0816L8.73144 21.0517L8.46974 20.9545L8.466 20.947L8.38375 20.9133V20.9059H8.3688V20.8984L8.35011 20.8946V20.8872L8.30898 20.876V20.8685L8.29403 20.8647V20.861L8.27533 20.8573V20.8498L8.24916 20.8386V20.8348L8.23421 20.8311V20.8236L8.21552 20.8199V20.8161L8.18935 20.8049V20.7974H8.17813L8.17439 20.79L8.1557 20.7862L8.14822 20.7713H8.13701V20.7638H8.12205V20.7563L8.11084 20.7526V20.7451H8.09588L8.08093 20.7302L8.06971 20.7264L8.06224 20.7152L8.02485 20.6965L8.01737 20.6816L7.9912 20.6703L7.97625 20.6479H7.96503L7.95756 20.6329H7.9426V20.6255L7.92391 20.6143L7.91643 20.603L7.90522 20.5993L7.89026 20.5806L7.87531 20.5769L7.87157 20.5619H7.85661L7.8454 20.5395H7.83044L7.80428 20.5021L7.78932 20.4984L7.75567 20.4572L7.74446 20.4535L7.65847 20.3526L7.60239 20.3002V20.289L7.55753 20.2441V20.2329L7.52762 20.2068V20.1955L7.50145 20.1731V20.1619L7.49024 20.1507V20.1395L7.4678 20.1245V20.1095L7.45659 20.1021L7.44911 20.0834H7.44163V20.0722L7.43042 20.0609V20.0497L7.41546 20.0423V20.0273L7.40425 20.0198L7.38929 19.9824L7.37434 19.975L7.36312 19.9338L7.34817 19.9264L7.34069 19.9002H7.33322V19.8852H7.32574V19.874L7.322 19.8703V19.8591H7.31452V19.8478L7.30705 19.8441V19.8254L7.29583 19.8179L7.29209 19.7992H7.28835L7.28088 19.7731H7.2734V19.7544L7.26592 19.7506L7.25844 19.7245H7.25471L7.24723 19.6871H7.23975V19.6759L7.23227 19.6721V19.6497L7.2248 19.646V19.6348H7.22106V19.6086H7.21358V19.5899H7.2061V19.5712H7.19863L7.19115 19.5263H7.18367L7.17993 19.4703L7.17246 19.4665V19.4441L7.16498 19.4403V19.4179H7.1575V19.3805H7.15003L7.14255 19.2908H7.13507L7.12012 19.0553L7.12759 19.059L7.13881 18.8347H7.14255V18.8011H7.15003V18.7637L7.1575 18.7674L7.16124 18.7113L7.16872 18.7151V18.6814L7.1762 18.6852V18.659L7.18367 18.6627L7.18741 18.6179L7.19489 18.6216V18.6029H7.20237V18.5842L7.2061 18.588V18.5618H7.21358V18.5506L7.22106 18.5543L7.23227 18.4982L7.23975 18.502L7.24723 18.4795H7.25097L7.25844 18.4459H7.26592L7.27714 18.4122H7.28461V18.401H7.29209L7.29583 18.3711L7.31078 18.3674L7.31452 18.3412L7.32948 18.3375V18.3263L7.34443 18.315L7.34069 18.3038H7.34817V18.2926H7.35565V18.2814L7.36686 18.2777L7.38182 18.2403L7.38929 18.244L7.39303 18.2253L7.40799 18.2216V18.2104L7.4192 18.2066V18.1954L7.4379 18.1879L7.44537 18.1618L7.46407 18.1543V18.1431L7.4865 18.1356V18.1206L7.51641 18.1019V18.0907L7.55005 18.072V18.0608L7.57622 18.0459V18.0346L7.61735 18.0197V18.0085L7.66221 17.9786L7.66969 17.9673L7.6809 17.9711L7.69586 17.9599V17.9487L7.75941 17.9187V17.9038L7.81175 17.8851L7.81923 17.8739L7.83044 17.8776L7.8454 17.8589L7.85661 17.8627L7.87157 17.8477H7.88652L7.89026 17.8365H7.90895V17.829L7.92391 17.8328L7.93139 17.8215L7.9426 17.8253L7.95008 17.8141L7.96129 17.8178L8.13327 17.7019L8.23047 17.5972H8.23795L8.28281 17.5524H8.29029V17.5412L8.31646 17.5225L8.33515 17.5187L8.38375 17.4813L8.57068 17.343V17.3318L8.5819 17.3168L8.59685 17.3094V17.2944H8.60433V17.2832L8.61554 17.2795V17.2682L8.6305 17.257V17.2458L8.64171 17.2421V17.2309L8.65667 17.2271V17.2159L8.66788 17.1972L8.68284 17.1935L8.71275 17.1598L8.75387 17.1187V17.1075H8.76509L8.79873 17.0888H8.80621V17.0776L8.83238 17.0664V17.0589L8.8436 17.0551V17.0439L8.88472 17.0215L8.96323 16.9355L8.97445 16.9392L9.01557 16.9056H9.02679L9.04174 16.8719L9.05296 16.8757L9.07913 16.8495H9.09408L9.09782 16.842H9.11277L9.12399 16.8271L9.18007 16.7897L9.19128 16.7785L9.2025 16.7747L9.25484 16.7187L9.25858 16.6962H9.26605L9.27353 16.6775L9.28475 16.6738V16.6626L9.2997 16.6589V16.6476L9.32587 16.6327L9.32961 16.6102L9.34456 16.6065L9.35204 16.5916L9.38195 16.5729V16.5616L9.4156 16.543V16.528L9.48289 16.4869L9.48663 16.4719L9.73711 16.214L9.75207 16.2102L9.76328 16.1766L9.77824 16.1728L9.78945 16.1355H9.79693L9.80441 16.1205L9.81562 16.1168L9.8231 16.0943L9.84179 16.0869L9.84927 16.0644L9.86796 16.0532V16.042L9.88666 16.0345V16.0233L9.90161 16.0158V16.0046L9.93526 15.9859L9.93152 15.9747L9.96517 15.956V15.9448L10.2493 15.5448L10.2568 15.5298L10.2717 15.5261L10.2755 15.5036L10.2904 15.4999L10.2979 15.4775L10.3091 15.4737V15.4625L10.3241 15.4588V15.4476L10.3353 15.4438V15.4289L10.3502 15.4251V15.4139L10.3689 15.4064V15.3952L10.3876 15.384V15.3728L10.4213 15.3541V15.3429L10.4512 15.3242V15.313L10.4811 15.298L10.4774 15.2868L10.4923 15.2756L10.5035 15.2793" fill="#00B1A9"/>
<path d="M15.4832 14.9954L15.5019 14.9243L15.5169 14.9281L15.5356 14.8458L15.5468 14.8421L15.5543 14.8234L15.5617 14.8271L15.5692 14.8084H15.5804L15.6066 14.7673H15.6216L15.6477 14.7187L15.6589 14.7225L15.6851 14.6626L15.7001 14.6664L15.7262 14.6215V14.6028L15.7375 14.5991V14.5804L15.7524 14.5766L15.7599 14.5505H15.7636V14.5393L15.7786 14.5355L15.7861 14.4981L15.7973 14.5019L15.8047 14.4608L15.816 14.4533L15.8234 14.4084L15.8347 14.4047L15.8421 14.3561L15.8571 14.3523L15.8533 14.3224H15.8646V14.2963L15.8758 14.2925L15.8795 14.2215L15.8945 14.2177V14.1691H15.9019V14.1505L15.9057 14.1542L15.9132 14.1243H15.9206L15.9319 14.1205L15.9393 14.0906H15.958V14.0719H15.973L15.9805 14.042H15.9992V14.0233L16.0104 14.0271L16.0253 13.9822L16.0403 13.986L16.044 13.9523H16.059L16.1038 13.8514L16.115 13.8551L16.1225 13.8177L16.1375 13.8215L16.1412 13.7803H16.1562L16.1599 13.728H16.1749L16.1936 13.6457L16.201 13.6495L16.2085 13.5897L16.2197 13.5859L16.2272 13.4999L16.2384 13.4962V13.4738H16.2459L16.2646 13.4326L16.2795 13.4364L16.2982 13.4214L16.3319 13.3541L16.3431 13.3579L16.3693 13.2981L16.3842 13.3018L16.5637 12.7896H16.5712L16.5749 12.7747V12.7784H16.5824V12.7896H16.5898V12.8046H16.5973V12.8158L16.6011 12.8195V12.8307H16.6085V12.8457H16.616V12.8569H16.6235V12.8719H16.631L16.6422 12.9092L16.6497 12.913L16.7693 13.1223L16.773 13.1336L16.7992 13.1597V13.1709L16.8179 13.1859V13.1971L16.8366 13.2158V13.227L16.8515 13.2345V13.2495L16.8665 13.2569L16.8702 13.2756H16.8777V13.2868L16.8927 13.3018V13.3168H16.8964V13.328L16.9114 13.3354L16.9188 13.3616L16.9263 13.3654L16.9413 13.4027L16.945 13.4065V13.4214L16.9525 13.4252L16.96 13.4476L16.9674 13.4513L17.0796 13.6121V13.6233L17.1132 13.6532V13.6682L17.1394 13.6906V13.7018L17.1618 13.7168V13.728L17.1731 13.7392V13.7504L17.1955 13.7654V13.7766L17.2067 13.7878L17.2142 13.814L17.2254 13.8215L17.2404 13.8588L17.2553 13.8701L17.2628 13.8925L17.2703 13.8962L17.274 13.9224H17.2815V13.9411H17.289L17.2964 13.9673H17.3002L17.3077 14.0009H17.3151L17.431 14.1617V14.1729L17.4647 14.2065V14.2177L17.4834 14.2327V14.2439L17.5021 14.2589V14.2738L17.517 14.2813L17.5245 14.3L17.5282 14.3037V14.3149L17.5432 14.3224L17.5507 14.3486L17.5619 14.3561L17.5768 14.3972H17.5843V14.4084L17.5918 14.4122V14.4234H17.5993V14.4383H17.603L17.618 14.4757L17.6254 14.4794V14.4944L17.6329 14.4981V14.5094H17.6366V14.528L17.6441 14.5318V14.543H17.6516V14.5617H17.6591V14.5804L17.6666 14.5841V14.6028H17.6703L17.7114 14.6626L17.7451 14.715H17.7525L17.76 14.7337L17.7787 14.7486V14.7598L17.7937 14.7711V14.7823L17.8124 14.7972V14.8084L17.8273 14.8197L17.8348 14.8383H17.8385L17.846 14.8645L17.861 14.8757V14.8869L17.8722 14.9019V14.9131H17.8797V14.9281H17.8871V14.9393L17.9021 14.9468V14.9655L17.9058 14.9692V14.9804H17.9133L17.9208 15.0066H17.9283V15.0253L17.9357 15.029V15.0402H17.9395L17.9469 15.0739H17.9544V15.0926H17.9619L18.0404 15.2346L18.0666 15.2571L18.0703 15.272L18.089 15.287V15.2982L18.104 15.3057V15.3206L18.1488 15.3954L18.1638 15.4029V15.4178L18.175 15.4328L18.1787 15.444H18.1825V15.4552L18.19 15.4589V15.4702H18.1974V15.4814L18.2049 15.4851L18.2161 15.5225L18.2236 15.5262L18.3358 15.687L18.3507 15.7057H18.3582V15.7206L18.3844 15.7431V15.7543L18.4031 15.7693V15.7842L18.4255 15.7992V15.8104L18.4367 15.8216V15.8328L18.4517 15.8403L18.4591 15.859L18.4629 15.8627L18.4703 15.8851L18.4853 15.8964L18.4928 15.9225L18.5264 15.9861H18.5339V15.9936L18.5152 16.001V16.0085L18.5003 16.0048V16.0123L18.489 16.0085L18.4741 16.0272L18.4666 16.0235V16.0384L18.4591 16.0347L18.4554 16.0459H18.4404L18.433 16.0609L18.4143 16.0758H18.4068V16.0833L18.3956 16.0796V16.087L18.3731 16.0945V16.1057L18.3619 16.1095V16.1207L18.3358 16.1356L18.3021 16.1618V16.173H18.2946V16.1842L18.2759 16.1917V16.1992L18.261 16.1954L18.2535 16.2067L18.2273 16.2104L18.1638 16.2254L18.1414 16.2403V16.2478L18.1264 16.244L18.1301 16.2515L18.1152 16.2478L18.1002 16.2665L18.089 16.2627L18.0815 16.274L18.0666 16.2702L18.0292 16.3076L18.0142 16.3039L17.9955 16.3263L17.9769 16.33L17.9694 16.345L17.9469 16.3487V16.3599L17.9283 16.3749H17.9208L17.9245 16.3824H17.9021L17.8946 16.3936L17.8759 16.3899L17.8684 16.4011L17.8572 16.3973V16.4048L17.8423 16.4011V16.4085L17.8161 16.4011V16.4085L17.775 16.416V16.4198L17.7563 16.416V16.4235L17.7413 16.4198L17.7376 16.431L17.7077 16.4347L17.6404 16.4796L17.5469 16.5244L17.3974 16.5955L17.3749 16.6104L17.2964 16.6852L17.2777 16.6964L17.2179 16.7039L17.203 16.7226L17.1432 16.7301L17.1357 16.7413H17.1095L17.0983 16.7562H17.0833L17.0759 16.7674H17.0497L17.0385 16.7824L17.0123 16.7974L16.9974 16.7936V16.8086L16.9824 16.8048L16.9712 16.8198L16.9562 16.816V16.8235L16.945 16.8198V16.8273L16.9301 16.831V16.8422L16.9188 16.846V16.8534H16.8889L16.8852 16.8647L16.7469 16.8759L16.6684 16.7787L16.6497 16.7637L16.6422 16.745L16.616 16.7226V16.7076L16.5936 16.6927V16.6815L16.5749 16.6665V16.6516L16.5637 16.6441V16.6329L16.5487 16.6254L16.5412 16.5992L16.53 16.5917L16.5226 16.5618H16.5151L16.5076 16.5357H16.5001V16.5244L16.4926 16.5207L16.4852 16.5095L16.4777 16.5057L16.4179 16.4235L16.3655 16.3637V16.3599L16.3394 16.3375V16.3226L16.2758 16.2553V16.244L16.2571 16.2254V16.2104L16.2422 16.2029V16.1917L16.2309 16.1805V16.1693L16.216 16.1618V16.1506L16.2048 16.1394V16.1282L16.1898 16.1207V16.1057H16.1823L16.1749 16.0796L16.1636 16.0721L16.1562 16.0459H16.1487L16.1263 16.0048H16.1188V15.9861L16.1113 15.9823L16.1076 15.9599L16.1001 15.9562L15.973 15.7805V15.7693L15.9393 15.7393V15.7281L15.9169 15.7094V15.6982L15.8982 15.6833V15.672L15.8833 15.6608V15.6496L15.872 15.6421L15.8646 15.6234L15.8571 15.6197L15.8421 15.5823L15.8309 15.5748L15.6963 15.3356L15.6889 15.3169L15.6365 15.2645V15.2533L15.6103 15.2272V15.2159L15.5804 15.1935V15.1823L15.5692 15.1711L15.5617 15.1524H15.5543V15.1412L15.543 15.13V15.1187L15.5281 15.1113V15.0963L15.5169 15.0888L15.5131 15.0776L15.4795 15.029V15.0253H15.4832V14.9954Z" fill="#B7C620"/>
<path d="M16.5759 12.7595V12.7681L16.5674 12.7595H16.5759Z" fill="#81BB30"/>
<path d="M15.4801 15.0258H15.4758V15.0215H15.4801V15.0258Z" fill="#81BB30"/>
<path d="M15.4496 14.9692V14.9505H15.4421V14.9393L15.4384 14.9356V14.9244L15.4234 14.9169V14.9019L15.3898 14.872V14.8683L15.3674 14.8571V14.8459L15.3562 14.8421L15.3487 14.8234L15.3038 14.7786L15.3001 14.7636L15.2739 14.7412V14.73L15.2477 14.7075V14.6926L15.2253 14.6776V14.6664L15.2216 14.6627L15.2141 14.644L15.1917 14.629L15.1804 14.5879L15.1655 14.5804V14.5692L15.1505 14.5542V14.5393H15.1468V14.5281L15.1393 14.5243V14.5131H15.1318V14.5019L15.1244 14.4982V14.4869H15.1169L15.1057 14.4458H15.0982V14.4271L15.0907 14.4234V14.4122H15.0832L15.0085 14.3075V14.2925L14.9973 14.2851V14.2776H14.9823L14.9748 14.2626L14.9561 14.2477V14.2327L14.9262 14.2103V14.1991L14.9 14.1766V14.1617L14.8888 14.1542L14.8814 14.128L14.8664 14.1206V14.1056L14.8552 14.0981L14.8402 14.0608L14.8253 14.0533L14.8215 14.0271L14.8066 14.0159V13.9972H14.7991V13.9822H14.7916V13.971H14.7842V13.9561H14.7804L14.7655 13.9149H14.758V13.8963H14.7505L14.7542 13.885L14.7468 13.8813L14.6421 13.7093V13.6981L14.6084 13.6682V13.6532L14.5823 13.6308L14.5748 13.6121L14.5636 13.6046L14.5561 13.5785L14.5337 13.5598L14.5187 13.5224L14.5075 13.5149V13.5L14.4925 13.485V13.4738H14.4888V13.4588H14.4813V13.4476L14.4739 13.4439V13.4327H14.4664L14.4514 13.3915H14.4477L14.4402 13.3542L14.4327 13.3504L14.4253 13.3392L14.4178 13.3168L14.3766 13.2383L14.358 13.2046L14.343 13.2009V13.1934L14.3243 13.1784V13.1672L14.3094 13.156V13.1448L14.2907 13.1298V13.1149H14.2757L14.2682 13.0962L14.2645 13.0925L14.257 13.0738L14.2421 13.0663L14.2346 13.0401L14.2159 13.0252L14.2009 12.984L14.1897 12.9766V12.9616L14.1748 12.9504V12.9354H14.1673V12.9205H14.1598V12.9093L14.1561 12.9055L14.1523 12.8943H14.1486V12.8831L14.1411 12.8794L14.1262 12.842L14.1187 12.8382V12.8233L14.1149 12.8195L14.1112 12.8009H14.1075V12.7822H14.1V12.7635L14.0925 12.7597V12.741H14.085V12.7223H14.0776V12.7037H14.0701V12.6775H14.0663V12.6513H14.0589L14.0551 12.6251H14.0514L14.0439 12.5504L14.0364 12.5466L14.029 12.4233H14.0215L14.0252 12.2849H14.0327L14.0439 12.1616L14.1112 11.9746H14.1187L14.1299 11.941H14.1374V11.9298H14.1411V11.9186H14.1486V11.9073H14.1561V11.8961H14.1636L14.1598 11.8849L14.1748 11.8737V11.8625L14.1897 11.8587L14.2009 11.8251L14.2196 11.8176L14.2271 11.7914L14.2421 11.7877L14.2458 11.7727H14.2533L14.2608 11.7541L14.272 11.7578L14.2869 11.7354H14.2944V11.7241L14.3243 11.6942L14.3393 11.698V11.6905L14.3542 11.6868V11.6755L14.3729 11.6718V11.6606L14.3991 11.6531L14.4327 11.6232H14.4439V11.6157L14.4776 11.6045V11.5933L14.4963 11.5896V11.5858L14.5187 11.5821L14.5262 11.5709H14.5524L14.5636 11.5522L14.6047 11.5484L14.6084 11.5372L14.6234 11.541L14.6383 11.5297L14.6496 11.5335V11.526L14.6645 11.5297V11.5223L14.6757 11.526L14.6832 11.5148L14.7094 11.511V11.5073L14.7505 11.5036V11.4961L14.7692 11.4998L15.1692 11.4961L15.3823 11.541V11.5447L15.4571 11.5671L15.6104 11.6382L15.6515 11.6494V11.6569L15.6665 11.6606V11.6643L15.7263 11.6942L15.73 11.7092H15.745L15.7599 11.7279H15.7711V11.7354H15.7861L15.7936 11.7503L15.8048 11.7541V11.7578L15.8197 11.7615L15.8347 11.7765L15.8459 11.7802V11.784L15.8683 11.7952L15.8721 11.8101L15.9132 11.8288L15.9207 11.84L15.9394 11.8513V11.8587L15.9618 11.8662V11.8812L15.9954 11.9036V11.9111H16.0067L16.0403 11.9559L16.0665 11.9746L16.0702 11.9858L16.0814 11.9896L16.0889 12.0083L16.1338 12.0531V12.0644L16.1562 12.083V12.0943L16.1749 12.1092V12.1242L16.1899 12.1317L16.1973 12.1503L16.2235 12.1728V12.1877L16.2422 12.2027L16.2571 12.2438L16.2721 12.2513V12.2625L16.2833 12.2775L16.2871 12.2887L16.2908 12.2924V12.3036H16.2983V12.3186H16.3057V12.3298H16.3132V12.3447H16.3207L16.3394 12.3859L16.4628 12.599V12.6102L16.4665 12.6139L16.4815 12.6326L16.5002 12.6476V12.6625L16.5151 12.67V12.6812L16.5375 12.6999L16.545 12.7261L16.5637 12.741L16.5674 12.756V12.7597L16.5749 12.7672V12.7747L16.5712 12.7896H16.5637L16.3843 13.3018L16.3693 13.2981L16.3431 13.3579L16.3319 13.3542L16.2983 13.4215L16.2198 13.586L16.2085 13.5897L16.2011 13.6495L16.1936 13.6458L16.1749 13.728H16.1599L16.1562 13.7804H16.1413L16.1375 13.8215L16.1226 13.8177L16.1151 13.8551L16.1039 13.8514L16.059 13.9523H16.044L16.0403 13.986L16.0254 13.9822L16.0104 14.0271L15.9992 14.0421L15.973 14.072L15.9581 14.0907L15.8945 14.2178L15.8758 14.2925L15.8646 14.2963V14.3225H15.8534L15.8571 14.3524L15.8422 14.3561L15.8347 14.4047L15.8235 14.4084L15.816 14.4533L15.8048 14.4608L15.7973 14.5019L15.7861 14.4982L15.7786 14.5355L15.7637 14.5393V14.5505H15.7599L15.7524 14.5767L15.7375 14.5804V14.5991L15.7263 14.6028V14.6215L15.7001 14.6664L15.6851 14.6627L15.659 14.7225L15.6478 14.7187L15.6216 14.7673L15.5169 14.9281L15.4833 14.9954V15.0253H15.4795V15.0216H15.4758L15.4571 14.973L15.4496 14.9692Z" fill="#009096"/>
<path d="M20.8256 17.6458L20.8331 17.6533L20.8219 17.6496L20.8181 17.6421H20.8256V17.6458Z" fill="#81BB30"/>
<path d="M22.1006 15.6983L22.1081 15.702V15.7133L22.0857 15.6833L22.1006 15.6983Z" fill="#81BB30"/>
<path d="M20.792 17.616L20.7846 17.5898L20.7659 17.5712L20.7584 17.5412L20.7509 17.5375L20.7247 17.4964L20.635 17.4366V17.4253L20.6163 17.4141L20.6088 17.4029L20.5976 17.3992L20.5752 17.373L20.5602 17.3693L20.5303 17.3319L20.5154 17.3095H20.5004L20.4817 17.2721L20.4668 17.2683L20.4331 17.2197H20.4256V17.2085L20.3845 17.1674V17.1562L20.3733 17.1487V17.1375L20.3584 17.1263V17.115L20.3322 17.1038L20.2836 16.9954H20.2686L20.2126 16.8683L20.2013 16.8571V16.8459L20.1939 16.8421L20.1864 16.8047H20.1826L20.1789 16.7861H20.1752L20.1714 16.7674L20.1677 16.7636V16.7449H20.1602V16.7188H20.1527L20.1453 16.6814L20.1378 16.6776V16.6664H20.134V16.6402H20.1266L20.1228 16.6029H20.1191V16.5692H20.1116V16.5206L20.1041 16.5169L20.0069 16.1804L19.9995 16.1168H19.992V16.1019H19.9845V16.0608L19.9733 16.0496L19.9695 15.9823L19.9583 15.9748L19.9546 15.7804H19.9658V15.7093L19.9808 15.7131L19.9845 15.6533H19.992V15.6271L19.9995 15.6308V15.5972L20.0107 15.5935V15.571L20.0256 15.5673L20.0331 15.5262H20.0443L20.063 15.4626L20.078 15.4663V15.4476L20.0892 15.4514L20.1453 15.3654L20.1565 15.3691L20.1789 15.328L20.1901 15.3318V15.3205H20.2051L20.235 15.2794L20.2499 15.2831V15.2682L20.2686 15.2719L20.2911 15.257L20.2873 15.2458L20.3023 15.2495V15.2345L20.3172 15.2383L20.3284 15.2233H20.3434L20.3471 15.2121H20.3696V15.1972L20.4032 15.1822L20.463 15.171V15.1598L20.5303 15.156V15.1411L20.5901 15.1336L20.6088 15.1373V15.1336H20.6238V15.1299L20.65 15.1336L20.6574 15.1224L20.7285 15.1299L20.7359 15.1187L20.7958 15.1299L20.8032 15.1187L20.9117 15.1373L20.9266 15.1336L21.1061 15.1747V15.1859L21.2519 15.2345V15.2458L21.2855 15.2532L21.2893 15.2645L21.3977 15.2981L21.6594 15.4402L21.7042 15.4663V15.4701L21.7304 15.4738L21.7379 15.4888L21.7641 15.4962V15.5L21.7865 15.5037V15.5112L21.8052 15.5149V15.5187L21.8313 15.5262V15.5336L21.9286 15.5748V15.586L22.0594 15.6607V15.672L22.0856 15.6832L22.108 15.7131V15.7168L22.123 15.7206L22.1304 15.7542H22.1379V15.7804H22.1417V15.7916L22.1491 15.7953V15.814H22.1566V15.8402H22.1641V15.8514H22.1716V15.8851L22.1828 15.8925L22.1865 15.9374L22.1977 15.9449L22.2015 16.001L22.2127 16.0084L22.2164 16.1131L22.2276 16.1954H22.2202V16.2215L22.2164 16.2178V16.3262L22.2015 16.3299L22.2052 16.3823L22.1903 16.386V16.4309L22.1753 16.4346L22.179 16.4645H22.1716V16.4758H22.1641V16.5019L22.1566 16.4982V16.5094H22.1529L22.1454 16.5505H22.1379L22.1342 16.5804L22.1192 16.5767V16.6029L22.1043 16.5991L22.108 16.6253L22.093 16.6216L22.0818 16.6627L22.0669 16.6589L22.0557 16.6963L22.0332 16.7038V16.7225L22.0071 16.7524H21.9958V16.7636H21.9809V16.7748L21.9697 16.7711L21.9211 16.8309L21.9061 16.8272L21.9099 16.8421L21.8463 16.8683V16.8795L21.8089 16.8907V16.9019L21.6968 16.9879L21.6818 16.9842V17.0029L21.6706 17.0066V17.0178L21.6482 17.0291V17.0403L21.6295 17.0478V17.0627L21.6033 17.0739L21.5883 17.0889V17.1038L21.5771 17.1001L21.551 17.1263L21.5435 17.1225V17.1375L21.5248 17.145L21.5173 17.1562L21.5024 17.1524L21.2893 17.3132L21.2855 17.3095L21.278 17.3281L21.2631 17.3319V17.3431L21.2519 17.3468V17.3581L21.2369 17.3655V17.3767L21.2182 17.3842V17.3992L21.1995 17.4067L21.1921 17.4253L21.1659 17.4366L21.1248 17.4665V17.4777L21.1061 17.4814L21.0649 17.5188L21.0537 17.5151L21.0463 17.5263L21.0313 17.5226L21.0126 17.545L20.9939 17.5487L20.9864 17.5599L20.9715 17.5562L20.9677 17.5674L20.9528 17.5637L20.9453 17.5749L20.9341 17.5712V17.5786L20.9117 17.5824L20.9042 17.5936L20.893 17.5898L20.878 17.6085L20.8668 17.6048L20.8332 17.6422V17.6534L20.8257 17.6459V17.6422H20.8182L20.7995 17.616H20.792Z" fill="#57B14F"/>
<path d="M16.7474 16.8802L16.7432 16.876H16.7474L16.7517 16.8802H16.7474Z" fill="#81BB30"/>
<path d="M16.8889 16.8534H16.9188V16.846L16.93 16.8422V16.831L16.945 16.8273V16.8198L16.9562 16.8235V16.816L16.9711 16.8198L16.9824 16.8048L16.9973 16.8086V16.7936L17.0123 16.7974L17.0384 16.7824L17.0496 16.7674H17.0758L17.0833 16.7562H17.0983L17.1095 16.7413H17.1356L17.1431 16.7301L17.2029 16.7226L17.2179 16.7039L17.2777 16.6964L17.2964 16.6852L17.3749 16.6104L17.3973 16.5955L17.517 16.5282L17.5357 16.5319V16.517L17.6291 16.4758L17.7076 16.4347L17.7375 16.431L17.7413 16.4198L17.7562 16.4235V16.416L17.7749 16.4198V16.416L17.8161 16.4085V16.4011L17.8422 16.4085V16.4011L17.8572 16.4048V16.3973L17.8684 16.4011L17.8759 16.3898L17.8946 16.3936L17.902 16.3824H17.9245L17.9207 16.3749H17.9282L17.9469 16.3599V16.3487L17.9693 16.345L17.9768 16.33L17.9955 16.3263L18.0142 16.3039L18.0292 16.3076L18.0665 16.2702L18.0815 16.274L18.089 16.2627L18.1002 16.2665L18.1151 16.2478L18.1301 16.2515L18.1264 16.244L18.1413 16.2478V16.2403L18.1637 16.2254L18.2273 16.2104L18.3357 16.1356L18.3619 16.1207V16.1095L18.3731 16.1057V16.0945L18.3955 16.087V16.0795L18.4068 16.0833V16.0758H18.4142L18.4329 16.0609L18.4404 16.0459H18.4554L18.4591 16.0347L18.4666 16.0384V16.0235L18.474 16.0272L18.489 16.0085L18.5002 16.0123V16.0048L18.5152 16.0085V16.001L18.5339 15.9936V15.9861H18.5376L18.5413 15.9898V16.001L18.5675 16.0197V16.0309L18.6198 16.0721L18.6236 16.0833L18.6348 16.087V16.0982L18.6498 16.102V16.1132L18.661 16.1169V16.1281L18.6759 16.1319L18.7096 16.188H18.7245L18.7395 16.2216L18.7507 16.2254V16.2366L18.7657 16.2403L18.8105 16.3151L18.9077 16.4198V16.4347L18.9339 16.4422V16.4571L18.9675 16.4758V16.4871L18.9825 16.4908V16.502L18.9937 16.5057L18.9974 16.517L19.0311 16.5543L19.0423 16.5581V16.5693L19.0573 16.573V16.5843H19.0685L19.1171 16.6628L19.132 16.6665V16.6777L19.1432 16.6815V16.7002H19.1582L19.3339 16.902V16.9132L19.3489 16.917L19.3676 16.9506L19.3825 16.9544V16.9656L19.3937 16.9693L19.4162 17.003H19.4311V17.0179H19.4423L19.4648 17.0665L19.476 17.0703V17.0815L19.4909 17.0852L19.5134 17.1301L19.5246 17.1338V17.1525H19.5395L19.547 17.1749H19.5508L19.5582 17.2086L19.5732 17.2161V17.2273L19.5881 17.2385V17.2572L19.5994 17.2647L19.6068 17.3021L19.6218 17.3095V17.3357L19.6293 17.3394L19.633 17.3694L19.648 17.3731L19.6554 17.4366H19.6629V17.4479L19.6704 17.4516V17.489L19.6816 17.4965L19.719 17.6124L19.7302 17.6161L19.7452 17.6684H19.7564L19.7638 17.7133L19.7788 17.717L19.7863 17.7806H19.8012L19.8237 18.0012H19.8162V18.1021L19.8125 18.0984V18.1432L19.805 18.1395V18.1769L19.79 18.1806L19.7863 18.2292H19.7713L19.7414 18.3264H19.7265L19.6741 18.4124L19.6592 18.4162H19.6517V18.4348L19.6405 18.4311V18.4386L19.6143 18.4498L19.5956 18.4648V18.4834L19.547 18.4984V18.5096H19.5433V18.5134H19.5395L19.5283 18.5171H19.5246L19.5134 18.5283L19.4984 18.5246V18.532L19.4872 18.5283V18.5358L19.4722 18.532L19.4648 18.5433L19.4274 18.547L19.4199 18.5582H19.4049L19.4012 18.5694L19.3676 18.5881H19.3489V18.5993L19.2255 18.6068V18.6218L19.1021 18.6106V18.6143H19.0872V18.618L18.9974 18.6031L18.7582 18.532V18.5208L18.7021 18.5059L18.6984 18.4909L18.6834 18.4872V18.4834L18.6498 18.476V18.4685L18.6311 18.4648V18.461L18.5638 18.4498L18.5563 18.4348L18.4815 18.4199L18.474 18.4049L18.4292 18.3975V18.3937L18.403 18.3862V18.3825L18.3806 18.375V18.3713L18.3469 18.3638L18.3395 18.3489L18.3058 18.3451V18.3339L18.2796 18.3264L18.2722 18.3152L18.2273 18.3003V18.2853L18.1974 18.2816V18.2703L18.1712 18.2591V18.2517L18.1525 18.2479V18.2404L18.1189 18.2217V18.2105L18.0964 18.2068V18.1956L17.988 18.1021L17.9768 18.0984V18.0872L17.9432 18.0498L17.9282 18.046V18.0348L17.917 18.0311V18.0199L17.7861 17.9152L17.76 17.8965L17.7525 17.8853L17.7375 17.8815V17.8778L17.7263 17.8741V17.8666L17.7002 17.8442L17.6104 17.7843V17.7731L17.5992 17.7694V17.7582L17.5768 17.7544V17.7395H17.5618V17.7283L17.4871 17.646L17.4758 17.6423V17.6311L17.345 17.4965V17.4815L17.3188 17.4778V17.4666L17.3001 17.4553V17.4479H17.2852L17.2777 17.4329L17.259 17.4292L17.2515 17.4142L17.2067 17.388V17.3768L17.1917 17.3731V17.3619L17.1581 17.3432V17.332L17.1431 17.3282V17.3133L17.0908 17.2722V17.2609H17.0758L17.0422 17.2049L17.0272 17.2011V17.1899L17.016 17.1862L17.001 17.1525L16.9898 17.1488L16.9861 17.1376L16.9749 17.1338V17.1189L16.9599 17.1077V17.0964L16.9524 17.0927L16.9412 17.0628L16.9263 17.0591V17.0404L16.9113 17.0366L16.8926 17.0142L16.8852 17.003V16.9955L16.8665 16.9918V16.9805L16.8104 16.9469V16.9319L16.758 16.8983V16.8871L16.7468 16.8796H16.7506L16.7468 16.8759L16.8852 16.8646L16.8889 16.8534Z" fill="#5FA225"/>
</g>
<defs>
<clipPath id="clip0_13983_6804">
<rect width="18.6667" height="11.597" fill="white" transform="translate(7.12012 9.5481)"/>
</clipPath>
</defs>
</svg>
