<svg width="32" height="32" viewBox="0 0 32 32" fill="none" xmlns="http://www.w3.org/2000/svg">
<path d="M0 12C0 5.37258 5.37258 0 12 0H20C26.6274 0 32 5.37258 32 12V20C32 26.6274 26.6274 32 20 32H12C5.37258 32 0 26.6274 0 20V12Z" fill="#153BAD"/>
<path d="M14.6462 23.1582C13.5334 23.0762 12.4745 22.6436 11.6194 21.9218C10.7954 21.1729 10.1988 20.2045 9.89834 19.1284C9.62229 18.1628 9.50849 17.0349 9.9619 17.1239C10.1023 17.1526 10.3439 17.7726 10.606 18.2213C10.7808 18.5579 11.0191 18.8569 11.3076 19.1016C11.4027 19.1729 11.7205 18.4566 12.1872 18.05C12.4572 17.8256 12.752 17.7494 12.801 18.42C12.8579 19.2412 12.7108 20.2197 12.9487 20.2197C13.1721 20.2197 13.6752 20.0496 14.7787 19.9569C15.1928 19.9197 15.4283 19.9984 15.033 20.5605C14.7433 21.0023 14.3737 21.3853 13.9433 21.6895C14.8804 22.5723 16.007 22.468 16.0264 22.843C16.0385 23.0594 15.6208 23.1783 15.0705 23.1783C14.9343 23.1783 14.7908 23.171 14.6431 23.1563M17.8019 15.2078C17.557 15.1587 17.3305 15.0421 17.1474 14.8711C16.9644 14.7001 16.832 14.4814 16.7649 14.2391C16.6879 13.8874 16.6776 13.5242 16.7346 13.1686C16.8456 12.442 17.0652 11.7366 17.386 11.0763C17.768 10.107 16.8412 9.53881 16.9919 9.18156C17.2014 8.69995 17.8655 9.31324 18.6082 9.35653C19.2463 9.39372 19.6295 9.36201 20.1253 9.42725C20.7882 9.46907 21.42 9.72569 21.9262 10.1588C22.2476 10.538 21.7561 11.0019 21.1641 10.7124C20.7312 10.499 20.187 10.6288 20.506 11.0836C20.7436 11.3859 21.089 11.5828 21.4686 11.6323C21.6765 11.6576 21.8712 11.7484 22.0248 11.8917C22.1785 12.035 22.2834 12.2235 22.3244 12.4303C22.3655 12.6372 22.3407 12.8518 22.2535 13.0436C22.1664 13.2353 22.0213 13.3945 21.839 13.4984C21.0073 14.1117 20.1652 13.8575 19.828 12.6541C19.6591 12.0548 19.2402 11.75 18.8074 11.9225C18.3746 12.095 18.6343 12.8796 18.9587 13.6106C19.5254 15.0658 18.3788 15.2152 17.9436 15.2152C17.8967 15.2155 17.8498 15.2135 17.8031 15.2091M17.1832 23.4319C17.176 23.2386 17.4568 23.188 17.4568 23.188C19.9618 22.6918 19.2299 21.0354 18.3425 20.191C17.9708 19.835 14.4821 16.8021 14.4821 16.8021C11.1526 13.9166 11.4202 11.6652 11.4202 11.6652C11.5806 8.8932 13.9906 8.20614 15.8133 8.36525C16.0276 8.38354 16.145 8.51401 16.1075 8.69385C16.0682 8.88771 15.7848 8.90174 15.7848 8.90174C15.2641 8.89055 14.7495 9.01664 14.292 9.26752C12.8222 10.2612 13.2581 11.956 15.2146 13.8398C15.4616 14.0782 15.7231 14.3275 15.9925 14.5811C15.9925 14.5811 16.386 14.9299 17.1675 15.6785C18.6754 17.0764 19.4999 17.8311 19.4999 17.8311C22.1562 20.0575 21.2494 22.0937 20.2324 22.8021C19.4162 23.3497 18.4594 23.6463 17.4786 23.6556C17.4676 23.6565 17.4564 23.6565 17.4453 23.6556C17.3813 23.6592 17.3184 23.6378 17.2698 23.5957C17.2212 23.5537 17.1906 23.4943 17.1844 23.4301" fill="white"/>
</svg>
