<svg width="24" height="24" viewBox="0 0 24 24" fill="none" xmlns="http://www.w3.org/2000/svg">
<path d="M0 9C0 4.02944 4.02944 0 9 0H15C19.9706 0 24 4.02944 24 9V15C24 19.9706 19.9706 24 15 24H9C4.02944 24 0 19.9706 0 15V9Z" fill="#C1152F"/>
<path d="M5.26732 11.9784C5.2622 11.9805 5.25782 11.984 5.25474 11.9885C5.25165 11.9931 5.25 11.9985 5.25 12.004C5.25 12.0095 5.25165 12.0149 5.25474 12.0194C5.25782 12.024 5.2622 12.0275 5.26732 12.0296L7.3875 13.4299L7.99484 10.5718L5.26732 11.9784Z" fill="white"/>
<path d="M17.8204 10.572H17.2846C17.2514 10.5734 17.2187 10.5814 17.1886 10.5956L14.502 11.9802C14.4965 11.9819 14.4918 11.9853 14.4884 11.9899C14.485 11.9945 14.4831 12.0001 14.4831 12.0058C14.4831 12.0115 14.485 12.0171 14.4884 12.0217C14.4918 12.0263 14.4965 12.0297 14.502 12.0314L16.5868 13.4034C16.615 13.42 16.6469 13.4295 16.6796 13.4309H17.2154C17.2429 13.4309 17.2469 13.4183 17.224 13.4034L15.0999 12.003L17.8322 10.5956C17.8566 10.583 17.8542 10.572 17.8267 10.572" fill="#F36A10"/>
<path d="M16.6707 10.5719H12.9361L12.3319 13.4308H16.0657C16.0932 13.4308 16.0971 13.4182 16.0743 13.4033L13.9502 12.0037L16.6793 10.5963C16.7045 10.5837 16.7013 10.5727 16.6738 10.5727" fill="white"/>
<path d="M18.9674 10.5719H18.4317C18.3984 10.5733 18.3658 10.5813 18.3357 10.5955L15.6483 11.9801C15.6428 11.9818 15.638 11.9852 15.6346 11.9898C15.6312 11.9944 15.6294 12 15.6294 12.0057C15.6294 12.0114 15.6312 12.017 15.6346 12.0216C15.638 12.0262 15.6428 12.0296 15.6483 12.0312L17.7331 13.4033C17.7613 13.4199 17.7932 13.4293 17.8259 13.4308H18.3616C18.3892 13.4308 18.3931 13.4182 18.3703 13.4033L16.2462 12.0029L18.9784 10.5955C19.0028 10.5829 19.0005 10.5719 18.9729 10.5719" fill="#FFA800"/>
<path d="M16.5052 8.70099H7.71217C7.50295 8.69091 7.29682 8.7545 7.12964 8.88071C6.96247 9.00691 6.84484 9.18774 6.79723 9.39172C6.77565 9.48872 6.78275 9.5899 6.81767 9.68294C6.85259 9.77597 6.91383 9.85683 6.99391 9.91567L10.1533 12.0012L16.5108 8.72459C16.5351 8.712 16.5328 8.70099 16.5052 8.70099Z" fill="white"/>
<path d="M15.1127 15.2724L10.1564 12.0005L6.10878 14.0868C6.00692 14.1407 5.91722 14.215 5.84522 14.305C5.77323 14.395 5.72048 14.4988 5.69025 14.61C5.61158 14.9908 5.82006 15.3 6.31175 15.3H15.104C15.1316 15.3 15.1355 15.2874 15.1127 15.2724Z" fill="white"/>
</svg>
