<svg width="24" height="24" viewBox="0 0 24 24" fill="none" xmlns="http://www.w3.org/2000/svg">
<path d="M0 9C0 4.02944 4.02944 0 9 0H15C19.9706 0 24 4.02944 24 9V15C24 19.9706 19.9706 24 15 24H9C4.02944 24 0 19.9706 0 15V9Z" fill="#FFE300"/>
<g clip-path="url(#clip0_10248_2539)">
<path d="M15.1203 12C15.9581 11.4464 16.5088 10.496 16.4999 9.41548C16.488 7.71909 15.0611 6.375 13.3647 6.375H7.8375C7.65098 6.375 7.5 6.52598 7.5 6.7125V17.2875C7.5 17.474 7.65098 17.625 7.8375 17.625H13.3647C15.0581 17.625 16.488 16.2809 16.4999 14.5845C16.5088 13.5039 15.9581 12.5506 15.1203 12ZM12.3849 14.7H11.1474V9.3H12.3849V14.7Z" fill="#1E1E1E"/>
</g>
<defs>
<clipPath id="clip0_10248_2539">
<rect width="9" height="11.25" fill="white" transform="translate(7.5 6.375)"/>
</clipPath>
</defs>
</svg>
