<svg width="24" height="24" viewBox="0 0 24 24" fill="none" xmlns="http://www.w3.org/2000/svg">
<path d="M3 1.5C3 0.671573 3.67157 0 4.5 0H19.5C20.3284 0 21 0.671573 21 1.5V22.5C21 23.3284 20.3284 24 19.5 24H4.5C3.67157 24 3 23.3284 3 22.5V1.5Z" fill="#FFCC00"/>
<path d="M18.1431 11.8574L18.0322 11.7914C17.6559 11.4407 17.1327 11.2878 16.4326 11.3271C15.8494 11.3607 15.3877 11.5768 15.0339 11.7774C15.0339 11.7718 15.0339 11.7676 15.0339 11.762C15.0339 11.5908 15.0549 11.4056 15.0744 11.2261C15.0939 11.0437 15.1164 10.8571 15.1164 10.6817C15.1164 10.5064 15.0954 10.331 15.0279 10.1851C15.0114 10.1472 14.974 10.1262 14.9275 10.1262C14.7386 10.1304 14.3713 10.251 14.2814 10.324L14.2334 10.4236C14.2304 10.6186 14.1839 11.1643 14.1375 11.2303C14.139 11.2275 14.1135 11.2962 14.1135 11.2962C14.034 12.0748 14.0325 12.7581 14.106 13.3459C14.115 13.4048 14.2349 13.4932 14.3293 13.5255C14.4313 13.5605 14.7521 13.4806 14.9365 13.416C14.9335 13.416 15.0054 13.4062 15.0054 13.4062C15.0639 13.4006 15.0984 13.3543 15.0954 13.2926L15.0999 13.1242C15.2333 12.6178 15.773 12.0117 16.4101 11.9205C16.7714 11.8672 17.0562 11.9542 17.2811 12.1829C17.3111 12.2235 17.377 12.5897 17.1402 13.0078C16.9633 13.3178 16.6095 13.5802 16.1433 13.7429C15.7025 13.9 15.2168 13.9632 14.6187 13.9435C14.5932 13.9281 14.058 13.5886 14.058 13.5886C13.5828 13.2757 12.9921 12.8871 12.4569 12.6977C12.3625 12.6641 12.1946 12.5322 12.0927 12.455L12.0372 12.4129C11.7284 12.1814 11.1407 11.8153 10.67 11.5207C10.67 11.5207 10.4571 11.3874 10.4166 11.3607C10.4166 11.3439 10.4166 11.3102 10.4166 11.3102C10.4301 11.2962 10.727 11.1307 10.727 11.1307C11.1422 10.9034 11.3341 10.7925 11.3746 10.735C11.3656 10.7448 11.43 10.7042 11.43 10.7042C11.4345 10.7028 12.4584 10.1598 12.4584 10.1598C13.4464 9.65197 14.5647 9.07537 15.1524 8.50718L15.1808 8.4202L15.1943 8.34304C15.2333 8.22098 15.2348 8.12839 15.2033 8.02036C15.1943 7.9895 15.1643 7.95302 15.1239 7.94741C14.6651 7.90392 14.073 8.16206 13.5348 8.63485C13.4134 8.74147 13.3114 8.79338 13.2035 8.84809L13.121 8.89158C12.5274 9.20724 11.1902 9.98446 10.4886 10.4039C10.5351 9.69967 10.6745 8.69658 10.8454 7.86183L10.8259 7.76223L10.7539 7.63596L10.7 7.54617L10.685 7.54197C10.5456 7.47603 10.4316 7.50268 10.3477 7.52232L10.2083 7.57002L10.0209 7.63316C9.9834 7.64017 9.95791 7.66121 9.94442 7.69488C9.61012 8.45106 9.33128 9.69546 9.26532 10.6901C8.59671 10.2931 7.97908 10.0069 7.67625 9.86802L7.66726 9.86381L7.63128 9.8568C7.52184 9.84417 7.38992 9.76841 7.2625 9.69546C7.24901 9.68845 7.00765 9.54114 7.00765 9.54114L6.61938 9.30825L6.51744 9.2858C6.35103 9.31246 6.03022 9.51448 5.93578 9.65197C5.92379 9.67021 5.91779 9.68985 5.91779 9.70949C5.91779 9.73895 5.92678 9.76701 5.93578 9.79647L5.95227 9.87083L5.97026 9.91572C6.15615 10.0939 6.62687 10.3913 7.0871 10.6228L7.62079 10.8879L8.43781 11.306L8.57722 11.4098L8.67317 11.4617C8.67317 11.4617 8.68366 11.4674 8.69116 11.4716C8.47378 11.6077 7.20403 12.4003 7.20403 12.4003L6.42299 12.8857C6.34953 12.9334 6.04072 13.0625 5.97176 13.0877C5.80236 13.1523 5.67343 13.2519 5.62096 13.3585L5.59998 13.4006L5.62096 13.4287L5.68093 13.4707L5.76038 13.5198L5.84733 13.5746L5.92828 13.5872C6.0662 13.5914 6.26858 13.5184 6.64936 13.3627C6.99865 13.2182 7.94759 12.6823 8.35386 12.4536L8.52625 12.3568C8.59821 12.3624 8.67617 12.3063 8.74662 12.2558C8.82758 12.1955 9.00447 12.0931 9.11241 12.0482C9.11541 12.0482 9.17687 12.0145 9.23534 11.985C9.23534 12.0019 9.23534 12.0285 9.23534 12.0285C9.25333 13.1902 9.32378 14.0347 9.4602 14.6857V14.6969L9.4752 14.7236C9.54116 14.8147 9.61761 15.0911 9.68507 15.3338L9.83948 15.8192L9.88296 15.8641C9.9714 15.9203 10.2397 16.0171 10.4196 15.9974L10.4646 15.9918L10.4931 15.9329C10.5081 15.8599 10.5141 15.7884 10.5141 15.7098C10.5141 15.6214 10.5066 15.5232 10.4991 15.404L10.4871 15.2286C10.4301 14.4177 10.3732 13.2463 10.3732 12.4676V12.4059C10.5216 12.4915 11.1647 12.8717 11.1647 12.8717C12.2606 13.5367 13.9171 14.5426 14.917 14.8077C14.9695 14.8218 15.0234 14.8105 15.0624 14.7769C15.0624 14.7755 15.2168 14.6843 15.2168 14.6843L15.2453 14.673C15.3023 14.6478 15.3412 14.5566 15.3472 14.4584C16.1912 14.4191 17.3666 14.1147 17.9962 13.3739C18.239 13.0863 18.35 12.7356 18.35 12.4354C18.35 12.1885 18.2765 11.9752 18.1446 11.8588" fill="#7C7266"/>
</svg>
