<svg width="32" height="32" viewBox="0 0 32 32" fill="none" xmlns="http://www.w3.org/2000/svg">
<path d="M0 12C0 5.37258 5.37258 0 12 0H20C26.6274 0 32 5.37258 32 12V20C32 26.6274 26.6274 32 20 32H12C5.37258 32 0 26.6274 0 20V12Z" fill="#007F41"/>
<path fill-rule="evenodd" clip-rule="evenodd" d="M10.0744 21.933C10.1187 22.5187 10.3651 22.8604 11.0507 22.8468C15.8307 22.7695 17.0855 16.9741 14.1322 14.2477C13.6583 13.812 13.0834 13.4527 12.3897 13.2098C12.0409 13.0863 11.4663 12.9082 10.9764 12.9082C10.5554 12.9082 10.1971 13.0415 10.104 13.4611C9.93112 14.2623 10.0117 21.1382 10.0744 21.933Z" fill="white"/>
<path fill-rule="evenodd" clip-rule="evenodd" d="M16.7425 7.5083C16.3579 7.5083 16.0344 7.63207 15.9483 8.0126C15.7906 8.7373 15.8666 14.9813 15.9209 15.7052C15.9624 16.234 16.1845 16.5436 16.8068 16.535C21.1479 16.4619 22.2901 11.2004 19.6082 8.72563C19.1785 8.32989 18.6514 8.00392 18.0271 7.78406C17.7085 7.67034 17.1882 7.5083 16.7425 7.5083Z" fill="white"/>
<path fill-rule="evenodd" clip-rule="evenodd" d="M16.9272 13.6326C16.7253 14.5454 16.8227 22.3881 16.8922 23.2982C16.9457 23.9673 17.222 24.3519 18.0029 24.3405C23.4606 24.2531 24.8951 17.6399 21.5254 14.5289C20.9869 14.0324 20.3227 13.622 19.538 13.346C19.1379 13.2035 18.4816 13.0005 17.9252 13.0005C17.4426 13.0005 17.0317 13.1533 16.9272 13.6326Z" fill="white"/>
</svg>
