<svg width="24" height="24" viewBox="0 0 24 24" fill="none" xmlns="http://www.w3.org/2000/svg">
<path d="M0 9C0 4.02944 4.02944 0 9 0H15C19.9706 0 24 4.02944 24 9V15C24 19.9706 19.9706 24 15 24H9C4.02944 24 0 19.9706 0 15V9Z" fill="#0088D0"/>
<path fill-rule="evenodd" clip-rule="evenodd" d="M11.9149 9.17297C13.4587 9.17297 14.7106 10.4249 14.7106 11.9686C14.7106 13.5124 13.4587 14.7642 11.9149 14.7642C11.5037 14.7642 11.1134 14.6755 10.7622 14.5158L11.4273 13.3496C11.5802 13.4034 11.7442 13.4328 11.9155 13.4328C12.7244 13.4328 13.3804 12.7769 13.3804 11.968C13.3804 11.1591 12.7244 10.5032 11.9155 10.5032C11.1066 10.5032 10.4507 11.1591 10.4507 11.968C10.4507 12.0628 10.4599 12.1558 10.477 12.2458L9.22515 12.7304C9.15662 12.4881 9.1199 12.2323 9.1199 11.968C9.11929 10.4249 10.3712 9.17297 11.9149 9.17297Z" fill="white"/>
<path fill-rule="evenodd" clip-rule="evenodd" d="M11.9159 11.9686C10.9736 12.3333 10.0313 12.6986 9.08902 13.0633C8.99173 13.1238 8.95502 13.2022 8.97888 13.2994C9.21384 13.9272 9.69416 14.41 10.2858 14.8273C10.8292 13.8746 11.3725 12.9219 11.9159 11.9686Z" fill="white"/>
<path d="M16.9673 9.48755H15.196V14.5422H16.0134C16.2992 14.5422 16.5311 14.3091 16.5311 14.0209V12.7751H17.2261C18.475 12.7751 19.2147 12.1669 19.2147 11.1457C19.2147 10.0095 18.497 9.48816 16.9673 9.48816V9.48755ZM17.053 11.8194H16.5304V10.4427H17.053C17.5125 10.4427 17.879 10.6097 17.879 11.1237C17.879 11.6377 17.5125 11.8194 17.053 11.8194Z" fill="white"/>
<path d="M6.55728 9.48743H4.78531V14.5421H5.60338C5.88973 14.5421 6.12163 14.309 6.12163 14.0208V12.775H6.8161C8.06615 12.775 8.8059 12.1668 8.8059 11.1456C8.8059 10.0094 8.08757 9.48804 6.55789 9.48804L6.55728 9.48743ZM6.64356 11.8193H6.12163V10.4426H6.64356C7.10368 10.4426 7.46958 10.6096 7.46958 11.1236C7.46958 11.6375 7.10368 11.8193 6.64356 11.8193Z" fill="white"/>
</svg>
