<svg width="24" height="24" viewBox="0 0 24 24" fill="none" xmlns="http://www.w3.org/2000/svg">
<path d="M0 9C0 4.02944 4.02944 0 9 0H15C19.9706 0 24 4.02944 24 9V15C24 19.9706 19.9706 24 15 24H9C4.02944 24 0 19.9706 0 15V9Z" fill="#E2E8EF"/>
<g clip-path="url(#clip0_23315_219460)">
<path d="M2 9.5V14.5729H7.07403V9.5H2Z" fill="#B2D234"/>
<path d="M11.5856 13.6355H10.7704V10.5405H11.5856V13.6355Z" fill="#00367B"/>
<path d="M13.9979 12.963V12.0187H16.1256V12.963H13.9979ZM16.9443 13.0751V11.9089C16.9443 11.4676 16.5784 11.351 16.3852 11.3498H13.9979V10.5415H13.1827V13.0191C13.1827 13.0282 13.1793 13.25 13.3508 13.4249C13.4846 13.561 13.6824 13.6307 13.9419 13.6307H16.3852C16.5784 13.6307 16.9443 13.5141 16.9443 13.0739V13.0751Z" fill="#00367B"/>
<path d="M21.1848 11.2104V12.962H19.0571V11.2104H21.1848ZM21.242 10.5427H19C18.7416 10.5427 18.5438 10.6113 18.41 10.7485C18.2385 10.9234 18.2419 11.1453 18.2419 11.1544V13.0169C18.2419 13.0226 18.2522 13.632 18.9988 13.632H21.2431C21.9886 13.632 22 13.0226 22 13.0169V11.1533C22 11.1453 22.0035 10.9234 21.832 10.7485C21.6993 10.6113 21.5004 10.5427 21.242 10.5427Z" fill="#00367B"/>
<path d="M5.13391 10.7336V11.0354H5.79589V13.6353H6.61107V10.2534L5.13391 10.7336Z" fill="#00367B"/>
<path d="M8.06764 12.0438L9.66256 10.5518H8.61528L7.0741 12.0438L8.63015 13.6193H9.67285L8.06764 12.0438Z" fill="#00367B"/>
</g>
<defs>
<clipPath id="clip0_23315_219460">
<rect width="20" height="5.07289" fill="white" transform="translate(2 9.5)"/>
</clipPath>
</defs>
</svg>
