<svg width="24" height="24" viewBox="0 0 24 24" fill="none" xmlns="http://www.w3.org/2000/svg">
<path d="M0 9C0 4.02944 4.02944 0 9 0H15C19.9706 0 24 4.02944 24 9V15C24 19.9706 19.9706 24 15 24H9C4.02944 24 0 19.9706 0 15V9Z" fill="#E2E8EF"/>
<path d="M16.9133 10.7119L12.998 6.79652C12.1849 5.98342 11.2092 6.03346 10.8714 6.096C7.79417 6.60888 5.45496 9.27333 5.45496 12.5007C5.45496 16.0908 8.35708 18.9929 11.9347 18.9929C15.4248 18.9929 18.2768 16.2034 18.4019 12.7384C18.4019 12.7008 18.3894 12.5757 18.3019 12.5257C18.2018 12.4632 17.9891 12.4882 17.9891 12.4882H15.4873C15.4873 12.4882 15.2496 12.4882 15.1746 12.5257C15.1245 12.5507 15.062 12.6008 15.062 12.6008L12.0098 15.6405C11.9597 15.6905 11.8847 15.6905 11.8346 15.6405L8.75737 12.5632C8.70734 12.5132 8.70734 12.4381 8.75737 12.3881L11.8346 9.31086C11.8847 9.26082 11.9597 9.26082 12.0098 9.31086L14.8243 12.1379C14.8243 12.1379 14.9744 12.2755 15.112 12.3005C15.2371 12.3381 15.4248 12.2005 15.4248 12.2005L16.9133 10.7119Z" fill="#2D64AA"/>
<path fill-rule="evenodd" clip-rule="evenodd" d="M18.3393 8.69796L16.2377 6.60893C13.8985 4.34477 11.1965 5.90842 11.1965 5.90842C11.1965 5.90842 12.3474 5.29547 13.8109 6.84661L17.276 10.3367L18.3017 9.32342C18.3017 9.32342 18.4268 9.17331 18.4518 9.0232C18.4769 8.8856 18.3393 8.69796 18.3393 8.69796Z" fill="#2D64AA"/>
</svg>
