<svg width="24" height="24" viewBox="0 0 24 24" fill="none" xmlns="http://www.w3.org/2000/svg">
<path d="M0 9C0 4.02944 4.02944 0 9 0H15C19.9706 0 24 4.02944 24 9V15C24 19.9706 19.9706 24 15 24H9C4.02944 24 0 19.9706 0 15V9Z" fill="#005BAC"/>
<path fill-rule="evenodd" clip-rule="evenodd" d="M9.43469 5.72705L11.9969 6.96881L14.5639 5.72705L11.9969 10.4274L9.43469 5.72705ZM15.4204 9.3312L15.4608 9.36386H15.4618C16.2707 10.0434 16.8452 10.9448 17.1084 11.9475C17.3716 12.9502 17.3109 14.0065 16.9346 14.9752C16.5582 15.9438 15.884 16.7785 15.0022 17.3679C14.1204 17.9572 13.073 18.2729 12 18.2729C10.927 18.2729 9.87955 17.9572 8.99774 17.3679C8.11593 16.7785 7.44177 15.9438 7.0654 14.9752C6.68902 14.0065 6.62837 12.9502 6.89156 11.9475C7.15475 10.9448 7.72922 10.0434 8.53818 9.36386L8.57582 9.32667L6.74847 8.5856V6.10571L9.9261 7.41187L11.6848 10.6283C11.0073 10.7052 10.386 11.0288 9.94789 11.5328C9.50979 12.0368 9.28804 12.6831 9.32801 13.3395C9.36798 13.9959 9.66665 14.6128 10.1629 15.0639C10.6592 15.515 11.3155 15.7663 11.9976 15.7663C12.6797 15.7663 13.3361 15.515 13.8323 15.0639C14.3286 14.6128 14.6273 13.9959 14.6672 13.3395C14.7072 12.6831 14.4855 12.0368 14.0474 11.5328C13.6093 11.0288 12.9879 10.7052 12.3105 10.6283C12.3491 10.5566 14.0729 7.41187 14.0729 7.41187L17.2515 6.10571V8.59014L15.4204 9.3312Z" fill="white"/>
</svg>
