<svg width="33" height="32" viewBox="0 0 33 32" fill="none" xmlns="http://www.w3.org/2000/svg">
<path d="M0.5 12C0.5 5.37258 5.87258 0 12.5 0H20.5C27.1274 0 32.5 5.37258 32.5 12V20C32.5 26.6274 27.1274 32 20.5 32H12.5C5.87258 32 0.5 26.6274 0.5 20V12Z" fill="#0055A2"/>
<path d="M16.4962 9.29142L13.0798 7.63574L16.4962 13.9029L19.9187 7.63574L16.4962 9.29142Z" fill="#FBBA00"/>
<path d="M21.1147 12.4853L21.0607 12.4418L23.5022 11.4537V8.14111L19.2641 9.88266C19.2641 9.88266 16.9657 14.0757 16.9142 14.1712C17.8175 14.2738 18.6459 14.7052 19.2301 15.3772C19.8142 16.0492 20.1099 16.911 20.0566 17.7862C20.0033 18.6614 19.605 19.4839 18.9434 20.0854C18.2817 20.6869 17.4066 21.0219 16.4971 21.0219C15.5876 21.0219 14.7125 20.6869 14.0508 20.0854C13.3891 19.4839 12.9909 18.6614 12.9376 17.7862C12.8843 16.911 13.18 16.0492 13.7641 15.3772C14.3482 14.7052 15.1767 14.2738 16.0799 14.1712L13.735 9.88266L9.4982 8.14111V11.4476L11.9347 12.4357L11.8845 12.4853C10.8059 13.3913 10.0399 14.5932 9.68899 15.9302C9.33808 17.2672 9.41894 18.6755 9.92078 19.967C10.4226 21.2585 11.3215 22.3716 12.4972 23.1573C13.673 23.9431 15.0696 24.3641 16.5002 24.3641C17.9309 24.3641 19.3274 23.9431 20.5032 23.1573C21.6789 22.3716 22.5778 21.2585 23.0797 19.967C23.5815 18.6755 23.6623 17.2672 23.3114 15.9302C22.9605 14.5932 22.1946 13.3913 21.1159 12.4853" fill="#FBBA00"/>
</svg>
