<svg width="24" height="24" viewBox="0 0 24 24" fill="none" xmlns="http://www.w3.org/2000/svg">
<path d="M0 9C0 4.02944 4.02944 0 9 0H15C19.9706 0 24 4.02944 24 9V15C24 19.9706 19.9706 24 15 24H9C4.02944 24 0 19.9706 0 15V9Z" fill="#F1F2F4"/>
<path fill-rule="evenodd" clip-rule="evenodd" d="M11.0092 9.65566C11.0237 9.67254 11.0414 9.68641 11.0613 9.69649L12.0416 10.3389C12.9144 10.9096 13.787 11.4803 14.6594 12.051C14.7641 12.1167 14.8641 12.1897 14.9586 12.2695C15.092 12.384 15.2089 12.5166 15.3059 12.6635C15.4293 12.8537 15.5022 13.0725 15.5178 13.2991C15.541 13.638 15.4774 13.9773 15.333 14.2844C15.2696 14.4281 15.1918 14.5649 15.1008 14.6927C15.0873 14.7118 15.0717 14.7308 15.0555 14.7519C15.0338 14.739 15.0148 14.7281 14.9972 14.7159L13.3109 13.6094C12.0481 12.7832 10.7855 11.9571 9.52319 11.131C9.33056 11.0044 9.16693 10.8381 9.04322 10.6431C8.90997 10.4374 8.82224 10.2053 8.78597 9.96256C8.74092 9.68088 8.75873 9.39266 8.83809 9.11874C8.93074 8.79723 9.11729 8.51108 9.37358 8.29737C9.40877 8.26805 9.44562 8.24078 9.48393 8.21571L12.0361 6.53283C12.1748 6.43709 12.3352 6.37789 12.5026 6.36066C12.6687 6.34078 12.8372 6.36327 12.9924 6.42607C13.1476 6.48886 13.2846 6.58994 13.3908 6.71997C13.4818 6.82426 13.5497 6.94683 13.5899 7.07952C13.6302 7.21222 13.6419 7.35202 13.6243 7.48962C13.6103 7.63885 13.5629 7.78296 13.4856 7.91118C13.4084 8.03939 13.3033 8.14838 13.1782 8.23C13.0381 8.32527 12.8952 8.41578 12.7531 8.50901L11.0674 9.61278C11.0458 9.62414 11.0262 9.63883 11.0092 9.65634" fill="#006EBB"/>
<path fill-rule="evenodd" clip-rule="evenodd" d="M8.95187 11.7665L9.00332 11.7992L15.0386 15.7495C15.195 15.8483 15.3218 15.9878 15.4056 16.1532C15.4895 16.3187 15.5271 16.5038 15.5145 16.6891C15.5019 16.8743 15.4396 17.0526 15.3343 17.2051C15.2289 17.3575 15.0843 17.4784 14.916 17.5549C14.7621 17.6258 14.5928 17.6563 14.4239 17.6434C14.2551 17.6306 14.0922 17.5748 13.9507 17.4814C13.7909 17.3827 13.6366 17.2773 13.4768 17.1745C12.0827 16.2599 10.6872 15.3462 9.29036 14.4334C9.19385 14.3732 9.10177 14.3062 9.01483 14.2327C8.85719 14.0967 8.72611 13.9324 8.62828 13.7482C8.55806 13.6109 8.51224 13.4624 8.49288 13.3093C8.45602 13.0244 8.48569 12.7347 8.57954 12.4634C8.65463 12.2372 8.76228 12.0233 8.89907 11.8285C8.91126 11.8101 8.92479 11.7931 8.93833 11.7754C8.94295 11.7717 8.94794 11.7685 8.95323 11.7659" fill="#79B634"/>
<path fill-rule="evenodd" clip-rule="evenodd" d="M12.4979 9.6517L12.5466 9.61835L13.7266 8.84598C13.7767 8.81332 13.8281 8.7827 13.8809 8.7548C14.0625 8.66273 14.2676 8.62865 14.469 8.65711C14.6703 8.68557 14.8582 8.77521 15.0074 8.91403C15.179 9.06988 15.2901 9.28182 15.3209 9.51219C15.3579 9.76761 15.2961 10.0276 15.1481 10.2385C15.0001 10.4495 14.7772 10.5953 14.5254 10.6459C14.3053 10.6922 14.0761 10.6602 13.8769 10.5554C13.8271 10.5296 13.7788 10.5012 13.732 10.4703L12.5419 9.69117C12.5256 9.68096 12.506 9.67415 12.4972 9.65102" fill="#79B634"/>
<path fill-rule="evenodd" clip-rule="evenodd" d="M11.3071 16.6315C11.2868 16.6458 11.2726 16.6567 11.2577 16.6662L10.052 17.4556C9.94887 17.5266 9.83438 17.5793 9.71351 17.6114C9.45407 17.6717 9.18143 17.6259 8.95557 17.4841C8.72971 17.3423 8.56914 17.1162 8.50917 16.8554C8.4492 16.5946 8.49475 16.3205 8.6358 16.0935C8.77685 15.8665 9.00185 15.705 9.26129 15.6448C9.47253 15.5949 9.69436 15.6189 9.89021 15.7128C9.94935 15.7415 10.0066 15.774 10.0615 15.8101C10.4623 16.0714 10.8626 16.3334 11.2624 16.5961C11.2753 16.605 11.2882 16.6145 11.3078 16.6288" fill="#006EBB"/>
</svg>
