<svg width="32" height="32" viewBox="0 0 32 32" fill="none" xmlns="http://www.w3.org/2000/svg">
<path d="M0 12C0 5.37258 5.37258 0 12 0H20C26.6274 0 32 5.37258 32 12V20C32 26.6274 26.6274 32 20 32H12C5.37258 32 0 26.6274 0 20V12Z" fill="#002865"/>
<path d="M22.527 13.2154C22.358 13.0598 22.1595 12.9396 21.9433 12.8619C21.7271 12.7842 21.4975 12.7506 21.2681 12.7631C21.0387 12.7755 20.8142 12.8338 20.6076 12.9345C20.4011 13.0351 20.2169 13.1761 20.0657 13.3491C19.2073 14.2519 18.5369 14.589 17.742 14.5546C16.6291 14.5072 16.0802 13.6465 15.5092 12.5611C15.2849 12.0442 14.9163 11.6029 14.4477 11.29C13.979 10.9772 13.4302 10.8059 12.8668 10.7969C12.4743 10.7989 12.0865 10.8811 11.7269 11.0383C11.3674 11.1956 11.0437 11.4246 10.7758 11.7114C10.508 11.9982 10.3015 12.3367 10.169 12.7061C10.0366 13.0755 9.98103 13.4681 10.0057 13.8597C10.0271 14.8241 10.3144 15.7639 10.836 16.5753C11.3576 17.3867 12.0931 18.0383 12.9616 18.4583C13.9306 18.9438 14.9965 19.205 16.0802 19.2226C16.0062 19.8804 15.8632 20.5286 15.6537 21.1565H17.6992C17.4806 20.5085 17.3355 19.838 17.2665 19.1577C20.2629 18.7694 21.687 17.4072 22.4643 16.1101C22.7943 15.607 22.9794 15.0228 22.9994 14.4216C23.0054 14.199 22.9666 13.9774 22.8853 13.7701C22.804 13.5627 22.6819 13.3738 22.5262 13.2146M12.8805 14.7717C12.6737 14.7855 12.4674 14.7376 12.2878 14.6341C12.1082 14.5306 11.9634 14.3761 11.8717 14.1902C11.7799 14.0043 11.7454 13.7954 11.7725 13.5899C11.7996 13.3844 11.8871 13.1915 12.0239 13.0358C12.1607 12.88 12.3406 12.7684 12.5409 12.7149C12.7412 12.6615 12.9528 12.6688 13.149 12.7357C13.3452 12.8027 13.5171 12.9263 13.6429 13.091C13.7687 13.2558 13.8429 13.4541 13.8559 13.661C13.8735 13.9375 13.7807 14.2098 13.5978 14.418C13.415 14.6262 13.157 14.7534 12.8805 14.7717Z" fill="#4CA223"/>
</svg>
