<svg width="32" height="32" viewBox="0 0 32 32" fill="none" xmlns="http://www.w3.org/2000/svg">
<path d="M0 12C0 5.37258 5.37258 0 12 0H20C26.6274 0 32 5.37258 32 12V20C32 26.6274 26.6274 32 20 32H12C5.37258 32 0 26.6274 0 20V12Z" fill="#056751"/>
<path d="M15.3023 14.8711L15.0109 14.9149L14.7484 14.9831L14.5043 15.0706L14.2838 15.1739L14.0913 15.2832L13.7842 15.4985L13.5934 15.6647L13.5278 15.7312L13.3064 16.0392L13.1314 16.3472L13.0002 16.6526L12.9057 16.9527L12.8418 17.2441L12.8112 17.5259L12.8016 17.7884L12.8138 18.0386L12.8777 18.4761L12.9652 18.8174L13.0798 19.1166L13.1857 19.2837L13.2933 19.4237L13.4044 19.5384L13.5156 19.6259L13.7352 19.7457L13.9408 19.8L14.1158 19.8096L14.2584 19.793L14.3871 19.7571L14.4991 19.7037L14.5909 19.6372L14.6662 19.5611L14.7222 19.4789L14.7966 19.3161L14.8228 19.1324L14.8158 18.9574L14.7966 18.8182L14.7624 18.6852L14.7239 18.3265L14.7353 18.0237L14.7826 17.7787L14.8508 17.5854L14.9287 17.4401L15.0013 17.3412L15.0757 17.266L15.2244 17.1785L15.3644 17.119L15.4983 17.084L15.6199 17.0726L15.8404 17.1006L16.0207 17.1811L16.1642 17.2852L16.2683 17.3911L16.3558 17.5066L16.4809 17.7586L16.5684 18.071L16.6139 18.4324L16.6271 18.8322L16.6113 19.2619L16.5737 19.709L16.4416 20.6129L16.2736 21.4642L16.1064 22.1756L15.9314 22.8459L15.8824 23.0357V23.16L15.9166 23.2309L15.9743 23.2615L16.1064 23.2492L16.1721 23.2239L16.2193 23.2641L16.2666 23.2807L16.3541 23.2597L16.4197 23.2099L16.4459 23.1836L16.7706 22.8336L17.0576 22.4687L17.3148 22.0907L17.5379 21.7066L17.7339 21.3199L17.9002 20.9375L18.1627 20.2104L18.3377 19.5681L18.4436 19.0536L18.5101 18.5881L18.5433 18.1462L18.5337 17.7411L18.4864 17.371L18.4094 17.0341L18.2966 16.7331L18.1723 16.4627L18.0349 16.2221L17.8879 16.0121L17.7366 15.8301L17.5861 15.6752L17.3157 15.446L17.1206 15.3139L17.0453 15.2727L16.6612 15.0872L16.2919 14.9586L15.9419 14.8842L15.6129 14.8562L15.3023 14.8711ZM23.2648 11.0657L22.7914 11.2337L21.9602 11.4962L20.8227 11.8462L20.1542 12.0142L19.5146 12.1429L18.9187 12.2356L18.3937 12.2977L17.6062 12.359L17.3087 12.3686L16.6139 12.3896L15.8431 12.3774L14.2899 12.2899L13.0518 12.1735L12.5513 12.1192L11.1268 11.9276L10.2606 11.8156L9.7093 11.75L9.12218 11.7211L8.77218 11.6931H8.5403L8.3653 11.7299L8.24105 11.7937L8.15968 11.8734L8.10805 11.9609L8.0818 12.0344L8.07043 12.1087L8.07655 12.275L8.0468 12.4395L7.9873 12.6145L8.00305 12.7711L8.04418 12.9286L8.10805 13.0826L8.19555 13.2287L8.40905 13.5061L8.65493 13.7432L8.9008 13.9401L9.11693 14.0889L9.3278 14.2157L9.55793 14.319L9.69618 14.4117L9.76355 14.4774L9.77843 14.5036L9.82218 14.5544L9.8773 14.5955L10.0173 14.6541L10.1809 14.6839L10.3559 14.6926L10.6552 14.6734L10.7864 14.655L11.7979 14.5036L12.6458 14.396L13.4447 14.3085L14.7248 14.2026L15.8623 14.0854L16.8546 13.9637L17.6867 13.8474L18.8391 13.6636L19.2389 13.5866L19.9853 13.3836L20.6503 13.1806L21.2383 12.9767L21.7572 12.7764L22.2069 12.5812L22.5946 12.3914L22.9236 12.2111L23.1983 12.0361L23.6052 11.7351L23.8511 11.4997L23.9727 11.3475L24.0051 11.2932L24.0129 11.2206L23.9989 11.169L23.9727 11.1314L23.9368 11.1086L23.8616 11.0902H23.8266L23.7076 11.12H23.6323L23.5798 11.0937L23.4442 11.0377L23.3453 11.0334L23.2648 11.0657ZM15.8343 8.72599L15.7302 8.74612H15.6829L15.4292 8.76537L15.2104 8.81262L15.0197 8.88262L14.8561 8.97012L14.7161 9.07424L14.6014 9.18974L14.5061 9.31224L14.4299 9.43824L14.3258 9.68499L14.2716 9.90112L14.2479 10.1102L14.2716 10.3342L14.3241 10.532L14.3958 10.7017L14.4754 10.8444L14.6216 11.0386L14.6907 11.1042L14.8657 11.2285L15.0407 11.3204L15.2104 11.3842L15.3749 11.4227L15.6777 11.435L15.9472 11.3869L16.1703 11.2994L16.3392 11.2075L16.4923 11.1086L16.6279 10.9459L16.7338 10.7884L16.8134 10.6387L16.8694 10.4961L16.9237 10.2336L16.9158 10.0122L16.8729 9.83112L16.8091 9.69637L16.7364 9.58262L16.6428 9.49512L16.5947 9.41287L16.5789 9.32537L16.6113 9.13287L16.6341 9.00862L16.5903 8.88962L16.4932 8.80737L16.3654 8.75574L16.2211 8.72774L15.9533 8.71899L15.8343 8.72599Z" fill="white"/>
</svg>
