<svg width="32" height="32" viewBox="0 0 32 32" fill="none" xmlns="http://www.w3.org/2000/svg">
<path d="M0 12C0 5.37258 5.37258 0 12 0H20C26.6274 0 32 5.37258 32 12V20C32 26.6274 26.6274 32 20 32H12C5.37258 32 0 26.6274 0 20V12Z" fill="#00408C"/>
<path d="M11.0871 22.5139C11.4697 23.108 12.0184 23.3976 12.7215 23.3999C13.9306 23.4045 15.1386 23.401 16.3477 23.3999C16.4353 23.3999 16.5229 23.3907 16.6451 23.3827C16.2302 22.7222 15.8383 22.0995 15.4464 21.4756C16.8215 21.4744 18.1954 21.4756 19.5705 21.4664C19.725 21.4664 19.8829 21.416 20.0316 21.3668C20.6736 21.1516 21.0298 20.6227 20.9433 19.9576C20.9018 19.6325 20.8465 19.2811 20.6897 19.0018C20.1307 18.0081 19.5244 17.0397 18.9066 16.014C18.804 16.1662 18.751 16.2406 18.7026 16.3162C18.1654 17.1576 17.626 17.9978 17.0912 18.8404C16.5368 19.7138 15.987 20.5884 15.436 21.463C15.1167 20.9765 14.794 20.4922 14.4781 20.0034C13.3831 18.3115 12.2858 16.6207 11.2 14.9219C10.8243 14.3335 10.46 13.7325 10.5522 12.9277C10.49 13.0136 10.4623 13.0468 10.4381 13.0834C9.72004 14.1938 9.00079 15.3031 8.28384 16.4146C7.90347 17.003 7.90578 17.5903 8.28845 18.181C9.2244 19.6245 10.158 21.068 11.0894 22.5139H11.0871Z" fill="white"/>
<path d="M11.2975 13.7076C11.8589 14.7104 12.4686 15.688 13.0887 16.7252C13.1936 16.5695 13.2455 16.4962 13.295 16.4195C13.8322 15.5781 14.3716 14.7379 14.9064 13.8953C15.4609 13.0219 16.0107 12.1473 16.5628 11.2727C16.7922 11.6196 17.0261 11.963 17.2509 12.3122C18.4358 14.1449 19.6231 15.9753 20.7999 17.8138C21.1757 18.4011 21.5399 19.0032 21.4488 19.7999C21.5042 19.729 21.5272 19.7038 21.5457 19.6752C22.2695 18.5579 22.9934 17.4395 23.7161 16.3211C24.0965 15.7327 24.0942 15.1454 23.7115 14.5547C22.7755 13.1112 21.8419 11.6665 20.9106 10.2207C20.5267 9.62772 19.9781 9.3381 19.275 9.33581C18.0658 9.33123 16.8579 9.33467 15.6487 9.33581C15.5611 9.33581 15.4747 9.34497 15.3514 9.35298C15.7663 10.0135 16.1582 10.6374 16.5501 11.2601C15.175 11.2613 13.7999 11.2601 12.426 11.2693C12.2634 11.2704 12.0951 11.3219 11.9384 11.3769C11.3229 11.5933 10.9771 12.1061 11.0508 12.7506C11.0877 13.0768 11.1396 13.4294 11.2964 13.7087L11.2975 13.7076Z" fill="white"/>
</svg>
