<svg width="24" height="24" viewBox="0 0 24 24" fill="none" xmlns="http://www.w3.org/2000/svg">
<path d="M0 9C0 4.02944 4.02944 0 9 0H15C19.9706 0 24 4.02944 24 9V15C24 19.9706 19.9706 24 15 24H9C4.02944 24 0 19.9706 0 15V9Z" fill="#003C73"/>
<path d="M19.1617 8.95753C18.7525 10.2421 17.9444 11.3584 16.8578 12.1401L16.9019 12.1993C17.9176 11.6112 19.6455 10.5108 20.1265 8.49133L19.1617 8.95753Z" fill="#F36B1A"/>
<path d="M16.5755 12.3917C16.5301 12.4181 16.4757 12.4481 16.4159 12.4781L16.4069 12.4822C16.3966 12.4878 16.3863 12.4934 16.3746 12.4983L16.3367 12.5171C16.3367 12.5171 16.3299 12.5171 16.3264 12.5227C15.8397 12.7576 15.3378 12.959 14.8242 13.1254C14.5098 13.2307 14.1595 13.3345 13.7762 13.4355C13.7253 13.4502 13.6723 13.4634 13.6186 13.476C13.6151 13.4777 13.6114 13.4791 13.6076 13.4801L13.4528 13.5171L13.437 13.522L13.2842 13.5589L13.2608 13.5645L13.2023 13.577C13.1727 13.5847 13.1424 13.5902 13.1115 13.5986C13.1015 13.6012 13.0914 13.6033 13.0812 13.6049C13.0323 13.616 12.9835 13.6265 12.9353 13.6362C12.9229 13.6396 12.9102 13.6421 12.8975 13.6439L12.7543 13.6746L12.7103 13.6836C12.6649 13.6934 12.6181 13.7031 12.5727 13.7115L12.5211 13.7213L12.3834 13.747C12.3635 13.747 12.3435 13.7547 12.3249 13.7575L12.1873 13.7819L12.124 13.793C12.124 13.793 12.1199 13.793 12.1185 13.793L11.9926 13.8139L11.9238 13.8251L11.7965 13.8453C11.771 13.8502 11.7455 13.8537 11.7187 13.8578L11.5935 13.8774L11.5102 13.8892L11.3884 13.9059C11.3581 13.9094 11.3272 13.915 11.2976 13.9185L11.1778 13.9338L11.0829 13.9463C11.043 13.9505 11.0044 13.9554 10.9652 13.961L10.8647 13.9714C10.8248 13.977 10.787 13.9805 10.7484 13.9847L10.6411 13.9958L10.5269 14.0084L10.4147 14.0181C10.3782 14.0223 10.3404 14.0251 10.3025 14.0279H10.2984C10.2606 14.0321 10.2241 14.0348 10.1855 14.0376L10.0754 14.0467L9.95295 14.0564C9.91648 14.0564 9.88414 14.0606 9.84561 14.0641C9.80707 14.0676 9.76028 14.0683 9.71693 14.0718L9.60958 14.0787L9.47815 14.0864L9.37011 14.0913H9.36323C9.31988 14.0913 9.2779 14.0955 9.23386 14.0976C9.18982 14.0996 9.16505 14.0976 9.1272 14.1024L8.98958 14.1066C8.95379 14.1066 8.92076 14.1066 8.88429 14.1066L8.73909 14.1108C8.70469 14.1108 8.67028 14.1108 8.6345 14.1108C8.58565 14.1108 8.5361 14.1108 8.48655 14.1108H8.38127H7.96839C7.9333 14.1108 7.89958 14.1108 7.86311 14.1108H7.70552H7.59955C7.54657 14.1108 7.49289 14.1108 7.43991 14.1059C7.40344 14.1059 7.36696 14.1059 7.33118 14.1059C7.27682 14.1059 7.22452 14.1059 7.17016 14.099C7.13231 14.099 7.09584 14.099 7.058 14.099C7.00363 14.0955 6.95202 14.0934 6.89766 14.0913C6.8667 14.0913 6.83779 14.0871 6.80683 14.0871H6.78343C6.72907 14.0871 6.67471 14.0815 6.62035 14.078L6.50612 14.0711C6.45175 14.0669 6.39739 14.0641 6.34097 14.0599L6.22123 14.0502L6.06434 14.0369C6.02236 14.0327 5.97901 14.0293 5.93565 14.0258L5.77945 14.0111C5.72715 14.007 5.67623 14.0014 5.62462 13.9951C5.57301 13.9888 5.53448 13.9875 5.49181 13.9819C5.3941 13.9728 5.29707 13.9617 5.19936 13.9505L5.83863 13.3422C6.12959 13.4274 6.42474 13.4972 6.72288 13.5512C6.62654 12.9645 6.53983 12.4481 6.52676 12.3735H5.52553C5.46704 12.5018 4.32337 15.1094 4.18849 15.4083H4.99291C5.03627 15.3059 5.30533 14.6543 5.30533 14.6543H6.14278C6.14278 14.6543 6.22467 15.2878 6.24256 15.4083H7.02771C7.0112 15.3101 6.93344 14.8509 6.84536 14.3199C7.41032 14.3526 7.97665 14.3589 8.50238 14.3512C8.52868 14.3951 8.54249 14.4455 8.54229 14.4969C8.54379 14.5152 8.54379 14.5336 8.54229 14.5519C8.53084 14.6179 8.49427 14.6767 8.44045 14.7157C8.32573 14.7766 8.19257 14.7915 8.06748 14.7575C7.82604 14.6875 7.61052 14.5466 7.44816 14.3526C7.34425 14.5233 7.12887 14.878 7.058 14.9944C7.32558 15.2557 7.66507 15.4287 8.0317 15.4906C8.36491 15.5477 8.70695 15.4694 8.98338 15.2725C9.09459 15.1885 9.18807 15.0829 9.25827 14.9618C9.32848 14.8406 9.37399 14.7065 9.39213 14.5672C9.40574 14.4872 9.41081 14.4059 9.40727 14.3247C9.97222 14.3017 10.4395 14.2641 10.7436 14.2383C10.7876 14.2658 10.8242 14.3038 10.8502 14.3491C10.8763 14.3943 10.8909 14.4453 10.8929 14.4976C10.8924 14.516 10.8907 14.5344 10.8881 14.5526C10.8827 14.5854 10.871 14.6167 10.8535 14.6449C10.836 14.673 10.8131 14.6973 10.7863 14.7164C10.6716 14.7773 10.5384 14.7923 10.4133 14.7582C10.1718 14.6884 9.95622 14.5475 9.794 14.3533C9.69078 14.524 9.47539 14.8787 9.4052 14.9951C9.67251 15.2568 10.0121 15.4298 10.3789 15.4913C10.7117 15.5484 11.0533 15.47 11.3292 15.2732C11.4414 15.1899 11.5358 15.0844 11.6068 14.9632C11.6777 14.8421 11.7238 14.7076 11.7421 14.5679C11.7698 14.42 11.7632 14.2676 11.7228 14.1226C11.8515 14.1045 11.9747 14.0857 12.093 14.0662C12.0022 14.7024 11.9183 15.2982 11.9017 15.409H13.8381C13.8553 15.2752 13.907 14.9212 13.9297 14.754H12.7598L12.8383 14.193H13.9014C13.9193 14.0767 13.9565 13.8118 13.9799 13.639C14.1265 13.5916 14.198 13.5638 14.198 13.5638C14.198 13.5638 14.5579 13.4551 15.0238 13.2794C14.955 13.7554 14.7485 15.207 14.7224 15.409H15.5605C15.5846 15.2293 15.8839 13.1296 15.8839 13.1296H16.4888C16.5074 12.9993 16.5652 12.5833 16.592 12.3937H16.5865" fill="white"/>
<path d="M7.80649 11.5269H8.63224C8.65977 11.3415 9.02792 8.73597 9.06232 8.49207H8.23657C8.21111 8.67743 7.84227 11.283 7.80718 11.5269" fill="white"/>
<path d="M14.5602 11.5269H16.4952C16.5145 11.3931 16.564 11.0391 16.5874 10.8719H15.4176L15.496 10.3109H16.5606C16.5785 10.1806 16.6239 9.8656 16.6473 9.69975H15.5814L15.6591 9.14784H16.8C16.8186 9.01405 16.8689 8.66004 16.8929 8.4928H14.9875C14.9621 8.67816 14.5918 11.2837 14.5581 11.5276" fill="white"/>
<path d="M5.80031 10.2286L5.56566 8.4906H4.56168C4.51764 8.6467 3.94787 11.2536 3.87355 11.5254H4.61673C4.77087 10.9157 5.05094 9.49686 5.06952 9.40069L5.33445 11.5254H5.92624C5.98198 11.386 6.82081 9.40069 6.82081 9.40069L6.69695 11.5254H7.44701C7.44701 11.3101 7.58463 8.70384 7.58463 8.4906H6.54418C6.48844 8.63067 5.80031 10.2286 5.80031 10.2286Z" fill="white"/>
<path d="M13.8964 8.49207H12.8938C12.836 8.62029 11.693 11.2279 11.5581 11.5269H12.3612C12.4045 11.4244 12.6075 10.9129 12.6075 10.9129H13.5399C13.5399 10.9129 13.5929 11.4077 13.6087 11.5276H14.3994C14.3561 11.276 13.9239 8.67046 13.8929 8.49276M12.8298 10.2865L13.3039 9.16035L13.458 10.2865H12.8298Z" fill="white"/>
<path d="M11.6167 9.49256C11.6267 9.42449 11.6319 9.3558 11.6325 9.28699C11.6417 9.10129 11.5834 8.91862 11.4688 8.77341C11.3626 8.67413 11.2373 8.59812 11.1008 8.55016C10.9643 8.50219 10.8194 8.4833 10.6754 8.49466H9.54407C9.51654 8.68003 9.1477 11.2856 9.1133 11.5295H9.86405C9.8785 11.4361 9.9824 10.6995 10.0705 10.0549L10.6898 11.5295H11.4908L10.8845 10.2507C11.0807 10.248 11.2679 10.1667 11.4051 10.0246C11.5423 9.88255 11.6184 9.69127 11.6167 9.49256ZM10.8157 9.48141C10.8157 9.48141 10.791 9.71347 10.6409 9.78664C10.5565 9.83297 10.4618 9.85694 10.3657 9.85632H10.1028C10.1648 9.41451 10.215 9.05912 10.215 9.05912H10.4001C10.4636 9.0518 10.5279 9.05834 10.5886 9.07829C10.6494 9.09825 10.7053 9.13115 10.7524 9.1748C10.785 9.21732 10.8081 9.26654 10.82 9.31901C10.8318 9.37149 10.8323 9.42596 10.8212 9.47862" fill="white"/>
</svg>
