<svg width="32" height="32" viewBox="0 0 32 32" fill="none" xmlns="http://www.w3.org/2000/svg">
<path d="M0 12C0 5.37258 5.37258 0 12 0H20C26.6274 0 32 5.37258 32 12V20C32 26.6274 26.6274 32 20 32H12C5.37258 32 0 26.6274 0 20V12Z" fill="#FFCC00"/>
<path d="M24.7079 16.1516L24.5513 16.0585C24.0201 15.5633 23.2815 15.3475 22.2931 15.4029C21.4698 15.4504 20.818 15.7555 20.3185 16.0387C20.3185 16.0308 20.3185 16.0248 20.3185 16.0169C20.3185 15.7753 20.3481 15.5138 20.3757 15.2603C20.4032 15.0028 20.4349 14.7394 20.4349 14.4918C20.4349 14.2443 20.4053 13.9967 20.3101 13.7907C20.2868 13.7372 20.2339 13.7075 20.1683 13.7075C19.9016 13.7135 19.3831 13.8838 19.2561 13.9868L19.1884 14.1274C19.1841 14.4027 19.1185 15.1732 19.0529 15.2663C19.055 15.2623 19.019 15.3593 19.019 15.3593C18.9069 16.4586 18.9048 17.4231 19.0085 18.253C19.0212 18.3362 19.1905 18.461 19.3238 18.5065C19.4677 18.556 19.9206 18.4431 20.181 18.352C20.1767 18.352 20.2783 18.3382 20.2783 18.3382C20.3608 18.3302 20.4095 18.2649 20.4053 18.1777L20.4116 17.9401C20.6 17.2251 21.3619 16.3695 22.2614 16.2407C22.7714 16.1654 23.1735 16.2882 23.491 16.6111C23.5333 16.6685 23.6265 17.1855 23.2921 17.7757C23.0423 18.2134 22.5429 18.5838 21.8847 18.8135C21.2624 19.0353 20.5767 19.1245 19.7323 19.0967C19.6963 19.075 18.9407 18.5956 18.9407 18.5956C18.2698 18.154 17.436 17.6053 16.6804 17.338C16.5471 17.2904 16.3101 17.1043 16.1661 16.9953L16.0878 16.9359C15.6519 16.6091 14.8222 16.0922 14.1577 15.6762C14.1577 15.6762 13.8571 15.4881 13.8 15.4504C13.8 15.4267 13.8 15.3791 13.8 15.3791C13.819 15.3593 14.2381 15.1256 14.2381 15.1256C14.8243 14.8048 15.0952 14.6483 15.1524 14.5671C15.1397 14.581 15.2307 14.5235 15.2307 14.5235C15.237 14.5215 16.6825 13.7551 16.6825 13.7551C18.0772 13.0381 19.6561 12.224 20.4857 11.4219L20.5259 11.2991L20.545 11.1902C20.6 11.0179 20.6021 10.8871 20.5577 10.7346C20.545 10.6911 20.5026 10.6396 20.4455 10.6316C19.7979 10.5702 18.9619 10.9347 18.2021 11.6021C18.0307 11.7527 17.8868 11.8259 17.7344 11.9032L17.618 11.9646C16.7799 12.4102 14.8921 13.5075 13.9016 14.0997C13.9672 13.1054 14.164 11.6893 14.4053 10.5108L14.3778 10.3702L14.2762 10.1919L14.2 10.0652L14.1788 10.0592C13.982 9.96616 13.8212 10.0038 13.7026 10.0315L13.5058 10.0989L13.2413 10.188C13.1884 10.1979 13.1524 10.2276 13.1333 10.2751C12.6614 11.3427 12.2677 13.0995 12.1746 14.5037C11.2307 13.9432 10.3587 13.5392 9.93122 13.3431L9.91852 13.3371L9.86772 13.3272C9.71323 13.3094 9.52698 13.2025 9.34709 13.0995C9.32804 13.0896 8.9873 12.8816 8.9873 12.8816L8.43915 12.5528L8.29524 12.5211C8.06032 12.5588 7.60741 12.844 7.47407 13.0381C7.45714 13.0638 7.44868 13.0916 7.44868 13.1193C7.44868 13.1609 7.46138 13.2005 7.47407 13.2421L7.49735 13.347L7.52275 13.4104C7.78519 13.662 8.44974 14.0819 9.09947 14.4087L9.85291 14.783L11.0063 15.3732L11.2032 15.5198L11.3386 15.5931C11.3386 15.5931 11.3534 15.601 11.364 15.6069C11.0571 15.799 9.26455 16.9181 9.26455 16.9181L8.1619 17.6034C8.0582 17.6707 7.62222 17.8529 7.52487 17.8886C7.28571 17.9797 7.1037 18.1203 7.02963 18.2708L7 18.3302L7.02963 18.3699L7.11429 18.4293L7.22646 18.4986L7.34921 18.5758L7.46349 18.5937C7.6582 18.5996 7.94392 18.4966 8.48148 18.2768C8.9746 18.0728 10.3143 17.3162 10.8878 16.9933L11.1312 16.8567C11.2328 16.8646 11.3429 16.7854 11.4423 16.7141C11.5566 16.6289 11.8063 16.4843 11.9587 16.4209C11.963 16.4209 12.0497 16.3734 12.1323 16.3318C12.1323 16.3556 12.1323 16.3932 12.1323 16.3932C12.1577 18.0332 12.2571 19.2255 12.4497 20.1445V20.1603L12.4709 20.198C12.564 20.3267 12.672 20.7169 12.7672 21.0595L12.9852 21.7448L13.0466 21.8082C13.1714 21.8874 13.5503 22.0241 13.8042 21.9963L13.8677 21.9884L13.9079 21.9052C13.9291 21.8022 13.9376 21.7012 13.9376 21.5903C13.9376 21.4655 13.927 21.3269 13.9164 21.1586L13.8995 20.911C13.819 19.7662 13.7386 18.1124 13.7386 17.0131V16.926C13.9481 17.0468 14.8561 17.5836 14.8561 17.5836C16.4032 18.5224 18.7418 19.9425 20.1534 20.3168C20.2275 20.3366 20.3037 20.3208 20.3587 20.2732C20.3587 20.2712 20.5767 20.1425 20.5767 20.1425L20.6169 20.1267C20.6974 20.091 20.7524 19.9623 20.7608 19.8236C21.9524 19.7682 23.6116 19.3384 24.5005 18.2926C24.8434 17.8866 25 17.3914 25 16.9676C25 16.619 24.8963 16.318 24.7101 16.1536" fill="#7C7266"/>
</svg>
