<svg width="24" height="24" viewBox="0 0 24 24" fill="none" xmlns="http://www.w3.org/2000/svg">
<path d="M0 9C0 4.02944 4.02944 0 9 0H15C19.9706 0 24 4.02944 24 9V15C24 19.9706 19.9706 24 15 24H9C4.02944 24 0 19.9706 0 15V9Z" fill="#F3EDE7"/>
<g clip-path="url(#clip0_16660_157936)">
<path d="M9.63041 8.03703C9.01092 8.1544 8.0924 8.71674 8.09546 9.71079C8.0975 10.614 8.8364 11.1621 8.83742 12.3439C8.8415 13.2338 8.3506 13.8329 7.82092 14.1656C8.03525 14.1462 8.26998 14.134 8.52819 14.134C9.07011 14.1319 9.3967 14.184 9.41711 14.1871L12.1962 10.7773C11.4246 9.62097 10.5234 8.7249 9.63041 8.03601V8.03703Z" fill="#E1002A"/>
<path d="M11.9655 17.2457C12.3155 16.7008 12.3594 15.8343 12.389 14.9494C12.4217 14.1248 12.5931 13.5043 13.6964 13.5012C13.9413 13.5002 14.174 13.5339 14.5955 13.5329C16.2111 13.5257 17.2664 12.9695 17.9226 12.6041C16.5816 11.7489 14.6251 10.8773 12.1972 10.7783C12.039 11.2243 10.8081 14.6453 10.7153 14.9219C10.7296 14.9382 10.9449 15.1801 11.2143 15.6506C11.6113 16.2976 11.8236 16.8457 11.9655 17.2457Z" fill="#E1002A"/>
<path d="M6.0961 14.4514C5.95526 14.4514 5.88586 14.3586 5.86647 14.1973C5.8481 14.0361 5.15411 7.67886 5.05001 6.71645C5.0347 6.57459 5 6.3174 5 6.22555C5 6.07757 5.09593 6 5.21024 6C5.53989 5.99898 7.33407 6.41946 9.23848 7.75336C8.6894 7.90849 7.6974 8.479 7.70148 9.66083C7.70556 10.7069 8.45365 11.2815 8.45773 12.3307C8.46385 14.0371 6.5023 14.4504 6.0961 14.4504V14.4514Z" fill="#EE7501"/>
<path d="M12.1247 17.6989C12.1543 17.7775 12.1829 17.8448 12.2114 17.8918C12.2553 17.9663 12.3125 18 12.3819 18C12.4257 18 12.4798 17.9847 12.5401 17.9571C12.687 17.8897 18.489 15.1883 19.3647 14.7851C19.4912 14.7239 19.7321 14.6167 19.8117 14.5698C19.8933 14.5239 19.9311 14.4555 19.9311 14.3851C19.9311 14.3463 19.9199 14.3065 19.8974 14.2708C19.7882 14.0942 19.2269 13.4982 18.288 12.847C17.5429 13.2573 16.3785 13.8921 14.6476 13.8993C14.224 13.8993 14.1281 13.8717 13.8382 13.8727C12.9932 13.8758 12.7819 14.2371 12.7513 14.978C12.7462 15.1178 12.7432 15.3066 12.735 15.5128C12.7085 16.1752 12.6299 17.0886 12.1237 17.6989H12.1247Z" fill="#EE7501"/>
</g>
<defs>
<clipPath id="clip0_16660_157936">
<rect width="14.9301" height="12" fill="white" transform="translate(5 6)"/>
</clipPath>
</defs>
</svg>
