<svg width="24" height="24" viewBox="0 0 24 24" fill="none" xmlns="http://www.w3.org/2000/svg">
<path d="M0 9C0 4.02944 4.02944 0 9 0H15C19.9706 0 24 4.02944 24 9V15C24 19.9706 19.9706 24 15 24H9C4.02944 24 0 19.9706 0 15V9Z" fill="#CE5439"/>
<path d="M7.50609 11.2357C7.12135 11.2357 6.84619 11.3623 6.62216 11.6838C6.47849 11.4025 6.18628 11.2357 5.77841 11.2357C5.46794 11.2357 5.10146 11.3964 4.95779 11.6485V11.3209H4.125V14.1748H4.99797V12.5324C4.99797 12.2743 5.16477 12.0381 5.46916 12.0381C5.77354 12.0381 5.92817 12.2511 5.92817 12.5202V14.1736H6.78896V12.5263C6.78896 12.2743 6.95576 12.0381 7.26502 12.0381C7.57427 12.0381 7.71794 12.2511 7.71794 12.5202V14.1736H8.56169V12.3254C8.56169 11.5498 8.04545 11.2345 7.50487 11.2345L7.50609 11.2357Z" fill="white"/>
<path d="M12.876 11.7058V11.3211H12.0322V14.175H12.9052V12.9295C12.9052 12.3609 13.2205 12.1539 13.5712 12.1539C13.6576 12.1539 13.7489 12.16 13.8464 12.1831V11.3223C13.7891 11.3053 13.7027 11.2931 13.6162 11.2931C13.3861 11.2931 13.0245 11.3844 12.876 11.7071V11.7058Z" fill="white"/>
<path d="M15.0175 11.3209H14.1445V14.1748H15.0175V11.3209Z" fill="white"/>
<path d="M16.5975 10.4896H15.8171V10.8573C15.8171 11.1215 15.6734 11.3224 15.3751 11.3224H15.2314V12.0858H15.7367V13.3082C15.7367 13.8768 16.0983 14.2262 16.69 14.2262C16.9652 14.2262 17.1089 14.1629 17.1442 14.1459V13.4227C17.0918 13.4336 17.0066 13.4507 16.9141 13.4507C16.7241 13.4507 16.5987 13.3874 16.5987 13.1524V12.0846H17.1551V11.3212H16.5987V10.4896H16.5975Z" fill="white"/>
<path d="M14.575 9.72131C14.2718 9.72131 14.0186 9.97456 14.0186 10.2838C14.0186 10.5931 14.2718 10.8463 14.575 10.8463C14.8781 10.8463 15.1436 10.5931 15.1436 10.2838C15.1436 9.97456 14.8903 9.72131 14.575 9.72131Z" fill="white"/>
<path d="M10.2867 11.2191C9.53793 11.2191 8.84637 11.8108 8.84637 12.7398C8.84637 13.6688 9.55498 14.2788 10.35 14.2788C11.0038 14.2788 11.4397 13.944 11.6236 13.5166L10.9016 13.2427C10.8066 13.418 10.6361 13.53 10.361 13.53C10.0189 13.53 9.723 13.2974 9.70474 12.9724H11.7137C11.7198 12.9553 11.7307 12.8214 11.7307 12.6996C11.7307 11.7707 11.1792 11.2191 10.2855 11.2191H10.2867ZM9.72422 12.4038C9.74126 12.1895 9.92754 11.9155 10.2989 11.9155C10.7165 11.9155 10.8675 12.1822 10.8797 12.4038H9.72422Z" fill="white"/>
<path d="M18.549 13.4114L19.8518 12.0393V11.3209H17.5154V12.0685V12.0855H18.7219L17.4813 13.4053V14.1748H19.8749V13.4224V13.4114H18.549Z" fill="white"/>
</svg>
