<svg width="32" height="32" viewBox="0 0 32 32" fill="none" xmlns="http://www.w3.org/2000/svg">
<path d="M0 12C0 5.37258 5.37258 0 12 0H20C26.6274 0 32 5.37258 32 12V20C32 26.6274 26.6274 32 20 32H12C5.37258 32 0 26.6274 0 20V12Z" fill="#013775"/>
<g clip-path="url(#clip0_13996_7905)">
<path d="M17.9114 17.3814C18.4871 17.3814 18.8068 17.463 18.8157 17.8475C18.8194 18.0591 18.6758 18.3062 18.5192 18.4269C18.1678 18.6986 17.8583 18.728 16.2064 18.728H8.05756L9.63158 12.1527H6.90908C6.7273 12.1527 6.65879 12.2053 6.60472 12.4216L5.1118 18.5835C4.83074 19.8084 5.4623 20.9289 6.87413 20.9289H10.6123C11.5594 20.9289 12.8262 19.8956 13.3404 18.9405C13.3688 18.8878 13.387 18.8543 13.4079 18.8105C13.4079 18.8105 13.4187 18.7974 13.4219 18.8165C13.4219 18.8175 13.4224 18.8175 13.4224 18.8175C13.3404 19.16 13.0542 20.3733 13.0076 20.5714C12.947 20.8296 13.0817 20.9275 13.2057 20.9275H17.2276C20.6376 20.9275 21.9693 19.3041 22.0868 17.3567C22.1515 16.2618 21.4589 15.5538 19.4999 15.5538H17.9948C17.4602 15.5538 16.9121 15.3776 16.9121 14.9437C16.9121 14.5098 17.5073 14.1308 18.3155 14.1308H21.9777C21.9777 14.1308 22.2979 12.849 22.3613 12.5801C22.4405 12.2426 22.3394 12.1443 22.0923 12.1443H17.5656C14.9368 12.1443 13.7566 13.9038 13.7566 15.1576C13.7566 16.4114 14.768 17.38 17.3777 17.38L17.9123 17.3819L17.9114 17.3814Z" fill="white"/>
<path d="M19.6904 11.0593H26.9765L23.2286 12.9839C23.2286 12.9839 23.3796 12.3537 23.4253 12.1659C23.4719 11.9664 23.409 11.8158 23.1265 11.7589C22.8459 11.7021 19.6904 11.0593 19.6904 11.0593Z" fill="#EC164A"/>
</g>
<defs>
<clipPath id="clip0_13996_7905">
<rect width="22" height="9.88136" fill="white" transform="translate(5 11.0593)"/>
</clipPath>
</defs>
</svg>
