<svg width="33" height="32" viewBox="0 0 33 32" fill="none" xmlns="http://www.w3.org/2000/svg">
<path d="M0.5 12C0.5 5.37258 5.87258 0 12.5 0H20.5C27.1274 0 32.5 5.37258 32.5 12V20C32.5 26.6274 27.1274 32 20.5 32H12.5C5.87258 32 0.5 26.6274 0.5 20V12Z" fill="#E2E8EF"/>
<g clip-path="url(#clip0_13996_3101)">
<path d="M21.4911 23.5523L16.9696 16.8124H14.1536V11.4373H10.7129V23.5523H14.1536V18.7624L17.3672 23.5523H21.4911Z" fill="#001E5A"/>
<path d="M22.609 17.7821L24.713 6.4104L13.7446 10.0767C13.7446 10.0767 15.837 10.587 17.7854 11.7567L13.3684 16.838L15.9654 19.0958L20.3824 14.0146C21.8114 15.7819 22.6082 17.7829 22.6082 17.7829L22.609 17.7821Z" fill="#D50982"/>
</g>
<defs>
<clipPath id="clip0_13996_3101">
<rect width="14" height="17.1419" fill="white" transform="translate(10.7129 6.4104)"/>
</clipPath>
</defs>
</svg>
