<svg width="24" height="24" viewBox="0 0 24 24" fill="none" xmlns="http://www.w3.org/2000/svg">
<path d="M3 1.5C3 0.671573 3.67157 0 4.5 0H19.5C20.3284 0 21 0.671573 21 1.5V22.5C21 23.3284 20.3284 24 19.5 24H4.5C3.67157 24 3 23.3284 3 22.5V1.5Z" fill="#003CDC"/>
<path d="M9.32187 9.03292L9.76318 8.44731C9.43555 8.2932 9.10121 8.059 8.85549 7.74447C8.60951 7.44256 8.4457 7.0727 8.4457 6.63488V6.12935H7.62611V6.64726C7.62611 7.09114 7.4685 7.48552 7.21632 7.82456C6.96414 8.16991 6.62981 8.441 6.27686 8.63831L6.76856 9.19941C7.05226 9.03292 7.32951 8.82324 7.55662 8.58297C7.77752 8.35484 7.95375 8.10196 8.06097 7.86169C8.31961 8.33009 8.71674 8.71233 9.32187 9.03292ZM10.936 7.94154H11.8501V7.29452H10.9357V6H10.1539V9.25474H10.9357L10.936 7.94154ZM7.62611 11.8377H10.9357V9.47681H7.62611V11.8377ZM10.1541 10.1241V11.1968H8.40152V10.1241H10.1541ZM15.0716 9.13146L15.5129 8.53346C15.1788 8.36722 14.8447 8.14515 14.6114 7.84931C14.3657 7.55954 14.2143 7.20205 14.2143 6.73973V6.12935H13.3821V6.75235C13.3821 7.17147 13.2371 7.54134 13.0038 7.86193C12.7705 8.1886 12.4237 8.47206 12.0393 8.71864L12.5245 9.29212C12.8273 9.11325 13.0984 8.87906 13.3252 8.65092C13.5461 8.42279 13.7161 8.18253 13.8107 7.96047C13.9115 8.15777 14.0818 8.37353 14.3024 8.5769C14.5233 8.7929 14.7941 8.98366 15.0716 9.13146ZM16.156 9.28556H16.9379V6H16.156V7.02319H15.0527V7.70127H16.156V9.28556ZM16.8431 10.5677C16.8431 10.1733 16.6792 9.84036 16.4082 9.60009C16.1307 9.35959 15.7462 9.21785 15.2923 9.21785C14.8383 9.21785 14.46 9.35959 14.189 9.60009C13.9115 9.84036 13.7539 10.1733 13.7539 10.5677C13.7539 10.9808 13.9115 11.3137 14.189 11.554C14.46 11.7821 14.8383 11.9178 15.2923 11.9178C15.7462 11.9178 16.1307 11.7821 16.4082 11.554C16.6792 11.3137 16.8431 10.9808 16.8431 10.5677ZM16.0741 10.5677C16.0741 10.9931 15.7462 11.2766 15.2923 11.2766C14.8383 11.2766 14.5231 10.9931 14.5231 10.5679C14.5231 10.1486 14.8383 9.86511 15.2923 9.86511C15.5191 9.86511 15.7083 9.93913 15.8532 10.0624C15.9232 10.1276 15.9788 10.206 16.0168 10.2929C16.0548 10.3797 16.0743 10.4732 16.0741 10.5677Z" fill="white"/>
<path d="M7.03986 16.2867L7.48738 16.8845C8.26302 16.5146 8.90588 16.0586 9.35985 15.4482C9.81383 14.8502 10.0722 14.0921 10.0913 13.1305H7.47496V13.7778H9.29681C9.27764 13.9785 9.23755 14.1767 9.17717 14.3695L7.23519 14.4435L7.36774 15.1153L8.84929 14.9983C8.77359 15.1092 8.67902 15.2077 8.58445 15.3065C8.18732 15.7069 7.65119 16.0154 7.03986 16.2867ZM11.4153 15.1216H12.3294V14.4804H11.4153V12.8284H10.6272V18.0001H11.4153V15.1216ZM16.9632 15.7564V15.1092H14.1639V13.7346H16.9314V13.0934H13.3821V15.7564H16.9632ZM12.5687 17.4024H17.7257V16.7673H12.5689L12.5687 17.4024Z" fill="white"/>
</svg>
