<svg width="24" height="24" viewBox="0 0 24 24" fill="none" xmlns="http://www.w3.org/2000/svg">
<path d="M0 9C0 4.02944 4.02944 0 9 0H15C19.9706 0 24 4.02944 24 9V15C24 19.9706 19.9706 24 15 24H9C4.02944 24 0 19.9706 0 15V9Z" fill="#202020"/>
<path d="M14.5223 9.38477C13.3198 9.38477 12.342 10.3626 12.342 11.565C12.342 12.7674 13.3198 13.7452 14.5223 13.7452C15.7247 13.7452 16.7025 12.7674 16.7025 11.565C16.7025 10.3626 15.7247 9.38477 14.5223 9.38477ZM14.5223 13.1006C13.7141 13.1006 13.0574 12.4109 13.0574 11.5638C13.0574 10.7166 13.7141 10.0269 14.5223 10.0269C15.3304 10.0269 15.9871 10.7166 15.9871 11.5638C15.9871 12.4109 15.3304 13.1006 14.5223 13.1006Z" fill="white"/>
<path d="M5.44229 9.61011H3.50012V9.67725C3.78211 9.94703 3.81507 10.2327 3.81507 10.7234V13.5811C3.81507 13.6153 3.84192 13.6422 3.8761 13.6422H5.44229C6.99872 13.6422 7.70674 12.6216 7.70674 11.6231C7.70674 10.6245 6.99872 9.61011 5.44229 9.61011ZM5.25308 13.1612H4.56459V10.0923H5.25308C6.39202 10.0923 6.91204 10.6721 6.91204 11.6182C6.91204 12.5643 6.3908 13.1612 5.25308 13.1612Z" fill="white"/>
<path d="M18.249 13.16V9.61011H17.1846V9.67725C17.4666 9.94703 17.4995 10.2327 17.4995 10.7234V13.5811C17.4995 13.6153 17.5264 13.6422 17.5606 13.6422H20.5001V13.1588H18.249V13.16Z" fill="white"/>
<path d="M10.2317 9.5686V9.5625H10.2293H9.27956V9.62842C9.46145 9.72364 9.57864 9.95801 9.47244 10.2205L7.86963 13.6434H8.42262C8.44581 13.6434 8.46778 13.63 8.47755 13.608L8.86086 12.7901H10.9129L11.2962 13.608C11.306 13.63 11.3279 13.6434 11.3511 13.6434H12.1422L10.2317 9.5686ZM9.08425 12.3091L9.88504 10.6001L10.6858 12.3091H9.08425Z" fill="white"/>
</svg>
