<svg width="24" height="24" viewBox="0 0 24 24" fill="none" xmlns="http://www.w3.org/2000/svg">
<path d="M0 9C0 4.02944 4.02944 0 9 0H15C19.9706 0 24 4.02944 24 9V15C24 19.9706 19.9706 24 15 24H9C4.02944 24 0 19.9706 0 15V9Z" fill="#E2E8EF"/>
<g clip-path="url(#clip0_23315_219456)">
<path d="M11.97 17.8421C15.1279 15.1353 19.564 12.5038 22.0001 11.5564C21.6241 11.3158 21.0377 10.9699 20.376 10.594C17.2331 11.6316 13.564 13.9323 10.2858 16.5338C10.8422 16.9549 11.4286 17.391 11.97 17.8421Z" fill="#E31837"/>
<path d="M10.5263 10.4889C10.0602 10.2633 9.54889 10.0528 9.15791 9.87231C7.96994 10.4588 6.42107 11.346 4.46619 12.7445C4.88724 12.9701 5.33837 13.2407 5.81957 13.5114C7.32333 12.3986 8.84212 11.346 10.5263 10.4889Z" fill="#012169"/>
<path d="M13.3384 9.19557C12.767 8.87978 10.782 8.14294 9.41358 7.82715C9.00757 7.97752 8.43614 8.20309 8.04517 8.3685C8.54141 8.50384 10.391 9.00008 11.97 9.79707C12.376 9.60158 12.9474 9.36098 13.3384 9.19557Z" fill="#E31837"/>
<path d="M6.61654 9C4.85714 9.81203 3.00752 10.9248 2 11.5714C2.3609 11.7368 2.7218 11.8722 3.21804 12.1128C5.44361 10.609 7.18797 9.69173 7.8797 9.39098C7.38345 9.21053 6.91729 9.09023 6.61654 9Z" fill="#012169"/>
<path d="M14.6617 8.72932C15.0677 8.59398 15.5339 8.47368 15.9399 8.35338C14.767 7.85714 13.2933 7.33083 11.97 7C11.7594 7.06015 11.1279 7.22556 10.6918 7.3609C11.1429 7.49624 12.6316 7.84211 14.6617 8.72932ZM7.24817 14.3835C7.72937 14.6692 8.24064 15.0602 8.73689 15.391C12.0301 12.8346 15.2782 10.8647 18.8422 9.75188C18.3459 9.49624 17.9098 9.27068 17.3534 9C15.2181 9.54135 11.564 11 7.24817 14.3835Z" fill="#E31837"/>
</g>
<defs>
<clipPath id="clip0_23315_219456">
<rect width="20" height="11" fill="white" transform="translate(2 7)"/>
</clipPath>
</defs>
</svg>
