<svg width="24" height="24" viewBox="0 0 24 24" fill="none" xmlns="http://www.w3.org/2000/svg">
<path d="M3 1.5C3 0.671573 3.67157 0 4.5 0H19.5C20.3284 0 21 0.671573 21 1.5V22.5C21 23.3284 20.3284 24 19.5 24H4.5C3.67157 24 3 23.3284 3 22.5V1.5Z" fill="black"/>
<path fill-rule="evenodd" clip-rule="evenodd" d="M5.70001 11.25C5.70001 10.5873 6.25717 10.05 6.94446 10.05H17.0556C17.7429 10.05 18.3 10.5873 18.3 11.25V14.25H17.3667V11.25C17.3667 11.0844 17.2274 10.95 17.0556 10.95H6.94446C6.77263 10.95 6.63335 11.0844 6.63335 11.25V14.25H5.70001V11.25Z" fill="white"/>
</svg>
