<svg width="32" height="32" viewBox="0 0 32 32" fill="none" xmlns="http://www.w3.org/2000/svg">
<path d="M4 2C4 0.895431 4.89543 0 6 0H26C27.1046 0 28 0.895431 28 2V30C28 31.1046 27.1046 32 26 32H6C4.89543 32 4 31.1046 4 30V2Z" fill="#005BAC"/>
<path d="M19.2248 13.6706L19.1903 13.6427L20.754 13.0099V10.8882L18.0396 12.0036C18.0396 12.0036 16.5674 14.6892 16.5345 14.7504C17.113 14.8161 17.6436 15.0924 18.0177 15.5228C18.3919 15.9532 18.5812 16.5052 18.5471 17.0658C18.513 17.6263 18.2579 18.1531 17.8341 18.5384C17.4103 18.9236 16.8498 19.1382 16.2673 19.1382C15.6848 19.1382 15.1243 18.9236 14.7005 18.5384C14.2766 18.1531 14.0216 17.6263 13.9875 17.0658C13.9533 16.5052 14.1427 15.9532 14.5168 15.5228C14.891 15.0924 15.4216 14.8161 16.0001 14.7504L14.4982 12.0036L11.7846 10.8882V13.006L13.3451 13.6388L13.3129 13.6706C12.6221 14.2509 12.1315 15.0207 11.9068 15.877C11.682 16.7333 11.7338 17.6354 12.0552 18.4626C12.3766 19.2898 12.9524 20.0027 13.7054 20.5059C14.4585 21.0092 15.353 21.2789 16.2693 21.2789C17.1856 21.2789 18.0801 21.0092 18.8332 20.5059C19.5862 20.0027 20.1619 19.2898 20.4834 18.4626C20.8048 17.6354 20.8566 16.7333 20.6318 15.877C20.4071 15.0207 19.9165 14.2509 19.2256 13.6706" fill="#FABE00"/>
</svg>
