<svg width="24" height="24" viewBox="0 0 24 24" fill="none" xmlns="http://www.w3.org/2000/svg">
<path d="M0 9C0 4.02944 4.02944 0 9 0H15C19.9706 0 24 4.02944 24 9V15C24 19.9706 19.9706 24 15 24H9C4.02944 24 0 19.9706 0 15V9Z" fill="#C1152F"/>
<path d="M18.6863 10.5964H19.0778C19.0896 10.5964 19.1009 10.5918 19.1094 10.5835C19.1178 10.5752 19.1226 10.5639 19.1228 10.5521V9.85689C19.1224 9.84535 19.1176 9.83439 19.1094 9.82629C19.1011 9.8182 19.0901 9.81358 19.0786 9.81339H18.528C18.2951 9.77643 18.0565 9.81467 17.8467 9.92256C17.637 10.0305 17.4672 10.2024 17.3618 10.4134L16.1618 13.1734C16.1347 13.2512 16.0821 13.3175 16.0125 13.3616C15.9429 13.4057 15.8605 13.425 15.7786 13.4164V9.85689C15.7782 9.84547 15.7735 9.83462 15.7654 9.82655C15.7573 9.81847 15.7465 9.81377 15.7351 9.81339H14.8553C14.8494 9.81319 14.8435 9.81416 14.838 9.81624C14.8324 9.81831 14.8274 9.82146 14.823 9.8255C14.8187 9.82954 14.8152 9.83439 14.8128 9.83978C14.8104 9.84517 14.809 9.85098 14.8088 9.85689V14.1199C14.81 14.1406 14.8192 14.16 14.8344 14.174C14.8497 14.188 14.8699 14.1955 14.8906 14.1949H15.8768C16.5136 14.1949 16.8038 14.0036 16.9966 13.5949L18.1778 10.8701C18.2209 10.7749 18.2938 10.6963 18.3856 10.6462C18.4773 10.5961 18.5829 10.5773 18.6863 10.5926" fill="white"/>
<path d="M7.93744 12.005C8.13311 11.934 8.3011 11.8025 8.41706 11.6296C8.53302 11.4568 8.59095 11.2515 8.58244 11.0435C8.58244 10.2778 7.88419 9.8135 7.04344 9.8135H4.4432C4.43729 9.8133 4.4314 9.81427 4.42586 9.81635C4.42032 9.81843 4.41525 9.82157 4.41093 9.82561C4.40661 9.82965 4.40313 9.83451 4.40069 9.83989C4.39825 9.84528 4.39689 9.85109 4.3967 9.857V10.5522C4.39689 10.5582 4.39825 10.564 4.40069 10.5694C4.40313 10.5747 4.40661 10.5796 4.41093 10.5836C4.41525 10.5877 4.42032 10.5908 4.42586 10.5929C4.4314 10.595 4.43729 10.596 4.4432 10.5957H6.86269C7.25344 10.5957 7.51744 10.8207 7.51744 11.0967C7.51744 11.3727 7.25344 11.5977 6.86269 11.5977H5.4257V11.0817C5.4255 11.0758 5.42415 11.07 5.4217 11.0646C5.41926 11.0593 5.41578 11.0544 5.41146 11.0504C5.40714 11.0463 5.40207 11.0432 5.39653 11.0411C5.391 11.039 5.38511 11.038 5.3792 11.0382H4.4432C4.43729 11.038 4.4314 11.039 4.42586 11.0411C4.42032 11.0432 4.41525 11.0463 4.41093 11.0504C4.40661 11.0544 4.40313 11.0593 4.40069 11.0646C4.39825 11.07 4.39689 11.0758 4.3967 11.0817V14.1567C4.39689 14.1626 4.39825 14.1685 4.40069 14.1738C4.40313 14.1792 4.40661 14.1841 4.41093 14.1881C4.41525 14.1922 4.42032 14.1953 4.42586 14.1974C4.4314 14.1995 4.43729 14.2004 4.4432 14.2002H7.00519C7.96294 14.2002 8.64919 13.7795 8.64919 12.9252C8.6477 12.7158 8.57715 12.5126 8.44846 12.3473C8.31978 12.182 8.14015 12.0638 7.93744 12.011M6.91294 13.436H5.4257V12.4055H6.91294C7.31344 12.4055 7.58794 12.6357 7.58794 12.9192C7.58794 13.2027 7.31719 13.433 6.91294 13.433" fill="white"/>
<path d="M19.596 14.1467L18.0885 12.3317C18.0879 12.3305 18.0869 12.3294 18.0857 12.3287C18.0845 12.3279 18.0832 12.3275 18.0817 12.3275C18.0803 12.3275 18.079 12.3279 18.0778 12.3287C18.0766 12.3294 18.0756 12.3305 18.075 12.3317L17.6693 13.2662C17.6676 13.269 17.6667 13.2721 17.6667 13.2752C17.6667 13.2784 17.6676 13.2815 17.6693 13.2842L18.3285 14.1152C18.3492 14.1425 18.3764 14.1641 18.4075 14.1781C18.4387 14.1921 18.4729 14.1981 18.507 14.1955H19.5698C19.5759 14.1962 19.582 14.1951 19.5875 14.1922C19.5929 14.1893 19.5973 14.1848 19.6001 14.1793C19.6028 14.1738 19.6039 14.1676 19.603 14.1615C19.6022 14.1554 19.5994 14.1497 19.5952 14.1452" fill="white"/>
<path d="M10.2998 11.0381H9.41927C9.41336 11.0379 9.40747 11.0389 9.40193 11.041C9.3964 11.043 9.39132 11.0462 9.387 11.0502C9.38268 11.0543 9.37921 11.0591 9.37677 11.0645C9.37432 11.0699 9.37297 11.0757 9.37277 11.0816V14.1566C9.37297 14.1625 9.37432 14.1683 9.37677 14.1737C9.37921 14.1791 9.38268 14.1839 9.387 14.188C9.39132 14.192 9.3964 14.1952 9.40193 14.1973C9.40747 14.1993 9.41336 14.2003 9.41927 14.2001H10.2998C10.3057 14.2003 10.3116 14.1993 10.3171 14.1973C10.3226 14.1952 10.3277 14.192 10.332 14.188C10.3364 14.1839 10.3398 14.1791 10.3423 14.1737C10.3447 14.1683 10.3461 14.1625 10.3463 14.1566V11.0816C10.3457 11.0697 10.3405 11.0586 10.3318 11.0504C10.3231 11.0423 10.3117 11.0379 10.2998 11.0381Z" fill="white"/>
<path d="M13.9215 9.81339H13.0418C13.03 9.81319 13.0185 9.81763 13.01 9.82577C13.0014 9.83391 12.9964 9.84509 12.996 9.85689V13.4134C12.9141 13.422 12.8316 13.4027 12.7621 13.3586C12.6925 13.3145 12.6399 13.2482 12.6128 13.1704L11.415 10.4134C11.3097 10.2024 11.1398 10.0305 10.9301 9.92256C10.7204 9.81467 10.4817 9.77643 10.2488 9.81339H9.41927C9.41336 9.81319 9.40747 9.81416 9.40193 9.81624C9.3964 9.81831 9.39132 9.82146 9.387 9.8255C9.38268 9.82954 9.37921 9.83439 9.37677 9.83978C9.37432 9.84517 9.37297 9.85098 9.37277 9.85689V10.5521C9.37297 10.558 9.37432 10.5639 9.37677 10.5692C9.37921 10.5746 9.38268 10.5795 9.387 10.5835C9.39132 10.5876 9.3964 10.5907 9.40193 10.5928C9.40747 10.5949 9.41336 10.5958 9.41927 10.5956H10.0898C10.1932 10.5804 10.2987 10.5993 10.3904 10.6494C10.4821 10.6994 10.5551 10.778 10.5983 10.8731L11.7773 13.5986C11.97 14.0059 12.2603 14.1986 12.897 14.1986H13.8833C13.904 14.1992 13.9241 14.1918 13.9394 14.1777C13.9546 14.1637 13.9639 14.1443 13.965 14.1236V9.85689C13.9646 9.84547 13.9599 9.83462 13.9519 9.82655C13.9438 9.81847 13.9329 9.81377 13.9215 9.81339Z" fill="white"/>
</svg>
