<svg width="24" height="24" viewBox="0 0 24 24" fill="none" xmlns="http://www.w3.org/2000/svg">
<path d="M0 9C0 4.02944 4.02944 0 9 0H15C19.9706 0 24 4.02944 24 9V15C24 19.9706 19.9706 24 15 24H9C4.02944 24 0 19.9706 0 15V9Z" fill="#E2E8EF"/>
<g clip-path="url(#clip0_23311_20787)">
<path d="M5.61686 11.0309C5.61686 9.51983 5.61686 9.24152 5.59554 8.92322C5.57396 8.58528 5.48738 8.42625 5.13133 8.35643C5.04475 8.3368 4.86159 8.32661 4.71028 8.32661C4.59159 8.32661 4.52686 8.30674 4.52686 8.23716C4.52686 8.16758 4.60264 8.14771 4.76449 8.14771C5.33633 8.14771 6.01633 8.17777 6.31843 8.17777C6.65291 8.17777 7.33291 8.14771 7.98028 8.14771C9.32949 8.14771 11.1321 8.1477 12.3082 9.28128C12.8479 9.79837 13.3553 10.6233 13.3553 11.8066C13.3553 13.0595 12.7832 14.0136 12.1787 14.5807C11.6824 15.0478 10.56 15.7538 8.56317 15.7538C8.17449 15.7538 7.73212 15.7237 7.32212 15.6941C6.91212 15.6643 6.53422 15.6345 6.26449 15.6345C6.1458 15.6345 5.90817 15.6345 5.64949 15.6444C5.40133 15.6444 5.12054 15.6643 4.90475 15.6643C4.76449 15.6643 4.68922 15.6345 4.68922 15.5647C4.68922 15.5152 4.73212 15.4854 4.86186 15.4854C5.0237 15.4854 5.15291 15.4655 5.25054 15.4456C5.46607 15.4059 5.52028 15.1872 5.56317 14.8987C5.61712 14.481 5.61712 13.6958 5.61712 12.7809L5.61686 11.0309ZM6.96607 12.1247C6.96607 13.1785 6.97686 13.9441 6.98764 14.1332C6.99843 14.3816 7.02001 14.7792 7.10659 14.8886C7.24659 15.0774 7.66764 15.2864 8.52054 15.2864C9.62133 15.2864 10.3553 15.0876 11.0026 14.5705C11.6934 14.0238 11.9092 13.1189 11.9092 12.0951C11.9092 10.8326 11.3374 10.017 10.8732 9.60952C9.88028 8.73461 8.65001 8.61534 7.80817 8.61534C7.59212 8.61534 7.19291 8.64516 7.10686 8.68492C7.00975 8.72467 6.97712 8.77437 6.97712 8.88371C6.96633 9.22189 6.96633 10.0866 6.96633 10.8721L6.96607 12.1247Z" fill="#1D1D1B"/>
<path d="M15.1269 15.5448C14.9542 15.475 14.9219 15.4255 14.9219 15.2066C14.9219 14.6597 14.9653 14.0631 14.9758 13.9041C14.9866 13.755 15.019 13.6456 15.1053 13.6456C15.2024 13.6456 15.2135 13.7351 15.2135 13.8146C15.2135 13.9438 15.2563 14.153 15.3106 14.3218C15.5477 15.0575 16.1845 15.3261 16.8537 15.3261C17.825 15.3261 18.3 14.7196 18.3 14.1925C18.3 13.7053 18.1382 13.2481 17.2424 12.6018L16.7458 12.2437C15.5587 11.3887 15.1487 10.6927 15.1487 9.88757C15.1487 8.79376 16.1416 8.0083 17.6419 8.0083C18.3435 8.0083 18.7969 8.10769 19.0774 8.17751C19.1745 8.19739 19.2285 8.22721 19.2285 8.29679C19.2285 8.426 19.185 8.71424 19.185 9.48976C19.185 9.70866 19.1527 9.78794 19.0666 9.78794C18.9908 9.78794 18.9585 9.72806 18.9585 9.60903C18.9585 9.51957 18.9045 9.21145 18.6779 8.95279C18.5161 8.76394 18.2029 8.46551 17.5013 8.46551C16.7029 8.46551 16.2171 8.89315 16.2171 9.48976C16.2171 9.94697 16.4653 10.2951 17.3611 10.9215L17.6632 11.1302C18.9692 12.035 19.4335 12.721 19.4335 13.6655C19.4335 14.2422 19.1961 14.9281 18.419 15.3955C17.8792 15.7138 17.2748 15.8032 16.7029 15.8032C16.0769 15.8032 15.5911 15.7336 15.1269 15.5448Z" fill="#1D1D1B"/>
</g>
<defs>
<clipPath id="clip0_23311_20787">
<rect width="15" height="8" fill="white" transform="translate(4.5 8)"/>
</clipPath>
</defs>
</svg>
