<svg width="24" height="24" viewBox="0 0 24 24" fill="none" xmlns="http://www.w3.org/2000/svg">
<path d="M0 9C0 4.02944 4.02944 0 9 0H15C19.9706 0 24 4.02944 24 9V15C24 19.9706 19.9706 24 15 24H9C4.02944 24 0 19.9706 0 15V9Z" fill="#F1F2F4"/>
<path d="M9.93941 15.1112C9.00912 15.1112 8.25495 14.3571 8.25495 13.4268C8.25495 12.9859 8.42478 12.5839 8.70217 12.2839C8.4122 11.7511 8.24741 11.141 8.24741 10.4919C8.24741 10.3912 8.25118 10.2918 8.25936 10.1937C6.86046 10.702 5.86224 12.043 5.86224 13.6174C5.86224 15.6289 7.49324 17.2599 9.50477 17.2599C10.1489 17.2599 10.754 17.0926 11.2792 16.7988V14.4476C10.9716 14.8508 10.486 15.1112 9.93941 15.1112Z" fill="url(#paint0_linear_10248_2535)"/>
<path d="M9.94054 11.7424C10.1305 11.7424 10.3135 11.7739 10.484 11.8317C10.2947 11.5449 10.184 11.2015 10.184 10.8323C10.184 9.82963 10.9966 9.01634 11.9999 9.01634C12.732 9.01634 13.3623 9.44909 13.6497 10.0731C13.9208 10.0089 14.2033 9.9743 14.4939 9.9743C14.9316 9.9743 15.3512 10.0517 15.7399 10.1932C15.5877 8.26091 13.9718 6.73999 11.9999 6.73999C9.92796 6.73999 8.24854 8.41942 8.24854 10.4913C8.24854 11.1405 8.41333 11.7512 8.7033 12.2834C9.01088 11.9506 9.45118 11.7424 9.94054 11.7424Z" fill="url(#paint1_linear_10248_2535)"/>
<path d="M14.4951 9.97426C14.2045 9.97426 13.9215 10.0082 13.651 10.073C13.7573 10.3039 13.817 10.5611 13.817 10.8322C13.817 11.2014 13.707 11.5449 13.5176 11.8317C13.6881 11.7738 13.8705 11.7424 14.0605 11.7424C14.9908 11.7424 15.7449 12.4965 15.7449 13.4262C15.7449 14.3559 14.9908 15.1107 14.0605 15.1107C13.5139 15.1107 13.0283 14.8509 12.7207 14.4477V16.7983C13.2459 17.092 13.851 17.2593 14.4951 17.2593C16.5066 17.2593 18.1376 15.6283 18.1376 13.6168C18.1376 11.6053 16.5066 9.97363 14.4951 9.97363V9.97426Z" fill="url(#paint2_linear_10248_2535)"/>
<defs>
<linearGradient id="paint0_linear_10248_2535" x1="9.11794" y1="17.2976" x2="7.86435" y2="10.1868" gradientUnits="userSpaceOnUse">
<stop offset="0.15" stop-color="#54C3F1"/>
<stop offset="0.3" stop-color="#4EBDED"/>
<stop offset="0.5" stop-color="#3FACE2"/>
<stop offset="0.73" stop-color="#2691D1"/>
<stop offset="0.97" stop-color="#036CB9"/>
<stop offset="1" stop-color="#0068B7"/>
</linearGradient>
<linearGradient id="paint1_linear_10248_2535" x1="8.0026" y1="10.4813" x2="15.0556" y2="7.91433" gradientUnits="userSpaceOnUse">
<stop offset="0.15" stop-color="#54C3F1"/>
<stop offset="0.3" stop-color="#4EBDED"/>
<stop offset="0.5" stop-color="#3FACE2"/>
<stop offset="0.73" stop-color="#2691D1"/>
<stop offset="0.97" stop-color="#036CB9"/>
<stop offset="1" stop-color="#0068B7"/>
</linearGradient>
<linearGradient id="paint2_linear_10248_2535" x1="16.1154" y1="10.3013" x2="14.8656" y2="17.3889" gradientUnits="userSpaceOnUse">
<stop offset="0.15" stop-color="#54C3F1"/>
<stop offset="0.3" stop-color="#4EBDED"/>
<stop offset="0.5" stop-color="#3FACE2"/>
<stop offset="0.73" stop-color="#2691D1"/>
<stop offset="0.97" stop-color="#036CB9"/>
<stop offset="1" stop-color="#0068B7"/>
</linearGradient>
</defs>
</svg>
