<svg width="32" height="32" viewBox="0 0 32 32" fill="none" xmlns="http://www.w3.org/2000/svg">
<path d="M4 2C4 0.895431 4.89543 0 6 0H26C27.1046 0 28 0.895431 28 2V30C28 31.1046 27.1046 32 26 32H6C4.89543 32 4 31.1046 4 30V2Z" fill="#0055A2"/>
<path d="M10.5407 12.0059H9.33325V19.2078H10.5407V12.0059Z" fill="white"/>
<path d="M12.2094 12.0061V19.208H14.3998C16.2624 19.208 17.1483 18.5467 17.1483 17.2301C17.1483 16.4049 16.6811 15.78 15.9105 15.5433L15.8377 15.5191L15.9045 15.4887C16.6265 15.1854 16.9663 14.6636 16.9663 13.887C16.9663 12.6553 16.129 12.0061 14.424 12H12.2034M14.1935 16.0227C15.055 16.0227 15.8802 16.1622 15.8863 17.1391C15.8863 17.491 15.7649 17.7761 15.504 17.94C15.2431 18.1038 14.8487 18.1766 14.2966 18.1766H13.4168V16.0227H14.1935ZM14.5939 13.0315C14.9398 13.0315 15.7649 13.1528 15.771 13.984C15.771 14.4452 15.589 14.706 15.2795 14.8395C14.9822 14.973 14.5636 14.9912 14.0964 14.9912H13.4168V13.0315H14.5939Z" fill="white"/>
<path d="M23.9131 12.0059C23.5309 12.4063 20.6731 15.4218 20.6731 15.4218C20.6731 15.4218 23.7735 18.7892 24.1679 19.2078H22.4873C22.3295 19.0258 19.672 15.9618 19.672 15.9618V19.2078H18.4646V12.0059H19.672V14.9182C19.672 14.9182 22.2082 12.1636 22.3599 12.0059H23.9131Z" fill="white"/>
</svg>
