<svg width="24" height="24" viewBox="0 0 24 24" fill="none" xmlns="http://www.w3.org/2000/svg">
<path d="M0 9C0 4.02944 4.02944 0 9 0H15C19.9706 0 24 4.02944 24 9V15C24 19.9706 19.9706 24 15 24H9C4.02944 24 0 19.9706 0 15V9Z" fill="#EBF4F1"/>
<g clip-path="url(#clip0_16660_157940)">
<path fill-rule="evenodd" clip-rule="evenodd" d="M3.64285 8.28645C3.64285 7.22419 4.42657 6.7204 5.39319 7.16138L11.4827 9.93873C12.4492 10.3796 13.233 11.5981 13.233 12.6609V15.0764C13.233 16.1386 12.3716 17 11.3098 17H5.56598C4.50372 17 3.64285 16.1386 3.64285 15.0768V8.28645Z" fill="#4F47FB"/>
<path fill-rule="evenodd" clip-rule="evenodd" d="M7.07825 8.28419C7.07825 7.22193 7.86195 6.71858 8.82805 7.15998L14.9071 9.93595C15.8737 10.3774 16.6569 11.5962 16.6569 12.6596V15.0751C16.6569 16.1379 15.7952 16.9992 14.7328 16.9992H9.00191C7.93963 16.9992 7.07825 16.1379 7.07825 15.076V8.28419Z" fill="#4081FE"/>
<path fill-rule="evenodd" clip-rule="evenodd" d="M10.5137 8.28572C10.5137 7.22346 11.2974 6.71967 12.264 7.16065L18.3535 9.938C19.3201 10.3789 20.1039 11.5974 20.1039 12.6601V15.0756C20.1039 16.1379 19.2425 16.9993 18.1806 16.9993H12.4369C11.3745 16.9993 10.5137 16.1379 10.5137 15.0761V8.28572Z" fill="#1BE7AA"/>
</g>
<defs>
<clipPath id="clip0_16660_157940">
<rect width="16.4286" height="10" fill="white" transform="translate(3.64285 7)"/>
</clipPath>
</defs>
</svg>
