<svg width="32" height="32" viewBox="0 0 32 32" fill="none" xmlns="http://www.w3.org/2000/svg">
<path d="M0 12C0 5.37258 5.37258 0 12 0H20C26.6274 0 32 5.37258 32 12V20C32 26.6274 26.6274 32 20 32H12C5.37258 32 0 26.6274 0 20V12Z" fill="#00AEEF"/>
<g clip-path="url(#clip0_13996_7819)">
<path d="M25.3067 16C25.3067 20.9695 21.0988 25 15.9176 25C10.7365 25 6.50708 20.9695 6.50708 16C6.50708 11.0305 10.7221 7 15.9105 7C21.0988 7 25.2995 11.0305 25.2995 16H25.3067Z" fill="white"/>
<path d="M15.9176 24.5819C20.8555 24.5819 24.863 20.7434 24.863 16.0069C24.863 11.2704 20.8555 7.42505 15.9176 7.42505C10.9798 7.42505 6.96509 11.2636 6.96509 16.0001C6.96509 20.7365 10.9726 24.5751 15.9176 24.5751V24.5819Z" fill="#0083CA"/>
<mask id="mask0_13996_7819" style="mask-type:luminance" maskUnits="userSpaceOnUse" x="6" y="7" width="19" height="18">
<path d="M15.9176 24.5819C20.8555 24.5819 24.863 20.7434 24.863 16.0069C24.863 11.2704 20.8555 7.43188 15.9176 7.43188C10.9798 7.43188 6.96509 11.2704 6.96509 16.0069C6.96509 20.7434 10.9726 24.5819 15.9176 24.5819Z" fill="white"/>
</mask>
<g mask="url(#mask0_13996_7819)">
<path d="M15.9964 20.1402C19.9324 20.1402 23.303 21.1958 24.7557 22.6832C25.2352 21.6208 25.5 20.4418 25.5 19.2148C25.5 14.2933 21.242 10.3108 15.9964 10.3108C10.7508 10.3108 6.5 14.2933 6.5 19.2217C6.5 20.4486 6.77194 21.6208 7.24426 22.6832C8.68983 21.1958 12.0605 20.1402 15.9964 20.1402Z" fill="#0083CA"/>
<path d="M15.9964 20.1471C19.9252 20.1471 23.2816 21.1958 24.7271 22.6696C25.2066 21.6208 25.4714 20.4487 25.4714 19.2286C25.4714 14.3413 21.2277 10.3794 15.9964 10.3794C10.7652 10.3794 6.52148 14.3482 6.52148 19.2354C6.52148 20.4556 6.78627 21.6208 7.26574 22.6696C8.71131 21.189 12.0748 20.1471 15.9964 20.1471Z" fill="#0085CB"/>
<path d="M15.9965 20.1608C19.9181 20.1608 23.2673 21.1959 24.7057 22.6627C25.1852 21.6208 25.4499 20.4624 25.4499 19.2492C25.4499 14.403 21.2134 10.4617 15.9965 10.4617C10.7795 10.4617 6.54297 14.4099 6.54297 19.2492C6.54297 20.4556 6.80775 21.614 7.28722 22.6559C8.72564 21.189 12.082 20.154 15.9893 20.154L15.9965 20.1608Z" fill="#0086CD"/>
<path d="M15.9964 20.1677C19.9037 20.1677 23.2457 21.1959 24.6842 22.6491C25.1636 21.614 25.4213 20.4625 25.4213 19.2629C25.4213 14.4579 21.199 10.5371 15.9892 10.5371C10.7794 10.5371 6.57153 14.4648 6.57153 19.2698C6.57153 20.4693 6.83632 21.614 7.31579 22.6491C8.75421 21.1959 12.0962 20.1677 15.9964 20.1677Z" fill="#0088CE"/>
<path d="M15.9893 20.1744C19.8894 20.1744 23.2243 21.1957 24.6555 22.6352C25.1279 21.607 25.3926 20.4691 25.3926 19.2765C25.3926 14.5126 21.1776 10.6055 15.9893 10.6055C10.8009 10.6055 6.59302 14.5194 6.59302 19.2833C6.59302 20.476 6.8578 21.607 7.33012 22.6352C8.76138 21.1957 12.0962 20.1744 15.9893 20.1744Z" fill="#008ACF"/>
<path d="M15.9893 20.1881C19.8751 20.1881 23.2028 21.2026 24.6341 22.6283C25.1064 21.6139 25.3712 20.476 25.3712 19.297C25.3712 14.5743 21.1704 10.6877 15.9893 10.6877C10.8081 10.6877 6.6145 14.5743 6.6145 19.3039C6.6145 20.4829 6.87929 21.6139 7.3516 22.6283C8.78286 21.1957 12.1105 20.1881 15.9893 20.1881Z" fill="#008CD0"/>
<path d="M15.9893 20.195C19.868 20.195 23.1814 21.1958 24.6126 22.6147C25.085 21.6071 25.3497 20.4829 25.3497 19.3108C25.3497 14.6223 21.1561 10.7632 15.9964 10.7632C10.8367 10.7632 6.63599 14.636 6.63599 19.3176C6.63599 20.4898 6.90077 21.6071 7.37309 22.6147C8.79719 21.1958 12.1177 20.195 15.9893 20.195Z" fill="#008ED2"/>
<path d="M15.9892 20.2088C19.8536 20.2088 23.167 21.2027 24.5911 22.6079C25.0634 21.6071 25.3211 20.4967 25.3211 19.3314C25.3211 14.684 21.1418 10.8386 15.9892 10.8386C10.8367 10.8386 6.66455 14.6909 6.66455 19.3382C6.66455 20.4967 6.92933 21.6071 7.40165 22.6079C8.8186 21.2027 12.132 20.2088 15.9964 20.2088H15.9892Z" fill="#008FD3"/>
<path d="M15.9892 20.2156C19.8465 20.2156 23.1455 21.2027 24.5625 22.5942C25.0348 21.6003 25.2924 20.4967 25.2924 19.352C25.2924 14.7457 21.1203 10.9209 15.9821 10.9209C10.8439 10.9209 6.68604 14.7457 6.68604 19.352C6.68604 20.5035 6.95082 21.6003 7.41598 22.5942C8.83293 21.2027 12.1391 20.2156 15.9821 20.2156H15.9892Z" fill="#0091D4"/>
<path d="M15.9893 20.2225C19.8393 20.2225 23.1312 21.1959 24.541 22.5805C25.0134 21.6003 25.271 20.5036 25.271 19.3657C25.271 14.8006 21.1132 10.9963 15.9893 10.9963C10.8653 10.9963 6.70752 14.8006 6.70752 19.3657C6.70752 20.5036 6.9723 21.6003 7.43746 22.5805C8.84726 21.1959 12.1463 20.2225 15.9821 20.2225H15.9893Z" fill="#0093D5"/>
<path d="M15.9821 20.236C19.8179 20.236 23.1026 21.2025 24.5124 22.5734C24.9847 21.6001 25.2424 20.5171 25.2424 19.3861C25.2424 14.8621 21.0917 11.0715 15.9821 11.0715C10.8725 11.0715 6.729 14.8552 6.729 19.3861C6.729 20.5171 6.99379 21.6001 7.45895 22.5734C8.86874 21.2025 12.1535 20.236 15.9821 20.236Z" fill="#0095D7"/>
<path d="M15.9821 20.2429C19.8108 20.2429 23.0812 21.2026 24.491 22.5598C24.9561 21.5933 25.2209 20.5171 25.2209 19.3998C25.2209 14.9101 21.0846 11.147 15.9821 11.147C10.8797 11.147 6.75049 14.917 6.75049 19.3998C6.75049 20.524 7.00812 21.5933 7.48043 22.5598C8.88307 21.2026 12.1607 20.2429 15.9821 20.2429Z" fill="#0097D8"/>
<path d="M15.9821 20.2567C19.7964 20.2567 23.0668 21.2094 24.4695 22.5529C24.9346 21.5933 25.1922 20.5308 25.1922 19.4204C25.1922 14.9718 21.0702 11.2292 15.9821 11.2292C10.8939 11.2292 6.77905 14.9718 6.77905 19.4204C6.77905 20.5308 7.03668 21.5933 7.50184 22.5529C8.90448 21.2094 12.1749 20.2567 15.9821 20.2567Z" fill="#0099D9"/>
<path d="M15.9821 20.2636C19.7892 20.2636 23.0454 21.2026 24.448 22.5393C24.9132 21.5934 25.1708 20.5309 25.1708 19.4342C25.1708 15.0267 21.0559 11.2979 15.9821 11.2979C10.9083 11.2979 6.80054 15.0267 6.80054 19.4342C6.80054 20.5378 7.05816 21.5934 7.52332 22.5393C8.9188 21.2026 12.1821 20.2636 15.9821 20.2636Z" fill="#009BDA"/>
<path d="M15.9821 20.2705C19.7821 20.2705 23.0311 21.2027 24.4265 22.5256C24.8917 21.5865 25.1493 20.5378 25.1493 19.4479C25.1493 15.0816 21.0488 11.3733 15.9893 11.3733C10.9297 11.3733 6.82202 15.0816 6.82202 19.4548C6.82202 20.5447 7.07965 21.5934 7.54481 22.5325C8.94029 21.2095 12.1893 20.2773 15.9821 20.2773V20.2705Z" fill="#009DDC"/>
<path d="M15.975 20.2842C19.7606 20.2842 23.0025 21.2096 24.3908 22.5188C24.8559 21.5866 25.1136 20.5515 25.1136 19.4685C25.1136 15.1365 21.0202 11.4487 15.975 11.4487C10.9298 11.4487 6.84351 15.1433 6.84351 19.4685C6.84351 20.5515 7.10113 21.5866 7.56629 22.5188C8.95462 21.2096 12.1964 20.2842 15.975 20.2842Z" fill="#009FDD"/>
<path d="M15.9749 20.2909C19.7534 20.2909 22.9809 21.2094 24.3692 22.5049C24.8344 21.5795 25.0849 20.5513 25.0849 19.482C25.0849 15.1911 21.0058 11.5239 15.9677 11.5239C10.9297 11.5239 6.87207 15.198 6.87207 19.482C6.87207 20.5582 7.1297 21.5795 7.59486 22.5049C8.98318 21.2094 12.2178 20.2909 15.9821 20.2909H15.9749Z" fill="#00A1DE"/>
<path d="M15.9749 20.3046C19.7391 20.3046 22.9666 21.2094 24.3478 22.4981C24.813 21.5864 25.0634 20.5651 25.0634 19.5026C25.0634 15.2528 20.9915 11.6062 15.9749 11.6062C10.9583 11.6062 6.89355 15.2528 6.89355 19.5026C6.89355 20.5651 7.15118 21.5795 7.60919 22.4981C8.99035 21.2094 12.2178 20.3046 15.9749 20.3046Z" fill="#00A3DF"/>
<path d="M15.9749 20.3115C19.732 20.3115 22.9452 21.2095 24.3263 22.4844C24.7915 21.5796 25.042 20.572 25.042 19.5164C25.042 15.3077 20.9843 11.6748 15.9749 11.6748C10.9655 11.6748 6.91504 15.3077 6.91504 19.5164C6.91504 20.572 7.17267 21.5796 7.63067 22.4844C9.01184 21.2095 12.225 20.3115 15.9749 20.3115Z" fill="#00A5E1"/>
<path d="M15.9749 20.3184C19.7177 20.3184 22.9309 21.2095 24.3049 22.4707C24.7629 21.5728 25.0205 20.572 25.0205 19.5301C25.0205 15.3626 20.97 11.7502 15.9749 11.7502C10.9798 11.7502 6.93652 15.3626 6.93652 19.537C6.93652 20.5789 7.19415 21.5796 7.65215 22.4776C9.02617 21.2164 12.2393 20.3253 15.9749 20.3253V20.3184Z" fill="#00A7E2"/>
<path d="M15.975 20.3321C19.7105 20.3321 22.9094 21.2164 24.2834 22.4639C24.7414 21.5728 24.9991 20.5858 24.9991 19.5507C24.9991 15.4174 20.9629 11.8325 15.9821 11.8325C11.0013 11.8325 6.95801 15.4243 6.95801 19.5507C6.95801 20.5858 7.21563 21.5728 7.67364 22.4639C9.04765 21.2164 12.2465 20.3321 15.975 20.3321Z" fill="#00A9E3"/>
<path d="M15.9677 20.3391C19.6962 20.3391 22.8807 21.2096 24.2476 22.4502C24.7056 21.5729 24.9561 20.5927 24.9561 19.5645C24.9561 15.4723 20.9271 11.9011 15.9606 11.9011C10.9941 11.9011 6.98657 15.4792 6.98657 19.5713C6.98657 20.5927 7.23704 21.5729 7.69505 22.4571C9.0619 21.2164 12.2536 20.3459 15.9749 20.3459L15.9677 20.3391Z" fill="#00ABE5"/>
<path d="M15.9678 20.3528C19.6819 20.3528 22.8664 21.2165 24.2261 22.4434C24.6841 21.5729 24.9346 20.5995 24.9346 19.5851C24.9346 15.534 20.9199 11.9834 15.9678 11.9834C11.0156 11.9834 7.00806 15.534 7.00806 19.5851C7.00806 20.5995 7.25853 21.5729 7.71653 22.4434C9.08339 21.2165 12.2608 20.3528 15.9678 20.3528Z" fill="#00ADE6"/>
<path d="M15.9678 20.3594C19.6747 20.3594 22.845 21.2162 24.2047 22.4295C24.6627 21.5658 24.9132 20.6062 24.9132 19.5986C24.9132 15.5887 20.9056 12.0586 15.9678 12.0586C11.0299 12.0586 7.02954 15.5887 7.02954 19.5986C7.02954 20.6062 7.28001 21.5658 7.73802 22.4295C9.09771 21.2162 12.2751 20.3594 15.9678 20.3594Z" fill="#00AFE7"/>
<path d="M15.9678 20.3663C19.6604 20.3663 22.8307 21.2163 24.1832 22.4158C24.6412 21.559 24.8917 20.6063 24.8917 19.6123C24.8917 15.6436 20.8985 12.1272 15.9678 12.1272C11.0371 12.1272 7.05103 15.6504 7.05103 19.6192C7.05103 20.6131 7.3015 21.5659 7.7595 22.4227C9.1192 21.2232 12.2823 20.3732 15.9678 20.3732V20.3663Z" fill="#00B2E9"/>
<path d="M15.9678 20.3801C19.6533 20.3801 22.8092 21.2163 24.1618 22.409C24.6198 21.5659 24.8631 20.62 24.8631 19.6329C24.8631 15.6984 20.877 12.2095 15.9678 12.2095C11.0586 12.2095 7.07251 15.7053 7.07251 19.6329C7.07251 20.62 7.32298 21.5591 7.77383 22.409C9.12637 21.2163 12.2823 20.3801 15.9606 20.3801H15.9678Z" fill="#00B4EA"/>
<path d="M15.9677 20.387C19.6461 20.387 22.7877 21.2163 24.1402 22.3953C24.5911 21.5591 24.8416 20.6269 24.8416 19.6535C24.8416 15.7601 20.8698 12.2917 15.9677 12.2917C11.0657 12.2917 7.10107 15.7601 7.10107 19.6535C7.10107 20.6269 7.35155 21.5659 7.80239 22.4022C9.15494 21.2232 12.3037 20.3938 15.9677 20.3938V20.387Z" fill="#00B6EB"/>
<path d="M15.9606 20.4007C19.6246 20.4007 22.7662 21.2232 24.1116 22.3885C24.5625 21.5591 24.813 20.6338 24.813 19.6741C24.813 15.8219 20.8484 12.3672 15.9678 12.3672C11.0872 12.3672 7.12256 15.815 7.12256 19.6673C7.12256 20.6338 7.37303 21.5591 7.82388 22.3885C9.16926 21.2232 12.3109 20.4007 15.9678 20.4007H15.9606Z" fill="#00B8ED"/>
<path d="M15.9606 20.4076C19.6175 20.4076 22.7448 21.2233 24.083 22.3748C24.5339 21.5523 24.7843 20.6406 24.7843 19.6879C24.7843 15.8767 20.8341 12.4426 15.9606 12.4426C11.0872 12.4426 7.14404 15.8767 7.14404 19.6879C7.14404 20.6475 7.39451 21.5592 7.84536 22.3748C9.19075 21.2164 12.3181 20.4076 15.9678 20.4076H15.9606Z" fill="#01BBEE"/>
<path d="M15.9606 20.4145C19.6032 20.4145 22.7305 21.2165 24.0616 22.3612C24.5124 21.5523 24.7557 20.6475 24.7557 19.7016C24.7557 15.9316 20.8126 12.5181 15.9535 12.5181C11.0943 12.5181 7.16553 15.9316 7.16553 19.7016C7.16553 20.6475 7.416 21.5523 7.85969 22.3612C9.19792 21.2165 12.3181 20.4145 15.9535 20.4145H15.9606Z" fill="#11BDF0"/>
<path d="M15.9606 20.428C19.596 20.428 22.709 21.2231 24.04 22.3541C24.4909 21.5521 24.7342 20.6542 24.7342 19.722C24.7342 15.9863 20.8054 12.5933 15.9606 12.5933C11.1157 12.5933 7.19409 15.9863 7.19409 19.7151C7.19409 20.6542 7.44456 21.5521 7.88825 22.3473C9.21933 21.2163 12.3395 20.4211 15.9606 20.4211V20.428Z" fill="#1AC0F1"/>
<path d="M15.9606 20.4349C19.5817 20.4349 22.6875 21.2232 24.0186 22.3404C24.4694 21.5453 24.7128 20.6611 24.7128 19.7357C24.7128 16.0411 20.7911 12.6687 15.9606 12.6687C11.1301 12.6687 7.21558 16.0411 7.21558 19.7357C7.21558 20.6611 7.45889 21.5522 7.90974 22.3404C9.24081 21.2232 12.3467 20.4349 15.9606 20.4349Z" fill="#1FC4F4"/>
<path d="M15.9608 20.4555C19.5818 20.4555 22.6805 21.2369 24.0044 22.3474C24.4553 21.5591 24.6986 20.6817 24.6986 19.7564C24.6986 16.0892 20.7841 12.7305 15.9608 12.7305C11.1374 12.7305 7.2229 16.096 7.2229 19.7632C7.2229 20.6817 7.46621 21.566 7.91706 22.3542C9.24814 21.2438 12.3468 20.4624 15.9608 20.4624V20.4555Z" fill="#32C5F4"/>
<path d="M15.9606 20.483C19.5745 20.483 22.6732 21.2575 23.9971 22.3611C24.448 21.5797 24.6913 20.7023 24.6913 19.7907C24.6913 16.144 20.784 12.8127 15.9606 12.8127C11.1372 12.8127 7.23706 16.144 7.23706 19.7907C7.23706 20.7092 7.48038 21.5797 7.93122 22.3611C9.25514 21.2575 12.3538 20.483 15.9606 20.483Z" fill="#3FC7F4"/>
<path d="M15.9607 20.5036C19.5675 20.5036 22.6662 21.2781 23.9829 22.3749C24.4266 21.5935 24.6771 20.7298 24.6771 19.8181C24.6771 16.1989 20.7769 12.8813 15.9607 12.8813C11.1445 12.8813 7.25146 16.1921 7.25146 19.8113C7.25146 20.7229 7.49478 21.5866 7.93847 22.368C9.26239 21.2713 12.3539 20.4967 15.9607 20.4967V20.5036Z" fill="#4AC8F5"/>
<path d="M15.9606 20.524C19.5674 20.524 22.6518 21.2917 23.9757 22.3815C24.4194 21.607 24.6627 20.7433 24.6627 19.8454C24.6627 16.2467 20.7625 12.9497 15.9606 12.9497C11.1587 12.9497 7.25854 16.2467 7.25854 19.8385C7.25854 20.7433 7.50186 21.607 7.94555 22.3747C9.26947 21.2848 12.361 20.5171 15.9535 20.5171L15.9606 20.524Z" fill="#54CAF5"/>
<path d="M15.9607 20.5446C19.5603 20.5446 22.6447 21.3054 23.9615 22.3885C24.4052 21.6207 24.6485 20.7639 24.6485 19.866C24.6485 16.2879 20.7554 13.0183 15.9536 13.0183C11.1517 13.0183 7.27295 16.2948 7.27295 19.866C7.27295 20.7639 7.51626 21.6207 7.95995 22.3885C9.28387 21.3054 12.3682 20.5446 15.9607 20.5446Z" fill="#5CCCF5"/>
<path d="M15.9606 20.5652C19.553 20.5652 22.6374 21.3192 23.9542 22.3954C24.3978 21.6345 24.6412 20.7846 24.6412 19.8935C24.6412 16.3428 20.7553 13.0869 15.9606 13.0869C11.1658 13.0869 7.28711 16.3428 7.28711 19.8935C7.28711 20.7846 7.53042 21.6345 7.97411 22.4022C9.29088 21.3261 12.3752 20.5721 15.9606 20.5721V20.5652Z" fill="#64CDF6"/>
<path d="M15.9607 20.5927C19.5532 20.5927 22.6304 21.3467 23.94 22.4091C24.3837 21.6483 24.627 20.8052 24.627 19.9209C24.627 16.3909 20.7483 13.1555 15.9607 13.1555C11.1732 13.1555 7.29443 16.3977 7.29443 19.9209C7.29443 20.8052 7.53775 21.6483 7.98144 22.4091C9.2982 21.3398 12.3754 20.5927 15.9536 20.5927H15.9607Z" fill="#6CCFF6"/>
<path d="M15.9606 20.6133C19.5459 20.6133 22.6159 21.3604 23.9327 22.4229C24.3764 21.6689 24.6197 20.8326 24.6197 19.9552C24.6197 16.4526 20.741 13.2378 15.9606 13.2378C11.1802 13.2378 7.30859 16.4457 7.30859 19.9484C7.30859 20.8258 7.55191 21.6689 7.9956 22.4229C9.31236 21.3604 12.3824 20.6133 15.9606 20.6133Z" fill="#73D1F6"/>
<path d="M15.9607 20.6337C19.5388 20.6337 22.6089 21.374 23.9185 22.4296C24.3622 21.6824 24.6055 20.8462 24.6055 19.9756C24.6055 16.4935 20.7339 13.2993 15.9607 13.2993C11.1874 13.2993 7.323 16.4935 7.323 19.9756C7.323 20.8462 7.56631 21.6824 8.01 22.4296C9.31961 21.374 12.3897 20.6337 15.9607 20.6337Z" fill="#7AD2F7"/>
<path d="M15.9606 20.6543C19.5387 20.6543 22.6016 21.3877 23.9112 22.4365C24.3549 21.6962 24.5983 20.8668 24.5983 20.0031C24.5983 16.5484 20.7338 13.3679 15.9677 13.3679C11.2016 13.3679 7.33008 16.5484 7.33008 20.0031C7.33008 20.8736 7.57339 21.6962 8.00993 22.4433C9.31953 21.3946 12.3896 20.6611 15.9534 20.6611L15.9606 20.6543Z" fill="#81D4F7"/>
<path d="M15.9607 20.6749C19.5317 20.6749 22.5946 21.4084 23.897 22.4434C24.3407 21.7031 24.584 20.8874 24.584 20.0237C24.584 16.5896 20.7268 13.4297 15.9607 13.4297C11.1946 13.4297 7.34448 16.5965 7.34448 20.0237C7.34448 20.8874 7.5878 21.7031 8.02433 22.4434C9.33394 21.4015 12.3968 20.6749 15.9535 20.6749H15.9607Z" fill="#88D6F8"/>
<path d="M15.9605 20.7024C19.5244 20.7024 22.5801 21.4289 23.8897 22.4571C24.3262 21.7237 24.5696 20.908 24.5696 20.058C24.5696 16.6513 20.7123 13.512 15.9605 13.512C11.2087 13.512 7.35864 16.6445 7.35864 20.0512C7.35864 20.908 7.60196 21.7237 8.03849 22.4571C9.3481 21.4289 12.4038 20.7024 15.9605 20.7024Z" fill="#8ED8F8"/>
<path d="M15.9607 20.7227C19.5245 20.7227 22.5731 21.4425 23.8756 22.4706C24.3121 21.7441 24.5554 20.9352 24.5554 20.0853C24.5554 16.6991 20.7053 13.5803 15.9607 13.5803C11.2161 13.5803 7.36597 16.6991 7.36597 20.0784C7.36597 20.9284 7.60928 21.7372 8.04582 22.4638C9.34826 21.4425 12.404 20.7159 15.9535 20.7159L15.9607 20.7227Z" fill="#94DAF8"/>
<path d="M15.9605 20.7433C19.5172 20.7433 22.5658 21.4562 23.8611 22.4775C24.2976 21.7578 24.541 20.949 24.541 20.1127C24.541 16.754 20.698 13.6558 15.9534 13.6558C11.2088 13.6558 7.38013 16.7472 7.38013 20.1059C7.38013 20.949 7.62344 21.751 8.05998 22.4775C9.36242 21.4631 12.411 20.7433 15.9605 20.7433Z" fill="#9BDCF9"/>
<path d="M15.9606 20.764C19.5102 20.764 22.5587 21.4769 23.854 22.4845C24.2906 21.7648 24.5339 20.9696 24.5339 20.1334C24.5339 16.7952 20.691 13.7175 15.9606 13.7175C11.2303 13.7175 7.39453 16.7952 7.39453 20.1334C7.39453 20.9696 7.63785 21.7648 8.07438 22.4845C9.37683 21.4769 12.4183 20.764 15.9606 20.764Z" fill="#A1DDF9"/>
<path d="M15.9606 20.7846C19.5101 20.7846 22.5444 21.4906 23.8397 22.4914C24.2762 21.7785 24.5195 20.9902 24.5195 20.1608C24.5195 16.8501 20.6837 13.7861 15.9606 13.7861C11.2374 13.7861 7.40161 16.8501 7.40161 20.1608C7.40161 20.9902 7.64493 21.7854 8.08146 22.4982C9.38391 21.4975 12.4253 20.7915 15.9606 20.7915V20.7846Z" fill="#A7DFF9"/>
<path d="M15.9607 20.805C19.503 20.805 22.5373 21.5042 23.8326 22.4981C24.2691 21.7921 24.5124 21.0038 24.5124 20.1812C24.5124 16.8911 20.6838 13.8477 15.9607 13.8477C11.2375 13.8477 7.41602 16.8979 7.41602 20.1881C7.41602 21.0175 7.65933 21.7989 8.09587 22.5049C9.39116 21.511 12.4326 20.8119 15.9607 20.8119V20.805Z" fill="#ADE1FA"/>
<path d="M15.9607 20.8324C19.496 20.8324 22.5302 21.5316 23.8184 22.5118C24.2549 21.8058 24.4982 21.0312 24.4982 20.2155C24.4982 16.9528 20.6767 13.9299 15.9607 13.9299C11.2447 13.9299 7.43042 16.9528 7.43042 20.2087C7.43042 21.0312 7.67373 21.8058 8.10311 22.5118C9.3984 21.5248 12.4327 20.8324 15.9607 20.8256V20.8324Z" fill="#B3E3FA"/>
<path d="M15.9607 20.8531C19.4887 20.8531 22.523 21.5454 23.8111 22.5256C24.2477 21.8264 24.4838 21.0587 24.4838 20.243C24.4838 17.0008 20.6624 13.9985 15.9607 13.9985C11.259 13.9985 7.4375 17.0008 7.4375 20.2362C7.4375 21.0518 7.68081 21.8196 8.11019 22.5187C9.40548 21.5385 12.4326 20.8462 15.9535 20.8462L15.9607 20.8531Z" fill="#B8E5FA"/>
<path d="M15.9608 20.8737C19.4888 20.8737 22.5088 21.5591 23.7969 22.5325C24.2335 21.8402 24.4696 21.0725 24.4696 20.2705C24.4696 17.0557 20.6553 14.0671 15.9536 14.0671C11.2519 14.0671 7.4519 17.0489 7.4519 20.2636C7.4519 21.0725 7.69522 21.8402 8.1246 22.5325C9.41273 21.5591 12.4399 20.8737 15.9608 20.8737Z" fill="#BEE7FB"/>
<path d="M15.9606 20.8941C19.4815 20.8941 22.5015 21.5727 23.7896 22.5392C24.219 21.8537 24.4623 21.0928 24.4623 20.2909C24.4623 17.0967 20.6551 14.1355 15.9606 14.1355C11.2661 14.1355 7.46606 17.1035 7.46606 20.2909C7.46606 21.0928 7.70938 21.8537 8.13876 22.5392C9.42689 21.5727 12.4469 20.8941 15.9606 20.8941Z" fill="#C4E9FB"/>
<path d="M15.9605 20.9147C19.4743 20.9147 22.4942 21.5933 23.7752 22.5461C24.2046 21.8606 24.4479 21.1066 24.4479 20.3115C24.4479 17.1447 20.6479 14.1973 15.9605 14.1973C11.2731 14.1973 7.47314 17.1516 7.47314 20.3184C7.47314 21.1135 7.71646 21.8675 8.14584 22.5529C9.43397 21.5933 12.4539 20.9216 15.9605 20.9216V20.9147Z" fill="#CAEBFC"/>
<path d="M15.9606 20.9422C19.4744 20.9422 22.4872 21.6139 23.7682 22.5598C24.1975 21.8812 24.4408 21.1341 24.4408 20.3458C24.4408 17.1996 20.6408 14.2727 15.9606 14.2727C11.2804 14.2727 7.48755 17.1996 7.48755 20.3458C7.48755 21.1341 7.72371 21.8812 8.16024 22.5598C9.44838 21.6071 12.4612 20.9422 15.9606 20.9353V20.9422Z" fill="#CFEDFC"/>
<path d="M15.9607 20.9628C19.4673 20.9628 22.473 21.6277 23.7539 22.5736C24.1833 21.9018 24.4266 21.1615 24.4266 20.3733C24.4266 17.2545 20.6338 14.3481 15.9607 14.3481C11.2876 14.3481 7.50195 17.2545 7.50195 20.3733C7.50195 21.1547 7.73811 21.9018 8.17465 22.5736C9.45563 21.6277 12.4684 20.9628 15.9679 20.9628H15.9607Z" fill="#D5EFFC"/>
<path d="M15.9606 20.9834C19.4601 20.9834 22.4657 21.6414 23.7467 22.5805C24.1761 21.9156 24.4194 21.1753 24.4194 20.4008C24.4194 17.3025 20.6337 14.4167 15.9678 14.4167C11.3019 14.4167 7.50903 17.3025 7.50903 20.3939C7.50903 21.1753 7.74519 21.9088 8.17457 22.5736C9.45555 21.6346 12.4612 20.9765 15.9535 20.9765L15.9606 20.9834Z" fill="#DAF1FD"/>
<path d="M15.9607 21.0038C19.4602 21.0038 22.4587 21.6618 23.7325 22.5872C24.1619 21.9223 24.4052 21.1957 24.4052 20.4211C24.4052 17.3435 20.6266 14.4783 15.9607 14.4783C11.2948 14.4783 7.52344 17.3503 7.52344 20.4211C7.52344 21.1957 7.7596 21.9223 8.18897 22.5872C9.46995 21.655 12.4684 21.0038 15.9607 21.0038Z" fill="#E0F3FD"/>
<path d="M15.9606 21.0244C19.4529 21.0244 22.4443 21.6756 23.7252 22.5941C24.1546 21.936 24.3908 21.2095 24.3908 20.4486C24.3908 17.3983 20.6123 14.5537 15.9606 14.5537C11.309 14.5537 7.53052 17.4052 7.53052 20.4486C7.53052 21.2163 7.76668 21.936 8.19605 22.6009C9.46988 21.6824 12.4684 21.0312 15.9535 21.0312L15.9606 21.0244Z" fill="#E6F5FD"/>
<path d="M15.9607 21.0519C19.4459 21.0519 22.4372 21.6962 23.711 22.6078C24.1404 21.9567 24.3766 21.2369 24.3766 20.4761C24.3766 17.4464 20.6052 14.6223 15.9607 14.6223C11.3163 14.6223 7.54492 17.4532 7.54492 20.4761C7.54492 21.2369 7.78108 21.9567 8.21046 22.6078C9.48428 21.6962 12.4828 21.0519 15.9607 21.045V21.0519Z" fill="#EBF7FE"/>
<path d="M15.9606 21.0725C19.4457 21.0725 22.4299 21.7099 23.6966 22.6216C24.1259 21.9773 24.3621 21.2644 24.3621 20.5104C24.3621 17.5081 20.5979 14.6978 15.9534 14.6978C11.309 14.6978 7.55908 17.5013 7.55908 20.5035C7.55908 21.2575 7.79524 21.9704 8.22462 22.6216C9.49844 21.7168 12.4898 21.0725 15.9606 21.0725Z" fill="#F1FAFE"/>
<path d="M15.9608 21.0931C19.4387 21.0931 22.4229 21.7306 23.6896 22.6285C24.1118 21.9842 24.3551 21.2782 24.3551 20.531C24.3551 17.5493 20.5909 14.7664 15.9608 14.7664C11.3306 14.7664 7.56641 17.5562 7.56641 20.531C7.56641 21.2782 7.80256 21.9842 8.23194 22.6285C9.50577 21.7306 12.4899 21.0931 15.9608 21.0931Z" fill="#F7FCFE"/>
<path d="M15.9606 21.1135C19.4314 21.1135 22.4084 21.7441 23.6751 22.6352C24.0973 21.9977 24.3406 21.2985 24.3406 20.5583C24.3406 17.6039 20.5836 14.8347 15.9606 14.8347C11.3376 14.8347 7.58057 17.6039 7.58057 20.5583C7.58057 21.2985 7.81672 21.9977 8.2461 22.642C9.51277 21.7509 12.497 21.1203 15.9606 21.1203V21.1135Z" fill="white"/>
</g>
<path d="M15.9177 18.166C12.8763 18.166 10.0638 18.6595 7.73804 19.4958C9.13352 22.4912 12.268 24.575 15.9177 24.575C19.5674 24.575 22.6947 22.4844 24.0902 19.4958C21.7644 18.6595 18.9448 18.166 15.9105 18.166H15.9177Z" fill="#0083CA"/>
</g>
<defs>
<clipPath id="clip0_13996_7819">
<rect width="19" height="18" fill="white" transform="translate(6.5 7)"/>
</clipPath>
</defs>
</svg>
