<svg width="24" height="24" viewBox="0 0 24 24" fill="none" xmlns="http://www.w3.org/2000/svg">
<path d="M0 9C0 4.02944 4.02944 0 9 0H15C19.9706 0 24 4.02944 24 9V15C24 19.9706 19.9706 24 15 24H9C4.02944 24 0 19.9706 0 15V9Z" fill="#E2E8EF"/>
<g clip-path="url(#clip0_23321_21521)">
<path d="M14.4931 15.5865C14.4718 15.5973 14.4506 15.6085 14.4289 15.6193C13.8477 15.9113 13.2377 16.1471 12.608 16.3233C12.1779 16.4439 11.7623 16.5523 11.3518 16.5983L11.337 16.5999C10.8303 16.9763 10.2846 17.3016 9.7085 17.5705L11.774 19.9685C13.3321 18.9133 14.584 17.4684 15.3763 15.7812C15.0792 15.7283 14.7845 15.6634 14.4931 15.5865Z" fill="#A7A5A6"/>
<path d="M12.9676 15.0659C11.9568 14.6384 11.014 14.0662 10.204 13.3727C10.0725 13.2665 9.87628 13.0957 9.63949 12.853C8.10472 12.3 6.79499 11.4233 6.2466 10.9932L4 15.0276C4 15.0276 7.11823 17.0669 11.3371 16.6C11.9405 16.151 12.4877 15.6362 12.9676 15.0659Z" fill="#4EBDE6"/>
<path d="M16.0483 13.8625C16.1784 13.3168 16.262 12.7618 16.2981 12.2031C16.2495 12.2337 16.2003 12.2639 16.1508 12.2937C15.7926 12.5103 15.4169 12.6991 15.0275 12.8584C14.996 12.8712 14.9636 12.8833 14.9316 12.8957C15.2757 13.2467 15.6492 13.57 16.0483 13.8625ZM12.608 16.3232C13.2377 16.147 13.8476 15.9113 14.4289 15.6194C14.4506 15.6085 14.4717 15.5974 14.493 15.5864C13.972 15.449 13.4621 15.275 12.9675 15.0659C12.4877 15.6361 11.9405 16.1509 11.337 16.5999L11.3517 16.5983C11.7624 16.5524 12.1779 16.4439 12.608 16.3232ZM11.8866 13.3378C12.6872 13.4132 13.4406 13.3365 14.1399 13.1542C14.177 13.1446 14.2135 13.1337 14.2502 13.1234C14.3563 12.9134 14.4556 12.6991 14.5474 12.4808C12.8994 10.5975 11.8406 7.95267 11.67 5.00008L6.54297 6.82588C7.12974 9.21317 8.04497 10.8481 8.83649 11.9083C8.96451 12.0825 9.09959 12.2519 9.24141 12.4161C9.36898 12.5659 9.50174 12.7116 9.63946 12.853C10.3576 13.1117 11.1247 13.3 11.8866 13.3378Z" fill="#1890CE"/>
<path d="M14.9317 12.8956C14.7995 12.7609 14.6714 12.6226 14.5475 12.4808C14.456 12.6981 14.3569 12.9125 14.2504 13.1234C14.4814 13.0588 14.7089 12.9828 14.9317 12.8956ZM15.652 14.8872C15.284 15.1471 14.8966 15.3807 14.4931 15.5863C14.7852 15.6634 15.08 15.7284 15.3764 15.7812C15.5275 15.4595 15.6612 15.1305 15.7769 14.7955C15.7353 14.826 15.6944 14.8569 15.6519 14.8871" fill="#1575BC"/>
<path d="M15.7768 14.7956C16.0368 14.605 16.2863 14.4015 16.5243 14.1859C16.3618 14.0835 16.203 13.9756 16.0484 13.8625C15.9733 14.1775 15.8827 14.4889 15.7768 14.7956ZM10.204 13.3726C11.0141 14.0661 11.9569 14.6383 12.9676 15.0659C13.471 14.4677 13.9015 13.8159 14.2504 13.1234C14.2135 13.1337 14.177 13.1446 14.1401 13.1542C13.4407 13.3364 12.6873 13.4132 11.8869 13.3378C11.1251 13.2999 10.3577 13.1118 9.63953 12.8529C9.87632 13.0957 10.0725 13.2664 10.204 13.3726Z" fill="#1575BC"/>
<path d="M12.9675 15.0656C13.4621 15.2749 13.972 15.4489 14.493 15.5864C14.8965 15.3807 15.2838 15.1469 15.6518 14.887C15.6944 14.8569 15.7352 14.826 15.7767 14.7955C15.8826 14.4889 15.9732 14.1775 16.0482 13.8625C15.6492 13.57 15.2757 13.2466 14.9316 12.8955C14.7087 12.9828 14.4814 13.0589 14.2503 13.1234C13.9013 13.8158 13.4709 14.4675 12.9675 15.0656Z" fill="#215698"/>
<path d="M19.3603 9.2681C18.816 10.037 17.7584 11.2853 16.2981 12.203C16.262 12.7617 16.1785 13.3167 16.0483 13.8624C16.203 13.9755 16.3617 14.0833 16.5242 14.1858H16.5248C18.4545 12.4351 19.2146 10.2728 19.361 9.3142C19.3625 9.3011 19.3663 9.283 19.3602 9.268" fill="#4EBDE6"/>
<path d="M15.2879 7.16962C15.3372 7.57592 15.3629 7.98942 15.3629 8.40892C15.3629 9.85032 15.074 11.2302 14.5475 12.4807C14.6714 12.6225 14.7995 12.7608 14.9317 12.8955C14.9636 12.8832 14.996 12.8711 15.0275 12.8583C15.417 12.6991 15.7926 12.5102 16.1508 12.2936C16.2004 12.2637 16.2495 12.2336 16.2982 12.2029C16.312 11.9884 16.319 11.7721 16.319 11.5543C16.319 9.99801 15.9589 8.52292 15.3153 7.20072C15.309 7.18822 15.299 7.17422 15.2879 7.16962Z" fill="#A7A5A6"/>
<path d="M19.9871 15.3669C19.9686 15.3656 19.9504 15.3639 19.9318 15.3622C19.9173 15.3609 19.9025 15.3598 19.8878 15.3583C19.681 15.3373 19.4766 15.3079 19.2746 15.2708C19.2267 15.2619 19.1791 15.2514 19.1314 15.2418C18.3308 15.0712 17.6611 14.7881 17.3238 14.6292C17.2838 14.6099 17.2437 14.5914 17.2039 14.5713C16.9709 14.4536 16.744 14.325 16.5242 14.1859C16.2862 14.4015 16.0368 14.6049 15.7768 14.7955C15.661 15.1305 15.5273 15.4595 15.3762 15.7812C15.9706 15.8872 16.5708 15.9441 17.1659 15.9467L17.1692 15.9468L17.1997 15.947C17.2288 15.947 17.2578 15.9464 17.2868 15.9462C17.3237 15.9459 17.3606 15.9456 17.3975 15.945L17.4553 15.9438C17.513 15.9428 17.5708 15.9412 17.6284 15.9388C17.6476 15.9382 17.6667 15.9373 17.6859 15.9366L17.7431 15.9341L17.8003 15.9313L17.8575 15.9283L17.9142 15.9249L17.971 15.9213C17.9899 15.92 18.0089 15.9188 18.0277 15.9174L18.0842 15.9132L18.1406 15.9088L18.1968 15.9041L18.2528 15.8991C18.2715 15.8975 18.2902 15.8957 18.3086 15.8939L18.3644 15.8884L18.4201 15.8826L18.4755 15.8766C18.494 15.8746 18.5123 15.8724 18.5307 15.8703C18.5493 15.8681 18.5676 15.866 18.586 15.8637L18.6409 15.8569L18.6959 15.8499L18.7505 15.8424C18.7868 15.8376 18.8232 15.8324 18.8594 15.827L18.9135 15.8189L18.9676 15.8106C18.9856 15.8077 19.0035 15.8049 19.0214 15.8018C19.0393 15.799 19.0572 15.796 19.0751 15.7929C19.1108 15.7871 19.1464 15.781 19.1819 15.7745L19.2351 15.7649C19.2528 15.7617 19.2705 15.7584 19.2882 15.7549L19.3409 15.7449L19.3937 15.7346L19.4461 15.7238C19.4809 15.7168 19.5157 15.7095 19.5504 15.7019L19.6025 15.6905L19.6541 15.679C19.6713 15.6751 19.6886 15.6712 19.7057 15.6671C19.7399 15.6593 19.7741 15.6511 19.8081 15.6427C19.8251 15.6387 19.8422 15.6344 19.8591 15.6302L19.9099 15.6175L19.9606 15.6044C19.9941 15.5957 20.0276 15.5868 20.061 15.5775C20.0778 15.5731 20.0945 15.5685 20.1111 15.5639L20.1608 15.5499C20.1773 15.5452 20.1939 15.5406 20.2105 15.5357C20.2434 15.5263 20.2762 15.5167 20.309 15.5067L20.3579 15.4918L20.4066 15.4768L20.4553 15.4614L20.5036 15.4458L20.5516 15.4301C20.5676 15.4249 20.5836 15.4194 20.5995 15.414L20.6059 15.4119C20.6274 15.404 20.6583 15.3909 20.6837 15.3736C20.4516 15.3873 20.2188 15.385 19.9871 15.3669Z" fill="#1890CE"/>
</g>
<defs>
<clipPath id="clip0_23321_21521">
<rect width="17" height="15" fill="white" transform="translate(4 5)"/>
</clipPath>
</defs>
</svg>
