<svg width="32" height="32" viewBox="0 0 32 32" fill="none" xmlns="http://www.w3.org/2000/svg">
<path d="M4 2C4 0.895431 4.89543 0 6 0H26C27.1046 0 28 0.895431 28 2V30C28 31.1046 27.1046 32 26 32H6C4.89543 32 4 31.1046 4 30V2Z" fill="#00AEEF"/>
<g clip-path="url(#clip0_13983_1770)">
<path d="M23.8374 16.0001C23.8374 20.185 20.2939 23.579 15.9308 23.579C11.5677 23.579 8.0061 20.185 8.0061 16.0001C8.0061 11.8152 11.5556 8.42114 15.9247 8.42114C20.2939 8.42114 23.8313 11.8152 23.8313 16.0001H23.8374Z" fill="white"/>
<path d="M15.9306 23.227C20.0888 23.227 23.4635 19.9945 23.4635 16.0059C23.4635 12.0173 20.0888 8.77905 15.9306 8.77905C11.7724 8.77905 8.3916 12.0115 8.3916 16.0001C8.3916 19.9887 11.7664 23.2212 15.9306 23.2212V23.227Z" fill="#0083CA"/>
<mask id="mask0_13983_1770" style="mask-type:luminance" maskUnits="userSpaceOnUse" x="8" y="8" width="16" height="16">
<path d="M15.9306 23.2268C20.0888 23.2268 23.4635 19.9944 23.4635 16.0057C23.4635 12.0171 20.0888 8.78467 15.9306 8.78467C11.7724 8.78467 8.3916 12.0171 8.3916 16.0057C8.3916 19.9944 11.7664 23.2268 15.9306 23.2268Z" fill="white"/>
</mask>
<g mask="url(#mask0_13983_1770)">
<path d="M15.997 19.4864C19.3115 19.4864 22.1499 20.3753 23.3733 21.6279C23.777 20.7332 24 19.7404 24 18.7071C24 14.5627 20.4143 11.209 15.997 11.209C11.5797 11.209 8 14.5627 8 18.7129C8 19.7461 8.229 20.7332 8.62674 21.6279C9.84407 20.3753 12.6825 19.4864 15.997 19.4864Z" fill="#0083CA"/>
<path d="M15.997 19.492C19.3054 19.492 22.1318 20.3752 23.3491 21.6162C23.7529 20.7331 23.9759 19.746 23.9759 18.7186C23.9759 14.603 20.4022 11.2666 15.997 11.2666C11.5917 11.2666 8.01807 14.6087 8.01807 18.7243C8.01807 19.7518 8.24104 20.7331 8.64481 21.6162C9.86213 20.3694 12.6945 19.492 15.997 19.492Z" fill="#0085CB"/>
<path d="M15.997 19.5039C19.2994 19.5039 22.1198 20.3755 23.331 21.6108C23.7348 20.7334 23.9578 19.7579 23.9578 18.7362C23.9578 14.6552 20.3902 11.3362 15.997 11.3362C11.6037 11.3362 8.03613 14.661 8.03613 18.7362C8.03613 19.7521 8.25911 20.7276 8.66287 21.605C9.87417 20.3697 12.7005 19.4981 15.9909 19.4981L15.997 19.5039Z" fill="#0086CD"/>
<path d="M15.997 19.5094C19.2874 19.5094 22.1017 20.3752 23.313 21.599C23.7168 20.7273 23.9338 19.7576 23.9338 18.7475C23.9338 14.7011 20.3782 11.3994 15.991 11.3994C11.6038 11.3994 8.0603 14.7069 8.0603 18.7532C8.0603 19.7634 8.28328 20.7273 8.68704 21.599C9.89834 20.3752 12.7127 19.5094 15.997 19.5094Z" fill="#0088CE"/>
<path d="M15.991 19.5153C19.2754 19.5153 22.0836 20.3754 23.2889 21.5876C23.6867 20.7217 23.9096 19.7635 23.9096 18.7592C23.9096 14.7475 20.3601 11.4573 15.991 11.4573C11.6219 11.4573 8.07837 14.7532 8.07837 18.7649C8.07837 19.7693 8.30134 20.7217 8.69908 21.5876C9.90436 20.3754 12.7126 19.5153 15.991 19.5153Z" fill="#008ACF"/>
<path d="M15.991 19.5267C19.2633 19.5267 22.0656 20.381 23.2708 21.5816C23.6686 20.7273 23.8915 19.7691 23.8915 18.7763C23.8915 14.7992 20.3541 11.5264 15.991 11.5264C11.6279 11.5264 8.09644 14.7992 8.09644 18.7821C8.09644 19.7749 8.31941 20.7273 8.71715 21.5816C9.92242 20.3752 12.7247 19.5267 15.991 19.5267Z" fill="#008CD0"/>
<path d="M15.991 19.5327C19.2573 19.5327 22.0475 20.3754 23.2527 21.5703C23.6505 20.7218 23.8734 19.7751 23.8734 18.7881C23.8734 14.8399 20.342 11.5901 15.997 11.5901C11.652 11.5901 8.1145 14.8514 8.1145 18.7938C8.1145 19.7809 8.33748 20.7218 8.73522 21.5703C9.93446 20.3754 12.7307 19.5327 15.991 19.5327Z" fill="#008ED2"/>
<path d="M15.991 19.5442C19.2453 19.5442 22.0355 20.3812 23.2347 21.5645C23.6325 20.7217 23.8494 19.7866 23.8494 18.8054C23.8494 14.8918 20.33 11.6536 15.991 11.6536C11.652 11.6536 8.13867 14.8976 8.13867 18.8111C8.13867 19.7866 8.36165 20.7217 8.75939 21.5645C9.95261 20.3812 12.7428 19.5442 15.9971 19.5442H15.991Z" fill="#008FD3"/>
<path d="M15.991 19.5498C19.2392 19.5498 22.0174 20.381 23.2106 21.5528C23.6083 20.7158 23.8253 19.7865 23.8253 18.8225C23.8253 14.9436 20.3119 11.7227 15.985 11.7227C11.6581 11.7227 8.15674 14.9436 8.15674 18.8225C8.15674 19.7922 8.37971 20.7158 8.77143 21.5528C9.96465 20.381 12.7488 19.5498 15.985 19.5498H15.991Z" fill="#0091D4"/>
<path d="M15.991 19.5556C19.2332 19.5556 22.0053 20.3752 23.1925 21.5412C23.5902 20.7158 23.8072 19.7922 23.8072 18.834C23.8072 14.9897 20.3059 11.7861 15.991 11.7861C11.6761 11.7861 8.1748 14.9897 8.1748 18.834C8.1748 19.7922 8.39778 20.7158 8.78949 21.5412C9.97669 20.3752 12.7548 19.5556 15.985 19.5556H15.991Z" fill="#0093D5"/>
<path d="M15.985 19.5673C19.2151 19.5673 21.9812 20.3812 23.1684 21.5357C23.5661 20.716 23.7831 19.804 23.7831 18.8516C23.7831 15.0419 20.2878 11.8499 15.985 11.8499C11.6821 11.8499 8.19287 15.0361 8.19287 18.8516C8.19287 19.804 8.41585 20.716 8.80756 21.5357C9.99475 20.3812 12.7609 19.5673 15.985 19.5673Z" fill="#0095D7"/>
<path d="M15.9849 19.5731C19.2091 19.5731 21.9631 20.3812 23.1503 21.5241C23.542 20.7102 23.765 19.804 23.765 18.8631C23.765 15.0823 20.2817 11.9133 15.9849 11.9133C11.6881 11.9133 8.21094 15.0881 8.21094 18.8631C8.21094 19.8098 8.42789 20.7102 8.82563 21.5241C10.0068 20.3812 12.7669 19.5731 15.9849 19.5731Z" fill="#0097D8"/>
<path d="M15.985 19.5845C19.1971 19.5845 21.9511 20.3868 23.1323 21.5182C23.524 20.71 23.741 19.8153 23.741 18.8802C23.741 15.1341 20.2698 11.9824 15.985 11.9824C11.7003 11.9824 8.23511 15.1341 8.23511 18.8802C8.23511 19.8153 8.45206 20.71 8.84377 21.5182C10.0249 20.3868 12.779 19.5845 15.985 19.5845Z" fill="#0099D9"/>
<path d="M15.985 19.5901C19.191 19.5901 21.933 20.3809 23.1142 21.5065C23.5059 20.7099 23.7229 19.8152 23.7229 18.8917C23.7229 15.1801 20.2577 12.04 15.985 12.04C11.7123 12.04 8.25317 15.1801 8.25317 18.8917C8.25317 19.821 8.47012 20.7099 8.86184 21.5065C10.037 20.3809 12.785 19.5901 15.985 19.5901Z" fill="#009BDA"/>
<path d="M15.985 19.5961C19.185 19.5961 21.921 20.3811 23.0961 21.4952C23.4878 20.7044 23.7048 19.8212 23.7048 18.9035C23.7048 15.2265 20.2517 12.1038 15.991 12.1038C11.7304 12.1038 8.27124 15.2265 8.27124 18.9092C8.27124 19.827 8.48819 20.7102 8.8799 21.501C10.055 20.3869 12.791 19.6019 15.985 19.6019V19.5961Z" fill="#009DDC"/>
<path d="M15.9789 19.6076C19.1669 19.6076 21.8968 20.3869 23.066 21.4894C23.4577 20.7044 23.6746 19.8328 23.6746 18.9208C23.6746 15.2727 20.2275 12.1672 15.9789 12.1672C11.7304 12.1672 8.28931 15.2785 8.28931 18.9208C8.28931 19.8328 8.50626 20.7044 8.89797 21.4894C10.0671 20.3869 12.797 19.6076 15.9789 19.6076Z" fill="#009FDD"/>
<path d="M15.979 19.6134C19.1609 19.6134 21.8788 20.3869 23.0479 21.4778C23.4397 20.6986 23.6506 19.8327 23.6506 18.9323C23.6506 15.3189 20.2155 12.2307 15.973 12.2307C11.7304 12.2307 8.31348 15.3246 8.31348 18.9323C8.31348 19.8385 8.53043 20.6986 8.92214 21.4778C10.0913 20.3869 12.8152 19.6134 15.985 19.6134H15.979Z" fill="#00A1DE"/>
<path d="M15.979 19.625C19.1489 19.625 21.8668 20.387 23.0299 21.4721C23.4216 20.7044 23.6325 19.8444 23.6325 18.9497C23.6325 15.3709 20.2035 12.3 15.979 12.3C11.7545 12.3 8.33154 15.3709 8.33154 18.9497C8.33154 19.8444 8.54849 20.6987 8.93418 21.4721C10.0973 20.387 12.8152 19.625 15.979 19.625Z" fill="#00A3DF"/>
<path d="M15.979 19.6307C19.1428 19.6307 21.8487 20.3868 23.0118 21.4605C23.4035 20.6985 23.6144 19.85 23.6144 18.9611C23.6144 15.417 20.1974 12.3577 15.979 12.3577C11.7605 12.3577 8.34961 15.417 8.34961 18.9611C8.34961 19.85 8.56656 20.6985 8.95225 21.4605C10.1153 20.3868 12.8212 19.6307 15.979 19.6307Z" fill="#00A5E1"/>
<path d="M15.979 19.6364C19.1308 19.6364 21.8366 20.3868 22.9937 21.4489C23.3793 20.6928 23.5963 19.85 23.5963 18.9726C23.5963 15.4631 20.1854 12.4211 15.979 12.4211C11.7726 12.4211 8.36768 15.4631 8.36768 18.9784C8.36768 19.8558 8.58462 20.6985 8.97031 21.4547C10.1274 20.3926 12.8332 19.6422 15.979 19.6422V19.6364Z" fill="#00A7E2"/>
<path d="M15.979 19.6481C19.1247 19.6481 21.8185 20.3927 22.9756 21.4432C23.3613 20.6928 23.5782 19.8616 23.5782 18.99C23.5782 15.5094 20.1793 12.4905 15.985 12.4905C11.7906 12.4905 8.38574 15.5151 8.38574 18.99C8.38574 19.8616 8.60269 20.6928 8.98838 21.4432C10.1454 20.3927 12.8392 19.6481 15.979 19.6481Z" fill="#00A9E3"/>
<path d="M15.9728 19.654C19.1125 19.654 21.7942 20.387 22.9453 21.4318C23.3309 20.693 23.5419 19.8675 23.5419 19.0017C23.5419 15.5557 20.149 12.5483 15.9667 12.5483C11.7844 12.5483 8.40967 15.5614 8.40967 19.0075C8.40967 19.8675 8.62059 20.693 9.00628 21.4376C10.1573 20.3928 12.8451 19.6597 15.9788 19.6597L15.9728 19.654Z" fill="#00ABE5"/>
<path d="M15.973 19.6653C19.1007 19.6653 21.7824 20.3926 22.9274 21.4259C23.3131 20.6928 23.524 19.8731 23.524 19.0188C23.524 15.6075 20.1432 12.6174 15.973 12.6174C11.8027 12.6174 8.42798 15.6075 8.42798 19.0188C8.42798 19.8731 8.6389 20.6928 9.02459 21.4259C10.1756 20.3926 12.8513 19.6653 15.973 19.6653Z" fill="#00ADE6"/>
<path d="M15.973 19.6711C19.0946 19.6711 21.7643 20.3926 22.9093 21.4143C23.295 20.687 23.5059 19.8789 23.5059 19.0304C23.5059 15.6536 20.1312 12.6809 15.973 12.6809C11.8148 12.6809 8.44604 15.6536 8.44604 19.0304C8.44604 19.8789 8.65697 20.687 9.04266 21.4143C10.1877 20.3926 12.8634 19.6711 15.973 19.6711Z" fill="#00AFE7"/>
<path d="M15.973 19.6768C19.0826 19.6768 21.7522 20.3925 22.8912 21.4027C23.2769 20.6811 23.4878 19.8788 23.4878 19.0418C23.4878 15.6997 20.1251 12.7385 15.973 12.7385C11.8208 12.7385 8.46411 15.7055 8.46411 19.0476C8.46411 19.8846 8.67503 20.6869 9.06072 21.4084C10.2057 20.3983 12.8694 19.6825 15.973 19.6825V19.6768Z" fill="#00B2E9"/>
<path d="M15.9729 19.6884C19.0765 19.6884 21.7342 20.3926 22.8731 21.3969C23.2588 20.687 23.4637 19.8904 23.4637 19.0592C23.4637 15.7459 20.107 12.8079 15.9729 12.8079C11.8389 12.8079 8.48218 15.7517 8.48218 19.0592C8.48218 19.8904 8.6931 20.6812 9.07276 21.3969C10.2117 20.3926 12.8694 19.6884 15.9669 19.6884H15.9729Z" fill="#00B4EA"/>
<path d="M15.9728 19.6942C19.0703 19.6942 21.7159 20.3927 22.8549 21.3855C23.2345 20.6813 23.4455 19.8962 23.4455 19.0766C23.4455 15.7979 20.1008 12.8772 15.9728 12.8772C11.8447 12.8772 8.5061 15.7979 8.5061 19.0766C8.5061 19.8962 8.71703 20.687 9.09669 21.3912C10.2357 20.3984 12.8873 19.7 15.9728 19.7V19.6942Z" fill="#00B6EB"/>
<path d="M15.967 19.7057C19.0525 19.7057 21.698 20.3984 22.831 21.3797C23.2107 20.6812 23.4216 19.902 23.4216 19.0939C23.4216 15.8499 20.083 12.9407 15.973 12.9407C11.863 12.9407 8.52441 15.8441 8.52441 19.0881C8.52441 19.902 8.73534 20.6812 9.115 21.3797C10.248 20.3984 12.8935 19.7057 15.973 19.7057H15.967Z" fill="#00B8ED"/>
<path d="M15.967 19.7115C19.0464 19.7115 21.68 20.3984 22.8069 21.3681C23.1865 20.6755 23.3975 19.9077 23.3975 19.1054C23.3975 15.896 20.0709 13.0042 15.967 13.0042C11.863 13.0042 8.54248 15.896 8.54248 19.1054C8.54248 19.9135 8.7534 20.6812 9.13306 21.3681C10.266 20.3926 12.8995 19.7115 15.973 19.7115H15.967Z" fill="#01BBEE"/>
<path d="M15.9669 19.7172C19.0344 19.7172 21.6679 20.3926 22.7888 21.3566C23.1685 20.6754 23.3734 19.9135 23.3734 19.1169C23.3734 15.9422 20.0528 13.0676 15.9609 13.0676C11.869 13.0676 8.56055 15.9422 8.56055 19.1169C8.56055 19.9135 8.77147 20.6754 9.1451 21.3566C10.272 20.3926 12.8995 19.7172 15.9609 19.7172H15.9669Z" fill="#11BDF0"/>
<path d="M15.9668 19.7288C19.0282 19.7288 21.6496 20.3984 22.7705 21.3508C23.1502 20.6754 23.3551 19.9193 23.3551 19.1342C23.3551 15.9884 20.0466 13.1311 15.9668 13.1311C11.8869 13.1311 8.58447 15.9884 8.58447 19.1285C8.58447 19.9193 8.7954 20.6754 9.16903 21.345C10.2899 20.3926 12.9174 19.723 15.9668 19.723V19.7288Z" fill="#1AC0F1"/>
<path d="M15.9668 19.7345C19.0161 19.7345 21.6315 20.3983 22.7524 21.3392C23.1321 20.6696 23.337 19.925 23.337 19.1458C23.337 16.0345 20.0346 13.1946 15.9668 13.1946C11.899 13.1946 8.60254 16.0345 8.60254 19.1458C8.60254 19.925 8.80744 20.6754 9.1871 21.3392C10.308 20.3983 12.9234 19.7345 15.9668 19.7345Z" fill="#1FC4F4"/>
<path d="M15.9668 19.7519C19.0162 19.7519 21.6256 20.4099 22.7405 21.345C23.1201 20.6812 23.325 19.9424 23.325 19.1631C23.325 16.075 20.0286 13.2466 15.9668 13.2466C11.9051 13.2466 8.60864 16.0808 8.60864 19.1689C8.60864 19.9424 8.81354 20.687 9.1932 21.3508C10.3141 20.4157 12.9235 19.7577 15.9668 19.7577V19.7519Z" fill="#32C5F4"/>
<path d="M15.9667 19.7751C19.0101 19.7751 21.6195 20.4273 22.7344 21.3566C23.114 20.6986 23.3189 19.9598 23.3189 19.1921C23.3189 16.1212 20.0285 13.3159 15.9667 13.3159C11.905 13.3159 8.62061 16.1212 8.62061 19.1921C8.62061 19.9655 8.8255 20.6986 9.20516 21.3566C10.32 20.4273 12.9295 19.7751 15.9667 19.7751Z" fill="#3FC7F4"/>
<path d="M15.9669 19.7923C19.0042 19.7923 21.6136 20.4445 22.7225 21.3681C23.0961 20.71 23.307 19.9827 23.307 19.215C23.307 16.1673 20.0226 13.3735 15.9669 13.3735C11.9112 13.3735 8.63281 16.1615 8.63281 19.2093C8.63281 19.977 8.83771 20.7043 9.21134 21.3623C10.3262 20.4388 12.9296 19.7865 15.9669 19.7865V19.7923Z" fill="#4AC8F5"/>
<path d="M15.967 19.8097C19.0043 19.8097 21.6016 20.4562 22.7165 21.374C23.0901 20.7217 23.295 19.9944 23.295 19.2383C23.295 16.2078 20.0107 13.4314 15.967 13.4314C11.9233 13.4314 8.63892 16.2078 8.63892 19.2325C8.63892 19.9944 8.84381 20.7217 9.21745 21.3682C10.3323 20.4504 12.9357 19.8039 15.961 19.8039L15.967 19.8097Z" fill="#54CAF5"/>
<path d="M15.9669 19.8269C18.9981 19.8269 21.5955 20.4676 22.7044 21.3797C23.078 20.7332 23.2829 20.0116 23.2829 19.2555C23.2829 16.2424 20.0046 13.489 15.9609 13.489C11.9172 13.489 8.65088 16.2481 8.65088 19.2555C8.65088 20.0116 8.85578 20.7332 9.22941 21.3797C10.3443 20.4676 12.9417 19.8269 15.9669 19.8269Z" fill="#5CCCF5"/>
<path d="M15.9668 19.8441C18.992 19.8441 21.5894 20.4791 22.6982 21.3853C23.0719 20.7446 23.2768 20.0289 23.2768 19.2785C23.2768 16.2884 20.0045 13.5466 15.9668 13.5466C11.9291 13.5466 8.66284 16.2884 8.66284 19.2785C8.66284 20.0289 8.86774 20.7446 9.24137 21.3911C10.3502 20.4849 12.9476 19.8499 15.9668 19.8499V19.8441Z" fill="#64CDF6"/>
<path d="M15.9669 19.8674C18.9921 19.8674 21.5834 20.5023 22.6863 21.397C23.0599 20.7563 23.2648 20.0463 23.2648 19.3017C23.2648 16.329 19.9985 13.6045 15.9669 13.6045C11.9352 13.6045 8.66895 16.3348 8.66895 19.3017C8.66895 20.0463 8.87384 20.7563 9.24748 21.397C10.3563 20.4965 12.9477 19.8674 15.9608 19.8674H15.9669Z" fill="#6CCFF6"/>
<path d="M15.9668 19.8848C18.986 19.8848 21.5713 20.5139 22.6802 21.4086C23.0538 20.7737 23.2587 20.0695 23.2587 19.3306C23.2587 16.381 19.9924 13.6738 15.9668 13.6738C11.9412 13.6738 8.68091 16.3752 8.68091 19.3248C8.68091 20.0637 8.8858 20.7737 9.25944 21.4086C10.3683 20.5139 12.9536 19.8848 15.9668 19.8848Z" fill="#73D1F6"/>
<path d="M15.9669 19.9021C18.9801 19.9021 21.5654 20.5255 22.6683 21.4145C23.0419 20.7853 23.2468 20.0811 23.2468 19.348C23.2468 16.4157 19.9865 13.7258 15.9669 13.7258C11.9474 13.7258 8.69312 16.4157 8.69312 19.348C8.69312 20.0811 8.89801 20.7853 9.27165 21.4145C10.3745 20.5255 12.9598 19.9021 15.9669 19.9021Z" fill="#7AD2F7"/>
<path d="M15.9668 19.9193C18.98 19.9193 21.5592 20.537 22.6621 21.4201C23.0357 20.7967 23.2406 20.0983 23.2406 19.371C23.2406 16.4618 19.9864 13.7834 15.9728 13.7834C11.9592 13.7834 8.69897 16.4618 8.69897 19.371C8.69897 20.104 8.90387 20.7967 9.27148 21.4259C10.3743 20.5427 12.9596 19.9251 15.9607 19.9251L15.9668 19.9193Z" fill="#81D4F7"/>
<path d="M15.9669 19.9367C18.9741 19.9367 21.5534 20.5543 22.6502 21.4259C23.0238 20.8025 23.2287 20.1156 23.2287 19.3883C23.2287 16.4965 19.9805 13.8354 15.9669 13.8354C11.9534 13.8354 8.71118 16.5022 8.71118 19.3883C8.71118 20.1156 8.91608 20.8025 9.28369 21.4259C10.3865 20.5486 12.9658 19.9367 15.9609 19.9367H15.9669Z" fill="#88D6F8"/>
<path d="M15.9668 19.9596C18.968 19.9596 21.5412 20.5715 22.644 21.4373C23.0117 20.8197 23.2166 20.1328 23.2166 19.417C23.2166 16.5482 19.9683 13.9045 15.9668 13.9045C11.9653 13.9045 8.72314 16.5425 8.72314 19.4113C8.72314 20.1328 8.92804 20.8197 9.29565 21.4373C10.3985 20.5715 12.9717 19.9596 15.9668 19.9596Z" fill="#8ED8F8"/>
<path d="M15.9669 19.9771C18.968 19.9771 21.5353 20.5832 22.6321 21.449C22.9997 20.8371 23.2046 20.156 23.2046 19.4403C23.2046 16.5888 19.9624 13.9624 15.9669 13.9624C11.9714 13.9624 8.72925 16.5888 8.72925 19.4345C8.72925 20.1502 8.93414 20.8314 9.30175 21.4432C10.3986 20.5832 12.9718 19.9713 15.9609 19.9713L15.9669 19.9771Z" fill="#94DAF8"/>
<path d="M15.9668 19.9944C18.9619 19.9944 21.5292 20.5947 22.6199 21.4547C22.9875 20.8487 23.1924 20.1675 23.1924 19.4633C23.1924 16.6349 19.9563 14.0259 15.9608 14.0259C11.9653 14.0259 8.74121 16.6292 8.74121 19.4576C8.74121 20.1675 8.94611 20.8429 9.31372 21.4547C10.4105 20.6005 12.9777 19.9944 15.9668 19.9944Z" fill="#9BDCF9"/>
<path d="M15.9667 20.0117C18.9558 20.0117 21.523 20.6121 22.6138 21.4606C22.9814 20.8545 23.1863 20.1849 23.1863 19.4807C23.1863 16.6696 19.9502 14.0779 15.9667 14.0779C11.9833 14.0779 8.75317 16.6696 8.75317 19.4807C8.75317 20.1849 8.95807 20.8545 9.32568 21.4606C10.4225 20.6121 12.9837 20.0117 15.9667 20.0117Z" fill="#A1DDF9"/>
<path d="M15.9668 20.029C18.9559 20.029 21.5111 20.6235 22.6018 21.4662C22.9694 20.8659 23.1743 20.2021 23.1743 19.5037C23.1743 16.7157 19.9442 14.1355 15.9668 14.1355C11.9894 14.1355 8.75928 16.7157 8.75928 19.5037C8.75928 20.2021 8.96417 20.8717 9.33178 21.472C10.4286 20.6293 12.9898 20.0347 15.9668 20.0347V20.029Z" fill="#A7DFF9"/>
<path d="M15.967 20.0463C18.95 20.0463 21.5052 20.6351 22.596 21.4721C22.9636 20.8775 23.1685 20.2137 23.1685 19.521C23.1685 16.7504 19.9444 14.1875 15.967 14.1875C11.9896 14.1875 8.77148 16.7561 8.77148 19.5268C8.77148 20.2253 8.97638 20.8833 9.34399 21.4778C10.4348 20.6409 12.996 20.0521 15.967 20.0521V20.0463Z" fill="#ADE1FA"/>
<path d="M15.9669 20.0695C18.9439 20.0695 21.4991 20.6582 22.5838 21.4837C22.9514 20.8891 23.1563 20.2369 23.1563 19.55C23.1563 16.8024 19.9383 14.2568 15.9669 14.2568C11.9955 14.2568 8.78345 16.8024 8.78345 19.5442C8.78345 20.2369 8.98834 20.8891 9.34993 21.4837C10.4407 20.6525 12.9959 20.0695 15.9669 20.0637V20.0695Z" fill="#B3E3FA"/>
<path d="M15.967 20.0867C18.9379 20.0867 21.4931 20.6697 22.5779 21.4951C22.9455 20.9063 23.1444 20.2599 23.1444 19.573C23.1444 16.8427 19.9263 14.3145 15.967 14.3145C12.0076 14.3145 8.78955 16.8427 8.78955 19.5672C8.78955 20.2541 8.99445 20.9006 9.35603 21.4893C10.4468 20.6639 12.996 20.0809 15.9609 20.0809L15.967 20.0867Z" fill="#B8E5FA"/>
<path d="M15.9669 20.1041C18.9379 20.1041 21.481 20.6814 22.5657 21.501C22.9333 20.918 23.1322 20.2715 23.1322 19.5962C23.1322 16.889 19.9202 14.3723 15.9608 14.3723C12.0015 14.3723 8.80151 16.8832 8.80151 19.5904C8.80151 20.2715 9.00641 20.918 9.36799 21.501C10.4527 20.6814 13.0019 20.1041 15.9669 20.1041Z" fill="#BEE7FB"/>
<path d="M15.9668 20.1214C18.9317 20.1214 21.4749 20.6928 22.5596 21.5067C22.9212 20.9295 23.1261 20.2888 23.1261 19.6134C23.1261 16.9235 19.9201 14.4299 15.9668 14.4299C12.0135 14.4299 8.81348 16.9293 8.81348 19.6134C8.81348 20.2888 9.01837 20.9295 9.37995 21.5067C10.4647 20.6928 13.0078 20.1214 15.9668 20.1214Z" fill="#C4E9FB"/>
<path d="M15.9669 20.1387C18.9258 20.1387 21.4689 20.7102 22.5476 21.5125C22.9092 20.9353 23.1141 20.3003 23.1141 19.6308C23.1141 16.964 19.9141 14.4819 15.9669 14.4819C12.0196 14.4819 8.81958 16.9698 8.81958 19.6365C8.81958 20.3061 9.02448 20.9411 9.38606 21.5183C10.4708 20.7102 13.0139 20.1445 15.9669 20.1445V20.1387Z" fill="#CAEBFC"/>
<path d="M15.9668 20.1618C18.9257 20.1618 21.4628 20.7275 22.5415 21.524C22.9031 20.9526 23.108 20.3234 23.108 19.6596C23.108 17.0102 19.908 14.5454 15.9668 14.5454C12.0255 14.5454 8.83154 17.0102 8.83154 19.6596C8.83154 20.3234 9.03041 20.9526 9.39802 21.524C10.4828 20.7217 13.0199 20.1618 15.9668 20.156V20.1618Z" fill="#CFEDFC"/>
<path d="M15.9669 20.1791C18.9198 20.1791 21.4509 20.739 22.5296 21.5356C22.8912 20.9699 23.0961 20.3465 23.0961 19.6827C23.0961 17.0563 19.9021 14.6089 15.9669 14.6089C12.0317 14.6089 8.84375 17.0563 8.84375 19.6827C8.84375 20.3407 9.04262 20.9699 9.41023 21.5356C10.4889 20.739 13.026 20.1791 15.9729 20.1791H15.9669Z" fill="#D5EFFC"/>
<path d="M15.9667 20.1963C18.9136 20.1963 21.4447 20.7504 22.5234 21.5412C22.885 20.9813 23.0899 20.3579 23.0899 19.7057C23.0899 17.0966 19.902 14.6665 15.9728 14.6665C12.0436 14.6665 8.84961 17.0966 8.84961 19.6999C8.84961 20.3579 9.04848 20.9756 9.41006 21.5355C10.4888 20.7447 13.0199 20.1905 15.9607 20.1905L15.9667 20.1963Z" fill="#DAF1FD"/>
<path d="M15.9669 20.2137C18.9138 20.2137 21.4388 20.7678 22.5115 21.5471C22.8731 20.9872 23.078 20.3753 23.078 19.723C23.078 17.1313 19.8961 14.7185 15.9669 14.7185C12.0377 14.7185 8.86182 17.1371 8.86182 19.723C8.86182 20.3753 9.06069 20.9872 9.42227 21.5471C10.501 20.762 13.026 20.2137 15.9669 20.2137Z" fill="#E0F3FD"/>
<path d="M15.967 20.231C18.9078 20.231 21.4269 20.7793 22.5056 21.5528C22.8672 20.9987 23.066 20.3868 23.066 19.7461C23.066 17.1775 19.8841 14.782 15.967 14.782C12.0498 14.782 8.86792 17.1832 8.86792 19.7461C8.86792 20.3926 9.06679 20.9987 9.42837 21.5586C10.5011 20.7851 13.0261 20.2367 15.961 20.2367L15.967 20.231Z" fill="#E6F5FD"/>
<path d="M15.9669 20.2542C18.9017 20.2542 21.4207 20.7968 22.4934 21.5645C22.855 21.0161 23.0539 20.4101 23.0539 19.7693C23.0539 17.218 19.878 14.8398 15.9669 14.8398C12.0558 14.8398 8.87988 17.2238 8.87988 19.7693C8.87988 20.4101 9.07875 21.0161 9.44033 21.5645C10.513 20.7968 13.0381 20.2542 15.9669 20.2484V20.2542Z" fill="#EBF7FE"/>
<path d="M15.9668 20.2715C18.9016 20.2715 21.4146 20.8083 22.4813 21.576C22.8429 21.0334 23.0418 20.4331 23.0418 19.7982C23.0418 17.2699 19.8719 14.9033 15.9608 14.9033C12.0497 14.9033 8.89185 17.2642 8.89185 19.7924C8.89185 20.4274 9.09072 21.0277 9.4523 21.576C10.525 20.8141 13.044 20.2715 15.9668 20.2715Z" fill="#F1FAFE"/>
<path d="M15.9669 20.2887C18.8957 20.2887 21.4087 20.8255 22.4754 21.5817C22.8309 21.0391 23.0358 20.4446 23.0358 19.8154C23.0358 17.3045 19.8659 14.9609 15.9669 14.9609C12.0678 14.9609 8.89795 17.3102 8.89795 19.8154C8.89795 20.4446 9.09682 21.0391 9.4584 21.5817C10.5311 20.8255 13.0441 20.2887 15.9669 20.2887Z" fill="#F7FCFE"/>
<path d="M15.9668 20.3059C18.8896 20.3059 21.3965 20.837 22.4632 21.5874C22.8188 21.0505 23.0237 20.4618 23.0237 19.8384C23.0237 17.3505 19.8598 15.0186 15.9668 15.0186C12.0738 15.0186 8.90991 17.3505 8.90991 19.8384C8.90991 20.4618 9.10878 21.0505 9.47036 21.5931C10.537 20.8427 13.05 20.3117 15.9668 20.3117V20.3059Z" fill="white"/>
</g>
<path d="M15.9306 17.824C13.3694 17.824 11.001 18.2396 9.04248 18.9438C10.2176 21.4663 12.8572 23.221 15.9306 23.221C19.0041 23.221 21.6376 21.4605 22.8127 18.9438C20.8542 18.2396 18.4798 17.824 15.9246 17.824H15.9306Z" fill="#0083CA"/>
</g>
<defs>
<clipPath id="clip0_13983_1770">
<rect width="16" height="15.1579" fill="white" transform="translate(8 8.42114)"/>
</clipPath>
</defs>
</svg>
