<svg width="24" height="24" viewBox="0 0 24 24" fill="none" xmlns="http://www.w3.org/2000/svg">
<path d="M0 9C0 4.02944 4.02944 0 9 0H15C19.9706 0 24 4.02944 24 9V15C24 19.9706 19.9706 24 15 24H9C4.02944 24 0 19.9706 0 15V9Z" fill="#F4731E"/>
<g clip-path="url(#clip0_23311_12172)">
<path d="M10.1683 12.5072C9.98696 10.8568 11.7157 9.53118 14.0311 9.55134C16.3465 9.57149 18.3708 10.9218 18.5522 12.5699C18.7336 14.2225 17.0049 15.5437 14.6895 15.5257C12.374 15.5101 10.3497 14.1575 10.1683 12.5072ZM18.9844 13.02C18.7761 10.9733 16.4451 9.29606 13.7803 9.27366C11.1133 9.25127 9.12483 10.8927 9.33309 12.9394C9.54134 14.9861 11.8724 16.6633 14.5372 16.6857C17.2019 16.7058 19.1949 15.0667 18.9844 13.02Z" fill="white"/>
<path d="M14.9604 16.7261C13.6481 18.0988 11.541 18.213 10.2534 16.9814C8.96803 15.7498 8.98819 13.6404 10.3026 12.27C11.6149 10.8995 13.7243 10.7853 15.0074 12.0147C16.2927 13.2463 16.2726 15.3557 14.9581 16.7261M10.0989 12.2252C8.57392 13.8196 8.54929 16.2716 10.0429 17.7025C11.5365 19.1334 13.9863 19.0013 15.5112 17.4069C17.0384 15.8125 17.063 13.3605 15.5672 11.9296C14.0736 10.4987 11.6238 10.6308 10.0966 12.2252" fill="white"/>
<path d="M10.2376 7.09295C12.9673 6.06959 15.6679 7.10414 16.268 9.40389C16.8681 11.7036 15.1416 14.3997 12.412 15.4208C9.68227 16.4442 6.98169 15.4096 6.38157 13.1099C5.7792 10.8102 7.50793 8.1163 10.2376 7.09295ZM7.70274 7.97074C4.87005 10.2145 4.149 13.4637 6.09046 15.2283C8.03416 16.9951 11.9036 16.6077 14.7386 14.3639C17.5713 12.1224 18.2923 8.87318 16.3486 7.10638C14.4049 5.34183 10.5332 5.72922 7.70274 7.97074Z" fill="white"/>
</g>
<defs>
<clipPath id="clip0_23311_12172">
<rect width="14" height="12.6945" fill="white" transform="translate(5 6)"/>
</clipPath>
</defs>
</svg>
