<svg width="24" height="24" viewBox="0 0 24 24" fill="none" xmlns="http://www.w3.org/2000/svg">
<path d="M0 9C0 4.02944 4.02944 0 9 0H15C19.9706 0 24 4.02944 24 9V15C24 19.9706 19.9706 24 15 24H9C4.02944 24 0 19.9706 0 15V9Z" fill="#E2E8EF"/>
<mask id="mask0_23315_219463" style="mask-type:luminance" maskUnits="userSpaceOnUse" x="6" y="6" width="12" height="12">
<path d="M8.86505 6.00024C8.58411 6.00024 7.9968 6.10375 7.86096 6.88876L6.68113 15.9643C6.60309 16.5412 6.82507 17.0002 7.58059 17.0002H8.78816C9.07777 17.0002 9.13154 16.8262 9.14657 16.695L9.46277 11.6884C9.49456 11.2202 9.73041 11.1196 9.89573 11.0277L14.9723 8.21134C15.2029 8.09515 15.3694 8.36282 15.192 8.50849L11.2733 11.748C10.7432 12.1607 11.1548 12.6717 11.1548 12.6717L14.5613 16.7372C14.6648 16.8754 14.8272 16.9921 15.1191 16.9921H17.0429C17.5343 16.9921 17.7418 16.3806 17.3568 16.0551L14.0098 12.9781C13.9751 12.9411 14.0052 12.8838 14.0468 12.8914L17.4256 13.5659C17.5637 13.592 17.6857 13.5157 17.6857 13.3862V10.9202C17.6857 10.7745 17.5533 10.7149 17.4181 10.745L14.0699 11.4612C13.989 11.4786 13.9774 11.4086 14.0179 11.3734L16.2215 8.91889C16.9602 8.08706 16.8389 7.65296 16.6007 7.29514C16.3856 6.972 16.0012 6.8026 15.0977 7.07949L9.87724 8.67206C9.71307 8.7131 9.6622 8.63159 9.66856 8.52176C9.70902 7.90323 9.81828 6.18004 9.81828 6.18004C9.82579 6.05056 9.73041 6.00024 9.63098 6.00024H8.86505Z" fill="white"/>
</mask>
<g mask="url(#mask0_23315_219463)">
<path d="M3.88799 5.34033V5.92016C3.87909 5.9283 3.86985 5.93639 3.86138 5.94475C3.73912 6.01239 3.63787 6.08598 3.55774 6.16611C2.49421 7.22964 1.64412 15.5227 2.68417 16.704C2.78448 16.8179 2.9278 16.9188 3.11771 17.0079V17.5686H5.7189V17.5697L14.5698 17.6718L18.1825 17.6713V6.11062H13.2691L3.88799 5.34033Z" fill="url(#paint0_linear_23315_219463)"/>
</g>
<defs>
<linearGradient id="paint0_linear_23315_219463" x1="7.83237" y1="12.1022" x2="16.768" y2="11.0238" gradientUnits="userSpaceOnUse">
<stop stop-color="#32ABE3"/>
<stop offset="0.284658" stop-color="#1099D7"/>
<stop offset="0.536916" stop-color="#0390D1"/>
<stop offset="0.741674" stop-color="#007DC1"/>
<stop offset="1" stop-color="#006EB3"/>
</linearGradient>
</defs>
</svg>
