<svg width="60" height="24" viewBox="0 0 60 24" fill="none" xmlns="http://www.w3.org/2000/svg">
<g clip-path="url(#clip0_10263_31394)">
<path d="M47.9193 1C53.9659 1 58.8696 5.9259 58.8696 12C58.8696 18.0741 53.9659 23 47.9193 23H11.9503C5.90364 23 1 18.0741 1 12C1 5.9259 5.90364 1 11.9503 1H47.9193Z" fill="#00DE5A"/>
<path d="M11.9685 19.9736C7.57705 19.9736 4.01715 16.4033 4.01715 11.9991C4.01715 7.59494 7.57705 4.02466 11.9685 4.02466C16.3599 4.02466 19.9198 7.59494 19.9198 11.9991C19.9219 16.4033 16.3619 19.9736 11.9685 19.9736ZM13.504 8.0098V12.3952L10.4309 8.0098H7.99279V15.9843H10.435V11.599L13.5082 15.9843H15.9462V8.0098H13.504Z" fill="black"/>
<path d="M51.3295 6.93373L48.973 12.352L46.3699 6.93373H43.9924L47.9326 14.6233L46.349 18.1852H48.5948L53.5733 6.93373H51.3295ZM40.677 15.5556H42.8058V6.93163H40.677V7.63982C39.9457 7.04897 39.1184 6.74097 38.1157 6.74097C35.6943 6.74097 33.7974 8.73563 33.7974 11.2415C33.7974 13.7474 35.6943 15.7421 38.1157 15.7421C39.1184 15.7421 39.9457 15.4341 40.677 14.8433V15.5556ZM38.4248 13.9968C37 13.9968 35.9283 12.8151 35.9283 11.2457C35.9283 9.67639 37.0021 8.49468 38.4248 8.49468C39.8476 8.49468 40.9214 9.67639 40.9214 11.2457C40.9235 12.813 39.8496 13.9968 38.4248 13.9968ZM25.8878 14.8893C26.6044 15.453 27.4066 15.7463 28.3739 15.7463C30.7953 15.7463 32.6922 13.7516 32.6922 11.2457C32.6922 8.73982 30.7953 6.74516 28.3739 6.74516C27.3711 6.74516 26.5438 7.05316 25.8126 7.64401V6.93582H23.6838V18.1873H25.8857V14.8893H25.8878ZM25.5682 11.2457C25.5682 9.67639 26.642 8.49468 28.0647 8.49468C29.4874 8.49468 30.5613 9.67639 30.5613 11.2457C30.5613 12.8151 29.4874 13.9968 28.0647 13.9968C26.642 13.9968 25.5682 12.813 25.5682 11.2457Z" fill="black"/>
</g>
<defs>
<clipPath id="clip0_10263_31394">
<rect width="57.8696" height="22" fill="white" transform="translate(1 1)"/>
</clipPath>
</defs>
</svg>
