<svg width="24" height="24" viewBox="0 0 24 24" fill="none" xmlns="http://www.w3.org/2000/svg">
<path d="M3 1.5C3 0.671573 3.67157 0 4.5 0H19.5C20.3284 0 21 0.671573 21 1.5V22.5C21 23.3284 20.3284 24 19.5 24H4.5C3.67157 24 3 23.3284 3 22.5V1.5Z" fill="#FFEB00"/>
<g clip-path="url(#clip0_6552_315641)">
<path fill-rule="evenodd" clip-rule="evenodd" d="M7.0552 10C5.89857 10 4.96143 10.7406 4.96143 11.6538C4.96143 12.2407 5.34983 12.7561 5.93292 13.05L5.73538 13.7867C5.72774 13.8096 5.73442 13.8335 5.75065 13.8497C5.7621 13.8612 5.77737 13.8669 5.79359 13.8669C5.806 13.8669 5.8184 13.8621 5.82986 13.8535L6.67825 13.281C6.80135 13.2981 6.92732 13.3086 7.0552 13.3086C8.21088 13.3086 9.14898 12.5681 9.14898 11.6548C9.14898 10.7415 8.21088 10 7.0552 10Z" fill="black"/>
<path d="M10.9124 13.0269V14.0948H10.1519V10.1572H10.6882L10.7817 10.4073C10.943 10.246 11.1882 10.0742 11.5843 10.0742C12.3296 10.0742 12.6837 10.6315 12.6779 11.5324C12.6779 12.4753 12.1311 13.0794 11.3495 13.0794C11.1987 13.0794 11.0842 13.0689 10.9124 13.0269ZM10.9124 10.7928V12.4963C10.9544 12.5011 11.0585 12.5116 11.1577 12.5116C11.6998 12.5116 11.9078 12.1317 11.9078 11.5324C11.9078 11.0066 11.7675 10.6888 11.3352 10.6888C11.1949 10.6888 11.0384 10.7308 10.9134 10.7928H10.9124Z" fill="black"/>
<path d="M14.3346 11.2662H14.7669V11.1726C14.7669 10.8606 14.5894 10.7146 14.2821 10.7146C14.0474 10.7146 13.7458 10.7823 13.5005 10.9026L13.2925 10.392C13.5635 10.204 13.9796 10.0742 14.3499 10.0742C15.079 10.0742 15.475 10.4598 15.475 11.1946V13.0021H14.9387L14.8604 12.7625C14.5532 12.9868 14.2716 13.0803 14.0168 13.0803C13.4595 13.0803 13.1465 12.7473 13.1465 12.1842C13.1465 11.5849 13.5635 11.2671 14.3337 11.2671L14.3346 11.2662ZM14.7669 12.272V11.751H14.4176C14.0273 11.751 13.8288 11.8912 13.8288 12.1728C13.8288 12.3865 13.9386 12.4906 14.1619 12.4906C14.3699 12.4906 14.6362 12.3865 14.766 12.272H14.7669Z" fill="black"/>
<path d="M17.7771 12.7095C17.5118 13.4176 17.194 13.9339 16.7302 14.2202L16.2616 13.7879C16.5327 13.5531 16.7254 13.3241 16.8915 13.0168L15.8809 10.2616L16.6357 10.0584L17.2818 12.2934L17.9221 10.0488L18.6675 10.2569L17.7771 12.7104V12.7095Z" fill="black"/>
</g>
<defs>
<clipPath id="clip0_6552_315641">
<rect width="13.7069" height="4.22" fill="white" transform="translate(4.96143 10)"/>
</clipPath>
</defs>
</svg>
