<svg width="24" height="24" viewBox="0 0 24 24" fill="none" xmlns="http://www.w3.org/2000/svg">
<g style="mix-blend-mode:multiply">
<path d="M11.7965 3C6.38591 3 2 6.46731 2 10.7446C2 13.5288 3.85851 15.9684 6.64728 17.3336C6.44224 18.099 5.9053 20.1051 5.7977 20.5345C5.66524 21.0674 5.9931 21.0603 6.20777 20.9167C6.37627 20.8045 8.89251 19.0942 9.97807 18.3558C10.5673 18.443 11.1748 18.4892 11.7965 18.4892C17.2071 18.4892 21.593 15.0214 21.593 10.7446C21.593 6.46782 17.2071 3 11.7965 3Z" fill="#391B1B"/>
<path d="M7.85357 8.46387H4.98868C4.71919 8.46387 4.50146 8.6821 4.50146 8.95108C4.50146 9.22006 4.71969 9.43829 4.98868 9.43829H5.91996V12.8701C5.91996 12.9949 5.97071 13.1177 6.06003 13.2066C6.14732 13.2949 6.26963 13.3456 6.39499 13.3456H6.49903C6.62388 13.3456 6.74568 13.2949 6.83348 13.2066C6.9228 13.1177 6.97355 12.9954 6.97355 12.8701V9.43829H7.85307C8.12256 9.43829 8.34078 9.22006 8.34078 8.95108C8.34078 8.6821 8.12256 8.46387 7.85307 8.46387H7.85357Z" fill="#FAE100"/>
<path d="M14.7382 12.4291H13.4059V8.92421C13.4059 8.63189 13.1694 8.39539 12.8776 8.39539C12.5858 8.39539 12.3493 8.63189 12.3493 8.92421V12.7021C12.3493 12.7316 12.3529 12.759 12.3574 12.7869C12.3523 12.8143 12.3493 12.8427 12.3493 12.8711C12.3493 13.1157 12.5467 13.3137 12.7913 13.3137H14.7382C14.9833 13.3137 15.1802 13.1157 15.1802 12.8711C15.1802 12.6265 14.9828 12.4291 14.7382 12.4291Z" fill="#FAE100"/>
<path d="M18.9958 12.59L17.5114 10.6401L18.8527 9.29825C19.0344 9.11707 19.0344 8.8222 18.8527 8.64051C18.671 8.45882 18.3767 8.45882 18.1945 8.64051L16.5339 10.3011V8.92421C16.5339 8.63189 16.2974 8.39539 16.0056 8.39539C15.7138 8.39539 15.4767 8.63189 15.4767 8.92421V12.8183C15.4767 13.1107 15.7132 13.3472 16.0056 13.3472C16.2979 13.3472 16.5339 13.1112 16.5339 12.8183V11.6171L16.8359 11.3156L18.2401 13.1584C18.3965 13.367 18.6933 13.4101 18.9019 13.2523C19.1105 13.0954 19.1526 12.7991 18.9958 12.59Z" fill="#FAE100"/>
<path d="M11.9533 12.7162L10.5256 8.81043C10.5256 8.81043 10.5221 8.80738 10.5211 8.80586C10.4297 8.56784 10.1663 8.39478 9.85216 8.39478C9.5035 8.39478 9.21523 8.60793 9.15788 8.88655C9.14824 8.90736 9.1386 8.92817 9.13048 8.9505L7.7267 12.7162C7.63992 12.9634 7.76984 13.2334 8.01598 13.3202C8.26263 13.407 8.53314 13.277 8.61992 13.0304L8.86302 12.3371H10.8169L11.0595 13.0304C11.1463 13.277 11.4168 13.407 11.6635 13.3202C11.9101 13.2334 12.04 12.9634 11.9533 12.7162ZM9.17311 11.452L9.82983 9.57829C9.83744 9.57829 9.84353 9.58032 9.85114 9.58032L10.5074 11.452H9.17362H9.17311Z" fill="#FAE100"/>
</g>
</svg>
