<svg width="24" height="24" viewBox="0 0 24 24" fill="none" xmlns="http://www.w3.org/2000/svg">
<path d="M0 8C0 3.58172 3.58172 0 8 0H16C20.4183 0 24 3.58172 24 8V16C24 20.4183 20.4183 24 16 24H8C3.58172 24 0 20.4183 0 16V8Z" fill="#1877F2"/>
<path d="M15.0413 12.7671L15.4041 10.4018H13.1347V8.86694C13.1347 8.21984 13.4518 7.58904 14.4682 7.58904H15.5V5.57534C15.5 5.57534 14.5636 5.41553 13.6683 5.41553C11.7993 5.41553 10.5776 6.54831 10.5776 8.59909V10.4018H8.5V12.7671H10.5776V18.4851C10.9943 18.5504 11.4211 18.5845 11.8562 18.5845C12.2912 18.5845 12.7181 18.5504 13.1347 18.4851V12.7671H15.0413Z" fill="white"/>
</svg>
