<svg width="32" height="32" viewBox="0 0 32 32" fill="none" xmlns="http://www.w3.org/2000/svg">
<path d="M2.66602 7.99992C2.66602 6.52716 3.79359 5.33325 5.18453 5.33325H22.8142C24.2051 5.33325 25.3327 6.52716 25.3327 7.99992V21.3333C25.3327 22.806 24.2051 23.9999 22.8142 23.9999H5.18453C3.79359 23.9999 2.66602 22.806 2.66602 21.3333V7.99992Z" fill="#FA967C"/>
<g style="mix-blend-mode:multiply">
<path d="M19.999 2.26685C20.5881 2.26685 21.0654 2.74415 21.0654 3.33325V5.33325H22.666C24.1386 5.33343 25.332 6.52759 25.332 8.00024V10.6663H2.66602V8.00024C2.66602 6.52759 3.85942 5.33343 5.33203 5.33325H6.93262V3.33325C6.93262 2.74415 7.40992 2.26685 7.99902 2.26685C8.58813 2.26685 9.06543 2.74415 9.06543 3.33325V5.33325H18.9326V3.33325C18.9326 2.74415 19.4099 2.26685 19.999 2.26685Z" fill="#D63D4A"/>
</g>
<g style="mix-blend-mode:multiply">
<circle cx="23.9993" cy="21.3332" r="5.33333" fill="white"/>
<circle cx="23.9993" cy="21.3332" r="5.33333" fill="#D63D4A"/>
</g>
<path d="M26.2855 19.4258C26.5259 19.2753 26.8467 19.3089 27.0499 19.5222C27.2529 19.7356 27.2706 20.0578 27.1085 20.2904L27.029 20.3841L23.8246 23.4323C23.7072 23.5438 23.5503 23.6047 23.3884 23.6003C23.2264 23.5959 23.0725 23.5268 22.9613 23.4089L20.8311 21.1498L20.7569 21.0521C20.6077 20.8111 20.643 20.4912 20.8572 20.2891C21.0715 20.087 21.3935 20.0699 21.6254 20.2331L21.7191 20.3138L23.4275 22.1263L26.1879 19.5013L26.2855 19.4258Z" fill="white"/>
</svg>
