<svg width="32" height="32" viewBox="0 0 32 32" fill="none" xmlns="http://www.w3.org/2000/svg">
<g clip-path="url(#clip0_2811_343434)">
<rect x="6.66602" y="5.33337" width="18.6667" height="22.6667" rx="2.66667" fill="#FA967C"/>
<g style="mix-blend-mode:multiply">
<circle cx="15.9993" cy="17.3333" r="5.33333" fill="#D63D4A"/>
</g>
<path d="M16.043 14.6666C16.408 14.6666 16.704 14.9627 16.7041 15.3278V16.65H18.0264C18.3914 16.6501 18.6875 16.9461 18.6875 17.3112C18.6873 17.6761 18.3913 17.9722 18.0264 17.9723H16.7041V19.2946C16.7041 19.6597 16.4081 19.9557 16.043 19.9557C15.6779 19.9556 15.3818 19.6596 15.3818 19.2946V17.9723H14.0596C13.6946 17.9723 13.3986 17.6761 13.3984 17.3112C13.3984 16.946 13.6944 16.65 14.0596 16.65H15.3818V15.3278C15.3819 14.9628 15.678 14.6667 16.043 14.6666Z" fill="white"/>
<g style="mix-blend-mode:multiply">
<rect x="12" y="4" width="8" height="2.66667" rx="1.33333" fill="#D63D4A"/>
</g>
</g>
<defs>
<clipPath id="clip0_2811_343434">
<rect width="32" height="32" fill="white"/>
</clipPath>
</defs>
</svg>
