<svg width="32" height="32" viewBox="0 0 32 32" fill="none" xmlns="http://www.w3.org/2000/svg">
<path d="M5.62956 13.0741C7.26545 13.0744 8.59141 14.4004 8.5918 16.0363V23.444C8.5918 23.8531 8.26016 24.1848 7.85106 24.1848H5.62956C4.81136 24.1848 4.14779 23.5212 4.14779 22.703V19.0257C4.14779 18.7615 4.00236 18.5228 3.79492 18.3592C3.10821 17.8174 2.6662 16.9803 2.66602 16.0376C2.66602 14.4012 3.99316 13.0741 5.62956 13.0741Z" fill="#FA967C"/>
<path d="M26.3691 13.0741C28.0053 13.0741 29.3324 14.4002 29.3327 16.0363C29.3327 16.9793 28.8906 17.8171 28.2038 18.3591C27.9964 18.5228 27.8509 18.7615 27.8509 19.0257V22.703C27.8509 23.5212 27.1873 24.1848 26.3691 24.1848H24.1476C23.7385 24.1848 23.4069 23.8531 23.4069 23.444V16.0363C23.4072 14.4004 24.7332 13.0744 26.3691 13.0741Z" fill="#FA967C"/>
<path d="M7.33268 6.96296C7.33268 5.32657 8.65925 4 10.2956 4H21.7031C23.3395 4 24.666 5.32656 24.666 6.96296V24.2H7.33268V6.96296Z" fill="#FA967C"/>
<path d="M12.6654 13.222C13.2788 13.222 13.777 13.6996 13.7773 14.2884C13.7773 14.8775 13.279 15.3561 12.6654 15.3561C12.0519 15.3559 11.5547 14.8774 11.5547 14.2884C11.555 13.6997 12.0521 13.2222 12.6654 13.222Z" fill="white"/>
<path d="M19.332 13.222C19.9455 13.222 20.4437 13.6996 20.444 14.2884C20.444 14.8775 19.9457 15.3561 19.332 15.3561C18.7186 15.3559 18.2214 14.8774 18.2214 14.2884C18.2217 13.6997 18.7188 13.2222 19.332 13.222Z" fill="white"/>
<path d="M12.6654 8.03711C13.2789 8.03711 13.7772 8.51453 13.7773 9.10352C13.7773 9.69262 13.279 10.1699 12.6654 10.1699C12.0519 10.1697 11.5547 9.69248 11.5547 9.10352C11.5548 8.51467 12.052 8.03733 12.6654 8.03711Z" fill="white"/>
<path d="M19.332 8.03711C19.9456 8.03711 20.4439 8.51453 20.444 9.10352C20.444 9.69262 19.9457 10.1699 19.332 10.1699C18.7186 10.1697 18.2214 9.69248 18.2214 9.10352C18.2215 8.51467 18.7187 8.03733 19.332 8.03711Z" fill="white"/>
<path d="M5.62891 24.1852H8.59187V24.9259C8.59187 25.335 8.26023 25.6667 7.85113 25.6667H6.36965C5.96055 25.6667 5.62891 25.335 5.62891 24.9259V24.1852Z" fill="#D63D4A"/>
<path d="M23.4067 24.1852H26.3696V24.9259C26.3696 25.335 26.038 25.6667 25.6289 25.6667H24.1474C23.7383 25.6667 23.4067 25.335 23.4067 24.9259V24.1852Z" fill="#D63D4A"/>
<path d="M8.59189 20.4815C8.59189 19.6633 9.25517 19 10.0734 19H21.9252C22.7434 19 23.4067 19.6633 23.4067 20.4815L23.4067 24.1852H8.59187L8.59189 20.4815Z" fill="#D63D4A"/>
</svg>
