<svg width="32" height="33" viewBox="0 0 32 33" fill="none" xmlns="http://www.w3.org/2000/svg">
<path d="M8.16602 15.333C8.16602 10.9147 11.7477 7.33301 16.166 7.33301C20.5843 7.33301 24.166 10.9147 24.166 15.333V28.6663H8.16602V15.333Z" fill="#FA967C"/>
<g style="mix-blend-mode:multiply">
<path d="M21.4987 15.3333C21.4987 18.2789 19.1109 20.6667 16.1654 20.6667C13.2198 20.6667 10.832 18.2789 10.832 15.3333C10.832 12.3878 13.2198 10 16.1654 10C19.1109 10 21.4987 12.3878 21.4987 15.3333Z" fill="#D63D4A"/>
</g>
<path d="M17.944 14.8003L18.0516 14.8107C18.2946 14.8605 18.477 15.0756 18.477 15.3333C18.477 15.591 18.2946 15.8061 18.0516 15.8558L17.944 15.8663H14.3885C14.0939 15.8663 13.8555 15.6278 13.8555 15.3333C13.8555 15.0387 14.0939 14.8003 14.3885 14.8003H17.944Z" fill="white"/>
<path d="M16.6988 17.111L16.6884 17.2186C16.6386 17.4616 16.4235 17.644 16.1658 17.644C15.9081 17.644 15.693 17.4616 15.6432 17.2186L15.6328 17.111L15.6328 13.5554C15.6328 13.2609 15.8712 13.0225 16.1658 13.0225C16.4604 13.0225 16.6988 13.2609 16.6988 13.5554L16.6988 17.111Z" fill="white"/>
<g style="mix-blend-mode:multiply">
<path d="M5.5 26.6665C5.5 25.5619 6.39543 24.6665 7.5 24.6665H24.8333C25.9379 24.6665 26.8333 25.5619 26.8333 26.6665C26.8333 27.7711 25.9379 28.6665 24.8333 28.6665H7.5C6.39543 28.6665 5.5 27.7711 5.5 26.6665Z" fill="#D63D4A"/>
</g>
<path d="M17.2324 5.86621L17.2272 5.97559C17.1724 6.51331 16.7182 6.93262 16.166 6.93262C15.6138 6.93262 15.1596 6.51331 15.1048 5.97559L15.0996 5.86621L15.0996 3.86621C15.0996 3.27711 15.5769 2.7998 16.166 2.7998C16.7551 2.7998 17.2324 3.27711 17.2324 3.86621L17.2324 5.86621Z" fill="#D63D4A"/>
<path d="M9.17617 8.16804L9.24982 8.24906C9.59133 8.66802 9.56661 9.28572 9.17617 9.67617C8.78572 10.0666 8.16802 10.0913 7.74906 9.74982L7.66804 9.67617L6.25383 8.26195C5.83727 7.84539 5.83727 7.17038 6.25383 6.75383C6.67038 6.33727 7.34539 6.33727 7.76195 6.75383L9.17617 8.16804Z" fill="#D63D4A"/>
<path d="M23.3301 8.16804L23.2565 8.24906C22.915 8.66802 22.9397 9.28572 23.3301 9.67617C23.7206 10.0666 24.3383 10.0913 24.7572 9.74982L24.8383 9.67617L26.2525 8.26195C26.669 7.84539 26.669 7.17039 26.2525 6.75383C25.8359 6.33727 25.1609 6.33727 24.7443 6.75383L23.3301 8.16804Z" fill="#D63D4A"/>
</svg>
