<svg width="32" height="33" viewBox="0 0 32 33" fill="none" xmlns="http://www.w3.org/2000/svg">
<g style="mix-blend-mode:multiply">
<path d="M25.0543 4.66672C27.5089 4.66672 29.4987 6.42616 29.4987 8.59654V19.4036C29.4987 21.5739 27.5089 23.3334 25.0543 23.3334H7.27648C4.82188 23.3334 2.83203 21.5739 2.83203 19.4036L2.83203 8.59654C2.83203 6.42616 4.82188 4.66672 7.27648 4.66672L25.0543 4.66672Z" fill="#FA967C"/>
<g style="mix-blend-mode:multiply">
<path d="M15.166 21.6667C15.166 21.2525 15.5018 20.9167 15.916 20.9167C16.3302 20.9167 16.666 21.2525 16.666 21.6667V24.1667C16.666 24.5809 16.3302 24.9167 15.916 24.9167C15.5018 24.9167 15.166 24.5809 15.166 24.1667L15.166 21.6667Z" fill="#D63D4A"/>
</g>
<path d="M18.166 23.6667C18.5802 23.6667 18.916 24.0025 18.916 24.4167C18.916 24.8309 18.5802 25.1667 18.166 25.1667L13.666 25.1667C13.2518 25.1667 12.916 24.8309 12.916 24.4167C12.916 24.0025 13.2518 23.6667 13.666 23.6667L18.166 23.6667Z" fill="#D63D4A"/>
<path d="M5.49805 9.33337C5.49805 8.2288 6.39348 7.33337 7.49805 7.33337H24.8314C25.9359 7.33337 26.8314 8.2288 26.8314 9.33337V18.6667C26.8314 19.7713 25.9359 20.6667 24.8314 20.6667H7.49805C6.39348 20.6667 5.49805 19.7713 5.49805 18.6667V9.33337Z" fill="#D63D4A"/>
<path fill-rule="evenodd" clip-rule="evenodd" d="M18.6484 12.8536C18.8976 13.1028 18.8976 13.5069 18.6484 13.7561L16.3278 16.0766C16.0786 16.3258 15.6746 16.3258 15.4254 16.0766L13.685 14.3362C13.4357 14.087 13.4357 13.683 13.685 13.4338C13.9342 13.1845 14.3382 13.1845 14.5874 13.4338L15.8766 14.7229L17.7459 12.8536C17.9951 12.6044 18.3992 12.6044 18.6484 12.8536Z" fill="white"/>
</g>
</svg>
