<svg width="24" height="25" viewBox="0 0 24 25" fill="none" xmlns="http://www.w3.org/2000/svg">
<g style="mix-blend-mode:multiply">
<path fill-rule="evenodd" clip-rule="evenodd" d="M7.66465 4C7.33837 4.00011 7.0179 4.09339 6.73573 4.27039C6.45356 4.44739 6.21971 4.70182 6.05787 5.00789L2.74435 11.2722C2.58425 11.5745 2.50002 11.9168 2.5 12.2651V16.7626C2.50002 17.0729 2.56688 17.379 2.69529 17.6565L3.73008 19.8923C3.88377 20.2245 4.1201 20.504 4.41256 20.6993C4.70503 20.8947 5.04207 20.9981 5.38591 20.9982H6.20226C6.69321 20.9982 7.16405 20.7875 7.51121 20.4124C7.85836 20.0374 8.05339 19.5287 8.05339 18.9984H15.4579C15.4579 19.5287 15.6529 20.0374 16.0001 20.4124C16.3473 20.7875 16.8181 20.9982 17.309 20.9982H18.1254C18.4692 20.9981 18.8063 20.8947 19.0987 20.6993C19.3912 20.504 19.6275 20.2245 19.7812 19.8923L20.816 17.6565C20.9447 17.3795 21.0113 17.0726 21.0113 16.7626V12.2651C21.0113 11.9168 20.9271 11.5745 20.767 11.2722L17.4534 5.00789C17.2916 4.70182 17.0577 4.44739 16.7756 4.27039C16.4934 4.09339 16.1729 4.00011 15.8467 4H7.66465Z" fill="#FA967C"/>
<g style="mix-blend-mode:multiply">
<path d="M4.40789 20.7013C4.11542 20.506 3.8791 20.2265 3.7254 19.8942L3.20801 18.7764H20.2939L19.7766 19.8942C19.6229 20.2265 19.3865 20.506 19.0941 20.7013C18.8016 20.8966 18.4646 21.0001 18.1207 21.0001H17.3044C16.8134 21.0001 16.3426 20.7894 15.9954 20.4144C15.6483 20.0394 15.4532 19.5307 15.4532 19.0003H8.04871C8.04871 19.5307 7.85369 20.0394 7.50653 20.4144C7.15938 20.7894 6.68853 21.0001 6.19758 21.0001H5.38124C5.03739 21.0001 4.70035 20.8966 4.40789 20.7013Z" fill="#D63D4A"/>
</g>
<g style="mix-blend-mode:multiply">
<path d="M5.58111 9.95576L7.09248 6.55516C7.22893 6.24815 7.53339 6.05029 7.86936 6.05029H15.8326C16.1686 6.05029 16.4731 6.24815 16.6095 6.55516L18.1209 9.95576C18.3708 10.518 17.9592 11.1512 17.344 11.1512H6.35798C5.74276 11.1512 5.33124 10.518 5.58111 9.95576Z" fill="#D63D4A"/>
</g>
<circle cx="7.17561" cy="15.0511" r="1.27522" fill="white"/>
<circle cx="16.5272" cy="15.0511" r="1.27522" fill="white"/>
<g style="mix-blend-mode:multiply">
<circle cx="17.5" cy="7" r="4" fill="#D63D4A"/>
</g>
<path d="M17.4829 6.24566L17.0694 6.6167C17.1241 6.80381 17.2004 6.98388 17.2969 7.15325C17.3976 7.32138 17.5189 7.47627 17.658 7.6143L18.1935 7.44928C18.4935 7.35677 18.8211 7.45178 19.0206 7.6893L19.3256 8.05234C19.4491 8.19808 19.511 8.38617 19.4982 8.57677C19.4855 8.76737 19.399 8.9455 19.2571 9.07344C18.7596 9.52748 17.9935 9.681 17.4199 9.23045C16.9156 8.83378 16.4891 8.34721 16.1618 7.79531C15.8337 7.24613 15.6141 6.6391 15.5147 6.00714C15.4047 5.29607 15.9253 4.72701 16.5744 4.533C16.9614 4.41698 17.3744 4.616 17.5164 4.98704L17.684 5.42458C17.794 5.71261 17.715 6.03764 17.4829 6.24566Z" fill="white"/>
</g>
</svg>
