<svg width="32" height="32" viewBox="0 0 32 32" fill="none" xmlns="http://www.w3.org/2000/svg">
<g style="mix-blend-mode:multiply">
<path d="M6.83301 6.84009C6.83301 5.36324 8.02692 4.16602 9.49967 4.16602H22.833C24.3058 4.16602 25.4997 5.36324 25.4997 6.84009V26.8253C25.4997 28.3021 24.3058 29.4993 22.833 29.4993H9.49967C8.02692 29.4993 6.83301 28.3021 6.83301 26.8253V6.84009Z" fill="#FA967C"/>
<g style="mix-blend-mode:multiply">
<path d="M6.83301 23.6328H25.4997V27.1528C25.4997 28.4488 24.3058 29.4995 22.833 29.4995H9.49967C8.02692 29.4995 6.83301 28.4488 6.83301 27.1528V23.6328Z" fill="#D63D4A"/>
</g>
<path d="M16.1663 27.8991C16.9027 27.8991 17.4997 27.3021 17.4997 26.5658C17.4997 25.8294 16.9027 25.2324 16.1663 25.2324C15.43 25.2324 14.833 25.8294 14.833 26.5658C14.833 27.3021 15.43 27.8991 16.1663 27.8991Z" fill="#FA967C"/>
<path fill-rule="evenodd" clip-rule="evenodd" d="M12.364 12.5768C13.216 11.7744 14.4705 11.0234 16.1661 11.0234C17.8617 11.0234 19.1163 11.7744 19.9682 12.5768C20.5649 13.1436 21.0589 13.8054 21.4292 14.5339C21.5232 14.7239 21.5232 14.942 21.4292 15.1315C21.0591 15.8602 20.5653 16.5221 19.9687 17.0892C19.1163 17.8915 17.8617 18.6425 16.1661 18.6425C14.4705 18.6425 13.216 17.8915 12.364 17.0892C11.7674 16.5223 11.2734 15.8605 10.9031 15.132C10.857 15.0389 10.833 14.9367 10.833 14.8332C10.833 14.7297 10.857 14.6275 10.9031 14.5344C11.2732 13.8057 11.7675 13.1438 12.364 12.5768ZM16.1661 16.2615C16.5535 16.2615 16.925 16.111 17.1988 15.8431C17.4727 15.5752 17.6266 15.2118 17.6266 14.833C17.6266 14.4541 17.4727 14.0907 17.1988 13.8228C16.925 13.5549 16.5535 13.4044 16.1661 13.4044C15.7788 13.4044 15.4073 13.5549 15.1334 13.8228C14.8595 14.0907 14.7057 14.4541 14.7057 14.833C14.7057 15.2118 14.8595 15.5752 15.1334 15.8431C15.4073 16.111 15.7788 16.2615 16.1661 16.2615Z" fill="white"/>
</g>
</svg>
