<svg width="16" height="16" viewBox="0 0 16 16" fill="none" xmlns="http://www.w3.org/2000/svg">
<path d="M5.91846 10.2471C6.05943 10.3467 6.22787 10.3999 6.40044 10.3995C6.57301 10.399 6.74118 10.345 6.88166 10.2447C7.02406 10.1407 7.13206 9.99671 7.19126 9.83031L7.54886 8.73191C7.64062 8.4566 7.79514 8.20639 8.0002 8.00105C8.20527 7.7957 8.45527 7.64085 8.73046 7.54871L9.84326 7.18871C10.0078 7.12914 10.1495 7.01946 10.2484 6.8751C10.3472 6.73075 10.3983 6.559 10.3945 6.38407C10.3906 6.20914 10.3319 6.03983 10.2267 5.90001C10.1215 5.7602 9.97507 5.65691 9.80806 5.60471L8.70806 5.24631C8.4326 5.15465 8.18223 5.00018 7.97674 4.79511C7.77125 4.59004 7.61627 4.33998 7.52406 4.06471L7.16246 2.95431C7.10423 2.79072 6.99646 2.64935 6.85415 2.54986C6.71184 2.45037 6.54205 2.3977 6.36841 2.3992C6.19478 2.4007 6.02593 2.45628 5.88535 2.5582C5.74477 2.66013 5.63945 2.80334 5.58406 2.96791L5.21846 4.08791C5.12668 4.3558 4.97532 4.59938 4.77578 4.80031C4.57623 5.00124 4.33371 5.15428 4.06646 5.24791L2.95446 5.60551C2.79093 5.66386 2.64963 5.77168 2.55018 5.91399C2.45072 6.0563 2.39803 6.22605 2.39944 6.39966C2.40085 6.57328 2.45628 6.74215 2.55803 6.88283C2.65978 7.02351 2.80281 7.12902 2.96726 7.18471L4.06646 7.54071C4.34332 7.63259 4.59475 7.78816 4.80053 7.99491C5.00631 8.20166 5.16069 8.45382 5.25126 8.73111L5.61286 9.84391C5.67046 10.0071 5.77766 10.1479 5.91846 10.2471ZM10.8281 13.4807C10.9099 13.5382 11.004 13.5759 11.1029 13.5908C11.2018 13.6057 11.3028 13.5974 11.398 13.5665C11.4931 13.5356 11.5798 13.483 11.6511 13.4129C11.7224 13.3427 11.7764 13.2569 11.8089 13.1623L12.0073 12.5527C12.0502 12.4264 12.1213 12.3115 12.2153 12.2167C12.3097 12.1207 12.4249 12.0503 12.5513 12.0087L13.1689 11.8071C13.2963 11.7631 13.4066 11.68 13.484 11.5696C13.5614 11.4593 13.602 11.3273 13.6 11.1924C13.5979 11.0576 13.5534 10.9269 13.4727 10.8189C13.3919 10.711 13.2792 10.6312 13.1505 10.5911L12.5393 10.3911C12.4129 10.3488 12.298 10.2778 12.2037 10.1837C12.1093 10.0896 12.038 9.97495 11.9953 9.84871L11.7937 9.23031C11.7504 9.10312 11.6681 8.99278 11.5586 8.91493C11.4491 8.83707 11.3179 8.79565 11.1836 8.79654C11.0492 8.79742 10.9186 8.84057 10.8101 8.91986C10.7016 8.99915 10.6209 9.11056 10.5793 9.23831L10.3817 9.84791C10.3408 9.97332 10.2716 10.0876 10.1793 10.1818C10.087 10.276 9.97419 10.3477 9.84966 10.3911L9.23126 10.5927C9.10401 10.6358 8.99357 10.7179 8.91557 10.8273C8.83758 10.9367 8.79599 11.0679 8.7967 11.2022C8.7974 11.3366 8.84037 11.4673 8.91952 11.5759C8.99866 11.6844 9.10997 11.7653 9.23766 11.8071L9.84806 12.0047C9.97606 12.0479 10.0913 12.1191 10.1857 12.2135C10.2809 12.3087 10.3513 12.4239 10.3921 12.5511L10.5945 13.1703C10.6383 13.2955 10.7199 13.4039 10.8281 13.4807Z" fill="#F8C63C"/>
</svg>
