<svg width="20" height="20" viewBox="0 0 20 20" fill="none" xmlns="http://www.w3.org/2000/svg">
<g clip-path="url(#clip0_4350_95684)">
<path fill-rule="evenodd" clip-rule="evenodd" d="M10.0003 18.3333C14.6027 18.3333 18.3337 14.6024 18.3337 10C18.3337 5.39763 14.6027 1.66667 10.0003 1.66667C5.39795 1.66667 1.66699 5.39763 1.66699 10C1.66699 14.6024 5.39795 18.3333 10.0003 18.3333ZM13.5462 8.13694C13.6679 7.78943 13.4848 7.4091 13.1372 7.28747C12.7897 7.16584 12.4094 7.34896 12.2878 7.69648L11.4587 10.0653L10.6296 7.69648C10.536 7.42909 10.2836 7.25004 10.0003 7.25004C9.71704 7.25004 9.46468 7.42909 9.3711 7.69648L8.542 10.0653L7.71291 7.69648C7.59128 7.34896 7.21095 7.16584 6.86344 7.28747C6.51592 7.4091 6.3328 7.78943 6.45443 8.13694L6.87317 9.33334H6.25033C5.88214 9.33334 5.58366 9.63182 5.58366 10C5.58366 10.3682 5.88214 10.6667 6.25033 10.6667H7.33984L7.91276 12.3036C8.00635 12.571 8.25871 12.75 8.542 12.75C8.8253 12.75 9.07766 12.571 9.17124 12.3036L10.0003 9.93477L10.8294 12.3036C10.923 12.571 11.1754 12.75 11.4587 12.75C11.742 12.75 11.9943 12.571 12.0879 12.3036L12.6608 10.6667H13.7503C14.1185 10.6667 14.417 10.3682 14.417 10C14.417 9.63186 14.1185 9.33338 13.7503 9.33338H13.1275L13.5462 8.13694Z" fill="#6D7882"/>
</g>
<defs>
<clipPath id="clip0_4350_95684">
<rect width="20" height="20" fill="white"/>
</clipPath>
</defs>
</svg>
