<svg width="21" height="20" viewBox="0 0 21 20" fill="none" xmlns="http://www.w3.org/2000/svg">
<path d="M3.28578 2.7983C4.06208 2.49901 5.74662 3.18488 6.80873 3.95878C5.52045 4.48002 4.45349 5.27953 3.61455 6.27893C3.24791 6.71578 2.92885 7.18776 2.65427 7.68518C3.08084 5.32764 2.26377 3.19304 3.28578 2.7983Z" fill="#6D7882"/>
<path d="M14.1598 3.94739C15.2227 3.17801 16.8954 2.50045 17.6681 2.7983C18.6759 3.18717 17.8965 5.26683 18.2825 7.58427C18.0209 7.12423 17.7224 6.68592 17.3808 6.27893C16.5361 5.27257 15.46 4.46842 14.1598 3.94739Z" fill="#6D7882"/>
<path fill-rule="evenodd" clip-rule="evenodd" d="M10.4974 4.07569C16.1522 4.07569 18.8307 8.37231 18.8307 12.8949C18.8306 14.9693 17.9758 16.4648 16.6383 17.4766C15.3396 18.459 13.6193 18.2777 12.0249 18.1097C11.5337 18.058 11.0222 18.03 10.4974 18.03C9.97253 18.03 9.46114 18.058 8.96989 18.1097C7.3749 18.2776 5.65369 18.459 4.35482 17.4758C3.01821 16.4639 2.16416 14.9686 2.16406 12.8949C2.16406 8.37231 4.84263 4.07569 10.4974 4.07569ZM10.4974 12.0876C9.80704 12.0876 9.2474 12.4607 9.2474 12.9209C9.24773 13.381 9.80724 13.7542 10.4974 13.7542C11.1875 13.7542 11.7471 13.381 11.7474 12.9209C11.7474 12.4607 11.1878 12.0876 10.4974 12.0876ZM7.78906 9.86915C7.3656 9.8693 7.02265 10.2131 7.02246 10.6366C7.02258 11.0601 7.36555 11.4038 7.78906 11.404C8.21249 11.4037 8.55636 11.06 8.55648 10.6366C8.55629 10.2132 8.21245 9.86939 7.78906 9.86915ZM13.1602 9.86915C12.7366 9.86915 12.3921 10.213 12.3919 10.6366C12.392 11.0602 12.7365 11.404 13.1602 11.404C13.5834 11.4035 13.9266 11.0599 13.9268 10.6366C13.9266 10.2133 13.5833 9.86963 13.1602 9.86915Z" fill="#6D7882"/>
</svg>
