<svg width="44" height="32" viewBox="0 0 44 32" fill="none" xmlns="http://www.w3.org/2000/svg">
<g clip-path="url(#clip0_2920_46659)">
<rect x="2.05273" y="24.8022" width="35.9524" height="4.73574" rx="2.36787" transform="rotate(0.631567 2.05273 24.8022)" fill="#ACB1B6" fill-opacity="0.2"/>
<path d="M36.9929 16.665C36.9929 15.0009 35.9363 13.5213 34.3631 12.9804L31.8566 11.9999H4.7171C3.773 11.9999 3.0071 12.8859 3.0071 13.83V20.6275H36.9938L36.9929 16.665Z" fill="#65B9EC"/>
<path d="M3.0071 20.6275V21.557C3.0071 22.4543 3.7343 23.1815 4.6316 23.1815H35.2829C36.227 23.1815 36.9929 22.4156 36.9929 21.4715L36.9938 20.6275H3.0071Z" fill="#65B9EC"/>
<path d="M36.9929 18.8952H36.2801C35.6897 18.8952 35.2109 18.4164 35.2109 17.826C35.2109 17.2356 35.6897 16.7568 36.2801 16.7568H36.9929V18.8952Z" fill="white"/>
<path d="M26.8218 5.6752C25.9479 4.49981 23.8447 3.5296 22.4479 3.5296H10.8966C9.1641 3.5296 7.94788 4.99981 7.3587 6.4654L5.1095 12.0001H31.8107L26.8218 5.6752Z" fill="#285FA4"/>
<path d="M10.852 7.62099C11.165 6.88093 11.8905 6.40005 12.6941 6.40005H21.2503C22.187 6.40005 23.0699 6.83756 23.6373 7.58286L27 12H9L10.852 7.62099Z" fill="white"/>
<path d="M16 6H18.8V12H16V6Z" fill="#285FA4"/>
<g clip-path="url(#clip1_2920_46659)">
<circle cx="9.5" cy="23" r="5" fill="#313D4C"/>
<circle cx="9.5" cy="23" r="2" fill="#AAB3BE"/>
</g>
<g clip-path="url(#clip2_2920_46659)">
<circle cx="30.5" cy="23" r="5" fill="#313D4C"/>
<circle cx="30.5" cy="23" r="2" fill="#AAB3BE"/>
</g>
</g>
<defs>
<clipPath id="clip0_2920_46659">
<rect width="44" height="32" fill="white"/>
</clipPath>
<clipPath id="clip1_2920_46659">
<rect width="10" height="10" fill="white" transform="translate(4.5 18)"/>
</clipPath>
<clipPath id="clip2_2920_46659">
<rect width="10" height="10" fill="white" transform="translate(25.5 18)"/>
</clipPath>
</defs>
</svg>
