<svg width="20" height="20" viewBox="0 0 20 20" fill="none" xmlns="http://www.w3.org/2000/svg">
<path d="M7.91683 4.16406C7.91683 5.54477 6.79754 6.66406 5.41683 6.66406C4.03612 6.66406 2.91683 5.54477 2.91683 4.16406C2.91683 2.78335 4.03612 1.66406 5.41683 1.66406C6.79754 1.66406 7.91683 2.78335 7.91683 4.16406Z" fill="#6D7882"/>
<path d="M0.900466 9.47099C0.587725 8.48235 1.40962 7.49821 2.54801 7.49821H8.28565C9.42404 7.49821 10.2459 8.48235 9.93319 9.47099L7.48537 17.2091C7.2752 17.8735 6.60286 18.3315 5.83783 18.3315H4.99583C4.2308 18.3315 3.55846 17.8735 3.34829 17.2091L0.900466 9.47099Z" fill="#6D7882"/>
<path d="M17.0835 4.16406C17.0835 5.54477 15.9642 6.66406 14.5835 6.66406C13.2028 6.66406 12.0835 5.54477 12.0835 4.16406C12.0835 2.78335 13.2028 1.66406 14.5835 1.66406C15.9642 1.66406 17.0835 2.78335 17.0835 4.16406Z" fill="#6D7882"/>
<path d="M10.0671 16.3588C9.75439 17.3474 10.5763 18.3315 11.7147 18.3315H17.4523C18.5907 18.3315 19.4126 17.3474 19.0999 16.3588L16.652 8.62067C16.4419 7.95627 15.7695 7.49821 15.0045 7.49821H14.1625C13.3975 7.49821 12.7251 7.95627 12.515 8.62067L10.0671 16.3588Z" fill="#6D7882"/>
</svg>
