<svg width="16" height="17" viewBox="0 0 16 17" fill="none" xmlns="http://www.w3.org/2000/svg">
<path d="M3.63546 6.92105C3.63546 5.74852 4.09523 4.624 4.91361 3.7949C5.732 2.96579 6.84197 2.5 7.99935 2.5C9.15672 2.5 10.2667 2.96579 11.0851 3.7949C11.9035 4.624 12.3632 5.74852 12.3632 6.92105V8.79116L13.2981 11.1599C13.3275 11.2344 13.3384 11.315 13.3299 11.3948C13.3214 11.4746 13.2937 11.551 13.2493 11.6175C13.205 11.6839 13.1452 11.7383 13.0752 11.7759C13.0053 11.8136 12.9273 11.8333 12.8481 11.8333H3.15059C3.07139 11.8333 2.99341 11.8136 2.92347 11.7759C2.85353 11.7383 2.79374 11.6839 2.74935 11.6175C2.70496 11.551 2.67731 11.4746 2.66881 11.3948C2.66032 11.315 2.67124 11.2344 2.70062 11.1599L3.63546 8.79116V6.92105Z" fill="#6D7882"/>
<path d="M6.33399 12.9C6.36899 13.7896 7.1012 14.5 7.99935 14.5C8.8975 14.5 9.62971 13.7896 9.66471 12.9H6.33399Z" fill="#6D7882"/>
</svg>
