<svg width="24" height="24" viewBox="0 0 24 24" fill="none" xmlns="http://www.w3.org/2000/svg">
<path d="M19.0574 11.207L18.1244 12.9273H14.2008V14.1327H9.80331V12.9273H4.94694L5.87993 11.207H9.80343V10.0015H14.2009V11.207H19.0574ZM20.9279 10.504H14.9393V9.41765C14.9393 9.35634 14.8864 9.30664 14.8213 9.30664H9.17872C9.11368 9.30664 9.06088 9.35623 9.06088 9.41765V10.504H4.76861C4.70358 10.504 4.62382 10.5536 4.59082 10.6149L3.01441 13.5209C2.9813 13.5821 3.00716 13.6317 3.07231 13.6317H9.06088V14.7183C9.06088 14.7794 9.11368 14.829 9.17872 14.829H14.8213C14.8864 14.829 14.9393 14.7794 14.9393 14.7183V13.6317H19.2315C19.2966 13.6317 19.3763 13.5821 19.4094 13.5209L20.9855 10.6149C21.0188 10.5536 20.9929 10.504 20.9279 10.504Z" fill="#464C53"/>
</svg>
