<svg width="21" height="20" viewBox="0 0 21 20" fill="none" xmlns="http://www.w3.org/2000/svg">
<path d="M8.41658 4.16699C8.41658 5.5477 7.2973 6.66699 5.91658 6.66699C4.53587 6.66699 3.41659 5.5477 3.41659 4.16699C3.41659 2.78628 4.53587 1.66699 5.91658 1.66699C7.2973 1.66699 8.41658 2.78628 8.41658 4.16699Z" fill="#6D7882"/>
<path d="M1.40022 9.47392C1.08748 8.48528 1.90937 7.50114 3.04777 7.50114H8.7854C9.9238 7.50114 10.7457 8.48528 10.4329 9.47392L7.98513 17.212C7.77496 17.8764 7.10262 18.3345 6.33758 18.3345H5.49559C4.73055 18.3345 4.05821 17.8764 3.84804 17.212L1.40022 9.47392Z" fill="#6D7882"/>
<path d="M17.5833 4.16699C17.5833 5.5477 16.464 6.66699 15.0833 6.66699C13.7026 6.66699 12.5833 5.5477 12.5833 4.16699C12.5833 2.78628 13.7026 1.66699 15.0833 1.66699C16.464 1.66699 17.5833 2.78628 17.5833 4.16699Z" fill="#6D7882"/>
<path d="M10.5669 16.3617C10.2541 17.3503 11.076 18.3345 12.2144 18.3345H17.9521C19.0905 18.3345 19.9124 17.3503 19.5996 16.3617L17.1518 8.6236C16.9416 7.9592 16.2693 7.50114 15.5042 7.50114H14.6623C13.8972 7.50114 13.2249 7.9592 13.0147 8.62359L10.5669 16.3617Z" fill="#6D7882"/>
</svg>
