<svg width="16" height="16" viewBox="0 0 16 16" fill="none" xmlns="http://www.w3.org/2000/svg">
<path d="M11.923 2.57856C11.9672 2.24735 12.2497 2 12.5838 2H13.4165C13.7506 2 14.0331 2.24735 14.0773 2.57856L14.3913 4.93335H11.609L11.923 2.57856Z" fill="#6D7882"/>
<path fill-rule="evenodd" clip-rule="evenodd" d="M9.3335 6.00002V3.90209C9.3335 3.64743 9.05949 3.48683 8.8373 3.61126L6.00016 5.20005V3.94394C6.00016 3.68022 5.70842 3.52094 5.48658 3.66354L1.82336 6.01845C1.51805 6.21471 1.3335 6.55276 1.3335 6.91571V12.2667C1.3335 12.8558 1.81106 13.3334 2.40016 13.3334H13.6002C14.1893 13.3334 14.6668 12.8558 14.6668 12.2667V7.06669C14.6668 7.04429 14.6661 7.02205 14.6648 7H14.6668L14.6617 6.96185C14.6593 6.93667 14.656 6.91174 14.6518 6.8871L14.5335 6.00002L9.3335 6.00002ZM5.3335 8.1333C5.62806 8.1333 5.86684 8.37208 5.86684 8.66663V10.6666C5.86684 10.9612 5.62806 11.2 5.3335 11.2C5.03895 11.2 4.80017 10.9612 4.80017 10.6666V8.66663C4.80017 8.37208 5.03895 8.1333 5.3335 8.1333ZM8.00017 8.1333C8.29472 8.1333 8.5335 8.37208 8.5335 8.66663V10.6666C8.5335 10.9612 8.29472 11.2 8.00017 11.2C7.70562 11.2 7.46684 10.9612 7.46684 10.6666V8.66663C7.46684 8.37208 7.70562 8.1333 8.00017 8.1333ZM11.2002 10.6666V8.66663C11.2002 8.37208 10.9614 8.1333 10.6668 8.1333C10.3723 8.1333 10.1335 8.37208 10.1335 8.66663V10.6666C10.1335 10.9612 10.3723 11.2 10.6668 11.2C10.9614 11.2 11.2002 10.9612 11.2002 10.6666Z" fill="#6D7882"/>
</svg>
