<svg width="44" height="32" viewBox="0 0 44 32" fill="none" xmlns="http://www.w3.org/2000/svg">
<ellipse cx="20" cy="29.5" rx="13" ry="2.5" fill="#ACB1B6" fill-opacity="0.2"/>
<path d="M12.6785 26.9915C12.5855 26.4749 12.9825 26 13.5074 26C14.0273 26 14.423 26.4664 14.3384 26.9794L13.8905 29.6941C13.8614 29.8706 13.7088 30 13.53 30C13.3506 30 13.1969 29.8715 13.1651 29.6949L12.6785 26.9915Z" fill="#313D4C"/>
<path d="M11 25H16V26C16 26.5523 15.5523 27 15 27H12C11.4477 27 11 26.5523 11 26V25Z" fill="#285FA4"/>
<path d="M18 23.5811C17.9998 24.9169 16.9169 25.9998 15.5811 26H11.4189C10.0831 25.9998 9.00021 24.9169 9 23.5811V7H8C7.44772 7 7 6.55228 7 6C7 5.44772 7.44772 5 8 5H19C19.5523 5 20 5.44772 20 6C20 6.55228 19.5523 7 19 7H18V23.5811Z" fill="#65B9EC"/>
<path d="M10.5 22C10.7761 22 11 22.2239 11 22.5C11 22.7761 10.7761 23 10.5 23H9V22H10.5ZM10.5 19C10.7761 19 11 19.2239 11 19.5C11 19.7761 10.7761 20 10.5 20H9V19H10.5ZM10.5 16C10.7761 16 11 16.2239 11 16.5C11 16.7761 10.7761 17 10.5 17H9V16H10.5Z" fill="white"/>
<path d="M16 5H11V4H10C9.44772 4 9 3.55228 9 3C9 2.44772 9.44772 2 10 2H17C17.5523 2 18 2.44772 18 3C18 3.55228 17.5523 4 17 4H16V5Z" fill="#285FA4"/>
<path d="M10.6016 7.5C10.6016 7.22386 10.8254 7 11.1016 7H15.9016C16.1777 7 16.4016 7.22386 16.4016 7.5V13.5C16.4016 13.7761 16.1777 14 15.9016 14H11.1016C10.8254 14 10.6016 13.7761 10.6016 13.5V7.5Z" fill="white"/>
<path d="M22 6.5C22 4.01472 24.0147 2 26.5 2C28.9853 2 31 4.01472 31 6.5L31 16L22 16L22 6.5Z" fill="#65B9EC"/>
<path fill-rule="evenodd" clip-rule="evenodd" d="M26.149 3.57686C26.0207 3.19524 25.6279 3.00314 25.2717 3.14779C23.1548 4.00737 22.9174 6.18023 22.8228 7.04689C22.8213 7.06014 22.8199 7.07308 22.8185 7.08571C22.7739 7.49172 23.0426 7.85433 23.4185 7.89562C23.7945 7.93691 24.1354 7.64124 24.18 7.23523C24.2801 6.32415 24.4526 5.05095 25.7362 4.52973C26.0924 4.38509 26.2772 3.95847 26.149 3.57686Z" fill="white"/>
<path d="M22 16L31 16L31 25.5C31 27.9853 28.9853 30 26.5 30C24.0147 30 22 27.9853 22 25.5L22 16Z" fill="#285FA4"/>
<rect x="22" y="15.2002" width="9" height="1.6" fill="#313D4C"/>
</svg>
