<svg width="44" height="32" viewBox="0 0 44 32" fill="none" xmlns="http://www.w3.org/2000/svg">
<rect x="4" y="8" width="30" height="20" rx="2.7" fill="#65B9EC"/>
<rect x="13" y="12" width="12" height="12" rx="6" fill="#285FA4"/>
<path d="M19 14.5C19.4832 14.5 19.875 14.8918 19.875 15.375V17.125H21.625C22.1082 17.125 22.5 17.5168 22.5 18C22.5 18.4832 22.1082 18.875 21.625 18.875H19.875V20.625C19.875 21.1082 19.4832 21.5 19 21.5C18.5168 21.4999 18.125 21.1082 18.125 20.625V18.875H16.375C15.8918 18.8749 15.5 18.4832 15.5 18C15.5 17.5168 15.8918 17.1251 16.375 17.125H18.125V15.375C18.125 14.8918 18.5168 14.5001 19 14.5Z" fill="white"/>
<path d="M25 3C26.1046 3 27 3.89543 27 5V8H24V6C24 5.44772 23.5523 5 23 5H15C14.4477 5 14 5.44772 14 6V8H11V5C11 3.89543 11.8954 3 13 3H25Z" fill="#313D4C"/>
<path d="M8 28H11C11 28.5523 10.5523 29 10 29H9C8.44772 29 8 28.5523 8 28Z" fill="#313D4C"/>
<path d="M27 28H30C30 28.5523 29.5523 29 29 29H28C27.4477 29 27 28.5523 27 28Z" fill="#313D4C"/>
</svg>
