<svg width="16" height="17" viewBox="0 0 16 17" fill="none" xmlns="http://www.w3.org/2000/svg">
<path d="M11.9225 3.07856C11.9667 2.74735 12.2492 2.5 12.5834 2.5H13.416C13.7501 2.5 14.0327 2.74735 14.0768 3.07856L14.3908 5.43335H11.6086L11.9225 3.07856Z" fill="#6D7882"/>
<path fill-rule="evenodd" clip-rule="evenodd" d="M9.33301 6.50002V4.40209C9.33301 4.14743 9.059 3.98683 8.83681 4.11126L5.99967 5.70005V4.44394C5.99967 4.18022 5.70793 4.02094 5.48609 4.16354L1.82287 6.51845C1.51756 6.71471 1.33301 7.05276 1.33301 7.41571V12.7667C1.33301 13.3558 1.81057 13.8334 2.39968 13.8334H13.5997C14.1888 13.8334 14.6663 13.3558 14.6663 12.7667V7.56669C14.6663 7.54429 14.6657 7.52205 14.6643 7.5H14.6663L14.6613 7.46185C14.6588 7.43667 14.6555 7.41174 14.6513 7.3871L14.533 6.50002L9.33301 6.50002ZM5.33302 8.6333C5.62757 8.6333 5.86635 8.87208 5.86635 9.16663V11.1666C5.86635 11.4612 5.62757 11.7 5.33302 11.7C5.03846 11.7 4.79968 11.4612 4.79968 11.1666V9.16663C4.79968 8.87208 5.03846 8.6333 5.33302 8.6333ZM7.99968 8.6333C8.29423 8.6333 8.53302 8.87208 8.53302 9.16663V11.1666C8.53302 11.4612 8.29423 11.7 7.99968 11.7C7.70513 11.7 7.46635 11.4612 7.46635 11.1666V9.16663C7.46635 8.87208 7.70513 8.6333 7.99968 8.6333ZM11.1997 11.1666V9.16663C11.1997 8.87208 10.9609 8.6333 10.6663 8.6333C10.3718 8.6333 10.133 8.87208 10.133 9.16663V11.1666C10.133 11.4612 10.3718 11.7 10.6663 11.7C10.9609 11.7 11.1997 11.4612 11.1997 11.1666Z" fill="#6D7882"/>
</svg>
