<svg width="21" height="20" viewBox="0 0 21 20" fill="none" xmlns="http://www.w3.org/2000/svg">
<path fill-rule="evenodd" clip-rule="evenodd" d="M14.9105 2.74406C15.2359 2.41871 15.7634 2.41875 16.0889 2.74406L19.3294 5.98462C19.6547 6.31007 19.6548 6.83764 19.3294 7.163L18.7402 7.7522C18.4149 8.07737 17.8872 8.07737 17.5618 7.7522L16.7497 6.94002V8.94035C18.44 9.47137 19.6662 11.0511 19.6663 12.9166C19.6663 15.2177 17.8007 17.0831 15.4997 17.0833C13.1986 17.0831 11.3331 15.2177 11.333 12.9166C11.3331 11.051 12.5593 9.47131 14.2497 8.94035V6.93921L13.4367 7.7522C13.1113 8.07729 12.5837 8.07733 12.2583 7.7522L11.6691 7.163C11.3439 6.83765 11.344 6.31004 11.6691 5.98462L14.9105 2.74406ZM15.4997 11.6666C14.8095 11.6667 14.2498 12.2264 14.2497 12.9166C14.2497 13.6068 14.8094 14.1665 15.4997 14.1666C16.1899 14.1665 16.7496 13.6068 16.7497 12.9166C16.7495 12.2264 16.1898 11.6667 15.4997 11.6666Z" fill="#6D7882"/>
<path fill-rule="evenodd" clip-rule="evenodd" d="M5.49967 2.08325C7.80086 2.08325 9.66634 3.94873 9.66634 6.24992C9.66634 8.11555 8.44006 9.69436 6.74967 10.2253V11.2499H8.83301C9.29324 11.2499 9.66634 11.623 9.66634 12.0833V12.9166C9.66634 13.3768 9.29324 13.7499 8.83301 13.7499H6.74967V15.8333C6.74967 16.2935 6.37658 16.6666 5.91634 16.6666H5.08301C4.62277 16.6666 4.24967 16.2935 4.24967 15.8333V13.7499H2.16634C1.7061 13.7499 1.33301 13.3768 1.33301 12.9166V12.0833C1.33301 11.623 1.7061 11.2499 2.16634 11.2499H4.24967V10.2253C2.55929 9.69436 1.33301 8.11555 1.33301 6.24992C1.33301 3.94873 3.19849 2.08325 5.49967 2.08325ZM5.49967 4.99992C4.80932 4.99992 4.24967 5.55956 4.24967 6.24992C4.24967 6.94027 4.80932 7.49992 5.49967 7.49992C6.19003 7.49992 6.74967 6.94027 6.74967 6.24992C6.74967 5.55956 6.19003 4.99992 5.49967 4.99992Z" fill="#6D7882"/>
</svg>
