<svg width="16" height="17" viewBox="0 0 16 17" fill="none" xmlns="http://www.w3.org/2000/svg">
<path d="M13.3333 14.333C13.3333 14.7012 13.0349 14.9997 12.6667 14.9997H3.33333C2.96514 14.9997 2.66667 14.7012 2.66667 14.333V13.2666H13.3333V14.333Z" fill="#6D7882"/>
<path d="M8 1.83301C9.24494 1.83301 10.2499 2.57368 10.25 4.05501C10.25 6.27724 6.5 9.24056 12.5 9.24056C12.8978 9.24056 13.2793 9.39641 13.5605 9.67415C13.8418 9.95193 13.9999 10.3288 14 10.7217V11.8701C14 12.0542 13.8507 12.2035 13.6667 12.2035H13.3333V12.1995H2.66667V12.2035H2.33333C2.14926 12.2035 2.00004 12.0542 2 11.8701V10.7217C2.00006 10.3288 2.1582 9.95193 2.43945 9.67415C2.72074 9.39641 3.10224 9.24056 3.5 9.24056C9.5 9.24056 5.75 6.27724 5.75 4.05501C5.75006 3.4658 5.98705 2.90073 6.40885 2.48405C6.83081 2.0673 7.40326 1.83301 8 1.83301Z" fill="#6D7882"/>
</svg>
