<svg width="21" height="20" viewBox="0 0 21 20" fill="none" xmlns="http://www.w3.org/2000/svg">
<g clip-path="url(#clip0_5993_85684)">
<path fill-rule="evenodd" clip-rule="evenodd" d="M8.16699 2.33333V3.33333H5.08366C4.16318 3.33333 3.41699 4.07953 3.41699 5V15C3.41699 15.857 4.06385 16.563 4.89597 16.6562C4.75045 16.9037 4.66699 17.192 4.66699 17.4998C4.66699 18.4203 5.41318 19.1665 6.33366 19.1665C7.25413 19.1665 8.00033 18.4203 8.00033 17.4998C8.00033 17.1963 7.9192 16.9118 7.77745 16.6667H13.2232C13.0815 16.9118 13.0003 17.1963 13.0003 17.4998C13.0003 18.4203 13.7465 19.1665 14.667 19.1665C15.5875 19.1665 16.3337 18.4203 16.3337 17.4998C16.3337 17.192 16.2502 16.9037 16.1047 16.6562C16.9368 16.563 17.5837 15.857 17.5837 15V5C17.5837 4.07953 16.8375 3.33333 15.917 3.33333H12.8337V2.33333H13.417C13.7852 2.33333 14.0837 2.03486 14.0837 1.66667C14.0837 1.29848 13.7852 1 13.417 1H7.58366C7.21547 1 6.91699 1.29848 6.91699 1.66667C6.91699 2.03486 7.21547 2.33333 7.58366 2.33333H8.16699ZM9.50033 2.33333H11.5003V3.33333H9.50033V2.33333ZM9.50034 8.3335V12.5002C9.50034 12.8684 9.20186 13.1668 8.83367 13.1668C8.46548 13.1668 8.167 12.8684 8.167 12.5002V8.3335C8.167 7.96531 8.46548 7.66683 8.83367 7.66683C9.20186 7.66683 9.50034 7.96531 9.50034 8.3335ZM12.8337 8.3335V12.5002C12.8337 12.8684 12.5352 13.1668 12.167 13.1668C11.7988 13.1668 11.5003 12.8684 11.5003 12.5002V8.3335C11.5003 7.96531 11.7988 7.66683 12.167 7.66683C12.5352 7.66683 12.8337 7.96531 12.8337 8.3335Z" fill="#6D7882"/>
</g>
<defs>
<clipPath id="clip0_5993_85684">
<rect width="20" height="20" fill="white" transform="translate(0.5)"/>
</clipPath>
</defs>
</svg>
