<svg width="20" height="20" viewBox="0 0 20 20" fill="none" xmlns="http://www.w3.org/2000/svg">
<path fill-rule="evenodd" clip-rule="evenodd" d="M6.31675 3.41699C6.02297 3.41709 5.73445 3.49483 5.48039 3.64234C5.22634 3.78986 5.01579 4.0019 4.87008 4.25699L1.88675 9.47783C1.7426 9.72979 1.66677 10.015 1.66675 10.3053V14.0537C1.66677 14.3123 1.72696 14.5673 1.84258 14.7987L2.77425 16.662C2.91263 16.9389 3.12541 17.1718 3.38873 17.3346C3.65205 17.4974 3.9555 17.5836 4.26508 17.5837H5.00008C5.44211 17.5837 5.86603 17.4081 6.17859 17.0955C6.49115 16.7829 6.66675 16.359 6.66675 15.917H13.3334C13.3334 16.359 13.509 16.7829 13.8216 17.0955C14.1341 17.4081 14.5581 17.5837 15.0001 17.5837H15.7351C16.0447 17.5836 16.3481 17.4974 16.6114 17.3346C16.8748 17.1718 17.0875 16.9389 17.2259 16.662L18.1576 14.7987C18.2734 14.5678 18.3334 14.312 18.3334 14.0537V10.3053C18.3334 10.015 18.2576 9.72979 18.1134 9.47783L15.1301 4.25699C14.9844 4.0019 14.7738 3.78986 14.5198 3.64234C14.2657 3.49483 13.9772 3.41709 13.6834 3.41699H6.31675ZM10.0001 10.0837C8.66925 10.0837 7.44008 9.79783 6.20591 9.33783C6.00811 9.23903 5.77916 9.22286 5.56943 9.29288C5.3597 9.36289 5.18637 9.51335 5.08758 9.71116C4.98879 9.90897 4.97262 10.1379 5.04263 10.3476C5.11265 10.5574 5.26311 10.7307 5.46091 10.8295C5.87258 11.0337 7.96675 11.7503 10.0001 11.7503C11.5451 11.7503 13.1401 11.522 14.5376 10.8303C14.7344 10.7302 14.884 10.5568 14.9541 10.3475C15.0243 10.1381 15.0094 9.90961 14.9126 9.71116C14.8637 9.61318 14.796 9.5258 14.7133 9.45401C14.6306 9.38221 14.5346 9.32741 14.4308 9.29274C14.3269 9.25807 14.2172 9.24421 14.108 9.25194C13.9988 9.25968 13.8922 9.28886 13.7942 9.33783C12.6567 9.90616 11.2467 10.0837 10.0001 10.0837Z" fill="#6D7882"/>
</svg>
