<svg width="20" height="20" viewBox="0 0 20 20" fill="none" xmlns="http://www.w3.org/2000/svg">
<g clip-path="url(#clip0_4342_188701)">
<path d="M7.49967 1.66666C7.49967 1.20642 7.87277 0.833328 8.33301 0.833328H11.6663C12.1266 0.833328 12.4997 1.20642 12.4997 1.66666C12.4997 2.1269 12.1266 2.49999 11.6663 2.49999H8.33301C7.87277 2.49999 7.49967 2.1269 7.49967 1.66666Z" fill="#6D7882"/>
<path fill-rule="evenodd" clip-rule="evenodd" d="M9.99967 19.1667C14.3719 19.1667 17.9163 15.6222 17.9163 11.25C17.9163 9.6137 17.4199 8.09334 16.5694 6.83134C16.454 6.66007 16.47 6.42975 16.6161 6.28371L17.2619 5.63789C17.5873 5.31245 17.5873 4.78482 17.2619 4.45938L16.6726 3.87012C16.3472 3.54469 15.8196 3.54469 15.4941 3.87012L14.8242 4.54006C14.6805 4.68373 14.4548 4.7018 14.284 4.59169C13.0491 3.79541 11.5783 3.33333 9.99967 3.33333C5.62742 3.33333 2.08301 6.87774 2.08301 11.25C2.08301 15.6222 5.62742 19.1667 9.99967 19.1667ZM10.6663 7.49999L10.6663 10.9971C10.6663 11.1549 10.7555 11.2992 10.8967 11.3698L13.6311 12.737C13.9605 12.9017 14.094 13.3022 13.9293 13.6315C13.7646 13.9608 13.3642 14.0943 13.0349 13.9296L9.70153 12.2629C9.47568 12.15 9.33301 11.9192 9.33301 11.6667V7.49999C9.33301 7.1318 9.63148 6.83333 9.99967 6.83333C10.3679 6.83333 10.6663 7.1318 10.6663 7.49999Z" fill="#6D7882"/>
</g>
<defs>
<clipPath id="clip0_4342_188701">
<rect width="20" height="20" fill="white"/>
</clipPath>
</defs>
</svg>
