<svg width="20" height="20" viewBox="0 0 20 20" fill="none" xmlns="http://www.w3.org/2000/svg">
<path d="M12.7775 11.8966C13.4042 12.7506 14.4147 13.3052 15.555 13.3053C16.2768 13.3053 16.9464 13.0827 17.5 12.7031V16.6663C17.5 17.1266 17.1269 17.4997 16.6667 17.4997H3.33333C2.8731 17.4997 2.50001 17.1266 2.5 16.6663V12.7031C3.05338 13.0825 3.72258 13.3053 4.44417 13.3053C5.58456 13.3053 6.59469 12.7505 7.22168 11.8966C7.84843 12.7508 8.85947 13.3052 10 13.3053C11.1403 13.3053 12.1506 12.7505 12.7775 11.8966Z" fill="#6D7882"/>
<path d="M10 5.58317C10.3682 5.58317 10.6665 5.88148 10.6665 6.24967V7.083H16.6667C17.1269 7.083 17.5 7.4561 17.5 7.91634V10.6825C17.1795 11.44 16.4294 11.9715 15.555 11.9715C14.3925 11.9712 13.4492 11.0316 13.444 9.87028C13.444 9.86709 13.4448 9.8637 13.4448 9.86051C13.4448 9.62761 13.3248 9.42298 13.1437 9.30387C13.0923 9.27002 13.0361 9.24279 12.9761 9.22412C12.9522 9.21671 12.9277 9.21094 12.9028 9.20621C12.8623 9.19852 12.8203 9.19401 12.7775 9.19401L12.71 9.19726C12.6202 9.20632 12.5358 9.23351 12.4601 9.27457C12.2522 9.38739 12.1111 9.60746 12.111 9.86051C12.111 11.0264 11.1658 11.9714 10 11.9715C8.90692 11.9714 8.00751 11.1408 7.89958 10.0762L7.889 9.86051C7.88893 9.63053 7.77246 9.42767 7.59521 9.30794C7.55984 9.28403 7.52187 9.26376 7.4821 9.2469C7.44215 9.22998 7.40025 9.21675 7.35677 9.20784C7.33488 9.20336 7.31265 9.19954 7.29004 9.19726L7.22249 9.19401C6.85437 9.19401 6.55529 9.49241 6.55518 9.86051C6.55517 11.0264 5.61011 11.9715 4.44417 11.9715C3.57057 11.9714 2.82094 11.4407 2.5 10.6841V7.91634C2.5 7.4561 2.8731 7.083 3.33333 7.083H9.3335V6.24967C9.3335 5.88148 9.63181 5.58317 10 5.58317Z" fill="#6D7882"/>
<path d="M9.83073 0.91764C9.90618 0.804802 10.0938 0.804792 10.1693 0.91764L11.333 2.58268C11.9735 3.54639 11.2811 4.99966 10 4.99967C8.71891 4.99967 8.02645 3.5464 8.66699 2.58268L9.83073 0.91764Z" fill="#6D7882"/>
</svg>
