<svg width="44" height="32" viewBox="0 0 44 32" fill="none" xmlns="http://www.w3.org/2000/svg">
<ellipse cx="20" cy="29.5" rx="13" ry="2.5" fill="#ACB1B6" fill-opacity="0.2"/>
<path d="M23.8574 12.4287C23.8574 11.3241 24.7529 10.4287 25.8574 10.4287H29.286C30.3906 10.4287 31.286 11.3241 31.286 12.4287V27.0001C31.286 28.1046 30.3906 29.0001 29.286 29.0001H23.8574V12.4287Z" fill="#285FA4"/>
<rect x="9" y="3" width="16.7143" height="25.9999" rx="2" fill="#65B9EC"/>
<path d="M20.1426 8.57129C20.6554 8.57129 21.0711 8.98702 21.0711 9.49986C21.0711 10.0127 20.6554 10.4284 20.1426 10.4284L14.5711 10.4284C14.0583 10.4284 13.6426 10.0127 13.6426 9.49986C13.6426 8.98702 14.0583 8.57129 14.5711 8.57129L20.1426 8.57129Z" fill="white"/>
<path d="M20.1426 14.1427C20.6554 14.1427 21.0711 14.5584 21.0711 15.0713C21.0711 15.5841 20.6554 15.9998 20.1426 15.9998L14.5711 15.9998C14.0583 15.9998 13.6426 15.5841 13.6426 15.0713C13.6426 14.5584 14.0583 14.1427 14.5711 14.1427L20.1426 14.1427Z" fill="white"/>
<path d="M13.6426 21.5714C13.6426 21.0586 14.0583 20.6428 14.5711 20.6428H20.1426C20.6554 20.6428 21.0711 21.0586 21.0711 21.5714V28.9999H13.6426V21.5714Z" fill="#E5ECF9"/>
</svg>
