<svg width="20" height="20" viewBox="0 0 20 20" fill="none" xmlns="http://www.w3.org/2000/svg">
<path fill-rule="evenodd" clip-rule="evenodd" d="M14.411 2.74382C14.7364 2.41847 15.2639 2.41851 15.5894 2.74382L18.8299 5.98438C19.1551 6.30983 19.1553 6.83739 18.8299 7.16276L18.2407 7.75195C17.9153 8.07713 17.3877 8.07713 17.0623 7.75195L16.2502 6.93978V8.9401C17.9405 9.47113 19.1667 11.0508 19.1668 12.9163C19.1668 15.2174 17.3012 17.0829 15.0002 17.083C12.6991 17.0829 10.8336 15.2174 10.8335 12.9163C10.8336 11.0508 12.0598 9.47107 13.7502 8.9401V6.93896L12.9372 7.75195C12.6118 8.07704 12.0841 8.07709 11.7588 7.75195L11.1696 7.16276C10.8444 6.8374 10.8445 6.30979 11.1696 5.98438L14.411 2.74382ZM15.0002 11.6663C14.31 11.6665 13.7503 12.2262 13.7502 12.9163C13.7502 13.6066 14.3099 14.1662 15.0002 14.1663C15.6904 14.1662 16.2501 13.6066 16.2502 12.9163C16.25 12.2262 15.6903 11.6665 15.0002 11.6663Z" fill="#6D7882"/>
<path fill-rule="evenodd" clip-rule="evenodd" d="M5.00016 2.08301C7.30135 2.08301 9.16683 3.94849 9.16683 6.24967C9.16683 8.11531 7.94055 9.69411 6.25016 10.2251V11.2497H8.3335C8.79373 11.2497 9.16683 11.6228 9.16683 12.083V12.9163C9.16683 13.3766 8.79373 13.7497 8.3335 13.7497H6.25016V15.833C6.25016 16.2932 5.87707 16.6663 5.41683 16.6663H4.5835C4.12326 16.6663 3.75016 16.2932 3.75016 15.833V13.7497H1.66683C1.20659 13.7497 0.833496 13.3766 0.833496 12.9163V12.083C0.833496 11.6228 1.20659 11.2497 1.66683 11.2497H3.75016V10.2251C2.05977 9.69411 0.833496 8.11531 0.833496 6.24967C0.833496 3.94849 2.69898 2.08301 5.00016 2.08301ZM5.00016 4.99967C4.30981 4.99967 3.75016 5.55932 3.75016 6.24967C3.75016 6.94003 4.30981 7.49967 5.00016 7.49967C5.69052 7.49967 6.25016 6.94003 6.25016 6.24967C6.25016 5.55932 5.69052 4.99967 5.00016 4.99967Z" fill="#6D7882"/>
</svg>
