<svg width="21" height="20" viewBox="0 0 21 20" fill="none" xmlns="http://www.w3.org/2000/svg">
<g clip-path="url(#clip0_4335_187249)">
<path d="M18.4163 9.01794V15.7408C18.4163 16.2074 18.231 16.6549 17.9011 16.9848C17.5711 17.3147 17.1237 17.5001 16.6571 17.5001H4.34227C3.87568 17.5001 3.42821 17.3147 3.09828 16.9848C2.76836 16.6549 2.58301 16.2074 2.58301 15.7408V9.01794H18.4163ZM14.0182 1.66675C14.2515 1.66675 14.4752 1.75942 14.6402 1.92439C14.8051 2.08935 14.8978 2.31309 14.8978 2.54638V3.42601H16.6571C17.1237 3.42601 17.5711 3.61136 17.9011 3.94128C18.231 4.27121 18.4163 4.71868 18.4163 5.18527V7.32151H2.58301V5.18527C2.58301 4.71868 2.76836 4.27121 3.09828 3.94128C3.42821 3.61136 3.87568 3.42601 4.34227 3.42601H6.10153V2.54638C6.10153 2.31309 6.1942 2.08935 6.35916 1.92439C6.52413 1.75942 6.74786 1.66675 6.98116 1.66675C7.21445 1.66675 7.43818 1.75942 7.60315 1.92439C7.76811 2.08935 7.86079 2.31309 7.86079 2.54638V3.42601H13.1386V2.54638C13.1386 2.31309 13.2312 2.08935 13.3962 1.92439C13.5612 1.75942 13.7849 1.66675 14.0182 1.66675Z" fill="#6D7882"/>
</g>
<defs>
<clipPath id="clip0_4335_187249">
<rect width="20" height="20" fill="white" transform="translate(0.5)"/>
</clipPath>
</defs>
</svg>
