<svg width="20" height="20" viewBox="0 0 20 20" fill="none" xmlns="http://www.w3.org/2000/svg">
<path fill-rule="evenodd" clip-rule="evenodd" d="M5.16676 4V5H3.00008C2.2637 5 1.66675 5.59695 1.66675 6.33333L1.66677 10C1.66677 10.5523 2.11448 11 2.66677 11H17.3334C17.8835 11 18.3298 10.5559 18.3334 10.0067V6.33333C18.3334 5.59695 17.7365 5 17.0001 5H14.8334V4C14.8334 3.17157 14.1619 2.5 13.3334 2.5H6.66676C5.83833 2.5 5.16676 3.17157 5.16676 4ZM6.66676 3.83333C6.57471 3.83333 6.50009 3.90795 6.50009 4V5H13.5001V4C13.5001 3.90795 13.4255 3.83333 13.3334 3.83333H6.66676Z" fill="#6D7882"/>
<path d="M18.3334 12.1088C18.0303 12.2528 17.6913 12.3333 17.3334 12.3333H2.66677C2.3089 12.3333 1.96984 12.2528 1.66675 12.1088V15.3333C1.66675 16.0697 2.2637 16.6667 3.00008 16.6667H17.0001C17.7365 16.6667 18.3334 16.0697 18.3334 15.3333V12.1088Z" fill="#6D7882"/>
</svg>
