<svg width="20" height="20" viewBox="0 0 20 20" fill="none" xmlns="http://www.w3.org/2000/svg">
<path fill-rule="evenodd" clip-rule="evenodd" d="M4.16634 18.3334H5.66634C6.21862 18.3334 6.66634 17.8857 6.66634 17.3334L6.66634 12.9167C6.66634 12.6866 6.85288 12.5001 7.083 12.5001H9.583C9.81312 12.5001 9.99967 12.6866 9.99967 12.9167L9.99967 17.3334C9.99967 17.8857 10.4474 18.3334 10.9997 18.3334H12.333C12.8853 18.3334 13.333 17.8857 13.333 17.3334V2.50008C13.333 2.03984 12.9599 1.66675 12.4997 1.66675H4.16634C3.7061 1.66675 3.33301 2.03984 3.33301 2.50008V17.5001C3.33301 17.9603 3.7061 18.3334 4.16634 18.3334ZM10.6663 5.83337C10.6663 6.20156 10.3678 6.50004 9.99966 6.50004H6.66633C6.29814 6.50004 5.99966 6.20156 5.99966 5.83337C5.99966 5.46518 6.29814 5.16671 6.66633 5.16671H9.99966C10.3678 5.16671 10.6663 5.46518 10.6663 5.83337ZM10.6663 9.16671C10.6663 9.5349 10.3678 9.83337 9.99966 9.83337H6.66633C6.29814 9.83337 5.99966 9.5349 5.99966 9.16671C5.99966 8.79852 6.29814 8.50004 6.66633 8.50004H9.99966C10.3678 8.50004 10.6663 8.79852 10.6663 9.16671Z" fill="#6D7882"/>
<path d="M15.833 18.3334H14.6663V6.66675H15.833C16.2932 6.66675 16.6663 7.03984 16.6663 7.50008V17.5001C16.6663 17.9603 16.2932 18.3334 15.833 18.3334Z" fill="#6D7882"/>
</svg>
