<svg width="25" height="25" viewBox="0 0 25 25" fill="none" xmlns="http://www.w3.org/2000/svg">
<path d="M13.7717 13.7287C13.7717 13.7643 13.7895 13.7821 13.8073 13.7821C13.8252 13.7821 13.843 13.7821 13.843 13.7643L19.4568 10.1108C19.5638 10.0395 19.6529 10.0039 19.7776 10.0039H21.0073C21.2034 10.0039 21.3281 10.1287 21.3281 10.3247V12.6772C21.3281 12.9623 21.2568 13.1227 21.0073 13.2831L19.5103 14.1742C19.4925 14.192 19.4747 14.192 19.4568 14.192C19.439 14.192 19.4212 14.1742 19.4212 14.1207V11.3762C19.4212 11.3405 19.4034 11.3227 19.3856 11.3227C19.3677 11.3227 19.3499 11.3227 19.3499 11.3405L15.2509 14.0138C15.144 14.0851 15.037 14.1029 14.9301 14.1029H12.2212C12.0252 14.1029 11.9004 13.9782 11.9004 13.7821V10.396C11.9004 10.3782 11.8826 10.3425 11.8648 10.3425C11.8469 10.3425 11.8291 10.3425 11.8291 10.3603L9.1202 11.9999C9.08456 12.0178 9.08456 12.0356 9.08456 12.0356C9.08456 12.0534 9.08456 12.0534 9.10238 12.0712L11.0271 13.996C11.045 14.0138 11.0628 14.0494 11.0628 14.0673C11.0628 14.0851 11.0271 14.1029 11.0093 14.1029H9.26278C9.1202 14.1029 9.01327 14.0851 8.94199 14.0138L7.76575 12.8376C7.74793 12.8197 7.74793 12.8197 7.73011 12.8197C7.71228 12.8197 7.71228 12.8197 7.69446 12.8376L5.73407 14.0138C5.60931 14.0851 5.53803 14.1029 5.41327 14.1029H3.64892C3.45288 14.1029 3.32812 13.9782 3.32812 13.7821V11.4653C3.32812 11.1801 3.39941 11.0197 3.64892 10.8594L5.14595 9.95044C5.16377 9.93262 5.18159 9.93262 5.18159 9.93262C5.19941 9.93262 5.21723 9.95044 5.21723 10.0039V13.0871C5.21723 13.1227 5.23506 13.1405 5.25288 13.1405C5.2707 13.1405 5.28852 13.1405 5.30634 13.1227L10.3856 10.0574C10.5103 9.98608 10.5816 9.96826 10.7242 9.96826H13.4687C13.6648 9.96826 13.7895 10.093 13.7895 10.2891V13.7287H13.7717Z" fill="#464C53"/>
</svg>
