<svg width="21" height="20" viewBox="0 0 21 20" fill="none" xmlns="http://www.w3.org/2000/svg">
<path d="M8.41683 4.16666C8.41683 5.54737 7.29754 6.66666 5.91683 6.66666C4.53612 6.66666 3.41683 5.54737 3.41683 4.16666C3.41683 2.78594 4.53612 1.66666 5.91683 1.66666C7.29754 1.66666 8.41683 2.78594 8.41683 4.16666Z" fill="#6D7882"/>
<path d="M1.40047 9.47359C1.08773 8.48494 1.90962 7.5008 3.04801 7.5008H8.78565C9.92404 7.5008 10.7459 8.48494 10.4332 9.47359L7.98537 17.2117C7.7752 17.8761 7.10286 18.3341 6.33783 18.3341H5.49583C4.7308 18.3341 4.05846 17.8761 3.84829 17.2117L1.40047 9.47359Z" fill="#6D7882"/>
<path d="M17.5835 4.16666C17.5835 5.54737 16.4642 6.66666 15.0835 6.66666C13.7028 6.66666 12.5835 5.54737 12.5835 4.16666C12.5835 2.78594 13.7028 1.66666 15.0835 1.66666C16.4642 1.66666 17.5835 2.78594 17.5835 4.16666Z" fill="#6D7882"/>
<path d="M10.5671 16.3614C10.2544 17.35 11.0763 18.3341 12.2147 18.3341H17.9523C19.0907 18.3341 19.9126 17.35 19.5999 16.3614L17.152 8.62326C16.9419 7.95887 16.2695 7.5008 15.5045 7.5008H14.6625C13.8975 7.5008 13.2251 7.95886 13.015 8.62326L10.5671 16.3614Z" fill="#6D7882"/>
</svg>
