<svg width="16" height="16" viewBox="0 0 16 16" fill="none" xmlns="http://www.w3.org/2000/svg">
<path d="M9 1.33301C9.14134 1.33301 9.27696 1.38938 9.37695 1.48926L13.1768 5.29004C13.2766 5.39003 13.333 5.52567 13.333 5.66699V13.4668C13.333 14.1295 12.7956 14.667 12.1328 14.667H3.86621C3.20368 14.6667 2.66699 14.1294 2.66699 13.4668V2.5332C2.66706 1.87067 3.20372 1.33325 3.86621 1.33301H9ZM5.33301 10.667C5.03846 10.667 4.7998 10.9056 4.7998 11.2002C4.79991 11.4947 5.03852 11.7334 5.33301 11.7334H9.99902C10.2935 11.7334 10.5331 11.4947 10.5332 11.2002C10.5332 10.9056 10.2936 10.667 9.99902 10.667H5.33301ZM5.33301 8.40039C5.03846 8.40039 4.7998 8.63904 4.7998 8.93359C4.79991 9.22806 5.03852 9.4668 5.33301 9.4668H7.99902C8.29351 9.4668 8.5331 9.22806 8.5332 8.93359C8.5332 8.63904 8.29358 8.40039 7.99902 8.40039H5.33301ZM9.5332 5C9.5332 5.07364 9.59335 5.13379 9.66699 5.13379H11.5117L9.5332 3.1543V5Z" fill="#6D7882"/>
</svg>
