<svg width="44" height="32" viewBox="0 0 44 32" fill="none" xmlns="http://www.w3.org/2000/svg">
<ellipse cx="18" cy="28.5" rx="17" ry="2.5" fill="#ACB1B6" fill-opacity="0.2"/>
<path d="M7.85597 3C7.85597 3 11.9136 5.27273 18 5.27273C24.0864 5.27273 28.144 3 28.144 3L34.7903 23.2697C34.9171 23.6563 34.795 24.0772 34.4544 24.2996C32.8886 25.3223 27.8484 28 18 28C8.1516 28 3.11137 25.3223 1.54558 24.2996C1.20495 24.0772 1.0829 23.6563 1.20966 23.2697L7.85597 3Z" fill="#65B9EC"/>
<path d="M30.1123 9C29.8974 9.62935 29.5667 10.3253 29.0859 10.9941C27.9307 12.6012 25.9277 14.0253 22.6973 14.0254C21.4097 14.0254 20.5272 14.3711 19.917 14.8682C19.617 15.1125 19.3723 15.4032 19.1738 15.7256C20.0927 16.0879 21.2071 16.9942 21.498 17.2852C21.9098 17.6967 23.1448 16.4621 23.5566 16.4619C23.9683 16.4619 23.9686 18.9316 23.1455 19.3438C22.4868 19.6731 20.6751 18.6574 19.8516 18.1084C19.9888 18.9319 20.1809 20.9909 19.8516 22.6377C19.4395 24.696 15.7341 25.5189 11.6172 23.0488C8.70088 21.299 8.41725 18.4531 8.73535 16.4619C8.82955 15.8724 9.13491 15.7399 8.85645 15.3984C8.02326 14.645 7.5 13.5555 7.5 12.3438C7.50013 10.07 9.17838 8.55664 11.4521 8.55664C13.7259 8.5567 15.3221 10.0701 15.3223 12.3438C15.3223 12.7857 15.2669 13.2113 15.1631 13.6104C15.2651 13.8544 15.3223 14.1223 15.3223 14.4033C15.3222 15.0757 14.9977 15.6703 14.499 16.0459V16.0498L15.3223 16.4619C15.5967 14.9523 16.311 12.0154 16.9697 12.3447C17.7925 12.7564 17.3809 13.1684 17.3809 15.2266C17.3808 16.8734 16.5572 18.3827 16.1455 18.9316L17.3809 19.3438C17.3809 19.1451 17.3886 18.9079 17.4014 18.6504C17.4053 17.972 17.4839 17.2432 17.6855 16.542C17.6933 16.5151 17.7028 16.4888 17.7109 16.4619C17.7236 16.4191 17.7364 16.3774 17.75 16.3369C18.0248 15.4921 18.4921 14.6742 19.2539 14.0537C20.0824 13.3789 21.2114 12.9746 22.6973 12.9746C25.568 12.9745 27.2623 11.7319 28.2334 10.3809C28.7252 9.69658 29.0366 8.97716 29.2129 8.36328C29.3715 7.81106 29.4097 7.38447 29.3975 7.16406L29.3896 7.08203L29.3838 6.97559C29.3858 6.93123 29.3936 6.88801 29.4062 6.84668L30.1123 9Z" fill="#E5ECF9"/>
<path d="M34.0198 18C33.5039 18.0076 32.9993 18.1438 32.5568 18.3948C32.1144 18.6459 31.7499 19.2103 31.5 19.6372C31.2501 19.2103 30.8856 18.6459 30.4432 18.3948C30.0007 18.1438 29.4961 18.0076 28.9802 18C28.1578 18.0338 27.3829 18.374 26.825 18.9464C26.267 19.5187 25.9712 20.2766 26.0022 21.0546C26.0022 23.99 31.0217 27.6789 31.2352 27.8228C31.3954 27.93 31.6046 27.93 31.7648 27.8228C31.9783 27.6798 36.9978 23.99 36.9978 21.0546C37.0288 20.2766 36.733 19.5187 36.175 18.9464C35.6171 18.374 34.8422 18.0338 34.0198 18Z" fill="#285FA4"/>
</svg>
