<svg width="21" height="20" viewBox="0 0 21 20" fill="none" xmlns="http://www.w3.org/2000/svg">
<path d="M13.3761 2.42285C12.6745 2.25159 12.2792 3.18435 12.8641 3.60955C14.8171 5.0294 16.1005 7.23344 16.3383 9.62556L16.4244 10.4913C16.4509 10.7584 16.5467 11.0146 16.7023 11.2346C17.4772 12.3301 19.1794 12.0038 19.4751 10.703L19.6241 10.0476C19.6723 9.83536 19.6794 9.61553 19.645 9.39996L19.6082 9.16933C19.0828 5.87914 16.6219 3.21511 13.3761 2.42285Z" fill="#6D7882"/>
<path d="M7.62335 2.42363C8.32497 2.25237 8.72022 3.18513 8.13537 3.61033C6.18238 5.03018 4.89894 7.23422 4.66114 9.62634L4.57508 10.4921C4.54853 10.7592 4.45274 11.0154 4.29715 11.2354C3.52226 12.3309 1.82002 12.0045 1.52434 10.7038L1.37537 10.0484C1.32712 9.83614 1.32001 9.61631 1.35443 9.40073L1.39126 9.17011C1.91664 5.87992 4.37754 3.21589 7.62335 2.42363Z" fill="#6D7882"/>
<path fill-rule="evenodd" clip-rule="evenodd" d="M9.12354 2.55207C9.32529 3.10365 9.20965 3.8147 8.60424 4.25484C6.83134 5.54376 5.66932 7.54379 5.45449 9.70496L5.36843 10.5707C5.32817 10.9757 5.18305 11.3632 4.94807 11.6954C4.46457 12.379 3.73534 12.6973 3.01572 12.6929C3.31687 15.5457 4.64477 17.5727 10.5001 17.5727C16.3554 17.5727 17.6833 15.5457 17.9845 12.6929C17.2647 12.6975 16.5352 12.3792 16.0515 11.6954C15.8166 11.3632 15.6714 10.9757 15.6312 10.5707L15.5451 9.70496C15.3303 7.54379 14.1683 5.54376 12.3954 4.25484C11.7899 3.81467 11.6743 3.10356 11.8761 2.55197C11.4299 2.47006 10.97 2.42726 10.5001 2.42726C10.03 2.42726 9.56993 2.4701 9.12354 2.55207ZM8.02014 11.3657C8.41147 11.3657 8.7287 11.0598 8.7287 10.6824C8.7287 10.3051 8.41147 9.99919 8.02014 9.99919C7.62882 9.99919 7.31159 10.3051 7.31159 10.6824C7.31159 11.0598 7.62882 11.3657 8.02014 11.3657ZM10.5001 13.5863C11.2827 13.5863 11.9172 13.1274 11.9172 12.5614C11.9172 11.9954 11.2827 11.5365 10.5001 11.5365C9.71744 11.5365 9.08298 11.9954 9.08298 12.5614C9.08298 13.1274 9.71744 13.5863 10.5001 13.5863ZM12.98 11.3657C13.3714 11.3657 13.6886 11.0598 13.6886 10.6824C13.6886 10.3051 13.3714 9.99919 12.98 9.99919C12.5887 9.99919 12.2715 10.3051 12.2715 10.6824C12.2715 11.0598 12.5887 11.3657 12.98 11.3657Z" fill="#6D7882"/>
</svg>
