<svg width="44" height="32" viewBox="0 0 44 32" fill="none" xmlns="http://www.w3.org/2000/svg">
<path d="M9.84503 11.8051C10.6529 11.6217 11.4565 12.1281 11.64 12.936C11.8233 13.7437 11.3177 14.5473 10.5101 14.7309C8.54285 15.1775 7.00926 16.4166 5.96124 18.6254L5.75812 19.0795C5.43712 19.8432 4.55791 20.2022 3.79425 19.8813C3.03061 19.5603 2.6716 18.6811 2.99249 17.9174L3.12238 17.6176C4.49553 14.5517 6.75047 12.5078 9.84503 11.8051Z" fill="#285FA4"/>
<path d="M27.373 3.01471C27.5327 3.02605 28.009 3.09509 28.1025 3.1192C28.3077 3.17083 28.4984 3.26891 28.6611 3.40436C28.8238 3.5398 28.9546 3.70978 29.043 3.9024C29.1313 4.09504 29.1753 4.30567 29.1719 4.51764C29.1684 4.7295 29.1169 4.93845 29.0225 5.12799L28.6611 5.41803L31.7373 10.0469C31.9315 10.3198 32.0227 10.6534 31.9951 10.9874C31.9674 11.3214 31.8223 11.6351 31.5859 11.8721L29.4648 13.9981C29.2551 14.208 28.985 14.347 28.6924 14.3946C28.3996 14.4421 28.0993 14.3957 27.834 14.2628L25 13.0001L24 14.3946L26.5 25.3057L28.25 23.8868C28.4623 23.7211 28.6653 23.5434 28.8574 23.3546C29.1174 23.0902 29.4706 22.9379 29.8408 22.9317C29.9125 22.9305 29.9835 22.9358 30.0537 22.9454L29.5 23.5001L25.5 26.0001L21 27.5001H17.5L13 27.0001L12.4043 26.7618H13.8711C15.0514 27.0097 16.3815 27.1661 17.8643 27.1661C18.8157 27.1661 21.173 26.8737 22 26.7618L20.5 22.9317H13L12.2871 26.7149L10.5 26.0001L7.16406 24.3321L8.89746 12.0753C10.0963 11.6547 11.2619 11.5721 12.2793 11.5606L17.498 11.5792C17.6394 11.1503 17.7996 10.7275 17.9775 10.3126C18.5557 8.96087 19.5285 7.19802 21.1045 5.61823C22.7428 3.97613 24.431 3.31828 25.7598 3.09576C26.2926 3.00717 26.8341 2.97978 27.373 3.01471Z" fill="#65B9EC"/>
<path d="M28.9395 22.9395C29.5253 22.3537 30.4748 22.3537 31.0606 22.9395C31.6464 23.5253 31.6464 24.4748 31.0606 25.0606C29.3334 26.7879 24.4683 30.0001 18.0001 30.0001C11.96 30.0001 6.75571 27.1968 4.46784 25.4874L4.04987 25.1612L3.93659 25.0577C3.39984 24.5192 3.34714 23.6509 3.83894 23.0499C4.33075 22.4489 5.19223 22.3286 5.82624 22.7481L5.95026 22.8389L6.29597 23.1085C8.20835 24.5301 12.7898 27.0001 18.0001 27.0001C23.5318 27.0001 27.6668 24.2123 28.9395 22.9395Z" fill="#313D4C"/>
<path d="M28.6 8.8C28.6 9.24183 28.2418 9.6 27.8 9.6C27.3582 9.6 27 9.24183 27 8.8C27 8.35817 27.3582 8 27.8 8C28.2418 8 28.6 8.35817 28.6 8.8Z" fill="#313D4C"/>
<path d="M19.923 11.9738C19.661 12.7597 18.8114 13.184 18.0255 12.922C17.24 12.66 16.8156 11.8112 17.0773 11.0256L19.923 11.9738ZM21.9083 4.07048C23.8659 2.74229 26.0758 2.2794 28.2511 2.46501L28.6867 2.51091L28.837 2.53825C29.5782 2.70819 30.0848 3.41498 29.9884 4.18571C29.892 4.95638 29.2271 5.51694 28.4669 5.49919L28.3136 5.48747L27.9992 5.45427C26.4265 5.31904 24.9154 5.65483 23.5919 6.5529C22.1739 7.51516 20.844 9.21063 19.923 11.9738L17.0773 11.0256C18.1562 7.78884 19.8264 5.4832 21.9083 4.07048Z" fill="#285FA4"/>
<path d="M12 14.9992V11.5593L20.1 11.5391V14.9992C20.1 15.5514 19.6523 15.9992 19.1 15.9992H13C12.4477 15.9992 12 15.5514 12 14.9992Z" fill="#AAB3BE"/>
</svg>
