<svg width="20" height="20" viewBox="0 0 20 20" fill="none" xmlns="http://www.w3.org/2000/svg">
<path d="M2.78822 2.79439C3.56452 2.4951 5.24907 3.18097 6.31117 3.95488C5.02289 4.47611 3.95593 5.27563 3.11699 6.27503C2.75035 6.71187 2.43129 7.18385 2.15671 7.68128C2.58328 5.32374 1.76622 3.18913 2.78822 2.79439Z" fill="#6D7882"/>
<path d="M13.6622 3.94348C14.7251 3.1741 16.3978 2.49655 17.1705 2.79439C18.1783 3.18326 17.3989 5.26292 17.785 7.58036C17.5234 7.12032 17.2249 6.68201 16.8833 6.27503C16.0386 5.26866 14.9625 4.46452 13.6622 3.94348Z" fill="#6D7882"/>
<path fill-rule="evenodd" clip-rule="evenodd" d="M9.99984 4.07178C15.6546 4.07178 18.3332 8.3684 18.3332 12.891C18.3331 14.9654 17.4783 16.4608 16.1408 17.4727C14.8421 18.4551 13.1218 18.2738 11.5273 18.1058C11.0361 18.054 10.5247 18.026 9.99984 18.026C9.47497 18.026 8.96358 18.0541 8.47233 18.1058C6.87734 18.2737 5.15613 18.4551 3.85726 17.4718C2.52065 16.46 1.6666 14.9647 1.6665 12.891C1.6665 8.3684 4.34508 4.07178 9.99984 4.07178ZM9.99984 12.0837C9.30948 12.0837 8.74984 12.4568 8.74984 12.917C8.75017 13.377 9.30969 13.7503 9.99984 13.7503C10.69 13.7503 11.2495 13.377 11.2498 12.917C11.2498 12.4568 10.6902 12.0837 9.99984 12.0837ZM7.2915 9.86524C6.86804 9.86539 6.52509 10.2092 6.5249 10.6327C6.52502 11.0562 6.868 11.3999 7.2915 11.4001C7.71493 11.3998 8.0588 11.0561 8.05892 10.6327C8.05873 10.2093 7.71489 9.86549 7.2915 9.86524ZM12.6626 9.86524C12.239 9.86524 11.8946 10.2091 11.8944 10.6327C11.8945 11.0563 12.239 11.4001 12.6626 11.4001C13.0858 11.3996 13.4291 11.056 13.4292 10.6327C13.429 10.2094 13.0858 9.86573 12.6626 9.86524Z" fill="#6D7882"/>
</svg>
