<svg width="44" height="32" viewBox="0 0 44 32" fill="none" xmlns="http://www.w3.org/2000/svg">
<path d="M7.87109 7.42697L10.1398 11.2597L6.27242 12.2691L2.39941 11.2213L2.42188 5.58453C2.42068 5.1398 2.78139 4.78343 3.22612 4.78223C5.13455 4.7916 6.89023 5.79909 7.87109 7.42697Z" fill="#285FA4"/>
<path d="M15.9503 5.41279L22.384 11.3083L18.2887 12.6436L14.6465 11.2749L12.6094 8.33544C11.5781 6.84662 12.6502 4.82235 14.452 4.83084C15.0034 4.83052 15.5416 5.03686 15.9503 5.41279Z" fill="#313D4C"/>
<path d="M2.39949 11.2222L2.3888 12.5021C2.37496 14.9438 3.52095 17.2344 5.46641 18.7046C6.79545 19.7085 8.40898 20.2504 10.0746 20.2561L34.0851 20.3566C36.4859 20.3618 38.4456 18.3647 38.4565 15.8753C38.4675 13.386 36.5217 11.3644 34.1209 11.3591L2.39949 11.2222Z" fill="#65B9EC"/>
<path d="M32.478 14.8876C32.4735 15.4209 32.908 15.8577 33.4413 15.8622L38.4676 15.8812L38.4743 15.8698C38.4767 15.1822 38.3345 14.5328 38.0637 13.9463L33.4526 13.9242C32.9079 13.9131 32.471 14.3476 32.478 14.8876Z" fill="#AAB3BE"/>
<path d="M19.9637 16.4477L26.3061 16.4679C27.4088 16.4673 27.9324 17.8288 27.1139 18.5768L15.852 28.7358C15.437 29.1065 14.902 29.3154 14.3506 29.3157C12.5488 29.3072 11.4877 27.2651 12.5306 25.7903L18.6451 17.1342C18.9572 16.7035 19.4485 16.4385 19.9637 16.4477Z" fill="#313D4C"/>
<path d="M19.9637 16.4477L26.3061 16.4679C27.4088 16.4673 27.9324 17.8288 27.1139 18.5768L15.852 28.7358C15.437 29.1065 14.902 29.3154 14.3506 29.3157C12.5488 29.3072 11.4877 27.2651 12.5306 25.7903L18.6451 17.1342C18.9572 16.7035 19.4485 16.4385 19.9637 16.4477Z" fill="#313D4C"/>
</svg>
