<svg width="16" height="17" viewBox="0 0 16 17" fill="none" xmlns="http://www.w3.org/2000/svg">
<path d="M9.00098 1.83301C9.14232 1.83301 9.27793 1.88938 9.37793 1.98926L13.1777 5.79004C13.2776 5.89003 13.334 6.02567 13.334 6.16699V13.9668C13.334 14.6295 12.7965 15.167 12.1338 15.167H3.86719C3.20466 15.1667 2.66797 14.6294 2.66797 13.9668V3.0332C2.66804 2.37067 3.2047 1.83325 3.86719 1.83301H9.00098ZM5.33398 11.167C5.03943 11.167 4.80078 11.4056 4.80078 11.7002C4.80089 11.9947 5.0395 12.2334 5.33398 12.2334H10C10.2945 12.2334 10.5341 11.9947 10.5342 11.7002C10.5342 11.4056 10.2946 11.167 10 11.167H5.33398ZM5.33398 8.89941C5.03958 8.89941 4.80103 9.13828 4.80078 9.43262C4.80078 9.72717 5.03943 9.9668 5.33398 9.9668H8C8.29455 9.9668 8.53418 9.72717 8.53418 9.43262C8.53393 9.13827 8.2944 8.89941 8 8.89941H5.33398ZM9.53418 5.5C9.53418 5.57364 9.59433 5.63379 9.66797 5.63379H11.5127L9.53418 3.6543V5.5Z" fill="#6D7882"/>
</svg>
