<svg width="17" height="16" viewBox="0 0 17 16" fill="none" xmlns="http://www.w3.org/2000/svg">
<path d="M13.8333 13.833C13.8333 14.2012 13.5349 14.4997 13.1667 14.4997H3.83333C3.46514 14.4997 3.16667 14.2012 3.16667 13.833V12.7666H13.8333V13.833Z" fill="#6D7882"/>
<path d="M8.5 1.33301C9.74494 1.33301 10.7499 2.07368 10.75 3.55501C10.75 5.77724 7 8.74056 13 8.74056C13.3978 8.74056 13.7793 8.89641 14.0605 9.17415C14.3418 9.45193 14.4999 9.82885 14.5 10.2217V11.3701C14.5 11.5542 14.3507 11.7035 14.1667 11.7035H13.8333V11.6995H3.16667V11.7035H2.83333C2.64926 11.7035 2.50004 11.5542 2.5 11.3701V10.2217C2.50006 9.82885 2.6582 9.45193 2.93945 9.17415C3.22074 8.89641 3.60224 8.74056 4 8.74056C10 8.74056 6.25 5.77724 6.25 3.55501C6.25006 2.9658 6.48705 2.40073 6.90885 1.98405C7.33081 1.5673 7.90326 1.33301 8.5 1.33301Z" fill="#6D7882"/>
</svg>
