<svg width="20" height="20" viewBox="0 0 20 20" fill="none" xmlns="http://www.w3.org/2000/svg">
<path d="M7.75 7.33355C9.46822 7.33355 10.8611 5.94066 10.8611 4.22244C10.8611 2.50422 9.46822 1.11133 7.75 1.11133C6.03178 1.11133 4.63889 2.50422 4.63889 4.22244C4.63889 5.94066 6.03178 7.33355 7.75 7.33355Z" fill="#6D7882"/>
<path d="M12.1912 11.0402L11.758 10.1869C11.1442 8.978 9.89864 8.22244 8.52669 8.22244H7.94903C5.99039 8.22244 4.39279 9.75133 4.33863 11.6802V11.7602L3.76097 16.9158C3.64363 17.9647 4.48304 18.8891 5.55714 18.8891H15.2059C16.2439 18.8891 17.0833 18.0624 17.0833 17.0402C17.0833 14.1069 14.9893 11.6536 12.1912 11.0402Z" fill="#6D7882"/>
</svg>
