<svg width="20" height="20" viewBox="0 0 20 20" fill="none" xmlns="http://www.w3.org/2000/svg">
<g style="mix-blend-mode:multiply">
<path fill-rule="evenodd" clip-rule="evenodd" d="M9.99935 1.66699C5.39685 1.66699 1.66602 5.39783 1.66602 10.0003C1.66602 14.6028 5.39685 18.3337 9.99935 18.3337C14.6018 18.3337 18.3327 14.6028 18.3327 10.0003C18.3327 5.39783 14.6018 1.66699 9.99935 1.66699ZM8.95768 5.96449C9.82371 5.74026 10.7389 5.80071 11.5679 6.13691C12.3969 6.4731 13.0957 7.06718 13.561 7.83129C14.0262 8.59539 14.2332 9.48894 14.1512 10.3798C14.0693 11.2706 13.7028 12.1114 13.106 12.7778C12.961 12.9428 12.887 13.1584 12.9002 13.3777C12.9133 13.597 13.0125 13.8022 13.1761 13.9488C13.3398 14.0953 13.5547 14.1713 13.7741 14.1602C13.9935 14.1491 14.1996 14.0518 14.3477 13.8895C15.1833 12.9566 15.6964 11.7795 15.8112 10.5324C15.926 9.28527 15.6364 8.03431 14.9852 6.96452C14.334 5.89474 13.3558 5.06294 12.1953 4.59214C11.0347 4.12135 9.75347 4.03656 8.54102 4.35033C8.33312 4.41078 8.15692 4.54978 8.04971 4.73788C7.94251 4.92599 7.91272 5.14843 7.96666 5.35811C8.02059 5.56779 8.15402 5.74825 8.33868 5.86128C8.52335 5.9743 8.74475 6.01102 8.95602 5.96366L8.95768 5.96449ZM5.96268 8.95866C6.01005 8.7474 5.97333 8.52599 5.8603 8.34133C5.74728 8.15666 5.56682 8.02324 5.35713 7.9693C5.14745 7.91536 4.92501 7.94515 4.73691 8.05235C4.5488 8.15956 4.40981 8.33576 4.34935 8.54366C4.11047 9.47322 4.10427 10.4473 4.3313 11.3798C4.55832 12.3124 5.01158 13.1746 5.65102 13.8903C5.72368 13.973 5.81201 14.0405 5.91091 14.0889C6.0098 14.1372 6.11729 14.1655 6.22718 14.1721C6.33707 14.1787 6.44717 14.1634 6.55113 14.1272C6.65509 14.091 6.75084 14.0345 6.83286 13.9611C6.91488 13.8877 6.98153 13.7987 7.02898 13.6994C7.07642 13.6001 7.10371 13.4923 7.10927 13.3824C7.11483 13.2724 7.09856 13.1625 7.06138 13.0588C7.02421 12.9552 6.96687 12.86 6.89268 12.7787C6.20815 12.0154 5.83053 11.0256 5.83268 10.0003C5.83268 9.63949 5.87768 9.29033 5.96268 8.95866ZM9.99935 11.667C10.2365 11.6669 10.471 11.6161 10.687 11.5182C10.903 11.4202 11.0956 11.2773 11.252 11.0989C11.4083 10.9205 11.5248 10.7108 11.5936 10.4838C11.6624 10.2569 11.682 10.0178 11.651 9.78264C11.62 9.54748 11.5392 9.32165 11.4139 9.12022C11.2887 8.9188 11.1219 8.74643 10.9247 8.61464C10.7275 8.48284 10.5044 8.39466 10.2704 8.35597C10.0364 8.31729 9.79681 8.329 9.56768 8.39033L6.42185 5.24449C6.26468 5.09269 6.05418 5.0087 5.83568 5.0106C5.61718 5.0125 5.40817 5.10014 5.25367 5.25464C5.09916 5.40915 5.01152 5.61816 5.00962 5.83666C5.00772 6.05516 5.09172 6.26566 5.24352 6.42283L8.38935 9.56866C8.32312 9.81562 8.31461 10.0745 8.36447 10.3253C8.41432 10.5761 8.52121 10.812 8.67686 11.0149C8.8325 11.2177 9.03274 11.3821 9.26206 11.4951C9.49139 11.6082 9.74366 11.667 9.99935 11.667Z" fill="#6D7882"/>
</g>
</svg>
