<svg width="16" height="16" viewBox="0 0 16 16" fill="none" xmlns="http://www.w3.org/2000/svg">
<path d="M3.63595 6.42105C3.63595 5.24852 4.09571 4.124 4.9141 3.2949C5.73249 2.46579 6.84246 2 7.99984 2C9.15721 2 10.2672 2.46579 11.0856 3.2949C11.904 4.124 12.3637 5.24852 12.3637 6.42105V8.29116L13.2986 10.6599C13.3279 10.7344 13.3389 10.815 13.3304 10.8948C13.3219 10.9746 13.2942 11.051 13.2498 11.1175C13.2054 11.1839 13.1457 11.2383 13.0757 11.2759C13.0058 11.3136 12.9278 11.3333 12.8486 11.3333H3.15107C3.07188 11.3333 2.9939 11.3136 2.92396 11.2759C2.85401 11.2383 2.79423 11.1839 2.74984 11.1175C2.70545 11.051 2.6778 10.9746 2.6693 10.8948C2.66081 10.815 2.67173 10.7344 2.70111 10.6599L3.63595 8.29116V6.42105Z" fill="#6D7882"/>
<path d="M6.33448 12.4C6.36947 13.2896 7.10169 14 7.99984 14C8.89798 14 9.6302 13.2896 9.66519 12.4H6.33448Z" fill="#6D7882"/>
</svg>
