<svg width="44" height="32" viewBox="0 0 44 32" fill="none" xmlns="http://www.w3.org/2000/svg">
<path d="M23 4C23 3.44772 23.4477 3 24 3H27C27.5523 3 28 3.44772 28 4V12H23V4Z" fill="#313D4C"/>
<path d="M4.72222 13.9675L16.3538 4.12542C16.7266 3.80994 17.2728 3.80994 17.6457 4.12542L29.2772 13.9675C29.5018 14.1575 29.6313 14.4367 29.6313 14.7309V27.4539C29.6313 28.2205 29.0029 28.842 28.2278 28.842H20.1576H13.8418H5.77167C4.99654 28.842 4.36816 28.2205 4.36816 27.4539V14.7309C4.36816 14.4367 4.49767 14.1575 4.72222 13.9675Z" fill="#65B9EC"/>
<path d="M13 21C13 20.4477 13.4477 20 14 20H20C20.5523 20 21 20.4477 21 21V29H13V21Z" fill="white"/>
<path fill-rule="evenodd" clip-rule="evenodd" d="M16.1038 2.33432C16.6181 1.88856 17.3819 1.88856 17.8962 2.33432L30.5278 13.2817C31.0989 13.7766 31.1606 14.6409 30.6657 15.212C30.1707 15.7831 29.3065 15.8448 28.7353 15.3499L17 5.17924L5.26466 15.3499C4.69354 15.8448 3.82931 15.7831 3.33434 15.212C2.83937 14.6409 2.9011 13.7766 3.47222 13.2817L16.1038 2.33432Z" fill="#285FA4"/>
</svg>
