<svg width="44" height="32" viewBox="0 0 44 32" fill="none" xmlns="http://www.w3.org/2000/svg">
<path d="M22.969 5.42377C23.2736 5.49042 23.5913 5.41952 23.8453 5.23858C25.5289 4.03915 28.1294 2.99921 29.3375 3.46495C30.5529 3.93352 30.126 5.9566 30.1244 8.51549C30.1242 8.79491 30.249 9.05812 30.4521 9.25C31.7681 10.4931 32.7737 11.9531 33.3727 13.5537C33.4714 13.8175 33.7189 14.0001 34.0006 14.0001C35.105 14.0003 36.0006 14.8957 36.0006 16.0001V20.0001C36.0005 21.1045 35.1049 21.9999 34.0006 22.0001H33.2184C32.8602 22.0001 32.5322 22.1936 32.338 22.4947C32.021 22.986 31.6628 23.4576 31.267 23.9065C31.0988 24.0973 31.0006 24.3409 31.0006 24.5952V29.0001C31.0006 29.5524 30.5529 30.0001 30.0006 30.0001H26.7814C26.3225 30.0001 25.9225 29.6878 25.8112 29.2426L25.7322 28.9264C25.5867 28.3445 24.9656 28.0229 24.3925 28.1998C22.7192 28.7161 20.9014 29.0001 19.0006 29.0001C17.0998 29.0001 15.2816 28.7162 13.6082 28.1999C13.0349 28.023 12.4136 28.3449 12.2684 28.927L12.1897 29.2422C12.0786 29.6876 11.6785 30.0001 11.2195 30.0001H8.00058C7.4483 30.0001 7.00058 29.5524 7.00058 29.0001V24.5962C7.00058 24.3419 6.90223 24.0982 6.73403 23.9074C5.21203 22.1808 4.24576 20.1189 4.04198 17.8872C4.00395 17.4707 3.73781 17.108 3.36019 16.9282C2.64763 16.5888 1.92622 16.0825 1.27709 15.3477C0.911433 14.9338 1.04108 14.3064 1.50061 14.0001C1.96012 13.6937 2.57329 13.8283 2.96226 14.2204C3.01358 14.2721 3.06532 14.3219 3.1174 14.3699C3.6009 14.815 4.31278 14.4699 4.52403 13.8475C6.25455 8.74946 12.0801 5.0001 19.0006 5.0001C20.3743 5.00013 21.705 5.14722 22.969 5.42377Z" fill="#65B9EC"/>
<path d="M18 0C20.7614 0 23 2.23858 23 5C23 6.2589 22.5336 7.4081 21.7656 8.28711C20.882 8.09988 19.9552 8 19 8C17.4611 8 15.996 8.25865 14.666 8.72559C13.6437 7.81008 13 6.48036 13 5C13 2.23858 15.2386 0 18 0Z" fill="#285FA4"/>
<path d="M30.4279 14.381C30.4279 15.1436 29.8096 15.7619 29.047 15.7619C28.2843 15.7619 27.666 15.1436 27.666 14.381C27.666 13.6183 28.2843 13 29.047 13C29.8096 13 30.4279 13.6183 30.4279 14.381Z" fill="#313D4C"/>
<ellipse cx="28.3594" cy="19.5" rx="2.5" ry="1.5" fill="white"/>
<path d="M24 8.98134C22.4999 8.35391 20.8004 8 19 8C16.5684 8 14.321 8.64555 12.5 9.7386" stroke="#285FA4" stroke-width="1.6" stroke-linecap="round"/>
</svg>
