<svg width="21" height="20" viewBox="0 0 21 20" fill="none" xmlns="http://www.w3.org/2000/svg">
<path fill-rule="evenodd" clip-rule="evenodd" d="M5.667 4V5H3.50033C2.76395 5 2.16699 5.59695 2.16699 6.33333L2.16701 10C2.16701 10.5523 2.61473 11 3.16701 11H17.8337C18.3837 11 18.83 10.5559 18.8337 10.0067V6.33333C18.8337 5.59695 18.2367 5 17.5003 5H15.3337V4C15.3337 3.17157 14.6621 2.5 13.8337 2.5H7.167C6.33858 2.5 5.667 3.17157 5.667 4ZM7.167 3.83333C7.07495 3.83333 7.00034 3.90795 7.00034 4V5H14.0003V4C14.0003 3.90795 13.9257 3.83333 13.8337 3.83333H7.167Z" fill="#6D7882"/>
<path d="M18.8337 12.1088C18.5306 12.2528 18.1915 12.3333 17.8337 12.3333H3.16701C2.80914 12.3333 2.47008 12.2528 2.16699 12.1088V15.3333C2.16699 16.0697 2.76395 16.6667 3.50033 16.6667H17.5003C18.2367 16.6667 18.8337 16.0697 18.8337 15.3333V12.1088Z" fill="#6D7882"/>
</svg>
