<svg width="20" height="20" viewBox="0 0 20 20" fill="none" xmlns="http://www.w3.org/2000/svg">
<path d="M14.3964 2.91916C13.1201 2.12484 11.6133 1.66602 9.99935 1.66602C9.75205 1.66602 9.50727 1.67679 9.26545 1.69789C8.7623 2.67189 8.05034 3.91572 7.0591 4.95695C7.04993 4.96658 7.04161 4.97562 7.03407 4.98407C7.10451 5.02614 7.2064 5.07612 7.34843 5.13528C7.49803 5.1976 7.66323 5.25879 7.84963 5.32782C7.90921 5.34989 7.97094 5.37275 8.03503 5.39671C8.53955 5.58534 9.1623 5.83082 9.67187 6.21074C10.1981 6.60307 10.6385 7.16569 10.7042 7.9756C10.7989 9.14299 10.4199 11.0795 9.8621 12.4358C9.72005 12.7812 9.56034 13.1044 9.38437 13.3768C9.21297 13.6422 9.00293 13.8959 8.74678 14.0609C8.47175 14.238 8.1192 14.3231 7.75296 14.1737C7.42376 14.0393 7.18119 13.7527 6.99499 13.4251C6.51615 12.5828 6.07079 12.0235 5.68639 11.5408C5.57437 11.4001 5.46754 11.2659 5.36656 11.1332C4.9137 10.5377 4.57042 9.95018 4.67505 9.0555C4.7245 8.63266 4.69313 8.33693 4.6243 8.12294C4.55776 7.91607 4.44782 7.7588 4.29232 7.62131C3.96758 7.33417 3.48376 7.15215 2.78328 6.88862L2.62055 6.82733C2.53065 6.79339 2.43712 6.75376 2.34065 6.70931C1.90649 7.71863 1.66602 8.83091 1.66602 9.99935C1.66602 14.6017 5.39698 18.3327 9.99935 18.3327C13.5423 18.3327 16.5689 16.1217 17.7745 13.0042C17.6938 12.1694 17.4975 11.4931 17.2373 10.9362C16.8325 10.0699 16.257 9.45758 15.652 8.97508C15.2336 8.64143 14.8361 8.39245 14.4527 8.15234C14.2548 8.02841 14.0607 7.90685 13.8694 7.77724C13.6092 7.60083 13.3485 7.40332 13.1517 7.17041C12.9461 6.92708 12.7918 6.62292 12.7918 6.25016C12.7918 5.25539 13.3763 4.44025 13.8127 3.83157L13.8886 3.7255C14.1099 3.41499 14.285 3.15918 14.3964 2.91916Z" fill="#6D7882"/>
<path d="M15.287 3.55814C17.1466 5.08649 18.3327 7.4044 18.3327 9.99935C18.3327 10.226 18.3236 10.4505 18.3059 10.6726C18.2777 10.6065 18.2486 10.5416 18.2188 10.4777C17.7251 9.42096 17.0246 8.68403 16.3275 8.12811C15.8635 7.75811 15.3639 7.44423 14.9543 7.18689C14.7744 7.07383 14.6118 6.97167 14.4772 6.88047C14.2362 6.71712 14.0769 6.58687 13.9792 6.47117C13.8902 6.36588 13.8752 6.30058 13.8752 6.25016C13.8752 5.6112 14.2699 5.05714 14.7708 4.35425C14.9448 4.1101 15.1345 3.84118 15.287 3.55814Z" fill="#6D7882"/>
<path d="M7.9092 1.93031C5.75715 2.48617 3.94215 3.88023 2.8332 5.7435C2.89216 5.7698 2.94887 5.79332 3.00315 5.81381C3.07104 5.83944 3.13976 5.86506 3.20902 5.89087C3.84506 6.12798 4.52594 6.38179 5.00992 6.80973C5.29746 7.06398 5.52412 7.38245 5.6556 7.79123C5.78479 8.1929 5.81287 8.65275 5.75105 9.18133C5.69521 9.65882 5.83623 9.96115 6.22884 10.4774C6.31288 10.5879 6.4079 10.707 6.51179 10.8373C6.8998 11.324 7.41162 11.9659 7.9368 12.8897C8.00089 13.0025 8.05643 13.0746 8.0991 13.1188C8.11874 13.1391 8.13407 13.1518 8.14471 13.1596C8.14893 13.1572 8.15406 13.1541 8.16019 13.1501C8.23064 13.1048 8.34055 12.9962 8.47438 12.789C8.60364 12.5889 8.73446 12.3294 8.86019 12.0237C9.37352 10.7755 9.70152 9.01347 9.6244 8.06323C9.59079 7.64906 9.37906 7.34372 9.02434 7.07925C8.65296 6.80236 8.16589 6.60221 7.65564 6.41144C7.60053 6.39084 7.54458 6.37012 7.48842 6.34933C7.29717 6.27852 7.10343 6.2068 6.93184 6.13532C6.714 6.04457 6.47958 5.93375 6.29387 5.78843C6.10555 5.64107 5.88839 5.39368 5.88773 5.03033C5.88712 4.69456 6.07533 4.41917 6.27446 4.20999C6.94967 3.50072 7.48132 2.68815 7.9092 1.93031Z" fill="#6D7882"/>
</svg>
