<svg width="44" height="32" viewBox="0 0 44 32" fill="none" xmlns="http://www.w3.org/2000/svg">
<rect x="2.05273" y="24.8027" width="35.9524" height="4.73574" rx="2.36787" transform="rotate(0.631567 2.05273 24.8027)" fill="#ACB1B6" fill-opacity="0.2"/>
<rect x="3" y="21" width="5" height="3" rx="1.5" fill="#65B9EC"/>
<path d="M35.9992 17.5893C35.9992 15.9523 35.0043 14.4967 33.5231 13.9646L31.1631 13H5.61004C4.72113 13 4 13.8716 4 14.8004V21.4875H36L35.9992 17.5893Z" fill="#65B9EC"/>
<path d="M4 21.4875V22.4019C4 23.2846 4.68469 24 5.52954 24H34.3891C35.278 24 35.9992 23.2465 35.9992 22.3178L36 21.4875H4Z" fill="#65B9EC"/>
<path d="M35.9992 19.7833H35.328C34.7721 19.7833 34.3213 19.3123 34.3213 18.7315C34.3213 18.1507 34.7721 17.6796 35.328 17.6796H35.9992V19.7833Z" fill="white"/>
<path d="M4 5C4 3.89543 4.89543 3 6 3H18C19.1046 3 20 3.89543 20 5V15H4V5Z" fill="#65B9EC"/>
<path d="M23 7C21.8954 7 21 6.10457 21 5C21 3.89543 21.8954 3 23 3C24.1046 3 25 3.89543 25 5C25 6.10457 24.1046 7 23 7Z" fill="#285FA4"/>
<path d="M20 5H27.0567C27.9184 5 28.6833 5.55195 28.9548 6.36977L31.1562 13H20V5Z" fill="#65B9EC"/>
<path d="M20 8H24.8468C25.6996 8 26.4585 8.54065 26.7371 9.34658L28 13H20V8Z" fill="white"/>
<rect x="22.5" y="1" width="1" height="1.5" rx="0.5" fill="#285FA4"/>
<rect x="19.6161" y="2.57324" width="1" height="1.5" rx="0.5" transform="rotate(-45 19.6161 2.57324)" fill="#285FA4"/>
<rect x="25.6768" y="1.86621" width="1" height="1.5" rx="0.5" transform="rotate(45 25.6768 1.86621)" fill="#285FA4"/>
<g clip-path="url(#clip0_6594_225925)">
<circle cx="10.5" cy="24" r="4" fill="#313D4C"/>
<circle cx="10.5" cy="24.0004" r="1.6" fill="#AAB3BE"/>
</g>
<g clip-path="url(#clip1_6594_225925)">
<circle cx="28.5" cy="24" r="4" fill="#313D4C"/>
<circle cx="28.5" cy="24.0004" r="1.6" fill="#AAB3BE"/>
</g>
<path d="M12.0005 9C12.4837 9 12.8755 9.39175 12.8755 9.875V11.625H14.6255C15.1087 11.625 15.5005 12.0168 15.5005 12.5C15.5005 12.9832 15.1087 13.375 14.6255 13.375H12.8755V15.125C12.8755 15.6082 12.4837 16 12.0005 16C11.5173 15.9999 11.1255 15.6082 11.1255 15.125V13.375H9.37549C8.89231 13.3749 8.50049 12.9832 8.50049 12.5C8.50049 12.0168 8.89231 11.6251 9.37549 11.625H11.1255V9.875C11.1255 9.3918 11.5173 9.00009 12.0005 9Z" fill="white"/>
<defs>
<clipPath id="clip0_6594_225925">
<rect width="8" height="8" fill="white" transform="translate(6.5 20)"/>
</clipPath>
<clipPath id="clip1_6594_225925">
<rect width="8" height="8" fill="white" transform="translate(24.5 20)"/>
</clipPath>
</defs>
</svg>
