<svg width="25" height="25" viewBox="0 0 25 25" fill="none" xmlns="http://www.w3.org/2000/svg">
<path d="M12.5 2.5C18.0228 2.5 22.5 6.97715 22.5 12.5C22.5 18.0228 18.0228 22.5 12.5 22.5C6.97715 22.5 2.5 18.0228 2.5 12.5C2.5 6.97715 6.97715 2.5 12.5 2.5ZM9.24219 16.2998C9.44777 17.1291 9.71694 17.8743 10.0332 18.5068C10.8049 20.05 11.7228 20.7001 12.499 20.7002C13.2754 20.7002 14.194 20.0503 14.9658 18.5068C15.2821 17.8743 15.5503 17.1291 15.7559 16.2998H9.24219ZM17.3994 16.2998C17.16 17.3857 16.8199 18.3748 16.3965 19.2217C16.2209 19.5728 16.0242 19.9086 15.8096 20.2217C17.6207 19.4444 19.1014 18.0483 19.9902 16.2998H17.3994ZM5.00977 16.2998C5.89809 18.0474 7.37764 19.4432 9.1875 20.2207C8.97323 19.908 8.7769 19.5723 8.60156 19.2217C8.17821 18.3749 7.83897 17.3856 7.59961 16.2998H5.00977ZM4.39258 10.2998C4.2027 11.0012 4.09961 11.7386 4.09961 12.5C4.09961 13.2639 4.20345 14.0036 4.39453 14.707C4.42873 14.7026 4.46361 14.7002 4.49902 14.7002H7.33008C7.24512 13.9911 7.19922 13.2543 7.19922 12.5C7.19923 11.7456 7.2451 11.0089 7.33008 10.2998H4.39258ZM17.6689 10.2998C17.7539 11.0089 17.7988 11.7457 17.7988 12.5C17.7988 13.2543 17.7539 13.9911 17.6689 14.7002H20.499C20.5347 14.7002 20.57 14.7025 20.6045 14.707C20.7956 14.0035 20.9004 13.264 20.9004 12.5C20.9004 11.7386 20.7973 11.0012 20.6074 10.2998H17.6689ZM8.94141 10.2998C8.84916 10.9981 8.79884 11.7354 8.79883 12.5C8.79883 13.2645 8.84918 14.002 8.94141 14.7002H16.0566C16.1489 14.002 16.1992 13.2645 16.1992 12.5C16.1992 11.7354 16.1489 10.9981 16.0566 10.2998H8.94141ZM15.8086 4.77734C16.0235 5.09077 16.2207 5.42672 16.3965 5.77832C16.8199 6.62508 17.16 7.61442 17.3994 8.7002H19.9902C19.1013 6.9513 17.6203 5.55454 15.8086 4.77734ZM9.18848 4.77832C7.37808 5.55575 5.89829 6.95221 5.00977 8.7002H7.59961C7.83899 7.61447 8.1782 6.62504 8.60156 5.77832C8.77715 5.42715 8.97385 5.09142 9.18848 4.77832ZM12.499 4.2998C11.7227 4.29991 10.8049 4.95068 10.0332 6.49414C9.71702 7.12651 9.44873 7.87111 9.24316 8.7002H15.7559C15.5503 7.87113 15.282 7.12651 14.9658 6.49414C14.194 4.9505 13.2754 4.2998 12.499 4.2998Z" fill="#33363D"/>
</svg>
