<svg width="21" height="20" viewBox="0 0 21 20" fill="none" xmlns="http://www.w3.org/2000/svg">
<g clip-path="url(#clip0_4315_108362)">
<path fill-rule="evenodd" clip-rule="evenodd" d="M6.79638 5.3707C6.79638 4.38841 7.18659 3.44636 7.88117 2.75178C8.57575 2.0572 9.5178 1.66699 10.5001 1.66699C11.4824 1.66699 12.4244 2.0572 13.119 2.75178C13.8136 3.44636 14.2038 4.38841 14.2038 5.3707C14.2038 6.35298 13.8136 7.29503 13.119 7.98961C12.4244 8.68419 11.4824 9.0744 10.5001 9.0744C9.5178 9.0744 8.57575 8.68419 7.88117 7.98961C7.18659 7.29503 6.79638 6.35298 6.79638 5.3707ZM6.79638 10.9263C5.56852 10.9263 4.39096 11.414 3.52274 12.2822C2.65451 13.1505 2.16675 14.328 2.16675 15.5559C2.16675 16.2926 2.45941 16.9991 2.98034 17.5201C3.50127 18.041 4.20781 18.3337 4.94453 18.3337H16.0556C16.7924 18.3337 17.4989 18.041 18.0198 17.5201C18.5408 16.9991 18.8334 16.2926 18.8334 15.5559C18.8334 14.328 18.3457 13.1505 17.4774 12.2822C16.6092 11.414 15.4316 10.9263 14.2038 10.9263H6.79638Z" fill="#6D7882"/>
</g>
<defs>
<clipPath id="clip0_4315_108362">
<rect width="20" height="20" fill="white" transform="translate(0.5)"/>
</clipPath>
</defs>
</svg>
