<svg width="16" height="17" viewBox="0 0 16 17" fill="none" xmlns="http://www.w3.org/2000/svg">
<path d="M8.00033 2.16699C8.70204 2.16699 9.33732 2.56082 10.6071 3.34928L11.8812 4.1403C13.0776 4.88325 13.6769 5.25537 14.0042 5.85514C14.3335 6.45547 14.3337 7.17985 14.3337 8.62923V9.59277C14.3337 12.0634 14.3331 13.2985 13.5915 14.0661C12.8499 14.8337 11.6554 14.8337 9.26725 14.8337H6.7334C4.34527 14.8337 3.15142 14.8337 2.40918 14.0661C1.66694 13.2985 1.66699 12.0627 1.66699 9.59277V8.62858C1.66699 7.17984 1.66719 6.45484 1.99642 5.85514C2.32475 5.25478 2.92397 4.8821 4.12272 4.1377L5.39421 3.34928C6.66423 2.56106 7.29871 2.16699 8.00033 2.16699ZM6.66699 11.3005C6.37244 11.3005 6.13379 11.5391 6.13379 11.8337C6.13379 12.1282 6.37244 12.3669 6.66699 12.3669H9.33366L9.38835 12.3643C9.65721 12.3369 9.86686 12.1097 9.86686 11.8337C9.86686 11.5576 9.65721 11.3304 9.38835 11.3031L9.33366 11.3005H6.66699Z" fill="#6D7882"/>
</svg>
