<svg width="16" height="16" viewBox="0 0 16 16" fill="none" xmlns="http://www.w3.org/2000/svg">
<path d="M7.99984 1.66699C8.70155 1.66699 9.33683 2.06082 10.6066 2.84928L11.8807 3.6403C13.0771 4.38325 13.6764 4.75537 14.0037 5.35514C14.333 5.95547 14.3332 6.67985 14.3332 8.12923V9.09277C14.3332 11.5634 14.3326 12.7985 13.591 13.5661C12.8494 14.3337 11.6549 14.3337 9.26676 14.3337H6.73291C4.34478 14.3337 3.15093 14.3337 2.40869 13.5661C1.66645 12.7985 1.6665 11.5627 1.6665 9.09277V8.12858C1.6665 6.67984 1.66671 5.95484 1.99593 5.35514C2.32426 4.75478 2.92348 4.3821 4.12223 3.6377L5.39372 2.84928C6.66374 2.06106 7.29823 1.66699 7.99984 1.66699ZM6.6665 10.8005C6.37195 10.8005 6.1333 11.0391 6.1333 11.3337C6.1333 11.6282 6.37195 11.8669 6.6665 11.8669H9.33317L9.38786 11.8643C9.65672 11.8369 9.86637 11.6097 9.86637 11.3337C9.86637 11.0576 9.65672 10.8304 9.38786 10.8031L9.33317 10.8005H6.6665Z" fill="#6D7882"/>
</svg>
