<svg width="20" height="20" viewBox="0 0 20 20" fill="none" xmlns="http://www.w3.org/2000/svg">
<path d="M13.6846 3.33301C13.9782 3.33315 14.2666 3.41118 14.5205 3.55859C14.7744 3.70603 14.9852 3.91795 15.1309 4.17285L18.1143 9.39453C18.2583 9.64644 18.334 9.93149 18.334 10.2217V13.9697C18.334 14.2281 18.274 14.484 18.1582 14.7148L17.2266 16.5781C17.0882 16.8551 16.8756 17.0882 16.6123 17.251C16.3491 17.4137 16.0458 17.4999 15.7363 17.5H15.001C14.5589 17.5 14.1348 17.3243 13.8223 17.0117C13.5098 16.6992 13.334 16.275 13.334 15.833H6.66797C6.66797 16.275 6.49215 16.6992 6.17969 17.0117C5.86713 17.3243 5.443 17.5 5.00098 17.5H4.26562C3.95618 17.4999 3.65286 17.4137 3.38965 17.251C3.12633 17.0882 2.91377 16.8551 2.77539 16.5781L1.84375 14.7148C1.72814 14.4835 1.66799 14.2283 1.66797 13.9697V10.2217C1.66799 9.93149 1.74364 9.64644 1.8877 9.39453L4.87109 4.17285C5.0168 3.91795 5.22753 3.70603 5.48145 3.55859C5.73538 3.41118 6.02376 3.33315 6.31738 3.33301H13.6846ZM9.58496 5.58398C7.83613 5.58398 6.41808 7.00119 6.41797 8.75C6.4181 10.4988 7.83614 11.917 9.58496 11.917C10.1086 11.9169 10.6011 11.7866 11.0361 11.5615L12.4463 12.9717C12.7066 13.2318 13.1294 13.2319 13.3896 12.9717C13.6496 12.7115 13.6493 12.2896 13.3896 12.0293L12.0693 10.709C12.4949 10.1698 12.7509 9.4902 12.751 8.75C12.7509 7.00141 11.3335 5.58433 9.58496 5.58398ZM9.58496 6.91699C10.5971 6.91734 11.4179 7.73778 11.418 8.75C11.4178 9.7622 10.5971 10.5836 9.58496 10.584C8.57252 10.584 7.75111 9.76241 7.75098 8.75C7.75109 7.73757 8.57251 6.91699 9.58496 6.91699Z" fill="#6D7882"/>
</svg>
