<svg width="21" height="20" viewBox="0 0 21 20" fill="none" xmlns="http://www.w3.org/2000/svg">
<path d="M14.8964 2.91916C13.6201 2.12484 12.1133 1.66602 10.4993 1.66602C10.2521 1.66602 10.0073 1.67679 9.76545 1.69789C9.2623 2.67189 8.55034 3.91572 7.5591 4.95695C7.54993 4.96658 7.54161 4.97562 7.53407 4.98407C7.60451 5.02614 7.7064 5.07612 7.84843 5.13528C7.99803 5.1976 8.16323 5.25879 8.34963 5.32782C8.40921 5.34989 8.47094 5.37275 8.53503 5.39671C9.03955 5.58534 9.6623 5.83082 10.1719 6.21074C10.6981 6.60307 11.1385 7.16569 11.2042 7.9756C11.2989 9.14299 10.9199 11.0795 10.3621 12.4358C10.22 12.7812 10.0603 13.1044 9.88437 13.3768C9.71296 13.6422 9.50293 13.8959 9.24678 14.0609C8.97175 14.238 8.6192 14.3231 8.25296 14.1737C7.92376 14.0393 7.68119 13.7527 7.49499 13.4251C7.01615 12.5828 6.57079 12.0235 6.18639 11.5408C6.07437 11.4001 5.96754 11.2659 5.86656 11.1332C5.4137 10.5377 5.07042 9.95018 5.17505 9.0555C5.2245 8.63266 5.19313 8.33693 5.1243 8.12294C5.05776 7.91607 4.94782 7.7588 4.79232 7.62131C4.46758 7.33417 3.98376 7.15215 3.28328 6.88862L3.12055 6.82733C3.03065 6.79339 2.93712 6.75376 2.84065 6.70931C2.40649 7.71863 2.16602 8.83091 2.16602 9.99935C2.16602 14.6017 5.89698 18.3327 10.4993 18.3327C14.0423 18.3327 17.0689 16.1217 18.2745 13.0042C18.1938 12.1694 17.9975 11.4931 17.7373 10.9362C17.3325 10.0699 16.757 9.45758 16.152 8.97508C15.7336 8.64143 15.3361 8.39245 14.9527 8.15234C14.7548 8.02841 14.5607 7.90685 14.3694 7.77724C14.1092 7.60083 13.8485 7.40332 13.6517 7.17041C13.4461 6.92708 13.2918 6.62292 13.2918 6.25016C13.2918 5.25539 13.8763 4.44025 14.3127 3.83157L14.3886 3.7255C14.6099 3.41499 14.785 3.15918 14.8964 2.91916Z" fill="#6D7882"/>
<path d="M15.787 3.55814C17.6466 5.08649 18.8327 7.4044 18.8327 9.99935C18.8327 10.226 18.8236 10.4505 18.8059 10.6726C18.7777 10.6065 18.7486 10.5416 18.7188 10.4777C18.2251 9.42096 17.5246 8.68403 16.8275 8.12811C16.3635 7.75811 15.8639 7.44423 15.4543 7.18689C15.2744 7.07383 15.1118 6.97167 14.9772 6.88047C14.7362 6.71712 14.5769 6.58687 14.4792 6.47117C14.3902 6.36588 14.3752 6.30058 14.3752 6.25016C14.3752 5.6112 14.7699 5.05714 15.2708 4.35425C15.4448 4.1101 15.6345 3.84118 15.787 3.55814Z" fill="#6D7882"/>
<path d="M8.4092 1.93031C6.25715 2.48617 4.44215 3.88023 3.3332 5.7435C3.39216 5.7698 3.44887 5.79332 3.50315 5.81381C3.57104 5.83944 3.63976 5.86506 3.70902 5.89087C4.34506 6.12798 5.02594 6.38179 5.50992 6.80973C5.79746 7.06398 6.02412 7.38245 6.1556 7.79123C6.28479 8.1929 6.31287 8.65275 6.25105 9.18133C6.19521 9.65882 6.33623 9.96115 6.72884 10.4774C6.81288 10.5879 6.9079 10.707 7.01179 10.8373C7.3998 11.324 7.91162 11.9659 8.4368 12.8897C8.50089 13.0025 8.55643 13.0746 8.5991 13.1188C8.61874 13.1391 8.63407 13.1518 8.64471 13.1596C8.64893 13.1572 8.65406 13.1541 8.66019 13.1501C8.73064 13.1048 8.84055 12.9962 8.97438 12.789C9.10364 12.5889 9.23446 12.3294 9.36019 12.0237C9.87352 10.7755 10.2015 9.01347 10.1244 8.06323C10.0908 7.64906 9.87906 7.34372 9.52434 7.07925C9.15296 6.80236 8.66589 6.60221 8.15564 6.41144C8.10053 6.39084 8.04458 6.37012 7.98842 6.34933C7.79717 6.27852 7.60343 6.2068 7.43184 6.13532C7.214 6.04457 6.97958 5.93375 6.79387 5.78843C6.60555 5.64107 6.38839 5.39368 6.38773 5.03033C6.38712 4.69456 6.57533 4.41917 6.77446 4.20999C7.44967 3.50072 7.98132 2.68815 8.4092 1.93031Z" fill="#6D7882"/>
</svg>
