<svg width="44" height="32" viewBox="0 0 44 32" fill="none" xmlns="http://www.w3.org/2000/svg">
<ellipse cx="17.5" cy="28.5" rx="16" ry="2.5" fill="#ACB1B6" fill-opacity="0.2"/>
<path d="M9.84454 11.811C10.6524 11.6276 11.456 12.134 11.6395 12.9418C11.8229 13.7496 11.3172 14.5532 10.5096 14.7368C8.54236 15.1834 7.00877 16.4224 5.96075 18.6313L5.75763 19.0854C5.43664 19.849 4.55742 20.208 3.79376 19.8872C3.03012 19.5662 2.67111 18.6869 2.992 17.9233L3.12189 17.6235C4.49504 14.5576 6.74998 12.5137 9.84454 11.811Z" fill="#285FA4"/>
<path d="M27.373 3.01471C27.5327 3.02604 28.0089 3.09508 28.1025 3.1192C28.3077 3.17082 28.4984 3.26892 28.6611 3.40436C28.8238 3.53978 28.9546 3.70981 29.043 3.9024C29.1313 4.09502 29.1753 4.30569 29.1719 4.51764C29.1684 4.72948 29.1169 4.93846 29.0225 5.12799L28.6611 5.41803L31.7373 10.0469C31.9315 10.3197 32.0227 10.6534 31.9951 10.9874C31.9674 11.3214 31.8223 11.6351 31.5859 11.8721L29.4648 13.9981C29.2551 14.208 28.985 14.347 28.6924 14.3946C28.3996 14.4421 28.0993 14.3957 27.834 14.2628L25 13.0001L24 14.3946L26.5 25.3057L28.25 23.8868C28.4623 23.7211 28.6653 23.5434 28.8574 23.3546C29.1174 23.0902 29.4706 22.9379 29.8408 22.9317C29.9125 22.9305 29.9835 22.9358 30.0537 22.9454L29.5 23.5001L25.5 26.0001L21 27.5001H17.5L13 27.0001L12.4043 26.7618H13.8711C15.0514 27.0097 16.3815 27.166 17.8643 27.1661C18.8157 27.1661 21.173 26.8737 22 26.7618L20.5 22.9317H13L12.2871 26.7149L10.5 26.0001L7.16406 24.3321L8.89746 12.0753C10.0963 11.6547 11.2619 11.5721 12.2793 11.5606L17.498 11.5792C17.6394 11.1503 17.7996 10.7275 17.9775 10.3126C18.5557 8.96087 19.5285 7.198 21.1045 5.61822C22.7428 3.97616 24.431 3.31827 25.7598 3.09576C26.2926 3.00717 26.8341 2.97978 27.373 3.01471Z" fill="#65B9EC"/>
<path d="M28.939 22.9395C29.5248 22.3537 30.4743 22.3537 31.0601 22.9395C31.6459 23.5253 31.6459 24.4748 31.0601 25.0606C29.3329 26.7879 24.4678 30.0001 17.9996 30.0001C11.9595 30.0001 6.75522 27.1968 4.46735 25.4874L4.04939 25.1612L3.9361 25.0577C3.39935 24.5192 3.34665 23.6509 3.83845 23.0499C4.33026 22.4489 5.19174 22.3286 5.82575 22.7481L5.94978 22.8389L6.29548 23.1085C8.20786 24.5301 12.7893 27.0001 17.9996 27.0001C23.5313 27.0001 27.6663 24.2123 28.939 22.9395Z" fill="#313D4C"/>
<path d="M28.6 8.8C28.6 9.24183 28.2418 9.6 27.8 9.6C27.3582 9.6 27 9.24183 27 8.8C27 8.35817 27.3582 8 27.8 8C28.2418 8 28.6 8.35817 28.6 8.8Z" fill="#313D4C"/>
<path d="M19.9225 11.9777C19.6605 12.7636 18.8109 13.1879 18.025 12.9259C17.2395 12.6639 16.8151 11.8152 17.0768 11.0295L19.9225 11.9777ZM21.9078 4.07439C23.8654 2.7462 26.0753 2.2833 28.2506 2.46892L28.6862 2.51482L28.8366 2.54216C29.5777 2.7121 30.0843 3.41888 29.9879 4.18962C29.8915 4.96029 29.2266 5.52084 28.4664 5.5031L28.3131 5.49138L27.9987 5.45818C26.4261 5.32295 24.9149 5.65874 23.5914 6.55681C22.1734 7.51907 20.8436 9.21453 19.9225 11.9777L17.0768 11.0295C18.1557 7.79275 19.8259 5.48711 21.9078 4.07439Z" fill="#285FA4"/>
<path d="M12 15.007V11.5671L20.1 11.5469V15.007C20.1 15.5593 19.6523 16.007 19.1 16.007H13C12.4477 16.007 12 15.5593 12 15.007Z" fill="#E5ECF9"/>
</svg>
