<svg width="16" height="16" viewBox="0 0 16 16" fill="none" xmlns="http://www.w3.org/2000/svg">
<path d="M8.00008 1.66699C8.7018 1.66699 9.33707 2.06082 10.6069 2.84928L11.8809 3.6403C13.0774 4.38325 13.6766 4.75537 14.004 5.35514C14.3332 5.95547 14.3334 6.67985 14.3334 8.12923V9.09277C14.3334 11.5634 14.3328 12.7985 13.5912 13.5661C12.8496 14.3337 11.6551 14.3337 9.26701 14.3337H6.73315C4.34503 14.3337 3.15118 14.3337 2.40894 13.5661C1.6667 12.7985 1.66675 11.5627 1.66675 9.09277V8.12858C1.66675 6.67984 1.66695 5.95484 1.99618 5.35514C2.32451 4.75478 2.92372 4.3821 4.12248 3.6377L5.39396 2.84928C6.66398 2.06106 7.29847 1.66699 8.00008 1.66699ZM6.66675 10.8005C6.3722 10.8005 6.13354 11.0391 6.13354 11.3337C6.13354 11.6282 6.3722 11.8669 6.66675 11.8669H9.33341L9.3881 11.8643C9.65696 11.8369 9.86662 11.6097 9.86662 11.3337C9.86662 11.0576 9.65696 10.8304 9.3881 10.8031L9.33341 10.8005H6.66675Z" fill="#6D7882"/>
</svg>
