<svg width="16" height="17" viewBox="0 0 16 17" fill="none" xmlns="http://www.w3.org/2000/svg">
<path d="M13.8604 13.8467C13.6603 14.2333 13.2664 14.5 12.7998 14.5H3.2002C2.54023 14.5 2.00006 13.9598 2 13.2998V11.4131L5.70703 8.17969L13.8604 13.8467ZM12.7998 2.5C13.4598 2.5 14 3.0402 14 3.7002V12.6465L5.97363 7.05957C5.76707 6.91964 5.50013 6.93317 5.31348 7.09961L2 10V3.7002C2 3.0402 2.5402 2.5 3.2002 2.5H12.7998ZM10.4668 4.5C9.62017 4.5 8.93366 5.1866 8.93359 6.0332C8.93359 6.87987 9.62013 7.56641 10.4668 7.56641C11.3134 7.56634 12 6.87983 12 6.0332C11.9999 5.18664 11.3134 4.50007 10.4668 4.5Z" fill="#6D7882"/>
</svg>
