<svg width="16" height="17" viewBox="0 0 16 17" fill="none" xmlns="http://www.w3.org/2000/svg">
<path d="M7.41408 2.00469C7.85085 1.9469 8.24054 1.94754 8.63609 2.06068L8.78257 2.10755C9.11547 2.22692 9.40594 2.41555 9.70314 2.66094C10.0342 2.93427 10.4024 3.3036 10.8587 3.75989L11.957 4.8582C12.7536 5.65448 13.3889 6.28862 13.819 6.85234C14.2585 7.42841 14.5332 7.9933 14.5332 8.65768C14.5332 9.32232 14.2585 9.88701 13.819 10.463C13.3889 11.0268 12.7531 11.6611 11.957 12.4572C11.1609 13.2533 10.5266 13.889 9.96291 14.3191C9.38675 14.7587 8.82168 15.034 8.15692 15.034C7.49256 15.0339 6.9276 14.7592 6.35158 14.3198C5.92877 13.9973 5.46635 13.5589 4.9258 13.0242L4.35744 12.4578L3.25978 11.3595C2.80352 10.9029 2.43408 10.5343 2.16082 10.2033C1.91544 9.9059 1.72722 9.6152 1.60809 9.28203L1.56121 9.13685C1.44767 8.74117 1.44678 8.35114 1.50457 7.91419C1.5609 7.48844 1.67892 6.98051 1.82424 6.35169L1.99351 5.61536L2.16473 4.89336C2.2197 4.67539 2.27446 4.4797 2.334 4.30612C2.45707 3.94738 2.61446 3.6388 2.87567 3.37708C3.13747 3.11487 3.44702 2.95714 3.80601 2.83411C4.15315 2.71517 4.58807 2.61562 5.1146 2.49427L5.85093 2.3237L6.709 2.13099C6.96785 2.07637 7.20126 2.03284 7.41408 2.00469ZM12.2897 7.83541C12.0815 7.62721 11.7441 7.62726 11.5358 7.83541L7.34832 12.0236C7.1401 12.2319 7.14006 12.5692 7.34832 12.7775C7.55659 12.9857 7.89397 12.9857 8.10223 12.7775L12.2897 8.58932C12.4979 8.38104 12.4979 8.04366 12.2897 7.83541ZM6.90692 5.68502C6.38626 5.16445 5.54217 5.16445 5.0215 5.68502C4.50092 6.20569 4.50092 7.04978 5.0215 7.57044C5.54208 8.09101 6.38621 8.09146 6.90692 7.57109C7.4276 7.05041 7.4276 6.20571 6.90692 5.68502Z" fill="#6D7882"/>
</svg>
