<svg width="32" height="32" viewBox="0 0 32 32" fill="none" xmlns="http://www.w3.org/2000/svg">
<path fill-rule="evenodd" clip-rule="evenodd" d="M2.66748 15.9999C2.66748 16.2901 2.78568 16.5677 2.99483 16.7688L9.92817 23.4355C10.3528 23.8438 11.0281 23.8306 11.4364 23.4059C11.8447 22.9813 11.8314 22.306 11.4068 21.8977L6.38244 17.0666L25.2664 17.0666C25.8555 17.0666 26.3331 16.589 26.3331 15.9999C26.3331 15.4108 25.8555 14.9333 25.2664 14.9333L6.38244 14.9333L11.4068 10.1022C11.8314 9.69384 11.8447 9.0186 11.4364 8.59395C11.0281 8.16931 10.3528 8.15607 9.92816 8.56438L2.99483 15.231C2.78568 15.4322 2.66748 15.7098 2.66748 15.9999Z" fill="#33363D"/>
</svg>
