<svg width="44" height="32" viewBox="0 0 44 32" fill="none" xmlns="http://www.w3.org/2000/svg">
<g clip-path="url(#clip0_4325_126721)">
<path d="M5.45577 4.2092C6.51238 3.88726 7.62991 4.48283 7.95185 5.53945L8.24331 6.49603C8.56525 7.55264 9.68279 8.14821 10.7394 7.82627L18.3921 5.49459C24.2034 3.72393 30.3499 6.99957 32.1205 12.8109C33.8912 18.6223 30.6156 24.7688 24.8042 26.5394L21.9344 27.4138C14.5382 29.6674 6.71541 25.4984 4.46184 18.1021L1.25577 7.57967C0.933834 6.52306 1.52941 5.40552 2.58602 5.08358L5.45577 4.2092Z" fill="#313D4C"/>
<path d="M3.29572 14.2757C2.65185 12.1625 3.84299 9.92744 5.95621 9.28356L18.3918 5.49457C24.2032 3.72391 30.3496 6.99955 32.1203 12.8109C33.8909 18.6223 30.6153 24.7687 24.8039 26.5394L21.9342 27.4138C14.5379 29.6673 6.71514 25.4984 4.46157 18.1021L3.29572 14.2757Z" fill="#65B9EC"/>
<path d="M11.0756 19.2231C10.9147 18.6948 11.2125 18.136 11.7408 17.975L25.1329 13.8946C25.6612 13.7336 26.22 14.0314 26.381 14.5597C26.5419 15.088 26.2442 15.6468 25.7158 15.8077L12.3237 19.8882C11.7954 20.0492 11.2366 19.7514 11.0756 19.2231Z" fill="white"/>
<path d="M14.1547 22.4665C13.9938 21.9382 14.2916 21.3794 14.8199 21.2184L24.3857 18.3038C24.914 18.1429 25.4728 18.4406 25.6337 18.9689C25.7947 19.4973 25.4969 20.056 24.9686 20.217L15.4028 23.1316C14.8745 23.2926 14.3157 22.9948 14.1547 22.4665Z" fill="white"/>
<circle cx="30" cy="20" r="8" fill="#285FA4"/>
<g filter="url(#filter0_i_4325_126721)">
<circle cx="35" cy="20" r="1.5" fill="#285FA4"/>
</g>
<g filter="url(#filter1_i_4325_126721)">
<circle cx="30" cy="24" r="1.5" fill="#285FA4"/>
</g>
<g filter="url(#filter2_i_4325_126721)">
<circle cx="33.5" cy="23.5" r="1.5" fill="#285FA4"/>
</g>
<g filter="url(#filter3_i_4325_126721)">
<circle cx="31.5" cy="20.5" r="1.5" fill="#285FA4"/>
</g>
</g>
<defs>
<filter id="filter0_i_4325_126721" x="33.5" y="18.5" width="3" height="3" filterUnits="userSpaceOnUse" color-interpolation-filters="sRGB">
<feFlood flood-opacity="0" result="BackgroundImageFix"/>
<feBlend mode="normal" in="SourceGraphic" in2="BackgroundImageFix" result="shape"/>
<feColorMatrix in="SourceAlpha" type="matrix" values="0 0 0 0 0 0 0 0 0 0 0 0 0 0 0 0 0 0 127 0" result="hardAlpha"/>
<feOffset dx="-0.5" dy="-1"/>
<feComposite in2="hardAlpha" operator="arithmetic" k2="-1" k3="1"/>
<feColorMatrix type="matrix" values="0 0 0 0 1 0 0 0 0 1 0 0 0 0 1 0 0 0 0.5 0"/>
<feBlend mode="normal" in2="shape" result="effect1_innerShadow_4325_126721"/>
</filter>
<filter id="filter1_i_4325_126721" x="28.5" y="22.5" width="3" height="3" filterUnits="userSpaceOnUse" color-interpolation-filters="sRGB">
<feFlood flood-opacity="0" result="BackgroundImageFix"/>
<feBlend mode="normal" in="SourceGraphic" in2="BackgroundImageFix" result="shape"/>
<feColorMatrix in="SourceAlpha" type="matrix" values="0 0 0 0 0 0 0 0 0 0 0 0 0 0 0 0 0 0 127 0" result="hardAlpha"/>
<feOffset dx="-0.5" dy="-1"/>
<feComposite in2="hardAlpha" operator="arithmetic" k2="-1" k3="1"/>
<feColorMatrix type="matrix" values="0 0 0 0 1 0 0 0 0 1 0 0 0 0 1 0 0 0 0.5 0"/>
<feBlend mode="normal" in2="shape" result="effect1_innerShadow_4325_126721"/>
</filter>
<filter id="filter2_i_4325_126721" x="32" y="22" width="3" height="3" filterUnits="userSpaceOnUse" color-interpolation-filters="sRGB">
<feFlood flood-opacity="0" result="BackgroundImageFix"/>
<feBlend mode="normal" in="SourceGraphic" in2="BackgroundImageFix" result="shape"/>
<feColorMatrix in="SourceAlpha" type="matrix" values="0 0 0 0 0 0 0 0 0 0 0 0 0 0 0 0 0 0 127 0" result="hardAlpha"/>
<feOffset dx="-0.5" dy="-1"/>
<feComposite in2="hardAlpha" operator="arithmetic" k2="-1" k3="1"/>
<feColorMatrix type="matrix" values="0 0 0 0 1 0 0 0 0 1 0 0 0 0 1 0 0 0 0.5 0"/>
<feBlend mode="normal" in2="shape" result="effect1_innerShadow_4325_126721"/>
</filter>
<filter id="filter3_i_4325_126721" x="30" y="19" width="3" height="3" filterUnits="userSpaceOnUse" color-interpolation-filters="sRGB">
<feFlood flood-opacity="0" result="BackgroundImageFix"/>
<feBlend mode="normal" in="SourceGraphic" in2="BackgroundImageFix" result="shape"/>
<feColorMatrix in="SourceAlpha" type="matrix" values="0 0 0 0 0 0 0 0 0 0 0 0 0 0 0 0 0 0 127 0" result="hardAlpha"/>
<feOffset dx="-0.5" dy="-1"/>
<feComposite in2="hardAlpha" operator="arithmetic" k2="-1" k3="1"/>
<feColorMatrix type="matrix" values="0 0 0 0 1 0 0 0 0 1 0 0 0 0 1 0 0 0 0.5 0"/>
<feBlend mode="normal" in2="shape" result="effect1_innerShadow_4325_126721"/>
</filter>
<clipPath id="clip0_4325_126721">
<rect width="44" height="32" fill="white"/>
</clipPath>
</defs>
</svg>
