<svg width="44" height="32" viewBox="0 0 44 32" fill="none" xmlns="http://www.w3.org/2000/svg">
<ellipse cx="20" cy="29.5" rx="13" ry="2.5" fill="#ACB1B6" fill-opacity="0.2"/>
<rect x="5" y="8.33862" width="30" height="20.3226" rx="2.12159" fill="#65B9EC"/>
<circle cx="32.095" cy="11.095" r="1.095" fill="white"/>
<circle cx="20" cy="18" r="6" fill="#285FA4"/>
<path d="M15.0671 18.6678C15.0671 17.144 15.9814 13.944 19.6386 13.3345C18.4195 14.5535 16.083 17.398 15.0671 18.6678Z" fill="white"/>
<path d="M12 8.3999C12 6.19076 13.7909 4.3999 16 4.3999H24C26.2091 4.3999 28 6.19076 28 8.3999H12Z" fill="#D9D9D9"/>
<path d="M12 8.3999C12 6.19076 13.7909 4.3999 16 4.3999H24C26.2091 4.3999 28 6.19076 28 8.3999H12Z" fill="#313D4C"/>
</svg>
