<svg width="44" height="32" viewBox="0 0 44 32" fill="none" xmlns="http://www.w3.org/2000/svg">
<path d="M15.5 28C15.5 29.6569 14.1569 31 12.5 31C10.8431 31 9.5 29.6569 9.5 28C9.5 26.3431 10.8431 25 12.5 25C14.1569 25 15.5 26.3431 15.5 28Z" fill="#313D4C"/>
<path d="M30.5 28C30.5 29.6569 29.1569 31 27.5 31C25.8431 31 24.5 29.6569 24.5 28C24.5 26.3431 25.8431 25 27.5 25C29.1569 25 30.5 26.3431 30.5 28Z" fill="#313D4C"/>
<path d="M15 3.5C15 2.67157 15.6716 2 16.5 2C17.3284 2 18 2.67157 18 3.5V6.5C18 7.32843 17.3284 8 16.5 8C15.6716 8 15 7.32843 15 6.5V3.5Z" fill="#313D4C"/>
<path d="M22 3.5C22 2.67157 22.6716 2 23.5 2C24.3284 2 25 2.67157 25 3.5V6.5C25 7.32843 24.3284 8 23.5 8C22.6716 8 22 7.32843 22 6.5V3.5Z" fill="#313D4C"/>
<path d="M7 10C7 7.79086 8.79086 6 11 6H29C31.2091 6 33 7.79086 33 10V22C33 24.2091 31.2091 26 29 26H11C8.79086 26 7 24.2091 7 22V10Z" fill="#65B9EC"/>
<path fill-rule="evenodd" clip-rule="evenodd" d="M17 12C16.4477 12 16 12.4477 16 13V19C16 19.5523 16.4477 20 17 20C17.5523 20 18 19.5523 18 19V13C18 12.4477 17.5523 12 17 12ZM23 12C22.4477 12 22 12.4477 22 13V19C22 19.5523 22.4477 20 23 20C23.5523 20 24 19.5523 24 19V13C24 12.4477 23.5523 12 23 12Z" fill="white"/>
<path d="M14 2.5C14 1.67157 14.6716 1 15.5 1H24.5C25.3284 1 26 1.67157 26 2.5C26 3.32843 25.3284 4 24.5 4H15.5C14.6716 4 14 3.32843 14 2.5Z" fill="#285FA4"/>
</svg>
