<svg width="24" height="25" viewBox="0 0 24 25" fill="none" xmlns="http://www.w3.org/2000/svg">
<path fill-rule="evenodd" clip-rule="evenodd" d="M13.885 13.1453C14.0222 13.8531 13.6506 14.442 13.343 15.0127C12.9999 15.5432 12.435 16.0007 11.7546 15.932C10.2292 15.9092 8.73919 15.6747 7.35668 15.2585C7.29379 15.2414 7.23089 15.2013 7.19659 15.1442C7.168 15.0641 7.20802 14.9898 7.2652 14.9383C8.52764 13.916 10.0291 13.4415 11.5145 12.9452C12.0691 12.7851 12.6569 12.6136 13.279 12.6936C13.5362 12.7279 13.7935 12.9051 13.8839 13.1453M19.088 10.1184C19.7959 10.7004 20.4362 11.4952 20.219 12.4546C19.8645 13.8714 18.323 14.625 17.0949 15.1041C16.4271 15.3271 15.7524 15.5558 15.0217 15.6233C14.9759 15.6176 14.9016 15.629 14.8902 15.5604L14.9073 15.4804C15.9468 14.3094 16.7347 12.9966 17.4265 11.6656C17.7467 11.0664 18.0429 10.4489 18.3173 9.84395C18.3573 9.79821 18.3973 9.77534 18.4431 9.75819C18.7004 9.78106 18.8822 9.98118 19.088 10.1184ZM9.12113 8.61124L9.09826 8.69701C7.59682 10.4043 6.60767 12.386 5.67113 14.3574C5.48817 14.5289 5.31093 14.3002 5.14512 14.2259C4.31149 13.6782 3.55791 12.7919 3.77404 11.741C4.12281 10.37 5.53277 9.63926 6.70945 9.14298C7.40585 8.87997 8.13198 8.66842 8.897 8.54835C8.97704 8.54835 9.07996 8.53691 9.11998 8.61124M16.5746 8.88454C16.6603 8.93028 16.7633 8.94744 16.8147 9.0332C16.8605 9.1304 16.769 9.19329 16.7175 9.25619C15.5351 10.1813 14.1812 10.6959 12.7998 11.1464C12.0977 11.3179 11.3887 11.6256 10.6066 11.4552C10.4236 11.4094 10.2578 11.2894 10.1549 11.1121C9.96047 10.5758 10.2235 10.0155 10.4522 9.54664C10.7552 8.95887 11.2915 8.26704 12.0348 8.25561C13.6334 8.24417 15.1417 8.48431 16.5757 8.88454M18.5506 8.93028C19.7616 9.59238 21.1326 10.7576 20.9897 12.3117C20.8239 13.7514 19.4814 14.7565 18.2818 15.3614C14.7804 17.0344 9.86327 17.0858 6.24747 15.6244C5.02505 15.1167 3.65397 14.2419 3.14053 12.9292C2.74602 11.8497 3.22629 10.7245 4.03133 9.9766C5.71687 8.44543 7.8644 7.91941 10.0748 7.61752C12.4739 7.32593 14.9977 7.58322 17.1452 8.31964C17.6255 8.49689 18.0989 8.69129 18.5506 8.93028Z" fill="#464C53"/>
</svg>
