<svg width="21" height="20" viewBox="0 0 21 20" fill="none" xmlns="http://www.w3.org/2000/svg">
<path d="M1.87911 7.55078C1.58797 7.69602 1.57074 8.09986 1.837 8.2724L9.60386 12.5025L9.9413 12.6713C10.2932 12.8472 10.7074 12.8472 11.0593 12.6713L11.3964 12.5027L19.1635 8.27248C19.4299 8.1 19.4127 7.69604 19.1215 7.55078L10.8723 3.43554C10.6381 3.31869 10.3625 3.31869 10.1283 3.43554L1.87911 7.55078Z" fill="#6D7882"/>
<path d="M19.1215 12.0229L17.0043 10.9667L11.2178 14.1183C10.7705 14.3619 10.2301 14.3619 9.78285 14.1183L3.99632 10.9667L1.87911 12.0229C1.57824 12.173 1.56989 12.5993 1.86466 12.7611L10.0994 17.2799C10.3491 17.4169 10.6515 17.4169 10.9012 17.2799L19.1359 12.7611C19.4307 12.5993 19.4223 12.173 19.1215 12.0229Z" fill="#6D7882"/>
</svg>
