<svg width="44" height="32" viewBox="0 0 44 32" fill="none" xmlns="http://www.w3.org/2000/svg">
<path fill-rule="evenodd" clip-rule="evenodd" d="M13.5003 6.5001C12.6527 4.94427 8.27158 2.67361 6.58944 3.32213C5.64187 3.68746 5.69326 4.99749 5.76278 6.76975C5.81667 8.14362 5.88146 9.79525 5.50021 11.4999C4.84409 14.4336 9.82934 9.86419 12.9267 7.02517C13.1264 6.84213 13.3183 6.66628 13.5003 6.5001ZM22.4266 6.50021C23.2741 4.94439 27.6553 2.67373 29.3374 3.32225C30.285 3.68757 30.2336 4.99761 30.1641 6.76986C30.1102 8.14373 30.0454 9.79537 30.4267 11.5C31.0828 14.4337 26.0975 9.8643 23.0001 7.02527C22.8004 6.84224 22.6086 6.66639 22.4266 6.50021Z" fill="#285FA4"/>
<path d="M20.4743 29.109C23.5325 29.3831 26.8523 29.7397 29.2912 27.8743C31.5624 26.1371 33 23.6163 33 20.1664C33 12.3884 28.1786 4.99976 18 4.99976C7.82143 4.99976 3 12.3884 3 20.1664C3 23.6164 4.43768 26.1372 6.70894 27.8744C9.14778 29.7398 12.4676 29.3831 15.5258 29.109C16.3254 29.0374 17.1528 28.9998 18.0001 28.9998C18.8474 28.9998 19.6748 29.0374 20.4743 29.109Z" fill="#65B9EC"/>
<ellipse cx="27.5" cy="20.7498" rx="2.5" ry="1.75" fill="white"/>
<ellipse cx="8.5" cy="20.7498" rx="2.5" ry="1.75" fill="white"/>
<path d="M13.1251 18.1903C13.8878 18.1903 14.506 17.572 14.506 16.8094C14.506 16.0467 13.8878 15.4284 13.1251 15.4284C12.3624 15.4284 11.7441 16.0467 11.7441 16.8094C11.7441 17.572 12.3624 18.1903 13.1251 18.1903Z" fill="#313D4C"/>
<path d="M24.1727 16.8094C24.1727 17.572 23.5544 18.1903 22.7918 18.1903C22.0291 18.1903 21.4108 17.572 21.4108 16.8094C21.4108 16.0467 22.0291 15.4284 22.7918 15.4284C23.5544 15.4284 24.1727 16.0467 24.1727 16.8094Z" fill="#313D4C"/>
<path d="M18.0004 21.4999C19.1049 21.4999 20.0004 20.9403 20.0004 20.2499C20.0004 19.5596 19.1049 18.9999 18.0004 18.9999C16.8958 18.9999 16.0004 19.5596 16.0004 20.2499C16.0004 20.9403 16.8958 21.4999 18.0004 21.4999Z" fill="#313D4C"/>
<path d="M18.5004 21C18.5004 20.7239 18.2766 20.5 18.0004 20.5C17.7243 20.5 17.5004 20.7239 17.5004 21C17.5004 21.715 17.0318 22.2124 16.3585 22.4117C15.6714 22.6151 14.8689 22.47 14.3516 21.9597C14.155 21.7657 13.8384 21.7678 13.6445 21.9644C13.4505 22.161 13.4527 22.4775 13.6492 22.6715C14.4653 23.4767 15.6628 23.6605 16.6423 23.3706C17.1671 23.2152 17.656 22.9136 18.0004 22.4781C18.3449 22.9136 18.8337 23.2152 19.3585 23.3706C20.338 23.6605 21.5355 23.4767 22.3516 22.6715C22.5482 22.4775 22.5503 22.161 22.3563 21.9644C22.1624 21.7678 21.8458 21.7657 21.6492 21.9597C21.132 22.47 20.3295 22.6151 19.6423 22.4117C18.969 22.2124 18.5004 21.715 18.5004 21Z" fill="#313D4C"/>
</svg>
