<svg width="20" height="20" viewBox="0 0 20 20" fill="none" xmlns="http://www.w3.org/2000/svg">
<path d="M15.3473 6.3743L16.8055 4.91603C17.9336 6.81453 17.6899 9.30656 16.0548 10.9378C14.5102 12.4823 12.2033 12.7912 10.3528 11.8683L5.15122 17.0698C4.57734 17.6437 3.64185 17.6437 3.06798 17.0698L2.93041 16.9323C2.35653 16.3584 2.35653 15.4229 2.93041 14.849L8.13187 9.64756C7.20864 7.79679 7.51751 5.48597 9.06216 3.94516C10.6973 2.31001 13.1854 2.06631 15.0839 3.19441L13.6256 4.65267C13.15 5.12828 13.15 5.89869 13.6256 6.3743C14.1012 6.8499 14.8716 6.8499 15.3473 6.3743Z" fill="#6D7882"/>
</svg>
