<svg width="25" height="25" viewBox="0 0 25 25" fill="none" xmlns="http://www.w3.org/2000/svg">
<path d="M19.5574 11.7072L18.6244 13.4274H14.7008V14.6328H10.3033V13.4274H5.44694L6.37993 11.7072H10.3034V10.5016H14.7009V11.7072H19.5574ZM21.4279 11.0041H15.4393V9.91777C15.4393 9.85646 15.3864 9.80676 15.3213 9.80676H9.67872C9.61368 9.80676 9.56088 9.85636 9.56088 9.91777V11.0041H5.26861C5.20358 11.0041 5.12382 11.0537 5.09082 11.115L3.51441 14.021C3.4813 14.0822 3.50716 14.1318 3.57231 14.1318H9.56088V15.2184C9.56088 15.2795 9.61368 15.3291 9.67872 15.3291H15.3213C15.3864 15.3291 15.4393 15.2795 15.4393 15.2184V14.1318H19.7315C19.7966 14.1318 19.8763 14.0822 19.9094 14.021L21.4855 11.115C21.5188 11.0537 21.4929 11.0041 21.4279 11.0041Z" fill="#464C53"/>
</svg>
