<svg width="24" height="24" viewBox="0 0 24 24" fill="none" xmlns="http://www.w3.org/2000/svg">
<path d="M13.2722 13.2287C13.2722 13.2643 13.29 13.2821 13.3078 13.2821C13.3256 13.2821 13.3435 13.2821 13.3435 13.2643L18.9573 9.61084C19.0643 9.53955 19.1534 9.5039 19.2781 9.5039H20.5078C20.7039 9.5039 20.8286 9.62866 20.8286 9.8247V12.1772C20.8286 12.4623 20.7573 12.6227 20.5078 12.7831L19.0108 13.6742C18.993 13.692 18.9751 13.692 18.9573 13.692C18.9395 13.692 18.9217 13.6742 18.9217 13.6207V10.8762C18.9217 10.8405 18.9039 10.8227 18.886 10.8227C18.8682 10.8227 18.8504 10.8227 18.8504 10.8405L14.7514 13.5138C14.6445 13.5851 14.5375 13.6029 14.4306 13.6029H11.7217C11.5256 13.6029 11.4009 13.4782 11.4009 13.2821V9.89598C11.4009 9.87816 11.3831 9.84252 11.3652 9.84252C11.3474 9.84252 11.3296 9.84252 11.3296 9.86034L8.62069 11.4999C8.58505 11.5178 8.58505 11.5356 8.58505 11.5356C8.58505 11.5534 8.58505 11.5534 8.60287 11.5712L10.5276 13.496C10.5454 13.5138 10.5633 13.5494 10.5633 13.5673C10.5633 13.5851 10.5276 13.6029 10.5098 13.6029H8.76327C8.62069 13.6029 8.51376 13.5851 8.44247 13.5138L7.26624 12.3376C7.24842 12.3197 7.24842 12.3197 7.23059 12.3197C7.21277 12.3197 7.21277 12.3197 7.19495 12.3376L5.23455 13.5138C5.1098 13.5851 5.03851 13.6029 4.91376 13.6029H3.14941C2.95337 13.6029 2.82861 13.4782 2.82861 13.2821V10.9653C2.82861 10.6801 2.8999 10.5197 3.14941 10.3594L4.64644 9.45044C4.66426 9.43262 4.68208 9.43262 4.68208 9.43262C4.6999 9.43262 4.71772 9.45044 4.71772 9.5039V12.5871C4.71772 12.6227 4.73554 12.6405 4.75337 12.6405C4.77119 12.6405 4.78901 12.6405 4.80683 12.6227L9.88604 9.55737C10.0108 9.48608 10.0821 9.46826 10.2247 9.46826H12.9692C13.1652 9.46826 13.29 9.59301 13.29 9.78905V13.2287H13.2722Z" fill="#464C53"/>
</svg>
