<svg width="16" height="17" viewBox="0 0 16 17" fill="none" xmlns="http://www.w3.org/2000/svg">
<g clip-path="url(#clip0_5142_190934)">
<path fill-rule="evenodd" clip-rule="evenodd" d="M8.00065 1.83301C11.6825 1.83301 14.6673 4.81778 14.6673 8.49967C14.6673 12.1816 11.6825 15.1663 8.00065 15.1663C4.31875 15.1663 1.33398 12.1816 1.33398 8.49967C1.33398 4.81778 4.31875 1.83301 8.00065 1.83301ZM10.4395 6.06022C10.136 5.75709 9.64396 5.75707 9.3405 6.06022L5.5612 9.83952C5.25805 10.143 5.25807 10.635 5.5612 10.9385C5.86475 11.242 6.35791 11.242 6.66146 10.9385L10.4395 7.16048C10.743 6.85693 10.743 6.36377 10.4395 6.06022ZM9.778 9.38835C9.28737 9.38853 8.8895 9.78639 8.88932 10.277C8.88932 10.7678 9.28726 11.1662 9.778 11.1663C10.2689 11.1663 10.6673 10.7679 10.6673 10.277C10.6671 9.78628 10.2688 9.38835 9.778 9.38835ZM6.22266 5.83301C5.73201 5.83318 5.33416 6.23104 5.33398 6.72168C5.33398 7.21247 5.73191 7.61083 6.22266 7.611C6.71355 7.611 7.11198 7.21257 7.11198 6.72168C7.11181 6.23093 6.71344 5.83301 6.22266 5.83301Z" fill="#6D7882"/>
</g>
<defs>
<clipPath id="clip0_5142_190934">
<rect width="16" height="16" fill="white" transform="translate(0 0.5)"/>
</clipPath>
</defs>
</svg>
