<svg width="21" height="20" viewBox="0 0 21 20" fill="none" xmlns="http://www.w3.org/2000/svg">
<path fill-rule="evenodd" clip-rule="evenodd" d="M6.87665 3.41226C2.01488 0.128482 2.04658 3.46479 3.32581 7.76886C3.10886 8.47058 2.99204 9.21627 2.99204 9.98925C2.99204 11.3788 3.36953 12.6801 4.02754 13.7963L3.02098 14.2996C2.61667 14.5017 2.45279 14.9934 2.65495 15.3977C2.8571 15.802 3.34873 15.9658 3.75304 15.7637L5.02574 15.1273C6.39524 16.5857 8.34093 17.4966 10.4994 17.4966C12.6261 17.4966 14.5463 16.6123 15.9123 15.1913L17.0571 15.7637C17.4614 15.9658 17.953 15.802 18.1552 15.3977C18.3574 14.9934 18.1935 14.5017 17.7892 14.2996L16.9278 13.8689C17.6126 12.7367 18.0067 11.409 18.0067 9.98925C18.0067 9.21627 17.8899 8.47058 17.6729 7.76886C18.9522 3.46478 18.9839 0.128481 14.1221 3.41226C13.048 2.81934 11.8131 2.48192 10.4994 2.48192C9.18567 2.48192 7.95079 2.81934 6.87665 3.41226ZM12.8699 10.7795C13.3063 10.7795 13.6601 10.4257 13.6601 9.98925C13.6601 9.55281 13.3063 9.19901 12.8699 9.19901C12.4335 9.19901 12.0796 9.55281 12.0796 9.98925C12.0796 10.4257 12.4335 10.7795 12.8699 10.7795ZM8.12856 10.7795C8.565 10.7795 8.91881 10.4257 8.91881 9.98926C8.91881 9.55282 8.565 9.19902 8.12856 9.19902C7.69212 9.19902 7.33831 9.55282 7.33831 9.98926C7.33831 10.4257 7.69212 10.7795 8.12856 10.7795ZM11.6845 12.1226C11.6845 12.5591 11.2894 13.1502 10.4992 13.1502C9.70891 13.1502 9.31378 12.5591 9.31378 12.1226C9.31378 11.6862 10.0627 11.5697 10.4992 11.5697C10.9356 11.5697 11.6845 11.6862 11.6845 12.1226Z" fill="#6D7882"/>
</svg>
