<svg width="44" height="32" viewBox="0 0 44 32" fill="none" xmlns="http://www.w3.org/2000/svg">
<ellipse cx="18" cy="29.5" rx="13" ry="2.5" fill="#ACB1B6" fill-opacity="0.2"/>
<path d="M6.58594 3.32422C8.2681 2.67581 12.6494 4.94615 13.4971 6.50195C10.4924 9.24565 4.79864 14.6248 5.49707 11.502C6.37003 7.59846 4.90382 3.97273 6.58594 3.32422ZM22.4229 6.50195C23.2707 4.94614 27.6519 2.67573 29.334 3.32422C31.016 3.97275 29.5499 7.5985 30.4229 11.502C31.1213 14.6248 25.4275 9.24565 22.4229 6.50195Z" fill="#285FA4"/>
<path d="M20.4743 29.1093C23.5325 29.3833 26.8523 29.74 29.2912 27.8746C31.5624 26.1374 33 23.6166 33 20.1667C33 12.3887 28.1786 5 18 5C7.82143 5 3 12.3887 3 20.1667C3 23.6166 4.43768 26.1375 6.70894 27.8747C9.14778 29.74 12.4676 29.3833 15.5258 29.1093C16.3254 29.0376 17.1528 29 18.0001 29C18.8474 29 19.6748 29.0376 20.4743 29.1093Z" fill="#65B9EC"/>
<ellipse cx="27.5" cy="20.75" rx="2.5" ry="1.75" fill="white"/>
<ellipse cx="8.5" cy="20.75" rx="2.5" ry="1.75" fill="white"/>
<path d="M13.1231 18.1916C13.8858 18.1916 14.5041 17.5733 14.5041 16.8106C14.5041 16.048 13.8858 15.4297 13.1231 15.4297C12.3605 15.4297 11.7422 16.048 11.7422 16.8106C11.7422 17.5733 12.3605 18.1916 13.1231 18.1916Z" fill="#313D4C"/>
<path d="M24.1708 16.8106C24.1708 17.5733 23.5525 18.1916 22.7898 18.1916C22.0271 18.1916 21.4089 17.5733 21.4089 16.8106C21.4089 16.048 22.0271 15.4297 22.7898 15.4297C23.5525 15.4297 24.1708 16.048 24.1708 16.8106Z" fill="#313D4C"/>
<path d="M17.9984 21.5012C19.103 21.5012 19.9984 20.9416 19.9984 20.2512C19.9984 19.5609 19.103 19.0012 17.9984 19.0012C16.8938 19.0012 15.9984 19.5609 15.9984 20.2512C15.9984 20.9416 16.8938 21.5012 17.9984 21.5012Z" fill="#313D4C"/>
<path d="M18.4985 21.0013C18.4985 20.7251 18.2746 20.5013 17.9985 20.5013C17.7223 20.5013 17.4985 20.7251 17.4985 21.0013C17.4985 21.7163 17.0299 22.2137 16.3565 22.413C15.6694 22.6164 14.8669 22.4713 14.3496 21.9609C14.1531 21.767 13.8365 21.7691 13.6425 21.9657C13.4486 22.1623 13.4507 22.4788 13.6473 22.6728C14.4634 23.478 15.6608 23.6618 16.6404 23.3719C17.1651 23.2165 17.654 22.9149 17.9985 22.4794C18.3429 22.9149 18.8318 23.2165 19.3565 23.3719C20.3361 23.6618 21.5336 23.478 22.3496 22.6728C22.5462 22.4788 22.5483 22.1623 22.3544 21.9657C22.1604 21.7691 21.8439 21.767 21.6473 21.9609C21.13 22.4713 20.3275 22.6164 19.6404 22.413C18.9671 22.2137 18.4985 21.7163 18.4985 21.0013Z" fill="#313D4C"/>
</svg>
