<svg width="32" height="32" viewBox="0 0 32 32" fill="none" xmlns="http://www.w3.org/2000/svg">
<g style="mix-blend-mode:multiply">
<path d="M16.0012 4.00391C23.3638 4.00391 29.3331 9.97243 29.3333 17.335C29.3333 18.6851 29.1316 19.9887 28.7581 21.2168C28.7398 21.2769 28.7161 21.3343 28.6917 21.3906C27.7551 24.3248 25.8328 26.818 23.3108 28.4775C23.0215 28.6679 22.6795 28.7597 22.3333 28.7598H9.65259C9.30627 28.7598 8.96437 28.6679 8.67505 28.4775C5.94591 26.6819 3.91536 23.9107 3.08032 20.6602C3.06281 20.5919 3.0488 20.5242 3.04028 20.457C2.79953 19.4555 2.67017 18.4102 2.67017 17.335C2.67031 9.97257 8.63884 4.00412 16.0012 4.00391ZM24.2542 17.333C24.2541 17.0748 23.9731 16.9226 23.7473 17.0479L21.0901 18.5225C20.9767 18.5855 20.8947 18.6923 20.8567 18.8164C20.2208 20.8954 18.2874 22.4081 16.0002 22.4082C13.7137 22.4082 11.7803 20.8965 11.1438 18.8184C11.1057 18.6943 11.0239 18.5874 10.9104 18.5244L8.2522 17.0488C8.02733 16.9242 7.7483 17.0759 7.74829 17.333C7.7483 17.6446 7.76532 17.9523 7.79907 18.2549C7.82614 18.4976 7.82634 18.7487 7.80591 19.002C7.89558 19.1184 7.96597 19.2526 8.00415 19.4004C8.6211 21.7892 10.2807 23.7584 12.469 24.7939C12.6965 24.9015 12.9469 24.9492 13.1985 24.9492H18.7893C19.0411 24.9492 19.2921 24.9017 19.5198 24.7939C21.708 23.7584 23.3678 21.7892 23.9846 19.4004C24.0246 19.2456 24.0975 19.1044 24.1936 18.9844C24.1746 18.7368 24.1769 18.4913 24.2034 18.2539C24.237 17.9516 24.2541 17.6443 24.2542 17.333ZM16.0012 9.08105C12.6759 9.0812 9.8091 11.0481 8.5022 13.8818C8.36532 14.1791 8.58901 14.5053 8.91626 14.5107L11.4817 14.5537C11.6453 14.5563 11.7975 14.474 11.8938 14.3418C12.8172 13.0747 14.3123 12.251 16.0002 12.251C17.688 12.251 19.1824 13.0748 20.1057 14.3418C20.2021 14.474 20.3543 14.5564 20.5178 14.5537L23.0852 14.5107C23.4125 14.5053 23.6361 14.1791 23.4993 13.8818C22.1925 11.0481 19.3266 9.08105 16.0012 9.08105Z" fill="white"/>
<path d="M7.02415 18.6011C7.49391 18.6011 7.88762 18.9457 8.00508 19.4005C8.62206 21.7894 10.282 23.7589 12.4704 24.7944C12.6979 24.902 12.9483 24.9497 13.1999 24.9497H18.7908C19.0426 24.9497 19.2936 24.9022 19.5212 24.7944C21.7096 23.7589 23.3688 21.7894 23.9856 19.4005C24.1031 18.9457 24.4968 18.6011 24.9665 18.6011H27.1726C28.2951 18.6011 29.1853 19.5735 28.906 20.6606C28.0709 23.9111 26.0413 26.6824 23.3122 28.478C23.023 28.6684 22.681 28.7602 22.3347 28.7603H9.65404C9.3077 28.7603 8.96584 28.6684 8.6765 28.478C5.94727 26.6824 3.91783 23.9112 3.08275 20.6606C2.80346 19.5735 3.69368 18.6011 4.81615 18.6011H7.02415Z" fill="#D63D4A"/>
<g style="mix-blend-mode:multiply">
<path d="M15.998 4C23.3606 4 29.33 9.9685 29.3301 17.3311C29.3301 18.6812 29.1285 19.9848 28.7549 21.2129C28.5303 21.9505 27.8229 22.4121 27.0518 22.4121C25.2027 22.4121 23.9954 20.0877 24.2002 18.25C24.234 17.9471 24.251 17.6391 24.251 17.3271C24.251 17.0699 23.9707 16.918 23.7457 17.0429L21.0872 18.5184C20.9735 18.5815 20.8916 18.6887 20.8536 18.813C20.2183 20.8929 18.2848 22.4062 15.9971 22.4062C13.7095 22.4062 11.7751 20.8935 11.1395 18.8139C11.1015 18.6896 11.0197 18.5825 10.9061 18.5194L8.24744 17.0434C8.02297 16.9188 7.74513 17.0704 7.74512 17.3271C7.74512 17.6388 7.76212 17.9464 7.7959 18.249C8.00115 20.0869 6.79461 22.4121 4.94531 22.4121C4.17421 22.4121 3.46676 21.9505 3.24219 21.2129C2.86859 19.9848 2.66699 18.6812 2.66699 17.3311C2.66711 9.96863 8.63565 4.00021 15.998 4ZM15.998 9.07422C12.6718 9.07439 9.80443 11.0426 8.49801 13.8779C8.36103 14.1752 8.58458 14.5018 8.91186 14.5073L11.4793 14.5503C11.6429 14.553 11.7952 14.4705 11.8916 14.3383C12.8151 13.072 14.3098 12.249 15.9971 12.249C17.6842 12.2491 19.1782 13.0722 20.1016 14.3384C20.198 14.4706 20.3502 14.553 20.5138 14.5503L23.0832 14.5073C23.4105 14.5018 23.6341 14.1751 23.4971 13.8779C22.1908 11.0426 19.3244 9.07422 15.998 9.07422Z" fill="#FA967C"/>
</g>
<rect x="13.4563" y="14.792" width="5.07857" height="5.07857" rx="2.53929" fill="white"/>
<g style="mix-blend-mode:multiply">
<ellipse cx="16.0001" cy="17.3333" rx="5.33333" ry="5.33333" fill="black"/>
<ellipse cx="16.0001" cy="17.3333" rx="5.33333" ry="5.33333" fill="#D63D4A"/>
</g>
<path d="M12.8668 19.918V18.3047C12.867 18.0472 13.0755 17.8388 13.333 17.8385H14.9463L15.0413 17.8477C15.2536 17.8913 15.4136 18.0795 15.4137 18.3047C15.4137 18.53 15.2537 18.718 15.0413 18.7617L14.9463 18.7721H14.4593L14.6911 19.0039L14.9085 19.194C15.1366 19.3688 15.3974 19.498 15.6767 19.5729C16.0497 19.6728 16.4431 19.6729 16.8161 19.5729C17.1888 19.473 17.5288 19.2767 17.8017 19.0039C18.0747 18.7308 18.2709 18.3899 18.3707 18.0169L18.4046 17.9284C18.5017 17.7345 18.7247 17.6293 18.9424 17.6875C19.1913 17.7542 19.3397 18.0101 19.2731 18.2591L19.2132 18.4557C19.0591 18.9096 18.802 19.3225 18.4619 19.6628C18.0732 20.0515 17.5892 20.3315 17.0582 20.474C16.527 20.6164 15.9671 20.6163 15.4358 20.474C14.9712 20.3495 14.5423 20.1204 14.1819 19.8047L14.0309 19.6641L13.8004 19.4323V19.918C13.8004 20.1757 13.5907 20.3854 13.333 20.3854C13.0754 20.3852 12.8668 20.1756 12.8668 19.918ZM15.0973 13.9505C15.6286 13.8081 16.1884 13.8082 16.7197 13.9505C17.1843 14.0751 17.6133 14.304 17.9736 14.6198L18.1233 14.7604L18.3551 14.9922V14.5065C18.3551 14.2488 18.5648 14.0391 18.8226 14.0391C19.08 14.0394 19.2887 14.249 19.2887 14.5065V16.1198C19.2885 16.3585 19.1081 16.5584 18.8707 16.5833L17.0439 16.7734L16.9489 16.7747C16.7328 16.7536 16.5543 16.5824 16.5309 16.3581C16.5043 16.1019 16.6902 15.8732 16.9463 15.8464L17.7991 15.7565L17.4632 15.4206V15.4193C17.1903 15.1468 16.85 14.9513 16.4775 14.8516C16.1047 14.7517 15.7123 14.7517 15.3395 14.8516C14.9665 14.9515 14.6255 15.1475 14.3525 15.4206C14.0795 15.6936 13.8834 16.0346 13.7835 16.4075C13.7167 16.6563 13.4607 16.8036 13.2119 16.737C12.9632 16.6701 12.8158 16.4142 12.8825 16.1654C13.0247 15.6345 13.3039 15.1505 13.6924 14.7617C14.0812 14.3728 14.5661 14.0929 15.0973 13.9505Z" fill="white"/>
</g>
</svg>
