<svg width="32" height="32" viewBox="0 0 32 32" fill="none" xmlns="http://www.w3.org/2000/svg">
<g style="mix-blend-mode:multiply">
<path d="M15.8342 3.33594C22.8294 3.33594 28.5002 9.00681 28.5002 16.002C28.5002 17.2846 28.3091 18.5227 27.9543 19.6895C27.9365 19.7482 27.914 19.8044 27.8899 19.8594C26.9992 22.6456 25.1724 25.0131 22.7766 26.5889C22.5019 26.7694 22.1775 26.8564 21.8489 26.8564H9.80493C9.47605 26.8564 9.15103 26.7695 8.87622 26.5889C6.28254 24.8829 4.35332 22.2499 3.55981 19.1611C3.54603 19.1075 3.53647 19.0539 3.52856 19.001C3.29483 18.0395 3.16921 17.0354 3.16919 16.002C3.16919 9.00692 8.83924 3.33613 15.8342 3.33594ZM8.55786 15.6846C8.30607 15.5451 7.99438 15.7131 7.99438 16.001C7.99441 16.2963 8.01128 16.5882 8.04321 16.875C8.06897 17.1066 8.06979 17.3463 8.05005 17.5879C8.13413 17.6979 8.19964 17.8246 8.2356 17.9639C9.10785 21.3427 12.1761 23.8387 15.8274 23.8389C19.4788 23.8388 22.5478 21.3428 23.4202 17.9639C23.458 17.8175 23.5268 17.684 23.6174 17.5703C23.5993 17.335 23.6021 17.1016 23.6272 16.876C23.6592 16.5889 23.676 16.2967 23.676 16.001C23.676 15.7972 23.4557 15.6755 23.2776 15.7744L20.6321 17.2432C20.5275 17.3013 20.4509 17.3991 20.4133 17.5127C19.7776 19.4344 17.9682 20.8213 15.8333 20.8213C13.6245 20.8212 11.7632 19.337 11.1907 17.3115C11.1561 17.1893 11.0771 17.0831 10.9661 17.0215L8.55786 15.6846ZM15.8352 8.16016C12.6771 8.16016 9.95455 10.0272 8.71216 12.7178C8.58175 13.0002 8.79368 13.3112 9.10474 13.3164L11.5413 13.3574C11.6965 13.36 11.8412 13.2816 11.9329 13.1562C12.8103 11.9535 14.2305 11.171 15.8333 11.1709C17.4382 11.1709 18.8595 11.9555 19.7366 13.1611C19.8281 13.2869 19.9726 13.3659 20.1282 13.3633L22.5667 13.3223C22.8775 13.3171 23.09 13.007 22.9602 12.7246C21.7192 10.0308 18.9955 8.16037 15.8352 8.16016Z" fill="white"/>
<path d="M7.30556 17.2041C7.75191 17.2041 8.126 17.5317 8.23759 17.9638C9.10994 21.3426 12.1781 23.8387 15.8293 23.8389C19.4807 23.8387 22.5496 21.3427 23.4221 17.9638C23.5337 17.5317 23.9078 17.2041 24.3541 17.2041H27.4417C27.975 17.2041 28.3952 17.6644 28.3037 18.1897C27.2665 24.1412 22.0758 28.666 15.8274 28.666C9.57925 28.6658 4.38826 24.1411 3.35109 18.1897C3.25954 17.6644 3.67982 17.2041 4.21303 17.2041H7.30556Z" fill="#D63D4A"/>
<g style="mix-blend-mode:multiply">
<path fill-rule="evenodd" clip-rule="evenodd" d="M16.0009 3.33325C22.9963 3.33355 28.6668 9.00512 28.6668 16.0006C28.6668 17.1422 28.5147 18.2481 28.231 19.3C27.9767 20.2431 27.0753 20.8278 26.0985 20.828C24.506 20.828 23.4801 18.8457 23.7382 17.2742C23.8065 16.8584 23.8422 16.4316 23.8422 15.9964C23.8422 15.7517 23.5769 15.6079 23.3629 15.7265L20.8901 17.0971C20.7464 17.177 20.6438 17.3131 20.5935 17.4696C20.2189 18.6393 19.4089 19.6117 18.3555 20.2025C18.0164 20.3926 17.8255 20.7913 17.9535 21.1584L18.4778 22.6611C18.6104 23.0415 19.0312 23.2415 19.3944 23.0674C19.527 23.0037 19.6568 22.9344 19.7852 22.8636C18.662 23.4854 17.3715 23.8419 15.9966 23.842C14.7368 23.842 13.548 23.5421 12.4935 23.014C12.8529 23.1794 13.2671 22.9824 13.3988 22.6049L13.926 21.0937C14.0515 20.7338 13.8702 20.3433 13.5422 20.149C12.5365 19.5532 11.7656 18.603 11.4026 17.4696C11.3524 17.3131 11.2497 17.177 11.106 17.0971L8.63605 15.7265C8.42281 15.6086 8.1595 15.7526 8.1595 15.9964C8.1595 16.4311 8.19539 16.8575 8.26352 17.2728C8.52137 18.8449 7.49486 20.828 5.90183 20.828C4.92505 20.8278 4.02364 20.2431 3.76928 19.3C3.48562 18.248 3.33354 17.1422 3.3335 16.0006C3.3335 9.00493 9.00518 3.33325 16.0009 3.33325ZM16.0009 8.15503C12.9159 8.15503 10.2466 9.93652 8.96641 12.527C8.78271 12.8987 9.06633 13.3128 9.48092 13.3198L11.6219 13.3564C11.8292 13.3599 12.0212 13.2546 12.1463 13.0893C13.0271 11.9241 14.4248 11.1718 15.9981 11.1718C17.5711 11.1718 18.9677 11.9244 19.8485 13.0893C19.9735 13.2546 20.1655 13.3599 20.3728 13.3564L22.5194 13.3198C22.934 13.3128 23.2176 12.8987 23.0339 12.527C21.7538 9.9368 19.0855 8.15521 16.0009 8.15503Z" fill="#FA967C"/>
<path d="M5.84139 23.5721C5.83142 23.5587 5.82037 23.5461 5.81046 23.5327C5.80704 23.5281 5.80389 23.5233 5.80062 23.5187C5.81392 23.5367 5.82799 23.5541 5.84139 23.5721Z" fill="#FA967C"/>
<path d="M26.1772 23.5327C26.1671 23.5463 26.155 23.5585 26.1449 23.5721C26.1583 23.5541 26.1723 23.5367 26.1857 23.5187C26.1825 23.5231 26.1805 23.5283 26.1772 23.5327Z" fill="#FA967C"/>
</g>
<rect x="13.4167" y="13.5859" width="4.82508" height="4.82508" rx="2.41254" fill="white"/>
<g style="mix-blend-mode:multiply">
<ellipse cx="16.0003" cy="16" rx="5.3333" ry="5.3333" fill="#D63D4A"/>
</g>
<path d="M12.9008 18.5564V16.96C12.9009 16.7052 13.1073 16.4989 13.362 16.4987H14.9585L15.0525 16.5077C15.2626 16.551 15.4209 16.7371 15.4211 16.96C15.4211 17.183 15.2627 17.369 15.0525 17.4123L14.9585 17.4226H14.4766L14.7059 17.6519L14.9211 17.84C15.1468 18.013 15.4049 18.1409 15.6813 18.215C16.0504 18.3139 16.4397 18.3139 16.8088 18.215C17.1776 18.1161 17.5141 17.9219 17.7841 17.6519C18.0543 17.3817 18.2484 17.0443 18.3472 16.6753L18.3807 16.5876C18.4768 16.3957 18.6975 16.2917 18.9128 16.3493C19.1592 16.4152 19.3061 16.6685 19.2401 16.9149L19.1809 17.1095C19.0284 17.5586 18.774 17.9672 18.4374 18.3039C18.0528 18.6886 17.5738 18.9657 17.0484 19.1066C16.5227 19.2475 15.9687 19.2475 15.443 19.1066C14.9832 18.9835 14.5588 18.7568 14.2021 18.4443L14.0527 18.3052L13.8246 18.0758V18.5564C13.8246 18.8115 13.6171 19.019 13.362 19.019C13.1072 19.0188 12.9008 18.8114 12.9008 18.5564ZM15.1079 12.6513C15.6336 12.5104 16.1877 12.5105 16.7134 12.6513C17.1731 12.7745 17.5976 13.0011 17.9542 13.3136L18.1024 13.4527L18.3317 13.6821V13.2015C18.3317 12.9464 18.5393 12.7389 18.7943 12.7389C19.0491 12.7392 19.2556 12.9466 19.2556 13.2015V14.7979C19.2554 15.0341 19.0769 15.2319 18.842 15.2566L17.0342 15.4447L16.9402 15.446C16.7264 15.4251 16.5497 15.2557 16.5266 15.0337C16.5003 14.7802 16.6842 14.5539 16.9376 14.5273L17.7816 14.4384L17.4491 14.106V14.1047C17.1791 13.8351 16.8423 13.6417 16.4737 13.5429C16.1048 13.4442 15.7165 13.4441 15.3476 13.5429C14.9785 13.6419 14.6411 13.8358 14.3709 14.106C14.1008 14.3762 13.9067 14.7136 13.8079 15.0827C13.7417 15.3288 13.4885 15.4746 13.2422 15.4087C12.9961 15.3425 12.8503 15.0892 12.9162 14.843C13.057 14.3177 13.3333 13.8387 13.7177 13.454C14.1024 13.0692 14.5823 12.7922 15.1079 12.6513Z" fill="white"/>
</g>
</svg>
