<svg width="32" height="32" viewBox="0 0 32 32" fill="none" xmlns="http://www.w3.org/2000/svg">
<rect x="6.66675" y="5.3335" width="18.6667" height="22.6667" rx="2" fill="#D9D9D9"/>
<rect x="6.66675" y="5.3335" width="18.6667" height="22.6667" rx="2" fill="#FA967C"/>
<g style="mix-blend-mode:multiply">
<ellipse cx="16.0001" cy="17.3333" rx="5.33333" ry="5.33333" fill="black"/>
<ellipse cx="16.0001" cy="17.3333" rx="5.33333" ry="5.33333" fill="#D63D4A"/>
</g>
<path d="M12.8668 19.918V18.3047C12.867 18.0472 13.0755 17.8388 13.333 17.8385H14.9463L15.0413 17.8477C15.2536 17.8913 15.4136 18.0795 15.4137 18.3047C15.4137 18.53 15.2537 18.718 15.0413 18.7617L14.9463 18.7721H14.4593L14.6911 19.0039L14.9085 19.194C15.1366 19.3688 15.3974 19.498 15.6767 19.5729C16.0497 19.6728 16.4431 19.6729 16.8161 19.5729C17.1888 19.473 17.5288 19.2767 17.8017 19.0039C18.0747 18.7308 18.2709 18.3899 18.3707 18.0169L18.4046 17.9284C18.5017 17.7345 18.7247 17.6293 18.9424 17.6875C19.1913 17.7542 19.3397 18.0101 19.2731 18.2591L19.2132 18.4557C19.0591 18.9096 18.802 19.3225 18.4619 19.6628C18.0732 20.0515 17.5892 20.3315 17.0582 20.474C16.527 20.6164 15.9671 20.6163 15.4358 20.474C14.9712 20.3495 14.5423 20.1204 14.1819 19.8047L14.0309 19.6641L13.8004 19.4323V19.918C13.8004 20.1757 13.5907 20.3854 13.333 20.3854C13.0754 20.3852 12.8668 20.1756 12.8668 19.918ZM15.0973 13.9505C15.6286 13.8081 16.1884 13.8082 16.7197 13.9505C17.1843 14.0751 17.6133 14.304 17.9736 14.6198L18.1233 14.7604L18.3551 14.9922V14.5065C18.3551 14.2488 18.5648 14.0391 18.8226 14.0391C19.08 14.0394 19.2887 14.249 19.2887 14.5065V16.1198C19.2885 16.3585 19.1081 16.5584 18.8707 16.5833L17.0439 16.7734L16.9489 16.7747C16.7328 16.7536 16.5543 16.5824 16.5309 16.3581C16.5043 16.1019 16.6902 15.8732 16.9463 15.8464L17.7991 15.7565L17.4632 15.4206V15.4193C17.1903 15.1468 16.85 14.9513 16.4775 14.8516C16.1047 14.7517 15.7123 14.7517 15.3395 14.8516C14.9665 14.9515 14.6255 15.1475 14.3525 15.4206C14.0795 15.6936 13.8834 16.0346 13.7835 16.4075C13.7167 16.6563 13.4607 16.8036 13.2119 16.737C12.9632 16.6701 12.8158 16.4142 12.8825 16.1654C13.0247 15.6345 13.3039 15.1505 13.6924 14.7617C14.0812 14.3728 14.5661 14.0929 15.0973 13.9505Z" fill="white"/>
<g style="mix-blend-mode:multiply">
<rect x="12" y="4" width="8" height="2.66667" rx="1" fill="#D63D4A"/>
</g>
</svg>
