<svg width="16" height="16" viewBox="0 0 16 16" fill="none" xmlns="http://www.w3.org/2000/svg">
<path d="M13.8604 13.3467C13.6604 13.7333 13.2665 14 12.7998 14H3.2002C2.5402 14 2 13.4598 2 12.7998V10.9131L5.70703 7.67969L13.8604 13.3467ZM12.7998 2C13.4598 2 14 2.5402 14 3.2002V12.1465L5.97363 6.55957C5.76707 6.41964 5.50013 6.43317 5.31348 6.59961L2 9.5V3.2002C2 2.5402 2.5402 2 3.2002 2H12.7998ZM10.4668 4C9.62017 4 8.93366 4.6866 8.93359 5.5332C8.93359 6.37987 9.62013 7.06641 10.4668 7.06641C11.3134 7.06634 12 6.37983 12 5.5332C11.9999 4.68664 11.3134 4.00007 10.4668 4Z" fill="#6D7882"/>
</svg>
