<svg width="20" height="20" viewBox="0 0 20 20" fill="none" xmlns="http://www.w3.org/2000/svg">
<g clip-path="url(#clip0_12147_371063)">
<path fill-rule="evenodd" clip-rule="evenodd" d="M6.29662 5.37039C6.29662 4.38811 6.68683 3.44606 7.38141 2.75148C8.07599 2.0569 9.01804 1.66669 10.0003 1.66669C10.9826 1.66669 11.9247 2.0569 12.6192 2.75148C13.3138 3.44606 13.704 4.38811 13.704 5.37039C13.704 6.35267 13.3138 7.29473 12.6192 7.98931C11.9247 8.68388 10.9826 9.07409 10.0003 9.07409C9.01804 9.07409 8.07599 8.68388 7.38141 7.98931C6.68683 7.29473 6.29662 6.35267 6.29662 5.37039ZM6.29662 10.9259C5.06877 10.9259 3.8912 11.4137 3.02298 12.2819C2.15476 13.1502 1.66699 14.3277 1.66699 15.5556C1.66699 16.2923 1.95965 16.9988 2.48058 17.5198C3.00152 18.0407 3.70806 18.3334 4.44477 18.3334H15.5559C16.2926 18.3334 16.9991 18.0407 17.5201 17.5198C18.041 16.9988 18.3337 16.2923 18.3337 15.5556C18.3337 14.3277 17.8459 13.1502 16.9777 12.2819C16.1094 11.4137 14.9319 10.9259 13.704 10.9259H6.29662Z" fill="#6D7882"/>
</g>
<defs>
<clipPath id="clip0_12147_371063">
<rect width="20" height="20" fill="white"/>
</clipPath>
</defs>
</svg>
