<svg width="16" height="17" viewBox="0 0 16 17" fill="none" xmlns="http://www.w3.org/2000/svg">
<g clip-path="url(#clip0_4792_152919)">
<path d="M6.60547 12.3414C6.60547 11.57 7.23085 10.9446 8.00229 10.9446C8.77374 10.9446 9.39912 11.57 9.39912 12.3414V14.4366C9.39912 15.2081 8.77374 15.8335 8.00229 15.8335C7.23085 15.8335 6.60547 15.2081 6.60547 14.4366V12.3414Z" fill="#6D7882"/>
<path d="M8.00293 10.9438C8.77426 10.9439 9.39932 11.57 9.39941 12.3413V13.7378H6.60645V12.3413C6.60654 11.5699 7.23154 10.9438 8.00293 10.9438ZM9.39941 4.65869C10.9422 4.65869 12.1933 5.90982 12.1934 7.45264V10.9438C12.1934 12.2456 11.3026 13.3398 10.0977 13.6499V12.3413C10.0976 11.1843 9.15998 10.2457 8.00293 10.2456C6.84582 10.2456 5.90732 11.1842 5.90723 12.3413V13.6499C4.70249 13.3396 3.8125 12.2454 3.8125 10.9438V7.45264C3.81259 5.90982 5.06361 4.65869 6.60645 4.65869H9.39941ZM5.90723 6.75439C5.52166 6.75458 5.20898 7.06703 5.20898 7.45264C5.20909 7.83816 5.52172 8.1507 5.90723 8.15088C6.29288 8.15088 6.60634 7.83827 6.60645 7.45264C6.60645 7.06691 6.29295 6.75439 5.90723 6.75439ZM10.0977 6.75439C9.71211 6.7546 9.39941 7.06704 9.39941 7.45264C9.39952 7.83814 9.71217 8.15067 10.0977 8.15088C10.4833 8.15088 10.7968 7.83827 10.7969 7.45264C10.7969 7.06691 10.4834 6.75439 10.0977 6.75439Z" fill="#6D7882"/>
<path d="M7.98047 1.44653C8.47894 1.44659 8.91771 1.61787 9.27441 1.96118L9.40137 2.09692C9.52275 2.23939 9.61544 2.39622 9.68359 2.56372H12.8906L12.9619 2.56665C13.314 2.60251 13.5889 2.90042 13.5889 3.26196C13.5889 3.62351 13.314 3.92142 12.9619 3.95728L12.8906 3.96021H9.68555C9.59529 4.18194 9.45859 4.38321 9.27539 4.56079L9.27441 4.56274C8.91612 4.90758 8.46204 5.07733 7.98047 5.07739C7.55269 5.07739 7.17075 4.94313 6.84961 4.67896L6.71582 4.55786C6.53743 4.38085 6.4039 4.18054 6.31543 3.96021H3.1123C2.72666 3.96011 2.41406 3.64763 2.41406 3.26196C2.41406 2.8763 2.72666 2.56381 3.1123 2.56372H6.31543C6.40378 2.34327 6.53718 2.14247 6.71582 1.96606L6.84863 1.84497C7.16592 1.58159 7.53774 1.44653 7.98047 1.44653ZM8.00098 2.21411C7.42258 2.21432 6.95411 2.68351 6.9541 3.26196C6.9541 3.84042 7.42257 4.30961 8.00098 4.30981C8.57956 4.30981 9.04883 3.84055 9.04883 3.26196C9.04882 2.68339 8.57956 2.21411 8.00098 2.21411Z" fill="#6D7882"/>
</g>
<defs>
<clipPath id="clip0_4792_152919">
<rect width="11.1746" height="14.6667" fill="white" transform="translate(2.41406 1.16675)"/>
</clipPath>
</defs>
</svg>
