<svg width="44" height="32" viewBox="0 0 44 32" fill="none" xmlns="http://www.w3.org/2000/svg">
<ellipse cx="19" cy="28.5" rx="17" ry="2.5" fill="#ACB1B6" fill-opacity="0.2"/>
<path d="M5 12C7.20914 12 9 13.7909 9 16V26C9 26.5523 8.55228 27 8 27H5C3.89543 27 3 26.1046 3 25V20.0395C3 19.6826 2.80346 19.3603 2.52335 19.1392C1.5958 18.407 1 17.2735 1 16C1 13.7909 2.79086 12 5 12ZM33 12C35.2091 12 37 13.7909 37 16C37 17.2735 36.4042 18.407 35.4767 19.1392C35.1965 19.3603 35 19.6826 35 20.0395V25C35 26.1046 34.1046 27 33 27H30C29.4477 27 29 26.5523 29 26V16C29 13.7909 30.7909 12 33 12Z" fill="#65B9EC"/>
<path d="M7 6C7 3.79086 8.79086 2 11 2H27C29.2091 2 31 3.79086 31 6V27H7V6Z" fill="#65B9EC"/>
<path d="M9 22C9 20.8954 9.89543 20 11 20H27C28.1046 20 29 20.8954 29 22V27H9V22Z" fill="#285FA4"/>
<path d="M5 27H9V28C9 28.5523 8.55228 29 8 29H6C5.44772 29 5 28.5523 5 28V27Z" fill="#313D4C"/>
<path d="M29 27H33V28C33 28.5523 32.5523 29 32 29H30C29.4477 29 29 28.5523 29 28V27Z" fill="#313D4C"/>
<path d="M14.5 14C15.3284 14 16 14.4477 16 15C16 15.5523 15.3284 16 14.5 16C13.6716 16 13 15.5523 13 15C13 14.4477 13.6716 14 14.5 14ZM23.5 14C24.3284 14 25 14.4477 25 15C25 15.5523 24.3284 16 23.5 16C22.6716 16 22 15.5523 22 15C22 14.4477 22.6716 14 23.5 14ZM14.5 7C15.3284 7 16 7.44772 16 8C16 8.55228 15.3284 9 14.5 9C13.6716 9 13 8.55228 13 8C13 7.44772 13.6716 7 14.5 7ZM23.5 7C24.3284 7 25 7.44772 25 8C25 8.55228 24.3284 9 23.5 9C22.6716 9 22 8.55228 22 8C22 7.44772 22.6716 7 23.5 7Z" fill="white"/>
</svg>
