<svg width="20" height="20" viewBox="0 0 20 20" fill="none" xmlns="http://www.w3.org/2000/svg">
<g clip-path="url(#clip0_97_4529)">
<path fill-rule="evenodd" clip-rule="evenodd" d="M7.6665 2.33333V3.33333H4.58317C3.6627 3.33333 2.9165 4.07953 2.9165 5V15C2.9165 15.857 3.56336 16.563 4.39548 16.6562C4.24996 16.9037 4.1665 17.192 4.1665 17.4998C4.1665 18.4203 4.9127 19.1665 5.83317 19.1665C6.75365 19.1665 7.49984 18.4203 7.49984 17.4998C7.49984 17.1963 7.41871 16.9118 7.27696 16.6667H12.7227C12.581 16.9118 12.4998 17.1963 12.4998 17.4998C12.4998 18.4203 13.246 19.1665 14.1665 19.1665C15.087 19.1665 15.8332 18.4203 15.8332 17.4998C15.8332 17.192 15.7497 16.9037 15.6042 16.6562C16.4363 16.563 17.0832 15.857 17.0832 15V5C17.0832 4.07953 16.337 3.33333 15.4165 3.33333H12.3332V2.33333H12.9165C13.2847 2.33333 13.5832 2.03486 13.5832 1.66667C13.5832 1.29848 13.2847 1 12.9165 1H7.08317C6.71498 1 6.4165 1.29848 6.4165 1.66667C6.4165 2.03486 6.71498 2.33333 7.08317 2.33333H7.6665ZM8.99984 2.33333H10.9998V3.33333H8.99984V2.33333ZM8.99985 8.3335V12.5002C8.99985 12.8684 8.70137 13.1668 8.33318 13.1668C7.96499 13.1668 7.66651 12.8684 7.66651 12.5002V8.3335C7.66651 7.96531 7.96499 7.66683 8.33318 7.66683C8.70137 7.66683 8.99985 7.96531 8.99985 8.3335ZM12.3332 8.3335V12.5002C12.3332 12.8684 12.0347 13.1668 11.6665 13.1668C11.2983 13.1668 10.9998 12.8684 10.9998 12.5002V8.3335C10.9998 7.96531 11.2983 7.66683 11.6665 7.66683C12.0347 7.66683 12.3332 7.96531 12.3332 8.3335Z" fill="#6D7882"/>
</g>
<defs>
<clipPath id="clip0_97_4529">
<rect width="20" height="20" fill="white"/>
</clipPath>
</defs>
</svg>
