<svg width="16" height="16" viewBox="0 0 16 16" fill="none" xmlns="http://www.w3.org/2000/svg">
<path d="M7.99984 10.445C8.77125 10.445 9.39692 11.0701 9.39697 11.8415V13.9365C9.39697 14.708 8.77128 15.3337 7.99984 15.3337C7.22842 15.3336 6.60335 14.7079 6.60335 13.9365V11.8415C6.60336 11.7449 6.61269 11.6506 6.63135 11.5596C6.6726 11.3584 6.75786 11.1735 6.87549 11.014C7.10328 10.705 7.4547 10.493 7.85726 10.4521L7.99984 10.445Z" fill="#6D7882"/>
<path fill-rule="evenodd" clip-rule="evenodd" d="M7.979 0.946289C8.47748 0.946346 8.91592 1.1186 9.27262 1.46191L9.40023 1.59733C9.52153 1.73975 9.61466 1.8967 9.68278 2.06413H12.8885L12.9601 2.06738C13.3122 2.10325 13.5871 2.40115 13.5871 2.7627C13.5868 3.12403 13.3121 3.42152 12.9601 3.45736L12.8885 3.46126H9.68408C9.59381 3.68284 9.45704 3.88404 9.27393 4.06152L9.27262 4.06348C9.23736 4.09741 9.2003 4.12863 9.16325 4.15918H9.39697C10.9397 4.15934 12.1905 5.41009 12.1906 6.9528V10.445C12.1904 11.7464 11.3002 12.8405 10.0955 13.1507V11.8415C10.0954 10.6846 9.1573 9.74673 8.00049 9.74642C6.84341 9.74642 5.90492 10.6844 5.90478 11.8415V13.1507C4.70006 12.8406 3.80992 11.7465 3.80973 10.445V6.9528C3.80983 5.41 5.06053 4.1592 6.60335 4.15918H6.82601L6.71403 4.05827C6.53585 3.88142 6.40208 3.68134 6.31364 3.46126H3.11117C2.7256 3.46126 2.41286 3.1482 2.4126 2.7627C2.4126 2.37697 2.72544 2.06413 3.11117 2.06413H6.31364C6.40196 1.84375 6.53548 1.64283 6.71403 1.46647L6.84749 1.34603C7.16479 1.08263 7.53626 0.94629 7.979 0.946289ZM5.90478 6.25423C5.51917 6.25433 5.20691 6.56717 5.20687 6.9528C5.20696 7.33839 5.5192 7.65127 5.90478 7.65137C6.29031 7.6512 6.60326 7.33835 6.60335 6.9528C6.60331 6.56721 6.29034 6.2544 5.90478 6.25423ZM10.0955 6.25423C9.70984 6.25423 9.39701 6.56711 9.39697 6.9528C9.39706 7.33845 9.70987 7.65137 10.0955 7.65137C10.481 7.65115 10.794 7.33831 10.7941 6.9528C10.7941 6.56724 10.4811 6.25445 10.0955 6.25423ZM7.99984 1.71517C7.42128 1.7152 6.95231 2.18413 6.95231 2.7627C6.95256 3.34105 7.42144 3.81019 7.99984 3.81022C8.57827 3.81022 9.04711 3.34107 9.04736 2.7627C9.04736 2.18411 8.57842 1.71517 7.99984 1.71517Z" fill="#6D7882"/>
</svg>
