<svg width="44" height="32" viewBox="0 0 44 32" fill="none" xmlns="http://www.w3.org/2000/svg">
<g clip-path="url(#clip0_2292_288058)">
<ellipse cx="20" cy="28.5" rx="17" ry="2.5" fill="#ACB1B6" fill-opacity="0.2"/>
<path d="M5.45577 4.20676C6.51238 3.88482 7.62991 4.48039 7.95185 5.537L8.24331 6.49359C8.56525 7.5502 9.68279 8.14577 10.7394 7.82383L18.3921 5.49215C24.2034 3.72149 30.3499 6.99713 32.1205 12.8085C33.8912 18.6199 30.6156 24.7663 24.8042 26.537L21.9344 27.4114C14.5382 29.6649 6.71541 25.4959 4.46184 18.0996L1.25577 7.57723C0.933834 6.52062 1.52941 5.40308 2.58602 5.08114L5.45577 4.20676Z" fill="#313D4C"/>
<path d="M3.29621 14.2716C2.65234 12.1584 3.84348 9.92335 5.9567 9.27947L18.3923 5.49048C24.2036 3.71982 30.3501 6.99546 32.1208 12.8068C33.8914 18.6182 30.6158 24.7646 24.8044 26.5353L21.9347 27.4097C14.5384 29.6633 6.71562 25.4943 4.46205 18.098L3.29621 14.2716Z" fill="#65B9EC"/>
<path d="M11.0756 19.2222C10.9147 18.6939 11.2125 18.1351 11.7408 17.9742L25.1329 13.8937C25.6612 13.7327 26.22 14.0305 26.381 14.5588C26.5419 15.0871 26.2442 15.6459 25.7158 15.8069L12.3237 19.8873C11.7954 20.0483 11.2366 19.7505 11.0756 19.2222Z" fill="white"/>
<path d="M14.1547 22.4644C13.9938 21.9361 14.2916 21.3773 14.8199 21.2164L24.3857 18.3017C24.914 18.1408 25.4728 18.4386 25.6337 18.9669C25.7947 19.4952 25.4969 20.0539 24.9686 20.2149L15.4028 23.1295C14.8745 23.2905 14.3157 22.9927 14.1547 22.4644Z" fill="white"/>
<circle cx="30" cy="20" r="8" fill="#285FA4"/>
<g filter="url(#filter0_i_2292_288058)">
<circle cx="35" cy="20" r="1.5" fill="#285FA4"/>
</g>
<g filter="url(#filter1_i_2292_288058)">
<circle cx="30" cy="24" r="1.5" fill="#285FA4"/>
</g>
<g filter="url(#filter2_i_2292_288058)">
<circle cx="33.5" cy="23.5" r="1.5" fill="#285FA4"/>
</g>
<g filter="url(#filter3_i_2292_288058)">
<circle cx="31.5" cy="20.5" r="1.5" fill="#285FA4"/>
</g>
</g>
<defs>
<filter id="filter0_i_2292_288058" x="33.5" y="18.5" width="3" height="3" filterUnits="userSpaceOnUse" color-interpolation-filters="sRGB">
<feFlood flood-opacity="0" result="BackgroundImageFix"/>
<feBlend mode="normal" in="SourceGraphic" in2="BackgroundImageFix" result="shape"/>
<feColorMatrix in="SourceAlpha" type="matrix" values="0 0 0 0 0 0 0 0 0 0 0 0 0 0 0 0 0 0 127 0" result="hardAlpha"/>
<feOffset dx="-0.5" dy="-1"/>
<feComposite in2="hardAlpha" operator="arithmetic" k2="-1" k3="1"/>
<feColorMatrix type="matrix" values="0 0 0 0 1 0 0 0 0 1 0 0 0 0 1 0 0 0 0.5 0"/>
<feBlend mode="normal" in2="shape" result="effect1_innerShadow_2292_288058"/>
</filter>
<filter id="filter1_i_2292_288058" x="28.5" y="22.5" width="3" height="3" filterUnits="userSpaceOnUse" color-interpolation-filters="sRGB">
<feFlood flood-opacity="0" result="BackgroundImageFix"/>
<feBlend mode="normal" in="SourceGraphic" in2="BackgroundImageFix" result="shape"/>
<feColorMatrix in="SourceAlpha" type="matrix" values="0 0 0 0 0 0 0 0 0 0 0 0 0 0 0 0 0 0 127 0" result="hardAlpha"/>
<feOffset dx="-0.5" dy="-1"/>
<feComposite in2="hardAlpha" operator="arithmetic" k2="-1" k3="1"/>
<feColorMatrix type="matrix" values="0 0 0 0 1 0 0 0 0 1 0 0 0 0 1 0 0 0 0.5 0"/>
<feBlend mode="normal" in2="shape" result="effect1_innerShadow_2292_288058"/>
</filter>
<filter id="filter2_i_2292_288058" x="32" y="22" width="3" height="3" filterUnits="userSpaceOnUse" color-interpolation-filters="sRGB">
<feFlood flood-opacity="0" result="BackgroundImageFix"/>
<feBlend mode="normal" in="SourceGraphic" in2="BackgroundImageFix" result="shape"/>
<feColorMatrix in="SourceAlpha" type="matrix" values="0 0 0 0 0 0 0 0 0 0 0 0 0 0 0 0 0 0 127 0" result="hardAlpha"/>
<feOffset dx="-0.5" dy="-1"/>
<feComposite in2="hardAlpha" operator="arithmetic" k2="-1" k3="1"/>
<feColorMatrix type="matrix" values="0 0 0 0 1 0 0 0 0 1 0 0 0 0 1 0 0 0 0.5 0"/>
<feBlend mode="normal" in2="shape" result="effect1_innerShadow_2292_288058"/>
</filter>
<filter id="filter3_i_2292_288058" x="30" y="19" width="3" height="3" filterUnits="userSpaceOnUse" color-interpolation-filters="sRGB">
<feFlood flood-opacity="0" result="BackgroundImageFix"/>
<feBlend mode="normal" in="SourceGraphic" in2="BackgroundImageFix" result="shape"/>
<feColorMatrix in="SourceAlpha" type="matrix" values="0 0 0 0 0 0 0 0 0 0 0 0 0 0 0 0 0 0 127 0" result="hardAlpha"/>
<feOffset dx="-0.5" dy="-1"/>
<feComposite in2="hardAlpha" operator="arithmetic" k2="-1" k3="1"/>
<feColorMatrix type="matrix" values="0 0 0 0 1 0 0 0 0 1 0 0 0 0 1 0 0 0 0.5 0"/>
<feBlend mode="normal" in2="shape" result="effect1_innerShadow_2292_288058"/>
</filter>
<clipPath id="clip0_2292_288058">
<rect width="44" height="32" fill="white"/>
</clipPath>
</defs>
</svg>
