<svg width="24" height="25" viewBox="0 0 24 25" fill="none" xmlns="http://www.w3.org/2000/svg">
<path d="M14.5015 11.8317H10.8132C10.793 11.8317 10.7848 11.8588 10.801 11.871L11.2009 12.1375L11.5657 12.3919C11.5819 12.4027 11.6008 12.4095 11.6211 12.4095L13.2288 12.4203C13.272 12.4203 13.3072 12.4636 13.3072 12.5163V12.7734C13.3072 13.0278 13.1464 13.109 12.9073 13.109H10.2971C10.1066 13.109 9.90398 12.9642 9.89047 12.7206V11.4353C9.90668 11.1823 10.0715 11.047 10.2606 11.047H12.8735C13.1356 11.047 13.2612 11.1525 13.2612 11.3473V11.4069H14.8838V11.2526C14.8838 10.8264 14.3907 10.5017 13.8949 10.5017H9.37304C8.86507 10.5017 8.3125 10.817 8.3125 11.484V12.6733C8.3125 13.3079 8.87452 13.6556 9.3825 13.6556H13.9016C14.4609 13.6556 14.8838 13.4377 14.8838 12.6733V12.1619C14.8838 11.9264 14.8135 11.8317 14.5015 11.8317Z" fill="#464C53"/>
<path d="M8.32675 13.6585H6.40427C6.34888 13.6585 6.2935 13.6437 6.24621 13.6139L4.64256 12.5531C4.53989 12.4909 4.421 12.4571 4.30077 12.4571H3.58608V13.6572H2V10.502H3.58473V11.7021H4.29131C4.41154 11.7021 4.52909 11.6696 4.63175 11.6074L6.31916 10.5453C6.36644 10.5168 6.42183 10.502 6.47723 10.502H8.32675L6.06653 11.9794L5.47884 11.7968L8.32675 13.6558V13.6585Z" fill="#464C53"/>
<path d="M17.4627 10.5H15.5254V13.6566H17.1047V11.3849L18.3179 12.5268H19.3487L20.4215 11.3849V13.6566H21.9994V10.5H20.0634L18.9016 11.6L19.3244 12.1493L17.4627 10.5Z" fill="#464C53"/>
</svg>
