<svg width="20" height="20" viewBox="0 0 20 20" fill="none" xmlns="http://www.w3.org/2000/svg">
<path d="M1.37911 7.55084C1.08797 7.69608 1.07074 8.09992 1.337 8.27246L9.10386 12.5026L9.4413 12.6713C9.79321 12.8473 10.2074 12.8473 10.5593 12.6713L10.8964 12.5028L18.6635 8.27254C18.9298 8.10006 18.9127 7.6961 18.6215 7.55084L10.3723 3.4356C10.1381 3.31875 9.86253 3.31875 9.62829 3.4356L1.37911 7.55084Z" fill="#6D7882"/>
<path d="M18.6215 12.023L16.5043 10.9668L10.7178 14.1184C10.2705 14.362 9.73014 14.362 9.28285 14.1184L3.49632 10.9668L1.37911 12.023C1.07824 12.1731 1.06989 12.5994 1.36466 12.7611L9.59939 17.28C9.8491 17.417 10.1515 17.417 10.4012 17.28L18.6359 12.7611C18.9307 12.5994 18.9223 12.1731 18.6215 12.023Z" fill="#6D7882"/>
</svg>
