<svg width="16" height="16" viewBox="0 0 16 16" fill="none" xmlns="http://www.w3.org/2000/svg">
<path d="M13.3333 13.833C13.3333 14.2012 13.0349 14.4997 12.6667 14.4997H3.33333C2.96514 14.4997 2.66667 14.2012 2.66667 13.833V12.7666H13.3333V13.833Z" fill="#6D7882"/>
<path d="M8 1.33301C9.24494 1.33301 10.2499 2.07368 10.25 3.55501C10.25 5.77724 6.5 8.74056 12.5 8.74056C12.8978 8.74056 13.2793 8.89641 13.5605 9.17415C13.8418 9.45193 13.9999 9.82885 14 10.2217V11.3701C14 11.5542 13.8507 11.7035 13.6667 11.7035H13.3333V11.6995H2.66667V11.7035H2.33333C2.14926 11.7035 2.00004 11.5542 2 11.3701V10.2217C2.00006 9.82885 2.1582 9.45193 2.43945 9.17415C2.72074 8.89641 3.10224 8.74056 3.5 8.74056C9.5 8.74056 5.75 5.77724 5.75 3.55501C5.75006 2.9658 5.98705 2.40073 6.40885 1.98405C6.83081 1.5673 7.40326 1.33301 8 1.33301Z" fill="#6D7882"/>
</svg>
