<svg width="20" height="20" viewBox="0 0 20 20" fill="none" xmlns="http://www.w3.org/2000/svg">
<g clip-path="url(#clip0_9644_206838)">
<path d="M17.9163 9.01818V15.7411C17.9163 16.2077 17.731 16.6551 17.4011 16.985C17.0711 17.315 16.6237 17.5003 16.1571 17.5003H3.84227C3.37568 17.5003 2.92821 17.315 2.59828 16.985C2.26836 16.6551 2.08301 16.2077 2.08301 15.7411V9.01818H17.9163ZM13.5182 1.66699C13.7515 1.66699 13.9752 1.75967 14.1402 1.92463C14.3051 2.08959 14.3978 2.31333 14.3978 2.54662V3.42625H16.1571C16.6237 3.42625 17.0711 3.6116 17.4011 3.94153C17.731 4.27145 17.9163 4.71893 17.9163 5.18551V7.32175H2.08301V5.18551C2.08301 4.71893 2.26836 4.27145 2.59828 3.94153C2.92821 3.6116 3.37568 3.42625 3.84227 3.42625H5.60153V2.54662C5.60153 2.31333 5.6942 2.08959 5.85916 1.92463C6.02413 1.75967 6.24786 1.66699 6.48116 1.66699C6.71445 1.66699 6.93818 1.75967 7.10315 1.92463C7.26811 2.08959 7.36079 2.31333 7.36079 2.54662V3.42625H12.6386V2.54662C12.6386 2.31333 12.7312 2.08959 12.8962 1.92463C13.0612 1.75967 13.2849 1.66699 13.5182 1.66699Z" fill="#6D7882"/>
</g>
<defs>
<clipPath id="clip0_9644_206838">
<rect width="20" height="20" fill="white"/>
</clipPath>
</defs>
</svg>
