<svg width="20" height="20" viewBox="0 0 20 20" fill="none" xmlns="http://www.w3.org/2000/svg">
<path d="M7.91634 4.16669C7.91634 5.5474 6.79705 6.66669 5.41634 6.66669C4.03563 6.66669 2.91634 5.5474 2.91634 4.16669C2.91634 2.78598 4.03563 1.66669 5.41634 1.66669C6.79705 1.66669 7.91634 2.78598 7.91634 4.16669Z" fill="#6D7882"/>
<path d="M0.899978 9.47362C0.587237 8.48497 1.40913 7.50083 2.54752 7.50083H8.28516C9.42355 7.50083 10.2454 8.48497 9.9327 9.47362L7.48488 17.2117C7.27471 17.8761 6.60237 18.3342 5.83734 18.3342H4.99534C4.23031 18.3342 3.55797 17.8761 3.3478 17.2117L0.899978 9.47362Z" fill="#6D7882"/>
<path d="M17.083 4.16669C17.083 5.5474 15.9637 6.66669 14.583 6.66669C13.2023 6.66669 12.083 5.5474 12.083 4.16669C12.083 2.78598 13.2023 1.66669 14.583 1.66669C15.9637 1.66669 17.083 2.78598 17.083 4.16669Z" fill="#6D7882"/>
<path d="M10.0666 16.3614C9.7539 17.35 10.5758 18.3342 11.7142 18.3342H17.4518C18.5902 18.3342 19.4121 17.35 19.0994 16.3614L16.6515 8.62329C16.4414 7.9589 15.769 7.50083 15.004 7.50083H14.162C13.397 7.50083 12.7246 7.95889 12.5145 8.62329L10.0666 16.3614Z" fill="#6D7882"/>
</svg>
