<svg width="16" height="17" viewBox="0 0 16 17" fill="none" xmlns="http://www.w3.org/2000/svg">
<path d="M8.00033 2.16663C8.70204 2.16663 9.33732 2.56045 10.6071 3.34892L11.8812 4.13993C13.0776 4.88288 13.6769 5.255 14.0042 5.85478C14.3335 6.45511 14.3337 7.17949 14.3337 8.62887V9.59241C14.3337 12.063 14.3331 13.2981 13.5915 14.0657C12.8499 14.8333 11.6554 14.8333 9.26725 14.8333H6.7334C4.34527 14.8333 3.15142 14.8333 2.40918 14.0657C1.66694 13.2981 1.66699 12.0624 1.66699 9.59241V8.62821C1.66699 7.17948 1.66719 6.45447 1.99642 5.85478C2.32475 5.25441 2.92397 4.88173 4.12272 4.13733L5.39421 3.34892C6.66423 2.56069 7.29871 2.16663 8.00033 2.16663ZM6.66699 11.3001C6.37244 11.3001 6.13379 11.5387 6.13379 11.8333C6.13379 12.1278 6.37244 12.3665 6.66699 12.3665H9.33366L9.38835 12.3639C9.65721 12.3365 9.86686 12.1094 9.86686 11.8333C9.86686 11.5572 9.65721 11.3301 9.38835 11.3027L9.33366 11.3001H6.66699Z" fill="#6D7882"/>
</svg>
