<svg width="44" height="32" viewBox="0 0 44 32" fill="none" xmlns="http://www.w3.org/2000/svg">
<g clip-path="url(#clip0_5858_251370)">
<ellipse cx="17.5" cy="28.5" rx="17.5" ry="2.5" fill="#ACB1B6" fill-opacity="0.2"/>
<path d="M7.93462 11.9546C1.38692 11.9546 -0.25 19.7494 -0.25 23.6469H26.4716L30.7346 15.4623L29.25 9L24.3038 9.03149L25.2521 15.3531C25.6762 18.1808 23.4862 20.7238 20.6269 20.7238H20.5077C18.5704 20.7238 17 19.1534 17 17.2161L17 11.9546H7.93462Z" fill="#65B9EC"/>
<g clip-path="url(#clip1_5858_251370)">
<circle cx="6.96001" cy="22.5511" r="5.19658" fill="#313D4C"/>
<circle cx="6.95998" cy="22.5513" r="2.07863" fill="#E5ECF9"/>
</g>
<g clip-path="url(#clip2_5858_251370)">
<circle cx="31.1243" cy="22.5511" r="5.19658" fill="#313D4C"/>
<circle cx="31.1243" cy="22.5513" r="2.07863" fill="#E5ECF9"/>
</g>
<path d="M26.004 23.4982C26.0207 23.5813 26.0387 23.6614 26.0579 23.7384C26.0052 23.7384 25.9857 23.6513 26.004 23.4982C25.5148 21.058 26.1733 16.1 29.5655 14.9693C30.5706 14.6341 32.1806 15.2208 33.2069 16.5806C33.4375 16.886 33.1858 17.3519 32.8171 17.4546C32.1507 17.6401 31.0684 18.0583 29.5 18.9993C27.0763 20.4535 26.0932 22.7546 26.004 23.4982Z" fill="#285FA4"/>
<path d="M5.01172 10.4928C5.01172 9.6856 5.66607 9.03125 6.47326 9.03125H15.0004C16.0347 9.03125 16.8733 9.86976 16.8733 10.9041V11.9543H6.47326C5.66607 11.9543 5.01172 11.3 5.01172 10.4928Z" fill="#285FA4"/>
<path d="M24.3037 6.49956C24.3037 5.93449 24.7078 5.45027 25.2638 5.34919L29.3561 4.60513C30.0738 4.47464 30.7345 5.02602 30.7345 5.75551V8.44683C30.7345 9.09257 30.211 9.61606 29.5652 9.61606H24.3037V6.49956Z" fill="#285FA4"/>
<path d="M30.7345 8.4468V5.7254C30.7345 5.01158 30.0881 4.47203 29.3857 4.59973V9.61603H29.5653C30.2111 9.61603 30.7345 9.09255 30.7345 8.4468Z" fill="#E5ECF9"/>
<path d="M24.8232 7.58049C25.2886 7.49031 25.7558 7.76617 25.8955 8.2299C26.035 8.69348 25.7979 9.18074 25.3603 9.36271L25.2695 9.39494L21.6503 10.4858L21.5576 10.5082C21.0923 10.5983 20.6251 10.3233 20.4853 9.85978C20.3363 9.36514 20.6166 8.84277 21.1113 8.69377L24.7304 7.60392L24.8232 7.58049Z" fill="#285FA4"/>
</g>
<defs>
<clipPath id="clip0_5858_251370">
<rect width="44" height="32" fill="white"/>
</clipPath>
<clipPath id="clip1_5858_251370">
<rect width="10.3932" height="10.3932" fill="white" transform="translate(1.76343 17.3545)"/>
</clipPath>
<clipPath id="clip2_5858_251370">
<rect width="10.3932" height="10.3932" fill="white" transform="translate(25.9277 17.3545)"/>
</clipPath>
</defs>
</svg>
