<svg width="16" height="17" viewBox="0 0 16 17" fill="none" xmlns="http://www.w3.org/2000/svg">
<rect width="13.3333" height="13.3333" rx="6.66667" transform="matrix(1 0 0 -1 1.33301 15.1666)" fill="#6D7882"/>
<path d="M7.93281 6.79397C8.37464 6.79397 8.73281 6.4358 8.73281 5.99397C8.73281 5.55214 8.37464 5.19397 7.93281 5.19397C7.49098 5.19397 7.13281 5.55214 7.13281 5.99397C7.13281 6.4358 7.49098 6.79397 7.93281 6.79397Z" fill="white"/>
<path d="M7.53333 7.45406C7.42288 7.45406 7.33333 7.5436 7.33333 7.65406V8.25406V10.8958V11.4958C7.33333 11.6062 7.42288 11.6958 7.53333 11.6958H8.33333C8.44379 11.6958 8.53333 11.6062 8.53333 11.4958V10.8958V7.65406C8.53333 7.5436 8.44379 7.45406 8.33333 7.45406H7.53333Z" fill="white"/>
</svg>
