<svg width="16" height="16" viewBox="0 0 16 16" fill="none" xmlns="http://www.w3.org/2000/svg">
<g clip-path="url(#clip0_97_12456)">
<path fill-rule="evenodd" clip-rule="evenodd" d="M8.00016 1.33301C11.6821 1.33301 14.6668 4.31778 14.6668 7.99967C14.6668 11.6816 11.6821 14.6663 8.00016 14.6663C4.31826 14.6663 1.3335 11.6816 1.3335 7.99967C1.3335 4.31778 4.31826 1.33301 8.00016 1.33301ZM10.439 5.56022C10.1355 5.25709 9.64347 5.25707 9.34001 5.56022L5.56071 9.33952C5.25756 9.64299 5.25758 10.135 5.56071 10.4385C5.86426 10.742 6.35742 10.742 6.66097 10.4385L10.439 6.66048C10.7425 6.35693 10.7425 5.86377 10.439 5.56022ZM9.77751 8.88835C9.28688 8.88853 8.88902 9.28639 8.88883 9.77702C8.88883 10.2678 9.28677 10.6662 9.77751 10.6663C10.2684 10.6663 10.6668 10.2679 10.6668 9.77702C10.6666 9.28628 10.2683 8.88835 9.77751 8.88835ZM6.22217 5.33301C5.73153 5.33318 5.33367 5.73104 5.3335 6.22168C5.3335 6.71247 5.73142 7.11083 6.22217 7.111C6.71306 7.111 7.11149 6.71257 7.11149 6.22168C7.11132 5.73093 6.71295 5.33301 6.22217 5.33301Z" fill="#6D7882"/>
</g>
<defs>
<clipPath id="clip0_97_12456">
<rect width="16" height="16" fill="white"/>
</clipPath>
</defs>
</svg>
