<svg width="20" height="20" viewBox="0 0 20 20" fill="none" xmlns="http://www.w3.org/2000/svg">
<path d="M14.9039 3.2232C14.9591 2.80919 15.3123 2.5 15.7299 2.5H16.7707C17.1884 2.5 17.5416 2.80919 17.5968 3.2232L17.9892 6.16669H14.5114L14.9039 3.2232Z" fill="#6D7882"/>
<path fill-rule="evenodd" clip-rule="evenodd" d="M11.667 7.50003V4.87762C11.667 4.55929 11.3245 4.35854 11.0467 4.51407L7.50033 6.50007V4.92992C7.50033 4.60027 7.13564 4.40117 6.85835 4.57943L2.27932 7.52306C1.89769 7.76839 1.66699 8.19095 1.66699 8.64463V15.3334C1.66699 16.0697 2.26395 16.6667 3.00033 16.6667H17.0003C17.7367 16.6667 18.3337 16.0697 18.3337 15.3334V8.83336C18.3337 8.80536 18.3328 8.77757 18.3311 8.75H18.3337L18.3273 8.70231C18.3242 8.67083 18.3201 8.63968 18.3148 8.60888L18.167 7.50002L11.667 7.50003ZM6.667 10.1666C7.03519 10.1666 7.33367 10.4651 7.33367 10.8333V13.3333C7.33367 13.7015 7.03519 14 6.667 14C6.29881 14 6.00034 13.7015 6.00034 13.3333V10.8333C6.00034 10.4651 6.29881 10.1666 6.667 10.1666ZM10.0003 10.1666C10.3685 10.1666 10.667 10.4651 10.667 10.8333V13.3333C10.667 13.7015 10.3685 14 10.0003 14C9.63215 14 9.33367 13.7015 9.33367 13.3333V10.8333C9.33367 10.4651 9.63215 10.1666 10.0003 10.1666ZM14.0003 13.3333V10.8333C14.0003 10.4651 13.7019 10.1666 13.3337 10.1666C12.9655 10.1666 12.667 10.4651 12.667 10.8333V13.3333C12.667 13.7015 12.9655 14 13.3337 14C13.7019 14 14.0003 13.7015 14.0003 13.3333Z" fill="#6D7882"/>
</svg>
