<svg width="20" height="20" viewBox="0 0 20 20" fill="none" xmlns="http://www.w3.org/2000/svg">
<path d="M13.6846 3.33301C13.9782 3.33315 14.2666 3.41118 14.5205 3.55859C14.7744 3.70603 14.9852 3.91795 15.1309 4.17285L18.1143 9.39453C18.2583 9.64644 18.334 9.93149 18.334 10.2217V13.9697C18.334 14.2281 18.274 14.484 18.1582 14.7148L17.2266 16.5781C17.0882 16.8551 16.8756 17.0882 16.6123 17.251C16.3491 17.4137 16.0458 17.4999 15.7363 17.5H15.001C14.5589 17.5 14.1348 17.3243 13.8223 17.0117C13.5098 16.6992 13.334 16.275 13.334 15.833H6.66797C6.66797 16.275 6.49215 16.6992 6.17969 17.0117C5.86713 17.3243 5.443 17.5 5.00098 17.5H4.26562C3.95618 17.4999 3.65286 17.4137 3.38965 17.251C3.12633 17.0882 2.91377 16.8551 2.77539 16.5781L1.84375 14.7148C1.72814 14.4835 1.66799 14.2283 1.66797 13.9697V10.2217C1.66799 9.93149 1.74364 9.64644 1.8877 9.39453L4.87109 4.17285C5.0168 3.91795 5.22753 3.70603 5.48145 3.55859C5.73538 3.41118 6.02376 3.33315 6.31738 3.33301H13.6846Z" fill="#6D7882"/>
<path d="M10 5.58398C10.3451 5.58398 10.6289 5.84558 10.6631 6.18164L10.667 6.25V6.9707C11.1621 7.09181 11.6199 7.34363 11.9863 7.70996C12.0113 7.73486 12.0338 7.76236 12.0576 7.78809L12.5791 7.5498L12.6426 7.52441C12.9623 7.41517 13.3188 7.56337 13.4629 7.87695C13.6164 8.21138 13.4701 8.60698 13.1358 8.76074L12.708 8.95605C12.7736 9.19545 12.8105 9.44375 12.8106 9.69629C12.8106 9.99098 12.7616 10.2803 12.6729 10.5557L13.2324 10.9375L13.2871 10.9785C13.5457 11.196 13.6025 11.578 13.4082 11.8633C13.2138 12.1486 12.8371 12.2355 12.5401 12.0742L12.4824 12.0391L11.9746 11.6924C11.61 12.0531 11.1573 12.3017 10.667 12.4219V12.917L10.6641 12.9854C10.6298 13.3213 10.345 13.583 10 13.583C9.632 13.5827 9.33387 13.2841 9.334 12.916V12.4229C8.83863 12.3015 8.38027 12.0492 8.01369 11.6826C8.01239 11.6813 8.01108 11.68 8.00979 11.6787L7.53713 12.0264C7.2401 12.2438 6.82302 12.1788 6.60549 11.8818C6.38802 11.5848 6.45212 11.1678 6.74904 10.9502L7.31936 10.5322C7.23573 10.264 7.19143 9.98245 7.19143 9.69629C7.19145 9.4379 7.22939 9.18394 7.29787 8.93945L6.88869 8.77051L6.82619 8.74121C6.52901 8.58106 6.39567 8.2191 6.52736 7.90039C6.65937 7.58156 7.01042 7.41874 7.334 7.51563L7.39748 7.53906L7.95803 7.77051C7.97681 7.75059 7.99428 7.72938 8.01369 7.70996C8.38033 7.34332 8.83854 7.09079 9.334 6.96973V6.25C9.33401 5.88194 9.63199 5.58418 10 5.58398ZM10 8.2207C9.60866 8.22082 9.23379 8.37658 8.95705 8.65332C8.68032 8.93009 8.52452 9.30492 8.52443 9.69629C8.52443 10.0877 8.6803 10.4634 8.95705 10.7402C9.23377 11.0168 9.60879 11.1727 10 11.1729C10.3915 11.1729 10.7671 11.017 11.044 10.7402C11.3208 10.4634 11.4766 10.0878 11.4766 9.69629C11.4765 9.30501 11.3206 8.93007 11.044 8.65332C10.7671 8.37657 10.3915 8.2207 10 8.2207Z" fill="white"/>
</svg>
