<svg width="44" height="32" viewBox="0 0 44 32" fill="none" xmlns="http://www.w3.org/2000/svg">
<ellipse cx="20" cy="29.5" rx="13" ry="2.5" fill="#ACB1B6" fill-opacity="0.2"/>
<path d="M33.0422 21.7452C32.2918 26.2318 29.6067 29.3307 20 29.3307C10.3933 29.3307 7.70823 26.2318 6.95778 21.7452C6.57777 21.638 6.2106 21.4711 5.87057 21.2444L4.84406 20.5601C4.31674 20.2086 4 19.6167 4 18.983V17.8541C4 12.499 6.56231 7.46723 10.8931 4.31753C11.1792 4.10947 11.5293 3.9974 11.883 3.9974C12.3993 3.9974 12.8509 4.21084 13.1728 4.54218C15.1698 3.34943 17.5049 2.66406 20 2.66406C22.4951 2.66406 24.8302 3.34943 26.8272 4.54218C27.1491 4.21084 27.6007 3.9974 28.117 3.9974C28.4707 3.9974 28.8208 4.10947 29.1069 4.31753C33.4377 7.46723 36 12.499 36 17.8541V18.983C36 19.6167 35.6833 20.2086 35.1559 20.5601L34.1294 21.2444C33.7894 21.4711 33.4222 21.638 33.0422 21.7452Z" fill="white"/>
<path d="M33.3307 15.9974C33.3307 23.3612 33.3307 29.3307 19.9974 29.3307C6.66406 29.3307 6.66406 23.3612 6.66406 15.9974C6.66406 8.6336 12.6336 2.66406 19.9974 2.66406C27.3612 2.66406 33.3307 8.6336 33.3307 15.9974Z" fill="#65B9EC"/>
<ellipse cx="17" cy="22" rx="3" ry="2" fill="white"/>
<ellipse cx="23" cy="22" rx="3" ry="2" fill="white"/>
<path d="M16.6667 15.9974C16.6667 16.7338 16.0697 17.3307 15.3333 17.3307C14.597 17.3307 14 16.7338 14 15.9974C14 15.261 14.597 14.6641 15.3333 14.6641C16.0697 14.6641 16.6667 15.261 16.6667 15.9974Z" fill="#313D4C"/>
<path d="M22.6667 19.6641C22.6667 20.7686 21.4728 21.6641 20 21.6641C18.5272 21.6641 17.3333 20.7686 17.3333 19.6641C17.3333 18.5595 18.5272 17.6641 20 17.6641C21.4728 17.6641 22.6667 18.5595 22.6667 19.6641Z" fill="#313D4C"/>
<path d="M24.6667 17.3307C25.403 17.3307 26 16.7338 26 15.9974C26 15.261 25.403 14.6641 24.6667 14.6641C23.9303 14.6641 23.3333 15.261 23.3333 15.9974C23.3333 16.7338 23.9303 17.3307 24.6667 17.3307Z" fill="#313D4C"/>
<path d="M14.7823 2.84192C16.0968 2.50269 16.9769 4.16197 15.9587 5.06L15.8382 5.16636C12.6835 7.94896 10.7014 11.8244 10.2919 16.0109L10.1164 17.8042C10.0408 18.5773 9.7161 19.305 9.1912 19.8776C7.22396 22.0237 3.65422 21.0539 3.04341 18.2073L2.87017 17.4C2.78575 17.0066 2.77414 16.601 2.83594 16.2033L2.86932 15.9885C3.85891 9.62066 8.54239 4.45217 14.7823 2.84192Z" fill="#285FA4"/>
<path d="M25.2176 2.84192C23.9031 2.50269 23.023 4.16197 24.0411 5.06L24.1617 5.16636C27.3164 7.94896 29.2984 11.8244 29.708 16.0109L29.8834 17.8042C29.959 18.5773 30.2837 19.305 30.8086 19.8776C32.7759 22.0237 36.3456 21.0539 36.9564 18.2073L37.1297 17.4C37.2141 17.0066 37.2257 16.601 37.1639 16.2033L37.1305 15.9885C36.1409 9.62066 31.4574 4.45217 25.2176 2.84192Z" fill="#285FA4"/>
</svg>
