<svg width="21" height="20" viewBox="0 0 21 20" fill="none" xmlns="http://www.w3.org/2000/svg">
<path fill-rule="evenodd" clip-rule="evenodd" d="M15.8473 6.37405L17.3055 4.91578C18.4336 6.81428 18.1899 9.30631 16.5548 10.9375C15.0102 12.4821 12.7033 12.791 10.8528 11.868L5.65122 17.0696C5.07735 17.6435 4.14185 17.6435 3.56798 17.0696L3.43041 16.932C2.85653 16.3581 2.85653 15.4227 3.43041 14.8488L8.63187 9.64731C7.70864 7.79655 8.01751 5.48572 9.56216 3.94491C11.1973 2.30977 13.6854 2.06607 15.5839 3.19416L14.1256 4.65243C13.65 5.12804 13.65 5.89844 14.1256 6.37405C14.6012 6.84966 15.3716 6.84966 15.8473 6.37405Z" fill="#6D7882"/>
</svg>
