<svg width="44" height="32" viewBox="0 0 44 32" fill="none" xmlns="http://www.w3.org/2000/svg">
<path d="M33.0422 21.7471C32.2918 26.2337 29.6067 29.3327 20 29.3327C10.3933 29.3327 7.70823 26.2337 6.95778 21.7471C6.57777 21.64 6.2106 21.4731 5.87057 21.2464L4.84406 20.5621C4.31674 20.2105 4 19.6187 4 18.9849V17.856C4 12.501 6.56231 7.46919 10.8931 4.31948C11.1792 4.11142 11.5293 3.99935 11.883 3.99935C12.3993 3.99935 12.8509 4.21279 13.1728 4.54413C15.1698 3.35138 17.5049 2.66602 20 2.66602C22.4951 2.66602 24.8302 3.35138 26.8272 4.54413C27.1491 4.21279 27.6007 3.99935 28.117 3.99935C28.4707 3.99935 28.8208 4.11142 29.1069 4.31948C33.4377 7.46919 36 12.501 36 17.856V18.9849C36 19.6187 35.6833 20.2105 35.1559 20.5621L34.1294 21.2464C33.7894 21.4731 33.4222 21.64 33.0422 21.7471Z" fill="white"/>
<path d="M33.3337 15.9993C33.3337 23.3631 33.3337 29.3327 20.0003 29.3327C6.66699 29.3327 6.66699 23.3631 6.66699 15.9993C6.66699 8.63555 12.6365 2.66602 20.0003 2.66602C27.3641 2.66602 33.3337 8.63555 33.3337 15.9993Z" fill="#65B9EC"/>
<ellipse cx="17" cy="22" rx="3" ry="2" fill="white"/>
<ellipse cx="23" cy="22" rx="3" ry="2" fill="white"/>
<path d="M16.6667 15.9993C16.6667 16.7357 16.0697 17.3327 15.3333 17.3327C14.597 17.3327 14 16.7357 14 15.9993C14 15.263 14.597 14.666 15.3333 14.666C16.0697 14.666 16.6667 15.263 16.6667 15.9993Z" fill="#313D4C"/>
<path d="M22.6667 19.666C22.6667 20.7706 21.4728 21.666 20 21.666C18.5272 21.666 17.3333 20.7706 17.3333 19.666C17.3333 18.5614 18.5272 17.666 20 17.666C21.4728 17.666 22.6667 18.5614 22.6667 19.666Z" fill="#313D4C"/>
<path d="M24.6667 17.3327C25.403 17.3327 26 16.7357 26 15.9993C26 15.263 25.403 14.666 24.6667 14.666C23.9303 14.666 23.3333 15.263 23.3333 15.9993C23.3333 16.7357 23.9303 17.3327 24.6667 17.3327Z" fill="#313D4C"/>
<path d="M14.7823 2.84729C16.0968 2.50806 16.9769 4.16734 15.9587 5.06537L15.8382 5.17173C12.6835 7.95433 10.7014 11.8298 10.2919 16.0163L10.1164 17.8096C10.0408 18.5827 9.7161 19.3103 9.1912 19.883C7.22396 22.0291 3.65422 21.0592 3.04341 18.2127L2.87017 17.4054C2.78575 17.0119 2.77414 16.6063 2.83594 16.2087L2.86932 15.9939C3.85891 9.62603 8.54239 4.45754 14.7823 2.84729Z" fill="#285FA4"/>
<path d="M25.2176 2.84729C23.9031 2.50806 23.023 4.16734 24.0411 5.06537L24.1617 5.17173C27.3164 7.95433 29.2984 11.8298 29.708 16.0163L29.8834 17.8096C29.959 18.5827 30.2837 19.3103 30.8086 19.883C32.7759 22.0291 36.3456 21.0592 36.9564 18.2127L37.1297 17.4054C37.2141 17.0119 37.2257 16.6063 37.1639 16.2087L37.1305 15.9939C36.1409 9.62603 31.4574 4.45754 25.2176 2.84729Z" fill="#285FA4"/>
</svg>
