<svg width="20" height="20" viewBox="0 0 20 20" fill="none" xmlns="http://www.w3.org/2000/svg">
<path fill-rule="evenodd" clip-rule="evenodd" d="M3.33301 3.16675C3.33301 2.33832 4.00458 1.66675 4.83301 1.66675H11.2497C11.4265 1.66675 11.5961 1.737 11.7211 1.86205L16.4705 6.61221C16.5955 6.73723 16.6657 6.90679 16.6657 7.08358V16.8336C16.6657 17.662 15.9941 18.3336 15.1657 18.3336H4.83301C4.00458 18.3336 3.33301 17.662 3.33301 16.8336V3.16675ZM11.9163 3.94309L14.3897 6.41691H12.083C11.991 6.41691 11.9163 6.34229 11.9163 6.25024V3.94309ZM5.99902 11.1668C5.99902 10.7986 6.2975 10.5002 6.66569 10.5002H9.99902C10.3672 10.5002 10.6657 10.7986 10.6657 11.1668C10.6657 11.535 10.3672 11.8335 9.99902 11.8335H6.66569C6.2975 11.8335 5.99902 11.535 5.99902 11.1668ZM6.66569 13.3334C6.2975 13.3334 5.99902 13.6319 5.99902 14.0001C5.99902 14.3683 6.2975 14.6667 6.66569 14.6667H12.499C12.8672 14.6667 13.1657 14.3683 13.1657 14.0001C13.1657 13.6319 12.8672 13.3334 12.499 13.3334H6.66569Z" fill="#6D7882"/>
</svg>
