<svg width="24" height="24" viewBox="0 0 24 24" fill="none" xmlns="http://www.w3.org/2000/svg">
<path d="M14.5005 11.332H10.8122C10.792 11.332 10.7839 11.359 10.8001 11.3712L11.2 11.6377L11.5647 11.8921C11.581 11.9029 11.5999 11.9097 11.6201 11.9097L13.2278 11.9205C13.2711 11.9205 13.3062 11.9638 13.3062 12.0166V12.2737C13.3062 12.528 13.1454 12.6092 12.9063 12.6092H10.2961C10.1057 12.6092 9.903 12.4644 9.88949 12.2209V10.9355C9.9057 10.6825 10.0705 10.5472 10.2597 10.5472H12.8725C13.1346 10.5472 13.2603 10.6528 13.2603 10.8476V10.9071H14.8828V10.7529C14.8828 10.3267 14.3897 10.002 13.8939 10.002H9.37206C8.86409 10.002 8.31152 10.3172 8.31152 10.9842V12.1735C8.31152 12.8081 8.87355 13.1558 9.38152 13.1558H13.9006C14.4599 13.1558 14.8828 12.938 14.8828 12.1735V11.6621C14.8828 11.4267 14.8126 11.332 14.5005 11.332Z" fill="#464C53"/>
<path d="M8.32675 13.1585H6.40427C6.34888 13.1585 6.2935 13.1437 6.24621 13.1139L4.64256 12.0531C4.53989 11.9909 4.421 11.9571 4.30077 11.9571H3.58608V13.1572H2V10.002H3.58473V11.2021H4.29131C4.41154 11.2021 4.52909 11.1696 4.63175 11.1074L6.31916 10.0453C6.36644 10.0168 6.42183 10.002 6.47723 10.002H8.32675L6.06653 11.4794L5.47884 11.2968L8.32675 13.1558V13.1585Z" fill="#464C53"/>
<path d="M17.4632 10H15.5259V13.1566H17.1052V10.8849L18.3184 12.0268H19.3492L20.422 10.8849V13.1566H21.9999V10H20.0639L18.902 11.1L19.3249 11.6493L17.4632 10Z" fill="#464C53"/>
</svg>
