<svg width="24" height="24" viewBox="0 0 24 24" fill="none" xmlns="http://www.w3.org/2000/svg">
<path fill-rule="evenodd" clip-rule="evenodd" d="M12 5.91309C17.2466 5.91309 21.4999 9.20935 21.5 14.6084C21.5 18.7825 18.0454 22 14.5908 22H9.40918C5.95463 22 2.5 18.7825 2.5 14.6084C2.5001 9.20935 6.75336 5.91309 12 5.91309ZM12.0615 11.3672C11.877 11.3672 11.6905 11.4197 11.5371 11.5391C11.4076 11.64 11.2988 11.7894 11.2402 12.0039L10.3818 15.0889L9.5625 11.834C9.49783 11.6144 9.37315 11.4899 9.22363 11.4238C9.06732 11.3548 8.87195 11.3539 8.66211 11.4053C8.46104 11.4624 8.31447 11.5781 8.23145 11.7295C8.15272 11.8731 8.12787 12.0547 8.1875 12.2666L8.60254 13.7705H7.63477C7.45282 13.7706 7.28826 13.8447 7.16895 13.9639C7.04954 14.0832 6.97559 14.2485 6.97559 14.4307C6.97567 14.6127 7.04961 14.7772 7.16895 14.8965C7.28827 15.0158 7.45271 15.0898 7.63477 15.0898H8.9668L9.50391 17.0303C9.56618 17.2381 9.67442 17.3825 9.80273 17.4795C9.95386 17.5937 10.1357 17.6435 10.3154 17.6436C10.4954 17.6436 10.6842 17.591 10.8398 17.4697C10.9693 17.3689 11.0786 17.2203 11.1367 17.0078L12.0498 13.7363L12.9297 17.0215C12.9921 17.2346 13.102 17.3813 13.2324 17.4795C13.3842 17.5935 13.5687 17.6439 13.7617 17.6436C13.9374 17.6384 14.1161 17.5823 14.2637 17.4619C14.3867 17.3615 14.4901 17.2151 14.5469 17.0078L15.084 15.0898H16.3652C16.5474 15.0898 16.7127 15.0158 16.832 14.8965C16.9511 14.7772 17.0243 14.6125 17.0244 14.4307C17.0244 14.2486 16.9513 14.0832 16.832 13.9639C16.7127 13.8445 16.5474 13.7706 16.3652 13.7705H15.4521L15.8945 12.1914C15.9447 11.9877 15.9144 11.8095 15.8301 11.6719C15.7451 11.5334 15.6015 11.4285 15.4004 11.3877C15.2076 11.3469 15.0228 11.373 14.875 11.458C14.7332 11.5396 14.6201 11.6756 14.5693 11.877L13.7285 15.0918L12.8652 11.9717C12.8028 11.7682 12.6938 11.6261 12.5664 11.5303C12.4159 11.4171 12.2363 11.3672 12.0615 11.3672Z" fill="#6D7882"/>
<path d="M15.7842 2C16.426 2.00029 16.8437 2.68074 16.5566 3.25879L15.4932 5.39941C14.3929 5.07859 13.2156 4.91313 12 4.91309C10.7839 4.91313 9.60553 5.07833 8.50488 5.39941L7.44238 3.25879C7.15554 2.68082 7.57322 2.00039 8.21484 2H15.7842Z" fill="#6D7882"/>
</svg>
