<svg width="24" height="24" viewBox="0 0 24 24" fill="none" xmlns="http://www.w3.org/2000/svg">
<path fill-rule="evenodd" clip-rule="evenodd" d="M16.2416 2.50108C17.818 2.56826 19.3115 3.24476 20.3929 4.39523C21.4719 5.54316 22.0524 7.07051 21.9963 8.64709C21.9918 10.137 21.3831 11.6419 20.5593 13.0138C19.7254 14.4027 18.6228 15.7352 17.53 16.8914C15.3485 19.1994 13.1209 20.8949 12.8993 21.0489L12.4569 21.3565C12.1811 21.5478 11.8199 21.5478 11.5441 21.3565L11.1017 21.0489L11.0997 21.0478C10.8809 20.8949 8.65339 19.1992 6.47098 16.8903C5.37828 15.7343 4.2756 14.4025 3.44166 13.0138C2.61793 11.642 2.00824 10.137 2.00372 8.64709C1.94758 7.07064 2.52829 5.54312 3.60707 4.39523C4.68853 3.24464 6.18286 2.56827 7.75944 2.50108C7.77465 2.50043 7.79006 2.49982 7.80528 2.50005C8.80289 2.51531 9.78121 2.78864 10.6413 3.29484C11.1431 3.59024 11.5567 4.0402 11.8819 4.46907C11.9221 4.52206 11.9619 4.57535 12.0005 4.62906C12.0391 4.57534 12.0789 4.52207 12.1191 4.46907C12.4444 4.04018 12.8579 3.59023 13.3597 3.29484C14.2198 2.78862 15.1981 2.51529 16.1957 2.50005C16.211 2.49982 16.2263 2.50043 16.2416 2.50108ZM12.0493 10.2285C10.9067 10.2285 10.6794 11.0561 10.0125 12.1031C9.50656 12.8975 7.80475 13.9147 8.41115 15.0074C9.0177 16.0994 10.433 15.4146 12.0493 15.4146C13.6656 15.4147 15.0807 16.0998 15.6875 15.0074C16.2941 13.9148 14.5901 12.8974 14.0842 12.1031C13.4175 11.0563 13.1914 10.2287 12.0493 10.2285ZM8.94028 9.45419C8.37687 9.45419 7.92011 9.93005 7.91988 10.5177C7.91988 11.1055 8.37673 11.5822 8.94028 11.5822C9.50372 11.582 9.96069 11.1054 9.96069 10.5177C9.96046 9.93014 9.50357 9.45433 8.94028 9.45419ZM15.0627 9.45419C14.4993 9.45419 14.0425 9.93005 14.0423 10.5177C14.0423 11.1055 14.4992 11.5822 15.0627 11.5822C15.6261 11.582 16.0831 11.1054 16.0831 10.5177C16.0829 9.93014 15.626 9.45433 15.0627 9.45419ZM10.7768 7.75078C10.2134 7.75089 9.75643 8.22755 9.75641 8.81528C9.75648 9.40297 10.2134 9.87967 10.7768 9.87978C11.3402 9.87964 11.7971 9.40295 11.7972 8.81528C11.7972 8.22757 11.3402 7.75092 10.7768 7.75078ZM13.2262 7.75078C12.6626 7.75078 12.2058 8.22748 12.2058 8.81528C12.2058 9.40304 12.6627 9.87978 13.2262 9.87978C13.7895 9.87953 14.2465 9.40288 14.2466 8.81528C14.2466 8.22764 13.7895 7.75104 13.2262 7.75078Z" fill="#6D7882"/>
</svg>
