<svg width="25" height="25" viewBox="0 0 25 25" fill="none" xmlns="http://www.w3.org/2000/svg">
<path fill-rule="evenodd" clip-rule="evenodd" d="M12.1667 1.86682C13.2327 1.8669 14.162 2.54612 14.487 3.51038C15.5102 3.55364 16.3689 4.33743 16.4538 5.36682H18.3669L18.5505 5.37561C19.4581 5.46783 20.1667 6.23468 20.1667 7.16663V20.8668C20.1666 21.8607 19.3607 22.6663 18.3669 22.6666H5.96649C4.97244 22.6666 4.16679 21.8608 4.16669 20.8668V7.16663C4.16669 6.17251 4.97238 5.36682 5.96649 5.36682H7.87469C7.95964 4.33635 8.82081 3.55215 9.8454 3.51038C10.1704 2.54593 11.1005 1.86682 12.1667 1.86682ZM8.16669 15.8668C7.72486 15.8668 7.36688 16.2248 7.36688 16.6666C7.36688 17.1085 7.72486 17.4664 8.16669 17.4664H12.3884L12.4704 17.4625C12.8737 17.4214 13.1882 17.0807 13.1882 16.6666C13.1882 16.2525 12.8737 15.9118 12.4704 15.8707L12.3884 15.8668H8.16669ZM8.16669 11.8668C7.72486 11.8668 7.36688 12.2248 7.36688 12.6666C7.36688 13.1085 7.72486 13.4664 8.16669 13.4664H16.1667L16.2487 13.4625C16.6519 13.4214 16.9665 13.0807 16.9665 12.6666C16.9665 12.2526 16.6519 11.9119 16.2487 11.8707L16.1667 11.8668H8.16669ZM12.1667 3.46643C11.6785 3.46643 11.322 3.84663 11.322 4.26428V4.30627L11.3181 4.38831C11.2771 4.79146 10.9361 5.10577 10.5222 5.10608H9.93134C9.65342 5.10608 9.46673 5.3203 9.46649 5.53381V6.86682H14.8669V6.35803L14.863 5.53772V5.53381L14.8542 5.45471C14.8148 5.27054 14.6415 5.10616 14.3981 5.10608H13.8073C13.3933 5.10589 13.0524 4.79152 13.0114 4.38831L13.0075 4.30627C13.0075 4.28434 13.0093 4.26437 13.0104 4.2467C13.0007 3.83599 12.648 3.46652 12.1667 3.46643Z" fill="#6D7882"/>
</svg>
