<svg width="32" height="33" viewBox="0 0 32 33" fill="none" xmlns="http://www.w3.org/2000/svg">
<path d="M14.0247 14.058L10.0842 6.17682C9.73726 5.48301 10.2418 4.66669 11.0175 4.66669L20.1624 4.66669C20.9381 4.66669 21.4426 5.48301 21.0957 6.17682L17.1552 14.058H14.0247Z" fill="#8C97C8"/>
<path d="M27.0658 19.7971C27.0658 24.806 22.8919 28.6667 18.718 28.6667H12.4572C8.28328 28.6667 4.10938 24.806 4.10938 19.7971C4.10938 13.3181 9.24835 9.36237 15.5876 9.36237C21.9269 9.36237 27.0658 13.3181 27.0658 19.7971Z" fill="#8C97C8"/>
<g style="mix-blend-mode:multiply">
<path d="M15.665 15.9076C15.8762 15.9076 16.0936 15.9668 16.2755 16.1026C16.4294 16.2177 16.5605 16.3881 16.6358 16.6323L17.6794 20.3773L18.6947 16.5194C18.7559 16.2776 18.8923 16.1138 19.0638 16.0158C19.2425 15.9137 19.4663 15.8833 19.6995 15.9324C19.9425 15.9813 20.1155 16.1065 20.2181 16.2727C20.3201 16.4378 20.3562 16.6513 20.2956 16.8958L19.7621 18.7914L20.8646 18.7915C21.0847 18.7915 21.284 18.8801 21.4283 19.0234C21.5726 19.1666 21.6618 19.3645 21.6618 19.5831C21.6618 19.8017 21.5726 19.9996 21.4283 20.1429C21.284 20.2861 21.0847 20.3747 20.8646 20.3747L19.3163 20.3746L18.6684 22.6756C18.5998 22.9246 18.4748 23.1004 18.326 23.221C18.1476 23.3657 17.9312 23.4323 17.7187 23.4384C17.4855 23.4388 17.2634 23.3792 17.0801 23.2424C16.9223 23.1246 16.7899 22.9488 16.7143 22.6928L15.6504 18.7503L14.5474 22.6755C14.4771 22.9307 14.3454 23.1094 14.1889 23.2305C14.0008 23.376 13.7729 23.4389 13.5554 23.4389C13.3381 23.4389 13.1186 23.3794 12.936 23.2423C12.7808 23.1259 12.6494 22.953 12.5742 22.7034L11.9261 20.3746L10.3168 20.3747C10.0966 20.3747 9.8973 20.2861 9.75303 20.1429C9.60876 19.9996 9.51953 19.8017 9.51953 19.5831C9.51953 19.3645 9.60876 19.1666 9.75303 19.0234C9.8973 18.8801 10.0966 18.7915 10.3167 18.7915L11.4858 18.7914L10.9839 16.9863C10.9118 16.732 10.9423 16.5144 11.0375 16.342C11.1378 16.1603 11.3149 16.0217 11.558 15.9532C11.8117 15.8915 12.0473 15.8928 12.2362 15.9758C12.4168 16.0551 12.5676 16.2038 12.6457 16.4673L13.6359 20.3734L14.6728 16.6717C14.7435 16.4142 14.8744 16.2349 15.031 16.1138C15.2163 15.9704 15.4418 15.9076 15.665 15.9076Z" fill="#5B658C"/>
</g>
<g style="mix-blend-mode:multiply">
<path d="M9.84766 9.07804C9.84766 8.65892 10.1874 8.31915 10.6065 8.31915H20.567C20.9861 8.31915 21.3259 8.65892 21.3259 9.07804V9.64721C21.3259 10.0663 20.9861 10.4061 20.567 10.4061H10.6065C10.1874 10.4061 9.84766 10.0663 9.84766 9.64721V9.07804Z" fill="#5B658C"/>
</g>
</svg>
