<svg width="25" height="25" viewBox="0 0 25 25" fill="none" xmlns="http://www.w3.org/2000/svg">
<path d="M12.9373 3.44561C12.9373 3.01546 12.5886 2.66675 12.1584 2.66675C11.7283 2.66675 11.3796 3.01546 11.3796 3.44561V6.05966C11.3796 6.48982 11.7283 6.83853 12.1584 6.83853C12.5886 6.83853 12.9373 6.48982 12.9373 6.05966V3.44561Z" fill="#6D7882"/>
<path d="M4.27153 4.73945C3.95374 4.44956 3.46111 4.47219 3.17122 4.78998C2.88133 5.10778 2.90395 5.60041 3.22175 5.8903L5.38469 7.86331C5.70249 8.1532 6.19512 8.13057 6.48501 7.81277C6.7749 7.49498 6.75227 7.00235 6.43448 6.71246L4.27153 4.73945Z" fill="#6D7882"/>
<path d="M21.095 5.89029C21.4127 5.60039 21.4354 5.10776 21.1455 4.78997C20.8556 4.47218 20.3629 4.44957 20.0451 4.73947L17.8823 6.71247C17.5645 7.00237 17.5419 7.495 17.8318 7.81279C18.1217 8.13058 18.6143 8.15319 18.9321 7.86329L21.095 5.89029Z" fill="#6D7882"/>
<path d="M18.0332 15.1667C18.7038 15.1667 19.184 14.5203 18.9913 13.8779L17.7899 9.87344C17.6629 9.44998 17.2731 9.15999 16.831 9.15999H7.50859C7.06648 9.15999 6.67672 9.44998 6.54969 9.87344L5.34834 13.8779C5.15564 14.5203 5.63574 15.1667 6.30636 15.1667H18.0332Z" fill="#6D7882"/>
<path d="M20.1871 21.667H4.15323C3.54518 21.667 3.24115 21.667 3.03823 21.5402C2.86052 21.4291 2.73113 21.2552 2.67579 21.0531C2.6126 20.8223 2.69996 20.5311 2.87468 19.9486L3.52462 17.7822C3.61814 17.4705 3.6649 17.3146 3.75344 17.1962C3.85037 17.0666 3.98289 16.968 4.13486 16.9124C4.27368 16.8616 4.43641 16.8616 4.76187 16.8616H19.5785C19.904 16.8616 20.0667 16.8616 20.2055 16.9124C20.3575 16.968 20.49 17.0666 20.5869 17.1962C20.6755 17.3146 20.7222 17.4705 20.8158 17.7822L21.4657 19.9486C21.6404 20.5311 21.7278 20.8223 21.6646 21.0531C21.6092 21.2552 21.4799 21.4291 21.3021 21.5402C21.0992 21.667 20.7952 21.667 20.1871 21.667Z" fill="#6D7882"/>
</svg>
