<svg width="41" height="40" viewBox="0 0 41 40" fill="none" xmlns="http://www.w3.org/2000/svg">
<path d="M5.23852 23.7056H35.087C36.0476 23.7056 36.8294 24.3322 36.8294 25.1021C36.8294 30.1853 31.6809 34.3116 25.3385 34.3116H14.984C8.64458 34.3116 3.49609 30.1853 3.49609 25.1021C3.49609 24.3322 4.27791 23.7056 5.23852 23.7056Z" fill="#FDCFC3"/>
<path d="M23.7995 28.8568C21.7899 28.8568 20.1602 27.6153 20.1602 26.0855V22.1925C20.1602 21.6891 20.6954 21.281 21.3563 21.281H26.2367C26.8976 21.281 27.4329 21.6891 27.4329 22.1925V26.0855C27.4329 27.6153 25.8031 28.8568 23.7935 28.8568H23.7995Z" fill="white"/>
<path d="M23.7995 28.8568C21.7899 28.8568 20.1602 27.6153 20.1602 26.0855V22.1925C20.1602 21.6891 20.6954 21.281 21.3563 21.281H26.2367C26.8976 21.281 27.4329 21.6891 27.4329 22.1925V26.0855C27.4329 27.6153 25.8031 28.8568 23.7935 28.8568H23.7995Z" fill="#FA967C"/>
<path d="M31.0729 28.8568C29.0634 28.8568 27.4336 27.6153 27.4336 26.0855V22.1925C27.4336 21.6891 27.9689 21.281 28.6298 21.281H33.5101C34.171 21.281 34.7063 21.6891 34.7063 22.1925V26.0855C34.7063 27.6153 33.0765 28.8568 31.067 28.8568H31.0729Z" fill="white"/>
<path d="M31.0729 28.8568C29.0634 28.8568 27.4336 27.6153 27.4336 26.0855V22.1925C27.4336 21.6891 27.9689 21.281 28.6298 21.281H33.5101C34.171 21.281 34.7063 21.6891 34.7063 22.1925V26.0855C34.7063 27.6153 33.0765 28.8568 31.067 28.8568H31.0729Z" fill="#FA967C"/>
<path d="M16.3769 28.8568C14.2836 28.8568 12.5859 27.6153 12.5859 26.0855V22.1925C12.5859 21.6891 13.1435 21.281 13.832 21.281H18.9157C19.6041 21.281 20.1617 21.6891 20.1617 22.1925V26.0855C20.1617 27.6153 18.464 28.8568 16.3707 28.8568H16.3769Z" fill="white"/>
<path d="M16.3769 28.8568C14.2836 28.8568 12.5859 27.6153 12.5859 26.0855V22.1925C12.5859 21.6891 13.1435 21.281 13.832 21.281H18.9157C19.6041 21.281 20.1617 21.6891 20.1617 22.1925V26.0855C20.1617 27.6153 18.464 28.8568 16.3707 28.8568H16.3769Z" fill="#FA967C"/>
<path d="M8.95185 28.8568C6.94229 28.8568 5.3125 27.6153 5.3125 26.0855V22.1925C5.3125 21.6891 5.84779 21.281 6.50867 21.281H11.3891C12.0499 21.281 12.5852 21.6891 12.5852 22.1925V26.0855C12.5852 27.6153 10.9554 28.8568 8.94587 28.8568H8.95185Z" fill="white"/>
<path d="M8.95185 28.8568C6.94229 28.8568 5.3125 27.6153 5.3125 26.0855V22.1925C5.3125 21.6891 5.84779 21.281 6.50867 21.281H11.3891C12.0499 21.281 12.5852 21.6891 12.5852 22.1925V26.0855C12.5852 27.6153 10.9554 28.8568 8.94587 28.8568H8.95185Z" fill="#FA967C"/>
<path d="M5.23852 15H35.087C36.0476 15 36.8294 14.4092 36.8294 13.6833C36.8294 8.89054 31.6809 5 25.3385 5H14.984C8.64458 5 3.49609 8.89054 3.49609 13.6833C3.49609 14.4092 4.27791 15 5.23852 15Z" fill="#FDCFC3"/>
<path d="M24.5616 9.24232C22.1334 9.24232 20.1641 10.6327 20.1641 12.3461V16.7063C20.1641 17.2701 20.8109 17.7272 21.6094 17.7272H27.5066C28.3051 17.7272 28.9519 17.2701 28.9519 16.7063V12.3461C28.9519 10.6327 26.9826 9.24232 24.5544 9.24232H24.5616Z" fill="white"/>
<path d="M24.5616 9.24232C22.1334 9.24232 20.1641 10.6327 20.1641 12.3461V16.7063C20.1641 17.2701 20.8109 17.7272 21.6094 17.7272H27.5066C28.3051 17.7272 28.9519 17.2701 28.9519 16.7063V12.3461C28.9519 10.6327 26.9826 9.24232 24.5544 9.24232H24.5616Z" fill="#FA967C"/>
<path d="M24.5616 9.24232C22.1334 9.24232 20.1641 10.6327 20.1641 12.3461V16.7063C20.1641 17.2701 20.8109 17.7272 21.6094 17.7272H27.5066C28.3051 17.7272 28.9519 17.2701 28.9519 16.7063V12.3461C28.9519 10.6327 26.9826 9.24232 24.5544 9.24232H24.5616Z" fill="#D63D4A"/>
<path d="M15.7726 9.24232C13.3443 9.24232 11.375 10.6327 11.375 12.3461V16.7063C11.375 17.2701 12.0218 17.7272 12.8204 17.7272H18.7175C19.5161 17.7272 20.1629 17.2701 20.1629 16.7063V12.3461C20.1629 10.6327 18.1936 9.24232 15.7653 9.24232H15.7726Z" fill="white"/>
<path d="M15.7726 9.24232C13.3443 9.24232 11.375 10.6327 11.375 12.3461V16.7063C11.375 17.2701 12.0218 17.7272 12.8204 17.7272H18.7175C19.5161 17.7272 20.1629 17.2701 20.1629 16.7063V12.3461C20.1629 10.6327 18.1936 9.24232 15.7653 9.24232H15.7726Z" fill="#FA967C"/>
<path d="M15.7726 9.24232C13.3443 9.24232 11.375 10.6327 11.375 12.3461V16.7063C11.375 17.2701 12.0218 17.7272 12.8204 17.7272H18.7175C19.5161 17.7272 20.1629 17.2701 20.1629 16.7063V12.3461C20.1629 10.6327 18.1936 9.24232 15.7653 9.24232H15.7726Z" fill="#D63D4A"/>
<path d="M8.19615 10.4544C6.43778 10.4544 5.01172 11.6462 5.01172 13.1149V16.8521C5.01172 17.3354 5.48009 17.7272 6.05837 17.7272H10.3287C10.907 17.7272 11.3754 17.3354 11.3754 16.8521V13.1149C11.3754 11.6462 9.94929 10.4544 8.19092 10.4544H8.19615Z" fill="white"/>
<path d="M8.19615 10.4544C6.43778 10.4544 5.01172 11.6462 5.01172 13.1149V16.8521C5.01172 17.3354 5.48009 17.7272 6.05837 17.7272H10.3287C10.907 17.7272 11.3754 17.3354 11.3754 16.8521V13.1149C11.3754 11.6462 9.94929 10.4544 8.19092 10.4544H8.19615Z" fill="#FA967C"/>
<path d="M32.1376 10.4544C30.3792 10.4544 28.9531 11.6462 28.9531 13.1149V16.8521C28.9531 17.3354 29.4215 17.7272 29.9998 17.7272H34.2701C34.8484 17.7272 35.3168 17.3354 35.3168 16.8521V13.1149C35.3168 11.6462 33.8907 10.4544 32.1323 10.4544H32.1376Z" fill="white"/>
<path d="M32.1376 10.4544C30.3792 10.4544 28.9531 11.6462 28.9531 13.1149V16.8521C28.9531 17.3354 29.4215 17.7272 29.9998 17.7272H34.2701C34.8484 17.7272 35.3168 17.3354 35.3168 16.8521V13.1149C35.3168 11.6462 33.8907 10.4544 32.1323 10.4544H32.1376Z" fill="#FA967C"/>
</svg>
