<svg width="32" height="33" viewBox="0 0 32 33" fill="none" xmlns="http://www.w3.org/2000/svg">
<rect x="6.83594" y="6" width="18.6667" height="22.6667" rx="2" fill="#8C97C8"/>
<g style="mix-blend-mode:multiply">
<ellipse cx="16.1693" cy="18" rx="5.33333" ry="5.33333" fill="#5B658C"/>
</g>
<path d="M16.2139 15.3337C16.579 15.3337 16.875 15.6297 16.875 15.9948V17.3161H18.1973C18.5623 17.3161 18.8582 17.6123 18.8584 17.9772C18.8584 18.3424 18.5624 18.6384 18.1973 18.6384H16.875V19.9616C16.8748 20.3266 16.5789 20.6227 16.2139 20.6227C15.8491 20.6225 15.5529 20.3264 15.5527 19.9616V18.6384H14.2314C13.8663 18.6384 13.5703 18.3424 13.5703 17.9772C13.5705 17.6123 13.8664 17.3161 14.2314 17.3161H15.5527V15.9948C15.5527 15.6298 15.849 15.3339 16.2139 15.3337Z" fill="white"/>
<g style="mix-blend-mode:multiply">
<rect x="12.168" y="4.66669" width="8" height="2.66667" rx="1" fill="#5B658C"/>
</g>
</svg>
