<svg width="32" height="32" viewBox="0 0 32 32" fill="none" xmlns="http://www.w3.org/2000/svg">
<g clip-path="url(#clip0_100_3383)">
<path d="M24.5002 14.8333C24.5002 20.5403 19.8738 25.1667 14.1668 25.1667C8.45989 25.1667 3.8335 20.5403 3.8335 14.8333C3.8335 9.12639 8.45989 4.5 14.1668 4.5C19.8738 4.5 24.5002 9.12639 24.5002 14.8333Z" fill="#5B658C"/>
<path d="M28.5002 16.1668C28.5002 21.8738 23.8738 26.5002 18.1668 26.5002C12.4599 26.5002 7.8335 21.8738 7.8335 16.1668C7.8335 10.4599 12.4599 5.8335 18.1668 5.8335C23.8738 5.8335 28.5002 10.4599 28.5002 16.1668Z" fill="#8C97C8"/>
<ellipse cx="12.9286" cy="16.2621" rx="1.42857" ry="1.42857" fill="#5B658C"/>
<ellipse cx="18.1669" cy="16.2621" rx="1.42857" ry="1.42857" fill="#5B658C"/>
<ellipse cx="23.4049" cy="16.2621" rx="1.42857" ry="1.42857" fill="#5B658C"/>
<path d="M23.8274 21.0902C24.333 20.6599 25.1149 20.9384 25.2347 21.5915L26.0434 25.9996C26.1632 26.6527 25.5311 27.1905 24.9056 26.9677L20.6837 25.464C20.0583 25.2412 19.9085 24.4249 20.4142 23.9946L23.8274 21.0902Z" fill="#8C97C8"/>
</g>
<defs>
<clipPath id="clip0_100_3383">
<rect width="32" height="32" fill="white"/>
</clipPath>
</defs>
</svg>
