<svg width="41" height="40" viewBox="0 0 41 40" fill="none" xmlns="http://www.w3.org/2000/svg">
<path fill-rule="evenodd" clip-rule="evenodd" d="M20.5 31.5189C21.347 31.5189 21.805 32.0025 22.612 32.9585L22.6565 33.0107C23.3835 33.8713 24.4795 35.17 26.4627 34.9816C27.6454 34.8681 28.7748 34.0461 29.7197 33.0743C30.7045 32.0616 31.6672 30.7083 32.5098 29.2006C34.1839 26.2034 35.5 22.3864 35.5 19.0736V18.9714C35.5 16.0877 35.5 10.2182 29.8842 7.46163C27.7921 6.43985 25.9869 6.57381 24.4128 6.92349C23.9433 7.0335 23.4763 7.15463 23.0122 7.28679C22.7499 7.35945 22.509 7.42454 22.2897 7.48206C21.7064 7.64796 21.1053 7.73948 20.5 7.75454C19.9375 7.75454 19.3573 7.64782 18.6992 7.48206C18.4769 7.42757 18.2323 7.36323 17.9655 7.28906C17.5165 7.17099 17.0318 7.03929 16.5805 6.93938C15.0198 6.59425 13.2279 6.45801 11.1781 7.4639C5.49778 10.2522 5.5 16.0877 5.5 18.9805V19.0713C5.5 22.4023 6.91174 26.2329 8.62361 29.221C9.48622 30.7287 10.4555 32.0775 11.4182 33.0811C11.8984 33.5829 12.3964 34.0188 12.8966 34.3458C13.3879 34.666 13.946 34.9248 14.5351 34.9816C16.5182 35.17 17.6165 33.869 18.3435 33.0107L18.388 32.9585C19.195 32.0048 19.653 31.5189 20.5 31.5189Z" fill="#FA967C"/>
<mask id="mask0_10473_260095" style="mask-type:alpha" maskUnits="userSpaceOnUse" x="5" y="6" width="31" height="29">
<path fill-rule="evenodd" clip-rule="evenodd" d="M20.5 31.5189C21.347 31.5189 21.805 32.0025 22.612 32.9585L22.6565 33.0107C23.3835 33.8713 24.4795 35.17 26.4627 34.9816C27.6454 34.8681 28.7748 34.0461 29.7197 33.0743C30.7045 32.0616 31.6672 30.7083 32.5098 29.2006C34.1839 26.2034 35.5 22.3864 35.5 19.0736V18.9714C35.5 16.0877 35.5 10.2182 29.8842 7.46163C27.7921 6.43985 25.9869 6.57381 24.4128 6.92349C23.9433 7.0335 23.4763 7.15463 23.0122 7.28679C22.7499 7.35945 22.509 7.42454 22.2897 7.48206C21.7064 7.64796 21.1053 7.73948 20.5 7.75454C19.9375 7.75454 19.3573 7.64782 18.6992 7.48206C18.4769 7.42757 18.2323 7.36323 17.9655 7.28906C17.5165 7.17099 17.0318 7.03929 16.5805 6.93938C15.0198 6.59425 13.2279 6.45801 11.1781 7.4639C5.49778 10.2522 5.5 16.0877 5.5 18.9805V19.0713C5.5 22.4023 6.91174 26.2329 8.62361 29.221C9.48622 30.7287 10.4555 32.0775 11.4182 33.0811C11.8984 33.5829 12.3964 34.0188 12.8966 34.3458C13.3879 34.666 13.946 34.9248 14.5351 34.9816C16.5182 35.17 17.6165 33.869 18.3435 33.0107L18.388 32.9585C19.195 32.0048 19.653 31.5189 20.5 31.5189Z" fill="#D63D4A"/>
</mask>
<g mask="url(#mask0_10473_260095)">
<ellipse cx="20.4987" cy="7.50002" rx="11.6667" ry="5.83333" fill="#D63D4A"/>
<ellipse cx="33.08" cy="20.0001" rx="8.96271" ry="5.7795" transform="rotate(102.483 33.08 20.0001)" fill="#D63D4A"/>
</g>
</svg>
