<svg width="32" height="32" viewBox="0 0 32 32" fill="none" xmlns="http://www.w3.org/2000/svg">
<g clip-path="url(#clip0_19545_249411)">
<rect x="6.66699" y="5.33398" width="18.6667" height="22.6667" rx="2" fill="#75D0D7"/>
<g style="mix-blend-mode:multiply">
<ellipse cx="16.0003" cy="17.3333" rx="5.33333" ry="5.33333" fill="#19969F"/>
</g>
<path d="M16.0439 14.666C16.4091 14.666 16.7051 14.962 16.7051 15.3271V16.6484H18.0273C18.3924 16.6484 18.6883 16.9446 18.6885 17.3096C18.6885 17.6747 18.3925 17.9707 18.0273 17.9707H16.7051V19.2939C16.7049 19.6589 16.4089 19.9551 16.0439 19.9551C15.6792 19.9548 15.383 19.6587 15.3828 19.2939V17.9707H14.0615C13.6964 17.9707 13.4004 17.6747 13.4004 17.3096C13.4006 16.9446 13.6965 16.6484 14.0615 16.6484H15.3828V15.3271C15.3828 14.9622 15.679 14.6663 16.0439 14.666Z" fill="white"/>
<g style="mix-blend-mode:multiply">
<rect x="12" y="4" width="8" height="2.66667" rx="1" fill="#19969F"/>
</g>
</g>
<defs>
<clipPath id="clip0_19545_249411">
<rect width="32" height="32" fill="white"/>
</clipPath>
</defs>
</svg>
