<svg width="32" height="33" viewBox="0 0 32 33" fill="none" xmlns="http://www.w3.org/2000/svg">
<path d="M24.4997 15.3333C24.4997 21.0403 19.8733 25.6667 14.1663 25.6667C8.4594 25.6667 3.83301 21.0403 3.83301 15.3333C3.83301 9.62639 8.4594 5 14.1663 5C19.8733 5 24.4997 9.62639 24.4997 15.3333Z" fill="#5B658C"/>
<path d="M28.4997 16.6666C28.4997 22.3735 23.8733 26.9999 18.1663 26.9999C12.4594 26.9999 7.83301 22.3735 7.83301 16.6666C7.83301 10.9596 12.4594 6.33325 18.1663 6.33325C23.8733 6.33325 28.4997 10.9596 28.4997 16.6666Z" fill="#8C97C8"/>
<ellipse cx="12.9286" cy="16.7618" rx="1.42857" ry="1.42857" fill="#5B658C"/>
<ellipse cx="18.1664" cy="16.7618" rx="1.42857" ry="1.42857" fill="#5B658C"/>
<ellipse cx="23.4046" cy="16.7618" rx="1.42857" ry="1.42857" fill="#5B658C"/>
<path d="M23.8269 21.5902C24.3326 21.1599 25.1144 21.4384 25.2342 22.0915L26.0429 26.4996C26.1627 27.1527 25.5306 27.6905 24.9051 27.4677L20.6832 25.964C20.0578 25.7412 19.908 24.9249 20.4137 24.4946L23.8269 21.5902Z" fill="#8C97C8"/>
</svg>
