<svg width="41" height="40" viewBox="0 0 41 40" fill="none" xmlns="http://www.w3.org/2000/svg">
<path d="M33.8346 14.8246C33.8346 17.7694 32.6647 21.1622 31.1767 23.8264L9.94451 23.8446C8.42285 21.1884 7.16797 17.7835 7.16797 14.8226V14.7419V14.7389C7.16797 12.1665 7.16797 6.98244 12.2151 4.5049C14.0372 3.61077 15.63 3.73187 17.0173 4.03866C17.4185 4.12747 17.8493 4.24453 18.2484 4.34948C18.4856 4.41542 18.703 4.4726 18.9006 4.52104C19.4855 4.66838 20.0013 4.76324 20.5013 4.76324C21.0393 4.74986 21.5737 4.66851 22.0921 4.52104C22.2871 4.46991 22.5012 4.41205 22.7344 4.34747C23.1469 4.23 23.562 4.12232 23.9794 4.02453C25.3785 3.71371 26.9832 3.59463 28.8428 4.50288C33.8346 6.95313 33.8346 12.1705 33.8346 14.7338V14.8246Z" fill="#FA967C"/>
<path d="M24.7546 30.7156L16.6583 35.4796L16.4655 34.1165L24.9426 29.1286C24.9466 29.2726 24.9385 29.4169 24.9185 29.5573L24.7546 30.7156ZM17.002 36.9524L24.4967 32.5421L24.2696 34.1527L17.9787 37.8546C17.7873 37.8181 17.6024 37.7195 17.4346 37.5646C17.2669 37.4096 17.1198 37.2015 17.002 36.9524ZM20.7988 37.8703H22.594C22.921 37.8705 23.2385 37.6894 23.4945 37.3567C23.7505 37.024 23.9299 36.5592 24.0035 36.0383L24.0117 35.98L20.7988 37.8703Z" fill="#D63D4A"/>
<path d="M16.0547 31.2067L19.7897 29.0082L22.3456 28.9814L16.2475 32.5699L16.0547 31.2067Z" fill="#D63D4A"/>
<rect x="13.0938" y="24.537" width="14.8148" height="4.44444" rx="0.407407" fill="#D63D4A"/>
</svg>
