<svg width="32" height="32" viewBox="0 0 32 32" fill="none" xmlns="http://www.w3.org/2000/svg">
<path d="M15.2562 28H8.00041C6.93955 28 5.92202 27.5783 5.17188 26.8281C4.42173 26.078 4 25.0605 4 23.9996C4.00011 22.2317 4.70261 20.5363 5.95271 19.2862C6.97409 18.2648 8.29261 17.6084 9.70518 17.4025L15.2562 28Z" fill="#8C97C8"/>
<path d="M20.4211 24.2105C21.8163 24.2105 22.9474 25.3416 22.9474 26.7368C22.9474 27.1974 22.8222 27.6282 22.6069 28H16.6834L14.6986 24.2105H20.4211Z" fill="#8C97C8"/>
<path d="M21.3339 17.3335C23.1018 17.3336 24.7972 18.0361 26.0473 19.2862C27.2974 20.5363 27.9999 22.2317 28 23.9996C28 25.0605 27.5783 26.078 26.8281 26.8281C26.078 27.5783 25.0605 28 23.9996 28H23.991C24.1309 27.6046 24.2105 27.1802 24.2105 26.7368C24.2105 24.644 22.5139 22.9474 20.4211 22.9474H14.0374L11.0966 17.3335H21.3339Z" fill="#8C97C8"/>
<path d="M16 4C17.4143 4 18.7708 4.5617 19.771 5.56168C20.7712 6.56187 21.3339 7.91939 21.3339 9.33388C21.3337 10.7482 20.771 12.1048 19.771 13.1049C18.7708 14.1049 17.4144 14.6665 16 14.6665C14.5856 14.6665 13.2292 14.1049 12.229 13.1049C11.229 12.1048 10.6663 10.7482 10.6661 9.33388C10.6661 7.91939 11.2288 6.56187 12.229 5.56168C13.2292 4.5617 14.5857 4 16 4Z" fill="#8C97C8"/>
<path d="M15.2562 28H8.00041C6.93955 28 5.92202 27.5783 5.17188 26.8282C4.42173 26.078 4 25.0605 4 23.9996C4.00011 22.2317 4.70261 20.5364 5.95271 19.2862C6.97409 18.2648 8.29261 17.6084 9.70518 17.4026L15.2562 28Z" fill="#5B658C"/>
<path d="M20.4211 24.2106C21.8163 24.2106 22.9474 25.3416 22.9474 26.7369C22.9474 27.1975 22.8222 27.6282 22.6069 28H16.6834L14.6986 24.2106H20.4211Z" fill="#5B658C"/>
</svg>
