<svg width="32" height="32" viewBox="0 0 32 32" fill="none" xmlns="http://www.w3.org/2000/svg">
<g clip-path="url(#clip0_100_3381)">
<path d="M17.0508 3.00425L25.8656 6.52667C26.3458 6.71847 26.7596 7.06188 27.0517 7.51101C27.3438 7.96013 27.5002 8.49357 27.5002 9.04V16.2365C27.5002 18.4793 26.9141 20.6779 25.8076 22.5858C24.7011 24.4937 23.1179 26.0355 21.2353 27.0386L17.0118 29.2875C16.7495 29.4274 16.4602 29.5002 16.1668 29.5002C15.8735 29.5002 15.5842 29.4274 15.3219 29.2875L11.0983 27.0372C9.21577 26.0342 7.63254 24.4923 6.52603 22.5844C5.41952 20.6765 4.83345 18.478 4.8335 16.2351V9.04134C4.83318 8.49468 4.98953 7.96095 5.28163 7.51156C5.57373 7.06217 5.98765 6.71855 6.46801 6.52667L15.2828 3.00425C15.8528 2.77658 16.4809 2.77658 17.0508 3.00425Z" fill="#8C97C8"/>
<path d="M7.00574 7.81443L12.3581 5.58637C12.5705 5.49791 12.7621 5.84167 12.5821 5.9851C9.81263 8.19179 7.81891 10.9616 6.60096 15.2602C6.53874 15.4798 6.17038 15.4359 6.1709 15.2077L6.18483 9.04235C6.18604 8.50502 6.50967 8.02093 7.00574 7.81443Z" fill="white"/>
<g style="mix-blend-mode:multiply">
<path d="M19.9442 15.3687C20.5334 15.3687 21.0991 15.5969 21.5158 16.0028C21.9325 16.4087 22.1667 16.9599 22.1668 17.534C22.1668 17.8786 22.0263 18.2097 21.7762 18.4533C21.5262 18.6968 21.187 18.8335 20.8335 18.8335H19.452C19.3364 18.6779 19.2113 18.528 19.0705 18.3908C18.4544 17.7906 17.6487 17.4254 16.7957 17.3478C17.3062 16.7996 17.6265 16.1069 17.7085 15.3687H19.9442Z" fill="#5B658C"/>
<path d="M18.1668 10.8335C18.725 10.8335 19.2603 11.0494 19.6551 11.4338C20.0498 11.8183 20.2722 12.3404 20.2723 12.8843C20.2723 13.4283 20.0499 13.9501 19.6551 14.3348C19.2603 14.7195 18.7252 14.9364 18.1668 14.9364C18.0171 14.9364 17.8695 14.9184 17.7254 14.8882C17.7012 14.1098 17.416 13.3663 16.9168 12.7723L16.6799 12.5158C16.5337 12.3734 16.3749 12.247 16.2085 12.133C16.3135 11.8734 16.4723 11.6347 16.6785 11.4338C17.0733 11.0493 17.6087 10.8335 18.1668 10.8335Z" fill="#5B658C"/>
</g>
<g style="mix-blend-mode:multiply">
<path fill-rule="evenodd" clip-rule="evenodd" d="M12.0926 18.1251C11.405 18.1251 10.7456 18.3912 10.2594 18.865C9.77315 19.3387 9.5 19.9812 9.5 20.6512C9.5 21.0532 9.66389 21.4387 9.95561 21.7229C10.2473 22.0071 10.643 22.1668 11.0556 22.1668H17.2778C17.6903 22.1668 18.086 22.0071 18.3777 21.7229C18.6694 21.4387 18.8333 21.0532 18.8333 20.6512C18.8333 19.9812 18.5602 19.3387 18.074 18.865C17.5878 18.3912 16.9283 18.1251 16.2407 18.1251H12.0926Z" fill="#5B658C"/>
<path d="M12.4299 13.5344C11.9693 13.9832 11.7106 14.5919 11.7106 15.2266C11.7106 15.8613 11.9693 16.47 12.4299 16.9188C12.8906 17.3676 13.5153 17.6198 14.1667 17.6198C14.8181 17.6198 15.4428 17.3676 15.9034 16.9188C16.3641 16.47 16.6228 15.8613 16.6228 15.2266C16.6228 14.5919 16.3641 13.9832 15.9034 13.5344C15.4428 13.0856 14.8181 12.8335 14.1667 12.8335C13.5153 12.8335 12.8906 13.0856 12.4299 13.5344Z" fill="#5B658C"/>
</g>
</g>
<defs>
<clipPath id="clip0_100_3381">
<rect width="32" height="32" fill="white"/>
</clipPath>
</defs>
</svg>
