<svg width="24" height="24" viewBox="0 0 24 24" fill="none" xmlns="http://www.w3.org/2000/svg">
<path fill-rule="evenodd" clip-rule="evenodd" d="M12.1113 8.66256C9.45195 8.66256 8.92282 10.5539 7.37061 12.947C6.19301 14.7623 2.23205 17.0872 3.64343 19.5845C5.0552 22.0801 8.3494 20.515 12.1113 20.515C15.8731 20.5154 19.1668 22.0809 20.5792 19.5845C21.9911 17.0874 18.0251 14.7622 16.8474 12.947C15.2957 10.5545 14.7694 8.66316 12.1113 8.66256ZM4.875 6.89301C3.56365 6.89301 2.50054 7.98054 2.5 9.3235C2.5 10.6669 3.56332 11.7563 4.875 11.7563C6.1864 11.756 7.25 10.6667 7.25 9.3235C7.24946 7.98075 6.18607 6.89334 4.875 6.89301ZM19.125 6.89301C17.8137 6.89301 16.7505 7.98054 16.75 9.3235C16.75 10.6669 17.8133 11.7563 19.125 11.7563C20.4364 11.756 21.5 10.6667 21.5 9.3235C21.4995 7.98075 20.4361 6.89334 19.125 6.89301ZM9.14954 3C7.83811 3.00026 6.7746 4.08962 6.77454 5.43284C6.77471 6.77595 7.83818 7.86542 9.14954 7.86567C10.4608 7.86534 11.5244 6.77591 11.5245 5.43284C11.5245 4.08967 10.4609 3.00033 9.14954 3ZM14.8505 3C13.5388 3 12.4755 4.08947 12.4755 5.43284C12.4756 6.77611 13.5389 7.86567 14.8505 7.86567C16.1615 7.86509 17.2253 6.77575 17.2255 5.43284C17.2254 4.08983 16.1616 3.00059 14.8505 3Z" fill="#6D7882"/>
</svg>
