<svg width="32" height="33" viewBox="0 0 32 33" fill="none" xmlns="http://www.w3.org/2000/svg">
<path d="M6.83594 8C6.83594 6.89543 7.73137 6 8.83594 6H23.5026C24.6072 6 25.5026 6.89543 25.5026 8V25.3333C25.5026 26.4379 24.6072 27.3333 23.5026 27.3333H8.83594C7.73137 27.3333 6.83594 26.4379 6.83594 25.3333V8Z" fill="#FA967C"/>
<path d="M6.83594 8C6.83594 6.89543 7.73137 6 8.83594 6H23.5026C24.6072 6 25.5026 6.89543 25.5026 8V25.3333C25.5026 26.4379 24.6072 27.3333 23.5026 27.3333H8.83594C7.73137 27.3333 6.83594 26.4379 6.83594 25.3333V8Z" fill="#8C97C8"/>
<g style="mix-blend-mode:multiply">
<path d="M12.168 7.06667C12.168 6.47756 12.6455 6 13.2346 6H19.1013C19.6904 6 20.168 6.47756 20.168 7.06667C20.168 7.65577 19.6904 8.13333 19.1013 8.13333H13.2346C12.6455 8.13333 12.168 7.65577 12.168 7.06667Z" fill="#D63D4A"/>
<path d="M12.168 7.06667C12.168 6.47756 12.6455 6 13.2346 6H19.1013C19.6904 6 20.168 6.47756 20.168 7.06667C20.168 7.65577 19.6904 8.13333 19.1013 8.13333H13.2346C12.6455 8.13333 12.168 7.65577 12.168 7.06667Z" fill="#5B658C"/>
</g>
<path d="M13.2357 6.00002L13.1263 6.00523C12.5888 6.06009 12.1694 6.51444 12.1693 7.06643C12.1693 7.61851 12.5887 8.07273 13.1263 8.12762L13.2357 8.13283H19.1029L19.2122 8.12762C19.714 8.07639 20.1131 7.67761 20.1641 7.1758L20.1693 7.06643C20.1691 6.51444 19.7498 6.06009 19.2122 6.00523L19.1029 6.00002V4.66669C20.4281 4.66683 21.5025 5.74115 21.5026 7.06643C21.5026 8.39182 20.4282 9.46603 19.1029 9.46617H13.2357C11.9933 9.46603 10.9721 8.52241 10.849 7.31252L10.8359 7.06643L10.849 6.82163C10.9717 5.61138 11.9931 4.66682 13.2357 4.66669V6.00002ZM19.1029 4.66669V6.00002H13.2357V4.66669H19.1029Z" fill="#5B658C"/>
<path fill-rule="evenodd" clip-rule="evenodd" d="M9.50391 23.4C9.50391 22.8477 9.98147 22.4 10.5706 22.4H21.7706C22.3597 22.4 22.8372 22.8477 22.8372 23.4C22.8372 23.9523 22.3597 24.4 21.7706 24.4H10.5706C9.98147 24.4 9.50391 23.9523 9.50391 23.4Z" fill="#D63D4A"/>
<path fill-rule="evenodd" clip-rule="evenodd" d="M9.50391 23.4C9.50391 22.8477 9.98147 22.4 10.5706 22.4H21.7706C22.3597 22.4 22.8372 22.8477 22.8372 23.4C22.8372 23.9523 22.3597 24.4 21.7706 24.4H10.5706C9.98147 24.4 9.50391 23.9523 9.50391 23.4Z" fill="#5B658C"/>
<path d="M9.50391 19.4C9.50391 18.8477 9.98147 18.4 10.5706 18.4H21.7706C22.3597 18.4 22.8372 18.8477 22.8372 19.4C22.8372 19.9523 22.3597 20.4 21.7706 20.4H10.5706C9.98147 20.4 9.50391 19.9523 9.50391 19.4Z" fill="#D63D4A"/>
<path d="M9.50391 19.4C9.50391 18.8477 9.98147 18.4 10.5706 18.4H21.7706C22.3597 18.4 22.8372 18.8477 22.8372 19.4C22.8372 19.9523 22.3597 20.4 21.7706 20.4H10.5706C9.98147 20.4 9.50391 19.9523 9.50391 19.4Z" fill="#5B658C"/>
<path d="M12.8369 10.3337C13.2971 10.3337 13.6699 10.7065 13.6699 11.1667V12.8327H15.3369C15.797 12.8328 16.1698 13.2057 16.1699 13.6657C16.1699 14.1259 15.797 14.4986 15.3369 14.4987H13.6699V16.1667C13.6697 16.6267 13.297 16.9997 12.8369 16.9997C12.3768 16.9997 12.0041 16.6267 12.0039 16.1667V14.4987H10.3369C9.87679 14.4986 9.50391 14.1259 9.50391 13.6657C9.50401 13.2057 9.87686 12.8328 10.3369 12.8327H12.0039V11.1667C12.0039 10.7065 12.3767 10.3337 12.8369 10.3337Z" fill="white"/>
</svg>
