<svg width="25" height="25" viewBox="0 0 25 25" fill="none" xmlns="http://www.w3.org/2000/svg">
<path fill-rule="evenodd" clip-rule="evenodd" d="M12.166 6.57959C17.4127 6.57959 21.6659 9.87585 21.666 15.2749C21.666 19.449 18.2114 22.6665 14.7568 22.6665H9.5752C6.12065 22.6665 2.66602 19.449 2.66602 15.2749C2.66612 9.87585 6.91937 6.57959 12.166 6.57959ZM12.2275 12.0337C12.043 12.0337 11.8565 12.0862 11.7031 12.2056C11.5736 12.3065 11.4648 12.4559 11.4062 12.6704L10.5479 15.7554L9.72852 12.5005C9.66385 12.2809 9.53917 12.1564 9.38965 12.0903C9.23333 12.0213 9.03797 12.0204 8.82812 12.0718C8.62706 12.1289 8.48048 12.2446 8.39746 12.396C8.31874 12.5396 8.29389 12.7213 8.35352 12.9331L8.76855 14.437H7.80078C7.61883 14.4371 7.45428 14.5112 7.33496 14.6304C7.21556 14.7497 7.1416 14.915 7.1416 15.0972C7.14168 15.2792 7.21562 15.4437 7.33496 15.563C7.45429 15.6823 7.61873 15.7563 7.80078 15.7563H9.13281L9.66992 17.6968C9.7322 17.9046 9.84044 18.049 9.96875 18.146C10.1199 18.2602 10.3017 18.31 10.4814 18.3101C10.6615 18.3101 10.8502 18.2575 11.0059 18.1362C11.1353 18.0354 11.2446 17.8868 11.3027 17.6743L12.2158 14.4028L13.0957 17.688C13.1582 17.9011 13.268 18.0478 13.3984 18.146C13.5502 18.26 13.7347 18.3104 13.9277 18.3101C14.1034 18.3049 14.2821 18.2488 14.4297 18.1284C14.5527 18.028 14.6561 17.8816 14.7129 17.6743L15.25 15.7563H16.5312C16.7134 15.7563 16.8787 15.6823 16.998 15.563C17.1172 15.4437 17.1903 15.279 17.1904 15.0972C17.1904 14.9151 17.1173 14.7497 16.998 14.6304C16.8787 14.511 16.7134 14.4371 16.5312 14.437H15.6182L16.0605 12.8579C16.1107 12.6543 16.0804 12.476 15.9961 12.3384C15.9111 12.1999 15.7675 12.095 15.5664 12.0542C15.3736 12.0134 15.1888 12.0395 15.041 12.1245C14.8992 12.2061 14.7861 12.3421 14.7354 12.5435L13.8945 15.7583L13.0312 12.6382C12.9689 12.4347 12.8599 12.2926 12.7324 12.1968C12.5819 12.0836 12.4023 12.0337 12.2275 12.0337Z" fill="#6D7882"/>
<path d="M15.9502 2.6665C16.592 2.66679 17.0097 3.34724 16.7227 3.92529L15.6592 6.06592C14.5589 5.74509 13.3816 5.57963 12.166 5.57959C10.9499 5.57963 9.77154 5.74483 8.6709 6.06592L7.6084 3.92529C7.32155 3.34733 7.73923 2.6669 8.38086 2.6665H15.9502Z" fill="#6D7882"/>
</svg>
