<svg width="40" height="40" viewBox="0 0 40 40" fill="none" xmlns="http://www.w3.org/2000/svg">
<path d="M5.07592 23.7056H34.9244C35.885 23.7056 36.6668 24.3322 36.6668 25.1021C36.6668 30.1853 31.5183 34.3116 25.1759 34.3116H14.8214C8.48198 34.3116 3.3335 30.1853 3.3335 25.1021C3.3335 24.3322 4.11531 23.7056 5.07592 23.7056Z" fill="#FDCFC3"/>
<path d="M23.6364 28.8568C21.6269 28.8568 19.9971 27.6153 19.9971 26.0855V22.1925C19.9971 21.6891 20.5324 21.281 21.1932 21.281H26.0736C26.7345 21.281 27.2698 21.6891 27.2698 22.1925V26.0855C27.2698 27.6153 25.64 28.8568 23.6304 28.8568H23.6364Z" fill="white"/>
<path d="M23.6364 28.8568C21.6269 28.8568 19.9971 27.6153 19.9971 26.0855V22.1925C19.9971 21.6891 20.5324 21.281 21.1932 21.281H26.0736C26.7345 21.281 27.2698 21.6891 27.2698 22.1925V26.0855C27.2698 27.6153 25.64 28.8568 23.6304 28.8568H23.6364Z" fill="#FA967C"/>
<path d="M30.9094 28.8568C28.8998 28.8568 27.27 27.6153 27.27 26.0855V22.1925C27.27 21.6891 27.8053 21.281 28.4662 21.281H33.3466C34.0075 21.281 34.5427 21.6891 34.5427 22.1925V26.0855C34.5427 27.6153 32.913 28.8568 30.9034 28.8568H30.9094Z" fill="white"/>
<path d="M30.9094 28.8568C28.8998 28.8568 27.27 27.6153 27.27 26.0855V22.1925C27.27 21.6891 27.8053 21.281 28.4662 21.281H33.3466C34.0075 21.281 34.5427 21.6891 34.5427 22.1925V26.0855C34.5427 27.6153 32.913 28.8568 30.9034 28.8568H30.9094Z" fill="#FA967C"/>
<path d="M16.2124 28.8568C14.1191 28.8568 12.4214 27.6153 12.4214 26.0855V22.1925C12.4214 21.6891 12.979 21.281 13.6674 21.281H18.7511C19.4396 21.281 19.9971 21.6891 19.9971 22.1925V26.0855C19.9971 27.6153 18.2995 28.8568 16.2062 28.8568H16.2124Z" fill="white"/>
<path d="M16.2124 28.8568C14.1191 28.8568 12.4214 27.6153 12.4214 26.0855V22.1925C12.4214 21.6891 12.979 21.281 13.6674 21.281H18.7511C19.4396 21.281 19.9971 21.6891 19.9971 22.1925V26.0855C19.9971 27.6153 18.2995 28.8568 16.2062 28.8568H16.2124Z" fill="#FA967C"/>
<path d="M8.78779 28.8568C6.77822 28.8568 5.14844 27.6153 5.14844 26.0855V22.1925C5.14844 21.6891 5.68372 21.281 6.34461 21.281H11.225C11.8859 21.281 12.4212 21.6891 12.4212 22.1925V26.0855C12.4212 27.6153 10.7914 28.8568 8.78181 28.8568H8.78779Z" fill="white"/>
<path d="M8.78779 28.8568C6.77822 28.8568 5.14844 27.6153 5.14844 26.0855V22.1925C5.14844 21.6891 5.68372 21.281 6.34461 21.281H11.225C11.8859 21.281 12.4212 21.6891 12.4212 22.1925V26.0855C12.4212 27.6153 10.7914 28.8568 8.78181 28.8568H8.78779Z" fill="#FA967C"/>
<path d="M5.07592 15H34.9244C35.885 15 36.6668 14.4092 36.6668 13.6833C36.6668 8.89054 31.5183 5 25.1759 5H14.8214C8.48198 5 3.3335 8.89054 3.3335 13.6833C3.3335 14.4092 4.11531 15 5.07592 15Z" fill="#FDCFC3"/>
<path d="M24.3976 9.24245C21.9693 9.24245 20 10.6329 20 12.3463V16.7064C20 17.2702 20.6468 17.7273 21.4454 17.7273H27.3425C28.1411 17.7273 28.7879 17.2702 28.7879 16.7064V12.3463C28.7879 10.6329 26.8186 9.24245 24.3903 9.24245H24.3976Z" fill="white"/>
<path d="M24.3976 9.24245C21.9693 9.24245 20 10.6329 20 12.3463V16.7064C20 17.2702 20.6468 17.7273 21.4454 17.7273H27.3425C28.1411 17.7273 28.7879 17.2702 28.7879 16.7064V12.3463C28.7879 10.6329 26.8186 9.24245 24.3903 9.24245H24.3976Z" fill="#FA967C"/>
<path d="M24.3976 9.24245C21.9693 9.24245 20 10.6329 20 12.3463V16.7064C20 17.2702 20.6468 17.7273 21.4454 17.7273H27.3425C28.1411 17.7273 28.7879 17.2702 28.7879 16.7064V12.3463C28.7879 10.6329 26.8186 9.24245 24.3903 9.24245H24.3976Z" fill="#D63D4A"/>
<path d="M15.6097 9.24245C13.1815 9.24245 11.2122 10.6329 11.2122 12.3463V16.7064C11.2122 17.2702 11.859 17.7273 12.6575 17.7273H18.5547C19.3532 17.7273 20 17.2702 20 16.7064V12.3463C20 10.6329 18.0307 9.24245 15.6025 9.24245H15.6097Z" fill="white"/>
<path d="M15.6097 9.24245C13.1815 9.24245 11.2122 10.6329 11.2122 12.3463V16.7064C11.2122 17.2702 11.859 17.7273 12.6575 17.7273H18.5547C19.3532 17.7273 20 17.2702 20 16.7064V12.3463C20 10.6329 18.0307 9.24245 15.6025 9.24245H15.6097Z" fill="#FA967C"/>
<path d="M15.6097 9.24245C13.1815 9.24245 11.2122 10.6329 11.2122 12.3463V16.7064C11.2122 17.2702 11.859 17.7273 12.6575 17.7273H18.5547C19.3532 17.7273 20 17.2702 20 16.7064V12.3463C20 10.6329 18.0307 9.24245 15.6025 9.24245H15.6097Z" fill="#D63D4A"/>
<path d="M8.03282 10.4546C6.27445 10.4546 4.84839 11.6464 4.84839 13.115V16.8522C4.84839 17.3355 5.31676 17.7273 5.89504 17.7273H10.1654C10.7436 17.7273 11.212 17.3355 11.212 16.8522V13.115C11.212 11.6464 9.78596 10.4546 8.02759 10.4546H8.03282Z" fill="white"/>
<path d="M8.03282 10.4546C6.27445 10.4546 4.84839 11.6464 4.84839 13.115V16.8522C4.84839 17.3355 5.31676 17.7273 5.89504 17.7273H10.1654C10.7436 17.7273 11.212 17.3355 11.212 16.8522V13.115C11.212 11.6464 9.78596 10.4546 8.02759 10.4546H8.03282Z" fill="#FA967C"/>
<path d="M31.9723 10.4546C30.2139 10.4546 28.7878 11.6464 28.7878 13.115V16.8522C28.7878 17.3355 29.2562 17.7273 29.8345 17.7273H34.1048C34.6831 17.7273 35.1515 17.3355 35.1515 16.8522V13.115C35.1515 11.6464 33.7254 10.4546 31.967 10.4546H31.9723Z" fill="white"/>
<path d="M31.9723 10.4546C30.2139 10.4546 28.7878 11.6464 28.7878 13.115V16.8522C28.7878 17.3355 29.2562 17.7273 29.8345 17.7273H34.1048C34.6831 17.7273 35.1515 17.3355 35.1515 16.8522V13.115C35.1515 11.6464 33.7254 10.4546 31.967 10.4546H31.9723Z" fill="#FA967C"/>
</svg>
