<svg width="32" height="32" viewBox="0 0 32 32" fill="none" xmlns="http://www.w3.org/2000/svg">
<path d="M6.66675 7.33325C6.66675 6.22868 7.56218 5.33325 8.66675 5.33325H23.3334C24.438 5.33325 25.3334 6.22868 25.3334 7.33325V24.6666C25.3334 25.7712 24.438 26.6666 23.3334 26.6666H8.66675C7.56218 26.6666 6.66675 25.7712 6.66675 24.6666V7.33325Z" fill="#FA967C"/>
<path d="M6.66675 7.33325C6.66675 6.22868 7.56218 5.33325 8.66675 5.33325H23.3334C24.438 5.33325 25.3334 6.22868 25.3334 7.33325V24.6666C25.3334 25.7712 24.438 26.6666 23.3334 26.6666H8.66675C7.56218 26.6666 6.66675 25.7712 6.66675 24.6666V7.33325Z" fill="#8C97C8"/>
<g style="mix-blend-mode:multiply">
<path d="M12 6.39992C12 5.81082 12.4776 5.33325 13.0667 5.33325H18.9333C19.5224 5.33325 20 5.81082 20 6.39992C20 6.98902 19.5224 7.46659 18.9333 7.46659H13.0667C12.4776 7.46659 12 6.98902 12 6.39992Z" fill="#D63D4A"/>
<path d="M12 6.39992C12 5.81082 12.4776 5.33325 13.0667 5.33325H18.9333C19.5224 5.33325 20 5.81082 20 6.39992C20 6.98902 19.5224 7.46659 18.9333 7.46659H13.0667C12.4776 7.46659 12 6.98902 12 6.39992Z" fill="#5B658C"/>
</g>
<path d="M13.0665 5.33333L12.9571 5.33854C12.4196 5.39341 12.0002 5.84776 12.0001 6.39974C12.0001 6.95182 12.4195 7.40604 12.9571 7.46094L13.0665 7.46615H18.9337L19.0431 7.46094C19.5448 7.4097 19.9439 7.01092 19.9949 6.50911L20.0001 6.39974C20 5.84776 19.5806 5.39341 19.0431 5.33854L18.9337 5.33333V4C20.259 4.00014 21.3333 5.07446 21.3334 6.39974C21.3334 7.72514 20.259 8.79934 18.9337 8.79948H13.0665C11.8241 8.79935 10.8029 7.85572 10.6798 6.64583L10.6667 6.39974L10.6798 6.15495C10.8025 4.94469 11.8239 4.00013 13.0665 4V5.33333ZM18.9337 4V5.33333H13.0665V4H18.9337Z" fill="#5B658C"/>
<path fill-rule="evenodd" clip-rule="evenodd" d="M9.3335 22.7334C9.3335 22.1811 9.81106 21.7334 10.4002 21.7334H21.6002C22.1893 21.7334 22.6668 22.1811 22.6668 22.7334C22.6668 23.2857 22.1893 23.7334 21.6002 23.7334H10.4002C9.81106 23.7334 9.3335 23.2857 9.3335 22.7334Z" fill="#D63D4A"/>
<path fill-rule="evenodd" clip-rule="evenodd" d="M9.3335 22.7334C9.3335 22.1811 9.81106 21.7334 10.4002 21.7334H21.6002C22.1893 21.7334 22.6668 22.1811 22.6668 22.7334C22.6668 23.2857 22.1893 23.7334 21.6002 23.7334H10.4002C9.81106 23.7334 9.3335 23.2857 9.3335 22.7334Z" fill="#5B658C"/>
<path d="M9.3335 18.7334C9.3335 18.1811 9.81106 17.7334 10.4002 17.7334H21.6002C22.1893 17.7334 22.6668 18.1811 22.6668 18.7334C22.6668 19.2857 22.1893 19.7334 21.6002 19.7334H10.4002C9.81106 19.7334 9.3335 19.2857 9.3335 18.7334Z" fill="#D63D4A"/>
<path d="M9.3335 18.7334C9.3335 18.1811 9.81106 17.7334 10.4002 17.7334H21.6002C22.1893 17.7334 22.6668 18.1811 22.6668 18.7334C22.6668 19.2857 22.1893 19.7334 21.6002 19.7334H10.4002C9.81106 19.7334 9.3335 19.2857 9.3335 18.7334Z" fill="#5B658C"/>
<path d="M12.6667 9.66699C13.1269 9.667 13.4998 10.0398 13.4998 10.5V12.166H15.1667C15.6268 12.1661 15.9997 12.539 15.9998 12.999C15.9998 13.4592 15.6269 13.8319 15.1667 13.832H13.4998V15.5C13.4995 15.96 13.1268 16.333 12.6667 16.333C12.2067 16.333 11.834 15.96 11.8337 15.5V13.832H10.1667C9.70663 13.8319 9.33374 13.4592 9.33374 12.999C9.33385 12.539 9.70669 12.1661 10.1667 12.166H11.8337V10.5C11.8337 10.0398 12.2065 9.66699 12.6667 9.66699Z" fill="white"/>
</svg>
