<svg width="32" height="32" viewBox="0 0 32 32" fill="none" xmlns="http://www.w3.org/2000/svg">
<g clip-path="url(#clip0_19610_162341)">
<g clip-path="url(#clip1_19610_162341)">
<path d="M13.0556 15.582L9.5 23.082L10.1667 25.4987L13.5 26.832H16.8333L18.1667 26.1654L19.1 24.582L20.1667 22.332V17.832L17.3222 14.832L13.0556 15.582Z" fill="#FBC4BA"/>
<path d="M15.055 4.99172L14.5059 4.66475C14.1027 4.4247 13.5843 4.66514 13.5072 5.12796L13.4033 5.75111C12.9827 8.25467 11.2617 10.581 9.36339 12.2157C5.64717 15.4174 4.83346 18.897 5.98411 21.7693C7.08521 24.518 9.8798 26.4 12.7162 26.7141L13.3725 26.7863C11.7495 25.8004 10.7078 23.4971 11.0712 21.7759C11.4301 20.0842 12.6546 18.4998 15.0065 17.0379L16.1924 16.3026L16.635 17.6212C16.896 18.4002 17.3475 19.0261 17.8066 19.6619C18.0268 19.9682 18.2504 20.2779 18.4552 20.6073C19.1632 21.7507 19.3504 23.0222 18.8934 24.2838C18.4772 25.4306 17.7912 26.3322 16.8454 26.8323L17.9134 26.7141C20.5759 26.4197 22.5303 25.5148 23.7999 24.0015C25.0585 22.5014 25.5 20.5701 25.5 18.514C25.5 16.5992 24.7083 14.6252 23.7746 12.9828C22.8332 11.3283 21.6451 9.91506 20.339 8.56688C20.0236 8.24126 19.5201 8.34574 19.3272 8.756C19.2345 8.9531 19.1057 9.19106 18.889 9.52725C18.1683 7.62546 16.8157 6.0253 15.055 4.99172Z" fill="#FA967C"/>
<g style="mix-blend-mode:multiply">
<path d="M18.873 23.4064C18.873 26.1472 22.4932 28.1668 23.8508 28.1668C25.2084 28.1668 28.8286 26.1472 28.8286 23.4064C28.8286 21.9636 28.8286 20.6579 28.8286 19.7447C28.8286 18.955 28.3185 18.2566 27.5673 18.0171L24.6741 17.0948C24.1385 16.9241 23.5632 16.9241 23.0276 17.0948L20.1343 18.0171C19.3832 18.2566 18.873 18.955 18.873 19.7447C18.873 20.6579 18.873 21.9636 18.873 23.4064Z" fill="#9548E5"/>
</g>
<path d="M26.1937 20.45C26.4341 20.2995 26.7549 20.3331 26.9581 20.5463C27.1611 20.7598 27.1788 21.0819 27.0167 21.3146L26.9372 21.4083L23.7328 24.4565C23.6154 24.568 23.4585 24.6288 23.2966 24.6245C23.1346 24.6201 22.9807 24.5509 22.8695 24.4331L20.7393 22.1739L20.6651 22.0763C20.5159 21.8353 20.5512 21.5154 20.7654 21.3133C20.9797 21.1111 21.3017 21.0941 21.5336 21.2573L21.6273 21.338L23.3357 23.1505L26.0961 20.5255L26.1937 20.45Z" fill="white"/>
<path d="M5.5 10.1654C5.5 8.32442 6.99238 6.83203 8.83333 6.83203C9.20152 6.83203 9.5 7.13051 9.5 7.4987C9.5 7.86689 9.20152 8.16536 8.83333 8.16536C7.72876 8.16536 6.83333 9.0608 6.83333 10.1654C6.83333 10.5336 6.53486 10.832 6.16667 10.832C5.79848 10.832 5.5 10.5336 5.5 10.1654Z" fill="#9548E5"/>
<path d="M2.16602 10.8333V9.5C2.16602 6.18629 4.85231 3.5 8.16602 3.5H9.49935C9.86754 3.5 10.166 3.79848 10.166 4.16667C10.166 4.53486 9.86754 4.83333 9.49935 4.83333H8.16602C5.58869 4.83333 3.49935 6.92267 3.49935 9.5V10.8333C3.49935 11.2015 3.20087 11.5 2.83268 11.5C2.46449 11.5 2.16602 11.2015 2.16602 10.8333Z" fill="#9548E5"/>
</g>
</g>
<defs>
<clipPath id="clip0_19610_162341">
<rect width="32" height="32" fill="white"/>
</clipPath>
<clipPath id="clip1_19610_162341">
<rect width="32" height="32" fill="white" transform="translate(0.166016 0.166016)"/>
</clipPath>
</defs>
</svg>
