<svg width="24" height="24" viewBox="0 0 24 24" fill="none" xmlns="http://www.w3.org/2000/svg">
<path d="M18.4111 3.21329L18.4121 3.21427C18.4128 3.21438 18.414 3.21408 18.415 3.21427C18.417 3.21465 18.4196 3.21562 18.4229 3.21622C18.4295 3.21747 18.4388 3.21887 18.4502 3.22111C18.4734 3.22563 18.5069 3.23209 18.5479 3.24064C18.6296 3.25771 18.7445 3.28352 18.8818 3.31681C19.1547 3.383 19.5265 3.48322 19.9043 3.61954C20.2725 3.75244 20.6942 3.93583 21.0381 4.18204C21.3534 4.40795 21.8001 4.83057 21.7998 5.47306C21.7989 6.32273 21.1541 6.74763 20.6826 6.94474C20.2103 7.14219 19.6138 7.24692 19.1426 7.33243C18.6211 7.42708 18.2213 7.50319 17.9443 7.61661C18.2214 7.73028 18.6207 7.80788 19.1426 7.90275C19.6139 7.98843 20.2112 8.09277 20.6836 8.29044C21.155 8.48777 21.7997 8.9132 21.7998 9.7631C21.7997 10.613 21.155 11.0385 20.6836 11.2358C20.2112 11.4333 19.6138 11.5379 19.1426 11.6235C18.6209 11.7181 18.2213 11.7941 17.9443 11.9076C18.2214 12.0214 18.6206 12.0989 19.1426 12.1938C19.6139 12.2794 20.2112 12.3838 20.6836 12.5815C21.155 12.7788 21.7997 13.2042 21.7998 14.0541C21.7997 14.8992 21.1645 15.3263 20.6924 15.5258C20.2228 15.7242 19.6296 15.8289 19.1611 15.9145C18.6362 16.0104 18.2332 16.0878 17.9521 16.2045C17.9279 16.2146 17.9072 16.226 17.8887 16.2348C17.9101 16.2469 17.934 16.2632 17.9639 16.2777C18.1756 16.381 18.4602 16.465 18.8145 16.5551L19.5703 16.7406C19.9636 16.8401 20.3907 16.9632 20.7441 17.1361C21.218 17.3681 21.8333 17.8342 21.7988 18.685C21.7736 19.3023 21.3352 19.6981 21.0312 19.9076C20.6987 20.1368 20.2966 20.3046 19.9473 20.4252C19.5884 20.5491 19.2361 20.6398 18.9785 20.6986C18.8489 20.7282 18.7402 20.75 18.6631 20.7651C18.6244 20.7726 18.5932 20.7787 18.5713 20.7826C18.5604 20.7846 18.5512 20.7864 18.5449 20.7875C18.5422 20.788 18.5399 20.7882 18.5381 20.7885H18.5352L18.5342 20.7895C18.0989 20.8629 17.6853 20.5694 17.6113 20.1342C17.5376 19.6986 17.831 19.2851 18.2666 19.2113C18.2672 19.2112 18.2683 19.2115 18.2695 19.2113C18.2729 19.2108 18.2785 19.2098 18.2861 19.2084C18.3017 19.2056 18.326 19.2009 18.3574 19.1947C18.4204 19.1825 18.5123 19.1634 18.623 19.1381C18.8469 19.087 19.1386 19.0113 19.4248 18.9125C19.7052 18.8157 19.9393 18.7086 20.0977 18.6049C20.0808 18.5957 20.0624 18.5841 20.041 18.5736C19.7606 18.4365 19.3509 18.3328 18.8164 18.2035C18.3379 18.0878 17.7349 17.9464 17.2627 17.7162C16.7892 17.4853 16.1737 17.0219 16.2012 16.1733L16.2129 16.0209C16.3075 15.2864 16.8966 14.9103 17.3379 14.727C17.811 14.5304 18.4052 14.4259 18.874 14.3402C19.3924 14.2455 19.7861 14.1679 20.0586 14.0551C19.7814 13.9406 19.3804 13.8632 18.8564 13.768C18.3853 13.6823 17.7886 13.5778 17.3164 13.3803C16.8747 13.1955 16.2808 12.8104 16.208 12.0629L16.2002 11.9086L16.208 11.7533C16.2808 11.0058 16.8746 10.6207 17.3164 10.436C17.7887 10.2385 18.3862 10.1348 18.8574 10.0492C19.3789 9.95459 19.7777 9.87659 20.0547 9.7631C19.7776 9.64944 19.3782 9.57181 18.8564 9.47697C18.3852 9.39131 17.7887 9.28676 17.3164 9.08927C16.8746 8.90451 16.2798 8.51961 16.207 7.77189L16.2002 7.61759L16.207 7.46232C16.2797 6.71457 16.8746 6.32965 17.3164 6.14493C17.7887 5.94755 18.3853 5.84373 18.8564 5.75822C19.3848 5.66232 19.7879 5.58418 20.0654 5.46818C20.0689 5.46671 20.0718 5.46378 20.0752 5.46232C19.9065 5.34855 19.6575 5.23133 19.3613 5.12443C19.0562 5.01429 18.7443 4.92956 18.5049 4.8715C18.3865 4.84278 18.2883 4.82115 18.2207 4.80704C18.187 4.80001 18.1604 4.79471 18.1436 4.79142C18.1355 4.78985 18.1296 4.7882 18.126 4.78751H18.1221L18.043 4.76896C17.6534 4.65613 17.4049 4.26336 17.4795 3.85587C17.5543 3.44843 17.9258 3.16987 18.3301 3.20255L18.4111 3.21329Z" fill="#6D7882"/>
<path d="M14.252 3.42716C14.5853 3.23688 15 3.47789 15 3.86173V20.1381C15 20.522 14.5853 20.7631 14.252 20.5727L8.23047 17.1322C8.07937 17.0459 7.9084 17.0004 7.73438 17.0004H4C3.44783 17.0004 3.00018 16.5525 3 16.0004V8.0004C3 7.44812 3.44772 7.0004 4 7.0004H7.73438C7.90833 7.0004 8.07942 6.95484 8.23047 6.86857L14.252 3.42716Z" fill="#6D7882"/>
</svg>
