<svg width="32" height="32" viewBox="0 0 32 32" fill="none" xmlns="http://www.w3.org/2000/svg">
<g clip-path="url(#clip0_19610_125415)">
<path d="M16.8841 2.83677L25.6989 6.35919C26.1791 6.55099 26.5928 6.8944 26.8849 7.34353C27.177 7.79265 27.3335 8.32609 27.3334 8.87252V16.069C27.3335 18.3118 26.7474 20.5104 25.6409 22.4183C24.5344 24.3262 22.9511 25.868 21.0686 26.8711L16.845 29.1201C16.5827 29.2599 16.2934 29.3327 16.0001 29.3327C15.7068 29.3327 15.4175 29.2599 15.1551 29.1201L10.9316 26.8697C9.04902 25.8667 7.46579 24.3248 6.35928 22.4169C5.25277 20.509 4.6667 18.3105 4.66675 16.0677V8.87386C4.66643 8.3272 4.82278 7.79347 5.11488 7.34408C5.40698 6.89469 5.8209 6.55107 6.30127 6.35919L15.1161 2.83677C15.6861 2.6091 16.3141 2.6091 16.8841 2.83677Z" fill="#75D0D7"/>
<path d="M6.83899 7.64866L12.1913 5.42059C12.4038 5.33214 12.5954 5.6759 12.4154 5.81933C9.64588 8.02602 7.65216 10.7958 6.43421 15.0944C6.37199 15.314 6.00364 15.2701 6.00415 15.0419L6.01808 8.87658C6.01929 8.33925 6.34293 7.85516 6.83899 7.64866Z" fill="white"/>
<g style="mix-blend-mode:multiply">
<path d="M19.7774 15.2012C20.3666 15.2012 20.9323 15.4295 21.349 15.8353C21.7657 16.2413 22 16.7924 22.0001 17.3665C22.0001 17.7111 21.8595 18.0422 21.6095 18.2858C21.3594 18.5293 21.0203 18.666 20.6667 18.666H19.2852C19.1697 18.5104 19.0446 18.3605 18.9037 18.2233C18.2877 17.6231 17.482 17.2579 16.629 17.1803C17.1394 16.6321 17.4597 15.9394 17.5417 15.2012H19.7774Z" fill="#19969F"/>
<path d="M18.0001 10.666C18.5582 10.666 19.0936 10.8819 19.4884 11.2663C19.8831 11.6508 20.1054 12.1729 20.1056 12.7168C20.1056 13.2608 19.8832 13.7826 19.4884 14.1673C19.0935 14.552 18.5584 14.7689 18.0001 14.7689C17.8504 14.7689 17.7028 14.7509 17.5587 14.7207C17.5345 13.9423 17.2492 13.1988 16.7501 12.6048L16.5131 12.3483C16.367 12.206 16.2081 12.0795 16.0417 11.9655C16.1468 11.7059 16.3055 11.4672 16.5118 11.2663C16.9066 10.8819 17.4419 10.666 18.0001 10.666Z" fill="#19969F"/>
</g>
<g style="mix-blend-mode:multiply">
<path fill-rule="evenodd" clip-rule="evenodd" d="M11.9258 17.9576C11.2382 17.9576 10.5788 18.2237 10.0926 18.6975C9.6064 19.1712 9.33325 19.8137 9.33325 20.4837C9.33325 20.8857 9.49714 21.2712 9.78886 21.5554C10.0806 21.8397 10.4762 21.9993 10.8888 21.9993H17.111C17.5236 21.9993 17.9193 21.8397 18.211 21.5554C18.5027 21.2712 18.6666 20.8857 18.6666 20.4837C18.6666 19.8137 18.3934 19.1712 17.9072 18.6975C17.421 18.2237 16.7616 17.9576 16.074 17.9576H11.9258Z" fill="#19969F"/>
<path d="M12.2632 13.3669C11.8026 13.8157 11.5438 14.4245 11.5438 15.0592C11.5438 15.6939 11.8026 16.3026 12.2632 16.7514C12.7238 17.2002 13.3485 17.4523 13.9999 17.4523C14.6514 17.4523 15.2761 17.2002 15.7367 16.7514C16.1973 16.3026 16.4561 15.6939 16.4561 15.0592C16.4561 14.4245 16.1973 13.8157 15.7367 13.3669C15.2761 12.9181 14.6514 12.666 13.9999 12.666C13.3485 12.666 12.7238 12.9181 12.2632 13.3669Z" fill="#19969F"/>
</g>
</g>
<defs>
<clipPath id="clip0_19610_125415">
<rect width="32" height="32" fill="white"/>
</clipPath>
</defs>
</svg>
