<svg width="32" height="32" viewBox="0 0 32 32" fill="none" xmlns="http://www.w3.org/2000/svg">
<rect x="6.66675" y="5.33325" width="18.6667" height="22.6667" rx="2" fill="#8C97C8"/>
<g style="mix-blend-mode:multiply">
<ellipse cx="16.0001" cy="17.3333" rx="5.33333" ry="5.33333" fill="#5B658C"/>
</g>
<path d="M16.0442 14.667C16.4093 14.667 16.7053 14.963 16.7053 15.3281V16.6494H18.0276C18.3926 16.6494 18.6886 16.9456 18.6887 17.3105C18.6887 17.6757 18.3927 17.9717 18.0276 17.9717H16.7053V19.2949C16.7051 19.6599 16.4092 19.9561 16.0442 19.9561C15.6794 19.9558 15.3833 19.6597 15.3831 19.2949V17.9717H14.0618C13.6966 17.9717 13.4006 17.6757 13.4006 17.3105C13.4008 16.9456 13.6967 16.6494 14.0618 16.6494H15.3831V15.3281C15.3831 14.9632 15.6793 14.6672 16.0442 14.667Z" fill="white"/>
<g style="mix-blend-mode:multiply">
<rect x="12" y="4" width="8" height="2.66667" rx="1" fill="#5B658C"/>
</g>
</svg>
