<svg width="24" height="24" viewBox="0 0 24 24" fill="none" xmlns="http://www.w3.org/2000/svg">
<g clip-path="url(#clip0_10620_47847)">
<path d="M12 2C17.5228 2 22 6.47715 22 12C22 17.5228 17.5228 22 12 22C6.47715 22 2 17.5228 2 12C2 6.47715 6.47715 2 12 2ZM11.9004 7.18164C9.4502 7.18164 7.59668 8.9082 7.59668 11.9043C7.59668 14.8877 9.4502 16.627 11.9004 16.627C12.4717 16.627 13.0176 16.5317 13.5127 16.335L14.249 17.2617H16.0391L14.7314 15.5986C15.6328 14.8052 16.1914 13.542 16.1914 11.9043C16.1914 8.9082 14.3252 7.18164 11.9004 7.18164ZM11.9004 8.87012C13.3223 8.87012 14.249 9.93652 14.249 11.9043C14.249 12.9263 14.0015 13.7007 13.5635 14.2148L12.8652 13.3135H11.2275L12.4336 14.8877C12.2622 14.9194 12.0845 14.9385 11.9004 14.9385C10.4785 14.9385 9.53906 13.8721 9.53906 11.9043C9.53906 9.93652 10.4785 8.87012 11.9004 8.87012Z" fill="#33363D"/>
</g>
<defs>
<clipPath id="clip0_10620_47847">
<rect width="24" height="24" fill="white"/>
</clipPath>
</defs>
</svg>
