<svg width="24" height="24" viewBox="0 0 24 24" fill="none" xmlns="http://www.w3.org/2000/svg">
<path d="M16.155 3.00078C17.6999 3.06475 19.1636 3.70912 20.2234 4.80449C21.2807 5.89759 21.8497 7.35204 21.7947 8.85332C21.7902 10.2721 21.1937 11.7051 20.3865 13.0115C19.5692 14.334 18.4886 15.603 17.4177 16.7039C15.2799 18.9017 13.0967 20.5163 12.8796 20.6629L12.446 20.9559C12.1758 21.1379 11.8217 21.1379 11.5515 20.9559L11.1179 20.6629L11.116 20.6619C10.8995 20.5148 8.7174 18.9003 6.57982 16.7029C5.50905 15.6022 4.42827 14.3338 3.61107 13.0115C2.8039 11.7053 2.20631 10.272 2.20189 8.85332C2.14689 7.35227 2.71611 5.89752 3.77318 4.80449C4.8329 3.70895 6.29763 3.06487 7.84251 3.00078C7.85726 3.00017 7.87268 2.9996 7.88743 2.9998C8.86495 3.01433 9.82395 3.27475 10.6667 3.75664C11.1584 4.03787 11.5638 4.46649 11.8826 4.8748C11.9219 4.92517 11.961 4.9761 11.9988 5.02715C12.0366 4.97605 12.0756 4.92521 12.115 4.8748C12.4337 4.46648 12.8391 4.03793 13.3308 3.75664C14.1736 3.27467 15.1326 3.01439 16.1101 2.9998C16.1249 2.99958 16.1402 3.00017 16.155 3.00078ZM12.0046 9.20488C11.563 9.20506 11.205 9.56309 11.2048 10.0047V11.2H9.99974C9.55805 11.2001 9.20001 11.5581 9.19993 11.9998C9.19993 12.4416 9.55801 12.7995 9.99974 12.7996H11.2048V14.0047L11.2087 14.0867C11.2498 14.4899 11.5906 14.8043 12.0046 14.8045C12.4188 14.8045 12.7594 14.49 12.8005 14.0867L12.8044 14.0047V12.7996H13.9997L14.0818 12.7957C14.4851 12.7546 14.7995 12.4139 14.7995 11.9998C14.7995 11.5857 14.485 11.245 14.0818 11.2039L13.9997 11.2H12.8044V10.0047C12.8043 9.56298 12.4464 9.20488 12.0046 9.20488Z" fill="#6D7882"/>
</svg>
