<svg width="25" height="25" viewBox="0 0 25 25" fill="none" xmlns="http://www.w3.org/2000/svg">
<g clip-path="url(#clip0_14126_206757)">
<g clip-path="url(#clip1_14126_206757)">
<path fill-rule="evenodd" clip-rule="evenodd" d="M12.831 2.30122L19.4421 5.07512C19.8022 5.22616 20.1125 5.4966 20.3316 5.85029C20.5507 6.20397 20.668 6.62405 20.668 7.05437V12.7216C20.668 14.4878 20.2285 16.2192 19.3986 17.7217C18.5687 19.2241 17.3813 20.4383 15.9694 21.2282L12.8017 22.9993C12.6049 23.1094 12.388 23.1667 12.168 23.1667C11.948 23.1667 11.731 23.1094 11.5342 22.9993L8.36658 21.2272C6.95467 20.4373 5.76725 19.2231 4.93737 17.7206C4.10749 16.2181 3.66794 14.4868 3.66797 12.7205V7.05543C3.66773 6.62493 3.78499 6.20462 4.00407 5.85072C4.22314 5.49683 4.53358 5.22623 4.89386 5.07512L11.505 2.30122C11.9324 2.12193 12.4035 2.12193 12.831 2.30122ZM16.968 12.6667C16.968 13.1086 16.6098 13.4667 16.168 13.4667H12.968V16.6667C12.968 17.1086 12.6098 17.4667 12.168 17.4667C11.7261 17.4667 11.368 17.1086 11.368 16.6667V13.4667H8.16797C7.72614 13.4667 7.36797 13.1086 7.36797 12.6667C7.36797 12.2249 7.72614 11.8667 8.16797 11.8667H11.368V8.66675C11.368 8.22492 11.7261 7.86675 12.168 7.86675C12.6098 7.86675 12.968 8.22492 12.968 8.66675V11.8667H16.168C16.6098 11.8667 16.968 12.2249 16.968 12.6667Z" fill="#6D7882"/>
</g>
</g>
<defs>
<clipPath id="clip0_14126_206757">
<rect width="24" height="24" fill="white" transform="translate(0.167969 0.666748)"/>
</clipPath>
<clipPath id="clip1_14126_206757">
<rect width="24" height="24" fill="white" transform="translate(0.167969 0.666748)"/>
</clipPath>
</defs>
</svg>
