<svg width="24" height="24" viewBox="0 0 24 24" fill="none" xmlns="http://www.w3.org/2000/svg">
<path d="M11.0732 21.5H5.7998V13.4404C6.09271 13.322 6.39636 13.2304 6.70703 13.166L11.0732 21.5Z" fill="#6D7882"/>
<path d="M15.5 18.7998C16.4389 18.7998 17.2002 19.5611 17.2002 20.5C17.2002 20.8742 17.0779 21.2192 16.873 21.5H12.8799L11.4648 18.7998H15.5Z" fill="#6D7882"/>
<path d="M16.2227 13.0557C17.6223 13.0558 18.9644 13.6119 19.9541 14.6016C20.9438 15.5913 21.4999 16.9334 21.5 18.333C21.5 19.1729 21.1661 19.9784 20.5723 20.5723C20.0536 21.0909 19.3738 21.4106 18.6504 21.4834C18.7472 21.1728 18.7998 20.8425 18.7998 20.5C18.7998 18.6775 17.3225 17.2002 15.5 17.2002H10.627L8.45605 13.0557H16.2227Z" fill="#6D7882"/>
<path d="M4.2002 21.1387C3.91807 20.9912 3.65699 20.8015 3.42773 20.5723C2.83387 19.9784 2.5 19.1729 2.5 18.333C2.50009 16.9334 3.05623 15.5913 4.0459 14.6016C4.09629 14.5512 4.14801 14.5022 4.2002 14.4541V21.1387Z" fill="#6D7882"/>
<path d="M12 2.5C13.1197 2.5 14.1936 2.94468 14.9854 3.73633C15.7772 4.52815 16.2227 5.60285 16.2227 6.72266C16.2225 7.8423 15.7771 8.91629 14.9854 9.70801C14.1936 10.4997 13.1197 10.9443 12 10.9443C10.8803 10.9443 9.80645 10.4997 9.01465 9.70801C8.22293 8.91629 7.77746 7.8423 7.77734 6.72266C7.77734 5.60285 8.22283 4.52815 9.01465 3.73633C9.80644 2.94468 10.8803 2.5 12 2.5Z" fill="#6D7882"/>
</svg>
