<svg width="32" height="32" viewBox="0 0 32 32" fill="none" xmlns="http://www.w3.org/2000/svg">
<g clip-path="url(#clip0_19610_212478)">
<path d="M6.66797 8.00065C6.66797 6.52789 7.86188 5.33398 9.33464 5.33398H22.668C24.1407 5.33398 25.3346 6.52789 25.3346 8.00065V25.334C25.3346 26.8067 24.1407 28.0007 22.668 28.0007H9.33464C7.86188 28.0007 6.66797 26.8067 6.66797 25.334V8.00065Z" fill="#FBB4C1"/>
<g style="mix-blend-mode:multiply">
<circle cx="12" cy="18" r="2" fill="#D63D4A"/>
</g>
<g style="mix-blend-mode:multiply">
<circle cx="12" cy="23.334" r="2" fill="#D63D4A"/>
</g>
<g style="mix-blend-mode:multiply">
<circle cx="20" cy="18" r="2" fill="#D63D4A"/>
</g>
<g style="mix-blend-mode:multiply">
<circle cx="20" cy="23.334" r="2" fill="#D63D4A"/>
</g>
<g style="mix-blend-mode:multiply">
<path d="M9.33203 9.33333C9.33203 8.59695 9.92898 8 10.6654 8H21.332C22.0684 8 22.6654 8.59695 22.6654 9.33333V12C22.6654 12.7364 22.0684 13.3333 21.332 13.3333H10.6654C9.92899 13.3333 9.33203 12.7364 9.33203 12V9.33333Z" fill="#D63D4A"/>
</g>
<path d="M10 9.66797V12.668C10 11.068 12 8.66797 14 8.66797H11C10.2 8.66797 10 9.33464 10 9.66797Z" fill="white"/>
</g>
<defs>
<clipPath id="clip0_19610_212478">
<rect width="32" height="32" fill="white"/>
</clipPath>
</defs>
</svg>
