<svg width="32" height="33" viewBox="0 0 32 33" fill="none" xmlns="http://www.w3.org/2000/svg">
<g style="mix-blend-mode:multiply">
<path d="M25.9633 6.66683L6.36746 6.66669C4.4149 6.66669 2.83203 8.20997 2.83203 10.1137V23.2195C2.83203 25.1233 4.4149 26.6665 6.36746 26.6665L25.9633 26.6667C27.9158 26.6667 29.4987 25.1234 29.4987 23.2197V10.1139C29.4987 8.21012 27.9158 6.66683 25.9633 6.66683Z" fill="#8C97C8"/>
<g style="mix-blend-mode:multiply">
<path d="M6.27908 6.66681L26.0517 6.66681C27.9548 6.66681 29.4987 8.2107 29.4987 10.1138V11.9624H2.83203V10.1138C2.83203 8.2107 4.37593 6.66681 6.27908 6.66681Z" fill="#5B658C"/>
</g>
<path d="M14.088 9.34286C14.088 9.90097 13.6276 10.3522 13.0581 10.3522C12.4886 10.3522 12.0282 9.90097 12.0282 9.34286C12.0282 8.78475 12.4908 8.33356 13.0581 8.33356C13.6254 8.33356 14.088 8.78689 14.088 9.34286Z" fill="#8C97C8"/>
<path d="M9.82657 10.3522C10.3954 10.3522 10.8565 9.90028 10.8565 9.34286C10.8565 8.78544 10.3954 8.33356 9.82657 8.33356C9.25777 8.33356 8.79667 8.78544 8.79667 9.34286C8.79667 9.90028 9.25777 10.3522 9.82657 10.3522Z" fill="#8C97C8"/>
<path d="M6.60217 10.3521C7.17097 10.3521 7.63208 9.90022 7.63208 9.3428C7.63208 8.78538 7.17097 8.3335 6.60217 8.3335C6.03337 8.3335 5.57227 8.78538 5.57227 9.3428C5.57227 9.90022 6.03337 10.3521 6.60217 10.3521Z" fill="#8C97C8"/>
<path d="M16.541 23.57C16.3418 23.7976 15.9876 23.7976 15.7884 23.57L12.2236 19.4959C11.9408 19.1726 12.1704 18.6667 12.5999 18.6667H14.1647V15.1667C14.1647 14.8905 14.3886 14.6667 14.6647 14.6667H17.6647C17.9409 14.6667 18.1647 14.8905 18.1647 15.1667V18.6667H19.7295C20.1591 18.6667 20.3887 19.1726 20.1058 19.4959L16.541 23.57Z" fill="white"/>
</g>
</svg>
