<svg width="25" height="25" viewBox="0 0 25 25" fill="none" xmlns="http://www.w3.org/2000/svg">
<g clip-path="url(#clip0_10831_302380)">
<path fill-rule="evenodd" clip-rule="evenodd" d="M12.168 22.1667C17.6908 22.1667 22.168 17.6896 22.168 12.1667C22.168 6.6439 17.6908 2.16675 12.168 2.16675C6.64512 2.16675 2.16797 6.6439 2.16797 12.1667C2.16797 17.6896 6.64512 22.1667 12.168 22.1667ZM16.4231 9.93108C16.569 9.51405 16.3493 9.05767 15.9323 8.91171C15.5152 8.76575 15.0589 8.98549 14.9129 9.40251L13.918 12.2451L12.9231 9.40251C12.8108 9.08165 12.5079 8.8668 12.168 8.8668C11.828 8.8668 11.5252 9.08165 11.4129 9.40251L10.418 12.2451L9.42307 9.40251C9.27711 8.98549 8.82072 8.76575 8.4037 8.91171C7.98668 9.05767 7.76694 9.51405 7.91289 9.93108L8.41538 11.3667H7.66797C7.22614 11.3667 6.86797 11.7249 6.86797 12.1667C6.86797 12.6086 7.22614 12.9667 7.66797 12.9667H8.97538L9.66289 14.9311C9.7752 15.2519 10.078 15.4668 10.418 15.4668C10.7579 15.4668 11.0608 15.2519 11.1731 14.9311L12.168 12.0885L13.1629 14.9311C13.2752 15.2519 13.578 15.4668 13.918 15.4668C14.2579 15.4668 14.5608 15.2519 14.6731 14.9311L15.3606 12.9668H16.668C17.1098 12.9668 17.468 12.6086 17.468 12.1668C17.468 11.725 17.1098 11.3668 16.668 11.3668H15.9206L16.4231 9.93108Z" fill="#6D7882"/>
</g>
<defs>
<clipPath id="clip0_10831_302380">
<rect width="24" height="24" fill="white" transform="translate(0.167969 0.166748)"/>
</clipPath>
</defs>
</svg>
