<svg width="32" height="32" viewBox="0 0 32 32" fill="none" xmlns="http://www.w3.org/2000/svg">
<g clip-path="url(#clip0_100_3379)">
<path d="M27.8333 15.8334C27.8333 22.2767 22.61 27.5001 16.1667 27.5001C9.72334 27.5001 4.5 22.2767 4.5 15.8334C4.5 9.39009 9.72334 4.16675 16.1667 4.16675C22.61 4.16675 27.8333 9.39009 27.8333 15.8334Z" fill="#8C97C8"/>
<g style="mix-blend-mode:multiply">
<path d="M24.5 15.8334C24.5 11.231 20.769 7.50008 16.1667 7.50008C11.5643 7.50008 7.83333 11.231 7.83333 15.8334C7.83333 16.7539 7.08714 17.5001 6.16667 17.5001C5.24619 17.5001 4.5 16.7539 4.5 15.8334C4.5 9.39009 9.72334 4.16675 16.1667 4.16675C22.61 4.16675 27.8333 9.39009 27.8333 15.8334C27.8333 16.7539 27.0871 17.5001 26.1667 17.5001C25.2462 17.5001 24.5 16.7539 24.5 15.8334Z" fill="#D63D4A"/>
<path d="M24.5 15.8334C24.5 11.231 20.769 7.50008 16.1667 7.50008C11.5643 7.50008 7.83333 11.231 7.83333 15.8334C7.83333 16.7539 7.08714 17.5001 6.16667 17.5001C5.24619 17.5001 4.5 16.7539 4.5 15.8334C4.5 9.39009 9.72334 4.16675 16.1667 4.16675C22.61 4.16675 27.8333 9.39009 27.8333 15.8334C27.8333 16.7539 27.0871 17.5001 26.1667 17.5001C25.2462 17.5001 24.5 16.7539 24.5 15.8334Z" fill="#5B658C"/>
</g>
<g style="mix-blend-mode:multiply">
<path d="M18.1772 13.1747C18.6326 12.7199 19.3705 12.7197 19.8257 13.1747C20.281 13.6301 20.281 14.3691 19.8257 14.8245L14.1577 20.4924C13.7024 20.9478 12.9633 20.9478 12.508 20.4924C12.0529 20.0372 12.0531 19.2993 12.508 18.844L18.1772 13.1747Z" fill="#5B658C"/>
<path d="M18.8335 18.1669C19.5698 18.1669 20.1667 18.7639 20.1668 19.5002C20.1668 20.2366 19.5699 20.8336 18.8335 20.8336C18.0972 20.8335 17.5002 20.2366 17.5002 19.5002C17.5002 18.764 18.0972 18.167 18.8335 18.1669Z" fill="#5B658C"/>
<path d="M13.5002 12.8336C14.2365 12.8336 14.8334 13.4306 14.8335 14.1669C14.8335 14.9033 14.2365 15.5002 13.5002 15.5002C12.7638 15.5002 12.1668 14.9032 12.1668 14.1669C12.1669 13.4306 12.7639 12.8337 13.5002 12.8336Z" fill="#5B658C"/>
</g>
</g>
<defs>
<clipPath id="clip0_100_3379">
<rect width="32" height="32" fill="white"/>
</clipPath>
</defs>
</svg>
