<svg width="32" height="32" viewBox="0 0 32 32" fill="none" xmlns="http://www.w3.org/2000/svg">
<g clip-path="url(#clip0_19610_187699)">
<path d="M13.8548 13.3913L9.91424 5.51013C9.56734 4.81632 10.0719 4 10.8476 4L19.9925 4C20.7682 4 21.2727 4.81632 20.9258 5.51013L16.9852 13.3913H13.8548Z" fill="#C8A1EF"/>
<path d="M26.8998 19.1301C26.8998 24.139 22.7259 27.9996 18.552 27.9996H12.2912C8.11726 27.9996 3.94336 24.139 3.94336 19.1301C3.94336 12.6511 9.08234 8.69531 15.4216 8.69531C21.7608 8.69531 26.8998 12.6511 26.8998 19.1301Z" fill="#C8A1EF"/>
<g style="mix-blend-mode:multiply">
<path d="M15.495 15.2402C15.7063 15.2402 15.9237 15.2994 16.1055 15.4353C16.2595 15.5503 16.3905 15.7207 16.4659 15.9649L17.5095 19.7099L18.5248 15.8521C18.586 15.6102 18.7224 15.4464 18.8939 15.3485C19.0726 15.2463 19.2964 15.2159 19.5296 15.265C19.7726 15.314 19.9455 15.4391 20.0482 15.6053C20.1502 15.7705 20.1863 15.984 20.1257 16.2285L19.5922 18.124L20.6947 18.1241C20.9148 18.1241 21.1141 18.2127 21.2584 18.356C21.4026 18.4992 21.4919 18.6972 21.4919 18.9158C21.4919 19.1343 21.4026 19.3323 21.2584 19.4755C21.1141 19.6188 20.9148 19.7074 20.6946 19.7074L19.1464 19.7073L18.4984 22.0082C18.4299 22.2573 18.3049 22.433 18.1561 22.5536C17.9776 22.6984 17.7613 22.7649 17.5488 22.771C17.3156 22.7714 17.0935 22.7119 16.9102 22.5751C16.7524 22.4573 16.6199 22.2815 16.5444 22.0255L15.4804 18.0829L14.3774 22.0082C14.3072 22.2634 14.1755 22.442 14.019 22.5631C13.8309 22.7086 13.603 22.7715 13.3855 22.7715C13.1682 22.7715 12.9487 22.712 12.7661 22.575C12.6109 22.4585 12.4795 22.2856 12.4042 22.0361L11.7562 19.7073L10.1468 19.7074C9.92668 19.7074 9.72738 19.6188 9.58311 19.4755C9.43884 19.3323 9.34961 19.1343 9.34961 18.9158C9.34961 18.6972 9.43884 18.4992 9.58311 18.356C9.72738 18.2127 9.92668 18.1241 10.1468 18.1241L11.3159 18.124L10.8139 16.3189C10.7419 16.0647 10.7724 15.847 10.8675 15.6747C10.9679 15.4929 11.145 15.3544 11.3881 15.2858C11.6418 15.2241 11.8774 15.2255 12.0663 15.3084C12.2469 15.3877 12.3977 15.5364 12.4758 15.7999L13.466 19.7061L14.5029 16.0043C14.5736 15.7468 14.7045 15.5676 14.861 15.4464C15.0464 15.303 15.2719 15.2402 15.495 15.2402Z" fill="#9548E5"/>
</g>
<g style="mix-blend-mode:multiply">
<path d="M9.68164 8.41124C9.68164 7.99211 10.0214 7.65234 10.4405 7.65234H20.401C20.8201 7.65234 21.1599 7.99211 21.1599 8.41124V8.9804C21.1599 9.39953 20.8201 9.7393 20.401 9.7393H10.4405C10.0214 9.7393 9.68164 9.39953 9.68164 8.9804V8.41124Z" fill="#C8A1EF"/>
<path d="M9.68164 8.41124C9.68164 7.99211 10.0214 7.65234 10.4405 7.65234H20.401C20.8201 7.65234 21.1599 7.99211 21.1599 8.41124V8.9804C21.1599 9.39953 20.8201 9.7393 20.401 9.7393H10.4405C10.0214 9.7393 9.68164 9.39953 9.68164 8.9804V8.41124Z" fill="#9548E5"/>
</g>
</g>
<defs>
<clipPath id="clip0_19610_187699">
<rect width="32" height="32" fill="white"/>
</clipPath>
</defs>
</svg>
