<svg width="24" height="24" viewBox="0 0 24 24" fill="none" xmlns="http://www.w3.org/2000/svg">
<g clip-path="url(#clip0_100_3692)">
<path fill-rule="evenodd" clip-rule="evenodd" d="M12 2C17.5228 2 22 6.47715 22 12C22 17.5228 17.5228 22 12 22C6.47715 22 2 17.5228 2 12C2 6.47715 6.47715 2 12 2ZM15.6582 8.34082C15.203 7.88613 14.465 7.8861 14.0098 8.34082L8.34082 14.0098C7.8861 14.465 7.88613 15.203 8.34082 15.6582C8.79615 16.1135 9.53588 16.1135 9.99121 15.6582L15.6582 9.99121C16.1135 9.53588 16.1135 8.79615 15.6582 8.34082ZM14.666 13.333C13.9301 13.3333 13.3333 13.9301 13.333 14.666C13.333 15.4022 13.9299 15.9997 14.666 16C15.4024 16 16 15.4024 16 14.666C15.9997 13.9299 15.4022 13.333 14.666 13.333ZM9.33301 8C8.59705 8.00026 8.00026 8.59705 8 9.33301C8 10.0692 8.59689 10.6667 9.33301 10.667C10.0693 10.667 10.667 10.0693 10.667 9.33301C10.6667 8.59689 10.0692 8 9.33301 8Z" fill="#6D7882"/>
</g>
<defs>
<clipPath id="clip0_100_3692">
<rect width="24" height="24" fill="white"/>
</clipPath>
</defs>
</svg>
