<svg width="32" height="32" viewBox="0 0 32 32" fill="none" xmlns="http://www.w3.org/2000/svg">
<path d="M13.8548 13.3913L9.91424 5.51013C9.56734 4.81632 10.0719 4 10.8476 4L19.9925 4C20.7682 4 21.2727 4.81632 20.9258 5.51013L16.9852 13.3913H13.8548Z" fill="#8C97C8"/>
<path d="M26.8986 19.1306C26.8986 24.1394 22.7247 28.0001 18.5508 28.0001H12.2899C8.11604 28.0001 3.94214 24.1394 3.94214 19.1306C3.94214 12.6516 9.08112 8.6958 15.4204 8.6958C21.7596 8.6958 26.8986 12.6516 26.8986 19.1306Z" fill="#8C97C8"/>
<g style="mix-blend-mode:multiply">
<path d="M15.4945 15.241C15.7058 15.241 15.9232 15.3001 16.105 15.436C16.259 15.5511 16.3901 15.7215 16.4654 15.9657L17.509 19.7106L18.5243 15.8528C18.5855 15.6109 18.7219 15.4471 18.8934 15.3492C19.0721 15.2471 19.2959 15.2166 19.5291 15.2657C19.7721 15.3147 19.9451 15.4398 20.0477 15.6061C20.1497 15.7712 20.1858 15.9847 20.1252 16.2292L19.5917 18.1248L20.6942 18.1249C20.9143 18.1249 21.1136 18.2135 21.2579 18.3567C21.4022 18.5 21.4914 18.6979 21.4914 18.9165C21.4914 19.1351 21.4022 19.333 21.2579 19.4762C21.1136 19.6195 20.9143 19.7081 20.6941 19.7081L19.1459 19.708L18.4979 22.009C18.4294 22.258 18.3044 22.4337 18.1556 22.5544C17.9772 22.6991 17.7608 22.7657 17.5483 22.7718C17.3151 22.7721 17.093 22.7126 16.9097 22.5758C16.7519 22.458 16.6194 22.2822 16.5439 22.0262L15.4799 18.0836L14.377 22.0089C14.3067 22.2641 14.175 22.4427 14.0185 22.5638C13.8304 22.7094 13.6025 22.7722 13.385 22.7722C13.1677 22.7722 12.9482 22.7127 12.7656 22.5757C12.6104 22.4593 12.479 22.2864 12.4037 22.0368L11.7557 19.708L10.1463 19.7081C9.92619 19.7081 9.72689 19.6195 9.58262 19.4762C9.43835 19.333 9.34912 19.1351 9.34912 18.9165C9.34912 18.6979 9.43835 18.5 9.58262 18.3567C9.72689 18.2135 9.92619 18.1249 10.1463 18.1249L11.3154 18.1248L10.8135 16.3197C10.7414 16.0654 10.7719 15.8478 10.8671 15.6754C10.9674 15.4936 11.1445 15.3551 11.3876 15.2866C11.6413 15.2248 11.8769 15.2262 12.0658 15.3091C12.2464 15.3885 12.3972 15.5372 12.4753 15.8007L13.4655 19.7068L14.5024 16.005C14.5731 15.7475 14.704 15.5683 14.8605 15.4472C15.0459 15.3038 15.2714 15.241 15.4945 15.241Z" fill="#5B658C"/>
</g>
<g style="mix-blend-mode:multiply">
<path d="M9.68115 8.41124C9.68115 7.99211 10.0209 7.65234 10.44 7.65234H20.4005C20.8196 7.65234 21.1594 7.99211 21.1594 8.41124V8.9804C21.1594 9.39953 20.8196 9.7393 20.4005 9.7393H10.44C10.0209 9.7393 9.68115 9.39953 9.68115 8.9804V8.41124Z" fill="#5B658C"/>
</g>
</svg>
