<svg width="32" height="33" viewBox="0 0 32 33" fill="none" xmlns="http://www.w3.org/2000/svg">
<g style="mix-blend-mode:multiply">
<path fill-rule="evenodd" clip-rule="evenodd" d="M10.3862 5.33337C9.95116 5.33353 9.52387 5.4579 9.14764 5.6939C8.77142 5.92989 8.45962 6.26913 8.24383 6.67723L3.8258 15.0297C3.61233 15.4328 3.50003 15.8891 3.5 16.3535V22.3502C3.50003 22.7639 3.58917 23.172 3.76039 23.5421L5.1401 26.5231C5.34503 26.9661 5.66013 27.3387 6.05009 27.5992C6.44004 27.8596 6.88943 27.9976 7.34788 27.9976H8.43635C9.09095 27.9976 9.71874 27.7167 10.1816 27.2166C10.6445 26.7166 10.9045 26.0384 10.9045 25.3312H20.7772C20.7772 26.0384 21.0373 26.7166 21.5001 27.2166C21.963 27.7167 22.5908 27.9976 23.2454 27.9976H24.3339C24.7923 27.9976 25.2417 27.8596 25.6317 27.5992C26.0216 27.3387 26.3367 26.9661 26.5416 26.5231L27.9213 23.5421C28.0929 23.1728 28.1817 22.7635 28.1817 22.3502V16.3535C28.1817 15.8891 28.0694 15.4328 27.8559 15.0297L23.4379 6.67723C23.2221 6.26913 22.9103 5.92989 22.5341 5.6939C22.1579 5.4579 21.7306 5.33353 21.2955 5.33337H10.3862Z" fill="#8C97C8"/>
<g style="mix-blend-mode:multiply">
<path d="M6.0432 27.6016C5.65325 27.3412 5.33814 26.9686 5.13321 26.5255L4.44336 25.035H27.2246L26.5348 26.5255C26.3298 26.9686 26.0147 27.3412 25.6248 27.6016C25.2348 27.8621 24.7854 28 24.327 28H23.2385C22.5839 28 21.9561 27.7191 21.4932 27.2191C21.0304 26.719 20.7703 26.0408 20.7703 25.3337H10.8976C10.8976 26.0408 10.6376 26.719 10.1747 27.2191C9.71185 27.7191 9.08406 28 8.42946 28H7.341C6.88254 28 6.43315 27.8621 6.0432 27.6016Z" fill="#5B658C"/>
</g>
<g style="mix-blend-mode:multiply">
<path d="M7.43169 13.6728L9.69876 8.57189C9.83521 8.26487 10.1397 8.06702 10.4756 8.06702H21.4617C21.7976 8.06702 22.1021 8.26487 22.2385 8.57189L24.5056 13.6728C24.7555 14.235 24.3439 14.8682 23.7287 14.8682H8.20857C7.59335 14.8682 7.18183 14.235 7.43169 13.6728Z" fill="#5B658C"/>
</g>
<ellipse cx="9.7335" cy="20.0683" rx="1.7003" ry="1.7003" fill="white"/>
<circle cx="22.2023" cy="20.0683" r="1.7003" fill="white"/>
<path d="M18.873 23.9063C18.873 26.6472 22.4932 28.6667 23.8508 28.6667C25.2084 28.6667 28.8286 26.6472 28.8286 23.9063C28.8286 22.4636 28.8286 21.1579 28.8286 20.2447C28.8286 19.4549 28.3185 18.7565 27.5673 18.5171L24.6741 17.5948C24.1385 17.4241 23.5632 17.4241 23.0276 17.5948L20.1343 18.5171C19.3832 18.7565 18.873 19.4549 18.873 20.2447C18.873 21.1579 18.873 22.4636 18.873 23.9063Z" fill="#5B658C"/>
<path d="M21.1836 22.2563L23.3134 24.5145L26.5169 21.4669" stroke="white" stroke-width="0.914286" stroke-linecap="round" stroke-linejoin="round"/>
</g>
</svg>
