<svg width="41" height="40" viewBox="0 0 41 40" fill="none" xmlns="http://www.w3.org/2000/svg">
<path fill-rule="evenodd" clip-rule="evenodd" d="M20.832 31.5189C21.6791 31.5189 22.1371 32.0025 22.9441 32.9585L22.9885 33.0107C23.7155 33.8713 24.8116 35.17 26.7947 34.9816C27.9774 34.8681 29.1068 34.0461 30.0517 33.0743C31.0366 32.0616 31.9992 30.7083 32.8418 29.2006C34.5159 26.2034 35.832 22.3864 35.832 19.0736V18.9714C35.832 16.0877 35.832 10.2182 30.2162 7.46163C28.1242 6.43985 26.3189 6.57381 24.7449 6.92349C24.2753 7.0335 23.8083 7.15463 23.3443 7.28679C23.0819 7.35945 22.8411 7.42454 22.6217 7.48206C22.0384 7.64796 21.4373 7.73948 20.832 7.75454C20.2696 7.75454 19.6893 7.64782 19.0312 7.48206C18.8089 7.42757 18.5644 7.36323 18.2976 7.28906C17.8485 7.17099 17.3638 7.03929 16.9125 6.93938C15.3518 6.59425 13.5599 6.45801 11.5101 7.4639C5.82981 10.2522 5.83203 16.0877 5.83203 18.9805V19.0713C5.83203 22.4023 7.24377 26.2329 8.95564 29.221C9.81825 30.7287 10.7876 32.0775 11.7502 33.0811C12.2304 33.5829 12.7284 34.0188 13.2287 34.3458C13.72 34.666 14.278 34.9248 14.8672 34.9816C16.8503 35.17 17.9485 33.869 18.6755 33.0107L18.72 32.9585C19.527 32.0048 19.985 31.5189 20.832 31.5189Z" fill="#FA967C"/>
<mask id="mask0_10473_260092" style="mask-type:alpha" maskUnits="userSpaceOnUse" x="5" y="6" width="31" height="29">
<path fill-rule="evenodd" clip-rule="evenodd" d="M20.832 31.5189C21.6791 31.5189 22.1371 32.0025 22.9441 32.9585L22.9885 33.0107C23.7155 33.8713 24.8116 35.17 26.7947 34.9816C27.9774 34.8681 29.1068 34.0461 30.0517 33.0743C31.0366 32.0616 31.9992 30.7083 32.8418 29.2006C34.5159 26.2034 35.832 22.3864 35.832 19.0736V18.9714C35.832 16.0877 35.832 10.2182 30.2162 7.46163C28.1242 6.43985 26.3189 6.57381 24.7449 6.92349C24.2753 7.0335 23.8083 7.15463 23.3443 7.28679C23.0819 7.35945 22.8411 7.42454 22.6217 7.48206C22.0384 7.64796 21.4373 7.73948 20.832 7.75454C20.2696 7.75454 19.6893 7.64782 19.0312 7.48206C18.8089 7.42757 18.5644 7.36323 18.2976 7.28906C17.8485 7.17099 17.3638 7.03929 16.9125 6.93938C15.3518 6.59425 13.5599 6.45801 11.5101 7.4639C5.82981 10.2522 5.83203 16.0877 5.83203 18.9805V19.0713C5.83203 22.4023 7.24377 26.2329 8.95564 29.221C9.81825 30.7287 10.7876 32.0775 11.7502 33.0811C12.2304 33.5829 12.7284 34.0188 13.2287 34.3458C13.72 34.666 14.278 34.9248 14.8672 34.9816C16.8503 35.17 17.9485 33.869 18.6755 33.0107L18.72 32.9585C19.527 32.0048 19.985 31.5189 20.832 31.5189Z" fill="#D63D4A"/>
</mask>
<g mask="url(#mask0_10473_260092)">
<ellipse cx="20.8307" cy="7.50002" rx="6.66667" ry="5.83333" fill="#D63D4A"/>
</g>
</svg>
