<svg width="24" height="24" viewBox="0 0 24 24" fill="none" xmlns="http://www.w3.org/2000/svg">
<path fill-rule="evenodd" clip-rule="evenodd" d="M19 3.5C20.6569 3.5 22 4.92709 22 6.6875V17.3125C22 19.0729 20.6569 20.5 19 20.5H5C3.34315 20.5 2 19.0729 2 17.3125V6.6875C2 4.92709 3.34315 3.5 5 3.5H19ZM3.75 9.5C3.33579 9.5 3 9.83579 3 10.25C3 10.6642 3.33579 11 3.75 11H20.25C20.6642 11 21 10.6642 21 10.25C21 9.83579 20.6642 9.5 20.25 9.5H3.75ZM5 5.5C4.44772 5.5 4 5.94772 4 6.5C4 7.05228 4.44772 7.5 5 7.5C5.55228 7.5 6 7.05228 6 6.5C6 5.94772 5.55228 5.5 5 5.5ZM8 5.5C7.44772 5.5 7 5.94772 7 6.5C7 7.05228 7.44772 7.5 8 7.5C8.55228 7.5 9 7.05228 9 6.5C9 5.94772 8.55228 5.5 8 5.5ZM11 5.5C10.4477 5.5 10 5.94772 10 6.5C10 7.05228 10.4477 7.5 11 7.5C11.5523 7.5 12 7.05228 12 6.5C12 5.94772 11.5523 5.5 11 5.5Z" fill="#6D7882"/>
</svg>
