<svg width="32" height="32" viewBox="0 0 32 32" fill="none" xmlns="http://www.w3.org/2000/svg">
<g clip-path="url(#clip0_19610_178963)">
<path d="M6.66602 7.33399C6.66602 6.22942 7.56145 5.33398 8.66602 5.33398H23.3327C24.4373 5.33398 25.3327 6.22941 25.3327 7.33398V24.6673C25.3327 25.7719 24.4373 26.6673 23.3327 26.6673H8.66601C7.56144 26.6673 6.66602 25.7719 6.66602 24.6673V7.33399Z" fill="#75D0D7"/>
<path d="M12 6.40065C12 5.81155 12.4776 5.33398 13.0667 5.33398H18.9333C19.5224 5.33398 20 5.81155 20 6.40065C20 6.98975 19.5224 7.46732 18.9333 7.46732H13.0667C12.4776 7.46732 12 6.98975 12 6.40065Z" fill="white"/>
<path d="M13.0658 5.33333L12.9564 5.33854C12.4189 5.39341 11.9995 5.84776 11.9993 6.39974C11.9993 6.95182 12.4188 7.40604 12.9564 7.46094L13.0658 7.46615H18.9329L19.0423 7.46094C19.544 7.4097 19.9432 7.01092 19.9941 6.50911L19.9993 6.39974C19.9992 5.84776 19.5798 5.39341 19.0423 5.33854L18.9329 5.33333V4C20.2582 4.00014 21.3325 5.07446 21.3327 6.39974C21.3327 7.72514 20.2583 8.79934 18.9329 8.79948H13.0658C11.8234 8.79935 10.8022 7.85572 10.679 6.64583L10.666 6.39974L10.679 6.15495C10.8018 4.94469 11.8231 4.00013 13.0658 4V5.33333ZM18.9329 4V5.33333H13.0658V4H18.9329Z" fill="#75D0D7"/>
<path fill-rule="evenodd" clip-rule="evenodd" d="M9.33203 22.7324C9.33203 22.1801 9.80959 21.7324 10.3987 21.7324H21.5987C22.1878 21.7324 22.6654 22.1801 22.6654 22.7324C22.6654 23.2847 22.1878 23.7324 21.5987 23.7324H10.3987C9.80959 23.7324 9.33203 23.2847 9.33203 22.7324Z" fill="#0B7A86"/>
<path d="M9.33203 18.7324C9.33203 18.1801 9.80959 17.7324 10.3987 17.7324H21.5987C22.1878 17.7324 22.6654 18.1801 22.6654 18.7324C22.6654 19.2847 22.1878 19.7324 21.5987 19.7324H10.3987C9.80959 19.7324 9.33203 19.2847 9.33203 18.7324Z" fill="#0B7A86"/>
<path d="M12.667 9.66602C13.1272 9.66602 13.5 10.0388 13.5 10.499V12.165H15.167C15.6271 12.1651 15.9999 12.538 16 12.998C16 13.4582 15.6271 13.831 15.167 13.8311H13.5V15.499C13.4998 15.959 13.1271 16.332 12.667 16.332C12.2069 16.332 11.8342 15.959 11.834 15.499V13.8311H10.167C9.70687 13.831 9.33398 13.4582 9.33398 12.998C9.33409 12.538 9.70694 12.1651 10.167 12.165H11.834V10.499C11.834 10.0388 12.2068 9.66602 12.667 9.66602Z" fill="#0B7A86"/>
</g>
<defs>
<clipPath id="clip0_19610_178963">
<rect width="32" height="32" fill="white"/>
</clipPath>
</defs>
</svg>
