<svg width="32" height="32" viewBox="0 0 32 32" fill="none" xmlns="http://www.w3.org/2000/svg">
<g clip-path="url(#clip0_19610_209932)">
<g style="mix-blend-mode:multiply">
<path d="M24.8902 7.33399C27.3448 7.33399 29.3346 9.09343 29.3346 11.2638V22.0708C29.3346 24.2412 27.3448 26.0007 24.8902 26.0007H7.11241C4.65781 26.0007 2.66797 24.2412 2.66797 22.0708L2.66797 11.2638C2.66797 9.09343 4.65781 7.33398 7.11241 7.33398L24.8902 7.33399Z" fill="#75D0D7"/>
<g style="mix-blend-mode:multiply">
<path d="M8 7.33333C8 6.59695 8.59695 6 9.33333 6H22.6667C23.403 6 24 6.59695 24 7.33333C24 8.06971 23.403 8.66667 22.6667 8.66667H9.33333C8.59695 8.66667 8 8.06971 8 7.33333Z" fill="#19969F"/>
</g>
<g style="mix-blend-mode:multiply">
<path d="M22.6141 17.017C22.6141 16.3652 22.5178 15.8615 22.3252 15.5059C22.14 15.1504 21.8733 14.9726 21.5252 14.9726C21.1771 14.9726 20.9104 15.1504 20.7252 15.5059C20.5474 15.8615 20.4586 16.3652 20.4586 17.017C20.4586 17.6689 20.5474 18.1763 20.7252 18.5392C20.9104 18.8948 21.1771 19.0725 21.5252 19.0725C21.8733 19.0725 22.14 18.8948 22.3252 18.5392C22.5178 18.1763 22.6141 17.6689 22.6141 17.017ZM24.514 17.017C24.514 17.5874 24.4399 18.0948 24.2918 18.5392C24.1437 18.9836 23.9363 19.3577 23.6696 19.6614C23.4103 19.9577 23.0955 20.1836 22.7252 20.3392C22.3622 20.4947 21.9659 20.5725 21.5363 20.5725C21.0993 20.5725 20.6956 20.4947 20.3252 20.3392C19.9623 20.1836 19.6475 19.9577 19.3808 19.6614C19.1215 19.3577 18.9178 18.9836 18.7697 18.5392C18.629 18.0948 18.5586 17.5874 18.5586 17.017C18.5586 16.4467 18.629 15.943 18.7697 15.5059C18.9178 15.0615 19.1215 14.6911 19.3808 14.3949C19.6475 14.0912 19.9623 13.8615 20.3252 13.706C20.6956 13.5504 21.0993 13.4727 21.5363 13.4727C21.9659 13.4727 22.3622 13.5504 22.7252 13.706C23.0955 13.8615 23.4103 14.0912 23.6696 14.3949C23.9363 14.6911 24.1437 15.0615 24.2918 15.5059C24.4399 15.943 24.514 16.4467 24.514 17.017Z" fill="#19969F"/>
<path d="M15.8758 17.017C15.8758 16.3652 15.7795 15.8615 15.5869 15.5059C15.4017 15.1504 15.1351 14.9726 14.7869 14.9726C14.4388 14.9726 14.1721 15.1504 13.9869 15.5059C13.8092 15.8615 13.7203 16.3652 13.7203 17.017C13.7203 17.6689 13.8092 18.1763 13.9869 18.5392C14.1721 18.8948 14.4388 19.0725 14.7869 19.0725C15.1351 19.0725 15.4017 18.8948 15.5869 18.5392C15.7795 18.1763 15.8758 17.6689 15.8758 17.017ZM17.7757 17.017C17.7757 17.5874 17.7017 18.0948 17.5535 18.5392C17.4054 18.9836 17.198 19.3577 16.9313 19.6614C16.6721 19.9577 16.3573 20.1836 15.9869 20.3392C15.6239 20.4947 15.2276 20.5725 14.798 20.5725C14.361 20.5725 13.9573 20.4947 13.5869 20.3392C13.224 20.1836 12.9092 19.9577 12.6425 19.6614C12.3833 19.3577 12.1796 18.9836 12.0314 18.5392C11.8907 18.0948 11.8203 17.5874 11.8203 17.017C11.8203 16.4467 11.8907 15.943 12.0314 15.5059C12.1796 15.0615 12.3833 14.6911 12.6425 14.3949C12.9092 14.0912 13.224 13.8615 13.5869 13.706C13.9573 13.5504 14.361 13.4727 14.798 13.4727C15.2276 13.4727 15.6239 13.5504 15.9869 13.706C16.3573 13.8615 16.6721 14.0912 16.9313 14.3949C17.198 14.6911 17.4054 15.0615 17.5535 15.5059C17.7017 15.943 17.7757 16.4467 17.7757 17.017Z" fill="#19969F"/>
<path d="M9.30859 13.5879C9.73969 13.339 10.2911 13.4869 10.54 13.918C10.6246 14.0646 10.6619 14.2251 10.6592 14.3828V19.6494C10.6591 20.1472 10.2556 20.5508 9.75781 20.5508C9.26021 20.5506 8.8565 20.147 8.85645 19.6494V15.9307L8.83301 15.9443C8.40196 16.1932 7.85049 16.0452 7.60156 15.6143C7.35267 15.1832 7.50054 14.6317 7.93164 14.3828L9.30859 13.5879Z" fill="#19969F"/>
</g>
</g>
</g>
<defs>
<clipPath id="clip0_19610_209932">
<rect width="32" height="32" fill="white"/>
</clipPath>
</defs>
</svg>
