<svg width="32" height="33" viewBox="0 0 32 33" fill="none" xmlns="http://www.w3.org/2000/svg">
<g clip-path="url(#clip0_10831_248246)">
<path d="M15.4222 28.6667H8.16643C7.10556 28.6667 6.08804 28.245 5.33789 27.4948C4.58775 26.7447 4.16602 25.7271 4.16602 24.6663C4.16612 22.8983 4.86863 21.203 6.11873 19.9529C7.14011 18.9315 8.45862 18.2751 9.8712 18.0692L15.4222 28.6667Z" fill="#8C97C8"/>
<path d="M20.5871 24.8772C21.9823 24.8772 23.1134 26.0083 23.1134 27.4035C23.1134 27.8641 22.9883 28.2949 22.7729 28.6667H16.8494L14.8646 24.8772H20.5871Z" fill="#8C97C8"/>
<path d="M21.4999 18.0002C23.2678 18.0003 24.9632 18.7028 26.2133 19.9529C27.4634 21.203 28.1659 22.8983 28.166 24.6663C28.166 25.7271 27.7443 26.7447 26.9941 27.4948C26.244 28.245 25.2265 28.6667 24.1656 28.6667H24.157C24.2969 28.2712 24.3765 27.8469 24.3765 27.4035C24.3765 25.3107 22.6799 23.6141 20.5871 23.6141H14.2034L11.2626 18.0002H21.4999Z" fill="#8C97C8"/>
<path d="M16.166 4.66669C17.5803 4.66669 18.9368 5.22838 19.937 6.22836C20.9372 7.22856 21.4999 8.58608 21.4999 10.0006C21.4998 11.4149 20.9371 12.7715 19.937 13.7715C18.9368 14.7716 17.5804 15.3332 16.166 15.3332C14.7517 15.3332 13.3952 14.7716 12.395 13.7715C11.395 12.7715 10.8323 11.4149 10.8321 10.0006C10.8321 8.58608 11.3949 7.22856 12.395 6.22836C13.3952 5.22838 14.7517 4.66669 16.166 4.66669Z" fill="#8C97C8"/>
<path d="M15.4222 28.6668H8.16643C7.10556 28.6668 6.08804 28.2451 5.33789 27.4949C4.58775 26.7448 4.16602 25.7272 4.16602 24.6664C4.16612 22.8984 4.86863 21.2031 6.11873 19.953C7.14011 18.9316 8.45862 18.2752 9.8712 18.0693L15.4222 28.6668Z" fill="#5B658C"/>
<path d="M20.5871 24.8773C21.9823 24.8773 23.1134 26.0084 23.1134 27.4036C23.1134 27.8642 22.9883 28.295 22.7729 28.6668H16.8494L14.8646 24.8773H20.5871Z" fill="#5B658C"/>
</g>
<defs>
<clipPath id="clip0_10831_248246">
<rect width="32" height="32" fill="white" transform="translate(0 0.5)"/>
</clipPath>
</defs>
</svg>
