<svg width="32" height="33" viewBox="0 0 32 33" fill="none" xmlns="http://www.w3.org/2000/svg">
<g style="mix-blend-mode:multiply">
<path d="M25.9672 6.66683L6.37137 6.66669C4.4188 6.66669 2.83594 8.20997 2.83594 10.1137V23.2195C2.83594 25.1233 4.4188 26.6665 6.37137 26.6665L25.9672 26.6667C27.9197 26.6667 29.5026 25.1234 29.5026 23.2197V10.1139C29.5026 8.21012 27.9197 6.66683 25.9672 6.66683Z" fill="#8C97C8"/>
<g style="mix-blend-mode:multiply">
<path d="M6.28298 6.66681L26.0556 6.66681C27.9587 6.66681 29.5026 8.2107 29.5026 10.1138V11.9624H2.83594V10.1138C2.83594 8.2107 4.37984 6.66681 6.28298 6.66681Z" fill="#5B658C"/>
</g>
<path d="M14.095 9.34286C14.095 9.90097 13.6346 10.3522 13.0651 10.3522C12.4956 10.3522 12.0352 9.90097 12.0352 9.34286C12.0352 8.78475 12.4977 8.33356 13.0651 8.33356C13.6324 8.33356 14.095 8.78689 14.095 9.34286Z" fill="#8C97C8"/>
<path d="M9.83069 10.3522C10.3995 10.3522 10.8606 9.90028 10.8606 9.34286C10.8606 8.78544 10.3995 8.33356 9.83069 8.33356C9.26189 8.33356 8.80078 8.78544 8.80078 9.34286C8.80078 9.90028 9.26189 10.3522 9.83069 10.3522Z" fill="#8C97C8"/>
<path d="M6.60803 10.3521C7.17683 10.3521 7.63794 9.90022 7.63794 9.3428C7.63794 8.78538 7.17683 8.3335 6.60803 8.3335C6.03923 8.3335 5.57812 8.78538 5.57812 9.3428C5.57812 9.90022 6.03923 10.3521 6.60803 10.3521Z" fill="#8C97C8"/>
<path d="M16.4248 14.1334C13.8708 14.1334 12.0859 16.053 12.0859 18.8002C12.0859 21.5473 13.8606 23.2 16.6074 23.2C18.0065 23.2 18.9607 22.916 19.5136 22.6785C19.7631 22.5708 19.8994 22.3088 19.8351 22.0542L19.5856 21.0601C19.5471 20.9034 19.4365 20.7712 19.2873 20.7002C19.1381 20.6267 18.9607 20.6218 18.8038 20.6855C18.3511 20.8691 17.7956 21.038 16.8054 21.038C16.093 21.038 14.9485 20.8201 14.681 19.4759H19.6911C19.9843 19.4759 20.2286 19.2678 20.2595 18.9911L20.2672 18.9275C20.2852 18.7806 20.3135 18.5578 20.3135 18.2835C20.3135 16.2195 19.1098 14.1383 16.4222 14.1383L16.4248 14.1334ZM16.309 16.2195C16.7334 16.2195 17.0549 16.3321 17.2915 16.5623C17.5333 16.7973 17.6516 17.1132 17.7081 17.3874H14.789C14.9819 16.8708 15.4037 16.2195 16.3065 16.2195H16.309Z" fill="white"/>
</g>
</svg>
