<svg width="41" height="40" viewBox="0 0 41 40" fill="none" xmlns="http://www.w3.org/2000/svg">
<path fill-rule="evenodd" clip-rule="evenodd" d="M20.1641 31.5189C21.0111 31.5189 21.4691 32.0025 22.2761 32.9585L22.3206 33.0107C23.0476 33.8713 24.1436 35.17 26.1267 34.9816C27.3095 34.8681 28.4389 34.0461 29.3837 33.0743C30.3686 32.0616 31.3312 30.7083 32.1738 29.2006C33.8479 26.2034 35.1641 22.3864 35.1641 19.0736V18.9714C35.1641 16.0877 35.1641 10.2182 29.5482 7.46163C27.4562 6.43985 25.6509 6.57381 24.0769 6.92349C23.6073 7.0335 23.1403 7.15463 22.6763 7.28679C22.414 7.35945 22.1731 7.42454 21.9537 7.48206C21.3705 7.64796 20.7693 7.73948 20.1641 7.75454C19.6016 7.75454 19.0213 7.64782 18.3633 7.48206C18.1409 7.42757 17.8964 7.36323 17.6296 7.28906C17.1805 7.17099 16.6959 7.03929 16.2445 6.93938C14.6838 6.59425 12.8919 6.45801 10.8421 7.4639C5.16184 10.2522 5.16406 16.0877 5.16406 18.9805V19.0713C5.16406 22.4023 6.5758 26.2329 8.28767 29.221C9.15028 30.7287 10.1196 32.0775 11.0822 33.0811C11.5625 33.5829 12.0605 34.0188 12.5607 34.3458C13.052 34.666 13.61 34.9248 14.1992 34.9816C16.1823 35.17 17.2806 33.869 18.0075 33.0107L18.052 32.9585C18.859 32.0048 19.317 31.5189 20.1641 31.5189Z" fill="#FA967C"/>
<mask id="mask0_10473_260098" style="mask-type:alpha" maskUnits="userSpaceOnUse" x="5" y="6" width="31" height="29">
<path fill-rule="evenodd" clip-rule="evenodd" d="M20.1641 31.5189C21.0111 31.5189 21.4691 32.0025 22.2761 32.9585L22.3206 33.0107C23.0476 33.8713 24.1436 35.17 26.1267 34.9816C27.3095 34.8681 28.4389 34.0461 29.3837 33.0743C30.3686 32.0616 31.3312 30.7083 32.1738 29.2006C33.8479 26.2034 35.1641 22.3864 35.1641 19.0736V18.9714C35.1641 16.0877 35.1641 10.2182 29.5482 7.46163C27.4562 6.43985 25.6509 6.57381 24.0769 6.92349C23.6073 7.0335 23.1403 7.15463 22.6763 7.28679C22.414 7.35945 22.1731 7.42454 21.9537 7.48206C21.3705 7.64796 20.7693 7.73948 20.1641 7.75454C19.6016 7.75454 19.0213 7.64782 18.3633 7.48206C18.1409 7.42757 17.8964 7.36323 17.6296 7.28906C17.1805 7.17099 16.6959 7.03929 16.2445 6.93938C14.6838 6.59425 12.8919 6.45801 10.8421 7.4639C5.16184 10.2522 5.16406 16.0877 5.16406 18.9805V19.0713C5.16406 22.4023 6.5758 26.2329 8.28767 29.221C9.15028 30.7287 10.1196 32.0775 11.0822 33.0811C11.5625 33.5829 12.0605 34.0188 12.5607 34.3458C13.052 34.666 13.61 34.9248 14.1992 34.9816C16.1823 35.17 17.2806 33.869 18.0075 33.0107L18.052 32.9585C18.859 32.0048 19.317 31.5189 20.1641 31.5189Z" fill="#D63D4A"/>
</mask>
<g mask="url(#mask0_10473_260098)">
<ellipse cx="20.1628" cy="15" rx="16.6667" ry="11.6667" fill="#D63D4A"/>
</g>
</svg>
