<svg width="32" height="32" viewBox="0 0 32 32" fill="none" xmlns="http://www.w3.org/2000/svg">
<path d="M25.9334 21.1313C25.3669 24.5186 23.3397 26.8582 16.0869 26.8582C8.83406 26.8582 6.80694 24.5186 6.24037 21.1313C5.95347 21.0504 5.67627 20.9244 5.41956 20.7533L4.64456 20.2366C4.24645 19.9712 4.00732 19.5244 4.00732 19.0459V18.1937C4.00732 14.1507 5.9418 10.3519 9.21147 7.97391C9.42746 7.81683 9.69174 7.73222 9.95881 7.73222C10.3486 7.73222 10.6895 7.89336 10.9326 8.14351C12.4402 7.24302 14.2031 6.72559 16.0869 6.72559C17.9707 6.72559 19.7336 7.24302 21.2412 8.14351C21.4843 7.89336 21.8252 7.73222 22.215 7.73222C22.4821 7.73222 22.7464 7.81683 22.9623 7.97391C26.232 10.3519 28.1665 14.1507 28.1665 18.1937V19.0459C28.1665 19.5244 27.9274 19.9712 27.5292 20.2366L26.7543 20.7533C26.4975 20.9244 26.2203 21.0504 25.9334 21.1313Z" fill="white"/>
<path d="M26.1531 16.7919C26.1531 22.3514 26.1531 26.8582 16.0868 26.8582C6.02051 26.8582 6.02051 22.3514 6.02051 16.7919C6.02051 11.2324 10.5274 6.72559 16.0868 6.72559C21.6463 6.72559 26.1531 11.2324 26.1531 16.7919Z" fill="#FA967C"/>
<ellipse cx="13.8218" cy="21.3224" rx="2.26492" ry="1.50995" fill="white"/>
<ellipse cx="18.3518" cy="21.3224" rx="2.26492" ry="1.50995" fill="white"/>
<path d="M13.5701 16.7918C13.5701 17.3477 13.1195 17.7984 12.5635 17.7984C12.0076 17.7984 11.5569 17.3477 11.5569 16.7918C11.5569 16.2358 12.0076 15.7852 12.5635 15.7852C13.1195 15.7852 13.5701 16.2358 13.5701 16.7918Z" fill="#D63D4A"/>
<path d="M18.1 19.56C18.1 20.3939 17.1986 21.07 16.0867 21.07C14.9748 21.07 14.0735 20.3939 14.0735 19.56C14.0735 18.7261 14.9748 18.0501 16.0867 18.0501C17.1986 18.0501 18.1 18.7261 18.1 19.56Z" fill="#D63D4A"/>
<path d="M19.6099 17.7984C20.1659 17.7984 20.6166 17.3477 20.6166 16.7918C20.6166 16.2358 20.1659 15.7852 19.6099 15.7852C19.054 15.7852 18.6033 16.2358 18.6033 16.7918C18.6033 17.3477 19.054 17.7984 19.6099 17.7984Z" fill="#D63D4A"/>
<path d="M12.1475 6.86213C13.1399 6.60602 13.8044 7.85873 13.0357 8.53672L12.9447 8.61702C10.563 10.7178 9.06661 13.6437 8.7574 16.8044L8.62495 18.1583C8.56785 18.742 8.32271 19.2913 7.92643 19.7236C6.44121 21.3439 3.74615 20.6117 3.285 18.4626L3.15422 17.8531C3.09048 17.5561 3.08171 17.2498 3.12837 16.9496L3.15357 16.7875C3.90068 11.9799 7.43659 8.07783 12.1475 6.86213Z" fill="#D63D4A"/>
<path d="M20.0259 6.86213C19.0335 6.60602 18.369 7.85873 19.1377 8.53672L19.2287 8.61702C21.6104 10.7178 23.1068 13.6437 23.416 16.8044L23.5485 18.1583C23.6056 18.742 23.8507 19.2913 24.247 19.7236C25.7322 21.3439 28.4273 20.6117 28.8884 18.4626L29.0192 17.8531C29.083 17.5561 29.0917 17.2498 29.0451 16.9496L29.0199 16.7875C28.2728 11.9799 24.7369 8.07783 20.0259 6.86213Z" fill="#D63D4A"/>
</svg>
