<svg width="32" height="33" viewBox="0 0 32 33" fill="none" xmlns="http://www.w3.org/2000/svg">
<rect width="32" height="32" transform="translate(0 0.5)" fill="white"/>
<g style="mix-blend-mode:multiply">
<path fill-rule="evenodd" clip-rule="evenodd" d="M11.8313 8.16699C11.505 8.16711 11.1846 8.26039 10.9024 8.43738C10.6202 8.61438 10.3864 8.86881 10.2245 9.17488L6.91101 15.4392C6.75091 15.7415 6.66668 16.0838 6.66666 16.4321V20.9296C6.66668 21.2399 6.73354 21.5459 6.86196 21.8235L7.89674 24.0593C8.05044 24.3915 8.28676 24.671 8.57923 24.8663C8.87169 25.0617 9.20874 25.1651 9.55258 25.1651H10.3689C10.8599 25.1651 11.3307 24.9545 11.6779 24.5794C12.025 24.2044 12.2201 23.6957 12.2201 23.1654H19.6246C19.6246 23.6957 19.8196 24.2044 20.1668 24.5794C20.5139 24.9545 20.9848 25.1651 21.4757 25.1651H22.2921C22.6359 25.1651 22.9729 25.0617 23.2654 24.8663C23.5579 24.671 23.7942 24.3915 23.9479 24.0593L24.9827 21.8235C25.1113 21.5465 25.178 21.2396 25.178 20.9296V16.4321C25.1779 16.0838 25.0937 15.7415 24.9336 15.4392L21.6201 9.17488C21.4583 8.86881 21.2244 8.61438 20.9422 8.43738C20.6601 8.26039 20.3396 8.16711 20.0133 8.16699H11.8313Z" fill="#FA967C"/>
<g style="mix-blend-mode:multiply">
<path d="M8.57434 24.8683C8.28188 24.673 8.04555 24.3935 7.89186 24.0612L7.37447 22.9434H24.4604L23.943 24.0612C23.7893 24.3935 23.553 24.673 23.2605 24.8683C22.9681 25.0636 22.631 25.1671 22.2872 25.1671H21.4708C20.9799 25.1671 20.509 24.9564 20.1619 24.5814C19.8147 24.2064 19.6197 23.6977 19.6197 23.1673H12.2152C12.2152 23.6977 12.0201 24.2064 11.673 24.5814C11.3258 24.9564 10.855 25.1671 10.364 25.1671H9.54769C9.20385 25.1671 8.86681 25.0636 8.57434 24.8683Z" fill="#D63D4A"/>
</g>
<g style="mix-blend-mode:multiply">
<path d="M9.74789 14.1223L11.2593 10.7217C11.3957 10.4147 11.7002 10.2168 12.0361 10.2168H19.9994C20.3354 10.2168 20.6398 10.4147 20.7763 10.7217L22.2877 14.1223C22.5375 14.6845 22.126 15.3177 21.5108 15.3177H10.5248C9.90955 15.3177 9.49802 14.6845 9.74789 14.1223Z" fill="#D63D4A"/>
</g>
<circle cx="11.3423" cy="19.2186" r="1.27522" fill="white"/>
<circle cx="20.694" cy="19.2186" r="1.27522" fill="white"/>
<g style="mix-blend-mode:multiply">
<circle cx="21.6667" cy="11.167" r="4" fill="#D63D4A"/>
</g>
<path d="M23.4245 9.6368C23.6047 9.52395 23.8454 9.54915 23.9977 9.70907C24.15 9.86914 24.1632 10.1108 24.0417 10.2852L23.9821 10.3556L21.5788 12.6417C21.4907 12.7253 21.373 12.7709 21.2516 12.7677C21.1301 12.7644 21.0147 12.7125 20.9313 12.6241L19.3337 10.9298L19.278 10.8565C19.1661 10.6758 19.1925 10.4358 19.3532 10.2843C19.5139 10.1327 19.7554 10.1199 19.9294 10.2423L19.9997 10.3028L21.2809 11.6622L23.3512 9.69344L23.4245 9.6368Z" fill="white"/>
</g>
</svg>
