<svg width="32" height="33" viewBox="0 0 32 33" fill="none" xmlns="http://www.w3.org/2000/svg">
<g style="mix-blend-mode:multiply">
<path fill-rule="evenodd" clip-rule="evenodd" d="M10.3862 5.33398C9.95116 5.33414 9.52387 5.45851 9.14764 5.69451C8.77142 5.9305 8.45962 6.26974 8.24383 6.67784L3.8258 15.0303C3.61233 15.4334 3.50003 15.8897 3.5 16.3541V22.3508C3.50003 22.7645 3.58917 23.1726 3.76039 23.5427L5.1401 26.5237C5.34503 26.9667 5.66013 27.3393 6.05009 27.5998C6.44004 27.8602 6.88943 27.9982 7.34788 27.9982H8.43635C9.09095 27.9982 9.71874 27.7173 10.1816 27.2172C10.6445 26.7172 10.9045 26.039 10.9045 25.3318H20.7772C20.7772 26.039 21.0373 26.7172 21.5001 27.2172C21.963 27.7173 22.5908 27.9982 23.2454 27.9982H24.3339C24.7923 27.9982 25.2417 27.8602 25.6317 27.5998C26.0216 27.3393 26.3367 26.9667 26.5416 26.5237L27.9213 23.5427C28.0929 23.1734 28.1817 22.7641 28.1817 22.3508V16.3541C28.1817 15.8897 28.0694 15.4334 27.8559 15.0303L23.4379 6.67784C23.2221 6.26974 22.9103 5.9305 22.5341 5.69451C22.1579 5.45851 21.7306 5.33414 21.2955 5.33398H10.3862Z" fill="#FA967C"/>
<g style="mix-blend-mode:multiply">
<path d="M6.04369 27.6018C5.65373 27.3413 5.33863 26.9687 5.1337 26.5257L4.44385 25.0352H27.2251L26.5352 26.5257C26.3303 26.9687 26.0152 27.3413 25.6253 27.6018C25.2353 27.8622 24.7859 28.0002 24.3275 28.0002H23.239C22.5844 28.0002 21.9566 27.7192 21.4937 27.2192C21.0309 26.7192 20.7708 26.041 20.7708 25.3338H10.8981C10.8981 26.041 10.6381 26.7192 10.1752 27.2192C9.71234 27.7192 9.08455 28.0002 8.42995 28.0002H7.34148C6.88303 28.0002 6.43364 27.8622 6.04369 27.6018Z" fill="#D63D4A"/>
</g>
<g style="mix-blend-mode:multiply">
<path d="M7.4312 13.6741L9.69827 8.57323C9.83472 8.26622 10.1392 8.06836 10.4751 8.06836H21.4612C21.7971 8.06836 22.1016 8.26622 22.2381 8.57323L24.5051 13.6741C24.755 14.2363 24.3435 14.8696 23.7282 14.8696H8.20808C7.59286 14.8696 7.18134 14.2363 7.4312 13.6741Z" fill="#D63D4A"/>
</g>
<ellipse cx="9.73399" cy="20.0694" rx="1.7003" ry="1.7003" fill="white"/>
<circle cx="22.2032" cy="20.0694" r="1.7003" fill="white"/>
<g style="mix-blend-mode:multiply">
<ellipse cx="23.4998" cy="9.33333" rx="5.33333" ry="5.33333" fill="#D63D4A"/>
</g>
<path d="M25.8436 7.29178C26.084 7.1413 26.4048 7.17491 26.608 7.38813C26.811 7.60156 26.8287 7.92374 26.6666 8.15636L26.5871 8.25011L23.3827 11.2983C23.2653 11.4098 23.1084 11.4706 22.9465 11.4663C22.7845 11.4619 22.6306 11.3927 22.5194 11.2749L20.3892 9.01574L20.315 8.91808C20.1658 8.67706 20.2011 8.35716 20.4153 8.15506C20.6296 7.95293 20.9516 7.93591 21.1835 8.09907L21.2772 8.1798L22.9856 9.9923L25.746 7.3673L25.8436 7.29178Z" fill="white"/>
</g>
</svg>
