<svg width="32" height="32" viewBox="0 0 32 32" fill="none" xmlns="http://www.w3.org/2000/svg">
<path d="M2.6665 8.00016C2.6665 6.5274 3.79408 5.3335 5.18502 5.3335H22.8147C24.2056 5.3335 25.3332 6.5274 25.3332 8.00016V21.3335C25.3332 22.8063 24.2056 24.0002 22.8147 24.0002H5.18502C3.79408 24.0002 2.6665 22.8063 2.6665 21.3335V8.00016Z" fill="#FA967C"/>
<g style="mix-blend-mode:multiply">
<path d="M20 2.2666C20.589 2.2666 21.0662 2.74405 21.0664 3.33301V5.33301H23.333C24.4375 5.33301 25.3328 6.22859 25.333 7.33301V10.667H2.66699V7.33301C2.66717 6.22859 3.56253 5.33301 4.66699 5.33301H6.93359V3.33301C6.93377 2.74405 7.41101 2.2666 8 2.2666C8.589 2.2666 9.06623 2.74405 9.06641 3.33301V5.33301H18.9336V3.33301C18.9338 2.74405 19.411 2.2666 20 2.2666Z" fill="#D63D4A"/>
</g>
<g clip-path="url(#clip0_97_5161)">
<g style="mix-blend-mode:multiply">
<circle cx="23.6663" cy="21.3333" r="5.33333" fill="white"/>
<circle cx="23.6663" cy="21.3333" r="5.33333" fill="#D63D4A"/>
</g>
<path d="M26.3392 19.2928C26.5796 19.1423 26.9004 19.1759 27.1036 19.3891C27.3066 19.6025 27.3243 19.9247 27.1622 20.1573L27.0827 20.2511L23.8783 23.2993C23.7609 23.4108 23.604 23.4716 23.4421 23.4672C23.2801 23.4628 23.1262 23.3937 23.015 23.2758L20.8848 21.0167L20.8106 20.9191C20.6614 20.678 20.6967 20.3581 20.9109 20.156C21.1252 19.9539 21.4472 19.9369 21.6791 20.1L21.7728 20.1808L23.4812 21.9933L26.2416 19.3683L26.3392 19.2928Z" fill="white"/>
</g>
<defs>
<clipPath id="clip0_97_5161">
<path d="M18.6665 21.3333C18.6665 18.3878 21.0543 16 23.9998 16C26.9454 16 29.3332 18.3878 29.3332 21.3333C29.3332 24.2789 26.9454 26.6667 23.9998 26.6667C21.0543 26.6667 18.6665 24.2789 18.6665 21.3333Z" fill="white"/>
</clipPath>
</defs>
</svg>
