<svg width="32" height="32" viewBox="0 0 32 32" fill="none" xmlns="http://www.w3.org/2000/svg">
<g style="mix-blend-mode:multiply">
<path d="M29.3325 16.0124C29.3325 14.7067 28.5034 13.5458 27.2691 13.1214L25.3024 12.4463H4.00821C3.26745 12.4463 2.66651 13.0472 2.66651 13.788V19.1215H29.3332L29.3325 16.0124Z" fill="#FA967C"/>
<path d="M2.66651 19.1215L2.6665 19.8511C2.6665 20.5552 3.23708 21.1257 3.94112 21.1257H27.9908C28.7315 21.1257 29.3325 20.5248 29.3325 19.784L29.3332 19.1215H2.66651Z" fill="#FA967C"/>
<g style="mix-blend-mode:multiply">
<path d="M24.19 25.2056C26.14 25.2056 27.7208 23.6248 27.7208 21.6748C27.7208 19.7248 26.14 18.144 24.19 18.144C22.24 18.144 20.6592 19.7248 20.6592 21.6748C20.6592 23.6248 22.24 25.2056 24.19 25.2056Z" fill="#D63D4A"/>
</g>
<path d="M24.1899 23.2796C25.0762 23.2796 25.7948 22.5611 25.7948 21.6747C25.7948 20.7884 25.0762 20.0698 24.1899 20.0698C23.3035 20.0698 22.585 20.7884 22.585 21.6747C22.585 22.5611 23.3035 23.2796 24.1899 23.2796Z" fill="white"/>
<g style="mix-blend-mode:multiply">
<path d="M7.80472 25.2051C9.75472 25.2051 11.3355 23.6244 11.3355 21.6743C11.3355 19.7243 9.75472 18.1436 7.80472 18.1436C5.85472 18.1436 4.27393 19.7243 4.27393 21.6743C4.27393 23.6244 5.85472 25.2051 7.80472 25.2051Z" fill="#D63D4A"/>
</g>
<path d="M7.8051 23.2796C8.69147 23.2796 9.41001 22.5611 9.41001 21.6747C9.41001 20.7884 8.69147 20.0698 7.8051 20.0698C6.91874 20.0698 6.2002 20.7884 6.2002 21.6747C6.2002 22.5611 6.91874 23.2796 7.8051 23.2796Z" fill="white"/>
<g style="mix-blend-mode:multiply">
<path d="M29.3296 18.5301H28.2597C27.3735 18.5301 26.6548 17.8114 26.6548 16.9252C26.6548 16.039 27.3735 15.3203 28.2597 15.3203H29.3296V18.5301Z" fill="#D63D4A"/>
</g>
<g style="mix-blend-mode:multiply">
<path d="M21.3499 7.39198C20.6642 6.46975 19.014 5.7085 17.918 5.7085H8.85464C7.49529 5.7085 6.54102 6.86206 6.07873 8.01199L4.31396 12.4487H25.2643L21.3499 7.39198Z" fill="#D63D4A"/>
</g>
</g>
</svg>
