<svg width="32" height="32" viewBox="0 0 32 32" fill="none" xmlns="http://www.w3.org/2000/svg">
<g style="mix-blend-mode:multiply">
<path fill-rule="evenodd" clip-rule="evenodd" d="M9.00805 5.45565C7.04261 5.45565 5.45565 7.04261 5.45565 9.00805V10.7719C5.45565 11.266 5.05513 11.6665 4.56108 11.6665C4.06702 11.6665 3.6665 11.266 3.6665 10.7719V9.00805C3.6665 6.05449 6.05449 3.6665 9.00805 3.6665H10.7719C11.266 3.6665 11.6665 4.06702 11.6665 4.56108C11.6665 5.05513 11.266 5.45565 10.7719 5.45565H9.00805Z" fill="#D63D4A"/>
<path fill-rule="evenodd" clip-rule="evenodd" d="M19.9998 4.89441C19.9998 4.40035 20.4004 3.99984 20.8944 3.99984H22.6583C25.6119 3.99984 27.9998 6.38782 27.9998 9.34138V11.1053C27.9998 11.5993 27.5993 11.9998 27.1053 11.9998C26.6112 11.9998 26.2107 11.5993 26.2107 11.1053V9.34138C26.2107 7.37594 24.6237 5.78898 22.6583 5.78898H20.8944C20.4004 5.78898 19.9998 5.38847 19.9998 4.89441Z" fill="#D63D4A"/>
<path fill-rule="evenodd" clip-rule="evenodd" d="M26.7719 19.6665C27.266 19.6665 27.6665 20.067 27.6665 20.5611V22.325C27.6665 25.2785 25.2785 27.6665 22.325 27.6665H20.5611C20.067 27.6665 19.6665 27.266 19.6665 26.7719C19.6665 26.2779 20.067 25.8774 20.5611 25.8774H22.325C24.2904 25.8774 25.8774 24.2904 25.8774 22.325V20.5611C25.8774 20.067 26.2779 19.6665 26.7719 19.6665Z" fill="#D63D4A"/>
<path fill-rule="evenodd" clip-rule="evenodd" d="M4.56108 19.5433C5.05513 19.5433 5.45565 19.9438 5.45565 20.4379V22.2018C5.45565 24.1672 7.04261 25.7542 9.00805 25.7542H10.7719C11.266 25.7542 11.6665 26.1547 11.6665 26.6487C11.6665 27.1428 11.266 27.5433 10.7719 27.5433H9.00805C6.05449 27.5433 3.6665 25.1553 3.6665 22.2018V20.4379C3.6665 19.9438 4.06702 19.5433 4.56108 19.5433Z" fill="#D63D4A"/>
<path fill-rule="evenodd" clip-rule="evenodd" d="M11.6885 7.38818C11.3712 7.38829 11.0596 7.479 10.7852 7.65111C10.5109 7.82322 10.2835 8.07061 10.1261 8.36823L6.9041 14.4595C6.74843 14.7535 6.66652 15.0863 6.6665 15.425V19.7983C6.66652 20.1 6.73154 20.3976 6.8564 20.6675L7.8626 22.8415C8.01206 23.1646 8.24185 23.4363 8.52624 23.6263C8.81063 23.8162 9.13836 23.9168 9.4727 23.9168H10.2665C10.7439 23.9168 11.2017 23.712 11.5393 23.3473C11.8769 22.9826 12.0665 22.488 12.0665 21.9723H19.2665C19.2665 22.488 19.4561 22.9826 19.7937 23.3473C20.1313 23.712 20.5891 23.9168 21.0665 23.9168H21.8603C22.1946 23.9168 22.5224 23.8162 22.8068 23.6263C23.0912 23.4363 23.321 23.1646 23.4704 22.8415L24.4766 20.6675C24.6017 20.3982 24.6665 20.0997 24.6665 19.7983V15.425C24.6665 15.0863 24.5846 14.7535 24.4289 14.4595L21.2069 8.36823C21.0495 8.07061 20.8221 7.82322 20.5478 7.65111C20.2734 7.479 19.9618 7.38829 19.6445 7.38818H11.6885Z" fill="#FA967C"/>
<g style="mix-blend-mode:multiply">
<path d="M8.52172 23.6281C8.23733 23.4382 8.00753 23.1664 7.85808 22.8433L7.35498 21.7563H23.969L23.4659 22.8433C23.3164 23.1664 23.0866 23.4382 22.8022 23.6281C22.5179 23.8181 22.1901 23.9187 21.8558 23.9187H21.062C20.5846 23.9187 20.1268 23.7138 19.7892 23.3491C19.4516 22.9845 19.262 22.4899 19.262 21.9741H12.062C12.062 22.4899 11.8723 22.9845 11.5348 23.3491C11.1972 23.7138 10.7394 23.9187 10.262 23.9187H9.46818C9.13384 23.9187 8.8061 23.8181 8.52172 23.6281Z" fill="#D63D4A"/>
</g>
<g style="mix-blend-mode:multiply">
<path d="M9.53395 13.4705L11.1873 9.75052C11.2868 9.52662 11.5088 9.38232 11.7539 9.38232H19.7658C20.0108 9.38232 20.2328 9.52662 20.3324 9.75052L21.9857 13.4705C22.1679 13.8805 21.8678 14.3423 21.4191 14.3423H10.1005C9.65185 14.3423 9.35173 13.8805 9.53395 13.4705Z" fill="#D63D4A"/>
</g>
<ellipse cx="11.2131" cy="18.1345" rx="1.24" ry="1.24" fill="white"/>
<ellipse cx="20.3064" cy="18.1345" rx="1.24" ry="1.24" fill="white"/>
</g>
</svg>
