<svg width="24" height="25" viewBox="0 0 24 25" fill="none" xmlns="http://www.w3.org/2000/svg">
<g style="mix-blend-mode:multiply">
<path d="M5 5.50556C5 4.39792 5.89543 3.5 7 3.5H17C18.1046 3.5 19 4.39792 19 5.50556V20.4944C19 21.6021 18.1046 22.5 17 22.5H7C5.89543 22.5 5 21.6021 5 20.4944V5.50556Z" fill="#FA967C"/>
<g style="mix-blend-mode:multiply">
<path d="M5 18.1001H19V20.7401C19 21.7121 18.1046 22.5001 17 22.5001H7C5.89543 22.5001 5 21.7121 5 20.7401V18.1001Z" fill="#D63D4A"/>
</g>
<path d="M12 21.2998C12.5523 21.2998 13 20.8521 13 20.2998C13 19.7475 12.5523 19.2998 12 19.2998C11.4477 19.2998 11 19.7475 11 20.2998C11 20.8521 11.4477 21.2998 12 21.2998Z" fill="#FA967C"/>
<path fill-rule="evenodd" clip-rule="evenodd" d="M9.14827 9.80807C9.78723 9.20628 10.7281 8.64307 11.9998 8.64307C13.2716 8.64307 14.2125 9.20628 14.8514 9.80807C15.2989 10.2332 15.6694 10.7295 15.9471 11.2759C16.0176 11.4184 16.0176 11.582 15.9471 11.7241C15.6696 12.2706 15.2992 12.7671 14.8518 13.1924C14.2125 13.7941 13.2716 14.3574 11.9998 14.3574C10.7281 14.3574 9.78723 13.7941 9.14827 13.1924C8.70076 12.7672 8.33026 12.2709 8.05255 11.7245C8.01796 11.6546 8 11.578 8 11.5004C8 11.4228 8.01796 11.3461 8.05255 11.2763C8.33011 10.7298 8.70086 10.2333 9.14827 9.80807ZM11.9998 12.5716C12.2904 12.5716 12.569 12.4588 12.7744 12.2578C12.9798 12.0569 13.0952 11.7844 13.0952 11.5002C13.0952 11.216 12.9798 10.9435 12.7744 10.7426C12.569 10.5417 12.2904 10.4288 11.9998 10.4288C11.7093 10.4288 11.4307 10.5417 11.2253 10.7426C11.0199 10.9435 10.9045 11.216 10.9045 11.5002C10.9045 11.7844 11.0199 12.0569 11.2253 12.2578C11.4307 12.4588 11.7093 12.5716 11.9998 12.5716Z" fill="white"/>
</g>
</svg>
