<svg width="32" height="32" viewBox="0 0 32 32" fill="none" xmlns="http://www.w3.org/2000/svg">
<g clip-path="url(#clip0_20867_35606)">
<g style="mix-blend-mode:multiply">
<path d="M6.66675 6.66667C6.66675 5.19391 7.86066 4 9.33341 4H22.6667C24.1395 4 25.3334 5.19391 25.3334 6.66667V26.6667C25.3334 28.1394 24.1395 29.3333 22.6667 29.3333H9.33341C7.86066 29.3333 6.66675 28.1394 6.66675 26.6667V6.66667Z" fill="#FA967C"/>
<g style="mix-blend-mode:multiply">
<path d="M6.66675 22.6666H25.3334V26.6666C25.3334 28.1394 24.1395 29.3333 22.6667 29.3333H9.33341C7.86066 29.3333 6.66675 28.1394 6.66675 26.6666V22.6666Z" fill="#D63D4A"/>
</g>
<path d="M16.0001 27.3333C16.7365 27.3333 17.3334 26.7363 17.3334 26C17.3334 25.2636 16.7365 24.6666 16.0001 24.6666C15.2637 24.6666 14.6667 25.2636 14.6667 26C14.6667 26.7363 15.2637 27.3333 16.0001 27.3333Z" fill="#FA967C"/>
<path fill-rule="evenodd" clip-rule="evenodd" d="M20.449 10.9423C20.8858 11.3376 20.9195 12.0121 20.5243 12.4489L16.3021 17.1156C16.1007 17.3382 15.8148 17.4657 15.5146 17.4666C15.2144 17.4676 14.9277 17.342 14.7248 17.1207L12.2804 14.4541C11.8823 14.0198 11.9116 13.3451 12.3459 12.947C12.7802 12.5489 13.4549 12.5783 13.853 13.0125L15.506 14.8158L18.9424 11.0177C19.3376 10.5808 20.0121 10.5471 20.449 10.9423Z" fill="#D63D4A"/>
</g>
</g>
<defs>
<clipPath id="clip0_20867_35606">
<rect width="32" height="32" fill="white"/>
</clipPath>
</defs>
</svg>
