<svg width="24" height="25" viewBox="0 0 24 25" fill="none" xmlns="http://www.w3.org/2000/svg">
<g style="mix-blend-mode:multiply">
<path d="M19.3484 5.00011L4.65157 5C3.18715 5 2 6.15746 2 7.58526V17.4146C2 18.8424 3.18715 19.9999 4.65157 19.9999L19.3484 20C20.8129 20 22 18.8425 22 17.4147V7.58537C22 6.15757 20.8129 5.00011 19.3484 5.00011Z" fill="#FA967C"/>
<g style="mix-blend-mode:multiply">
<path d="M4.58528 5L19.4147 5C20.8421 5 22 6.15792 22 7.58526V8.97167H2V7.58526C2 6.15792 3.15792 5 4.58528 5Z" fill="#D63D4A"/>
</g>
<path d="M10.4423 7.00698C10.4423 7.42556 10.097 7.76395 9.66989 7.76395C9.24276 7.76395 8.89746 7.42556 8.89746 7.00698C8.89746 6.58839 9.2444 6.25 9.66989 6.25C10.0954 6.25 10.4423 6.59 10.4423 7.00698Z" fill="#FA967C"/>
<path d="M7.24655 7.76395C7.67315 7.76395 8.01898 7.42504 8.01898 7.00698C8.01898 6.58891 7.67315 6.25 7.24655 6.25C6.81995 6.25 6.47412 6.58891 6.47412 7.00698C6.47412 7.42504 6.81995 7.76395 7.24655 7.76395Z" fill="#FA967C"/>
<path d="M4.82809 7.76395C5.2547 7.76395 5.60052 7.42504 5.60052 7.00698C5.60052 6.58891 5.2547 6.25 4.82809 6.25C4.40149 6.25 4.05566 6.58891 4.05566 7.00698C4.05566 7.42504 4.40149 7.76395 4.82809 7.76395Z" fill="#FA967C"/>
<path d="M12.1931 10.6001C10.2776 10.6001 8.93896 12.0398 8.93896 14.1002C8.93896 16.1605 10.2699 17.4 12.33 17.4C13.3794 17.4 14.095 17.187 14.5097 17.0089C14.6968 16.9281 14.7991 16.7316 14.7509 16.5406L14.5637 15.7951C14.5348 15.6776 14.4519 15.5784 14.34 15.5251C14.2281 15.4701 14.095 15.4664 13.9773 15.5141C13.6379 15.6519 13.2212 15.7786 12.4786 15.7786C11.9442 15.7786 11.0859 15.6151 10.8853 14.607H14.6428C14.8627 14.607 15.046 14.4509 15.0691 14.2434L15.0749 14.1956C15.0884 14.0855 15.1096 13.9184 15.1096 13.7127C15.1096 12.1647 14.2069 10.6038 12.1912 10.6038L12.1931 10.6001ZM12.1063 12.1647C12.4246 12.1647 12.6657 12.2491 12.8431 12.4217C13.0245 12.598 13.1132 12.8349 13.1556 13.0406H10.9663C11.1109 12.6531 11.4273 12.1647 12.1044 12.1647H12.1063Z" fill="white"/>
</g>
</svg>
