<svg width="32" height="32" viewBox="0 0 32 32" fill="none" xmlns="http://www.w3.org/2000/svg">
<g style="mix-blend-mode:multiply">
<path d="M25.9633 6.16665L6.36746 6.1665C4.4149 6.1665 2.83203 7.70979 2.83203 9.61352V22.7193C2.83203 24.6231 4.4149 26.1664 6.36746 26.1664L25.9633 26.1665C27.9158 26.1665 29.4987 24.6232 29.4987 22.7195V9.61367C29.4987 7.70993 27.9158 6.16665 25.9633 6.16665Z" fill="#FA967C"/>
<g style="mix-blend-mode:multiply">
<path d="M6.27908 6.1665L26.0517 6.1665C27.9548 6.1665 29.4987 7.71039 29.4987 9.61352V11.4621H2.83203V9.61352C2.83203 7.71039 4.37593 6.1665 6.27908 6.1665Z" fill="#D63D4A"/>
</g>
<path d="M14.0872 8.8428C14.0872 9.40091 13.6268 9.8521 13.0573 9.8521C12.4877 9.8521 12.0273 9.40091 12.0273 8.8428C12.0273 8.28469 12.4899 7.8335 13.0573 7.8335C13.6246 7.8335 14.0872 8.28683 14.0872 8.8428Z" fill="#FA967C"/>
<path d="M9.82678 9.8521C10.3956 9.8521 10.8567 9.40022 10.8567 8.8428C10.8567 8.28538 10.3956 7.8335 9.82678 7.8335C9.25798 7.8335 8.79688 8.28538 8.79688 8.8428C8.79688 9.40022 9.25798 9.8521 9.82678 9.8521Z" fill="#FA967C"/>
<path d="M6.60217 9.8521C7.17097 9.8521 7.63208 9.40022 7.63208 8.8428C7.63208 8.28538 7.17097 7.8335 6.60217 7.8335C6.03337 7.8335 5.57227 8.28538 5.57227 8.8428C5.57227 9.40022 6.03337 9.8521 6.60217 9.8521Z" fill="#FA967C"/>
<path d="M16.4228 13.6333C13.8689 13.6333 12.084 15.5529 12.084 18.3C12.084 21.0472 13.8586 22.6999 16.6054 22.6999C18.0045 22.6999 18.9587 22.4159 19.5117 22.1784C19.7612 22.0707 19.8975 21.8087 19.8332 21.554L19.5837 20.56C19.5451 20.4033 19.4345 20.271 19.2854 20.2C19.1362 20.1266 18.9587 20.1217 18.8018 20.1853C18.3492 20.369 17.7936 20.5379 16.8035 20.5379C16.091 20.5379 14.9465 20.32 14.679 18.9758H19.6891C19.9823 18.9758 20.2267 18.7677 20.2575 18.491L20.2653 18.4274C20.2833 18.2805 20.3115 18.0576 20.3115 17.7834C20.3115 15.7194 19.1079 13.6382 16.4202 13.6382L16.4228 13.6333ZM16.3071 15.7194C16.7314 15.7194 17.0529 15.832 17.2895 16.0622C17.5313 16.2972 17.6496 16.6131 17.7062 16.8873H14.7871C14.98 16.3707 15.4018 15.7194 16.3045 15.7194H16.3071Z" fill="white"/>
</g>
</svg>
