<svg width="32" height="33" viewBox="0 0 32 33" fill="none" xmlns="http://www.w3.org/2000/svg">
<rect x="6.83203" y="6" width="18.6667" height="22.6667" rx="2" fill="#FA967C"/>
<path d="M13.5 23.3333V19.3333H18.8333V23.3333L16.1667 22.6667L13.5 23.3333Z" fill="#D63D4A"/>
<g style="mix-blend-mode:multiply">
<circle cx="16.1654" cy="15.3333" r="5.33333" fill="#D63D4A"/>
</g>
<path d="M17.8023 13.6107C18.0176 13.4097 18.3539 13.4214 18.5549 13.6367C18.7558 13.8521 18.7442 14.1884 18.5288 14.3893L15.6721 17.056C15.4672 17.2472 15.1491 17.2472 14.9442 17.056L13.8023 15.9896C13.5869 15.7886 13.5753 15.451 13.7762 15.2357C13.9771 15.021 14.3136 15.0094 14.5288 15.2096L15.3075 15.9375L17.8023 13.6107Z" fill="white"/>
<g style="mix-blend-mode:multiply">
<rect x="12.166" y="4.66667" width="8" height="2.66667" rx="1" fill="#D63D4A"/>
</g>
</svg>
