<svg width="32" height="32" viewBox="0 0 32 32" fill="none" xmlns="http://www.w3.org/2000/svg">
<path d="M8 14.6665C8 10.2482 11.5817 6.6665 16 6.6665C20.4183 6.6665 24 10.2482 24 14.6665V27.9998H8V14.6665Z" fill="#FA967C"/>
<g style="mix-blend-mode:multiply">
<path d="M21.3332 14.6668C21.3332 17.6123 18.9454 20.0002 15.9998 20.0002C13.0543 20.0002 10.6665 17.6123 10.6665 14.6668C10.6665 11.7213 13.0543 9.3335 15.9998 9.3335C18.9454 9.3335 21.3332 11.7213 21.3332 14.6668Z" fill="#D63D4A"/>
</g>
<path d="M17.778 14.1338L17.8856 14.1442C18.1286 14.194 18.311 14.4091 18.311 14.6668C18.311 14.9245 18.1286 15.1396 17.8856 15.1893L17.778 15.1998H14.2224C13.9279 15.1998 13.6895 14.9613 13.6895 14.6668C13.6895 14.3722 13.9279 14.1338 14.2224 14.1338H17.778Z" fill="white"/>
<path d="M16.5328 16.4445L16.5224 16.5521C16.4726 16.7951 16.2575 16.9775 15.9998 16.9775C15.7421 16.9775 15.527 16.7951 15.4772 16.5521L15.4668 16.4445L15.4668 12.8889C15.4668 12.5944 15.7052 12.356 15.9998 12.356C16.2943 12.356 16.5328 12.5944 16.5328 12.8889L16.5328 16.4445Z" fill="white"/>
<g style="mix-blend-mode:multiply">
<path d="M5.3335 26C5.3335 24.8954 6.22893 24 7.3335 24H24.6668C25.7714 24 26.6668 24.8954 26.6668 26C26.6668 27.1046 25.7714 28 24.6668 28H7.3335C6.22893 28 5.3335 27.1046 5.3335 26Z" fill="#D63D4A"/>
</g>
<path d="M17.0664 5.19971L17.0612 5.30908C17.0064 5.84681 16.5522 6.26611 16 6.26611C15.4478 6.26611 14.9936 5.84681 14.9388 5.30908L14.9336 5.19971L14.9336 3.19971C14.9336 2.6106 15.4109 2.1333 16 2.1333C16.5891 2.1333 17.0664 2.6106 17.0664 3.19971L17.0664 5.19971Z" fill="#D63D4A"/>
<path d="M9.00966 7.50154L9.08332 7.58256C9.42482 8.00151 9.40011 8.61921 9.00966 9.00966C8.61921 9.40011 8.00151 9.42482 7.58256 9.08332L7.50154 9.00966L6.08732 7.59545C5.67076 7.17889 5.67076 6.50388 6.08732 6.08732C6.50388 5.67076 7.17889 5.67076 7.59545 6.08732L9.00966 7.50154Z" fill="#D63D4A"/>
<path d="M23.1651 7.50154L23.0914 7.58256C22.7499 8.00151 22.7746 8.61921 23.1651 9.00966C23.5555 9.40011 24.1732 9.42482 24.5922 9.08332L24.6732 9.00966L26.0874 7.59545C26.504 7.17889 26.504 6.50388 26.0874 6.08732C25.6709 5.67076 24.9959 5.67076 24.5793 6.08732L23.1651 7.50154Z" fill="#D63D4A"/>
</svg>
