<svg width="32" height="32" viewBox="0 0 32 32" fill="none" xmlns="http://www.w3.org/2000/svg">
<g style="mix-blend-mode:multiply">
<path fill-rule="evenodd" clip-rule="evenodd" d="M10.3862 4.83398C9.95116 4.83414 9.52387 4.95851 9.14764 5.19451C8.77142 5.4305 8.45962 5.76974 8.24383 6.17784L3.8258 14.5303C3.61233 14.9334 3.50003 15.3897 3.5 15.8541V21.8508C3.50003 22.2645 3.58917 22.6726 3.76039 23.0427L5.1401 26.0237C5.34503 26.4667 5.66013 26.8393 6.05009 27.0998C6.44004 27.3602 6.88943 27.4982 7.34788 27.4982H8.43635C9.09095 27.4982 9.71874 27.2173 10.1816 26.7172C10.6445 26.2172 10.9045 25.539 10.9045 24.8318H20.7772C20.7772 25.539 21.0373 26.2172 21.5001 26.7172C21.963 27.2173 22.5908 27.4982 23.2454 27.4982H24.3339C24.7923 27.4982 25.2417 27.3602 25.6317 27.0998C26.0216 26.8393 26.3367 26.4667 26.5416 26.0237L27.9213 23.0427C28.0929 22.6734 28.1817 22.2641 28.1817 21.8508V15.8541C28.1817 15.3897 28.0694 14.9334 27.8559 14.5303L23.4379 6.17784C23.2221 5.76974 22.9103 5.4305 22.5341 5.19451C22.1579 4.95851 21.7306 4.83414 21.2955 4.83398H10.3862Z" fill="#FA967C"/>
<g style="mix-blend-mode:multiply">
<path d="M6.04369 27.1018C5.65373 26.8413 5.33863 26.4687 5.1337 26.0257L4.44385 24.5352H27.2251L26.5352 26.0257C26.3303 26.4687 26.0152 26.8413 25.6253 27.1018C25.2353 27.3622 24.7859 27.5002 24.3275 27.5002H23.239C22.5844 27.5002 21.9566 27.2192 21.4937 26.7192C21.0309 26.2192 20.7708 25.541 20.7708 24.8338H10.8981C10.8981 25.541 10.6381 26.2192 10.1752 26.7192C9.71234 27.2192 9.08455 27.5002 8.42995 27.5002H7.34148C6.88303 27.5002 6.43364 27.3622 6.04369 27.1018Z" fill="#D63D4A"/>
</g>
<g style="mix-blend-mode:multiply">
<path d="M7.4312 13.1741L9.69827 8.07323C9.83472 7.76622 10.1392 7.56836 10.4751 7.56836H21.4612C21.7971 7.56836 22.1016 7.76622 22.2381 8.07323L24.5051 13.1741C24.755 13.7363 24.3435 14.3696 23.7282 14.3696H8.20808C7.59286 14.3696 7.18134 13.7363 7.4312 13.1741Z" fill="#D63D4A"/>
</g>
<ellipse cx="9.73399" cy="19.5694" rx="1.7003" ry="1.7003" fill="white"/>
<circle cx="22.2032" cy="19.5694" r="1.7003" fill="white"/>
<g style="mix-blend-mode:multiply">
<ellipse cx="23.4998" cy="8.83333" rx="5.33333" ry="5.33333" fill="#D63D4A"/>
</g>
<path d="M23.4769 7.82755L22.9255 8.32226C22.9984 8.57174 23.1002 8.81184 23.2289 9.03767C23.3631 9.26184 23.5248 9.46836 23.7103 9.65239L24.4244 9.43237C24.8244 9.30903 25.2611 9.43571 25.5271 9.7524L25.9338 10.2365C26.0985 10.4308 26.1811 10.6816 26.164 10.9357C26.147 11.1898 26.0316 11.4273 25.8425 11.5979C25.1791 12.2033 24.1577 12.408 23.3929 11.8073C22.7205 11.2784 22.1518 10.6296 21.7154 9.89375C21.278 9.16151 20.9851 8.35213 20.8527 7.50952C20.706 6.56143 21.4001 5.80269 22.2655 5.54399C22.7815 5.38931 23.3322 5.65467 23.5216 6.14939L23.745 6.73278C23.8916 7.11681 23.7863 7.55019 23.4769 7.82755Z" fill="white"/>
</g>
</svg>
