<svg width="24" height="25" viewBox="0 0 24 25" fill="none" xmlns="http://www.w3.org/2000/svg">
<path d="M6 11.5C6 8.18629 8.68629 5.5 12 5.5C15.3137 5.5 18 8.18629 18 11.5V21.5H6V11.5Z" fill="#FA967C"/>
<g style="mix-blend-mode:multiply">
<path d="M16 11.5C16 13.7091 14.2091 15.5 12 15.5C9.79086 15.5 8 13.7091 8 11.5C8 9.29086 9.79086 7.5 12 7.5C14.2091 7.5 16 9.29086 16 11.5Z" fill="#D63D4A"/>
</g>
<path d="M13.3335 11.1006L13.4142 11.1084C13.5964 11.1457 13.7332 11.3071 13.7332 11.5003C13.7332 11.6936 13.5964 11.8549 13.4142 11.8923L13.3335 11.9001H10.6668C10.4459 11.9001 10.2671 11.7212 10.2671 11.5003C10.2671 11.2794 10.4459 11.1006 10.6668 11.1006H13.3335Z" fill="white"/>
<path d="M12.3996 12.833L12.3918 12.9137C12.3544 13.096 12.1931 13.2327 11.9998 13.2327C11.8066 13.2327 11.6452 13.096 11.6079 12.9137L11.6001 12.833L11.6001 10.1663C11.6001 9.94543 11.7789 9.7666 11.9998 9.7666C12.2208 9.7666 12.3996 9.94543 12.3996 10.1663L12.3996 12.833Z" fill="white"/>
<g style="mix-blend-mode:multiply">
<path d="M4 20C4 19.1716 4.67157 18.5 5.5 18.5H18.5C19.3284 18.5 20 19.1716 20 20C20 20.8284 19.3284 21.5 18.5 21.5H5.5C4.67157 21.5 4 20.8284 4 20Z" fill="#D63D4A"/>
</g>
<path d="M12.7998 4.3999L12.7959 4.48193C12.7548 4.88523 12.4141 5.19971 12 5.19971C11.5859 5.19971 11.2452 4.88523 11.2041 4.48193L11.2002 4.3999L11.2002 2.8999C11.2002 2.45807 11.5582 2.1001 12 2.1001C12.4418 2.1001 12.7998 2.45807 12.7998 2.8999L12.7998 4.3999Z" fill="#D63D4A"/>
<path d="M6.75712 6.12603L6.81237 6.1868C7.06849 6.50101 7.04996 6.96429 6.75712 7.25712C6.46429 7.54996 6.00101 7.56849 5.6868 7.31237L5.62603 7.25712L4.56537 6.19646C4.25295 5.88404 4.25295 5.37779 4.56537 5.06537C4.87779 4.75295 5.38404 4.75295 5.69646 5.06537L6.75712 6.12603Z" fill="#D63D4A"/>
<path d="M17.3736 6.12603L17.3183 6.1868C17.0622 6.50101 17.0807 6.96429 17.3736 7.25712C17.6664 7.54996 18.1297 7.56849 18.4439 7.31237L18.5047 7.25712L19.5653 6.19646C19.8777 5.88404 19.8777 5.37779 19.5653 5.06537C19.2529 4.75295 18.7467 4.75295 18.4342 5.06537L17.3736 6.12603Z" fill="#D63D4A"/>
</svg>
