<svg width="33" height="32" viewBox="0 0 33 32" fill="none" xmlns="http://www.w3.org/2000/svg">
<circle cx="16.8337" cy="15.9999" r="11.6667" fill="white"/>
<circle cx="16.8337" cy="15.9999" r="11.6667" fill="#FA967C"/>
<circle cx="16.834" cy="15.9999" r="10" fill="#FA967C"/>
<g style="mix-blend-mode:multiply">
<path d="M25.167 15.9999C25.167 11.3975 21.436 7.66659 16.8337 7.66659C12.2313 7.66659 8.50033 11.3975 8.50033 15.9999C8.50033 16.9204 7.75413 17.6666 6.83366 17.6666C5.91318 17.6666 5.16699 16.9204 5.16699 15.9999C5.16699 9.5566 10.3903 4.33325 16.8337 4.33325C23.277 4.33325 28.5003 9.5566 28.5003 15.9999C28.5003 16.9204 27.7541 17.6666 26.8337 17.6666C25.9132 17.6666 25.167 16.9204 25.167 15.9999Z" fill="#D63D4A"/>
</g>
<g style="mix-blend-mode:multiply">
<path d="M14.0205 13.5233C13.88 13.0316 13.3675 12.7469 12.8758 12.8874C12.3841 13.0279 12.0994 13.5403 12.2399 14.032L12.8286 16.0925H12.2042C11.6929 16.0925 11.2783 16.507 11.2783 17.0184C11.2783 17.5298 11.6929 17.9443 12.2042 17.9443H13.3577L13.8272 19.5876C13.9367 19.971 14.2794 20.2412 14.6778 20.2583C15.0762 20.2754 15.4408 20.0355 15.5827 19.6628L16.8339 16.3786L18.085 19.6628C18.227 20.0355 18.5915 20.2754 18.9899 20.2583C19.3883 20.2412 19.731 19.971 19.8406 19.5876L20.3101 17.9443H21.4635C21.9749 17.9443 22.3894 17.5298 22.3894 17.0184C22.3894 16.507 21.9749 16.0925 21.4635 16.0925H20.8392L21.4279 14.032C21.5684 13.5403 21.2837 13.0279 20.792 12.8874C20.3003 12.7469 19.7878 13.0316 19.6473 13.5233L18.8247 16.4025L17.6991 13.448C17.5624 13.089 17.2181 12.8517 16.8339 12.8517C16.4497 12.8517 16.1054 13.089 15.9686 13.448L14.8431 16.4025L14.0205 13.5233Z" fill="#D63D4A"/>
</g>
</svg>
