<svg width="32" height="32" viewBox="0 0 32 32" fill="none" xmlns="http://www.w3.org/2000/svg">
<g style="mix-blend-mode:multiply">
<path fill-rule="evenodd" clip-rule="evenodd" d="M10.3862 4.83333C9.95116 4.83348 9.52387 4.95785 9.14764 5.19385C8.77142 5.42985 8.45962 5.76908 8.24383 6.17718L3.8258 14.5296C3.61233 14.9327 3.50003 15.3891 3.5 15.8535V21.8501C3.50003 22.2639 3.58917 22.6719 3.76039 23.042L5.1401 26.023C5.34503 26.4661 5.66013 26.8387 6.05009 27.0991C6.44004 27.3596 6.88943 27.4975 7.34788 27.4975H8.43635C9.09095 27.4975 9.71874 27.2166 10.1816 26.7166C10.6445 26.2165 10.9045 25.5383 10.9045 24.8312H20.7772C20.7772 25.5383 21.0373 26.2165 21.5001 26.7166C21.963 27.2166 22.5908 27.4975 23.2454 27.4975H24.3339C24.7923 27.4975 25.2417 27.3596 25.6317 27.0991C26.0216 26.8387 26.3367 26.4661 26.5416 26.023L27.9213 23.042C28.0929 22.6727 28.1817 22.2634 28.1817 21.8501V15.8535C28.1817 15.3891 28.0694 14.9327 27.8559 14.5296L23.4379 6.17718C23.2221 5.76908 22.9103 5.42985 22.5341 5.19385C22.1579 4.95785 21.7306 4.83348 21.2955 4.83333H10.3862Z" fill="#FA967C"/>
<g style="mix-blend-mode:multiply">
<path d="M6.0432 27.1016C5.65325 26.8412 5.33814 26.4685 5.13321 26.0255L4.44336 24.535H27.2246L26.5348 26.0255C26.3298 26.4685 26.0147 26.8412 25.6248 27.1016C25.2348 27.362 24.7854 27.5 24.327 27.5H23.2385C22.5839 27.5 21.9561 27.2191 21.4932 26.7191C21.0304 26.219 20.7703 25.5408 20.7703 24.8336H10.8976C10.8976 25.5408 10.6376 26.219 10.1747 26.7191C9.71185 27.2191 9.08406 27.5 8.42946 27.5H7.341C6.88254 27.5 6.43315 27.362 6.0432 27.1016Z" fill="#D63D4A"/>
</g>
<g style="mix-blend-mode:multiply">
<path d="M7.43071 13.1728L9.69778 8.07187C9.83423 7.76486 10.1387 7.567 10.4747 7.567H21.4607C21.7967 7.567 22.1011 7.76486 22.2376 8.07187L24.5046 13.1728C24.7545 13.735 24.343 14.3682 23.7278 14.3682H8.20759C7.59237 14.3682 7.18085 13.735 7.43071 13.1728Z" fill="#D63D4A"/>
</g>
<ellipse cx="9.73448" cy="19.5683" rx="1.7003" ry="1.7003" fill="white"/>
<circle cx="22.2032" cy="19.5683" r="1.7003" fill="white"/>
<g style="mix-blend-mode:multiply">
<ellipse cx="23.5003" cy="8.83333" rx="5.33333" ry="5.33333" fill="#D63D4A"/>
</g>
<path d="M23.4779 7.82755L22.9265 8.32226C22.9994 8.57174 23.1012 8.81184 23.2299 9.03767C23.3641 9.26184 23.5258 9.46836 23.7113 9.65239L24.4253 9.43237C24.8254 9.30903 25.2621 9.43571 25.5281 9.7524L25.9348 10.2365C26.0995 10.4308 26.182 10.6816 26.165 10.9357C26.1479 11.1898 26.0326 11.4273 25.8435 11.5979C25.1801 12.2033 24.1586 12.408 23.3939 11.8073C22.7215 11.2784 22.1527 10.6296 21.7164 9.89375C21.279 9.16151 20.9861 8.35213 20.8536 7.50952C20.707 6.56143 21.401 5.80269 22.2665 5.54399C22.7825 5.38931 23.3332 5.65467 23.5226 6.14939L23.7459 6.73278C23.8926 7.11681 23.7873 7.55019 23.4779 7.82755Z" fill="white"/>
</g>
</svg>
