<svg width="20" height="21" viewBox="0 0 20 21" fill="none" xmlns="http://www.w3.org/2000/svg">
<path d="M10.004 8.17082C10.3721 8.17087 10.6704 8.46923 10.6705 8.83732V9.83341H11.6666L11.735 9.83667C12.0709 9.87099 12.3331 10.1549 12.3331 10.4999C12.3331 10.845 12.071 11.1288 11.735 11.1632L11.6666 11.1664H10.6705V12.1707L10.6673 12.239C10.633 12.5751 10.3491 12.8371 10.004 12.8372C9.65891 12.8372 9.375 12.5751 9.34077 12.239L9.33752 12.1707V11.1664H8.33328C7.96509 11.1664 7.66678 10.8681 7.66678 10.4999C7.6668 10.1317 7.96511 9.83341 8.33328 9.83341H9.33752V8.83732C9.33759 8.4692 9.63588 8.17082 10.004 8.17082Z" fill="#8A949E"/>
<path fill-rule="evenodd" clip-rule="evenodd" d="M13.4627 3.00073C14.7502 3.05405 15.9698 3.59087 16.853 4.50382C17.7341 5.41475 18.2083 6.62677 18.1624 7.87785C18.1587 9.06017 17.6616 10.2544 16.9889 11.343C16.3078 12.4452 15.4073 13.5025 14.5149 14.42C12.7334 16.2515 10.9141 17.597 10.7332 17.7192L10.3719 17.9633C10.1466 18.1151 9.85164 18.1151 9.62642 17.9633L9.26509 17.7192L9.26346 17.7183C9.08477 17.597 7.26565 16.2514 5.48335 14.4192C4.59097 13.5018 3.69044 12.445 3.00939 11.343C2.33668 10.2545 1.83876 9.06018 1.83507 7.87785C1.78922 6.62687 2.26347 5.41472 3.14448 4.50382C4.02767 3.59078 5.24805 3.05405 6.53559 3.00073C6.54801 3.00022 6.5606 2.99973 6.57303 2.99992C7.38775 3.01202 8.18671 3.22892 8.88911 3.63061C9.29892 3.86503 9.63666 4.22209 9.90229 4.56242C9.93511 4.60447 9.9676 4.64675 9.99914 4.68937C10.0307 4.64674 10.0632 4.60448 10.096 4.56242C10.3616 4.22208 10.6993 3.86502 11.1092 3.63061C11.8116 3.22891 12.6105 3.01201 13.4252 2.99992C13.4377 2.99973 13.4502 3.00022 13.4627 3.00073ZM13.4261 4.33374C12.8406 4.34558 12.2703 4.50272 11.7716 4.78784C11.5782 4.89846 11.3655 5.10229 11.1466 5.38273C10.9325 5.65712 10.7407 5.96708 10.5753 6.25187C10.456 6.4571 10.2366 6.58307 9.99914 6.58309C9.76171 6.58309 9.54232 6.45709 9.42297 6.25187C9.2576 5.9671 9.06581 5.65711 8.85168 5.38273C8.63278 5.10229 8.4201 4.89846 8.22668 4.78784C7.72786 4.50264 7.15696 4.34552 6.5714 4.33374C5.62325 4.3778 4.73746 4.77498 4.10314 5.43074C3.46571 6.08973 3.13326 6.95556 3.16808 7.83797C3.16843 7.84676 3.1689 7.85603 3.1689 7.86483C3.16892 8.69522 3.52592 9.64286 4.14302 10.6415C4.75443 11.6309 5.58363 12.6108 6.43875 13.4898C7.29136 14.3663 8.15557 15.1281 8.82563 15.6838C9.16006 15.9612 9.44503 16.1862 9.65408 16.3471C9.75852 16.4274 9.84377 16.492 9.90636 16.5383C9.93768 16.5615 9.96318 16.58 9.98205 16.5937L9.99914 16.6059L10.0162 16.5937C10.035 16.5802 10.0606 16.5615 10.0919 16.5383C10.1544 16.4921 10.2397 16.4282 10.3442 16.3479C10.5532 16.1872 10.8381 15.9621 11.1726 15.6847C11.8427 15.129 12.7068 14.3665 13.5595 13.4898C14.4146 12.6107 15.2439 11.6317 15.8553 10.6423C16.4725 9.64343 16.8294 8.69534 16.8294 7.86483C16.8294 7.85603 16.8298 7.84676 16.8302 7.83797C16.865 6.95558 16.5325 6.08972 15.8951 5.43074C15.2607 4.77489 14.3744 4.37771 13.4261 4.33374Z" fill="#8A949E"/>
</svg>
