<svg width="24" height="24" viewBox="0 0 24 24" fill="none" xmlns="http://www.w3.org/2000/svg">
<g clip-path="url(#clip0_100_2624)">
<path fill-rule="evenodd" clip-rule="evenodd" d="M8.2002 12.9253C6.94042 12.9253 5.73224 13.4257 4.84144 14.3165C3.95064 15.2073 3.4502 16.4155 3.4502 17.6753C3.4502 18.4312 3.75046 19.1561 4.28494 19.6905C4.81942 20.225 5.54433 20.5253 6.3002 20.5253H17.7002C18.4561 20.5253 19.181 20.225 19.7155 19.6905C20.2499 19.1561 20.5502 18.4312 20.5502 17.6753C20.5502 16.4155 20.0498 15.2073 19.159 14.3165C18.2682 13.4257 17.06 12.9253 15.8002 12.9253H8.2002Z" fill="#FA967C"/>
<path d="M8.81802 4.29312C7.97411 5.13703 7.5 6.28162 7.5 7.4751C7.5 8.66857 7.97411 9.81316 8.81802 10.6571C9.66193 11.501 10.8065 11.9751 12 11.9751C13.1935 11.9751 14.3381 11.501 15.182 10.6571C16.0259 9.81316 16.5 8.66857 16.5 7.4751C16.5 6.28162 16.0259 5.13703 15.182 4.29312C14.3381 3.4492 13.1935 2.9751 12 2.9751C10.8065 2.9751 9.66193 3.4492 8.81802 4.29312Z" fill="#FA967C"/>
<path d="M8.81802 4.29312C7.97411 5.13703 7.5 6.28162 7.5 7.4751C7.5 8.66857 7.97411 9.81316 8.81802 10.6571C9.66193 11.501 10.8065 11.9751 12 11.9751C13.1935 11.9751 14.3381 11.501 15.182 10.6571C16.0259 9.81316 16.5 8.66857 16.5 7.4751C16.5 6.28162 16.0259 5.13703 15.182 4.29312C14.3381 3.4492 13.1935 2.9751 12 2.9751C10.8065 2.9751 9.66193 3.4492 8.81802 4.29312Z" fill="#D63D4A"/>
</g>
<defs>
<clipPath id="clip0_100_2624">
<rect width="24" height="24" fill="white"/>
</clipPath>
</defs>
</svg>
