<svg width="25" height="25" viewBox="0 0 25 25" fill="none" xmlns="http://www.w3.org/2000/svg">
<g clip-path="url(#clip0_8041_125355)">
<path d="M15.1665 11.4395C15.1665 10.3349 16.0619 9.43945 17.1665 9.43945H21.1665C22.2711 9.43945 23.1665 10.3349 23.1665 11.4395V20.1667C23.1665 21.2713 22.2711 22.1667 21.1665 22.1667H17.1665C16.0619 22.1667 15.1665 21.2713 15.1665 20.1667V11.4395Z" fill="#D63D4A"/>
<rect x="3.1665" y="3.16675" width="15" height="19" rx="2" fill="#FA967C"/>
<path fill-rule="evenodd" clip-rule="evenodd" d="M6.6665 8.66675C6.6665 8.11446 7.11422 7.66675 7.6665 7.66675H13.6665C14.2188 7.66675 14.6665 8.11446 14.6665 8.66675C14.6665 9.21903 14.2188 9.66675 13.6665 9.66675H7.6665C7.11422 9.66675 6.6665 9.21903 6.6665 8.66675ZM6.6665 12.6667C6.6665 12.1145 7.11422 11.6667 7.6665 11.6667H13.6665C14.2188 11.6667 14.6665 12.1145 14.6665 12.6667C14.6665 13.219 14.2188 13.6667 13.6665 13.6667H7.6665C7.11422 13.6667 6.6665 13.219 6.6665 12.6667ZM8.1665 17.1667C7.61422 17.1667 7.1665 17.6145 7.1665 18.1667V22.1667H14.1665V18.1667C14.1665 17.6145 13.7188 17.1667 13.1665 17.1667H8.1665Z" fill="#D63D4A"/>
</g>
<defs>
<clipPath id="clip0_8041_125355">
<rect width="24" height="24" fill="white" transform="translate(0.166504 0.666748)"/>
</clipPath>
</defs>
</svg>
