<svg width="24" height="24" viewBox="0 0 24 24" fill="none" xmlns="http://www.w3.org/2000/svg">
<g clip-path="url(#clip0_100_2616)">
<path d="M15 10.7727C15 9.66814 15.8954 8.77271 17 8.77271H21C22.1046 8.77271 23 9.66814 23 10.7727V19.5C23 20.6045 22.1046 21.5 21 21.5H17C15.8954 21.5 15 20.6045 15 19.5V10.7727Z" fill="#D63D4A"/>
<rect x="3" y="2.5" width="15" height="19" rx="2" fill="#FA967C"/>
<path d="M13 16.5C13.5523 16.5 14 16.9477 14 17.5V21.5H7V17.5C7 16.9477 7.44772 16.5 8 16.5H13ZM13.5 11C14.0523 11 14.5 11.4477 14.5 12C14.5 12.5523 14.0523 13 13.5 13H7.5C6.94772 13 6.5 12.5523 6.5 12C6.5 11.4477 6.94772 11 7.5 11H13.5ZM13.5 7C14.0523 7 14.5 7.44772 14.5 8C14.5 8.55228 14.0523 9 13.5 9H7.5C6.94772 9 6.5 8.55228 6.5 8C6.5 7.44772 6.94772 7 7.5 7H13.5Z" fill="#D63D4A"/>
</g>
<defs>
<clipPath id="clip0_100_2616">
<rect width="24" height="24" fill="white"/>
</clipPath>
</defs>
</svg>
