<svg width="287" height="36" viewBox="0 0 287 36" fill="none" xmlns="http://www.w3.org/2000/svg">
<path d="M27.5945 5.53125V8.70703H29.1648V9.48047H27.5945V13.2188H26.6804V5.53125H27.5945ZM28.075 14.9531V15.7266H21.0789V12.4219H21.9812V14.9531H28.075ZM22.3796 6.26953C23.9382 6.26953 25.1101 7.32422 25.1218 8.83594C25.1101 10.3477 23.9382 11.4023 22.3796 11.4023C20.821 11.4023 19.6375 10.3477 19.6492 8.83594C19.6375 7.32422 20.821 6.26953 22.3796 6.26953ZM22.3796 7.07812C21.3484 7.07812 20.5398 7.80469 20.5515 8.83594C20.5398 9.86719 21.3484 10.5938 22.3796 10.5938C23.4343 10.5938 24.2195 9.86719 24.2195 8.83594C24.2195 7.80469 23.4343 7.07812 22.3796 7.07812ZM38.4226 5.54297V11.4609H37.5085V5.54297H38.4226ZM38.4226 12.0586V15.8086H31.6492V12.0586H38.4226ZM32.5515 12.8086V15.0586H37.5203V12.8086H32.5515ZM33.5125 6.97266C33.5007 8.44922 34.6257 9.75 36.1609 10.2891L35.6921 10.9922C34.4851 10.5762 33.5242 9.69727 33.0554 8.55469C32.5925 9.77344 31.6199 10.7344 30.3718 11.1914L29.9031 10.4648C31.4851 9.91406 32.575 8.50781 32.575 6.97266V5.95312H33.5125V6.97266Z" fill="#6D7882"/>
<path d="M0 32C0 29.7909 1.79086 28 4 28H57.4V36H4C1.79086 36 0 34.2091 0 32Z" fill="#063A74"/>
<path d="M74.0413 5.53125V9.65625H75.7874V10.4297H74.0413V15.9727H73.1272V5.53125H74.0413ZM71.2991 6.55078V7.3125H67.3499V12.5859C69.2366 12.5859 70.5725 12.498 72.1194 12.2109L72.2366 13.0078C70.6077 13.3008 69.2366 13.3594 67.2561 13.3594H66.4358V6.55078H71.2991ZM85.8889 13.8281V14.5898H76.3499V13.8281H80.6155V11.2734H81.5178V13.8281H85.8889ZM81.5413 7.04297C81.5413 8.78906 83.6038 10.3125 85.4202 10.6289L85.01 11.3906C83.4221 11.0684 81.7463 9.99023 81.0725 8.48438C80.387 9.98438 78.7229 11.0684 77.135 11.3906L76.7249 10.6289C78.5413 10.3125 80.5803 8.78906 80.5803 7.04297V6.24609H81.5413V7.04297ZM94.8655 5.53125V8.70703H96.4358V9.48047H94.8655V13.2188H93.9514V5.53125H94.8655ZM95.3459 14.9531V15.7266H88.3499V12.4219H89.2522V14.9531H95.3459ZM89.6506 6.26953C91.2092 6.26953 92.3811 7.32422 92.3928 8.83594C92.3811 10.3477 91.2092 11.4023 89.6506 11.4023C88.092 11.4023 86.9084 10.3477 86.9202 8.83594C86.9084 7.32422 88.092 6.26953 89.6506 6.26953ZM89.6506 7.07812C88.6194 7.07812 87.8108 7.80469 87.8225 8.83594C87.8108 9.86719 88.6194 10.5938 89.6506 10.5938C90.7053 10.5938 91.4905 9.86719 91.4905 8.83594C91.4905 7.80469 90.7053 7.07812 89.6506 7.07812ZM105.694 5.54297V11.4609H104.78V5.54297H105.694ZM105.694 12.0586V15.8086H98.9202V12.0586H105.694ZM99.8225 12.8086V15.0586H104.791V12.8086H99.8225ZM100.783 6.97266C100.772 8.44922 101.897 9.75 103.432 10.2891L102.963 10.9922C101.756 10.5762 100.795 9.69727 100.326 8.55469C99.8635 9.77344 98.8909 10.7344 97.6428 11.1914L97.1741 10.4648C98.7561 9.91406 99.8459 8.50781 99.8459 6.97266V5.95312H100.783V6.97266Z" fill="#6D7882"/>
<path d="M57.3999 28H114.8V36H57.3999V28Z" fill="#228738"/>
<path d="M156.699 0C162.774 5.15406e-07 167.699 4.92487 167.699 11C167.699 17.0751 162.774 22 156.699 22H146.207L144.574 24.9551C144.194 25.6435 143.205 25.6435 142.824 24.9551L141.191 22H130.699C124.624 22 119.699 17.0751 119.699 11C119.699 4.92487 124.624 1.28852e-07 130.699 0H156.699Z" fill="#063A74"/>
<path d="M156.699 0C162.774 5.15406e-07 167.699 4.92487 167.699 11C167.699 17.0751 162.774 22 156.699 22H146.207L144.574 24.9551C144.194 25.6435 143.205 25.6435 142.824 24.9551L141.191 22H130.699C124.624 22 119.699 17.0751 119.699 11C119.699 4.92487 124.624 1.28852e-07 130.699 0H156.699Z" fill="#228738"/>
<path d="M156.699 0C162.774 5.15406e-07 167.699 4.92487 167.699 11C167.699 17.0751 162.774 22 156.699 22H146.207L144.574 24.9551C144.194 25.6435 143.205 25.6435 142.824 24.9551L141.191 22H130.699C124.624 22 119.699 17.0751 119.699 11C119.699 4.92487 124.624 1.28852e-07 130.699 0H156.699Z" fill="#FFB114"/>
<path d="M143.906 13.6172V14.8359H134.145V13.6172H138.258V11.6484H135.176V6.09375H136.676V7.74609H141.328V6.09375H142.816V11.6484H139.746V13.6172H143.906ZM136.676 10.4531H141.328V8.94141H136.676V10.4531ZM154.242 10.9102V12.082H144.492V10.9102H148.617V10.2539H145.711V5.67188H153.105V6.82031H147.211V7.41797H152.859V8.49609H147.211V9.10547H153.199V10.2539H150.117V10.9102H154.242ZM149.367 12.5742C151.723 12.5625 153.07 13.1953 153.082 14.3203C153.07 15.4688 151.723 16.0781 149.367 16.0781C146.977 16.0781 145.629 15.4688 145.629 14.3203C145.629 13.1953 146.977 12.5625 149.367 12.5742ZM149.367 13.6758C147.832 13.6758 147.117 13.875 147.129 14.3203C147.117 14.7773 147.832 14.9766 149.367 14.9766C150.867 14.9766 151.57 14.7773 151.582 14.3203C151.57 13.875 150.867 13.6758 149.367 13.6758Z" fill="white"/>
<path d="M114.8 28H172.2V36H114.8V28Z" fill="#FFB114"/>
<path d="M200.251 5.54297V13.1836H199.337V5.54297H200.251ZM200.58 14.9531V15.7266H193.525V12.4805H194.439V14.9531H200.58ZM195.341 7.17188C195.33 8.75391 196.419 10.1836 197.966 10.7461L197.486 11.4844C196.279 11.0215 195.341 10.084 194.884 8.88281C194.421 10.1602 193.472 11.1855 192.259 11.6719L191.755 10.957C193.337 10.3477 194.404 8.8125 194.404 7.17188V6.12891H195.341V7.17188ZM211.513 10.4062V11.168H207.212V12.2812C209.181 12.3633 210.341 13.0078 210.353 14.1094C210.341 15.2695 209.005 15.9258 206.767 15.9258C204.505 15.9258 203.169 15.2695 203.169 14.1094C203.169 13.0078 204.324 12.3633 206.31 12.2812V11.168H202.021V10.4062H211.513ZM206.767 12.9844C205.091 12.9961 204.095 13.4062 204.107 14.1094C204.095 14.8008 205.091 15.2109 206.767 15.2109C208.419 15.2109 209.427 14.8008 209.427 14.1094C209.427 13.4062 208.419 12.9961 206.767 12.9844ZM210.669 6.02344V6.77344H207.365C207.423 7.94531 209.146 8.85352 210.986 9.04688L210.646 9.77344C208.941 9.56836 207.341 8.80664 206.767 7.64062C206.199 8.80664 204.605 9.56836 202.888 9.77344L202.56 9.04688C204.365 8.85352 206.099 7.94531 206.169 6.77344H202.888V6.02344H210.669Z" fill="#6D7882"/>
<path d="M172.2 28H229.6V36H172.2V28Z" fill="#F98263"/>
<path d="M254.312 7.00781C254.3 8.40234 256.163 9.58594 257.98 9.85547L257.64 10.582C256.011 10.3066 254.429 9.43945 253.796 8.17969C253.163 9.43945 251.575 10.3066 249.976 10.582L249.613 9.85547C251.417 9.58594 253.281 8.40234 253.281 7.00781V6.9375H249.941V6.1875H257.64V6.9375H254.312V7.00781ZM258.542 11.4727V12.2344H254.23V15.9492H253.327V12.2344H249.05V11.4727H258.542ZM262.831 6.29297C264.472 6.29297 265.632 7.28906 265.632 8.74219C265.632 10.1953 264.472 11.1914 262.831 11.1914C261.191 11.1914 260.007 10.1953 260.019 8.74219C260.007 7.28906 261.191 6.29297 262.831 6.29297ZM262.831 7.10156C261.718 7.10156 260.909 7.76953 260.921 8.74219C260.909 9.71484 261.718 10.3828 262.831 10.3828C263.933 10.3828 264.73 9.71484 264.73 8.74219C264.73 7.76953 263.933 7.10156 262.831 7.10156ZM267.964 5.53125V15.9727H267.05V5.53125H267.964ZM259.48 12.8906C261.402 12.8906 264.05 12.8789 266.359 12.5391L266.429 13.2188C264.05 13.6641 261.484 13.6758 259.609 13.6758L259.48 12.8906Z" fill="#6D7882"/>
<path d="M229.6 28H283C285.209 28 287 29.7909 287 32C287 34.2091 285.209 36 283 36H229.6V28Z" fill="#D63D4A"/>
</svg>
