<svg width="287" height="36" viewBox="0 0 287 36" fill="none" xmlns="http://www.w3.org/2000/svg">
<path d="M27.5945 5.53125V8.70703H29.1648V9.48047H27.5945V13.2188H26.6804V5.53125H27.5945ZM28.075 14.9531V15.7266H21.0789V12.4219H21.9812V14.9531H28.075ZM22.3796 6.26953C23.9382 6.26953 25.1101 7.32422 25.1218 8.83594C25.1101 10.3477 23.9382 11.4023 22.3796 11.4023C20.821 11.4023 19.6375 10.3477 19.6492 8.83594C19.6375 7.32422 20.821 6.26953 22.3796 6.26953ZM22.3796 7.07812C21.3484 7.07812 20.5398 7.80469 20.5515 8.83594C20.5398 9.86719 21.3484 10.5938 22.3796 10.5938C23.4343 10.5938 24.2195 9.86719 24.2195 8.83594C24.2195 7.80469 23.4343 7.07812 22.3796 7.07812ZM38.4226 5.54297V11.4609H37.5085V5.54297H38.4226ZM38.4226 12.0586V15.8086H31.6492V12.0586H38.4226ZM32.5515 12.8086V15.0586H37.5203V12.8086H32.5515ZM33.5125 6.97266C33.5007 8.44922 34.6257 9.75 36.1609 10.2891L35.6921 10.9922C34.4851 10.5762 33.5242 9.69727 33.0554 8.55469C32.5925 9.77344 31.6199 10.7344 30.3718 11.1914L29.9031 10.4648C31.4851 9.91406 32.575 8.50781 32.575 6.97266V5.95312H33.5125V6.97266Z" fill="#6D7882"/>
<path d="M0 32C0 29.7909 1.79086 28 4 28H57.4V36H4C1.79086 36 0 34.2091 0 32Z" fill="#063A74"/>
<path d="M74.0413 5.53125V9.65625H75.7874V10.4297H74.0413V15.9727H73.1272V5.53125H74.0413ZM71.2991 6.55078V7.3125H67.3499V12.5859C69.2366 12.5859 70.5725 12.498 72.1194 12.2109L72.2366 13.0078C70.6077 13.3008 69.2366 13.3594 67.2561 13.3594H66.4358V6.55078H71.2991ZM85.8889 13.8281V14.5898H76.3499V13.8281H80.6155V11.2734H81.5178V13.8281H85.8889ZM81.5413 7.04297C81.5413 8.78906 83.6038 10.3125 85.4202 10.6289L85.01 11.3906C83.4221 11.0684 81.7463 9.99023 81.0725 8.48438C80.387 9.98438 78.7229 11.0684 77.135 11.3906L76.7249 10.6289C78.5413 10.3125 80.5803 8.78906 80.5803 7.04297V6.24609H81.5413V7.04297ZM94.8655 5.53125V8.70703H96.4358V9.48047H94.8655V13.2188H93.9514V5.53125H94.8655ZM95.3459 14.9531V15.7266H88.3499V12.4219H89.2522V14.9531H95.3459ZM89.6506 6.26953C91.2092 6.26953 92.3811 7.32422 92.3928 8.83594C92.3811 10.3477 91.2092 11.4023 89.6506 11.4023C88.092 11.4023 86.9084 10.3477 86.9202 8.83594C86.9084 7.32422 88.092 6.26953 89.6506 6.26953ZM89.6506 7.07812C88.6194 7.07812 87.8108 7.80469 87.8225 8.83594C87.8108 9.86719 88.6194 10.5938 89.6506 10.5938C90.7053 10.5938 91.4905 9.86719 91.4905 8.83594C91.4905 7.80469 90.7053 7.07812 89.6506 7.07812ZM105.694 5.54297V11.4609H104.78V5.54297H105.694ZM105.694 12.0586V15.8086H98.9202V12.0586H105.694ZM99.8225 12.8086V15.0586H104.791V12.8086H99.8225ZM100.783 6.97266C100.772 8.44922 101.897 9.75 103.432 10.2891L102.963 10.9922C101.756 10.5762 100.795 9.69727 100.326 8.55469C99.8635 9.77344 98.8909 10.7344 97.6428 11.1914L97.1741 10.4648C98.7561 9.91406 99.8459 8.50781 99.8459 6.97266V5.95312H100.783V6.97266Z" fill="#6D7882"/>
<path d="M57.3999 28H114.8V36H57.3999V28Z" fill="#228738"/>
<path d="M143.789 13.8516V14.6133H134.25V13.8516H138.539V11.6016H135.375V6.26953H136.301V8.15625H141.715V6.26953H142.617V11.6016H139.441V13.8516H143.789ZM136.301 10.8516H141.715V8.90625H136.301V10.8516ZM154.113 11.0625V11.8125H144.609V11.0625H148.898V10.0312H145.875V5.83594H152.93V6.58594H146.801V7.55859H152.648V8.26172H146.801V9.29297H152.988V10.0312H149.812V11.0625H154.113ZM149.367 12.5977C151.652 12.5859 152.941 13.1719 152.953 14.2617C152.941 15.3516 151.652 15.9258 149.367 15.9258C147.059 15.9258 145.77 15.3516 145.77 14.2617C145.77 13.1719 147.059 12.5859 149.367 12.5977ZM149.367 13.2891C147.645 13.2891 146.684 13.6406 146.695 14.2617C146.684 14.8945 147.645 15.2227 149.367 15.2109C151.066 15.2227 152.027 14.8945 152.027 14.2617C152.027 13.6406 151.066 13.2891 149.367 13.2891Z" fill="#6D7882"/>
<path d="M114.8 28H172.2V36H114.8V28Z" fill="#FFB114"/>
<path d="M214.099 0C220.174 5.15406e-07 225.099 4.92487 225.099 11C225.099 17.0751 220.174 22 214.099 22H203.607L201.974 24.9551C201.594 25.6435 200.605 25.6435 200.224 24.9551L198.591 22H188.099C182.024 22 177.099 17.0751 177.099 11C177.099 4.92487 182.024 1.28852e-07 188.099 0H214.099Z" fill="#063A74"/>
<path d="M214.099 0C220.174 5.15406e-07 225.099 4.92487 225.099 11C225.099 17.0751 220.174 22 214.099 22H203.607L201.974 24.9551C201.594 25.6435 200.605 25.6435 200.224 24.9551L198.591 22H188.099C182.024 22 177.099 17.0751 177.099 11C177.099 4.92487 182.024 1.28852e-07 188.099 0H214.099Z" fill="#228738"/>
<path d="M214.099 0C220.174 5.15406e-07 225.099 4.92487 225.099 11C225.099 17.0751 220.174 22 214.099 22H203.607L201.974 24.9551C201.594 25.6435 200.605 25.6435 200.224 24.9551L198.591 22H188.099C182.024 22 177.099 17.0751 177.099 11C177.099 4.92487 182.024 1.28852e-07 188.099 0H214.099Z" fill="#FFB114"/>
<path d="M214.099 0C220.174 5.15406e-07 225.099 4.92487 225.099 11C225.099 17.0751 220.174 22 214.099 22H203.607L201.974 24.9551C201.594 25.6435 200.605 25.6435 200.224 24.9551L198.591 22H188.099C182.024 22 177.099 17.0751 177.099 11C177.099 4.92487 182.024 1.28852e-07 188.099 0H214.099Z" fill="#F98263"/>
<path d="M200.474 5.42578V13.207H198.974V5.42578H200.474ZM200.755 14.6953V15.8906H193.326V12.457H194.837V14.6953H200.755ZM195.634 7.04297C195.623 8.44922 196.373 9.83203 198.13 10.3945L197.369 11.5664C196.167 11.168 195.335 10.3711 194.861 9.35156C194.386 10.4473 193.531 11.3262 192.283 11.7539L191.509 10.5703C193.302 9.97266 194.076 8.48438 194.076 7.04297V6.01172H195.634V7.04297ZM211.642 10.2539V11.4609H207.517V12.2461C209.375 12.3867 210.47 13.0547 210.482 14.1562C210.47 15.3867 209.076 16.0781 206.767 16.0781C204.423 16.0781 203.029 15.3867 203.029 14.1562C203.029 13.0488 204.136 12.3809 206.029 12.2461V11.4609H201.916V10.2539H211.642ZM206.767 13.3477C205.291 13.3594 204.541 13.6172 204.552 14.1562C204.541 14.6719 205.291 14.9531 206.767 14.9531C208.208 14.9531 208.97 14.6719 208.982 14.1562C208.97 13.6172 208.208 13.3594 206.767 13.3477ZM210.763 5.87109V7.04297H207.869C208.121 7.79297 209.205 8.51367 211.232 8.68359L210.705 9.85547C208.695 9.66211 207.335 8.90039 206.767 7.86328C206.205 8.90039 204.869 9.66211 202.841 9.85547L202.349 8.68359C204.324 8.51367 205.414 7.78711 205.689 7.04297H202.806V5.87109H210.763Z" fill="white"/>
<path d="M172.2 28H229.6V36H172.2V28Z" fill="#F98263"/>
<path d="M254.312 7.00781C254.3 8.40234 256.163 9.58594 257.98 9.85547L257.64 10.582C256.011 10.3066 254.429 9.43945 253.796 8.17969C253.163 9.43945 251.575 10.3066 249.976 10.582L249.613 9.85547C251.417 9.58594 253.281 8.40234 253.281 7.00781V6.9375H249.941V6.1875H257.64V6.9375H254.312V7.00781ZM258.542 11.4727V12.2344H254.23V15.9492H253.327V12.2344H249.05V11.4727H258.542ZM262.831 6.29297C264.472 6.29297 265.632 7.28906 265.632 8.74219C265.632 10.1953 264.472 11.1914 262.831 11.1914C261.191 11.1914 260.007 10.1953 260.019 8.74219C260.007 7.28906 261.191 6.29297 262.831 6.29297ZM262.831 7.10156C261.718 7.10156 260.909 7.76953 260.921 8.74219C260.909 9.71484 261.718 10.3828 262.831 10.3828C263.933 10.3828 264.73 9.71484 264.73 8.74219C264.73 7.76953 263.933 7.10156 262.831 7.10156ZM267.964 5.53125V15.9727H267.05V5.53125H267.964ZM259.48 12.8906C261.402 12.8906 264.05 12.8789 266.359 12.5391L266.429 13.2188C264.05 13.6641 261.484 13.6758 259.609 13.6758L259.48 12.8906Z" fill="#6D7882"/>
<path d="M229.6 28H283C285.209 28 287 29.7909 287 32C287 34.2091 285.209 36 283 36H229.6V28Z" fill="#D63D4A"/>
</svg>
