<svg width="287" height="36" viewBox="0 0 287 36" fill="none" xmlns="http://www.w3.org/2000/svg">
<path fill-rule="evenodd" clip-rule="evenodd" d="M15.8992 0C9.82404 0 4.89917 4.92487 4.89917 11C4.89917 17.0751 9.82404 22 15.8992 22H26.3909L28.0239 24.9552C28.4043 25.6437 29.394 25.6437 29.7744 24.9552L31.4075 22H41.8992C47.9743 22 52.8992 17.0751 52.8992 11C52.8992 4.92487 47.9743 0 41.8992 0H15.8992Z" fill="#063A74"/>
<path d="M27.8054 5.41406V8.47266H29.2468V9.71484H27.8054V13.1836H26.3054V5.41406H27.8054ZM28.1921 14.6953V15.8906H20.8914V12.3633H22.3796V14.6953H28.1921ZM22.3445 6.10547C23.9734 6.10547 25.2507 7.23047 25.2507 8.8125C25.2507 10.3711 23.9734 11.5195 22.3445 11.5195C20.7039 11.5195 19.4148 10.3711 19.4148 8.8125C19.4148 7.23047 20.7039 6.10547 22.3445 6.10547ZM22.3445 7.40625C21.5359 7.39453 20.8796 7.92188 20.8914 8.8125C20.8796 9.67969 21.5359 10.2188 22.3445 10.2188C23.1648 10.2188 23.7859 9.67969 23.7976 8.8125C23.7859 7.92188 23.1648 7.39453 22.3445 7.40625ZM38.6453 5.42578V11.4375H37.1453V5.42578H38.6453ZM38.6453 11.9297V15.9609H31.4968V11.9297H38.6453ZM32.9734 13.1133V14.7656H37.1804V13.1133H32.9734ZM33.8054 6.84375C33.7937 8.14453 34.5789 9.375 36.3015 9.91406L35.575 11.0508C34.3562 10.6934 33.5125 9.95508 33.032 9C32.5457 10.0371 31.6785 10.8574 30.407 11.25L29.6804 10.0781C31.4617 9.53906 32.2468 8.17969 32.2468 6.84375V5.8125H33.8054V6.84375Z" fill="white"/>
<path d="M0 32C0 29.7909 1.79086 28 4 28H57.4V36H4C1.79086 36 0 34.2091 0 32Z" fill="#063A74"/>
<path d="M73.5842 4.53125V8.65625H75.3303V9.42969H73.5842V14.9727H72.6702V4.53125H73.5842ZM70.842 5.55078V6.3125H66.8928V11.5859C68.7795 11.5859 70.1155 11.498 71.6624 11.2109L71.7795 12.0078C70.1506 12.3008 68.7795 12.3594 66.7991 12.3594H65.9788V5.55078H70.842ZM85.4319 12.8281V13.5898H75.8928V12.8281H80.1584V10.2734H81.0608V12.8281H85.4319ZM81.0842 6.04297C81.0842 7.78906 83.1467 9.3125 84.9631 9.62891L84.553 10.3906C82.9651 10.0684 81.2893 8.99023 80.6155 7.48438C79.9299 8.98438 78.2659 10.0684 76.678 10.3906L76.2678 9.62891C78.0842 9.3125 80.1233 7.78906 80.1233 6.04297V5.24609H81.0842V6.04297ZM94.4084 4.53125V7.70703H95.9788V8.48047H94.4084V12.2188H93.4944V4.53125H94.4084ZM94.8889 13.9531V14.7266H87.8928V11.4219H88.7952V13.9531H94.8889ZM89.1936 5.26953C90.7522 5.26953 91.9241 6.32422 91.9358 7.83594C91.9241 9.34766 90.7522 10.4023 89.1936 10.4023C87.635 10.4023 86.4514 9.34766 86.4631 7.83594C86.4514 6.32422 87.635 5.26953 89.1936 5.26953ZM89.1936 6.07812C88.1624 6.07812 87.3538 6.80469 87.3655 7.83594C87.3538 8.86719 88.1624 9.59375 89.1936 9.59375C90.2483 9.59375 91.0334 8.86719 91.0334 7.83594C91.0334 6.80469 90.2483 6.07812 89.1936 6.07812ZM105.237 4.54297V10.4609H104.323V4.54297H105.237ZM105.237 11.0586V14.8086H98.4631V11.0586H105.237ZM99.3655 11.8086V14.0586H104.334V11.8086H99.3655ZM100.326 5.97266C100.315 7.44922 101.44 8.75 102.975 9.28906L102.506 9.99219C101.299 9.57617 100.338 8.69727 99.8694 7.55469C99.4065 8.77344 98.4338 9.73438 97.1858 10.1914L96.717 9.46484C98.2991 8.91406 99.3889 7.50781 99.3889 5.97266V4.95312H100.326V5.97266Z" fill="#656B7B"/>
<path d="M57.3999 28H114.8V36H57.3999V28Z" fill="#228738"/>
<path d="M142.961 12.8516V13.6133H133.422V12.8516H137.711V10.6016H134.547V5.26953H135.473V7.15625H140.887V5.26953H141.789V10.6016H138.613V12.8516H142.961ZM135.473 9.85156H140.887V7.90625H135.473V9.85156ZM153.285 10.0625V10.8125H143.781V10.0625H148.07V9.03125H145.047V4.83594H152.102V5.58594H145.973V6.55859H151.82V7.26172H145.973V8.29297H152.16V9.03125H148.984V10.0625H153.285ZM148.539 11.5977C150.824 11.5859 152.113 12.1719 152.125 13.2617C152.113 14.3516 150.824 14.9258 148.539 14.9258C146.23 14.9258 144.941 14.3516 144.941 13.2617C144.941 12.1719 146.23 11.5859 148.539 11.5977ZM148.539 12.2891C146.816 12.2891 145.855 12.6406 145.867 13.2617C145.855 13.8945 146.816 14.2227 148.539 14.2109C150.238 14.2227 151.199 13.8945 151.199 13.2617C151.199 12.6406 150.238 12.2891 148.539 12.2891Z" fill="#656B7B"/>
<path d="M114.8 28H172.2V36H114.8V28Z" fill="#FFB114"/>
<path d="M199.423 4.54297V12.1836H198.509V4.54297H199.423ZM199.751 13.9531V14.7266H192.697V11.4805H193.611V13.9531H199.751ZM194.513 6.17188C194.501 7.75391 195.591 9.18359 197.138 9.74609L196.658 10.4844C195.451 10.0215 194.513 9.08398 194.056 7.88281C193.593 9.16016 192.644 10.1855 191.431 10.6719L190.927 9.95703C192.509 9.34766 193.576 7.8125 193.576 6.17188V5.12891H194.513V6.17188ZM210.685 9.40625V10.168H206.384V11.2812C208.353 11.3633 209.513 12.0078 209.525 13.1094C209.513 14.2695 208.177 14.9258 205.939 14.9258C203.677 14.9258 202.341 14.2695 202.341 13.1094C202.341 12.0078 203.496 11.3633 205.482 11.2812V10.168H201.193V9.40625H210.685ZM205.939 11.9844C204.263 11.9961 203.267 12.4062 203.279 13.1094C203.267 13.8008 204.263 14.2109 205.939 14.2109C207.591 14.2109 208.599 13.8008 208.599 13.1094C208.599 12.4062 207.591 11.9961 205.939 11.9844ZM209.841 5.02344V5.77344H206.537C206.595 6.94531 208.318 7.85352 210.158 8.04688L209.818 8.77344C208.113 8.56836 206.513 7.80664 205.939 6.64062C205.371 7.80664 203.777 8.56836 202.06 8.77344L201.732 8.04688C203.537 7.85352 205.271 6.94531 205.341 5.77344H202.06V5.02344H209.841Z" fill="#656B7B"/>
<path d="M172.2 28H229.6V36H172.2V28Z" fill="#F98263"/>
<path d="M253.484 6.00781C253.472 7.40234 255.335 8.58594 257.152 8.85547L256.812 9.58203C255.183 9.30664 253.601 8.43945 252.968 7.17969C252.335 8.43945 250.747 9.30664 249.148 9.58203L248.784 8.85547C250.589 8.58594 252.452 7.40234 252.452 6.00781V5.9375H249.113V5.1875H256.812V5.9375H253.484V6.00781ZM257.714 10.4727V11.2344H253.402V14.9492H252.499V11.2344H248.222V10.4727H257.714ZM262.003 5.29297C263.644 5.29297 264.804 6.28906 264.804 7.74219C264.804 9.19531 263.644 10.1914 262.003 10.1914C260.363 10.1914 259.179 9.19531 259.191 7.74219C259.179 6.28906 260.363 5.29297 262.003 5.29297ZM262.003 6.10156C260.89 6.10156 260.081 6.76953 260.093 7.74219C260.081 8.71484 260.89 9.38281 262.003 9.38281C263.105 9.38281 263.902 8.71484 263.902 7.74219C263.902 6.76953 263.105 6.10156 262.003 6.10156ZM267.136 4.53125V14.9727H266.222V4.53125H267.136ZM258.652 11.8906C260.573 11.8906 263.222 11.8789 265.531 11.5391L265.601 12.2188C263.222 12.6641 260.656 12.6758 258.781 12.6758L258.652 11.8906Z" fill="#656B7B"/>
<path d="M229.6 28H283C285.209 28 287 29.7909 287 32C287 34.2091 285.209 36 283 36H229.6V28Z" fill="#D63D4A"/>
</svg>
