<svg width="287" height="36" viewBox="0 0 287 36" fill="none" xmlns="http://www.w3.org/2000/svg">
<path d="M27.5945 5.53125V8.70703H29.1648V9.48047H27.5945V13.2188H26.6804V5.53125H27.5945ZM28.075 14.9531V15.7266H21.0789V12.4219H21.9812V14.9531H28.075ZM22.3796 6.26953C23.9382 6.26953 25.1101 7.32422 25.1218 8.83594C25.1101 10.3477 23.9382 11.4023 22.3796 11.4023C20.821 11.4023 19.6375 10.3477 19.6492 8.83594C19.6375 7.32422 20.821 6.26953 22.3796 6.26953ZM22.3796 7.07812C21.3484 7.07812 20.5398 7.80469 20.5515 8.83594C20.5398 9.86719 21.3484 10.5938 22.3796 10.5938C23.4343 10.5938 24.2195 9.86719 24.2195 8.83594C24.2195 7.80469 23.4343 7.07812 22.3796 7.07812ZM38.4226 5.54297V11.4609H37.5085V5.54297H38.4226ZM38.4226 12.0586V15.8086H31.6492V12.0586H38.4226ZM32.5515 12.8086V15.0586H37.5203V12.8086H32.5515ZM33.5125 6.97266C33.5007 8.44922 34.6257 9.75 36.1609 10.2891L35.6921 10.9922C34.4851 10.5762 33.5242 9.69727 33.0554 8.55469C32.5925 9.77344 31.6199 10.7344 30.3718 11.1914L29.9031 10.4648C31.4851 9.91406 32.575 8.50781 32.575 6.97266V5.95312H33.5125V6.97266Z" fill="#6D7882"/>
<path d="M0 32C0 29.7909 1.79086 28 4 28H57.4V36H4C1.79086 36 0 34.2091 0 32Z" fill="#063A74"/>
<path d="M74.0413 5.53125V9.65625H75.7874V10.4297H74.0413V15.9727H73.1272V5.53125H74.0413ZM71.2991 6.55078V7.3125H67.3499V12.5859C69.2366 12.5859 70.5725 12.498 72.1194 12.2109L72.2366 13.0078C70.6077 13.3008 69.2366 13.3594 67.2561 13.3594H66.4358V6.55078H71.2991ZM85.8889 13.8281V14.5898H76.3499V13.8281H80.6155V11.2734H81.5178V13.8281H85.8889ZM81.5413 7.04297C81.5413 8.78906 83.6038 10.3125 85.4202 10.6289L85.01 11.3906C83.4221 11.0684 81.7463 9.99023 81.0725 8.48438C80.387 9.98438 78.7229 11.0684 77.135 11.3906L76.7249 10.6289C78.5413 10.3125 80.5803 8.78906 80.5803 7.04297V6.24609H81.5413V7.04297ZM94.8655 5.53125V8.70703H96.4358V9.48047H94.8655V13.2188H93.9514V5.53125H94.8655ZM95.3459 14.9531V15.7266H88.3499V12.4219H89.2522V14.9531H95.3459ZM89.6506 6.26953C91.2092 6.26953 92.3811 7.32422 92.3928 8.83594C92.3811 10.3477 91.2092 11.4023 89.6506 11.4023C88.092 11.4023 86.9084 10.3477 86.9202 8.83594C86.9084 7.32422 88.092 6.26953 89.6506 6.26953ZM89.6506 7.07812C88.6194 7.07812 87.8108 7.80469 87.8225 8.83594C87.8108 9.86719 88.6194 10.5938 89.6506 10.5938C90.7053 10.5938 91.4905 9.86719 91.4905 8.83594C91.4905 7.80469 90.7053 7.07812 89.6506 7.07812ZM105.694 5.54297V11.4609H104.78V5.54297H105.694ZM105.694 12.0586V15.8086H98.9202V12.0586H105.694ZM99.8225 12.8086V15.0586H104.791V12.8086H99.8225ZM100.783 6.97266C100.772 8.44922 101.897 9.75 103.432 10.2891L102.963 10.9922C101.756 10.5762 100.795 9.69727 100.326 8.55469C99.8635 9.77344 98.8909 10.7344 97.6428 11.1914L97.1741 10.4648C98.7561 9.91406 99.8459 8.50781 99.8459 6.97266V5.95312H100.783V6.97266Z" fill="#6D7882"/>
<path d="M57.3999 28H114.8V36H57.3999V28Z" fill="#228738"/>
<path d="M143.789 13.8516V14.6133H134.25V13.8516H138.539V11.6016H135.375V6.26953H136.301V8.15625H141.715V6.26953H142.617V11.6016H139.441V13.8516H143.789ZM136.301 10.8516H141.715V8.90625H136.301V10.8516ZM154.113 11.0625V11.8125H144.609V11.0625H148.898V10.0312H145.875V5.83594H152.93V6.58594H146.801V7.55859H152.648V8.26172H146.801V9.29297H152.988V10.0312H149.812V11.0625H154.113ZM149.367 12.5977C151.652 12.5859 152.941 13.1719 152.953 14.2617C152.941 15.3516 151.652 15.9258 149.367 15.9258C147.059 15.9258 145.77 15.3516 145.77 14.2617C145.77 13.1719 147.059 12.5859 149.367 12.5977ZM149.367 13.2891C147.645 13.2891 146.684 13.6406 146.695 14.2617C146.684 14.8945 147.645 15.2227 149.367 15.2109C151.066 15.2227 152.027 14.8945 152.027 14.2617C152.027 13.6406 151.066 13.2891 149.367 13.2891Z" fill="#6D7882"/>
<path d="M114.8 28H172.2V36H114.8V28Z" fill="#FFB114"/>
<path d="M200.251 5.54297V13.1836H199.337V5.54297H200.251ZM200.58 14.9531V15.7266H193.525V12.4805H194.439V14.9531H200.58ZM195.341 7.17188C195.33 8.75391 196.419 10.1836 197.966 10.7461L197.486 11.4844C196.279 11.0215 195.341 10.084 194.884 8.88281C194.421 10.1602 193.472 11.1855 192.259 11.6719L191.755 10.957C193.337 10.3477 194.404 8.8125 194.404 7.17188V6.12891H195.341V7.17188ZM211.513 10.4062V11.168H207.212V12.2812C209.181 12.3633 210.341 13.0078 210.353 14.1094C210.341 15.2695 209.005 15.9258 206.767 15.9258C204.505 15.9258 203.169 15.2695 203.169 14.1094C203.169 13.0078 204.324 12.3633 206.31 12.2812V11.168H202.021V10.4062H211.513ZM206.767 12.9844C205.091 12.9961 204.095 13.4062 204.107 14.1094C204.095 14.8008 205.091 15.2109 206.767 15.2109C208.419 15.2109 209.427 14.8008 209.427 14.1094C209.427 13.4062 208.419 12.9961 206.767 12.9844ZM210.669 6.02344V6.77344H207.365C207.423 7.94531 209.146 8.85352 210.986 9.04688L210.646 9.77344C208.941 9.56836 207.341 8.80664 206.767 7.64062C206.199 8.80664 204.605 9.56836 202.888 9.77344L202.56 9.04688C204.365 8.85352 206.099 7.94531 206.169 6.77344H202.888V6.02344H210.669Z" fill="#6D7882"/>
<path d="M172.2 28H229.6V36H172.2V28Z" fill="#F98263"/>
<path d="M271.499 0C277.574 5.15406e-07 282.499 4.92487 282.499 11C282.499 17.0751 277.574 22 271.499 22H261.007L259.374 24.9551C258.994 25.6435 258.005 25.6435 257.624 24.9551L255.991 22H245.499C239.424 22 234.499 17.0751 234.499 11C234.499 4.92487 239.424 1.28852e-07 245.499 0H271.499Z" fill="#063A74"/>
<path d="M271.499 0C277.574 5.15406e-07 282.499 4.92487 282.499 11C282.499 17.0751 277.574 22 271.499 22H261.007L259.374 24.9551C258.994 25.6435 258.005 25.6435 257.624 24.9551L255.991 22H245.499C239.424 22 234.499 17.0751 234.499 11C234.499 4.92487 239.424 1.28852e-07 245.499 0H271.499Z" fill="#228738"/>
<path d="M271.499 0C277.574 5.15406e-07 282.499 4.92487 282.499 11C282.499 17.0751 277.574 22 271.499 22H261.007L259.374 24.9551C258.994 25.6435 258.005 25.6435 257.624 24.9551L255.991 22H245.499C239.424 22 234.499 17.0751 234.499 11C234.499 4.92487 239.424 1.28852e-07 245.499 0H271.499Z" fill="#FFB114"/>
<path d="M271.499 0C277.574 5.15406e-07 282.499 4.92487 282.499 11C282.499 17.0751 277.574 22 271.499 22H261.007L259.374 24.9551C258.994 25.6435 258.005 25.6435 257.624 24.9551L255.991 22H245.499C239.424 22 234.499 17.0751 234.499 11C234.499 4.92487 239.424 1.28852e-07 245.499 0H271.499Z" fill="#D63D4A"/>
<path d="M258.671 11.2969V12.4922H254.523V16.0781H253.046V12.4922H248.945V11.2969H258.671ZM257.804 5.97656V7.14844H254.698C254.845 8.19141 256.023 9.24023 258.214 9.50391L257.675 10.6758C255.8 10.4238 254.458 9.62109 253.82 8.51953C253.163 9.62109 251.833 10.4238 249.976 10.6758L249.425 9.50391C251.581 9.24023 252.771 8.19141 252.941 7.14844H249.823V5.97656H257.804ZM262.773 6.12891C264.46 6.11719 265.726 7.21875 265.726 8.74219C265.726 10.2773 264.46 11.3672 262.773 11.3672C261.085 11.3672 259.808 10.2773 259.808 8.74219C259.808 7.21875 261.085 6.11719 262.773 6.12891ZM262.773 7.41797C261.929 7.41797 261.284 7.91016 261.296 8.74219C261.284 9.58594 261.929 10.0664 262.773 10.0664C263.616 10.0664 264.261 9.58594 264.273 8.74219C264.261 7.91016 263.628 7.41797 262.773 7.41797ZM268.281 5.41406V16.1016H266.792V5.41406H268.281ZM259.363 12.7031C261.261 12.7148 263.898 12.6797 266.183 12.3633L266.3 13.4414C263.933 13.8984 261.402 13.9219 259.538 13.9219L259.363 12.7031Z" fill="white"/>
<path d="M229.6 28H283C285.209 28 287 29.7909 287 32C287 34.2091 285.209 36 283 36H229.6V28Z" fill="#D63D4A"/>
</svg>
