<svg width="287" height="36" viewBox="0 0 287 36" fill="none" xmlns="http://www.w3.org/2000/svg">
<path d="M27.5945 5.53125V8.70703H29.1648V9.48047H27.5945V13.2188H26.6804V5.53125H27.5945ZM28.075 14.9531V15.7266H21.0789V12.4219H21.9812V14.9531H28.075ZM22.3796 6.26953C23.9382 6.26953 25.1101 7.32422 25.1218 8.83594C25.1101 10.3477 23.9382 11.4023 22.3796 11.4023C20.821 11.4023 19.6375 10.3477 19.6492 8.83594C19.6375 7.32422 20.821 6.26953 22.3796 6.26953ZM22.3796 7.07812C21.3484 7.07812 20.5398 7.80469 20.5515 8.83594C20.5398 9.86719 21.3484 10.5938 22.3796 10.5938C23.4343 10.5938 24.2195 9.86719 24.2195 8.83594C24.2195 7.80469 23.4343 7.07812 22.3796 7.07812ZM38.4226 5.54297V11.4609H37.5085V5.54297H38.4226ZM38.4226 12.0586V15.8086H31.6492V12.0586H38.4226ZM32.5515 12.8086V15.0586H37.5203V12.8086H32.5515ZM33.5125 6.97266C33.5007 8.44922 34.6257 9.75 36.1609 10.2891L35.6921 10.9922C34.4851 10.5762 33.5242 9.69727 33.0554 8.55469C32.5925 9.77344 31.6199 10.7344 30.3718 11.1914L29.9031 10.4648C31.4851 9.91406 32.575 8.50781 32.575 6.97266V5.95312H33.5125V6.97266Z" fill="#6D7882"/>
<path d="M0 32C0 29.7909 1.79086 28 4 28H57.4V36H4C1.79086 36 0 34.2091 0 32Z" fill="#063A74"/>
<path d="M99.2991 0C105.374 5.15406e-07 110.299 4.92487 110.299 11C110.299 17.0751 105.374 22 99.2991 22H88.8069L87.1741 24.9551C86.7936 25.6435 85.8045 25.6435 85.4241 24.9551L83.7913 22H73.2991C67.2239 22 62.2991 17.0751 62.2991 11C62.2991 4.92487 67.2239 1.28852e-07 73.2991 0H99.2991Z" fill="#063A74"/>
<path d="M99.2991 0C105.374 5.15406e-07 110.299 4.92487 110.299 11C110.299 17.0751 105.374 22 99.2991 22H88.8069L87.1741 24.9551C86.7936 25.6435 85.8045 25.6435 85.4241 24.9551L83.7913 22H73.2991C67.2239 22 62.2991 17.0751 62.2991 11C62.2991 4.92487 67.2239 1.28852e-07 73.2991 0H99.2991Z" fill="#228738"/>
<path d="M74.2874 5.41406V9.375H75.8577V10.5938H74.2874V16.1016H72.7874V5.41406H74.2874ZM71.2991 6.39844V7.60547H67.7834V12.2812C69.3303 12.2637 70.6077 12.1934 72.0256 11.9414L72.1897 13.1953C70.5374 13.4766 69.0842 13.5234 67.1975 13.5117H66.2952V6.39844H71.2991ZM86.0061 13.6055V14.8008H76.2444V13.6055H80.3225V11.1914H81.8108V13.6055H86.0061ZM81.8577 6.78516C81.8577 8.30859 83.2288 9.91406 85.6663 10.2891L85.0334 11.5312C83.1584 11.1914 81.7639 10.1895 81.0608 8.85938C80.3577 10.1836 78.9749 11.1973 77.1116 11.5312L76.4788 10.2891C78.8928 9.91406 80.2522 8.29688 80.2639 6.78516V6.02344H81.8577V6.78516ZM95.0764 5.41406V8.47266H96.5178V9.71484H95.0764V13.1836H93.5764V5.41406H95.0764ZM95.4631 14.6953V15.8906H88.1624V12.3633H89.6506V14.6953H95.4631ZM89.6155 6.10547C91.2444 6.10547 92.5217 7.23047 92.5217 8.8125C92.5217 10.3711 91.2444 11.5195 89.6155 11.5195C87.9749 11.5195 86.6858 10.3711 86.6858 8.8125C86.6858 7.23047 87.9749 6.10547 89.6155 6.10547ZM89.6155 7.40625C88.8069 7.39453 88.1506 7.92188 88.1624 8.8125C88.1506 9.67969 88.8069 10.2188 89.6155 10.2188C90.4358 10.2188 91.0569 9.67969 91.0686 8.8125C91.0569 7.92188 90.4358 7.39453 89.6155 7.40625ZM105.916 5.42578V11.4375H104.416V5.42578H105.916ZM105.916 11.9297V15.9609H98.7678V11.9297H105.916ZM100.244 13.1133V14.7656H104.451V13.1133H100.244ZM101.076 6.84375C101.065 8.14453 101.85 9.375 103.573 9.91406L102.846 11.0508C101.627 10.6934 100.783 9.95508 100.303 9C99.8167 10.0371 98.9495 10.8574 97.678 11.25L96.9514 10.0781C98.7327 9.53906 99.5178 8.17969 99.5178 6.84375V5.8125H101.076V6.84375Z" fill="white"/>
<path d="M57.3999 28H114.8V36H57.3999V28Z" fill="#228738"/>
<path d="M143.789 13.8516V14.6133H134.25V13.8516H138.539V11.6016H135.375V6.26953H136.301V8.15625H141.715V6.26953H142.617V11.6016H139.441V13.8516H143.789ZM136.301 10.8516H141.715V8.90625H136.301V10.8516ZM154.113 11.0625V11.8125H144.609V11.0625H148.898V10.0312H145.875V5.83594H152.93V6.58594H146.801V7.55859H152.648V8.26172H146.801V9.29297H152.988V10.0312H149.812V11.0625H154.113ZM149.367 12.5977C151.652 12.5859 152.941 13.1719 152.953 14.2617C152.941 15.3516 151.652 15.9258 149.367 15.9258C147.059 15.9258 145.77 15.3516 145.77 14.2617C145.77 13.1719 147.059 12.5859 149.367 12.5977ZM149.367 13.2891C147.645 13.2891 146.684 13.6406 146.695 14.2617C146.684 14.8945 147.645 15.2227 149.367 15.2109C151.066 15.2227 152.027 14.8945 152.027 14.2617C152.027 13.6406 151.066 13.2891 149.367 13.2891Z" fill="#6D7882"/>
<path d="M114.8 28H172.2V36H114.8V28Z" fill="#FFB114"/>
<path d="M200.251 5.54297V13.1836H199.337V5.54297H200.251ZM200.58 14.9531V15.7266H193.525V12.4805H194.439V14.9531H200.58ZM195.341 7.17188C195.33 8.75391 196.419 10.1836 197.966 10.7461L197.486 11.4844C196.279 11.0215 195.341 10.084 194.884 8.88281C194.421 10.1602 193.472 11.1855 192.259 11.6719L191.755 10.957C193.337 10.3477 194.404 8.8125 194.404 7.17188V6.12891H195.341V7.17188ZM211.513 10.4062V11.168H207.212V12.2812C209.181 12.3633 210.341 13.0078 210.353 14.1094C210.341 15.2695 209.005 15.9258 206.767 15.9258C204.505 15.9258 203.169 15.2695 203.169 14.1094C203.169 13.0078 204.324 12.3633 206.31 12.2812V11.168H202.021V10.4062H211.513ZM206.767 12.9844C205.091 12.9961 204.095 13.4062 204.107 14.1094C204.095 14.8008 205.091 15.2109 206.767 15.2109C208.419 15.2109 209.427 14.8008 209.427 14.1094C209.427 13.4062 208.419 12.9961 206.767 12.9844ZM210.669 6.02344V6.77344H207.365C207.423 7.94531 209.146 8.85352 210.986 9.04688L210.646 9.77344C208.941 9.56836 207.341 8.80664 206.767 7.64062C206.199 8.80664 204.605 9.56836 202.888 9.77344L202.56 9.04688C204.365 8.85352 206.099 7.94531 206.169 6.77344H202.888V6.02344H210.669Z" fill="#6D7882"/>
<path d="M172.2 28H229.6V36H172.2V28Z" fill="#F98263"/>
<path d="M254.312 7.00781C254.3 8.40234 256.163 9.58594 257.98 9.85547L257.64 10.582C256.011 10.3066 254.429 9.43945 253.796 8.17969C253.163 9.43945 251.575 10.3066 249.976 10.582L249.613 9.85547C251.417 9.58594 253.281 8.40234 253.281 7.00781V6.9375H249.941V6.1875H257.64V6.9375H254.312V7.00781ZM258.542 11.4727V12.2344H254.23V15.9492H253.327V12.2344H249.05V11.4727H258.542ZM262.831 6.29297C264.472 6.29297 265.632 7.28906 265.632 8.74219C265.632 10.1953 264.472 11.1914 262.831 11.1914C261.191 11.1914 260.007 10.1953 260.019 8.74219C260.007 7.28906 261.191 6.29297 262.831 6.29297ZM262.831 7.10156C261.718 7.10156 260.909 7.76953 260.921 8.74219C260.909 9.71484 261.718 10.3828 262.831 10.3828C263.933 10.3828 264.73 9.71484 264.73 8.74219C264.73 7.76953 263.933 7.10156 262.831 7.10156ZM267.964 5.53125V15.9727H267.05V5.53125H267.964ZM259.48 12.8906C261.402 12.8906 264.05 12.8789 266.359 12.5391L266.429 13.2188C264.05 13.6641 261.484 13.6758 259.609 13.6758L259.48 12.8906Z" fill="#6D7882"/>
<path d="M229.6 28H283C285.209 28 287 29.7909 287 32C287 34.2091 285.209 36 283 36H229.6V28Z" fill="#D63D4A"/>
</svg>
