<svg width="20" height="20" viewBox="0 0 20 20" fill="none" xmlns="http://www.w3.org/2000/svg">
<g clip-path="url(#clip0_17288_183102)">
<path fill-rule="evenodd" clip-rule="evenodd" d="M9.99992 4.92741C14.3721 4.92741 17.9165 7.67429 17.9166 12.1735C17.9166 15.6519 15.0377 18.3332 12.1589 18.3332H7.8409C4.96211 18.3332 2.08325 15.6519 2.08325 12.1735C2.08334 7.67429 5.62772 4.92741 9.99992 4.92741ZM10.0512 9.47249C9.89739 9.4725 9.74197 9.51626 9.61418 9.61572C9.50625 9.6998 9.41557 9.82436 9.36678 10.0031L8.65145 12.5739L7.96867 9.86149C7.91478 9.6785 7.81088 9.57477 7.68628 9.51969C7.55602 9.46218 7.39321 9.4614 7.21834 9.50423C7.05079 9.55184 6.92864 9.64824 6.85946 9.77441C6.79385 9.8941 6.77314 10.0455 6.82283 10.222L7.1687 11.4753H6.36222C6.2106 11.4753 6.07347 11.5371 5.97404 11.6364C5.87454 11.7359 5.81291 11.8736 5.81291 12.0254C5.81297 12.1771 5.87459 12.3141 5.97404 12.4136C6.07348 12.513 6.21051 12.5746 6.36222 12.5747H7.47225L7.91984 14.1917C7.97174 14.3649 8.06194 14.4852 8.16886 14.5661C8.2948 14.6612 8.44631 14.7028 8.59611 14.7028C8.74613 14.7028 8.90338 14.659 9.03312 14.5579C9.141 14.4739 9.23205 14.3501 9.28052 14.173L10.0414 11.4468L10.7747 14.1844C10.8267 14.362 10.9182 14.4843 11.0269 14.5661C11.1534 14.6611 11.3072 14.703 11.468 14.7028C11.6144 14.6985 11.7633 14.6518 11.8863 14.5514C11.9888 14.4677 12.075 14.3458 12.1223 14.173L12.5699 12.5747H13.6376C13.7894 12.5747 13.9271 12.513 14.0266 12.4136C14.1259 12.3142 14.1869 12.1769 14.1869 12.0254C14.1869 11.8737 14.126 11.7359 14.0266 11.6364C13.9271 11.5369 13.7894 11.4753 13.6376 11.4753H12.8767L13.2454 10.1593C13.2872 9.98963 13.2619 9.84106 13.1917 9.7264C13.1209 9.61096 13.0012 9.52358 12.8336 9.48958C12.6729 9.45561 12.5189 9.47736 12.3958 9.54818C12.2776 9.61615 12.1833 9.7295 12.141 9.8973L11.4403 12.5763L10.7209 9.97624C10.669 9.80664 10.5781 9.68829 10.4719 9.6084C10.3465 9.5141 10.1969 9.47249 10.0512 9.47249Z" fill="#F8633C"/>
<path d="M13.1534 1.6665C13.6882 1.66675 14.0363 2.23379 13.7971 2.71549L12.9109 4.49935C11.994 4.232 11.0129 4.09411 9.99992 4.09408C8.9865 4.09411 8.00452 4.23178 7.08732 4.49935L6.2019 2.71549C5.96287 2.23386 6.31093 1.66683 6.84562 1.6665H13.1534Z" fill="#F8633C"/>
</g>
<defs>
<clipPath id="clip0_17288_183102">
<rect width="20" height="20" fill="white"/>
</clipPath>
</defs>
</svg>
