<svg width="20" height="20" viewBox="0 0 20 20" fill="none" xmlns="http://www.w3.org/2000/svg">
<g clip-path="url(#clip0_17288_183078)">
<path d="M10.0001 1.6665C14.6025 1.6665 18.3334 5.39746 18.3334 9.99984C18.3334 14.6022 14.6025 18.3332 10.0001 18.3332C5.39771 18.3332 1.66675 14.6022 1.66675 9.99984C1.66675 5.39746 5.39771 1.6665 10.0001 1.6665ZM8.14787 10.4629C7.53407 10.463 6.94534 10.7068 6.51131 11.1408C6.07729 11.5748 5.83349 12.1635 5.83342 12.7773C5.83342 13.1457 5.97985 13.4991 6.24032 13.7596C6.50078 14.0201 6.85422 14.1665 7.22258 14.1665H12.7776C13.1459 14.1665 13.4994 14.0201 13.7598 13.7596C14.0203 13.4991 14.1667 13.1457 14.1667 12.7773C14.1667 12.1635 13.9229 11.5748 13.4889 11.1408C13.0548 10.7068 12.4661 10.463 11.8523 10.4629H8.14787ZM10.0001 5.83317C9.50905 5.83317 9.03794 6.02801 8.69067 6.37516C8.34338 6.72245 8.14787 7.19424 8.14787 7.68538C8.14796 8.1764 8.34347 8.64759 8.69067 8.99479C9.03795 9.34197 9.50903 9.53678 10.0001 9.53678C10.4911 9.53678 10.9622 9.34197 11.3095 8.99479C11.6567 8.64759 11.8522 8.1764 11.8523 7.68538C11.8523 7.19424 11.6568 6.72245 11.3095 6.37516C10.9622 6.02801 10.4911 5.83317 10.0001 5.83317Z" fill="#F8633C"/>
</g>
<defs>
<clipPath id="clip0_17288_183078">
<rect width="20" height="20" fill="white"/>
</clipPath>
</defs>
</svg>
