<svg width="24" height="24" viewBox="0 0 24 24" fill="none" xmlns="http://www.w3.org/2000/svg">
<g clip-path="url(#clip0_17288_183055)">
<g clip-path="url(#clip1_17288_183055)">
<path fill-rule="evenodd" clip-rule="evenodd" d="M12.663 1.63447L19.2741 4.40837C19.6342 4.55941 19.9446 4.82985 20.1636 5.18354C20.3827 5.53723 20.5 5.95731 20.5 6.38762V12.0548C20.5 13.8211 20.0605 15.5524 19.2306 17.0549C18.4007 18.5574 17.2133 19.7716 15.8014 20.5615L12.6337 22.3326C12.437 22.4427 12.22 22.5 12 22.5C11.78 22.5 11.563 22.4427 11.3663 22.3326L8.19861 20.5604C6.7867 19.7705 5.59928 18.5563 4.7694 17.0539C3.93952 15.5514 3.49997 13.82 3.5 12.0538V6.38868C3.49976 5.95818 3.61702 5.53787 3.8361 5.18397C4.05517 4.83008 4.36562 4.55948 4.72589 4.40837L11.337 1.63447C11.7645 1.45518 12.2355 1.45518 12.663 1.63447ZM16.8 12C16.8 12.4418 16.4418 12.8 16 12.8H12.8V16C12.8 16.4418 12.4418 16.8 12 16.8C11.5582 16.8 11.2 16.4418 11.2 16V12.8H8C7.55817 12.8 7.2 12.4418 7.2 12C7.2 11.5582 7.55817 11.2 8 11.2H11.2V8C11.2 7.55817 11.5582 7.2 12 7.2C12.4418 7.2 12.8 7.55817 12.8 8V11.2H16C16.4418 11.2 16.8 11.5582 16.8 12Z" fill="#33363D"/>
</g>
</g>
<defs>
<clipPath id="clip0_17288_183055">
<rect width="24" height="24" fill="white"/>
</clipPath>
<clipPath id="clip1_17288_183055">
<rect width="24" height="24" fill="white"/>
</clipPath>
</defs>
</svg>
