<svg width="24" height="24" viewBox="0 0 24 24" fill="none" xmlns="http://www.w3.org/2000/svg">
<path d="M13.272 13.2287C13.272 13.2643 13.2898 13.2821 13.3077 13.2821C13.3255 13.2821 13.3433 13.2821 13.3433 13.2643L18.9572 9.61084C19.0641 9.53955 19.1532 9.5039 19.278 9.5039H20.5077C20.7037 9.5039 20.8285 9.62866 20.8285 9.8247V12.1772C20.8285 12.4623 20.7572 12.6227 20.5077 12.7831L19.0106 13.6742C18.9928 13.692 18.975 13.692 18.9572 13.692C18.9394 13.692 18.9215 13.6742 18.9215 13.6207V10.8762C18.9215 10.8405 18.9037 10.8227 18.8859 10.8227C18.8681 10.8227 18.8502 10.8227 18.8502 10.8405L14.7512 13.5138C14.6443 13.5851 14.5374 13.6029 14.4304 13.6029H11.7215C11.5255 13.6029 11.4007 13.4782 11.4007 13.2821V9.89598C11.4007 9.87816 11.3829 9.84252 11.3651 9.84252C11.3473 9.84252 11.3295 9.84252 11.3295 9.86034L8.62054 11.4999C8.5849 11.5178 8.5849 11.5356 8.5849 11.5356C8.5849 11.5534 8.5849 11.5534 8.60272 11.5712L10.5275 13.496C10.5453 13.5138 10.5631 13.5494 10.5631 13.5673C10.5631 13.5851 10.5275 13.6029 10.5096 13.6029H8.76311C8.62054 13.6029 8.51361 13.5851 8.44232 13.5138L7.26608 12.3376C7.24826 12.3197 7.24826 12.3197 7.23044 12.3197C7.21262 12.3197 7.21262 12.3197 7.1948 12.3376L5.2344 13.5138C5.10965 13.5851 5.03836 13.6029 4.91361 13.6029H3.14925C2.95321 13.6029 2.82846 13.4782 2.82846 13.2821V10.9653C2.82846 10.6801 2.89975 10.5197 3.14925 10.3594L4.64628 9.45044C4.6641 9.43262 4.68193 9.43262 4.68193 9.43262C4.69975 9.43262 4.71757 9.45044 4.71757 9.5039V12.5871C4.71757 12.6227 4.73539 12.6405 4.75321 12.6405C4.77104 12.6405 4.78886 12.6405 4.80668 12.6227L9.88589 9.55737C10.0106 9.48608 10.0819 9.46826 10.2245 9.46826H12.9691C13.1651 9.46826 13.2898 9.59301 13.2898 9.78905V13.2287H13.272Z" fill="#464C53"/>
</svg>
