<svg width="32" height="32" viewBox="0 0 32 32" fill="none" xmlns="http://www.w3.org/2000/svg">
<path d="M0 12C0 5.37258 5.37258 0 12 0H20C26.6274 0 32 5.37258 32 12V20C32 26.6274 26.6274 32 20 32H12C5.37258 32 0 26.6274 0 20V12Z" fill="#005743"/>
<path d="M17.0723 8.0127C17.9293 7.94656 18.7856 8.15352 19.5146 8.60352C20.2436 9.05354 20.8075 9.7228 21.123 10.5127C21.3402 11.0788 21.412 11.6897 21.333 12.29C21.2539 12.8902 21.0264 13.4618 20.6699 13.9541C21.3159 14.4812 21.7596 15.2114 21.9268 16.0225C22.0938 16.8335 21.9739 17.6766 21.5879 18.4111C21.2064 19.136 20.6239 19.739 19.9082 20.1484C19.1927 20.5576 18.3739 20.7566 17.5479 20.7227V23.9619C17.0637 23.9887 16.5561 24.0019 16.0137 24.002H16V8.0127H17.0723ZM14.915 8.00879H15V9.66699H14.8848C14.2144 9.63321 13.5442 9.7332 12.9131 9.96094C12.5382 10.1356 12.223 10.4155 12.0059 10.7666C11.7887 11.1177 11.6786 11.5243 11.6904 11.9365C11.7173 12.3767 11.8389 12.8061 12.0469 13.1953C12.2289 13.536 12.4738 13.839 12.7676 14.0889L12.8936 14.1875C13.9972 15.1405 15.3707 16.3218 14.8457 18.582C14.5399 19.5383 13.9532 20.3811 13.1611 21.001H10.8457C11.8607 20.3 12.6735 19.3451 13.2012 18.2324C13.4848 17.0119 12.9075 16.4458 11.7764 15.4736C11.2298 15.0519 10.7861 14.5124 10.4785 13.8955C10.171 13.2787 10.0072 12.6008 10 11.9121C9.99815 11.1752 10.2107 10.4534 10.6113 9.83398C11.0121 9.21456 11.5844 8.72339 12.2588 8.4209C13.1061 8.10199 14.0106 7.96147 14.915 8.00879ZM17.541 9.64062V19.1064C17.8892 19.1267 18.2379 19.0789 18.5674 18.9658C18.897 18.8527 19.2014 18.6765 19.4619 18.4473C19.7223 18.218 19.9343 17.9402 20.0859 17.6299C20.2376 17.3196 20.3259 16.9827 20.3457 16.6387C20.3019 16.0631 20.077 15.515 19.7021 15.0723C19.3273 14.6297 18.8214 14.3142 18.2559 14.1699C18.7145 13.9686 19.1078 13.6456 19.3926 13.2373C19.6774 12.8289 19.8431 12.3506 19.8701 11.8555C19.8692 11.2889 19.6489 10.7437 19.2549 10.332C18.8609 9.92047 18.3224 9.67319 17.75 9.64062H17.541Z" fill="white"/>
</svg>
