<svg width="24" height="24" viewBox="0 0 24 24" fill="none" xmlns="http://www.w3.org/2000/svg">
<path d="M0 9C0 4.02944 4.02944 0 9 0H15C19.9706 0 24 4.02944 24 9V15C24 19.9706 19.9706 24 15 24H9C4.02944 24 0 19.9706 0 15V9Z" fill="#00AEEF"/>
<g clip-path="url(#clip0_23311_11857)">
<path d="M18.9801 12C18.9801 15.7272 15.8242 18.75 11.9383 18.75C8.05241 18.75 4.88037 15.7272 4.88037 12C4.88037 8.27285 8.04167 5.25 11.9329 5.25C15.8242 5.25 18.9747 8.27285 18.9747 12H18.9801Z" fill="white"/>
<path d="M11.9383 18.4365C15.6417 18.4365 18.6473 15.5576 18.6473 12.0053C18.6473 8.45289 15.6417 5.56885 11.9383 5.56885C8.23489 5.56885 5.22388 8.44775 5.22388 12.0001C5.22388 15.5525 8.22953 18.4314 11.9383 18.4314V18.4365Z" fill="#0083CA"/>
<mask id="mask0_23311_11857" style="mask-type:luminance" maskUnits="userSpaceOnUse" x="5" y="5" width="14" height="14">
<path d="M11.9383 18.4365C15.6417 18.4365 18.6473 15.5576 18.6473 12.0052C18.6473 8.45288 15.6417 5.57397 11.9383 5.57397C8.23489 5.57397 5.22388 8.45288 5.22388 12.0052C5.22388 15.5576 8.22953 18.4365 11.9383 18.4365Z" fill="white"/>
</mask>
<g mask="url(#mask0_23311_11857)">
<path d="M11.9973 15.1052C14.9493 15.1052 17.4773 15.8969 18.5668 17.0125C18.9264 16.2156 19.125 15.3314 19.125 14.4112C19.125 10.72 15.9315 7.73315 11.9973 7.73315C8.06314 7.73315 4.875 10.72 4.875 14.4163C4.875 15.3365 5.07895 16.2156 5.43319 17.0125C6.51737 15.8969 9.04534 15.1052 11.9973 15.1052Z" fill="#0083CA"/>
<path d="M11.9973 15.1104C14.9439 15.1104 17.4612 15.897 18.5453 17.0023C18.905 16.2157 19.1035 15.3366 19.1035 14.4216C19.1035 10.7561 15.9208 7.78467 11.9973 7.78467C8.07388 7.78467 4.89111 10.7612 4.89111 14.4267C4.89111 15.3418 5.0897 16.2157 5.44931 17.0023C6.53349 15.8919 9.05608 15.1104 11.9973 15.1104Z" fill="#0085CB"/>
<path d="M11.9973 15.1206C14.9386 15.1206 17.4504 15.8968 18.5293 16.997C18.8889 16.2156 19.0875 15.3468 19.0875 14.4368C19.0875 10.8022 15.9101 7.84619 11.9973 7.84619C8.08463 7.84619 4.90723 10.8073 4.90723 14.4368C4.90723 15.3416 5.10581 16.2104 5.46542 16.9919C6.54423 15.8917 9.06146 15.1154 11.992 15.1154L11.9973 15.1206Z" fill="#0086CD"/>
<path d="M11.9974 15.1258C14.9279 15.1258 17.4344 15.8969 18.5132 16.9868C18.8728 16.2105 19.066 15.3469 19.066 14.4472C19.066 10.8434 15.8993 7.90283 11.992 7.90283C8.08464 7.90283 4.92871 10.8486 4.92871 14.4523C4.92871 15.352 5.1273 16.2105 5.4869 16.9868C6.56572 15.8969 9.07221 15.1258 11.9974 15.1258Z" fill="#0088CE"/>
<path d="M11.992 15.1308C14.9171 15.1308 17.4183 15.8968 18.4917 16.9764C18.846 16.2052 19.0445 15.3519 19.0445 14.4573C19.0445 10.8844 15.8832 7.9541 11.992 7.9541C8.10076 7.9541 4.94482 10.8896 4.94482 14.4625C4.94482 15.357 5.14341 16.2052 5.49765 16.9764C6.5711 15.8968 9.07223 15.1308 11.992 15.1308Z" fill="#008ACF"/>
<path d="M11.9919 15.1412C14.9063 15.1412 17.4021 15.902 18.4755 16.9713C18.8297 16.2105 19.0283 15.3571 19.0283 14.4728C19.0283 10.9308 15.8778 8.01587 11.9919 8.01587C8.10601 8.01587 4.96082 10.9308 4.96082 14.478C4.96082 15.3622 5.1594 16.2105 5.51364 16.9713C6.58709 15.8969 9.08285 15.1412 11.9919 15.1412Z" fill="#008CD0"/>
<path d="M11.9919 15.1464C14.9009 15.1464 17.386 15.897 18.4594 16.9611C18.8137 16.2054 19.0122 15.3623 19.0122 14.4832C19.0122 10.9668 15.867 8.07251 11.9973 8.07251C8.12749 8.07251 4.97693 10.9771 4.97693 14.4884C4.97693 15.3674 5.17552 16.2054 5.52975 16.9611C6.59783 15.897 9.08823 15.1464 11.9919 15.1464Z" fill="#008ED2"/>
<path d="M11.9919 15.1565C14.8902 15.1565 17.3753 15.9019 18.4433 16.9558C18.7976 16.2053 18.9908 15.3724 18.9908 14.4985C18.9908 11.013 15.8563 8.12891 11.9919 8.12891C8.12751 8.12891 4.99841 11.0181 4.99841 14.5036C4.99841 15.3724 5.197 16.2053 5.55124 16.9558C6.61395 15.9019 9.09898 15.1565 11.9973 15.1565H11.9919Z" fill="#008FD3"/>
<path d="M11.9919 15.1617C14.8849 15.1617 17.3592 15.902 18.4219 16.9456C18.7761 16.2002 18.9693 15.3725 18.9693 14.514C18.9693 11.0593 15.8402 8.19067 11.9866 8.19067C8.13289 8.19067 5.01453 11.0593 5.01453 14.514C5.01453 15.3777 5.21311 16.2002 5.56198 16.9456C6.6247 15.902 9.10436 15.1617 11.9866 15.1617H11.9919Z" fill="#0091D4"/>
<path d="M11.9919 15.167C14.8795 15.167 17.3484 15.897 18.4058 16.9354C18.76 16.2003 18.9532 15.3777 18.9532 14.5244C18.9532 11.1005 15.8349 8.24731 11.9919 8.24731C8.149 8.24731 5.03064 11.1005 5.03064 14.5244C5.03064 15.3777 5.22923 16.2003 5.5781 16.9354C6.63544 15.897 9.10974 15.167 11.9866 15.167H11.9919Z" fill="#0093D5"/>
<path d="M11.9866 15.1771C14.8634 15.1771 17.327 15.902 18.3843 16.9301C18.7386 16.2001 18.9318 15.3879 18.9318 14.5396C18.9318 11.1466 15.8188 8.30371 11.9866 8.30371C8.15438 8.30371 5.04675 11.1415 5.04675 14.5396C5.04675 15.3879 5.24534 16.2001 5.59421 16.9301C6.65156 15.902 9.11512 15.1771 11.9866 15.1771Z" fill="#0095D7"/>
<path d="M11.9866 15.1823C14.8581 15.1823 17.3109 15.9021 18.3682 16.9199C18.7171 16.1951 18.9157 15.388 18.9157 14.55C18.9157 11.1827 15.8134 8.36035 11.9866 8.36035C8.15976 8.36035 5.06287 11.1878 5.06287 14.55C5.06287 15.3931 5.25609 16.1951 5.61032 16.9199C6.6623 15.9021 9.12049 15.1823 11.9866 15.1823Z" fill="#0097D8"/>
<path d="M11.9866 15.1927C14.8473 15.1927 17.3002 15.9073 18.3522 16.9149C18.701 16.1952 18.8942 15.3983 18.8942 14.5655C18.8942 11.229 15.8027 8.42212 11.9866 8.42212C8.17051 8.42212 5.08435 11.229 5.08435 14.5655C5.08435 15.3983 5.27757 16.1952 5.62644 16.9149C6.67842 15.9073 9.13124 15.1927 11.9866 15.1927Z" fill="#0099D9"/>
<path d="M11.9866 15.1977C14.842 15.1977 17.2841 15.902 18.3361 16.9045C18.6849 16.195 18.8781 15.3982 18.8781 14.5756C18.8781 11.27 15.792 8.47339 11.9866 8.47339C8.18125 8.47339 5.10046 11.27 5.10046 14.5756C5.10046 15.4033 5.29368 16.195 5.64255 16.9045C6.68916 15.902 9.13662 15.1977 11.9866 15.1977Z" fill="#009BDA"/>
<path d="M11.9866 15.2029C14.8366 15.2029 17.2734 15.9021 18.32 16.8943C18.6688 16.19 18.8621 15.4034 18.8621 14.586C18.8621 11.3113 15.7866 8.53003 11.992 8.53003C8.19737 8.53003 5.11658 11.3113 5.11658 14.5911C5.11658 15.4086 5.3098 16.1951 5.65867 16.8994C6.70528 15.9072 9.142 15.2081 11.9866 15.2081V15.2029Z" fill="#009DDC"/>
<path d="M11.9812 15.213C14.8204 15.213 17.2518 15.9071 18.293 16.889C18.6419 16.1898 18.8351 15.4135 18.8351 14.6013C18.8351 11.3522 15.7651 8.58643 11.9812 8.58643C8.19726 8.58643 5.13257 11.3574 5.13257 14.6013C5.13257 15.4135 5.32579 16.1898 5.67466 16.889C6.7159 15.9071 9.14726 15.213 11.9812 15.213Z" fill="#009FDD"/>
<path d="M11.9812 15.2183C14.8151 15.2183 17.2357 15.9072 18.2769 16.8788C18.6258 16.1848 18.8137 15.4136 18.8137 14.6116C18.8137 11.3934 15.7543 8.64307 11.9758 8.64307C8.19727 8.64307 5.15405 11.3986 5.15405 14.6116C5.15405 15.4188 5.34727 16.1848 5.69614 16.8788C6.73739 15.9072 9.16337 15.2183 11.9865 15.2183H11.9812Z" fill="#00A1DE"/>
<path d="M11.9812 15.2286C14.8043 15.2286 17.225 15.9072 18.2608 16.8737C18.6097 16.19 18.7976 15.424 18.7976 14.6271C18.7976 11.4398 15.7436 8.70483 11.9812 8.70483C8.21875 8.70483 5.17017 11.4398 5.17017 14.6271C5.17017 15.424 5.36339 16.1848 5.70689 16.8737C6.74277 15.9072 9.16339 15.2286 11.9812 15.2286Z" fill="#00A3DF"/>
<path d="M11.9812 15.2336C14.799 15.2336 17.2089 15.9071 18.2448 16.8633C18.5936 16.1847 18.7815 15.429 18.7815 14.6373C18.7815 11.4808 15.7383 8.7561 11.9812 8.7561C8.22413 8.7561 5.18628 11.4808 5.18628 14.6373C5.18628 15.429 5.3795 16.1847 5.723 16.8633C6.75888 15.9071 9.16877 15.2336 11.9812 15.2336Z" fill="#00A5E1"/>
<path d="M11.9812 15.2389C14.7883 15.2389 17.1982 15.9072 18.2287 16.8531C18.5722 16.1797 18.7654 15.4291 18.7654 14.6477C18.7654 11.522 15.7275 8.81274 11.9812 8.81274C8.23488 8.81274 5.20239 11.522 5.20239 14.6528C5.20239 15.4342 5.39561 16.1848 5.73912 16.8583C6.76962 15.9123 9.17951 15.244 11.9812 15.244V15.2389Z" fill="#00A7E2"/>
<path d="M11.9812 15.2492C14.7829 15.2492 17.1821 15.9124 18.2126 16.848C18.5561 16.1797 18.7493 15.4394 18.7493 14.6632C18.7493 11.5632 15.7222 8.87451 11.9866 8.87451C8.25099 8.87451 5.21851 11.5683 5.21851 14.6632C5.21851 15.4394 5.41173 16.1797 5.75523 16.848C6.78574 15.9124 9.18489 15.2492 11.9812 15.2492Z" fill="#00A9E3"/>
<path d="M11.9759 15.2542C14.7722 15.2542 17.1606 15.9071 18.1858 16.8376C18.5293 16.1796 18.7171 15.4444 18.7171 14.6733C18.7171 11.6042 15.6954 8.92578 11.9705 8.92578C8.24564 8.92578 5.23999 11.6093 5.23999 14.6784C5.23999 15.4444 5.42784 16.1796 5.77135 16.8428C6.79649 15.9123 9.19027 15.2594 11.9812 15.2594L11.9759 15.2542Z" fill="#00ABE5"/>
<path d="M11.9759 15.2646C14.7615 15.2646 17.1499 15.9123 18.1697 16.8326C18.5132 16.1797 18.701 15.4497 18.701 14.6888C18.701 11.6505 15.69 8.98755 11.9759 8.98755C8.26175 8.98755 5.2561 11.6505 5.2561 14.6888C5.2561 15.4497 5.44396 16.1797 5.78746 16.8326C6.8126 15.9123 9.19565 15.2646 11.9759 15.2646Z" fill="#00ADE6"/>
<path d="M11.9759 15.2698C14.7561 15.2698 17.1338 15.9124 18.1536 16.8224C18.4971 16.1746 18.6849 15.4549 18.6849 14.6992C18.6849 11.6918 15.6793 9.04419 11.9759 9.04419C8.2725 9.04419 5.27222 11.6918 5.27222 14.6992C5.27222 15.4549 5.46007 16.1746 5.80357 16.8224C6.82335 15.9124 9.2064 15.2698 11.9759 15.2698Z" fill="#00AFE7"/>
<path d="M11.9759 15.2748C14.7454 15.2748 17.1231 15.9123 18.1375 16.8119C18.481 16.1693 18.6688 15.4548 18.6688 14.7093C18.6688 11.7327 15.6739 9.09546 11.9759 9.09546C8.27788 9.09546 5.28833 11.7379 5.28833 14.7145C5.28833 15.4599 5.47618 16.1745 5.81969 16.8171C6.83946 15.9174 9.21178 15.28 11.9759 15.28V15.2748Z" fill="#00B2E9"/>
<path d="M11.9758 15.2852C14.7399 15.2852 17.1069 15.9124 18.1213 16.8069C18.4648 16.1746 18.6473 15.4651 18.6473 14.7248C18.6473 11.7739 15.6577 9.15723 11.9758 9.15723C8.29387 9.15723 5.30432 11.7791 5.30432 14.7248C5.30432 15.4651 5.49217 16.1694 5.83031 16.8069C6.84472 15.9124 9.21167 15.2852 11.9704 15.2852H11.9758Z" fill="#00B4EA"/>
<path d="M11.9758 15.2904C14.7346 15.2904 17.0908 15.9124 18.1052 16.7967C18.4433 16.1695 18.6312 15.4703 18.6312 14.7403C18.6312 11.8203 15.6524 9.21899 11.9758 9.21899C8.29925 9.21899 5.32581 11.8203 5.32581 14.7403C5.32581 15.4703 5.51366 16.1746 5.85179 16.8018C6.8662 15.9176 9.22778 15.2955 11.9758 15.2955V15.2904Z" fill="#00B6EB"/>
<path d="M11.9705 15.3005C14.7185 15.3005 17.0747 15.9174 18.0837 16.7914C18.4219 16.1693 18.6097 15.4753 18.6097 14.7556C18.6097 11.8664 15.6363 9.27539 11.9758 9.27539C8.31537 9.27539 5.34192 11.8613 5.34192 14.7504C5.34192 15.4753 5.52977 16.1693 5.86791 16.7914C6.87695 15.9174 9.23316 15.3005 11.9758 15.3005H11.9705Z" fill="#00B8ED"/>
<path d="M11.9705 15.3058C14.7131 15.3058 17.0586 15.9175 18.0623 16.7812C18.4004 16.1643 18.5883 15.4805 18.5883 14.766C18.5883 11.9076 15.6255 9.33203 11.9705 9.33203C8.31538 9.33203 5.35803 11.9076 5.35803 14.766C5.35803 15.4857 5.54589 16.1694 5.88402 16.7812C6.89306 15.9124 9.23854 15.3058 11.9758 15.3058H11.9705Z" fill="#01BBEE"/>
<path d="M11.9705 15.3107C14.7024 15.3107 17.0479 15.9122 18.0462 16.7708C18.3843 16.1641 18.5668 15.4855 18.5668 14.7761C18.5668 11.9486 15.6095 9.38843 11.9651 9.38843C8.32076 9.38843 5.37415 11.9486 5.37415 14.7761C5.37415 15.4855 5.562 16.1641 5.89477 16.7708C6.89844 15.9122 9.23855 15.3107 11.9651 15.3107H11.9705Z" fill="#11BDF0"/>
<path d="M11.9705 15.3211C14.697 15.3211 17.0318 15.9175 18.0301 16.7657C18.3682 16.1642 18.5507 15.4908 18.5507 14.7916C18.5507 11.9898 15.6041 9.44507 11.9705 9.44507C8.33687 9.44507 5.39563 11.9898 5.39563 14.7865C5.39563 15.4908 5.58348 16.1642 5.91625 16.7606C6.91456 15.9123 9.25467 15.316 11.9705 15.316V15.3211Z" fill="#1AC0F1"/>
<path d="M11.9705 15.3263C14.6863 15.3263 17.0157 15.9176 18.014 16.7555C18.3521 16.1592 18.5346 15.496 18.5346 14.802C18.5346 12.031 15.5934 9.50171 11.9705 9.50171C8.34762 9.50171 5.41174 12.031 5.41174 14.802C5.41174 15.496 5.59423 16.1643 5.93236 16.7555C6.93067 15.9176 9.26005 15.3263 11.9705 15.3263Z" fill="#1FC4F4"/>
<path d="M11.9705 15.3416C14.6863 15.3416 17.0103 15.9277 18.0033 16.7605C18.3414 16.1693 18.5239 15.5113 18.5239 14.8173C18.5239 12.0669 15.588 9.54785 11.9705 9.54785C8.35299 9.54785 5.41711 12.072 5.41711 14.8224C5.41711 15.5113 5.5996 16.1745 5.93774 16.7657C6.93604 15.9328 9.26005 15.3468 11.9705 15.3468V15.3416Z" fill="#32C5F4"/>
<path d="M11.9705 15.3623C14.681 15.3623 17.005 15.9432 17.9979 16.7709C18.336 16.1848 18.5185 15.5268 18.5185 14.8431C18.5185 12.1081 15.588 9.60962 11.9705 9.60962C8.353 9.60962 5.42786 12.1081 5.42786 14.8431C5.42786 15.5319 5.61034 16.1848 5.94848 16.7709C6.94142 15.9432 9.26543 15.3623 11.9705 15.3623Z" fill="#3FC7F4"/>
<path d="M11.9705 15.3776C14.6756 15.3776 16.9996 15.9585 17.9872 16.781C18.32 16.195 18.5078 15.5472 18.5078 14.8635C18.5078 12.1491 15.5827 9.66089 11.9705 9.66089C8.35837 9.66089 5.4386 12.1439 5.4386 14.8583C5.4386 15.5421 5.62108 16.1898 5.95385 16.7759C6.94679 15.9533 9.26543 15.3724 11.9705 15.3724V15.3776Z" fill="#4AC8F5"/>
<path d="M11.9705 15.3931C14.6756 15.3931 16.9889 15.9689 17.9818 16.7863C18.3146 16.2054 18.4971 15.5576 18.4971 14.8841C18.4971 12.1852 15.5719 9.7124 11.9705 9.7124C8.36911 9.7124 5.44397 12.1852 5.44397 14.879C5.44397 15.5576 5.62646 16.2054 5.95922 16.7811C6.95216 15.9637 9.27081 15.388 11.9652 15.388L11.9705 15.3931Z" fill="#54CAF5"/>
<path d="M11.9705 15.4086C14.6702 15.4086 16.9835 15.9793 17.9711 16.7915C18.3039 16.2157 18.4864 15.5731 18.4864 14.8997C18.4864 12.2161 15.5666 9.76392 11.9652 9.76392C8.36375 9.76392 5.45471 12.2213 5.45471 14.8997C5.45471 15.5731 5.6372 16.2157 5.96997 16.7915C6.9629 15.9793 9.27618 15.4086 11.9705 15.4086Z" fill="#5CCCF5"/>
<path d="M11.9705 15.4239C14.6649 15.4239 16.9782 15.9894 17.9657 16.7965C18.2985 16.2259 18.481 15.5884 18.481 14.9201C18.481 12.2571 15.5666 9.81519 11.9705 9.81519C8.37449 9.81519 5.46545 12.2571 5.46545 14.9201C5.46545 15.5884 5.64794 16.2259 5.98071 16.8017C6.96828 15.9945 9.28156 15.429 11.9705 15.429V15.4239Z" fill="#64CDF6"/>
<path d="M11.9704 15.4446C14.6648 15.4446 16.9727 16.0101 17.9549 16.8069C18.2877 16.2363 18.4701 15.6039 18.4701 14.9408C18.4701 12.2932 15.5611 9.8667 11.9704 9.8667C8.37974 9.8667 5.4707 12.2983 5.4707 14.9408C5.4707 15.6039 5.65319 16.2363 5.98596 16.8069C6.97353 16.0049 9.28144 15.4446 11.9651 15.4446H11.9704Z" fill="#6CCFF6"/>
<path d="M11.9704 15.4598C14.6594 15.4598 16.962 16.0202 17.9495 16.817C18.2823 16.2515 18.4648 15.6243 18.4648 14.9663C18.4648 12.3393 15.5557 9.92822 11.9704 9.92822C8.38512 9.92822 5.48145 12.3342 5.48145 14.9612C5.48145 15.6192 5.66393 16.2515 5.9967 16.817C6.98427 16.0202 9.28681 15.4598 11.9704 15.4598Z" fill="#73D1F6"/>
<path d="M11.9704 15.4754C14.6541 15.4754 16.9566 16.0306 17.9388 16.8223C18.2716 16.2619 18.4541 15.6347 18.4541 14.9818C18.4541 12.3703 15.5504 9.97461 11.9704 9.97461C8.39049 9.97461 5.49219 12.3703 5.49219 14.9818C5.49219 15.6347 5.67467 16.2619 6.00744 16.8223C6.98965 16.0306 9.29219 15.4754 11.9704 15.4754Z" fill="#7AD2F7"/>
<path d="M11.9704 15.4907C14.6541 15.4907 16.9512 16.0407 17.9334 16.8273C18.2662 16.2721 18.4487 15.65 18.4487 15.0023C18.4487 12.4113 15.5504 10.0259 11.9758 10.0259C8.40123 10.0259 5.49756 12.4113 5.49756 15.0023C5.49756 15.6552 5.68004 16.2721 6.00745 16.8324C6.98965 16.0459 9.29219 15.4958 11.9651 15.4958L11.9704 15.4907Z" fill="#81D4F7"/>
<path d="M11.9704 15.5062C14.6487 15.5062 16.9459 16.0563 17.9227 16.8325C18.2555 16.2773 18.438 15.6656 18.438 15.0178C18.438 12.4422 15.545 10.0723 11.9704 10.0723C8.39587 10.0723 5.5083 12.4474 5.5083 15.0178C5.5083 15.6656 5.69079 16.2773 6.01819 16.8325C7.00039 16.0511 9.29757 15.5062 11.9651 15.5062H11.9704Z" fill="#88D6F8"/>
<path d="M11.9705 15.5268C14.6433 15.5268 16.9351 16.0718 17.9173 16.8429C18.2447 16.2928 18.4272 15.6811 18.4272 15.0436C18.4272 12.4886 15.5343 10.134 11.9705 10.134C8.40661 10.134 5.51904 12.4834 5.51904 15.0385C5.51904 15.6811 5.70153 16.2928 6.02893 16.8429C7.01113 16.0718 9.30294 15.5268 11.9705 15.5268Z" fill="#8ED8F8"/>
<path d="M11.9705 15.5421C14.6433 15.5421 16.9298 16.0819 17.9066 16.853C18.234 16.3081 18.4165 15.7015 18.4165 15.064C18.4165 12.5244 15.5289 10.1853 11.9705 10.1853C8.41198 10.1853 5.52441 12.5244 5.52441 15.0589C5.52441 15.6963 5.7069 16.303 6.0343 16.8479C7.01114 16.0819 9.30295 15.537 11.9651 15.537L11.9705 15.5421Z" fill="#94DAF8"/>
<path d="M11.9705 15.5576C14.638 15.5576 16.9244 16.0923 17.8959 16.8583C18.2233 16.3185 18.4058 15.7119 18.4058 15.0847C18.4058 12.5656 15.5236 10.2419 11.9651 10.2419C8.40663 10.2419 5.53516 12.5605 5.53516 15.0795C5.53516 15.7119 5.71764 16.3133 6.04504 16.8583C7.02188 16.0974 9.30832 15.5576 11.9705 15.5576Z" fill="#9BDCF9"/>
<path d="M11.9705 15.5729C14.6326 15.5729 16.9191 16.1076 17.8905 16.8633C18.2179 16.3235 18.4004 15.7272 18.4004 15.1C18.4004 12.5963 15.5182 10.2881 11.9705 10.2881C8.42273 10.2881 5.5459 12.5963 5.5459 15.1C5.5459 15.7272 5.72838 16.3235 6.05579 16.8633C7.03262 16.1076 9.3137 15.5729 11.9705 15.5729Z" fill="#A1DDF9"/>
<path d="M11.9705 15.5885C14.6326 15.5885 16.9083 16.118 17.8798 16.8685C18.2072 16.3339 18.3897 15.7427 18.3897 15.1206C18.3897 12.6376 15.5129 10.3396 11.9705 10.3396C8.42811 10.3396 5.55127 12.6376 5.55127 15.1206C5.55127 15.7427 5.73376 16.339 6.06116 16.8737C7.03799 16.1231 9.31907 15.5936 11.9705 15.5936V15.5885Z" fill="#A7DFF9"/>
<path d="M11.9705 15.6038C14.6273 15.6038 16.903 16.1281 17.8744 16.8736C18.2018 16.344 18.3843 15.7528 18.3843 15.1359C18.3843 12.6683 15.5129 10.3857 11.9705 10.3857C8.42811 10.3857 5.56201 12.6734 5.56201 15.1411C5.56201 15.7631 5.7445 16.3492 6.0719 16.8787C7.04337 16.1333 9.32444 15.6089 11.9705 15.6089V15.6038Z" fill="#ADE1FA"/>
<path d="M11.9705 15.6244C14.6219 15.6244 16.8976 16.1488 17.8637 16.8839C18.1911 16.3544 18.3736 15.7735 18.3736 15.1617C18.3736 12.7146 15.5075 10.4475 11.9705 10.4475C8.43349 10.4475 5.57275 12.7146 5.57275 15.1566C5.57275 15.7735 5.75524 16.3544 6.07727 16.8839C7.04874 16.1436 9.32445 15.6244 11.9705 15.6193V15.6244Z" fill="#B3E3FA"/>
<path d="M11.9705 15.6399C14.6165 15.6399 16.8923 16.1592 17.8584 16.8943C18.1858 16.3699 18.3629 15.7941 18.3629 15.1824C18.3629 12.7507 15.4968 10.499 11.9705 10.499C8.44423 10.499 5.57812 12.7507 5.57812 15.1772C5.57812 15.789 5.76061 16.3648 6.08264 16.8892C7.05411 16.154 9.32445 15.6348 11.9651 15.6348L11.9705 15.6399Z" fill="#B8E5FA"/>
<path d="M11.9705 15.6552C14.6166 15.6552 16.8815 16.1693 17.8476 16.8993C18.175 16.3801 18.3521 15.8043 18.3521 15.2028C18.3521 12.7917 15.4914 10.5503 11.9651 10.5503C8.43887 10.5503 5.58887 12.7866 5.58887 15.1977C5.58887 15.8043 5.77135 16.3801 6.09339 16.8993C7.05949 16.1693 9.32983 15.6552 11.9705 15.6552Z" fill="#BEE7FB"/>
<path d="M11.9705 15.6707C14.6112 15.6707 16.8762 16.1797 17.8423 16.9045C18.1643 16.3905 18.3468 15.8198 18.3468 15.2183C18.3468 12.8227 15.4914 10.6018 11.9705 10.6018C8.44961 10.6018 5.59961 12.8278 5.59961 15.2183C5.59961 15.8198 5.7821 16.3905 6.10413 16.9045C7.07023 16.1797 9.3352 15.6707 11.9705 15.6707Z" fill="#C4E9FB"/>
<path d="M11.9705 15.686C14.6058 15.686 16.8708 16.195 17.8315 16.9096C18.1536 16.3955 18.3361 15.83 18.3361 15.2336C18.3361 12.8585 15.4861 10.6479 11.9705 10.6479C8.45498 10.6479 5.60498 12.8637 5.60498 15.2388C5.60498 15.8351 5.78747 16.4006 6.1095 16.9147C7.0756 16.195 9.34057 15.6912 11.9705 15.6912V15.686Z" fill="#CAEBFC"/>
<path d="M11.9705 15.7067C14.6058 15.7067 16.8654 16.2105 17.8262 16.9199C18.1482 16.411 18.3307 15.8506 18.3307 15.2594C18.3307 12.8998 15.4807 10.7046 11.9705 10.7046C8.46036 10.7046 5.61572 12.8998 5.61572 15.2594C5.61572 15.8506 5.79284 16.411 6.12024 16.9199C7.08634 16.2054 9.34595 15.7067 11.9705 15.7015V15.7067Z" fill="#CFEDFC"/>
<path d="M11.9705 15.7222C14.6005 15.7222 16.8547 16.2209 17.8154 16.9303C18.1375 16.4265 18.32 15.8713 18.32 15.2801C18.32 12.941 15.4753 10.7612 11.9705 10.7612C8.46573 10.7612 5.62646 12.941 5.62646 15.2801C5.62646 15.8661 5.80358 16.4265 6.13098 16.9303C7.09172 16.2209 9.35132 15.7222 11.9759 15.7222H11.9705Z" fill="#D5EFFC"/>
<path d="M11.9705 15.7375C14.5951 15.7375 16.8493 16.231 17.8101 16.9353C18.1321 16.4366 18.3146 15.8814 18.3146 15.3005C18.3146 12.9768 15.4753 10.8125 11.9759 10.8125C8.47647 10.8125 5.63184 12.9768 5.63184 15.2954C5.63184 15.8814 5.80895 16.4315 6.13099 16.9302C7.09172 16.2259 9.34596 15.7323 11.9652 15.7323L11.9705 15.7375Z" fill="#DAF1FD"/>
<path d="M11.9704 15.753C14.595 15.753 16.8439 16.2465 17.7992 16.9406C18.1213 16.4419 18.3038 15.897 18.3038 15.316C18.3038 13.0078 15.4699 10.8589 11.9704 10.8589C8.47099 10.8589 5.64246 13.0129 5.64246 15.316C5.64246 15.897 5.81957 16.4419 6.14161 16.9406C7.10234 16.2414 9.35121 15.753 11.9704 15.753Z" fill="#E0F3FD"/>
<path d="M11.9704 15.7683C14.5896 15.7683 16.8331 16.2567 17.7939 16.9456C18.1159 16.452 18.293 15.9071 18.293 15.3365C18.293 13.0488 15.4591 10.9153 11.9704 10.9153C8.48173 10.9153 5.64783 13.0539 5.64783 15.3365C5.64783 15.9122 5.82495 16.452 6.14698 16.9507C7.10235 16.2618 9.35122 15.7734 11.9651 15.7734L11.9704 15.7683Z" fill="#E6F5FD"/>
<path d="M11.9704 15.789C14.5843 15.789 16.8278 16.2722 17.7831 16.9559C18.1052 16.4676 18.2823 15.9278 18.2823 15.3571C18.2823 13.0848 15.4538 10.9668 11.9704 10.9668C8.4871 10.9668 5.65857 13.09 5.65857 15.3571C5.65857 15.9278 5.83569 16.4676 6.15772 16.9559C7.11309 16.2722 9.36196 15.789 11.9704 15.7838V15.789Z" fill="#EBF7FE"/>
<path d="M11.9704 15.8045C14.5843 15.8045 16.8224 16.2826 17.7724 16.9663C18.0945 16.4831 18.2716 15.9484 18.2716 15.3829C18.2716 13.1312 15.4484 11.0234 11.9651 11.0234C8.48174 11.0234 5.66931 13.1261 5.66931 15.3778C5.66931 15.9433 5.84643 16.4779 6.16846 16.9663C7.12383 16.2877 9.36733 15.8045 11.9704 15.8045Z" fill="#F1FAFE"/>
<path d="M11.9704 15.8198C14.5789 15.8198 16.8171 16.2979 17.7671 16.9713C18.0837 16.4881 18.2662 15.9586 18.2662 15.3982C18.2662 13.1619 15.443 11.0747 11.9704 11.0747C8.49785 11.0747 5.67468 13.1671 5.67468 15.3982C5.67468 15.9586 5.8518 16.4881 6.17384 16.9713C7.1292 16.2979 9.36734 15.8198 11.9704 15.8198Z" fill="#F7FCFE"/>
<path d="M11.9705 15.8353C14.5736 15.8353 16.8063 16.3082 17.7563 16.9766C18.073 16.4985 18.2555 15.9741 18.2555 15.4189C18.2555 13.2031 15.4377 11.1262 11.9705 11.1262C8.50322 11.1262 5.68542 13.2031 5.68542 15.4189C5.68542 15.9741 5.86254 16.4985 6.18458 16.9817C7.13458 16.3134 9.37271 15.8404 11.9705 15.8404V15.8353Z" fill="white"/>
</g>
<path d="M11.9383 13.6245C9.65726 13.6245 7.54794 13.9947 5.80359 14.6218C6.8502 16.8684 9.20105 18.4313 11.9383 18.4313C14.6756 18.4313 17.0211 16.8633 18.0677 14.6218C16.3234 13.9947 14.2087 13.6245 11.933 13.6245H11.9383Z" fill="#0083CA"/>
</g>
<defs>
<clipPath id="clip0_23311_11857">
<rect width="14.25" height="13.5" fill="white" transform="translate(4.875 5.25)"/>
</clipPath>
</defs>
</svg>
