<svg width="24" height="24" viewBox="0 0 24 24" fill="none" xmlns="http://www.w3.org/2000/svg">
<path d="M0 9C0 4.02944 4.02944 0 9 0H15C19.9706 0 24 4.02944 24 9V15C24 19.9706 19.9706 24 15 24H9C4.02944 24 0 19.9706 0 15V9Z" fill="#C1152F"/>
<path d="M18.6863 10.5965H19.0778C19.0896 10.5965 19.101 10.5919 19.1094 10.5836C19.1178 10.5753 19.1226 10.5641 19.1228 10.5523V9.85701C19.1224 9.84547 19.1176 9.83451 19.1094 9.82642C19.1012 9.81832 19.0901 9.8137 19.0786 9.81351H18.5281C18.2951 9.77655 18.0565 9.81479 17.8468 9.92269C17.6371 10.0306 17.4672 10.2025 17.3618 10.4135L16.1618 13.1735C16.1347 13.2513 16.0821 13.3176 16.0125 13.3617C15.943 13.4059 15.8605 13.4252 15.7786 13.4165V9.85701C15.7782 9.84559 15.7735 9.83475 15.7654 9.82667C15.7574 9.81859 15.7465 9.81389 15.7351 9.81351H14.8553C14.8494 9.81331 14.8435 9.81428 14.838 9.81636C14.8325 9.81844 14.8274 9.82158 14.8231 9.82562C14.8188 9.82966 14.8153 9.83452 14.8128 9.8399C14.8104 9.84529 14.809 9.8511 14.8088 9.85701V14.12C14.81 14.1407 14.8192 14.1601 14.8345 14.1741C14.8497 14.1881 14.8699 14.1956 14.8906 14.195H15.8768C16.5136 14.195 16.8038 14.0037 16.9966 13.595L18.1778 10.8703C18.2209 10.775 18.2938 10.6964 18.3856 10.6463C18.4773 10.5962 18.5829 10.5774 18.6863 10.5928" fill="white"/>
<path d="M7.93747 12.005C8.13314 11.934 8.30113 11.8025 8.41709 11.6296C8.53305 11.4568 8.59098 11.2515 8.58247 11.0435C8.58247 10.2778 7.88422 9.8135 7.04347 9.8135H4.44323C4.43732 9.8133 4.43143 9.81427 4.42589 9.81635C4.42035 9.81843 4.41528 9.82157 4.41096 9.82561C4.40664 9.82965 4.40316 9.83451 4.40072 9.83989C4.39828 9.84528 4.39692 9.85109 4.39673 9.857V10.5522C4.39692 10.5582 4.39828 10.564 4.40072 10.5694C4.40316 10.5747 4.40664 10.5796 4.41096 10.5836C4.41528 10.5877 4.42035 10.5908 4.42589 10.5929C4.43143 10.595 4.43732 10.596 4.44323 10.5957H6.86272C7.25347 10.5957 7.51747 10.8207 7.51747 11.0967C7.51747 11.3727 7.25347 11.5977 6.86272 11.5977H5.42573V11.0817C5.42553 11.0758 5.42418 11.07 5.42173 11.0646C5.41929 11.0593 5.41581 11.0544 5.41149 11.0504C5.40717 11.0463 5.4021 11.0432 5.39656 11.0411C5.39103 11.039 5.38514 11.038 5.37923 11.0382H4.44323C4.43732 11.038 4.43143 11.039 4.42589 11.0411C4.42035 11.0432 4.41528 11.0463 4.41096 11.0504C4.40664 11.0544 4.40316 11.0593 4.40072 11.0646C4.39828 11.07 4.39692 11.0758 4.39673 11.0817V14.1567C4.39692 14.1626 4.39828 14.1685 4.40072 14.1738C4.40316 14.1792 4.40664 14.1841 4.41096 14.1881C4.41528 14.1922 4.42035 14.1953 4.42589 14.1974C4.43143 14.1995 4.43732 14.2004 4.44323 14.2002H7.00522C7.96297 14.2002 8.64922 13.7795 8.64922 12.9252C8.64773 12.7158 8.57718 12.5126 8.44849 12.3473C8.31981 12.182 8.14018 12.0638 7.93747 12.011M6.91297 13.436H5.42573V12.4055H6.91297C7.31347 12.4055 7.58797 12.6357 7.58797 12.9192C7.58797 13.2027 7.31722 13.433 6.91297 13.433" fill="white"/>
<path d="M19.596 14.1469L18.0885 12.3319C18.0879 12.3306 18.087 12.3295 18.0858 12.3288C18.0846 12.328 18.0832 12.3276 18.0818 12.3276C18.0804 12.3276 18.079 12.328 18.0778 12.3288C18.0766 12.3295 18.0757 12.3306 18.075 12.3319L17.6693 13.2664C17.6676 13.2691 17.6667 13.2722 17.6667 13.2754C17.6667 13.2785 17.6676 13.2817 17.6693 13.2844L18.3285 14.1154C18.3492 14.1426 18.3764 14.1642 18.4076 14.1782C18.4387 14.1922 18.4729 14.1982 18.507 14.1956H19.5698C19.5759 14.1963 19.5821 14.1952 19.5875 14.1923C19.5929 14.1894 19.5973 14.1849 19.6001 14.1794C19.6029 14.1739 19.6039 14.1677 19.603 14.1616C19.6022 14.1555 19.5995 14.1499 19.5953 14.1454" fill="white"/>
<path d="M10.2998 11.0381H9.4193C9.41339 11.0379 9.4075 11.0389 9.40196 11.041C9.39643 11.043 9.39135 11.0462 9.38703 11.0502C9.38271 11.0543 9.37924 11.0591 9.3768 11.0645C9.37435 11.0699 9.373 11.0757 9.3728 11.0816V14.1566C9.373 14.1625 9.37435 14.1683 9.3768 14.1737C9.37924 14.1791 9.38271 14.1839 9.38703 14.188C9.39135 14.192 9.39643 14.1952 9.40196 14.1973C9.4075 14.1993 9.41339 14.2003 9.4193 14.2001H10.2998C10.3057 14.2003 10.3116 14.1993 10.3171 14.1973C10.3227 14.1952 10.3277 14.192 10.3321 14.188C10.3364 14.1839 10.3399 14.1791 10.3423 14.1737C10.3447 14.1683 10.3461 14.1625 10.3463 14.1566V11.0816C10.3457 11.0697 10.3405 11.0586 10.3319 11.0504C10.3232 11.0423 10.3117 11.0379 10.2998 11.0381Z" fill="white"/>
<path d="M13.9215 9.81351H13.0418C13.03 9.81331 13.0186 9.81776 13.01 9.82589C13.0015 9.83403 12.9964 9.84521 12.996 9.85701V13.4135C12.9141 13.4222 12.8317 13.4029 12.7621 13.3587C12.6925 13.3146 12.6399 13.2483 12.6128 13.1705L11.415 10.4135C11.3097 10.2025 11.1398 10.0306 10.9301 9.92269C10.7204 9.81479 10.4817 9.77655 10.2488 9.81351H9.4193C9.41339 9.81331 9.4075 9.81428 9.40196 9.81636C9.39643 9.81844 9.39135 9.82158 9.38703 9.82562C9.38271 9.82966 9.37924 9.83452 9.3768 9.8399C9.37435 9.84529 9.373 9.8511 9.3728 9.85701V10.5523C9.373 10.5582 9.37435 10.564 9.3768 10.5694C9.37924 10.5748 9.38271 10.5796 9.38703 10.5836C9.39135 10.5877 9.39643 10.5908 9.40196 10.5929C9.4075 10.595 9.41339 10.596 9.4193 10.5958H10.0898C10.1932 10.5806 10.2987 10.5994 10.3904 10.6495C10.4822 10.6995 10.5551 10.7781 10.5983 10.8733L11.7773 13.5988C11.97 14.006 12.2603 14.1987 12.897 14.1987H13.8833C13.904 14.1994 13.9241 14.1919 13.9394 14.1779C13.9547 14.1639 13.9639 14.1444 13.965 14.1237V9.85701C13.9647 9.84559 13.96 9.83475 13.9519 9.82667C13.9438 9.81859 13.933 9.81389 13.9215 9.81351Z" fill="white"/>
</svg>
