<svg width="24" height="24" viewBox="0 0 24 24" fill="none" xmlns="http://www.w3.org/2000/svg">
<path d="M3 1.5C3 0.671573 3.67157 0 4.5 0H19.5C20.3284 0 21 0.671573 21 1.5V22.5C21 23.3284 20.3284 24 19.5 24H4.5C3.67157 24 3 23.3284 3 22.5V1.5Z" fill="#ED1B23"/>
<g clip-path="url(#clip0_10248_2700)">
<path d="M10.1567 17.2423C9.87808 17.2423 9.65099 17.0243 9.63984 16.7464C9.63427 16.6077 9.68233 16.4761 9.77638 16.3737C9.87042 16.272 9.9979 16.2128 10.1365 16.2065C10.4214 16.1933 10.6639 16.4169 10.6757 16.7025C10.6875 16.9881 10.4646 17.2298 10.179 17.241C10.172 17.241 10.1644 17.241 10.1567 17.241V17.2423Z" fill="white"/>
<path d="M12.0418 7.67858C11.7575 7.67858 11.5298 7.76775 11.3458 7.95026C10.9488 8.34524 10.7398 9.16027 10.7586 10.2449C10.7809 11.5824 11.0992 14.2065 12.1518 15.5579C12.3225 15.7767 12.5057 15.9515 12.6973 16.0776C12.8826 16.2002 13.0902 16.32 13.4148 16.32C13.5026 16.32 13.5973 16.311 13.6955 16.2936C14.2988 16.1487 15.0546 15.4771 15.6168 14.5834C15.7024 14.4468 15.8494 14.366 16.0103 14.366C16.0974 14.366 16.1831 14.3904 16.2569 14.4371C16.3621 14.5033 16.4353 14.6064 16.4631 14.7276C16.491 14.8488 16.4694 14.9735 16.4032 15.078C15.6927 16.2086 14.7544 17.002 13.8934 17.2012C13.8906 17.2026 13.8815 17.2047 13.8718 17.2061C13.7136 17.2354 13.5583 17.25 13.4106 17.25C12.8554 17.25 12.4639 17.0382 12.1846 16.8543C11.9087 16.6718 11.651 16.428 11.4183 16.1299C9.9373 14.2274 9.8356 10.6615 9.82933 10.2609C9.81331 9.31213 9.94984 8.02619 10.691 7.29057C11.0526 6.93182 11.5061 6.75 12.0383 6.75H12.1247C12.6583 6.75 13.1118 6.93182 13.4733 7.29057C14.2145 8.02619 14.351 9.31213 14.335 10.2609C14.3183 11.2494 14.1372 13.1644 13.1118 14.8815C13.0282 15.0208 12.8749 15.1079 12.7126 15.1079C12.629 15.1079 12.5468 15.0849 12.4751 15.0424C12.2556 14.9115 12.1832 14.6252 12.3141 14.405C13.0316 13.2034 13.3786 11.8819 13.4057 10.2449C13.4245 9.15957 13.2155 8.34454 12.8185 7.94956C12.6346 7.76635 12.4075 7.67788 12.124 7.67788H12.0425L12.0418 7.67858Z" fill="white"/>
</g>
<defs>
<clipPath id="clip0_10248_2700">
<rect width="6.83514" height="10.5" fill="white" transform="translate(9.63916 6.75)"/>
</clipPath>
</defs>
</svg>
