<svg width="33" height="32" viewBox="0 0 33 32" fill="none" xmlns="http://www.w3.org/2000/svg">
<path d="M0.5 12C0.5 5.37258 5.87258 0 12.5 0H20.5C27.1274 0 32.5 5.37258 32.5 12V20C32.5 26.6274 27.1274 32 20.5 32H12.5C5.87258 32 0.5 26.6274 0.5 20V12Z" fill="#005743"/>
<path d="M17.5723 8.01262C18.4293 7.94649 19.2856 8.15341 20.0147 8.60344C20.7437 9.05349 21.3076 9.72266 21.6231 10.5126C21.8402 11.0787 21.9121 11.6896 21.833 12.29C21.7539 12.8901 21.5264 13.4618 21.1699 13.954C21.816 14.4811 22.2597 15.2113 22.4268 16.0224C22.5938 16.8334 22.4739 17.6765 22.0879 18.4111C21.7064 19.1359 21.1238 19.738 20.4082 20.1474C19.6927 20.5567 18.874 20.7565 18.0479 20.7226V23.9618C17.5637 23.9886 17.0561 24.0019 16.5137 24.0019H16.5V8.01262H17.5723ZM15.4151 8.00872H15.5V9.66594H15.3848C14.7145 9.63216 14.0441 9.73222 13.4131 9.95989C13.0382 10.1346 12.723 10.4154 12.5059 10.7665C12.2887 11.1176 12.1786 11.5242 12.1904 11.9365C12.2173 12.3766 12.3389 12.806 12.5469 13.1952C12.7289 13.5359 12.9737 13.8389 13.2676 14.0888L13.3936 14.1874C14.4972 15.1404 15.8705 16.3209 15.3457 18.581C15.04 19.5375 14.4534 20.3809 13.6611 21.0009H11.3457C12.3607 20.2999 13.1735 19.345 13.7012 18.2323C13.9849 17.0117 13.4075 16.4457 12.2764 15.4736C11.7298 15.0519 11.2861 14.5123 10.9785 13.8954C10.671 13.2787 10.5072 12.6007 10.5 11.912C10.4982 11.175 10.7106 10.4524 11.1113 9.83294C11.5121 9.21369 12.0846 8.72326 12.7588 8.42083C13.6061 8.10191 14.5106 7.96139 15.4151 8.00872ZM18.041 9.64055V19.1064C18.3892 19.1266 18.7379 19.0788 19.0674 18.9657C19.397 18.8526 19.7014 18.6765 19.9619 18.4472C20.2223 18.218 20.4343 17.9401 20.5859 17.6298C20.7376 17.3195 20.8259 16.9826 20.8457 16.6386C20.8019 16.0631 20.577 15.5149 20.2022 15.0722C19.8274 14.6296 19.3214 14.3141 18.7559 14.1698C19.2146 13.9685 19.6078 13.6455 19.8926 13.2372C20.1774 12.8289 20.3431 12.3506 20.3701 11.8554C20.3693 11.2888 20.149 10.7437 19.7549 10.332C19.3609 9.92035 18.8225 9.67313 18.25 9.64055H18.041Z" fill="white"/>
</svg>
