<svg width="32" height="32" viewBox="0 0 32 32" fill="none" xmlns="http://www.w3.org/2000/svg">
<path d="M0 12C0 5.37258 5.37258 0 12 0H20C26.6274 0 32 5.37258 32 12V20C32 26.6274 26.6274 32 20 32H12C5.37258 32 0 26.6274 0 20V12Z" fill="#35210C"/>
<path d="M10.1199 12H7.3305V12.2258H8.23483V16.8243C8.23483 18.219 7.8581 18.5958 6.9915 18.5958C6.4639 18.5958 6.35074 18.1813 6.35074 17.9927C6.35074 17.5028 6.31302 17.1638 5.86037 17.1638C5.40821 17.1638 5.33325 17.616 5.33325 17.7669C5.33325 18.4076 5.63453 18.8975 6.87834 18.8975C8.38619 18.8975 9.17735 18.4076 9.17735 16.7117V12.2254H10.0822V12H10.1199ZM10.4971 17.8418C10.3462 17.8418 10.1953 17.8805 10.1199 17.9927C10.0067 18.1059 9.969 18.219 9.969 18.3699C9.969 18.5198 10.0067 18.6335 10.1199 18.7471C10.233 18.8598 10.3462 18.897 10.4971 18.897C10.6475 18.897 10.7606 18.8593 10.8738 18.7471C10.987 18.634 11.0247 18.5198 11.0247 18.3699C11.0247 18.219 10.987 18.1059 10.8738 17.9927C10.7606 17.8796 10.6475 17.8418 10.4966 17.8418H10.4971ZM16.6784 17.8418C16.5275 17.8418 16.4144 17.8805 16.3012 17.9927C16.1885 18.1059 16.1508 18.219 16.1508 18.3699C16.1508 18.5198 16.1885 18.6335 16.3012 18.7471C16.4144 18.8598 16.5275 18.897 16.6784 18.897C16.8293 18.897 16.9797 18.8593 17.0556 18.7471C17.1683 18.6335 17.206 18.5198 17.206 18.3699C17.206 18.219 17.1683 18.1059 17.0551 17.9927C16.942 17.8796 16.8293 17.8418 16.6779 17.8418H16.6784ZM14.7179 12H12.004V12.2258H12.7956V17.5033C12.7956 17.9178 12.7579 18.0304 12.7202 18.1436C12.6825 18.295 12.5693 18.3704 12.3807 18.4458C12.268 18.4836 12.0794 18.5208 11.8154 18.5208V18.7471H14.7556V18.5208C14.4916 18.5208 14.3035 18.4836 14.1898 18.4458C14.0017 18.3704 13.8885 18.2572 13.8513 18.1441C13.801 18.0116 13.7754 17.8713 13.7754 17.7296V15.9195H14.4916C16.6025 15.9195 17.2055 15.0907 17.2055 13.9595C17.2055 12.7912 16.8665 12 14.7179 12ZM14.3407 15.656H13.7754V12.2636H14.2657C15.8863 12.2636 16.263 12.942 16.263 13.9972C16.263 15.0902 15.6227 15.656 14.3407 15.656ZM25.9127 18.1059C25.8629 17.9603 25.8372 17.8075 25.8372 17.6537V12.2258H26.5529V12H24.8202C24.7825 12.0754 22.7475 17.1261 22.7475 17.1261L22.7098 17.1643C22.6721 17.1643 22.6721 17.1643 22.6721 17.1266C22.6721 17.1266 20.4862 12.0377 20.4862 12H18.5625V12.2263H19.3919V17.9555C19.3919 18.0691 19.3541 18.1823 19.2787 18.295C19.2033 18.4081 19.0901 18.4836 18.9769 18.5208C18.9015 18.5595 18.7511 18.5595 18.5997 18.5595V18.7848H20.4848V18.5585C20.3339 18.5585 20.2585 18.5208 20.1458 18.5208C19.9949 18.4831 19.9195 18.4076 19.844 18.2945C19.7686 18.219 19.7309 18.1059 19.7309 17.9555L19.6931 17.4651V12.9416H19.8063C19.8063 12.9416 22.2562 18.6707 22.2939 18.7462H22.4825L24.8193 12.9798H24.8947V17.6537C24.8947 17.8423 24.857 17.9927 24.8193 18.1436C24.7815 18.2945 24.6689 18.3699 24.518 18.4454C24.3598 18.4976 24.1944 18.5232 24.0281 18.5203V18.7466H26.6666V18.5203C26.5002 18.5232 26.3344 18.4976 26.1762 18.4454C26.0635 18.3699 25.9504 18.2568 25.9127 18.1059Z" fill="white"/>
</svg>
