<svg width="24" height="24" viewBox="0 0 24 24" fill="none" xmlns="http://www.w3.org/2000/svg">
<path d="M0 9C0 4.02944 4.02944 0 9 0H15C19.9706 0 24 4.02944 24 9V15C24 19.9706 19.9706 24 15 24H9C4.02944 24 0 19.9706 0 15V9Z" fill="#FFE300"/>
<g clip-path="url(#clip0_16660_163759)">
<path fill-rule="evenodd" clip-rule="evenodd" d="M5.22504 9C3.58054 9 2.24811 10.0529 2.24811 11.3514C2.24811 12.1859 2.80035 12.9186 3.62938 13.3365L3.34851 14.384C3.33766 14.4166 3.34716 14.4505 3.37022 14.4735C3.38651 14.4898 3.40822 14.498 3.43128 14.498C3.44892 14.498 3.46656 14.4912 3.48284 14.479L4.68908 13.6649C4.86412 13.6893 5.04322 13.7042 5.22504 13.7042C6.86819 13.7042 8.20197 12.6513 8.20197 11.3528C8.20197 10.0543 6.86819 9 5.22504 9Z" fill="black"/>
<path d="M10.7093 13.3041V14.8224H9.62793V9.224H10.3905L10.5235 9.5795C10.7528 9.35019 11.1015 9.10596 11.6646 9.10596C12.7243 9.10596 13.2277 9.89836 13.2195 11.1792C13.2195 12.5198 12.442 13.3787 11.3308 13.3787C11.1164 13.3787 10.9536 13.3638 10.7093 13.3041ZM10.7093 10.1277V12.5496C10.769 12.5564 10.9169 12.5714 11.0581 12.5714C11.8287 12.5714 12.1245 12.0313 12.1245 11.1792C12.1245 10.4316 11.9251 9.97977 11.3104 9.97977C11.111 9.97977 10.8884 10.0395 10.7107 10.1277H10.7093Z" fill="black"/>
<path d="M15.5751 10.8007H16.1897V10.6677C16.1897 10.224 15.9374 10.0164 15.5005 10.0164C15.1667 10.0164 14.7379 10.1127 14.3892 10.2837L14.0934 9.55779C14.4787 9.29049 15.0703 9.10596 15.5968 9.10596C16.6334 9.10596 17.1965 9.65413 17.1965 10.6989V13.2688H16.434L16.3227 12.9282C15.8858 13.2471 15.4855 13.38 15.1233 13.38C14.3309 13.38 13.8858 12.9065 13.8858 12.106C13.8858 11.2539 14.4787 10.802 15.5737 10.802L15.5751 10.8007ZM16.1897 12.2308V11.4899H15.6931C15.1382 11.4899 14.856 11.6894 14.856 12.0897C14.856 12.3936 15.012 12.5415 15.3295 12.5415C15.6253 12.5415 16.0038 12.3936 16.1884 12.2308H16.1897Z" fill="black"/>
<path d="M20.4693 12.8521C20.0921 13.8589 19.6402 14.593 18.9808 15L18.3146 14.3854C18.6999 14.0516 18.974 13.7259 19.2101 13.289L17.7732 9.37179L18.8465 9.08278L19.7651 12.2605L20.6755 9.06921L21.7352 9.36501L20.4693 12.8535V12.8521Z" fill="black"/>
</g>
<defs>
<clipPath id="clip0_16660_163759">
<rect width="19.4885" height="6" fill="white" transform="translate(2.24811 9)"/>
</clipPath>
</defs>
</svg>
