<svg width="24" height="24" viewBox="0 0 24 24" fill="none" xmlns="http://www.w3.org/2000/svg">
<path d="M0 9C0 4.02944 4.02944 0 9 0H15C19.9706 0 24 4.02944 24 9V15C24 19.9706 19.9706 24 15 24H9C4.02944 24 0 19.9706 0 15V9Z" fill="#0055A2"/>
<g clip-path="url(#clip0_23311_11984)">
<path d="M8.71465 5.41903C8.33836 5.60718 8.05751 5.92893 7.92663 6.32976L5.40441 13.9019C5.2708 14.3 5.30079 14.7281 5.49167 15.1071C5.67981 15.4806 6.00429 15.7615 6.40239 15.8951L14.6671 18.6709C15.0679 18.8045 15.496 18.7745 15.8723 18.5836C16.2486 18.3928 16.5294 18.071 16.6603 17.6729L19.1825 10.1008C19.4579 9.27735 19.0108 8.38025 18.1846 8.10758L9.91713 5.33178C9.51631 5.19817 9.09094 5.22816 8.71192 5.41903" fill="white"/>
<path d="M12.753 12.6911C12.3031 13.1928 11.7441 13.5964 11.0952 13.8473L10.7216 13.9918V10.4825L11.0897 10.6243C11.7387 10.8724 12.3004 11.276 12.7503 11.7749C13.072 11.2569 13.2711 10.6597 13.312 10.008C13.4129 8.32564 12.3604 6.78232 10.9125 6.24515L9.71817 5.84705C9.17828 5.66709 8.60567 5.9643 8.42843 6.50147L5.90348 14.079C5.72352 14.6189 6.02619 15.2024 6.56608 15.3797L12.3004 17.2938C12.8839 16.6721 13.2656 15.8487 13.3202 14.9298C13.372 14.109 13.1566 13.3374 12.753 12.6884M9.43732 14.2072H8.86743V10.2725H9.43732V14.2072Z" fill="#0099DA"/>
<path d="M12.4232 12.2332C12.1042 11.8569 11.717 11.5433 11.2698 11.3115V13.1602C11.717 12.9285 12.1069 12.6094 12.4232 12.2332Z" fill="#F15A21"/>
<path d="M17.9993 8.61201L12.7367 6.85327C13.4429 7.62766 13.8765 8.65563 13.8792 9.78177C13.8792 10.6707 13.6038 11.5241 13.1212 12.2358C13.6065 12.9475 13.8846 13.7982 13.8874 14.6871C13.8874 15.7506 13.5056 16.7295 12.8703 17.4875L14.8472 18.1474C15.3871 18.3273 15.9597 18.0301 16.1369 17.4902L18.6646 9.91265C18.8446 9.37276 18.5419 8.78924 18.002 8.61201M16.6032 14.1963H15.8915L14.43 12.2304L15.9161 10.2644H16.6332L15.1444 12.2331L16.6032 14.1963Z" fill="#0055A2"/>
</g>
<defs>
<clipPath id="clip0_23311_11984">
<rect width="13.9363" height="13.5" fill="white" transform="translate(5.32275 5.25)"/>
</clipPath>
</defs>
</svg>
