<svg width="32" height="32" viewBox="0 0 32 32" fill="none" xmlns="http://www.w3.org/2000/svg">
<path d="M0 12C0 5.37258 5.37258 0 12 0H20C26.6274 0 32 5.37258 32 12V20C32 26.6274 26.6274 32 20 32H12C5.37258 32 0 26.6274 0 20V12Z" fill="#E2E8EF"/>
<g clip-path="url(#clip0_97_11379)">
<path d="M20.9911 23.552L16.4696 16.8121H13.6536V11.437H10.2129V23.552H13.6536V18.7622L16.8672 23.552H20.9911Z" fill="#001E5A"/>
<path d="M22.109 17.7819L24.213 6.41016L13.2446 10.0764C13.2446 10.0764 15.337 10.5868 17.2854 11.7565L12.8684 16.8377L15.4654 19.0956L19.8824 14.0143C21.3114 15.7816 22.1082 17.7827 22.1082 17.7827L22.109 17.7819Z" fill="#D50982"/>
</g>
<defs>
<clipPath id="clip0_97_11379">
<rect width="14" height="17.1419" fill="white" transform="translate(10.2129 6.41016)"/>
</clipPath>
</defs>
</svg>
