<svg width="24" height="24" viewBox="0 0 24 24" fill="none" xmlns="http://www.w3.org/2000/svg">
<path d="M0 9C0 4.02944 4.02944 0 9 0H15C19.9706 0 24 4.02944 24 9V15C24 19.9706 19.9706 24 15 24H9C4.02944 24 0 19.9706 0 15V9Z" fill="#E2E8EF"/>
<mask id="mask0_23315_219457" style="mask-type:alpha" maskUnits="userSpaceOnUse" x="0" y="0" width="24" height="24">
<path d="M0 9C0 4.02944 4.02944 0 9 0H15C19.9706 0 24 4.02944 24 9V15C24 19.9706 19.9706 24 15 24H9C4.02944 24 0 19.9706 0 15V9Z" fill="#E2E8EF"/>
</mask>
<g mask="url(#mask0_23315_219457)">
<path d="M24.7019 12.1418C24.7019 17.7835 24.9404 23.5439 24.9404 23.5439C24.9404 24.1971 24.5231 24.6128 23.9865 24.6128H0.55716C0.0206101 24.6128 -0.33709 24.1377 -0.396707 23.5439C-0.396707 23.5439 -1.05249 18.6149 -1.05249 11.1323C-1.05249 3.59028 -0.33709 0.0865204 -0.33709 0.0865204C-0.277473 -0.507336 0.0802268 -0.982422 0.616777 -0.982422H24.0461C24.5827 -0.982422 25 -0.507336 25 0.0865204C24.9404 0.0865204 24.7019 6.55956 24.7019 12.1418Z" fill="url(#paint0_linear_23315_219457)"/>
<path d="M18.3385 6.66374C16.9463 7.50585 16.4987 7.61111 15.007 8.55848L15.0568 8.40058C15.8523 7.50585 16.2004 7.08479 16.6976 6.29532C15.3054 6.40058 13.2667 6.55848 11.8247 6.87427L11.9242 6.71637C13.2667 6.03216 15.7032 5.34795 16.9463 5.19006C16.6479 4.71637 14.1617 3.29532 13.565 3.03216L13.6148 2.87427C15.5043 3.08479 17.9905 4.03216 19.0347 4.71637C19.4822 4.55848 19.9794 4.55848 20.8247 4.45321C20.8247 4.45321 20.6755 4.97953 19.7805 5.66374C20.0291 6.29532 19.4822 9.9269 18.9849 10.8743C18.9849 9.40058 18.8855 7.50585 18.3385 6.66374Z" fill="url(#paint1_linear_23315_219457)"/>
<path d="M7.77663 18.8663L7.82471 18.7223C7.10355 18.4343 6.3824 18.2423 5.80548 17.6663C5.99778 17.1383 6.19009 16.7543 6.52663 16.2743L6.57471 16.1303C5.94971 16.2263 5.42086 16.4663 4.89201 16.5623C4.45932 15.8423 4.31509 14.8343 4.07471 13.8743V13.9703C3.97855 15.0743 3.93048 15.8423 4.07471 16.7063C3.64201 16.8503 3.2574 16.8503 2.87278 16.9943L2.82471 17.1383C3.40163 17.4743 3.83432 17.7623 4.5074 18.0503C4.84394 18.7703 5.22855 19.2983 5.80548 19.8743L5.85355 19.7303C5.7574 19.2983 5.61317 18.9623 5.66125 18.4823C6.3824 18.7223 6.95932 18.8183 7.77663 18.8663Z" fill="url(#paint2_linear_23315_219457)"/>
<path d="M9.57047 7.87427C9.57047 7.87427 9.26538 8.37427 9.01115 9.01063H8.9603C10.74 9.2379 12.4179 9.87427 12.8247 10.1015L12.7739 10.2379C10.9434 9.96518 9.97725 9.96518 9.26538 10.0561C8.60437 10.1015 8.45183 10.1924 8.45183 10.1924C8.04505 10.9652 7.84166 12.2379 7.73996 12.6924L7.68911 12.8288C7.33318 12.1015 6.87555 10.647 6.87555 10.647C5.9603 11.1015 3.82471 12.8743 3.82471 12.8743C4.9942 10.7834 6.21454 9.82881 6.21454 9.82881C5.80776 9.46518 4.73996 9.28336 3.9264 9.2379L3.97725 9.10154C4.48572 8.96518 5.50267 8.91972 6.16369 8.87427H7.43488C8.09589 8.37427 9.16369 7.91972 9.57047 7.87427Z" fill="url(#paint3_linear_23315_219457)"/>
<path d="M11.8859 17.182C11.5288 17.7973 11.1716 18.2897 10.7635 18.8435C10.1512 19.0281 9.43695 18.9666 8.87573 18.9666L8.82471 19.1512C9.23287 19.3973 9.64103 19.582 10.1002 19.705C9.74307 20.0743 9.28389 20.382 8.92675 20.6897L8.87573 20.8743C9.59001 20.6897 10.5594 20.3204 11.2737 19.7666C11.6308 19.7666 11.988 19.7666 12.2431 19.705L12.2941 19.5204C12.2431 19.3358 12.09 19.2127 12.039 18.905C12.7023 18.2897 13.1614 17.7358 13.7227 17.0589L13.8247 16.8743C13.2635 17.305 12.6002 17.982 11.988 18.3512C11.937 17.9204 11.8859 17.6127 11.8859 17.182Z" fill="url(#paint4_linear_23315_219457)"/>
<path d="M18.3107 6.46386C16.9029 7.29623 16.4504 7.40028 14.942 8.3367C15.8471 7.34826 16.1487 6.93207 16.7018 6.04768C15.294 6.0997 13.2325 6.30779 11.7744 6.61993C13.0314 5.89161 15.5957 5.11126 16.9029 4.95519C16.6012 4.53901 14.0873 3.18641 13.4336 2.87427C15.3945 3.03034 17.8582 3.81068 19.0147 4.53901C19.4672 4.38294 19.97 4.38294 20.8247 4.27889C20.6236 4.69508 20.6236 4.95519 19.7688 5.52745C20.0202 6.15172 19.4672 9.74132 18.9644 10.6777C18.9644 9.16907 18.8135 7.29623 18.3107 6.46386ZM8.00348 19.2616C7.19901 18.9494 6.59566 18.5853 5.9923 17.961C6.19342 17.3887 6.39454 16.9725 6.74649 16.4523C6.09286 16.5563 5.59007 16.6084 5.037 16.7644C4.5342 15.88 4.33309 15.0477 4.13197 13.9552C3.98113 15.1517 3.98113 15.9841 4.13197 16.9205C3.62918 17.0766 3.22694 17.1806 2.82471 17.3887C3.42806 17.7529 3.93085 18.065 4.58448 18.3772C4.93644 19.1575 5.33867 19.7298 5.94203 20.354C5.79119 19.8338 5.74091 19.4176 5.84147 18.8454C6.4951 19.1055 7.14873 19.2095 8.00348 19.2616ZM10.1152 7.40028C9.86381 7.76444 9.56214 8.38872 9.51186 8.64883C11.5733 8.96097 13.2828 10.0535 13.2828 10.0535C11.4728 9.74132 10.5174 9.74132 9.81353 9.84537C9.1599 9.89739 9.00906 10.0014 9.00906 10.0014C8.50627 11.0939 8.2046 13.0188 8.2046 13.0188C7.85264 12.1864 7.40013 10.5217 7.40013 10.5217C6.4951 11.0419 4.38337 13.0708 4.38337 13.0708C5.53979 10.6777 6.74649 9.58525 6.74649 9.58525C6.34426 9.16907 5.28839 8.96097 4.48392 8.90895C4.88616 8.75288 5.94202 8.54479 6.74649 8.49276H8.00348C8.65711 7.97253 9.71297 7.4523 10.1152 7.40028ZM12.3275 17.7529C11.9755 18.2731 11.6236 18.6893 11.2214 19.1575C10.5174 19.3656 9.96437 19.4176 9.26046 19.4176C9.66269 19.6257 10.0649 19.7818 10.5174 19.8858C10.0649 20.302 9.71297 20.5621 9.26046 20.8743C9.96437 20.7182 10.9197 20.4061 11.6236 19.9379C11.9755 19.9379 12.3275 19.9379 12.5789 19.8858C12.5286 19.6777 12.4783 19.5217 12.4281 19.2095C13.0817 18.6893 13.5845 18.2211 14.0873 17.6488C13.4839 18.065 12.9811 18.3772 12.3275 18.6893V17.7529Z" fill="white"/>
</g>
<defs>
<linearGradient id="paint0_linear_23315_219457" x1="11.9473" y1="-8.14826" x2="11.9473" y2="23.8017" gradientUnits="userSpaceOnUse">
<stop stop-color="#00A76D"/>
<stop offset="0.3" stop-color="#7FCBAE"/>
<stop offset="0.55" stop-color="#00A76D"/>
<stop offset="0.8352" stop-color="#008053"/>
<stop offset="0.8691" stop-color="#008558"/>
<stop offset="0.9244" stop-color="#009264"/>
<stop offset="0.9939" stop-color="#00A97A"/>
<stop offset="1" stop-color="#00AD7D"/>
</linearGradient>
<linearGradient id="paint1_linear_23315_219457" x1="16.3613" y1="21.0653" x2="16.3613" y2="2.74137" gradientUnits="userSpaceOnUse">
<stop stop-color="#00B387"/>
<stop offset="1" stop-color="#00A76D"/>
</linearGradient>
<linearGradient id="paint2_linear_23315_219457" x1="5.33557" y1="20.1934" x2="5.33557" y2="3.47694" gradientUnits="userSpaceOnUse">
<stop stop-color="#00B387"/>
<stop offset="1" stop-color="#00A76D"/>
</linearGradient>
<linearGradient id="paint3_linear_23315_219457" x1="8.27467" y1="19.4911" x2="8.27467" y2="3.67154" gradientUnits="userSpaceOnUse">
<stop stop-color="#00B387"/>
<stop offset="1" stop-color="#00A76D"/>
</linearGradient>
<linearGradient id="paint4_linear_23315_219457" x1="11.3091" y1="20.6663" x2="11.3091" y2="-0.75841" gradientUnits="userSpaceOnUse">
<stop stop-color="#00B387"/>
<stop offset="1" stop-color="#00A76D"/>
</linearGradient>
</defs>
</svg>
