<svg width="32" height="32" viewBox="0 0 32 32" fill="none" xmlns="http://www.w3.org/2000/svg">
<path d="M0 12C0 5.37258 5.37258 0 12 0H20C26.6274 0 32 5.37258 32 12V20C32 26.6274 26.6274 32 20 32H12C5.37258 32 0 26.6274 0 20V12Z" fill="#0055A2"/>
<path d="M15.9962 9.29191L12.5798 7.63623L15.9962 13.9034L19.4187 7.63623L15.9962 9.29191Z" fill="#FBBA00"/>
<path d="M20.6144 12.4853L20.5605 12.4418L23.002 11.4537V8.14111L18.7639 9.88266C18.7639 9.88266 16.4654 14.0757 16.414 14.1712C17.3172 14.2738 18.1457 14.7052 18.7298 15.3772C19.314 16.0492 19.6096 16.911 19.5563 17.7862C19.503 18.6614 19.1048 19.4839 18.4431 20.0854C17.7814 20.6869 16.9063 21.0219 15.9968 21.0219C15.0873 21.0219 14.2122 20.6869 13.5505 20.0854C12.8889 19.4839 12.4906 18.6614 12.4373 17.7862C12.384 16.911 12.6797 16.0492 13.2639 15.3772C13.848 14.7052 14.6764 14.2738 15.5797 14.1712L13.2348 9.88266L8.99796 8.14111V11.4476L11.4344 12.4357L11.3842 12.4853C10.3056 13.3913 9.53966 14.5932 9.18875 15.9302C8.83783 17.2672 8.9187 18.6755 9.42053 19.967C9.92236 21.2585 10.8212 22.3716 11.997 23.1573C13.1727 23.9431 14.5693 24.3641 16 24.3641C17.4306 24.3641 18.8272 23.9431 20.0029 23.1573C21.1787 22.3716 22.0776 21.2585 22.5794 19.967C23.0812 18.6755 23.1621 17.2672 22.8112 15.9302C22.4603 14.5932 21.6943 13.3913 20.6157 12.4853" fill="#FBBA00"/>
</svg>
