<svg width="24" height="24" viewBox="0 0 24 24" fill="none" xmlns="http://www.w3.org/2000/svg">
<path d="M0 9C0 4.02944 4.02944 0 9 0H15C19.9706 0 24 4.02944 24 9V15C24 19.9706 19.9706 24 15 24H9C4.02944 24 0 19.9706 0 15V9Z" fill="#0055A2"/>
<path d="M11.9971 6.96857L9.43481 5.72681L11.9971 10.4272L14.564 5.72681L11.9971 6.96857Z" fill="#FBBA00"/>
<path d="M15.4608 9.36386L15.4204 9.33121L17.2515 8.59014V6.10571L14.0729 7.41187C14.0729 7.41187 12.3491 10.5566 12.3105 10.6283C12.9879 10.7052 13.6093 11.0288 14.0474 11.5328C14.4855 12.0368 14.7072 12.6831 14.6672 13.3395C14.6273 13.9959 14.3286 14.6128 13.8323 15.0639C13.3361 15.515 12.6797 15.7663 11.9976 15.7663C11.3155 15.7663 10.6592 15.515 10.1629 15.0639C9.66665 14.6128 9.36798 13.9959 9.32801 13.3395C9.28804 12.6831 9.50979 12.0368 9.94789 11.5328C10.386 11.0288 11.0073 10.7052 11.6848 10.6283L9.9261 7.41187L6.74847 6.10571V8.58561L8.57582 9.32667L8.53818 9.36386C7.72922 10.0434 7.15475 10.9448 6.89156 11.9475C6.62837 12.9502 6.68902 14.0065 7.0654 14.9752C7.44177 15.9438 8.11593 16.7785 8.99774 17.3679C9.87955 17.9572 10.927 18.2729 12 18.2729C13.073 18.2729 14.1204 17.9572 15.0022 17.3679C15.884 16.7785 16.5582 15.9438 16.9346 14.9752C17.3109 14.0065 17.3716 12.9502 17.1084 11.9475C16.8452 10.9448 16.2707 10.0434 15.4618 9.36386" fill="#FBBA00"/>
</svg>
