<svg width="24" height="24" viewBox="0 0 24 24" fill="none" xmlns="http://www.w3.org/2000/svg">
<path d="M0 9C0 4.02944 4.02944 0 9 0H15C19.9706 0 24 4.02944 24 9V15C24 19.9706 19.9706 24 15 24H9C4.02944 24 0 19.9706 0 15V9Z" fill="#2C50B2"/>
<path d="M17.5346 13.062C17.2571 13.8842 16.6793 14.5713 15.9169 14.9857C16.7613 14.1591 17.3268 13.0896 17.5348 11.9264C17.7427 10.7632 17.5828 9.56403 17.0771 8.496C16.6369 7.71825 17.1979 7.37775 17.1979 7.37775C17.0401 7.39072 16.8875 7.43995 16.752 7.5216C16.6164 7.60325 16.5015 7.71512 16.4163 7.84848C16.3311 7.98184 16.2778 8.13308 16.2606 8.29041C16.2435 8.44774 16.2629 8.60691 16.3174 8.7555C16.822 9.86749 16.9264 11.1198 16.6129 12.3L16.1891 12.06L16.1966 12.0502C16.4672 10.9395 16.2984 9.76708 15.7255 8.77772C15.1526 7.78837 14.2197 7.05845 13.1216 6.74025V6H12.2569V10.875L16.2566 13.152C16.1816 13.302 16.1066 13.4377 16.0264 13.5697L12.0086 11.2447L7.97362 13.5697C7.89412 13.4377 7.81612 13.2997 7.74337 13.152L11.7439 10.875V6H10.8836V6.74025C9.78552 7.05845 8.85269 7.78837 8.27976 8.77772C7.70683 9.76708 7.53804 10.9395 7.80862 12.0502L7.81537 12.06L7.38862 12.3C7.0748 11.1198 7.17921 9.86741 7.68412 8.7555C7.73874 8.60692 7.75828 8.44774 7.74124 8.29036C7.72419 8.13299 7.67101 7.98168 7.58586 7.84824C7.5007 7.7148 7.38586 7.60284 7.2503 7.5211C7.11474 7.43936 6.96213 7.39004 6.80437 7.377C6.80437 7.377 7.36387 7.7175 6.92362 8.49525C6.41818 9.56338 6.25839 10.7625 6.46649 11.9258C6.67458 13.089 7.24021 14.1584 8.08462 14.985C7.32223 14.5707 6.74423 13.8839 6.46612 13.062C6.34154 12.8374 6.14675 12.6598 5.91159 12.5564C5.67642 12.453 5.41386 12.4296 5.16412 12.4897L5.73937 13.3147C6.0761 14.1817 6.64814 14.9374 7.3911 15.4968C8.13405 16.0563 9.01841 16.3972 9.94462 16.4812V18H11.5834V15.765C10.4089 15.6884 9.30965 15.1603 8.51587 14.2912L8.92762 14.052C9.77409 14.811 10.8539 15.2589 11.9891 15.3217H12.0086C13.1446 15.2587 14.2252 14.8106 15.0724 14.0512L15.4826 14.2905C14.6889 15.1595 13.5896 15.6876 12.4151 15.7642V18H14.0554V16.4835C14.9815 16.3995 15.8658 16.0585 16.6086 15.4991C17.3515 14.9396 17.9233 14.1839 18.2599 13.317C18.2968 13.1483 18.3667 12.9886 18.4655 12.847C18.5644 12.7054 18.6902 12.5848 18.8359 12.492C18.586 12.4317 18.3233 12.455 18.088 12.5584C17.8527 12.6618 17.6577 12.8395 17.5331 13.0642M15.3979 11.6115L15.3934 11.6152L13.1381 10.3537L13.1254 7.65825H13.1381C13.9422 7.91334 14.6209 8.46148 15.0396 9.19384C15.4582 9.9262 15.5861 10.7892 15.3979 11.6115ZM10.8641 7.65825H10.8769L10.8641 10.3537L8.60662 11.6152V11.6115C8.4183 10.7895 8.54589 9.92673 8.96408 9.19443C9.38226 8.46212 10.0605 7.91379 10.8641 7.65825ZM14.2571 13.5832L14.2376 13.572C13.6114 14.1022 12.8215 14.4002 12.0011 14.4157C11.1807 14.4002 10.3908 14.1022 9.76462 13.572L9.74512 13.5832V13.575L12.0071 12.2617L14.2571 13.5765V13.5832Z" fill="white"/>
</svg>
