<svg width="24" height="24" viewBox="0 0 24 24" fill="none" xmlns="http://www.w3.org/2000/svg">
<path d="M0 9C0 4.02944 4.02944 0 9 0H15C19.9706 0 24 4.02944 24 9V15C24 19.9706 19.9706 24 15 24H9C4.02944 24 0 19.9706 0 15V9Z" fill="#176FC1"/>
<g clip-path="url(#clip0_23315_219455)">
<g clip-path="url(#clip1_23315_219455)">
<path d="M21.8106 10.4417C21.8091 10.4375 21.8073 10.4334 21.8058 10.4292C21.8073 10.4297 21.8088 10.4302 21.8106 10.4304C21.6167 9.90129 21.3394 9.39593 20.9892 8.92187C19.2984 6.63373 15.9079 5.07007 11.9924 5.07007C6.54887 5.07007 2.11916 8.0867 1.86115 11.8744L1.85608 12.4899C1.85608 12.4899 1.85608 12.4907 1.85608 12.4912V12.501C2.0596 16.3155 6.51162 19.1701 11.9924 19.1701C14.1578 19.1701 16.1648 18.7241 17.813 17.949C20.4316 16.7176 22.1439 14.6559 22.1439 12.232C22.1439 12.2303 22.1439 12.2283 22.1439 12.2265C22.1439 12.2247 22.1439 12.2227 22.1439 12.221C22.1439 11.7322 22.0742 11.2548 21.9411 10.7941L21.8106 10.4415V10.4417Z" fill="white"/>
<path d="M21.952 10.7994L21.8859 10.587L21.8321 10.4357C21.8286 10.4342 21.824 10.4336 21.819 10.4321C21.8631 10.5545 21.914 10.6749 21.9492 10.7999L21.9523 10.7994H21.952Z" fill="#176FC1"/>
<path d="M10.5678 8.59994C10.5678 8.25728 10.29 7.97925 9.94711 7.97925C9.6042 7.97925 9.32617 8.25601 9.32617 8.60298C9.32617 8.94994 9.60192 9.22062 9.94711 9.22062C10.2923 9.22062 10.5678 8.94285 10.5678 8.59994Z" fill="#176FC1"/>
<path d="M3.98276 12.3295C4.32618 12.3295 4.60472 12.0512 4.60472 11.7078C4.60472 11.3644 4.32643 11.0858 3.98302 11.0858C3.6396 11.0737 3.35143 11.3423 3.33926 11.6858C3.3271 12.0292 3.59575 12.3173 3.93917 12.3295C3.95387 12.33 3.96857 12.33 3.98327 12.3295H3.98276Z" fill="#176FC1"/>
<path d="M19.5327 12.0856C19.5327 12.0856 19.2727 12.8358 19.7043 13.1827C19.7043 13.1827 20.2809 13.7859 19.5908 13.6701C19.5908 13.6701 17.3698 13.384 15.4396 13.991C15.4396 13.991 14.4871 14.1048 13.6814 14.9703C13.6814 14.9703 12.9312 15.7613 13.8842 16.439C13.8842 16.439 14.5482 16.9864 13.6237 16.9864C13.6237 16.9864 10.5968 17.3646 8.66829 16.2945C8.66829 16.2945 6.90836 15.3441 8.49519 14.235C8.49519 14.235 9.21573 13.6706 10.597 13.444C10.597 13.444 12.5432 12.9665 15.0924 13.3984C15.0924 13.3984 12.416 12.1193 15.0924 10.7621C15.0924 10.7621 16.7643 9.81191 20.1068 10.1571C20.1068 10.1571 20.9528 10.1695 21.811 10.4258C20.6816 7.30635 16.7195 5 11.9925 5C6.54898 5 2.11926 8.053 1.86125 11.8864C1.92512 11.7105 2.4789 10.5238 5.78636 10.2595C5.78636 10.2595 7.44085 10.1566 9.09712 10.4602C9.09712 10.4602 6.18833 9.24749 8.94125 7.81983C8.94125 7.81983 11.2162 6.49583 15.8281 7.44803C15.8281 7.44803 16.3619 7.65079 15.8281 7.86545C15.8281 7.86545 13.926 8.22484 13.4675 9.322C13.4675 9.322 13.2227 9.9252 13.7397 10.4296C13.7397 10.4296 14.1437 10.7347 13.4498 10.7205C13.4498 10.7205 10.4541 10.2598 8.2202 11.5678C8.2202 11.5678 6.60803 12.4333 7.87678 13.588C7.87678 13.588 8.36694 13.9046 7.73181 13.9912C7.73181 13.9912 3.17866 14.5967 1.89597 12.5783L1.85669 12.5096C2.06021 16.3701 6.51248 19.2591 11.993 19.2591C17.4735 19.2591 22.1445 16.2345 22.1445 12.2374C22.1445 11.7427 22.0748 11.2596 21.9417 10.7933C21.927 10.7945 20.4502 10.9126 19.5332 12.0856H19.5327Z" fill="#176FC1"/>
<path d="M10.0492 13.9907C9.70627 13.992 9.42875 14.2698 9.42773 14.6124C9.42773 14.9594 9.70957 15.2326 10.0492 15.2326C10.3888 15.2326 10.6714 14.9594 10.6714 14.6124C10.6714 14.2655 10.3949 13.9907 10.0492 13.9907Z" fill="#176FC1"/>
<path d="M15.407 11.5386C15.407 11.8815 15.685 12.1596 16.0279 12.1596C16.3708 12.1596 16.6489 11.8815 16.6489 11.5386C16.6489 11.1957 16.3731 10.9187 16.0287 10.9187C15.686 10.9182 15.4077 11.1957 15.4072 11.5386H15.407Z" fill="#176FC1"/>
</g>
</g>
<defs>
<clipPath id="clip0_23315_219455">
<rect width="21" height="14.4728" fill="white" transform="translate(1.5 4.89868)"/>
</clipPath>
<clipPath id="clip1_23315_219455">
<rect width="20.2878" height="14.2702" fill="white" transform="translate(1.85608 5)"/>
</clipPath>
</defs>
</svg>
