<svg width="32" height="32" viewBox="0 0 32 32" fill="none" xmlns="http://www.w3.org/2000/svg">
<path d="M0 12C0 5.37258 5.37258 0 12 0H20C26.6274 0 32 5.37258 32 12V20C32 26.6274 26.6274 32 20 32H12C5.37258 32 0 26.6274 0 20V12Z" fill="#F4731E"/>
<g clip-path="url(#clip0_97_11390)">
<path d="M13.5577 16.6764C13.3159 14.4759 15.6208 12.7084 18.7081 12.7353C21.7953 12.7621 24.4944 14.5625 24.7362 16.76C24.9781 18.9635 22.6731 20.725 19.5859 20.7012C16.4986 20.6803 13.7995 18.8769 13.5577 16.6764ZM25.3125 17.3601C25.0348 14.6312 21.9267 12.3949 18.3737 12.365C14.8177 12.3352 12.1664 14.5237 12.444 17.2527C12.7217 19.9816 15.8298 22.2179 19.3828 22.2478C22.9358 22.2746 25.5931 20.0891 25.3125 17.3601Z" fill="white"/>
<path d="M19.9471 22.3015C18.1974 24.1318 15.3879 24.284 13.6711 22.6419C11.9573 20.9998 11.9842 18.1872 13.7368 16.36C15.4864 14.5327 18.2989 14.3804 20.0098 16.0196C21.7236 17.6617 21.6967 20.4743 19.9441 22.3015M13.4651 16.3003C11.4318 18.4261 11.399 21.6954 13.3904 23.6033C15.3819 25.5112 18.6483 25.335 20.6815 23.2092C22.7178 21.0834 22.7506 17.814 20.7562 15.9061C18.7647 13.9983 15.4983 14.1744 13.4621 16.3003" fill="white"/>
<path d="M13.65 9.4571C17.2896 8.09263 20.8903 9.47203 21.6905 12.5384C22.4907 15.6047 20.1887 19.1995 16.5491 20.561C12.9095 21.9254 9.30876 20.546 8.50859 17.4797C7.70544 14.4134 10.0104 10.8216 13.65 9.4571ZM10.2702 10.6275C6.49324 13.6192 5.53184 17.9514 8.12045 20.3042C10.712 22.6599 15.8714 22.1434 19.6513 19.1517C23.4282 16.163 24.3896 11.8307 21.798 9.47501C19.2064 7.12227 14.0441 7.6388 10.2702 10.6275Z" fill="white"/>
</g>
<defs>
<clipPath id="clip0_97_11390">
<rect width="18.6667" height="16.926" fill="white" transform="translate(6.66663 8)"/>
</clipPath>
</defs>
</svg>
