<svg width="24" height="24" viewBox="0 0 24 24" fill="none" xmlns="http://www.w3.org/2000/svg">
<path d="M0 9C0 4.02944 4.02944 0 9 0H15C19.9706 0 24 4.02944 24 9V15C24 19.9706 19.9706 24 15 24H9C4.02944 24 0 19.9706 0 15V9Z" fill="#E2E8EF"/>
<g clip-path="url(#clip0_23315_219459)">
<path d="M14.2186 11.7076C14.2186 10.2817 13.1093 9.12598 11.7413 9.12598H9.88318V14.2874H11.4704C11.4783 14.219 11.4827 14.1506 11.4827 14.0814C11.4827 13.8551 11.4388 13.6359 11.3529 13.4289C11.3432 13.4053 11.3327 13.3825 11.3222 13.3588H10.9153V10.0555H11.5607C12.4437 10.0555 13.1602 10.7947 13.1602 11.7076C13.1602 12.2285 12.9269 12.6923 12.5621 12.9949C12.6989 13.3316 12.7699 13.6868 12.7735 14.0542C13.6267 13.6464 14.2186 12.7485 14.2186 11.7076Z" fill="#007BC7"/>
<path d="M15.6646 9.12598H14.6324V14.2874H15.6646V9.12598Z" fill="#007BC7"/>
<path d="M20 9.12598H16.0776V10.0555H17.5219V14.2874H18.5549V10.0555H20V9.12598Z" fill="#007BC7"/>
<path d="M11.0196 11.5357V12.773C11.3678 13.094 11.587 13.5614 11.587 14.0814C11.587 15.0503 10.8249 15.836 9.88403 15.836C8.94311 15.836 8.18108 15.0503 8.18108 14.0814C8.18108 13.1124 8.88874 12.3846 9.78055 12.3293V11.2963C8.67039 11.3367 7.72597 12.0268 7.3147 12.9975L5.9099 11.655L8.33542 9.12598H6.94201L5.03212 11.1376V9.12598H4V14.2874H5.03212V12.1715L7.10512 14.2962C7.21473 15.7352 8.41697 16.8682 9.88403 16.8682C11.423 16.8682 12.6717 15.6203 12.6717 14.0814C12.6717 12.9466 11.9939 11.9698 11.0205 11.5357H11.0196Z" fill="#8FC31F"/>
</g>
<defs>
<clipPath id="clip0_23315_219459">
<rect width="16" height="7.74219" fill="white" transform="translate(4 9.12598)"/>
</clipPath>
</defs>
</svg>
