<svg width="32" height="32" viewBox="0 0 32 32" fill="none" xmlns="http://www.w3.org/2000/svg">
<path d="M0 12C0 5.37258 5.37258 0 12 0H20C26.6274 0 32 5.37258 32 12V20C32 26.6274 26.6274 32 20 32H12C5.37258 32 0 26.6274 0 20V12Z" fill="#E2E8EF"/>
<g clip-path="url(#clip0_13996_1137)">
<path d="M6.81494 16.2551C6.81494 16.1151 6.92494 15.9951 7.06494 15.9951L11.8349 15.9651C11.9749 15.9651 12.0949 16.0751 12.0949 16.2251C12.0949 16.2551 12.0949 16.2951 12.0749 16.3251L9.72494 22.1651C9.68494 22.2551 9.59494 22.3251 9.49494 22.3251C9.42494 22.3251 9.36494 22.2951 9.31494 22.2551C9.31494 22.2551 9.31494 22.2551 9.31494 22.2451C7.83494 20.6651 6.89494 18.5751 6.81494 16.2651V16.2551Z" fill="url(#paint0_linear_13996_1137)"/>
<path d="M11.875 23.8751L14.705 16.8351C14.905 16.3151 15.405 15.9551 15.995 15.9451C16.545 15.9451 17.025 16.2551 17.255 16.7251L20.235 23.8351C20.235 23.8351 20.255 23.8951 20.255 23.9351C20.255 24.0251 20.205 24.1151 20.135 24.1551C20.135 24.1551 20.135 24.1551 20.125 24.1551C18.905 24.7651 17.525 25.1151 16.065 25.1351C14.605 25.1351 13.225 24.8151 11.995 24.2151C11.915 24.1751 11.855 24.0851 11.855 23.9851C11.855 23.9451 11.855 23.9251 11.875 23.8851V23.8751Z" fill="url(#paint1_linear_13996_1137)"/>
<path d="M19.915 16.265C19.915 16.265 19.895 16.195 19.895 16.165C19.895 16.025 20.005 15.905 20.155 15.905L24.925 15.875C25.065 15.875 25.175 15.985 25.175 16.125C25.125 18.435 24.225 20.545 22.765 22.135C22.715 22.175 22.655 22.215 22.575 22.215C22.475 22.215 22.375 22.145 22.335 22.055L19.905 16.255L19.915 16.265Z" fill="url(#paint2_linear_13996_1137)"/>
<path d="M24.4349 13.245L18.8449 13.285H18.8249C18.7249 13.285 18.6449 13.215 18.6149 13.125L18.1649 12.055C17.5449 10.465 17.2549 8.94499 17.2549 7.55499V7.12499C17.2549 6.98499 17.3649 6.86499 17.5049 6.86499H17.5449C20.8649 7.42499 23.5849 9.77499 24.6749 12.895C24.6749 12.895 24.6849 12.945 24.6849 12.975C24.6849 13.115 24.5749 13.225 24.4249 13.225L24.4349 13.245Z" fill="url(#paint3_linear_13996_1137)"/>
<path d="M13.7849 12.085L13.3549 13.165C13.3249 13.245 13.2549 13.305 13.1649 13.325H13.1449H13.1249L7.52489 13.365C7.38489 13.365 7.26489 13.255 7.26489 13.115C7.26489 13.085 7.26489 13.055 7.27489 13.035C8.32489 9.90502 11.0049 7.50502 14.3249 6.89502H14.3549C14.4949 6.89502 14.6149 7.00502 14.6149 7.14502V7.57502C14.6349 8.96502 14.3649 10.485 13.7749 12.085H13.7849Z" fill="url(#paint4_linear_13996_1137)"/>
</g>
<defs>
<linearGradient id="paint0_linear_13996_1137" x1="9.42187" y1="6.87006" x2="9.54781" y2="24.9096" gradientUnits="userSpaceOnUse">
<stop stop-color="#034EA2"/>
<stop offset="1" stop-color="#00AEEF"/>
</linearGradient>
<linearGradient id="paint1_linear_13996_1137" x1="15.9617" y1="6.82438" x2="16.0877" y2="24.8639" gradientUnits="userSpaceOnUse">
<stop stop-color="#034EA2"/>
<stop offset="1" stop-color="#00AEEF"/>
</linearGradient>
<linearGradient id="paint2_linear_13996_1137" x1="22.5016" y1="6.77866" x2="22.6276" y2="24.8182" gradientUnits="userSpaceOnUse">
<stop stop-color="#034EA2"/>
<stop offset="1" stop-color="#00AEEF"/>
</linearGradient>
<linearGradient id="paint3_linear_13996_1137" x1="20.9715" y1="6.78933" x2="21.0973" y2="24.8089" gradientUnits="userSpaceOnUse">
<stop stop-color="#034EA2"/>
<stop offset="1" stop-color="#00AEEF"/>
</linearGradient>
<linearGradient id="paint4_linear_13996_1137" x1="10.9518" y1="6.85931" x2="11.0777" y2="24.8889" gradientUnits="userSpaceOnUse">
<stop stop-color="#034EA2"/>
<stop offset="1" stop-color="#00AEEF"/>
</linearGradient>
<clipPath id="clip0_13996_1137">
<rect width="18.37" height="18.25" fill="white" transform="translate(6.81494 6.875)"/>
</clipPath>
</defs>
</svg>
