<svg width="24" height="24" viewBox="0 0 24 24" fill="none" xmlns="http://www.w3.org/2000/svg">
<path d="M0 9C0 4.02944 4.02944 0 9 0H15C19.9706 0 24 4.02944 24 9V15C24 19.9706 19.9706 24 15 24H9C4.02944 24 0 19.9706 0 15V9Z" fill="#FFCC00"/>
<path d="M18.531 12.1137L18.4135 12.0439C18.0151 11.6725 17.4611 11.5106 16.7198 11.5522C16.1024 11.5878 15.6135 11.8166 15.2389 12.029C15.2389 12.0231 15.2389 12.0186 15.2389 12.0127C15.2389 11.8315 15.2611 11.6354 15.2817 11.4452C15.3024 11.2521 15.3262 11.0546 15.3262 10.8689C15.3262 10.6832 15.304 10.4975 15.2325 10.343C15.2151 10.3029 15.1754 10.2806 15.1262 10.2806C14.9262 10.2851 14.5373 10.4128 14.4421 10.4901L14.3913 10.5956C14.3881 10.802 14.3389 11.3799 14.2897 11.4497C14.2913 11.4467 14.2643 11.5195 14.2643 11.5195C14.1802 12.3439 14.1786 13.0673 14.2563 13.6898C14.2659 13.7521 14.3929 13.8457 14.4929 13.8799C14.6008 13.917 14.9405 13.8324 15.1357 13.764C15.1325 13.764 15.2087 13.7536 15.2087 13.7536C15.2706 13.7477 15.3071 13.6987 15.304 13.6333L15.3087 13.4551C15.45 12.9188 16.0214 12.2771 16.696 12.1805C17.0786 12.1241 17.3802 12.2162 17.6183 12.4583C17.65 12.5014 17.7198 12.8891 17.469 13.3318C17.2817 13.66 16.9071 13.9378 16.4135 14.1101C15.9468 14.2765 15.4325 14.3434 14.7992 14.3226C14.7722 14.3062 14.2056 13.9467 14.2056 13.9467C13.7024 13.6155 13.077 13.204 12.5103 13.0035C12.4103 12.9678 12.2325 12.8282 12.1246 12.7465L12.0659 12.7019C11.7389 12.4568 11.1167 12.0691 10.6183 11.7572C10.6183 11.7572 10.3929 11.6161 10.35 11.5878C10.35 11.57 10.35 11.5344 10.35 11.5344C10.3643 11.5195 10.6786 11.3442 10.6786 11.3442C11.1183 11.1036 11.3214 10.9862 11.3643 10.9253C11.3548 10.9357 11.423 10.8926 11.423 10.8926C11.4278 10.8912 12.5119 10.3163 12.5119 10.3163C13.5579 9.77856 14.7421 9.16803 15.3643 8.56643L15.3944 8.47433L15.4087 8.39263C15.45 8.26339 15.4516 8.16535 15.4183 8.05097C15.4087 8.01829 15.377 7.97967 15.3341 7.97373C14.8484 7.92768 14.2214 8.201 13.6516 8.7016C13.523 8.8145 13.4151 8.86946 13.3008 8.92739L13.2135 8.97344C12.5849 9.30767 11.169 10.1306 10.4262 10.5748C10.4754 9.82906 10.623 8.76696 10.804 7.88312L10.7833 7.77765L10.7071 7.64396L10.65 7.54889L10.6341 7.54443C10.4865 7.47462 10.3659 7.50284 10.277 7.52364L10.1294 7.57414L9.93095 7.64099C9.89127 7.64842 9.86429 7.6707 9.85 7.70635C9.49603 8.50701 9.20079 9.8246 9.13095 10.8778C8.42302 10.4574 7.76905 10.1544 7.44841 10.0073L7.43889 10.0029L7.40079 9.99543C7.28492 9.98206 7.14524 9.90185 7.01032 9.8246C6.99603 9.81718 6.74048 9.6612 6.74048 9.6612L6.32937 9.41462L6.22143 9.39085C6.04524 9.41908 5.70556 9.63298 5.60556 9.77856C5.59286 9.79787 5.58651 9.81866 5.58651 9.83946C5.58651 9.87065 5.59603 9.90036 5.60556 9.93156L5.62302 10.0103L5.64206 10.0578C5.83889 10.2465 6.3373 10.5614 6.8246 10.8065L7.38968 11.0872L8.25476 11.5299L8.40238 11.6398L8.50397 11.6948C8.50397 11.6948 8.51508 11.7007 8.52302 11.7052C8.29286 11.8493 6.94841 12.6886 6.94841 12.6886L6.12143 13.2025C6.04365 13.253 5.71667 13.3897 5.64365 13.4164C5.46429 13.4848 5.32778 13.5902 5.27222 13.7031L5.25 13.7477L5.27222 13.7774L5.33571 13.822L5.41984 13.8739L5.5119 13.9319L5.59762 13.9453C5.74365 13.9497 5.95794 13.8725 6.36111 13.7076C6.73095 13.5546 7.73571 12.9871 8.16587 12.745L8.34841 12.6425C8.4246 12.6485 8.50714 12.589 8.58175 12.5356C8.66746 12.4717 8.85476 12.3632 8.96905 12.3157C8.97222 12.3157 9.0373 12.2801 9.09921 12.2489C9.09921 12.2667 9.09921 12.2949 9.09921 12.2949C9.11825 13.5249 9.19286 14.4191 9.3373 15.1084V15.1202L9.35317 15.1485C9.42302 15.245 9.50397 15.5377 9.5754 15.7946L9.73889 16.3086L9.78492 16.3561C9.87857 16.4156 10.1627 16.5181 10.3532 16.4973L10.4008 16.4913L10.431 16.4289C10.4468 16.3517 10.4532 16.2759 10.4532 16.1927C10.4532 16.0992 10.4452 15.9952 10.4373 15.8689L10.4246 15.6832C10.3643 14.8246 10.304 13.5843 10.304 12.7599V12.6945C10.4611 12.7851 11.1421 13.1877 11.1421 13.1877C12.3024 13.8918 14.0563 14.9568 15.1151 15.2376C15.1706 15.2525 15.2278 15.2406 15.269 15.2049L15.4325 15.1069L15.4627 15.095C15.523 15.0683 15.5643 14.9717 15.5706 14.8677C16.4643 14.8261 17.7087 14.5038 18.3754 13.7195C18.6325 13.4149 18.75 13.0436 18.75 12.7257C18.75 12.4643 18.6722 12.2385 18.5325 12.1152" fill="#7C7266"/>
</svg>
