<svg width="24" height="24" viewBox="0 0 24 24" fill="none" xmlns="http://www.w3.org/2000/svg">
<path d="M0 9C0 4.02944 4.02944 0 9 0H15C19.9706 0 24 4.02944 24 9V15C24 19.9706 19.9706 24 15 24H9C4.02944 24 0 19.9706 0 15V9Z" fill="#E2E8EF"/>
<path d="M11.3153 13.1879C11.4199 13.1879 11.6029 13.2759 11.8533 13.5477C13.0065 14.8152 14.3508 15.8946 15.8376 16.7467C16.0135 16.8449 16.111 16.9162 16.111 17.009C16.111 17.0787 16.1015 17.1492 15.9477 17.1492C15.1886 17.0616 14.4407 16.8948 13.7163 16.6516C13.3058 16.459 12.4215 15.7411 11.3676 13.9249C11.2444 13.7638 11.1603 13.5764 11.1219 13.3773C11.1215 13.3519 11.1262 13.3267 11.1358 13.3033C11.1454 13.2798 11.1597 13.2585 11.1778 13.2407C11.1958 13.2229 11.2174 13.209 11.241 13.1998C11.2646 13.1906 11.2899 13.1863 11.3153 13.1871" fill="#488AC9"/>
<path d="M14.8183 7.99592C14.8183 7.99592 15.0751 8.50228 12.5766 8.85411C12.8484 8.08309 13.029 7.57515 13.029 7.57515C13.0635 7.49723 13.0784 7.41206 13.0723 7.32708C13.0663 7.2421 13.0396 7.15988 12.9945 7.08759C12.9494 7.0153 12.8873 6.95515 12.8137 6.91237C12.74 6.86959 12.6569 6.84549 12.5718 6.84216C12.4454 6.85314 12.3252 6.90152 12.2264 6.98111C12.1276 7.06071 12.0547 7.16792 12.0171 7.28909L11.2754 8.98882C10.6023 9.04064 9.92626 9.04064 9.25317 8.98882C8.8007 8.94365 8.68422 9.19406 8.68422 9.4508C8.68422 9.89693 9.47029 10.3502 9.97348 10.3011C10.2904 10.271 10.4743 10.2575 10.7326 10.2313L7.97104 16.5429C7.86644 16.7807 7.78007 17.1579 8.25473 17.1579C8.72938 17.1579 9.79598 16.7244 9.97348 16.222C10.0527 16.0104 10.5987 14.4517 11.212 12.7148C11.7839 12.6074 12.3611 12.5302 12.9411 12.4834C13.2351 12.4834 13.3864 12.6157 13.3864 12.7718C13.3864 13.1348 12.5148 14.1784 10.8245 15.466C10.6383 15.6063 10.792 15.7188 10.8871 15.7188C11.6077 15.399 12.282 14.9837 12.892 14.4842C13.5259 14.0088 14.6353 12.7591 14.6353 11.8843C14.6353 11.5388 14.4823 11.2226 13.789 11.2226C13.117 11.2226 11.9323 11.3724 11.6788 11.4041C11.8428 10.9374 12.0052 10.4802 12.1542 10.0522C13.4617 9.87158 14.2414 9.7543 14.7002 9.65604C15.3342 9.52212 15.8405 9.15919 15.8405 8.78438C15.8405 7.98562 14.8191 7.99196 14.8191 7.99196" fill="#512000"/>
</svg>
