<svg width="33" height="32" viewBox="0 0 33 32" fill="none" xmlns="http://www.w3.org/2000/svg">
<path d="M0.5 12C0.5 5.37258 5.87258 0 12.5 0H20.5C27.1274 0 32.5 5.37258 32.5 12V20C32.5 26.6274 27.1274 32 20.5 32H12.5C5.87258 32 0.5 26.6274 0.5 20V12Z" fill="#00C4A6"/>
<g clip-path="url(#clip0_13996_9587)">
<path d="M11.9845 14.3262H9.5V20.3469H11.9845V14.3262Z" fill="white"/>
<path d="M11.9844 11.0134V14.3261C14.4743 14.3261 16.4999 17.0269 16.4999 20.3468H18.9844C18.9844 15.1922 15.8503 11.0134 11.9844 11.0134Z" fill="white"/>
<path d="M23.5 11.0134V14.3261C21.0101 14.3261 18.9845 17.0269 18.9845 20.3468H16.5C16.5 15.1922 19.6341 11.0134 23.5 11.0134Z" fill="white"/>
</g>
<defs>
<clipPath id="clip0_13996_9587">
<rect width="14" height="9.33333" fill="white" transform="translate(9.5 11.0134)"/>
</clipPath>
</defs>
</svg>
