<svg width="24" height="24" viewBox="0 0 24 24" fill="none" xmlns="http://www.w3.org/2000/svg">
<path d="M0 9C0 4.02944 4.02944 0 9 0H15C19.9706 0 24 4.02944 24 9V15C24 19.9706 19.9706 24 15 24H9C4.02944 24 0 19.9706 0 15V9Z" fill="#FF2233"/>
<path d="M13.7958 11.8958C13.581 11.9968 13.2242 12.1168 12.7221 12.1168H10.0537V8.66842H12.5768C13.0095 8.66842 13.4231 8.73474 13.6631 8.83895C14.001 8.98421 14.2379 9.19263 14.3895 9.47053C14.5221 9.71368 14.5853 10.0042 14.5853 10.3642C14.5853 11.1411 14.3263 11.6432 13.7926 11.9021L13.7958 11.8958ZM16.4863 7.56C16.06 7.02 15.5168 6.60316 14.8442 6.31895C14.3326 6.09789 13.5463 6 12.9463 6H7.29999V18H10.2147V14.7537H12.9463C13.6631 14.7537 14.5284 14.5895 15.1537 14.2863C15.9937 13.8821 16.6189 13.1747 16.9947 12.3379C17.2568 11.7347 17.4053 11.0653 17.4053 10.3611C17.4053 9.30632 17.0768 8.33368 16.4863 7.56316V7.56Z" fill="white"/>
</svg>
