<svg width="24" height="24" viewBox="0 0 24 24" fill="none" xmlns="http://www.w3.org/2000/svg">
<path d="M0 9C0 4.02944 4.02944 0 9 0H15C19.9706 0 24 4.02944 24 9V15C24 19.9706 19.9706 24 15 24H9C4.02944 24 0 19.9706 0 15V9Z" fill="#FFE300"/>
<g clip-path="url(#clip0_23311_11948)">
<path fill-rule="evenodd" clip-rule="evenodd" d="M5.22498 9C3.58048 9 2.24805 10.0529 2.24805 11.3514C2.24805 12.1859 2.80029 12.9186 3.62932 13.3365L3.34845 14.384C3.3376 14.4166 3.3471 14.4505 3.37016 14.4735C3.38645 14.4898 3.40816 14.498 3.43122 14.498C3.44886 14.498 3.4665 14.4912 3.48278 14.479L4.68902 13.6649C4.86406 13.6893 5.04316 13.7042 5.22498 13.7042C6.86813 13.7042 8.20191 12.6513 8.20191 11.3528C8.20191 10.0543 6.86813 9 5.22498 9Z" fill="black"/>
<path d="M10.7093 13.3041V14.8224H9.62793V9.224H10.3905L10.5235 9.5795C10.7528 9.35019 11.1015 9.10596 11.6646 9.10596C12.7243 9.10596 13.2277 9.89836 13.2195 11.1792C13.2195 12.5198 12.442 13.3787 11.3308 13.3787C11.1164 13.3787 10.9536 13.3638 10.7093 13.3041ZM10.7093 10.1277V12.5496C10.769 12.5564 10.9169 12.5714 11.0581 12.5714C11.8287 12.5714 12.1245 12.0313 12.1245 11.1792C12.1245 10.4316 11.9251 9.97977 11.3104 9.97977C11.111 9.97977 10.8884 10.0395 10.7107 10.1277H10.7093Z" fill="black"/>
<path d="M15.575 10.8007H16.1897V10.6677C16.1897 10.224 15.9373 10.0164 15.5004 10.0164C15.1666 10.0164 14.7378 10.1127 14.3891 10.2837L14.0933 9.55779C14.4787 9.29049 15.0703 9.10596 15.5967 9.10596C16.6334 9.10596 17.1965 9.65413 17.1965 10.6989V13.2688H16.4339L16.3226 12.9282C15.8857 13.2471 15.4855 13.38 15.1232 13.38C14.3308 13.38 13.8857 12.9065 13.8857 12.106C13.8857 11.2539 14.4787 10.802 15.5737 10.802L15.575 10.8007ZM16.1897 12.2308V11.4899H15.6931C15.1381 11.4899 14.8559 11.6894 14.8559 12.0897C14.8559 12.3936 15.0119 12.5415 15.3294 12.5415C15.6252 12.5415 16.0038 12.3936 16.1883 12.2308H16.1897Z" fill="black"/>
<path d="M20.4691 12.8522C20.0919 13.859 19.6401 14.5931 18.9807 15.0001L18.3145 14.3855C18.6998 14.0517 18.9739 13.7261 19.21 13.2891L17.7731 9.37191L18.8463 9.0829L19.7649 12.2607L20.6754 9.06934L21.7351 9.36513L20.4691 12.8536V12.8522Z" fill="black"/>
</g>
<defs>
<clipPath id="clip0_23311_11948">
<rect width="19.4885" height="6" fill="white" transform="translate(2.24805 9)"/>
</clipPath>
</defs>
</svg>
