<svg width="24" height="24" viewBox="0 0 24 24" fill="none" xmlns="http://www.w3.org/2000/svg">
<path d="M0 12C0 5.37258 5.37258 0 12 0C18.6274 0 24 5.37258 24 12C24 18.6274 18.6274 24 12 24C5.37258 24 0 18.6274 0 12Z" fill="#0055A2"/>
<path d="M0 9C0 4.02944 4.02944 0 9 0H15C19.9706 0 24 4.02944 24 9V15C24 19.9706 19.9706 24 15 24H9C4.02944 24 0 19.9706 0 15V9Z" fill="#0055A2"/>
<g clip-path="url(#clip0_10248_2523)">
<path d="M8.71465 5.41891C8.33836 5.60706 8.05751 5.92881 7.92663 6.32964L5.40441 13.9017C5.2708 14.2998 5.30079 14.7279 5.49167 15.107C5.67981 15.4805 6.00429 15.7614 6.40239 15.895L14.6671 18.6708C15.0679 18.8044 15.496 18.7744 15.8723 18.5835C16.2486 18.3927 16.5294 18.0709 16.6603 17.6728L19.1825 10.1007C19.4579 9.27722 19.0108 8.38013 18.1846 8.10746L9.91713 5.33166C9.51631 5.19805 9.09094 5.22804 8.71192 5.41891" fill="white"/>
<path d="M12.753 12.6912C12.3031 13.193 11.7442 13.5965 11.0952 13.8474L10.7216 13.9919V10.4826L11.0897 10.6244C11.7387 10.8725 12.3004 11.2761 12.7503 11.7751C13.0721 11.257 13.2711 10.6598 13.312 10.0082C13.4129 8.32576 12.3604 6.78244 10.9125 6.24528L9.7182 5.84717C9.17831 5.66721 8.6057 5.96442 8.42846 6.50159L5.90352 14.0791C5.72355 14.619 6.02622 15.2026 6.56611 15.3798L12.3004 17.294C12.8839 16.6723 13.2657 15.8488 13.3202 14.9299C13.372 14.1091 13.1566 13.3375 12.753 12.6885M9.43735 14.2073H8.86746V10.2726H9.43735V14.2073Z" fill="#0099DA"/>
<path d="M12.4231 12.2332C12.1041 11.8569 11.7169 11.5433 11.2697 11.3115V13.1602C11.7169 12.9285 12.1068 12.6094 12.4231 12.2332Z" fill="#F15A21"/>
<path d="M17.9993 8.61201L12.7367 6.85327C13.4429 7.62766 13.8765 8.65563 13.8792 9.78177C13.8792 10.6707 13.6038 11.5241 13.1212 12.2358C13.6065 12.9475 13.8846 13.7982 13.8874 14.6871C13.8874 15.7506 13.5056 16.7295 12.8703 17.4875L14.8472 18.1474C15.3871 18.3273 15.9597 18.0301 16.1369 17.4902L18.6646 9.91265C18.8446 9.37276 18.5419 8.78924 18.002 8.61201M16.6032 14.1963H15.8915L14.43 12.2304L15.9161 10.2644H16.6332L15.1444 12.2331L16.6032 14.1963Z" fill="#0055A2"/>
</g>
<defs>
<clipPath id="clip0_10248_2523">
<rect width="13.9363" height="13.5" fill="white" transform="translate(5.32272 5.25)"/>
</clipPath>
</defs>
</svg>
