<svg width="32" height="32" viewBox="0 0 32 32" fill="none" xmlns="http://www.w3.org/2000/svg">
<path d="M4 2C4 0.895431 4.89543 0 6 0H26C27.1046 0 28 0.895431 28 2V30C28 31.1046 27.1046 32 26 32H6C4.89543 32 4 31.1046 4 30V2Z" fill="#008E71"/>
<path d="M14.4724 9.70329C14.4724 10.5043 15.1367 11.1821 15.9218 11.1821C16.7069 11.1821 17.3713 10.5043 17.3713 9.70329C17.3713 9.58005 17.3713 9.45682 17.3109 9.33358C17.1901 9.08711 17.0693 8.96387 17.0693 8.59417C17.0693 8.16284 16.5258 8.16284 16.2842 8.16284C15.9822 8.16284 15.6199 8.16284 15.3179 8.3477C15.0763 8.47093 14.8952 8.65578 14.7744 8.84064C14.6536 9.08711 14.5328 9.33358 14.5328 9.58005" fill="white"/>
<path d="M23.169 11.5517C23.169 11.5517 22.8671 11.3669 22.5047 11.4901C21.9612 11.6134 20.2702 11.9214 17.6129 12.0447C16.4051 12.0447 15.016 12.0447 13.6874 11.9831C12.6003 11.8598 10.4866 11.5517 10.0034 11.4901C9.76187 11.4901 9.15795 11.4285 8.91638 11.675C8.55402 11.9831 8.61442 12.476 8.91638 12.9073C8.91638 12.9073 9.39952 13.7084 10.6074 13.9548C12.2984 14.2629 14.9556 14.1397 15.8011 14.0781C17.7337 13.8932 19.2435 13.5851 20.391 13.277C20.391 13.277 21.9612 12.8457 22.7463 12.3528C23.0482 12.1679 23.471 11.8598 23.2898 11.5517H23.169Z" fill="white"/>
<path d="M17.4316 15.1256C16.4653 14.5711 15.3178 14.5711 14.3516 15.1256C12.8417 15.9883 12.2982 17.9601 13.2041 19.5621C13.9288 20.7329 14.9555 20.4864 15.197 20.1783C15.5594 19.747 15.4386 19.3773 15.197 19.1308C14.8347 18.6379 14.7743 18.3298 14.7743 18.0833C14.7743 17.4671 15.2574 16.9126 15.9218 16.9126C16.2237 16.9126 16.5861 17.0358 16.7673 17.3439C17.0692 17.7136 17.0692 18.2065 17.0692 18.6379C16.9484 21.1026 15.9822 23.1976 15.9218 23.3208C15.9218 23.444 15.801 23.6905 15.9822 23.8138C16.1633 23.8754 16.3445 23.8138 16.5257 23.6289C16.9484 23.2592 17.8543 22.1501 18.2771 21.041C18.5186 20.4248 19.1226 18.8843 18.9414 17.3439C18.7602 16.1731 17.9751 15.4337 17.3108 15.064L17.4316 15.1256Z" fill="white"/>
</svg>
