<svg width="32" height="32" viewBox="0 0 32 32" fill="none" xmlns="http://www.w3.org/2000/svg">
<path d="M0 12C0 5.37258 5.37258 0 12 0H20C26.6274 0 32 5.37258 32 12V20C32 26.6274 26.6274 32 20 32H12C5.37258 32 0 26.6274 0 20V12Z" fill="#11195F"/>
<path d="M8.14698 16.8223C8.09362 16.3759 8.1388 15.9232 8.27935 15.4961C8.41991 15.069 8.6524 14.678 8.96046 14.3505C9.26852 14.023 9.64465 13.7671 10.0623 13.6007C10.48 13.4343 10.9291 13.3616 11.378 13.3876C11.8322 13.3578 12.2869 13.4359 12.7051 13.6156C13.1233 13.7953 13.493 14.0715 13.7839 14.4215C13.9785 14.695 14.1067 15.0101 14.1582 15.3417L14.1799 15.4668L12.8813 15.7987L12.8534 15.6953C12.7848 15.3599 12.5951 15.0614 12.3205 14.857C12.0459 14.6525 11.7056 14.5564 11.3645 14.587C11.0867 14.5864 10.8121 14.6456 10.5592 14.7606C10.3063 14.8755 10.0811 15.0435 9.89886 15.2532C9.71664 15.4629 9.58167 15.7093 9.5031 15.9758C9.42453 16.2422 9.40421 16.5225 9.44351 16.7975C9.44351 17.6618 9.74542 19.0359 11.287 19.0359C11.6919 19.0691 12.0934 18.9404 12.4035 18.6779C12.7137 18.4155 12.907 18.0408 12.9413 17.636L12.9526 17.5171L14.2905 17.7373L14.2688 17.8593C14.1733 18.5469 13.8224 19.1734 13.286 19.614C12.7496 20.0547 12.0669 20.2772 11.3738 20.2373C10.9284 20.2576 10.4838 20.1817 10.0703 20.0146C9.65686 19.8475 9.28431 19.5932 8.97804 19.2691C8.67177 18.9449 8.439 18.5586 8.29558 18.1363C8.15216 17.7141 8.10148 17.2659 8.14698 16.8223V16.8223ZM17.7965 18.1147V14.6056H17.0314V13.5334H17.7965V12.3723L18.8997 11.6899L19.0848 11.5803V13.5334H20.1404V14.6056H19.0848V18.1757C19.0848 18.7381 19.1065 18.9336 19.5532 18.9336L20.3917 18.7857L20.554 19.8517L20.5364 19.984L19.3753 20.1763C17.7965 20.1753 17.7965 19.1724 17.7965 18.1147ZM21.8288 20.0874V13.5334H23.1181V20.0884L21.8288 20.0874ZM14.8602 20.0874V13.5334H16.1516V20.0884L14.8602 20.0874Z" fill="white"/>
<path d="M15.5611 12.7795C15.9227 12.2199 16.4213 11.762 17.0096 11.4493C17.5978 11.1366 18.2563 10.9795 18.9224 10.9929C19.5956 10.979 20.2614 11.1354 20.8579 11.4478C21.4545 11.7602 21.9623 12.2183 22.3343 12.7795H23.8749C23.4409 11.8464 22.7411 11.0623 21.8631 10.5254C20.9852 9.98848 19.9683 9.72275 18.94 9.76152C17.9125 9.72351 16.8966 9.98962 16.0196 10.5265C15.1427 11.0634 14.4437 11.8471 14.0103 12.7795H15.5611Z" fill="#D9000D"/>
</svg>
