<svg width="24" height="24" viewBox="0 0 24 24" fill="none" xmlns="http://www.w3.org/2000/svg">
<path d="M0 9C0 4.02944 4.02944 0 9 0H15C19.9706 0 24 4.02944 24 9V15C24 19.9706 19.9706 24 15 24H9C4.02944 24 0 19.9706 0 15V9Z" fill="#C1152F"/>
<path d="M6.92319 14.6291C6.52419 14.4416 6.19494 14.2901 6.19494 13.9841C6.19494 13.7501 6.38244 13.5799 6.75144 13.5799C6.8731 13.5802 6.99444 13.5925 7.11369 13.6166C7.17213 13.6274 7.2313 13.6336 7.29069 13.6354C7.61319 13.6354 7.79469 13.4434 7.91619 13.0781L7.96644 12.9281C7.56452 12.7637 7.1347 12.6781 6.70044 12.6761C6.49545 12.6526 6.28782 12.6717 6.09053 12.7321C5.89324 12.7925 5.71054 12.893 5.55385 13.0272C5.39715 13.1615 5.26984 13.3266 5.17987 13.5123C5.08989 13.698 5.0392 13.9002 5.03094 14.1064C5.02048 14.4143 5.12562 14.715 5.32569 14.9494C5.57279 15.2057 5.86891 15.4098 6.19644 15.5494C6.64644 15.7744 7.05294 15.9341 7.05294 16.2619C7.05294 16.5529 6.75294 16.7186 6.35094 16.7186C5.9622 16.7003 5.58544 16.5783 5.25969 16.3654L4.80969 17.2136C5.30176 17.4971 5.86192 17.6408 6.42969 17.6291C6.64643 17.6567 6.86653 17.6395 7.07631 17.5784C7.28609 17.5174 7.48107 17.4138 7.64912 17.2742C7.81717 17.1345 7.9547 16.9618 8.05316 16.7668C8.15162 16.5717 8.2089 16.3585 8.22144 16.1404C8.22144 15.2449 7.50519 14.9119 6.92544 14.6306" fill="white"/>
<path d="M10.9127 15.0465L12.7637 12.7748H11.4445L9.97074 14.736H9.94824V12.7748H8.85999V17.5875H8.92449C9.06087 17.6018 9.19872 17.5859 9.32826 17.541C9.4578 17.496 9.57586 17.4231 9.67407 17.3274C9.77227 17.2317 9.84822 17.1156 9.89651 16.9872C9.94479 16.8589 9.96425 16.7215 9.95349 16.5848V15.4793H9.97674L11.4812 17.5283H12.8635L10.9127 15.0465Z" fill="white"/>
<path d="M12.8252 7.61914C12.5736 7.6584 12.3427 7.78184 12.1704 7.9693C11.9981 8.15676 11.8944 8.39714 11.8764 8.65114C11.8764 9.20914 12.3339 9.54739 12.3354 10.2794C12.3379 10.5055 12.2811 10.7284 12.1707 10.9257C12.0603 11.1231 11.9001 11.2881 11.7062 11.4044C11.8389 11.3924 11.9844 11.3849 12.1434 11.3849C12.3277 11.3841 12.5118 11.3979 12.6939 11.4261L14.4107 9.31564C13.9779 8.66858 13.4427 8.09634 12.8259 7.62139" fill="white"/>
<path d="M14.2687 13.3146C14.47 12.8696 14.5598 12.3823 14.5305 11.8949C14.5507 11.3856 14.6572 11.0009 15.3382 10.9949C15.4882 10.9949 15.6337 11.0151 15.894 11.0144C16.6182 11.0117 17.3283 10.8131 17.949 10.4399C16.8901 9.75866 15.6697 9.36999 14.412 9.31335C14.3145 9.59085 13.554 11.7066 13.4962 11.8769C13.6135 12.0164 13.7167 12.1671 13.8045 12.3269C13.9945 12.6378 14.1501 12.9685 14.2687 13.3131" fill="white"/>
<path d="M10.6423 11.5863C10.5561 11.5863 10.5133 11.5285 10.5013 11.4295C10.4893 11.3305 10.0603 7.39754 9.9988 6.80129C9.9898 6.71429 9.96805 6.55454 9.96805 6.49754C9.96626 6.47979 9.96823 6.46187 9.97384 6.44493C9.97944 6.428 9.98856 6.41244 10.0006 6.39927C10.0126 6.3861 10.0273 6.37562 10.0437 6.36852C10.06 6.36141 10.0777 6.35784 10.0956 6.35804C10.9968 6.52502 11.8478 6.89627 12.5833 7.44329C12.3183 7.51 12.0823 7.66125 11.911 7.87413C11.7396 8.08701 11.6423 8.34991 11.6338 8.62304C11.6338 9.26879 12.0988 9.62504 12.1018 10.273C12.1018 11.3283 10.8943 11.5833 10.6423 11.584" fill="white"/>
<path d="M14.3656 13.5942C14.3797 13.6359 14.3978 13.676 14.4196 13.7142C14.4289 13.7344 14.4439 13.7515 14.4626 13.7635C14.4814 13.7754 14.5031 13.7818 14.5254 13.7817C14.5594 13.7794 14.5925 13.7702 14.6229 13.7547C14.7136 13.7127 18.2979 12.0425 18.8386 11.7927C18.9181 11.7552 19.0636 11.6892 19.1154 11.66C19.1371 11.6495 19.1556 11.6332 19.1688 11.613C19.182 11.5928 19.1895 11.5694 19.1904 11.5452C19.1899 11.5204 19.1829 11.4961 19.1701 11.4747C18.8847 11.1329 18.5491 10.8363 18.1749 10.595C17.4968 11.0097 16.7196 11.2343 15.9249 11.2452C15.6624 11.2452 15.6039 11.2272 15.4246 11.2287C14.8996 11.2287 14.7721 11.4537 14.7496 11.912C14.7496 11.9982 14.7496 12.1152 14.7399 12.2427C14.7594 12.7209 14.6282 13.1931 14.3649 13.5927" fill="white"/>
</svg>
