<svg width="33" height="32" viewBox="0 0 33 32" fill="none" xmlns="http://www.w3.org/2000/svg">
<path d="M0.5 12C0.5 5.37258 5.87258 0 12.5 0H20.5C27.1274 0 32.5 5.37258 32.5 12V20C32.5 26.6274 27.1274 32 20.5 32H12.5C5.87258 32 0.5 26.6274 0.5 20V12Z" fill="#153BAD"/>
<path d="M15.1462 23.1582C14.0334 23.0762 12.9745 22.6436 12.1194 21.9218C11.2954 21.1729 10.6988 20.2045 10.3983 19.1284C10.1223 18.1628 10.0085 17.0349 10.4619 17.1239C10.6023 17.1526 10.8439 17.7726 11.106 18.2213C11.2808 18.5579 11.5191 18.8569 11.8076 19.1016C11.9027 19.1729 12.2205 18.4566 12.6872 18.05C12.9572 17.8256 13.252 17.7494 13.301 18.42C13.3579 19.2412 13.2108 20.2197 13.4487 20.2197C13.6721 20.2197 14.1752 20.0496 15.2787 19.9569C15.6928 19.9197 15.9283 19.9984 15.533 20.5605C15.2433 21.0023 14.8737 21.3853 14.4433 21.6895C15.3804 22.5723 16.507 22.468 16.5264 22.843C16.5385 23.0594 16.1208 23.1783 15.5705 23.1783C15.4343 23.1783 15.2908 23.171 15.1431 23.1563M18.3019 15.2078C18.057 15.1587 17.8305 15.0421 17.6474 14.8711C17.4644 14.7001 17.332 14.4814 17.2649 14.2391C17.1879 13.8874 17.1776 13.5242 17.2346 13.1686C17.3456 12.442 17.5652 11.7366 17.886 11.0763C18.268 10.107 17.3412 9.53881 17.4919 9.18156C17.7014 8.69995 18.3655 9.31324 19.1082 9.35653C19.7463 9.39372 20.1295 9.36201 20.6253 9.42725C21.2882 9.46907 21.92 9.72569 22.4262 10.1588C22.7476 10.538 22.2561 11.0019 21.6641 10.7124C21.2312 10.499 20.687 10.6288 21.006 11.0836C21.2436 11.3859 21.589 11.5828 21.9686 11.6323C22.1765 11.6576 22.3712 11.7484 22.5248 11.8917C22.6785 12.035 22.7834 12.2235 22.8244 12.4303C22.8655 12.6372 22.8407 12.8518 22.7535 13.0436C22.6664 13.2353 22.5213 13.3945 22.339 13.4984C21.5073 14.1117 20.6652 13.8575 20.328 12.6541C20.1591 12.0548 19.7402 11.75 19.3074 11.9225C18.8746 12.095 19.1343 12.8796 19.4587 13.6106C20.0254 15.0658 18.8788 15.2152 18.4436 15.2152C18.3967 15.2155 18.3498 15.2135 18.3031 15.2091M17.6832 23.4319C17.676 23.2386 17.9568 23.188 17.9568 23.188C20.4618 22.6918 19.7299 21.0354 18.8425 20.191C18.4708 19.835 14.9821 16.8021 14.9821 16.8021C11.6526 13.9166 11.9202 11.6652 11.9202 11.6652C12.0806 8.8932 14.4906 8.20614 16.3133 8.36525C16.5276 8.38354 16.645 8.51401 16.6075 8.69385C16.5681 8.88771 16.2848 8.90174 16.2848 8.90174C15.7641 8.89055 15.2495 9.01664 14.792 9.26752C13.3222 10.2612 13.7581 11.956 15.7146 13.8398C15.9616 14.0782 16.2231 14.3275 16.4925 14.5811C16.4925 14.5811 16.886 14.9299 17.6675 15.6785C19.1754 17.0764 19.9999 17.8311 19.9999 17.8311C22.6562 20.0575 21.7494 22.0937 20.7324 22.8021C19.9162 23.3497 18.9594 23.6463 17.9786 23.6556C17.9676 23.6565 17.9564 23.6565 17.9453 23.6556C17.8813 23.6592 17.8184 23.6378 17.7698 23.5957C17.7212 23.5537 17.6906 23.4943 17.6844 23.4301" fill="white"/>
</svg>
