<svg width="24" height="24" viewBox="0 0 24 24" fill="none" xmlns="http://www.w3.org/2000/svg">
<path d="M0 9C0 4.02944 4.02944 0 9 0H15C19.9706 0 24 4.02944 24 9V15C24 19.9706 19.9706 24 15 24H9C4.02944 24 0 19.9706 0 15V9Z" fill="#007F41"/>
<path fill-rule="evenodd" clip-rule="evenodd" d="M7.55585 16.4497C7.58903 16.889 7.77387 17.1453 8.28808 17.1351C11.8731 17.0771 12.8142 12.7306 10.5992 10.6858C10.2437 10.359 9.81258 10.0895 9.29227 9.90731C9.03069 9.81469 8.59974 9.68115 8.2323 9.68115C7.91657 9.68115 7.64786 9.7811 7.57804 10.0958C7.44837 10.6967 7.50883 15.8537 7.55585 16.4497Z" fill="white"/>
<path fill-rule="evenodd" clip-rule="evenodd" d="M12.5569 5.63123C12.2685 5.63123 12.0258 5.72405 11.9613 6.00945C11.843 6.55297 11.9 11.236 11.9407 11.7789C11.9719 12.1755 12.1384 12.4077 12.6052 12.4012C15.861 12.3465 16.7176 8.40033 14.7062 6.54422C14.3839 6.24742 13.9886 6.00294 13.5204 5.83805C13.2814 5.75275 12.8912 5.63123 12.5569 5.63123Z" fill="white"/>
<path fill-rule="evenodd" clip-rule="evenodd" d="M12.6955 10.2243C12.544 10.9089 12.6171 16.791 12.6692 17.4735C12.7093 17.9753 12.9165 18.2638 13.5022 18.2552C17.5955 18.1897 18.6714 13.2298 16.1441 10.8965C15.7402 10.5242 15.2421 10.2164 14.6536 10.0094C14.3535 9.90251 13.8613 9.75024 13.444 9.75024C13.082 9.75024 12.7738 9.86485 12.6955 10.2243Z" fill="white"/>
</svg>
