<svg width="24" height="24" viewBox="0 0 24 24" fill="none" xmlns="http://www.w3.org/2000/svg">
<path d="M0 9C0 4.02944 4.02944 0 9 0H15C19.9706 0 24 4.02944 24 9V15C24 19.9706 19.9706 24 15 24H9C4.02944 24 0 19.9706 0 15V9Z" fill="#F1F2F4"/>
<path d="M7.22406 8.63501H8.2096V15.3627H7.22406V8.63501ZM11.6364 8.63501H12.9161L9.98672 11.9065L12.9161 15.3649H11.6364L8.69342 12.001L11.6364 8.63501Z" fill="#263038"/>
<path d="M8.69476 6.53162V7.45202H15.804V16.5473H8.69476V17.4684H16.7759V6.53162H8.69476Z" fill="#E5435B"/>
</svg>
