<svg width="24" height="24" viewBox="0 0 24 24" fill="none" xmlns="http://www.w3.org/2000/svg">
<path d="M0 9C0 4.02944 4.02944 0 9 0H15C19.9706 0 24 4.02944 24 9V15C24 19.9706 19.9706 24 15 24H9C4.02944 24 0 19.9706 0 15V9Z" fill="#00AEEF"/>
<g clip-path="url(#clip0_10248_2522)">
<path d="M18.9801 12C18.9801 15.7272 15.8242 18.75 11.9383 18.75C8.05241 18.75 4.88037 15.7272 4.88037 12C4.88037 8.27285 8.04167 5.25 11.9329 5.25C15.8242 5.25 18.9747 8.27285 18.9747 12H18.9801Z" fill="white"/>
<path d="M11.9383 18.4364C15.6417 18.4364 18.6473 15.5575 18.6473 12.0051C18.6473 8.45277 15.6417 5.56873 11.9383 5.56873C8.23489 5.56873 5.22388 8.44763 5.22388 12C5.22388 15.5524 8.22953 18.4313 11.9383 18.4313V18.4364Z" fill="#0083CA"/>
<mask id="mask0_10248_2522" style="mask-type:luminance" maskUnits="userSpaceOnUse" x="5" y="5" width="14" height="14">
<path d="M11.9383 18.4364C15.6417 18.4364 18.6473 15.5575 18.6473 12.0051C18.6473 8.45276 15.6417 5.57385 11.9383 5.57385C8.23489 5.57385 5.22388 8.45276 5.22388 12.0051C5.22388 15.5575 8.22953 18.4364 11.9383 18.4364Z" fill="white"/>
</mask>
<g mask="url(#mask0_10248_2522)">
<path d="M11.9973 15.1051C14.9493 15.1051 17.4773 15.8968 18.5668 17.0124C18.9264 16.2155 19.125 15.3313 19.125 14.4111C19.125 10.7199 15.9315 7.73303 11.9973 7.73303C8.06314 7.73303 4.875 10.7199 4.875 14.4162C4.875 15.3364 5.07895 16.2155 5.43319 17.0124C6.51737 15.8968 9.04534 15.1051 11.9973 15.1051Z" fill="#0083CA"/>
<path d="M11.9973 15.1102C14.9439 15.1102 17.4612 15.8968 18.5453 17.0021C18.905 16.2155 19.1035 15.3364 19.1035 14.4213C19.1035 10.7559 15.9208 7.78442 11.9973 7.78442C8.07388 7.78442 4.89111 10.761 4.89111 14.4265C4.89111 15.3415 5.0897 16.2155 5.44931 17.0021C6.53349 15.8916 9.05608 15.1102 11.9973 15.1102Z" fill="#0085CB"/>
<path d="M11.9973 15.1206C14.9386 15.1206 17.4504 15.8968 18.5293 16.997C18.8889 16.2156 19.0875 15.3468 19.0875 14.4368C19.0875 10.8022 15.9101 7.84619 11.9973 7.84619C8.08463 7.84619 4.90723 10.8073 4.90723 14.4368C4.90723 15.3416 5.10581 16.2104 5.46542 16.9919C6.54423 15.8917 9.06146 15.1154 11.992 15.1154L11.9973 15.1206Z" fill="#0086CD"/>
<path d="M11.9973 15.1257C14.9278 15.1257 17.4343 15.8968 18.5131 16.9867C18.8727 16.2104 19.0659 15.3467 19.0659 14.4471C19.0659 10.8433 15.8993 7.90271 11.9919 7.90271C8.08458 7.90271 4.92865 10.8484 4.92865 14.4522C4.92865 15.3519 5.12724 16.2104 5.48684 16.9867C6.56566 15.8968 9.07215 15.1257 11.9973 15.1257Z" fill="#0088CE"/>
<path d="M11.9919 15.1308C14.9171 15.1308 17.4182 15.8968 18.4917 16.9764C18.8459 16.2052 19.0445 15.3519 19.0445 14.4573C19.0445 10.8844 15.8832 7.9541 11.9919 7.9541C8.1007 7.9541 4.94476 10.8896 4.94476 14.4625C4.94476 15.357 5.14335 16.2052 5.49759 16.9764C6.57103 15.8968 9.07216 15.1308 11.9919 15.1308Z" fill="#008ACF"/>
<path d="M11.992 15.141C14.9064 15.141 17.4021 15.9019 18.4756 16.9712C18.8298 16.2103 19.0284 15.357 19.0284 14.4727C19.0284 10.9306 15.8778 8.01575 11.992 8.01575C8.10607 8.01575 4.96088 10.9306 4.96088 14.4779C4.96088 15.3621 5.15946 16.2103 5.5137 16.9712C6.58715 15.8967 9.08291 15.141 11.992 15.141Z" fill="#008CD0"/>
<path d="M11.992 15.1463C14.901 15.1463 17.386 15.8968 18.4595 16.961C18.8137 16.2053 19.0123 15.3622 19.0123 14.4831C19.0123 10.9667 15.8671 8.07239 11.9973 8.07239C8.12756 8.07239 4.97699 10.977 4.97699 14.4882C4.97699 15.3673 5.17558 16.2053 5.52981 16.961C6.59789 15.8968 9.08829 15.1463 11.992 15.1463Z" fill="#008ED2"/>
<path d="M11.992 15.1565C14.8903 15.1565 17.3753 15.9019 18.4434 16.9558C18.7976 16.2053 18.9909 15.3724 18.9909 14.4985C18.9909 11.013 15.8564 8.12891 11.992 8.12891C8.12757 8.12891 4.99847 11.0181 4.99847 14.5036C4.99847 15.3724 5.19706 16.2053 5.5513 16.9558C6.61401 15.9019 9.09904 15.1565 11.9973 15.1565H11.992Z" fill="#008FD3"/>
<path d="M11.9919 15.1616C14.8849 15.1616 17.3592 15.9019 18.4219 16.9455C18.7761 16.2001 18.9693 15.3724 18.9693 14.5139C18.9693 11.0592 15.8402 8.19055 11.9866 8.19055C8.13289 8.19055 5.01453 11.0592 5.01453 14.5139C5.01453 15.3775 5.21311 16.2001 5.56198 16.9455C6.6247 15.9019 9.10436 15.1616 11.9866 15.1616H11.9919Z" fill="#0091D4"/>
<path d="M11.9919 15.1667C14.8795 15.1667 17.3484 15.8967 18.4058 16.9352C18.76 16.2 18.9532 15.3775 18.9532 14.5241C18.9532 11.1003 15.8349 8.24707 11.9919 8.24707C8.149 8.24707 5.03064 11.1003 5.03064 14.5241C5.03064 15.3775 5.22923 16.2 5.5781 16.9352C6.63544 15.8967 9.10974 15.1667 11.9866 15.1667H11.9919Z" fill="#0093D5"/>
<path d="M11.9866 15.1771C14.8634 15.1771 17.327 15.902 18.3843 16.9301C18.7386 16.2001 18.9318 15.3879 18.9318 14.5396C18.9318 11.1466 15.8188 8.30371 11.9866 8.30371C8.15438 8.30371 5.04675 11.1415 5.04675 14.5396C5.04675 15.3879 5.24534 16.2001 5.59421 16.9301C6.65156 15.902 9.11512 15.1771 11.9866 15.1771Z" fill="#0095D7"/>
<path d="M11.9866 15.1822C14.8581 15.1822 17.3109 15.9019 18.3682 16.9198C18.7171 16.195 18.9157 15.3878 18.9157 14.5499C18.9157 11.1826 15.8134 8.36023 11.9866 8.36023C8.15976 8.36023 5.06287 11.1877 5.06287 14.5499C5.06287 15.393 5.25609 16.195 5.61032 16.9198C6.6623 15.9019 9.12049 15.1822 11.9866 15.1822Z" fill="#0097D8"/>
<path d="M11.9866 15.1924C14.8473 15.1924 17.3002 15.907 18.3522 16.9146C18.701 16.1949 18.8942 15.3981 18.8942 14.5652C18.8942 11.2288 15.8027 8.42188 11.9866 8.42188C8.17051 8.42188 5.08435 11.2288 5.08435 14.5652C5.08435 15.3981 5.27757 16.1949 5.62644 16.9146C6.67842 15.907 9.13124 15.1924 11.9866 15.1924Z" fill="#0099D9"/>
<path d="M11.9866 15.1976C14.8419 15.1976 17.284 15.9019 18.336 16.9043C18.6849 16.1949 18.8781 15.3981 18.8781 14.5755C18.8781 11.2699 15.7919 8.47327 11.9866 8.47327C8.18119 8.47327 5.1004 11.2699 5.1004 14.5755C5.1004 15.4032 5.29362 16.1949 5.64249 16.9043C6.6891 15.9019 9.13656 15.1976 11.9866 15.1976Z" fill="#009BDA"/>
<path d="M11.9866 15.2028C14.8366 15.2028 17.2733 15.902 18.3199 16.8941C18.6688 16.1898 18.862 15.4033 18.862 14.5859C18.862 11.3111 15.7866 8.52991 11.9919 8.52991C8.19731 8.52991 5.11652 11.3111 5.11652 14.591C5.11652 15.4084 5.30974 16.195 5.65861 16.8993C6.70522 15.9071 9.14194 15.2079 11.9866 15.2079V15.2028Z" fill="#009DDC"/>
<path d="M11.9812 15.213C14.8205 15.213 17.2518 15.9071 18.2931 16.889C18.642 16.1898 18.8352 15.4135 18.8352 14.6013C18.8352 11.3522 15.7651 8.58643 11.9812 8.58643C8.19732 8.58643 5.13263 11.3574 5.13263 14.6013C5.13263 15.4135 5.32585 16.1898 5.67472 16.889C6.71596 15.9071 9.14732 15.213 11.9812 15.213Z" fill="#009FDD"/>
<path d="M11.9812 15.2182C14.8151 15.2182 17.2358 15.907 18.277 16.8787C18.6259 16.1846 18.8137 15.4135 18.8137 14.6115C18.8137 11.3933 15.7544 8.64294 11.9759 8.64294C8.19733 8.64294 5.15411 11.3985 5.15411 14.6115C5.15411 15.4186 5.34733 16.1846 5.6962 16.8787C6.73745 15.907 9.16344 15.2182 11.9866 15.2182H11.9812Z" fill="#00A1DE"/>
<path d="M11.9812 15.2285C14.8044 15.2285 17.225 15.9071 18.2609 16.8736C18.6098 16.1899 18.7976 15.4239 18.7976 14.627C18.7976 11.4397 15.7437 8.70471 11.9812 8.70471C8.21882 8.70471 5.17023 11.4397 5.17023 14.627C5.17023 15.4239 5.36345 16.1847 5.70695 16.8736C6.74283 15.9071 9.16345 15.2285 11.9812 15.2285Z" fill="#00A3DF"/>
<path d="M11.9812 15.2336C14.799 15.2336 17.2089 15.9071 18.2448 16.8633C18.5936 16.1847 18.7815 15.429 18.7815 14.6373C18.7815 11.4808 15.7383 8.7561 11.9812 8.7561C8.22413 8.7561 5.18628 11.4808 5.18628 14.6373C5.18628 15.429 5.3795 16.1847 5.723 16.8633C6.75888 15.9071 9.16877 15.2336 11.9812 15.2336Z" fill="#00A5E1"/>
<path d="M11.9812 15.2387C14.7883 15.2387 17.1982 15.9071 18.2287 16.853C18.5722 16.1795 18.7654 15.429 18.7654 14.6475C18.7654 11.5219 15.7275 8.81262 11.9812 8.81262C8.23488 8.81262 5.20239 11.5219 5.20239 14.6527C5.20239 15.4341 5.39561 16.1847 5.73912 16.8581C6.76962 15.9122 9.17951 15.2439 11.9812 15.2439V15.2387Z" fill="#00A7E2"/>
<path d="M11.9812 15.249C14.7829 15.249 17.1821 15.9122 18.2126 16.8478C18.5561 16.1795 18.7493 15.4392 18.7493 14.6629C18.7493 11.563 15.7222 8.87427 11.9866 8.87427C8.25099 8.87427 5.21851 11.5681 5.21851 14.6629C5.21851 15.4392 5.41173 16.1795 5.75523 16.8478C6.78574 15.9122 9.18489 15.249 11.9812 15.249Z" fill="#00A9E3"/>
<path d="M11.9759 15.2542C14.7722 15.2542 17.1606 15.9071 18.1858 16.8376C18.5293 16.1796 18.7171 15.4444 18.7171 14.6733C18.7171 11.6042 15.6954 8.92578 11.9705 8.92578C8.24564 8.92578 5.23999 11.6093 5.23999 14.6784C5.23999 15.4444 5.42784 16.1796 5.77135 16.8428C6.79649 15.9123 9.19027 15.2594 11.9812 15.2594L11.9759 15.2542Z" fill="#00ABE5"/>
<path d="M11.9759 15.2645C14.7615 15.2645 17.1499 15.9122 18.1697 16.8324C18.5132 16.1795 18.701 15.4495 18.701 14.6887C18.701 11.6504 15.69 8.98743 11.9759 8.98743C8.26175 8.98743 5.2561 11.6504 5.2561 14.6887C5.2561 15.4495 5.44396 16.1795 5.78746 16.8324C6.8126 15.9122 9.19565 15.2645 11.9759 15.2645Z" fill="#00ADE6"/>
<path d="M11.9758 15.2696C14.7561 15.2696 17.1337 15.9122 18.1535 16.8221C18.497 16.1744 18.6849 15.4546 18.6849 14.6989C18.6849 11.6915 15.6792 9.04395 11.9758 9.04395C8.27244 9.04395 5.27216 11.6915 5.27216 14.6989C5.27216 15.4546 5.46001 16.1744 5.80351 16.8221C6.82329 15.9122 9.20634 15.2696 11.9758 15.2696Z" fill="#00AFE7"/>
<path d="M11.9758 15.2747C14.7453 15.2747 17.123 15.9122 18.1374 16.8118C18.4809 16.1692 18.6688 15.4546 18.6688 14.7092C18.6688 11.7326 15.6739 9.09534 11.9758 9.09534C8.27782 9.09534 5.28827 11.7378 5.28827 14.7143C5.28827 15.4598 5.47612 16.1744 5.81963 16.817C6.8394 15.9173 9.21171 15.2798 11.9758 15.2798V15.2747Z" fill="#00B2E9"/>
<path d="M11.9759 15.2851C14.74 15.2851 17.1069 15.9122 18.1213 16.8068C18.4648 16.1744 18.6473 15.465 18.6473 14.7247C18.6473 11.7738 15.6578 9.1571 11.9759 9.1571C8.29393 9.1571 5.30438 11.779 5.30438 14.7247C5.30438 15.465 5.49224 16.1693 5.83037 16.8068C6.84478 15.9122 9.21173 15.2851 11.9705 15.2851H11.9759Z" fill="#00B4EA"/>
<path d="M11.9759 15.2902C14.7346 15.2902 17.0908 15.9122 18.1052 16.7964C18.4434 16.1692 18.6312 15.4701 18.6312 14.7401C18.6312 11.82 15.6524 9.21875 11.9759 9.21875C8.29931 9.21875 5.32587 11.82 5.32587 14.7401C5.32587 15.4701 5.51372 16.1744 5.85186 16.8016C6.86626 15.9173 9.22784 15.2953 11.9759 15.2953V15.2902Z" fill="#00B6EB"/>
<path d="M11.9705 15.3004C14.7185 15.3004 17.0747 15.9173 18.0837 16.7913C18.4219 16.1692 18.6097 15.4752 18.6097 14.7555C18.6097 11.8663 15.6363 9.27527 11.9758 9.27527C8.31537 9.27527 5.34192 11.8611 5.34192 14.7503C5.34192 15.4752 5.52977 16.1692 5.86791 16.7913C6.87695 15.9173 9.23316 15.3004 11.9758 15.3004H11.9705Z" fill="#00B8ED"/>
<path d="M11.9705 15.3056C14.7131 15.3056 17.0586 15.9174 18.0623 16.7811C18.4004 16.1642 18.5883 15.4804 18.5883 14.7658C18.5883 11.9075 15.6255 9.33191 11.9705 9.33191C8.31538 9.33191 5.35803 11.9075 5.35803 14.7658C5.35803 15.4856 5.54589 16.1693 5.88402 16.7811C6.89306 15.9123 9.23854 15.3056 11.9758 15.3056H11.9705Z" fill="#01BBEE"/>
<path d="M11.9705 15.3107C14.7024 15.3107 17.0479 15.9122 18.0462 16.7708C18.3843 16.1641 18.5668 15.4855 18.5668 14.7761C18.5668 11.9486 15.6095 9.38843 11.9651 9.38843C8.32076 9.38843 5.37415 11.9486 5.37415 14.7761C5.37415 15.4855 5.562 16.1641 5.89477 16.7708C6.89844 15.9122 9.23855 15.3107 11.9651 15.3107H11.9705Z" fill="#11BDF0"/>
<path d="M11.9705 15.321C14.697 15.321 17.0318 15.9173 18.0301 16.7656C18.3682 16.1641 18.5507 15.4906 18.5507 14.7915C18.5507 11.9897 15.6041 9.44495 11.9705 9.44495C8.33687 9.44495 5.39563 11.9897 5.39563 14.7863C5.39563 15.4906 5.58348 16.1641 5.91625 16.7604C6.91456 15.9122 9.25467 15.3159 11.9705 15.3159V15.321Z" fill="#1AC0F1"/>
<path d="M11.9705 15.3261C14.6863 15.3261 17.0157 15.9173 18.014 16.7553C18.3521 16.1589 18.5346 15.4958 18.5346 14.8017C18.5346 12.0308 15.5934 9.50146 11.9705 9.50146C8.34762 9.50146 5.41174 12.0308 5.41174 14.8017C5.41174 15.4958 5.59423 16.1641 5.93236 16.7553C6.93067 15.9173 9.26005 15.3261 11.9705 15.3261Z" fill="#1FC4F4"/>
<path d="M11.9705 15.3415C14.6863 15.3415 17.0103 15.9276 18.0033 16.7604C18.3414 16.1692 18.5239 15.5112 18.5239 14.8172C18.5239 12.0668 15.588 9.54773 11.9705 9.54773C8.35299 9.54773 5.41711 12.0719 5.41711 14.8223C5.41711 15.5112 5.5996 16.1743 5.93774 16.7656C6.93604 15.9327 9.26005 15.3467 11.9705 15.3467V15.3415Z" fill="#32C5F4"/>
<path d="M11.9705 15.3622C14.6809 15.3622 17.0049 15.9431 17.9979 16.7708C18.336 16.1847 18.5185 15.5267 18.5185 14.8429C18.5185 12.108 15.588 9.6095 11.9705 9.6095C8.35294 9.6095 5.4278 12.108 5.4278 14.8429C5.4278 15.5318 5.61028 16.1847 5.94842 16.7708C6.94135 15.9431 9.26537 15.3622 11.9705 15.3622Z" fill="#3FC7F4"/>
<path d="M11.9705 15.3776C14.6755 15.3776 16.9996 15.9585 17.9871 16.781C18.3199 16.195 18.5077 15.5472 18.5077 14.8635C18.5077 12.1491 15.5826 9.66089 11.9705 9.66089C8.35831 9.66089 5.43854 12.1439 5.43854 14.8583C5.43854 15.5421 5.62102 16.1898 5.95379 16.7759C6.94673 15.9533 9.26537 15.3724 11.9705 15.3724V15.3776Z" fill="#4AC8F5"/>
<path d="M11.9705 15.393C14.6755 15.393 16.9888 15.9688 17.9818 16.7862C18.3145 16.2052 18.497 15.5575 18.497 14.884C18.497 12.1851 15.5719 9.71228 11.9705 9.71228C8.36905 9.71228 5.44391 12.1851 5.44391 14.8789C5.44391 15.5575 5.62639 16.2052 5.95916 16.781C6.9521 15.9636 9.27074 15.3878 11.9651 15.3878L11.9705 15.393Z" fill="#54CAF5"/>
<path d="M11.9705 15.4084C14.6702 15.4084 16.9835 15.979 17.971 16.7913C18.3038 16.2155 18.4863 15.5729 18.4863 14.8994C18.4863 12.2159 15.5665 9.76367 11.9651 9.76367C8.36369 9.76367 5.45465 12.221 5.45465 14.8994C5.45465 15.5729 5.63714 16.2155 5.96991 16.7913C6.96284 15.979 9.27612 15.4084 11.9705 15.4084Z" fill="#5CCCF5"/>
<path d="M11.9705 15.4238C14.6648 15.4238 16.9781 15.9893 17.9657 16.7964C18.2984 16.2258 18.4809 15.5883 18.4809 14.92C18.4809 12.257 15.5665 9.81506 11.9705 9.81506C8.37443 9.81506 5.46539 12.257 5.46539 14.92C5.46539 15.5883 5.64788 16.2258 5.98065 16.8015C6.96822 15.9944 9.28149 15.4289 11.9705 15.4289V15.4238Z" fill="#64CDF6"/>
<path d="M11.9705 15.4443C14.6648 15.4443 16.9727 16.0098 17.9549 16.8067C18.2877 16.236 18.4702 15.6037 18.4702 14.9405C18.4702 12.293 15.5612 9.86646 11.9705 9.86646C8.3798 9.86646 5.47076 12.2981 5.47076 14.9405C5.47076 15.6037 5.65325 16.236 5.98602 16.8067C6.97359 16.0047 9.2815 15.4443 11.9651 15.4443H11.9705Z" fill="#6CCFF6"/>
<path d="M11.9705 15.4598C14.6595 15.4598 16.962 16.0202 17.9496 16.817C18.2824 16.2515 18.4648 15.6243 18.4648 14.9663C18.4648 12.3393 15.5558 9.92822 11.9705 9.92822C8.38518 9.92822 5.48151 12.3342 5.48151 14.9612C5.48151 15.6192 5.66399 16.2515 5.99676 16.817C6.98433 16.0202 9.28687 15.4598 11.9705 15.4598Z" fill="#73D1F6"/>
<path d="M11.9705 15.4752C14.6541 15.4752 16.9567 16.0305 17.9389 16.8222C18.2716 16.2618 18.4541 15.6346 18.4541 14.9817C18.4541 12.3701 15.5504 9.97449 11.9705 9.97449C8.39055 9.97449 5.49225 12.3701 5.49225 14.9817C5.49225 15.6346 5.67473 16.2618 6.0075 16.8222C6.98971 16.0305 9.29225 15.4752 11.9705 15.4752Z" fill="#7AD2F7"/>
<path d="M11.9705 15.4907C14.6541 15.4907 16.9513 16.0407 17.9335 16.8273C18.2663 16.2721 18.4488 15.65 18.4488 15.0023C18.4488 12.4113 15.5504 10.0259 11.9759 10.0259C8.40129 10.0259 5.49762 12.4113 5.49762 15.0023C5.49762 15.6552 5.68011 16.2721 6.00751 16.8324C6.98971 16.0459 9.29225 15.4958 11.9651 15.4958L11.9705 15.4907Z" fill="#81D4F7"/>
<path d="M11.9705 15.5061C14.6488 15.5061 16.9459 16.0561 17.9228 16.8324C18.2555 16.2772 18.438 15.6654 18.438 15.0177C18.438 12.4421 15.5451 10.0721 11.9705 10.0721C8.39593 10.0721 5.50836 12.4472 5.50836 15.0177C5.50836 15.6654 5.69085 16.2772 6.01825 16.8324C7.00045 16.051 9.29763 15.5061 11.9651 15.5061H11.9705Z" fill="#88D6F8"/>
<path d="M11.9705 15.5266C14.6433 15.5266 16.9351 16.0715 17.9173 16.8427C18.2447 16.2926 18.4272 15.6808 18.4272 15.0433C18.4272 12.4883 15.5343 10.1338 11.9705 10.1338C8.40661 10.1338 5.51904 12.4832 5.51904 15.0382C5.51904 15.6808 5.70153 16.2926 6.02893 16.8427C7.01113 16.0715 9.30294 15.5266 11.9705 15.5266Z" fill="#8ED8F8"/>
<path d="M11.9705 15.542C14.6433 15.542 16.9298 16.0818 17.9066 16.8529C18.234 16.308 18.4165 15.7014 18.4165 15.0639C18.4165 12.5243 15.5289 10.1852 11.9705 10.1852C8.41198 10.1852 5.52441 12.5243 5.52441 15.0588C5.52441 15.6962 5.7069 16.3028 6.0343 16.8478C7.01114 16.0818 9.30295 15.5369 11.9651 15.5369L11.9705 15.542Z" fill="#94DAF8"/>
<path d="M11.9705 15.5575C14.638 15.5575 16.9244 16.0922 17.8959 16.8582C18.2233 16.3184 18.4058 15.7117 18.4058 15.0845C18.4058 12.5655 15.5236 10.2418 11.9651 10.2418C8.40663 10.2418 5.53516 12.5604 5.53516 15.0794C5.53516 15.7117 5.71764 16.3132 6.04504 16.8582C7.02188 16.0973 9.30832 15.5575 11.9705 15.5575Z" fill="#9BDCF9"/>
<path d="M11.9705 15.5729C14.6326 15.5729 16.9191 16.1076 17.8905 16.8633C18.2179 16.3235 18.4004 15.7272 18.4004 15.1C18.4004 12.5963 15.5182 10.2881 11.9705 10.2881C8.42273 10.2881 5.5459 12.5963 5.5459 15.1C5.5459 15.7272 5.72838 16.3235 6.05579 16.8633C7.03262 16.1076 9.3137 15.5729 11.9705 15.5729Z" fill="#A1DDF9"/>
<path d="M11.9705 15.5883C14.6326 15.5883 16.9083 16.1178 17.8798 16.8684C18.2072 16.3338 18.3897 15.7426 18.3897 15.1205C18.3897 12.6375 15.5129 10.3395 11.9705 10.3395C8.42811 10.3395 5.55127 12.6375 5.55127 15.1205C5.55127 15.7426 5.73376 16.3389 6.06116 16.8736C7.03799 16.123 9.31907 15.5935 11.9705 15.5935V15.5883Z" fill="#A7DFF9"/>
<path d="M11.9705 15.6038C14.6273 15.6038 16.903 16.1281 17.8744 16.8736C18.2018 16.344 18.3843 15.7528 18.3843 15.1359C18.3843 12.6683 15.5129 10.3857 11.9705 10.3857C8.42811 10.3857 5.56201 12.6734 5.56201 15.1411C5.56201 15.7631 5.7445 16.3492 6.0719 16.8787C7.04337 16.1333 9.32444 15.6089 11.9705 15.6089V15.6038Z" fill="#ADE1FA"/>
<path d="M11.9705 15.6243C14.6219 15.6243 16.8976 16.1486 17.8637 16.8838C18.1911 16.3543 18.3736 15.7734 18.3736 15.1616C18.3736 12.7145 15.5075 10.4474 11.9705 10.4474C8.43349 10.4474 5.57275 12.7145 5.57275 15.1565C5.57275 15.7734 5.75524 16.3543 6.07727 16.8838C7.04874 16.1435 9.32445 15.6243 11.9705 15.6191V15.6243Z" fill="#B3E3FA"/>
<path d="M11.9705 15.6397C14.6165 15.6397 16.8923 16.1589 17.8584 16.8941C18.1858 16.3697 18.3629 15.7939 18.3629 15.1821C18.3629 12.7505 15.4968 10.4988 11.9705 10.4988C8.44423 10.4988 5.57812 12.7505 5.57812 15.177C5.57812 15.7888 5.76061 16.3645 6.08264 16.8889C7.05411 16.1538 9.32445 15.6345 11.9651 15.6345L11.9705 15.6397Z" fill="#B8E5FA"/>
<path d="M11.9705 15.6552C14.6166 15.6552 16.8815 16.1693 17.8476 16.8993C18.175 16.3801 18.3521 15.8043 18.3521 15.2028C18.3521 12.7917 15.4914 10.5503 11.9651 10.5503C8.43887 10.5503 5.58887 12.7866 5.58887 15.1977C5.58887 15.8043 5.77135 16.3801 6.09339 16.8993C7.05949 16.1693 9.32983 15.6552 11.9705 15.6552Z" fill="#BEE7FB"/>
<path d="M11.9705 15.6706C14.6111 15.6706 16.8761 16.1796 17.8422 16.9044C18.1642 16.3903 18.3467 15.8197 18.3467 15.2182C18.3467 12.8226 15.4914 10.6017 11.9705 10.6017C8.44955 10.6017 5.59955 12.8277 5.59955 15.2182C5.59955 15.8197 5.78203 16.3903 6.10407 16.9044C7.07017 16.1796 9.33514 15.6706 11.9705 15.6706Z" fill="#C4E9FB"/>
<path d="M11.9705 15.686C14.6058 15.686 16.8707 16.195 17.8315 16.9096C18.1535 16.3955 18.336 15.83 18.336 15.2336C18.336 12.8585 15.486 10.6479 11.9705 10.6479C8.45492 10.6479 5.60492 12.8637 5.60492 15.2388C5.60492 15.8351 5.78741 16.4006 6.10944 16.9147C7.07554 16.195 9.34051 15.6912 11.9705 15.6912V15.686Z" fill="#CAEBFC"/>
<path d="M11.9705 15.7066C14.6058 15.7066 16.8654 16.2104 17.8261 16.9198C18.1481 16.4109 18.3306 15.8505 18.3306 15.2593C18.3306 12.8996 15.4806 10.7045 11.9705 10.7045C8.46029 10.7045 5.61566 12.8996 5.61566 15.2593C5.61566 15.8505 5.79278 16.4109 6.12018 16.9198C7.08628 16.2052 9.34589 15.7066 11.9705 15.7014V15.7066Z" fill="#CFEDFC"/>
<path d="M11.9705 15.722C14.6004 15.722 16.8547 16.2206 17.8154 16.9301C18.1374 16.4263 18.3199 15.871 18.3199 15.2798C18.3199 12.9407 15.4753 10.761 11.9705 10.761C8.46567 10.761 5.6264 12.9407 5.6264 15.2798C5.6264 15.8659 5.80352 16.4263 6.13092 16.9301C7.09166 16.2206 9.35126 15.722 11.9758 15.722H11.9705Z" fill="#D5EFFC"/>
<path d="M11.9705 15.7374C14.5951 15.7374 16.8493 16.2309 17.81 16.9352C18.1321 16.4365 18.3145 15.8813 18.3145 15.3004C18.3145 12.9767 15.4753 10.8124 11.9758 10.8124C8.47641 10.8124 5.63177 12.9767 5.63177 15.2952C5.63177 15.8813 5.80889 16.4314 6.13093 16.93C7.09166 16.2257 9.3459 15.7322 11.9651 15.7322L11.9705 15.7374Z" fill="#DAF1FD"/>
<path d="M11.9705 15.7528C14.5951 15.7528 16.8439 16.2463 17.7993 16.9403C18.1213 16.4417 18.3038 15.8967 18.3038 15.3158C18.3038 13.0075 15.4699 10.8586 11.9705 10.8586C8.47105 10.8586 5.64252 13.0127 5.64252 15.3158C5.64252 15.8967 5.81964 16.4417 6.14167 16.9403C7.1024 16.2412 9.35127 15.7528 11.9705 15.7528Z" fill="#E0F3FD"/>
<path d="M11.9705 15.7683C14.5897 15.7683 16.8332 16.2567 17.7939 16.9456C18.116 16.452 18.2931 15.9071 18.2931 15.3365C18.2931 13.0488 15.4592 10.9153 11.9705 10.9153C8.48179 10.9153 5.64789 13.0539 5.64789 15.3365C5.64789 15.9122 5.82501 16.452 6.14704 16.9507C7.10241 16.2618 9.35128 15.7734 11.9651 15.7734L11.9705 15.7683Z" fill="#E6F5FD"/>
<path d="M11.9705 15.7888C14.5843 15.7888 16.8278 16.2721 17.7832 16.9558C18.1052 16.4674 18.2824 15.9276 18.2824 15.357C18.2824 13.0847 15.4538 10.9667 11.9705 10.9667C8.48716 10.9667 5.65863 13.0899 5.65863 15.357C5.65863 15.9276 5.83575 16.4674 6.15778 16.9558C7.11315 16.2721 9.36202 15.7888 11.9705 15.7837V15.7888Z" fill="#EBF7FE"/>
<path d="M11.9705 15.8042C14.5843 15.8042 16.8225 16.2823 17.7725 16.9661C18.0945 16.4828 18.2716 15.9482 18.2716 15.3827C18.2716 13.131 15.4485 11.0232 11.9651 11.0232C8.4818 11.0232 5.66937 13.1258 5.66937 15.3775C5.66937 15.943 5.84649 16.4777 6.16853 16.9661C7.12389 16.2875 9.36739 15.8042 11.9705 15.8042Z" fill="#F1FAFE"/>
<path d="M11.9705 15.8196C14.579 15.8196 16.8171 16.2977 17.7671 16.9712C18.0838 16.488 18.2663 15.9584 18.2663 15.3981C18.2663 13.1618 15.4431 11.0746 11.9705 11.0746C8.49791 11.0746 5.67474 13.1669 5.67474 15.3981C5.67474 15.9584 5.85186 16.488 6.1739 16.9712C7.12926 16.2977 9.3674 15.8196 11.9705 15.8196Z" fill="#F7FCFE"/>
<path d="M11.9705 15.835C14.5736 15.835 16.8063 16.308 17.7563 16.9763C18.073 16.4982 18.2555 15.9738 18.2555 15.4186C18.2555 13.2029 15.4377 11.126 11.9705 11.126C8.50322 11.126 5.68542 13.2029 5.68542 15.4186C5.68542 15.9738 5.86254 16.4982 6.18458 16.9815C7.13458 16.3131 9.37271 15.8402 11.9705 15.8402V15.835Z" fill="white"/>
</g>
<path d="M11.9383 13.6245C9.6572 13.6245 7.54788 13.9947 5.80353 14.6218C6.85014 16.8684 9.20099 18.4313 11.9383 18.4313C14.6756 18.4313 17.021 16.8633 18.0677 14.6218C16.3233 13.9947 14.2086 13.6245 11.9329 13.6245H11.9383Z" fill="#0083CA"/>
</g>
<defs>
<clipPath id="clip0_10248_2522">
<rect width="14.25" height="13.5" fill="white" transform="translate(4.875 5.25)"/>
</clipPath>
</defs>
</svg>
