<svg width="32" height="32" viewBox="0 0 32 32" fill="none" xmlns="http://www.w3.org/2000/svg">
<path d="M0 12C0 5.37258 5.37258 0 12 0H20C26.6274 0 32 5.37258 32 12V20C32 26.6274 26.6274 32 20 32H12C5.37258 32 0 26.6274 0 20V12Z" fill="#EE3424"/>
<g clip-path="url(#clip0_97_11346)">
<path fill-rule="evenodd" clip-rule="evenodd" d="M5.2467 15.9514L10.5809 10.6208V21.2856L5.2467 15.9514Z" fill="white"/>
<path fill-rule="evenodd" clip-rule="evenodd" d="M10.5809 10.621H21.2458L15.9152 15.9517L10.5809 10.621Z" fill="white"/>
<path fill-rule="evenodd" clip-rule="evenodd" d="M15.9152 15.9514L21.2458 21.2856H10.5809L15.9152 15.9514Z" fill="white"/>
<path fill-rule="evenodd" clip-rule="evenodd" d="M21.2494 21.2856V10.6208L26.5801 15.9514L21.2494 21.2856Z" fill="white"/>
</g>
<defs>
<clipPath id="clip0_97_11346">
<rect width="21.3333" height="10.6649" fill="white" transform="matrix(1 0 0 -1 5.2467 21.2856)"/>
</clipPath>
</defs>
</svg>
