<svg width="24" height="24" viewBox="0 0 24 24" fill="none" xmlns="http://www.w3.org/2000/svg">
<path d="M0 9C0 4.02944 4.02944 0 9 0H15C19.9706 0 24 4.02944 24 9V15C24 19.9706 19.9706 24 15 24H9C4.02944 24 0 19.9706 0 15V9Z" fill="#CB0202"/>
<path fill-rule="evenodd" clip-rule="evenodd" d="M12 20.25C7.44365 20.25 3.75 16.5563 3.75 12C3.75 7.44365 7.44365 3.75 12 3.75C16.5563 3.75 20.25 7.44365 20.25 12C20.25 16.5563 16.5563 20.25 12 20.25ZM12.0001 5.125C8.2031 5.125 5.125 8.2031 5.125 12.0001C5.125 15.7972 8.2031 18.8753 12.0001 18.8753C15.7972 18.8753 18.8753 15.7972 18.8753 12.0001C18.8753 10.1767 18.1509 8.42802 16.8616 7.13868C15.5723 5.84934 13.8235 5.125 12.0001 5.125ZM12.2676 15.1251H15.1246V13.8752H12.6248V10.1627H15.125V8.8757H12.2676V7.625H16.3748V11.375H13.8751V12.6249H16.3753V16.3749H12.2676V15.1251ZM7.625 12.6249H10.1623V11.375H7.625V7.625H11.7323V8.87488H8.87487V10.1619H11.375V13.8744H8.87487V15.1243H11.7318V16.3741H7.625V12.6249Z" fill="white"/>
</svg>
