<svg width="32" height="32" viewBox="0 0 32 32" fill="none" xmlns="http://www.w3.org/2000/svg">
<path d="M4 2C4 0.895431 4.89543 0 6 0H26C27.1046 0 28 0.895431 28 2V30C28 31.1046 27.1046 32 26 32H6C4.89543 32 4 31.1046 4 30V2Z" fill="#11195F"/>
<path d="M8.14698 16.8225C8.09362 16.3761 8.1388 15.9234 8.27935 15.4963C8.41991 15.0693 8.6524 14.6782 8.96046 14.3507C9.26852 14.0233 9.64465 13.7673 10.0623 13.601C10.48 13.4346 10.9291 13.3619 11.378 13.3879C11.8322 13.358 12.2869 13.4361 12.7051 13.6158C13.1233 13.7955 13.493 14.0717 13.7839 14.4218C13.9785 14.6952 14.1067 15.0103 14.1582 15.342L14.1799 15.4671L12.8813 15.799L12.8534 15.6956C12.7848 15.3601 12.5951 15.0617 12.3205 14.8572C12.0459 14.6528 11.7056 14.5566 11.3645 14.5872C11.0867 14.5866 10.8121 14.6458 10.5592 14.7608C10.3063 14.8758 10.0811 15.0438 9.89886 15.2535C9.71664 15.4631 9.58167 15.7096 9.5031 15.976C9.42453 16.2425 9.40421 16.5227 9.44351 16.7977C9.44351 17.6621 9.74542 19.0362 11.287 19.0362C11.6919 19.0694 12.0934 18.9406 12.4035 18.6782C12.7137 18.4158 12.907 18.041 12.9413 17.6362L12.9526 17.5173L14.2905 17.7376L14.2688 17.8596C14.1733 18.5472 13.8224 19.1736 13.286 19.6143C12.7496 20.0549 12.0669 20.2774 11.3738 20.2376C10.9284 20.2579 10.4838 20.1819 10.0703 20.0148C9.65686 19.8477 9.28431 19.5934 8.97804 19.2693C8.67177 18.9452 8.439 18.5588 8.29558 18.1366C8.15216 17.7143 8.10148 17.2661 8.14698 16.8225ZM17.7965 18.1149V14.6058H17.0314V13.5336H17.7965V12.3725L18.8997 11.6902L19.0848 11.5806V13.5336H20.1404V14.6058H19.0848V18.1759C19.0848 18.7384 19.1065 18.9338 19.5532 18.9338L20.3917 18.786L20.554 19.8519L20.5364 19.9843L19.3753 20.1766C17.7965 20.1755 17.7965 19.1726 17.7965 18.1149ZM21.8288 20.0877V13.5336H23.1181V20.0887L21.8288 20.0877ZM14.8602 20.0877V13.5336H16.1516V20.0887L14.8602 20.0877Z" fill="white"/>
<path d="M15.5611 12.7798C15.9227 12.2202 16.4213 11.7623 17.0096 11.4496C17.5978 11.1369 18.2563 10.9798 18.9224 10.9932C19.5956 10.9792 20.2614 11.1357 20.8579 11.448C21.4545 11.7604 21.9623 12.2185 22.3343 12.7798H23.8749C23.4409 11.8467 22.7411 11.0625 21.8631 10.5256C20.9852 9.98872 19.9683 9.72299 18.94 9.76177C17.9125 9.72376 16.8966 9.98986 16.0196 10.5267C15.1427 11.0636 14.4437 11.8474 14.0103 12.7798H15.5611Z" fill="#D9000D"/>
</svg>
