<svg width="24" height="24" viewBox="0 0 24 24" fill="none" xmlns="http://www.w3.org/2000/svg">
<path d="M0 9C0 4.02944 4.02944 0 9 0H15C19.9706 0 24 4.02944 24 9V15C24 19.9706 19.9706 24 15 24H9C4.02944 24 0 19.9706 0 15V9Z" fill="#0114A7"/>
<path d="M8.52516 10.8798C8.17807 10.8798 7.85492 11.0081 7.61854 11.2428L7.53776 11.3226V9.5H6.61169V12.6148C6.61169 13.7772 7.27595 14.4984 8.34563 14.4984C9.41531 14.4984 10.1499 13.7397 10.1499 12.6931C10.1499 11.6464 9.46618 10.8798 8.52516 10.8798ZM8.37705 13.613C7.89083 13.613 7.49437 13.1984 7.49437 12.6915C7.49437 12.1846 7.89083 11.7685 8.37705 11.7685C8.86327 11.7685 9.25972 12.183 9.25972 12.6915C9.25972 13.1999 8.86327 13.613 8.37705 13.613Z" fill="white"/>
<path d="M5.06926 9.5L3.23658 11.7231V9.5H2.30005V14.3842H3.23658V12.1799L5.10666 14.3842H6.31099L4.24193 11.9421L6.25563 9.5H5.06926Z" fill="white"/>
<path d="M21.6816 10.9941H20.6508L19.4644 12.4584V9.5H18.5383V14.3858H19.4644V12.9199L20.6508 14.3858H21.6816L20.3097 12.6884L21.6816 10.9941Z" fill="white"/>
<path d="M16.7235 10.8799C16.152 10.8799 15.7989 11.1599 15.6299 11.3555V10.9957H14.7352V14.3858H15.6613V12.5398C15.6613 12.0783 15.968 11.756 16.3525 11.756C16.737 11.756 17.0451 12.0783 17.0451 12.5398V14.3858H17.9712V12.2488C17.9712 11.4556 17.4207 10.8799 16.722 10.8799H16.7235Z" fill="white"/>
<path d="M12.37 10.8799C11.3362 10.8799 10.5852 11.6418 10.5852 12.6931C10.5852 13.7444 11.2779 14.5 12.2309 14.5C13.1839 14.5 13.2706 13.9869 13.2736 13.9822L13.326 13.9055V14.3858H14.1683V12.6931C14.1683 11.6433 13.4128 10.8799 12.37 10.8799ZM12.3984 13.613C11.9122 13.613 11.5158 13.1984 11.5158 12.6915C11.5158 12.1846 11.9122 11.7685 12.3984 11.7685C12.8846 11.7685 13.2811 12.1831 13.2811 12.6915C13.2811 13.2 12.8846 13.613 12.3984 13.613Z" fill="white"/>
</svg>
