<svg width="32" height="32" viewBox="0 0 32 32" fill="none" xmlns="http://www.w3.org/2000/svg">
<path d="M0 12C0 5.37258 5.37258 0 12 0H20C26.6274 0 32 5.37258 32 12V20C32 26.6274 26.6274 32 20 32H12C5.37258 32 0 26.6274 0 20V12Z" fill="#00C4A6"/>
<g clip-path="url(#clip0_97_11384)">
<path d="M9.97927 14.3257H6.66663V20.3464H9.97927V14.3257Z" fill="white"/>
<path d="M9.97925 11.0132V14.3258C13.2991 14.3258 15.9999 17.0267 15.9999 20.3465H19.3126C19.3126 15.192 15.1338 11.0132 9.97925 11.0132Z" fill="white"/>
<path d="M25.3333 11.0132V14.3258C22.0135 14.3258 19.3126 17.0267 19.3126 20.3465H16C16 15.192 20.1788 11.0132 25.3333 11.0132Z" fill="white"/>
</g>
<defs>
<clipPath id="clip0_97_11384">
<rect width="18.6667" height="9.33333" fill="white" transform="translate(6.66663 11.0132)"/>
</clipPath>
</defs>
</svg>
