<svg width="24" height="24" viewBox="0 0 24 24" fill="none" xmlns="http://www.w3.org/2000/svg">
<g clip-path="url(#clip0_10050_1408)">
<path d="M3.09295 10.86C2.98822 11.1001 2.8158 11.3526 2.60035 11.5807C2.37856 11.8209 2.1074 12.0303 1.83025 12.1968L1.35 11.6361C1.69485 11.439 2.02137 11.1678 2.26784 10.823C2.51431 10.4841 2.66805 10.0899 2.66805 9.64669V9.12941H3.46883V9.63434C3.46883 10.0716 3.62891 10.4411 3.86904 10.7429C4.10917 11.0571 4.43568 11.2913 4.75585 11.4453L4.32461 12.0303C3.73328 11.7102 3.34506 11.3283 3.09259 10.86H3.09295ZM2.66805 12.4739H5.90183V14.8329H2.66805V12.4739ZM3.42581 13.1206V14.1922H5.13808V13.1206H3.42581ZM5.90183 12.2521H5.13808V9H5.90183V10.2934H6.79499V10.9401H5.90183V12.2521Z" fill="#004499"/>
<path d="M8.96 11.5748C8.74455 11.3716 8.57812 11.1559 8.47974 10.9587C8.38736 11.1805 8.22093 11.4207 8.00549 11.6484C7.78369 11.8762 7.51888 12.1104 7.2234 12.2891L6.74914 11.7161C7.12502 11.4697 7.46352 11.1865 7.69166 10.86C7.91945 10.5398 8.0612 10.1703 8.0612 9.75141V9.12941H8.87431V9.73907C8.87431 10.201 9.02206 10.5582 9.26218 10.8477C9.48997 11.1435 9.81649 11.365 10.143 11.5314L9.71176 12.1291C9.4406 11.9813 9.1758 11.7902 8.96035 11.5748H8.96ZM11.0171 14.6365C10.746 14.8642 10.3704 15 9.92685 15C9.48327 15 9.11374 14.8646 8.84893 14.6365C8.57777 14.3963 8.42403 14.0635 8.42403 13.6509C8.42403 13.2384 8.57812 12.9242 8.84893 12.6841C9.11374 12.4439 9.48327 12.3022 9.92685 12.3022C10.3704 12.3022 10.746 12.4439 11.0171 12.6841C11.2819 12.9242 11.442 13.2571 11.442 13.6509C11.442 14.0448 11.2819 14.3963 11.0171 14.6365ZM10.4752 13.146C10.3334 13.0229 10.1486 12.9489 9.92685 12.9489C9.48327 12.9489 9.17544 13.2324 9.17544 13.6513C9.17544 14.0702 9.48327 14.3597 9.92685 14.3597C10.3704 14.3597 10.6906 14.0762 10.6906 13.6513C10.6906 13.4478 10.6042 13.2694 10.4752 13.1463V13.146ZM10.771 10.6999H9.69307V10.0222H10.771V9H11.5348V12.2828H10.771V10.6999Z" fill="#004499"/>
<path d="M13.6338 12.7387V12.3322C13.0489 12.2028 12.7283 11.7902 12.7283 11.2972C12.7283 11.0261 12.8637 10.7613 13.0855 10.5705H12.3401V9.96086H15.6539V10.5705H14.9332C15.155 10.7676 15.2844 11.0324 15.2844 11.3096C15.2844 11.7962 14.9889 12.1964 14.4036 12.3258V12.7017C14.9272 12.671 15.4508 12.634 15.9681 12.5786V9H16.7259V10.9464H17.5884V11.5931H16.7259V14.1678H15.9681V13.1946C14.7671 13.33 13.5351 13.4224 12.2724 13.4594L12.1987 12.7697C12.679 12.7697 13.1532 12.7574 13.6338 12.7391V12.7387ZM13.2396 9.02468H14.7488V9.66537H13.2396V9.02468ZM13.4551 11.2976C13.4551 11.5624 13.6645 11.7719 14.0034 11.7719C14.3422 11.7719 14.5517 11.5624 14.5517 11.2976C14.5517 11.0328 14.3486 10.817 14.0034 10.817C13.6582 10.817 13.4551 11.0324 13.4551 11.2976Z" fill="#004499"/>
<path d="M19.7632 11.39C19.954 11.7535 20.2315 12.0183 20.57 12.2461L20.1141 12.8315C19.8986 12.6837 19.6705 12.4679 19.4921 12.2461C19.3013 12.0243 19.1532 11.7902 19.0979 11.5994C18.9254 12.1414 18.5559 12.579 18.0876 12.9485L17.6134 12.3879C17.9829 12.0677 18.2601 11.7842 18.4388 11.4147C18.6113 11.0511 18.6977 10.6079 18.6977 9.9732H17.7985V9.33251H20.3422V9.9732H19.4614C19.4614 10.5705 19.5661 11.0264 19.7632 11.39ZM21.8207 11.2606H21.3525V13.9524H20.6134V9.07405H21.3525V10.6139H21.8207V9H22.5661V14.1615H21.8207V11.2606Z" fill="#004499"/>
</g>
<defs>
<clipPath id="clip0_10050_1408">
<rect width="21.2158" height="6" fill="white" transform="translate(1.35 9)"/>
</clipPath>
</defs>
</svg>
