<svg width="136" height="16" viewBox="0 0 136 16" fill="none" xmlns="http://www.w3.org/2000/svg">
<g clip-path="url(#clip0_868_134564)">
<g clip-path="url(#clip1_868_134564)">
<path d="M47.8103 0.235481V15.4266H45.6263L45.4969 15.2486C45.513 12.3042 45.3674 9.32749 45.4645 6.39928C45.4645 6.28604 45.513 6.17279 45.5292 6.05955H44.4776V15.3295L44.3806 15.4266H42.2289L42.1318 15.3295V0.316371L42.2289 0.219303H44.3806L44.4776 0.316371V3.61667C44.5747 3.76228 45.3189 3.72992 45.3998 3.68139L45.4483 3.6005C45.5454 2.62982 45.3512 1.49736 45.4483 0.542862C45.4483 0.39726 45.4969 0.300193 45.6101 0.203125H47.7941L47.8103 0.235481Z" fill="#FF7F32"/>
<path d="M26.7471 0.234375V3.71264H27.8634L27.9119 0.234375H30.0959L30.193 0.315265V15.3284L30.0959 15.4093H27.9119L27.8634 6.04226H26.7471V15.4093H24.5469V0.234375H26.7471Z" fill="#FF7F32"/>
<path d="M7.41401 2.74149C7.38166 2.91944 7.62433 2.98416 7.70522 3.06505C8.53029 4.08426 8.595 5.79912 7.867 6.88304C6.45951 8.97 2.70623 8.95382 1.3311 6.81833C0.570737 5.62116 0.667805 3.72834 1.83262 2.82238L1.67084 2.67677C1.42817 2.70913 0.506025 2.82238 0.392779 2.59588C0.328067 2.48264 0.344245 0.994267 0.392779 0.881021C0.392779 0.848665 0.506025 0.751598 0.522203 0.751598H3.28863L3.3857 0.65453V-0.380859H5.8124L5.90946 -0.283792V0.703064L6.00653 0.800131H8.70825C8.70825 0.800131 8.85385 0.945733 8.85385 1.01044C8.88621 1.17222 8.87003 2.53117 8.8215 2.62824C8.8215 2.6606 8.70825 2.75766 8.69207 2.75766H7.43019L7.41401 2.74149ZM4.38873 3.6151C3.14303 3.7607 2.56063 5.26525 3.54748 6.13886C4.25931 6.7698 5.5859 6.57566 5.99035 5.70205C6.52422 4.5696 5.56973 3.48567 4.38873 3.6151Z" fill="#FF7F32"/>
<path d="M41.5498 2.64468C41.5012 2.80646 40.6762 2.69321 40.5144 2.67703L40.4497 2.83881C40.935 3.14619 41.3556 4.00363 41.4203 4.55368C42.0027 9.22911 35.4345 10.1027 34.0755 6.3009C33.7358 5.36257 33.9299 3.93891 34.5447 3.14619C34.6741 2.96824 34.9977 2.88735 34.8521 2.67703C34.5609 2.74175 34.1241 2.82263 33.8652 2.64468V0.865102C33.9138 0.784212 33.9947 0.784212 34.0755 0.768034C34.7388 0.687145 35.5963 0.80039 36.2757 0.816568C36.3405 0.816568 36.5022 0.703323 36.5022 0.670967V-0.348245L36.5993 -0.445312H38.751L38.848 -0.348245V0.687145L38.9451 0.784212H41.4689L41.5659 0.88128V2.66086L41.5498 2.64468ZM38.7672 4.10069C37.4406 2.75792 35.3213 4.61839 36.4537 6.12294C37.5215 7.5466 39.7378 6.25236 39.1231 4.6831C39.0584 4.50514 38.8966 4.23012 38.7672 4.08452V4.10069Z" fill="#FF7F32"/>
<path d="M55.2522 9.5057C57.0965 6.82016 62.4029 7.43492 63.1794 10.8323C63.956 14.2297 60.3321 16.2843 57.4201 15.3459C54.864 14.537 53.6668 11.8191 55.2522 9.5057ZM57.7113 13.1943C59.5879 14.537 62.0632 12.0618 60.3159 10.3793C58.3422 8.47031 55.4787 11.6088 57.7113 13.1943Z" fill="#FF7F32"/>
<path d="M23.0096 2.74295H20.0328L19.9358 2.84002V8.29199L20.0328 8.38905H23.6567L23.7538 8.48612V10.4113H17.5576V0.720703H22.9934L23.0905 0.817771V2.59735C23.0905 2.59735 23.0096 2.69441 23.0258 2.74295H23.0096Z" fill="#FF7F32"/>
<path d="M9.32324 8.25864V6.33346L9.42031 6.2364H11.0219L11.1028 6.0908C10.9572 5.75106 11.1837 5.29808 10.9572 5.00687H9.32324V3.14641L9.42031 3.04934H10.9572C11.0381 3.00081 11.0381 2.91992 11.0543 2.83903C11.1514 2.01395 10.8763 1.01092 11.1999 0.234375H13.4163L13.5133 0.331443V11.3001L13.4163 11.3972H11.1999L11.0543 11.2516V8.37189L10.9572 8.27482H9.32324V8.25864Z" fill="#FF7F32"/>
<path d="M55.9318 0.234375C56.0936 0.282909 56.0127 0.946205 56.0288 1.12416C56.0774 1.69039 56.1583 2.28898 56.3524 2.82285C56.8377 4.16562 58.0187 4.87745 59.2159 5.52457C59.2159 5.62163 58.2129 7.14236 58.1158 7.17472C57.7761 7.35268 56.4333 6.47907 56.1097 6.2364C55.7053 5.94519 55.317 5.55692 54.9935 5.20101C54.8964 5.08776 54.8155 4.94216 54.7184 4.82891L53.6992 5.89666C52.9874 6.47907 52.2108 6.96441 51.3372 7.25561C51.1593 7.25561 50.3342 5.75106 50.1562 5.52457C50.7063 5.16865 51.2887 4.92598 51.8064 4.48918C52.6153 3.79353 53.3433 2.58018 53.3433 1.48008V0.234375H55.948H55.9318Z" fill="#FF7F32"/>
<path d="M13.4973 15.1025H3.91992V10.1682C3.91992 10.1682 3.96846 10.1035 4.04935 10.1035C4.76118 10.1035 5.48918 10.2168 6.18484 10.1035L6.31426 10.1682V12.9832L6.41133 13.0803H13.4164L13.5135 13.1773V15.1025H13.4973Z" fill="#FF7F32"/>
<path d="M63.3416 0.234375V2.74196L65.2506 2.80667V4.73185L65.1535 4.82891H63.3416V7.70859H61.0443L60.9473 7.61152V0.379977C60.9473 0.379977 61.0282 0.282909 61.012 0.234375H63.3416Z" fill="#FF7F32"/>
<path d="M114.755 6.90002H111.374V5.94552L111.228 5.84846C111.147 6.07495 110.937 6.1073 110.807 6.22055C109.966 6.94856 109.141 7.7251 108.251 8.40457L108.187 8.61489L118.007 8.71195V15.442L117.861 15.5391C117.262 15.4905 116.615 15.5876 116.017 15.5714C115.871 15.5714 115.645 15.5714 115.564 15.4582V10.7666H111.39L111.325 9.05169L109.287 10.718L105.242 10.7666C105.242 10.7666 104.45 9.50467 104.433 9.42378C104.433 9.37525 104.401 9.34289 104.433 9.29436L107.345 6.81913C106.65 6.67353 105.906 6.88384 105.194 6.75442C105.08 6.4794 104.401 5.60579 104.466 5.36312L107.523 2.67758H104.919L104.822 2.58051V0.622976L104.919 0.525908H110.743C110.905 0.817111 111.325 1.33481 111.422 1.62601C111.455 1.7069 111.471 1.78779 111.422 1.86868L108.138 4.68364H112.49V0.396484H114.674L114.771 0.493552V6.90002H114.755Z" fill="#FF7F32"/>
<path d="M132.938 2.54764C132.938 2.54764 132.809 2.61235 132.793 2.61235H125.707V4.18161L125.804 4.27868H132.615L132.712 4.37574V6.26857L132.615 6.36563H125.869C125.869 6.36563 125.755 6.4627 125.739 6.49506C125.691 6.6083 125.675 7.7084 125.707 7.87018C125.707 7.9349 125.82 8.0805 125.853 8.0805H132.906C132.906 8.0805 132.987 7.99961 133.052 8.01578V10.1513H123.264L123.167 10.0542V0.525391H132.841L132.938 0.622458V2.54764Z" fill="#FF7F32"/>
<path d="M91.604 0.413871C93.966 0.203558 96.2794 1.56251 96.7001 3.9892C97.2987 7.53217 93.8689 10.0074 90.5848 8.93966C86.0712 7.46746 86.783 0.850676 91.6202 0.413871H91.604ZM93.7395 3.1803C92.6718 2.09638 90.7142 2.41994 90.0995 3.82742C89.3067 5.63935 91.0054 7.64542 92.9468 6.91741C94.4352 6.35118 94.8558 4.31276 93.7395 3.19648V3.1803Z" fill="#FF7F32"/>
<path d="M78.3544 0.525391V2.61235H74.0025V8.30699H79.9236L80.0207 8.38788V10.3454L79.9236 10.4425H71.6405L71.5435 10.3454V0.622458L71.6405 0.525391H78.3544Z" fill="#FF7F32"/>
<path d="M83.2076 0.154297V3.55167L83.3046 3.64874H85.521C85.521 3.64874 85.6343 3.7458 85.6504 3.77816C85.7151 3.90758 85.7151 5.3636 85.6828 5.59009C85.6828 5.73569 85.6343 5.83276 85.521 5.92983H83.3046L83.2076 6.0269V15.2969H80.8779V0.154297H83.2076Z" fill="#FF7F32"/>
<path d="M98.2529 15.2807V0.251365L98.35 0.154297H100.502C100.744 0.154297 100.599 0.898483 100.583 1.04408C100.55 5.47684 100.583 9.90961 100.583 14.3424C100.583 14.6497 100.712 15.0218 100.502 15.2807H98.2691H98.2529Z" fill="#FF7F32"/>
<path d="M134.767 11.916V14.0839L121.209 14.1162V11.916H134.767Z" fill="#FF7F32"/>
<path d="M115.709 0.154297H117.926L118.023 0.251365V7.04611L117.926 7.14317H115.709L115.628 7.04611V0.251365L115.709 0.154297Z" fill="#FF7F32"/>
</g>
</g>
<defs>
<clipPath id="clip0_868_134564">
<rect width="135.111" height="16" fill="white"/>
</clipPath>
<clipPath id="clip1_868_134564">
<rect width="135.111" height="16.8889" fill="white" transform="translate(0 -0.445312)"/>
</clipPath>
</defs>
</svg>
