<svg width="1222" height="229" viewBox="0 0 1222 229" fill="none" xmlns="http://www.w3.org/2000/svg">
<g clip-path="url(#clip0_3820_513677)">
<path d="M469.374 149.879C469.374 131.682 485.321 116.728 506.871 116.728C528.421 116.728 544.368 131.66 544.368 149.879C544.368 168.099 528.421 183.208 506.871 183.208C485.321 183.208 469.374 168.099 469.374 149.879ZM506.694 166.466C516.422 166.466 524.318 159.187 524.318 149.857C524.318 140.527 516.422 133.425 506.694 133.425C496.967 133.425 489.424 140.527 489.424 149.857C489.424 159.187 496.945 166.466 506.694 166.466ZM30.4608 179.656H112.8V162.717H51.1723V136.711H30.4608V179.634V179.656ZM525.002 50.7551V115.47H545.14V89.9063H561.418V72.6577H545.14V50.7551H525.002ZM458.809 50.7992C458.72 68.9962 457.794 83.9509 431.149 96.3911L440.854 111.213C452.346 107.883 465.293 97.891 470.234 88.9799C475.197 97.891 488.1 107.883 499.614 111.213L509.319 96.3911C482.674 83.9509 481.748 68.9962 481.66 50.7992H458.831H458.809ZM238.437 81.3261H227.805V50.9977H208.814V181.796H227.805V100.383H238.437V181.796H257.979V50.9977H238.437V81.3261ZM390.652 81.3261H381.454V50.9977H362.243V181.796H381.454V100.383H390.652V181.796H410.415V50.9977H390.652V81.3261ZM92.7278 147.122H112.866V50.9315H92.7278V75.1502H77.4202V91.9797H92.7278V103.251H77.4423V120.08H92.7278V147.122ZM312.725 45.2188V55.6076H289.741V71.5769H301.079C294.307 76.1207 290.359 84.8111 290.359 94.0089C290.359 109.912 304.034 123.477 322.915 123.477C341.796 123.477 355.471 109.89 355.471 94.0089C355.471 84.7891 351.545 76.1207 344.752 71.5769H356.089V55.6076H333.105V45.2188H312.725ZM336.59 93.7001C336.59 100.67 330.635 107.398 322.893 107.398C315.151 107.398 309.196 100.67 309.196 93.7001C309.196 86.7301 315.151 80.0027 322.893 80.0027C330.635 80.0027 336.59 86.7522 336.59 93.7001ZM25.5641 45.307V55.7179H0V71.6872H14.2047C7.58762 76.0986 3.77175 84.6567 3.77175 92.7517C3.77175 108.655 17.4471 121.536 36.3279 121.536C55.2088 121.536 68.8841 108.655 68.8841 92.7517C68.8841 84.6567 65.0683 76.0986 58.4291 71.6872H72.6559V55.7179H47.0918V45.307H25.5862H25.5641ZM50.0033 92.3988C50.0033 99.3688 44.0259 105.412 36.3059 105.412C28.5859 105.412 22.6085 99.3688 22.6085 92.3988C22.6085 85.4287 28.5859 79.4072 36.3059 79.4072C44.0259 79.4072 50.0033 85.4508 50.0033 92.3988ZM201.932 121.47H169.045V71.8416H196.065V54.6812H148.532V138.696H201.932V121.47ZM844.101 181.553H864.504V50.7551H844.079V181.553H844.101ZM751.572 90.6121C751.572 69.8344 768.445 52.7623 791.252 52.7623C814.059 52.7623 830.933 69.8124 830.933 90.6121C830.933 111.412 814.059 128.661 791.252 128.661C768.445 128.661 751.572 111.412 751.572 90.6121ZM791.054 110.706C801.972 110.706 810.839 101.883 810.839 90.568C810.839 79.2528 801.972 70.6505 791.054 70.6505C780.136 70.6505 771.688 79.2748 771.688 90.568C771.688 101.861 780.136 110.706 791.054 110.706ZM734.477 81.0835H713.788V50.7551H693.606V181.553H713.81V100.031H734.477V81.1056V81.0835ZM633.809 121.735V71.5549H671.637V53.7107H613.362V139.601H685.18V121.735H633.787H633.809ZM1014.87 50.7551H994.729V109.669H1014.87V50.7551ZM927.565 124.426L958.07 96.6117V109.669H986.325V50.7551H967.267V88.6711H928.447L958.356 64.3201L952.225 53.7107H901.538V70.7167H929.307L898.427 95.8617L903.545 104.729H927.719L898.141 131.837L904.25 142.424H939.851L957.739 127.205V142.424H994.684V183.781H1014.91V124.426H927.565ZM1043.19 148.402V165.827H1160.27V148.402H1043.19ZM1080.42 85.8919V71.7313H1141.36V54.6812H1060.33V134.065H1143.55V116.882H1080.42V102.369H1140.08V85.8699H1080.42V85.8919Z" fill="#FF7F32"/>
</g>
<defs>
<clipPath id="clip0_3820_513677">
<rect width="1160.27" height="138.562" fill="white" transform="translate(0 45.2188)"/>
</clipPath>
</defs>
</svg>
