<svg width="127" height="16" viewBox="0 0 127 16" fill="none" xmlns="http://www.w3.org/2000/svg">
<g clip-path="url(#clip0_3413_6251)">
<path d="M60.7293 1.15625V3.58326H62.534V5.49439H60.7293V8.32006H58.4883V1.15625H60.7293Z" fill="#003070"/>
<path d="M52.2969 12.1303C52.2969 10.1137 54.0661 8.46045 56.4723 8.46045C58.8784 8.46045 60.6476 10.1137 60.6476 12.1303C60.6476 14.147 58.8665 15.8118 56.4723 15.8118C54.0779 15.8118 52.2969 14.147 52.2969 12.1303ZM56.4486 13.9711C57.5337 13.9711 58.4184 13.162 58.4184 12.1303C58.4184 11.0985 57.5337 10.313 56.4486 10.313C55.3635 10.313 54.5261 11.0985 54.5261 12.1303C54.5261 13.162 55.3635 13.9711 56.4486 13.9711Z" fill="#003070"/>
<path d="M51.1175 1.16797C51.1175 3.18461 50.9996 4.8378 48.0391 6.20959L49.1124 7.85107C50.3863 7.48756 51.8252 6.37372 52.3796 5.38886C52.9339 6.37372 54.3729 7.47587 55.6467 7.85107L56.7318 6.20959C53.7596 4.82607 53.6652 3.17289 53.6534 1.16797H51.1057H51.1175Z" fill="#003070"/>
<path d="M26.5837 4.54418H25.4042V1.19092H23.293V15.6592H25.4042V6.65464H26.5837V15.6592H28.7657V1.19092H26.5837V4.54418Z" fill="#003070"/>
<path d="M43.536 4.54418H42.5099V1.19092H40.375V15.6592H42.5099V6.65464H43.536V15.6592H45.7298V1.19092H43.536V4.54418Z" fill="#003070"/>
<path d="M3.44531 10.6763H5.74529V13.5488H12.6098V15.4248H3.44531V10.6763Z" fill="#003070"/>
<path d="M10.3703 8.83545H8.67188V6.97121H10.3703V5.71666H8.67188V3.85243H10.3703V1.1792H12.6113V11.8252H10.3703V8.83545Z" fill="#003070"/>
<path d="M34.8641 0.546387V1.69541H32.3047V3.46584H33.5667C32.8118 3.97 32.3755 4.93142 32.3755 5.95147C32.3755 7.71021 33.8969 9.21094 35.9964 9.21094C38.0959 9.21094 39.6174 7.71021 39.6174 5.95147C39.6174 4.93142 39.181 3.98173 38.4262 3.46584H39.6882V1.69541H37.1287V0.546387H34.8641ZM37.518 5.9163C37.518 6.69014 36.8574 7.42879 35.9964 7.42879C35.1354 7.42879 34.4749 6.67839 34.4749 5.9163C34.4749 5.15419 35.1354 4.40381 35.9964 4.40381C36.8574 4.40381 37.518 5.15419 37.518 5.9163Z" fill="#003070"/>
<path d="M2.88941 0.557129V1.70615H0.046875V3.47658H1.62737C0.884304 3.95729 0.459692 4.90699 0.459692 5.80979C0.459692 7.56848 1.98121 8.99888 4.08068 8.99888C6.18016 8.99888 7.70169 7.58024 7.70169 5.80979C7.70169 4.91872 7.27708 3.96901 6.534 3.47658H8.12631V1.70615H5.27195V0.557129H2.87762H2.88941ZM5.614 5.7629C5.614 6.53673 4.95349 7.20504 4.09248 7.20504C3.23146 7.20504 2.57096 6.53673 2.57096 5.7629C2.57096 4.98906 3.23146 4.32075 4.09248 4.32075C4.95349 4.32075 5.614 4.98906 5.614 5.7629Z" fill="#003070"/>
<path d="M22.5266 8.98763H18.8702V3.48875H21.8661V1.58936H16.582V10.887H22.5266V8.98763Z" fill="#003070"/>
<path d="M79.5718 6.39422V12.6836C79.5718 13.0321 79.4623 13.299 79.2432 13.4841C79.0247 13.6801 78.762 13.7782 78.4555 13.7782C78.149 13.7782 77.8918 13.6856 77.6838 13.5004C77.4432 13.3044 77.3232 13.0321 77.3232 12.6836V8.79564C76.9835 9.22038 76.5626 9.54167 76.0592 9.75945C75.5669 9.9773 74.7238 10.1515 73.5312 10.2822C72.5577 10.3911 71.7423 10.4347 71.0857 10.4129C70.1226 10.3803 69.4223 10.1352 68.9847 9.67779C68.5472 9.22038 68.3281 8.51791 68.3281 7.57041V1.21566H74.6641V2.9963H70.5275V7.50505C70.5275 8.01693 70.7577 8.34911 71.2167 8.50161C71.4358 8.56696 71.8844 8.59958 72.5632 8.59958C74.0186 8.59958 74.9977 8.52339 75.5011 8.3709C76.7158 7.98973 77.3232 7.31994 77.3232 6.36154V0.905273H79.5718V4.61358H81.8857V6.39422H79.5718Z" fill="#F18D00"/>
<path d="M95.2053 12.6831C95.2053 13.0316 95.0958 13.3039 94.8773 13.4999C94.6583 13.696 94.401 13.794 94.1056 13.794C93.7992 13.794 93.5364 13.696 93.3179 13.4999C93.1099 13.3039 93.0059 13.0316 93.0059 12.6831V0.87207H95.2053V12.6831ZM91.4632 5.51154C91.4632 6.87289 91.0693 7.95652 90.281 8.76243C89.4933 9.55744 88.4263 9.95498 87.0804 9.95498C85.7346 9.95498 84.6626 9.55744 83.8638 8.76243C83.0755 7.95652 82.6816 6.87289 82.6816 5.51154C82.6816 4.16108 83.0755 3.08834 83.8638 2.29331C84.6626 1.4874 85.7346 1.08444 87.0804 1.08444C88.4263 1.08444 89.4933 1.4874 90.281 2.29331C91.0693 3.08834 91.4632 4.16108 91.4632 5.51154ZM89.1653 5.51154C89.1653 4.68384 88.9684 4.03584 88.5739 3.56753C88.1912 3.1319 87.6933 2.91409 87.0804 2.91409C86.4681 2.91409 85.9696 3.1319 85.5869 3.56753C85.1819 4.03584 84.9795 4.68384 84.9795 5.51154C84.9795 6.33923 85.1764 6.98181 85.5703 7.43923C85.9647 7.89664 86.4681 8.12532 87.0804 8.12532C87.6933 8.12532 88.1912 7.89664 88.5739 7.43923C88.9684 6.98181 89.1653 6.33923 89.1653 5.51154Z" fill="#F18D00"/>
<path d="M103.811 8.69761C102.925 9.06788 101.699 9.25305 100.134 9.25305C99.8612 9.25305 99.5984 9.24758 99.3467 9.23674C98.7122 9.20407 98.2686 9.05699 98.0169 8.79564C97.7762 8.53428 97.6562 8.09865 97.6562 7.48874V5.39772C97.6562 4.66804 97.9898 4.30319 98.6575 4.30319H101.136C101.311 4.30319 101.398 4.21607 101.398 4.04182V2.76759H97.9516V1.11764H103.352V4.76061C103.352 5.16356 103.259 5.45217 103.073 5.62642C102.897 5.78978 102.602 5.87146 102.186 5.87146H100.085C99.8446 5.87146 99.7239 5.99127 99.7239 6.23084V6.99865C99.7239 7.19471 99.7572 7.32536 99.8224 7.39071C99.8883 7.45607 100.036 7.50505 100.266 7.53773C100.605 7.5813 101.075 7.5813 101.677 7.53773C102.323 7.49416 102.859 7.40708 103.286 7.27637C103.406 7.23281 103.516 7.21102 103.614 7.21102C103.844 7.21102 104.025 7.28179 104.156 7.42339C104.287 7.56499 104.353 7.73379 104.353 7.92979C104.353 8.28924 104.173 8.54518 103.811 8.69761ZM108.341 8.6813V0.905273H110.294V8.6813C110.294 9.02979 110.196 9.30204 109.999 9.4981C109.813 9.6941 109.584 9.79213 109.31 9.79213C109.047 9.79213 108.817 9.6941 108.621 9.4981C108.434 9.30204 108.341 9.02979 108.341 8.6813ZM105.387 8.55059V5.31604H103.63V3.56807H105.387V0.905273H107.307V8.55059C107.307 8.90998 107.209 9.1877 107.012 9.38376C106.826 9.56887 106.601 9.66148 106.339 9.66148C106.087 9.66148 105.863 9.56345 105.666 9.36739C105.48 9.17139 105.387 8.89908 105.387 8.55059ZM110.294 14.84C110.294 15.1885 110.185 15.4608 109.966 15.6568C109.747 15.8529 109.49 15.9509 109.195 15.9509C108.899 15.9509 108.642 15.8529 108.424 15.6568C108.205 15.4608 108.095 15.1885 108.095 14.84V12.6836C108.095 12.3896 107.947 12.2426 107.652 12.2426H100.233V10.4783H109.096C109.895 10.4783 110.294 10.8758 110.294 11.6708V14.84Z" fill="#F18D00"/>
<path d="M111.941 13.0919V11.3112H125.154C125.428 11.3112 125.641 11.4038 125.794 11.5889C125.959 11.7632 126.04 11.9701 126.04 12.2097C126.04 12.4493 125.959 12.6562 125.794 12.8305C125.641 13.0047 125.428 13.0919 125.154 13.0919H111.941ZM123.316 4.36835V6.00196H115.996V7.04751C115.996 7.28708 116.05 7.43957 116.16 7.50486C116.236 7.54843 116.357 7.57021 116.521 7.57021H118.753C120.865 7.57021 122.238 7.47766 122.873 7.29249C122.993 7.25988 123.103 7.24351 123.201 7.24351C123.442 7.24351 123.634 7.31975 123.776 7.47224C123.918 7.62468 123.989 7.79895 123.989 7.99495C123.989 8.3544 123.803 8.60486 123.431 8.74646C123.004 8.89889 122.244 9.03501 121.149 9.15483C120.197 9.25286 119.404 9.30184 118.77 9.30184H115.668C115.011 9.30184 114.535 9.16031 114.239 8.87711C113.955 8.58308 113.813 8.10935 113.813 7.45588V1.13379H123.579V2.86542H115.996V4.36835H123.316Z" fill="#F18D00"/>
</g>
<defs>
<clipPath id="clip0_3413_6251">
<rect width="126.769" height="16" fill="white"/>
</clipPath>
</defs>
</svg>
