<svg width="24" height="24" viewBox="0 0 24 24" fill="none" xmlns="http://www.w3.org/2000/svg">
<g clip-path="url(#clip0_6552_317542)">
<path d="M3 1.5C3 0.671573 3.67157 0 4.5 0H19.5C20.3284 0 21 0.671573 21 1.5V22.5C21 23.3284 20.3284 24 19.5 24H4.5C3.67157 24 3 23.3284 3 22.5V1.5Z" fill="#00DE5A"/>
<path d="M6.48044 14.9753C5.11053 14.9753 4 13.8616 4 12.4877C4 11.1138 5.11053 10 6.48044 10C7.85036 10 8.9609 11.1138 8.9609 12.4877C8.96155 13.8616 7.85101 14.9753 6.48044 14.9753ZM6.95946 11.2432V12.6112L6.00078 11.2432H5.24022V13.7309H6.00208V12.3628L6.96076 13.7309H7.72132V11.2432H6.95946Z" fill="black"/>
<path d="M18.7595 10.9078L18.0243 12.598L17.2123 10.9078H16.4706L17.6998 13.3066L17.2058 14.4177H17.9064L19.4594 10.9078H18.7595ZM15.4363 13.5974H16.1004V10.9071H15.4363V11.1281C15.2082 10.9437 14.9502 10.8477 14.6373 10.8477C13.882 10.8477 13.2902 11.4699 13.2902 12.2516C13.2902 13.0334 13.882 13.6556 14.6373 13.6556C14.9502 13.6556 15.2082 13.5595 15.4363 13.3752V13.5974ZM14.7338 13.1111C14.2893 13.1111 13.955 12.7425 13.955 12.2529C13.955 11.7634 14.29 11.3947 14.7338 11.3947C15.1776 11.3947 15.5126 11.7634 15.5126 12.2529C15.5132 12.7418 15.1783 13.1111 14.7338 13.1111ZM10.8228 13.3896C11.0464 13.5654 11.2966 13.6569 11.5984 13.6569C12.3537 13.6569 12.9455 13.0347 12.9455 12.2529C12.9455 11.4712 12.3537 10.849 11.5984 10.849C11.2855 10.849 11.0275 10.945 10.7994 11.1294V10.9084H10.1353V14.4184H10.8222V13.3896H10.8228ZM10.7231 12.2529C10.7231 11.7634 11.0581 11.3947 11.5019 11.3947C11.9457 11.3947 12.2807 11.7634 12.2807 12.2529C12.2807 12.7425 11.9457 13.1111 11.5019 13.1111C11.0581 13.1111 10.7231 12.7418 10.7231 12.2529Z" fill="black"/>
</g>
<defs>
<clipPath id="clip0_6552_317542">
<rect width="24" height="24" fill="white"/>
</clipPath>
</defs>
</svg>
