<svg width="24" height="24" viewBox="0 0 24 24" fill="none" xmlns="http://www.w3.org/2000/svg">
<path d="M0 8C0 3.58172 3.58172 0 8 0H16C20.4183 0 24 3.58172 24 8V16C24 20.4183 20.4183 24 16 24H8C3.58172 24 0 20.4183 0 16V8Z" fill="#FFE300"/>
<path d="M12 6.53674C8.68627 6.53674 6 8.6548 6 11.2675C6 12.9567 7.12304 14.4389 8.81238 15.2758C8.72048 15.5928 8.22179 17.3149 8.20194 17.4502C8.20194 17.4502 8.19 17.5518 8.25583 17.5906C8.32165 17.6294 8.39908 17.5992 8.39908 17.5992C8.58785 17.5729 10.5881 16.1678 10.9343 15.9239C11.2802 15.9728 11.6363 15.9983 12 15.9983C15.3137 15.9983 18 13.8803 18 11.2675C18 8.6548 15.3137 6.53674 12 6.53674Z" fill="black"/>
</svg>
