<svg width="32" height="32" viewBox="0 0 32 32" fill="none" xmlns="http://www.w3.org/2000/svg">
<rect x="0.5" y="0.5" width="31" height="31" rx="15.5" stroke="#6D7882"/>
<g clip-path="url(#clip0_14052_218212)">
<path fill-rule="evenodd" clip-rule="evenodd" d="M22.6672 7.83398C23.4955 7.83398 24.1669 8.50544 24.167 9.33382V19.3338C24.167 20.1622 23.4956 20.8337 22.6672 20.8337H17.0837V22.0007H21.0005C21.3687 22.0007 21.667 22.299 21.667 22.6672C21.667 23.0353 21.3687 23.3337 21.0005 23.3337H11.8338C11.4656 23.3337 11.1673 23.0353 11.1673 22.6672C11.1674 22.299 11.4657 22.0007 11.8338 22.0007H15.7507V20.8337H9.33382C8.5054 20.8337 7.83398 20.1622 7.83398 19.3338V9.33382C7.83416 8.50555 8.50551 7.834 9.33382 7.83398H22.6672ZM9.33382 9.16781C9.24189 9.16781 9.16717 9.24193 9.16699 9.33382V19.3338C9.16699 19.4259 9.24178 19.5006 9.33382 19.5007H22.6672C22.7592 19.5007 22.834 19.4259 22.834 19.3338V9.33382C22.8339 9.24182 22.7592 9.16699 22.6672 9.16699L9.33382 9.16781Z" fill="#33363D"/>
</g>
<defs>
<clipPath id="clip0_14052_218212">
<rect width="20" height="20" fill="white" transform="translate(6 6)"/>
</clipPath>
</defs>
</svg>
