<svg width="25" height="25" viewBox="0 0 25 25" fill="none" xmlns="http://www.w3.org/2000/svg">
<path fill-rule="evenodd" clip-rule="evenodd" d="M19.2064 12.3294C19.2026 12.547 19.1103 12.7536 18.9509 12.9017L13.6644 17.8102C13.3406 18.1108 12.8344 18.092 12.5338 17.7683C12.2332 17.4445 12.2519 16.9383 12.5757 16.6377L16.4066 13.0806L5.99522 12.8989C5.55346 12.8912 5.2016 12.5268 5.20931 12.0851C5.21702 11.6433 5.58139 11.2914 6.02315 11.2992L16.4346 11.4809L12.7301 7.79234C12.417 7.48059 12.4159 6.97406 12.7277 6.66097C13.0394 6.34788 13.5459 6.34679 13.859 6.65854L18.971 11.7485C19.1252 11.9021 19.2102 12.1118 19.2064 12.3294Z" fill="#33363D"/>
</svg>
