<svg width="24" height="24" viewBox="0 0 24 24" fill="none" xmlns="http://www.w3.org/2000/svg">
<g style="mix-blend-mode:multiply">
<path d="M2.69995 9.6752C2.69995 5.82301 5.82277 2.7002 9.67495 2.7002H14.325C18.1771 2.7002 21.3 5.82301 21.3 9.6752V14.3252C21.3 18.1774 18.1771 21.3002 14.325 21.3002H9.67495C5.82277 21.3002 2.69995 18.1774 2.69995 14.3252V9.6752Z" fill="#FFCC00"/>
<path d="M2.69995 9.6752C2.69995 5.82301 5.82277 2.7002 9.67495 2.7002H14.325C18.1771 2.7002 21.3 5.82301 21.3 9.6752V14.3252C21.3 18.1774 18.1771 21.3002 14.325 21.3002H9.67495C5.82277 21.3002 2.69995 18.1774 2.69995 14.3252V9.6752Z" fill="#FA967C"/>
<g style="mix-blend-mode:multiply">
<path d="M8.125 8.1856V15.875H10.5952V11.7344L13.4052 15.8598H15.875V8.125H13.3459V12.2805L10.4469 8.18583L8.125 8.1856Z" fill="#D63D4A"/>
</g>
</g>
</svg>
