<svg width="24" height="24" viewBox="0 0 24 24" fill="none" xmlns="http://www.w3.org/2000/svg">
<path d="M18.65 4.375C19.4059 4.375 20.1308 4.67527 20.6653 5.20975C21.1997 5.74422 21.5 6.46913 21.5 7.225V8.175H2.5V7.225C2.5 6.46913 2.80027 5.74422 3.33475 5.20975C3.86922 4.67527 4.59413 4.375 5.35 4.375H18.65Z" fill="#D63D4A"/>
<path d="M21.5 15.775V9.125H2.5V15.775C2.5 16.5309 2.80027 17.2558 3.33475 17.7903C3.86922 18.3247 4.59413 18.625 5.35 18.625H18.65C19.4059 18.625 20.1308 18.3247 20.6653 17.7903C21.1997 17.2558 21.5 16.5309 21.5 15.775Z" fill="#FA967C"/>
<circle cx="5.8249" cy="15.3" r="1.425" fill="white"/>
<circle cx="7.72505" cy="15.3" r="1.425" fill="white"/>
<g style="mix-blend-mode:multiply">
<circle cx="19" cy="17" r="4" fill="white"/>
<circle cx="19" cy="17" r="4" fill="#D63D4A"/>
</g>
<rect x="17.3999" y="15" width="3.15789" height="4" rx="0.421053" fill="#FA967C"/>
<rect x="17.3999" y="15" width="3.15789" height="4" rx="0.421053" fill="white"/>
<path d="M19.5051 17.9473C19.6214 17.9473 19.7161 18.0419 19.7161 18.1582V19H18.2424V18.1582C18.2424 18.0421 18.3363 17.9475 18.4524 17.9473H19.5051ZM19.6106 16.7891C19.7269 16.7891 19.8215 16.8837 19.8215 17C19.8214 17.1161 19.7268 17.21 19.6106 17.21H18.3479C18.2317 17.21 18.1371 17.1161 18.137 17C18.137 16.8837 18.2316 16.7891 18.3479 16.7891H19.6106ZM19.6106 15.9473C19.7269 15.9473 19.8215 16.0419 19.8215 16.1582C19.8213 16.2743 19.7267 16.3682 19.6106 16.3682H18.3479C18.2318 16.3682 18.1372 16.2743 18.137 16.1582C18.137 16.0419 18.2316 15.9473 18.3479 15.9473H19.6106Z" fill="#D63D4A"/>
</svg>
