<svg width="32" height="32" viewBox="0 0 32 32" fill="none" xmlns="http://www.w3.org/2000/svg">
<rect x="0.5" y="0.5" width="31" height="31" rx="15.5" stroke="#6D7882"/>
<g clip-path="url(#clip0_14052_218139)">
<path d="M16.8335 20.7507C17.2017 20.7507 17.5 21.049 17.5 21.4172C17.5 21.7853 17.2017 22.0837 16.8335 22.0837H15.1668C14.7986 22.0837 14.5003 21.7853 14.5003 21.4172C14.5003 21.049 14.7986 20.7507 15.1668 20.7507H16.8335Z" fill="#33363D"/>
<path fill-rule="evenodd" clip-rule="evenodd" d="M20.5835 7.83398C21.4119 7.83398 22.0833 8.5054 22.0833 9.33382V22.6672C22.0833 23.4956 21.4119 24.167 20.5835 24.167H11.4168C10.5884 24.167 9.91699 23.4956 9.91699 22.6672V9.33382C9.917 8.5054 10.5884 7.83399 11.4168 7.83398H20.5835ZM11.4168 9.16699C11.3248 9.167 11.25 9.24178 11.25 9.33382V22.6672C11.25 22.7592 11.3248 22.834 11.4168 22.834H20.5835C20.6755 22.834 20.7503 22.7592 20.7503 22.6672V9.33382C20.7503 9.24178 20.6755 9.16699 20.5835 9.16699H11.4168Z" fill="#33363D"/>
</g>
<defs>
<clipPath id="clip0_14052_218139">
<rect width="20" height="20" fill="white" transform="translate(6 6)"/>
</clipPath>
</defs>
</svg>
