<svg width="24" height="24" viewBox="0 0 24 24" fill="none" xmlns="http://www.w3.org/2000/svg">
<g style="mix-blend-mode:multiply">
<path d="M8 22.2343V15.7H16V22.2343L12 21.2343L8 22.2343Z" fill="#D63D4A"/>
<path d="M19.8996 10.0001C19.8996 14.3631 16.3627 17.9001 11.9996 17.9001C7.63656 17.9001 4.09961 14.3631 4.09961 10.0001C4.09961 5.63705 7.63656 2.1001 11.9996 2.1001C16.3627 2.1001 19.8996 5.63705 19.8996 10.0001Z" fill="#FA967C"/>
<path d="M14.7444 7.51563C15.0669 7.21423 15.5706 7.23171 15.8716 7.55469C16.1725 7.87769 16.155 8.38215 15.8326 8.6836L11.5541 12.6836C11.2472 12.9705 10.7709 12.9705 10.464 12.6836L8.75379 11.084C8.43129 10.7825 8.41379 10.2761 8.71479 9.95313C9.01561 9.63115 9.51965 9.61366 9.84193 9.91406L11.0081 11.0059L14.7444 7.51563Z" fill="white"/>
</g>
</svg>
