<svg width="32" height="33" viewBox="0 0 32 33" fill="none" xmlns="http://www.w3.org/2000/svg">
<g style="mix-blend-mode:multiply">
<path d="M6.48063 26.0751C6.48057 26.075 6.48047 26.075 6.48047 26.0751V28.6457C6.48047 29.1118 6.85809 29.4894 7.32415 29.4894H10.0362C10.5023 29.4894 10.8799 29.1118 10.8799 28.6457V26.0797C10.8799 25.8468 10.6909 25.6578 10.4581 25.6578H6.91058C6.91058 25.6578 6.90772 25.6578 6.90613 25.6578C6.67238 25.6572 6.48091 25.8413 6.48079 26.075C6.48079 26.0751 6.48069 26.0751 6.48063 26.0751Z" fill="#D63D4A"/>
<path d="M25.8504 26.0751C25.8505 26.075 25.8506 26.075 25.8506 26.0751V28.6457C25.8506 29.1118 25.473 29.4894 25.0069 29.4894H22.2949C21.8288 29.4894 21.4512 29.1118 21.4512 28.6457V26.0797C21.4512 25.8468 21.6401 25.6578 21.873 25.6578H25.4205C25.4205 25.6578 25.4234 25.6578 25.4249 25.6578C25.6587 25.6572 25.8502 25.8413 25.8503 26.075C25.8503 26.0751 25.8504 26.0751 25.8504 26.0751Z" fill="#D63D4A"/>
<path d="M3.57681 8.94629H4.75392C5.165 8.94629 5.4987 9.20273 5.4987 9.51862V13.7073C5.4987 14.0232 5.165 14.2796 4.75392 14.2796H3.57681C3.16573 14.2796 2.83203 14.0232 2.83203 13.7073V9.51862C2.83203 9.20273 3.16573 8.94629 3.57681 8.94629Z" fill="#D63D4A"/>
<path d="M27.5768 8.94629H28.7539C29.165 8.94629 29.4987 9.20273 29.4987 9.51862V13.7073C29.4987 14.0232 29.165 14.2796 28.7539 14.2796H27.5768C27.1657 14.2796 26.832 14.0232 26.832 13.7073V9.51862C26.832 9.20273 27.1657 8.94629 27.5768 8.94629Z" fill="#D63D4A"/>
<rect x="5.5" y="3.33325" width="21.3333" height="21.3333" rx="4" fill="#D63D4A"/>
<rect x="8.16602" y="6" width="16" height="8" rx="1.5" fill="white"/>
<path d="M24.4149 26.5217H7.91633C6.41443 26.5217 5.19727 25.3042 5.19727 23.8026V20.2103C5.19727 19.8676 5.31052 19.5355 5.51635 19.2616C9.57697 13.8524 22.7546 13.8524 26.8155 19.2616C27.021 19.5355 27.1346 19.8676 27.1346 20.2103V23.8026C27.1346 25.3045 25.9171 26.5217 24.4155 26.5217H24.4149Z" fill="#FA967C"/>
<rect x="12.166" y="18.6666" width="8" height="1.33333" rx="0.666667" fill="#D63D4A"/>
<rect x="12.166" y="21.3333" width="8" height="1.33333" rx="0.666667" fill="#D63D4A"/>
<path d="M8.34161 24.4582C9.04264 24.4582 9.61095 23.8899 9.61095 23.1889C9.61095 22.4879 9.04264 21.9196 8.34161 21.9196C7.64057 21.9196 7.07227 22.4879 7.07227 23.1889C7.07227 23.8899 7.64057 24.4582 8.34161 24.4582Z" fill="white"/>
<path d="M23.99 24.4582C24.6911 24.4582 25.2594 23.8899 25.2594 23.1889C25.2594 22.4879 24.6911 21.9196 23.99 21.9196C23.289 21.9196 22.7207 22.4879 22.7207 23.1889C22.7207 23.8899 23.289 24.4582 23.99 24.4582Z" fill="white"/>
</g>
</svg>
