<svg width="32" height="32" viewBox="0 0 32 32" fill="none" xmlns="http://www.w3.org/2000/svg">
<g style="mix-blend-mode:multiply">
<path d="M25.798 6.00015L6.20218 6C4.24961 6 2.66675 7.54328 2.66675 9.44702V22.5528C2.66675 24.4566 4.24961 25.9999 6.20218 25.9999L25.798 26C27.7505 26 29.3334 24.4567 29.3334 22.553V9.44717C29.3334 7.54343 27.7505 6.00015 25.798 6.00015Z" fill="#FA967C"/>
<g style="mix-blend-mode:multiply">
<path d="M6.11379 6.00012L25.8864 6.00012C27.7895 6.00012 29.3334 7.54401 29.3334 9.44714V11.2957H2.66675V9.44714C2.66675 7.54401 4.21065 6.00012 6.11379 6.00012Z" fill="#D63D4A"/>
</g>
<path d="M13.9236 8.67617C13.9236 9.23428 13.4632 9.68547 12.8937 9.68547C12.3242 9.68547 11.8638 9.23428 11.8638 8.67617C11.8638 8.11806 12.3264 7.66687 12.8937 7.66687C13.461 7.66687 13.9236 8.1202 13.9236 8.67617Z" fill="#FA967C"/>
<path d="M9.66199 9.68547C10.2308 9.68547 10.6919 9.23359 10.6919 8.67617C10.6919 8.11875 10.2308 7.66687 9.66199 7.66687C9.09319 7.66687 8.63208 8.11875 8.63208 8.67617C8.63208 9.23359 9.09319 9.68547 9.66199 9.68547Z" fill="#FA967C"/>
<path d="M6.43762 9.68541C7.00642 9.68541 7.46753 9.23353 7.46753 8.67611C7.46753 8.11869 7.00642 7.66681 6.43762 7.66681C5.86882 7.66681 5.40771 8.11869 5.40771 8.67611C5.40771 9.23353 5.86882 9.68541 6.43762 9.68541Z" fill="#FA967C"/>
<path d="M16.2573 13.4667C13.7034 13.4667 11.9185 15.3863 11.9185 18.1335C11.9185 20.8806 13.6931 22.5333 16.4399 22.5333C17.839 22.5333 18.7932 22.2493 19.3462 22.0118C19.5956 21.9041 19.7319 21.6421 19.6676 21.3875L19.4182 20.3934C19.3796 20.2367 19.269 20.1045 19.1198 20.0335C18.9707 19.96 18.7932 19.9551 18.6363 20.0188C18.1836 20.2024 17.6281 20.3714 16.6379 20.3714C15.9255 20.3714 14.781 20.1534 14.5135 18.8092H19.5236C19.8168 18.8092 20.0611 18.6011 20.092 18.3245L20.0997 18.2608C20.1177 18.1139 20.146 17.8911 20.146 17.6169C20.146 15.5528 18.9424 13.4716 16.2547 13.4716L16.2573 13.4667ZM16.1415 15.5528C16.5659 15.5528 16.8874 15.6654 17.124 15.8956C17.3658 16.1306 17.4841 16.4465 17.5407 16.7207H14.6215C14.8144 16.2041 15.2362 15.5528 16.139 15.5528H16.1415Z" fill="white"/>
</g>
</svg>
