<svg width="32" height="33" viewBox="0 0 32 33" fill="none" xmlns="http://www.w3.org/2000/svg">
<g style="mix-blend-mode:multiply">
<path d="M24.9808 4H7.35258C5.22486 4 3.5 5.72486 3.5 7.85258V25.4808C3.5 27.6085 5.22486 29.3333 7.35258 29.3333H24.9808C27.1085 29.3333 28.8333 27.6085 28.8333 25.4808V7.85258C28.8333 5.72486 27.1085 4 24.9808 4Z" fill="#FA967C"/>
<g style="mix-blend-mode:multiply">
<path d="M7.35258 4H24.9808C27.1078 4 28.8333 5.72553 28.8333 7.85258V11.4088H3.5V7.85258C3.5 5.72553 5.22554 4 7.35258 4Z" fill="#D63D4A"/>
</g>
<path d="M15.5315 7.86389C15.5315 8.48766 15.0272 8.99194 14.4034 8.99194C13.7797 8.99194 13.2754 8.48766 13.2754 7.86389C13.2754 7.24012 13.7821 6.73584 14.4034 6.73584C15.0248 6.73584 15.5315 7.24251 15.5315 7.86389Z" fill="#FA967C"/>
<path d="M10.8644 8.99194C11.4874 8.99194 11.9924 8.4869 11.9924 7.86389C11.9924 7.24089 11.4874 6.73584 10.8644 6.73584C10.2414 6.73584 9.73633 7.24089 9.73633 7.86389C9.73633 8.4869 10.2414 8.99194 10.8644 8.99194Z" fill="#FA967C"/>
<path d="M7.33313 8.99194C7.95613 8.99194 8.46118 8.4869 8.46118 7.86389C8.46118 7.24089 7.95613 6.73584 7.33313 6.73584C6.71012 6.73584 6.20508 7.24089 6.20508 7.86389C6.20508 8.4869 6.71012 8.99194 7.33313 8.99194Z" fill="#FA967C"/>
<path d="M16.3756 15.793C14.0024 15.793 12.3438 17.6667 12.3438 20.3482C12.3438 23.0297 13.9928 24.6429 16.5453 24.6429C17.8454 24.6429 18.7321 24.3657 19.2459 24.1339C19.4777 24.0287 19.6044 23.773 19.5446 23.5244L19.3128 22.5541C19.277 22.4011 19.1742 22.2721 19.0356 22.2028C18.897 22.1311 18.7321 22.1263 18.5863 22.1884C18.1656 22.3677 17.6494 22.5326 16.7293 22.5326C16.0673 22.5326 15.0037 22.3199 14.7552 21.0078H19.4108C19.6832 21.0078 19.9103 20.8047 19.939 20.5346L19.9461 20.4725C19.9629 20.3291 19.9892 20.1116 19.9892 19.8439C19.9892 17.8292 18.8707 15.7977 16.3732 15.7977L16.3756 15.793ZM16.268 17.8292C16.6624 17.8292 16.9611 17.9391 17.181 18.1638C17.4056 18.3932 17.5156 18.7015 17.5682 18.9692H14.8556C15.0348 18.4649 15.4268 17.8292 16.2656 17.8292H16.268Z" fill="white"/>
</g>
</svg>
