<svg width="32" height="33" viewBox="0 0 32 33" fill="none" xmlns="http://www.w3.org/2000/svg">
<path d="M0 10.5C0 4.97715 4.47715 0.5 10 0.5H22C27.5228 0.5 32 4.97715 32 10.5V22.5C32 28.0228 27.5228 32.5 22 32.5H10C4.47715 32.5 0 28.0228 0 22.5V10.5Z" fill="#F4F5F6"/>
<g style="mix-blend-mode:multiply">
<g style="mix-blend-mode:multiply">
<path d="M7.07511 8.66675H17.9842C18.2253 8.66675 18.4566 8.76254 18.627 8.93303C18.7975 9.10351 18.8933 9.33473 18.8933 9.57584V22.3031H7.07511C6.834 22.3031 6.60278 22.2073 6.4323 22.0368C6.26181 21.8664 6.16602 21.6351 6.16602 21.394V9.57584C6.16602 9.33473 6.26181 9.10351 6.4323 8.93303C6.60278 8.76254 6.834 8.66675 7.07511 8.66675Z" fill="#D63D4A"/>
</g>
<path d="M25.2562 22.3119H18.8926V11.4028H21.6199C21.8922 11.403 22.161 11.4644 22.4065 11.5824C22.652 11.7004 22.8678 11.872 23.038 12.0847L25.7653 15.4483C26.0239 15.7706 26.1649 16.1714 26.1653 16.5847V21.4029C26.1653 21.6439 26.0695 21.8751 25.899 22.0457C25.7286 22.2161 25.4973 22.3119 25.2562 22.3119Z" fill="#FA967C"/>
<g style="mix-blend-mode:multiply">
<path d="M10.2571 25.0303C11.5123 25.0303 12.5298 24.0128 12.5298 22.7576C12.5298 21.5024 11.5123 20.4849 10.2571 20.4849C9.00191 20.4849 7.98438 21.5024 7.98438 22.7576C7.98438 24.0128 9.00191 25.0303 10.2571 25.0303Z" fill="#D63D4A"/>
</g>
<path d="M10.2567 23.6666C10.7588 23.6666 11.1658 23.2596 11.1658 22.7575C11.1658 22.2554 10.7588 21.8484 10.2567 21.8484C9.75467 21.8484 9.34766 22.2554 9.34766 22.7575C9.34766 23.2596 9.75467 23.6666 10.2567 23.6666Z" fill="white"/>
<g style="mix-blend-mode:multiply">
<path d="M22.0755 25.0303C23.3306 25.0303 24.3482 24.0128 24.3482 22.7576C24.3482 21.5024 23.3306 20.4849 22.0755 20.4849C20.8203 20.4849 19.8027 21.5024 19.8027 22.7576C19.8027 24.0128 20.8203 25.0303 22.0755 25.0303Z" fill="#D63D4A"/>
</g>
<path d="M22.0751 23.6666C22.5772 23.6666 22.9842 23.2596 22.9842 22.7575C22.9842 22.2554 22.5772 21.8484 22.0751 21.8484C21.573 21.8484 21.166 22.2554 21.166 22.7575C21.166 23.2596 21.573 23.6666 22.0751 23.6666Z" fill="white"/>
<g style="mix-blend-mode:multiply">
<path d="M23.22 12.312H21.62C21.3789 12.312 21.1477 12.4078 20.9772 12.5783C20.8068 12.7488 20.7109 12.98 20.7109 13.2211V15.7211C20.7109 15.9622 20.8068 16.1934 20.9772 16.3639C21.1477 16.5344 21.3789 16.6302 21.62 16.6302H26.1655C26.1663 16.2054 26.0548 15.7937 25.7837 15.4666L23.22 12.312Z" fill="#D63D4A"/>
</g>
</g>
</svg>
