<svg width="32" height="33" viewBox="0 0 32 33" fill="none" xmlns="http://www.w3.org/2000/svg">
<g style="mix-blend-mode:multiply">
<path fill-rule="evenodd" clip-rule="evenodd" d="M10.0848 5.87197C8.80158 5.99908 7.77296 6.92812 7.42596 8.17004L6.18485 12.6119C6.16123 12.6964 6.14166 12.7806 6.12608 12.864L4.19497 12.5926C3.58257 12.5066 3.01634 12.9332 2.93028 13.5456C2.75814 14.7704 3.6115 15.9029 4.83631 16.075L4.92397 16.0873C5.00291 16.0984 5.06019 16.1676 5.06019 16.2473V16.8068V18.4868V23.5253C5.06019 24.453 5.81218 25.205 6.73982 25.205H7.85957C8.78721 25.205 9.5392 24.453 9.5392 23.5253V22.406C9.5392 22.0967 9.78987 21.8461 10.0991 21.8461H21.2987C21.6079 21.8461 21.8586 22.0967 21.8586 22.406V23.5253C21.8586 24.453 22.6106 25.205 23.5382 25.205H24.658C25.5856 25.205 26.3376 24.453 26.3376 23.5253V16.8068C26.3376 16.7784 26.3369 16.7502 26.3355 16.7221V16.2473C26.3355 16.1682 26.3923 16.0997 26.4706 16.0887L26.5584 16.0763C27.7832 15.9042 28.6366 14.7717 28.4645 13.5469C28.3784 12.9345 27.8122 12.5078 27.1998 12.5939L25.2741 12.8645C25.2585 12.7809 25.2389 12.6966 25.2152 12.6119L23.9741 8.17004C23.6271 6.92812 22.5985 5.99908 21.3153 5.87197C19.9821 5.73992 18.0616 5.6084 15.7 5.6084C13.3385 5.6084 11.418 5.73992 10.0848 5.87197Z" fill="white"/>
<g style="mix-blend-mode:multiply">
<path fill-rule="evenodd" clip-rule="evenodd" d="M4.19107 12.5906C3.57866 12.5046 3.01244 12.9312 2.92637 13.5436C2.75423 14.7685 3.60759 15.9009 4.8324 16.0731L4.92019 16.0854C4.99906 16.0965 5.05628 16.1656 5.05628 16.2452V16.8047V18.4847V23.5233C5.05628 24.4509 5.80828 25.2029 6.73591 25.2029H7.85567C8.7833 25.2029 9.53529 24.4509 9.53529 23.5233V22.4039C9.53529 22.0947 9.78596 21.844 10.0952 21.844H21.2947C21.6039 21.844 21.8546 22.0947 21.8546 22.4039V23.5233C21.8546 24.4509 22.6066 25.2029 23.5342 25.2029H24.654C25.5816 25.2029 26.3336 24.4509 26.3336 23.5233V16.8047C26.3336 16.7768 26.3329 16.749 26.3316 16.7214V16.2452C26.3316 16.1661 26.3884 16.0976 26.4667 16.0866L26.5545 16.0742C27.7793 15.9021 28.6327 14.7696 28.4606 13.5448C28.3745 12.9324 27.8083 12.5057 27.1959 12.5918L24.1148 13.0248C24.0319 13.0365 23.9477 13.0286 23.867 13.0064C23.5821 12.9279 23.2821 12.8859 22.9723 12.8859H8.41554C8.1065 12.8859 7.8072 12.9277 7.52298 13.0058C7.44239 13.028 7.35827 13.0358 7.2755 13.0241L4.19107 12.5906Z" fill="#FA967C"/>
</g>
<path d="M7.42172 8.16613C7.76873 6.92422 8.79734 5.99517 10.0806 5.86806C11.4137 5.73601 13.3343 5.60449 15.6958 5.60449C18.0573 5.60449 19.9779 5.73601 21.3111 5.86806C22.5943 5.99517 23.6229 6.92422 23.9699 8.16614L25.211 12.608C25.5554 13.8407 25.0403 14.9898 23.7785 15.2038C22.3235 15.4506 19.851 15.6823 15.6958 15.6823C11.5406 15.6823 9.06815 15.4506 7.61316 15.2038C6.35127 14.9898 5.83618 13.8407 6.18061 12.608L7.42172 8.16613Z" fill="#D63D4A"/>
<path d="M18.5488 22.4684C18.5488 25.4971 22.5567 27.7287 24.0597 27.7287C25.5627 27.7287 29.5706 25.4971 29.5706 22.4684C29.5706 20.8741 29.5706 19.4313 29.5706 18.4222C29.5706 17.5495 29.0058 16.7778 28.1742 16.5132L24.9711 15.494C24.3781 15.3054 23.7413 15.3054 23.1483 15.494L19.9452 16.5132C19.1136 16.7778 18.5488 17.5495 18.5488 18.4222C18.5488 19.4313 18.5488 20.8741 18.5488 22.4684Z" fill="#D63D4A"/>
<path fill-rule="evenodd" clip-rule="evenodd" d="M11.6963 8.69221C12.7033 7.68981 14.0938 7.06641 15.6257 7.06641C17.1576 7.06641 18.5482 7.68981 19.5551 8.69221C19.816 8.95197 19.817 9.37408 19.5572 9.63502C19.2975 9.89595 18.8754 9.89691 18.6144 9.63714C17.8458 8.87203 16.7891 8.39974 15.6257 8.39974C14.4623 8.39974 13.4056 8.87203 12.637 9.63714C12.3761 9.89691 11.954 9.89595 11.6942 9.63502C11.4344 9.37408 11.4354 8.95197 11.6963 8.69221Z" fill="white"/>
<path fill-rule="evenodd" clip-rule="evenodd" d="M15.6239 11.1649C14.9851 11.1649 14.4036 11.4247 13.9781 11.8471C13.7168 12.1065 13.2947 12.1049 13.0353 11.8436C12.7759 11.5823 12.7775 11.1602 13.0388 10.9008C13.701 10.2435 14.6151 9.83154 15.6239 9.83154C16.6313 9.83154 17.5507 10.2426 18.2107 10.9026C18.471 11.1629 18.471 11.585 18.2107 11.8454C17.9504 12.1057 17.5282 12.1057 17.2679 11.8454C16.8482 11.4257 16.264 11.1649 15.6239 11.1649Z" fill="white"/>
<path d="M15.626 14.3146C16.07 14.3146 16.4298 13.9547 16.4298 13.5108C16.4298 13.0669 16.07 12.707 15.626 12.707C15.1821 12.707 14.8223 13.0669 14.8223 13.5108C14.8223 13.9547 15.1821 14.3146 15.626 14.3146Z" fill="white"/>
<path fill-rule="evenodd" clip-rule="evenodd" d="M26.6894 19.5517C26.9386 19.8009 26.9386 20.2049 26.6894 20.4541L24.3688 22.7747C24.1196 23.0239 23.7156 23.0239 23.4664 22.7747L21.726 21.0343C21.4768 20.7851 21.4768 20.381 21.726 20.1318C21.9752 19.8826 22.3792 19.8826 22.6284 20.1318L23.9176 21.421L25.7869 19.5517C26.0361 19.3024 26.4402 19.3024 26.6894 19.5517Z" fill="white"/>
</g>
</svg>
