<svg width="32" height="33" viewBox="0 0 32 33" fill="none" xmlns="http://www.w3.org/2000/svg">
<g style="mix-blend-mode:multiply">
<path d="M15.9486 24.2287C20.5035 24.2287 24.196 20.7824 24.196 16.5311C24.196 12.2798 20.5035 8.8335 15.9486 8.8335C11.3937 8.8335 7.70117 12.2798 7.70117 16.5311C7.70117 20.7824 11.3937 24.2287 15.9486 24.2287Z" fill="#FA967C"/>
<path d="M15.9486 24.2287C20.5035 24.2287 24.196 20.7824 24.196 16.5311C24.196 12.2798 20.5035 8.8335 15.9486 8.8335C11.3937 8.8335 7.70117 12.2798 7.70117 16.5311C7.70117 20.7824 11.3937 24.2287 15.9486 24.2287Z" fill="#FA967C"/>
<path fill-rule="evenodd" clip-rule="evenodd" d="M5.84733 7.61419C8.47925 4.99412 12.1113 3.3667 16.1119 3.3667C20.1125 3.3667 23.7445 4.99412 26.3765 7.61419C26.794 8.02981 26.7955 8.70518 26.3799 9.12268C25.9643 9.54018 25.2889 9.5417 24.8714 9.12608C22.6208 6.88567 19.5229 5.50003 16.1119 5.50003C12.7009 5.50003 9.60296 6.88567 7.35241 9.12608C6.93491 9.5417 6.25954 9.54018 5.84392 9.12268C5.4283 8.70518 5.42983 8.02981 5.84733 7.61419Z" fill="#D63D4A"/>
<path fill-rule="evenodd" clip-rule="evenodd" d="M16.0987 10.7242C14.1293 10.7242 12.3392 11.5262 11.033 12.8228C10.6149 13.2378 9.9395 13.2353 9.52449 12.8172C9.10947 12.3991 9.11196 11.7237 9.53005 11.3087C11.2149 9.63622 13.5375 8.59082 16.0987 8.59082C18.6578 8.59082 20.9934 9.63474 22.6701 11.3115C23.0867 11.728 23.0867 12.4034 22.6701 12.82C22.2536 13.2365 21.5782 13.2365 21.1616 12.82C19.8693 11.5277 18.0702 10.7242 16.0987 10.7242Z" fill="#D63D4A"/>
<path fill-rule="evenodd" clip-rule="evenodd" d="M5.84392 24.2116C6.25954 23.7941 6.93491 23.7926 7.35241 24.2082C9.60296 26.4486 12.7009 27.8342 16.1119 27.8342C19.5229 27.8342 22.6208 26.4486 24.8714 24.2082C25.2889 23.7926 25.9643 23.7941 26.3799 24.2116C26.7955 24.6291 26.794 25.3045 26.3765 25.7201C23.7445 28.3401 20.1125 29.9676 16.1119 29.9676C12.1113 29.9676 8.47925 28.3401 5.84733 25.7201C5.42983 25.3045 5.4283 24.6291 5.84392 24.2116Z" fill="#D63D4A"/>
<path fill-rule="evenodd" clip-rule="evenodd" d="M9.52449 20.5164C9.9395 20.0983 10.6149 20.0958 11.033 20.5108C12.3392 21.8074 14.1293 22.6094 16.0987 22.6094C18.0702 22.6094 19.8693 21.8059 21.1616 20.5136C21.5782 20.097 22.2536 20.097 22.6701 20.5136C23.0867 20.9302 23.0867 21.6055 22.6701 22.0221C20.9934 23.6988 18.6578 24.7428 16.0987 24.7428C13.5375 24.7428 11.2149 23.6973 9.53005 22.0249C9.11196 21.6098 9.10947 20.9345 9.52449 20.5164Z" fill="#D63D4A"/>
<path d="M16.1127 18.8708C17.3334 18.8708 18.323 17.8812 18.323 16.6605C18.323 15.4398 17.3334 14.4502 16.1127 14.4502C14.8919 14.4502 13.9023 15.4398 13.9023 16.6605C13.9023 17.8812 14.8919 18.8708 16.1127 18.8708Z" fill="white"/>
</g>
</svg>
