<svg width="32" height="32" viewBox="0 0 32 32" fill="none" xmlns="http://www.w3.org/2000/svg">
<g style="mix-blend-mode:multiply">
<path fill-rule="evenodd" clip-rule="evenodd" d="M16.0025 3.33704C22.9975 3.33704 28.6689 9.00747 28.6692 16.0024C28.6692 17.1444 28.5172 18.2509 28.233 19.3032C28.2051 19.4064 28.1676 19.5044 28.1249 19.5988C28.1114 19.665 28.0977 19.7324 28.0767 19.7993C27.211 22.5577 25.4276 24.9102 23.0833 26.4972C22.7202 26.7429 22.286 26.8577 21.8476 26.8579H10.1392C9.70081 26.8579 9.26672 26.7428 8.90356 26.4972C6.55848 24.9102 4.77483 22.558 3.90877 19.7993C3.87815 19.7017 3.85605 19.6048 3.84106 19.5089C3.815 19.4424 3.79241 19.3738 3.77336 19.3032C3.48958 18.2509 3.33716 17.1443 3.33716 16.0024C3.33741 9.00763 9.00775 3.33729 16.0025 3.33704ZM23.8437 16.0024C23.8437 15.7557 23.5749 15.6105 23.3593 15.7303L20.8931 17.1001C20.7494 17.1799 20.6465 17.3158 20.5963 17.4725C19.973 19.4158 18.1516 20.8227 16.0012 20.8227C13.8514 20.8226 12.0298 19.4164 11.4062 17.4738C11.3559 17.3171 11.2531 17.1812 11.1093 17.1014L8.64315 15.7316C8.4291 15.6127 8.16268 15.7576 8.16268 16.0024C8.16274 16.4365 8.19878 16.8624 8.26685 17.2771C8.29731 17.4628 8.30751 17.6542 8.3033 17.8475C8.37373 17.9609 8.43272 18.0835 8.47127 18.2146C9.42708 21.4659 12.4327 23.8394 15.9934 23.8396C19.5541 23.8393 22.561 21.466 23.5168 18.2146C23.5592 18.0706 23.6213 17.9345 23.7017 17.8123C23.6998 17.6319 23.711 17.4533 23.7395 17.2797C23.8077 16.8643 23.8436 16.4372 23.8437 16.0024ZM16.0038 8.16125C12.9198 8.16125 10.2505 9.94177 8.96997 12.531C8.78624 12.9027 9.06969 13.317 9.48429 13.324L11.6236 13.3605C11.8308 13.364 12.0233 13.2588 12.1484 13.0935C13.029 11.9272 14.4271 11.1731 16.0012 11.173C17.5751 11.173 18.9722 11.9275 19.8528 13.0935C19.9778 13.2588 20.1703 13.364 20.3775 13.3605L22.5208 13.324C22.9354 13.317 23.2188 12.9028 23.0351 12.531C21.7549 9.94217 19.0874 8.16154 16.0038 8.16125Z" fill="white"/>
<path d="M7.21543 17.2057C7.81054 17.2057 8.30693 17.6436 8.47477 18.2146C9.43057 21.466 12.4362 23.8398 15.9971 23.8399C19.5576 23.8394 22.5637 21.4659 23.5194 18.2147C23.6873 17.6437 24.1837 17.2057 24.7788 17.2057H27.2758C27.9868 17.2057 28.5484 17.8199 28.408 18.5169C27.2414 24.3066 22.1279 28.6664 15.9945 28.6667C9.86085 28.6665 4.74751 24.3067 3.58098 18.5169C3.44056 17.8199 4.00218 17.2057 4.71314 17.2057H7.21543Z" fill="#D63D4A"/>
<g style="mix-blend-mode:multiply">
<path fill-rule="evenodd" clip-rule="evenodd" d="M16.0009 3.33331C22.9963 3.33361 28.6668 9.00518 28.6668 16.0007C28.6668 17.1423 28.5147 18.2481 28.231 19.3C27.9767 20.2431 27.0753 20.8278 26.0985 20.8281C24.506 20.8281 23.4801 18.8458 23.7382 17.2743C23.8065 16.8585 23.8422 16.4316 23.8422 15.9965C23.8422 15.7518 23.5769 15.608 23.3629 15.7266L20.8901 17.0972C20.7464 17.1771 20.6438 17.3132 20.5935 17.4697C20.2189 18.6393 19.4089 19.6117 18.3555 20.2025C18.0164 20.3927 17.8255 20.7913 17.9535 21.1584L18.4778 22.6612C18.6104 23.0416 19.0312 23.2416 19.3944 23.0675C19.527 23.0038 19.6568 22.9344 19.7852 22.8636C18.662 23.4854 17.3715 23.842 15.9966 23.8421C14.7368 23.842 13.548 23.5422 12.4935 23.0141C12.8529 23.1795 13.2671 22.9824 13.3988 22.605L13.926 21.0938C14.0515 20.7339 13.8702 20.3434 13.5422 20.1491C12.5365 19.5533 11.7656 18.6031 11.4026 17.4697C11.3524 17.3132 11.2497 17.1771 11.106 17.0972L8.63605 15.7266C8.42281 15.6087 8.1595 15.7527 8.1595 15.9965C8.1595 16.4312 8.19539 16.8575 8.26352 17.2729C8.52137 18.8449 7.49486 20.8281 5.90183 20.8281C4.92505 20.8278 4.02364 20.2431 3.76928 19.3C3.48562 18.2481 3.33354 17.1422 3.3335 16.0007C3.3335 9.00499 9.00518 3.33331 16.0009 3.33331ZM16.0009 8.15509C12.9159 8.15509 10.2466 9.93658 8.96641 12.527C8.78271 12.8988 9.06633 13.3129 9.48092 13.3199L11.6219 13.3564C11.8292 13.3599 12.0212 13.2547 12.1463 13.0893C13.0271 11.9242 14.4248 11.1719 15.9981 11.1719C17.5711 11.1719 18.9677 11.9245 19.8485 13.0893C19.9735 13.2547 20.1655 13.3599 20.3728 13.3564L22.5194 13.3199C22.934 13.3129 23.2176 12.8988 23.0339 12.527C21.7538 9.93686 19.0855 8.15527 16.0009 8.15509Z" fill="#FA967C"/>
<path d="M5.84139 23.5721C5.83142 23.5588 5.82037 23.5462 5.81046 23.5328C5.80704 23.5282 5.80389 23.5234 5.80062 23.5187C5.81392 23.5367 5.82799 23.5542 5.84139 23.5721Z" fill="#FA967C"/>
<path d="M26.1772 23.5328C26.1671 23.5464 26.155 23.5586 26.1449 23.5721C26.1583 23.5542 26.1723 23.5367 26.1857 23.5187C26.1825 23.5232 26.1805 23.5284 26.1772 23.5328Z" fill="#FA967C"/>
</g>
<path d="M13.6001 16.0125C13.6001 14.6801 14.6802 13.6 16.0126 13.6C17.345 13.6 18.4252 14.6801 18.4252 16.0125C18.4252 17.3449 17.345 18.4251 16.0126 18.4251C14.6802 18.4251 13.6001 17.3449 13.6001 16.0125Z" fill="white"/>
</g>
</svg>
