<svg width="32" height="33" viewBox="0 0 32 33" fill="none" xmlns="http://www.w3.org/2000/svg">
<g clip-path="url(#clip0_3917_596778)">
<path d="M6.10594 19.8471C6.5276 18.7265 7.49502 18 8.56544 18H23.7676C24.838 18 25.8054 18.7265 26.2271 19.8471L27.9473 24.4185C28.704 26.4296 27.4088 28.6667 25.4878 28.6667H6.84525C4.9242 28.6667 3.62901 26.4296 4.38574 24.4185L6.10594 19.8471Z" fill="#FA967C"/>
<g style="mix-blend-mode:multiply">
<path d="M16.229 4.66406C20.606 4.7292 24.1692 8.0109 24.1646 11.9785C24.1646 15.0172 21.9659 17.9865 19.8013 20.1787C19.3942 20.5911 18.9919 20.9736 18.604 21.3252C17.8949 21.9679 17.2364 22.5061 16.7202 22.9072C16.3913 23.1628 15.9329 23.1628 15.604 22.9072C15.0882 22.5064 14.4297 21.9693 13.7212 21.3271L13.7222 21.3252V21.3232C13.3302 20.9721 12.9332 20.5904 12.5269 20.1787C10.3623 17.9822 8.16455 15.0171 8.16455 11.9785C8.16472 8.01099 11.7272 4.72935 16.1089 4.66406H16.229ZM13.4995 15.2773H15.2075V12.4521L17.1753 15.2773H18.8062V9.99707H17.0972V12.8232L15.1313 9.99707H13.4995V15.2773Z" fill="#D63D4A"/>
</g>
</g>
<defs>
<clipPath id="clip0_3917_596778">
<rect width="32" height="32" fill="white" transform="translate(0 0.5)"/>
</clipPath>
</defs>
</svg>
