<svg width="32" height="33" viewBox="0 0 32 33" fill="none" xmlns="http://www.w3.org/2000/svg">
<path d="M11.7984 10.2383L9.181 17.567H7.49984C4.55432 17.567 2.1665 19.9549 2.1665 22.9004V25.0453C2.1665 27.2545 3.95737 29.0453 6.16651 29.0453H12.0784C13.101 29.0453 14.1021 28.7513 14.9624 28.1983L28.0101 19.8104C29.9165 18.5849 30.4249 16.0219 29.1307 14.1615L22.9269 5.24338C22.2806 4.31436 20.8127 4.56218 20.2853 5.56348C19.7066 6.6622 18.9878 7.4939 18.1085 8.00183C16.8365 8.73667 15.3189 8.88382 14.0549 8.83005C13.0766 8.78843 12.1278 9.31614 11.7984 10.2383Z" fill="#FA967C"/>
<mask id="mask0_3920_672262" style="mask-type:alpha" maskUnits="userSpaceOnUse" x="2" y="4" width="28" height="26">
<path d="M11.7984 10.2383L9.181 17.567H7.49984C4.55432 17.567 2.1665 19.9549 2.1665 22.9004V25.0453C2.1665 27.2545 3.95737 29.0453 6.16651 29.0453H12.0784C13.101 29.0453 14.1021 28.7513 14.9624 28.1983L28.0101 19.8104C29.9165 18.5849 30.4249 16.0219 29.1307 14.1615L22.9269 5.24338C22.2806 4.31436 20.8127 4.56218 20.2853 5.56348C19.7066 6.6622 18.9878 7.4939 18.1085 8.00183C16.8365 8.73667 15.3189 8.88382 14.0549 8.83005C13.0766 8.78843 12.1278 9.31614 11.7984 10.2383Z" fill="#FA967C"/>
</mask>
<g mask="url(#mask0_3920_672262)">
<path d="M11.9887 9.70535L9.18097 17.567H2.16648V25.0453C2.16648 27.2544 3.95734 29.0453 6.16648 29.0453H12.0783C13.101 29.0453 14.1021 28.7513 14.9624 28.1983L28.0101 19.8104C29.9165 18.5849 30.4249 16.0219 29.1307 14.1615L22.9268 5.24338C22.2805 4.31436 20.8127 4.56218 20.2853 5.56348C19.7066 6.6622 18.9878 7.4939 18.1085 8.00183C16.6403 8.85 14.845 8.91523 13.4899 8.79225C12.8398 8.73325 12.2083 9.09059 11.9887 9.70535Z" fill="#FA967C"/>
<path d="M12.1741 25.2192H2.16648L0.891113 30.3207L15.5578 29.683L31.4998 18.8424L29.5868 13.741L13.6919 24.7451C13.246 25.0538 12.7165 25.2192 12.1741 25.2192Z" fill="#D63D4A"/>
<path fill-rule="evenodd" clip-rule="evenodd" d="M5.69804 12.7209C5.69804 12.1574 6.15484 11.7006 6.71833 11.7006H13.0951C13.6586 11.7006 14.1154 12.1574 14.1154 12.7209C14.1154 13.2844 13.6586 13.7411 13.0951 13.7411H6.71833C6.15484 13.7411 5.69804 13.2844 5.69804 12.7209ZM3.95198 16.5465C3.95198 15.983 4.40878 15.5262 4.97227 15.5262H13.8998C14.4633 15.5262 14.9201 15.983 14.9201 16.5465C14.9201 17.11 14.4633 17.5668 13.8998 17.5668H4.97227C4.40878 17.5668 3.95198 17.11 3.95198 16.5465Z" fill="#D63D4A"/>
</g>
</svg>
