<svg width="32" height="33" viewBox="0 0 32 33" fill="none" xmlns="http://www.w3.org/2000/svg">
<g style="mix-blend-mode:multiply">
<path fill-rule="evenodd" clip-rule="evenodd" d="M10.7114 5.33325C10.2763 5.3334 9.84907 5.45778 9.47284 5.69378C9.09661 5.92977 8.78481 6.26901 8.56903 6.67711L4.15099 15.0295C3.93753 15.4326 3.82522 15.889 3.8252 16.3534V22.3501C3.82522 22.7638 3.91437 23.1719 4.08559 23.5419L5.4653 26.5229C5.67023 26.966 5.98533 27.3386 6.37528 27.599C6.76523 27.8595 7.21462 27.9974 7.67308 27.9975H8.76154C9.41614 27.9975 10.0439 27.7165 10.5068 27.2165C10.9697 26.7164 11.2297 26.0382 11.2297 25.3311H21.1024C21.1024 26.0382 21.3625 26.7164 21.8253 27.2165C22.2882 27.7165 22.916 27.9975 23.5706 27.9975H24.659C25.1175 27.9974 25.5669 27.8595 25.9569 27.599C26.3468 27.3386 26.6619 26.966 26.8668 26.5229L28.2465 23.5419C28.4181 23.1726 28.5069 22.7634 28.5069 22.3501V16.3534C28.5069 15.889 28.3946 15.4326 28.1811 15.0295L23.7631 6.67711C23.5473 6.26901 23.2355 5.92977 22.8593 5.69378C22.4831 5.45778 22.0558 5.3334 21.6207 5.33325H10.7114Z" fill="#FA967C"/>
<g style="mix-blend-mode:multiply">
<path d="M6.36888 27.6015C5.97893 27.3411 5.66383 26.9685 5.4589 26.5254L4.76904 25.0349H27.5503L26.8604 26.5254C26.6555 26.9685 26.3404 27.3411 25.9504 27.6015C25.5605 27.8619 25.1111 27.9999 24.6527 27.9999H23.5642C22.9096 27.9999 22.2818 27.719 21.8189 27.219C21.3561 26.7189 21.096 26.0407 21.096 25.3335H11.2233C11.2233 26.0407 10.9633 26.7189 10.5004 27.219C10.0375 27.719 9.40974 27.9999 8.75514 27.9999H7.66668C7.20822 27.9999 6.75883 27.8619 6.36888 27.6015Z" fill="#D63D4A"/>
</g>
<g style="mix-blend-mode:multiply">
<path d="M7.7564 13.6725L10.0235 8.57164C10.1599 8.26463 10.4644 8.06677 10.8003 8.06677H21.7864C22.1223 8.06677 22.4268 8.26463 22.5632 8.57164L24.8303 13.6725C25.0802 14.2347 24.6687 14.868 24.0534 14.868H8.53327C7.91806 14.868 7.50653 14.2347 7.7564 13.6725Z" fill="#D63D4A"/>
</g>
<circle cx="10.0592" cy="20.0681" r="1.7003" fill="white"/>
<circle cx="22.5284" cy="20.0681" r="1.7003" fill="white"/>
<path fill-rule="evenodd" clip-rule="evenodd" d="M12.3432 8.40012C13.3194 7.45182 14.6676 6.86206 16.1528 6.86206C17.638 6.86206 18.9862 7.45182 19.9625 8.40012C20.2155 8.64586 20.2164 9.04519 19.9645 9.29204C19.7127 9.53889 19.3035 9.5398 19.0505 9.29405C18.3053 8.57023 17.2808 8.12343 16.1528 8.12343C15.0249 8.12343 14.0004 8.57023 13.2552 9.29405C13.0022 9.5398 12.593 9.53889 12.3411 9.29204C12.0893 9.04519 12.0902 8.64586 12.3432 8.40012Z" fill="white"/>
<path fill-rule="evenodd" clip-rule="evenodd" d="M16.1509 10.7393C15.5316 10.7393 14.9679 10.9851 14.5553 11.3847C14.302 11.6301 13.8927 11.6286 13.6412 11.3814C13.3898 11.1342 13.3913 10.7349 13.6446 10.4895C14.2866 9.86764 15.1729 9.47791 16.1509 9.47791C17.1276 9.47791 18.0191 9.86676 18.6589 10.4911C18.9113 10.7374 18.9113 11.1367 18.6589 11.383C18.4065 11.6293 17.9973 11.6293 17.7448 11.383C17.3379 10.986 16.7716 10.7393 16.1509 10.7393Z" fill="white"/>
<path d="M16.1538 13.7193C16.5842 13.7193 16.9331 13.3788 16.9331 12.9589C16.9331 12.5389 16.5842 12.1985 16.1538 12.1985C15.7234 12.1985 15.3745 12.5389 15.3745 12.9589C15.3745 13.3788 15.7234 13.7193 16.1538 13.7193Z" fill="white"/>
</g>
</svg>
