<svg width="24" height="24" viewBox="0 0 24 24" fill="none" xmlns="http://www.w3.org/2000/svg">
<rect x="2" y="5" width="20" height="15" rx="2" fill="#F48771"/>
<g style="mix-blend-mode:multiply">
<path d="M17 7H15.4064V4.14996C15.4064 3.78226 15.0846 3.4826 14.6897 3.4826H9.31029C8.9154 3.4826 8.59359 3.78226 8.59359 4.14996V7H7V4.14996C7 2.96441 8.03569 2 9.30888 2H14.6883C15.9615 2 16.9972 2.96441 16.9972 4.14996V7H17Z" fill="#0085FF"/>
<path d="M17 7H15.4064V4.14996C15.4064 3.78226 15.0846 3.4826 14.6897 3.4826H9.31029C8.9154 3.4826 8.59359 3.78226 8.59359 4.14996V7H7V4.14996C7 2.96441 8.03569 2 9.30888 2H14.6883C15.9615 2 16.9972 2.96441 16.9972 4.14996V7H17Z" fill="url(#paint0_linear_3717_198193)"/>
</g>
<g style="mix-blend-mode:multiply">
<path d="M12.0147 17.8449C9.32613 17.8967 7.09689 15.7517 7.0451 13.0632C6.99331 10.3746 9.13828 8.14537 11.8268 8.09357C14.5154 8.04178 16.7446 10.1868 16.7964 12.8753C16.8482 15.5639 14.7032 17.7931 12.0147 17.8449Z" fill="white"/>
<path d="M12.0147 17.8449C9.32613 17.8967 7.09689 15.7517 7.0451 13.0632C6.99331 10.3746 9.13828 8.14537 11.8268 8.09357C14.5154 8.04178 16.7446 10.1868 16.7964 12.8753C16.8482 15.5639 14.7032 17.7931 12.0147 17.8449Z" fill="url(#paint1_linear_3717_198193)"/>
</g>
<path d="M13.9671 11.9567H12.9257V10.9154C12.9257 10.547 12.6268 10.248 12.2584 10.248H11.5869C11.2185 10.248 10.9196 10.547 10.9196 10.9154V11.9567H9.87824C9.50988 11.9567 9.21094 12.2556 9.21094 12.624V13.2955C9.21094 13.6639 9.50988 13.9628 9.87824 13.9628H10.9196V15.0042C10.9196 15.3725 11.2185 15.6715 11.5869 15.6715H12.2584C12.6268 15.6715 12.9257 15.3725 12.9257 15.0042V13.9628H13.9671C14.3354 13.9628 14.6344 13.6639 14.6344 13.2955V12.624C14.6344 12.2556 14.3354 11.9567 13.9671 11.9567Z" fill="white"/>
<defs>
<linearGradient id="paint0_linear_3717_198193" x1="9.45732" y1="1.47444" x2="13.3749" y2="8.80319" gradientUnits="userSpaceOnUse">
<stop stop-color="#EB7D00"/>
<stop offset="1" stop-color="#F8623C"/>
</linearGradient>
<linearGradient id="paint1_linear_3717_198193" x1="9.32763" y1="7.11637" x2="18.6609" y2="15.5153" gradientUnits="userSpaceOnUse">
<stop stop-color="#EB7D00"/>
<stop offset="1" stop-color="#F8623C"/>
</linearGradient>
</defs>
</svg>
