<svg width="32" height="33" viewBox="0 0 32 33" fill="none" xmlns="http://www.w3.org/2000/svg">
<g style="mix-blend-mode:multiply">
<path d="M25.9642 6.66677L6.36844 6.66663C4.41587 6.66663 2.83301 8.20991 2.83301 10.1136V23.2195C2.83301 25.1232 4.41587 26.6665 6.36844 26.6665L25.9642 26.6666C27.9168 26.6666 29.4997 25.1233 29.4997 23.2196V10.1138C29.4997 8.21006 27.9168 6.66677 25.9642 6.66677Z" fill="#FA967C"/>
<g style="mix-blend-mode:multiply">
<path d="M6.28005 6.66675L26.0526 6.66675C27.9558 6.66675 29.4997 8.21064 29.4997 10.1138V11.9623H2.83301V10.1138C2.83301 8.21064 4.37691 6.66675 6.28005 6.66675Z" fill="#D63D4A"/>
</g>
<path d="M14.0901 9.34292C14.0901 9.90103 13.6297 10.3522 13.0602 10.3522C12.4907 10.3522 12.0303 9.90103 12.0303 9.34292C12.0303 8.78481 12.4929 8.33362 13.0602 8.33362C13.6275 8.33362 14.0901 8.78695 14.0901 9.34292Z" fill="#FA967C"/>
<path d="M9.82873 10.3522C10.3975 10.3522 10.8586 9.90034 10.8586 9.34292C10.8586 8.7855 10.3975 8.33362 9.82873 8.33362C9.25993 8.33362 8.79883 8.7855 8.79883 9.34292C8.79883 9.90034 9.25993 10.3522 9.82873 10.3522Z" fill="#FA967C"/>
<path d="M6.60413 10.3521C7.17293 10.3521 7.63403 9.90022 7.63403 9.3428C7.63403 8.78538 7.17293 8.3335 6.60413 8.3335C6.03532 8.3335 5.57422 8.78538 5.57422 9.3428C5.57422 9.90022 6.03532 10.3521 6.60413 10.3521Z" fill="#FA967C"/>
<path d="M16.4238 14.1334C13.8699 14.1334 12.085 16.053 12.085 18.8002C12.085 21.5473 13.8596 23.2 16.6064 23.2C18.0055 23.2 18.9597 22.916 19.5127 22.6785C19.7621 22.5708 19.8984 22.3088 19.8341 22.0542L19.5847 21.0601C19.5461 20.9034 19.4355 20.7712 19.2863 20.7002C19.1372 20.6267 18.9597 20.6218 18.8028 20.6855C18.3502 20.8691 17.7946 21.038 16.8044 21.038C16.092 21.038 14.9475 20.8201 14.68 19.4759H19.6901C19.9833 19.4759 20.2277 19.2678 20.2585 18.9911L20.2662 18.9275C20.2842 18.7806 20.3125 18.5578 20.3125 18.2835C20.3125 16.2195 19.1089 14.1383 16.4212 14.1383L16.4238 14.1334ZM16.308 16.2195C16.7324 16.2195 17.0539 16.3321 17.2905 16.5623C17.5323 16.7973 17.6506 17.1132 17.7072 17.3874H14.788C14.9809 16.8708 15.4027 16.2195 16.3055 16.2195H16.308Z" fill="white"/>
</g>
</svg>
