<svg width="32" height="33" viewBox="0 0 32 33" fill="none" xmlns="http://www.w3.org/2000/svg">
<g style="mix-blend-mode:multiply">
<path fill-rule="evenodd" clip-rule="evenodd" d="M10.3862 5.33301C9.95116 5.33316 9.52387 5.45753 9.14764 5.69353C8.77142 5.92953 8.45962 6.26876 8.24383 6.67686L3.8258 15.0293C3.61233 15.4324 3.50003 15.8887 3.5 16.3531V22.3498C3.50003 22.7636 3.58917 23.1716 3.76039 23.5417L5.1401 26.5227C5.34503 26.9657 5.66013 27.3384 6.05009 27.5988C6.44004 27.8592 6.88943 27.9972 7.34788 27.9972H8.43635C9.09095 27.9972 9.71874 27.7163 10.1816 27.2162C10.6445 26.7162 10.9045 26.038 10.9045 25.3308H20.7772C20.7772 26.038 21.0373 26.7162 21.5001 27.2162C21.963 27.7163 22.5908 27.9972 23.2454 27.9972H24.3339C24.7923 27.9972 25.2417 27.8592 25.6317 27.5988C26.0216 27.3384 26.3367 26.9657 26.5416 26.5227L27.9213 23.5417C28.0929 23.1724 28.1817 22.7631 28.1817 22.3498V16.3531C28.1817 15.8887 28.0694 15.4324 27.8559 15.0293L23.4379 6.67686C23.2221 6.26876 22.9103 5.92953 22.5341 5.69353C22.1579 5.45753 21.7306 5.33316 21.2955 5.33301H10.3862Z" fill="#FA967C"/>
<g style="mix-blend-mode:multiply">
<path d="M6.04356 27.6013C5.65361 27.3408 5.33851 26.9682 5.13358 26.5252L4.44373 25.0347H27.225L26.5351 26.5252C26.3302 26.9682 26.0151 27.3408 25.6251 27.6013C25.2352 27.8617 24.7858 27.9997 24.3273 27.9997H23.2389C22.5843 27.9997 21.9565 27.7188 21.4936 27.2187C21.0307 26.7187 20.7707 26.0405 20.7707 25.3333H10.898C10.898 26.0405 10.638 26.7187 10.1751 27.2187C9.71222 27.7188 9.08443 27.9997 8.42983 27.9997H7.34136C6.88291 27.9997 6.43352 27.8617 6.04356 27.6013Z" fill="#D63D4A"/>
</g>
<g style="mix-blend-mode:multiply">
<path d="M7.43108 13.6722L9.69815 8.57128C9.8346 8.26426 10.1391 8.06641 10.475 8.06641H21.4611C21.797 8.06641 22.1015 8.26426 22.2379 8.57128L24.505 13.6722C24.7549 14.2344 24.3433 14.8676 23.7281 14.8676H8.20796C7.59274 14.8676 7.18122 14.2344 7.43108 13.6722Z" fill="#D63D4A"/>
</g>
<rect x="8.75574" y="16.666" width="14.1667" height="5.66667" rx="1.0625" fill="white"/>
<path d="M11.9427 18.4375C12.5296 18.4375 13.0052 18.9132 13.0052 19.5C13.0051 20.0867 12.5294 20.5625 11.9427 20.5625C11.3563 20.5622 10.8804 20.0865 10.8802 19.5C10.8802 18.9134 11.3562 18.4378 11.9427 18.4375ZM15.8392 18.4375C16.426 18.4376 16.9017 18.9132 16.9017 19.5C16.9016 20.0866 16.4259 20.5624 15.8392 20.5625C15.2525 20.5625 14.7769 20.0867 14.7767 19.5C14.7767 18.9132 15.2524 18.4375 15.8392 18.4375ZM19.7347 18.4375C20.3215 18.4375 20.7972 18.9132 20.7972 19.5C20.7971 20.0867 20.3214 20.5625 19.7347 20.5625C19.1481 20.5624 18.6724 20.0866 18.6722 19.5C18.6722 18.9133 19.148 18.4376 19.7347 18.4375Z" fill="#D63D4A"/>
<g style="mix-blend-mode:multiply">
<path d="M23.3662 4L24.8333 6.66667L27.2342 6.28299L26.1666 8.66667L28.8333 10L26.1666 11.3333V14.6667L22.8333 13.3333L20.5225 14.8583L20.8333 11.3333L18.1666 10.5201L20.5225 8.52395L19.8201 6.28299L22.1666 6.66667L23.3662 4Z" fill="#D63D4A"/>
</g>
<path d="M23.5 11.0961C23.0663 11.0961 22.7148 11.4477 22.7148 11.8813C22.7148 12.315 23.0663 12.6665 23.5 12.6665C23.9336 12.6665 24.2852 12.315 24.2852 11.8813C24.2852 11.4477 23.9336 11.0961 23.5 11.0961Z" fill="white"/>
<path d="M23.9902 10.4483C24.0444 10.4483 24.0883 10.4043 24.0883 10.3501L24.0883 9.6631L24.0884 8.11835L24.0884 7.43132C24.0884 7.37711 24.0444 7.33317 23.9902 7.33317L23.0087 7.33317C22.9545 7.33317 22.9106 7.37711 22.9106 7.43132L22.9106 8.11835L22.9106 10.3501C22.9106 10.4043 22.9545 10.4483 23.0087 10.4483L23.9902 10.4483Z" fill="white"/>
</g>
</svg>
