<svg width="32" height="32" viewBox="0 0 32 32" fill="none" xmlns="http://www.w3.org/2000/svg">
<rect x="6.40039" y="3.73242" width="19.2" height="24.5333" rx="1" fill="#D9D9D9"/>
<rect x="6.40039" y="3.73242" width="19.2" height="24.5333" rx="1" fill="#FA967C"/>
<path fill-rule="evenodd" clip-rule="evenodd" d="M9.59961 8.00026C9.59961 7.41116 10.0772 6.93359 10.6663 6.93359H17.3329C17.922 6.93359 18.3996 7.41116 18.3996 8.00026C18.3996 8.58936 17.922 9.06693 17.3329 9.06693H10.6663C10.0772 9.06693 9.59961 8.58936 9.59961 8.00026ZM9.59961 12.5335C9.59961 11.9444 10.0772 11.4668 10.6663 11.4668H19.9996C20.5887 11.4668 21.0663 11.9444 21.0663 12.5335C21.0663 13.1226 20.5887 13.6001 19.9996 13.6001H10.6663C10.0772 13.6001 9.59961 13.1226 9.59961 12.5335Z" fill="#D63D4A"/>
<g style="mix-blend-mode:multiply">
<path fill-rule="evenodd" clip-rule="evenodd" d="M19.246 21.912C19.6626 21.4955 20.3379 21.4955 20.7545 21.912L23.4212 24.5787C23.8377 24.9953 23.8377 25.6706 23.4212 26.0872C23.0046 26.5038 22.3292 26.5038 21.9127 26.0872L19.246 23.4205C18.8295 23.004 18.8295 22.3286 19.246 21.912Z" fill="black"/>
<path fill-rule="evenodd" clip-rule="evenodd" d="M19.246 21.912C19.6626 21.4955 20.3379 21.4955 20.7545 21.912L23.4212 24.5787C23.8377 24.9953 23.8377 25.6706 23.4212 26.0872C23.0046 26.5038 22.3292 26.5038 21.9127 26.0872L19.246 23.4205C18.8295 23.004 18.8295 22.3286 19.246 21.912Z" fill="#D63D4A"/>
</g>
<g style="mix-blend-mode:multiply">
<circle cx="18" cy="21.334" r="4" fill="#D63D4A"/>
</g>
</svg>
