<svg width="40" height="40" viewBox="0 0 40 40" fill="none" xmlns="http://www.w3.org/2000/svg">
<path d="M33.332 26.9043C34.6109 26.9043 35.6464 27.9701 35.6465 29.2855C35.6465 30.601 34.611 31.6667 33.332 31.6667H5.64648C4.36772 31.6665 3.33203 30.6008 3.33203 29.2855C3.33215 27.9702 4.36779 26.9045 5.64648 26.9043H33.332Z" fill="#FA967C"/>
<path d="M21.8542 5.8335C22.8782 5.8337 23.7061 6.68456 23.7064 7.73779V9.16683H23.7015V20.5161C23.7015 21.1512 24.2171 21.6668 24.8522 21.6668C25.4103 21.6667 25.8741 21.2683 25.9785 20.7407C25.9856 20.7347 25.9943 20.7306 26.0013 20.7244V8.3335C26.0013 8.3335 26.3857 8.50644 26.8883 8.74854C27.5333 9.02362 28.1487 9.35025 28.7308 9.72347C28.9106 9.83586 29.0793 9.95155 29.2337 10.0636C32.6294 12.4793 34.7699 16.5324 34.8164 21.0711V24.8813H5.1875V21.0711C5.18763 16.8323 7.02755 13.0578 10.002 10.617V10.5828C10.0039 10.5707 10.0596 10.379 11.6686 9.45003C13.3352 8.48781 14.0026 8.3335 14.0026 8.3335V20.7244C14.0093 20.7303 14.017 20.735 14.0238 20.7407C14.128 21.2684 14.5935 21.6667 15.1517 21.6668C15.7868 21.6668 16.3024 21.1512 16.3024 20.5161V9.16683H16.2975V7.73779C16.2978 6.68456 17.1258 5.8337 18.1497 5.8335H21.8542Z" fill="#FA967C"/>
<g clip-path="url(#clip0_14664_58009)">
<g style="mix-blend-mode:multiply">
<circle cx="30.3307" cy="26.6667" r="6.66667" fill="#D63D4A"/>
</g>
<path d="M32.9228 24.1157C33.2232 23.9276 33.6243 23.9696 33.8782 24.2361C34.132 24.5029 34.1541 24.9057 33.9515 25.1964L33.8522 25.3136L29.8467 29.1238C29.6999 29.2632 29.5037 29.3393 29.3014 29.3338C29.0989 29.3283 28.9066 29.2419 28.7676 29.0945L26.1048 26.2707L26.012 26.1486C25.8255 25.8473 25.8696 25.4474 26.1374 25.1948C26.4053 24.9421 26.8077 24.9209 27.0976 25.1248L27.2148 25.2257L29.3502 27.4914L32.8008 24.2101L32.9228 24.1157Z" fill="white"/>
</g>
<defs>
<clipPath id="clip0_14664_58009">
<path d="M23.332 26.6667C23.332 22.9848 26.3168 20 29.9987 20C33.6806 20 36.6654 22.9848 36.6654 26.6667C36.6654 30.3486 33.6806 33.3333 29.9987 33.3333C26.3168 33.3333 23.332 30.3486 23.332 26.6667Z" fill="white"/>
</clipPath>
</defs>
</svg>
