<svg width="24" height="24" viewBox="0 0 24 24" fill="none" xmlns="http://www.w3.org/2000/svg">
<g style="mix-blend-mode:multiply">
<path d="M20 14.001H4C3.44772 14.001 3 14.4487 3 15.001V21.001C3 21.5533 3.44772 22.001 4 22.001H20C20.5523 22.001 21 21.5533 21 21.001V15.001C21 14.4487 20.5523 14.001 20 14.001Z" fill="#FA967C"/>
<path d="M18 21.001L18 11.001C18 10.4487 17.5523 10.001 17 10.001L7 10.001C6.44772 10.001 6 10.4487 6 11.001L6 21.001C6 21.5533 6.44772 22.001 7 22.001L17 22.001C17.5523 22.001 18 21.5533 18 21.001Z" fill="#D63D4A"/>
<path fill-rule="evenodd" clip-rule="evenodd" d="M12 2.1748C12.2761 2.1748 12.5 2.39866 12.5 2.6748V6.1475C12.5 6.42364 12.2761 6.6475 12 6.6475C11.7239 6.6475 11.5 6.42364 11.5 6.1475V2.6748C11.5 2.39866 11.7239 2.1748 12 2.1748Z" fill="#FA967C"/>
<path d="M12.2126 4.9305C12.0132 5.00488 11.8008 4.85741 11.8008 4.64457V2.53982C11.8008 2.32698 12.0132 2.17951 12.2126 2.25389L15.0342 3.30626C15.2989 3.40499 15.2989 3.7794 15.0342 3.87812L12.2126 4.9305Z" fill="#FA967C"/>
<path d="M11.498 5.40449C11.7909 5.16856 12.2087 5.16856 12.5016 5.40449L18.8932 10.5523C19.4811 11.0258 19.1463 11.9753 18.3914 11.9753H5.60822C4.85332 11.9753 4.51849 11.0258 5.10642 10.5523L11.498 5.40449Z" fill="#D63D4A"/>
<path d="M12.0002 13.1602C12.7241 13.1602 13.3109 12.5413 13.3109 11.7778C13.3109 11.0144 12.7241 10.3955 12.0002 10.3955C11.2763 10.3955 10.6895 11.0144 10.6895 11.7778C10.6895 12.5413 11.2763 13.1602 12.0002 13.1602Z" fill="white"/>
<path d="M10 17.501C10 17.2248 10.2239 17.001 10.5 17.001H13.5C13.7761 17.001 14 17.2248 14 17.501V22.001H10V17.501Z" fill="white"/>
</g>
</svg>
