<svg width="32" height="32" viewBox="0 0 32 32" fill="none" xmlns="http://www.w3.org/2000/svg">
<g style="mix-blend-mode:multiply">
<path d="M6.31534 25.4084C6.31529 25.4084 6.31519 25.4084 6.31519 25.4085V27.9791C6.31519 28.4452 6.69281 28.8228 7.15887 28.8228H9.87093C10.337 28.8228 10.7146 28.4452 10.7146 27.9791V25.4131C10.7146 25.1802 10.5256 24.9912 10.2928 24.9912H6.7453C6.7453 24.9912 6.74244 24.9912 6.74084 24.9912C6.50709 24.9906 6.31563 25.1747 6.3155 25.4084C6.3155 25.4085 6.3154 25.4085 6.31534 25.4084Z" fill="#D63D4A"/>
<path d="M25.6847 25.4084C25.6847 25.4084 25.6848 25.4084 25.6848 25.4085V27.9791C25.6848 28.4452 25.3072 28.8228 24.8411 28.8228H22.1291C21.663 28.8228 21.2854 28.4452 21.2854 27.9791V25.4131C21.2854 25.1802 21.4744 24.9912 21.7072 24.9912H25.2547C25.2547 24.9912 25.2576 24.9912 25.2592 24.9912C25.4929 24.9906 25.6844 25.1747 25.6845 25.4084C25.6845 25.4085 25.6846 25.4085 25.6847 25.4084Z" fill="#D63D4A"/>
<path d="M3.41152 8.2796H4.58864C4.99971 8.2796 5.33341 8.53604 5.33341 8.85194V13.0406C5.33341 13.3565 4.99971 13.6129 4.58864 13.6129H3.41152C3.00045 13.6129 2.66675 13.3565 2.66675 13.0406V8.85194C2.66675 8.53604 3.00045 8.2796 3.41152 8.2796Z" fill="#D63D4A"/>
<path d="M27.4115 8.2796H28.5886C28.9997 8.2796 29.3334 8.53604 29.3334 8.85194V13.0406C29.3334 13.3565 28.9997 13.6129 28.5886 13.6129H27.4115C27.0004 13.6129 26.6667 13.3565 26.6667 13.0406V8.85194C26.6667 8.53604 27.0004 8.2796 27.4115 8.2796Z" fill="#D63D4A"/>
<rect x="5.33325" y="2.66669" width="21.3333" height="21.3333" rx="4" fill="#D63D4A"/>
<rect x="8" y="5.33331" width="16" height="8" rx="1.5" fill="white"/>
<path d="M24.2494 25.855H7.7508C6.24891 25.855 5.03174 24.6375 5.03174 23.136V19.5436C5.03174 19.201 5.14499 18.8689 5.35082 18.595C9.41144 13.1858 22.5891 13.1858 26.65 18.595C26.8555 18.8689 26.9691 19.201 26.9691 19.5436V23.136C26.9691 24.6379 25.7516 25.855 24.25 25.855H24.2494Z" fill="#FA967C"/>
<rect x="12" y="18" width="8" height="1.33333" rx="0.666667" fill="#D63D4A"/>
<rect x="12" y="20.6667" width="8" height="1.33333" rx="0.666667" fill="#D63D4A"/>
<path d="M8.17584 23.7916C8.87687 23.7916 9.44518 23.2233 9.44518 22.5223C9.44518 21.8212 8.87687 21.2529 8.17584 21.2529C7.4748 21.2529 6.90649 21.8212 6.90649 22.5223C6.90649 23.2233 7.4748 23.7916 8.17584 23.7916Z" fill="white"/>
<path d="M23.8243 23.7916C24.5253 23.7916 25.0936 23.2233 25.0936 22.5223C25.0936 21.8212 24.5253 21.2529 23.8243 21.2529C23.1232 21.2529 22.5549 21.8212 22.5549 22.5223C22.5549 23.2233 23.1232 23.7916 23.8243 23.7916Z" fill="white"/>
</g>
</svg>
