<svg width="32" height="33" viewBox="0 0 32 33" fill="none" xmlns="http://www.w3.org/2000/svg">
<g style="mix-blend-mode:multiply">
<path d="M16.1689 4.67041C23.5315 4.67041 29.5008 10.6389 29.501 18.0015C29.501 19.3516 29.2994 20.6552 28.9258 21.8833C28.9068 21.9456 28.882 22.0048 28.8564 22.063C27.9193 24.9945 25.9988 27.4857 23.4785 29.144C23.1893 29.3343 22.8472 29.4262 22.501 29.4263H9.82031C9.47399 29.4263 9.13209 29.3344 8.84277 29.144C6.11365 27.3484 4.08409 24.5772 3.24902 21.3267C3.23312 21.2647 3.22137 21.2031 3.21289 21.1421C2.96923 20.1349 2.83789 19.0834 2.83789 18.0015C2.83804 10.6391 8.80657 4.67062 16.1689 4.67041ZM24.4219 17.9995C24.4219 17.7413 24.1408 17.5891 23.915 17.7144L21.2578 19.189C21.1444 19.252 21.0625 19.3589 21.0244 19.4829C20.3885 21.5619 18.4551 23.0746 16.168 23.0747C13.8814 23.0747 11.948 21.563 11.3115 19.4849C11.2735 19.3608 11.1916 19.2539 11.0781 19.1909L8.41992 17.7153C8.19506 17.5907 7.91603 17.7424 7.91602 17.9995C7.91602 18.3111 7.93305 18.6188 7.9668 18.9214C7.99383 19.1638 7.99398 19.4146 7.97363 19.6675C8.06363 19.7841 8.13359 19.9187 8.17188 20.0669C8.78871 22.4558 10.4483 24.4249 12.6367 25.4604C12.8644 25.5681 13.1153 25.6157 13.3672 25.6157H18.957C19.2088 25.6157 19.4599 25.5681 19.6875 25.4604C21.8757 24.4249 23.5346 22.4557 24.1514 20.0669C24.1914 19.9117 24.2649 19.7701 24.3613 19.6499C24.3424 19.4026 24.3447 19.1575 24.3711 18.9204C24.4048 18.6181 24.4219 18.3108 24.4219 17.9995ZM16.1689 9.74756C12.8436 9.7477 9.97682 11.7146 8.66992 14.5483C8.53304 14.8456 8.75673 15.1718 9.08398 15.1772L11.6494 15.2202C11.813 15.2228 11.9652 15.1405 12.0615 15.0083C12.9849 13.7412 14.48 12.9175 16.168 12.9175C17.8557 12.9175 19.3501 13.7413 20.2734 15.0083C20.3698 15.1405 20.522 15.2229 20.6855 15.2202L23.2529 15.1772C23.5802 15.1718 23.8039 14.8456 23.667 14.5483C22.3602 11.7146 19.4943 9.74756 16.1689 9.74756Z" fill="white"/>
<path d="M7.19139 19.2676C7.66116 19.2676 8.05486 19.6122 8.1723 20.067C8.78914 22.4559 10.4483 24.4254 12.6367 25.4609C12.8644 25.5686 13.1153 25.6162 13.3672 25.6162H18.957C19.2089 25.6162 19.4598 25.5687 19.6875 25.4609C21.8759 24.4254 23.5351 22.4559 24.1519 20.067C24.2693 19.6122 24.663 19.2676 25.1328 19.2676H27.3389C28.4613 19.2676 29.3515 20.24 29.0723 21.3271C28.2372 24.5777 26.2076 27.3489 23.4785 29.1445C23.1892 29.3349 22.8473 29.4267 22.501 29.4268H9.8203C9.47398 29.4267 9.13208 29.3349 8.84276 29.1445C6.11362 27.3489 4.08409 24.5777 3.24901 21.3271C2.96972 20.24 3.85994 19.2676 4.98241 19.2676H7.19139Z" fill="#D63D4A"/>
<g style="mix-blend-mode:multiply">
<path d="M16.165 4.6665C23.5276 4.6665 29.497 10.635 29.4971 17.9976C29.4971 19.3477 29.2955 20.6513 28.9219 21.8794C28.6973 22.617 27.9899 23.0786 27.2188 23.0786C25.3697 23.0786 24.1624 20.7542 24.3672 18.9165C24.401 18.6136 24.418 18.3056 24.418 17.9937C24.418 17.7364 24.1377 17.5846 23.9127 17.7094L21.2541 19.1849C21.1405 19.248 21.0586 19.3552 21.0206 19.4795C20.3853 21.5594 18.4518 23.0727 16.1641 23.0728C13.8765 23.0728 11.9421 21.56 11.3065 19.4804C11.2685 19.3561 11.1867 19.249 11.0731 19.1859L8.41443 17.7099C8.18996 17.5853 7.91212 17.7369 7.91211 17.9937C7.91211 18.3053 7.92912 18.6129 7.96289 18.9155C8.16814 20.7534 6.9616 23.0786 5.1123 23.0786C4.3412 23.0786 3.63376 22.617 3.40918 21.8794C3.03558 20.6513 2.83398 19.3477 2.83398 17.9976C2.8341 10.6351 8.80264 4.66672 16.165 4.6665ZM16.165 9.74072C12.8388 9.74089 9.97142 11.7091 8.665 14.5444C8.52802 14.8417 8.75157 15.1683 9.07885 15.1738L11.6463 15.2168C11.8099 15.2195 11.9621 15.1371 12.0586 15.0048C12.9821 13.7385 14.4767 12.9155 16.1641 12.9155C17.8512 12.9156 19.3452 13.7387 20.2686 15.0049C20.365 15.1371 20.5172 15.2195 20.6808 15.2168L23.2502 15.1738C23.5775 15.1683 23.8011 14.8416 23.6641 14.5444C22.3578 11.7091 19.4914 9.74072 16.165 9.74072Z" fill="#FA967C"/>
</g>
<rect x="13.623" y="15.4585" width="5.07857" height="5.07857" rx="2.53929" fill="white"/>
</g>
</svg>
