<svg width="32" height="33" viewBox="0 0 32 33" fill="none" xmlns="http://www.w3.org/2000/svg">
<g style="mix-blend-mode:multiply">
<path d="M16.002 4.00378C22.9971 4.00378 28.668 9.67465 28.668 16.6698C28.6679 17.9525 28.4768 19.1906 28.1221 20.3573C28.1042 20.416 28.0817 20.4723 28.0576 20.5272C27.1669 23.3134 25.3401 25.6809 22.9443 27.2567C22.6697 27.4372 22.3453 27.5242 22.0166 27.5243H9.97266C9.64375 27.5243 9.31876 27.4374 9.04395 27.2567C6.45024 25.5508 4.52104 22.9177 3.72754 19.829C3.71376 19.7753 3.70419 19.7218 3.69629 19.6688C3.46256 18.7073 3.33693 17.7032 3.33691 16.6698C3.33691 9.67477 9.00697 4.00397 16.002 4.00378ZM8.72559 16.3524C8.47379 16.213 8.16211 16.3809 8.16211 16.6688C8.16214 16.9642 8.17901 17.2561 8.21094 17.5428C8.2367 17.7745 8.23751 18.0141 8.21777 18.2557C8.30186 18.3658 8.36736 18.4925 8.40332 18.6317C9.27558 22.0106 12.3438 24.5065 15.9951 24.5067C19.6466 24.5067 22.7156 22.0107 23.5879 18.6317C23.6256 18.4856 23.6948 18.3527 23.7852 18.2391C23.767 18.0035 23.7698 17.7698 23.7949 17.5438C23.8269 17.2567 23.8437 16.9645 23.8438 16.6688C23.8438 16.4651 23.6235 16.3434 23.4453 16.4423L20.7998 17.911C20.6953 17.9691 20.6186 18.067 20.5811 18.1805C19.9453 20.1023 18.1359 21.4891 16.001 21.4891C13.7922 21.4891 11.9309 20.0049 11.3584 17.9794C11.3239 17.8571 11.2448 17.751 11.1338 17.6893L8.72559 16.3524ZM16.0029 8.828C12.8448 8.828 10.1223 10.695 8.87988 13.3856C8.74948 13.6681 8.9614 13.979 9.27246 13.9843L11.709 14.0253C11.8642 14.0279 12.009 13.9494 12.1006 13.8241C12.978 12.6213 14.3982 11.8388 16.001 11.8387C17.6059 11.8387 19.0272 12.6234 19.9043 13.829C19.9958 13.9548 20.1403 14.0337 20.2959 14.0311L22.7344 13.9901C23.0452 13.9849 23.2577 13.6748 23.1279 13.3925C21.8869 10.6987 19.1632 8.82822 16.0029 8.828Z" fill="white"/>
<path d="M7.4739 17.8721C7.92025 17.8721 8.29434 18.1996 8.40592 18.6318C9.27827 22.0106 12.3463 24.5068 15.9977 24.5068C19.6489 24.5066 22.7179 22.0106 23.5904 18.6318C23.702 18.1996 24.0761 17.8721 24.5224 17.8721H27.6101C28.1433 17.8721 28.5636 18.3324 28.472 18.8577C27.4348 24.8091 22.244 29.3338 15.9957 29.334C9.74745 29.3339 4.55659 24.8091 3.51942 18.8577C3.42787 18.3324 3.84815 17.8721 4.38136 17.8721H7.4739Z" fill="#D63D4A"/>
<g style="mix-blend-mode:multiply">
<path d="M15.999 4C22.9942 4 28.665 9.67087 28.665 16.666C28.665 17.9487 28.4739 19.1868 28.1191 20.3535C27.906 21.0545 27.2337 21.4932 26.501 21.4932C24.7442 21.4932 23.5971 19.285 23.792 17.5391C23.8241 17.2512 23.8408 16.9585 23.8408 16.6621C23.8408 16.4602 23.6228 16.3395 23.4462 16.4375L20.7973 17.9073C20.6926 17.9654 20.6162 18.063 20.5786 18.1768C19.9434 20.0994 18.1336 21.4872 15.998 21.4873C13.7885 21.4873 11.9267 20.0019 11.3548 17.9753C11.3203 17.853 11.2414 17.7471 11.1303 17.6854L8.72049 16.3474C8.4699 16.2082 8.15919 16.3755 8.15918 16.6621C8.15918 16.9584 8.17594 17.2513 8.20801 17.5391C8.40235 19.285 7.25471 21.4932 5.49805 21.4932C4.76535 21.4932 4.09307 21.0545 3.87988 20.3535C3.52514 19.1868 3.334 17.9487 3.33398 16.666C3.33398 9.67099 9.00404 4.00019 15.999 4ZM16 8.82129C12.8406 8.82129 10.1169 10.6898 8.8752 13.3823C8.74494 13.6647 8.95733 13.9752 9.26833 13.9804L11.7075 14.0212C11.8628 14.0238 12.0074 13.9456 12.099 13.8201C12.9765 12.6182 14.396 11.8369 15.998 11.8369C17.6021 11.837 19.022 12.6209 19.8991 13.8255C19.9907 13.9512 20.1354 14.0297 20.291 14.0271L22.7331 13.9862C23.044 13.981 23.2564 13.6708 23.1264 13.3884C21.8859 10.693 19.1614 8.82155 16 8.82129Z" fill="#FA967C"/>
</g>
<rect x="13.584" y="14.2538" width="4.82508" height="4.82508" rx="2.41254" fill="white"/>
</g>
</svg>
