<svg width="32" height="32" viewBox="0 0 32 32" fill="none" xmlns="http://www.w3.org/2000/svg">
<path d="M5.93943 19.1804C6.36109 18.0599 7.32852 17.3333 8.39894 17.3333H23.6011C24.6715 17.3333 25.6389 18.0599 26.0606 19.1804L27.7808 23.7518C28.5375 25.7629 27.2423 28 25.3213 28H6.67874C4.7577 28 3.4625 25.7629 4.21924 23.7518L5.93943 19.1804Z" fill="#FA967C"/>
<g style="mix-blend-mode:multiply">
<path d="M16.0625 4C20.4395 4.06514 24.0027 7.34684 23.998 11.3145C23.998 14.3532 21.7994 17.3224 19.6348 19.5146C19.2277 19.9271 18.8254 20.3095 18.4375 20.6611C17.7284 21.3039 17.0699 21.842 16.5537 22.2432C16.2248 22.4988 15.7664 22.4988 15.4375 22.2432C14.9217 21.8423 14.2632 21.3052 13.5547 20.6631L13.5557 20.6611V20.6592C13.1637 20.3081 12.7667 19.9263 12.3604 19.5146C10.1958 17.3181 7.99805 14.3531 7.99805 11.3145C7.99821 7.34693 11.5607 4.06528 15.9424 4H16.0625ZM13.333 14.6133H15.041V11.7881L17.0088 14.6133H18.6396V9.33301H16.9307V12.1592L14.9648 9.33301H13.333V14.6133Z" fill="#D63D4A"/>
</g>
</svg>
