<svg width="32" height="33" viewBox="0 0 32 33" fill="none" xmlns="http://www.w3.org/2000/svg">
<path d="M0 10.5C0 4.97715 4.47715 0.5 10 0.5H22C27.5228 0.5 32 4.97715 32 10.5V22.5C32 28.0228 27.5228 32.5 22 32.5H10C4.47715 32.5 0 28.0228 0 22.5V10.5Z" fill="#F4F5F6"/>
<g style="mix-blend-mode:multiply">
<path d="M26.1655 16.6763C26.1655 15.697 25.5437 14.8263 24.6179 14.508L23.143 14.0017H7.17229C6.61672 14.0017 6.16602 14.4524 6.16602 15.008V19.0081H26.166L26.1655 16.6763Z" fill="#FA967C"/>
<path d="M6.16602 19.0083V19.5554C6.16602 20.0834 6.59395 20.5114 7.12198 20.5114H25.1592C25.7148 20.5114 26.1655 20.0607 26.1655 19.5051V19.0083H6.16602Z" fill="#FA967C"/>
<g style="mix-blend-mode:multiply">
<path d="M22.3083 23.5711C23.7708 23.5711 24.9563 22.3855 24.9563 20.923C24.9563 19.4605 23.7708 18.2749 22.3083 18.2749C20.8457 18.2749 19.6602 19.4605 19.6602 20.923C19.6602 22.3855 20.8457 23.5711 22.3083 23.5711Z" fill="#D63D4A"/>
</g>
<path d="M22.3091 22.1266C22.9739 22.1266 23.5128 21.5877 23.5128 20.9229C23.5128 20.2581 22.9739 19.7192 22.3091 19.7192C21.6444 19.7192 21.1055 20.2581 21.1055 20.9229C21.1055 21.5877 21.6444 22.1266 22.3091 22.1266Z" fill="white"/>
<g style="mix-blend-mode:multiply">
<path d="M10.0192 23.5711C11.4817 23.5711 12.6673 22.3855 12.6673 20.923C12.6673 19.4605 11.4817 18.2749 10.0192 18.2749C8.55669 18.2749 7.37109 19.4605 7.37109 20.923C7.37109 22.3855 8.55669 23.5711 10.0192 23.5711Z" fill="#D63D4A"/>
</g>
<path d="M10.0201 22.1266C10.6849 22.1266 11.2238 21.5877 11.2238 20.9229C11.2238 20.2581 10.6849 19.7192 10.0201 19.7192C9.35531 19.7192 8.81641 20.2581 8.81641 20.9229C8.81641 21.5877 9.35531 22.1266 10.0201 22.1266Z" fill="white"/>
<g style="mix-blend-mode:multiply">
<path d="M26.1643 18.5646H25.3619C24.6972 18.5646 24.1582 18.0256 24.1582 17.3609C24.1582 16.6962 24.6972 16.1572 25.3619 16.1572H26.1643V18.5646Z" fill="#D63D4A"/>
</g>
<g style="mix-blend-mode:multiply">
<path d="M20.1793 10.2109C19.665 9.51918 18.4274 8.94824 17.6054 8.94824H10.8079C9.78834 8.94824 9.07263 9.81341 8.72592 10.6759L7.40234 14.0034H23.1151L20.1793 10.2109Z" fill="#D63D4A"/>
</g>
</g>
</svg>
