<svg width="32" height="32" viewBox="0 0 32 32" fill="none" xmlns="http://www.w3.org/2000/svg">
<g style="mix-blend-mode:multiply">
<path d="M29.3306 19.9972C29.3306 12.6363 23.361 6.66669 15.9973 6.66669C8.63357 6.66669 2.66675 12.6363 2.66675 19.9972C2.66675 21.0066 2.78107 21.9852 2.99576 22.9305H29.0044C29.2163 21.9852 29.3334 21.0066 29.3334 19.9972H29.3306Z" fill="#FA967C"/>
<path d="M29.3306 19.9972C29.3306 12.6363 23.361 6.66669 15.9973 6.66669C8.63357 6.66669 2.66675 12.6363 2.66675 19.9972C2.66675 21.0066 2.78107 21.9852 2.99576 22.9305H29.0044C29.2163 21.9852 29.3334 21.0066 29.3334 19.9972H29.3306Z" fill="#FA967C"/>
<path d="M22.7139 19.6137H26.3609C26.3609 16.7529 25.201 14.1599 23.3245 12.2862L20.7454 14.8653C21.961 16.081 22.7111 17.7595 22.7111 19.6137H22.7139Z" fill="white"/>
<g style="mix-blend-mode:multiply">
<path d="M20.7469 14.865L23.326 12.2859C21.4495 10.4094 18.8593 9.24951 15.9985 9.24951V12.8965C17.8527 12.8965 19.5312 13.6493 20.7469 14.8622V14.865Z" fill="#FA967C"/>
</g>
<path d="M15.9976 12.8965V9.24951C13.1369 9.24951 10.5439 10.4094 8.67017 12.2859L11.2493 14.865C12.465 13.6493 14.1435 12.8965 15.9976 12.8965Z" fill="white"/>
<path d="M11.2499 14.8653L8.6708 12.2862C6.79711 14.1627 5.63721 16.7529 5.63721 19.6137H9.28422C9.28422 17.7595 10.0343 16.081 11.2499 14.8653Z" fill="#D63D4A"/>
<path d="M8.29004 14.7112L11.9036 17.413L15.5199 20.1176L14.6082 21.0293L13.6964 21.9411L10.9918 18.3247L8.29004 14.7112Z" fill="white"/>
<path d="M18.6077 22.5538C18.6077 23.9953 17.4394 25.1664 15.9951 25.1664C14.5508 25.1664 13.3826 23.9981 13.3826 22.5538C13.3826 21.1095 14.5508 19.9412 15.9951 19.9412C17.4394 19.9412 18.6077 21.1095 18.6077 22.5538Z" fill="#D63D4A"/>
</g>
</svg>
