<svg width="32" height="33" viewBox="0 0 32 33" fill="none" xmlns="http://www.w3.org/2000/svg">
<g style="mix-blend-mode:multiply">
<path fill-rule="evenodd" clip-rule="evenodd" d="M10.3862 5.33325C9.95116 5.3334 9.52387 5.45778 9.14764 5.69378C8.77142 5.92977 8.45962 6.26901 8.24383 6.67711L3.8258 15.0295C3.61233 15.4326 3.50003 15.889 3.5 16.3534V22.3501C3.50003 22.7638 3.58917 23.1719 3.76039 23.5419L5.1401 26.5229C5.34503 26.966 5.66013 27.3386 6.05009 27.599C6.44004 27.8595 6.88943 27.9974 7.34788 27.9975H8.43635C9.09095 27.9975 9.71874 27.7165 10.1816 27.2165C10.6445 26.7164 10.9045 26.0382 10.9045 25.3311H20.7772C20.7772 26.0382 21.0373 26.7164 21.5001 27.2165C21.963 27.7165 22.5908 27.9975 23.2454 27.9975H24.3339C24.7923 27.9974 25.2417 27.8595 25.6317 27.599C26.0216 27.3386 26.3367 26.966 26.5416 26.5229L27.9213 23.5419C28.0929 23.1726 28.1817 22.7634 28.1817 22.3501V16.3534C28.1817 15.889 28.0694 15.4326 27.8559 15.0295L23.4379 6.67711C23.2221 6.26901 22.9103 5.92977 22.5341 5.69378C22.1579 5.45778 21.7306 5.3334 21.2955 5.33325H10.3862Z" fill="#FA967C"/>
<g style="mix-blend-mode:multiply">
<path d="M6.04369 27.6015C5.65373 27.3411 5.33863 26.9685 5.1337 26.5254L4.44385 25.0349H27.2251L26.5352 26.5254C26.3303 26.9685 26.0152 27.3411 25.6253 27.6015C25.2353 27.8619 24.7859 27.9999 24.3275 27.9999H23.239C22.5844 27.9999 21.9566 27.719 21.4937 27.219C21.0309 26.7189 20.7708 26.0407 20.7708 25.3335H10.8981C10.8981 26.0407 10.6381 26.7189 10.1752 27.219C9.71234 27.719 9.08455 27.9999 8.42995 27.9999H7.34148C6.88303 27.9999 6.43364 27.8619 6.04369 27.6015Z" fill="#D63D4A"/>
</g>
<g style="mix-blend-mode:multiply">
<path d="M7.4312 13.6727L9.69827 8.57177C9.83472 8.26475 10.1392 8.06689 10.4751 8.06689H21.4612C21.7971 8.06689 22.1016 8.26475 22.2381 8.57177L24.5051 13.6727C24.755 14.2349 24.3435 14.8681 23.7282 14.8681H8.20808C7.59286 14.8681 7.18134 14.2349 7.4312 13.6727Z" fill="#D63D4A"/>
</g>
<ellipse cx="9.73399" cy="20.0682" rx="1.7003" ry="1.7003" fill="white"/>
<circle cx="22.2032" cy="20.0682" r="1.7003" fill="white"/>
<path d="M18.8735 23.9061C18.8735 26.647 22.4937 28.6666 23.8513 28.6666C25.2089 28.6666 28.8291 26.647 28.8291 23.9061C28.8291 22.4634 28.8291 21.1577 28.8291 20.2445C28.8291 19.4548 28.319 18.7564 27.5678 18.5169L24.6745 17.5946C24.139 17.4239 23.5637 17.4239 23.0281 17.5946L20.1348 18.5169C19.3837 18.7564 18.8735 19.4548 18.8735 20.2445C18.8735 21.1577 18.8735 22.4634 18.8735 23.9061Z" fill="#D63D4A"/>
<path d="M21.1846 22.256L23.3143 24.5143L26.5179 21.4667" stroke="white" stroke-width="0.914286" stroke-linecap="round" stroke-linejoin="round"/>
<path fill-rule="evenodd" clip-rule="evenodd" d="M12.0238 8.40012C13.0001 7.45182 14.3483 6.86206 15.8335 6.86206C17.3187 6.86206 18.6669 7.45182 19.6431 8.40012C19.8961 8.64586 19.8971 9.04519 19.6452 9.29204C19.3934 9.53889 18.9841 9.53979 18.7311 9.29405C17.986 8.57023 16.9614 8.12343 15.8335 8.12343C14.7056 8.12343 13.681 8.57023 12.9359 9.29405C12.6829 9.53979 12.2736 9.53889 12.0218 9.29204C11.7699 9.04519 11.7709 8.64586 12.0238 8.40012Z" fill="white"/>
<path fill-rule="evenodd" clip-rule="evenodd" d="M15.8316 10.7393C15.2122 10.7393 14.6485 10.9851 14.236 11.3847C13.9826 11.6301 13.5734 11.6286 13.3219 11.3814C13.0704 11.1342 13.0719 10.7349 13.3253 10.4895C13.9673 9.86764 14.8536 9.47791 15.8316 9.47791C16.8083 9.47791 17.6997 9.86676 18.3396 10.4911C18.592 10.7374 18.592 11.1367 18.3396 11.383C18.0872 11.6293 17.6779 11.6293 17.4255 11.383C17.0186 10.986 16.4522 10.7393 15.8316 10.7393Z" fill="white"/>
<path d="M15.8345 13.7193C16.2648 13.7193 16.6137 13.3788 16.6137 12.9589C16.6137 12.5389 16.2648 12.1985 15.8345 12.1985C15.4041 12.1985 15.0552 12.5389 15.0552 12.9589C15.0552 13.3788 15.4041 13.7193 15.8345 13.7193Z" fill="white"/>
</g>
</svg>
