<svg width="32" height="32" viewBox="0 0 32 32" fill="none" xmlns="http://www.w3.org/2000/svg">
<g style="mix-blend-mode:multiply">
<path d="M16.0029 4.00391C23.3655 4.00391 29.3348 9.97243 29.335 17.335C29.335 18.6851 29.1334 19.9887 28.7598 21.2168C28.7408 21.279 28.716 21.3383 28.6904 21.3965C27.7532 24.328 25.8328 26.8192 23.3125 28.4775C23.0233 28.6678 22.6812 28.7597 22.335 28.7598H9.6543C9.30797 28.7598 8.96608 28.6679 8.67676 28.4775C5.94763 26.6819 3.91808 23.9107 3.08301 20.6602C3.06711 20.5982 3.05535 20.5366 3.04688 20.4756C2.80321 19.4684 2.67188 18.4169 2.67188 17.335C2.67202 9.97257 8.64055 4.00412 16.0029 4.00391ZM24.2559 17.333C24.2558 17.0748 23.9748 16.9226 23.749 17.0479L21.0918 18.5225C20.9784 18.5855 20.8964 18.6923 20.8584 18.8164C20.2225 20.8954 18.2891 22.4081 16.002 22.4082C13.7154 22.4082 11.782 20.8965 11.1455 18.8184C11.1075 18.6943 11.0256 18.5874 10.9121 18.5244L8.25391 17.0488C8.02904 16.9242 7.75001 17.0759 7.75 17.333C7.75 17.6446 7.76703 17.9523 7.80078 18.2549C7.82781 18.4973 7.82796 18.7481 7.80762 19.001C7.89761 19.1176 7.96758 19.2522 8.00586 19.4004C8.6227 21.7893 10.2823 23.7584 12.4707 24.7939C12.6984 24.9016 12.9493 24.9492 13.2012 24.9492H18.791C19.0428 24.9492 19.2939 24.9016 19.5215 24.7939C21.7097 23.7584 23.3686 21.7892 23.9854 19.4004C24.0254 19.2452 24.0989 19.1036 24.1953 18.9834C24.1764 18.7361 24.1787 18.491 24.2051 18.2539C24.2387 17.9516 24.2559 17.6443 24.2559 17.333ZM16.0029 9.08105C12.6776 9.0812 9.8108 11.0481 8.50391 13.8818C8.36703 14.1791 8.59072 14.5053 8.91797 14.5107L11.4834 14.5537C11.647 14.5563 11.7992 14.474 11.8955 14.3418C12.8189 13.0747 14.314 12.251 16.002 12.251C17.6897 12.251 19.1841 13.0748 20.1074 14.3418C20.2038 14.474 20.356 14.5564 20.5195 14.5537L23.0869 14.5107C23.4142 14.5053 23.6378 14.1791 23.501 13.8818C22.1942 11.0481 19.3283 9.08105 16.0029 9.08105Z" fill="white"/>
<path d="M7.02538 18.6016C7.49514 18.6016 7.88884 18.9461 8.00629 19.401C8.62313 21.7899 10.2823 23.7594 12.4707 24.7949C12.6984 24.9026 12.9493 24.9502 13.2012 24.9502H18.791C19.0429 24.9502 19.2938 24.9026 19.5215 24.7949C21.7099 23.7594 23.3691 21.7899 23.9859 19.401C24.1033 18.9461 24.497 18.6016 24.9668 18.6016H27.1728C28.2953 18.6016 29.1855 19.574 28.9062 20.6611C28.0712 23.9117 26.0416 26.6829 23.3125 28.4785C23.0232 28.6689 22.6813 28.7607 22.3349 28.7607H9.65428C9.30796 28.7607 8.96607 28.6689 8.67675 28.4785C5.94761 26.6829 3.91807 23.9117 3.083 20.6611C2.8037 19.574 3.69393 18.6016 4.81639 18.6016H7.02538Z" fill="#D63D4A"/>
<g style="mix-blend-mode:multiply">
<path d="M15.999 4C23.3616 4 29.3309 9.9685 29.3311 17.3311C29.3311 18.6812 29.1294 19.9848 28.7559 21.2129C28.5313 21.9505 27.8238 22.4121 27.0527 22.4121C25.2036 22.4121 23.9964 20.0877 24.2012 18.25C24.2349 17.9471 24.2519 17.6391 24.252 17.3271C24.2519 17.0699 23.9717 16.918 23.7467 17.0429L21.0881 18.5184C20.9745 18.5815 20.8926 18.6887 20.8546 18.813C20.2193 20.8929 18.2858 22.4062 15.998 22.4062C13.7105 22.4062 11.7761 20.8935 11.1405 18.8139C11.1025 18.6896 11.0207 18.5825 10.9071 18.5194L8.24842 17.0434C8.02395 16.9188 7.7461 17.0704 7.74609 17.3271C7.7461 17.6388 7.7631 17.9464 7.79688 18.249C8.00213 20.0869 6.79558 22.4121 4.94629 22.4121C4.17518 22.4121 3.46774 21.9505 3.24316 21.2129C2.86957 19.9848 2.66797 18.6812 2.66797 17.3311C2.66808 9.96863 8.63662 4.00021 15.999 4ZM15.999 9.07422C12.6728 9.07439 9.8054 11.0426 8.49899 13.8779C8.36201 14.1752 8.58556 14.5018 8.91283 14.5073L11.4803 14.5503C11.6439 14.553 11.7961 14.4705 11.8925 14.3383C12.816 13.072 14.3107 12.249 15.998 12.249C17.6852 12.2491 19.1791 13.0722 20.1026 14.3384C20.199 14.4706 20.3512 14.553 20.5148 14.5503L23.0842 14.5073C23.4115 14.5018 23.6351 14.1751 23.4981 13.8779C22.1918 11.0426 19.3253 9.07422 15.999 9.07422Z" fill="#FA967C"/>
</g>
<rect x="13.457" y="14.793" width="5.07857" height="5.07857" rx="2.53929" fill="white"/>
</g>
</svg>
