<svg width="24" height="24" viewBox="0 0 24 24" fill="none" xmlns="http://www.w3.org/2000/svg">
<g style="mix-blend-mode:multiply">
<path d="M14.7942 10.2676H9.10742V22.2058H14.7942V10.2676Z" fill="#FA967C"/>
<g style="mix-blend-mode:multiply">
<path d="M11.999 3.84961L16.8801 10.2688H20.2801L11.999 3.84961Z" fill="#FA967C"/>
</g>
<g style="mix-blend-mode:multiply">
<path d="M3.71729 10.2688H7.11728L12 3.84961L3.71729 10.2688Z" fill="#FA967C"/>
</g>
<g style="mix-blend-mode:multiply">
<path d="M7.1167 10.2688H10.2237L11.9994 3.84961L7.1167 10.2688Z" fill="#D63D4A"/>
</g>
<g style="mix-blend-mode:multiply">
<path d="M13.7731 10.2688H16.8801L11.999 3.84961L13.7731 10.2688Z" fill="#D63D4A"/>
</g>
<path d="M10.2256 10.2688H13.7753L12.0013 3.84961L10.2256 10.2688Z" fill="#FA967C"/>
<path d="M20.0945 22.2402H3.90672C3.28987 22.2402 2.78857 21.7389 2.78857 21.122C2.78857 20.5052 3.28987 20.0039 3.90672 20.0039H20.0945C20.7114 20.0039 21.2127 20.5052 21.2127 21.122C21.2127 21.7405 20.7114 22.2402 20.0945 22.2402Z" fill="#D63D4A"/>
<path d="M6.13931 16.5724C6.13931 16.5728 6.13895 16.5732 6.1385 16.5732C6.10784 16.5731 6.07718 16.5699 6.04491 16.5634C5.77962 16.5113 5.60709 16.2558 5.65918 15.9905L6.47296 11.8321C6.52505 11.5668 6.78057 11.3959 7.04587 11.4463C7.31116 11.4984 7.48369 11.7539 7.4316 12.0192L6.61782 16.1777C6.5723 16.4101 6.36766 16.5712 6.14013 16.5715C6.13968 16.5715 6.13931 16.5719 6.13931 16.5724Z" fill="#FA967C"/>
<path d="M17.9656 16.5748C17.9656 16.5743 17.9653 16.574 17.9648 16.574C17.7357 16.5736 17.5326 16.4125 17.4871 16.1801L16.6733 12.0216C16.6213 11.7563 16.7938 11.5008 17.0591 11.4487C17.3227 11.3966 17.5799 11.5692 17.632 11.8345L18.4458 15.9929C18.4978 16.2582 18.3253 16.5137 18.06 16.5658C18.0294 16.5723 17.9971 16.5755 17.9664 16.5756C17.966 16.5756 17.9656 16.5752 17.9656 16.5748Z" fill="#FA967C"/>
<path d="M6.65002 18.3405H5.29913C4.7067 18.3405 4.22656 17.8603 4.22656 17.2679C4.22656 16.6754 4.7067 16.1953 5.29913 16.1953H6.65002C7.24245 16.1953 7.72259 16.6754 7.72259 17.2679C7.72259 17.8603 7.24245 18.3405 6.65002 18.3405Z" fill="#FA967C"/>
<g style="mix-blend-mode:multiply">
<path d="M11.9512 11.4375C12.2212 11.4377 12.4395 11.6557 12.4395 11.9258V16.084C12.4395 16.122 12.433 16.1588 12.4248 16.1943H12.6279C13.22 16.1945 13.7 16.6745 13.7002 17.2666C13.7002 17.8589 13.2202 18.3396 12.6279 18.3398H11.2764C10.6841 18.3397 10.2041 17.8589 10.2041 17.2666C10.2043 16.6745 10.6842 16.1945 11.2764 16.1943H11.4766C11.4684 16.1588 11.4629 16.122 11.4629 16.084V11.9258C11.4629 11.6556 11.681 11.4375 11.9512 11.4375Z" fill="#D63D4A"/>
</g>
<path d="M18.8004 18.3405H17.4495C16.8571 18.3405 16.377 17.8603 16.377 17.2679C16.377 16.6754 16.8571 16.1953 17.4495 16.1953H18.8004C19.3928 16.1953 19.873 16.6754 19.873 17.2679C19.873 17.8603 19.3928 18.3405 18.8004 18.3405Z" fill="#FA967C"/>
<path d="M12.0008 5.15684C12.8062 5.15684 13.4591 4.50394 13.4591 3.69854C13.4591 2.89314 12.8062 2.24023 12.0008 2.24023C11.1954 2.24023 10.5425 2.89314 10.5425 3.69854C10.5425 4.50394 11.1954 5.15684 12.0008 5.15684Z" fill="#D63D4A"/>
<path d="M20.7203 12.2975H3.27765C2.70149 12.2975 2.23438 11.8304 2.23438 11.2542C2.23438 10.6781 2.70149 10.2109 3.27765 10.2109H20.722C21.2981 10.2109 21.7652 10.6781 21.7652 11.2542C21.7652 11.8304 21.2981 12.2975 20.722 12.2975H20.7203Z" fill="#D63D4A"/>
</g>
</svg>
