<svg width="32" height="33" viewBox="0 0 32 33" fill="none" xmlns="http://www.w3.org/2000/svg">
<g style="mix-blend-mode:multiply">
<path d="M16.1682 5.25684C16.7063 5.25684 17.1426 5.69307 17.1426 6.23119L17.1426 14.0261C17.1426 14.5642 16.7063 15.0004 16.1682 15.0004C15.6301 15.0004 15.1939 14.5642 15.1939 14.0261L15.1939 6.23119C15.1939 5.69307 15.6301 5.25684 16.1682 5.25684Z" fill="#D63D4A"/>
<rect x="3.5" y="14.0254" width="25.3333" height="13.641" rx="2.19231" fill="#FA967C"/>
<rect x="6.42383" y="5.25684" width="19.4872" height="2.92308" rx="1.46154" fill="#D63D4A"/>
<circle cx="24.294" cy="18.127" r="1.46" fill="white"/>
<g style="mix-blend-mode:multiply">
<ellipse cx="10.8104" cy="20.8475" rx="4.38461" ry="4.38462" fill="#D63D4A"/>
</g>
<path d="M7.20508 21.3349C7.20508 20.2214 7.87321 17.8829 10.5457 17.4375C9.65489 18.3283 7.94745 20.407 7.20508 21.3349Z" fill="white"/>
</g>
</svg>
