<svg width="32" height="32" viewBox="0 0 32 32" fill="none" xmlns="http://www.w3.org/2000/svg">
<path d="M4.97589 18.832C6.48662 18.832 7.7113 17.6073 7.7113 16.0966C7.7113 14.5859 6.48662 13.3612 4.97589 13.3612C3.46516 13.3612 2.24048 14.5859 2.24048 16.0966C2.24048 17.6073 3.46516 18.832 4.97589 18.832Z" fill="#FA967C"/>
<path d="M27.0242 18.8322C28.535 18.8322 29.7596 17.6075 29.7596 16.0968C29.7596 14.5861 28.535 13.3614 27.0242 13.3614C25.5135 13.3614 24.2888 14.5861 24.2888 16.0968C24.2888 17.6075 25.5135 18.8322 27.0242 18.8322Z" fill="#FA967C"/>
<path d="M16.0001 27.0697C22.0604 27.0697 26.9733 22.1568 26.9733 16.0965C26.9733 10.0362 22.0604 5.12329 16.0001 5.12329C9.93973 5.12329 5.02686 10.0362 5.02686 16.0965C5.02686 22.1568 9.93973 27.0697 16.0001 27.0697Z" fill="#FA967C"/>
<ellipse cx="23.5465" cy="18.696" rx="1.96158" ry="1.37311" fill="white"/>
<ellipse cx="8.54606" cy="18.696" rx="1.96158" ry="1.37311" fill="white"/>
<path d="M12.9217 16.7772C13.4558 16.7772 13.8887 16.282 13.8887 15.6711C13.8887 15.0603 13.4558 14.5651 12.9217 14.5651C12.3877 14.5651 11.9548 15.0603 11.9548 15.6711C11.9548 16.282 12.3877 16.7772 12.9217 16.7772Z" fill="#D63D4A"/>
<path d="M20.0456 15.6711C20.0456 16.2823 19.6124 16.7771 19.0787 16.7771C18.5451 16.7771 18.1118 16.2823 18.1118 15.6711C18.1118 15.0599 18.5451 14.5651 19.0787 14.5651C19.6124 14.5651 20.0456 15.0599 20.0456 15.6711Z" fill="#D63D4A"/>
<path d="M5.12671 15.1192C5.12671 15.1192 9.66793 13.2551 12.4155 8.48089C12.4155 8.48089 12.6533 10.811 11.8184 12.5585H20.1824C20.1824 12.5585 20.4203 11.044 19.8232 8.36439C19.8232 8.36439 22.3329 12.675 26.8717 14.4202C26.8717 14.4202 26.9906 4.40326 16.1193 4.40326C5.24807 4.40326 5.12671 13.0221 5.12671 15.1192Z" fill="#D63D4A"/>
<path d="M12.8257 18.3141C12.8257 20.0678 14.2464 21.4885 16.0001 21.4885C17.7538 21.4885 19.1745 20.0678 19.1745 18.3141H12.828H12.8257Z" fill="#D63D4A"/>
</svg>
