<svg width="32" height="32" viewBox="0 0 32 32" fill="none" xmlns="http://www.w3.org/2000/svg">
<g style="mix-blend-mode:multiply">
<path fill-rule="evenodd" clip-rule="evenodd" d="M10.2195 4.66669C9.78441 4.66684 9.35712 4.79121 8.9809 5.02721C8.60467 5.26321 8.29287 5.60244 8.07708 6.01054L3.65905 14.363C3.44559 14.7661 3.33328 15.2224 3.33325 15.6868V21.6835C3.33328 22.0972 3.42243 22.5053 3.59364 22.8754L4.97335 25.8564C5.17828 26.2994 5.49338 26.672 5.88334 26.9325C6.27329 27.1929 6.72268 27.3309 7.18114 27.3309H8.2696C8.9242 27.3309 9.55199 27.05 10.0149 26.5499C10.4777 26.0499 10.7378 25.3717 10.7378 24.6645H20.6105C20.6105 25.3717 20.8705 26.0499 21.3334 26.5499C21.7963 27.05 22.424 27.3309 23.0786 27.3309H24.1671C24.6256 27.3309 25.075 27.1929 25.4649 26.9325C25.8549 26.672 26.17 26.2994 26.3749 25.8564L27.7546 22.8754C27.9261 22.5061 28.015 22.0968 28.015 21.6835V15.6868C28.015 15.2224 27.9027 14.7661 27.6892 14.363L23.2712 6.01054C23.0554 5.60244 22.7436 5.26321 22.3673 5.02721C21.9911 4.79121 21.5638 4.66684 21.1288 4.66669H10.2195Z" fill="#FA967C"/>
<g style="mix-blend-mode:multiply">
<path d="M5.87694 26.9349C5.48699 26.6745 5.17188 26.3019 4.96695 25.8589L4.2771 24.3683H27.0583L26.3685 25.8589C26.1636 26.3019 25.8485 26.6745 25.4585 26.9349C25.0686 27.1954 24.6192 27.3333 24.1607 27.3334H23.0723C22.4177 27.3334 21.7899 27.0524 21.327 26.5524C20.8641 26.0524 20.6041 25.3742 20.6041 24.667H10.7314C10.7314 25.3742 10.4713 26.0524 10.0085 26.5524C9.54559 27.0524 8.9178 27.3334 8.2632 27.3334H7.17474C6.71628 27.3333 6.26689 27.1954 5.87694 26.9349Z" fill="#D63D4A"/>
</g>
<g style="mix-blend-mode:multiply">
<path d="M7.26445 13.0061L9.53152 7.9052C9.66797 7.59819 9.97243 7.40033 10.3084 7.40033H21.2944C21.6304 7.40033 21.9349 7.59819 22.0713 7.9052L24.3384 13.0061C24.5882 13.5683 24.1767 14.2015 23.5615 14.2015H8.04133C7.42611 14.2015 7.01459 13.5683 7.26445 13.0061Z" fill="#D63D4A"/>
</g>
<ellipse cx="9.56749" cy="19.4017" rx="1.7003" ry="1.7003" fill="white"/>
<circle cx="22.0362" cy="19.4017" r="1.7003" fill="white"/>
<path d="M18.7065 23.2396C18.7065 25.9805 22.3267 28 23.6843 28C25.0419 28 28.6621 25.9805 28.6621 23.2396C28.6621 21.7969 28.6621 20.4912 28.6621 19.578C28.6621 18.7882 28.152 18.0898 27.4008 17.8504L24.5076 16.9281C23.972 16.7574 23.3967 16.7574 22.8611 16.9281L19.9678 17.8504C19.2167 18.0898 18.7065 18.7882 18.7065 19.578C18.7065 20.4912 18.7065 21.7969 18.7065 23.2396Z" fill="#D63D4A"/>
<path d="M21.0178 21.5896L23.1476 23.8479L26.3512 20.8002" stroke="white" stroke-width="0.914286" stroke-linecap="round" stroke-linejoin="round"/>
</g>
</svg>
