<?xml version="1.0" encoding="UTF-8"?><svg id="uuid-b08e7b8b-dc64-4008-abb4-7ea95b605917" xmlns="http://www.w3.org/2000/svg" xmlns:xlink="http://www.w3.org/1999/xlink" width="32" height="32" viewBox="0 0 32 32"><defs><clipPath id="uuid-8c2e7b53-37b6-4d0c-86fe-609264e02c6c"><rect width="31.83" height="31.83" style="fill:none;"/></clipPath></defs><path d="M5.94,19.18c.42-1.12,1.39-1.85,2.46-1.85h15.2c1.07,0,2.04.73,2.46,1.85l1.72,4.57c.76,2.01-.54,4.25-2.46,4.25H6.68c-1.92,0-3.22-2.24-2.46-4.25l1.72-4.57Z" style="fill:#fa967c;"/><g style="clip-path:url(#uuid-8c2e7b53-37b6-4d0c-86fe-609264e02c6c);"><path d="M13.33,14.61h1.71v-2.83l1.97,2.83h1.63v-5.28h-1.71v2.83l-1.97-2.83h-1.63v5.28ZM16.06,4c4.38.07,7.94,3.35,7.94,7.31,0,3.04-2.2,6.01-4.36,8.2-.41.41-.81.79-1.2,1.15-.71.64-1.37,1.18-1.88,1.58-.33.26-.79.26-1.12,0-.52-.4-1.17-.94-1.88-1.58h0c-.39-.36-.79-.74-1.2-1.15-2.16-2.2-4.36-5.16-4.36-8.2,0-3.97,3.56-7.25,7.94-7.31h.12Z" style="fill:#d63d4a;"/></g><rect x="12.19" y="8.19" width="8.15" height="7.13" style="fill:#d63d4a;"/><path d="M11.73,9.22v1.87h3.36s.2-1,1.83-1.87h-5.19Z" style="fill:#fff;"/><path d="M20.1,9.22v1.87h-1.59s-1.34.13-1.67,1.68v4.86h-1.86v-4.87s.11-3.17,3.43-3.53h1.68Z" style="fill:#fff;"/></svg>