<svg width="32" height="33" viewBox="0 0 32 33" fill="none" xmlns="http://www.w3.org/2000/svg">
<path d="M5.55103 19.384C7.00577 19.384 8.18507 18.2047 8.18507 16.75C8.18507 15.2953 7.00577 14.116 5.55103 14.116C4.09629 14.116 2.91699 15.2953 2.91699 16.75C2.91699 18.2047 4.09629 19.384 5.55103 19.384Z" fill="#FA967C"/>
<path d="M26.7825 19.3839C28.2372 19.3839 29.4165 18.2046 29.4165 16.7499C29.4165 15.2951 28.2372 14.1158 26.7825 14.1158C25.3277 14.1158 24.1484 15.2951 24.1484 16.7499C24.1484 18.2046 25.3277 19.3839 26.7825 19.3839Z" fill="#FA967C"/>
<path d="M16.1666 27.3164C22.0024 27.3164 26.7332 22.5856 26.7332 16.7499C26.7332 10.9142 22.0024 6.18335 16.1666 6.18335C10.3309 6.18335 5.6001 10.9142 5.6001 16.7499C5.6001 22.5856 10.3309 27.3164 16.1666 27.3164Z" fill="#FA967C"/>
<ellipse cx="23.4333" cy="19.2533" rx="1.88889" ry="1.32222" fill="white"/>
<ellipse cx="8.98899" cy="19.2533" rx="1.88889" ry="1.32222" fill="white"/>
<path d="M13.2021 17.4055C13.7163 17.4055 14.1332 16.9286 14.1332 16.3404C14.1332 15.7522 13.7163 15.2754 13.2021 15.2754C12.6879 15.2754 12.271 15.7522 12.271 16.3404C12.271 16.9286 12.6879 17.4055 13.2021 17.4055Z" fill="#D22424"/>
<path d="M20.0619 16.3404C20.0619 16.9289 19.6446 17.4055 19.1308 17.4055C18.6169 17.4055 18.1997 16.9289 18.1997 16.3404C18.1997 15.7519 18.6169 15.2754 19.1308 15.2754C19.6446 15.2754 20.0619 15.7519 20.0619 16.3404Z" fill="#D22424"/>
<path d="M5.69629 15.8086C5.69629 15.8086 10.0692 14.0136 12.7149 9.41627C12.7149 9.41627 12.944 11.66 12.14 13.3428H20.194C20.194 13.3428 20.4231 11.8844 19.8481 9.30408C19.8481 9.30408 22.2648 13.455 26.6354 15.1354C26.6354 15.1354 26.7499 5.48975 16.2815 5.48975C5.81315 5.48975 5.69629 13.7892 5.69629 15.8086Z" fill="#D63D4A"/>
<path d="M13.1099 18.8853C13.1099 20.5739 14.4779 21.942 16.1666 21.942C17.8553 21.942 19.2234 20.5739 19.2234 18.8853H13.1121H13.1099Z" fill="#D63D4A"/>
</svg>
