<svg width="32" height="32" viewBox="0 0 32 32" fill="none" xmlns="http://www.w3.org/2000/svg">
<path d="M15.4628 4.94141C18.1545 4.94143 20.2734 5.11199 21.6024 5.25977C22.5635 5.36664 23.3343 6.06377 23.5946 6.99512L25.0468 12.1953L27.2391 11.8877C27.6982 11.8233 28.1226 12.1435 28.1874 12.6025L28.3046 13.4346C28.4336 14.3531 27.7934 15.2019 26.8749 15.3311L26.3387 15.4062C26.2007 15.4255 26.0976 15.5433 26.0975 15.6826C26.0979 15.6949 26.0995 15.7073 26.0995 15.7197V23.2783C26.0995 23.974 25.5354 24.5381 24.8397 24.5381H22.8798C22.1844 24.5377 21.62 23.9738 21.62 23.2783V21.5986C21.6199 21.3668 21.4319 21.1787 21.2001 21.1787H9.72058C9.48883 21.1788 9.30073 21.3669 9.30066 21.5986V23.2783C9.30066 23.9739 8.73738 24.5378 8.04187 24.5381H6.08191C5.38631 24.5379 4.82215 23.974 4.82215 23.2783V15.8047C4.82215 15.5954 4.66811 15.4178 4.46082 15.3887L4.04383 15.3301C3.12552 15.2009 2.48533 14.3519 2.61414 13.4336L2.73133 12.6016C2.7959 12.1424 3.22045 11.8224 3.67957 11.8867L5.87683 12.1943L7.32996 6.99512C7.59026 6.06376 8.36101 5.36664 9.32215 5.25977C10.6512 5.11198 12.7707 4.94141 15.4628 4.94141Z" fill="white"/>
<g style="mix-blend-mode:multiply">
<path d="M3.67571 11.8852L6.60096 12.2962C6.65673 12.304 6.71341 12.3001 6.76825 12.2873C6.95133 12.2444 7.14174 12.2202 7.33782 12.2202H23.5741C23.7713 12.2202 23.9625 12.2448 24.1464 12.2881C24.2014 12.301 24.2582 12.305 24.3142 12.2971L27.2353 11.8872C27.6945 11.8227 28.119 12.1428 28.1835 12.602L28.3007 13.4331C28.4298 14.3516 27.7896 15.2014 26.871 15.3305L26.3345 15.4053C26.1964 15.4246 26.0937 15.5427 26.0937 15.6821C26.094 15.6943 26.0956 15.7069 26.0956 15.7192V23.2768C26.0956 23.9725 25.5316 24.5366 24.8359 24.5366H22.8759C22.1804 24.5364 21.6161 23.9724 21.6161 23.2768V21.5981C21.6161 21.3662 21.4281 21.1782 21.1962 21.1782H9.71671C9.4848 21.1782 9.2968 21.3662 9.2968 21.5981V23.2768C9.2968 23.9725 8.73276 24.5366 8.03703 24.5366H6.07805C5.38232 24.5366 4.81828 23.9725 4.81828 23.2768V15.803C4.81828 15.5936 4.66411 15.4163 4.45681 15.3871L4.03996 15.3286C3.12142 15.1995 2.48129 14.3506 2.61028 13.4321L2.72746 12.6001C2.79212 12.1409 3.21653 11.8207 3.67571 11.8852Z" fill="#FA967C"/>
</g>
<path d="M7.32644 6.99134C7.58669 6.0599 8.35725 5.36308 9.31844 5.2562C10.6475 5.10841 12.7666 4.9375 15.4586 4.9375C18.1507 4.9375 20.2697 5.10841 21.5988 5.2562C22.56 5.36308 23.3306 6.0599 23.5908 6.99134L25.1145 12.4444C25.3728 13.3689 24.996 14.2478 24.0557 14.4409C22.697 14.7199 20.1507 15.0153 15.4586 15.0153C10.7666 15.0153 8.22023 14.7199 6.86158 14.4409C5.92127 14.2478 5.54448 13.3689 5.8028 12.4444L7.32644 6.99134Z" fill="#D63D4A"/>
<path d="M9.63816 6.99075C10.638 6.80782 12.623 6.52771 14.8801 6.42462C15.0827 6.41537 15.1387 6.78559 14.9484 6.85586C12.6306 7.71172 10.2853 9.28887 8.91712 10.4303C8.71625 10.5979 8.38834 10.3923 8.46324 10.1417L9.31848 7.27994C9.36298 7.13105 9.48529 7.01872 9.63816 6.99075Z" fill="white"/>
<ellipse cx="23.9993" cy="21.3333" rx="5.33333" ry="5.33333" fill="#D63D4A"/>
<path d="M23.9643 19.5078C24.4173 19.5078 24.7845 19.1405 24.7845 18.6875C24.7845 18.2344 24.4173 17.8672 23.9643 17.8672C23.5112 17.8672 23.144 18.2344 23.144 18.6875C23.144 19.1405 23.5112 19.5078 23.9643 19.5078Z" fill="white"/>
<path d="M22.9047 20.1846C22.8481 20.1846 22.8022 20.2305 22.8022 20.2871V20.9023C22.8022 20.959 22.8481 21.0049 22.9047 21.0049H23.4527C23.5093 21.0049 23.5552 21.0508 23.5552 21.1074V23.7136H22.7686C22.7119 23.7136 22.666 23.7595 22.666 23.8161V24.4313C22.666 24.4879 22.7119 24.5339 22.7686 24.5339H25.2978C25.3544 24.5339 25.4003 24.4879 25.4003 24.4313V23.8161C25.4003 23.7595 25.3544 23.7136 25.2978 23.7136H24.7856V20.2871C24.7856 20.2305 24.7397 20.1846 24.6831 20.1846H22.9047Z" fill="white"/>
</svg>
