<svg width="32" height="32" viewBox="0 0 32 32" fill="none" xmlns="http://www.w3.org/2000/svg">
<path d="M11.6319 9.5742L9.01449 16.903H7.33333C4.38781 16.903 2 19.2908 2 22.2363V24.3812C2 26.5904 3.79086 28.3812 6 28.3812H11.9119C12.9345 28.3812 13.9356 28.0872 14.7959 27.5342L27.8436 19.1464C29.75 17.9208 30.2584 15.3578 28.9642 13.4974L22.7603 4.57932C22.1141 3.6503 20.6462 3.89812 20.1188 4.89942C19.5401 5.99814 18.8213 6.82984 17.942 7.33777C16.67 8.07261 15.1524 8.21976 13.8883 8.16598C12.9101 8.12437 11.9612 8.65207 11.6319 9.5742Z" fill="#FA967C"/>
<mask id="mask0_97_7199" style="mask-type:alpha" maskUnits="userSpaceOnUse" x="2" y="4" width="28" height="25">
<path d="M11.6319 9.5742L9.01449 16.903H7.33333C4.38781 16.903 2 19.2908 2 22.2363V24.3812C2 26.5904 3.79086 28.3812 6 28.3812H11.9119C12.9345 28.3812 13.9356 28.0872 14.7959 27.5342L27.8436 19.1464C29.75 17.9208 30.2584 15.3578 28.9642 13.4974L22.7603 4.57932C22.1141 3.6503 20.6462 3.89812 20.1188 4.89942C19.5401 5.99814 18.8213 6.82984 17.942 7.33777C16.67 8.07261 15.1524 8.21976 13.8883 8.16598C12.9101 8.12437 11.9612 8.65207 11.6319 9.5742Z" fill="#FA967C"/>
</mask>
<g mask="url(#mask0_97_7199)">
<path d="M11.8222 9.04129L9.01446 16.903H1.99997V24.3812C1.99997 26.5904 3.79083 28.3812 5.99997 28.3812H11.9118C12.9345 28.3812 13.9356 28.0872 14.7959 27.5342L27.8436 19.1464C29.75 17.9208 30.2584 15.3578 28.9642 13.4974L22.7603 4.57932C22.114 3.6503 20.6462 3.89812 20.1188 4.89942C19.5401 5.99814 18.8213 6.82984 17.942 7.33777C16.4738 8.18593 14.6785 8.25116 13.3234 8.12819C12.6733 8.06919 12.0418 8.42653 11.8222 9.04129Z" fill="#FA967C"/>
<path d="M12.0075 24.5552H1.99997L0.724609 29.6566L15.3913 29.0189L31.3333 18.1783L29.4203 13.0769L13.5254 24.081C13.0795 24.3898 12.55 24.5552 12.0075 24.5552Z" fill="#D63D4A"/>
<path fill-rule="evenodd" clip-rule="evenodd" d="M5.53153 12.0568C5.53153 11.4933 5.98833 11.0365 6.55182 11.0365H12.9286C13.4921 11.0365 13.9489 11.4933 13.9489 12.0568C13.9489 12.6203 13.4921 13.0771 12.9286 13.0771H6.55182C5.98833 13.0771 5.53153 12.6203 5.53153 12.0568ZM3.78548 15.8824C3.78548 15.3189 4.24228 14.8621 4.80577 14.8621H13.7333C14.2968 14.8621 14.7536 15.3189 14.7536 15.8824C14.7536 16.4459 14.2968 16.9027 13.7333 16.9027H4.80577C4.24228 16.9027 3.78548 16.4459 3.78548 15.8824Z" fill="#D63D4A"/>
</g>
</svg>
