<svg width="139" height="2" viewBox="0 0 139 2" fill="none" xmlns="http://www.w3.org/2000/svg">
<path d="M3.0293 0C3.58158 0 4.0293 0.447715 4.0293 1C4.0293 1.55228 3.58158 2 3.0293 2H1C0.447715 2 0 1.55228 0 1C0 0.447715 0.447715 0 1 0H3.0293ZM12.1631 0C12.7153 6.60786e-05 13.1631 0.447756 13.1631 1C13.1631 1.55224 12.7153 1.99993 12.1631 2H8.10352C7.55132 1.9999 7.10352 1.55222 7.10352 1C7.10352 0.447778 7.55132 0.00010177 8.10352 0H12.1631ZM21.2959 0C21.8482 0 22.2959 0.447715 22.2959 1C22.2959 1.55228 21.8482 2 21.2959 2H17.2373C16.685 2 16.2373 1.55228 16.2373 1C16.2373 0.447715 16.685 0 17.2373 0H21.2959ZM30.4297 0C30.9819 3.03835e-05 31.4297 0.447734 31.4297 1C31.4297 1.55227 30.9819 1.99997 30.4297 2H26.3701C25.8179 1.99986 25.3701 1.5522 25.3701 1C25.3701 0.4478 25.8179 0.000137459 26.3701 0H30.4297ZM39.5625 0L39.665 0.00488281C40.1694 0.0560016 40.5625 0.482165 40.5625 1C40.5625 1.51783 40.1694 1.944 39.665 1.99512L39.5625 2H35.5039C34.9516 2 34.5039 1.55228 34.5039 1C34.5039 0.447715 34.9516 0 35.5039 0H39.5625ZM48.6963 0L48.7988 0.00488281C49.303 0.0562118 49.6963 0.482321 49.6963 1C49.6963 1.51768 49.303 1.94379 48.7988 1.99512L48.6963 2H44.6367C44.0846 1.99983 43.6367 1.55218 43.6367 1C43.6367 0.447821 44.0846 0.000172041 44.6367 0H48.6963ZM57.8301 0L57.9316 0.00488281C58.436 0.0559742 58.8301 0.482145 58.8301 1C58.8301 1.51785 58.436 1.94403 57.9316 1.99512L57.8301 2H53.7705C53.2182 2 52.7705 1.55228 52.7705 1C52.7705 0.447715 53.2182 0 53.7705 0H57.8301ZM66.9629 0L67.0654 0.00488281C67.5696 0.0561826 67.9629 0.4823 67.9629 1C67.9629 1.5177 67.5696 1.94382 67.0654 1.99512L66.9629 2H62.9033C62.3512 1.99979 61.9033 1.55216 61.9033 1C61.9033 0.447843 62.3512 0.00020662 62.9033 0H66.9629ZM76.0967 0C76.6488 0.000211031 77.0967 0.447845 77.0967 1C77.0967 1.55215 76.6488 1.99979 76.0967 2H72.0371C71.4848 2 71.0371 1.55228 71.0371 1C71.0371 0.447715 71.4848 0 72.0371 0H76.0967ZM85.2295 0C85.7818 0 86.2295 0.447715 86.2295 1C86.2295 1.55228 85.7818 2 85.2295 2H81.1699C80.6178 1.99976 80.1699 1.55214 80.1699 1C80.1699 0.447864 80.6178 0.000241196 81.1699 0H85.2295ZM94.3633 0L94.4648 0.00488281C94.9693 0.0559176 95.3633 0.482103 95.3633 1C95.3633 1.5179 94.9693 1.94408 94.4648 1.99512L94.3633 2H90.3037C89.7514 2 89.3037 1.55228 89.3037 1C89.3037 0.447715 89.7514 0 90.3037 0H94.3633ZM103.496 0L103.599 0.00488281C104.103 0.056126 104.496 0.482258 104.496 1C104.496 1.51774 104.103 1.94387 103.599 1.99512L103.496 2H99.4375C98.8852 2 98.4375 1.55228 98.4375 1C98.4375 0.447715 98.8852 0 99.4375 0H103.496ZM112.63 0L112.731 0.00488281C113.236 0.0558921 113.63 0.482084 113.63 1C113.63 1.51792 113.236 1.94411 112.731 1.99512L112.63 2H108.57C108.018 1.99998 107.57 1.55227 107.57 1C107.57 0.447731 108.018 2.48674e-05 108.57 0H112.63ZM121.763 0L121.865 0.00488281C122.369 0.0561005 122.763 0.482239 122.763 1C122.763 1.51776 122.369 1.9439 121.865 1.99512L121.763 2H117.704C117.152 2 116.704 1.55228 116.704 1C116.704 0.447715 117.152 0 117.704 0H121.763ZM130.896 0L130.998 0.00488281C131.503 0.0558591 131.896 0.48206 131.896 1C131.896 1.51794 131.503 1.94414 130.998 1.99512L130.896 2H126.837C126.285 1.99994 125.837 1.55225 125.837 1C125.837 0.447752 126.285 5.946e-05 126.837 0H130.896ZM138 0C138.552 0 139 0.447715 139 1C139 1.55228 138.552 2 138 2H135.971C135.418 2 134.971 1.55228 134.971 1C134.971 0.447715 135.418 0 135.971 0H138Z" fill="#CDD1D5"/>
</svg>
