<svg width="32" height="32" viewBox="0 0 32 32" fill="none" xmlns="http://www.w3.org/2000/svg">
<g style="mix-blend-mode:multiply">
<path fill-rule="evenodd" clip-rule="evenodd" d="M10.2197 4.66699C9.78465 4.66714 9.35737 4.79152 8.98114 5.02752C8.60491 5.26351 8.29311 5.60275 8.07733 6.01085L3.65929 14.3633C3.44583 14.7664 3.33352 15.2227 3.3335 15.6871V21.6838C3.33352 22.0975 3.42267 22.5056 3.59389 22.8757L4.9736 25.8567C5.17853 26.2997 5.49363 26.6723 5.88358 26.9328C6.27353 27.1932 6.72292 27.3312 7.18138 27.3312H8.26984C8.92444 27.3312 9.55224 27.0503 10.0151 26.5502C10.478 26.0502 10.738 25.372 10.738 24.6648H20.6107C20.6107 25.372 20.8708 26.0502 21.3336 26.5502C21.7965 27.0503 22.4243 27.3312 23.0789 27.3312H24.1674C24.6258 27.3312 25.0752 27.1932 25.4652 26.9328C25.8551 26.6723 26.1702 26.2997 26.3751 25.8567L27.7548 22.8757C27.9264 22.5064 28.0152 22.0971 28.0152 21.6838V15.6871C28.0152 15.2227 27.9029 14.7664 27.6894 14.3633L23.2714 6.01085C23.0556 5.60275 22.7438 5.26351 22.3676 5.02752C21.9914 4.79152 21.5641 4.66714 21.129 4.66699H10.2197Z" fill="#FA967C"/>
<g style="mix-blend-mode:multiply">
<path d="M5.87718 26.9353C5.48723 26.6748 5.17213 26.3022 4.9672 25.8592L4.27734 24.3687H27.0586L26.3687 25.8592C26.1638 26.3022 25.8487 26.6748 25.4588 26.9353C25.0688 27.1957 24.6194 27.3336 24.161 27.3337H23.0725C22.4179 27.3337 21.7901 27.0527 21.3272 26.5527C20.8644 26.0527 20.6043 25.3745 20.6043 24.6673H10.7316C10.7316 25.3745 10.4716 26.0527 10.0087 26.5527C9.54584 27.0527 8.91805 27.3337 8.26345 27.3337H7.17498C6.71653 27.3336 6.26713 27.1957 5.87718 26.9353Z" fill="#D63D4A"/>
</g>
<g style="mix-blend-mode:multiply">
<path d="M7.2647 13.0066L9.53176 7.90575C9.66821 7.59874 9.97267 7.40088 10.3086 7.40088H21.2947C21.6306 7.40088 21.9351 7.59874 22.0715 7.90575L24.3386 13.0066C24.5885 13.5688 24.177 14.2021 23.5617 14.2021H8.04158C7.42636 14.2021 7.01484 13.5688 7.2647 13.0066Z" fill="#D63D4A"/>
</g>
<ellipse cx="9.56749" cy="19.402" rx="1.7003" ry="1.7003" fill="white"/>
<circle cx="22.0367" cy="19.402" r="1.7003" fill="white"/>
<g style="mix-blend-mode:multiply">
<ellipse cx="23.3333" cy="8.66683" rx="5.33333" ry="5.33333" fill="#D63D4A"/>
</g>
<path d="M25.6771 6.62625C25.9175 6.47578 26.2383 6.50938 26.4415 6.72261C26.6445 6.93603 26.6622 7.25821 26.5001 7.49084L26.4206 7.58459L23.2162 10.6328C23.0988 10.7443 22.9419 10.8051 22.78 10.8007C22.618 10.7963 22.4641 10.7272 22.3529 10.6093L20.2227 8.35021L20.1485 8.25256C19.9993 8.01154 20.0346 7.69163 20.2488 7.48953C20.4631 7.2874 20.7851 7.27038 21.017 7.43355L21.1107 7.51427L22.8191 9.32677L25.5795 6.70177L25.6771 6.62625Z" fill="white"/>
</g>
</svg>
