<svg width="32" height="33" viewBox="0 0 32 33" fill="none" xmlns="http://www.w3.org/2000/svg">
<rect width="32" height="32" transform="translate(0 0.5)" fill="white"/>
<g style="mix-blend-mode:multiply">
<path fill-rule="evenodd" clip-rule="evenodd" d="M10.9228 8.75885C9.44873 8.75885 8.25851 9.94907 8.25851 11.4232V12.7461C8.25851 13.1166 7.95812 13.417 7.58758 13.417C7.21703 13.417 6.91665 13.1166 6.91665 12.7461V11.4232C6.91665 9.20798 8.70764 7.41699 10.9228 7.41699H12.2457C12.6163 7.41699 12.9166 7.71738 12.9166 8.08792C12.9166 8.45846 12.6163 8.75885 12.2457 8.75885H10.9228Z" fill="#D63D4A"/>
<path fill-rule="evenodd" clip-rule="evenodd" d="M19.1666 8.33792C19.1666 7.96738 19.467 7.66699 19.8376 7.66699H21.1605C23.3757 7.66699 25.1666 9.45798 25.1666 11.6732V12.9961C25.1666 13.3666 24.8663 13.667 24.4957 13.667C24.1252 13.667 23.8248 13.3666 23.8248 12.9961V11.6732C23.8248 10.1991 22.6346 9.00885 21.1605 9.00885H19.8376C19.467 9.00885 19.1666 8.70846 19.1666 8.33792Z" fill="#D63D4A"/>
<path fill-rule="evenodd" clip-rule="evenodd" d="M24.2457 19.417C24.6163 19.417 24.9166 19.7174 24.9166 20.0879V21.4108C24.9166 23.626 23.1257 25.417 20.9105 25.417H19.5876C19.217 25.417 18.9166 25.1166 18.9166 24.7461C18.9166 24.3755 19.217 24.0751 19.5876 24.0751H20.9105C22.3846 24.0751 23.5748 22.8849 23.5748 21.4108V20.0879C23.5748 19.7174 23.8752 19.417 24.2457 19.417Z" fill="#D63D4A"/>
<path fill-rule="evenodd" clip-rule="evenodd" d="M7.58758 19.3242C7.95812 19.3242 8.25851 19.6246 8.25851 19.9951V21.3181C8.25851 22.7921 9.44873 23.9824 10.9228 23.9824H12.2457C12.6163 23.9824 12.9166 24.2827 12.9166 24.6533C12.9166 25.0238 12.6163 25.3242 12.2457 25.3242H10.9228C8.70764 25.3242 6.91665 23.5332 6.91665 21.3181V19.9951C6.91665 19.6246 7.21703 19.3242 7.58758 19.3242Z" fill="#D63D4A"/>
<path fill-rule="evenodd" clip-rule="evenodd" d="M12.9331 10.208C12.6952 10.2081 12.4615 10.2761 12.2557 10.4052C12.0499 10.5343 11.8794 10.7198 11.7613 10.943L9.34485 15.5115C9.22809 15.732 9.16666 15.9816 9.16665 16.2356V19.5156C9.16666 19.7419 9.21542 19.9651 9.30907 20.1675L10.0637 21.798C10.1758 22.0403 10.3482 22.2441 10.5615 22.3866C10.7747 22.529 11.0205 22.6045 11.2713 22.6045H11.8666C12.2247 22.6045 12.5681 22.4508 12.8212 22.1773C13.0744 21.9038 13.2166 21.5329 13.2166 21.1461H18.6166C18.6166 21.5329 18.7589 21.9038 19.0121 22.1773C19.2652 22.4508 19.6086 22.6045 19.9666 22.6045H20.562C20.8128 22.6045 21.0586 22.529 21.2718 22.3866C21.4851 22.2441 21.6575 22.0403 21.7696 21.798L22.5242 20.1675C22.618 19.9655 22.6666 19.7416 22.6666 19.5156V16.2356C22.6666 15.9816 22.6052 15.732 22.4884 15.5115L20.0719 10.943C19.9539 10.7198 19.7834 10.5343 19.5776 10.4052C19.3718 10.2761 19.1381 10.2081 18.9001 10.208H12.9331Z" fill="#FA967C"/>
<g style="mix-blend-mode:multiply">
<path d="M10.5578 22.3882C10.3445 22.2458 10.1722 22.042 10.0601 21.7996L9.68279 20.9844H22.1433L21.766 21.7996C21.6539 22.042 21.4815 22.2458 21.2682 22.3882C21.0549 22.5307 20.8091 22.6061 20.5584 22.6061H19.963C19.605 22.6061 19.2616 22.4525 19.0084 22.179C18.7553 21.9055 18.613 21.5345 18.613 21.1477H13.213C13.213 21.5345 13.0708 21.9055 12.8176 22.179C12.5645 22.4525 12.2211 22.6061 11.863 22.6061H11.2677C11.0169 22.6061 10.7711 22.5307 10.5578 22.3882Z" fill="#D63D4A"/>
</g>
<g style="mix-blend-mode:multiply">
<path d="M11.4139 14.5513L12.5162 12.0713C12.6157 11.8474 12.8377 11.7031 13.0827 11.7031H18.8902C19.1352 11.7031 19.3573 11.8474 19.4568 12.0713L20.559 14.5513C20.7412 14.9613 20.4411 15.4231 19.9924 15.4231H11.9805C11.5318 15.4231 11.2317 14.9613 11.4139 14.5513Z" fill="#D63D4A"/>
</g>
<circle cx="12.5766" cy="18.2679" r="0.93" fill="white"/>
<circle cx="19.3964" cy="18.2679" r="0.93" fill="white"/>
</g>
</svg>
