<svg width="32" height="33" viewBox="0 0 32 33" fill="none" xmlns="http://www.w3.org/2000/svg">
<g style="mix-blend-mode:multiply">
<path fill-rule="evenodd" clip-rule="evenodd" d="M10.7114 5.33203C10.2763 5.33218 9.84907 5.45656 9.47284 5.69255C9.09661 5.92855 8.78481 6.26778 8.56903 6.67588L4.15099 15.0283C3.93753 15.4314 3.82522 15.8878 3.8252 16.3522V22.3488C3.82522 22.7626 3.91437 23.1706 4.08559 23.5407L5.4653 26.5217C5.67023 26.9648 5.98533 27.3374 6.37528 27.5978C6.76523 27.8583 7.21462 27.9962 7.67308 27.9962H8.76154C9.41614 27.9962 10.0439 27.7153 10.5068 27.2153C10.9697 26.7152 11.2297 26.037 11.2297 25.3299H21.1024C21.1024 26.037 21.3625 26.7152 21.8253 27.2153C22.2882 27.7153 22.916 27.9962 23.5706 27.9962H24.659C25.1175 27.9962 25.5669 27.8583 25.9569 27.5978C26.3468 27.3374 26.6619 26.9648 26.8668 26.5217L28.2465 23.5407C28.4181 23.1714 28.5069 22.7621 28.5069 22.3488V16.3522C28.5069 15.8878 28.3946 15.4314 28.1811 15.0283L23.7631 6.67588C23.5473 6.26778 23.2355 5.92855 22.8593 5.69255C22.4831 5.45656 22.0558 5.33218 21.6207 5.33203H10.7114Z" fill="#FA967C"/>
<g style="mix-blend-mode:multiply">
<path d="M6.36888 27.5998C5.97893 27.3394 5.66383 26.9667 5.4589 26.5237L4.76904 25.0332H27.5503L26.8604 26.5237C26.6555 26.9667 26.3404 27.3394 25.9504 27.5998C25.5605 27.8602 25.1111 27.9982 24.6527 27.9982H23.5642C22.9096 27.9982 22.2818 27.7173 21.8189 27.2173C21.3561 26.7172 21.096 26.039 21.096 25.3318H11.2233C11.2233 26.039 10.9633 26.7172 10.5004 27.2173C10.0375 27.7173 9.40974 27.9982 8.75514 27.9982H7.66668C7.20822 27.9982 6.75883 27.8602 6.36888 27.5998Z" fill="#D63D4A"/>
</g>
<g style="mix-blend-mode:multiply">
<path d="M7.7564 13.6722L10.0235 8.57128C10.1599 8.26426 10.4644 8.06641 10.8003 8.06641H21.7864C22.1223 8.06641 22.4268 8.26426 22.5632 8.57128L24.8303 13.6722C25.0802 14.2344 24.6687 14.8676 24.0534 14.8676H8.53327C7.91806 14.8676 7.50653 14.2344 7.7564 13.6722Z" fill="#D63D4A"/>
</g>
<ellipse cx="10.0592" cy="20.0675" rx="1.7003" ry="1.7003" fill="white"/>
<ellipse cx="22.5284" cy="20.0675" rx="1.7003" ry="1.7003" fill="white"/>
<g style="mix-blend-mode:multiply">
<ellipse cx="25.4998" cy="11.3314" rx="5.33333" ry="5.33333" fill="#D63D4A"/>
</g>
<path d="M28.8332 9.37102C28.8332 9.55132 28.7977 9.72986 28.7287 9.89643C28.6597 10.063 28.5586 10.2144 28.4312 10.3419C28.3037 10.4694 28.1524 10.5705 27.9859 10.6395C27.8193 10.7085 27.6409 10.744 27.4606 10.744C27.2804 10.744 27.1019 10.7085 26.9354 10.6395C26.7688 10.5705 26.6175 10.4694 26.4901 10.3419C26.3626 10.2144 26.2615 10.063 26.1926 9.89643C26.1236 9.72986 26.0881 9.55132 26.0881 9.37102C26.0881 9.00688 26.2327 8.65766 26.4901 8.40018C26.7475 8.1427 27.0966 7.99805 27.4606 7.99805C27.8246 7.99805 28.1738 8.1427 28.4312 8.40018C28.6886 8.65766 28.8332 9.00688 28.8332 9.37102ZM24.9791 13.7233C25.0817 14.0329 25.291 14.2958 25.5696 14.4651C25.8483 14.6344 26.178 14.699 26.4999 14.6474C26.8218 14.5958 27.1149 14.4313 27.3266 14.1834C27.5384 13.9355 27.6551 13.6203 27.6559 13.2942C27.656 12.9581 27.5328 12.6337 27.3098 12.3824C27.0867 12.1311 26.7793 11.9704 26.4457 11.9306C26.3762 12.3305 26.2046 12.7055 25.9477 13.0196C25.6907 13.3337 25.3571 13.5761 24.9791 13.7233ZM26.0881 11.5285C26.0881 12.0487 25.8815 12.5476 25.5138 12.9155C25.1461 13.2833 24.6473 13.4899 24.1273 13.4899C23.6073 13.4899 23.1085 13.2833 22.7408 12.9155C22.3731 12.5476 22.1665 12.0487 22.1665 11.5285C22.1665 11.0084 22.3731 10.5095 22.7408 10.1416C23.1085 9.7738 23.6073 9.56716 24.1273 9.56716C24.6473 9.56716 25.1461 9.7738 25.5138 10.1416C25.8815 10.5095 26.0881 11.0084 26.0881 11.5285ZM24.1387 10.5498C24.1213 10.5988 24.1241 10.6527 24.1465 10.6996C24.1688 10.7466 24.2089 10.7827 24.2579 10.8001C24.5363 10.8985 24.7575 11.1194 24.8559 11.3979C24.8639 11.423 24.8768 11.4462 24.8939 11.4662C24.911 11.4861 24.932 11.5024 24.9555 11.5141C24.9791 11.5258 25.0047 11.5327 25.031 11.5343C25.0572 11.5359 25.0835 11.5321 25.1083 11.5233C25.1331 11.5146 25.1558 11.5009 25.1752 11.4831C25.1946 11.4653 25.2102 11.4439 25.2211 11.4199C25.2321 11.396 25.2381 11.3701 25.2388 11.3438C25.2395 11.3176 25.2349 11.2914 25.2253 11.2669C25.1571 11.0739 25.0466 10.8985 24.9018 10.7538C24.7571 10.609 24.5818 10.4984 24.3889 10.4302C24.3646 10.4216 24.3388 10.4179 24.3131 10.4193C24.2874 10.4206 24.2622 10.427 24.239 10.4382C24.2158 10.4493 24.1949 10.4648 24.1777 10.484C24.1605 10.5032 24.1472 10.5255 24.1387 10.5498Z" fill="white"/>
</g>
</svg>
