<svg width="32" height="33" viewBox="0 0 32 33" fill="none" xmlns="http://www.w3.org/2000/svg">
<path d="M2.83301 8.66667C2.83301 7.19391 3.96059 6 5.35153 6H22.9812C24.3721 6 25.4997 7.19391 25.4997 8.66667V22C25.4997 23.4728 24.3721 24.6667 22.9812 24.6667H5.35153C3.96059 24.6667 2.83301 23.4728 2.83301 22V8.66667Z" fill="#FA967C"/>
<g style="mix-blend-mode:multiply">
<path d="M20.1665 2.93359C20.7555 2.93359 21.2327 3.41105 21.2329 4V6H23.4995C24.604 6 25.4993 6.89558 25.4995 8V11.334H2.8335V8C2.83367 6.89558 3.72904 6 4.8335 6H7.1001V4C7.10027 3.41105 7.57751 2.93359 8.1665 2.93359C8.7555 2.93359 9.23273 3.41105 9.23291 4V6H19.1001V4C19.1003 3.41105 19.5775 2.93359 20.1665 2.93359Z" fill="#D63D4A"/>
</g>
<g style="mix-blend-mode:multiply">
<circle cx="24.1663" cy="20.6654" r="5.33333" fill="white"/>
<circle cx="24.1663" cy="20.6654" r="5.33333" fill="#D63D4A"/>
</g>
<path d="M26.4525 20.0926C26.6929 19.9421 27.0137 19.9757 27.2169 20.1889C27.4199 20.4023 27.4376 20.7245 27.2754 20.9571L27.196 21.0509L23.9916 24.0991C23.8742 24.2106 23.7173 24.2714 23.5554 24.267C23.3934 24.2626 23.2395 24.1935 23.1283 24.0756L20.9981 21.8165L20.9239 21.7189C20.7747 21.4778 20.8099 21.1579 21.0241 20.9558C21.2385 20.7537 21.5604 20.7367 21.7924 20.8999L21.8861 20.9806L23.5945 22.7931L26.3549 20.1681L26.4525 20.0926Z" fill="white"/>
</svg>
