<svg width="32" height="33" viewBox="0 0 32 33" fill="none" xmlns="http://www.w3.org/2000/svg">
<g style="mix-blend-mode:multiply">
<path d="M29.499 16.6794C29.499 15.3737 28.6699 14.2128 27.4356 13.7884L25.4689 13.1133H4.17471C3.43395 13.1133 2.83301 13.7142 2.83301 14.455V19.7884H29.4997L29.499 16.6794Z" fill="#FA967C"/>
<path d="M2.83301 19.7884L2.83301 20.5181C2.83301 21.2222 3.40358 21.7927 4.10762 21.7927H28.1573C28.898 21.7927 29.499 21.1918 29.499 20.451L29.4997 19.7884H2.83301Z" fill="#FA967C"/>
<g style="mix-blend-mode:multiply">
<path d="M24.3565 25.8721C26.3065 25.8721 27.8873 24.2913 27.8873 22.3413C27.8873 20.3913 26.3065 18.8105 24.3565 18.8105C22.4065 18.8105 20.8257 20.3913 20.8257 22.3413C20.8257 24.2913 22.4065 25.8721 24.3565 25.8721Z" fill="#D63D4A"/>
</g>
<path d="M24.3564 23.9461C25.2427 23.9461 25.9613 23.2276 25.9613 22.3412C25.9613 21.4549 25.2427 20.7363 24.3564 20.7363C23.47 20.7363 22.7515 21.4549 22.7515 22.3412C22.7515 23.2276 23.47 23.9461 24.3564 23.9461Z" fill="white"/>
<g style="mix-blend-mode:multiply">
<path d="M7.97122 25.8721C9.92123 25.8721 11.502 24.2913 11.502 22.3413C11.502 20.3913 9.92123 18.8105 7.97122 18.8105C6.02122 18.8105 4.44043 20.3913 4.44043 22.3413C4.44043 24.2913 6.02122 25.8721 7.97122 25.8721Z" fill="#D63D4A"/>
</g>
<path d="M7.97161 23.9461C8.85797 23.9461 9.57651 23.2276 9.57651 22.3412C9.57651 21.4549 8.85797 20.7363 7.97161 20.7363C7.08524 20.7363 6.3667 21.4549 6.3667 22.3412C6.3667 23.2276 7.08524 23.9461 7.97161 23.9461Z" fill="white"/>
<g style="mix-blend-mode:multiply">
<path d="M29.4961 19.1961H28.4262C27.54 19.1961 26.8213 18.4774 26.8213 17.5912C26.8213 16.705 27.54 15.9863 28.4262 15.9863H29.4961V19.1961Z" fill="#D63D4A"/>
</g>
<g style="mix-blend-mode:multiply">
<path d="M21.5164 8.05848C20.8307 7.13625 19.1805 6.375 18.0845 6.375H9.02115C7.66179 6.375 6.70752 7.52856 6.24524 8.67849L4.48047 13.1152H25.4308L21.5164 8.05848Z" fill="#D63D4A"/>
</g>
</g>
</svg>
