<svg width="32" height="32" viewBox="0 0 32 32" fill="none" xmlns="http://www.w3.org/2000/svg">
<g style="mix-blend-mode:multiply">
<path fill-rule="evenodd" clip-rule="evenodd" d="M10.5449 4.6665C10.1098 4.66666 9.68256 4.79103 9.30633 5.02703C8.93011 5.26302 8.61831 5.60226 8.40252 6.01036L3.98449 14.3628C3.77102 14.7659 3.65872 15.2222 3.65869 15.6866V21.6833C3.65872 22.097 3.74787 22.5051 3.91908 22.8752L5.29879 25.8562C5.50372 26.2992 5.81882 26.6719 6.20878 26.9323C6.59873 27.1927 7.04812 27.3307 7.50657 27.3307H8.59504C9.24964 27.3307 9.87743 27.0498 10.3403 26.5497C10.8032 26.0497 11.0632 25.3715 11.0632 24.6643H20.9359C20.9359 25.3715 21.1959 26.0497 21.6588 26.5497C22.1217 27.0498 22.7495 27.3307 23.4041 27.3307H24.4925C24.951 27.3307 25.4004 27.1927 25.7903 26.9323C26.1803 26.6719 26.4954 26.2992 26.7003 25.8562L28.08 22.8752C28.2516 22.5059 28.3404 22.0966 28.3404 21.6833V15.6866C28.3404 15.2222 28.2281 14.7659 28.0146 14.3628L23.5966 6.01036C23.3808 5.60226 23.069 5.26302 22.6928 5.02703C22.3166 4.79103 21.8893 4.66666 21.4542 4.6665H10.5449Z" fill="#FA967C"/>
<g style="mix-blend-mode:multiply">
<path d="M6.20238 26.9348C5.81242 26.6743 5.49732 26.3017 5.29239 25.8587L4.60254 24.3682H27.3838L26.6939 25.8587C26.489 26.3017 26.1739 26.6743 25.7839 26.9348C25.394 27.1952 24.9446 27.3332 24.4861 27.3332H23.3977C22.7431 27.3332 22.1153 27.0523 21.6524 26.5522C21.1895 26.0522 20.9295 25.374 20.9295 24.6668H11.0568C11.0568 25.374 10.7968 26.0522 10.3339 26.5522C9.87103 27.0523 9.24324 27.3332 8.58864 27.3332H7.50018C7.04172 27.3332 6.59233 27.1952 6.20238 26.9348Z" fill="#D63D4A"/>
</g>
<g style="mix-blend-mode:multiply">
<path d="M7.58989 13.0057L9.85696 7.90477C9.99341 7.59776 10.2979 7.3999 10.6338 7.3999H21.6199C21.9558 7.3999 22.2603 7.59776 22.3967 7.90477L24.6638 13.0057C24.9137 13.5679 24.5021 14.2011 23.8869 14.2011H8.36677C7.75155 14.2011 7.34003 13.5679 7.58989 13.0057Z" fill="#D63D4A"/>
</g>
<ellipse cx="9.89268" cy="19.4015" rx="1.7003" ry="1.7003" fill="white"/>
<ellipse cx="22.3619" cy="19.4015" rx="1.7003" ry="1.7003" fill="white"/>
<g style="mix-blend-mode:multiply">
<ellipse cx="25.3333" cy="10.6663" rx="5.33333" ry="5.33333" fill="#D63D4A"/>
</g>
<path d="M28.6667 8.70598C28.6667 8.88628 28.6312 9.06482 28.5622 9.23139C28.4932 9.39797 28.3921 9.54933 28.2647 9.67682C28.1372 9.80431 27.9859 9.90544 27.8194 9.97444C27.6528 10.0434 27.4744 10.079 27.2941 10.079C27.1139 10.079 26.9354 10.0434 26.7689 9.97444C26.6023 9.90544 26.451 9.80431 26.3236 9.67682C26.1961 9.54933 26.095 9.39797 26.026 9.23139C25.9571 9.06482 25.9216 8.88628 25.9216 8.70598C25.9216 8.34185 26.0662 7.99262 26.3236 7.73514C26.581 7.47766 26.9301 7.33301 27.2941 7.33301C27.6581 7.33301 28.0073 7.47766 28.2647 7.73514C28.5221 7.99262 28.6667 8.34185 28.6667 8.70598ZM24.8125 13.0583C24.9152 13.3678 25.1245 13.6308 25.4031 13.8001C25.6818 13.9693 26.0115 14.034 26.3334 13.9824C26.6553 13.9308 26.9484 13.7663 27.1601 13.5184C27.3719 13.2705 27.4886 12.9553 27.4894 12.6292C27.4895 12.2931 27.3663 11.9687 27.1433 11.7174C26.9202 11.4661 26.6128 11.3053 26.2792 11.2656C26.2097 11.6654 26.0381 12.0405 25.7812 12.3546C25.5242 12.6686 25.1906 12.911 24.8125 13.0583ZM25.9216 10.8635C25.9216 11.3837 25.715 11.8826 25.3473 12.2504C24.9795 12.6183 24.4808 12.8249 23.9608 12.8249C23.4408 12.8249 22.942 12.6183 22.5743 12.2504C22.2066 11.8826 22 11.3837 22 10.8635C22 10.3433 22.2066 9.84443 22.5743 9.4766C22.942 9.10877 23.4408 8.90212 23.9608 8.90212C24.4808 8.90212 24.9795 9.10877 25.3473 9.4766C25.715 9.84443 25.9216 10.3433 25.9216 10.8635ZM23.9722 9.88478C23.9548 9.93378 23.9576 9.98766 23.98 10.0346C24.0023 10.0815 24.0424 10.1177 24.0914 10.135C24.3698 10.2335 24.591 10.4544 24.6894 10.7329C24.6974 10.7579 24.7103 10.7811 24.7274 10.8011C24.7445 10.8211 24.7655 10.8374 24.789 10.8491C24.8126 10.8608 24.8382 10.8676 24.8645 10.8692C24.8907 10.8708 24.917 10.8671 24.9418 10.8583C24.9666 10.8495 24.9893 10.8358 25.0087 10.8181C25.0281 10.8003 25.0437 10.7788 25.0546 10.7549C25.0656 10.731 25.0716 10.7051 25.0723 10.6788C25.073 10.6525 25.0684 10.6263 25.0588 10.6019C24.9906 10.4088 24.8801 10.2335 24.7353 10.0887C24.5906 9.94395 24.4153 9.83339 24.2224 9.76513C24.1981 9.75655 24.1723 9.75284 24.1466 9.75421C24.1209 9.75558 24.0957 9.762 24.0725 9.77311C24.0492 9.78423 24.0284 9.7998 24.0112 9.81896C23.994 9.83812 23.9807 9.86049 23.9722 9.88478Z" fill="white"/>
</g>
</svg>
