<svg width="32" height="33" viewBox="0 0 32 33" fill="none" xmlns="http://www.w3.org/2000/svg">
<rect width="32" height="32" transform="translate(0 0.5)" fill="white"/>
<g style="mix-blend-mode:multiply">
<path fill-rule="evenodd" clip-rule="evenodd" d="M12.0755 8.16699C11.7492 8.16711 11.4287 8.26039 11.1465 8.43738C10.8644 8.61438 10.6305 8.86881 10.4687 9.17488L7.15515 15.4392C6.99505 15.7415 6.91083 16.0838 6.9108 16.4321V20.9296C6.91082 21.2399 6.97769 21.5459 7.1061 21.8235L8.14088 24.0593C8.29458 24.3915 8.5309 24.671 8.82337 24.8663C9.11583 25.0617 9.45288 25.1651 9.79672 25.1651H10.6131C11.104 25.1651 11.5749 24.9544 11.922 24.5794C12.2692 24.2044 12.4642 23.6957 12.4642 23.1654H19.8687C19.8687 23.6957 20.0637 24.2044 20.4109 24.5794C20.7581 24.9544 21.2289 25.1651 21.7198 25.1651H22.5362C22.88 25.1651 23.2171 25.0617 23.5095 24.8663C23.802 24.671 24.0383 24.3915 24.192 24.0593L25.2268 21.8235C25.3555 21.5465 25.4221 21.2396 25.4221 20.9296V16.4321C25.4221 16.0838 25.3379 15.7415 25.1778 15.4392L21.8642 9.17488C21.7024 8.86881 21.4685 8.61438 21.1864 8.43738C20.9042 8.26039 20.5837 8.16711 20.2575 8.16699H12.0755Z" fill="#FA967C"/>
<g style="mix-blend-mode:multiply">
<path d="M8.81843 24.8683C8.52597 24.673 8.28964 24.3935 8.13594 24.0612L7.61855 22.9434H24.7045L24.1871 24.0612C24.0334 24.3935 23.7971 24.673 23.5046 24.8683C23.2121 25.0636 22.8751 25.1671 22.5313 25.1671H21.7149C21.224 25.1671 20.7531 24.9564 20.406 24.5814C20.0588 24.2064 19.8638 23.6977 19.8638 23.1673H12.4593C12.4593 23.6977 12.2642 24.2064 11.9171 24.5814C11.5699 24.9564 11.0991 25.1671 10.6081 25.1671H9.79178C9.44794 25.1671 9.1109 25.0636 8.81843 24.8683Z" fill="#D63D4A"/>
</g>
<g style="mix-blend-mode:multiply">
<path d="M9.99187 14.1223L11.5032 10.7217C11.6397 10.4147 11.9442 10.2168 12.2801 10.2168H20.2434C20.5794 10.2168 20.8838 10.4147 21.0203 10.7217L22.5317 14.1223C22.7815 14.6845 22.37 15.3177 21.7548 15.3177H10.7687C10.1535 15.3177 9.742 14.6845 9.99187 14.1223Z" fill="#D63D4A"/>
</g>
<circle cx="11.5864" cy="19.2186" r="1.27522" fill="white"/>
<circle cx="20.9381" cy="19.2186" r="1.27522" fill="white"/>
<g style="mix-blend-mode:multiply">
<circle cx="23.1667" cy="12.667" r="4" fill="#D63D4A"/>
</g>
<path d="M25.6667 11.1967C25.6667 11.3319 25.64 11.4658 25.5883 11.5908C25.5366 11.7157 25.4607 11.8292 25.3652 11.9249C25.2696 12.0205 25.1561 12.0963 25.0312 12.1481C24.9063 12.1998 24.7724 12.2265 24.6373 12.2265C24.5021 12.2265 24.3682 12.1998 24.2433 12.1481C24.1184 12.0963 24.0049 12.0205 23.9093 11.9249C23.8138 11.8292 23.7379 11.7157 23.6862 11.5908C23.6345 11.4658 23.6078 11.3319 23.6078 11.1967C23.6078 10.9236 23.7163 10.6617 23.9093 10.4686C24.1024 10.2755 24.3642 10.167 24.6373 10.167C24.9103 10.167 25.1721 10.2755 25.3652 10.4686C25.5582 10.6617 25.6667 10.9236 25.6667 11.1967ZM22.7761 14.461C22.853 14.6931 23.01 14.8903 23.219 15.0173C23.428 15.1442 23.6753 15.1927 23.9167 15.154C24.1581 15.1153 24.3779 14.992 24.5368 14.806C24.6956 14.6201 24.7831 14.3837 24.7837 14.1391C24.7838 13.8871 24.6914 13.6438 24.5241 13.4553C24.3568 13.2668 24.1263 13.1462 23.8761 13.1164C23.8239 13.4163 23.6953 13.6976 23.5025 13.9332C23.3098 14.1687 23.0596 14.3505 22.7761 14.461ZM23.6078 12.8149C23.6078 13.205 23.4529 13.5792 23.1771 13.8551C22.9013 14.1309 22.5273 14.2859 22.1373 14.2859C21.7472 14.2859 21.3732 14.1309 21.0974 13.8551C20.8216 13.5792 20.6667 13.205 20.6667 12.8149C20.6667 12.4247 20.8216 12.0506 21.0974 11.7747C21.3732 11.4988 21.7472 11.3438 22.1373 11.3438C22.5273 11.3438 22.9013 11.4988 23.1771 11.7747C23.4529 12.0506 23.6078 12.4247 23.6078 12.8149ZM22.1458 12.0808C22.1328 12.1176 22.1349 12.158 22.1517 12.1932C22.1684 12.2284 22.1985 12.2555 22.2352 12.2685C22.444 12.3424 22.6099 12.508 22.6837 12.7169C22.6897 12.7357 22.6994 12.7531 22.7122 12.7681C22.7251 12.783 22.7408 12.7953 22.7584 12.8041C22.7761 12.8128 22.7953 12.818 22.815 12.8192C22.8347 12.8203 22.8544 12.8176 22.873 12.811C22.8916 12.8044 22.9087 12.7941 22.9232 12.7808C22.9377 12.7675 22.9495 12.7514 22.9576 12.7334C22.9658 12.7155 22.9703 12.6961 22.9709 12.6763C22.9714 12.6566 22.968 12.637 22.9608 12.6186C22.9096 12.4739 22.8267 12.3424 22.7182 12.2338C22.6096 12.1252 22.4782 12.0423 22.3334 11.9911C22.3152 11.9847 22.2959 11.9819 22.2766 11.9829C22.2573 11.9839 22.2384 11.9887 22.221 11.9971C22.2036 12.0054 22.188 12.0171 22.1751 12.0315C22.1622 12.0458 22.1522 12.0626 22.1458 12.0808Z" fill="white"/>
</g>
</svg>
