<svg width="32" height="33" viewBox="0 0 32 33" fill="none" xmlns="http://www.w3.org/2000/svg">
<rect width="32" height="32" transform="translate(0 0.5)" fill="white"/>
<g style="mix-blend-mode:multiply">
<path d="M26.1661 16.6765C26.1661 15.6973 25.5444 14.8266 24.6186 14.5083L23.1436 14.002H7.17294C6.61737 14.002 6.16666 14.4527 6.16666 15.0082V19.0083H26.1667L26.1661 16.6765Z" fill="#FA967C"/>
<path d="M6.16666 19.0083L6.16666 19.5556C6.16666 20.0836 6.59459 20.5115 7.12262 20.5115H25.1599C25.7154 20.5115 26.1661 20.0608 26.1661 19.5053L26.1667 19.0083H6.16666Z" fill="#FA967C"/>
<g style="mix-blend-mode:multiply">
<path d="M22.3091 23.5706C23.7716 23.5706 24.9572 22.385 24.9572 20.9225C24.9572 19.46 23.7716 18.2744 22.3091 18.2744C20.8466 18.2744 19.661 19.46 19.661 20.9225C19.661 22.385 20.8466 23.5706 22.3091 23.5706Z" fill="#D63D4A"/>
</g>
<path d="M22.3092 22.1261C22.9739 22.1261 23.5129 21.5872 23.5129 20.9224C23.5129 20.2577 22.9739 19.7188 22.3092 19.7188C21.6444 19.7188 21.1055 20.2577 21.1055 20.9224C21.1055 21.5872 21.6444 22.1261 22.3092 22.1261Z" fill="white"/>
<g style="mix-blend-mode:multiply">
<path d="M10.0203 23.5706C11.4828 23.5706 12.6684 22.385 12.6684 20.9225C12.6684 19.46 11.4828 18.2744 10.0203 18.2744C8.55782 18.2744 7.37223 19.46 7.37223 20.9225C7.37223 22.385 8.55782 23.5706 10.0203 23.5706Z" fill="#D63D4A"/>
</g>
<path d="M10.0203 22.1261C10.6851 22.1261 11.224 21.5872 11.224 20.9224C11.224 20.2577 10.6851 19.7188 10.0203 19.7188C9.35554 19.7188 8.81664 20.2577 8.81664 20.9224C8.81664 21.5872 9.35554 22.1261 10.0203 22.1261Z" fill="white"/>
<g style="mix-blend-mode:multiply">
<path d="M26.164 18.5646H25.3616C24.6969 18.5646 24.1579 18.0256 24.1579 17.3609C24.1579 16.6962 24.6969 16.1572 25.3616 16.1572H26.164V18.5646Z" fill="#D63D4A"/>
</g>
<g style="mix-blend-mode:multiply">
<path d="M20.1793 10.2109C19.665 9.51918 18.4273 8.94824 17.6054 8.94824H10.8078C9.78831 8.94824 9.0726 9.81341 8.72589 10.6759L7.40231 14.0034H23.1151L20.1793 10.2109Z" fill="#D63D4A"/>
</g>
</g>
</svg>
