<svg width="32" height="33" viewBox="0 0 32 33" fill="none" xmlns="http://www.w3.org/2000/svg">
<g style="mix-blend-mode:multiply">
<path fill-rule="evenodd" clip-rule="evenodd" d="M9.17455 6.12117C7.20911 6.12117 5.62215 7.70814 5.62215 9.67358V11.4375C5.62215 11.9315 5.22164 12.332 4.72758 12.332C4.23352 12.332 3.83301 11.9315 3.83301 11.4375V9.67358C3.83301 6.72002 6.221 4.33203 9.17455 4.33203H10.9384C11.4325 4.33203 11.833 4.73254 11.833 5.2266C11.833 5.72066 11.4325 6.12117 10.9384 6.12117H9.17455Z" fill="#D63D4A"/>
<path fill-rule="evenodd" clip-rule="evenodd" d="M20.1663 5.55994C20.1663 5.06588 20.5669 4.66536 21.0609 4.66536H22.8248C25.7784 4.66536 28.1663 7.05335 28.1663 10.0069V11.7708C28.1663 12.2649 27.7658 12.6654 27.2718 12.6654C26.7777 12.6654 26.3772 12.2649 26.3772 11.7708V10.0069C26.3772 8.04147 24.7902 6.45451 22.8248 6.45451H21.0609C20.5669 6.45451 20.1663 6.05399 20.1663 5.55994Z" fill="#D63D4A"/>
<path fill-rule="evenodd" clip-rule="evenodd" d="M26.9384 20.332C27.4325 20.332 27.833 20.7325 27.833 21.2266V22.9905C27.833 25.944 25.445 28.332 22.4915 28.332H20.7276C20.2335 28.332 19.833 27.9315 19.833 27.4375C19.833 26.9434 20.2335 26.5429 20.7276 26.5429H22.4915C24.4569 26.5429 26.0439 24.9559 26.0439 22.9905V21.2266C26.0439 20.7325 26.4444 20.332 26.9384 20.332Z" fill="#D63D4A"/>
<path fill-rule="evenodd" clip-rule="evenodd" d="M4.72758 20.2088C5.22164 20.2088 5.62215 20.6093 5.62215 21.1034V22.8673C5.62215 24.8327 7.20911 26.4197 9.17455 26.4197H10.9384C11.4325 26.4197 11.833 26.8202 11.833 27.3143C11.833 27.8083 11.4325 28.2088 10.9384 28.2088H9.17455C6.221 28.2088 3.83301 25.8208 3.83301 22.8673V21.1034C3.83301 20.6093 4.23352 20.2088 4.72758 20.2088Z" fill="#D63D4A"/>
<path fill-rule="evenodd" clip-rule="evenodd" d="M11.855 8.05469C11.5377 8.0548 11.2261 8.1455 10.9517 8.31761C10.6774 8.48972 10.45 8.73712 10.2926 9.03474L7.07061 15.126C6.91493 15.42 6.83303 15.7528 6.83301 16.0915V20.4648C6.83303 20.7665 6.89804 21.0641 7.02291 21.334L8.02911 23.508C8.17856 23.8311 8.40836 24.1028 8.69274 24.2928C8.97713 24.4827 9.30486 24.5833 9.63921 24.5833H10.433C10.9104 24.5833 11.3682 24.3785 11.7058 24.0138C12.0434 23.6491 12.233 23.1545 12.233 22.6388H19.433C19.433 23.1545 19.6227 23.6491 19.9602 24.0138C20.2978 24.3785 20.7556 24.5833 21.233 24.5833H22.0268C22.3612 24.5833 22.6889 24.4827 22.9733 24.2928C23.2577 24.1028 23.4875 23.8311 23.6369 23.508L24.6431 21.334C24.7682 21.0647 24.833 20.7662 24.833 20.4648V16.0915C24.833 15.7528 24.7511 15.42 24.5954 15.126L21.3734 9.03474C21.216 8.73712 20.9886 8.48972 20.7143 8.31761C20.4399 8.1455 20.1283 8.0548 19.811 8.05469H11.855Z" fill="#FA967C"/>
<g style="mix-blend-mode:multiply">
<path d="M8.68822 24.2937C8.40383 24.1037 8.17404 23.832 8.02458 23.5089L7.52148 22.4219H24.1355L23.6324 23.5089C23.4829 23.832 23.2531 24.1037 22.9688 24.2937C22.6844 24.4836 22.3566 24.5842 22.0223 24.5842H21.2285C20.7511 24.5842 20.2933 24.3793 19.9557 24.0147C19.6181 23.65 19.4285 23.1554 19.4285 22.6397H12.2285C12.2285 23.1554 12.0388 23.65 11.7013 24.0147C11.3637 24.3793 10.9059 24.5842 10.4285 24.5842H9.63468C9.30034 24.5842 8.97261 24.4836 8.68822 24.2937Z" fill="#D63D4A"/>
</g>
<g style="mix-blend-mode:multiply">
<path d="M9.70046 14.137L11.3538 10.417C11.4533 10.1931 11.6753 10.0488 11.9204 10.0488H19.9323C20.1773 10.0488 20.3993 10.1931 20.4989 10.417L22.1522 14.137C22.3344 14.547 22.0343 15.0088 21.5856 15.0088H10.267C9.81835 15.0088 9.51824 14.547 9.70046 14.137Z" fill="#D63D4A"/>
</g>
<ellipse cx="11.3796" cy="18.8005" rx="1.24" ry="1.24" fill="white"/>
<ellipse cx="20.4729" cy="18.8005" rx="1.24" ry="1.24" fill="white"/>
</g>
</svg>
