<svg width="32" height="33" viewBox="0 0 32 33" fill="none" xmlns="http://www.w3.org/2000/svg">
<rect width="32" height="32" transform="translate(0 0.5)" fill="white"/>
<path d="M6.16666 10.667C6.16666 9.56242 7.01235 8.66699 8.05555 8.66699H21.2778C22.321 8.66699 23.1667 9.56242 23.1667 10.667V20.667C23.1667 21.7716 22.321 22.667 21.2778 22.667H8.05555C7.01235 22.667 6.16666 21.7716 6.16666 20.667V10.667Z" fill="#FA967C"/>
<g style="mix-blend-mode:multiply">
<path d="M19.1667 6.36719C19.6085 6.36719 19.9665 6.72516 19.9665 7.16699V8.66699H21.1667C22.2712 8.66699 23.1667 9.56242 23.1667 10.667V12.667H6.16666V10.667C6.16666 9.56242 7.06209 8.66699 8.16666 8.66699H9.36686V7.16699C9.36686 6.72516 9.72484 6.36719 10.1667 6.36719C10.6085 6.36719 10.9665 6.72516 10.9665 7.16699V8.66699H18.3669V7.16699C18.3669 6.72516 18.7248 6.36719 19.1667 6.36719Z" fill="#D63D4A"/>
</g>
<g style="mix-blend-mode:multiply">
<circle cx="22.1667" cy="20.667" r="4" fill="white"/>
<circle cx="22.1667" cy="20.667" r="4" fill="#D63D4A"/>
</g>
<path d="M23.8813 19.2364C24.0615 19.1236 24.3022 19.1488 24.4545 19.3087C24.6068 19.4687 24.6201 19.7104 24.4985 19.8849L24.4389 19.9552L22.0356 22.2413C21.9476 22.3249 21.8298 22.3706 21.7085 22.3673C21.5869 22.364 21.4716 22.3121 21.3881 22.2237L19.7905 20.5294L19.7348 20.4561C19.6229 20.2754 19.6494 20.0354 19.81 19.8839C19.9708 19.7323 20.2122 19.7195 20.3862 19.8419L20.4565 19.9024L21.7377 21.2618L23.8081 19.2931L23.8813 19.2364Z" fill="white"/>
</svg>
