<svg width="40" height="74" viewBox="0 0 40 74" fill="none" xmlns="http://www.w3.org/2000/svg">
<path d="M0 16C0 7.16344 7.16344 0 16 0H40V74H16C7.16344 74 0 66.8366 0 58V16Z" fill="url(#paint0_linear_2691_126007)"/>
<path d="M19.5 31.623C26.1274 31.623 31.5 26.2505 31.5 19.623C31.5 12.9956 26.1274 7.62305 19.5 7.62305C12.8726 7.62305 7.5 12.9956 7.5 19.623C7.5 26.2505 12.8726 31.623 19.5 31.623Z" stroke="#98ACC5" stroke-miterlimit="10"/>
<path d="M10.2679 13.1484C10.2465 13.1804 10.2287 13.2124 10.2109 13.2444C10.2394 13.2017 10.2643 13.1555 10.2928 13.1128C10.2856 13.1235 10.275 13.1341 10.2679 13.1484Z" fill="#3A3A3A"/>
<path d="M28.7891 25.1194C28.8318 25.0518 28.8744 24.9842 28.9171 24.9131C28.8922 24.9558 28.8638 24.9985 28.8353 25.0412C28.8211 25.0661 28.8069 25.091 28.7891 25.1159V25.1194Z" fill="#3A3A3A"/>
<path d="M19.5 30.623C25.5751 30.623 30.5 25.6982 30.5 19.623C30.5 13.5479 25.5751 8.62305 19.5 8.62305C13.4249 8.62305 8.5 13.5479 8.5 19.623C8.5 25.6982 13.4249 30.623 19.5 30.623Z" stroke="#052B57" stroke-miterlimit="10"/>
<path d="M27.1554 17.9474C24.601 16.2896 21.1893 17.0189 19.5315 19.5732H19.528C17.8701 22.124 14.4584 22.8533 11.9041 21.1955C9.38532 19.5625 8.64535 16.222 10.2107 13.6819C9.01889 15.5603 8.37853 17.8193 8.52439 20.2349C8.8588 25.8772 13.505 30.4025 19.1508 30.591C23.2278 30.7262 26.8174 28.6521 28.8345 25.4823C30.4177 22.9387 29.6812 19.5839 27.1554 17.9474Z" fill="#39506C" stroke="#052B57" stroke-miterlimit="10"/>
<path opacity="0.4" d="M22.6082 48.5932C21.5652 47.9166 20.1733 48.2153 19.4972 49.2554C18.821 50.2955 17.4292 50.5942 16.3862 49.9176C15.3576 49.2518 15.0555 47.8878 15.6957 46.8513C15.2102 47.6179 14.9476 48.5392 15.0087 49.5253C15.1454 51.8287 17.0408 53.675 19.3425 53.7505C21.0041 53.8045 22.4679 52.9588 23.2915 51.6667C23.9389 50.6302 23.6368 49.259 22.6082 48.5896V48.5932Z" fill="#052B57"/>
<path d="M15.7245 46.8123C15.7245 46.8123 15.7101 46.8385 15.6992 46.8535C15.7101 46.8348 15.7209 46.8161 15.7317 46.7974C15.7317 46.8011 15.7245 46.8086 15.7209 46.8123H15.7245Z" fill="#484848"/>
<path d="M23.2773 51.699C23.2954 51.6702 23.3135 51.645 23.3279 51.6162C23.3171 51.6342 23.3063 51.6522 23.2954 51.6702C23.2882 51.681 23.2846 51.6918 23.2773 51.7026V51.699Z" fill="#484848"/>
<path opacity="0.4" d="M19.4676 44.7566C19.3777 44.7566 19.2878 44.7602 19.2015 44.7674C19.1727 44.7674 19.1475 44.771 19.1187 44.7746C19.0576 44.7782 18.9965 44.7854 18.9353 44.7926C18.9066 44.7962 18.8778 44.7998 18.8454 44.8034C18.7843 44.8142 18.7195 44.825 18.6584 44.8358C18.6332 44.8394 18.6116 44.843 18.5865 44.8502C18.5037 44.8682 18.4174 44.8862 18.3347 44.9078C18.3239 44.9078 18.3095 44.915 18.2987 44.9186C18.2268 44.9366 18.1585 44.9582 18.0901 44.9834C18.065 44.9906 18.0398 45.0014 18.0146 45.0086C17.9571 45.0302 17.9031 45.0482 17.8456 45.0698C17.8204 45.0806 17.7952 45.0914 17.7701 45.1022C17.7089 45.1273 17.6478 45.1561 17.5902 45.1813C17.5722 45.1885 17.5579 45.1957 17.5399 45.2029C17.4644 45.2389 17.3888 45.2785 17.3133 45.3217C17.2989 45.3289 17.2845 45.3397 17.2701 45.3469C17.2126 45.3793 17.1551 45.4153 17.0975 45.4513C17.0759 45.4656 17.0544 45.48 17.0328 45.4944C16.9824 45.5268 16.9321 45.5628 16.8817 45.5988C16.8601 45.6132 16.8422 45.6276 16.8206 45.642C16.7594 45.6852 16.7019 45.732 16.6444 45.7788C16.6372 45.786 16.63 45.7896 16.6228 45.7967C16.558 45.8507 16.4933 45.9083 16.4322 45.9659C16.4178 45.9767 16.407 45.9911 16.3926 46.0019C16.3458 46.0487 16.2991 46.0955 16.2523 46.1423C16.2344 46.1602 16.22 46.1782 16.202 46.1926C16.1588 46.2394 16.1157 46.2898 16.0725 46.3366C16.0581 46.351 16.0437 46.369 16.0329 46.3834C15.9251 46.5129 15.8244 46.6497 15.7308 46.7937C15.7201 46.8117 15.7093 46.8297 15.6985 46.8476C15.0583 47.8841 15.3604 49.2482 16.389 49.914C17.432 50.5906 18.8238 50.2919 19.5 49.2518C20.1761 48.2117 21.568 47.9129 22.6109 48.5895C23.6395 49.259 23.9417 50.6266 23.2943 51.6667C23.3051 51.6487 23.3159 51.6307 23.3267 51.6127C23.3482 51.5767 23.3734 51.5371 23.395 51.5011C23.413 51.4687 23.431 51.4363 23.4489 51.4039C23.4633 51.3787 23.4777 51.35 23.4921 51.3248C23.5065 51.2924 23.5245 51.2636 23.5388 51.2312C23.5532 51.206 23.564 51.1808 23.5784 51.152C23.6036 51.098 23.6252 51.044 23.6503 50.9901C23.6611 50.9685 23.6683 50.9433 23.6755 50.9217C23.6899 50.8821 23.7043 50.8461 23.7187 50.8065C23.7295 50.7813 23.7367 50.7561 23.7474 50.7309C23.7618 50.6913 23.7762 50.6518 23.787 50.6086C23.7942 50.587 23.8014 50.5654 23.8086 50.5438C23.8266 50.4826 23.8445 50.425 23.8589 50.3638C23.8625 50.3422 23.8697 50.3242 23.8733 50.3027C23.8841 50.2559 23.8949 50.2127 23.9057 50.1659C23.9093 50.1443 23.9165 50.1191 23.9201 50.0975C23.9309 50.0435 23.9381 49.9931 23.9488 49.9392C23.9488 49.9248 23.9524 49.914 23.956 49.8996C23.9668 49.8348 23.974 49.7664 23.9812 49.7016C23.9812 49.6872 23.9812 49.6728 23.9848 49.6548C23.9884 49.6009 23.992 49.5433 23.9956 49.4893C23.9956 49.4677 23.9956 49.4497 23.9956 49.4281C23.9956 49.3597 23.9992 49.2913 23.9992 49.2194C23.9812 46.7325 21.9528 44.7351 19.4712 44.7531L19.4676 44.7566Z" fill="#BACBDE"/>
<path d="M10.0513 63.4946L8.46497 58.2447L7.17858 62.4349C7.08102 62.7476 6.87866 63.0082 6.57513 63.2028C6.27883 63.3939 5.96446 63.4911 5.64286 63.4911H3.74219L7.39539 51.5911H10.5066L9.12262 56.0975L13.3034 51.5945H16.8699L11.4027 57.2301L13.4226 63.4981H10.0513V63.4946Z" fill="url(#paint1_linear_2691_126007)"/>
<path d="M7.53261 51.7647H10.2644L8.72144 56.7958L13.3864 51.7717H16.4542L11.2003 57.1849L13.1768 63.3243H10.1885L8.46488 57.6227L7.00505 62.3827C6.92194 62.6572 6.74488 62.8831 6.47387 63.0568C6.20648 63.2305 5.92824 63.3174 5.64278 63.3174H3.98782L7.53261 51.7647ZM7.25799 51.4138L7.18211 51.664L3.63731 63.2131L3.5 63.6613H3.98782H5.64278C6.00412 63.6613 6.35101 63.5536 6.67984 63.3417C7.0195 63.1228 7.24715 62.8309 7.35555 62.4765L8.46488 58.8596L9.84161 63.4112L9.91749 63.6648H10.1921H13.1804H13.6755L13.5309 63.2097L11.6158 57.2648L16.7252 52.001L17.2962 51.4138H16.4578H13.39H13.2274L13.119 51.5319L9.53447 55.3956L10.6185 51.862L10.7558 51.4138H10.268H7.53623H7.26522H7.25799Z" fill="#98ACC5"/>
<path d="M17.6433 63.7134C16.4509 63.7134 15.5439 63.3312 14.9513 62.5808C14.3587 61.8337 14.2286 60.8018 14.5574 59.5197C14.7128 58.8943 14.9079 58.2064 15.1319 57.4768C15.356 56.7506 15.58 56.08 15.7968 55.4859C16.2268 54.2941 16.964 53.3039 17.9866 52.5465C19.0128 51.7856 20.133 51.3999 21.3146 51.3999C22.5829 51.3999 23.4899 51.8134 24.021 52.6229C24.5414 53.422 24.6606 54.4227 24.3752 55.604C24.227 56.2364 24.0427 56.9069 23.8295 57.6018C23.6163 58.2933 23.3851 58.9777 23.1357 59.6379C22.7021 60.8157 22.0011 61.799 21.058 62.5599C20.1077 63.3243 18.9622 63.7134 17.6505 63.7134H17.6433ZM20.6786 53.8286C20.3209 53.8286 19.9595 54.0023 19.6126 54.3497C19.2477 54.7111 18.9478 55.2045 18.7273 55.8194C18.5611 56.2711 18.3588 56.8896 18.1311 57.6574C17.8926 58.4496 17.73 59.0125 17.6361 59.3773C17.4843 59.9784 17.4771 60.4648 17.6072 60.8157C17.7264 61.1319 17.9432 61.2813 18.2865 61.2813C18.6876 61.2813 19.0272 61.125 19.3344 60.7984C19.656 60.4579 19.9487 59.9263 20.2088 59.2244C20.4112 58.6824 20.6244 58.0535 20.8412 57.3586C21.058 56.6672 21.2206 56.1148 21.3254 55.7187C21.4591 55.201 21.4699 54.7354 21.3615 54.3393C21.264 53.9919 21.0472 53.8286 20.6822 53.8286H20.6786Z" fill="url(#paint2_linear_2691_126007)"/>
<path d="M21.3149 51.5736H21.3185C22.5218 51.5736 23.371 51.9558 23.8696 52.7167C24.3683 53.4776 24.4767 54.4262 24.1985 55.5658C24.0503 56.1982 23.8696 56.8583 23.6564 57.5532C23.4432 58.2481 23.212 58.9221 22.9663 59.5788C22.5399 60.7358 21.8642 61.6844 20.9427 62.4244C20.0213 63.1645 18.9228 63.5362 17.6509 63.5362H17.6473C16.509 63.5362 15.6599 63.1819 15.0998 62.4731C14.5397 61.7643 14.4205 60.7949 14.7348 59.558C14.8938 58.9256 15.0817 58.2481 15.3058 57.5254C15.5298 56.7992 15.7502 56.1391 15.967 55.545C16.3862 54.381 17.098 53.4255 18.0953 52.6855C19.0927 51.9454 20.1658 51.5736 21.3113 51.5736M18.2869 61.455C18.7349 61.455 19.1288 61.2744 19.4685 60.9165C19.8081 60.5552 20.1116 60.0131 20.379 59.2835C20.585 58.731 20.7946 58.1091 21.015 57.4107C21.2354 56.7124 21.3944 56.1634 21.4992 55.7639C21.6401 55.2114 21.651 54.725 21.5317 54.2976C21.4125 53.8703 21.127 53.6583 20.679 53.6548C20.267 53.6548 19.8659 53.8459 19.4829 54.2281C19.0963 54.6103 18.7855 55.1211 18.5542 55.7604C18.388 56.2155 18.1893 56.8305 17.9544 57.6088C17.7195 58.3871 17.5533 58.9638 17.4594 59.3356C17.2968 59.9749 17.2932 60.4891 17.4377 60.8748C17.5822 61.2605 17.8677 61.455 18.2905 61.455M21.3185 51.2227H21.3149C20.09 51.2227 18.9337 51.6223 17.8749 52.4075C16.8234 53.1893 16.0646 54.2038 15.6237 55.4303C15.4069 56.0244 15.1793 56.6985 14.9552 57.4246C14.7312 58.1543 14.5361 58.8457 14.3807 59.4746C14.0374 60.8123 14.182 61.8894 14.8071 62.6815C15.4358 63.4772 16.3898 63.8802 17.6437 63.8837C19.0023 63.8837 20.1875 63.4841 21.174 62.692C22.1424 61.9137 22.8615 60.9026 23.3096 59.6935C23.5589 59.0333 23.7938 58.3419 24.0069 57.647C24.2201 56.9521 24.4044 56.2746 24.5562 55.6388C24.8561 54.4123 24.7296 53.3665 24.1804 52.5256C23.6131 51.6605 22.6519 51.2192 21.3222 51.2192L21.3185 51.2227ZM18.2832 61.455V61.1041C18.0158 61.1041 17.8677 61.0034 17.7737 60.7532C17.6545 60.4335 17.6653 59.9819 17.8063 59.4155C17.9002 59.0507 18.0628 58.4913 18.2977 57.7026C18.529 56.9382 18.7277 56.3232 18.8903 55.875C19.1035 55.2844 19.389 54.8118 19.7358 54.4679C20.0538 54.1552 20.361 54.0023 20.6717 54.0023C20.9572 54.0023 21.0981 54.11 21.174 54.3845C21.2788 54.7528 21.2643 55.1871 21.1379 55.677C21.0367 56.0696 20.8741 56.6186 20.6573 57.3065C20.4405 57.9979 20.2273 58.6233 20.0285 59.1619C19.7756 59.8429 19.4937 60.3536 19.1902 60.6768C18.9228 60.9617 18.6229 61.1006 18.2796 61.1006V61.4516L18.2832 61.455Z" fill="#98ACC5"/>
<path d="M28.9855 63.5083L28.9313 63.4353C28.6531 63.067 28.5519 62.5146 28.6242 61.7502C28.6892 61.0449 28.7145 60.4091 28.7001 59.8566C28.6965 59.5995 28.6531 59.3667 28.5736 59.1582C28.5013 58.9706 28.4363 58.9324 28.4254 58.9324H27.6594L26.579 62.4486C26.4814 62.7613 26.2791 63.0219 25.9755 63.2164C25.6792 63.4075 25.3649 63.5048 25.0433 63.5048H23.1426L26.7958 51.6047H31.3993C32.6351 51.6082 33.5096 51.98 33.9974 52.7096C34.4816 53.4323 34.5611 54.3322 34.2395 55.3815C33.9793 56.2258 33.4915 56.9624 32.7869 57.5704C32.216 58.0603 31.7245 58.3626 31.2873 58.4946C31.4246 58.6544 31.5258 58.8143 31.5908 58.9671C31.6884 59.193 31.739 59.4675 31.7498 59.7802C31.7751 60.3917 31.804 61.0553 31.8329 61.7676C31.8582 62.4416 31.9811 62.9385 32.1907 63.2373L32.3822 63.5118H28.9855V63.5083ZM29.7263 56.6219C29.9937 56.6219 30.2683 56.5072 30.5393 56.2779C30.8176 56.0451 31.0271 55.7081 31.1608 55.2807C31.2873 54.8673 31.2873 54.5511 31.1644 54.3357C31.0452 54.1342 30.8754 54.0369 30.6297 54.0369H29.1662L28.3712 56.6219H29.7299H29.7263Z" fill="url(#paint3_linear_2691_126007)"/>
<path d="M26.9333 51.7785H31.3995C32.5739 51.782 33.3905 52.1225 33.8458 52.8035C34.3011 53.4845 34.3734 54.3288 34.0663 55.3329C33.8133 56.1494 33.3472 56.8547 32.6642 57.4384C31.9813 58.0256 31.4031 58.3418 30.9334 58.3835C31.1683 58.6058 31.3309 58.8213 31.4212 59.0297C31.5079 59.2382 31.5585 59.4918 31.5657 59.7837C31.591 60.3987 31.6199 61.0588 31.6489 61.7711C31.6778 62.4834 31.8078 63.0045 32.0391 63.3311H29.0797C28.8304 63.0011 28.74 62.4764 28.8087 61.7607C28.8773 61.0449 28.9026 60.4056 28.8846 59.8462C28.8809 59.5718 28.834 59.3181 28.7473 59.0923C28.6605 58.8664 28.5521 58.7518 28.4293 58.7518H27.5295L26.413 62.393C26.3299 62.6675 26.1528 62.8934 25.8818 63.0671C25.6144 63.2408 25.3361 63.3277 25.0507 63.3277H23.3957L26.9405 51.775M29.7265 56.7957C30.0409 56.7957 30.3516 56.6671 30.6588 56.41C30.9659 56.1529 31.1899 55.7915 31.3345 55.3294C31.4754 54.8673 31.4718 54.506 31.3236 54.2489C31.1755 53.9917 30.9406 53.8632 30.6299 53.8597H29.0291L28.1293 56.7922H29.7301M26.6623 51.4276L26.5864 51.6777L23.0416 63.2269L22.9043 63.6751H23.3921H25.0471C25.4084 63.6751 25.7553 63.5674 26.0841 63.3555C26.4238 63.1366 26.6514 62.8447 26.7599 62.4903L27.8005 59.0992H28.357C28.3715 59.1201 28.3895 59.1583 28.4112 59.2104C28.4835 59.398 28.5232 59.6134 28.5268 59.8497C28.5413 60.3952 28.516 61.0276 28.4509 61.7259C28.3751 62.5355 28.4871 63.1261 28.7906 63.5292L28.899 63.6716H29.0833H32.0427H32.7293L32.3462 63.1261C32.1547 62.8517 32.0463 62.3896 32.021 61.7468C31.9921 61.0345 31.9668 60.3709 31.9379 59.7559C31.9271 59.4258 31.8693 59.1305 31.7645 58.8838C31.7175 58.7761 31.6561 58.6684 31.5802 58.5572C31.9813 58.3939 32.4221 58.1021 32.9099 57.6816C33.6399 57.0528 34.1494 56.2918 34.4168 55.4128C34.7564 54.3114 34.6661 53.3629 34.153 52.595C33.629 51.8098 32.704 51.4137 31.4031 51.4102H26.9369L26.6659 51.4067L26.6623 51.4276ZM28.6136 56.4447L29.3001 54.2106H30.6299C30.8141 54.2106 30.9225 54.2732 31.0057 54.4191C31.1032 54.5894 31.096 54.8673 30.9876 55.2287C30.8647 55.6248 30.6768 55.9305 30.4239 56.1424C30.1818 56.344 29.9541 56.4413 29.7301 56.4413H28.6172L28.6136 56.4447Z" fill="#98ACC5"/>
<defs>
<linearGradient id="paint0_linear_2691_126007" x1="37.9316" y1="1.13472" x2="5.03077" y2="70.4141" gradientUnits="userSpaceOnUse">
<stop stop-color="#031F3F"/>
<stop offset="0.51" stop-color="#D6E0EB"/>
<stop offset="1" stop-color="#02162C"/>
</linearGradient>
<linearGradient id="paint1_linear_2691_126007" x1="34.4602" y1="69.0468" x2="7.34006" y2="55.0738" gradientUnits="userSpaceOnUse">
<stop stop-color="#223A58"/>
<stop offset="0.51" stop-color="#61758F"/>
<stop offset="1" stop-color="#223A58"/>
</linearGradient>
<linearGradient id="paint2_linear_2691_126007" x1="35.7901" y1="65.3256" x2="8.78739" y2="51.4118" gradientUnits="userSpaceOnUse">
<stop stop-color="#223A58"/>
<stop offset="0.5" stop-color="#61758F"/>
<stop offset="1" stop-color="#223A58"/>
</linearGradient>
<linearGradient id="paint3_linear_2691_126007" x1="37.2712" y1="62.0803" x2="9.86665" y2="47.9594" gradientUnits="userSpaceOnUse">
<stop stop-color="#223A58"/>
<stop offset="0.5" stop-color="#61758F"/>
<stop offset="1" stop-color="#223A58"/>
</linearGradient>
</defs>
</svg>
