<svg width="32" height="33" viewBox="0 0 32 33" fill="none" xmlns="http://www.w3.org/2000/svg">
<g style="mix-blend-mode:multiply">
<path d="M15.6289 5.6084C18.3206 5.60842 20.4395 5.77898 21.7685 5.92676C22.7296 6.03363 23.5004 6.73076 23.7607 7.66211L25.2128 12.8623L27.4052 12.5547C27.8644 12.4902 28.2887 12.8105 28.3535 13.2695L28.4706 14.1016C28.5995 15.02 27.9594 15.8689 27.041 15.998L26.499 16.0742C26.3644 16.093 26.2638 16.2079 26.2636 16.3438C26.2641 16.3579 26.2655 16.3725 26.2656 16.3867V23.9453C26.2654 24.6409 25.7014 25.2051 25.0058 25.2051H23.0468C22.3512 25.2051 21.7872 24.6409 21.7871 23.9453V22.2656C21.7868 22.0339 21.5989 21.8457 21.3671 21.8457H9.88764C9.65586 21.8457 9.46793 22.0339 9.46772 22.2656V23.9453C9.46758 24.6409 8.9035 25.205 8.20795 25.2051H6.24799C5.55244 25.205 4.98836 24.6409 4.98823 23.9453V16.4717C4.98823 16.2622 4.83345 16.0846 4.62592 16.0557L4.20991 15.9971C3.29144 15.8678 2.65113 15.0181 2.78022 14.0996L2.89741 13.2686C2.96213 12.8096 3.38663 12.4894 3.84565 12.5537L6.04291 12.8613L7.49604 7.66211C7.75634 6.73076 8.52709 6.03363 9.48823 5.92676C10.8173 5.77897 12.9368 5.6084 15.6289 5.6084Z" fill="white"/>
<g style="mix-blend-mode:multiply">
<path d="M3.84167 12.5517L6.76591 12.9617C6.82171 12.9695 6.8784 12.9656 6.93326 12.9528C7.11662 12.9098 7.3074 12.8857 7.50378 12.8857H23.7401C23.9368 12.8857 24.1279 12.9104 24.3115 12.9537C24.3664 12.9666 24.4232 12.9705 24.479 12.9627L27.4012 12.5527C27.8604 12.4881 28.2848 12.8084 28.3495 13.2675L28.4667 14.0995C28.5957 15.0181 27.9555 15.8669 27.037 15.996L26.4947 16.0716C26.3599 16.0904 26.2596 16.2057 26.2596 16.3417C26.2601 16.356 26.2616 16.3703 26.2616 16.3847V23.9433C26.2616 24.639 25.6976 25.203 25.0018 25.203H23.0428C22.3471 25.203 21.7831 24.639 21.7831 23.9433V22.2636C21.7831 22.0317 21.5951 21.8437 21.3632 21.8437H9.88365C9.65174 21.8437 9.46374 22.0317 9.46374 22.2636V23.9433C9.46374 24.6389 8.89961 25.2029 8.20398 25.203H6.24402C5.54838 25.2029 4.98425 24.6389 4.98425 23.9433V16.4694C4.98425 16.2601 4.83007 16.0827 4.62278 16.0536L4.20593 15.995C3.28764 15.8658 2.64746 15.0169 2.77624 14.0986L2.89343 13.2665C2.95796 12.8074 3.38252 12.4874 3.84167 12.5517Z" fill="#FA967C"/>
</g>
<path d="M7.49245 7.65833C7.75271 6.72689 8.52327 6.03007 9.48446 5.92319C10.8135 5.77541 12.9326 5.60449 15.6247 5.60449C18.3167 5.60449 20.4358 5.77541 21.7648 5.92319C22.726 6.03007 23.4966 6.72689 23.7568 7.65833L25.2805 13.1114C25.5388 14.0359 25.162 14.9148 24.2217 15.1079C22.8631 15.3869 20.3167 15.6823 15.6247 15.6823C10.9326 15.6823 8.38625 15.3869 7.02759 15.1079C6.08728 14.9148 5.71049 14.0359 5.96881 13.1114L7.49245 7.65833Z" fill="#D63D4A"/>
<path d="M9.80417 7.65823C10.804 7.4753 12.789 7.19519 15.0461 7.0921C15.2487 7.08285 15.3047 7.45307 15.1144 7.52334C12.7966 8.3792 10.4513 9.95635 9.08314 11.0978C8.88226 11.2654 8.55435 11.0598 8.62926 10.8092L9.4845 7.94742C9.529 7.79853 9.65131 7.6862 9.80417 7.65823Z" fill="white"/>
<path d="M18.4766 22.4684C18.4766 25.4971 22.4845 27.7287 23.9874 27.7287C25.4904 27.7287 29.4983 25.4971 29.4983 22.4684C29.4983 20.8741 29.4983 19.4313 29.4983 18.4222C29.4983 17.5495 28.9335 16.7778 28.1019 16.5132L24.8988 15.494C24.3059 15.3054 23.669 15.3054 23.076 15.494L19.8729 16.5132C19.0413 16.7778 18.4766 17.5495 18.4766 18.4222C18.4766 19.4313 18.4766 20.8741 18.4766 22.4684Z" fill="#D63D4A"/>
<path fill-rule="evenodd" clip-rule="evenodd" d="M26.6171 19.5517C26.8663 19.8009 26.8663 20.2049 26.6171 20.4541L24.2966 22.7747C24.0474 23.0239 23.6433 23.0239 23.3941 22.7747L21.6537 21.0343C21.4045 20.7851 21.4045 20.381 21.6537 20.1318C21.9029 19.8826 22.307 19.8826 22.5562 20.1318L23.8453 21.421L25.7146 19.5517C25.9639 19.3024 26.3679 19.3024 26.6171 19.5517Z" fill="white"/>
</g>
</svg>
