<?xml version="1.0" encoding="UTF-8"?><svg id="uuid-83038e41-986d-4f92-a69e-4c71183344a1" xmlns="http://www.w3.org/2000/svg" width="32" height="32" viewBox="0 0 32 32"><rect width="31.83" height="31.83" style="fill:none;"/><path d="M24.18,7.5h-1.84v-.87c0-.49-.4-.9-.9-.9s-.9.4-.9.9v.87h-2.84v-.87c0-.49-.4-.9-.9-.9s-.9.4-.9.9v.87h-2.84v-.87c0-.49-.4-.9-.9-.9s-.9.4-.9.9v.87h-2.84v-.87c0-.49-.4-.9-.9-.9s-.9.4-.9.9v.87h-1.84c-.53,0-.95.43-.95.95v17.46c0,.53.43.95.95.95h19.36c.53,0,.95-.43.95-.95V8.46c0-.53-.43-.95-.95-.95ZM23.23,24.96H5.77v-12.54h17.46v12.54Z" style="fill:#ff967b;"/><rect x="7.51" y="14.72" width="13.84" height="1.19" style="fill:#d22424;"/><rect x="7.51" y="17.53" width="13.84" height="1.19" style="fill:#d22424;"/><rect x="7.51" y="20.53" width="13.84" height="1.19" style="fill:#d22424;"/><path d="M24.18,7.5h-1.84v-.87c0-.49-.4-.9-.9-.9s-.9.4-.9.9v.87h-2.84v-.87c0-.49-.4-.9-.9-.9s-.9.4-.9.9v.87h-2.84v-.87c0-.49-.4-.9-.9-.9s-.9.4-.9.9v.87h-2.84v-.87c0-.49-.4-.9-.9-.9s-.9.4-.9.9v.87h-1.84c-.53,0-.95.43-.95.95v3.97h21.27v-3.97c0-.53-.43-.95-.95-.95Z" style="fill:#d22424;"/><path d="M19.97,24.22c0,2.54,3.36,4.42,4.62,4.42s4.62-1.87,4.62-4.42v-3.4c0-.73-.47-1.38-1.17-1.6l-2.69-.86c-.5-.16-1.03-.16-1.53,0l-2.69.86c-.7.22-1.17.87-1.17,1.6v3.4Z" style="fill:#d63d4a;"/><path d="M24.29,24.48l.29.31,2.97-2.83-.29-.31-.29-.31-2.97,2.83.29.31ZM22.32,22.39l-.31.29,1.98,2.1.31-.29.31-.29-1.98-2.1-.31.29ZM27.56,21.96c.17-.16.18-.43.01-.6-.16-.17-.43-.18-.6-.01l.29.31.29.31ZM24.29,24.48l-.31.29c.08.08.18.13.3.13.11,0,.22-.04.3-.12l-.29-.31ZM22.62,22.1c-.16-.17-.43-.18-.6-.02-.17.16-.18.43-.02.6l.31-.29.31-.29Z" style="fill:#fff;"/></svg>