<svg width="32" height="32" viewBox="0 0 32 32" fill="none" xmlns="http://www.w3.org/2000/svg">
<g style="mix-blend-mode:multiply">
<path d="M22.1251 28.1665H23.9636C24.3029 28.1665 24.5437 27.8356 24.4393 27.5127L21.9897 19.9322C21.923 19.7258 21.7308 19.5859 21.5139 19.5859H20.0395C19.7001 19.5859 19.4593 19.9168 19.5637 20.2398L19.8706 21.1887C19.975 21.5116 19.7342 21.8426 19.3948 21.8426H13.4223C13.0829 21.8426 12.8421 21.5116 12.9466 21.1887L13.2534 20.2398C13.3578 19.9168 13.117 19.5859 12.7777 19.5859H11.3032C11.0863 19.5859 10.8941 19.7258 10.8274 19.9322L8.37776 27.5127C8.27341 27.8356 8.51419 28.1665 8.85354 28.1665H10.3281C10.545 28.1665 10.7372 28.0266 10.8039 27.8202L10.9788 27.279C11.0455 27.0726 11.2376 26.9328 11.4545 26.9328H21.3639C21.5808 26.9328 21.773 27.0726 21.8397 27.279L22.126 28.1652C22.1262 28.1658 22.1258 28.1665 22.1251 28.1665ZM12.3793 25.0653C12.0399 25.0653 11.7991 24.7343 11.9036 24.4113L12.0178 24.0587C12.0845 23.8524 12.2766 23.7127 12.4935 23.7127H20.3209C20.5378 23.7127 20.7299 23.8524 20.7966 24.0587L20.9108 24.4113C21.0153 24.7343 20.7745 25.0653 20.4351 25.0653H12.3793Z" fill="#D63D4A"/>
</g>
<path d="M25.4997 9.19617V19.1357C25.4997 20.6516 24.5159 21.9561 23.1078 22.5253C22.6216 22.7231 22.0834 22.8333 21.5176 22.8333H10.8135C10.2476 22.8333 9.70943 22.7231 9.22325 22.5253C7.81675 21.9561 6.83301 20.6516 6.83301 19.1357V9.19617C6.83301 7.15482 8.61512 5.5 10.8135 5.5H21.5176C23.7159 5.5 25.4997 7.15482 25.4997 9.19617Z" fill="#FA967C"/>
<path d="M22.8333 9.5296V14.8307H9.5V9.5296C9.5 8.77598 10.1119 8.16406 10.8655 8.16406H21.4662C22.2198 8.16406 22.8333 8.77598 22.8333 9.5296Z" fill="white"/>
<path d="M10.8333 20.1667C11.5697 20.1667 12.1667 19.5697 12.1667 18.8333C12.1667 18.097 11.5697 17.5 10.8333 17.5C10.097 17.5 9.5 18.097 9.5 18.8333C9.5 19.5697 10.097 20.1667 10.8333 20.1667Z" fill="white"/>
<path d="M21.4998 20.1667C22.2362 20.1667 22.8332 19.5697 22.8332 18.8333C22.8332 18.097 22.2362 17.5 21.4998 17.5C20.7635 17.5 20.1665 18.097 20.1665 18.8333C20.1665 19.5697 20.7635 20.1667 21.4998 20.1667Z" fill="white"/>
<g style="mix-blend-mode:multiply">
<rect x="12.1665" y="4.16406" width="8" height="2.66667" rx="1" fill="#D63D4A"/>
</g>
</svg>
