<svg width="32" height="32" viewBox="0 0 32 32" fill="none" xmlns="http://www.w3.org/2000/svg">
<path d="M0 10C0 4.47715 4.47715 0 10 0H22C27.5228 0 32 4.47715 32 10V22C32 27.5228 27.5228 32 22 32H10C4.47715 32 0 27.5228 0 22V10Z" fill="#F4F5F6"/>
<g style="mix-blend-mode:multiply">
<path d="M20.6091 9H6.90909C6.66798 9 6.43675 9.09577 6.26626 9.26626C6.09578 9.43676 6 9.66798 6 9.90909V19.9091C6 20.1502 6.09578 20.3814 6.26626 20.5519C6.43675 20.7224 6.66798 20.8182 6.90909 20.8182H25.0909C25.332 20.8182 25.5633 20.7224 25.7337 20.5519C25.9042 20.3814 26 20.1502 26 19.9091V15.1091C26.0008 14.6843 25.8529 14.2726 25.5818 13.9455L22 9.64546C21.8292 9.44305 21.6162 9.28042 21.3759 9.16893C21.1356 9.05744 20.8739 8.99978 20.6091 9Z" fill="#FA967C"/>
<g style="mix-blend-mode:multiply">
<path d="M6.00059 18.0821H6.75817C7.38565 18.0821 7.89453 17.5732 7.89453 16.9457C7.89453 16.3182 7.38565 15.8093 6.75817 15.8093H6.00059V18.0821Z" fill="#D63D4A"/>
</g>
<g style="mix-blend-mode:multiply">
<path d="M10.0908 23.5366C11.346 23.5366 12.3636 22.5191 12.3636 21.2639C12.3636 20.0087 11.346 18.9911 10.0908 18.9911C8.83565 18.9911 7.81812 20.0087 7.81812 21.2639C7.81812 22.5191 8.83565 23.5366 10.0908 23.5366Z" fill="#D63D4A"/>
</g>
<path d="M10.091 22.173C10.5931 22.173 11.0001 21.766 11.0001 21.2639C11.0001 20.7618 10.5931 20.3548 10.091 20.3548C9.5889 20.3548 9.18188 20.7618 9.18188 21.2639C9.18188 21.766 9.5889 22.173 10.091 22.173Z" fill="white"/>
<g style="mix-blend-mode:multiply">
<path d="M21.9092 23.5366C23.1644 23.5366 24.1819 22.5191 24.1819 21.2639C24.1819 20.0087 23.1644 18.9911 21.9092 18.9911C20.654 18.9911 19.6365 20.0087 19.6365 21.2639C19.6365 22.5191 20.654 23.5366 21.9092 23.5366Z" fill="#D63D4A"/>
</g>
<path d="M21.9091 22.173C22.4112 22.173 22.8182 21.766 22.8182 21.2639C22.8182 20.7618 22.4112 20.3548 21.9091 20.3548C21.407 20.3548 21 20.7618 21 21.2639C21 21.766 21.407 22.173 21.9091 22.173Z" fill="white"/>
<g style="mix-blend-mode:multiply">
<path d="M22.9727 10.8182H19.6364C19.3953 10.8182 19.164 10.9139 18.9936 11.0844C18.8231 11.2549 18.7273 11.4862 18.7273 11.7273V14.2273C18.7273 14.4684 18.8231 14.6996 18.9936 14.8701C19.164 15.0406 19.3953 15.1364 19.6364 15.1364H26C26.0008 14.7116 25.8529 14.2998 25.5818 13.9727L22.9727 10.8182Z" fill="#D63D4A"/>
</g>
</g>
</svg>
