<svg width="32" height="32" viewBox="0 0 32 32" fill="none" xmlns="http://www.w3.org/2000/svg">
<g style="mix-blend-mode:multiply">
<path fill-rule="evenodd" clip-rule="evenodd" d="M11.0522 5.5C10.6172 5.50015 10.1899 5.62453 9.81366 5.86052C9.43743 6.09652 9.12563 6.43575 8.90985 6.84385L4.49181 15.1963C4.27835 15.5994 4.16604 16.0557 4.16602 16.5201V22.5168C4.16604 22.9305 4.25519 23.3386 4.42641 23.7087L5.80612 26.6897C6.01105 27.1327 6.32615 27.5053 6.7161 27.7658C7.10605 28.0262 7.55544 28.1642 8.0139 28.1642H9.10236C9.75696 28.1642 10.3848 27.8833 10.8476 27.3832C11.3105 26.8832 11.5705 26.205 11.5705 25.4978H21.4432C21.4432 26.205 21.7033 26.8832 22.1661 27.3832C22.629 27.8833 23.2568 28.1642 23.9114 28.1642H24.9999C25.4583 28.1642 25.9077 28.0262 26.2977 27.7658C26.6876 27.5053 27.0027 27.1327 27.2077 26.6897L28.5874 23.7087C28.7589 23.3394 28.8478 22.9301 28.8478 22.5168V16.5201C28.8477 16.0557 28.7354 15.5994 28.522 15.1963L24.1039 6.84385C23.8881 6.43575 23.5763 6.09652 23.2001 5.86052C22.8239 5.62453 22.3966 5.50015 21.9615 5.5H11.0522Z" fill="#FA967C"/>
<g style="mix-blend-mode:multiply">
<path d="M6.70921 27.7683C6.31926 27.5078 6.00416 27.1352 5.79923 26.6922L5.10938 25.2017H27.8906L27.2008 26.6922C26.9958 27.1352 26.6807 27.5078 26.2908 27.7683C25.9008 28.0287 25.4514 28.1667 24.993 28.1667H23.9045C23.2499 28.1667 22.6221 27.8858 22.1593 27.3857C21.6964 26.8857 21.4363 26.2075 21.4363 25.5003H11.5636C11.5636 26.2075 11.3036 26.8857 10.8407 27.3857C10.3779 27.8858 9.75008 28.1667 9.09548 28.1667H8.00701C7.54856 28.1667 7.09917 28.0287 6.70921 27.7683Z" fill="#D63D4A"/>
</g>
<g style="mix-blend-mode:multiply">
<path d="M8.09771 13.8393L10.3648 8.73839C10.5012 8.43138 10.8057 8.23352 11.1416 8.23352H22.1277C22.4636 8.23352 22.7681 8.43138 22.9046 8.73839L25.1716 13.8393C25.4215 14.4015 25.01 15.0347 24.3947 15.0347H8.87458C8.25937 15.0347 7.84784 14.4015 8.09771 13.8393Z" fill="#D63D4A"/>
</g>
<ellipse cx="10.3995" cy="20.2348" rx="1.7003" ry="1.7003" fill="white"/>
<ellipse cx="22.8683" cy="20.2348" rx="1.7003" ry="1.7003" fill="white"/>
<path d="M22.3867 6.84042C22.113 11.0701 19.175 12.1541 17.6328 12.4332V15.0338H16.2998V12.44C14.7685 12.1692 11.7839 11.1056 11.5078 6.84042C11.5078 6.84042 15.8526 6.49913 16.9473 10.6949C18.0371 6.49921 22.3819 6.84042 22.3867 6.84042Z" fill="white"/>
</g>
</svg>
