<svg width="32" height="32" viewBox="0 0 32 32" fill="none" xmlns="http://www.w3.org/2000/svg">
<g clip-path="url(#clip0_4064_283499)">
<path fill-rule="evenodd" clip-rule="evenodd" d="M9.26758 8.06602C9.26758 6.63385 9.8365 5.26033 10.8492 4.24764C11.8619 3.23494 13.2354 2.66602 14.6676 2.66602C16.0997 2.66602 17.4733 3.23494 18.486 4.24764C19.4987 5.26033 20.0676 6.63385 20.0676 8.06602C20.0676 9.49818 19.4987 10.8717 18.486 11.8844C17.4733 12.8971 16.0997 13.466 14.6676 13.466C13.2354 13.466 11.8619 12.8971 10.8492 11.8844C9.8365 10.8717 9.26758 9.49818 9.26758 8.06602Z" fill="#D63D4A"/>
<path fill-rule="evenodd" clip-rule="evenodd" d="M9.33268 14.666C7.56457 14.666 5.86888 15.4562 4.61864 16.8627C3.36839 18.2692 2.66602 20.1769 2.66602 22.166C2.66602 23.3595 3.08744 24.5041 3.83759 25.348C4.58773 26.1919 5.60515 26.666 6.66602 26.666H22.666C23.7269 26.666 24.7443 26.1919 25.4944 25.348C26.2446 24.5041 26.666 23.3595 26.666 22.166C26.666 20.1769 25.9636 18.2692 24.7134 16.8627C23.4632 15.4562 21.7675 14.666 19.9993 14.666H9.33268Z" fill="#FA967C"/>
<circle cx="23.9993" cy="23.9993" r="5.33333" fill="#D63D4A"/>
<path d="M24.143 22.6883C24.6642 22.6883 25.0868 22.2658 25.0868 21.7446C25.0868 21.2233 24.6642 20.8008 24.143 20.8008C23.6218 20.8008 23.1992 21.2233 23.1992 21.7446C23.1992 22.2658 23.6218 22.6883 24.143 22.6883Z" fill="white"/>
<path d="M23.5537 23.467C23.4886 23.467 23.4358 23.5199 23.4358 23.585V24.4108V26.2676V27.0934C23.4358 27.1585 23.4886 27.2114 23.5537 27.2114H24.7335C24.7986 27.2114 24.8514 27.1585 24.8514 27.0934V26.2676V23.585C24.8514 23.5199 24.7986 23.467 24.7335 23.467H23.5537Z" fill="white"/>
</g>
<defs>
<clipPath id="clip0_4064_283499">
<rect width="32" height="32" fill="white"/>
</clipPath>
</defs>
</svg>
