<svg width="32" height="32" viewBox="0 0 32 32" fill="none" xmlns="http://www.w3.org/2000/svg">
<path d="M0 10C0 4.47715 4.47715 0 10 0H22C27.5228 0 32 4.47715 32 10V22C32 27.5228 27.5228 32 22 32H10C4.47715 32 0 27.5228 0 22V10Z" fill="#F4F5F6"/>
<g style="mix-blend-mode:multiply">
<g style="mix-blend-mode:multiply">
<path d="M6.90909 8H17.8182C18.0593 8 18.2905 8.09579 18.461 8.26628C18.6315 8.43676 18.7273 8.66798 18.7273 8.90909V21.6364H6.90909C6.66798 21.6364 6.43676 21.5405 6.26628 21.3701C6.09579 21.1996 6 20.9684 6 20.7273V8.90909C6 8.66798 6.09579 8.43676 6.26628 8.26628C6.43676 8.09579 6.66798 8 6.90909 8Z" fill="#D63D4A"/>
</g>
<path d="M25.0909 21.6452H18.7273V10.7361H21.4546C21.7269 10.7362 21.9957 10.7976 22.2412 10.9156C22.4867 11.0336 22.7026 11.2053 22.8727 11.4179L25.6 14.7816C25.8587 15.1038 25.9997 15.5047 26 15.9179V20.7361C26 20.9772 25.9042 21.2084 25.7337 21.3789C25.5633 21.5494 25.332 21.6452 25.0909 21.6452Z" fill="#FA967C"/>
<g style="mix-blend-mode:multiply">
<path d="M10.0908 24.3636C11.346 24.3636 12.3636 23.346 12.3636 22.0908C12.3636 20.8357 11.346 19.8181 10.0908 19.8181C8.83565 19.8181 7.81812 20.8357 7.81812 22.0908C7.81812 23.346 8.83565 24.3636 10.0908 24.3636Z" fill="#D63D4A"/>
</g>
<path d="M10.091 22.9999C10.5931 22.9999 11.0001 22.5929 11.0001 22.0909C11.0001 21.5888 10.5931 21.1818 10.091 21.1818C9.5889 21.1818 9.18188 21.5888 9.18188 22.0909C9.18188 22.5929 9.5889 22.9999 10.091 22.9999Z" fill="white"/>
<g style="mix-blend-mode:multiply">
<path d="M21.9092 24.3636C23.1644 24.3636 24.1819 23.346 24.1819 22.0908C24.1819 20.8357 23.1644 19.8181 21.9092 19.8181C20.654 19.8181 19.6365 20.8357 19.6365 22.0908C19.6365 23.346 20.654 24.3636 21.9092 24.3636Z" fill="#D63D4A"/>
</g>
<path d="M21.9091 22.9999C22.4112 22.9999 22.8182 22.5929 22.8182 22.0909C22.8182 21.5888 22.4112 21.1818 21.9091 21.1818C21.407 21.1818 21 21.5888 21 22.0909C21 22.5929 21.407 22.9999 21.9091 22.9999Z" fill="white"/>
<g style="mix-blend-mode:multiply">
<path d="M23.0545 11.6452H21.4545C21.2134 11.6452 20.9821 11.741 20.8117 11.9115C20.6412 12.0819 20.5454 12.3132 20.5454 12.5543V15.0543C20.5454 15.2954 20.6412 15.5266 20.8117 15.6971C20.9821 15.8676 21.2134 15.9634 21.4545 15.9634H26C26.0008 15.5386 25.8892 15.1269 25.6181 14.7998L23.0545 11.6452Z" fill="#D63D4A"/>
</g>
</g>
</svg>
