<svg width="24" height="24" viewBox="0 0 24 24" fill="none" xmlns="http://www.w3.org/2000/svg">
<g style="mix-blend-mode:multiply">
<path d="M12.002 2.00391C16.929 2.00408 20.9229 5.99865 20.9229 10.9258C20.9228 11.7296 20.8159 12.5083 20.6162 13.249C20.5965 13.3221 20.5693 13.3912 20.5391 13.458C20.5295 13.5047 20.5207 13.5524 20.5059 13.5996C19.896 15.5426 18.6397 17.1995 16.9883 18.3174C16.7326 18.4904 16.4269 18.5712 16.1182 18.5713H7.87109C7.56238 18.5713 7.25672 18.4903 7.00098 18.3174C5.34913 17.1996 4.09152 15.5428 3.48145 13.5996C3.45921 13.5288 3.44413 13.4582 3.43359 13.3887C3.41604 13.3433 3.39966 13.297 3.38672 13.249C3.18707 12.5083 3.08011 11.7296 3.08008 10.9258C3.08008 5.99855 7.07472 2.00391 12.002 2.00391ZM17.5244 10.9238C17.5244 10.7508 17.3369 10.6487 17.1855 10.7324L15.4453 11.6982C15.3443 11.7545 15.2717 11.8499 15.2363 11.96C14.7973 13.3287 13.5146 14.3203 12 14.3203C10.4859 14.3202 9.20393 13.3291 8.76465 11.9609C8.72922 11.8509 8.65667 11.7554 8.55566 11.6992L6.81543 10.7334C6.66482 10.6498 6.47853 10.7516 6.47852 10.9238C6.47852 11.2297 6.50381 11.53 6.55176 11.8223C6.57302 11.952 6.57991 12.0857 6.57715 12.2207C6.62785 12.3016 6.66969 12.3896 6.69727 12.4834C7.1358 13.9749 8.18668 15.2041 9.55957 15.8799C9.76102 15.979 9.98545 16.0205 10.21 16.0205H13.7803C14.0049 16.0205 14.2291 15.9791 14.4307 15.8799C15.8036 15.2041 16.8543 13.9749 17.293 12.4834C17.323 12.3814 17.3677 12.2847 17.4248 12.1982C17.4234 12.0709 17.4311 11.9448 17.4512 11.8223C17.4991 11.5299 17.5244 11.2298 17.5244 10.9238ZM12.001 5.40137C9.82879 5.40165 7.94879 6.65574 7.04688 8.47949C6.91743 8.7413 7.11621 9.03312 7.4082 9.03809L8.91699 9.06348C9.06293 9.06579 9.19817 8.9915 9.28613 8.875C9.90645 8.05354 10.8914 7.52257 12 7.52246C13.1085 7.52246 14.0926 8.05377 14.7129 8.875C14.8009 8.99147 14.9361 9.06582 15.082 9.06348L16.5938 9.03809C16.8857 9.03308 17.0845 8.74129 16.9551 8.47949C16.0531 6.65565 14.1734 5.40137 12.001 5.40137Z" fill="white"/>
<path d="M5.80961 11.7715C6.2288 11.7715 6.57908 12.0802 6.6973 12.4824C7.13571 13.9734 8.18581 15.2027 9.55766 15.8789C9.75944 15.9784 9.98406 16.0195 10.209 16.0195H13.7832C14.0081 16.0195 14.2329 15.9783 14.4346 15.8789C15.8066 15.2027 16.8575 13.9735 17.2959 12.4824C17.4142 12.0803 17.7635 11.7716 18.1827 11.7715H19.0098C20.0112 11.7716 20.8088 12.6431 20.5088 13.5986C20.0408 15.0894 19.1898 16.4096 18.0743 17.4492C15.4466 20.072 12 21.5 12 21.5C11.9682 21.4868 8.64876 20.1057 6.05082 17.5742C4.86824 16.5166 3.96834 15.1494 3.48148 13.5986C3.18148 12.6431 3.97894 11.7715 4.98051 11.7715H5.80961Z" fill="#D63D4A"/>
<g style="mix-blend-mode:multiply">
<path d="M11.999 2C16.9261 2.00018 20.9199 5.99475 20.9199 10.9219C20.9199 11.7257 20.8129 12.5044 20.6133 13.2451C20.4342 13.9094 19.7993 14.3211 19.1113 14.3213C17.9896 14.3213 17.2669 12.9253 17.4482 11.8184C17.4962 11.5258 17.5215 11.2251 17.5215 10.9189C17.5215 10.7467 17.3345 10.645 17.1839 10.7286L15.4429 11.6951C15.3415 11.7514 15.2688 11.8471 15.2334 11.9575C14.7945 13.3265 13.5118 14.3174 11.9971 14.3174C10.4822 14.3172 9.19929 13.326 8.76069 11.9566C8.72531 11.8462 8.6526 11.7504 8.5512 11.6941L6.81212 10.7286C6.66154 10.645 6.4756 10.7467 6.47559 10.9189C6.47561 11.2249 6.50083 11.525 6.54883 11.8174C6.73059 12.9247 6.00791 14.3213 4.88574 14.3213C4.19773 14.3211 3.56285 13.9094 3.38379 13.2451C3.18414 12.5044 3.07718 11.7257 3.07715 10.9219C3.07715 5.99464 7.07179 2 11.999 2ZM11.998 5.39648C9.82531 5.39676 7.94505 6.6515 7.04345 8.47601C6.91405 8.73786 7.11327 9.0295 7.40531 9.03437L8.91483 9.05956C9.06083 9.062 9.19629 8.98806 9.28434 8.87158C9.90469 8.05083 10.889 7.52064 11.9971 7.52051C13.1052 7.52051 14.0894 8.05091 14.7098 8.87162C14.7978 8.98809 14.9333 9.062 15.0793 9.05957L16.5907 9.03436C16.8828 9.02949 17.082 8.73783 16.9526 8.47596C16.0509 6.6514 14.1709 5.39648 11.998 5.39648Z" fill="#FA967C"/>
</g>
<rect x="10.2969" y="9.22266" width="3.39869" height="3.39869" rx="1.69934" fill="white"/>
</g>
</svg>
