<svg width="32" height="33" viewBox="0 0 32 33" fill="none" xmlns="http://www.w3.org/2000/svg">
<path d="M0 10.5C0 4.97715 4.47715 0.5 10 0.5H22C27.5228 0.5 32 4.97715 32 10.5V22.5C32 28.0228 27.5228 32.5 22 32.5H10C4.47715 32.5 0 28.0228 0 22.5V10.5Z" fill="#F4F5F6"/>
<g style="mix-blend-mode:multiply">
<path d="M20.7751 9.66675H7.07511C6.834 9.66675 6.60277 9.76252 6.43228 9.93301C6.2618 10.1035 6.16602 10.3347 6.16602 10.5758V20.5759C6.16602 20.817 6.2618 21.0481 6.43228 21.2187C6.60277 21.3891 6.834 21.485 7.07511 21.485H25.2569C25.498 21.485 25.7293 21.3891 25.8997 21.2187C26.0702 21.0481 26.166 20.817 26.166 20.5759V15.7759C26.1668 15.351 26.0189 14.9393 25.7478 14.6122L22.166 10.3122C21.9952 10.1098 21.7822 9.94717 21.5419 9.83568C21.3016 9.72419 21.0399 9.66653 20.7751 9.66675Z" fill="#FA967C"/>
<g style="mix-blend-mode:multiply">
<path d="M6.16661 18.7488H6.92418C7.55167 18.7488 8.06055 18.2399 8.06055 17.6124C8.06055 16.985 7.55167 16.4761 6.92418 16.4761H6.16661V18.7488Z" fill="#D63D4A"/>
</g>
<g style="mix-blend-mode:multiply">
<path d="M10.2571 24.2034C11.5123 24.2034 12.5298 23.1859 12.5298 21.9307C12.5298 20.6755 11.5123 19.658 10.2571 19.658C9.00191 19.658 7.98438 20.6755 7.98438 21.9307C7.98438 23.1859 9.00191 24.2034 10.2571 24.2034Z" fill="#D63D4A"/>
</g>
<path d="M10.2567 22.8397C10.7588 22.8397 11.1658 22.4326 11.1658 21.9306C11.1658 21.4285 10.7588 21.0215 10.2567 21.0215C9.75467 21.0215 9.34766 21.4285 9.34766 21.9306C9.34766 22.4326 9.75467 22.8397 10.2567 22.8397Z" fill="white"/>
<g style="mix-blend-mode:multiply">
<path d="M22.0755 24.2034C23.3306 24.2034 24.3482 23.1859 24.3482 21.9307C24.3482 20.6755 23.3306 19.658 22.0755 19.658C20.8203 19.658 19.8027 20.6755 19.8027 21.9307C19.8027 23.1859 20.8203 24.2034 22.0755 24.2034Z" fill="#D63D4A"/>
</g>
<path d="M22.0751 22.8397C22.5772 22.8397 22.9842 22.4326 22.9842 21.9306C22.9842 21.4285 22.5772 21.0215 22.0751 21.0215C21.573 21.0215 21.166 21.4285 21.166 21.9306C21.166 22.4326 21.573 22.8397 22.0751 22.8397Z" fill="white"/>
<g style="mix-blend-mode:multiply">
<path d="M23.138 11.4849H19.8017C19.5606 11.4849 19.3293 11.5806 19.1589 11.7511C18.9884 11.9216 18.8926 12.1528 18.8926 12.394V14.894C18.8926 15.1351 18.9884 15.3663 19.1589 15.5368C19.3293 15.7073 19.5606 15.8031 19.8017 15.8031H26.1653C26.1661 15.3783 26.0182 14.9665 25.7471 14.6394L23.138 11.4849Z" fill="#D63D4A"/>
</g>
</g>
</svg>
