<svg width="24" height="24" viewBox="0 0 24 24" fill="none" xmlns="http://www.w3.org/2000/svg">
<path d="M3.73125 14.1246C4.86429 14.1246 5.78281 13.2061 5.78281 12.073C5.78281 10.94 4.86429 10.0215 3.73125 10.0215C2.5982 10.0215 1.67969 10.94 1.67969 12.073C1.67969 13.2061 2.5982 14.1246 3.73125 14.1246Z" fill="#FA967C"/>
<path d="M20.2684 14.1246C21.4014 14.1246 22.3199 13.2061 22.3199 12.073C22.3199 10.94 21.4014 10.0215 20.2684 10.0215C19.1353 10.0215 18.2168 10.94 18.2168 12.073C18.2168 13.2061 19.1353 14.1246 20.2684 14.1246Z" fill="#FA967C"/>
<path d="M11.9994 20.3026C16.5447 20.3026 20.2293 16.6179 20.2293 12.0727C20.2293 7.52743 16.5447 3.84277 11.9994 3.84277C7.45418 3.84277 3.76953 7.52743 3.76953 12.0727C3.76953 16.6179 7.45418 20.3026 11.9994 20.3026Z" fill="#FA967C"/>
<ellipse cx="17.6587" cy="14.022" rx="1.47119" ry="1.02983" fill="white"/>
<ellipse cx="6.40869" cy="14.022" rx="1.47119" ry="1.02983" fill="white"/>
<path d="M9.69003 12.5829C10.0905 12.5829 10.4152 12.2115 10.4152 11.7533C10.4152 11.2952 10.0905 10.9238 9.69003 10.9238C9.28952 10.9238 8.96484 11.2952 8.96484 11.7533C8.96484 12.2115 9.28952 12.5829 9.69003 12.5829Z" fill="#D63D4A"/>
<path d="M15.0324 11.7533C15.0324 12.2117 14.7074 12.5829 14.3072 12.5829C13.907 12.5829 13.582 12.2117 13.582 11.7533C13.582 11.295 13.907 10.9238 14.3072 10.9238C14.7074 10.9238 15.0324 11.295 15.0324 11.7533Z" fill="#D63D4A"/>
<path d="M3.84375 11.3397C3.84375 11.3397 7.24967 9.94163 9.31033 6.36096C9.31033 6.36096 9.48872 8.10852 8.86252 9.41918H15.1355C15.1355 9.41918 15.3139 8.28327 14.8661 6.27358C14.8661 6.27358 16.7484 9.50656 20.1525 10.8154C20.1525 10.8154 20.2417 3.30273 12.0882 3.30273C3.93477 3.30273 3.84375 9.76688 3.84375 11.3397Z" fill="#D63D4A"/>
<path d="M9.61914 13.7363C9.61914 15.0516 10.6847 16.1171 11.9999 16.1171C13.3152 16.1171 14.3807 15.0516 14.3807 13.7363H9.62085H9.61914Z" fill="#D63D4A"/>
</svg>
