<svg width="32" height="33" viewBox="0 0 32 33" fill="none" xmlns="http://www.w3.org/2000/svg">
<g style="mix-blend-mode:multiply">
<path d="M29.4959 20.6636C29.4959 13.3026 23.5263 7.33301 16.1626 7.33301C8.79885 7.33301 2.83203 13.3026 2.83203 20.6636C2.83203 21.6729 2.94635 22.6516 3.16104 23.5968H29.1697C29.3816 22.6516 29.4987 21.6729 29.4987 20.6636H29.4959Z" fill="#FA967C"/>
<path d="M29.4959 20.6636C29.4959 13.3026 23.5263 7.33301 16.1626 7.33301C8.79885 7.33301 2.83203 13.3026 2.83203 20.6636C2.83203 21.6729 2.94635 22.6516 3.16104 23.5968H29.1697C29.3816 22.6516 29.4987 21.6729 29.4987 20.6636H29.4959Z" fill="#FA967C"/>
<path d="M22.8787 20.2801H26.5257C26.5257 17.4194 25.3658 14.8263 23.4893 12.9526L20.9102 15.5318C22.1258 16.7474 22.8759 18.4259 22.8759 20.2801H22.8787Z" fill="white"/>
<g style="mix-blend-mode:multiply">
<path d="M20.9124 15.5315L23.4915 12.9524C21.6151 11.0759 19.0248 9.91602 16.1641 9.91602V13.563C18.0182 13.563 19.6968 14.3158 20.9124 15.5287V15.5315Z" fill="#FA967C"/>
</g>
<path d="M16.1634 13.563V9.91602C13.3027 9.91602 10.7096 11.0759 8.83594 12.9524L11.4151 15.5315C12.6307 14.3158 14.3092 13.563 16.1634 13.563Z" fill="white"/>
<path d="M11.4154 15.5318L8.83633 12.9526C6.96264 14.8291 5.80273 17.4194 5.80273 20.2801H9.44974C9.44974 18.4259 10.1998 16.7474 11.4154 15.5318Z" fill="#D63D4A"/>
<path d="M8.45508 15.3779L12.0686 18.0797L15.685 20.7843L14.7732 21.6961L13.8615 22.6078L11.1569 18.9915L8.45508 15.3779Z" fill="white"/>
<path d="M18.772 23.2205C18.772 24.662 17.6038 25.8331 16.1595 25.8331C14.7151 25.8331 13.5469 24.6648 13.5469 23.2205C13.5469 21.7762 14.7151 20.6079 16.1595 20.6079C17.6038 20.6079 18.772 21.7762 18.772 23.2205Z" fill="#D63D4A"/>
</g>
</svg>
