<svg width="32" height="32" viewBox="0 0 32 32" fill="none" xmlns="http://www.w3.org/2000/svg">
<g style="mix-blend-mode:multiply">
<path d="M16.0017 5.1795C16.5115 5.1795 16.9248 5.59278 16.9248 6.10258L16.9248 13.4872C16.9248 13.997 16.5115 14.4103 16.0017 14.4103C15.4919 14.4103 15.0787 13.997 15.0787 13.4872L15.0787 6.10258C15.0787 5.59278 15.4919 5.1795 16.0017 5.1795Z" fill="#D63D4A"/>
<rect x="4" y="13.4869" width="24" height="12.9231" rx="2.07692" fill="#FA967C"/>
<rect x="6.76953" y="5.1795" width="18.4615" height="2.76923" rx="1.38462" fill="#D63D4A"/>
<circle cx="23.6988" cy="17.3723" r="1.38316" fill="white"/>
<g style="mix-blend-mode:multiply">
<ellipse cx="10.9251" cy="19.9496" rx="4.15385" ry="4.15385" fill="#D63D4A"/>
</g>
<path d="M7.51001 20.4117C7.51001 19.3567 8.14298 17.1413 10.6748 16.7194C9.83089 17.5633 8.21331 19.5325 7.51001 20.4117Z" fill="white"/>
</g>
</svg>
