<svg width="24" height="24" viewBox="0 0 24 24" fill="none" xmlns="http://www.w3.org/2000/svg">
<rect x="3" y="7" width="18" height="12" rx="2.31882" fill="#FA967C"/>
<rect x="8.40039" y="9.40039" width="7.2" height="7.2" rx="3.6" fill="#D63D4A"/>
<path d="M12 10.8994C12.2899 10.8994 12.5254 11.1349 12.5254 11.4248V12.4736H13.5752C13.8651 12.4736 14.1005 12.7091 14.1006 12.999C14.1006 13.289 13.8651 13.5244 13.5752 13.5244H12.5254V14.5742C12.5254 14.8642 12.2899 15.0996 12 15.0996C11.7103 15.0994 11.4756 14.864 11.4756 14.5742V13.5244H10.4258C10.1358 13.5244 9.90039 13.289 9.90039 12.999C9.90044 12.7091 10.1359 12.4736 10.4258 12.4736H11.4756V11.4248C11.4756 11.135 11.7103 10.8997 12 10.8994Z" fill="white"/>
<path d="M15.5996 4C16.2622 4.00021 16.7988 4.53758 16.7988 5.2002V7H14.999V5.83496C14.9988 5.48436 14.7149 5.2003 14.3643 5.2002H9.63477C9.28405 5.2002 8.99926 5.4843 8.99902 5.83496V7H7.19922V5.2002C7.19922 4.53745 7.73667 4 8.39941 4H15.5996Z" fill="#D63D4A"/>
<path d="M5 19H7V19.1529C7 19.6208 6.62076 20 6.15294 20H5.84706C5.37924 20 5 19.6208 5 19.1529V19Z" fill="#D63D4A"/>
<path d="M17 19H19V19.1529C19 19.6208 18.6208 20 18.1529 20H17.8471C17.3792 20 17 19.6208 17 19.1529V19Z" fill="#D63D4A"/>
</svg>
