<svg width="32" height="32" viewBox="0 0 32 32" fill="none" xmlns="http://www.w3.org/2000/svg">
<path d="M0 10C0 4.47715 4.47715 0 10 0H22C27.5228 0 32 4.47715 32 10V22C32 27.5228 27.5228 32 22 32H10C4.47715 32 0 27.5228 0 22V10Z" fill="#F4F5F6"/>
<g style="mix-blend-mode:multiply">
<path d="M25.9995 16.0095C25.9995 15.0303 25.3777 14.1596 24.4519 13.8413L22.9769 13.335H7.00628C6.45071 13.335 6 13.7857 6 14.3412V18.3413H26L25.9995 16.0095Z" fill="#FA967C"/>
<path d="M6 18.3413L6 18.8886C6 19.4166 6.42793 19.8445 6.95596 19.8445H24.9932C25.5488 19.8445 25.9995 19.3938 25.9995 18.8383L26 18.3413H6Z" fill="#FA967C"/>
<g style="mix-blend-mode:multiply">
<path d="M22.1425 22.9042C23.605 22.9042 24.7906 21.7186 24.7906 20.2561C24.7906 18.7936 23.605 17.608 22.1425 17.608C20.68 17.608 19.4944 18.7936 19.4944 20.2561C19.4944 21.7186 20.68 22.9042 22.1425 22.9042Z" fill="#D63D4A"/>
</g>
<path d="M22.1424 21.4597C22.8072 21.4597 23.3461 20.9208 23.3461 20.256C23.3461 19.5912 22.8072 19.0523 22.1424 19.0523C21.4776 19.0523 20.9387 19.5912 20.9387 20.256C20.9387 20.9208 21.4776 21.4597 22.1424 21.4597Z" fill="white"/>
<g style="mix-blend-mode:multiply">
<path d="M9.85366 22.9041C11.3162 22.9041 12.5018 21.7185 12.5018 20.256C12.5018 18.7935 11.3162 17.6079 9.85366 17.6079C8.39116 17.6079 7.20557 18.7935 7.20557 20.256C7.20557 21.7185 8.39116 22.9041 9.85366 22.9041Z" fill="#D63D4A"/>
</g>
<path d="M9.85358 21.4597C10.5184 21.4597 11.0573 20.9208 11.0573 20.256C11.0573 19.5912 10.5184 19.0523 9.85358 19.0523C9.18881 19.0523 8.6499 19.5912 8.6499 20.256C8.6499 20.9208 9.18881 21.4597 9.85358 21.4597Z" fill="white"/>
<g style="mix-blend-mode:multiply">
<path d="M25.9973 17.8977H25.1949C24.5302 17.8977 23.9912 17.3586 23.9912 16.694C23.9912 16.0293 24.5302 15.4903 25.1949 15.4903H25.9973V17.8977Z" fill="#D63D4A"/>
</g>
<g style="mix-blend-mode:multiply">
<path d="M20.0128 9.54398C19.4985 8.85231 18.2608 8.28137 17.4389 8.28137H10.6413C9.62183 8.28137 8.90613 9.14654 8.55942 10.009L7.23584 13.3365H22.9486L20.0128 9.54398Z" fill="#D63D4A"/>
</g>
</g>
</svg>
