<svg width="32" height="32" viewBox="0 0 32 32" fill="none" xmlns="http://www.w3.org/2000/svg">
<g style="mix-blend-mode:multiply">
<path fill-rule="evenodd" clip-rule="evenodd" d="M10.2195 4.66663C9.78441 4.66678 9.35712 4.79115 8.9809 5.02715C8.60467 5.26315 8.29287 5.60238 8.07708 6.01048L3.65905 14.3629C3.44559 14.766 3.33328 15.2224 3.33325 15.6868V21.6834C3.33328 22.0972 3.42243 22.5052 3.59364 22.8753L4.97335 25.8563C5.17828 26.2994 5.49338 26.672 5.88334 26.9324C6.27329 27.1929 6.72268 27.3308 7.18114 27.3308H8.2696C8.9242 27.3308 9.55199 27.0499 10.0149 26.5499C10.4777 26.0498 10.7378 25.3716 10.7378 24.6645H20.6105C20.6105 25.3716 20.8705 26.0498 21.3334 26.5499C21.7963 27.0499 22.424 27.3308 23.0786 27.3308H24.1671C24.6256 27.3308 25.075 27.1929 25.4649 26.9324C25.8549 26.672 26.17 26.2994 26.3749 25.8563L27.7546 22.8753C27.9261 22.506 28.015 22.0967 28.015 21.6834V15.6868C28.015 15.2224 27.9027 14.766 27.6892 14.3629L23.2712 6.01048C23.0554 5.60238 22.7436 5.26315 22.3673 5.02715C21.9911 4.79115 21.5638 4.66678 21.1288 4.66663H10.2195Z" fill="#FA967C"/>
<g style="mix-blend-mode:multiply">
<path d="M5.87694 26.9349C5.48699 26.6744 5.17188 26.3018 4.96695 25.8588L4.2771 24.3683H27.0583L26.3685 25.8588C26.1636 26.3018 25.8485 26.6744 25.4585 26.9349C25.0686 27.1953 24.6192 27.3333 24.1607 27.3333H23.0723C22.4177 27.3333 21.7899 27.0524 21.327 26.5523C20.8641 26.0523 20.6041 25.3741 20.6041 24.6669H10.7314C10.7314 25.3741 10.4713 26.0523 10.0085 26.5523C9.54559 27.0524 8.9178 27.3333 8.2632 27.3333H7.17474C6.71628 27.3333 6.26689 27.1953 5.87694 26.9349Z" fill="#D63D4A"/>
</g>
<g style="mix-blend-mode:multiply">
<path d="M7.26445 13.006L9.53152 7.90514C9.66797 7.59813 9.97243 7.40027 10.3084 7.40027H21.2944C21.6304 7.40027 21.9349 7.59813 22.0713 7.90514L24.3384 13.006C24.5882 13.5682 24.1767 14.2015 23.5615 14.2015H8.04133C7.42611 14.2015 7.01459 13.5682 7.26445 13.006Z" fill="#D63D4A"/>
</g>
<ellipse cx="9.56749" cy="19.4016" rx="1.7003" ry="1.7003" fill="white"/>
<circle cx="22.0362" cy="19.4016" r="1.7003" fill="white"/>
<g style="mix-blend-mode:multiply">
<ellipse cx="23.3333" cy="8.66665" rx="5.33333" ry="5.33333" fill="#D63D4A"/>
</g>
<path d="M23.4772 7.35434C23.9985 7.35434 24.421 6.9318 24.421 6.41057C24.421 5.88934 23.9985 5.4668 23.4772 5.4668C22.956 5.4668 22.5334 5.88934 22.5334 6.41057C22.5334 6.9318 22.956 7.35434 23.4772 7.35434Z" fill="white"/>
<path d="M22.888 8.13307C22.8228 8.13307 22.77 8.18588 22.77 8.25104V9.07684V10.9336V11.7594C22.77 11.8246 22.8228 11.8774 22.888 11.8774H24.0677C24.1328 11.8774 24.1857 11.8246 24.1857 11.7594V10.9336V8.25104C24.1857 8.18588 24.1328 8.13307 24.0677 8.13307H22.888Z" fill="white"/>
</g>
</svg>
