<svg width="32" height="33" viewBox="0 0 32 33" fill="none" xmlns="http://www.w3.org/2000/svg">
<g style="mix-blend-mode:multiply">
<path fill-rule="evenodd" clip-rule="evenodd" d="M4.87076 14.073C4.263 13.9875 3.70107 14.411 3.61566 15.0188C3.44483 16.2343 4.29171 17.3581 5.50723 17.529L5.59298 17.541C5.67059 17.5519 5.72691 17.6199 5.72691 17.6983V18.2553V19.9208V24.9229C5.72691 25.8435 6.4732 26.5898 7.3938 26.5898H8.50506C9.42566 26.5898 10.172 25.8435 10.172 24.9229V23.8102C10.172 23.5033 10.4207 23.2546 10.7276 23.2546H21.8432C22.15 23.2546 22.3988 23.5033 22.3988 23.8102V24.9229C22.3988 25.8435 23.1451 26.5898 24.0657 26.5898H25.1769C26.0975 26.5898 26.8438 25.8435 26.8438 24.9229V18.2553C26.8438 18.2217 26.8428 18.1882 26.8409 18.1551V17.6983C26.8409 17.6207 26.8966 17.5535 26.9734 17.5427L27.0649 17.5298C28.2804 17.359 29.1273 16.2351 28.9565 15.0196C28.871 14.4119 28.3091 13.9884 27.7014 14.0738L24.6449 14.5034C24.5624 14.515 24.4785 14.5072 24.3983 14.4849C24.1146 14.4064 23.8157 14.3645 23.5071 14.3645H9.06069C8.75312 14.3645 8.45527 14.4061 8.17249 14.4841C8.09237 14.5062 8.00873 14.514 7.92644 14.5024L4.87076 14.073Z" fill="white"/>
<g style="mix-blend-mode:multiply">
<path fill-rule="evenodd" clip-rule="evenodd" d="M4.87076 14.073C4.263 13.9875 3.70107 14.411 3.61566 15.0188C3.44483 16.2343 4.29171 17.3581 5.50723 17.529L5.59298 17.541C5.67059 17.5519 5.72691 17.6199 5.72691 17.6983V18.2553V19.9208V24.9229C5.72691 25.8435 6.4732 26.5898 7.3938 26.5898H8.50506C9.42566 26.5898 10.172 25.8435 10.172 24.9229V23.8102C10.172 23.5033 10.4207 23.2546 10.7276 23.2546H21.8432C22.15 23.2546 22.3988 23.5033 22.3988 23.8102V24.9229C22.3988 25.8435 23.1451 26.5898 24.0657 26.5898H25.1769C26.0975 26.5898 26.8438 25.8435 26.8438 24.9229V18.2553C26.8438 18.2217 26.8428 18.1882 26.8409 18.1551V17.6983C26.8409 17.6207 26.8966 17.5535 26.9734 17.5427L27.0649 17.5298C28.2804 17.359 29.1273 16.2351 28.9565 15.0196C28.871 14.4119 28.3091 13.9884 27.7014 14.0738L24.6449 14.5034C24.5624 14.515 24.4785 14.5072 24.3983 14.4849C24.1146 14.4064 23.8157 14.3645 23.5071 14.3645H9.06069C8.75312 14.3645 8.45527 14.4061 8.17249 14.4841C8.09237 14.5062 8.00873 14.514 7.92644 14.5024L4.87076 14.073Z" fill="#FA967C"/>
</g>
<path d="M8.27973 9.54614C8.60016 8.39931 9.54862 7.54154 10.7332 7.42032C12.0603 7.28451 14.0206 7.14404 16.4519 7.14404C18.8832 7.14404 20.8435 7.28451 22.1706 7.42032C23.3552 7.54155 24.3037 8.39931 24.6241 9.54614L25.9337 14.2333C26.2518 15.3716 25.7814 16.4376 24.6179 16.6454C23.1952 16.8995 20.7167 17.1454 16.4519 17.1454C12.1871 17.1454 9.70859 16.8995 8.28589 16.6454C7.12239 16.4376 6.65202 15.3716 6.97007 14.2333L8.27973 9.54614Z" fill="#D63D4A"/>
<path fill-rule="evenodd" clip-rule="evenodd" d="M12.3604 10.0257C13.3673 9.02331 14.7579 8.3999 16.2898 8.3999C17.8217 8.3999 19.2122 9.02331 20.2192 10.0257C20.4801 10.2855 20.481 10.7076 20.2213 10.9685C19.9615 11.2294 19.5394 11.2304 19.2785 10.9706C18.5099 10.2055 17.4531 9.73324 16.2898 9.73324C15.1264 9.73324 14.0696 10.2055 13.3011 10.9706C13.0401 11.2304 12.618 11.2294 12.3583 10.9685C12.0985 10.7076 12.0995 10.2855 12.3604 10.0257Z" fill="white"/>
<path fill-rule="evenodd" clip-rule="evenodd" d="M16.2879 12.4984C15.6491 12.4984 15.0677 12.7582 14.6422 13.1806C14.3809 13.44 13.9588 13.4384 13.6994 13.1771C13.44 12.9158 13.4416 12.4937 13.7029 12.2343C14.3651 11.577 15.2792 11.165 16.2879 11.165C17.2953 11.165 18.2148 11.5761 18.8748 12.2361C19.1351 12.4964 19.1351 12.9185 18.8748 13.1789C18.6144 13.4392 18.1923 13.4392 17.932 13.1789C17.5122 12.7591 16.9281 12.4984 16.2879 12.4984Z" fill="white"/>
<path d="M16.2901 15.6481C16.734 15.6481 17.0939 15.2882 17.0939 14.8443C17.0939 14.4004 16.734 14.0405 16.2901 14.0405C15.8462 14.0405 15.4863 14.4004 15.4863 14.8443C15.4863 15.2882 15.8462 15.6481 16.2901 15.6481Z" fill="white"/>
</g>
</svg>
