<svg width="25" height="24" viewBox="0 0 25 24" fill="none" xmlns="http://www.w3.org/2000/svg">
<g clip-path="url(#clip0_97_7250)">
<path fill-rule="evenodd" clip-rule="evenodd" d="M9.32586 4.43353C9.05293 4.43363 8.78488 4.51165 8.54886 4.6597C8.31284 4.80775 8.11723 5.02057 7.98186 5.27659L5.21025 10.5164C5.07633 10.7693 5.00588 11.0556 5.00586 11.3469V15.1089C5.00588 15.3684 5.0618 15.6244 5.16921 15.8566L6.03476 17.7267C6.16332 18.0046 6.361 18.2384 6.60563 18.4018C6.85027 18.5652 7.13219 18.6517 7.41979 18.6517H8.10263C8.51329 18.6517 8.90713 18.4755 9.19751 18.1618C9.48789 17.8481 9.65102 17.4226 9.65102 16.979H15.8446C15.8446 17.4226 16.0077 17.8481 16.2981 18.1618C16.5885 18.4755 16.9823 18.6517 17.393 18.6517H18.0758C18.3634 18.6517 18.6453 18.5652 18.89 18.4018C19.1346 18.2384 19.3323 18.0046 19.4608 17.7267L20.3264 15.8566C20.434 15.6249 20.4897 15.3682 20.4897 15.1089V11.3469C20.4897 11.0556 20.4193 10.7693 20.2853 10.5164L17.5137 5.27659C17.3784 5.02057 17.1828 4.80775 16.9467 4.6597C16.7107 4.51165 16.4427 4.43363 16.1697 4.43353H9.32586Z" fill="#FA967C"/>
<g style="mix-blend-mode:multiply">
<path d="M6.72044 18.4877C6.47581 18.3243 6.27813 18.0906 6.14957 17.8126L5.7168 16.8776H20.0084L19.5756 17.8126C19.4471 18.0906 19.2494 18.3243 19.0048 18.4877C18.7601 18.6511 18.4782 18.7376 18.1906 18.7376H17.5078C17.0971 18.7376 16.7033 18.5614 16.4129 18.2477C16.1225 17.934 15.9594 17.5085 15.9594 17.0649H9.76583C9.76583 17.5085 9.6027 17.934 9.31232 18.2477C9.02194 18.5614 8.6281 18.7376 8.21744 18.7376H7.5346C7.247 18.7376 6.96507 18.6511 6.72044 18.4877Z" fill="#D63D4A"/>
</g>
<g style="mix-blend-mode:multiply">
<path d="M7.58308 9.41512L8.84728 6.57068C8.96141 6.31388 9.21608 6.14838 9.4971 6.14838H16.158C16.439 6.14838 16.6937 6.31388 16.8078 6.57068L18.072 9.41512C18.281 9.88537 17.9368 10.415 17.4222 10.415H8.2329C7.7183 10.415 7.37408 9.88537 7.58308 9.41512Z" fill="#D63D4A"/>
</g>
<path d="M8.91675 12.6106C9.50576 12.6106 9.98399 13.088 9.98413 13.677C9.98413 14.2661 9.50585 14.7444 8.91675 14.7444C8.32776 14.7442 7.85034 14.266 7.85034 13.677C7.85048 13.0881 8.32785 12.6107 8.91675 12.6106ZM16.739 12.6106C17.328 12.6106 17.8063 13.088 17.8064 13.677C17.8064 14.2661 17.3281 14.7444 16.739 14.7444C16.15 14.7442 15.6726 14.266 15.6726 13.677C15.6727 13.0881 16.1501 12.6107 16.739 12.6106Z" fill="white"/>
</g>
<g style="mix-blend-mode:multiply">
<path fill-rule="evenodd" clip-rule="evenodd" d="M17.5552 0.720335C17.4605 0.805326 17.3613 0.885237 17.2582 0.959731C17.0794 1.07973 16.8783 1.16253 16.6671 1.20453C16.5753 1.22253 16.4793 1.23033 16.2879 1.24533C15.8073 1.28373 15.5667 1.30293 15.3663 1.37372C15.1371 1.45451 14.9289 1.58565 14.7571 1.75749C14.5852 1.92933 14.4541 2.13751 14.3733 2.36671C14.3025 2.5671 14.2833 2.8077 14.2449 3.28829C14.238 3.41532 14.2244 3.5419 14.2041 3.66749C14.1621 3.87868 14.0793 4.07968 13.9593 4.25848C13.9071 4.33648 13.8447 4.40967 13.7199 4.55547C13.4073 4.92267 13.2507 5.10626 13.1589 5.29826C12.947 5.74225 12.947 6.25824 13.1589 6.70224C13.2507 6.89423 13.4073 7.07783 13.7199 7.44502C13.8447 7.59082 13.9071 7.66402 13.9593 7.74202C14.0793 7.92082 14.1621 8.12181 14.2041 8.33301C14.2221 8.42481 14.2299 8.52081 14.2449 8.7122C14.2833 9.1928 14.3025 9.43339 14.3733 9.63379C14.4541 9.86299 14.5852 10.0712 14.7571 10.243C14.9289 10.4148 15.1371 10.546 15.3663 10.6268C15.5667 10.6976 15.8073 10.7168 16.2879 10.7552C16.4793 10.7702 16.5753 10.778 16.6671 10.796C16.8783 10.838 17.0794 10.9214 17.2582 11.0408C17.3362 11.093 17.4094 11.1554 17.5552 11.2802C17.9224 11.5928 18.106 11.7494 18.298 11.8412C18.742 12.0529 19.258 12.0529 19.702 11.8412C19.894 11.7494 20.0776 11.5928 20.4448 11.2802C20.5906 11.1554 20.6638 11.093 20.7418 11.0408C20.9206 10.9208 21.1217 10.838 21.3329 10.796C21.4247 10.778 21.5207 10.7702 21.7121 10.7552C22.1927 10.7168 22.4333 10.6976 22.6337 10.6268C22.8629 10.546 23.0711 10.4148 23.2429 10.243C23.4148 10.0712 23.5459 9.86299 23.6267 9.63379C23.6975 9.43339 23.7167 9.1928 23.7551 8.7122C23.7701 8.52081 23.7779 8.42481 23.7959 8.33301C23.8379 8.12181 23.9213 7.92082 24.0407 7.74202C24.0929 7.66402 24.1553 7.59082 24.2801 7.44502C24.5927 7.07783 24.7493 6.89423 24.8411 6.70224C25.053 6.25824 25.053 5.74225 24.8411 5.29826C24.7493 5.10626 24.5927 4.92267 24.2801 4.55547C24.1951 4.46077 24.1152 4.36164 24.0407 4.25848C23.9207 4.07971 23.8374 3.8788 23.7959 3.66749C23.7756 3.5419 23.762 3.41532 23.7551 3.28829C23.7167 2.8077 23.6975 2.5671 23.6267 2.36671C23.5459 2.13751 23.4148 1.92933 23.2429 1.75749C23.0711 1.58565 22.8629 1.45451 22.6337 1.37372C22.4333 1.30293 22.1927 1.28373 21.7121 1.24533C21.585 1.23844 21.4585 1.22482 21.3329 1.20453C21.1215 1.16302 20.9206 1.0798 20.7418 0.959731C20.6387 0.885237 20.5395 0.805326 20.4448 0.720335C20.0776 0.40774 19.894 0.251143 19.702 0.159344C19.4829 0.054449 19.243 0 19 0C18.757 0 18.5171 0.054449 18.298 0.159344C18.106 0.251143 17.9224 0.40774 17.5552 0.720335ZM21.2987 3.70229C21.39 3.79385 21.4414 3.91792 21.4414 4.04728C21.4414 4.17664 21.39 4.30071 21.2987 4.39227L17.392 8.29941C17.3474 8.34813 17.2935 8.38732 17.2334 8.41462C17.1734 8.44192 17.1084 8.45676 17.0424 8.45825C16.9764 8.45974 16.9108 8.44784 16.8496 8.42327C16.7883 8.39871 16.7327 8.36199 16.686 8.31533C16.6394 8.26866 16.6026 8.21303 16.5781 8.15178C16.5535 8.09054 16.5416 8.02495 16.5431 7.95897C16.5446 7.893 16.5594 7.82801 16.5867 7.76793C16.614 7.70786 16.6532 7.65393 16.7019 7.60942L20.608 3.70289C20.6996 3.61151 20.8237 3.56019 20.953 3.56019C21.0824 3.56019 21.2065 3.61151 21.2981 3.70289M21.2783 7.62862C21.2783 7.80127 21.2097 7.96686 21.0876 8.08894C20.9655 8.21102 20.7999 8.27961 20.6272 8.27961C20.4546 8.27961 20.289 8.21102 20.1669 8.08894C20.0448 7.96686 19.9762 7.80127 19.9762 7.62862C19.9762 7.45597 20.0448 7.29039 20.1669 7.1683C20.289 7.04622 20.4546 6.97763 20.6272 6.97763C20.7999 6.97763 20.9655 7.04622 21.0876 7.1683C21.2097 7.29039 21.2783 7.45597 21.2783 7.62862ZM17.3722 5.02466C17.5448 5.02466 17.7104 4.95608 17.8325 4.83399C17.9546 4.71191 18.0232 4.54633 18.0232 4.37367C18.0232 4.20102 17.9546 4.03544 17.8325 3.91336C17.7104 3.79127 17.5448 3.72269 17.3722 3.72269C17.1995 3.72269 17.0339 3.79127 16.9118 3.91336C16.7897 4.03544 16.7211 4.20102 16.7211 4.37367C16.7211 4.54633 16.7897 4.71191 16.9118 4.83399C17.0339 4.95608 17.1995 5.02466 17.3722 5.02466Z" fill="#D63D4A"/>
</g>
<defs>
<clipPath id="clip0_97_7250">
<rect width="24" height="18.4" fill="white" transform="translate(0.916504 4.29944)"/>
</clipPath>
</defs>
</svg>
