<svg width="327" height="236" viewBox="0 0 327 236" fill="none" xmlns="http://www.w3.org/2000/svg">
<mask id="path-1-inside-1_6259_320404" fill="white">
<path d="M0 24C0 10.7452 10.7452 0 24 0H303C316.255 0 327 10.7452 327 24V212C327 225.255 316.255 236 303 236H24C10.7452 236 0 225.255 0 212V24Z"/>
</mask>
<path d="M0 24C0 10.7452 10.7452 0 24 0H303C316.255 0 327 10.7452 327 24V212C327 225.255 316.255 236 303 236H24C10.7452 236 0 225.255 0 212V24Z" fill="white"/>
<path d="M24 0V1H303V0V-1H24V0ZM327 24H326V212H327H328V24H327ZM303 236V235H24V236V237H303V236ZM0 212H1V24H0H-1V212H0ZM24 236V235C11.2974 235 1 224.703 1 212H0H-1C-1 225.807 10.1929 237 24 237V236ZM327 212H326C326 224.703 315.703 235 303 235V236V237C316.807 237 328 225.807 328 212H327ZM303 0V1C315.703 1 326 11.2975 326 24H327H328C328 10.1929 316.807 -1 303 -1V0ZM24 0V-1C10.1929 -1 -1 10.1929 -1 24H0H1C1 11.2975 11.2975 1 24 1V0Z" fill="#CDD1D5" mask="url(#path-1-inside-1_6259_320404)"/>
<path d="M32.0586 27.5312V32.8867H31.1328V30.8125H28.8242V30.0508H31.1328V27.5312H32.0586ZM28.7422 28.0469C28.7422 30.6367 26.9141 32.3477 23.9141 33.1094L23.5859 32.3477C26.082 31.7441 27.5762 30.4785 27.7695 28.8086H24.125V28.0469H28.7422ZM32.0586 33.332V35.875H26.2461V37.0938H32.4102V37.8555H25.332V35.1719H31.1328V34.082H25.3086V33.332H32.0586ZM38.5391 27.7656C40.8008 27.7656 42.2188 28.4922 42.2188 29.7461C42.2188 30.9766 40.8008 31.6914 38.5391 31.6914C36.2773 31.6914 34.8477 30.9766 34.8477 29.7461C34.8477 28.4922 36.2773 27.7656 38.5391 27.7656ZM38.5391 28.5039C36.8516 28.5039 35.7852 28.9727 35.7969 29.7461C35.7852 30.5078 36.8516 30.9531 38.5391 30.9648C40.2031 30.9531 41.2812 30.5078 41.2812 29.7461C41.2812 28.9727 40.2031 28.5039 38.5391 28.5039ZM42.125 34.3867V37.8086H34.9531V34.3867H42.125ZM35.8672 35.125V37.0586H41.2227V35.125H35.8672ZM43.2852 32.5938V33.3555H33.793V32.5938H43.2852ZM49.3906 28.5039C49.3906 29.9688 51.3125 31.2461 53.1875 31.5039L52.8125 32.2539C51.1953 31.9844 49.5957 31.0879 48.9219 29.8047C48.2539 31.0938 46.6484 31.9844 45.0312 32.2539L44.6562 31.5039C46.5312 31.2461 48.4414 29.9922 48.4414 28.5039V27.9062H49.3906V28.5039ZM53.6562 33.4023V34.1758H49.3438V37.9492H48.4414V34.1758H44.1641V33.4023H53.6562Z" fill="#464C53"/>
<path d="M291.293 197.531V207.949H290.367V197.531H291.293ZM288.211 198.668C288.199 201.668 286.805 204.316 283.312 205.992L282.809 205.242C285.627 203.906 287.062 201.908 287.273 199.418H283.289V198.668H288.211ZM301.195 197.531V200.707H302.766V201.48H301.195V205.16H300.27V197.531H301.195ZM298.383 198.34C298.383 201.023 296.461 203.016 293.461 203.953L293.062 203.215C295.559 202.436 297.188 200.947 297.387 199.113H293.496V198.34H298.383ZM301.676 206.953V207.727H294.668V204.387H295.582V206.953H301.676Z" fill="#464C53"/>
<mask id="path-5-inside-2_6259_320404" fill="white">
<path d="M38 50H303V190H38V50Z"/>
</mask>
<path d="M38 50H303V190H38V50Z" fill="white"/>
<path d="M38 190H37V191H38V190ZM303 190V189H38V190V191H303V190ZM38 190H39V50H38H37V190H38Z" fill="#CDD1D5" mask="url(#path-5-inside-2_6259_320404)"/>
<path d="M59 83.5H262.5" stroke="#F8633C" stroke-width="2" stroke-linecap="round"/>
<path d="M58.5 83.5V107M262.5 83.5V158" stroke="#F8633C" stroke-width="2" stroke-linecap="round" stroke-linejoin="round" stroke-dasharray="3 4"/>
<path d="M274.404 103.84V104.613H264.865V103.84H269.166V101.309H270.092V103.84H274.404ZM270.092 97.5117C270.092 99.1758 272.154 100.605 273.947 100.898L273.572 101.625C271.979 101.314 270.297 100.301 269.635 98.8477C268.961 100.307 267.285 101.344 265.721 101.672L265.334 100.934C267.092 100.629 269.143 99.1758 269.143 97.5117V97.2539H265.65V96.4805H273.584V97.2539H270.092V97.5117ZM283.779 95.5312V105.949H282.865V95.5312H283.779ZM275.295 103.172C276.186 103.166 277.205 103.16 278.26 103.125V101.988C277.012 101.854 276.197 101.145 276.209 100.102C276.197 98.9297 277.205 98.168 278.705 98.168C280.205 98.168 281.225 98.9297 281.225 100.102C281.225 101.133 280.416 101.842 279.186 101.977V103.09C280.193 103.049 281.213 102.973 282.174 102.844L282.244 103.547C279.924 103.922 277.369 103.957 275.436 103.957L275.295 103.172ZM281.904 96.8203V97.5703H275.518V96.8203H278.26V95.543H279.186V96.8203H281.904ZM278.705 98.8828C277.744 98.8828 277.064 99.375 277.064 100.102C277.064 100.828 277.744 101.297 278.705 101.285C279.678 101.297 280.346 100.828 280.346 100.102C280.346 99.375 279.678 98.8828 278.705 98.8828ZM288.561 95.918C290.119 95.9297 291.256 96.8672 291.256 98.2266C291.256 99.5859 290.119 100.523 288.561 100.523C286.979 100.523 285.854 99.5859 285.854 98.2266C285.854 96.8672 286.979 95.9297 288.561 95.918ZM288.561 96.6914C287.518 96.6914 286.744 97.3242 286.756 98.2266C286.744 99.1406 287.518 99.7734 288.561 99.7734C289.592 99.7734 290.365 99.1406 290.365 98.2266C290.365 97.3242 289.592 96.6914 288.561 96.6914ZM294.209 95.5312V100.887H293.295V95.5312H294.209ZM294.209 101.391V103.898H288.361V105.07H294.584V105.809H287.459V103.207H293.295V102.129H287.436V101.391H294.209Z" fill="#1C589C"/>
<path d="M199 31C210.598 31 220 40.402 220 52C220 63.598 210.598 73 199 73H164.364C164.354 73.0333 164.342 73.0668 164.328 73.0996L161.774 79.0137C161.423 79.8274 160.265 79.8158 159.931 78.9951L157.485 73H122C110.402 73 101 63.598 101 52C101 40.402 110.402 31 122 31H199Z" fill="#F8633C"/>
<path d="M117.076 47.1172C115.389 47.1172 114.182 46.2148 114.123 44.8672H115.189C115.248 45.6758 116.057 46.1797 117.064 46.1797C118.178 46.1797 118.998 45.5703 118.998 44.6914C118.998 43.7656 118.26 43.1094 116.936 43.1094H116.244V42.1836H116.936C117.967 42.1836 118.682 41.6094 118.682 40.7305C118.682 39.8867 118.061 39.3125 117.1 39.3125C116.197 39.3125 115.365 39.8164 115.318 40.6484H114.299C114.357 39.3008 115.6 38.3984 117.111 38.3984C118.729 38.3984 119.713 39.4531 119.701 40.6719C119.713 41.6328 119.15 42.3477 118.26 42.5938V42.6523C119.361 42.8281 120.041 43.6133 120.029 44.6914C120.041 46.0859 118.764 47.1172 117.076 47.1172ZM124.553 38.5156V47H123.486V39.6172H123.439L121.377 40.9883V39.9219L123.486 38.5156H124.553ZM129.393 37.918C130.951 37.9297 132.088 38.8672 132.088 40.2266C132.088 41.5859 130.951 42.5234 129.393 42.5234C127.811 42.5234 126.686 41.5859 126.686 40.2266C126.686 38.8672 127.811 37.9297 129.393 37.918ZM129.393 38.6914C128.35 38.6914 127.576 39.3242 127.588 40.2266C127.576 41.1406 128.35 41.7734 129.393 41.7734C130.424 41.7734 131.197 41.1406 131.197 40.2266C131.197 39.3242 130.424 38.6914 129.393 38.6914ZM135.041 37.5312V42.8867H134.127V37.5312H135.041ZM135.041 43.3906V45.8984H129.193V47.0703H135.416V47.8086H128.291V45.207H134.127V44.1289H128.268V43.3906H135.041ZM147.967 37.5312V40.707H149.537V41.4805H147.967V45.1602H147.041V37.5312H147.967ZM145.154 38.3398C145.154 41.0234 143.232 43.0156 140.232 43.9531L139.834 43.2148C142.33 42.4355 143.959 40.9473 144.158 39.1133H140.268V38.3398H145.154ZM148.447 46.9531V47.7266H141.439V44.3867H142.354V46.9531H148.447ZM159.053 38.3281V39.0898H157.986V42.418C158.473 42.3887 158.941 42.3477 159.393 42.2891L159.439 42.9922C157.412 43.3086 155.033 43.332 153.346 43.332L153.229 42.5586L154.576 42.5469V39.0898H153.521V38.3281H159.053ZM161.842 37.5312V43.9648H160.916V42.0312H159.158V41.2695H160.916V40.168H159.158V39.4062H160.916V37.5312H161.842ZM158.385 44.1875C160.564 44.1875 161.877 44.8672 161.877 46.0508C161.877 47.2461 160.564 47.9258 158.385 47.9258C156.205 47.9258 154.893 47.2461 154.893 46.0508C154.893 44.8672 156.205 44.1875 158.385 44.1875ZM158.385 44.9023C156.779 44.9023 155.795 45.3359 155.807 46.0508C155.795 46.7773 156.779 47.1992 158.385 47.1992C159.99 47.1992 160.963 46.7773 160.963 46.0508C160.963 45.3359 159.99 44.9023 158.385 44.9023ZM155.467 42.5352C156 42.5234 156.551 42.5059 157.096 42.4766V39.0898H155.467V42.5352ZM171.861 38.1055V38.8906C171.861 39.7227 171.861 40.7012 171.615 42.0078H173.115V42.7695H170.443V45.2891H169.553V42.7695H167.643V45.2891H166.74V42.7695H163.576V42.0078H170.701C170.947 40.6895 170.947 39.7227 170.947 38.8906V38.8555H164.783V38.1055H171.861ZM172.143 46.9531V47.7266H164.748V44.4688H165.662V46.9531H172.143ZM185.596 37.5312V42.8867H184.67V40.8125H182.361V40.0508H184.67V37.5312H185.596ZM182.279 38.0469C182.279 40.6367 180.451 42.3477 177.451 43.1094L177.123 42.3477C179.619 41.7441 181.113 40.4785 181.307 38.8086H177.662V38.0469H182.279ZM185.596 43.332V45.875H179.783V47.0938H185.947V47.8555H178.869V45.1719H184.67V44.082H178.846V43.332H185.596ZM192.076 37.7656C194.338 37.7656 195.756 38.4922 195.756 39.7461C195.756 40.9766 194.338 41.6914 192.076 41.6914C189.814 41.6914 188.385 40.9766 188.385 39.7461C188.385 38.4922 189.814 37.7656 192.076 37.7656ZM192.076 38.5039C190.389 38.5039 189.322 38.9727 189.334 39.7461C189.322 40.5078 190.389 40.9531 192.076 40.9648C193.74 40.9531 194.818 40.5078 194.818 39.7461C194.818 38.9727 193.74 38.5039 192.076 38.5039ZM195.662 44.3867V47.8086H188.49V44.3867H195.662ZM189.404 45.125V47.0586H194.76V45.125H189.404ZM196.822 42.5938V43.3555H187.33V42.5938H196.822ZM202.928 38.5039C202.928 39.9688 204.85 41.2461 206.725 41.5039L206.35 42.2539C204.732 41.9844 203.133 41.0879 202.459 39.8047C201.791 41.0938 200.186 41.9844 198.568 42.2539L198.193 41.5039C200.068 41.2461 201.979 39.9922 201.979 38.5039V37.9062H202.928V38.5039ZM207.193 43.4023V44.1758H202.881V47.9492H201.979V44.1758H197.701V43.4023H207.193ZM142.043 65.1172C140.273 65.1172 138.984 64.0742 138.949 62.6094H140.66C140.695 63.2773 141.305 63.7227 142.043 63.7227C142.922 63.7227 143.543 63.1016 143.543 62.2227C143.543 61.3203 142.91 60.6992 142.02 60.6875C141.387 60.6875 140.941 60.9219 140.684 61.4023H139.09L139.547 56.5156H144.773V57.957H141L140.766 60.1016H140.836C141.152 59.6797 141.785 59.3867 142.535 59.3867C144.094 59.3867 145.254 60.5469 145.254 62.1758C145.254 63.8867 143.953 65.1172 142.043 65.1172ZM148.078 64.1328L147.07 67.4727H145.828L146.414 64.1328H148.078ZM152.566 65.1172C150.445 65.1172 149.156 63.5352 149.156 60.7578C149.156 57.9805 150.445 56.3984 152.566 56.3984C154.688 56.3984 155.977 57.9922 155.977 60.7578C155.977 63.5469 154.688 65.1172 152.566 65.1172ZM152.566 63.6641C153.551 63.6641 154.184 62.7148 154.172 60.7578C154.172 58.8242 153.551 57.8398 152.566 57.8398C151.582 57.8398 150.961 58.8242 150.961 60.7578C150.949 62.7148 151.582 63.6641 152.566 63.6641ZM160.488 65.1172C158.367 65.1172 157.078 63.5352 157.078 60.7578C157.078 57.9805 158.367 56.3984 160.488 56.3984C162.609 56.3984 163.898 57.9922 163.898 60.7578C163.898 63.5469 162.609 65.1172 160.488 65.1172ZM160.488 63.6641C161.473 63.6641 162.105 62.7148 162.094 60.7578C162.094 58.8242 161.473 57.8398 160.488 57.8398C159.504 57.8398 158.883 58.8242 158.883 60.7578C158.871 62.7148 159.504 63.6641 160.488 63.6641ZM168.41 65.1172C166.289 65.1172 165 63.5352 165 60.7578C165 57.9805 166.289 56.3984 168.41 56.3984C170.531 56.3984 171.82 57.9922 171.82 60.7578C171.82 63.5469 170.531 65.1172 168.41 65.1172ZM168.41 63.6641C169.395 63.6641 170.027 62.7148 170.016 60.7578C170.016 58.8242 169.395 57.8398 168.41 57.8398C167.426 57.8398 166.805 58.8242 166.805 60.7578C166.793 62.7148 167.426 63.6641 168.41 63.6641ZM182.449 63.6172V64.8359H172.688V63.6172H176.801V61.6484H173.719V56.0938H175.219V57.7461H179.871V56.0938H181.359V61.6484H178.289V63.6172H182.449ZM175.219 60.4531H179.871V58.9414H175.219V60.4531Z" fill="white"/>
<path d="M66.5957 105H63.959V96.5156H66.7012C69.1738 96.5156 70.6387 98.1094 70.6387 100.746C70.6387 103.395 69.1738 105 66.5957 105ZM65.0137 104.062H66.5254C68.6113 104.062 69.6074 102.809 69.6074 100.746C69.6074 98.6953 68.6113 97.4531 66.6309 97.4531H65.0137V104.062ZM75.7012 100.301V101.227H71.9863V100.301H75.7012ZM80.0371 105.117C78.3496 105.117 77.1426 104.215 77.084 102.867H78.1504C78.209 103.676 79.0176 104.18 80.0254 104.18C81.1387 104.18 81.959 103.57 81.959 102.691C81.959 101.766 81.2207 101.109 79.8965 101.109H79.2051V100.184H79.8965C80.9277 100.184 81.6426 99.6094 81.6426 98.7305C81.6426 97.8867 81.0215 97.3125 80.0605 97.3125C79.1582 97.3125 78.3262 97.8164 78.2793 98.6484H77.2598C77.3184 97.3008 78.5605 96.3984 80.0723 96.3984C81.6895 96.3984 82.6738 97.4531 82.6621 98.6719C82.6738 99.6328 82.1113 100.348 81.2207 100.594V100.652C82.3223 100.828 83.002 101.613 82.9902 102.691C83.002 104.086 81.7246 105.117 80.0371 105.117ZM87.5137 96.5156V105H86.4473V97.6172H86.4004L84.3379 98.9883V97.9219L86.4473 96.5156H87.5137Z" fill="#1C589C"/>
<mask id="path-13-outside-3_6259_320404" maskUnits="userSpaceOnUse" x="258.5" y="79.5" width="8" height="8" fill="black">
<rect fill="white" x="258.5" y="79.5" width="8" height="8"/>
<path d="M260.5 83.5C260.5 82.3954 261.395 81.5 262.5 81.5C263.605 81.5 264.5 82.3954 264.5 83.5C264.5 84.6046 263.605 85.5 262.5 85.5C261.395 85.5 260.5 84.6046 260.5 83.5Z"/>
</mask>
<path d="M260.5 83.5C260.5 82.3954 261.395 81.5 262.5 81.5C263.605 81.5 264.5 82.3954 264.5 83.5C264.5 84.6046 263.605 85.5 262.5 85.5C261.395 85.5 260.5 84.6046 260.5 83.5Z" fill="white"/>
<path d="M262.5 85.5V83.5H260.5H258.5C258.5 85.7091 260.291 87.5 262.5 87.5V85.5ZM264.5 83.5H262.5V85.5V87.5C264.709 87.5 266.5 85.7091 266.5 83.5H264.5ZM262.5 81.5V83.5H264.5H266.5C266.5 81.2909 264.709 79.5 262.5 79.5V81.5ZM262.5 81.5V79.5C260.291 79.5 258.5 81.2909 258.5 83.5H260.5H262.5V81.5Z" fill="#F8633C" mask="url(#path-13-outside-3_6259_320404)"/>
<mask id="path-15-outside-4_6259_320404" maskUnits="userSpaceOnUse" x="54.5" y="79.5" width="8" height="8" fill="black">
<rect fill="white" x="54.5" y="79.5" width="8" height="8"/>
<path d="M56.5 83.5C56.5 82.3954 57.3954 81.5 58.5 81.5C59.6046 81.5 60.5 82.3954 60.5 83.5C60.5 84.6046 59.6046 85.5 58.5 85.5C57.3954 85.5 56.5 84.6046 56.5 83.5Z"/>
</mask>
<path d="M56.5 83.5C56.5 82.3954 57.3954 81.5 58.5 81.5C59.6046 81.5 60.5 82.3954 60.5 83.5C60.5 84.6046 59.6046 85.5 58.5 85.5C57.3954 85.5 56.5 84.6046 56.5 83.5Z" fill="white"/>
<path d="M58.5 85.5V83.5H56.5H54.5C54.5 85.7091 56.2909 87.5 58.5 87.5V85.5ZM60.5 83.5H58.5V85.5V87.5C60.7091 87.5 62.5 85.7091 62.5 83.5H60.5ZM58.5 81.5V83.5H60.5H62.5C62.5 81.2909 60.7091 79.5 58.5 79.5V81.5ZM58.5 81.5V79.5C56.2909 79.5 54.5 81.2909 54.5 83.5H56.5H58.5V81.5Z" fill="#F8633C" mask="url(#path-15-outside-4_6259_320404)"/>
<path d="M54 112H63V189H54V112Z" fill="#FBEFF0"/>
<path d="M54 112V111.5C53.7239 111.5 53.5 111.724 53.5 112H54ZM63 112H63.5C63.5 111.724 63.2761 111.5 63 111.5V112ZM54 112V112.5H63V112V111.5H54V112ZM63 112H62.5V189H63H63.5V112H63ZM54 189H54.5V112H54H53.5V189H54Z" fill="#F5D6D9"/>
<path d="M71 134H80V189H71V134Z" fill="#FBEFF0"/>
<path d="M71 134V133.5C70.7239 133.5 70.5 133.724 70.5 134H71ZM80 134H80.5C80.5 133.724 80.2761 133.5 80 133.5V134ZM71 134V134.5H80V134V133.5H71V134ZM80 134H79.5V189H80H80.5V134H80ZM71 189H71.5V134H71H70.5V189H71Z" fill="#F5D6D9"/>
<path d="M88 157H97V189H88V157Z" fill="#FBEFF0"/>
<path d="M88 157V156.5C87.7239 156.5 87.5 156.724 87.5 157H88ZM97 157H97.5C97.5 156.724 97.2761 156.5 97 156.5V157ZM88 157V157.5H97V157V156.5H88V157ZM97 157H96.5V189H97H97.5V157H97ZM88 189H88.5V157H88H87.5V189H88Z" fill="#F5D6D9"/>
<path d="M105 120H114V189H105V120Z" fill="#FBEFF0"/>
<path d="M105 120V119.5C104.724 119.5 104.5 119.724 104.5 120H105ZM114 120H114.5C114.5 119.724 114.276 119.5 114 119.5V120ZM105 120V120.5H114V120V119.5H105V120ZM114 120H113.5V189H114H114.5V120H114ZM105 189H105.5V120H105H104.5V189H105Z" fill="#F5D6D9"/>
<path d="M122 140H131V189H122V140Z" fill="#FBEFF0"/>
<path d="M122 140V139.5C121.724 139.5 121.5 139.724 121.5 140H122ZM131 140H131.5C131.5 139.724 131.276 139.5 131 139.5V140ZM122 140V140.5H131V140V139.5H122V140ZM131 140H130.5V189H131H131.5V140H131ZM122 189H122.5V140H122H121.5V189H122Z" fill="#F5D6D9"/>
<path d="M139 157H148V189H139V157Z" fill="#FBEFF0"/>
<path d="M139 157V156.5C138.724 156.5 138.5 156.724 138.5 157H139ZM148 157H148.5C148.5 156.724 148.276 156.5 148 156.5V157ZM139 157V157.5H148V157V156.5H139V157ZM148 157H147.5V189H148H148.5V157H148ZM139 189H139.5V157H139H138.5V189H139Z" fill="#F5D6D9"/>
<path d="M156 131H165V189H156V131Z" fill="#FBEFF0"/>
<path d="M156 131V130.5C155.724 130.5 155.5 130.724 155.5 131H156ZM165 131H165.5C165.5 130.724 165.276 130.5 165 130.5V131ZM156 131V131.5H165V131V130.5H156V131ZM165 131H164.5V189H165H165.5V131H165ZM156 189H156.5V131H156H155.5V189H156Z" fill="#F5D6D9"/>
<path d="M173 112H182V189H173V112Z" fill="#FBEFF0"/>
<path d="M173 112V111.5C172.724 111.5 172.5 111.724 172.5 112H173ZM182 112H182.5C182.5 111.724 182.276 111.5 182 111.5V112ZM173 112V112.5H182V112V111.5H173V112ZM182 112H181.5V189H182H182.5V112H182ZM173 189H173.5V112H173H172.5V189H173Z" fill="#F5D6D9"/>
<path d="M190 143H199V189H190V143Z" fill="#FBEFF0"/>
<path d="M190 143V142.5C189.724 142.5 189.5 142.724 189.5 143H190ZM199 143H199.5C199.5 142.724 199.276 142.5 199 142.5V143ZM190 143V143.5H199V143V142.5H190V143ZM199 143H198.5V189H199H199.5V143H199ZM190 189H190.5V143H190H189.5V189H190Z" fill="#F5D6D9"/>
<path d="M207 131H216V189H207V131Z" fill="#FBEFF0"/>
<path d="M207 131V130.5C206.724 130.5 206.5 130.724 206.5 131H207ZM216 131H216.5C216.5 130.724 216.276 130.5 216 130.5V131ZM207 131V131.5H216V131V130.5H207V131ZM216 131H215.5V189H216H216.5V131H216ZM207 189H207.5V131H207H206.5V189H207Z" fill="#F5D6D9"/>
<path d="M224 153H233V189H224V153Z" fill="#FBEFF0"/>
<path d="M224 153V152.5C223.724 152.5 223.5 152.724 223.5 153H224ZM233 153H233.5C233.5 152.724 233.276 152.5 233 152.5V153ZM224 153V153.5H233V153V152.5H224V153ZM233 153H232.5V189H233H233.5V153H233ZM224 189H224.5V153H224H223.5V189H224Z" fill="#F5D6D9"/>
<path d="M241 143H250V189H241V143Z" fill="#FBEFF0"/>
<path d="M241 143V142.5C240.724 142.5 240.5 142.724 240.5 143H241ZM250 143H250.5C250.5 142.724 250.276 142.5 250 142.5V143ZM241 143V143.5H250V143V142.5H241V143ZM250 143H249.5V189H250H250.5V143H250ZM241 189H241.5V143H241H240.5V189H241Z" fill="#F5D6D9"/>
<path d="M258 162H267V189H258V162Z" fill="#FBEFF0"/>
<path d="M258 162V161.5C257.724 161.5 257.5 161.724 257.5 162H258ZM267 162H267.5C267.5 161.724 267.276 161.5 267 161.5V162ZM258 162V162.5H267V162V161.5H258V162ZM267 162H266.5V189H267H267.5V162H267ZM258 189H258.5V162H258H257.5V189H258Z" fill="#F5D6D9"/>
<path d="M275 116H284V189H275V116Z" fill="#E5ECF9"/>
<path d="M275 116V115.5C274.724 115.5 274.5 115.724 274.5 116H275ZM284 116H284.5C284.5 115.724 284.276 115.5 284 115.5V116ZM275 116V116.5H284V116V115.5H275V116ZM284 116H283.5V189H284H284.5V116H284ZM275 189H275.5V116H275H274.5V189H275Z" fill="#98ACC5"/>
</svg>
