<svg width="33" height="32" viewBox="0 0 33 32" fill="none" xmlns="http://www.w3.org/2000/svg">
<path d="M15.4333 13.3337C15.4333 12.7446 15.9106 12.2673 16.4997 12.2673C17.0889 12.2673 17.5662 12.7446 17.5662 13.3337V19.4262L19.0792 17.9132C19.4957 17.4966 20.1704 17.4966 20.587 17.9132C21.0035 18.3297 21.0035 19.0044 20.587 19.421L17.2537 22.7543C16.8371 23.1709 16.1624 23.1709 15.7458 22.7543L12.4125 19.421C11.9959 19.0044 11.9959 18.3297 12.4125 17.9132C12.8031 17.5226 13.4206 17.4983 13.8396 17.8403L13.9203 17.9132L15.4333 19.4262V13.3337Z" fill="#33363D"/>
<path d="M25.4333 18.3494C25.4333 16.7033 24.7429 14.9194 23.8474 13.3442C23.1036 12.0369 22.1859 10.8788 21.1508 9.75692C21.0444 10.0183 20.9112 10.2977 20.7302 10.5785C20.5121 10.917 20.1215 11.1039 19.7211 11.0616C19.3207 11.0194 18.9783 10.7545 18.8357 10.378C18.1399 8.54203 16.9539 6.59125 15.5154 5.74651L15.5089 5.7426L15.462 5.71526L15.4555 5.76083C14.9784 8.60033 13.0627 11.1334 11.0596 12.8585C7.58886 15.8487 7.03702 18.8691 7.9737 21.2074C8.91147 23.5484 11.3401 25.2126 13.8331 25.4887L14.4893 25.5603L14.518 25.5642C14.8311 25.6075 15.4527 25.6213 16.1508 25.6189C16.7065 25.617 17.4478 25.6026 17.7797 25.6007L18.7953 25.4887C21.2817 25.2138 22.9436 24.3889 23.9828 23.1502C25.0199 21.9137 25.4333 20.2666 25.4333 18.3494ZM27.5662 18.3494C27.5661 20.5436 27.0964 22.759 25.6169 24.5225C24.1171 26.3101 21.8691 27.2946 19.031 27.6085L17.962 27.727C17.9232 27.7313 17.8839 27.7335 17.8448 27.7335C17.4553 27.7335 16.9287 27.7491 16.1586 27.7517C15.5033 27.754 14.7447 27.7441 14.255 27.6801L13.5987 27.6098C10.4189 27.2577 7.25764 25.1567 5.99324 22.0004C4.62905 18.5944 5.70534 14.6554 9.66641 11.2426C11.4597 9.69824 12.9872 7.5766 13.3513 5.40927L13.4542 4.78687C13.6424 3.65909 14.839 3.03988 15.8513 3.48088L16.0518 3.58245L16.5935 3.90797L16.5948 3.90666C17.9856 4.72312 19.0743 6.12152 19.8669 7.54599C20.062 7.37184 20.2982 7.24564 20.5622 7.18531C21.0555 7.07279 21.5595 7.20308 21.9464 7.51474L22.1052 7.65927L22.6026 8.18271C23.589 9.2407 24.516 10.37 25.3135 11.6423L25.7016 12.2895C26.6735 13.9991 27.5662 16.1658 27.5662 18.3494Z" fill="#33363D"/>
</svg>
