<svg width="21" height="21" viewBox="0 0 21 21" fill="none" xmlns="http://www.w3.org/2000/svg">
<path fill-rule="evenodd" clip-rule="evenodd" d="M6.81699 3.83334C6.52322 3.83343 6.23469 3.91117 5.98064 4.05869C5.72659 4.2062 5.51604 4.41825 5.37033 4.67334L2.38699 9.89417C2.24285 10.1461 2.16701 10.4314 2.16699 10.7217V14.47C2.16701 14.7286 2.22721 14.9837 2.34283 15.215L3.27449 17.0783C3.41287 17.3553 3.62565 17.5882 3.88897 17.751C4.15229 17.9138 4.45575 18 4.76533 18H5.50033C5.94235 18 6.36628 17.8244 6.67884 17.5118C6.9914 17.1993 7.16699 16.7754 7.16699 16.3333H13.8337C13.8337 16.7754 14.0093 17.1993 14.3218 17.5118C14.6344 17.8244 15.0583 18 15.5003 18H16.2353C16.5449 18 16.8484 17.9138 17.1117 17.751C17.375 17.5882 17.5878 17.3553 17.7262 17.0783L18.6578 15.215C18.7737 14.9842 18.8337 14.7283 18.8337 14.47V10.7217C18.8336 10.4314 18.7578 10.1461 18.6137 9.89417L15.6303 4.67334C15.4846 4.41825 15.2741 4.2062 15.02 4.05869C14.766 3.91117 14.4774 3.83343 14.1837 3.83334H6.81699ZM10.5003 10.5C9.16949 10.5 7.94033 10.2142 6.70616 9.75417C6.50835 9.65538 6.2794 9.63921 6.06967 9.70922C5.85994 9.77924 5.68662 9.9297 5.58783 10.1275C5.48903 10.3253 5.47286 10.5543 5.54288 10.764C5.61289 10.9737 5.76335 11.147 5.96116 11.2458C6.37283 11.45 8.46699 12.1667 10.5003 12.1667C12.0453 12.1667 13.6403 11.9383 15.0378 11.2467C15.2346 11.1466 15.3842 10.9732 15.4544 10.7638C15.5245 10.5545 15.5096 10.326 15.4128 10.1275C15.3639 10.0295 15.2962 9.94214 15.2136 9.87035C15.1309 9.79856 15.0349 9.74376 14.931 9.70908C14.8272 9.67441 14.7175 9.66055 14.6083 9.66829C14.4991 9.67602 14.3924 9.7052 14.2945 9.75417C13.157 10.3225 11.747 10.5 10.5003 10.5Z" fill="#33363D"/>
<path fill-rule="evenodd" clip-rule="evenodd" d="M6.81699 3.83334C6.52322 3.83343 6.23469 3.91117 5.98064 4.05869C5.72659 4.2062 5.51604 4.41825 5.37033 4.67334L2.38699 9.89417C2.24285 10.1461 2.16701 10.4314 2.16699 10.7217V14.47C2.16701 14.7286 2.22721 14.9837 2.34283 15.215L3.27449 17.0783C3.41287 17.3553 3.62565 17.5882 3.88897 17.751C4.15229 17.9138 4.45575 18 4.76533 18H5.50033C5.94235 18 6.36628 17.8244 6.67884 17.5118C6.9914 17.1993 7.16699 16.7754 7.16699 16.3333H13.8337C13.8337 16.7754 14.0093 17.1993 14.3218 17.5118C14.6344 17.8244 15.0583 18 15.5003 18H16.2353C16.5449 18 16.8484 17.9138 17.1117 17.751C17.375 17.5882 17.5878 17.3553 17.7262 17.0783L18.6578 15.215C18.7737 14.9842 18.8337 14.7283 18.8337 14.47V10.7217C18.8336 10.4314 18.7578 10.1461 18.6137 9.89417L15.6303 4.67334C15.4846 4.41825 15.2741 4.2062 15.02 4.05869C14.766 3.91117 14.4774 3.83343 14.1837 3.83334H6.81699ZM10.5003 10.5C9.16949 10.5 7.94033 10.2142 6.70616 9.75417C6.50835 9.65538 6.2794 9.63921 6.06967 9.70922C5.85994 9.77924 5.68662 9.9297 5.58783 10.1275C5.48903 10.3253 5.47286 10.5543 5.54288 10.764C5.61289 10.9737 5.76335 11.147 5.96116 11.2458C6.37283 11.45 8.46699 12.1667 10.5003 12.1667C12.0453 12.1667 13.6403 11.9383 15.0378 11.2467C15.2346 11.1466 15.3842 10.9732 15.4544 10.7638C15.5245 10.5545 15.5096 10.326 15.4128 10.1275C15.3639 10.0295 15.2962 9.94214 15.2136 9.87035C15.1309 9.79856 15.0349 9.74376 14.931 9.70908C14.8272 9.67441 14.7175 9.66055 14.6083 9.66829C14.4991 9.67602 14.3924 9.7052 14.2945 9.75417C13.157 10.3225 11.747 10.5 10.5003 10.5Z" fill="#285FA4"/>
</svg>
