<svg width="33" height="32" viewBox="0 0 33 32" fill="none" xmlns="http://www.w3.org/2000/svg">
<path d="M14.0208 13.3913L10.0803 5.51013C9.73336 4.81632 10.2379 4 11.0136 4L20.1585 4C20.9342 4 21.4387 4.81632 21.0918 5.51013L17.1513 13.3913H14.0208Z" fill="#FA967C"/>
<path d="M27.0649 19.1304C27.0649 24.1393 22.891 28 18.7171 28H12.4562C8.2823 28 4.1084 24.1393 4.1084 19.1304C4.1084 12.6514 9.24738 8.69568 15.5866 8.69568C21.9259 8.69568 27.0649 12.6514 27.0649 19.1304Z" fill="#FA967C"/>
<path d="M15.661 15.2409C15.8723 15.2409 16.0897 15.3001 16.2715 15.4359C16.4255 15.551 16.5566 15.7214 16.6319 15.9656L17.6755 19.7106L18.6908 15.8528C18.752 15.6109 18.8884 15.4471 19.0599 15.3491C19.2386 15.247 19.4624 15.2166 19.6956 15.2657C19.9386 15.3146 20.1116 15.4398 20.2142 15.606C20.3162 15.7711 20.3523 15.9846 20.2917 16.2291L19.7582 18.1247L20.8607 18.1248C21.0808 18.1248 21.2801 18.2134 21.4244 18.3567C21.5687 18.4999 21.6579 18.6978 21.6579 18.9164C21.6579 19.135 21.5687 19.3329 21.4244 19.4762C21.2801 19.6194 21.0808 19.708 20.8606 19.708L19.3124 19.7079L18.6644 22.0089C18.5959 22.258 18.4709 22.4337 18.3221 22.5543C18.1437 22.6991 17.9273 22.7656 17.7148 22.7717C17.4816 22.7721 17.2595 22.7125 17.0762 22.5757C16.9184 22.4579 16.786 22.2821 16.7104 22.0262L15.6465 18.0836L14.5435 22.0088C14.4732 22.2641 14.3415 22.4427 14.185 22.5638C13.9969 22.7093 13.769 22.7722 13.5515 22.7722C13.3342 22.7722 13.1147 22.7127 12.9321 22.5756C12.7769 22.4592 12.6455 22.2863 12.5703 22.0367L11.9222 19.7079L10.3128 19.708C10.0927 19.708 9.89339 19.6194 9.74913 19.4762C9.60486 19.3329 9.51562 19.135 9.51562 18.9164C9.51562 18.6978 9.60486 18.4999 9.74913 18.3567C9.89339 18.2134 10.0927 18.1248 10.3128 18.1248L11.4819 18.1247L10.98 16.3196C10.9079 16.0653 10.9384 15.8477 11.0336 15.6753C11.1339 15.4936 11.311 15.355 11.5541 15.2865C11.8078 15.2248 12.0434 15.2261 12.2323 15.3091C12.4129 15.3884 12.5637 15.5371 12.6418 15.8006L13.632 19.7068L14.6689 16.005C14.7396 15.7475 14.8705 15.5682 15.027 15.4471C15.2124 15.3037 15.4379 15.2409 15.661 15.2409Z" fill="#D63D4A"/>
<path d="M9.84766 8.41136C9.84766 7.99223 10.1874 7.65247 10.6065 7.65247H20.567C20.9861 7.65247 21.3259 7.99223 21.3259 8.41136V8.98053C21.3259 9.39965 20.9861 9.73942 20.567 9.73942H10.6065C10.1874 9.73942 9.84766 9.39965 9.84766 8.98053V8.41136Z" fill="#FA967C"/>
<path d="M9.84766 8.41136C9.84766 7.99223 10.1874 7.65247 10.6065 7.65247H20.567C20.9861 7.65247 21.3259 7.99223 21.3259 8.41136V8.98053C21.3259 9.39965 20.9861 9.73942 20.567 9.73942H10.6065C10.1874 9.73942 9.84766 9.39965 9.84766 8.98053V8.41136Z" fill="#D63D4A"/>
</svg>
