<svg width="33" height="32" viewBox="0 0 33 32" fill="none" xmlns="http://www.w3.org/2000/svg">
<path fill-rule="evenodd" clip-rule="evenodd" d="M11.4088 4.66666C11.0017 4.6668 10.602 4.78317 10.25 5.00397C9.89794 5.22478 9.60621 5.54218 9.40432 5.92401L5.27065 13.7388C5.07092 14.116 4.96585 14.543 4.96582 14.9775V20.5882C4.96584 20.9753 5.04926 21.3571 5.20945 21.7033L6.50036 24.4925C6.6921 24.907 6.98692 25.2556 7.35177 25.4993C7.71662 25.743 8.13709 25.8721 8.56604 25.8721H9.58444C10.1969 25.8721 10.7843 25.6092 11.2174 25.1414C11.6505 24.6735 11.8938 24.039 11.8938 23.3773H21.131C21.131 24.039 21.3743 24.6735 21.8074 25.1414C22.2405 25.6092 22.8278 25.8721 23.4403 25.8721H24.4587C24.8877 25.8721 25.3081 25.743 25.673 25.4993C26.0378 25.2556 26.3327 24.907 26.5244 24.4925L27.8153 21.7033C27.9758 21.3578 28.0589 20.9749 28.0589 20.5882V14.9775C28.0589 14.543 27.9538 14.116 27.7541 13.7388L23.6204 5.92401C23.4185 5.54218 23.1268 5.22478 22.7748 5.00397C22.4228 4.78317 22.023 4.6668 21.616 4.66666H11.4088Z" fill="#FA967C"/>
<g style="mix-blend-mode:multiply">
<path d="M7.52323 25.6272C7.15838 25.3835 6.86356 25.0349 6.67182 24.6204L6.02637 23.2258H27.3413L26.6959 24.6204C26.5041 25.0349 26.2093 25.3835 25.8444 25.6272C25.4796 25.8709 25.0591 26 24.6302 26H23.6118C22.9993 26 22.4119 25.7371 21.9788 25.2693C21.5458 24.8014 21.3025 24.1669 21.3025 23.5052H12.0652C12.0652 24.1669 11.8219 24.8014 11.3888 25.2693C10.9558 25.7371 10.3684 26 9.7559 26H8.7375C8.30855 26 7.88809 25.8709 7.52323 25.6272Z" fill="#D63D4A"/>
</g>
<g style="mix-blend-mode:multiply">
<path d="M8.62103 12.5217L10.7756 7.6738C10.8973 7.40015 11.1686 7.22379 11.4681 7.22379H21.796C22.0954 7.22379 22.3668 7.40015 22.4884 7.6738L24.6431 12.5217C24.8658 13.0228 24.499 13.5872 23.9506 13.5872H9.3135C8.76513 13.5872 8.39832 13.0228 8.62103 12.5217Z" fill="#D63D4A"/>
</g>
<ellipse cx="10.7989" cy="18.4535" rx="1.59086" ry="1.59086" fill="white"/>
<ellipse cx="22.0909" cy="18.9242" rx="1.59086" ry="1.59086" fill="white"/>
<g style="mix-blend-mode:multiply">
<path d="M25.6697 4C25.8069 4 25.9297 4.0854 25.9758 4.21326L26.3053 5.12652C26.4232 5.15577 26.5249 5.18563 26.6105 5.21612C26.7038 5.24941 26.8252 5.30074 26.9745 5.37012L27.7417 4.96412C27.8042 4.9308 27.876 4.91873 27.946 4.92976C28.016 4.94079 28.0806 4.97431 28.1299 5.02526L28.8047 5.72292C28.8943 5.81578 28.9195 5.95158 28.8691 6.07011L28.5093 6.91337C28.5687 7.02288 28.6166 7.11684 28.653 7.19524C28.6922 7.28017 28.7408 7.39839 28.7986 7.5499L29.6372 7.90923C29.7632 7.9629 29.8411 8.08889 29.8327 8.22376L29.7711 9.19208C29.7669 9.25499 29.7443 9.31528 29.7062 9.36547C29.668 9.41566 29.616 9.45354 29.5565 9.47441L28.7622 9.75675C28.7395 9.86626 28.7156 9.96052 28.6904 10.0395C28.6496 10.162 28.6032 10.2825 28.5513 10.4007L28.9503 11.2827C28.9787 11.3447 28.9864 11.4141 28.9722 11.4807C28.9581 11.5474 28.9229 11.6077 28.8719 11.6528L28.1131 12.3304C28.0632 12.375 28.0009 12.4032 27.9344 12.4112C27.868 12.4193 27.8007 12.4067 27.7417 12.3752L26.9595 11.9608C26.8373 12.0258 26.7111 12.083 26.5816 12.1321L26.24 12.2599L25.9367 13.0999C25.914 13.1613 25.8734 13.2144 25.8201 13.2525C25.7669 13.2905 25.7034 13.3116 25.638 13.3132L24.7514 13.3332C24.6842 13.3348 24.6182 13.3156 24.5623 13.2783C24.5064 13.241 24.4634 13.1873 24.4392 13.1246L24.0817 12.1787C23.9598 12.137 23.839 12.0918 23.7196 12.0434C23.6219 12.0011 23.5257 11.9555 23.4312 11.9067L22.5446 12.2856C22.4862 12.3106 22.4217 12.3181 22.3592 12.3071C22.2966 12.2961 22.2386 12.267 22.1922 12.2235L21.5361 11.608C21.4871 11.5625 21.4537 11.5026 21.4407 11.437C21.4277 11.3714 21.4358 11.3034 21.4638 11.2426L21.8451 10.4119C21.7945 10.3135 21.7475 10.2132 21.7041 10.1114C21.6536 9.98673 21.6069 9.86051 21.5641 9.73295L20.7288 9.47861C20.6609 9.45809 20.6017 9.41572 20.5604 9.35809C20.519 9.30045 20.4979 9.23078 20.5002 9.15988L20.5328 8.26343C20.5353 8.20496 20.5536 8.14826 20.5858 8.09942C20.618 8.05058 20.663 8.01145 20.7158 7.98623L21.5921 7.5653C21.6326 7.41659 21.6684 7.30024 21.6995 7.21624C21.7435 7.10342 21.7924 6.99256 21.846 6.88397L21.4661 6.08131C21.4371 6.0204 21.4282 5.95182 21.4408 5.88553C21.4534 5.81923 21.4868 5.75867 21.5361 5.71265L22.1913 5.09386C22.2372 5.05043 22.2947 5.02124 22.3568 5.00981C22.4189 4.99838 22.483 5.00521 22.5413 5.02946L23.427 5.39532C23.5247 5.3303 23.6137 5.27679 23.6939 5.23479C23.7894 5.18439 23.9176 5.13057 24.0784 5.07332L24.3864 4.2142C24.4094 4.15147 24.4511 4.09731 24.5059 4.05901C24.5606 4.02071 24.6258 4.00012 24.6926 4H25.6697ZM25.1779 7.2755C24.4 7.2755 23.7695 7.8985 23.7695 8.66756C23.7695 9.43662 24.4 10.0601 25.1779 10.0601C25.9558 10.0601 26.5858 9.43662 26.5858 8.66756C26.5858 7.8985 25.9558 7.2755 25.1779 7.2755Z" fill="#1E2124"/>
<path d="M25.6697 4C25.8069 4 25.9297 4.0854 25.9758 4.21326L26.3053 5.12652C26.4232 5.15577 26.5249 5.18563 26.6105 5.21612C26.7038 5.24941 26.8252 5.30074 26.9745 5.37012L27.7417 4.96412C27.8042 4.9308 27.876 4.91873 27.946 4.92976C28.016 4.94079 28.0806 4.97431 28.1299 5.02526L28.8047 5.72292C28.8943 5.81578 28.9195 5.95158 28.8691 6.07011L28.5093 6.91337C28.5687 7.02288 28.6166 7.11684 28.653 7.19524C28.6922 7.28017 28.7408 7.39839 28.7986 7.5499L29.6372 7.90923C29.7632 7.9629 29.8411 8.08889 29.8327 8.22376L29.7711 9.19208C29.7669 9.25499 29.7443 9.31528 29.7062 9.36547C29.668 9.41566 29.616 9.45354 29.5565 9.47441L28.7622 9.75675C28.7395 9.86626 28.7156 9.96052 28.6904 10.0395C28.6496 10.162 28.6032 10.2825 28.5513 10.4007L28.9503 11.2827C28.9787 11.3447 28.9864 11.4141 28.9722 11.4807C28.9581 11.5474 28.9229 11.6077 28.8719 11.6528L28.1131 12.3304C28.0632 12.375 28.0009 12.4032 27.9344 12.4112C27.868 12.4193 27.8007 12.4067 27.7417 12.3752L26.9595 11.9608C26.8373 12.0258 26.7111 12.083 26.5816 12.1321L26.24 12.2599L25.9367 13.0999C25.914 13.1613 25.8734 13.2144 25.8201 13.2525C25.7669 13.2905 25.7034 13.3116 25.638 13.3132L24.7514 13.3332C24.6842 13.3348 24.6182 13.3156 24.5623 13.2783C24.5064 13.241 24.4634 13.1873 24.4392 13.1246L24.0817 12.1787C23.9598 12.137 23.839 12.0918 23.7196 12.0434C23.6219 12.0011 23.5257 11.9555 23.4312 11.9067L22.5446 12.2856C22.4862 12.3106 22.4217 12.3181 22.3592 12.3071C22.2966 12.2961 22.2386 12.267 22.1922 12.2235L21.5361 11.608C21.4871 11.5625 21.4537 11.5026 21.4407 11.437C21.4277 11.3714 21.4358 11.3034 21.4638 11.2426L21.8451 10.4119C21.7945 10.3135 21.7475 10.2132 21.7041 10.1114C21.6536 9.98673 21.6069 9.86051 21.5641 9.73295L20.7288 9.47861C20.6609 9.45809 20.6017 9.41572 20.5604 9.35809C20.519 9.30045 20.4979 9.23078 20.5002 9.15988L20.5328 8.26343C20.5353 8.20496 20.5536 8.14826 20.5858 8.09942C20.618 8.05058 20.663 8.01145 20.7158 7.98623L21.5921 7.5653C21.6326 7.41659 21.6684 7.30024 21.6995 7.21624C21.7435 7.10342 21.7924 6.99256 21.846 6.88397L21.4661 6.08131C21.4371 6.0204 21.4282 5.95182 21.4408 5.88553C21.4534 5.81923 21.4868 5.75867 21.5361 5.71265L22.1913 5.09386C22.2372 5.05043 22.2947 5.02124 22.3568 5.00981C22.4189 4.99838 22.483 5.00521 22.5413 5.02946L23.427 5.39532C23.5247 5.3303 23.6137 5.27679 23.6939 5.23479C23.7894 5.18439 23.9176 5.13057 24.0784 5.07332L24.3864 4.2142C24.4094 4.15147 24.4511 4.09731 24.5059 4.05901C24.5606 4.02071 24.6258 4.00012 24.6926 4H25.6697ZM25.1779 7.2755C24.4 7.2755 23.7695 7.8985 23.7695 8.66756C23.7695 9.43662 24.4 10.0601 25.1779 10.0601C25.9558 10.0601 26.5858 9.43662 26.5858 8.66756C26.5858 7.8985 25.9558 7.2755 25.1779 7.2755Z" fill="#D63D4A"/>
</g>
</svg>
