<svg width="32" height="33" viewBox="0 0 32 33" fill="none" xmlns="http://www.w3.org/2000/svg">
<path fill-rule="evenodd" clip-rule="evenodd" d="M10.7124 5.33333C10.2773 5.33348 9.85004 5.45785 9.47382 5.69385C9.09759 5.92985 8.78579 6.26908 8.57 6.67718L4.15197 15.0296C3.93851 15.4327 3.8262 15.8891 3.82617 16.3535V22.3501C3.8262 22.7639 3.91535 23.1719 4.08656 23.542L5.46627 26.523C5.6712 26.9661 5.9863 27.3387 6.37626 27.5991C6.76621 27.8596 7.2156 27.9975 7.67406 27.9975H8.76252C9.41712 27.9975 10.0449 27.7166 10.5078 27.2166C10.9707 26.7165 11.2307 26.0383 11.2307 25.3312H21.1034C21.1034 26.0383 21.3634 26.7165 21.8263 27.2166C22.2892 27.7166 22.917 27.9975 23.5716 27.9975H24.66C25.1185 27.9975 25.5679 27.8596 25.9578 27.5991C26.3478 27.3387 26.6629 26.9661 26.8678 26.523L28.2475 23.542C28.4191 23.1727 28.5079 22.7634 28.5079 22.3501V16.3535C28.5079 15.8891 28.3956 15.4327 28.1821 15.0296L23.7641 6.67718C23.5483 6.26908 23.2365 5.92985 22.8603 5.69385C22.484 5.45785 22.0568 5.33348 21.6217 5.33333H10.7124Z" fill="#FA967C"/>
<g style="mix-blend-mode:multiply">
<path d="M6.36937 27.6016C5.97942 27.3412 5.66432 26.9686 5.45939 26.5255L4.76953 25.035H27.5508L26.8609 26.5255C26.656 26.9686 26.3409 27.3412 25.9509 27.6016C25.561 27.862 25.1116 28 24.6531 28H23.5647C22.9101 28 22.2823 27.7191 21.8194 27.2191C21.3565 26.719 21.0965 26.0408 21.0965 25.3336H11.2238C11.2238 26.0408 10.9638 26.719 10.5009 27.2191C10.038 27.7191 9.41023 28 8.75563 28H7.66717C7.20871 28 6.75932 27.862 6.36937 27.6016Z" fill="#D63D4A"/>
</g>
<g style="mix-blend-mode:multiply">
<path d="M7.75689 13.6727L10.024 8.57177C10.1604 8.26476 10.4649 8.0669 10.8008 8.0669H21.7869C22.1228 8.0669 22.4273 8.26476 22.5637 8.57177L24.8308 13.6727C25.0807 14.2349 24.6691 14.8681 24.0539 14.8681H8.53376C7.91855 14.8681 7.50702 14.2349 7.75689 13.6727Z" fill="#D63D4A"/>
</g>
<ellipse cx="10.0606" cy="20.0682" rx="1.7003" ry="1.7003" fill="white"/>
<ellipse cx="22.5294" cy="20.0682" rx="1.7003" ry="1.7003" fill="white"/>
</svg>
