<svg width="21" height="20" viewBox="0 0 21 20" fill="none" xmlns="http://www.w3.org/2000/svg">
<path fill-rule="evenodd" clip-rule="evenodd" d="M10.5007 1.25C12.2494 1.25023 13.6672 2.66775 13.6672 4.4165V4.58333H16.0207C16.7724 4.58338 17.408 5.13959 17.5075 5.8846L18.952 16.7179L18.9651 16.8856C18.9836 17.7142 18.3156 18.4163 17.4652 18.4163H3.53538C2.62826 18.4163 1.92867 17.6171 2.04856 16.7179L3.49306 5.8846L3.51829 5.74788C3.67264 5.0726 4.275 4.58337 4.97988 4.58333H7.33339V4.4165C7.33339 2.6676 8.75181 1.25 10.5007 1.25ZM10.5007 2.58301C9.48819 2.58301 8.66721 3.40398 8.66721 4.4165V4.58333H12.3334V4.4165C12.3334 3.40413 11.513 2.58324 10.5007 2.58301Z" fill="#33363D"/>
</svg>
