<svg width="24" height="24" viewBox="0 0 24 24" fill="none" xmlns="http://www.w3.org/2000/svg">
<path d="M19.32 16.948C19.165 17 18.973 17 18.59 17H5.41C5.027 17 4.836 17 4.681 16.948C4.53484 16.8989 4.40201 16.8167 4.29289 16.7077C4.18378 16.5988 4.10133 16.4661 4.052 16.32C4 16.164 4 15.972 4 15.586C4 15.417 4 15.332 4.013 15.252C4.03814 15.1001 4.09803 14.956 4.188 14.831C4.235 14.765 4.294 14.706 4.414 14.586L4.804 14.196C4.8662 14.1337 4.91552 14.0598 4.94915 13.9785C4.98279 13.8972 5.00006 13.81 5 13.722V10C5 9.08075 5.18106 8.1705 5.53284 7.32122C5.88463 6.47194 6.40024 5.70026 7.05025 5.05025C7.70026 4.40024 8.47194 3.88463 9.32122 3.53284C10.1705 3.18106 11.0807 3 12 3C12.9193 3 13.8295 3.18106 14.6788 3.53284C15.5281 3.88463 16.2997 4.40024 16.9497 5.05025C17.5998 5.70026 18.1154 6.47194 18.4672 7.32122C18.8189 8.1705 19 9.08075 19 10V13.722C18.9999 13.81 19.0172 13.8972 19.0508 13.9785C19.0845 14.0598 19.1338 14.1337 19.196 14.196L19.586 14.586L19.586 14.586C19.705 14.705 19.765 14.765 19.813 14.832C19.9021 14.9569 19.9613 15.1006 19.986 15.252C20 15.333 20 15.417 20 15.5859V15.586C20 15.972 20 16.164 19.947 16.32C19.8979 16.4659 19.8157 16.5984 19.707 16.7074C19.5982 16.8163 19.4658 16.8986 19.32 16.948Z" fill="url(#paint0_linear_7484_139346)"/>
<path d="M14.1213 18.9213C14.6839 18.3587 15 17.5956 15 16.8H9C9 17.5956 9.31607 18.3587 9.87868 18.9213C10.4413 19.4839 11.2044 19.8 12 19.8C12.7956 19.8 13.5587 19.4839 14.1213 18.9213Z" fill="#FA5122"/>
<path d="M18.0191 2.01331C19.398 3.05271 20.4843 4.43146 21.1721 6.01531L18.0191 2.01331ZM5.98212 2.01331C4.60286 3.05258 3.51625 4.43134 2.82812 6.01531L5.98212 2.01331Z" fill="#D9D9D9"/>
<path d="M18.0191 2.01331C19.398 3.05271 20.4843 4.43146 21.1721 6.01531M5.98212 2.01331C4.60286 3.05258 3.51625 4.43134 2.82812 6.01531" stroke="url(#paint1_linear_7484_139346)" stroke-width="1.6" stroke-linecap="round" stroke-linejoin="round"/>
<defs>
<linearGradient id="paint0_linear_7484_139346" x1="7.80039" y1="3.6" x2="18.0004" y2="16.8" gradientUnits="userSpaceOnUse">
<stop stop-color="#FFC919"/>
</linearGradient>
<linearGradient id="paint1_linear_7484_139346" x1="2.82812" y1="4.01431" x2="21.1721" y2="4.01431" gradientUnits="userSpaceOnUse">
<stop stop-color="#F79B07"/>
<stop offset="1" stop-color="#FA5122"/>
</linearGradient>
</defs>
</svg>
