<svg width="121" height="120" viewBox="0 0 121 120" fill="none" xmlns="http://www.w3.org/2000/svg">
<path d="M12.2236 42.9469C11.7161 38.2784 13.6211 33.6728 17.2781 30.7269C42.5087 10.4022 78.4915 10.4022 103.722 30.7269C107.379 33.6728 109.284 38.2783 108.777 42.9468L102.773 98.1819H18.2274L12.2236 42.9469Z" fill="#FFB19C"/>
<path d="M17.1127 99.1113H32.2367L27.0873 111.47C26.4521 112.994 24.9626 113.987 23.3111 113.987H18.837C17.2415 113.987 15.9867 112.624 16.1192 111.034L17.1127 99.1113Z" fill="#F8633C"/>
<path d="M103.888 99.1113H88.7637L93.9131 111.47C94.5483 112.994 96.0378 113.987 97.6893 113.987H102.163C103.759 113.987 105.014 112.624 104.881 111.034L103.888 99.1113Z" fill="#F8633C"/>
<path d="M108.228 54.5454C115.005 54.5456 120.5 60.0401 120.5 66.8179C120.5 69.4739 119.656 71.9323 118.222 73.9404C116.571 76.252 114.734 78.5663 114.148 81.3458L111.17 95.4702C109.961 101.205 104.901 105.31 99.04 105.31H21.96C16.0993 105.31 11.0392 101.205 9.83008 95.4702L6.85141 81.3451C6.26537 78.566 4.42882 76.252 2.77819 73.9407C1.34397 71.9325 0.5 69.4739 0.5 66.8179C0.500144 60.04 5.99463 54.5456 12.7725 54.5454C19.5504 54.5454 25.0458 60.04 25.0459 66.8179C25.0459 69.7453 24.9377 72.805 26.2418 75.426L29.3799 81.7329C30.218 83.4177 31.9376 84.4829 33.8193 84.4829H87.1807C89.0624 84.4829 90.782 83.4177 91.6201 81.7329L94.7576 75.426C96.0615 72.805 95.9541 69.7452 95.9541 66.8179C95.9543 60.04 101.45 54.5454 108.228 54.5454Z" fill="#FF805F"/>
<path d="M16.8633 83.1818C16.8633 75.6506 22.9685 69.5454 30.4996 69.5454H90.4996C98.0308 69.5454 104.136 75.6506 104.136 83.1818V88.6363C104.136 93.155 100.473 96.8181 95.9542 96.8181H25.0451C20.5264 96.8181 16.8633 93.155 16.8633 88.6363V83.1818Z" fill="#F8633C"/>
<circle cx="60.4997" cy="21.8181" r="17.7273" fill="#FFE540"/>
<path d="M60.5 4.09082C70.2904 4.09096 78.2266 12.0279 78.2266 21.8184C78.2265 26.6244 76.3123 30.9821 73.2068 34.175C73.2064 34.1754 73.2065 34.176 73.207 34.1763C73.2075 34.1765 73.2076 34.1772 73.2072 34.1775C73.1867 34.1987 73.1652 34.2192 73.1445 34.2402C73.0874 34.2984 73.0296 34.3557 72.9717 34.4131C72.9272 34.4571 72.8828 34.5013 72.8379 34.5449C72.7719 34.6089 72.7056 34.6724 72.6387 34.7354C72.6004 34.7713 72.562 34.8071 72.5234 34.8428C72.4676 34.8944 72.411 34.9452 72.3545 34.9961C72.3002 35.045 72.2454 35.0934 72.1904 35.1416C72.1289 35.1957 72.0672 35.2495 72.0049 35.3027C71.9592 35.3417 71.9133 35.3804 71.8672 35.4189C71.806 35.4701 71.7445 35.5209 71.6826 35.5713C71.6365 35.6088 71.5905 35.6465 71.5439 35.6836C71.4736 35.7397 71.4023 35.7946 71.3311 35.8496C71.293 35.879 71.2551 35.9084 71.2168 35.9375C71.1385 35.997 71.0598 36.056 70.9805 36.1143C70.943 36.1418 70.9059 36.17 70.8682 36.1973C70.7877 36.2554 70.7065 36.3124 70.625 36.3691C70.5893 36.394 70.5535 36.4187 70.5176 36.4434C70.453 36.4876 70.3884 36.5317 70.3232 36.5752C70.2579 36.6188 70.1919 36.6614 70.126 36.7041C70.0695 36.7407 70.013 36.7775 69.9561 36.8135C69.8983 36.85 69.8404 36.886 69.7822 36.9219C69.7108 36.9659 69.6385 37.0087 69.5664 37.0518C69.5079 37.0867 69.4496 37.122 69.3906 37.1562C69.326 37.1938 69.2605 37.2298 69.1953 37.2666C69.1381 37.2989 69.0811 37.3316 69.0234 37.3633C68.9554 37.4007 68.8869 37.4371 68.8184 37.4736C68.7576 37.506 68.6969 37.5386 68.6357 37.5703C68.5762 37.6012 68.516 37.631 68.4561 37.6611C68.3822 37.6983 68.3088 37.7363 68.2344 37.7725C68.1887 37.7947 68.1426 37.8161 68.0967 37.8379C68.0021 37.8828 67.907 37.9264 67.8115 37.9697C67.79 37.9795 67.7686 37.9894 67.7471 37.999C67.6443 38.0451 67.5413 38.0906 67.4375 38.1348C67.3882 38.1557 67.3386 38.1758 67.2891 38.1963C67.2108 38.2288 67.1326 38.2616 67.0537 38.293C66.9731 38.3251 66.8918 38.3558 66.8105 38.3867C66.762 38.4052 66.7138 38.4243 66.665 38.4424C66.5804 38.4738 66.4954 38.5041 66.4102 38.5342C66.3485 38.556 66.2866 38.5775 66.2246 38.5986C66.1772 38.6148 66.1296 38.6307 66.082 38.6465C65.9863 38.6782 65.8904 38.7101 65.7939 38.7402C65.7602 38.7508 65.7262 38.7602 65.6924 38.7705C65.1643 38.9321 64.626 39.0703 64.0781 39.1826C64.0629 39.1857 64.0475 39.1883 64.0322 39.1914C63.7657 39.2453 63.4973 39.2941 63.2266 39.3359C63.1632 39.3457 63.0997 39.3542 63.0361 39.3633C62.6522 39.4183 62.2645 39.4622 61.873 39.4922C61.847 39.4942 61.821 39.4952 61.7949 39.4971C61.368 39.5279 60.937 39.5449 60.5022 39.5449C60.502 39.5449 60.5019 39.5449 60.5017 39.5448L60.5005 39.5442C60.5003 39.5441 60.5 39.5443 60.5 39.5445C60.5 39.5448 60.4998 39.5449 60.4996 39.5449C60.4613 39.5449 60.423 39.5432 60.3848 39.543C60.0151 39.5406 59.6482 39.5267 59.2842 39.502C59.2278 39.4981 59.1714 39.4956 59.1152 39.4912C59.0852 39.4889 59.0554 39.4849 59.0254 39.4824C58.9095 39.4729 58.7939 39.4629 58.6787 39.4512C58.5968 39.4428 58.5152 39.4333 58.4336 39.4238C58.3629 39.4156 58.2921 39.4085 58.2217 39.3994C58.178 39.3938 58.1344 39.3868 58.0908 39.3809C57.8355 39.3462 57.5819 39.3062 57.3301 39.2607C57.272 39.2502 57.2142 39.2386 57.1562 39.2275C57.0689 39.2109 56.9815 39.1947 56.8945 39.1768C56.8479 39.1671 56.8014 39.1565 56.7549 39.1465C56.066 38.9983 55.392 38.8106 54.7354 38.585C54.7162 38.5784 54.6969 38.5721 54.6777 38.5654C47.7474 36.1566 42.7726 29.5691 42.7725 21.8184C42.7725 21.5872 42.7783 21.3569 42.7871 21.1279C42.9365 24.8174 44.3074 28.1919 46.5063 30.8583C48.0298 32.7058 50.6322 32.9152 52.9507 32.3162C55.3552 31.6951 57.8857 31.3633 60.498 31.3633C62.416 31.3633 64.2895 31.5433 66.1016 31.8851C68.4499 32.3281 71.0266 31.9459 72.4233 30.0068C74.3594 27.3187 75.5 24.0196 75.5 20.4541C75.4998 11.6425 68.5345 4.45869 59.8096 4.10547C60.0386 4.0967 60.2689 4.09082 60.5 4.09082Z" fill="#FFD434"/>
<path opacity="0.5" d="M60.5 4.09082C63.4042 4.09086 66.1453 4.78933 68.5645 6.02734C67.0743 5.65391 65.5151 5.45413 63.9092 5.4541C53.3657 5.4541 44.8186 14.0015 44.8184 24.5449C44.8184 27.6361 45.5532 30.5558 46.8574 33.1387C44.3065 30.068 42.7725 26.1223 42.7725 21.8184C42.7725 12.0279 50.7095 4.09082 60.5 4.09082Z" fill="white"/>
<path d="M58.7908 19.4317C61.2419 19.4317 63.2276 17.4563 63.2276 15H67.318V28.6312H62.2037V22.8395H58.7959V28.6364H53.6816V15H58.7908V19.4317Z" fill="#FFB822"/>
<path opacity="0.5" d="M36.7354 42.5923C39.7628 42.5923 43.3734 43.2777 45.4132 44.3073C46.4319 44.8215 46.4325 46.0613 45.7643 46.9863L40.8089 53.8464C39.4396 55.7419 36.5068 55.2892 35.9024 53.0304C34.5343 47.918 33.7821 42.5923 36.7354 42.5923ZM83.5489 42.5933C86.5022 42.5933 85.75 47.9183 84.3821 53.0304C83.7776 55.2892 80.8447 55.7419 79.4755 53.8464L74.5202 46.9864C73.8519 46.0613 73.8525 44.8215 74.8713 44.3074C76.9112 43.2782 80.5217 42.5933 83.5489 42.5933Z" fill="#EC3C19"/>
<path d="M60.5 34.5918C65.6065 34.5919 70.401 35.9219 74.5524 38.2535C75.4392 38.7516 76.5052 38.8255 77.4767 38.524C79.5945 37.8669 82.3197 37.4629 84.7012 37.4629C87.6852 37.463 87.0649 42.6406 85.7337 47.8143C85.5334 48.5925 85.6403 49.4163 86.0077 50.131C88.0072 54.0205 89.1357 58.4274 89.1357 63.0967C89.1357 68.0493 87.9296 72.7068 85.7461 76.7646C83.0893 81.7019 77.345 83.6826 71.7383 83.6826H49.2607C43.6542 83.6825 37.9106 81.7018 35.2539 76.7646C33.0703 72.7067 31.8634 68.0494 31.8633 63.0967C31.8633 58.7781 32.8288 54.6837 34.5558 51.0156C34.8873 50.3115 34.9718 49.5131 34.7668 48.7623C33.2733 43.2933 32.3812 37.4629 35.5479 37.4629C38.0542 37.4629 40.9408 37.9107 43.0998 38.63C44.134 38.9746 45.2881 38.9186 46.2339 38.3766C50.4342 35.9695 55.3054 34.5918 60.5 34.5918Z" fill="#FFDFE0"/>
<ellipse opacity="0.3" cx="44.1356" cy="63.4094" rx="6.81818" ry="4.77273" fill="#FFA6A7"/>
<ellipse opacity="0.3" cx="76.8631" cy="63.4094" rx="6.81818" ry="4.77273" fill="#FFA6A7"/>
<ellipse cx="50.2719" cy="55.2277" rx="5.45455" ry="6.13636" fill="white"/>
<circle cx="52.8926" cy="56.1597" r="2.26077" fill="#424242"/>
<ellipse cx="5.45455" cy="6.13636" rx="5.45455" ry="6.13636" transform="matrix(-1 0 0 1 76.1816 49.0913)" fill="white"/>
<circle cx="2.26077" cy="2.26077" r="2.26077" transform="matrix(-1 0 0 1 70.3672 53.8989)" fill="#424242"/>
<path d="M52.9648 68.9702C52.9648 68.9702 55.2256 71.9846 60.5007 71.9846C65.7758 71.9846 68.0366 68.9702 68.0366 68.9702" stroke="#FF8384" stroke-width="2.41148" stroke-linecap="round"/>
<ellipse cx="60.498" cy="62.046" rx="7.5" ry="6.13636" fill="#FFA6A7"/>
<ellipse cx="57.7709" cy="62.0459" rx="1.36364" ry="2.04545" fill="#FF8384"/>
<ellipse cx="63.225" cy="62.0459" rx="1.36364" ry="2.04545" fill="#FF8384"/>
<path d="M25.1799 17.0174C25.432 15.418 27.386 15.418 27.6381 17.0174L28.3216 21.3523C28.3984 21.8399 28.6802 22.2489 29.0705 22.4394L32.4573 24.0924C33.5522 24.6267 33.4566 26.4819 32.3148 26.8577L29.2071 27.8806C28.7417 28.0338 28.3932 28.488 28.3124 29.0471L27.6414 33.6878C27.406 35.3158 25.412 35.3158 25.1766 33.6878L24.5056 29.0471C24.4248 28.488 24.0764 28.0338 23.6109 27.8806L20.5032 26.8577C19.3614 26.4819 19.2658 24.6267 20.3607 24.0924L23.7475 22.4394C24.1378 22.2489 24.4196 21.8399 24.4964 21.3523L25.1799 17.0174Z" fill="#FFE640"/>
<path d="M93.9204 1.29595C94.1978 -0.431988 96.3471 -0.431983 96.6245 1.29596L97.3763 5.97918C97.4608 6.50595 97.7708 6.94779 98.2001 7.15359L101.926 8.9394C103.13 9.51672 103.025 11.521 101.769 11.927L98.3503 13.032C97.8384 13.1975 97.4551 13.6883 97.3662 14.2923L96.6281 19.3059C96.3691 21.0647 94.1758 21.0647 93.9169 19.3059L93.1787 14.2923C93.0898 13.6883 92.7066 13.1975 92.1946 13.032L88.7761 11.927C87.5201 11.521 87.415 9.51672 88.6193 8.9394L92.3448 7.15359C92.7741 6.94779 93.0841 6.50595 93.1686 5.97918L93.9204 1.29595Z" fill="#FFE640"/>
</svg>
