<svg width="32" height="32" viewBox="0 0 32 32" fill="none" xmlns="http://www.w3.org/2000/svg">
<path d="M25.5986 4C26.9241 4 27.999 5.07491 27.999 6.40039V25.6006C27.9988 26.9259 26.924 28 25.5986 28H6.40039C5.07502 28 4.00018 26.9259 4 25.6006V6.40039C4 5.07491 5.07491 4 6.40039 4H25.5986ZM6.13379 20.0479V25.6006C6.13396 25.7477 6.25322 25.8672 6.40039 25.8672H25.5986C25.7458 25.8672 25.8651 25.7477 25.8652 25.6006V25.4092L11.4131 15.3555L6.13379 20.0479ZM6.40039 6.13379C6.25311 6.13379 6.13379 6.25312 6.13379 6.40039V17.1934L10.624 13.2031C10.9924 12.8758 11.5368 12.8436 11.9414 13.125L25.8652 22.8105V6.40039C25.8652 6.25311 25.7459 6.13379 25.5986 6.13379H6.40039ZM20.9316 8C22.625 8.00021 23.9979 9.37298 23.998 11.0664C23.998 12.7599 22.6251 14.1336 20.9316 14.1338C19.238 14.1338 17.8643 12.7601 17.8643 11.0664C17.8644 9.37285 19.2381 8 20.9316 8ZM20.9316 10.1338C20.4163 10.1338 19.9982 10.5511 19.998 11.0664C19.998 11.5819 20.4162 12 20.9316 12C21.4469 11.9998 21.8643 11.5817 21.8643 11.0664C21.8641 10.5512 21.4468 10.134 20.9316 10.1338Z" fill="#CDD1D5"/>
</svg>
