<svg width="32" height="32" viewBox="0 0 32 32" fill="none" xmlns="http://www.w3.org/2000/svg">
<circle cx="16.0007" cy="15.9999" r="11.6667" fill="white"/>
<circle cx="16.0007" cy="15.9999" r="11.6667" fill="#FA967C"/>
<circle cx="16" cy="16" r="10" fill="#FA967C"/>
<g style="mix-blend-mode:multiply">
<path d="M24.334 15.9999C24.334 11.3975 20.603 7.66659 16.0007 7.66659C11.3983 7.66659 7.66732 11.3975 7.66732 15.9999C7.66732 16.9204 6.92113 17.6666 6.00065 17.6666C5.08018 17.6666 4.33398 16.9204 4.33398 15.9999C4.33398 9.5566 9.55733 4.33325 16.0007 4.33325C22.444 4.33325 27.6673 9.5566 27.6673 15.9999C27.6673 16.9204 26.9211 17.6666 26.0007 17.6666C25.0802 17.6666 24.334 16.9204 24.334 15.9999Z" fill="#D63D4A"/>
</g>
<g style="mix-blend-mode:plus-darker">
<path d="M17.0674 12.6667C18.7611 12.6667 20.1338 14.0395 20.1338 15.7332C20.1337 17.4268 18.761 18.7996 17.0674 18.7996H14.8008V21.0662C14.8008 21.6552 14.3233 22.1324 13.7344 22.1326C13.1453 22.1326 12.668 21.6553 12.668 21.0662V13.7332C12.668 13.676 12.673 13.6199 12.6816 13.5652C12.6894 13.5159 12.6995 13.4675 12.7139 13.4207C12.7195 13.4024 12.7269 13.3848 12.7334 13.3669C12.7379 13.3546 12.7412 13.3419 12.7461 13.3298C12.753 13.3129 12.7608 13.2965 12.7686 13.28C12.7754 13.2654 12.7815 13.2504 12.7891 13.2361C12.7977 13.2197 12.8079 13.2041 12.8174 13.1882C12.8246 13.1762 12.8312 13.1638 12.8389 13.1521C12.8475 13.1388 12.857 13.1259 12.8662 13.113C12.8772 13.0977 12.8886 13.0828 12.9004 13.0681C12.9112 13.0546 12.9221 13.0411 12.9336 13.0281C12.9426 13.0179 12.9516 13.0076 12.9609 12.9978C12.9714 12.9868 12.9822 12.9761 12.9932 12.9656C13.0086 12.9507 13.0247 12.9365 13.041 12.9226C13.0523 12.913 13.0636 12.9034 13.0752 12.8943C13.0856 12.8861 13.0967 12.8787 13.1074 12.8708C13.1235 12.8592 13.1395 12.8475 13.1562 12.8367C13.174 12.8252 13.1925 12.8149 13.2109 12.8044C13.2175 12.8007 13.2238 12.7963 13.2305 12.7927C13.2549 12.7796 13.2801 12.7678 13.3057 12.7566C13.3125 12.7536 13.3193 12.7507 13.3262 12.7478C13.3473 12.739 13.3688 12.7308 13.3906 12.7234C13.4013 12.7198 13.412 12.716 13.4229 12.7126C13.451 12.7041 13.4797 12.6964 13.5088 12.6902C13.5127 12.6893 13.5166 12.6881 13.5205 12.6873C13.5895 12.6733 13.6613 12.6667 13.7344 12.6667H17.0674ZM14.8008 16.6667H17.0674C17.5828 16.6667 18.0009 16.2486 18.001 15.7332C18.001 15.2177 17.5828 14.7996 17.0674 14.7996H14.8008V16.6667Z" fill="#D63D4A"/>
</g>
</svg>
