<svg width="32" height="32" viewBox="0 0 32 32" fill="none" xmlns="http://www.w3.org/2000/svg">
<g clip-path="url(#clip0_2811_343458)">
<g style="mix-blend-mode:multiply">
<path d="M24.8882 4C27.3428 4 29.3327 5.75944 29.3327 7.92982V18.7368C29.3327 20.9072 27.3428 22.6667 24.8882 22.6667H7.11046C4.65586 22.6667 2.66602 20.9072 2.66602 18.7368L2.66602 7.92982C2.66602 5.75944 4.65586 4 7.11046 4L24.8882 4Z" fill="#FA967C"/>
<g style="mix-blend-mode:multiply">
<path d="M14.666 22.6666C14.666 22.1143 15.1137 21.6666 15.666 21.6666C16.2183 21.6666 16.666 22.1143 16.666 22.6666V26C16.666 26.5522 16.2183 27 15.666 27C15.1137 27 14.666 26.5522 14.666 26L14.666 22.6666Z" fill="#D63D4A"/>
</g>
<path d="M18.666 25.3334C19.2183 25.3334 19.666 25.7811 19.666 26.3334C19.666 26.8857 19.2183 27.3334 18.666 27.3334L12.666 27.3334C12.1137 27.3334 11.666 26.8857 11.666 26.3334C11.666 25.7811 12.1137 25.3334 12.666 25.3334L18.666 25.3334Z" fill="#D63D4A"/>
<path d="M5.33398 9.33329C5.33398 7.86053 6.52789 6.66663 8.00065 6.66663H24.0006C25.4734 6.66663 26.6673 7.86053 26.6673 9.33329V17.3333C26.6673 18.8061 25.4734 20 24.0007 20H8.00065C6.52789 20 5.33398 18.8061 5.33398 17.3333V9.33329Z" fill="#D63D4A"/>
<path fill-rule="evenodd" clip-rule="evenodd" d="M18.4843 12.1869C18.7335 12.4361 18.7335 12.8402 18.4843 13.0894L16.1638 15.4099C15.9146 15.6591 15.5105 15.6591 15.2613 15.4099L13.5209 13.6695C13.2717 13.4203 13.2717 13.0163 13.5209 12.767C13.7701 12.5178 14.1742 12.5178 14.4234 12.767L15.7125 14.0562L17.5818 12.1869C17.831 11.9377 18.2351 11.9377 18.4843 12.1869Z" fill="white"/>
</g>
</g>
<defs>
<clipPath id="clip0_2811_343458">
<rect width="32" height="32" fill="white"/>
</clipPath>
</defs>
</svg>
