<svg width="32" height="32" viewBox="0 0 32 32" fill="none" xmlns="http://www.w3.org/2000/svg">
<path d="M4 14.6667C4 12.4576 5.79086 10.6667 8 10.6667H24C26.2091 10.6667 28 12.4576 28 14.6667V24.0001C28 26.2092 26.2091 28.0001 24 28.0001H8C5.79086 28.0001 4 26.2092 4 24.0001V14.6667Z" fill="#FA967C"/>
<g style="mix-blend-mode:multiply">
<path d="M18.0007 28.0001H14.0007V10.6667H18.0007V28.0001Z" fill="#D63D4A"/>
<path fill-rule="evenodd" clip-rule="evenodd" d="M10.6673 2.66675C13.6128 2.66675 16.0007 5.17421 16.0007 8.26701C16.0007 5.17421 18.3885 2.66675 21.334 2.66675H22.8574L23.248 2.68758C25.1687 2.89279 26.6673 4.59596 26.6673 6.66675C26.6673 8.73754 25.1687 10.4407 23.248 10.6459L9.14388 10.6667C7.03994 10.6667 5.33398 8.87589 5.33398 6.66675C5.33398 4.45761 7.03994 2.66675 9.14388 2.66675H10.6673ZM9.14388 5.86727C8.72309 5.86727 8.38216 6.22492 8.38216 6.66675C8.38216 7.10858 8.72309 7.46623 9.14388 7.46623H12.821C12.5069 6.53467 11.6621 5.86727 10.6673 5.86727H9.14388ZM21.334 5.86727C20.3392 5.86727 19.4944 6.53467 19.1803 7.46623H22.8574C23.2782 7.46623 23.6191 7.10858 23.6191 6.66675C23.6191 6.22492 23.2782 5.86727 22.8574 5.86727H21.334Z" fill="#D63D4A"/>
</g>
</svg>
