<svg width="32" height="32" viewBox="0 0 32 32" fill="none" xmlns="http://www.w3.org/2000/svg">
<g style="mix-blend-mode:multiply">
<path d="M5.33203 14V23.1118C5.33203 23.6884 5.51221 24.2552 5.88787 24.6925C7.03963 26.0334 8.44885 27.1339 10.0351 27.9271C11.8867 28.8529 13.9286 29.3344 15.9987 29.3333C18.069 29.3346 20.1112 28.8532 21.963 27.9274C23.5495 27.1342 24.959 26.0336 26.1109 24.6925C26.4865 24.2552 26.6667 23.6884 26.6667 23.1118V14H5.33203Z" fill="#FA967C"/>
</g>
<path d="M0.987002 11.4242L15.328 3.05858C15.7431 2.81641 16.2565 2.81641 16.6717 3.05858L31.0128 11.4242C31.4538 11.6815 31.4538 12.3186 31.0129 12.5759L16.6716 20.9415C16.2565 21.1836 15.7432 21.1836 15.328 20.9415L0.987003 12.5759C0.546 12.3186 0.545999 11.6814 0.987002 11.4242Z" fill="#D63D4A"/>
<g style="mix-blend-mode:multiply">
<path d="M25.1978 19.3836V16.1527L16.38 12.4503L16.2953 12.3826C16.1171 12.2102 16.0777 11.9307 16.2159 11.7134C16.3543 11.4959 16.6248 11.4125 16.8565 11.5011L16.9529 11.5493L26.0181 15.4106C26.1717 15.5085 26.2654 15.6776 26.2655 15.8598V19.3836C26.2655 19.6782 26.0262 19.9175 25.7316 19.9175C25.4371 19.9174 25.1978 19.6781 25.1978 19.3836Z" fill="#D63D4A"/>
</g>
<path d="M25.791 18.1334C26.6325 18.1334 27.3156 18.8155 27.3158 19.6569C27.3158 20.2566 26.9679 20.7741 26.4642 21.0227L27.2194 24.8001H24.3626L25.1165 21.0214C24.614 20.7724 24.2676 20.2557 24.2676 19.6569C24.2678 18.8156 24.9497 18.1336 25.791 18.1334Z" fill="#D63D4A"/>
<ellipse cx="16.0671" cy="11.6666" rx="1.66667" ry="1" fill="#FA967C"/>
</svg>
