<svg width="32" height="32" viewBox="0 0 32 32" fill="none" xmlns="http://www.w3.org/2000/svg">
<circle cx="16.0007" cy="16" r="11.6667" fill="white"/>
<circle cx="16.0007" cy="16" r="11.6667" fill="#FA967C"/>
<circle cx="16" cy="16" r="10" fill="#FA967C"/>
<g style="mix-blend-mode:multiply">
<path d="M24.334 16C24.334 11.3977 20.603 7.66671 16.0007 7.66671C11.3983 7.66671 7.66732 11.3977 7.66732 16C7.66732 16.9205 6.92113 17.6667 6.00065 17.6667C5.08018 17.6667 4.33398 16.9205 4.33398 16C4.33398 9.55672 9.55733 4.33337 16.0007 4.33337C22.444 4.33337 27.6673 9.55672 27.6673 16C27.6673 16.9205 26.9211 17.6667 26.0007 17.6667C25.0802 17.6667 24.334 16.9205 24.334 16Z" fill="#D63D4A"/>
</g>
<g style="mix-blend-mode:multiply">
<path d="M13.1875 13.5234C13.047 13.0317 12.5345 12.7469 12.0428 12.8874C11.5511 13.0279 11.2664 13.5404 11.4069 14.0321L11.9956 16.0925H11.3712C10.8599 16.0925 10.4453 16.5071 10.4453 17.0185C10.4453 17.5298 10.8599 17.9444 11.3712 17.9444H12.5247L12.9942 19.5877C13.1037 19.9711 13.4464 20.2413 13.8448 20.2584C14.2432 20.2754 14.6078 20.0355 14.7497 19.6629L16.0009 16.3787L17.252 19.6629C17.394 20.0355 17.7585 20.2754 18.1569 20.2584C18.5553 20.2413 18.898 19.9711 19.0076 19.5877L19.4771 17.9444H20.6305C21.1419 17.9444 21.5564 17.5298 21.5564 17.0185C21.5564 16.5071 21.1419 16.0925 20.6305 16.0925H20.0062L20.5949 14.0321C20.7354 13.5404 20.4506 13.0279 19.9589 12.8874C19.4672 12.7469 18.9548 13.0317 18.8143 13.5234L17.9916 16.4026L16.8661 13.4481C16.7294 13.0891 16.3851 12.8518 16.0009 12.8518C15.6167 12.8518 15.2724 13.0891 15.1356 13.4481L14.0101 16.4026L13.1875 13.5234Z" fill="#D63D4A"/>
</g>
</svg>
