<svg width="33" height="32" viewBox="0 0 33 32" fill="none" xmlns="http://www.w3.org/2000/svg">
<path d="M7.16699 6C7.16699 4.89543 8.06242 4 9.16699 4H23.8337C24.9382 4 25.8337 4.89543 25.8337 6V26C25.8337 27.1046 24.9382 28 23.8337 28H9.16699C8.06242 28 7.16699 27.1046 7.16699 26V6Z" fill="#FA967C"/>
<path fill-rule="evenodd" clip-rule="evenodd" d="M10.1006 9.06685C10.1006 8.47775 10.5781 8.00018 11.1673 8.00018H17.8339C18.423 8.00018 18.9006 8.47775 18.9006 9.06685C18.9006 9.65595 18.423 10.1335 17.8339 10.1335H11.1673C10.5781 10.1335 10.1006 9.65595 10.1006 9.06685ZM10.1006 13.6001C10.1006 13.011 10.5781 12.5334 11.1673 12.5334H20.5006C21.0897 12.5334 21.5673 13.011 21.5673 13.6001C21.5673 14.1892 21.0897 14.6667 20.5006 14.6667H11.1673C10.5781 14.6667 10.1006 14.1892 10.1006 13.6001Z" fill="#D63D4A"/>
<g style="mix-blend-mode:multiply">
<path fill-rule="evenodd" clip-rule="evenodd" d="M19.2128 21.3791C19.6294 20.9625 20.3047 20.9625 20.7213 21.3791L23.388 24.0457C23.8045 24.4623 23.8045 25.1377 23.388 25.5542C22.9714 25.9708 22.296 25.9708 21.8795 25.5542L19.2128 22.8876C18.7963 22.471 18.7963 21.7956 19.2128 21.3791Z" fill="#D63D4A"/>
</g>
<g style="mix-blend-mode:multiply">
<path d="M22.5 20.6667C22.5 22.8758 20.7091 24.6667 18.5 24.6667C16.2909 24.6667 14.5 22.8758 14.5 20.6667C14.5 18.4575 16.2909 16.6667 18.5 16.6667C20.7091 16.6667 22.5 18.4575 22.5 20.6667Z" fill="#D63D4A"/>
</g>
</svg>
