<svg width="33" height="32" viewBox="0 0 33 32" fill="none" xmlns="http://www.w3.org/2000/svg">
<rect x="7.50098" y="5.33334" width="18.6667" height="22.6667" rx="2.66667" fill="#FA967C"/>
<path d="M14.167 22.6667V18.6667H19.5003V22.6667L16.8337 22L14.167 22.6667Z" fill="#D63D4A"/>
<g style="mix-blend-mode:multiply">
<circle cx="16.8343" cy="14.6667" r="5.33333" fill="#D63D4A"/>
</g>
<path d="M18.4712 12.944C18.6866 12.7431 19.0229 12.7547 19.2238 12.9701C19.4248 13.1854 19.4131 13.5217 19.1978 13.7227L16.341 16.3893C16.1361 16.5806 15.8181 16.5806 15.6131 16.3893L14.4712 15.3229C14.2559 15.122 14.2442 14.7844 14.4452 14.569C14.646 14.3544 14.9826 14.3427 15.1978 14.543L15.9764 15.2708L18.4712 12.944Z" fill="white"/>
<g style="mix-blend-mode:multiply">
<rect x="12.834" y="4" width="8" height="2.66667" rx="1.33333" fill="#D63D4A"/>
</g>
</svg>
