<svg width="20" height="21" viewBox="0 0 20 21" fill="none" xmlns="http://www.w3.org/2000/svg">
<path d="M11.7347 14.0035C12.0708 14.0377 12.3328 14.3216 12.3328 14.6667C12.3328 15.0118 12.0708 15.2957 11.7347 15.33L11.6663 15.3332H8.33301C7.96482 15.3332 7.6665 15.0349 7.6665 14.6667C7.6665 14.2985 7.96482 14.0002 8.33301 14.0002H11.6663L11.7347 14.0035Z" fill="#8A949E"/>
<path fill-rule="evenodd" clip-rule="evenodd" d="M9.99967 2.58337C10.8768 2.58337 11.6709 3.07566 13.2581 4.06124L14.8507 5.05001C16.3463 5.97869 17.0953 6.44384 17.5046 7.19356C17.9161 7.94397 17.9163 8.84945 17.9163 10.6612V11.8656C17.9163 14.9539 17.9156 16.4977 16.9886 17.4572C16.0616 18.4167 14.5685 18.4167 11.5833 18.4167H8.41602C5.43086 18.4167 3.93854 18.4167 3.01074 17.4572C2.08294 16.4977 2.08301 14.9531 2.08301 11.8656V10.6604C2.08301 8.84944 2.08326 7.94318 2.49479 7.19356C2.90521 6.44311 3.65423 5.97726 5.15267 5.04675L6.74202 4.06124C8.32955 3.07596 9.12266 2.58337 9.99967 2.58337ZM9.99967 3.91638C9.83511 3.91638 9.62293 3.95567 9.22005 4.15157C8.78982 4.3608 8.26207 4.68704 7.44515 5.19405L5.86149 6.17631L5.85661 6.17957C5.0855 6.65841 4.58846 6.96828 4.22656 7.24565C3.88895 7.50441 3.75041 7.67562 3.66423 7.83321L3.66341 7.83484C3.57628 7.99352 3.50329 8.21063 3.46159 8.65352C3.41736 9.12342 3.41602 9.73018 3.41602 10.6604V11.8656C3.41602 13.4458 3.4188 14.5016 3.521 15.2876C3.61879 16.0397 3.78646 16.3411 3.9694 16.5303C4.14643 16.7134 4.41999 16.8781 5.12581 16.9763C5.8748 17.0804 6.88463 17.0837 8.41602 17.0837H11.5833C13.1148 17.0837 14.1252 17.0805 14.8743 16.9763C15.5801 16.8781 15.8535 16.7137 16.0299 16.5311C16.2129 16.3417 16.3797 16.0397 16.4775 15.2876C16.5798 14.5018 16.5833 13.446 16.5833 11.8656V10.6612C16.5833 9.73067 16.582 9.12422 16.5378 8.65434C16.4961 8.21178 16.4233 7.99426 16.3359 7.83484L16.3343 7.8324C16.2488 7.67572 16.1106 7.50485 15.7736 7.24646C15.4124 6.9696 14.917 6.65979 14.1476 6.18201L12.555 5.19405C11.7384 4.68699 11.2096 4.3608 10.7793 4.15157C10.3765 3.95574 10.1643 3.91638 9.99967 3.91638Z" fill="#8A949E"/>
</svg>
