<svg width="20" height="20" viewBox="0 0 20 20" fill="none" xmlns="http://www.w3.org/2000/svg">
<path d="M9.99967 2.08337C10.8768 2.08337 11.6709 2.57566 13.2581 3.56124L14.8507 4.55001C16.3463 5.47869 17.0953 5.94384 17.5046 6.69356C17.9161 7.44397 17.9163 8.34945 17.9163 10.1612V11.3656C17.9163 14.4539 17.9156 15.9977 16.9886 16.9572C16.0616 17.9167 14.5685 17.9167 11.5833 17.9167H8.41602C5.43086 17.9167 3.93854 17.9167 3.01074 16.9572C2.08294 15.9977 2.08301 14.4531 2.08301 11.3656V10.1604C2.08301 8.34944 2.08326 7.44318 2.49479 6.69356C2.90521 5.94311 3.65423 5.47726 5.15267 4.54675L6.74202 3.56124C8.32955 2.57596 9.12266 2.08337 9.99967 2.08337ZM8.33301 13.5002C7.96482 13.5002 7.6665 13.7985 7.6665 14.1667C7.6665 14.5349 7.96482 14.8332 8.33301 14.8332H11.6663L11.7347 14.83C12.0708 14.7957 12.3328 14.5118 12.3328 14.1667C12.3328 13.8216 12.0708 13.5377 11.7347 13.5035L11.6663 13.5002H8.33301Z" fill="#33363D"/>
</svg>
