<svg width="21" height="21" viewBox="0 0 21 21" fill="none" xmlns="http://www.w3.org/2000/svg">
<path fill-rule="evenodd" clip-rule="evenodd" d="M10.5007 1.75C12.2494 1.75023 13.6672 3.16775 13.6672 4.9165V5.08333H16.0207C16.7724 5.08338 17.408 5.63959 17.5075 6.3846L18.952 17.2179L18.9651 17.3856C18.9836 18.2142 18.3156 18.9163 17.4652 18.9163H3.53538C2.62826 18.9163 1.92867 18.1171 2.04856 17.2179L3.49306 6.3846L3.51829 6.24788C3.67264 5.5726 4.275 5.08337 4.97988 5.08333H7.33339V4.9165C7.33339 3.1676 8.75181 1.75 10.5007 1.75ZM4.97988 6.41634C4.91732 6.41637 4.86184 6.4512 4.83339 6.50342L4.81467 6.5612L3.37018 17.3945C3.35691 17.4944 3.43467 17.5833 3.53538 17.5833H17.4652C17.5534 17.5833 17.624 17.5151 17.6312 17.4312L17.6304 17.3945L16.1859 6.5612C16.1749 6.47843 16.1042 6.41638 16.0207 6.41634H13.6672V7.4165C13.6672 7.78455 13.3687 8.08277 13.0007 8.08301C12.6325 8.08301 12.3334 7.78469 12.3334 7.4165V6.41634H8.66721V7.4165C8.66721 7.78455 8.3687 8.08277 8.00071 8.08301C7.63252 8.08301 7.33339 7.78469 7.33339 7.4165V6.41634H4.97988ZM10.5007 3.08301C9.48819 3.08301 8.66721 3.90398 8.66721 4.9165V5.08333H12.3334V4.9165C12.3334 3.90413 11.513 3.08324 10.5007 3.08301Z" fill="#8A949E"/>
</svg>
