<svg width="32" height="32" viewBox="0 0 32 32" fill="none" xmlns="http://www.w3.org/2000/svg">
<path d="M4.83398 5.5C4.83398 4.39543 5.72941 3.5 6.83398 3.5H25.5007C26.6052 3.5 27.5007 4.39543 27.5007 5.5V16.8297C27.5007 19.3103 26.1879 21.6056 24.0498 22.8633L19.7165 25.4123C17.5258 26.7009 14.8088 26.7009 12.6182 25.4123L8.28485 22.8633C6.14678 21.6056 4.83398 19.3103 4.83398 16.8297V5.5Z" fill="#FA967C"/>
<rect x="10.834" y="24.8333" width="10.6667" height="4" rx="1" fill="#D63D4A"/>
<path d="M17 9.49966C17.276 9.49966 17.4998 9.72367 17.5 9.99966V12.8336H20.334C20.61 12.8338 20.834 13.0576 20.834 13.3336V14.9997C20.834 15.2757 20.61 15.4995 20.334 15.4997H17.5V18.3336C17.4998 18.6096 17.276 18.8336 17 18.8336H15.334C15.058 18.8336 14.8342 18.6096 14.834 18.3336V15.4997H12C11.724 15.4995 11.5 15.2757 11.5 14.9997V13.3336C11.5 13.0576 11.724 12.8338 12 12.8336H14.834V9.99966C14.8342 9.72367 15.058 9.49966 15.334 9.49966H17Z" fill="#D63D4A"/>
</svg>
