<svg width="20" height="20" viewBox="0 0 20 20" fill="none" xmlns="http://www.w3.org/2000/svg">
<path d="M13.4627 2.50073C14.75 2.55404 15.9698 3.09101 16.853 4.00382C17.7341 4.91474 18.2082 6.12678 18.1624 7.37785C18.1587 8.56017 17.6616 9.75437 16.9889 10.843C16.3078 11.9451 15.4073 13.0026 14.5149 13.92C12.7334 15.7515 10.9141 17.097 10.7332 17.2192L10.3719 17.4633C10.1467 17.615 9.85156 17.615 9.62641 17.4633L9.26508 17.2192L9.26346 17.2183C9.08305 17.0957 7.26467 15.7504 5.48334 13.9192C4.59104 13.0019 3.69038 11.9449 3.00939 10.843C2.33674 9.75451 1.83876 8.5601 1.83507 7.37785C1.78924 6.12697 2.26359 4.91468 3.14448 4.00382C4.02758 3.09087 5.24819 2.55414 6.53559 2.50073C6.54788 2.50023 6.56073 2.49975 6.57303 2.49992C7.38762 2.51202 8.18679 2.72904 8.88911 3.13061C9.29882 3.36497 9.63668 3.72216 9.90229 4.06242C9.93505 4.10439 9.96765 4.14683 9.99913 4.18937C10.0306 4.14679 10.0632 4.10442 10.096 4.06242C10.3616 3.72215 10.6994 3.36502 11.1092 3.13061C11.8115 2.72897 12.6106 2.51207 13.4252 2.49992C13.4376 2.49973 13.4504 2.50022 13.4627 2.50073ZM10.004 7.67082C9.63602 7.67096 9.33763 7.96932 9.33751 8.33732V9.33341H8.33328C7.96521 9.33351 7.66684 9.63184 7.66678 9.99992C7.66678 10.3681 7.96517 10.6663 8.33328 10.6664H9.33751V11.6707L9.34077 11.739C9.37499 12.075 9.65903 12.337 10.004 12.3372C10.3491 12.3372 10.633 12.0751 10.6673 11.739L10.6705 11.6707V10.6664H11.6666L11.735 10.6632C12.0711 10.6289 12.3331 10.345 12.3331 9.99992C12.3331 9.65486 12.071 9.37089 11.735 9.33667L11.6666 9.33341H10.6705V8.33732C10.6704 7.96923 10.3721 7.67082 10.004 7.67082Z" fill="#33363D"/>
</svg>
