<svg width="32" height="32" viewBox="0 0 32 32" fill="none" xmlns="http://www.w3.org/2000/svg">
<g style="mix-blend-mode:multiply">
<path d="M6.83398 5.49998C6.83398 4.02722 8.02789 2.83331 9.50065 2.83331H22.834C24.3067 2.83331 25.5007 4.02722 25.5007 5.49998V26.8333C25.5007 28.3061 24.3067 29.5 22.834 29.5H9.50065C8.02789 29.5 6.83398 28.3061 6.83398 26.8333V5.49998Z" fill="#FA967C"/>
<g style="mix-blend-mode:multiply">
<path d="M6.83398 22.8333H25.5007V26.8333C25.5007 28.3061 24.3067 29.5 22.834 29.5H9.50065C8.02789 29.5 6.83398 28.3061 6.83398 26.8333V22.8333Z" fill="#D63D4A"/>
</g>
<path d="M16.1673 27.5C16.9037 27.5 17.5007 26.903 17.5007 26.1666C17.5007 25.4303 16.9037 24.8333 16.1673 24.8333C15.4309 24.8333 14.834 25.4303 14.834 26.1666C14.834 26.903 15.4309 27.5 16.1673 27.5Z" fill="#FA967C"/>
<path fill-rule="evenodd" clip-rule="evenodd" d="M19.5037 10.0424C19.8314 10.4376 19.8567 11.1121 19.5602 11.549L16.3936 16.2156C16.2425 16.4383 16.0281 16.5657 15.8029 16.5667C15.5778 16.5676 15.3627 16.4421 15.2106 16.2208L13.3773 13.5541C13.0787 13.1198 13.1007 12.4451 13.4264 12.047C13.7521 11.649 14.2582 11.6783 14.5567 12.1126L15.7965 13.9158L18.3738 10.1177C18.6702 9.68086 19.1761 9.64713 19.5037 10.0424Z" fill="#D63D4A"/>
</g>
</svg>
