<svg width="33" height="32" viewBox="0 0 33 32" fill="none" xmlns="http://www.w3.org/2000/svg">
<g clip-path="url(#clip0_97_10370)">
<ellipse cx="16.7704" cy="24.8737" rx="15.1704" ry="2.84445" fill="#FDCFC3"/>
<path fill-rule="evenodd" clip-rule="evenodd" d="M12.1013 5.91113C11.7374 5.91126 11.38 6.01529 11.0653 6.21269C10.7506 6.4101 10.4898 6.69385 10.3093 7.03521L6.61382 14.0216C6.43527 14.3588 6.34133 14.7405 6.34131 15.129V20.1449C6.34133 20.491 6.4159 20.8323 6.55911 21.1419L7.71318 23.6353C7.88459 24.0059 8.14816 24.3176 8.47434 24.5355C8.80052 24.7533 9.17641 24.8687 9.55989 24.8687H10.4703C11.0179 24.8687 11.543 24.6337 11.9302 24.2155C12.3173 23.7972 12.5349 23.2299 12.5349 22.6384H20.7929C20.7929 23.2299 21.0104 23.7972 21.3976 24.2155C21.7848 24.6337 22.3099 24.8687 22.8574 24.8687H23.7679C24.1514 24.8687 24.5273 24.7533 24.8534 24.5355C25.1796 24.3176 25.4432 24.0059 25.6146 23.6353L26.7687 21.1419C26.9121 20.833 26.9865 20.4906 26.9865 20.1449V15.129C26.9864 14.7405 26.8925 14.3588 26.7139 14.0216L23.0185 7.03521C22.838 6.69385 22.5772 6.4101 22.2625 6.21269C21.9478 6.01529 21.5904 5.91126 21.2265 5.91113H12.1013Z" fill="#FA967C"/>
<g style="mix-blend-mode:multiply">
<path d="M8.62744 24.6503C8.30126 24.4324 8.03769 24.1207 7.86628 23.7502L7.28925 22.5034H26.3447L25.7677 23.7502C25.5963 24.1207 25.3327 24.4324 25.0065 24.6503C24.6804 24.8681 24.3045 24.9835 23.921 24.9835H23.0105C22.463 24.9835 21.9379 24.7485 21.5507 24.3303C21.1635 23.912 20.946 23.3447 20.946 22.7532H12.688C12.688 23.3447 12.4704 23.912 12.0833 24.3303C11.6961 24.7485 11.171 24.9835 10.6234 24.9835H9.71299C9.32951 24.9835 8.95362 24.8681 8.62744 24.6503Z" fill="#D63D4A"/>
</g>
<g style="mix-blend-mode:multiply">
<path d="M9.62947 12.8867L11.5258 8.62006C11.6399 8.36325 11.8946 8.19775 12.1756 8.19775H21.3649C21.6459 8.19775 21.9006 8.36325 22.0147 8.62006L23.911 12.8867C24.12 13.357 23.7758 13.8866 23.2612 13.8866H10.2793C9.76469 13.8866 9.42047 13.357 9.62947 12.8867Z" fill="#D63D4A"/>
</g>
<path d="M11.556 16.814C12.3414 16.814 12.9778 17.4505 12.9779 18.2358C12.9779 19.0213 12.3415 19.6587 11.556 19.6587C10.7706 19.6586 10.1342 19.0213 10.1342 18.2358C10.1343 17.4505 10.7707 16.814 11.556 16.814ZM21.9857 16.814C22.7711 16.814 23.4075 17.4505 23.4076 18.2358C23.4076 19.0213 22.7712 19.6587 21.9857 19.6587C21.2003 19.6586 20.5638 19.0213 20.5638 18.2358C20.564 17.4505 21.2004 16.814 21.9857 16.814Z" fill="white"/>
</g>
<g style="mix-blend-mode:multiply">
<path fill-rule="evenodd" clip-rule="evenodd" d="M23.0736 2.96C22.9473 3.07332 22.8151 3.17988 22.6775 3.27921C22.4391 3.43921 22.1711 3.54961 21.8895 3.60561C21.7671 3.62961 21.6391 3.64002 21.3839 3.66002C20.7431 3.71122 20.4223 3.73682 20.1551 3.83122C19.8495 3.93894 19.5719 4.1138 19.3428 4.34293C19.1136 4.57206 18.9388 4.84964 18.831 5.15525C18.7366 5.42246 18.711 5.74327 18.6598 6.38408C18.6507 6.55346 18.6325 6.72224 18.6054 6.8897C18.5494 7.1713 18.439 7.43931 18.279 7.67772C18.2094 7.78172 18.1262 7.87932 17.9598 8.07373C17.543 8.56334 17.3342 8.80815 17.2118 9.06415C16.9294 9.65617 16.9294 10.3442 17.2118 10.9362C17.3342 11.1922 17.543 11.437 17.9598 11.9266C18.1262 12.121 18.2094 12.2186 18.279 12.3226C18.439 12.561 18.5494 12.829 18.6054 13.1107C18.6294 13.2331 18.6398 13.3611 18.6598 13.6163C18.711 14.2571 18.7366 14.5779 18.831 14.8451C18.9388 15.1507 19.1136 15.4283 19.3428 15.6574C19.5719 15.8866 19.8495 16.0614 20.1551 16.1691C20.4223 16.2635 20.7431 16.2891 21.3839 16.3403C21.6391 16.3603 21.7671 16.3707 21.8895 16.3947C22.1711 16.4507 22.4391 16.5619 22.6775 16.7211C22.7815 16.7907 22.8791 16.8739 23.0736 17.0404C23.5632 17.4572 23.808 17.666 24.064 17.7884C24.656 18.0708 25.344 18.0708 25.936 17.7884C26.192 17.666 26.4368 17.4572 26.9264 17.0404C27.1209 16.8739 27.2185 16.7907 27.3225 16.7211C27.5609 16.5611 27.8289 16.4507 28.1105 16.3947C28.2329 16.3707 28.3609 16.3603 28.6161 16.3403C29.2569 16.2891 29.5777 16.2635 29.8449 16.1691C30.1505 16.0614 30.4281 15.8866 30.6572 15.6574C30.8864 15.4283 31.0612 15.1507 31.169 14.8451C31.2634 14.5779 31.289 14.2571 31.3402 13.6163C31.3602 13.3611 31.3706 13.2331 31.3946 13.1107C31.4506 12.829 31.5618 12.561 31.721 12.3226C31.7906 12.2186 31.8738 12.121 32.0402 11.9266C32.457 11.437 32.6658 11.1922 32.7882 10.9362C33.0706 10.3442 33.0706 9.65617 32.7882 9.06415C32.6658 8.80815 32.457 8.56334 32.0402 8.07373C31.9268 7.94746 31.8203 7.81527 31.721 7.67772C31.5609 7.43935 31.4499 7.17145 31.3946 6.8897C31.3675 6.72224 31.3493 6.55346 31.3402 6.38408C31.289 5.74327 31.2634 5.42246 31.169 5.15525C31.0612 4.84964 30.8864 4.57206 30.6572 4.34293C30.4281 4.1138 30.1505 3.93894 29.8449 3.83122C29.5777 3.73682 29.2569 3.71122 28.6161 3.66002C28.4467 3.65083 28.2779 3.63267 28.1105 3.60561C27.8287 3.55027 27.5608 3.4393 27.3225 3.27921C27.1849 3.17988 27.0527 3.07332 26.9264 2.96C26.4368 2.54319 26.192 2.33438 25.936 2.21198C25.6438 2.07211 25.324 1.99951 25 1.99951C24.676 1.99951 24.3562 2.07211 24.064 2.21198C23.808 2.33438 23.5632 2.54319 23.0736 2.96ZM28.0649 6.9361C28.1867 7.05819 28.2551 7.22363 28.2551 7.39611C28.2551 7.56859 28.1867 7.73403 28.0649 7.85612L22.8559 13.0659C22.7966 13.1308 22.7247 13.1831 22.6446 13.2195C22.5645 13.2559 22.4778 13.2757 22.3899 13.2776C22.3019 13.2796 22.2144 13.2638 22.1328 13.231C22.0511 13.1983 21.9769 13.1493 21.9147 13.0871C21.8525 13.0249 21.8035 12.9507 21.7708 12.869C21.738 12.7873 21.7221 12.6999 21.7241 12.6119C21.7261 12.5239 21.7459 12.4373 21.7823 12.3572C21.8187 12.2771 21.871 12.2052 21.9359 12.1458L27.1441 6.9369C27.2661 6.81506 27.4316 6.74663 27.6041 6.74663C27.7765 6.74663 27.942 6.81506 28.0641 6.9369M28.0377 12.1714C28.0377 12.4016 27.9462 12.6224 27.7834 12.7852C27.6207 12.948 27.3999 13.0395 27.1697 13.0395C26.9394 13.0395 26.7187 12.948 26.5559 12.7852C26.3931 12.6224 26.3016 12.4016 26.3016 12.1714C26.3016 11.9412 26.3931 11.7204 26.5559 11.5576C26.7187 11.3949 26.9394 11.3034 27.1697 11.3034C27.3999 11.3034 27.6207 11.3949 27.7834 11.5576C27.9462 11.7204 28.0377 11.9412 28.0377 12.1714ZM22.8295 8.69934C23.0598 8.69934 23.2805 8.60789 23.4433 8.4451C23.6061 8.28232 23.6976 8.06153 23.6976 7.83132C23.6976 7.60111 23.6061 7.38032 23.4433 7.21754C23.2805 7.05475 23.0598 6.9633 22.8295 6.9633C22.5993 6.9633 22.3785 7.05475 22.2158 7.21754C22.053 7.38032 21.9615 7.60111 21.9615 7.83132C21.9615 8.06153 22.053 8.28232 22.2158 8.4451C22.3785 8.60789 22.5993 8.69934 22.8295 8.69934Z" fill="#D63D4A"/>
</g>
<defs>
<clipPath id="clip0_97_10370">
<rect width="32" height="24.5333" fill="white" transform="translate(0.888855 5.73242)"/>
</clipPath>
</defs>
</svg>
