<svg width="33" height="32" viewBox="0 0 33 32" fill="none" xmlns="http://www.w3.org/2000/svg">
<g clip-path="url(#clip0_3871_541076)">
<ellipse cx="16.77" cy="24.8737" rx="15.1704" ry="2.84445" fill="#FDCFC3"/>
<path fill-rule="evenodd" clip-rule="evenodd" d="M12.1013 5.91211C11.7374 5.91224 11.38 6.01627 11.0653 6.21367C10.7506 6.41107 10.4898 6.69482 10.3093 7.03618L6.61382 14.0226C6.43527 14.3598 6.34133 14.7415 6.34131 15.13V20.1459C6.34133 20.492 6.4159 20.8333 6.55911 21.1428L7.71318 23.6363C7.88459 24.0069 8.14816 24.3186 8.47434 24.5364C8.80052 24.7543 9.17641 24.8697 9.55989 24.8697H10.4703C11.0179 24.8697 11.543 24.6347 11.9302 24.2164C12.3173 23.7982 12.5349 23.2309 12.5349 22.6394H20.7929C20.7929 23.2309 21.0104 23.7982 21.3976 24.2164C21.7848 24.6347 22.3099 24.8697 22.8574 24.8697H23.7679C24.1514 24.8697 24.5273 24.7543 24.8534 24.5364C25.1796 24.3186 25.4432 24.0069 25.6146 23.6363L26.7687 21.1428C26.9121 20.834 26.9865 20.4916 26.9865 20.1459V15.13C26.9864 14.7415 26.8925 14.3598 26.7139 14.0226L23.0185 7.03618C22.838 6.69482 22.5772 6.41107 22.2625 6.21367C21.9478 6.01627 21.5904 5.91224 21.2265 5.91211H12.1013Z" fill="#FA967C"/>
<g style="mix-blend-mode:multiply">
<path d="M8.62725 24.6508C8.30108 24.4329 8.03751 24.1212 7.86609 23.7506L7.28906 22.5039H26.3445L25.7675 23.7506C25.5961 24.1212 25.3325 24.4329 25.0064 24.6508C24.6802 24.8686 24.3043 24.984 23.9208 24.984H23.0104C22.4628 24.984 21.9377 24.749 21.5505 24.3308C21.1633 23.9125 20.9458 23.3452 20.9458 22.7537H12.6878C12.6878 23.3452 12.4703 23.9125 12.0831 24.3308C11.6959 24.749 11.1708 24.984 10.6233 24.984H9.7128C9.32933 24.984 8.95343 24.8686 8.62725 24.6508Z" fill="#D63D4A"/>
</g>
<g style="mix-blend-mode:multiply">
<path d="M9.62947 12.8862L11.5258 8.61957C11.6399 8.36276 11.8946 8.19727 12.1756 8.19727H21.3649C21.6459 8.19727 21.9006 8.36277 22.0147 8.61957L23.911 12.8862C24.12 13.3565 23.7758 13.8862 23.2612 13.8862H10.2793C9.76469 13.8862 9.42047 13.3565 9.62947 12.8862Z" fill="#D63D4A"/>
</g>
<path d="M11.5557 16.8145C12.3411 16.8145 12.9774 17.451 12.9775 18.2363C12.9775 19.0218 12.3411 19.6592 11.5557 19.6592C10.7702 19.6591 10.1338 19.0218 10.1338 18.2363C10.1339 17.451 10.7703 16.8145 11.5557 16.8145ZM21.9854 16.8145C22.7707 16.8145 23.4071 17.451 23.4072 18.2363C23.4072 19.0218 22.7708 19.6592 21.9854 19.6592C21.1999 19.6591 20.5635 19.0218 20.5635 18.2363C20.5636 17.451 21.2 16.8145 21.9854 16.8145Z" fill="white"/>
</g>
<g style="mix-blend-mode:multiply">
<path fill-rule="evenodd" clip-rule="evenodd" d="M23.0736 2.96049C22.9473 3.07381 22.8151 3.18037 22.6775 3.27969C22.4391 3.4397 22.1711 3.5501 21.8895 3.6061C21.7671 3.6301 21.6391 3.6405 21.3839 3.6605C20.7431 3.71171 20.4223 3.73731 20.1551 3.83171C19.8495 3.93943 19.5719 4.11428 19.3428 4.34342C19.1136 4.57255 18.9388 4.85013 18.831 5.15574C18.7366 5.42295 18.711 5.74376 18.6598 6.38457C18.6507 6.55395 18.6325 6.72273 18.6054 6.89019C18.5494 7.17179 18.439 7.4398 18.279 7.6782C18.2094 7.78221 18.1262 7.87981 17.9598 8.07421C17.543 8.56383 17.3342 8.80863 17.2118 9.06464C16.9294 9.65665 16.9294 10.3447 17.2118 10.9367C17.3342 11.1927 17.543 11.4375 17.9598 11.9271C18.1262 12.1215 18.2094 12.2191 18.279 12.3231C18.439 12.5615 18.5494 12.8295 18.6054 13.1111C18.6294 13.2335 18.6398 13.3615 18.6598 13.6168C18.711 14.2576 18.7366 14.5784 18.831 14.8456C18.9388 15.1512 19.1136 15.4288 19.3428 15.6579C19.5719 15.887 19.8495 16.0619 20.1551 16.1696C20.4223 16.264 20.7431 16.2896 21.3839 16.3408C21.6391 16.3608 21.7671 16.3712 21.8895 16.3952C22.1711 16.4512 22.4391 16.5624 22.6775 16.7216C22.7815 16.7912 22.8791 16.8744 23.0736 17.0408C23.5632 17.4576 23.808 17.6665 24.064 17.7889C24.656 18.0713 25.344 18.0713 25.936 17.7889C26.192 17.6665 26.4368 17.4576 26.9264 17.0408C27.1209 16.8744 27.2185 16.7912 27.3225 16.7216C27.5609 16.5616 27.8289 16.4512 28.1105 16.3952C28.2329 16.3712 28.3609 16.3608 28.6161 16.3408C29.2569 16.2896 29.5777 16.264 29.8449 16.1696C30.1505 16.0619 30.4281 15.887 30.6572 15.6579C30.8864 15.4288 31.0612 15.1512 31.169 14.8456C31.2634 14.5784 31.289 14.2576 31.3402 13.6168C31.3602 13.3615 31.3706 13.2335 31.3946 13.1111C31.4506 12.8295 31.5618 12.5615 31.721 12.3231C31.7906 12.2191 31.8738 12.1215 32.0402 11.9271C32.457 11.4375 32.6658 11.1927 32.7882 10.9367C33.0706 10.3447 33.0706 9.65665 32.7882 9.06464C32.6658 8.80863 32.457 8.56383 32.0402 8.07421C31.9268 7.94795 31.8203 7.81576 31.721 7.6782C31.5609 7.43984 31.4499 7.17194 31.3946 6.89019C31.3675 6.72273 31.3493 6.55395 31.3402 6.38457C31.289 5.74376 31.2634 5.42295 31.169 5.15574C31.0612 4.85013 30.8864 4.57255 30.6572 4.34342C30.4281 4.11428 30.1505 3.93943 29.8449 3.83171C29.5777 3.73731 29.2569 3.71171 28.6161 3.6605C28.4467 3.65132 28.2779 3.63316 28.1105 3.6061C27.8287 3.55076 27.5608 3.43979 27.3225 3.27969C27.1849 3.18037 27.0527 3.07381 26.9264 2.96049C26.4368 2.54368 26.192 2.33487 25.936 2.21247C25.6438 2.0726 25.324 2 25 2C24.676 2 24.3562 2.0726 24.064 2.21247C23.808 2.33487 23.5632 2.54368 23.0736 2.96049ZM28.0649 6.93659C28.1867 7.05867 28.2551 7.22411 28.2551 7.3966C28.2551 7.56908 28.1867 7.73452 28.0649 7.85661L22.8559 13.0663C22.7966 13.1313 22.7247 13.1836 22.6446 13.22C22.5645 13.2564 22.4778 13.2761 22.3899 13.2781C22.3019 13.2801 22.2144 13.2643 22.1328 13.2315C22.0511 13.1987 21.9769 13.1498 21.9147 13.0876C21.8525 13.0253 21.8035 12.9512 21.7708 12.8695C21.738 12.7878 21.7221 12.7004 21.7241 12.6124C21.7261 12.5244 21.7459 12.4378 21.7823 12.3577C21.8187 12.2776 21.871 12.2057 21.9359 12.1463L27.1441 6.93739C27.2661 6.81555 27.4316 6.74712 27.6041 6.74712C27.7765 6.74712 27.942 6.81555 28.0641 6.93739M28.0377 12.1719C28.0377 12.4021 27.9462 12.6229 27.7834 12.7857C27.6207 12.9485 27.3999 13.0399 27.1697 13.0399C26.9394 13.0399 26.7187 12.9485 26.5559 12.7857C26.3931 12.6229 26.3016 12.4021 26.3016 12.1719C26.3016 11.9417 26.3931 11.7209 26.5559 11.5581C26.7187 11.3953 26.9394 11.3039 27.1697 11.3039C27.3999 11.3039 27.6207 11.3953 27.7834 11.5581C27.9462 11.7209 28.0377 11.9417 28.0377 12.1719ZM22.8295 8.69983C23.0598 8.69983 23.2805 8.60838 23.4433 8.44559C23.6061 8.28281 23.6976 8.06202 23.6976 7.83181C23.6976 7.60159 23.6061 7.38081 23.4433 7.21802C23.2805 7.05524 23.0598 6.96379 22.8295 6.96379C22.5993 6.96379 22.3785 7.05524 22.2158 7.21802C22.053 7.38081 21.9615 7.60159 21.9615 7.83181C21.9615 8.06202 22.053 8.28281 22.2158 8.44559C22.3785 8.60838 22.5993 8.69983 22.8295 8.69983Z" fill="#D63D4A"/>
</g>
<defs>
<clipPath id="clip0_3871_541076">
<rect width="32" height="24.5333" fill="white" transform="translate(0.888672 5.73242)"/>
</clipPath>
</defs>
</svg>
