<svg width="32" height="32" viewBox="0 0 32 32" fill="none" xmlns="http://www.w3.org/2000/svg">
<path d="M21.5401 4.00088C23.5999 4.08618 25.5515 4.94532 26.9646 6.40582C28.3744 7.86329 29.133 9.80256 29.0597 11.8043C29.0537 13.696 28.2584 15.6067 27.182 17.3485C26.0924 19.1119 24.6515 20.8038 23.2237 22.2717C20.3733 25.202 17.4624 27.3549 17.1729 27.5504L16.5948 27.941C16.2345 28.1836 15.7623 28.1838 15.4021 27.941L14.824 27.5504L14.8214 27.5491C14.5327 27.3528 11.6233 25.2003 8.77319 22.2704C7.3455 20.8027 5.90446 19.1116 4.81486 17.3485C3.73863 15.6069 2.94185 13.6959 2.93595 11.8043C2.86262 9.80286 3.62158 7.8632 5.031 6.40582C6.44397 4.9451 8.39694 4.08633 10.4568 4.00088C10.4764 4.00007 10.497 3.9993 10.5167 3.99957C11.82 4.01894 13.0987 4.36617 14.2224 5.00869C14.878 5.38366 15.4185 5.95516 15.8435 6.49957C15.8959 6.56673 15.9481 6.63463 15.9985 6.7027C16.0489 6.63458 16.1009 6.56679 16.1534 6.49957C16.5783 5.95515 17.119 5.38374 17.7745 5.00869C18.8982 4.36606 20.1768 4.01902 21.4802 3.99957C21.4999 3.99928 21.5204 4.00006 21.5401 4.00088ZM16.0063 12.273C15.4175 12.2732 14.9401 12.7506 14.9399 13.3394V14.9332H13.3331C12.7442 14.9333 12.2668 15.4107 12.2667 15.9996C12.2667 16.5886 12.7441 17.0658 13.3331 17.066H14.9399V18.6728L14.9451 18.7821C14.9998 19.3197 15.4543 19.7389 16.0063 19.7392C16.5584 19.7392 17.0127 19.3199 17.0675 18.7821L17.0727 18.6728V17.066H18.6664L18.7758 17.0608C19.3135 17.006 19.7328 16.5518 19.7328 15.9996C19.7327 15.4475 19.3135 14.9931 18.7758 14.9384L18.6664 14.9332H17.0727V13.3394C17.0725 12.7505 16.5953 12.273 16.0063 12.273Z" fill="#F8633C"/>
</svg>
