<svg width="241" height="268" viewBox="0 0 241 268" fill="none" xmlns="http://www.w3.org/2000/svg">
<path d="M0.5 16C0.5 7.16345 7.66344 0 16.5 0H224.5C233.337 0 240.5 7.16344 240.5 16V252C240.5 260.837 233.337 268 224.5 268H16.5C7.66344 268 0.5 260.837 0.5 252V16Z" fill="#F4F5F6"/>
<path d="M74.5694 24.822V26.278H82.6754V27.86H78.5454V28.854H83.4034V30.492H71.8394V28.854H76.6414V27.86H72.6514V23.212H82.5914V24.822H74.5694ZM72.4274 33.726C72.4274 32.858 72.8194 32.27 73.5334 31.864C74.4434 31.36 75.8714 31.178 77.6354 31.178C79.3994 31.178 80.8274 31.36 81.7374 31.864C82.4654 32.27 82.8434 32.858 82.8434 33.726C82.8434 34.594 82.4654 35.182 81.7374 35.574C80.8274 36.092 79.3994 36.274 77.6354 36.274C75.8714 36.274 74.4434 36.092 73.5334 35.574C72.8194 35.182 72.4274 34.594 72.4274 33.726ZM74.3454 33.726C74.3454 33.978 74.4714 34.174 74.7234 34.3C75.2414 34.58 76.2074 34.65 77.6354 34.65C79.0634 34.65 80.0294 34.58 80.5474 34.3C80.7994 34.174 80.9254 33.978 80.9254 33.726C80.9254 33.474 80.7994 33.278 80.5474 33.138C80.0294 32.872 79.0634 32.788 77.6354 32.788C76.2074 32.788 75.2414 32.872 74.7234 33.138C74.4714 33.278 74.3454 33.474 74.3454 33.726ZM94.0908 27.272V23.212H104.031V27.272H94.0908ZM102.113 24.752H96.0088V25.718H102.113V24.752ZM98.1088 30.198V29.442H93.2788V27.832H104.843V29.442H99.9988V30.198H104.031V33.894H96.0088V34.496H104.325V36.05H94.0908V32.354H102.113V31.752H94.0908V30.198H98.1088ZM117.448 24.822V26.278H125.554V27.86H115.53V23.212H125.47V24.822H117.448ZM114.718 28.784H126.282V30.408H114.718V28.784ZM115.306 33.726C115.306 32.858 115.698 32.27 116.412 31.864C117.322 31.36 118.75 31.178 120.514 31.178C122.278 31.178 123.706 31.36 124.616 31.864C125.344 32.27 125.722 32.858 125.722 33.726C125.722 34.594 125.344 35.182 124.616 35.574C123.706 36.092 122.278 36.274 120.514 36.274C118.75 36.274 117.322 36.092 116.412 35.574C115.698 35.182 115.306 34.594 115.306 33.726ZM117.224 33.726C117.224 33.978 117.35 34.174 117.602 34.3C118.12 34.58 119.086 34.65 120.514 34.65C121.942 34.65 122.908 34.58 123.426 34.3C123.678 34.174 123.804 33.978 123.804 33.726C123.804 33.474 123.678 33.278 123.426 33.138C122.908 32.872 121.942 32.788 120.514 32.788C119.086 32.788 118.12 32.872 117.602 33.138C117.35 33.278 117.224 33.474 117.224 33.726ZM138.888 27.664H146.994V29.218H142.864V30.002H147.722V31.612H136.158V30.002H140.96V29.218H136.97V25.438H144.992V24.766H136.97V23.212H146.91V26.964H138.888V27.664ZM144.992 33.95H136.886V32.34H146.91V36.12H144.992V33.95ZM158.409 23.212H168.349V24.822H164.401C164.793 25.844 166.571 26.39 168.489 26.53V28.14C166.403 28.014 164.499 27.44 163.365 26.418C162.231 27.44 160.327 28.014 158.241 28.14V26.53C160.131 26.418 161.923 25.844 162.315 24.822H158.409V23.212ZM157.597 28.784H169.161V30.408H157.597V28.784ZM158.185 33.726C158.185 32.858 158.577 32.27 159.291 31.864C160.201 31.36 161.629 31.178 163.393 31.178C165.157 31.178 166.585 31.36 167.495 31.864C168.223 32.27 168.601 32.858 168.601 33.726C168.601 34.594 168.223 35.182 167.495 35.574C166.585 36.092 165.157 36.274 163.393 36.274C161.629 36.274 160.201 36.092 159.291 35.574C158.577 35.182 158.185 34.594 158.185 33.726ZM160.103 33.726C160.103 33.978 160.229 34.174 160.481 34.3C160.999 34.58 161.965 34.65 163.393 34.65C164.821 34.65 165.787 34.58 166.305 34.3C166.557 34.174 166.683 33.978 166.683 33.726C166.683 33.474 166.557 33.278 166.305 33.138C165.787 32.872 164.821 32.788 163.393 32.788C161.965 32.788 160.999 32.872 160.481 33.138C160.229 33.278 160.103 33.474 160.103 33.726Z" fill="#4C4D54"/>
<rect x="20.5" y="61" width="48" height="12" rx="3" fill="#E6E2E2"/>
<rect x="20.5" y="85" width="48" height="12" rx="3" fill="#E6E2E2"/>
<rect x="20.5" y="109" width="48" height="12" rx="3" fill="#E6E2E2"/>
<rect x="20.5" y="133" width="48" height="12" rx="3" fill="#E6E2E2"/>
<rect x="20.5" y="157" width="48" height="12" rx="3" fill="#E6E2E2"/>
<rect x="84.5" y="61" width="136" height="12" rx="3" fill="#E6E2E2"/>
<rect x="84.5" y="85" width="136" height="12" rx="3" fill="#E6E2E2"/>
<rect x="84.5" y="109" width="136" height="12" rx="3" fill="#E6E2E2"/>
<rect x="84.5" y="133" width="136" height="12" rx="3" fill="#E6E2E2"/>
<rect x="84.5" y="157" width="82" height="12" rx="3" fill="#E6E2E2"/>
<path d="M70.178 237.536H63.809V236.238H71.685V238.108C71.685 238.691 71.641 239.252 71.509 239.681H70.035C70.145 239.252 70.178 238.713 70.178 238.163V237.536ZM63.237 240.176H72.323V241.485H68.517V242.838H71.685V246.38H70.178V244.136H63.809V242.838H67.032V241.485H63.237V240.176ZM77.5916 238.504V237.602H74.1156V236.293H79.0766V238.328C79.0766 242.167 77.6906 244.752 74.0606 245.665V244.235C76.5576 243.509 77.5916 241.485 77.5916 238.504ZM82.0466 240.121H83.5646V241.419H82.0466V246.215H80.5396V236.117H82.0466V240.121ZM86.5011 237.503V238.647H92.8701V239.89H89.6251V240.671H93.4421V241.958H84.3561V240.671H88.1291V239.89H84.9941V236.238H92.8041V237.503H86.5011ZM84.8181 244.499C84.8181 243.817 85.1261 243.355 85.6871 243.036C86.4021 242.64 87.5241 242.497 88.9101 242.497C90.2961 242.497 91.4181 242.64 92.1331 243.036C92.7051 243.355 93.0021 243.817 93.0021 244.499C93.0021 245.181 92.7051 245.643 92.1331 245.951C91.4181 246.358 90.2961 246.501 88.9101 246.501C87.5241 246.501 86.4021 246.358 85.6871 245.951C85.1261 245.643 84.8181 245.181 84.8181 244.499ZM86.3251 244.499C86.3251 244.697 86.4241 244.851 86.6221 244.95C87.0291 245.17 87.7881 245.225 88.9101 245.225C90.0321 245.225 90.7911 245.17 91.1981 244.95C91.3961 244.851 91.4951 244.697 91.4951 244.499C91.4951 244.301 91.3961 244.147 91.1981 244.037C90.7911 243.828 90.0321 243.762 88.9101 243.762C87.7881 243.762 87.0291 243.828 86.6221 244.037C86.4241 244.147 86.3251 244.301 86.3251 244.499ZM95.5537 239.428V236.238H103.364V239.428H95.5537ZM101.857 237.448H97.0607V238.207H101.857V237.448ZM98.7107 241.727V241.133H94.9157V239.868H104.002V241.133H100.196V241.727H103.364V244.631H97.0607V245.104H103.595V246.325H95.5537V243.421H101.857V242.948H95.5537V241.727H98.7107ZM112.493 238.163V236.293H114V242.475H110.788V244.466H114.506V245.775H105.53V244.466H109.292V242.475H106.036V236.293H107.543V238.163H112.493ZM112.493 239.483H107.543V241.155H112.493V239.483ZM119.797 236.942V235.765H121.326V236.942H124.791V238.24H116.365V236.942H119.797ZM116.596 240.979C116.596 240.264 116.97 239.736 117.542 239.373C118.268 238.922 119.39 238.724 120.578 238.724C121.766 238.724 122.888 238.922 123.614 239.373C124.186 239.736 124.56 240.264 124.56 240.979C124.56 241.694 124.186 242.211 123.614 242.574C123.053 242.937 122.239 243.124 121.348 243.19V244.466H125.066V245.775H116.09V244.466H119.852V243.201C118.939 243.135 118.114 242.937 117.542 242.574C116.97 242.211 116.596 241.694 116.596 240.979ZM118.103 240.979C118.103 241.232 118.257 241.441 118.521 241.584C118.961 241.848 119.72 241.958 120.578 241.958C121.436 241.958 122.195 241.848 122.635 241.584C122.899 241.441 123.053 241.232 123.053 240.979C123.053 240.715 122.899 240.517 122.635 240.363C122.195 240.11 121.436 240 120.578 240C119.72 240 118.961 240.11 118.521 240.363C118.257 240.517 118.103 240.715 118.103 240.979ZM129.476 243.399C128.959 244.389 127.771 245.192 126.561 245.544V244.158C127.727 243.63 128.728 242.706 128.728 239.868V236.238H130.235V239.868C130.235 242.706 131.236 243.63 132.391 244.158V245.544C131.181 245.192 130.004 244.378 129.476 243.399ZM135.097 246.215H133.59V236.117H135.097V246.215ZM141.686 239.89C140.96 240.946 139.497 241.98 137.363 242.354V241.034C139.673 240.495 140.927 239.131 140.927 236.931V236.238H142.434V236.931C142.434 239.131 143.699 240.495 146.009 241.034V242.354C143.875 241.98 142.412 240.946 141.686 239.89ZM137.209 244.466H146.185V245.775H137.209V244.466ZM151.52 238.427V239.637H149.43V240.649H150.816C151.366 240.649 151.817 240.638 152.279 240.528V241.672C151.817 241.815 151.311 241.859 150.739 241.859H147.978V236.238H151.751V237.448H149.43V238.427H151.52ZM151.861 238.383H152.829V236.172H154.259V242.123H152.829V239.703H151.861V238.383ZM154.919 236.117H156.36V242.178H154.919V236.117ZM148.682 242.585H156.36V246.325H148.682V242.585ZM150.189 243.883V245.038H154.853V243.883H150.189Z" fill="#4C4D54"/>
<rect x="166.5" y="232" width="20" height="20" rx="2" fill="#F3CDE0"/>
</svg>
