<svg width="240" height="268" viewBox="0 0 240 268" fill="none" xmlns="http://www.w3.org/2000/svg">
<path d="M0 16C0 7.16345 7.16344 0 16 0H224C232.837 0 240 7.16344 240 16V252C240 260.837 232.837 268 224 268H16C7.16344 268 0 260.837 0 252V16Z" fill="#F4F5F6"/>
<path d="M74.0694 24.822V26.278H82.1754V27.86H78.0454V28.854H82.9034V30.492H71.3394V28.854H76.1414V27.86H72.1514V23.212H82.0914V24.822H74.0694ZM71.9274 33.726C71.9274 32.858 72.3194 32.27 73.0334 31.864C73.9434 31.36 75.3714 31.178 77.1354 31.178C78.8994 31.178 80.3274 31.36 81.2374 31.864C81.9654 32.27 82.3434 32.858 82.3434 33.726C82.3434 34.594 81.9654 35.182 81.2374 35.574C80.3274 36.092 78.8994 36.274 77.1354 36.274C75.3714 36.274 73.9434 36.092 73.0334 35.574C72.3194 35.182 71.9274 34.594 71.9274 33.726ZM73.8454 33.726C73.8454 33.978 73.9714 34.174 74.2234 34.3C74.7414 34.58 75.7074 34.65 77.1354 34.65C78.5634 34.65 79.5294 34.58 80.0474 34.3C80.2994 34.174 80.4254 33.978 80.4254 33.726C80.4254 33.474 80.2994 33.278 80.0474 33.138C79.5294 32.872 78.5634 32.788 77.1354 32.788C75.7074 32.788 74.7414 32.872 74.2234 33.138C73.9714 33.278 73.8454 33.474 73.8454 33.726ZM93.5908 27.272V23.212H103.531V27.272H93.5908ZM101.613 24.752H95.5088V25.718H101.613V24.752ZM97.6088 30.198V29.442H92.7788V27.832H104.343V29.442H99.4988V30.198H103.531V33.894H95.5088V34.496H103.825V36.05H93.5908V32.354H101.613V31.752H93.5908V30.198H97.6088ZM116.948 24.822V26.278H125.054V27.86H115.03V23.212H124.97V24.822H116.948ZM114.218 28.784H125.782V30.408H114.218V28.784ZM114.806 33.726C114.806 32.858 115.198 32.27 115.912 31.864C116.822 31.36 118.25 31.178 120.014 31.178C121.778 31.178 123.206 31.36 124.116 31.864C124.844 32.27 125.222 32.858 125.222 33.726C125.222 34.594 124.844 35.182 124.116 35.574C123.206 36.092 121.778 36.274 120.014 36.274C118.25 36.274 116.822 36.092 115.912 35.574C115.198 35.182 114.806 34.594 114.806 33.726ZM116.724 33.726C116.724 33.978 116.85 34.174 117.102 34.3C117.62 34.58 118.586 34.65 120.014 34.65C121.442 34.65 122.408 34.58 122.926 34.3C123.178 34.174 123.304 33.978 123.304 33.726C123.304 33.474 123.178 33.278 122.926 33.138C122.408 32.872 121.442 32.788 120.014 32.788C118.586 32.788 117.62 32.872 117.102 33.138C116.85 33.278 116.724 33.474 116.724 33.726ZM138.388 27.664H146.494V29.218H142.364V30.002H147.222V31.612H135.658V30.002H140.46V29.218H136.47V25.438H144.492V24.766H136.47V23.212H146.41V26.964H138.388V27.664ZM144.492 33.95H136.386V32.34H146.41V36.12H144.492V33.95ZM157.909 23.212H167.849V24.822H163.901C164.293 25.844 166.071 26.39 167.989 26.53V28.14C165.903 28.014 163.999 27.44 162.865 26.418C161.731 27.44 159.827 28.014 157.741 28.14V26.53C159.631 26.418 161.423 25.844 161.815 24.822H157.909V23.212ZM157.097 28.784H168.661V30.408H157.097V28.784ZM157.685 33.726C157.685 32.858 158.077 32.27 158.791 31.864C159.701 31.36 161.129 31.178 162.893 31.178C164.657 31.178 166.085 31.36 166.995 31.864C167.723 32.27 168.101 32.858 168.101 33.726C168.101 34.594 167.723 35.182 166.995 35.574C166.085 36.092 164.657 36.274 162.893 36.274C161.129 36.274 159.701 36.092 158.791 35.574C158.077 35.182 157.685 34.594 157.685 33.726ZM159.603 33.726C159.603 33.978 159.729 34.174 159.981 34.3C160.499 34.58 161.465 34.65 162.893 34.65C164.321 34.65 165.287 34.58 165.805 34.3C166.057 34.174 166.183 33.978 166.183 33.726C166.183 33.474 166.057 33.278 165.805 33.138C165.287 32.872 164.321 32.788 162.893 32.788C161.465 32.788 160.499 32.872 159.981 33.138C159.729 33.278 159.603 33.474 159.603 33.726Z" fill="#4C4D54"/>
<rect x="20" y="61" width="48" height="12" rx="3" fill="#E6E2E2"/>
<rect x="20" y="85" width="48" height="12" rx="3" fill="#E6E2E2"/>
<rect x="20" y="109" width="48" height="12" rx="3" fill="#E6E2E2"/>
<rect x="20" y="133" width="48" height="12" rx="3" fill="#E6E2E2"/>
<rect x="20" y="157" width="48" height="12" rx="3" fill="#E6E2E2"/>
<rect x="84" y="61" width="136" height="12" rx="3" fill="#E6E2E2"/>
<rect x="84" y="85" width="136" height="12" rx="3" fill="#E6E2E2"/>
<rect x="84" y="109" width="136" height="12" rx="3" fill="#E6E2E2"/>
<rect x="84" y="133" width="136" height="12" rx="3" fill="#E6E2E2"/>
<rect x="84" y="157" width="82" height="12" rx="3" fill="#E6E2E2"/>
<path d="M69.678 237.536H63.309V236.238H71.185V238.108C71.185 238.691 71.141 239.252 71.009 239.681H69.535C69.645 239.252 69.678 238.713 69.678 238.163V237.536ZM62.737 240.176H71.823V241.485H68.017V242.838H71.185V246.38H69.678V244.136H63.309V242.838H66.532V241.485H62.737V240.176ZM77.0916 238.504V237.602H73.6156V236.293H78.5766V238.328C78.5766 242.167 77.1906 244.752 73.5606 245.665V244.235C76.0576 243.509 77.0916 241.485 77.0916 238.504ZM81.5466 240.121H83.0646V241.419H81.5466V246.215H80.0396V236.117H81.5466V240.121ZM86.0011 237.503V238.647H92.3701V239.89H89.1251V240.671H92.9421V241.958H83.8561V240.671H87.6291V239.89H84.4941V236.238H92.3041V237.503H86.0011ZM84.3181 244.499C84.3181 243.817 84.6261 243.355 85.1871 243.036C85.9021 242.64 87.0241 242.497 88.4101 242.497C89.7961 242.497 90.9181 242.64 91.6331 243.036C92.2051 243.355 92.5021 243.817 92.5021 244.499C92.5021 245.181 92.2051 245.643 91.6331 245.951C90.9181 246.358 89.7961 246.501 88.4101 246.501C87.0241 246.501 85.9021 246.358 85.1871 245.951C84.6261 245.643 84.3181 245.181 84.3181 244.499ZM85.8251 244.499C85.8251 244.697 85.9241 244.851 86.1221 244.95C86.5291 245.17 87.2881 245.225 88.4101 245.225C89.5321 245.225 90.2911 245.17 90.6981 244.95C90.8961 244.851 90.9951 244.697 90.9951 244.499C90.9951 244.301 90.8961 244.147 90.6981 244.037C90.2911 243.828 89.5321 243.762 88.4101 243.762C87.2881 243.762 86.5291 243.828 86.1221 244.037C85.9241 244.147 85.8251 244.301 85.8251 244.499ZM95.0537 239.428V236.238H102.864V239.428H95.0537ZM101.357 237.448H96.5607V238.207H101.357V237.448ZM98.2107 241.727V241.133H94.4157V239.868H103.502V241.133H99.6957V241.727H102.864V244.631H96.5607V245.104H103.095V246.325H95.0537V243.421H101.357V242.948H95.0537V241.727H98.2107ZM111.993 238.163V236.293H113.5V242.475H110.288V244.466H114.006V245.775H105.03V244.466H108.792V242.475H105.536V236.293H107.043V238.163H111.993ZM111.993 239.483H107.043V241.155H111.993V239.483ZM119.297 236.942V235.765H120.826V236.942H124.291V238.24H115.865V236.942H119.297ZM116.096 240.979C116.096 240.264 116.47 239.736 117.042 239.373C117.768 238.922 118.89 238.724 120.078 238.724C121.266 238.724 122.388 238.922 123.114 239.373C123.686 239.736 124.06 240.264 124.06 240.979C124.06 241.694 123.686 242.211 123.114 242.574C122.553 242.937 121.739 243.124 120.848 243.19V244.466H124.566V245.775H115.59V244.466H119.352V243.201C118.439 243.135 117.614 242.937 117.042 242.574C116.47 242.211 116.096 241.694 116.096 240.979ZM117.603 240.979C117.603 241.232 117.757 241.441 118.021 241.584C118.461 241.848 119.22 241.958 120.078 241.958C120.936 241.958 121.695 241.848 122.135 241.584C122.399 241.441 122.553 241.232 122.553 240.979C122.553 240.715 122.399 240.517 122.135 240.363C121.695 240.11 120.936 240 120.078 240C119.22 240 118.461 240.11 118.021 240.363C117.757 240.517 117.603 240.715 117.603 240.979ZM128.976 243.399C128.459 244.389 127.271 245.192 126.061 245.544V244.158C127.227 243.63 128.228 242.706 128.228 239.868V236.238H129.735V239.868C129.735 242.706 130.736 243.63 131.891 244.158V245.544C130.681 245.192 129.504 244.378 128.976 243.399ZM134.597 246.215H133.09V236.117H134.597V246.215ZM141.186 239.89C140.46 240.946 138.997 241.98 136.863 242.354V241.034C139.173 240.495 140.427 239.131 140.427 236.931V236.238H141.934V236.931C141.934 239.131 143.199 240.495 145.509 241.034V242.354C143.375 241.98 141.912 240.946 141.186 239.89ZM136.709 244.466H145.685V245.775H136.709V244.466ZM151.02 238.427V239.637H148.93V240.649H150.316C150.866 240.649 151.317 240.638 151.779 240.528V241.672C151.317 241.815 150.811 241.859 150.239 241.859H147.478V236.238H151.251V237.448H148.93V238.427H151.02ZM151.361 238.383H152.329V236.172H153.759V242.123H152.329V239.703H151.361V238.383ZM154.419 236.117H155.86V242.178H154.419V236.117ZM148.182 242.585H155.86V246.325H148.182V242.585ZM149.689 243.883V245.038H154.353V243.883H149.689Z" fill="#4C4D54"/>
<rect x="166" y="232" width="20" height="20" rx="2" fill="#F3CDE0"/>
</svg>
