<svg width="40" height="40" viewBox="0 0 40 40" fill="none" xmlns="http://www.w3.org/2000/svg">
<rect x="7.83984" y="4.57227" width="23.5151" height="30.0471" rx="1" fill="#D9D9D9"/>
<rect x="7.83984" y="4.57227" width="23.5151" height="30.0471" rx="1" fill="#FA967C"/>
<path fill-rule="evenodd" clip-rule="evenodd" d="M11.7573 9.79785C11.7573 9.07635 12.3422 8.49146 13.0637 8.49146H21.2287C21.9502 8.49146 22.5351 9.07635 22.5351 9.79785C22.5351 10.5194 21.9502 11.1042 21.2287 11.1042H13.0637C12.3422 11.1042 11.7573 10.5194 11.7573 9.79785ZM11.7573 15.3499C11.7573 14.6284 12.3422 14.0435 13.0637 14.0435H24.4947C25.2162 14.0435 25.8011 14.6284 25.8011 15.3499C25.8011 16.0714 25.2162 16.6563 24.4947 16.6563H13.0637C12.3422 16.6563 11.7573 16.0714 11.7573 15.3499Z" fill="#D63D4A"/>
<g style="mix-blend-mode:multiply">
<path fill-rule="evenodd" clip-rule="evenodd" d="M23.5711 26.8372C24.0813 26.327 24.9085 26.327 25.4186 26.8372L28.6846 30.1032C29.1948 30.6134 29.1948 31.4406 28.6846 31.9507C28.1744 32.4609 27.3473 32.4609 26.8371 31.9507L23.5711 28.6847C23.0609 28.1746 23.0609 27.3474 23.5711 26.8372Z" fill="black"/>
<path fill-rule="evenodd" clip-rule="evenodd" d="M23.5711 26.8372C24.0813 26.327 24.9085 26.327 25.4186 26.8372L28.6846 30.1032C29.1948 30.6134 29.1948 31.4406 28.6846 31.9507C28.1744 32.4609 27.3473 32.4609 26.8371 31.9507L23.5711 28.6847C23.0609 28.1746 23.0609 27.3474 23.5711 26.8372Z" fill="#D63D4A"/>
</g>
<g style="mix-blend-mode:multiply">
<circle cx="22.0001" cy="26.128" r="4.89898" fill="#D63D4A"/>
</g>
</svg>
