<svg width="33" height="32" viewBox="0 0 33 32" fill="none" xmlns="http://www.w3.org/2000/svg">
<path fill-rule="evenodd" clip-rule="evenodd" d="M11.4332 17.2336C9.75348 17.2336 8.14257 17.9009 6.95484 19.0886C5.76711 20.2764 5.09985 21.8873 5.09985 23.567C5.09985 24.5748 5.50021 25.5413 6.21285 26.254C6.92549 26.9666 7.89203 27.367 8.89985 27.367H24.0999C25.1077 27.367 26.0742 26.9666 26.7869 26.254C27.4995 25.5413 27.8999 24.5748 27.8999 23.567C27.8999 21.8873 27.2326 20.2764 26.0449 19.0886C24.8571 17.9009 23.2462 17.2336 21.5665 17.2336H11.4332Z" fill="#FA967C"/>
<path d="M12.2574 5.72416C11.1321 6.84937 10.5 8.3755 10.5 9.9668C10.5 11.5581 11.1321 13.0842 12.2574 14.2094C13.3826 15.3347 14.9087 15.9668 16.5 15.9668C18.0913 15.9668 19.6174 15.3347 20.7426 14.2094C21.8679 13.0842 22.5 11.5581 22.5 9.9668C22.5 8.3755 21.8679 6.84937 20.7426 5.72416C19.6174 4.59894 18.0913 3.9668 16.5 3.9668C14.9087 3.9668 13.3826 4.59894 12.2574 5.72416Z" fill="#FA967C"/>
<path d="M12.2574 5.72416C11.1321 6.84937 10.5 8.3755 10.5 9.9668C10.5 11.5581 11.1321 13.0842 12.2574 14.2094C13.3826 15.3347 14.9087 15.9668 16.5 15.9668C18.0913 15.9668 19.6174 15.3347 20.7426 14.2094C21.8679 13.0842 22.5 11.5581 22.5 9.9668C22.5 8.3755 21.8679 6.84937 20.7426 5.72416C19.6174 4.59894 18.0913 3.9668 16.5 3.9668C14.9087 3.9668 13.3826 4.59894 12.2574 5.72416Z" fill="#D63D4A"/>
<g style="mix-blend-mode:multiply">
<path d="M26.9435 16C26.4433 16.0071 25.9539 16.1342 25.5249 16.3685C25.0959 16.6028 24.7424 17.1296 24.5001 17.5281C24.2578 17.1296 23.9043 16.6028 23.4753 16.3685C23.0462 16.1342 22.5569 16.0071 22.0566 16C21.2591 16.0315 20.5078 16.3491 19.9667 16.8833C19.4256 17.4175 19.1388 18.1249 19.1689 18.8509C19.1689 21.5907 24.0363 25.0337 24.2433 25.1679L24.5001 25.3333L24.7569 25.1679C24.9639 25.0345 29.8313 21.5907 29.8313 18.8509C29.8614 18.1249 29.5745 17.4175 29.0335 16.8833C28.4924 16.3491 27.741 16.0315 26.9435 16Z" fill="#D63D4A"/>
</g>
</svg>
