<svg width="32" height="32" viewBox="0 0 32 32" fill="none" xmlns="http://www.w3.org/2000/svg">
<path d="M7.05401 13.8666C7.05401 11.3205 7.99653 8.87873 9.67423 7.07838C11.3519 5.27803 13.6274 4.2666 16 4.2666C18.3726 4.2666 20.648 5.27803 22.3257 7.07838C24.0034 8.87873 24.946 11.3205 24.946 13.8666V17.9274L26.8624 23.0709C26.9226 23.2327 26.945 23.4078 26.9276 23.581C26.9102 23.7542 26.8535 23.9202 26.7625 24.0645C26.6715 24.2088 26.5489 24.3269 26.4055 24.4087C26.2622 24.4904 26.1023 24.5332 25.9399 24.5333H6.06002C5.89767 24.5332 5.73781 24.4904 5.59443 24.4087C5.45105 24.3269 5.3285 24.2088 5.23749 24.0645C5.14649 23.9202 5.0898 23.7542 5.07239 23.581C5.05497 23.4078 5.07736 23.2327 5.13759 23.0709L7.05401 17.9274V13.8666Z" fill="#FA967C"/>
<g style="mix-blend-mode:multiply">
<path d="M19.6001 25.2001C19.6001 27.1883 17.9884 28.8001 16.0001 28.8001C14.0119 28.8001 12.4001 27.1883 12.4001 25.2001C12.4001 23.2119 14.0119 21.6001 16.0001 21.6001C17.9884 21.6001 19.6001 23.2119 19.6001 25.2001Z" fill="#33363D"/>
<path d="M19.6001 25.2001C19.6001 27.1883 17.9884 28.8001 16.0001 28.8001C14.0119 28.8001 12.4001 27.1883 12.4001 25.2001C12.4001 23.2119 14.0119 21.6001 16.0001 21.6001C17.9884 21.6001 19.6001 23.2119 19.6001 25.2001Z" fill="#D63D4A"/>
</g>
<path d="M26.2668 8.00023C26.2668 9.62026 24.9535 10.9336 23.3335 10.9336C21.7134 10.9336 20.4001 9.62026 20.4001 8.00023C20.4001 6.38019 21.7134 5.06689 23.3335 5.06689C24.9535 5.06689 26.2668 6.38019 26.2668 8.00023Z" fill="#D63D4A"/>
</svg>
