<svg width="32" height="32" viewBox="0 0 32 32" fill="none" xmlns="http://www.w3.org/2000/svg">
<path d="M12.8889 15.417L9.33331 22.917L9.99998 25.3337L13.3333 26.667H16.6666L18 26.0003L18.9333 24.417L20 22.167V17.667L17.1555 14.667L12.8889 15.417Z" fill="#FDCFC3"/>
<path d="M14.8883 4.82613L14.1296 4.37437C13.8272 4.19433 13.4385 4.37466 13.3806 4.72177L13.2366 5.58552C12.816 8.08908 11.095 10.4154 9.1967 12.0501C5.48049 15.2518 4.66677 18.7314 5.81742 21.6037C6.91852 24.3524 9.71311 26.2345 12.5495 26.5485L13.2058 26.6207C11.5828 25.6348 10.5411 23.3315 10.9045 21.6103C11.2635 19.9186 12.4879 18.3342 14.8398 16.8723L16.0257 16.137L16.4684 17.4556C16.7293 18.2346 17.1808 18.8605 17.6399 19.4963C17.8601 19.8027 18.0837 20.1123 18.2885 20.4417C18.9965 21.5851 19.1837 22.8566 18.7267 24.1182C18.3105 25.265 17.6245 26.1666 16.6787 26.6667L17.7467 26.5485C20.4092 26.2541 22.3636 25.3492 23.6332 23.8359C24.8918 22.3358 25.3333 20.4045 25.3333 18.3484C25.3333 16.4336 24.5416 14.4596 23.6079 12.8172C22.6282 11.0953 21.3811 9.63462 20.012 8.23669C19.7741 7.99376 19.384 8.06651 19.2533 8.38039C19.1531 8.62092 19.0212 8.89778 18.7223 9.36165C18.0017 7.45986 16.649 5.8597 14.8883 4.82613Z" fill="#FA967C"/>
<g style="mix-blend-mode:multiply">
<path d="M18.7067 23.2394C18.7067 25.9802 22.3269 27.9998 23.6844 27.9998C25.042 27.9998 28.6622 25.9802 28.6622 23.2394C28.6622 21.7966 28.6622 20.4909 28.6622 19.5778C28.6622 18.788 28.1521 18.0896 27.4009 17.8502L24.5077 16.9279C23.9721 16.7571 23.3968 16.7571 22.8612 16.9279L19.9679 17.8502C19.2168 18.0896 18.7067 18.788 18.7067 19.5778C18.7067 20.4909 18.7067 21.7966 18.7067 23.2394Z" fill="#D63D4A"/>
</g>
<path d="M26.0283 20.283C26.2686 20.1325 26.5894 20.1661 26.7926 20.3793C26.9956 20.5928 27.0133 20.915 26.8512 21.1476L26.7718 21.2413L23.5673 24.2895C23.4499 24.401 23.293 24.4618 23.1311 24.4575C22.9691 24.4531 22.8153 24.3839 22.7041 24.2661L20.5738 22.007L20.4996 21.9093C20.3504 21.6683 20.3857 21.3484 20.5999 21.1463C20.8142 20.9441 21.1362 20.9271 21.3681 21.0903L21.4619 21.171L23.1702 22.9835L25.9306 20.3585L26.0283 20.283Z" fill="white"/>
<path d="M5.33331 10.0003C5.33331 8.15938 6.8257 6.66699 8.66665 6.66699C9.03484 6.66699 9.33331 6.96547 9.33331 7.33366C9.33331 7.70185 9.03484 8.00033 8.66665 8.00033C7.56208 8.00033 6.66665 8.89576 6.66665 10.0003C6.66665 10.3685 6.36817 10.667 5.99998 10.667C5.63179 10.667 5.33331 10.3685 5.33331 10.0003Z" fill="#D63D4A"/>
<path d="M2 10.6663V9.33301C2 6.0193 4.68629 3.33301 8 3.33301H9.33333C9.70152 3.33301 10 3.63148 10 3.99967C10 4.36786 9.70152 4.66634 9.33333 4.66634H8C5.42267 4.66634 3.33333 6.75568 3.33333 9.33301V10.6663C3.33333 11.0345 3.03486 11.333 2.66667 11.333C2.29848 11.333 2 11.0345 2 10.6663Z" fill="#D63D4A"/>
</svg>
