<svg width="32" height="32" viewBox="0 0 32 32" fill="none" xmlns="http://www.w3.org/2000/svg">
<g clip-path="url(#clip0_18356_448734)">
<path d="M16.5537 2.14551C17.0566 1.95206 17.6104 1.95201 18.1133 2.14551L25.8916 5.13867C26.3151 5.30169 26.6798 5.59402 26.9375 5.97559C27.1952 6.35732 27.333 6.81096 27.333 7.27539V13.3926C27.333 15.2989 26.8161 17.1674 25.8398 18.7891C25.6484 19.107 25.4394 19.4122 25.2168 19.7051C25.2745 19.2935 25.313 18.8784 25.3271 18.4609L25.333 18.0586V11.9424C25.3331 11.2146 25.1175 10.5005 24.71 9.89648C24.3529 9.36763 23.8621 8.9427 23.2881 8.66895L23.0361 8.56055L15.2588 5.56738C14.5494 5.29446 13.7754 5.26027 13.0498 5.46484L12.7412 5.56738L7.33301 7.64844V7.27637C7.33278 6.81191 7.47095 6.35842 7.72852 5.97656C7.98625 5.59458 8.35154 5.30177 8.77539 5.13867L16.5537 2.14551Z" fill="white"/>
<path d="M16.5537 2.14453C17.0565 1.95117 17.6105 1.9511 18.1133 2.14453L25.8906 5.13867C26.3143 5.3017 26.6798 5.59383 26.9375 5.97559C27.1952 6.35733 27.3331 6.81094 27.333 7.27539V13.3926C27.333 15.2988 26.8161 17.1675 25.8398 18.7891C25.6485 19.1068 25.4392 19.4113 25.2168 19.7041C25.2745 19.2926 25.313 18.8774 25.3271 18.46L25.333 18.0576V11.9424C25.3331 11.2147 25.1174 10.5004 24.71 9.89648C24.353 9.36767 23.8621 8.94271 23.2881 8.66895L23.0361 8.56055L15.2588 5.56738C14.5494 5.29444 13.7754 5.25933 13.0498 5.46387L12.7412 5.56738L7.33301 7.64844V7.27637C7.33273 6.81171 7.47078 6.35757 7.72852 5.97559C7.98622 5.5937 8.35163 5.30176 8.77539 5.13867L16.5537 2.14453Z" fill="#D63D4A"/>
<path d="M14.78 6.81116L22.5578 9.80521C22.9815 9.96824 23.3466 10.2601 23.6043 10.6419C23.862 11.0237 24.0001 11.4771 24 11.9415V18.0585C24 19.965 23.4829 21.8337 22.5066 23.4554C21.5303 25.0772 20.1333 26.3877 18.4722 27.2403L14.7456 29.152C14.5141 29.2708 14.2588 29.3327 14 29.3327C13.7412 29.3327 13.4859 29.2708 13.2544 29.152L9.52778 27.2392C7.86671 26.3866 6.46974 25.076 5.49341 23.4543C4.51708 21.8326 3.99996 19.9638 4 18.0574V11.9427C3.99972 11.478 4.13767 11.0244 4.39541 10.6424C4.65315 10.2604 5.01837 9.96831 5.44222 9.80521L13.22 6.81116C13.7229 6.61764 14.2771 6.61764 14.78 6.81116Z" fill="#FA967C"/>
<path fill-rule="evenodd" clip-rule="evenodd" d="M18.0491 13.6087C18.4859 14.0039 18.5196 14.6785 18.1244 15.1153L13.9022 19.782C13.7008 20.0046 13.4149 20.132 13.1147 20.133C12.8145 20.134 12.5278 20.0084 12.3249 19.7871L9.88047 17.1205C9.4824 16.6862 9.51174 16.0115 9.946 15.6134C10.3803 15.2153 11.055 15.2446 11.4531 15.6789L13.1061 17.4822L16.5425 13.684C16.9377 13.2472 17.6122 13.2135 18.0491 13.6087Z" fill="#D63D4A"/>
<path d="M5.9168 11.1355L10.6394 9.24169C10.8269 9.1665 10.996 9.45869 10.8371 9.58061C8.39347 11.4563 6.6343 13.8107 5.55964 17.4644C5.50474 17.6511 5.17972 17.6138 5.18018 17.4198L5.19247 12.1793C5.19354 11.7225 5.4791 11.3111 5.9168 11.1355Z" fill="white"/>
</g>
<defs>
<clipPath id="clip0_18356_448734">
<rect width="32" height="32" fill="white"/>
</clipPath>
</defs>
</svg>
