<svg width="32" height="32" viewBox="0 0 32 32" fill="none" xmlns="http://www.w3.org/2000/svg">
<path d="M12.6667 12.0003C15.244 12.0003 17.3334 9.91099 17.3334 7.33366C17.3334 4.75633 15.244 2.66699 12.6667 2.66699C10.0894 2.66699 8.00002 4.75633 8.00002 7.33366C8.00002 9.91099 10.0894 12.0003 12.6667 12.0003Z" fill="#FA967C"/>
<path d="M19.3286 17.5603L18.6787 16.2803C17.758 14.467 15.8896 13.3337 13.8317 13.3337H12.9652C10.0273 13.3337 7.63086 15.627 7.54963 18.5203V18.6403L6.68314 26.3737C6.50713 27.947 7.76625 29.3337 9.37739 29.3337H23.8506C25.4076 29.3337 26.6667 28.0937 26.6667 26.5603C26.6667 22.1603 23.5256 18.4803 19.3286 17.5603Z" fill="#FA967C"/>
<g style="mix-blend-mode:multiply">
<path d="M25.7954 20C25.3368 20.0067 24.8882 20.1278 24.495 20.351C24.1017 20.5741 23.7777 21.0758 23.5556 21.4553C23.3335 21.0758 23.0094 20.5741 22.6162 20.351C22.2229 20.1278 21.7743 20.0067 21.3157 20C20.5847 20.03 19.896 20.3325 19.4 20.8412C18.904 21.35 18.6411 22.0237 18.6687 22.7152C18.6687 25.3244 23.1304 28.6035 23.3202 28.7313C23.4626 28.8267 23.6485 28.8267 23.791 28.7313C23.9807 28.6043 28.4425 25.3244 28.4425 22.7152C28.4701 22.0237 28.2071 21.35 27.7112 20.8412C27.2152 20.3325 26.5264 20.03 25.7954 20Z" fill="#D63D4A"/>
</g>
</svg>
