<svg width="32" height="32" viewBox="0 0 32 32" fill="none" xmlns="http://www.w3.org/2000/svg">
<path d="M25.5332 5.33301C26.541 5.33301 27.5075 5.73336 28.2202 6.446C28.9328 7.15864 29.3332 8.12519 29.3332 9.13301V10.3997H2.6665V9.13301C2.6665 8.12519 3.06686 7.15864 3.7795 6.446C4.49214 5.73336 5.45868 5.33301 6.4665 5.33301H25.5332Z" fill="#D63D4A"/>
<path d="M29.3332 21.866V11.666H2.6665V21.866C2.6665 22.8738 3.06686 23.8404 3.7795 24.553C4.49214 25.2657 5.45868 25.666 6.4665 25.666H25.5332C26.541 25.666 27.5075 25.2657 28.2202 24.553C28.9328 23.8404 29.3332 22.8738 29.3332 21.866Z" fill="#FA967C"/>
<circle cx="8.4332" cy="21.233" r="1.9" fill="white"/>
<circle cx="10.9669" cy="21.233" r="1.9" fill="white"/>
</svg>
