<svg width="32" height="32" viewBox="0 0 32 32" fill="none" xmlns="http://www.w3.org/2000/svg">
<rect x="4" y="9.33301" width="24" height="16" rx="2.31882" fill="#FA967C"/>
<rect x="11.2" y="12.5342" width="9.6" height="9.6" rx="4.8" fill="#D63D4A"/>
<path d="M15.9995 14.5332C16.3861 14.5332 16.6997 14.8468 16.6997 15.2334V16.6328H18.1001C18.4866 16.6328 18.8002 16.9465 18.8003 17.333C18.8003 17.7196 18.4867 18.0332 18.1001 18.0332H16.6997V19.4336C16.6997 19.8201 16.3861 20.1338 15.9995 20.1338C15.6132 20.1335 15.3003 19.82 15.3003 19.4336V18.0332H13.8999C13.5134 18.0331 13.1997 17.7195 13.1997 17.333C13.1998 16.9466 13.5135 16.6329 13.8999 16.6328H15.3003V15.2334C15.3003 14.847 15.6132 14.5335 15.9995 14.5332Z" fill="white"/>
<path d="M21.2 5.33301C21.8627 5.33301 22.4001 5.87048 22.4001 6.5332V9.33301H19.9998V7.56836C19.9996 7.2177 19.7157 6.93367 19.365 6.93359H12.6355C12.2847 6.93359 11.9999 7.21765 11.9998 7.56836V9.33301H9.60034V6.5332C9.60037 5.87062 10.137 5.33322 10.7996 5.33301H21.2Z" fill="#D63D4A"/>
<path d="M6.66675 25.334H9.33341V25.8203C9.33341 26.2881 8.95417 26.6673 8.48636 26.6673H7.51381C7.04599 26.6673 6.66675 26.2881 6.66675 25.8203V25.334Z" fill="#D63D4A"/>
<path d="M22.6665 25.334H25.3332V25.8203C25.3332 26.2881 24.9539 26.6673 24.4861 26.6673H23.5136C23.0457 26.6673 22.6665 26.2881 22.6665 25.8203V25.334Z" fill="#D63D4A"/>
</svg>
