<svg width="32" height="32" viewBox="0 0 32 32" fill="none" xmlns="http://www.w3.org/2000/svg">
<g clip-path="url(#clip0_18356_448682)">
<path d="M6.35929 4.73438C6.35929 4.73438 9.85997 6.69516 15.111 6.69516C20.362 6.69516 23.8627 4.73438 23.8627 4.73438L29.642 22.3599C29.724 22.61 29.6468 22.8814 29.429 23.0293C28.2339 23.8405 23.8833 26.303 15.111 26.303C6.33868 26.303 1.98812 23.8405 0.792972 23.0293C0.575158 22.8814 0.497977 22.61 0.579997 22.3599L6.35929 4.73438Z" fill="#FA967C"/>
<path d="M25.4999 9.74121C25.3089 10.3006 25.0149 10.9193 24.5876 11.5138C23.5607 12.9423 21.7803 14.2081 18.9088 14.2082C17.7643 14.2082 16.9799 14.5155 16.4374 14.9573C16.1708 15.1746 15.9533 15.4329 15.7769 15.7195C16.5936 16.0416 17.5842 16.8471 17.8428 17.1058C18.2088 17.4716 19.3066 16.3742 19.6727 16.374C20.0386 16.374 20.0389 18.5693 19.3072 18.9356C18.7217 19.2284 17.1113 18.3255 16.3793 17.8375C16.5013 18.5695 16.6721 20.3997 16.3793 21.8636C16.013 23.6932 12.7193 24.4247 9.05986 22.229C6.4676 20.6737 6.21548 18.1439 6.49823 16.374C6.58196 15.85 6.8534 15.7322 6.60587 15.4287C5.86527 14.759 5.40015 13.7906 5.40015 12.7134C5.40026 10.6923 6.89203 9.34711 8.91316 9.34711C10.9342 9.34716 12.3531 10.6924 12.3533 12.7134C12.3533 13.1063 12.3041 13.4846 12.2118 13.8393C12.3024 14.0562 12.3533 14.2943 12.3533 14.5441C12.3532 15.1418 12.0647 15.6703 11.6215 16.0042V16.0077L12.3533 16.374C12.5972 15.0321 13.2321 12.4215 13.8177 12.7143C14.549 13.0802 14.1831 13.4465 14.1831 15.2759C14.1831 16.7397 13.451 18.0814 13.085 18.5693L14.1831 18.9356C14.1831 18.759 14.19 18.5482 14.2013 18.3193C14.2049 17.7163 14.2747 17.0685 14.4539 16.4452C14.4608 16.4213 14.4693 16.3979 14.4765 16.374C14.4878 16.336 14.4992 16.2989 14.5112 16.2629C14.7555 15.512 15.1709 14.7849 15.848 14.2334C16.5845 13.6336 17.588 13.2742 18.9088 13.2742C21.4605 13.2741 22.9666 12.1695 23.8298 10.9686C24.267 10.3604 24.5437 9.7209 24.7004 9.17524C24.8414 8.68437 24.8753 8.30518 24.8645 8.10927L24.8576 8.03635L24.8524 7.94173C24.8542 7.9023 24.8611 7.86389 24.8723 7.82715L25.4999 9.74121Z" fill="white"/>
<g style="mix-blend-mode:multiply">
<path d="M28.462 17.7412C28.0034 17.748 27.5548 17.869 27.1615 18.0922C26.7683 18.3153 26.4442 18.817 26.2221 19.1965C26 18.817 25.676 18.3153 25.2827 18.0922C24.8894 17.869 24.4409 17.748 23.9823 17.7412C23.2513 17.7712 22.5625 18.0737 22.0665 18.5824C21.5706 19.0912 21.3076 19.7649 21.3352 20.4564C21.3352 23.0656 25.797 26.3447 25.9867 26.4726C26.1292 26.5679 26.3151 26.5679 26.4575 26.4726C26.6473 26.3455 31.109 23.0656 31.109 20.4564C31.1366 19.7649 30.8737 19.0912 30.3777 18.5824C29.8817 18.0737 29.193 17.7712 28.462 17.7412Z" fill="#D63D4A"/>
</g>
</g>
<defs>
<clipPath id="clip0_18356_448682">
<rect width="32" height="32" fill="white"/>
</clipPath>
</defs>
</svg>
