<svg width="32" height="32" viewBox="0 0 32 32" fill="none" xmlns="http://www.w3.org/2000/svg">
<path d="M27.6666 15.6667C27.6666 22.11 22.4433 27.3333 16 27.3333C9.55666 27.3333 4.33331 22.11 4.33331 15.6667C4.33331 9.22334 9.55666 4 16 4C22.4433 4 27.6666 9.22334 27.6666 15.6667Z" fill="white"/>
<path d="M27.6666 15.6667C27.6666 22.11 22.4433 27.3333 16 27.3333C9.55666 27.3333 4.33331 22.11 4.33331 15.6667C4.33331 9.22334 9.55666 4 16 4C22.4433 4 27.6666 9.22334 27.6666 15.6667Z" fill="#FA967C"/>
<g style="mix-blend-mode:multiply">
<path d="M24.3333 15.6667C24.3333 11.0643 20.6024 7.33333 16 7.33333C11.3976 7.33333 7.66665 11.0643 7.66665 15.6667C7.66665 16.5871 6.92045 17.3333 5.99998 17.3333C5.07951 17.3333 4.33331 16.5871 4.33331 15.6667C4.33331 9.22334 9.55666 4 16 4C22.4433 4 27.6666 9.22334 27.6666 15.6667C27.6666 16.5871 26.9205 17.3333 26 17.3333C25.0795 17.3333 24.3333 16.5871 24.3333 15.6667Z" fill="#D63D4A"/>
</g>
<g style="mix-blend-mode:multiply">
<path d="M18.0105 13.0082C18.4658 12.5533 19.2037 12.5532 19.6589 13.0082C20.1143 13.4636 20.1143 14.2026 19.6589 14.658L13.991 20.3259C13.5356 20.7813 12.7966 20.7813 12.3412 20.3259C11.8862 19.8707 11.8864 19.1328 12.3412 18.6775L18.0105 13.0082Z" fill="#D63D4A"/>
<path d="M18.6667 18.0004C19.4031 18.0004 20 18.5974 20.0001 19.3337C20.0001 20.0701 19.4031 20.6671 18.6667 20.6671C17.9304 20.667 17.3334 20.0701 17.3334 19.3337C17.3335 18.5975 17.9305 18.0005 18.6667 18.0004Z" fill="#D63D4A"/>
<path d="M13.3334 12.6671C14.0697 12.6671 14.6667 13.2641 14.6667 14.0004C14.6667 14.7368 14.0698 15.3337 13.3334 15.3337C12.5971 15.3337 12.0001 14.7367 12.0001 14.0004C12.0002 13.2641 12.5971 12.6671 13.3334 12.6671Z" fill="#D63D4A"/>
</g>
</svg>
