<svg width="24" height="24" viewBox="0 0 24 24" fill="none" xmlns="http://www.w3.org/2000/svg">
<g style="mix-blend-mode:multiply">
<path d="M5 4C5 2.89543 5.89543 2 7 2H17C18.1046 2 19 2.89543 19 4V20C19 21.1046 18.1046 22 17 22H7C5.89543 22 5 21.1046 5 20V4Z" fill="#FA967C"/>
<g style="mix-blend-mode:multiply">
<path d="M5 17H19V20C19 21.1046 18.1046 22 17 22H7C5.89543 22 5 21.1046 5 20V17Z" fill="#D63D4A"/>
</g>
<path d="M12 20.5C12.5523 20.5 13 20.0523 13 19.5C13 18.9477 12.5523 18.5 12 18.5C11.4477 18.5 11 18.9477 11 19.5C11 20.0523 11.4477 20.5 12 20.5Z" fill="#FA967C"/>
<path fill-rule="evenodd" clip-rule="evenodd" d="M15.3367 7.40673C15.6644 7.70316 15.6897 8.20906 15.3932 8.53669L12.2266 12.0367C12.0755 12.2036 11.8611 12.2992 11.6359 12.3C11.4108 12.3007 11.1958 12.2065 11.0436 12.0405L9.21028 10.0405C8.91173 9.71484 8.93373 9.20879 9.25942 8.91023C9.58512 8.61168 10.0912 8.63368 10.3897 8.95938L11.6295 10.3118L14.2068 7.46323C14.5032 7.1356 15.0091 7.1103 15.3367 7.40673Z" fill="#D63D4A"/>
</g>
</svg>
