<svg width="24" height="24" viewBox="0 0 24 24" fill="none" xmlns="http://www.w3.org/2000/svg">
<g style="mix-blend-mode:multiply">
<path d="M11.7965 3C6.38591 3 2 6.46731 2 10.7446C2 13.5288 3.85851 15.9684 6.64728 17.3336C6.44224 18.099 5.9053 20.1051 5.7977 20.5345C5.66524 21.0674 5.9931 21.0603 6.20777 20.9167C6.37627 20.8045 8.89251 19.0942 9.97807 18.3558C10.5673 18.443 11.1748 18.4892 11.7965 18.4892C17.2071 18.4892 21.593 15.0214 21.593 10.7446C21.593 6.46782 17.2071 3 11.7965 3Z" fill="#FA967C"/>
<path d="M7.85406 8.46387H4.98916C4.71968 8.46387 4.50195 8.6821 4.50195 8.95108C4.50195 9.22006 4.72018 9.43829 4.98916 9.43829H5.92045V12.8701C5.92045 12.9949 5.9712 13.1177 6.06052 13.2066C6.14781 13.2949 6.27012 13.3456 6.39548 13.3456H6.49952C6.62436 13.3456 6.74617 13.2949 6.83397 13.2066C6.92329 13.1177 6.97404 12.9954 6.97404 12.8701V9.43829H7.85356C8.12304 9.43829 8.34127 9.22006 8.34127 8.95108C8.34127 8.6821 8.12304 8.46387 7.85356 8.46387H7.85406Z" fill="#FAE100"/>
<path d="M7.85406 8.46387H4.98916C4.71968 8.46387 4.50195 8.6821 4.50195 8.95108C4.50195 9.22006 4.72018 9.43829 4.98916 9.43829H5.92045V12.8701C5.92045 12.9949 5.9712 13.1177 6.06052 13.2066C6.14781 13.2949 6.27012 13.3456 6.39548 13.3456H6.49952C6.62436 13.3456 6.74617 13.2949 6.83397 13.2066C6.92329 13.1177 6.97404 12.9954 6.97404 12.8701V9.43829H7.85356C8.12304 9.43829 8.34127 9.22006 8.34127 8.95108C8.34127 8.6821 8.12304 8.46387 7.85356 8.46387H7.85406Z" fill="#D63D4A"/>
<path d="M14.7385 12.429H13.4062V8.92409C13.4062 8.63176 13.1697 8.39526 12.8779 8.39526C12.5861 8.39526 12.3496 8.63176 12.3496 8.92409V12.702C12.3496 12.7314 12.3532 12.7588 12.3577 12.7868C12.3527 12.8142 12.3496 12.8426 12.3496 12.871C12.3496 13.1156 12.547 13.3136 12.7917 13.3136H14.7385C14.9836 13.3136 15.1805 13.1156 15.1805 12.871C15.1805 12.6264 14.9831 12.429 14.7385 12.429Z" fill="#FAE100"/>
<path d="M14.7385 12.429H13.4062V8.92409C13.4062 8.63176 13.1697 8.39526 12.8779 8.39526C12.5861 8.39526 12.3496 8.63176 12.3496 8.92409V12.702C12.3496 12.7314 12.3532 12.7588 12.3577 12.7868C12.3527 12.8142 12.3496 12.8426 12.3496 12.871C12.3496 13.1156 12.547 13.3136 12.7917 13.3136H14.7385C14.9836 13.3136 15.1805 13.1156 15.1805 12.871C15.1805 12.6264 14.9831 12.429 14.7385 12.429Z" fill="#D63D4A"/>
<path d="M18.9956 12.5898L17.5112 10.64L18.8525 9.29813C19.0342 9.11694 19.0342 8.82208 18.8525 8.64039C18.6708 8.4587 18.3765 8.4587 18.1943 8.64039L16.5337 10.301V8.92409C16.5337 8.63176 16.2972 8.39526 16.0054 8.39526C15.7136 8.39526 15.4766 8.63176 15.4766 8.92409V12.8182C15.4766 13.1105 15.7131 13.347 16.0054 13.347C16.2977 13.347 16.5337 13.1111 16.5337 12.8182V11.6169L16.8357 11.3155L18.24 13.1583C18.3963 13.3668 18.6932 13.41 18.9018 13.2521C19.1103 13.0953 19.1525 12.7989 18.9956 12.5898Z" fill="#FAE100"/>
<path d="M18.9956 12.5898L17.5112 10.64L18.8525 9.29813C19.0342 9.11694 19.0342 8.82208 18.8525 8.64039C18.6708 8.4587 18.3765 8.4587 18.1943 8.64039L16.5337 10.301V8.92409C16.5337 8.63176 16.2972 8.39526 16.0054 8.39526C15.7136 8.39526 15.4766 8.63176 15.4766 8.92409V12.8182C15.4766 13.1105 15.7131 13.347 16.0054 13.347C16.2977 13.347 16.5337 13.1111 16.5337 12.8182V11.6169L16.8357 11.3155L18.24 13.1583C18.3963 13.3668 18.6932 13.41 18.9018 13.2521C19.1103 13.0953 19.1525 12.7989 18.9956 12.5898Z" fill="#D63D4A"/>
<path d="M11.9527 12.7162L10.5251 8.81043C10.5251 8.81043 10.5215 8.80738 10.5205 8.80586C10.4292 8.56784 10.1658 8.39478 9.85161 8.39478C9.50295 8.39478 9.21468 8.60793 9.15733 8.88655C9.14769 8.90736 9.13805 8.92817 9.12993 8.9505L7.72615 12.7162C7.63937 12.9634 7.76929 13.2334 8.01543 13.3202C8.26208 13.407 8.53259 13.277 8.61937 13.0304L8.86247 12.3371H10.8164L11.059 13.0304C11.1458 13.277 11.4163 13.407 11.6629 13.3202C11.9096 13.2334 12.0395 12.9634 11.9527 12.7162ZM9.17256 11.452L9.82928 9.57829C9.83689 9.57829 9.84298 9.58032 9.85059 9.58032L10.5068 11.452H9.17307H9.17256Z" fill="#FAE100"/>
<path d="M11.9527 12.7162L10.5251 8.81043C10.5251 8.81043 10.5215 8.80738 10.5205 8.80586C10.4292 8.56784 10.1658 8.39478 9.85161 8.39478C9.50295 8.39478 9.21468 8.60793 9.15733 8.88655C9.14769 8.90736 9.13805 8.92817 9.12993 8.9505L7.72615 12.7162C7.63937 12.9634 7.76929 13.2334 8.01543 13.3202C8.26208 13.407 8.53259 13.277 8.61937 13.0304L8.86247 12.3371H10.8164L11.059 13.0304C11.1458 13.277 11.4163 13.407 11.6629 13.3202C11.9096 13.2334 12.0395 12.9634 11.9527 12.7162ZM9.17256 11.452L9.82928 9.57829C9.83689 9.57829 9.84298 9.58032 9.85059 9.58032L10.5068 11.452H9.17307H9.17256Z" fill="#D63D4A"/>
</g>
</svg>
