<svg width="24" height="24" viewBox="0 0 24 24" fill="none" xmlns="http://www.w3.org/2000/svg">
<g style="mix-blend-mode:multiply">
<path d="M18.6667 3C20.5076 3 22 4.31958 22 5.94737V14.0526C22 15.6804 20.5076 17 18.6667 17H5.33333C3.49238 17 2 15.6804 2 14.0526L2 5.94737C2 4.31958 3.49238 3 5.33333 3L18.6667 3Z" fill="#FA967C"/>
<g style="mix-blend-mode:multiply">
<path d="M11 17C11 16.5858 11.3358 16.25 11.75 16.25C12.1642 16.25 12.5 16.5858 12.5 17V19.5C12.5 19.9142 12.1642 20.25 11.75 20.25C11.3358 20.25 11 19.9142 11 19.5L11 17Z" fill="#33363D"/>
<path d="M11 17C11 16.5858 11.3358 16.25 11.75 16.25C12.1642 16.25 12.5 16.5858 12.5 17V19.5C12.5 19.9142 12.1642 20.25 11.75 20.25C11.3358 20.25 11 19.9142 11 19.5L11 17Z" fill="#D63D4A"/>
</g>
<path d="M14 19C14.4142 19 14.75 19.3358 14.75 19.75C14.75 20.1642 14.4142 20.5 14 20.5L9.5 20.5C9.08579 20.5 8.75 20.1642 8.75 19.75C8.75 19.3358 9.08579 19 9.5 19L14 19Z" fill="#D63D4A"/>
<path d="M4 7C4 5.89543 4.89543 5 6 5H18C19.1046 5 20 5.89543 20 7V13C20 14.1046 19.1046 15 18 15H6C4.89543 15 4 14.1046 4 13V7Z" fill="#D63D4A"/>
<path fill-rule="evenodd" clip-rule="evenodd" d="M13.8627 9.14018C14.0496 9.32709 14.0496 9.63013 13.8627 9.81704L12.1223 11.5574C11.9354 11.7443 11.6324 11.7443 11.4455 11.5574L10.1402 10.2521C9.95327 10.0652 9.95327 9.76219 10.1402 9.57528C10.3271 9.38837 10.6301 9.38837 10.817 9.57528L11.7839 10.5422L13.1859 9.14018C13.3728 8.95327 13.6758 8.95327 13.8627 9.14018Z" fill="white"/>
</g>
</svg>
