<svg width="64" height="64" viewBox="0 0 64 64" fill="none" xmlns="http://www.w3.org/2000/svg">
<g style="mix-blend-mode:multiply">
<path fill-rule="evenodd" clip-rule="evenodd" d="M18.0166 10.9113C14.0857 10.9113 10.9118 14.0852 10.9118 18.0161V21.5439C10.9118 22.532 10.1108 23.333 9.12264 23.333C8.13452 23.333 7.3335 22.532 7.3335 21.5439V18.0161C7.3335 12.109 12.1095 7.33301 18.0166 7.33301H21.5444C22.5325 7.33301 23.3335 8.13403 23.3335 9.12215C23.3335 10.1103 22.5325 10.9113 21.5444 10.9113H18.0166Z" fill="#D63D4A"/>
<path fill-rule="evenodd" clip-rule="evenodd" d="M40 9.78914C40 8.80103 40.801 8 41.7891 8H45.3169C51.224 8 56 12.776 56 18.6831V22.2109C56 23.199 55.199 24 54.2109 24C53.2227 24 52.4217 23.199 52.4217 22.2109V18.6831C52.4217 14.7522 49.2478 11.5783 45.3169 11.5783H41.7891C40.801 11.5783 40 10.7773 40 9.78914Z" fill="#D63D4A"/>
<path fill-rule="evenodd" clip-rule="evenodd" d="M53.5444 39.333C54.5325 39.333 55.3335 40.134 55.3335 41.1222V44.6499C55.3335 50.557 50.5575 55.333 44.6504 55.333H41.1226C40.1345 55.333 39.3335 54.532 39.3335 53.5439C39.3335 52.5557 40.1345 51.7547 41.1226 51.7547H44.6504C48.5813 51.7547 51.7552 48.5808 51.7552 44.6499V41.1222C51.7552 40.134 52.5562 39.333 53.5444 39.333Z" fill="#D63D4A"/>
<path fill-rule="evenodd" clip-rule="evenodd" d="M9.12264 39.0869C10.1108 39.0869 10.9118 39.8879 10.9118 40.8761V44.4038C10.9118 48.3347 14.0857 51.5086 18.0166 51.5086H21.5444C22.5325 51.5086 23.3335 52.3097 23.3335 53.2978C23.3335 54.2859 22.5325 55.0869 21.5444 55.0869H18.0166C12.1095 55.0869 7.3335 50.3109 7.3335 44.4038V40.8761C7.3335 39.8879 8.13452 39.0869 9.12264 39.0869Z" fill="#D63D4A"/>
<path fill-rule="evenodd" clip-rule="evenodd" d="M24.6789 32.8457C22.3771 32.8457 20.1696 33.7601 18.542 35.3877C16.9144 37.0153 16 39.2228 16 41.5246C16 42.9056 16.5486 44.2301 17.5252 45.2067C18.5017 46.1833 19.8262 46.7319 21.2073 46.7319H42.0366C43.4176 46.7319 44.7421 46.1833 45.7187 45.2067C46.6953 44.2301 47.2439 42.9056 47.2439 41.5246C47.2439 39.2228 46.3295 37.0153 44.7019 35.3877C43.0743 33.7601 40.8668 32.8457 38.565 32.8457H24.6789Z" fill="#FA967C"/>
<path d="M25.8086 17.0742C24.2666 18.6161 23.4004 20.7075 23.4004 22.8881C23.4004 25.0687 24.2666 27.16 25.8086 28.702C27.3505 30.2439 29.4418 31.1102 31.6225 31.1102C33.8031 31.1102 35.8944 30.2439 37.4364 28.702C38.9783 27.16 39.8445 25.0687 39.8445 22.8881C39.8445 20.7075 38.9783 18.6161 37.4364 17.0742C35.8944 15.5323 33.8031 14.666 31.6225 14.666C29.4418 14.666 27.3505 15.5323 25.8086 17.0742Z" fill="#FA967C"/>
<path d="M25.8086 17.0742C24.2666 18.6161 23.4004 20.7075 23.4004 22.8881C23.4004 25.0687 24.2666 27.16 25.8086 28.702C27.3505 30.2439 29.4418 31.1102 31.6225 31.1102C33.8031 31.1102 35.8944 30.2439 37.4364 28.702C38.9783 27.16 39.8445 25.0687 39.8445 22.8881C39.8445 20.7075 38.9783 18.6161 37.4364 17.0742C35.8944 15.5323 33.8031 14.666 31.6225 14.666C29.4418 14.666 27.3505 15.5323 25.8086 17.0742Z" fill="#D63D4A"/>
</g>
</svg>
