<svg width="24" height="24" viewBox="0 0 24 24" fill="none" xmlns="http://www.w3.org/2000/svg">
<circle cx="12" cy="12" r="11.5" stroke="#6D7882"/>
<path fill-rule="evenodd" clip-rule="evenodd" d="M7.1333 6.66655C7.1333 6.00381 7.67056 5.46655 8.3333 5.46655H15.6666C16.3294 5.46655 16.8666 6.00381 16.8666 6.66655V17.3332C16.8666 17.996 16.3294 18.5332 15.6666 18.5332H8.3333C7.67056 18.5332 7.1333 17.996 7.1333 17.3332V6.66655ZM8.3333 6.53322C8.25966 6.53322 8.19997 6.59291 8.19997 6.66655V17.3332C8.19997 17.4069 8.25966 17.4666 8.3333 17.4666H15.6666C15.7403 17.4666 15.8 17.4069 15.8 17.3332V6.66655C15.8 6.59291 15.7403 6.53322 15.6666 6.53322H8.3333Z" fill="#33363D"/>
<path fill-rule="evenodd" clip-rule="evenodd" d="M10.7998 16.3334C10.7998 16.0388 11.0386 15.8 11.3331 15.8H12.6665C12.961 15.8 13.1998 16.0388 13.1998 16.3334C13.1998 16.6279 12.961 16.8667 12.6665 16.8667H11.3331C11.0386 16.8667 10.7998 16.6279 10.7998 16.3334Z" fill="#33363D"/>
</svg>
