<svg width="65" height="64" viewBox="0 0 65 64" fill="none" xmlns="http://www.w3.org/2000/svg">
<g style="mix-blend-mode:multiply">
<path fill-rule="evenodd" clip-rule="evenodd" d="M18.5161 10.9115C14.5852 10.9115 11.4113 14.0855 11.4113 18.0163V21.5441C11.4113 22.5322 10.6103 23.3333 9.62215 23.3333C8.63403 23.3333 7.83301 22.5322 7.83301 21.5441V18.0163C7.83301 12.1092 12.609 7.33325 18.5161 7.33325H22.0439C23.032 7.33325 23.833 8.13428 23.833 9.12239C23.833 10.1105 23.032 10.9115 22.0439 10.9115H18.5161Z" fill="#D63D4A"/>
<path fill-rule="evenodd" clip-rule="evenodd" d="M40.5 9.78914C40.5 8.80103 41.301 8 42.2891 8H45.8169C51.724 8 56.5 12.776 56.5 18.6831V22.2109C56.5 23.199 55.699 24 54.7109 24C53.7227 24 52.9217 23.199 52.9217 22.2109V18.6831C52.9217 14.7522 49.7478 11.5783 45.8169 11.5783H42.2891C41.301 11.5783 40.5 10.7773 40.5 9.78914Z" fill="#D63D4A"/>
<path fill-rule="evenodd" clip-rule="evenodd" d="M54.0439 39.3333C55.032 39.3333 55.833 40.1343 55.833 41.1224V44.6502C55.833 50.5573 51.057 55.3333 45.1499 55.3333H41.6222C40.634 55.3333 39.833 54.5322 39.833 53.5441C39.833 52.556 40.634 51.755 41.6222 51.755H45.1499C49.0808 51.755 52.2547 48.581 52.2547 44.6502V41.1224C52.2547 40.1343 53.0557 39.3333 54.0439 39.3333Z" fill="#D63D4A"/>
<path fill-rule="evenodd" clip-rule="evenodd" d="M9.62215 39.0872C10.6103 39.0872 11.4113 39.8882 11.4113 40.8763V44.4041C11.4113 48.335 14.5852 51.5089 18.5161 51.5089H22.0439C23.032 51.5089 23.833 52.3099 23.833 53.298C23.833 54.2861 23.032 55.0872 22.0439 55.0872H18.5161C12.609 55.0872 7.83301 50.3112 7.83301 44.4041V40.8763C7.83301 39.8882 8.63403 39.0872 9.62215 39.0872Z" fill="#D63D4A"/>
<path fill-rule="evenodd" clip-rule="evenodd" d="M25.1789 32.8464C22.8771 32.8464 20.6696 33.7608 19.042 35.3884C17.4144 37.016 16.5 39.2235 16.5 41.5253C16.5 42.9064 17.0486 44.2309 18.0252 45.2074C19.0017 46.184 20.3262 46.7326 21.7073 46.7326H42.5366C43.9176 46.7326 45.2421 46.184 46.2187 45.2074C47.1953 44.2309 47.7439 42.9064 47.7439 41.5253C47.7439 39.2235 46.8295 37.016 45.2019 35.3884C43.5743 33.7608 41.3668 32.8464 39.065 32.8464H25.1789Z" fill="#FA967C"/>
<path d="M26.3096 17.0749C24.7676 18.6169 23.9014 20.7082 23.9014 22.8888C23.9014 25.0695 24.7676 27.1608 26.3096 28.7027C27.8515 30.2446 29.9428 31.1109 32.1234 31.1109C34.3041 31.1109 36.3954 30.2446 37.9373 28.7027C39.4793 27.1608 40.3455 25.0695 40.3455 22.8888C40.3455 20.7082 39.4793 18.6169 37.9373 17.0749C36.3954 15.533 34.3041 14.6667 32.1234 14.6667C29.9428 14.6667 27.8515 15.533 26.3096 17.0749Z" fill="#FA967C"/>
<path d="M26.3096 17.0749C24.7676 18.6169 23.9014 20.7082 23.9014 22.8888C23.9014 25.0695 24.7676 27.1608 26.3096 28.7027C27.8515 30.2446 29.9428 31.1109 32.1234 31.1109C34.3041 31.1109 36.3954 30.2446 37.9373 28.7027C39.4793 27.1608 40.3455 25.0695 40.3455 22.8888C40.3455 20.7082 39.4793 18.6169 37.9373 17.0749C36.3954 15.533 34.3041 14.6667 32.1234 14.6667C29.9428 14.6667 27.8515 15.533 26.3096 17.0749Z" fill="#D63D4A"/>
</g>
</svg>
