<svg width="24" height="24" viewBox="0 0 24 24" fill="none" xmlns="http://www.w3.org/2000/svg">
<g style="mix-blend-mode:multiply">
<path d="M4.83398 5C4.83398 3.89543 5.72941 3 6.83398 3H16.834C17.9386 3 18.834 3.89543 18.834 5V20C18.834 21.1046 17.9386 22 16.834 22H6.83398C5.72941 22 4.83398 21.1046 4.83398 20V5Z" fill="#FA967C"/>
<g style="mix-blend-mode:multiply">
<path d="M4.83398 17H18.834V20C18.834 21.1046 17.9386 22 16.834 22H6.83398C5.72941 22 4.83398 21.1046 4.83398 20V17Z" fill="#D63D4A"/>
</g>
<path d="M11.834 20.5C12.3863 20.5 12.834 20.0523 12.834 19.5C12.834 18.9477 12.3863 18.5 11.834 18.5C11.2817 18.5 10.834 18.9477 10.834 19.5C10.834 20.0523 11.2817 20.5 11.834 20.5Z" fill="#FA967C"/>
<path d="M2.94434 12.3112C2.94434 11.3292 3.74036 10.5332 4.72231 10.5332H18.9461C19.928 10.5332 20.724 11.3292 20.724 12.3112V14.0891C20.724 15.0711 19.928 15.8671 18.9461 15.8671H4.72231C3.74036 15.8671 2.94434 15.0711 2.94434 14.0891V12.3112Z" fill="white"/>
<path d="M20.1908 12.311C20.1908 11.6237 19.6333 11.0661 18.9459 11.0661H4.72215C4.03479 11.0661 3.47722 11.6237 3.47722 12.311V14.089C3.47722 14.7763 4.03479 15.3339 4.72215 15.3339H18.9459C19.6333 15.3339 20.1908 14.7763 20.1908 14.089V12.311ZM21.2569 14.089C21.2569 15.3655 20.2224 16.4 18.9459 16.4H4.72215C3.44562 16.4 2.41113 15.3655 2.41113 14.089V12.311C2.41113 11.0345 3.44562 10 4.72215 10H18.9459C20.2224 10 21.2569 11.0345 21.2569 12.311V14.089Z" fill="#D63D4A"/>
<g style="mix-blend-mode:multiply">
<circle cx="5.16682" cy="13.1995" r="0.888985" fill="#D63D4A"/>
</g>
<g style="mix-blend-mode:multiply">
<circle cx="13.1676" cy="13.1995" r="0.888985" fill="#D63D4A"/>
</g>
<g style="mix-blend-mode:multiply">
<circle cx="7.83357" cy="13.1995" r="0.888985" fill="#D63D4A"/>
</g>
<g style="mix-blend-mode:multiply">
<circle cx="15.8345" cy="13.1995" r="0.888985" fill="#D63D4A"/>
</g>
<g style="mix-blend-mode:multiply">
<circle cx="10.5006" cy="13.1995" r="0.888985" fill="#D63D4A"/>
</g>
<g style="mix-blend-mode:multiply">
<circle cx="18.5015" cy="13.1995" r="0.888985" fill="#D63D4A"/>
</g>
<g style="mix-blend-mode:multiply">
<circle cx="18" cy="5.5" r="4" fill="#D63D4A"/>
</g>
<path d="M18.7665 3.09961V7.89961H17.763V4.15302H17.7364L16.5332 5.07935V4.09961L17.8228 3.09961H18.7665Z" fill="white"/>
</g>
</svg>
