<svg width="24" height="24" viewBox="0 0 24 24" fill="none" xmlns="http://www.w3.org/2000/svg">
<circle cx="12" cy="12" r="11.5" stroke="#6D7882"/>
<path fill-rule="evenodd" clip-rule="evenodd" d="M17.3335 6.53346L6.66679 6.53363C6.59316 6.53363 6.53346 6.59333 6.53346 6.66697V14.6668C6.53346 14.7404 6.59316 14.8001 6.6668 14.8001H17.3335C17.4071 14.8001 17.4668 14.7404 17.4668 14.6668V6.6668C17.4668 6.59316 17.4071 6.53346 17.3335 6.53346ZM6.66678 5.46697L17.3334 5.4668C17.9962 5.46679 18.5335 6.00405 18.5335 6.6668V14.6668C18.5335 15.3295 17.9962 15.8668 17.3335 15.8668H6.6668C6.00406 15.8668 5.4668 15.3295 5.4668 14.6668V6.66697C5.4668 6.00423 6.00404 5.46698 6.66678 5.46697Z" fill="#33363D"/>
<path fill-rule="evenodd" clip-rule="evenodd" d="M12.3333 14.8C12.6279 14.8 12.8666 15.0388 12.8666 15.3334V16.8H16C16.2945 16.8 16.5333 17.0388 16.5333 17.3334C16.5333 17.6279 16.2945 17.8667 16 17.8667H8.66663C8.37208 17.8667 8.1333 17.6279 8.1333 17.3334C8.1333 17.0388 8.37208 16.8 8.66663 16.8H11.8V15.3334C11.8 15.0388 12.0387 14.8 12.3333 14.8Z" fill="#33363D"/>
</svg>
