<svg width="24" height="24" viewBox="0 0 24 24" fill="none" xmlns="http://www.w3.org/2000/svg">
<g style="mix-blend-mode:multiply">
<path d="M16.6754 15L19 22H13.5756L12.1211 17.6204L10.4244 22H5L7.7122 15H16.6754Z" fill="#D63D4A"/>
<path d="M4.90039 11.1994C4.90039 15.1149 10.064 18 12.0004 18C13.9368 18 19.1004 15.1149 19.1004 11.1994C19.1004 9.13834 19.1004 7.27305 19.1004 5.96849C19.1004 4.84029 18.3728 3.84257 17.3014 3.5005L13.1746 2.18293C12.4107 1.93902 11.5901 1.93902 10.8262 2.18293L6.69941 3.5005C5.628 3.84257 4.90039 4.84029 4.90039 5.96849C4.90039 7.27305 4.90039 9.13834 4.90039 11.1994Z" fill="#D63D4A"/>
<path d="M4.90039 11.1994C4.90039 15.1149 10.064 18 12.0004 18C13.9368 18 19.1004 15.1149 19.1004 11.1994C19.1004 9.13834 19.1004 7.27305 19.1004 5.96849C19.1004 4.84029 18.3728 3.84257 17.3014 3.5005L13.1746 2.18293C12.4107 1.93902 11.5901 1.93902 10.8262 2.18293L6.69941 3.5005C5.628 3.84257 4.90039 4.84029 4.90039 5.96849C4.90039 7.27305 4.90039 9.13834 4.90039 11.1994Z" fill="#FA967C"/>
<path d="M14.6389 7.51563C14.9614 7.21423 15.4651 7.23171 15.7661 7.55469C16.067 7.87769 16.0496 8.38215 15.7271 8.6836L11.4486 12.6836C11.1417 12.9705 10.6654 12.9705 10.3585 12.6836L8.64832 11.084C8.32583 10.7825 8.30832 10.2761 8.60932 9.95313C8.91014 9.63115 9.41418 9.61366 9.73646 9.91406L10.9026 11.0059L14.6389 7.51563Z" fill="white"/>
</g>
</svg>
