<svg width="32" height="32" viewBox="0 0 32 32" fill="none" xmlns="http://www.w3.org/2000/svg">
<rect x="0.5" y="0.5" width="31" height="31" rx="15.5" stroke="#6D7882"/>
<g clip-path="url(#clip0_14052_243235)">
<path d="M20.583 16.75C20.6672 16.75 20.7588 16.7654 20.833 16.7939L19.9648 18.083H10C9.90795 18.083 9.83301 18.158 9.83301 18.25V22C9.83305 22.092 9.90798 22.167 10 22.167H15.917L17.25 23.5H10C9.1716 23.5 8.50004 22.8284 8.5 22V18.25C8.5 17.4216 9.17157 16.75 10 16.75H20.583ZM19.9004 9.83301H10C9.90795 9.83301 9.83301 9.90795 9.83301 10V13.75C9.83301 13.842 9.90795 13.917 10 13.917H16L17.3594 15.25H10C9.17157 15.25 8.5 14.5784 8.5 13.75V10C8.5 9.17157 9.17157 8.5 10 8.5H20.8086L19.9004 9.83301Z" fill="#33363D"/>
<path fill-rule="evenodd" clip-rule="evenodd" d="M23.0407 8.78161C23.3451 8.98876 23.4239 9.40344 23.2167 9.70783L19.8139 14.7078C19.7022 14.872 19.5231 14.9778 19.3254 14.9965C19.1277 15.0151 18.932 14.9447 18.7915 14.8043L16.7071 12.7209C16.4467 12.4607 16.4466 12.0385 16.7069 11.7781C16.9671 11.5177 17.3892 11.5176 17.6497 11.7779L19.1646 13.2921L22.1144 8.95766C22.3216 8.65328 22.7363 8.57445 23.0407 8.78161Z" fill="#33363D"/>
<path fill-rule="evenodd" clip-rule="evenodd" d="M23.0407 17.1156C23.3451 17.3227 23.4239 17.7374 23.2167 18.0418L19.8139 23.0418C19.7022 23.206 19.5231 23.3118 19.3254 23.3305C19.1277 23.3491 18.932 23.2786 18.7915 23.1383L16.7071 21.0549C16.4467 20.7946 16.4466 20.3725 16.7069 20.1121C16.9671 19.8517 17.3892 19.8516 17.6497 20.1119L19.1646 21.6261L22.1144 17.2916C22.3216 16.9873 22.7363 16.9084 23.0407 17.1156Z" fill="#33363D"/>
</g>
<defs>
<clipPath id="clip0_14052_243235">
<rect width="20" height="20" fill="white" transform="translate(6 6)"/>
</clipPath>
</defs>
</svg>
