<svg width="24" height="24" viewBox="0 0 24 24" fill="none" xmlns="http://www.w3.org/2000/svg">
<g style="mix-blend-mode:multiply">
<path d="M5 4C5 2.89543 5.89543 2 7 2H17C18.1046 2 19 2.89543 19 4V20C19 21.1046 18.1046 22 17 22H7C5.89543 22 5 21.1046 5 20V4Z" fill="#FA967C"/>
<g style="mix-blend-mode:multiply">
<path d="M5 17H19V20C19 21.1046 18.1046 22 17 22H7C5.89543 22 5 21.1046 5 20V17Z" fill="#D63D4A"/>
</g>
<path d="M12 20.5C12.5523 20.5 13 20.0523 13 19.5C13 18.9477 12.5523 18.5 12 18.5C11.4477 18.5 11 18.9477 11 19.5C11 20.0523 11.4477 20.5 12 20.5Z" fill="#FA967C"/>
<path d="M2 10C2 8.89543 2.89543 8 4 8H20C21.1046 8 22 8.89543 22 10V12C22 13.1046 21.1046 14 20 14H4C2.89543 14 2 13.1046 2 12V10Z" fill="white"/>
<path d="M21.4004 10C21.4004 9.2268 20.7732 8.59961 20 8.59961H4C3.2268 8.59961 2.59961 9.2268 2.59961 10V12C2.59961 12.7732 3.2268 13.4004 4 13.4004H20C20.7732 13.4004 21.4004 12.7732 21.4004 12V10ZM22.5996 12C22.5996 13.4359 21.4359 14.5996 20 14.5996H4C2.56406 14.5996 1.40039 13.4359 1.40039 12V10C1.40039 8.56406 2.56406 7.40039 4 7.40039H20C21.4359 7.40039 22.5996 8.56406 22.5996 10V12Z" fill="#D63D4A"/>
<g style="mix-blend-mode:multiply">
<circle cx="4.5" cy="11" r="1" fill="#D63D4A"/>
</g>
<g style="mix-blend-mode:multiply">
<circle cx="13.5" cy="11" r="1" fill="#D63D4A"/>
</g>
<g style="mix-blend-mode:multiply">
<circle cx="7.5" cy="11" r="1" fill="#D63D4A"/>
</g>
<g style="mix-blend-mode:multiply">
<circle cx="16.5" cy="11" r="1" fill="#D63D4A"/>
</g>
<g style="mix-blend-mode:multiply">
<circle cx="10.5" cy="11" r="1" fill="#D63D4A"/>
</g>
<g style="mix-blend-mode:multiply">
<circle cx="19.5" cy="11" r="1" fill="#D63D4A"/>
</g>
</g>
</svg>
