<svg width="24" height="24" viewBox="0 0 24 24" fill="none" xmlns="http://www.w3.org/2000/svg">
<g style="mix-blend-mode:multiply">
<path d="M4.5 5.00556C4.5 3.89792 5.39543 3 6.5 3H16.5C17.6046 3 18.5 3.89792 18.5 5.00556V19.9944C18.5 21.1021 17.6046 22 16.5 22H6.5C5.39543 22 4.5 21.1021 4.5 19.9944V5.00556Z" fill="#FA967C"/>
<g style="mix-blend-mode:multiply">
<path d="M4.5 17.5996H18.5V20.2396C18.5 21.2116 17.6046 21.9996 16.5 21.9996H6.5C5.39543 21.9996 4.5 21.2116 4.5 20.2396V17.5996Z" fill="#D63D4A"/>
</g>
<path d="M11.5 20.7998C12.0523 20.7998 12.5 20.3521 12.5 19.7998C12.5 19.2475 12.0523 18.7998 11.5 18.7998C10.9477 18.7998 10.5 19.2475 10.5 19.7998C10.5 20.3521 10.9477 20.7998 11.5 20.7998Z" fill="#FA967C"/>
<path fill-rule="evenodd" clip-rule="evenodd" d="M6.5 6.3C6.5 5.85817 6.85817 5.5 7.3 5.5H14.3C14.7418 5.5 15.1 5.85817 15.1 6.3C15.1 6.74183 14.7418 7.1 14.3 7.1H7.3C6.85817 7.1 6.5 6.74183 6.5 6.3ZM6.5 9.6999C6.5 9.25807 6.85817 8.8999 7.3 8.8999H11.9516C12.3934 8.8999 12.7516 9.25807 12.7516 9.6999C12.7516 10.1417 12.3934 10.4999 11.9516 10.4999H7.3C6.85817 10.4999 6.5 10.1417 6.5 9.6999Z" fill="#D63D4A"/>
<path d="M11.0001 12.5C11.232 12.5 11.4081 12.6142 11.5148 12.7051C11.6258 12.7997 11.7189 12.9179 11.795 13.0273C11.9473 13.2463 12.0936 13.5267 12.2198 13.7705C12.3406 14.0038 12.4464 14.2055 12.5421 14.3613C12.552 14.3471 12.5638 14.3322 12.5753 14.3154C12.6388 14.2235 12.7397 14.0755 12.8702 13.9561C13.0131 13.8253 13.2222 13.7002 13.5001 13.7002L13.6017 13.7061C13.8298 13.732 14.0052 13.8422 14.13 13.957C14.2601 14.0768 14.3602 14.226 14.423 14.3174C14.4813 14.4024 14.5186 14.4517 14.547 14.4854C14.5809 14.4745 14.6337 14.4561 14.7072 14.4219C14.8422 14.359 14.9968 14.2705 15.1486 14.1758C15.2987 14.0821 15.4376 13.9875 15.5392 13.916C15.5895 13.8806 15.6304 13.8514 15.6583 13.8311C15.6723 13.8209 15.6836 13.8128 15.6905 13.8076C15.6938 13.8052 15.6958 13.8029 15.6974 13.8018L15.6993 13.8008L15.7863 13.748C15.9963 13.6484 16.2543 13.7064 16.3995 13.8994C16.5448 14.0926 16.5293 14.3571 16.3751 14.5312L16.3009 14.5996H16.2999L16.2989 14.6006C16.2982 14.6011 16.2972 14.6017 16.296 14.6025C16.2936 14.6043 16.2905 14.6072 16.2863 14.6104C16.2774 14.6169 16.2642 14.626 16.2482 14.6377C16.2162 14.6611 16.1704 14.694 16.1144 14.7334C16.0029 14.8119 15.8482 14.9181 15.6779 15.0244C15.5093 15.1296 15.3159 15.2411 15.129 15.3281C14.9617 15.406 14.7273 15.5 14.5001 15.5C14.2181 15.5 14.012 15.3644 13.878 15.2354C13.756 15.1177 13.6582 14.9694 13.5988 14.8828C13.5559 14.8204 13.524 14.7775 13.4991 14.7461C13.4739 14.7777 13.4419 14.821 13.3986 14.8838C13.339 14.97 13.2411 15.1174 13.1202 15.2344C12.988 15.3622 12.7825 15.5 12.5001 15.5C12.2537 15.5 12.0779 15.3621 11.9884 15.2773C11.8887 15.1829 11.8046 15.0664 11.7355 14.96C11.5969 14.7466 11.456 14.4688 11.3322 14.2295C11.1996 13.9735 11.0822 13.7536 10.9738 13.5977L10.9728 13.5967C10.9599 13.6104 10.9461 13.6252 10.9318 13.6416C10.7939 13.7992 10.6385 14.023 10.4874 14.2646C10.3384 14.503 10.2023 14.7437 10.1036 14.9258C10.0545 15.0164 10.0155 15.0922 9.9884 15.1445C9.97493 15.1705 9.96406 15.1905 9.95715 15.2041C9.95369 15.2109 9.951 15.2164 9.94934 15.2197C9.94864 15.2211 9.94774 15.222 9.94739 15.2227V15.2236C9.82382 15.4705 9.52339 15.5707 9.27649 15.4473C9.02961 15.3237 8.9294 15.0233 9.05285 14.7764L9.05383 14.7754V14.7744L9.06555 14.751C9.07353 14.7353 9.08494 14.7121 9.09973 14.6836C9.12928 14.6266 9.17227 14.546 9.22473 14.4492C9.32928 14.2564 9.47528 13.9969 9.63879 13.7354C9.80018 13.4772 9.98881 13.2006 10.1788 12.9834C10.2733 12.8754 10.3811 12.7669 10.4982 12.6816C10.6048 12.604 10.7806 12.5 11.0001 12.5Z" fill="white"/>
<g style="mix-blend-mode:multiply">
<path d="M21.3681 6.29884C21.544 6.12281 21.544 5.83475 21.3681 5.66672L20.3286 4.62653C20.245 4.54538 20.1332 4.5 20.0167 4.5C19.9003 4.5 19.7885 4.54538 19.7049 4.62653L18.8893 5.44268L20.5525 7.10699M13.6463 10.6893C13.5526 10.783 13.5 10.9101 13.5 11.0427V12.2C13.5 12.3657 13.6343 12.5 13.8 12.5H14.956C15.0886 12.5 15.2159 12.4473 15.3096 12.3534L20.0807 7.57908L18.4175 5.91477L13.6463 10.6893Z" fill="#D63D4A"/>
</g>
</g>
</svg>
