<svg width="24" height="24" viewBox="0 0 24 24" fill="none" xmlns="http://www.w3.org/2000/svg">
<g style="mix-blend-mode:multiply">
<path fill-rule="evenodd" clip-rule="evenodd" d="M19.1582 5.64155C19.1582 6.08338 18.8 6.44155 18.3582 6.44155L5.64173 6.44155C5.1999 6.44155 4.84173 6.08338 4.84173 5.64155C4.84173 5.19972 5.1999 4.84155 5.64173 4.84155L18.3582 4.84155C18.8 4.84155 19.1582 5.19972 19.1582 5.64155Z" fill="#FA967C"/>
<path fill-rule="evenodd" clip-rule="evenodd" d="M18.9244 5.07697C19.2362 5.39 19.2352 5.89654 18.9222 6.20834L6.21419 18.8667C5.90116 19.1785 5.39463 19.1776 5.08282 18.8645C4.77101 18.5515 4.772 18.045 5.08503 17.7332L17.793 5.07476C18.1061 4.76295 18.6126 4.76394 18.9244 5.07697Z" fill="#D63D4A"/>
<path fill-rule="evenodd" clip-rule="evenodd" d="M19.1582 18.3579C19.1582 18.7997 18.8 19.1579 18.3582 19.1579L5.64173 19.1579C5.1999 19.1579 4.84173 18.7997 4.84173 18.3579C4.84173 17.916 5.1999 17.5579 5.64173 17.5579L18.3582 17.5579C18.8 17.5579 19.1582 17.916 19.1582 18.3579Z" fill="#FA967C"/>
<g style="mix-blend-mode:multiply">
<path d="M18.3583 9.28307C20.3695 9.28307 21.9999 7.6527 21.9999 5.64154C21.9999 3.63037 20.3695 2 18.3583 2C16.3472 2 14.7168 3.63037 14.7168 5.64154C14.7168 7.6527 16.3472 9.28307 18.3583 9.28307Z" fill="#D63D4A"/>
</g>
<path d="M5.64154 9.28307C7.6527 9.28307 9.28307 7.6527 9.28307 5.64154C9.28307 3.63037 7.6527 2 5.64154 2C3.63037 2 2 3.63037 2 5.64154C2 7.6527 3.63037 9.28307 5.64154 9.28307Z" fill="#FA967C"/>
<path d="M18.3583 21.9994C20.3695 21.9994 21.9999 20.369 21.9999 18.3578C21.9999 16.3467 20.3695 14.7163 18.3583 14.7163C16.3472 14.7163 14.7168 16.3467 14.7168 18.3578C14.7168 20.369 16.3472 21.9994 18.3583 21.9994Z" fill="#FA967C"/>
<g style="mix-blend-mode:multiply">
<path d="M5.87005 21.7772C7.88122 21.7772 9.51159 20.1468 9.51159 18.1357C9.51159 16.1245 7.88122 14.4941 5.87005 14.4941C3.85889 14.4941 2.22852 16.1245 2.22852 18.1357C2.22852 20.1468 3.85889 21.7772 5.87005 21.7772Z" fill="#D63D4A"/>
</g>
</g>
</svg>
