<svg width="25" height="26" viewBox="0 0 25 26" fill="none" xmlns="http://www.w3.org/2000/svg">
<g id="icon/line/btn-shortcut">
<path id="Vector" fill-rule="evenodd" clip-rule="evenodd" d="M19.4989 13.1224C19.4951 13.3399 19.4028 13.5466 19.2433 13.6947L13.9569 18.6031C13.6331 18.9038 13.1269 18.885 12.8263 18.5612C12.5256 18.2374 12.5444 17.7313 12.8682 17.4306L16.6991 13.8736L6.2877 13.6919C5.84594 13.6842 5.49408 13.3198 5.50179 12.878C5.5095 12.4363 5.87387 12.0844 6.31563 12.0921L16.727 12.2739L13.0226 8.58531C12.7095 8.27356 12.7084 7.76703 13.0201 7.45394C13.3319 7.14085 13.8384 7.13976 14.1515 7.45151L19.2635 12.5415C19.4177 12.695 19.5027 12.9048 19.4989 13.1224Z" fill="#33363D"/>
</g>
</svg>
