<svg width="32" height="32" viewBox="0 0 32 32" fill="none" xmlns="http://www.w3.org/2000/svg">
<path fill-rule="evenodd" clip-rule="evenodd" d="M10.9333 17.2339C9.2536 17.2339 7.6427 17.9011 6.45497 19.0889C5.26724 20.2766 4.59998 21.8875 4.59998 23.5672C4.59998 24.575 5.00033 25.5416 5.71297 26.2542C6.42561 26.9669 7.39215 27.3672 8.39998 27.3672H23.6C24.6078 27.3672 25.5743 26.9669 26.287 26.2542C26.9996 25.5416 27.4 24.575 27.4 23.5672C27.4 21.8875 26.7327 20.2766 25.545 19.0889C24.3573 17.9011 22.7463 17.2339 21.0666 17.2339H10.9333Z" fill="#FA967C"/>
<path d="M11.7574 5.72416C10.6321 6.84937 10 8.3755 10 9.9668C10 11.5581 10.6321 13.0842 11.7574 14.2094C12.8826 15.3347 14.4087 15.9668 16 15.9668C17.5913 15.9668 19.1174 15.3347 20.2426 14.2094C21.3679 13.0842 22 11.5581 22 9.9668C22 8.3755 21.3679 6.84937 20.2426 5.72416C19.1174 4.59894 17.5913 3.9668 16 3.9668C14.4087 3.9668 12.8826 4.59894 11.7574 5.72416Z" fill="#FA967C"/>
<path d="M11.7574 5.72416C10.6321 6.84937 10 8.3755 10 9.9668C10 11.5581 10.6321 13.0842 11.7574 14.2094C12.8826 15.3347 14.4087 15.9668 16 15.9668C17.5913 15.9668 19.1174 15.3347 20.2426 14.2094C21.3679 13.0842 22 11.5581 22 9.9668C22 8.3755 21.3679 6.84937 20.2426 5.72416C19.1174 4.59894 17.5913 3.9668 16 3.9668C14.4087 3.9668 12.8826 4.59894 11.7574 5.72416Z" fill="#D63D4A"/>
<g style="mix-blend-mode:multiply">
<path d="M26.4435 16C25.9432 16.0071 25.4539 16.1342 25.0248 16.3685C24.5958 16.6028 24.2423 17.1296 24 17.5281C23.7577 17.1296 23.4042 16.6028 22.9752 16.3685C22.5462 16.1342 22.0568 16.0071 21.5566 16C20.7591 16.0315 20.0077 16.3491 19.4666 16.8833C18.9256 17.4175 18.6387 18.1249 18.6688 18.8509C18.6688 21.5907 23.5362 25.0337 23.7432 25.1679L24 25.3333L24.2568 25.1679C24.4638 25.0345 29.3312 21.5907 29.3312 18.8509C29.3613 18.1249 29.0745 17.4175 28.5334 16.8833C27.9923 16.3491 27.241 16.0315 26.4435 16Z" fill="#D63D4A"/>
</g>
</svg>
