<svg width="33" height="32" viewBox="0 0 33 32" fill="none" xmlns="http://www.w3.org/2000/svg">
<path fill-rule="evenodd" clip-rule="evenodd" d="M11.4332 17.2336C9.75348 17.2336 8.14257 17.9009 6.95484 19.0886C5.76711 20.2764 5.09985 21.8873 5.09985 23.567C5.09985 24.5748 5.50021 25.5413 6.21285 26.254C6.92549 26.9666 7.89203 27.367 8.89985 27.367H24.0999C25.1077 27.367 26.0742 26.9666 26.7869 26.254C27.4995 25.5413 27.8999 24.5748 27.8999 23.567C27.8999 21.8873 27.2326 20.2764 26.0449 19.0886C24.8571 17.9009 23.2462 17.2336 21.5665 17.2336H11.4332Z" fill="#FA967C"/>
<path d="M12.2574 5.72391C11.1321 6.84913 10.5 8.37525 10.5 9.96655C10.5 11.5579 11.1321 13.084 12.2574 14.2092C13.3826 15.3344 14.9087 15.9666 16.5 15.9666C18.0913 15.9666 19.6174 15.3344 20.7426 14.2092C21.8679 13.084 22.5 11.5579 22.5 9.96655C22.5 8.37525 21.8679 6.84913 20.7426 5.72391C19.6174 4.59869 18.0913 3.96655 16.5 3.96655C14.9087 3.96655 13.3826 4.59869 12.2574 5.72391Z" fill="#FA967C"/>
<path d="M12.2574 5.72391C11.1321 6.84913 10.5 8.37525 10.5 9.96655C10.5 11.5579 11.1321 13.084 12.2574 14.2092C13.3826 15.3344 14.9087 15.9666 16.5 15.9666C18.0913 15.9666 19.6174 15.3344 20.7426 14.2092C21.8679 13.084 22.5 11.5579 22.5 9.96655C22.5 8.37525 21.8679 6.84913 20.7426 5.72391C19.6174 4.59869 18.0913 3.96655 16.5 3.96655C14.9087 3.96655 13.3826 4.59869 12.2574 5.72391Z" fill="#D63D4A"/>
<g style="mix-blend-mode:multiply">
<circle cx="24.4998" cy="20.0001" r="5.33333" fill="#D63D4A"/>
</g>
<path fill-rule="evenodd" clip-rule="evenodd" d="M22.0735 19.9999C22.0735 19.6907 22.3242 19.4399 22.6335 19.4399H26.3668C26.6761 19.4399 26.9268 19.6907 26.9268 19.9999C26.9268 20.3092 26.6761 20.5599 26.3668 20.5599H22.6335C22.3242 20.5599 22.0735 20.3092 22.0735 19.9999Z" fill="white"/>
<path fill-rule="evenodd" clip-rule="evenodd" d="M24.5001 17.5732C24.8093 17.5732 25.0601 17.824 25.0601 18.1332L25.0601 21.8666C25.0601 22.1759 24.8093 22.4266 24.5001 22.4266C24.1908 22.4266 23.9401 22.1759 23.9401 21.8666L23.9401 18.1332C23.9401 17.824 24.1908 17.5732 24.5001 17.5732Z" fill="white"/>
</svg>
