<svg width="40" height="40" viewBox="0 0 40 40" fill="none" xmlns="http://www.w3.org/2000/svg">
<path fill-rule="evenodd" clip-rule="evenodd" d="M13.9682 21.2075C11.8027 21.2075 9.72591 22.0678 8.19469 23.599C6.66346 25.1302 5.80322 27.207 5.80322 29.3725C5.80322 30.6718 6.31936 31.9179 7.2381 32.8366C8.15684 33.7553 9.40291 34.2715 10.7022 34.2715H30.2981C31.5974 34.2715 32.8435 33.7553 33.7622 32.8366C34.681 31.9179 35.1971 30.6718 35.1971 29.3725C35.1971 27.207 34.3369 25.1302 32.8056 23.599C31.2744 22.0678 29.1976 21.2075 27.0321 21.2075H13.9682Z" fill="#FA967C"/>
<path d="M15.0302 6.3696C13.5796 7.82024 12.7646 9.78772 12.7646 11.8392C12.7646 13.8907 13.5796 15.8582 15.0302 17.3089C16.4809 18.7595 18.4484 19.5745 20.4999 19.5745C22.5514 19.5745 24.5189 18.7595 25.9695 17.3089C27.4202 15.8582 28.2351 13.8907 28.2351 11.8392C28.2351 9.78772 27.4202 7.82024 25.9695 6.3696C24.5189 4.91896 22.5514 4.104 20.4999 4.104C18.4484 4.104 16.4809 4.91896 15.0302 6.3696Z" fill="#FA967C"/>
<path d="M15.0302 6.3696C13.5796 7.82024 12.7646 9.78772 12.7646 11.8392C12.7646 13.8907 13.5796 15.8582 15.0302 17.3089C16.4809 18.7595 18.4484 19.5745 20.4999 19.5745C22.5514 19.5745 24.5189 18.7595 25.9695 17.3089C27.4202 15.8582 28.2351 13.8907 28.2351 11.8392C28.2351 9.78772 27.4202 7.82024 25.9695 6.3696C24.5189 4.91896 22.5514 4.104 20.4999 4.104C18.4484 4.104 16.4809 4.91896 15.0302 6.3696Z" fill="#D63D4A"/>
<g style="mix-blend-mode:multiply">
<path d="M32.8864 19.5959C32.2737 19.6046 31.6744 19.7603 31.1489 20.0473C30.6235 20.3342 30.1905 20.9795 29.8938 21.4675C29.5971 20.9795 29.1641 20.3342 28.6387 20.0473C28.1132 19.7603 27.5139 19.6046 26.9012 19.5959C25.9245 19.6346 25.0042 20.0235 24.3416 20.6777C23.6789 21.332 23.3276 22.1984 23.3645 23.0876C23.3645 26.4431 29.3257 30.6599 29.5793 30.8243L29.8938 31.0269L30.2083 30.8243C30.4618 30.6609 36.4231 26.4431 36.4231 23.0876C36.46 22.1984 36.1087 21.332 35.446 20.6777C34.7833 20.0235 33.8631 19.6346 32.8864 19.5959Z" fill="#D63D4A"/>
</g>
</svg>
