<svg width="40" height="40" viewBox="0 0 40 40" fill="none" xmlns="http://www.w3.org/2000/svg">
<path d="M8.90639 15.9201C8.90639 13.048 10.0326 10.2935 12.0372 8.26266C14.0418 6.23176 16.7607 5.09082 19.5957 5.09082C22.4307 5.09082 25.1495 6.23176 27.1542 8.26266C29.1588 10.2935 30.285 13.048 30.285 15.9201V20.5009L32.5749 26.3031C32.6468 26.4856 32.6736 26.6831 32.6528 26.8785C32.632 27.0739 32.5642 27.2612 32.4555 27.4239C32.3468 27.5867 32.2003 27.72 32.029 27.8122C31.8577 27.9043 31.6667 27.9526 31.4727 27.9527H7.71869C7.5247 27.9526 7.33369 27.9043 7.16237 27.8122C6.99104 27.72 6.84461 27.5867 6.73587 27.4239C6.62713 27.2612 6.5594 27.0739 6.53859 26.8785C6.51778 26.6831 6.54453 26.4856 6.6165 26.3031L8.90639 20.5009V15.9201Z" fill="#FA967C"/>
<g style="mix-blend-mode:multiply">
<circle cx="20" cy="28.7693" r="4.08248" fill="#33363D"/>
<circle cx="20" cy="28.7693" r="4.08248" fill="#D63D4A"/>
</g>
<circle cx="27.7611" cy="9.98986" r="3.26599" fill="#D63D4A"/>
</svg>
