<svg width="40" height="40" viewBox="0 0 40 40" fill="none" xmlns="http://www.w3.org/2000/svg">
<path fill-rule="evenodd" clip-rule="evenodd" d="M13.9682 21.3994C11.8027 21.3994 9.72591 22.2597 8.19469 23.7909C6.66346 25.3221 5.80322 27.3989 5.80322 29.5644C5.80322 30.8637 6.31936 32.1097 7.2381 33.0285C8.15684 33.9472 9.40291 34.4634 10.7022 34.4634H30.2981C31.5974 34.4634 32.8435 33.9472 33.7622 33.0285C34.681 32.1097 35.1971 30.8637 35.1971 29.5644C35.1971 27.3989 34.3369 25.3221 32.8056 23.7909C31.2744 22.2597 29.1976 21.3994 27.0321 21.3994H13.9682Z" fill="#FA967C"/>
<path d="M15.0302 6.56149C13.5796 8.01213 12.7646 9.97962 12.7646 12.0311C12.7646 14.0826 13.5796 16.0501 15.0302 17.5008C16.4809 18.9514 18.4484 19.7664 20.4999 19.7664C22.5514 19.7664 24.5189 18.9514 25.9695 17.5008C27.4202 16.0501 28.2351 14.0826 28.2351 12.0311C28.2351 9.97962 27.4202 8.01213 25.9695 6.56149C24.5189 5.11086 22.5514 4.2959 20.4999 4.2959C18.4484 4.2959 16.4809 5.11086 15.0302 6.56149Z" fill="#FA967C"/>
<path d="M15.0302 6.56149C13.5796 8.01213 12.7646 9.97962 12.7646 12.0311C12.7646 14.0826 13.5796 16.0501 15.0302 17.5008C16.4809 18.9514 18.4484 19.7664 20.4999 19.7664C22.5514 19.7664 24.5189 18.9514 25.9695 17.5008C27.4202 16.0501 28.2351 14.0826 28.2351 12.0311C28.2351 9.97962 27.4202 8.01213 25.9695 6.56149C24.5189 5.11086 22.5514 4.2959 20.4999 4.2959C18.4484 4.2959 16.4809 5.11086 15.0302 6.56149Z" fill="#D63D4A"/>
<g style="mix-blend-mode:multiply">
<circle cx="29.8938" cy="24.6868" r="6.53197" fill="#D9D9D9"/>
<circle cx="29.8938" cy="24.6868" r="6.53197" fill="#D63D4A"/>
</g>
<path fill-rule="evenodd" clip-rule="evenodd" d="M25.6479 24.6868C25.6479 24.1457 26.0866 23.707 26.6277 23.707H33.1597C33.7008 23.707 34.1395 24.1457 34.1395 24.6868C34.1395 25.228 33.7008 25.6666 33.1597 25.6666H26.6277C26.0866 25.6666 25.6479 25.228 25.6479 24.6868Z" fill="white"/>
<path fill-rule="evenodd" clip-rule="evenodd" d="M29.8937 20.4409C30.4349 20.4409 30.8735 20.8796 30.8735 21.4207L30.8735 27.9527C30.8735 28.4938 30.4349 28.9325 29.8937 28.9325C29.3526 28.9325 28.9139 28.4938 28.9139 27.9527L28.9139 21.4207C28.9139 20.8796 29.3526 20.4409 29.8937 20.4409Z" fill="white"/>
</svg>
