<svg width="40" height="40" viewBox="0 0 40 40" fill="none" xmlns="http://www.w3.org/2000/svg">
<path d="M17.319 16.7391L12.3933 6.88767C11.9597 6.02041 12.5903 5 13.5599 5L24.9911 5C25.9608 5 26.5914 6.0204 26.1578 6.88766L21.232 16.7391H17.319Z" fill="#FA967C"/>
<path d="M33.6233 23.9131C33.6233 30.1742 28.4059 35 23.1886 35H15.3625C10.1451 35 4.92773 30.1742 4.92773 23.9131C4.92773 15.8143 11.3515 10.8696 19.2755 10.8696C27.1996 10.8696 33.6233 15.8143 33.6233 23.9131Z" fill="#FA967C"/>
<path d="M19.3683 19.0511C19.6324 19.0511 19.9041 19.1251 20.1314 19.295C20.3239 19.4388 20.4877 19.6518 20.5819 19.957L21.8864 24.6382L23.1555 19.816C23.232 19.5136 23.4025 19.3089 23.6168 19.1864C23.8403 19.0588 24.12 19.0207 24.4115 19.0821C24.7152 19.1433 24.9314 19.2997 25.0597 19.5075C25.1872 19.7139 25.2324 19.9808 25.1566 20.2864L24.4898 22.6559L25.8678 22.656C26.143 22.656 26.3921 22.7668 26.5725 22.9458C26.7528 23.1249 26.8643 23.3723 26.8643 23.6455C26.8643 23.9188 26.7528 24.1662 26.5725 24.3452C26.3921 24.5243 26.143 24.6351 25.8678 24.6351L23.9325 24.6349L23.1226 27.5112C23.0368 27.8225 22.8806 28.0421 22.6947 28.1929C22.4716 28.3738 22.2011 28.457 21.9355 28.4647C21.644 28.4651 21.3664 28.3907 21.1373 28.2197C20.94 28.0724 20.7744 27.8527 20.68 27.5327L19.3501 22.6045L17.9713 27.5111C17.8835 27.8301 17.7189 28.0534 17.5232 28.2047C17.2881 28.3867 17.0032 28.4652 16.7313 28.4652C16.4598 28.4652 16.1854 28.3909 15.9571 28.2196C15.7632 28.074 15.5989 27.8579 15.5048 27.5459L14.6948 24.6349L12.683 24.6351C12.4079 24.6351 12.1587 24.5243 11.9784 24.3452C11.7981 24.1662 11.6865 23.9188 11.6865 23.6455C11.6865 23.3723 11.7981 23.1249 11.9784 22.9458C12.1587 22.7668 12.4079 22.656 12.683 22.656L14.1444 22.6559L13.5169 20.3995C13.4269 20.0817 13.465 19.8097 13.5839 19.5942C13.7094 19.367 13.9308 19.1938 14.2347 19.1081C14.5518 19.031 14.8462 19.0327 15.0823 19.1364C15.3082 19.2355 15.4966 19.4214 15.5943 19.7508L16.832 24.6335L18.1281 20.0062C18.2165 19.6844 18.3801 19.4603 18.5758 19.3089C18.8075 19.1296 19.0894 19.0511 19.3683 19.0511Z" fill="#D63D4A"/>
<path d="M12.1016 10.5142C12.1016 9.99026 12.5263 9.56555 13.0502 9.56555H25.5007C26.0246 9.56555 26.4494 9.99026 26.4494 10.5142V11.2256C26.4494 11.7495 26.0246 12.1742 25.5007 12.1742H13.0502C12.5263 12.1742 12.1016 11.7495 12.1016 11.2256V10.5142Z" fill="#FA967C"/>
<path d="M12.1016 10.5142C12.1016 9.99026 12.5263 9.56555 13.0502 9.56555H25.5007C26.0246 9.56555 26.4494 9.99026 26.4494 10.5142V11.2256C26.4494 11.7495 26.0246 12.1742 25.5007 12.1742H13.0502C12.5263 12.1742 12.1016 11.7495 12.1016 11.2256V10.5142Z" fill="#D63D4A"/>
</svg>
