<svg width="40" height="40" viewBox="0 0 40 40" fill="none" xmlns="http://www.w3.org/2000/svg">
<g style="mix-blend-mode:multiply">
<path fill-rule="evenodd" clip-rule="evenodd" d="M12.7747 5.83331C12.2309 5.8335 11.6968 5.98897 11.2265 6.28397C10.7563 6.57896 10.3665 7.00301 10.0968 7.51313L4.57424 17.9537C4.30741 18.4575 4.16703 19.028 4.16699 19.6085V27.1043C4.16702 27.6215 4.27846 28.1316 4.49248 28.5942L6.21712 32.3204C6.47328 32.8742 6.86716 33.34 7.3546 33.6656C7.84204 33.9911 8.40378 34.1635 8.97685 34.1636H10.3374C11.1557 34.1636 11.9404 33.8124 12.519 33.1874C13.0976 32.5623 13.4226 31.7146 13.4226 30.8306H25.7635C25.7635 31.7146 26.0886 32.5623 26.6672 33.1874C27.2457 33.8124 28.0305 34.1636 28.8487 34.1636H30.2093C30.7824 34.1635 31.3441 33.9911 31.8316 33.6656C32.319 33.34 32.7129 32.8742 32.969 32.3204L34.6937 28.5942C34.9081 28.1326 35.0192 27.6209 35.0192 27.1043V19.6085C35.0191 19.028 34.8788 18.4575 34.6119 17.9537L29.0894 7.51313C28.8196 7.00301 28.4299 6.57896 27.9596 6.28397C27.4893 5.98897 26.9552 5.8335 26.4114 5.83331H12.7747Z" fill="#FA967C"/>
<g style="mix-blend-mode:multiply">
<path d="M7.34648 33.6686C6.85904 33.343 6.46516 32.8773 6.209 32.3235L5.34668 30.4603H33.8232L32.9609 32.3235C32.7048 32.8773 32.3109 33.343 31.8234 33.6686C31.336 33.9941 30.7743 34.1666 30.2012 34.1666H28.8406C28.0224 34.1666 27.2376 33.8154 26.659 33.1904C26.0804 32.5653 25.7554 31.7176 25.7554 30.8336H13.4145C13.4145 31.7176 13.0895 32.5653 12.5109 33.1904C11.9323 33.8154 11.1476 34.1666 10.3293 34.1666H8.96873C8.39566 34.1666 7.83392 33.9941 7.34648 33.6686Z" fill="#D63D4A"/>
</g>
<g style="mix-blend-mode:multiply">
<path d="M9.30249 15.7595L11.8215 10.0919C12.0489 9.58019 12.5563 9.25043 13.1162 9.25043H26.3884C26.9483 9.25043 27.4558 9.58019 27.6832 10.0919L30.2021 15.7595C30.6186 16.6965 29.9327 17.7519 28.9073 17.7519H10.5973C9.57192 17.7519 8.88605 16.6965 9.30249 15.7595Z" fill="#D63D4A"/>
</g>
<circle cx="11.9594" cy="24.252" r="2.12537" fill="white"/>
<circle cx="27.5463" cy="24.252" r="2.12537" fill="white"/>
<path d="M23.3838 29.0495C23.3838 32.4756 27.909 35 29.606 35C31.303 35 35.8282 32.4756 35.8282 29.0495C35.8282 27.246 35.8282 25.6139 35.8282 24.4724C35.8282 23.4853 35.1906 22.6122 34.2516 22.3129L30.6351 21.1601C29.9656 20.9466 29.2465 20.9466 28.577 21.1601L24.9604 22.3129C24.0214 22.6122 23.3838 23.4853 23.3838 24.4724C23.3838 25.6139 23.3838 27.246 23.3838 29.0495Z" fill="#D63D4A"/>
<path d="M26.2725 26.9869L28.9347 29.8098L32.9391 26.0002" stroke="white" stroke-width="1.52381" stroke-linecap="round" stroke-linejoin="round"/>
</g>
</svg>
