<svg width="40" height="40" viewBox="0 0 40 40" fill="none" xmlns="http://www.w3.org/2000/svg">
<g style="mix-blend-mode:multiply">
<path d="M4.05274 32.714C3.82144 32.9279 3.96765 33.3335 4.28267 33.3335H23.333C27.0149 33.3335 29.9997 30.3487 29.9997 26.6668V20.0002C29.9997 18.1592 28.5073 16.6668 26.6663 16.6668H11.6663C9.82539 16.6668 8.33301 18.1592 8.33301 20.0002V22.9252C8.33301 26.6559 6.77098 30.2005 4.05274 32.714Z" fill="#D63D4A"/>
<path d="M17.249 20.0002H20.999V5.8335C20.999 4.45278 20.3797 3.3335 18.999 3.3335C17.6183 3.3335 17.249 4.45278 17.249 5.8335V20.0002Z" fill="#FA967C"/>
<path d="M23.334 33.3335C27.0159 33.3335 30.001 30.3484 30.001 26.6665V20.0005C30.001 18.1595 28.5079 16.6665 26.667 16.6665H11.667C9.82625 16.6667 8.33398 18.1597 8.33398 20.0005V22.9253C8.33391 26.6559 6.77178 30.1999 4.05371 32.7134C3.82241 32.9273 3.96915 33.3335 4.28418 33.3335H10.001L10.3105 33.312C11.0445 33.2087 11.8557 32.7437 12.542 31.9204C13.3143 30.9935 13.8339 29.7122 13.834 28.3335C13.8343 27.6894 14.3568 27.1685 15.001 27.1685C15.645 27.1686 16.1677 27.6895 16.168 28.3335C16.1679 30.2487 15.4651 32.0183 14.3994 33.3335H17.501L17.8105 33.312C18.5445 33.2087 19.3557 32.7437 20.042 31.9204C20.8143 30.9936 21.3339 29.7122 21.334 28.3335C21.3343 27.6894 21.8568 27.1685 22.501 27.1685C23.145 27.1686 23.6677 27.6895 23.668 28.3335C23.6679 30.2487 22.9651 32.0184 21.8994 33.3335H23.334Z" fill="#FA967C"/>
<g style="mix-blend-mode:multiply">
<path d="M8.33301 21.6665H29.9997V19.9998C29.9997 18.1589 28.5073 16.6665 26.6663 16.6665H11.6663C9.82539 16.6665 8.33301 18.1589 8.33301 19.9998V21.6665Z" fill="#D63D4A"/>
</g>
<g style="mix-blend-mode:multiply">
<circle cx="29.9997" cy="26.6667" r="6.66667" fill="#D63D4A"/>
</g>
<path d="M30.1807 25.0264C30.8322 25.0264 31.3604 24.4982 31.3604 23.8467C31.3604 23.1952 30.8322 22.667 30.1807 22.667C29.5292 22.667 29.001 23.1952 29.001 23.8467C29.001 24.4982 29.5292 25.0264 30.1807 25.0264Z" fill="white"/>
<path d="M29.4933 25.9998C29.3847 25.9998 29.2967 26.0879 29.2967 26.1964V27.1795V29.5005V30.4836C29.2967 30.5922 29.3847 30.6802 29.4933 30.6802H30.8696C30.9782 30.6802 31.0662 30.5922 31.0662 30.4836V29.5005V26.1964C31.0662 26.0879 30.9782 25.9998 30.8696 25.9998H29.4933Z" fill="white"/>
</g>
</svg>
