<svg width="40" height="40" viewBox="0 0 40 40" fill="none" xmlns="http://www.w3.org/2000/svg">
<path d="M21.1047 3.54669L32.1232 7.94972C32.7234 8.18947 33.2406 8.61873 33.6057 9.18014C33.9708 9.74155 34.1664 10.4083 34.1663 11.0914V20.087C34.1664 22.8905 33.4338 25.6387 32.0507 28.0236C30.6675 30.4085 28.6885 32.3358 26.3353 33.5896L21.0559 36.4008C20.728 36.5756 20.3663 36.6666 19.9997 36.6666C19.633 36.6666 19.2714 36.5756 18.9435 36.4008L13.664 33.5879C11.3108 32.3341 9.33181 30.4068 7.94867 28.0219C6.56554 25.637 5.83295 22.8889 5.83301 20.0853V11.0931C5.83261 10.4097 6.02804 9.74257 6.39317 9.18083C6.7583 8.61909 7.2757 8.18957 7.87616 7.94972L18.8947 3.54669C19.6071 3.26211 20.3922 3.26211 21.1047 3.54669Z" fill="#FA967C"/>
<path d="M8.54844 9.5596L15.2388 6.77452C15.5044 6.66396 15.7439 7.09365 15.5189 7.27294C12.0571 10.0313 9.56489 13.4936 8.04245 18.8668C7.96468 19.1413 7.50424 19.0864 7.50488 18.8012L7.52229 11.0945C7.52381 10.4228 7.92835 9.81773 8.54844 9.5596Z" fill="white"/>
<g style="mix-blend-mode:multiply">
<path fill-rule="evenodd" clip-rule="evenodd" d="M17.0367 20.8927C16.0544 20.8927 15.1124 21.2729 14.4178 21.9496C13.7232 22.6264 13.333 23.5443 13.333 24.5014C13.333 25.0756 13.5671 25.6264 13.9839 26.0324C14.4006 26.4385 14.9659 26.6666 15.5552 26.6666H24.4441C25.0335 26.6666 25.5987 26.4385 26.0155 26.0324C26.4322 25.6264 26.6663 25.0756 26.6663 24.5014C26.6663 23.5443 26.2761 22.6264 25.5816 21.9496C24.887 21.2729 23.9449 20.8927 22.9626 20.8927H17.0367Z" fill="#D63D4A"/>
<path d="M17.5186 14.3346C16.8606 14.9757 16.4909 15.8453 16.4909 16.752C16.4909 17.6587 16.8606 18.5283 17.5186 19.1695C18.1767 19.8106 19.0691 20.1708 19.9997 20.1708C20.9303 20.1708 21.8228 19.8106 22.4808 19.1695C23.1388 18.5283 23.5085 17.6587 23.5085 16.752C23.5085 15.8453 23.1388 14.9757 22.4808 14.3346C21.8228 13.6934 20.9303 13.3333 19.9997 13.3333C19.0691 13.3333 18.1767 13.6934 17.5186 14.3346Z" fill="#D63D4A"/>
</g>
</svg>
