<svg width="40" height="40" viewBox="0 0 40 40" fill="none" xmlns="http://www.w3.org/2000/svg">
<path d="M19.9994 22.0101L13.2481 26.6667L5.08888 14.0397C4.11087 12.5263 4.51208 10.5087 5.99546 9.48568L10.084 6.66667L19.9994 22.0101Z" fill="#FA967C"/>
<path d="M34.0033 9.48568C35.4866 10.5087 35.8893 12.5263 34.9115 14.0397L26.7507 26.6667L19.9994 22.0101L29.9147 6.66667L34.0033 9.48568Z" fill="#FA967C"/>
<path d="M19.9994 5C24.6368 5 27.6601 5.81113 29.0716 6.30208L25.3477 12.0654C23.902 11.8356 22.119 11.6667 19.9994 11.6667C17.8789 11.6667 16.0954 11.8355 14.6494 12.0654L10.9255 6.30208C12.3362 5.8112 15.3602 5.00004 19.9994 5Z" fill="#FA967C"/>
<path d="M30 25C30 30.5228 25.5228 35 20 35C14.4772 35 10 30.5228 10 25C10 19.4772 14.4772 15 20 15C25.5228 15 30 19.4772 30 25Z" fill="#D63D4A"/>
<path d="M21.5225 30C22.2801 30.2407 22.8291 30.9497 22.8291 31.7871C22.8291 32.8226 21.9896 33.6621 20.9541 33.6621C20.1167 33.6621 19.4077 33.1131 19.167 32.3555C19.4673 32.6479 19.8768 32.8291 20.3291 32.8291C21.2496 32.8291 21.9961 32.0826 21.9961 31.1621C21.9961 30.7098 21.8149 30.3003 21.5225 30ZM26.5225 25.5049C27.2801 25.7456 27.8291 26.4546 27.8291 27.292C27.8289 28.3274 26.9895 29.167 25.9541 29.167C25.1166 29.167 24.4076 28.6172 24.167 27.8594C24.4673 28.1519 24.8768 28.333 25.3291 28.333C26.2495 28.333 26.9959 27.5873 26.9961 26.667C26.9961 26.2148 26.8148 25.8052 26.5225 25.5049ZM21.5225 25C22.2801 25.2407 22.8291 25.9497 22.8291 26.7871C22.8291 27.8226 21.9896 28.6621 20.9541 28.6621C20.1167 28.6621 19.4077 28.1131 19.167 27.3555C19.4673 27.6479 19.8768 27.8291 20.3291 27.8291C21.2496 27.8291 21.9961 27.0826 21.9961 26.1621C21.9961 25.7098 21.8149 25.3003 21.5225 25Z" fill="#EA9EA4"/>
</svg>
