<svg width="40" height="40" viewBox="0 0 40 40" fill="none" xmlns="http://www.w3.org/2000/svg">
<path d="M30.4163 18.3332C30.4163 25.4668 24.6334 31.2498 17.4997 31.2498C10.366 31.2498 4.58301 25.4668 4.58301 18.3332C4.58301 11.1995 10.366 5.4165 17.4997 5.4165C24.6334 5.4165 30.4163 11.1995 30.4163 18.3332Z" fill="#D63D4A"/>
<path d="M35.4163 20.0002C35.4163 27.1338 29.6334 32.9168 22.4997 32.9168C15.366 32.9168 9.58301 27.1338 9.58301 20.0002C9.58301 12.8665 15.366 7.0835 22.4997 7.0835C29.6334 7.0835 35.4163 12.8665 35.4163 20.0002Z" fill="#FA967C"/>
<circle cx="15.9527" cy="20.1192" r="1.78571" fill="#D63D4A"/>
<circle cx="22.5006" cy="20.1192" r="1.78571" fill="#D63D4A"/>
<circle cx="29.0484" cy="20.1192" r="1.78571" fill="#D63D4A"/>
<path d="M29.576 26.154C30.208 25.6162 31.1853 25.9643 31.3351 26.7806L32.3459 32.2908C32.4957 33.1071 31.7056 33.7794 30.9238 33.5009L25.6464 31.6213C24.8646 31.3428 24.6774 30.3224 25.3095 29.7846L29.576 26.154Z" fill="#FA967C"/>
</svg>
