<svg width="40" height="40" viewBox="0 0 40 40" fill="none" xmlns="http://www.w3.org/2000/svg">
<path d="M8.33301 8.33333C8.33301 6.49238 9.82539 5 11.6663 5H28.333C30.174 5 31.6663 6.49238 31.6663 8.33333V31.6667C31.6663 33.5076 30.174 35 28.333 35H11.6663C9.8254 35 8.33301 33.5076 8.33301 31.6667V8.33333Z" fill="#FA967C"/>
<path fill-rule="evenodd" clip-rule="evenodd" d="M12 11.3333C12 10.597 12.597 10 13.3333 10H21.6667C22.403 10 23 10.597 23 11.3333C23 12.0697 22.403 12.6667 21.6667 12.6667H13.3333C12.597 12.6667 12 12.0697 12 11.3333ZM12 16.9998C12 16.2635 12.597 15.6665 13.3333 15.6665H25C25.7364 15.6665 26.3333 16.2635 26.3333 16.9998C26.3333 17.7362 25.7364 18.3332 25 18.3332H13.3333C12.597 18.3332 12 17.7362 12 16.9998Z" fill="#D63D4A"/>
<g style="mix-blend-mode:multiply">
<path fill-rule="evenodd" clip-rule="evenodd" d="M23.3905 26.7235C23.9112 26.2028 24.7554 26.2028 25.2761 26.7235L28.6095 30.0569C29.1302 30.5776 29.1302 31.4218 28.6095 31.9425C28.0888 32.4632 27.2446 32.4632 26.7239 31.9425L23.3905 28.6092C22.8698 28.0885 22.8698 27.2442 23.3905 26.7235Z" fill="#D63D4A"/>
</g>
<g style="mix-blend-mode:multiply">
<path d="M27.5 25.833C27.5 28.5944 25.2614 30.833 22.5 30.833C19.7386 30.833 17.5 28.5944 17.5 25.833C17.5 23.0716 19.7386 20.833 22.5 20.833C25.2614 20.833 27.5 23.0716 27.5 25.833Z" fill="#D63D4A"/>
</g>
</svg>
