<svg width="40" height="40" viewBox="0 0 40 40" fill="none" xmlns="http://www.w3.org/2000/svg">
<path d="M17.319 16.7391L12.3933 6.88767C11.9597 6.02041 12.5903 5 13.5599 5L24.9911 5C25.9608 5 26.5914 6.0204 26.1578 6.88766L21.232 16.7391H17.319Z" fill="#FA967C"/>
<path d="M33.6233 23.9136C33.6233 30.1747 28.4059 35.0005 23.1886 35.0005H15.3625C10.1451 35.0005 4.92773 30.1747 4.92773 23.9136C4.92773 15.8148 11.3515 10.8701 19.2755 10.8701C27.1996 10.8701 33.6233 15.8148 33.6233 23.9136Z" fill="#FA967C"/>
<path d="M19.3683 19.0513C19.6324 19.0513 19.9041 19.1252 20.1314 19.2951C20.3239 19.4389 20.4877 19.6519 20.5819 19.9572L21.8864 24.6384L23.1555 19.8161C23.232 19.5137 23.4025 19.309 23.6168 19.1865C23.8403 19.0589 24.12 19.0209 24.4115 19.0822C24.7152 19.1434 24.9314 19.2999 25.0597 19.5076C25.1872 19.7141 25.2324 19.9809 25.1566 20.2865L24.4898 22.656L25.8678 22.6561C26.143 22.6561 26.3921 22.7669 26.5725 22.946C26.7528 23.125 26.8643 23.3724 26.8643 23.6457C26.8643 23.9189 26.7528 24.1663 26.5725 24.3454C26.3921 24.5244 26.143 24.6352 25.8678 24.6352L23.9325 24.635L23.1226 27.5113C23.0368 27.8226 22.8806 28.0422 22.6947 28.193C22.4716 28.374 22.2011 28.4572 21.9355 28.4648C21.644 28.4652 21.3664 28.3908 21.1373 28.2198C20.94 28.0726 20.7744 27.8528 20.68 27.5328L19.3501 22.6046L17.9713 27.5112C17.8835 27.8302 17.7189 28.0535 17.5232 28.2048C17.2881 28.3868 17.0032 28.4654 16.7313 28.4654C16.4598 28.4654 16.1854 28.391 15.9571 28.2197C15.7632 28.0742 15.5989 27.858 15.5048 27.5461L14.6948 24.635L12.683 24.6352C12.4079 24.6352 12.1587 24.5244 11.9784 24.3454C11.7981 24.1663 11.6865 23.9189 11.6865 23.6457C11.6865 23.3724 11.7981 23.125 11.9784 22.946C12.1587 22.7669 12.4079 22.6561 12.683 22.6561L14.1444 22.656L13.5169 20.3996C13.4269 20.0818 13.465 19.8098 13.5839 19.5943C13.7094 19.3671 13.9308 19.1939 14.2347 19.1083C14.5518 19.0311 14.8462 19.0328 15.0823 19.1365C15.3082 19.2356 15.4966 19.4215 15.5943 19.7509L16.832 24.6336L18.1281 20.0063C18.2165 19.6845 18.3801 19.4604 18.5758 19.309C18.8075 19.1298 19.0894 19.0513 19.3683 19.0513Z" fill="#D63D4A"/>
<path d="M12.1016 10.514C12.1016 9.99014 12.5263 9.56543 13.0502 9.56543H25.5007C26.0246 9.56543 26.4494 9.99014 26.4494 10.514V11.2255C26.4494 11.7494 26.0246 12.1741 25.5007 12.1741H13.0502C12.5263 12.1741 12.1016 11.7494 12.1016 11.2255V10.514Z" fill="#FA967C"/>
<path d="M12.1016 10.514C12.1016 9.99014 12.5263 9.56543 13.0502 9.56543H25.5007C26.0246 9.56543 26.4494 9.99014 26.4494 10.514V11.2255C26.4494 11.7494 26.0246 12.1741 25.5007 12.1741H13.0502C12.5263 12.1741 12.1016 11.7494 12.1016 11.2255V10.514Z" fill="#D63D4A"/>
</svg>
