<svg width="40" height="40" viewBox="0 0 40 40" fill="none" xmlns="http://www.w3.org/2000/svg">
<path d="M34.5837 19.5833C34.5837 27.6375 28.0545 34.1667 20.0003 34.1667C11.9462 34.1667 5.41699 27.6375 5.41699 19.5833C5.41699 11.5292 11.9462 5 20.0003 5C28.0545 5 34.5837 11.5292 34.5837 19.5833Z" fill="white"/>
<path d="M34.5837 19.5833C34.5837 27.6375 28.0545 34.1667 20.0003 34.1667C11.9462 34.1667 5.41699 27.6375 5.41699 19.5833C5.41699 11.5292 11.9462 5 20.0003 5C28.0545 5 34.5837 11.5292 34.5837 19.5833Z" fill="#FA967C"/>
<g style="mix-blend-mode:multiply">
<path d="M30.417 19.5833C30.417 13.8304 25.7533 9.16667 20.0003 9.16667C14.2474 9.16667 9.58366 13.8304 9.58366 19.5833C9.58366 20.7339 8.65092 21.6667 7.50033 21.6667C6.34973 21.6667 5.41699 20.7339 5.41699 19.5833C5.41699 11.5292 11.9462 5 20.0003 5C28.0545 5 34.5837 11.5292 34.5837 19.5833C34.5837 20.7339 33.6509 21.6667 32.5003 21.6667C31.3497 21.6667 30.417 20.7339 30.417 19.5833Z" fill="#D63D4A"/>
</g>
<g style="mix-blend-mode:multiply">
<path d="M22.5131 16.26C23.0823 15.6914 24.0046 15.6912 24.5737 16.26C25.1429 16.8292 25.1429 17.753 24.5737 18.3222L17.4887 25.4072C16.9195 25.9764 15.9957 25.9764 15.4265 25.4072C14.8577 24.8381 14.8579 23.9158 15.4265 23.3466L22.5131 16.26Z" fill="#D63D4A"/>
<path d="M23.3334 22.5003C24.2538 22.5003 25 23.2465 25.0001 24.1669C25.0001 25.0874 24.2539 25.8336 23.3334 25.8336C22.413 25.8335 21.6668 25.0873 21.6668 24.1669C21.6669 23.2466 22.4131 22.5004 23.3334 22.5003Z" fill="#D63D4A"/>
<path d="M16.6668 15.8336C17.5872 15.8336 18.3333 16.5799 18.3334 17.5003C18.3334 18.4207 17.5872 19.1669 16.6668 19.1669C15.7464 19.1668 15.0001 18.4207 15.0001 17.5003C15.0002 16.5799 15.7464 15.8337 16.6668 15.8336Z" fill="#D63D4A"/>
</g>
</svg>
