<svg width="40" height="40" viewBox="0 0 40 40" fill="none" xmlns="http://www.w3.org/2000/svg">
<path fill-rule="evenodd" clip-rule="evenodd" d="M33.3337 15.35C32.8837 15.35 32.5003 15.7167 32.5003 16.1834V18.3334H31.117C30.9337 15.65 29.867 13.2 28.2003 11.2834L29.2337 10.25L30.517 11.5334C30.8337 11.85 31.367 11.85 31.6837 11.5334C32.0003 11.2167 32.0003 10.6834 31.6837 10.3667L27.9503 6.63336C27.6337 6.31669 27.1003 6.31669 26.7837 6.63336C26.467 6.95002 26.467 7.48336 26.7837 7.80002L28.067 9.08336L27.0337 10.1167C25.117 8.45002 22.6837 7.38336 19.9837 7.20002V5.81669H22.1337C22.5837 5.81669 22.967 5.45002 22.967 4.98336C22.967 4.51669 22.6003 4.15002 22.1337 4.15002H16.167C15.717 4.15002 15.3337 4.51669 15.3337 4.98336C15.3337 5.45002 15.7003 5.81669 16.167 5.81669H18.317V7.20002C15.6337 7.38336 13.1837 8.45002 11.267 10.1167L10.2337 9.08336L11.517 7.80002C11.8337 7.48336 11.8337 6.95002 11.517 6.63336C11.2003 6.31669 10.667 6.31669 10.3503 6.63336L6.65033 10.3834C6.33366 10.7 6.33366 11.2334 6.65033 11.55C6.96699 11.8667 7.50033 11.8667 7.81699 11.55L9.10033 10.2667L10.1337 11.3C8.46699 13.2167 7.40033 15.65 7.21699 18.35H5.83366V16.2C5.83366 15.75 5.46699 15.3667 5.00033 15.3667C4.53366 15.3667 4.16699 15.7334 4.16699 16.2V22.1667C4.16699 22.6167 4.53366 23 5.00033 23C5.46699 23 5.83366 22.6334 5.83366 22.1667V20.0167H7.21699C7.40033 22.7 8.46699 25.15 10.1337 27.0667L9.10033 28.1L7.81699 26.8167C7.50033 26.5 6.96699 26.5 6.65033 26.8167C6.33366 27.1334 6.33366 27.6667 6.65033 27.9834L10.3837 31.7167C10.7003 32.0334 11.2337 32.0334 11.5503 31.7167C11.867 31.4 11.867 30.8667 11.5503 30.55L10.267 29.2667L11.3003 28.2334C13.217 29.9 15.6503 30.9667 18.3503 31.15V32.5334H16.2003C15.7503 32.5334 15.367 32.9 15.367 33.3667C15.367 33.8334 15.7337 34.2 16.2003 34.2H22.167C22.617 34.2 23.0003 33.8334 23.0003 33.3667C23.0003 32.9 22.6337 32.5334 22.167 32.5334H20.017V31.15C22.7003 30.9667 25.1503 29.9 27.067 28.2334L28.1003 29.2667L26.817 30.55C26.5003 30.8667 26.5003 31.4 26.817 31.7167C27.1337 32.0334 27.667 32.0334 27.9837 31.7167L31.717 27.9834C32.0337 27.6667 32.0337 27.1334 31.717 26.8167C31.4003 26.5 30.867 26.5 30.5503 26.8167L29.267 28.1L28.2337 27.0667C29.9003 25.15 30.967 22.7167 31.1503 20.0167H32.5337V22.1667C32.5337 22.6167 32.9003 23 33.367 23C33.8337 23 34.2003 22.6334 34.2003 22.1667V16.2C34.2003 15.75 33.8337 15.3667 33.367 15.3667L33.3337 15.35Z" fill="#FA967C"/>
<path d="M18.1849 15.5179C18.1849 16.9906 16.991 18.1845 15.5182 18.1845C14.0455 18.1845 12.8516 16.9906 12.8516 15.5179C12.8516 14.0451 14.0455 12.8512 15.5182 12.8512C16.991 12.8512 18.1849 14.0451 18.1849 15.5179Z" fill="white"/>
<path d="M19.1663 24.1667C19.1663 25.0871 18.4201 25.8333 17.4997 25.8333C16.5792 25.8333 15.833 25.0871 15.833 24.1667C15.833 23.2462 16.5792 22.5 17.4997 22.5C18.4201 22.5 19.1663 23.2462 19.1663 24.1667Z" fill="white"/>
<path d="M26.3242 18.0085C26.3242 19.1131 25.4288 20.0085 24.3242 20.0085C23.2196 20.0085 22.3242 19.1131 22.3242 18.0085C22.3242 16.904 23.2196 16.0085 24.3242 16.0085C25.4288 16.0085 26.3242 16.904 26.3242 18.0085Z" fill="white"/>
<g style="mix-blend-mode:multiply">
<path d="M23.3838 29.0496C23.3838 32.4757 27.909 35.0001 29.606 35.0001C31.303 35.0001 35.8282 32.4757 35.8282 29.0496C35.8282 27.2462 35.8282 25.614 35.8282 24.4726C35.8282 23.4854 35.1906 22.6124 34.2516 22.3131L30.6351 21.1602C29.9656 20.9468 29.2465 20.9468 28.577 21.1602L24.9604 22.3131C24.0214 22.6124 23.3838 23.4854 23.3838 24.4726C23.3838 25.614 23.3838 27.2462 23.3838 29.0496Z" fill="#D63D4A"/>
</g>
<path d="M32.5351 25.3541C32.8356 25.166 33.2366 25.208 33.4905 25.4745C33.7443 25.7413 33.7664 26.1441 33.5638 26.4348L33.4645 26.552L29.459 30.3622C29.3122 30.5016 29.116 30.5777 28.9137 30.5722C28.7112 30.5667 28.5189 30.4803 28.3799 30.3329L25.7171 27.5091L25.6243 27.387C25.4378 27.0857 25.4819 26.6858 25.7497 26.4332C26.0176 26.1805 26.42 26.1593 26.7099 26.3632L26.8271 26.4641L28.9626 28.7298L32.4131 25.4485L32.5351 25.3541Z" fill="white"/>
</svg>
