<svg width="40" height="40" viewBox="0 0 40 40" fill="none" xmlns="http://www.w3.org/2000/svg">
<path d="M4.05078 30.4844H36.3542V31.7421C36.3542 32.4479 35.7809 33.0225 35.0737 33.0225H5.33124C4.62538 33.0225 4.05078 32.4493 4.05078 31.7421V30.4844Z" fill="#1A8DFF"/>
<path d="M4.05078 30.4844H36.3542V31.7421C36.3542 32.4479 35.7809 33.0225 35.0737 33.0225H5.33124C4.62538 33.0225 4.05078 32.4493 4.05078 31.7421V30.4844Z" fill="#D63D4A"/>
<path d="M33.6754 21.1392H6.72956L4.05078 30.6488H36.3542L33.6754 21.1392Z" fill="#D63D4A"/>
<g style="mix-blend-mode:multiply">
<path d="M8.01093 5.31104H32.3972C33.1031 5.31104 33.6777 5.88429 33.6777 6.59149V8.34877H6.73047V6.59149C6.73047 5.88563 7.30373 5.31104 8.01093 5.31104Z" fill="#D63D4A"/>
</g>
<path d="M33.6763 8.15039H6.73047V21.1385H33.6763V8.15039Z" fill="#FA967C"/>
<g style="mix-blend-mode:multiply">
<path d="M31.0115 28.0972C34.5311 28.0972 37.3843 25.244 37.3843 21.7244C37.3843 18.2048 34.5311 15.3516 31.0115 15.3516C27.4919 15.3516 24.6387 18.2048 24.6387 21.7244C24.6387 25.244 27.4919 28.0972 31.0115 28.0972Z" fill="#D63D4A"/>
</g>
<path d="M29.1936 19.9146C29.101 19.5904 28.7631 19.4027 28.4389 19.4953C28.1148 19.5879 27.9271 19.9258 28.0197 20.25L28.4078 21.6084H27.9962C27.659 21.6084 27.3857 21.8817 27.3857 22.2189C27.3857 22.556 27.659 22.8293 27.9962 22.8293H28.7566L29.0662 23.9127C29.1384 24.1655 29.3643 24.3436 29.627 24.3549C29.8896 24.3661 30.13 24.208 30.2236 23.9623L31.0484 21.7971L31.8733 23.9623C31.9669 24.208 32.2072 24.3661 32.4699 24.3549C32.7325 24.3436 32.9585 24.1655 33.0307 23.9127L33.3402 22.8293H34.1007C34.4378 22.8293 34.7111 22.556 34.7111 22.2189C34.7111 21.8817 34.4378 21.6084 34.1007 21.6084H33.6891L34.0772 20.25C34.1698 19.9258 33.9821 19.5879 33.6579 19.4953C33.3338 19.4027 32.9959 19.5904 32.9033 19.9146L32.3609 21.8128L31.6189 19.865C31.5287 19.6283 31.3017 19.4718 31.0484 19.4718C30.7951 19.4718 30.5682 19.6283 30.478 19.865L29.736 21.8128L29.1936 19.9146Z" fill="white"/>
<g style="mix-blend-mode:multiply">
<path d="M19.2391 10.8032H9.75088C9.4365 10.8032 9.18164 11.0581 9.18164 11.3725V11.3926C9.18164 11.7069 9.4365 11.9618 9.75088 11.9618H19.2391C19.5535 11.9618 19.8084 11.7069 19.8084 11.3926V11.3725C19.8084 11.0581 19.5535 10.8032 19.2391 10.8032Z" fill="#D63D4A"/>
</g>
<g style="mix-blend-mode:multiply">
<path d="M14.7428 13.4678H9.75088C9.4365 13.4678 9.18164 13.7226 9.18164 14.037V14.0571C9.18164 14.3715 9.4365 14.6263 9.75088 14.6263H14.7428C15.0572 14.6263 15.312 14.3715 15.312 14.0571V14.037C15.312 13.7226 15.0572 13.4678 14.7428 13.4678Z" fill="#D63D4A"/>
</g>
</svg>
