<svg width="40" height="40" viewBox="0 0 40 40" fill="none" xmlns="http://www.w3.org/2000/svg">
<circle cx="20.0003" cy="19.5833" r="14.5833" fill="#FA967C"/>
<g style="mix-blend-mode:multiply">
<path d="M30.417 19.5833C30.417 13.8304 25.7533 9.16667 20.0003 9.16667C14.2474 9.16667 9.58366 13.8304 9.58366 19.5833C9.58366 20.7339 8.65092 21.6667 7.50033 21.6667C6.34973 21.6667 5.41699 20.7339 5.41699 19.5833C5.41699 11.5292 11.9462 5 20.0003 5C28.0545 5 34.5837 11.5292 34.5837 19.5833C34.5837 20.7339 33.6509 21.6667 32.5003 21.6667C31.3497 21.6667 30.417 20.7339 30.417 19.5833Z" fill="#D63D4A"/>
</g>
<g style="mix-blend-mode:multiply">
<path d="M16.4824 16.9042C16.3068 16.2896 15.6662 15.9337 15.0515 16.1093C14.4369 16.2849 14.081 16.9255 14.2566 17.5401L14.9925 20.1157H14.2121C13.5729 20.1157 13.0547 20.6339 13.0547 21.2731C13.0547 21.9123 13.5729 22.4305 14.2121 22.4305H15.6539L16.2408 24.4846C16.3777 24.9638 16.8061 25.3016 17.3041 25.3229C17.802 25.3443 18.2578 25.0444 18.4352 24.5786L19.9991 20.4733L21.5631 24.5786C21.7405 25.0444 22.1962 25.3443 22.6942 25.3229C23.1922 25.3016 23.6206 24.9638 23.7575 24.4846L24.3444 22.4305H25.7862C26.4254 22.4305 26.9436 21.9123 26.9436 21.2731C26.9436 20.6339 26.4254 20.1157 25.7862 20.1157H25.0058L25.7416 17.5401C25.9172 16.9255 25.5614 16.2849 24.9467 16.1093C24.3321 15.9337 23.6915 16.2896 23.5159 16.9042L22.4876 20.5032L21.0807 16.8101C20.9097 16.3613 20.4794 16.0648 19.9991 16.0648C19.5189 16.0648 19.0885 16.3613 18.9176 16.8101L17.5107 20.5032L16.4824 16.9042Z" fill="#D63D4A"/>
</g>
</svg>
