<svg width="40" height="40" viewBox="0 0 40 40" fill="none" xmlns="http://www.w3.org/2000/svg">
<rect x="8.33301" y="6.66675" width="23.3333" height="28.3333" rx="3.33333" fill="#FA967C"/>
<g style="mix-blend-mode:multiply">
<circle cx="19.9997" cy="21.6667" r="6.66667" fill="#D63D4A"/>
</g>
<path d="M16.0835 24.8975V22.8809C16.0837 22.559 16.3444 22.2984 16.6662 22.2982H18.6828L18.8016 22.3096C19.067 22.3642 19.2669 22.5993 19.2671 22.8809C19.2671 23.1625 19.067 23.3975 18.8016 23.4521L18.6828 23.4652H18.074L18.3638 23.7549L18.6356 23.9925C18.9207 24.211 19.2467 24.3725 19.5959 24.4661C20.0621 24.591 20.5538 24.5911 21.02 24.4661C21.486 24.3412 21.911 24.0959 22.2521 23.7549C22.5934 23.4135 22.8385 22.9874 22.9634 22.5212L23.0057 22.4105C23.127 22.1681 23.4058 22.0367 23.6779 22.1094C23.9891 22.1927 24.1746 22.5127 24.0913 22.8239L24.0164 23.0697C23.8238 23.637 23.5025 24.1531 23.0773 24.5784C22.5914 25.0644 21.9865 25.4144 21.3227 25.5924C20.6587 25.7704 19.9588 25.7703 19.2948 25.5924C18.714 25.4369 18.1779 25.1505 17.7274 24.7559L17.5386 24.5801L17.2505 24.2904V24.8975C17.2505 25.2196 16.9883 25.4818 16.6662 25.4818C16.3442 25.4815 16.0835 25.2195 16.0835 24.8975ZM18.8716 17.4381C19.5356 17.2602 20.2355 17.2603 20.8996 17.4381C21.4803 17.5938 22.0165 17.88 22.467 18.2747L22.6541 18.4505L22.9438 18.7402V18.1331C22.9438 17.811 23.206 17.5488 23.5281 17.5488C23.85 17.5492 24.1108 17.8112 24.1108 18.1331V20.1497C24.1106 20.4481 23.8851 20.698 23.5884 20.7292L21.3048 20.9668L21.186 20.9684C20.9159 20.9419 20.6928 20.728 20.6636 20.4476C20.6303 20.1274 20.8626 19.8415 21.1828 19.8079L22.2489 19.6956L21.8289 19.2757C21.4879 18.9352 21.0624 18.6892 20.5968 18.5644C20.1308 18.4397 19.6403 18.4396 19.1743 18.5644C18.7081 18.6894 18.2818 18.9344 17.9406 19.2757C17.5993 19.6171 17.3542 20.0432 17.2293 20.5094C17.1458 20.8204 16.8258 21.0045 16.5148 20.9212C16.2039 20.8377 16.0197 20.5177 16.103 20.2067C16.2808 19.5432 16.6298 18.9381 17.1154 18.4521C17.6014 17.966 18.2076 17.6162 18.8716 17.4381Z" fill="white"/>
<g style="mix-blend-mode:multiply">
<rect x="15" y="5" width="10" height="3.33333" rx="1.66667" fill="#D63D4A"/>
</g>
</svg>
