<svg width="40" height="40" viewBox="0 0 40 40" fill="none" xmlns="http://www.w3.org/2000/svg">
<g style="mix-blend-mode:multiply">
<path d="M31.1108 9.16663C34.179 9.16663 36.6663 11.3659 36.6663 14.0789V27.5877C36.6663 30.3007 34.179 32.5 31.1108 32.5H8.88856C5.82031 32.5 3.33301 30.3007 3.33301 27.5877L3.33301 14.0789C3.33301 11.3659 5.82032 9.16663 8.88856 9.16663L31.1108 9.16663Z" fill="#FA967C"/>
<g style="mix-blend-mode:multiply">
<rect x="10" y="7.5" width="20" height="3.33333" rx="1.66667" fill="#D63D4A"/>
</g>
<g style="mix-blend-mode:multiply">
<path d="M28.2705 21.2716C28.2705 20.4568 28.1501 19.8272 27.9094 19.3828C27.6779 18.9384 27.3446 18.7161 26.9094 18.7161C26.4743 18.7161 26.1409 18.9384 25.9094 19.3828C25.6872 19.8272 25.5761 20.4568 25.5761 21.2716C25.5761 22.0864 25.6872 22.7207 25.9094 23.1744C26.1409 23.6188 26.4743 23.841 26.9094 23.841C27.3446 23.841 27.6779 23.6188 27.9094 23.1744C28.1501 22.7207 28.2705 22.0864 28.2705 21.2716ZM30.6455 21.2716C30.6455 21.9846 30.5529 22.6188 30.3677 23.1744C30.1825 23.7299 29.9233 24.1975 29.5899 24.5771C29.2659 24.9475 28.8723 25.2299 28.4094 25.4243C27.9557 25.6188 27.4603 25.716 26.9233 25.716C26.377 25.716 25.8724 25.6188 25.4095 25.4243C24.9558 25.2299 24.5623 24.9475 24.2289 24.5771C23.9049 24.1975 23.6502 23.7299 23.4651 23.1744C23.2891 22.6188 23.2012 21.9846 23.2012 21.2716C23.2012 20.5587 23.2891 19.9291 23.4651 19.3828C23.6502 18.8273 23.9049 18.3643 24.2289 17.9939C24.5623 17.6143 24.9558 17.3273 25.4095 17.1328C25.8724 16.9384 26.377 16.8412 26.9233 16.8412C27.4603 16.8412 27.9557 16.9384 28.4094 17.1328C28.8723 17.3273 29.2659 17.6143 29.5899 17.9939C29.9233 18.3643 30.1825 18.8273 30.3677 19.3828C30.5529 19.9291 30.6455 20.5587 30.6455 21.2716Z" fill="#D63D4A"/>
<path d="M19.8477 21.2716C19.8477 20.4568 19.7273 19.8272 19.4866 19.3828C19.2551 18.9384 18.9218 18.7161 18.4866 18.7161C18.0514 18.7161 17.7181 18.9384 17.4866 19.3828C17.2644 19.8272 17.1533 20.4568 17.1533 21.2716C17.1533 22.0864 17.2644 22.7207 17.4866 23.1744C17.7181 23.6188 18.0514 23.841 18.4866 23.841C18.9218 23.841 19.2551 23.6188 19.4866 23.1744C19.7273 22.7207 19.8477 22.0864 19.8477 21.2716ZM22.2226 21.2716C22.2226 21.9846 22.13 22.6188 21.9448 23.1744C21.7597 23.7299 21.5004 24.1975 21.1671 24.5771C20.843 24.9475 20.4495 25.2299 19.9865 25.4243C19.5328 25.6188 19.0375 25.716 18.5005 25.716C17.9542 25.716 17.4496 25.6188 16.9866 25.4243C16.5329 25.2299 16.1394 24.9475 15.8061 24.5771C15.482 24.1975 15.2274 23.7299 15.0422 23.1744C14.8663 22.6188 14.7783 21.9846 14.7783 21.2716C14.7783 20.5587 14.8663 19.9291 15.0422 19.3828C15.2274 18.8273 15.482 18.3643 15.8061 17.9939C16.1394 17.6143 16.5329 17.3273 16.9866 17.1328C17.4496 16.9384 17.9542 16.8412 18.5005 16.8412C19.0375 16.8412 19.5328 16.9384 19.9865 17.1328C20.4495 17.3273 20.843 17.6143 21.1671 17.9939C21.5004 18.3643 21.7597 18.8273 21.9448 19.3828C22.13 19.9291 22.2226 20.5587 22.2226 21.2716Z" fill="#D63D4A"/>
<path d="M11.6367 16.984C12.1755 16.6733 12.8647 16.8584 13.1758 17.3971C13.2858 17.5879 13.3322 17.7976 13.3242 18.0026V24.5612C13.3242 25.1834 12.8195 25.6881 12.1973 25.6881C11.5751 25.688 11.0703 25.1834 11.0703 24.5612V19.9127L11.042 19.9293C10.5031 20.2404 9.81408 20.056 9.50293 19.5172C9.19181 18.9783 9.37616 18.2893 9.91504 17.9781L11.6367 16.984Z" fill="#D63D4A"/>
</g>
</g>
</svg>
