<svg width="41" height="40" viewBox="0 0 41 40" fill="none" xmlns="http://www.w3.org/2000/svg">
<path d="M35.0837 19.5833C35.0837 27.6375 28.5545 34.1667 20.5003 34.1667C12.4462 34.1667 5.91699 27.6375 5.91699 19.5833C5.91699 11.5292 12.4462 5 20.5003 5C28.5545 5 35.0837 11.5292 35.0837 19.5833Z" fill="white"/>
<path d="M35.0837 19.5833C35.0837 27.6375 28.5545 34.1667 20.5003 34.1667C12.4462 34.1667 5.91699 27.6375 5.91699 19.5833C5.91699 11.5292 12.4462 5 20.5003 5C28.5545 5 35.0837 11.5292 35.0837 19.5833Z" fill="#FA967C"/>
<g style="mix-blend-mode:multiply">
<path d="M30.917 19.5833C30.917 13.8304 26.2533 9.16667 20.5003 9.16667C14.7474 9.16667 10.0837 13.8304 10.0837 19.5833C10.0837 20.7339 9.15092 21.6667 8.00033 21.6667C6.84973 21.6667 5.91699 20.7339 5.91699 19.5833C5.91699 11.5292 12.4462 5 20.5003 5C28.5545 5 35.0837 11.5292 35.0837 19.5833C35.0837 20.7339 34.1509 21.6667 33.0003 21.6667C31.8497 21.6667 30.917 20.7339 30.917 19.5833Z" fill="#D63D4A"/>
</g>
<g style="mix-blend-mode:multiply">
<path d="M23.0131 16.26C23.5823 15.6914 24.5046 15.6912 25.0737 16.26C25.6429 16.8292 25.6429 17.753 25.0737 18.3222L17.9887 25.4072C17.4195 25.9764 16.4957 25.9764 15.9265 25.4072C15.3577 24.8381 15.3579 23.9158 15.9265 23.3466L23.0131 16.26Z" fill="#D63D4A"/>
<path d="M23.8334 22.5003C24.7538 22.5003 25.5 23.2465 25.5001 24.1669C25.5001 25.0874 24.7539 25.8336 23.8334 25.8336C22.913 25.8335 22.1668 25.0873 22.1668 24.1669C22.1669 23.2466 22.9131 22.5004 23.8334 22.5003Z" fill="#D63D4A"/>
<path d="M17.1668 15.8336C18.0872 15.8336 18.8333 16.5799 18.8334 17.5003C18.8334 18.4207 18.0872 19.1669 17.1668 19.1669C16.2464 19.1668 15.5001 18.4207 15.5001 17.5003C15.5002 16.5799 16.2464 15.8337 17.1668 15.8336Z" fill="#D63D4A"/>
</g>
</svg>
