<svg width="40" height="40" viewBox="0 0 40 40" fill="none" xmlns="http://www.w3.org/2000/svg">
<path d="M28.8374 11.1624C30.7463 13.0714 32.3688 14.9911 33.5793 16.7057C34.4085 17.8804 34.1829 19.4562 33.1664 20.4731L24.506 29.1334C23.4894 30.1497 21.9146 30.3758 20.7398 29.5474C20.0096 29.0322 19.2421 28.4418 18.4541 27.7865C17.7612 27.2104 16.729 27.2761 16.1426 27.9604L8.92837 36.3772C7.70962 37.799 5.53841 37.8823 4.21422 36.5582L3.44167 35.7856C2.11748 34.4614 2.20078 32.2902 3.6226 31.0714L12.0387 23.8561C12.7228 23.2697 12.7885 22.2376 12.2124 21.5448C11.5575 20.7571 10.9674 19.9899 10.4524 19.26C9.62401 18.0853 9.85011 16.5104 10.8664 15.4938L19.5267 6.83345C20.5436 5.81696 22.1194 5.59131 23.2941 6.42053C25.0087 7.63101 26.9285 9.2535 28.8374 11.1624Z" fill="#FA967C"/>
<path d="M16.334 3.20646C17.2756 2.26484 18.8023 2.26484 19.7439 3.20646C20.6855 4.14808 20.6855 5.67474 19.7439 6.61636L10.6474 15.7129C9.70575 16.6545 8.17908 16.6545 7.23746 15.7129C6.29585 14.7713 6.29585 13.2446 7.23746 12.303L16.334 3.20646Z" fill="#D63D4A"/>
<path d="M33.3835 20.256C34.3252 19.3144 35.8518 19.3144 36.7934 20.256C37.7351 21.1976 37.7351 22.7243 36.7934 23.6659L27.6969 32.7624C26.7553 33.7041 25.2286 33.7041 24.287 32.7624C23.3454 31.8208 23.3454 30.2942 24.287 29.3525L33.3835 20.256Z" fill="#D63D4A"/>
</svg>
