<svg width="40" height="40" viewBox="0 0 40 40" fill="none" xmlns="http://www.w3.org/2000/svg">
<path d="M34.5837 19.5833C34.5837 27.6375 28.0545 34.1667 20.0003 34.1667C11.9462 34.1667 5.41699 27.6375 5.41699 19.5833C5.41699 11.5292 11.9462 5 20.0003 5C28.0545 5 34.5837 11.5292 34.5837 19.5833Z" fill="white"/>
<path d="M34.5837 19.5833C34.5837 27.6375 28.0545 34.1667 20.0003 34.1667C11.9462 34.1667 5.41699 27.6375 5.41699 19.5833C5.41699 11.5292 11.9462 5 20.0003 5C28.0545 5 34.5837 11.5292 34.5837 19.5833Z" fill="#FA967C"/>
<g style="mix-blend-mode:multiply">
<path d="M30.417 19.5833C30.417 13.8304 25.7533 9.16667 20.0003 9.16667C14.2474 9.16667 9.58366 13.8304 9.58366 19.5833C9.58366 20.7339 8.65092 21.6667 7.50033 21.6667C6.34973 21.6667 5.41699 20.7339 5.41699 19.5833C5.41699 11.5292 11.9462 5 20.0003 5C28.0545 5 34.5837 11.5292 34.5837 19.5833C34.5837 20.7339 33.6509 21.6667 32.5003 21.6667C31.3497 21.6667 30.417 20.7339 30.417 19.5833Z" fill="#D63D4A"/>
</g>
<g style="mix-blend-mode:multiply">
<path d="M22.5131 16.2599C23.0823 15.6913 24.0046 15.6911 24.5737 16.2599C25.1429 16.8291 25.1429 17.7529 24.5737 18.3221L17.4887 25.407C16.9195 25.9762 15.9957 25.9762 15.4265 25.407C14.8577 24.838 14.8579 23.9157 15.4265 23.3465L22.5131 16.2599Z" fill="#D63D4A"/>
<path d="M23.3334 22.5001C24.2538 22.5001 25 23.2464 25.0001 24.1668C25.0001 25.0873 24.2539 25.8335 23.3334 25.8335C22.413 25.8334 21.6668 25.0872 21.6668 24.1668C21.6669 23.2465 22.4131 22.5002 23.3334 22.5001Z" fill="#D63D4A"/>
<path d="M16.6668 15.8335C17.5872 15.8335 18.3333 16.5797 18.3334 17.5001C18.3334 18.4206 17.5872 19.1668 16.6668 19.1668C15.7464 19.1667 15.0001 18.4205 15.0001 17.5001C15.0002 16.5798 15.7464 15.8336 16.6668 15.8335Z" fill="#D63D4A"/>
</g>
</svg>
