<svg width="40" height="40" viewBox="0 0 40 40" fill="none" xmlns="http://www.w3.org/2000/svg">
<path d="M20.6914 2.68262C21.32 2.44072 22.013 2.44072 22.6416 2.68262L32.3643 6.4248C32.8937 6.62859 33.3498 6.99366 33.6719 7.4707C33.994 7.9479 34.1671 8.51512 34.167 9.0957V16.7412C34.167 19.1241 33.5201 21.4602 32.2998 23.4873C32.0602 23.8854 31.7992 24.2681 31.5205 24.6348C31.5929 24.1195 31.6405 23.5998 31.6582 23.0771L31.667 22.5742V14.9287C31.6671 14.0191 31.3961 13.127 30.8867 12.3721C30.4404 11.7109 29.8271 11.1791 29.1094 10.8369L28.7959 10.7021L19.0742 6.95996C18.1873 6.61867 17.2187 6.5762 16.3115 6.83203L15.9258 6.95996L9.16699 9.56152V9.09668C9.16666 8.51593 9.33902 7.9491 9.66113 7.47168C9.9833 6.9942 10.4399 6.62867 10.9697 6.4248L20.6914 2.68262Z" fill="white"/>
<path d="M20.6914 2.68164C21.32 2.43975 22.013 2.43978 22.6416 2.68164L32.3643 6.4248C32.8935 6.62857 33.3498 6.99286 33.6719 7.46973C33.994 7.94692 34.1671 8.51415 34.167 9.09473V16.7412C34.167 19.1242 33.5202 21.4602 32.2998 23.4873C32.0605 23.8848 31.7998 24.2666 31.5215 24.6328C31.5937 24.1179 31.6405 23.5985 31.6582 23.0762L31.667 22.5732V14.9287C31.6671 14.019 31.3961 13.1261 30.8867 12.3711C30.4404 11.71 29.827 11.1791 29.1094 10.8369L28.7959 10.7012L19.0742 6.95996C18.1873 6.61867 17.2187 6.57523 16.3115 6.83105L15.9258 6.95996L9.16699 9.56055V9.0957C9.16673 8.51504 9.33905 7.94805 9.66113 7.4707C9.9833 6.9933 10.44 6.62865 10.9697 6.4248L20.6914 2.68164Z" fill="#D63D4A"/>
<path d="M18.475 8.51541L28.1972 12.258C28.7268 12.4618 29.1832 12.8266 29.5053 13.3038C29.8275 13.781 30.0001 14.3478 30 14.9284V22.5746C30 24.9577 29.3537 27.2936 28.1332 29.3208C26.9128 31.3479 25.1666 32.9861 23.0903 34.0519L18.4319 36.4414C18.1426 36.59 17.8235 36.6673 17.5 36.6673C17.1765 36.6673 16.8574 36.59 16.5681 36.4414L11.9097 34.0504C9.83339 32.9847 8.08718 31.3465 6.86676 29.3193C5.64635 27.2922 4.99995 24.9562 5 22.5732V14.9298C4.99965 14.349 5.17209 13.7819 5.49426 13.3044C5.81643 12.8269 6.27296 12.4619 6.80278 12.258L16.525 8.51541C17.1536 8.27351 17.8464 8.27351 18.475 8.51541Z" fill="#FA967C"/>
<path fill-rule="evenodd" clip-rule="evenodd" d="M22.5612 17.0116C23.1073 17.5057 23.1494 18.3488 22.6554 18.8949L17.3776 24.7282C17.1258 25.0065 16.7685 25.1658 16.3932 25.167C16.018 25.1682 15.6596 25.0113 15.406 24.7346L12.3505 21.4013C11.8529 20.8585 11.8895 20.0151 12.4324 19.5175C12.9752 19.0199 13.8186 19.0565 14.3162 19.5994L16.3825 21.8534L20.678 17.1058C21.172 16.5597 22.0152 16.5176 22.5612 17.0116Z" fill="#D63D4A"/>
<path d="M7.39539 13.9206L13.2987 11.5533C13.533 11.4593 13.7444 11.8246 13.5458 11.977C10.4912 14.3216 8.29227 17.2645 6.94894 21.8318C6.88032 22.0651 6.47404 22.0185 6.47461 21.776L6.48997 15.2253C6.49131 14.6544 6.84826 14.1401 7.39539 13.9206Z" fill="white"/>
</svg>
