<svg width="40" height="40" viewBox="0 0 40 40" fill="none" xmlns="http://www.w3.org/2000/svg">
<path d="M20.6924 2.6814C21.3208 2.43967 22.0131 2.43963 22.6416 2.6814L32.3643 6.42358C32.8937 6.62732 33.3497 6.99246 33.6719 7.46948C33.994 7.94668 34.1671 8.5139 34.167 9.09448V16.741C34.167 19.1238 33.5201 21.46 32.2998 23.4871C32.0605 23.8846 31.7998 24.2663 31.5215 24.6326C31.5938 24.1177 31.6415 23.5983 31.6592 23.0759L31.667 22.573V14.9275C31.6671 14.018 31.397 13.1257 30.8877 12.3708C30.4414 11.7097 29.828 11.1779 29.1104 10.8357L28.7959 10.7009L19.0742 6.95874C18.1874 6.61748 17.2196 6.57507 16.3125 6.83081L15.9268 6.95874L9.16699 9.5603V9.09546C9.16669 8.51477 9.33906 7.94785 9.66113 7.47046C9.9833 6.99298 10.4399 6.62745 10.9697 6.42358L20.6924 2.6814Z" fill="white"/>
<path d="M20.6924 2.68164C21.3209 2.43988 22.0131 2.43988 22.6416 2.68164L32.3643 6.42383C32.8937 6.62757 33.3497 6.99267 33.6719 7.46973C33.994 7.94692 34.1671 8.51414 34.167 9.09473V16.7402C34.167 19.1232 33.5202 21.4592 32.2998 23.4863C32.0604 23.8841 31.7999 24.2664 31.5215 24.6328C31.5937 24.1179 31.6415 23.5985 31.6592 23.0762L31.667 22.5732V14.9287C31.6671 14.019 31.3971 13.1261 30.8877 12.3711C30.4414 11.7101 29.8279 11.1791 29.1104 10.8369L28.7959 10.7012L19.0742 6.95996C18.1874 6.61871 17.2195 6.57534 16.3125 6.83105L15.9268 6.95996L9.16699 9.56055V9.0957C9.16666 8.51502 9.33909 7.9481 9.66113 7.4707C9.9833 6.99322 10.4399 6.6277 10.9697 6.42383L20.6924 2.68164Z" fill="#D63D4A"/>
<path d="M18.475 8.51468L28.1972 12.2572C28.7268 12.461 29.1832 12.8259 29.5053 13.3031C29.8275 13.7803 30.0001 14.3471 30 14.9277V22.5739C30.0001 24.9569 29.3537 27.2929 28.1332 29.32C26.9128 31.3472 25.1666 32.9854 23.0903 34.0511L18.4319 36.4407C18.1426 36.5892 17.8235 36.6666 17.5 36.6666C17.1765 36.6666 16.8574 36.5892 16.5681 36.4407L11.9097 34.0497C9.83339 32.984 8.08718 31.3458 6.86676 29.3186C5.64635 27.2915 4.99995 24.9555 5 22.5725V14.9291C4.99965 14.3483 5.17209 13.7812 5.49426 13.3037C5.81643 12.8262 6.27296 12.4611 6.80278 12.2572L16.525 8.51468C17.1536 8.27278 17.8464 8.27278 18.475 8.51468Z" fill="#FA967C"/>
<path fill-rule="evenodd" clip-rule="evenodd" d="M22.5612 17.0114C23.1073 17.5054 23.1494 18.3486 22.6554 18.8946L17.3776 24.728C17.1259 25.0062 16.7685 25.1655 16.3932 25.1668C16.018 25.168 15.6596 25.011 15.406 24.7344L12.3505 21.4011C11.8529 20.8582 11.8895 20.0148 12.4324 19.5172C12.9752 19.0196 13.8186 19.0563 14.3162 19.5991L16.3825 21.8532L20.678 17.1055C21.172 16.5595 22.0152 16.5173 22.5612 17.0114Z" fill="#D63D4A"/>
<path d="M7.39539 13.9199L13.2987 11.5526C13.533 11.4586 13.7444 11.8239 13.5458 11.9762C10.4912 14.3209 8.29227 17.2638 6.94894 21.831C6.88032 22.0643 6.47404 22.0177 6.47461 21.7752L6.48997 15.2246C6.49131 14.6537 6.84826 14.1393 7.39539 13.9199Z" fill="white"/>
</svg>
