<svg width="40" height="40" viewBox="0 0 40 40" fill="none" xmlns="http://www.w3.org/2000/svg">
<g style="mix-blend-mode:multiply">
<path fill-rule="evenodd" clip-rule="evenodd" d="M12.7747 5.83331C12.2309 5.8335 11.6968 5.98897 11.2265 6.28397C10.7563 6.57896 10.3665 7.00301 10.0968 7.51313L4.57424 17.9537C4.30741 18.4575 4.16703 19.028 4.16699 19.6085V27.1043C4.16702 27.6215 4.27846 28.1316 4.49248 28.5942L6.21712 32.3204C6.47328 32.8742 6.86716 33.34 7.3546 33.6656C7.84204 33.9911 8.40378 34.1635 8.97685 34.1636H10.3374C11.1557 34.1636 11.9404 33.8124 12.519 33.1874C13.0976 32.5623 13.4226 31.7146 13.4226 30.8306H25.7635C25.7635 31.7146 26.0886 32.5623 26.6672 33.1874C27.2457 33.8124 28.0305 34.1636 28.8487 34.1636H30.2093C30.7824 34.1635 31.3441 33.9911 31.8316 33.6656C32.319 33.34 32.7129 32.8742 32.969 32.3204L34.6937 28.5942C34.9081 28.1326 35.0192 27.6209 35.0192 27.1043V19.6085C35.0191 19.028 34.8788 18.4575 34.6119 17.9537L29.0894 7.51313C28.8196 7.00301 28.4299 6.57896 27.9596 6.28397C27.4893 5.98897 26.9552 5.8335 26.4114 5.83331H12.7747Z" fill="#FA967C"/>
<g style="mix-blend-mode:multiply">
<path d="M7.34648 33.6687C6.85904 33.3432 6.46516 32.8774 6.209 32.3236L5.34668 30.4604H33.8232L32.9609 32.3236C32.7048 32.8774 32.3109 33.3432 31.8234 33.6687C31.336 33.9942 30.7743 34.1667 30.2012 34.1667H28.8406C28.0224 34.1667 27.2376 33.8156 26.659 33.1905C26.0804 32.5655 25.7554 31.7177 25.7554 30.8337H13.4145C13.4145 31.7177 13.0895 32.5655 12.5109 33.1905C11.9323 33.8156 11.1476 34.1667 10.3293 34.1667H8.96873C8.39566 34.1667 7.83392 33.9942 7.34648 33.6687Z" fill="#D63D4A"/>
</g>
<g style="mix-blend-mode:multiply">
<path d="M9.30152 15.7595L11.8205 10.0918C12.0479 9.58013 12.5553 9.25037 13.1153 9.25037H26.3874C26.9474 9.25037 27.4548 9.58013 27.6822 10.0918L30.2012 15.7595C30.6176 16.6965 29.9317 17.7519 28.9064 17.7519H10.5963C9.57095 17.7519 8.88508 16.6965 9.30152 15.7595Z" fill="#D63D4A"/>
</g>
<circle cx="11.9594" cy="24.2521" r="2.12537" fill="white"/>
<circle cx="27.5453" cy="24.2521" r="2.12537" fill="white"/>
<g style="mix-blend-mode:multiply">
<circle cx="29.1667" cy="10.8334" r="6.66667" fill="#D63D4A"/>
</g>
<path d="M29.167 7.00043C29.6556 7.00043 30.0508 7.39656 30.0508 7.88519V9.94965H32.1162L32.2949 9.96722C32.6979 10.0499 33 10.407 33 10.8344C32.9999 11.2617 32.6978 11.618 32.2949 11.7006L32.1162 11.7182H30.0508V13.7827L30.0342 13.9614C29.9516 14.3644 29.5945 14.6674 29.167 14.6674C28.7395 14.6674 28.3824 14.3644 28.2998 13.9614L28.2832 13.7827V11.7182H26.2178C25.7293 11.7182 25.3341 11.3229 25.334 10.8344C25.334 10.3458 25.7292 9.94968 26.2178 9.94965H28.2832V7.88519C28.2832 7.39658 28.6784 7.00046 29.167 7.00043Z" fill="white"/>
</g>
</svg>
