<svg width="40" height="40" viewBox="0 0 40 40" fill="none" xmlns="http://www.w3.org/2000/svg">
<path d="M8.33301 10.0001C8.33301 8.15913 9.82539 6.66675 11.6663 6.66675H28.333C30.174 6.66675 31.6663 8.15913 31.6663 10.0001V30.0001C31.6663 31.841 30.174 33.3334 28.333 33.3334H11.6663C9.8254 33.3334 8.33301 31.841 8.33301 30.0001V10.0001Z" fill="#FA967C"/>
<path d="M15 8.00008C15 7.2637 15.597 6.66675 16.3333 6.66675H23.6667C24.403 6.66675 25 7.2637 25 8.00008V8.00008C25 8.73646 24.403 9.33341 23.6667 9.33341H16.3333C15.597 9.33341 15 8.73646 15 8.00008V8.00008Z" fill="white"/>
<path d="M16.3327 6.66667L16.196 6.67318C15.5241 6.74176 14.9998 7.3097 14.9997 7.99967C14.9997 8.68978 15.524 9.25755 16.196 9.32617L16.3327 9.33268H23.6667L23.8034 9.32617C24.4305 9.26213 24.9294 8.76365 24.9932 8.13639L24.9997 7.99967C24.9995 7.3097 24.4753 6.74176 23.8034 6.67318L23.6667 6.66667V5C25.3233 5.00018 26.6662 6.34308 26.6663 7.99967C26.6663 9.65642 25.3234 10.9992 23.6667 10.9993H16.3327C14.7797 10.9992 13.5032 9.81965 13.3493 8.30729L13.333 7.99967L13.3493 7.69369C13.5027 6.18086 14.7794 5.00016 16.3327 5V6.66667ZM23.6667 5V6.66667H16.3327V5H23.6667Z" fill="#FA967C"/>
<path fill-rule="evenodd" clip-rule="evenodd" d="M11.667 28.4167C11.667 27.7264 12.2639 27.1667 13.0003 27.1667H27.0003C27.7367 27.1667 28.3337 27.7264 28.3337 28.4167C28.3337 29.1071 27.7367 29.6667 27.0003 29.6667H13.0003C12.2639 29.6667 11.667 29.1071 11.667 28.4167Z" fill="#D63D4A"/>
<path d="M11.667 23.4167C11.667 22.7264 12.2639 22.1667 13.0003 22.1667H27.0003C27.7367 22.1667 28.3337 22.7264 28.3337 23.4167C28.3337 24.1071 27.7367 24.6667 27.0003 24.6667H13.0003C12.2639 24.6667 11.667 24.1071 11.667 23.4167Z" fill="#D63D4A"/>
<path d="M15.833 12.0833C16.4083 12.0833 16.875 12.55 16.875 13.1252V15.2073H18.958C19.5333 15.2073 20 15.674 20 16.2493C19.9999 16.8245 19.5332 17.2903 18.958 17.2903H16.875V19.3743C16.875 19.9495 16.4083 20.4163 15.833 20.4163C15.2579 20.4161 14.792 19.9494 14.792 19.3743V17.2903H12.709C12.1338 17.2903 11.6671 16.8245 11.667 16.2493C11.667 15.674 12.1337 15.2073 12.709 15.2073H14.792V13.1252C14.792 12.5501 15.2579 12.0834 15.833 12.0833Z" fill="#D63D4A"/>
</svg>
