<svg width="40" height="40" viewBox="0 0 40 40" fill="none" xmlns="http://www.w3.org/2000/svg">
<path d="M10 18.3333C10 12.8105 14.4772 8.33331 20 8.33331C25.5228 8.33331 30 12.8105 30 18.3333V35H10V18.3333Z" fill="#FA967C"/>
<g style="mix-blend-mode:multiply">
<path d="M26.6663 18.3334C26.6663 22.0153 23.6816 25 19.9997 25C16.3178 25 13.333 22.0153 13.333 18.3334C13.333 14.6515 16.3178 11.6667 19.9997 11.6667C23.6816 11.6667 26.6663 14.6515 26.6663 18.3334Z" fill="#D63D4A"/>
</g>
<path d="M22.222 17.6672L22.3566 17.6803C22.6603 17.7425 22.8882 18.0114 22.8882 18.3335C22.8882 18.6556 22.6603 18.9245 22.3566 18.9867L22.222 18.9997H17.7776C17.4094 18.9997 17.1113 18.7017 17.1113 18.3335C17.1113 17.9653 17.4094 17.6672 17.7776 17.6672H22.222Z" fill="white"/>
<path d="M20.6664 20.5554L20.6534 20.6899C20.5912 20.9936 20.3223 21.2216 20.0002 21.2216C19.6781 21.2216 19.4092 20.9936 19.347 20.6899L19.334 20.5554L19.334 16.1109C19.334 15.7427 19.632 15.4447 20.0002 15.4447C20.3684 15.4447 20.6664 15.7427 20.6664 16.1109L20.6664 20.5554Z" fill="white"/>
<g style="mix-blend-mode:multiply">
<path d="M6.66699 32.5C6.66699 31.1193 7.78628 30 9.16699 30H30.8337C32.2144 30 33.3337 31.1193 33.3337 32.5C33.3337 33.8807 32.2144 35 30.8337 35H9.16699C7.78628 35 6.66699 33.8807 6.66699 32.5Z" fill="#D63D4A"/>
</g>
<path d="M21.333 6.49982L21.3265 6.63654C21.258 7.30869 20.6902 7.83283 20 7.83283C19.3098 7.83283 18.742 7.30869 18.6735 6.63654L18.667 6.49982L18.667 3.99982C18.667 3.26344 19.2636 2.66681 20 2.66681C20.7364 2.66681 21.333 3.26344 21.333 3.99982L21.333 6.49982Z" fill="#D63D4A"/>
<path d="M11.2622 9.37704L11.3543 9.47832C11.7812 10.002 11.7503 10.7741 11.2622 11.2622C10.7741 11.7503 10.002 11.7812 9.47832 11.3543L9.37704 11.2622L7.60927 9.49443C7.08858 8.97373 7.08858 8.12997 7.60927 7.60927C8.12997 7.08858 8.97373 7.08858 9.49443 7.60927L11.2622 9.37704Z" fill="#D63D4A"/>
<path d="M28.9571 9.37704L28.865 9.47832C28.4381 10.002 28.469 10.7741 28.9571 11.2622C29.4452 11.7503 30.2173 11.7812 30.741 11.3543L30.8423 11.2622L32.61 9.49443C33.1307 8.97373 33.1307 8.12997 32.61 7.60927C32.0893 7.08858 31.2456 7.08858 30.7249 7.60927L28.9571 9.37704Z" fill="#D63D4A"/>
</svg>
