<svg width="40" height="40" viewBox="0 0 40 40" fill="none" xmlns="http://www.w3.org/2000/svg">
<rect width="40" height="40" fill="white"/>
<path d="M35 29.1667C35 32.8486 28.2843 35.8333 20 35.8333C11.7157 35.8333 5 32.8486 5 29.1667C5 25.4848 11.7157 22.5 20 22.5C28.2843 22.5 35 25.4848 35 29.1667Z" fill="#FA967C"/>
<path d="M11.6667 4.1665C12.249 4.1665 12.7603 4.46599 13.0583 4.91846C16.2798 4.51145 18.889 5.31955 21.2435 6.48096L18.3561 8.29411L19.5736 12.0278L16.6504 15.7355L22.0508 13.286L21.6585 9.97217L25.3109 8.78076C27.3845 9.99346 29.4226 11.0545 31.7334 11.2157C32.5967 11.2764 33.2351 12.5299 32.5814 13.0972C22.5611 21.7902 19.7194 15.2084 13.3333 20.1447V27.4998C13.3333 28.4203 12.5871 29.1665 11.6667 29.1665C10.7462 29.1665 10 28.4203 10 27.4998V5.83317C10 4.9127 10.7462 4.1665 11.6667 4.1665Z" fill="#D63D4A"/>
</svg>
