<svg width="40" height="40" viewBox="0 0 40 40" fill="none" xmlns="http://www.w3.org/2000/svg">
<path d="M6.22005 23.5401C8.10846 23.5401 9.63931 22.0092 9.63931 20.1208C9.63931 18.2324 8.10846 16.7015 6.22005 16.7015C4.33164 16.7015 2.80078 18.2324 2.80078 20.1208C2.80078 22.0092 4.33164 23.5401 6.22005 23.5401Z" fill="#FA967C"/>
<path d="M33.7806 23.5403C35.669 23.5403 37.1999 22.0095 37.1999 20.121C37.1999 18.2326 35.669 16.7018 33.7806 16.7018C31.8922 16.7018 30.3613 18.2326 30.3613 20.121C30.3613 22.0095 31.8922 23.5403 33.7806 23.5403Z" fill="#FA967C"/>
<path d="M20.0007 33.8372C27.5761 33.8372 33.7172 27.6961 33.7172 20.1207C33.7172 12.5453 27.5761 6.40417 20.0007 6.40417C12.4253 6.40417 6.28418 12.5453 6.28418 20.1207C6.28418 27.6961 12.4253 33.8372 20.0007 33.8372Z" fill="#FA967C"/>
<ellipse cx="29.4334" cy="23.3701" rx="2.45198" ry="1.71639" fill="white"/>
<ellipse cx="10.6824" cy="23.3701" rx="2.45198" ry="1.71639" fill="white"/>
<path d="M16.153 20.9715C16.8205 20.9715 17.3616 20.3525 17.3616 19.589C17.3616 18.8254 16.8205 18.2064 16.153 18.2064C15.4855 18.2064 14.9443 18.8254 14.9443 19.589C14.9443 20.3525 15.4855 20.9715 16.153 20.9715Z" fill="#D63D4A"/>
<path d="M25.0579 19.5888C25.0579 20.3528 24.5163 20.9714 23.8493 20.9714C23.1822 20.9714 22.6406 20.3528 22.6406 19.5888C22.6406 18.8249 23.1822 18.2063 23.8493 18.2063C24.5163 18.2063 25.0579 18.8249 25.0579 19.5888Z" fill="#D63D4A"/>
<path d="M6.4082 18.8989C6.4082 18.8989 12.0847 16.5689 15.5192 10.6011C15.5192 10.6011 15.8165 13.5137 14.7728 15.6981H25.2278C25.2278 15.6981 25.5251 13.8049 24.7788 10.4554C24.7788 10.4554 27.9159 15.8437 33.5894 18.0252C33.5894 18.0252 33.7381 5.50403 20.149 5.50403C6.5599 5.50403 6.4082 16.2776 6.4082 18.8989Z" fill="#D63D4A"/>
<path d="M16.0322 22.8927C16.0322 25.0848 17.8081 26.8607 20.0002 26.8607C22.1923 26.8607 23.9682 25.0848 23.9682 22.8927H16.0351H16.0322Z" fill="#D63D4A"/>
</svg>
