<svg width="40" height="40" viewBox="0 0 40 40" fill="none" xmlns="http://www.w3.org/2000/svg">
<path d="M21.1047 3.54694L32.1232 7.94996C32.7234 8.18971 33.2406 8.61898 33.6057 9.18039C33.9708 9.74179 34.1664 10.4086 34.1663 11.0916V20.0872C34.1664 22.8908 33.4338 25.639 32.0507 28.0238C30.6675 30.4087 28.6885 32.336 26.3353 33.5898L21.0559 36.4011C20.728 36.5758 20.3663 36.6668 19.9997 36.6668C19.633 36.6668 19.2714 36.5758 18.9435 36.4011L13.664 33.5882C11.3108 32.3343 9.33181 30.407 7.94867 28.0222C6.56554 25.6373 5.83295 22.8891 5.83301 20.0855V11.0933C5.83261 10.41 6.02804 9.74282 6.39317 9.18108C6.7583 8.61934 7.2757 8.18981 7.87616 7.94996L18.8947 3.54694C19.6071 3.26235 20.3922 3.26235 21.1047 3.54694Z" fill="#FA967C"/>
<path d="M8.54844 9.55984L15.2388 6.77477C15.5044 6.6642 15.7439 7.0939 15.5189 7.27318C12.0571 10.0315 9.56489 13.4938 8.04245 18.867C7.96468 19.1415 7.50424 19.0867 7.50488 18.8014L7.52229 11.0947C7.52381 10.4231 7.92835 9.81797 8.54844 9.55984Z" fill="white"/>
<g style="mix-blend-mode:multiply">
<path fill-rule="evenodd" clip-rule="evenodd" d="M17.0367 20.8929C16.0544 20.8929 15.1124 21.2731 14.4178 21.9499C13.7232 22.6266 13.333 23.5445 13.333 24.5016C13.333 25.0759 13.5671 25.6266 13.9839 26.0327C14.4006 26.4387 14.9659 26.6668 15.5552 26.6668H24.4441C25.0335 26.6668 25.5987 26.4387 26.0155 26.0327C26.4322 25.6266 26.6663 25.0759 26.6663 24.5016C26.6663 23.5445 26.2761 22.6266 25.5816 21.9499C24.887 21.2731 23.9449 20.8929 22.9626 20.8929H17.0367Z" fill="#D63D4A"/>
<path d="M17.5186 14.3348C16.8606 14.976 16.4909 15.8455 16.4909 16.7523C16.4909 17.659 16.8606 18.5286 17.5186 19.1697C18.1767 19.8108 19.0691 20.171 19.9997 20.171C20.9303 20.171 21.8228 19.8108 22.4808 19.1697C23.1388 18.5286 23.5085 17.659 23.5085 16.7523C23.5085 15.8455 23.1388 14.976 22.4808 14.3348C21.8228 13.6937 20.9303 13.3335 19.9997 13.3335C19.0691 13.3335 18.1767 13.6937 17.5186 14.3348Z" fill="#D63D4A"/>
</g>
</svg>
