<svg width="41" height="40" viewBox="0 0 41 40" fill="none" xmlns="http://www.w3.org/2000/svg">
<path d="M35.0837 19.5833C35.0837 27.6375 28.5545 34.1667 20.5003 34.1667C12.4462 34.1667 5.91699 27.6375 5.91699 19.5833C5.91699 11.5292 12.4462 5 20.5003 5C28.5545 5 35.0837 11.5292 35.0837 19.5833Z" fill="white"/>
<path d="M35.0837 19.5833C35.0837 27.6375 28.5545 34.1667 20.5003 34.1667C12.4462 34.1667 5.91699 27.6375 5.91699 19.5833C5.91699 11.5292 12.4462 5 20.5003 5C28.5545 5 35.0837 11.5292 35.0837 19.5833Z" fill="#FA967C"/>
<g style="mix-blend-mode:multiply">
<path d="M30.917 19.5833C30.917 13.8304 26.2533 9.16667 20.5003 9.16667C14.7474 9.16667 10.0837 13.8304 10.0837 19.5833C10.0837 20.7339 9.15092 21.6667 8.00033 21.6667C6.84973 21.6667 5.91699 20.7339 5.91699 19.5833C5.91699 11.5292 12.4462 5 20.5003 5C28.5545 5 35.0837 11.5292 35.0837 19.5833C35.0837 20.7339 34.1509 21.6667 33.0003 21.6667C31.8497 21.6667 30.917 20.7339 30.917 19.5833Z" fill="#D63D4A"/>
</g>
<g style="mix-blend-mode:multiply">
<path d="M23.0131 16.2598C23.5823 15.6913 24.5046 15.691 25.0737 16.2598C25.6429 16.829 25.6429 17.7528 25.0737 18.322L17.9887 25.407C17.4195 25.9762 16.4957 25.9762 15.9265 25.407C15.3577 24.838 15.3579 23.9156 15.9265 23.3464L23.0131 16.2598Z" fill="#D63D4A"/>
<path d="M23.8334 22.5001C24.7538 22.5001 25.5 23.2464 25.5001 24.1667C25.5001 25.0872 24.7539 25.8334 23.8334 25.8334C22.913 25.8333 22.1668 25.0872 22.1668 24.1667C22.1669 23.2464 22.9131 22.5002 23.8334 22.5001Z" fill="#D63D4A"/>
<path d="M17.1668 15.8334C18.0872 15.8334 18.8333 16.5797 18.8334 17.5001C18.8334 18.4205 18.0872 19.1667 17.1668 19.1667C16.2464 19.1666 15.5001 18.4205 15.5001 17.5001C15.5002 16.5797 16.2464 15.8335 17.1668 15.8334Z" fill="#D63D4A"/>
</g>
</svg>
