<svg width="40" height="40" viewBox="0 0 40 40" fill="none" xmlns="http://www.w3.org/2000/svg">
<path d="M21.1047 3.54669L32.1232 7.94972C32.7234 8.18947 33.2406 8.61873 33.6057 9.18014C33.9708 9.74155 34.1664 10.4083 34.1663 11.0914V20.087C34.1664 22.8905 33.4338 25.6387 32.0507 28.0236C30.6675 30.4085 28.6885 32.3358 26.3353 33.5896L21.0559 36.4008C20.728 36.5756 20.3663 36.6666 19.9997 36.6666C19.633 36.6666 19.2714 36.5756 18.9435 36.4008L13.664 33.5879C11.3108 32.3341 9.33181 30.4068 7.94867 28.0219C6.56554 25.637 5.83295 22.8889 5.83301 20.0853V11.0931C5.83261 10.4097 6.02804 9.74257 6.39317 9.18083C6.7583 8.61909 7.2757 8.18957 7.87616 7.94972L18.8947 3.54669C19.6071 3.26211 20.3922 3.26211 21.1047 3.54669Z" fill="#FA967C"/>
<g style="mix-blend-mode:multiply">
<path fill-rule="evenodd" clip-rule="evenodd" d="M20.119 25.0284C20.5493 25.0284 20.7819 25.256 21.1918 25.7059L21.2144 25.7304C21.5837 26.1354 22.1404 26.7466 23.1477 26.6579C23.7485 26.6045 24.3221 26.2177 24.802 25.7603C25.3023 25.2838 25.7913 24.6469 26.2193 23.9374C27.0696 22.527 27.7381 20.7308 27.7381 19.1718V19.1237C27.7381 17.7667 27.7381 15.0045 24.8856 13.7073C23.823 13.2265 22.906 13.2895 22.1065 13.4541C21.868 13.5059 21.6308 13.5629 21.3951 13.6251C21.2618 13.6593 21.1395 13.6899 21.0281 13.717C20.7318 13.795 20.4265 13.8381 20.119 13.8452C19.8333 13.8452 19.5386 13.795 19.2044 13.717C19.0914 13.6913 18.9672 13.661 18.8317 13.6261C18.6036 13.5706 18.3574 13.5086 18.1282 13.4616C17.3354 13.2992 16.4253 13.2351 15.3841 13.7084C12.4989 15.0206 12.5 17.7667 12.5 19.128V19.1707C12.5 20.7383 13.2171 22.5409 14.0866 23.9471C14.5247 24.6566 15.0171 25.2913 15.5061 25.7636C15.75 25.9997 16.0029 26.2049 16.257 26.3587C16.5066 26.5094 16.79 26.6312 17.0893 26.6579C18.0966 26.7466 18.6544 26.1343 19.0237 25.7304L19.0463 25.7059C19.4562 25.2571 19.6888 25.0284 20.119 25.0284Z" fill="#D63D4A"/>
</g>
<path d="M21.5425 15.8854C21.9057 15.7498 22.3267 15.884 22.5402 16.2256C22.7836 16.6157 22.6648 17.1292 22.2749 17.373L21.9819 17.5439C21.2947 17.9196 20.5763 18.1249 19.8335 18.125C19.0903 18.125 18.371 17.9199 17.6834 17.5439L17.3921 17.373L17.2586 17.2705C16.9774 17.0035 16.9134 16.5673 17.1268 16.2256C17.3401 15.8842 17.7598 15.7503 18.1229 15.8854L18.2742 15.9603L18.4826 16.0824C18.9617 16.3445 19.4098 16.4583 19.8335 16.4583C20.3176 16.4583 20.8331 16.309 21.3911 15.9603L21.5425 15.8854Z" fill="#FA967C"/>
<path d="M8.54844 9.5596L15.2388 6.77452C15.5044 6.66396 15.7439 7.09365 15.5189 7.27294C12.0571 10.0313 9.56489 13.4936 8.04245 18.8668C7.96468 19.1413 7.50424 19.0864 7.50488 18.8012L7.52229 11.0945C7.52381 10.4228 7.92835 9.81773 8.54844 9.5596Z" fill="white"/>
</svg>
