<svg width="40" height="40" viewBox="0 0 40 40" fill="none" xmlns="http://www.w3.org/2000/svg">
<path fill-rule="evenodd" clip-rule="evenodd" d="M21.9337 7.88465C22.9826 6.73567 24.4619 5.97577 26.1214 5.85135V4.17889C26.1214 3.71189 26.5 3.33331 26.967 3.33331C27.434 3.33331 27.8126 3.71189 27.8126 4.17889V5.94767C29.5866 6.28824 31.0937 7.36459 31.9935 8.84131L33.4367 8.02021C33.8345 7.79383 34.3405 7.92938 34.5719 8.32435C34.8074 8.72646 34.6689 9.24354 34.2639 9.47402L32.6635 10.3846C32.8086 10.9067 32.886 11.4563 32.886 12.0238C32.886 13.7031 32.6809 15.3351 32.2941 16.8969L33.9837 17.343C34.4314 17.4613 34.6971 17.9215 34.5756 18.3684C34.4554 18.8107 34.0009 19.0731 33.5577 18.9561L31.8259 18.4987C31.0911 20.6728 29.9964 22.6848 28.6116 24.4661L30.3405 26.1699C30.6742 26.4987 30.6741 27.0369 30.3405 27.3657C30.0137 27.6877 29.4889 27.6877 29.1621 27.3657L27.5248 25.7521C26.2143 27.1805 24.7023 28.4258 23.0329 29.4447L23.8857 30.9004C24.123 31.3054 23.9835 31.8263 23.5754 32.0585C23.1746 32.2865 22.665 32.15 22.4319 31.7521L21.56 30.2638C19.3366 31.385 16.881 32.123 14.2833 32.3892V34.1544C14.2833 34.6214 13.9047 35 13.4377 35C12.9707 35 12.5921 34.6214 12.5921 34.1544V32.4946C12.4315 32.4981 12.2705 32.5 12.109 32.5C10.1664 32.5 8.42974 31.631 7.27756 30.2659L5.73001 31.1464C5.33214 31.3728 4.8262 31.2372 4.5948 30.8423C4.35923 30.4402 4.49776 29.9231 4.90281 29.6926L6.38006 28.8521C6.02508 28.0764 5.82747 27.2157 5.82747 26.3095C5.82747 24.0331 7.07419 22.0437 8.93143 20.9683L8.06314 19.4862C7.82583 19.0811 7.9654 18.5602 8.37343 18.328C8.77423 18.1 9.2839 18.2366 9.51699 18.6344L10.5059 20.3225C11.0176 20.1897 11.5549 20.1191 12.109 20.1191C14.0726 20.1191 15.8754 19.4399 17.2886 18.3071L15.9832 17.0205C15.6496 16.6918 15.6496 16.1535 15.9832 15.8248C16.31 15.5027 16.8348 15.5027 17.1616 15.8248L18.4845 17.1285C19.634 15.7357 20.3232 13.9591 20.3232 12.0238C20.3232 11.0423 20.5549 10.1141 20.9675 9.28956L19.5107 7.85382C19.1771 7.52505 19.1771 6.98688 19.5107 6.65811C19.8375 6.33606 20.3623 6.33606 20.6891 6.6581L21.9337 7.88465Z" fill="#FA967C"/>
<path d="M12.6667 27.1666C12.6667 27.903 12.0697 28.4999 11.3333 28.4999C10.597 28.4999 10 27.903 10 27.1666C10 26.4302 10.597 25.8333 11.3333 25.8333C12.0697 25.8333 12.6667 26.4302 12.6667 27.1666Z" fill="white"/>
<circle cx="18.8337" cy="24.6667" r="2.16667" fill="white"/>
<circle cx="18.8335" cy="24.6667" r="0.722222" fill="#FA967C"/>
<circle cx="27.1667" cy="11.3333" r="2.16667" fill="white"/>
<circle cx="27.1666" cy="11.3333" r="0.722222" fill="#FA967C"/>
<path d="M26.8337 18C26.8337 18.7363 26.2367 19.3333 25.5003 19.3333C24.7639 19.3333 24.167 18.7363 24.167 18C24.167 17.2636 24.7639 16.6666 25.5003 16.6666C26.2367 16.6666 26.8337 17.2636 26.8337 18Z" fill="white"/>
<g style="mix-blend-mode:multiply">
<path d="M23.3838 29.0496C23.3838 32.4757 27.909 35.0001 29.606 35.0001C31.303 35.0001 35.8282 32.4757 35.8282 29.0496C35.8282 27.2462 35.8282 25.614 35.8282 24.4726C35.8282 23.4854 35.1906 22.6124 34.2516 22.3131L30.6351 21.1602C29.9656 20.9468 29.2465 20.9468 28.577 21.1602L24.9604 22.3131C24.0214 22.6124 23.3838 23.4854 23.3838 24.4726C23.3838 25.614 23.3838 27.2462 23.3838 29.0496Z" fill="#D63D4A"/>
</g>
<path d="M32.5361 25.3541C32.8365 25.166 33.2376 25.208 33.4915 25.4745C33.7453 25.7413 33.7674 26.1441 33.5648 26.4348L33.4655 26.552L29.4599 30.3622C29.3132 30.5016 29.117 30.5777 28.9147 30.5722C28.7122 30.5667 28.5199 30.4803 28.3808 30.3329L25.7181 27.5091L25.6253 27.387C25.4388 27.0857 25.4829 26.6858 25.7506 26.4332C26.0185 26.1805 26.421 26.1593 26.7109 26.3632L26.8281 26.4641L28.9635 28.7298L32.414 25.4485L32.5361 25.3541Z" fill="white"/>
</svg>
