<svg width="40" height="40" viewBox="0 0 40 40" fill="none" xmlns="http://www.w3.org/2000/svg">
<path d="M5.83301 12.4998C5.83301 10.6589 7.32539 9.1665 9.16634 9.1665H30.833C32.674 9.1665 34.1663 10.6589 34.1663 12.4998V30.8332C34.1663 32.6741 32.674 34.1665 30.833 34.1665H9.16634C7.32539 34.1665 5.83301 32.6741 5.83301 30.8332V12.4998Z" fill="#FA967C"/>
<g style="mix-blend-mode:multiply">
<path d="M26.6663 5.8335C27.4027 5.8335 27.9994 6.43012 27.9994 7.1665V9.16683H30.833C32.674 9.16683 34.1663 10.6592 34.1663 12.5002V15.8335H5.83301V12.5002C5.83301 10.6592 7.32539 9.16683 9.16634 9.16683H12V7.1665C12 6.43012 12.5966 5.8335 13.333 5.8335C14.0694 5.8335 14.666 6.43012 14.666 7.1665V9.16683H25.3333V7.1665C25.3333 6.43012 25.93 5.8335 26.6663 5.8335Z" fill="#D63D4A"/>
</g>
<path d="M24.1667 27.5C25.0871 27.5 25.8333 28.2462 25.8333 29.1667C25.8333 30.0871 25.0871 30.8333 24.1667 30.8333C23.2462 30.8333 22.5 30.0871 22.5 29.1667C22.5 28.2462 23.2462 27.5 24.1667 27.5Z" fill="white"/>
<path d="M29.1667 27.5C30.0871 27.5 30.8333 28.2462 30.8333 29.1667C30.8333 30.0871 30.0871 30.8333 29.1667 30.8333C28.2462 30.8333 27.5 30.0871 27.5 29.1667C27.5 28.2462 28.2462 27.5 29.1667 27.5Z" fill="white"/>
<path d="M29.1667 22.5C30.0871 22.5 30.8333 23.2462 30.8333 24.1667C30.8333 25.0871 30.0871 25.8333 29.1667 25.8333C28.2462 25.8333 27.5 25.0871 27.5 24.1667C27.5 23.2462 28.2462 22.5 29.1667 22.5Z" fill="white"/>
</svg>
