<svg width="40" height="40" viewBox="0 0 40 40" fill="none" xmlns="http://www.w3.org/2000/svg">
<path d="M8.33301 9.99984C8.33301 8.15889 9.82539 6.6665 11.6663 6.6665H28.333C30.174 6.6665 31.6663 8.15889 31.6663 9.99984V29.9998C31.6663 31.8408 30.174 33.3332 28.333 33.3332H11.6663C9.8254 33.3332 8.33301 31.8408 8.33301 29.9998V9.99984Z" fill="#FA967C"/>
<path d="M15 7.99984C15 7.26346 15.597 6.6665 16.3333 6.6665H23.6667C24.403 6.6665 25 7.26346 25 7.99984V7.99984C25 8.73622 24.403 9.33317 23.6667 9.33317H16.3333C15.597 9.33317 15 8.73622 15 7.99984V7.99984Z" fill="white"/>
<path d="M16.3327 6.66667L16.196 6.67318C15.5241 6.74176 14.9998 7.3097 14.9997 7.99967C14.9997 8.68978 15.524 9.25755 16.196 9.32617L16.3327 9.33268H23.6667L23.8034 9.32617C24.4305 9.26213 24.9294 8.76365 24.9932 8.13639L24.9997 7.99967C24.9995 7.3097 24.4753 6.74176 23.8034 6.67318L23.6667 6.66667V5C25.3233 5.00018 26.6662 6.34308 26.6663 7.99967C26.6663 9.65642 25.3234 10.9992 23.6667 10.9993H16.3327C14.7797 10.9992 13.5032 9.81965 13.3493 8.30729L13.333 7.99967L13.3493 7.69369C13.5027 6.18086 14.7794 5.00016 16.3327 5V6.66667ZM23.6667 5V6.66667H16.3327V5H23.6667Z" fill="#FA967C"/>
<path fill-rule="evenodd" clip-rule="evenodd" d="M11.667 28.4165C11.667 27.7261 12.2639 27.1665 13.0003 27.1665H27.0003C27.7367 27.1665 28.3337 27.7261 28.3337 28.4165C28.3337 29.1069 27.7367 29.6665 27.0003 29.6665H13.0003C12.2639 29.6665 11.667 29.1069 11.667 28.4165Z" fill="#D63D4A"/>
<path d="M11.667 23.4165C11.667 22.7261 12.2639 22.1665 13.0003 22.1665H27.0003C27.7367 22.1665 28.3337 22.7261 28.3337 23.4165C28.3337 24.1069 27.7367 24.6665 27.0003 24.6665H13.0003C12.2639 24.6665 11.667 24.1069 11.667 23.4165Z" fill="#D63D4A"/>
<path d="M15.833 12.0835C16.4081 12.0835 16.8748 12.5494 16.875 13.1245V15.2075H18.958C19.5333 15.2075 20 15.6743 20 16.2495C19.9998 16.8246 19.5331 17.2905 18.958 17.2905H16.875V19.3745C16.875 19.9498 16.4083 20.4165 15.833 20.4165C15.2579 20.4164 14.792 19.9497 14.792 19.3745V17.2905H12.709C12.1339 17.2905 11.6672 16.8246 11.667 16.2495C11.667 15.6743 12.1337 15.2075 12.709 15.2075H14.792V13.1245C14.7922 12.5495 15.258 12.0836 15.833 12.0835Z" fill="#D63D4A"/>
</svg>
