<svg width="339" height="105" viewBox="0 0 339 105" fill="none" xmlns="http://www.w3.org/2000/svg">
<mask id="path-1-inside-1_22108_77959" fill="white">
<path d="M0 0H338.5V105H0V0Z"/>
</mask>
<path d="M338.5 105V106H339.5V105H338.5ZM338.5 0H337.5V105H338.5H339.5V0H338.5ZM338.5 105V104H0V105V106H338.5V105Z" fill="#E6E8EA" mask="url(#path-1-inside-1_22108_77959)"/>
<path d="M8.19141 20.0645V21.8398H0.457031V20.0645H3.23438V18.0605H5.44922V20.0645H8.19141ZM4.35938 22.5605C6.39844 22.5605 7.85742 24.1426 7.875 26.3574C7.85742 28.5898 6.39844 30.1719 4.35938 30.1719C2.32031 30.1719 0.826172 28.5898 0.826172 26.3574C0.826172 24.1426 2.32031 22.5605 4.35938 22.5605ZM4.35938 24.4238C3.42773 24.4238 2.79492 25.1445 2.79492 26.3574C2.79492 27.5703 3.42773 28.2734 4.35938 28.2734C5.25586 28.2734 5.88867 27.5703 5.90625 26.3574C5.88867 25.1445 5.25586 24.4238 4.35938 24.4238ZM14.3086 17.6211V33.6172H12.1816V25.918H10.8809V32.9316H8.78906V17.9375H10.8809V24.125H12.1816V17.6211H14.3086ZM21.2168 18.5703C23.748 18.5703 25.6465 20.1875 25.6465 22.4902C25.6465 24.4414 24.2842 25.9004 22.3242 26.3047V28.4492C23.6777 28.3789 25.04 28.2559 26.332 28.0801L26.5078 29.6973C22.957 30.3652 19.1602 30.4004 16.3652 30.4004L16.1016 28.5898C17.2793 28.5898 18.6504 28.5811 20.0918 28.5371V26.2871C18.1406 25.8916 16.7695 24.4326 16.7695 22.4902C16.7695 20.1875 18.6855 18.5703 21.2168 18.5703ZM21.2168 20.4863C19.9512 20.4863 18.9844 21.207 19.002 22.4902C18.9844 23.7383 19.9512 24.4941 21.2168 24.4941C22.5 24.4941 23.4492 23.7383 23.4668 22.4902C23.4492 21.207 22.4824 20.4863 21.2168 20.4863ZM29.4785 17.6211V33.6523H27.2461V17.6211H29.4785ZM40.9219 18.6934C43.4531 18.6758 45.3516 20.3281 45.3516 22.6133C45.3516 24.916 43.4531 26.5508 40.9219 26.5508C38.3906 26.5508 36.4746 24.916 36.4746 22.6133C36.4746 20.3281 38.3906 18.6758 40.9219 18.6934ZM40.9219 20.627C39.6562 20.627 38.6895 21.3652 38.707 22.6133C38.6895 23.8789 39.6562 24.5996 40.9219 24.5996C42.1875 24.5996 43.1543 23.8789 43.1719 22.6133C43.1543 21.3652 42.2051 20.627 40.9219 20.627ZM49.1836 17.6211V33.6523H46.9512V17.6211H49.1836ZM35.8066 28.5547C38.6543 28.5723 42.6094 28.5195 46.0371 28.0449L46.2129 29.6621C42.6621 30.3477 38.8652 30.3828 36.0703 30.3828L35.8066 28.5547ZM65.9355 29.9961V31.8418H51.293V29.9961H55.0371V27.5527H52.9805V22.1738H62.0332V20.4512H52.9629V18.6582H64.248V23.9668H55.2305V25.7422H64.6172V27.5527H62.3496V29.9961H65.9355ZM57.2168 29.9961H60.1523V27.5527H57.2168V29.9961ZM80.2266 17.6211V25.7246H77.9941V17.6211H80.2266ZM80.2441 26.4102V30.752H71.7363V31.7363H80.6836V33.5117H69.5391V29.082H78.0117V28.1504H69.5039V26.4102H80.2441ZM72.9844 19.2031C72.9668 21.1367 74.127 23 76.7461 23.7559L75.6562 25.4785C73.8193 24.9424 72.5537 23.835 71.8418 22.4199C71.1035 23.9668 69.7939 25.1973 67.8867 25.7598L66.7793 24.002C69.4512 23.2109 70.6465 21.1895 70.6465 19.2031V17.9727H72.9844V19.2031ZM95.8008 17.6211V33.6523H93.5332V17.6211H95.8008ZM85.4473 18.8867V22.7891H88.8926V18.8867H91.1074V29.9082H83.1973V18.8867H85.4473ZM85.4473 28.0977H88.8926V24.5293H85.4473V28.0977ZM116.754 29.9258V31.7539H102.111V29.9258H108.281V26.9727H103.658V18.6406H105.908V21.1191H112.887V18.6406H115.119V26.9727H110.514V29.9258H116.754ZM105.908 25.1797H112.887V22.9121H105.908V25.1797ZM126.756 18.6934V20.4863H123.574C123.592 22.3496 124.708 24.1514 127.266 24.8984L126.193 26.6562C124.427 26.1201 123.205 25.0479 122.502 23.668C121.79 25.2852 120.489 26.5684 118.564 27.2012L117.422 25.4258C120.076 24.5908 121.271 22.5166 121.307 20.4863H118.037V18.6934H126.756ZM130.359 17.6211V21.3301H132.521V23.1582H130.359V27.1133H128.109V17.6211H130.359ZM125.121 27.4297C128.443 27.4121 130.518 28.5547 130.518 30.5059C130.518 32.457 128.443 33.6172 125.121 33.6172C121.729 33.6172 119.637 32.457 119.637 30.5059C119.637 28.5547 121.729 27.4121 125.121 27.4297ZM125.121 29.1699C123.012 29.1699 121.869 29.6094 121.887 30.5059C121.869 31.4199 123.012 31.877 125.121 31.877C127.195 31.877 128.303 31.4199 128.303 30.5059C128.303 29.6094 127.195 29.1699 125.121 29.1699Z" fill="#131416"/>
<path d="M6.5625 45.0586V45.9336H0.464844V45.0586H2.99414V43.3223H4.06055V45.0586H6.5625ZM3.51367 46.7539C5.04492 46.7539 6.13867 47.9023 6.15234 49.5156C6.13867 51.1426 5.04492 52.3047 3.51367 52.3047C1.99609 52.3047 0.902344 51.1426 0.902344 49.5156C0.902344 47.9023 1.99609 46.7539 3.51367 46.7539ZM3.51367 47.6562C2.55664 47.6699 1.85938 48.4492 1.85938 49.5156C1.85938 50.5957 2.55664 51.375 3.51367 51.3613C4.48438 51.375 5.19531 50.5957 5.19531 49.5156C5.19531 48.4492 4.48438 47.6699 3.51367 47.6562ZM10.8418 42.9531V55.1074H9.81641V48.9688H8.20312V54.5059H7.19141V43.2539H8.20312V48.0801H9.81641V42.9531H10.8418ZM16.5703 43.7461C18.4844 43.7598 19.8379 44.9082 19.8379 46.6035C19.8379 48.1348 18.7305 49.2217 17.1035 49.4062V51.4844C18.3066 51.4229 19.5303 51.3203 20.6855 51.1426L20.7676 51.9355C17.9922 52.4551 14.998 52.4688 12.8105 52.4688L12.6602 51.5664C13.6514 51.5664 14.8066 51.5664 16.0234 51.5254V49.4062C14.3965 49.2148 13.2754 48.1348 13.2891 46.6035C13.2754 44.9082 14.6562 43.7598 16.5703 43.7461ZM16.5703 44.6895C15.2715 44.6895 14.3281 45.4688 14.3418 46.6035C14.3281 47.7383 15.2715 48.5312 16.5703 48.5176C17.8555 48.5312 18.7852 47.7383 18.7852 46.6035C18.7852 45.4688 17.8555 44.6895 16.5703 44.6895ZM22.5586 42.9531V55.1348H21.4922V42.9531H22.5586ZM27.959 43.8965C29.0732 43.9033 29.9756 44.5527 30.502 45.6738H33.7012V42.9531H34.7676V55.1348H33.7012V50.418H30.584C30.0713 51.6484 29.1348 52.3594 27.959 52.3594C26.168 52.3594 24.9102 50.7188 24.9102 48.1348C24.9102 45.5508 26.168 43.9102 27.959 43.8965ZM27.959 44.8535C26.7559 44.8672 25.9355 46.1523 25.9355 48.1348C25.9355 50.1172 26.7559 51.4023 27.959 51.4023C29.1484 51.4023 29.9824 50.1172 29.9824 48.1348C29.9824 46.1523 29.1484 44.8672 27.959 44.8535ZM30.8164 46.5762C30.9258 47.0479 30.9941 47.5674 30.9941 48.1348C30.9941 48.6338 30.9395 49.1055 30.8574 49.5293H33.7012V46.5762H30.8164ZM47.1133 42.9531V50.6504H46.0879V47.1641H44.4609V50.2129H43.4492V43.1992H44.4609V46.2754H46.0879V42.9531H47.1133ZM42.957 44.416V45.2773H36.7227V44.416H39.3203V43.0488H40.3867V44.416H42.957ZM39.8535 45.9336C41.3984 45.9336 42.4512 46.7402 42.4648 48.0117C42.4512 49.2559 41.3984 50.0762 39.8535 50.0762C38.3223 50.0762 37.2422 49.2559 37.2559 48.0117C37.2422 46.7402 38.3223 45.9336 39.8535 45.9336ZM39.8535 46.7266C38.8828 46.7266 38.2129 47.2461 38.2129 48.0117C38.2129 48.7637 38.8828 49.2695 39.8535 49.2695C40.8242 49.2695 41.4941 48.7637 41.4941 48.0117C41.4941 47.2461 40.8242 46.7266 39.8535 46.7266ZM43.0938 50.8555C45.6504 50.8555 47.1816 51.6211 47.1816 52.9883C47.1816 54.3145 45.6504 55.0801 43.0938 55.0801C40.5371 55.0801 39.0059 54.3145 39.0195 52.9883C39.0059 51.6211 40.5371 50.8555 43.0938 50.8555ZM43.0938 51.7031C41.207 51.6895 40.0723 52.1543 40.0859 52.9883C40.0723 53.7812 41.207 54.2461 43.0938 54.2461C44.9805 54.2461 46.1016 53.7812 46.1152 52.9883C46.1016 52.1543 44.9805 51.6895 43.0938 51.7031ZM63.4785 48.6406V49.5293H58.4609V50.8281C60.7578 50.9238 62.1113 51.6758 62.125 52.9609C62.1113 54.3145 60.5527 55.0801 57.9414 55.0801C55.3027 55.0801 53.7441 54.3145 53.7441 52.9609C53.7441 51.6758 55.0908 50.9238 57.4082 50.8281V49.5293H52.4043V48.6406H63.4785ZM57.9414 51.6484C55.9863 51.6621 54.8242 52.1406 54.8379 52.9609C54.8242 53.7676 55.9863 54.2461 57.9414 54.2461C59.8691 54.2461 61.0449 53.7676 61.0449 52.9609C61.0449 52.1406 59.8691 51.6621 57.9414 51.6484ZM62.4941 43.5273V44.4023H58.6387C58.707 45.7695 60.7168 46.8291 62.8633 47.0547L62.4668 47.9023C60.4775 47.6631 58.6113 46.7744 57.9414 45.4141C57.2783 46.7744 55.4189 47.6631 53.416 47.9023L53.0332 47.0547C55.1387 46.8291 57.1621 45.7695 57.2441 44.4023H53.416V43.5273H62.4941ZM69.5898 43.4727V45.2227H73.1309V43.4727H74.1973V48.7637H68.5371V43.4727H69.5898ZM69.5898 47.8887H73.1309V46.0566H69.5898V47.8887ZM77.5195 42.9531V45.5918H79.3516V46.4941H77.5195V49.2422H76.4531V42.9531H77.5195ZM77.5195 49.8164V52.7559H70.8477V54.0957H77.9707V54.9707H69.7949V51.9355H76.4531V50.6777H69.7676V49.8164H77.5195ZM83.7402 45.373C83.7402 46.7129 84.6836 48.0801 86.2422 48.668L85.6816 49.4883C84.5127 49.0371 83.6719 48.1689 83.2344 47.123C82.7832 48.2852 81.915 49.3174 80.7188 49.8301L80.1309 48.9961C81.7305 48.2988 82.7148 46.7266 82.7148 45.373V43.7188H83.7402V45.373ZM90.4395 42.9668V50.4727H89.4141V47.123H87.8008V50.0898H86.7891V43.1992H87.8008V46.2344H89.4141V42.9668H90.4395ZM86.4199 50.7461C88.9355 50.7461 90.5078 51.5391 90.5078 52.9199C90.5078 54.2871 88.9355 55.0801 86.4199 55.0801C83.8906 55.0801 82.332 54.2871 82.3457 52.9199C82.332 51.5391 83.8906 50.7461 86.4199 50.7461ZM86.4199 51.5664C84.5605 51.5664 83.3984 52.0723 83.4121 52.9199C83.3984 53.7539 84.5605 54.2461 86.4199 54.2461C88.2656 54.2461 89.4277 53.7539 89.4414 52.9199C89.4277 52.0723 88.2656 51.5664 86.4199 51.5664ZM101.719 42.9668V46.9727H103.551V47.875H101.719V52.0723H100.652V42.9668H101.719ZM99.4902 44.457V45.332H92.2441V44.457H95.334V42.9668H96.4004V44.457H99.4902ZM95.8672 46.002C97.6035 46.002 98.7793 46.8906 98.793 48.2715C98.7793 49.6387 97.6035 50.5137 95.8672 50.5137C94.1172 50.5137 92.9277 49.6387 92.9414 48.2715C92.9277 46.8906 94.1172 46.002 95.8672 46.002ZM95.8672 46.8496C94.7188 46.8496 93.9531 47.4102 93.9668 48.2715C93.9531 49.1328 94.7188 49.6797 95.8672 49.666C97.002 49.6797 97.7676 49.1328 97.7812 48.2715C97.7676 47.4102 97.002 46.8496 95.8672 46.8496ZM102.279 53.9453V54.8477H94.1172V51.3477H95.1699V53.9453H102.279ZM117.865 42.9531V49.4746H116.799V42.9531H117.865ZM111.057 50.0898V51.5664H116.799V50.0898H117.865V54.9434H109.99V50.0898H111.057ZM111.057 54.0684H116.799V52.4277H111.057V54.0684ZM111.303 43.5547C113.148 43.541 114.488 44.6758 114.488 46.3438C114.488 47.998 113.148 49.1328 111.303 49.1328C109.457 49.1328 108.117 47.998 108.117 46.3438C108.117 44.6758 109.457 43.541 111.303 43.5547ZM111.303 44.457C110.059 44.4434 109.156 45.2363 109.17 46.3438C109.156 47.4512 110.059 48.2441 111.303 48.2441C112.533 48.2441 113.436 47.4512 113.436 46.3438C113.436 45.2363 112.533 44.4434 111.303 44.457ZM129.951 42.9668V52.1953H128.871V50.9375H126.355V50.1582H128.871V42.9668H129.951ZM130.252 53.9453V54.8477H121.611V51.293H122.691V53.9453H130.252ZM119.861 48.5996C122.131 48.5859 125.166 48.5723 127.777 48.2441L127.846 49.0234C126.759 49.1943 125.624 49.3037 124.51 49.3652V51.7715H123.43V49.4199C122.199 49.4746 121.03 49.4814 120.012 49.4746L119.861 48.5996ZM123.854 43.459C125.631 43.459 126.848 44.3066 126.861 45.5781C126.848 46.877 125.631 47.6836 123.854 47.6836C122.062 47.6836 120.846 46.877 120.846 45.5781C120.846 44.3066 122.062 43.459 123.854 43.459ZM123.854 44.2793C122.664 44.2656 121.857 44.7988 121.871 45.5781C121.857 46.3711 122.664 46.8906 123.854 46.8906C125.002 46.8906 125.822 46.3711 125.836 45.5781C125.822 44.7988 125.002 44.2656 123.854 44.2793ZM134.025 53.084L132.959 56.8027H131.947L132.699 53.084H134.025ZM150.199 49.4062V50.2812H139.111V49.4062H144.115V48.2031H140.588V43.3086H148.818V44.1836H141.668V45.3184H148.49V46.1387H141.668V47.3418H148.887V48.2031H145.182V49.4062H150.199ZM144.662 51.1973C147.328 51.1836 148.832 51.8672 148.846 53.1387C148.832 54.4102 147.328 55.0801 144.662 55.0801C141.969 55.0801 140.465 54.4102 140.465 53.1387C140.465 51.8672 141.969 51.1836 144.662 51.1973ZM144.662 52.0039C142.652 52.0039 141.531 52.4141 141.545 53.1387C141.531 53.877 142.652 54.2598 144.662 54.2461C146.645 54.2598 147.766 53.877 147.766 53.1387C147.766 52.4141 146.645 52.0039 144.662 52.0039ZM161.246 42.9668V52.1953H160.166V50.9375H157.65V50.1582H160.166V42.9668H161.246ZM161.547 53.9453V54.8477H152.906V51.293H153.986V53.9453H161.547ZM151.156 48.5996C153.426 48.5859 156.461 48.5723 159.072 48.2441L159.141 49.0234C158.054 49.1943 156.919 49.3037 155.805 49.3652V51.7715H154.725V49.4199C153.494 49.4746 152.325 49.4814 151.307 49.4746L151.156 48.5996ZM155.148 43.459C156.926 43.459 158.143 44.3066 158.156 45.5781C158.143 46.877 156.926 47.6836 155.148 47.6836C153.357 47.6836 152.141 46.877 152.141 45.5781C152.141 44.3066 153.357 43.459 155.148 43.459ZM155.148 44.2793C153.959 44.2656 153.152 44.7988 153.166 45.5781C153.152 46.3711 153.959 46.8906 155.148 46.8906C156.297 46.8906 157.117 46.3711 157.131 45.5781C157.117 44.7988 156.297 44.2656 155.148 44.2793ZM165.32 53.084L164.254 56.8027H163.242L163.994 53.084H165.32ZM176.518 44.0879C176.518 45.7969 178.76 47.2871 180.947 47.5879L180.51 48.4629C178.623 48.1484 176.757 47.1025 175.971 45.6055C175.191 47.1094 173.318 48.1484 171.432 48.4629L170.994 47.5879C173.182 47.2871 175.41 45.8242 175.41 44.0879V43.3906H176.518V44.0879ZM181.494 49.8027V50.7051H176.463V55.1074H175.41V50.7051H170.42V49.8027H181.494ZM188.617 43.4863C188.617 45.0039 190.805 46.1523 192.992 46.4258L192.609 47.2461C190.695 46.9932 188.822 46.1318 188.057 44.8125C187.277 46.1318 185.397 46.9932 183.504 47.2461L183.135 46.4258C185.309 46.1523 187.51 45.0039 187.51 43.4863V43.0215H188.617V43.4863ZM193.594 48.0391V48.9141H188.576V50.1309H192.172V52.8926H184.953V54.123H192.541V54.9707H183.887V52.0859H191.119V50.9785H183.859V50.1309H187.51V48.9141H182.52V48.0391H193.594ZM204.641 42.9531V55.1348H203.561V42.9531H204.641ZM196.396 43.9922V47.2051H200.02V43.9922H201.072V52.1953H195.33V43.9922H196.396ZM196.396 51.293H200.02V48.0664H196.396V51.293ZM221.361 52.6602V53.5488H210.232V52.6602H215.236V50.0352H211.545V43.8145H212.625V46.0156H218.941V43.8145H219.994V50.0352H216.289V52.6602H221.361ZM212.625 49.1602H218.941V46.8906H212.625V49.1602ZM226.447 45.2637C226.447 46.8496 227.637 48.2715 229.428 48.8594L228.922 49.707C227.521 49.249 226.461 48.2783 225.941 47.0547C225.415 48.4492 224.294 49.5361 222.838 50.0625L222.291 49.2012C224.109 48.5859 225.381 47.0137 225.395 45.2637V44.7441H222.619V43.8555H229.182V44.7441H226.447V45.2637ZM231.834 42.9531V46.0566H233.666V46.959H231.834V50.2949H230.768V42.9531H231.834ZM227.938 50.623C230.439 50.623 231.943 51.4434 231.943 52.8379C231.943 54.2598 230.439 55.0801 227.938 55.0801C225.436 55.0801 223.904 54.2598 223.904 52.8379C223.904 51.4434 225.436 50.623 227.938 50.623ZM227.938 51.4844C226.105 51.4844 224.971 51.9902 224.984 52.8379C224.971 53.7129 226.105 54.2188 227.938 54.2188C229.783 54.2188 230.904 53.7129 230.904 52.8379C230.904 51.9902 229.783 51.4844 227.938 51.4844ZM1.24414 71.2266C1.25781 68.6426 1.95508 66.4961 3.21289 64.6777H4.25195C3.32227 66.0312 2.46094 68.793 2.46094 71.2266C2.46094 73.6602 3.32227 76.4355 4.25195 77.7891H3.21289C1.95508 75.957 1.25781 73.8105 1.24414 71.2266ZM16.3379 70.3926V71.2539H5.25V70.3926H16.3379ZM14.9023 72.4434V76.1074H13.8086V73.3047H6.49414V72.4434H14.9023ZM15.0254 68.3828V69.2168H6.72656V64.2812H14.957V65.1426H7.80664V66.3047H14.6289V67.1387H7.80664V68.3828H15.0254ZM28.6699 65.8398V66.7148H26.8652V68.4238H28.6699V69.3398H26.8652V71.1855H25.7988V63.9531H26.8652V65.8398H28.6699ZM26.8652 71.7461V76.1074H25.7988V72.6348H18.9082V71.7461H26.8652ZM20.7812 64.6914C22.627 64.6777 23.9668 65.8672 23.9805 67.5488C23.9668 69.2578 22.627 70.4336 20.7812 70.4336C18.9355 70.4336 17.582 69.2578 17.5957 67.5488C17.582 65.8672 18.9355 64.6777 20.7812 64.6914ZM20.7812 65.6074C19.5508 65.6074 18.6348 66.4004 18.6484 67.5488C18.6348 68.7109 19.5508 69.5176 20.7812 69.5039C22.0254 69.5176 22.9277 68.7109 22.9277 67.5488C22.9277 66.4004 22.0254 65.6074 20.7812 65.6074ZM42.3828 63.9531V68.9023H44.3516V69.8047H42.3828V76.1074H41.3164V63.9531H42.3828ZM39.2383 65.2656C39.2383 68.7109 37.625 71.8418 33.6602 73.7969L33.0586 72.9492C36.2031 71.3838 37.9121 69.0459 38.1582 66.168H33.6191V65.2656H39.2383ZM55.1113 63.9531V70.4746H54.0449V63.9531H55.1113ZM48.3027 71.0898V72.5664H54.0449V71.0898H55.1113V75.9434H47.2363V71.0898H48.3027ZM48.3027 75.0684H54.0449V73.4277H48.3027V75.0684ZM48.5488 64.5547C50.3945 64.541 51.7344 65.6758 51.7344 67.3438C51.7344 68.998 50.3945 70.1328 48.5488 70.1328C46.7031 70.1328 45.3633 68.998 45.3633 67.3438C45.3633 65.6758 46.7031 64.541 48.5488 64.5547ZM48.5488 65.457C47.3047 65.4434 46.4023 66.2363 46.416 67.3438C46.4023 68.4512 47.3047 69.2441 48.5488 69.2441C49.7793 69.2441 50.6816 68.4512 50.6816 67.3438C50.6816 66.2363 49.7793 65.4434 48.5488 65.457ZM65.0098 67.2207C64.9961 69.4355 66.5137 71.6777 68.3047 72.4844L67.6484 73.332C66.2676 72.6553 65.0713 71.2266 64.4902 69.4902C63.9229 71.3291 62.7266 72.8604 61.3047 73.5781L60.6211 72.6758C62.4258 71.8418 63.9297 69.5312 63.9434 67.2207V65.0059H65.0098V67.2207ZM70.7109 63.9531V76.1348H69.6309V63.9531H70.7109ZM75.8242 71.2266C75.8105 73.8105 75.1133 75.957 73.8555 77.7891H72.8164C73.7461 76.4355 74.6074 73.6602 74.6074 71.2266C74.6074 68.793 73.7461 66.0312 72.8164 64.6777H73.8555C75.1133 66.4961 75.8105 68.6426 75.8242 71.2266Z" fill="#464C53"/>
<circle cx="298.5" cy="46.0833" r="14.5833" fill="#FA967C"/>
<g style="mix-blend-mode:multiply">
<path d="M308.917 46.0833C308.917 40.3304 304.253 35.6667 298.5 35.6667C292.747 35.6667 288.084 40.3304 288.084 46.0833C288.084 47.2339 287.151 48.1667 286 48.1667C284.85 48.1667 283.917 47.2339 283.917 46.0833C283.917 38.0292 290.446 31.5 298.5 31.5C306.554 31.5 313.084 38.0292 313.084 46.0833C313.084 47.2339 312.151 48.1667 311 48.1667C309.85 48.1667 308.917 47.2339 308.917 46.0833Z" fill="#D63D4A"/>
</g>
<g style="mix-blend-mode:multiply">
<path d="M294.983 43.4042C294.808 42.7896 294.167 42.4337 293.553 42.6093C292.938 42.7849 292.582 43.4255 292.758 44.0401L293.493 46.6157H292.713C292.074 46.6157 291.556 47.1339 291.556 47.7731C291.556 48.4123 292.074 48.9305 292.713 48.9305H294.155L294.742 50.9846C294.879 51.4638 295.307 51.8016 295.805 51.8229C296.303 51.8443 296.759 51.5444 296.936 51.0786L298.5 46.9733L300.064 51.0786C300.241 51.5444 300.697 51.8443 301.195 51.8229C301.693 51.8016 302.122 51.4638 302.258 50.9846L302.845 48.9305H304.287C304.926 48.9305 305.445 48.4123 305.445 47.7731C305.445 47.1339 304.926 46.6157 304.287 46.6157H303.507L304.243 44.0401C304.418 43.4255 304.062 42.7849 303.448 42.6093C302.833 42.4337 302.192 42.7896 302.017 43.4042L300.989 47.0032L299.582 43.3101C299.411 42.8613 298.98 42.5648 298.5 42.5648C298.02 42.5648 297.589 42.8613 297.419 43.3101L296.012 47.0032L294.983 43.4042Z" fill="#D63D4A"/>
</g>
</svg>
