<svg width="40" height="40" viewBox="0 0 40 40" fill="none" xmlns="http://www.w3.org/2000/svg">
<path fill-rule="evenodd" clip-rule="evenodd" d="M20 31.5189C20.847 31.5189 21.305 32.0026 22.1121 32.9585L22.1565 33.0107C22.8835 33.8713 23.9795 35.1701 25.9627 34.9816C27.1454 34.8681 28.2748 34.0462 29.2197 33.0743C30.2045 32.0616 31.1672 30.7083 32.0098 29.2006C33.6839 26.2034 35 22.3865 35 19.0737V18.9715C35 16.0878 35 10.2182 29.3842 7.46169C27.2921 6.43991 25.4869 6.57387 23.9129 6.92355C23.4433 7.03356 22.9763 7.1547 22.5122 7.28685C22.2499 7.35951 22.009 7.4246 21.7897 7.48212C21.2064 7.64802 20.6053 7.73954 20 7.7546C19.4375 7.7546 18.8573 7.64788 18.1992 7.48212C17.9769 7.42763 17.7323 7.36329 17.4655 7.28912C17.0165 7.17105 16.5318 7.03935 16.0805 6.93944C14.5198 6.59431 12.7279 6.45807 10.6781 7.46396C4.99778 10.2523 5 16.0878 5 18.9806V19.0714C5 22.4024 6.41174 26.2329 8.12361 29.2211C8.98622 30.7288 9.95554 32.0775 10.9182 33.0811C11.3984 33.5829 11.8964 34.0189 12.3966 34.3459C12.888 34.666 13.446 34.9249 14.0351 34.9816C16.0182 35.1701 17.1165 33.869 17.8435 33.0107L17.888 32.9585C18.695 32.0049 19.153 31.5189 20 31.5189Z" fill="#FA967C"/>
<path fill-rule="evenodd" clip-rule="evenodd" d="M24.6754 13.1239C24.739 13.2932 24.7685 13.4734 24.7624 13.6542C24.7563 13.835 24.7146 14.0127 24.6398 14.1774C24.5649 14.342 24.4583 14.4903 24.3261 14.6138C24.1939 14.7372 24.0387 14.8334 23.8693 14.8968C22.5104 15.4056 21.33 15.7161 20.09 15.7205C18.8457 15.7227 17.6586 15.4188 16.2865 14.8924C16.1178 14.8276 15.9634 14.7302 15.8323 14.6058C15.7012 14.4813 15.5958 14.3323 15.5223 14.1672C15.4488 14.002 15.4085 13.824 15.4038 13.6433C15.3991 13.4626 15.43 13.2827 15.4948 13.114C15.5595 12.9452 15.6569 12.7909 15.7814 12.6597C15.9058 12.5286 16.0549 12.4233 16.22 12.3498C16.3851 12.2763 16.5631 12.236 16.7438 12.2312C16.9246 12.2265 17.1044 12.2574 17.2732 12.3222C18.4889 12.7891 19.3148 12.9697 20.0812 12.9675C20.8521 12.9631 21.6801 12.7781 22.9047 12.3178C23.2464 12.1901 23.6248 12.2033 23.9568 12.3544C24.2889 12.5056 24.5473 12.7823 24.6754 13.1239Z" fill="#D63D4A"/>
<g style="mix-blend-mode:multiply">
<path d="M36.6663 26.6667C36.6663 30.3486 33.6816 33.3333 29.9997 33.3333C26.3178 33.3333 23.333 30.3486 23.333 26.6667C23.333 22.9848 26.3178 20 29.9997 20C33.6816 20 36.6663 22.9848 36.6663 26.6667Z" fill="white"/>
<path d="M36.6663 26.6667C36.6663 30.3486 33.6816 33.3333 29.9997 33.3333C26.3178 33.3333 23.333 30.3486 23.333 26.6667C23.333 22.9848 26.3178 20 29.9997 20C33.6816 20 36.6663 22.9848 36.6663 26.6667Z" fill="#D63D4A"/>
</g>
<path d="M32.8574 24.2825C33.1578 24.0944 33.5589 24.1364 33.8128 24.4029C34.0666 24.6697 34.0887 25.0724 33.8861 25.3632L33.7868 25.4804L29.7812 29.2906C29.6345 29.43 29.4383 29.506 29.236 29.5005C29.0335 29.4951 28.8412 29.4086 28.7021 29.2613L26.0394 26.4374L25.9466 26.3153C25.7601 26.0141 25.8042 25.6142 26.0719 25.3616C26.3398 25.1089 26.7423 25.0876 27.0322 25.2916L27.1494 25.3925L29.2848 27.6581L32.7353 24.3769L32.8574 24.2825Z" fill="white"/>
</svg>
