<svg width="40" height="40" viewBox="0 0 40 40" fill="none" xmlns="http://www.w3.org/2000/svg">
<g style="mix-blend-mode:multiply">
<path d="M31.1108 9.16675C34.179 9.16675 36.6663 11.3661 36.6663 14.079V27.5878C36.6663 30.3008 34.179 32.5001 31.1108 32.5001H8.88856C5.82031 32.5001 3.33301 30.3008 3.33301 27.5878L3.33301 14.079C3.33301 11.3661 5.82032 9.16675 8.88856 9.16675L31.1108 9.16675Z" fill="#FA967C"/>
<g style="mix-blend-mode:multiply">
<rect x="10" y="7.5" width="20" height="3.33333" rx="1.66667" fill="#D63D4A"/>
</g>
<g style="mix-blend-mode:multiply">
<path d="M28.2705 21.2718C28.2705 20.457 28.1501 19.8274 27.9094 19.3829C27.6779 18.9385 27.3446 18.7163 26.9094 18.7163C26.4743 18.7163 26.1409 18.9385 25.9094 19.3829C25.6872 19.8274 25.5761 20.457 25.5761 21.2718C25.5761 22.0866 25.6872 22.7208 25.9094 23.1745C26.1409 23.6189 26.4743 23.8412 26.9094 23.8412C27.3446 23.8412 27.6779 23.6189 27.9094 23.1745C28.1501 22.7208 28.2705 22.0866 28.2705 21.2718ZM30.6455 21.2718C30.6455 21.9847 30.5529 22.619 30.3677 23.1745C30.1825 23.73 29.9233 24.1976 29.5899 24.5773C29.2659 24.9476 28.8723 25.23 28.4094 25.4245C27.9557 25.6189 27.4603 25.7161 26.9233 25.7161C26.377 25.7161 25.8724 25.6189 25.4095 25.4245C24.9558 25.23 24.5623 24.9476 24.2289 24.5773C23.9049 24.1976 23.6502 23.73 23.4651 23.1745C23.2891 22.619 23.2012 21.9847 23.2012 21.2718C23.2012 20.5588 23.2891 19.9292 23.4651 19.3829C23.6502 18.8274 23.9049 18.3644 24.2289 17.9941C24.5623 17.6144 24.9558 17.3274 25.4095 17.133C25.8724 16.9385 26.377 16.8413 26.9233 16.8413C27.4603 16.8413 27.9557 16.9385 28.4094 17.133C28.8723 17.3274 29.2659 17.6144 29.5899 17.9941C29.9233 18.3644 30.1825 18.8274 30.3677 19.3829C30.5529 19.9292 30.6455 20.5588 30.6455 21.2718Z" fill="#D63D4A"/>
<path d="M19.8477 21.2718C19.8477 20.457 19.7273 19.8274 19.4866 19.3829C19.2551 18.9385 18.9218 18.7163 18.4866 18.7163C18.0514 18.7163 17.7181 18.9385 17.4866 19.3829C17.2644 19.8274 17.1533 20.457 17.1533 21.2718C17.1533 22.0866 17.2644 22.7208 17.4866 23.1745C17.7181 23.6189 18.0514 23.8412 18.4866 23.8412C18.9218 23.8412 19.2551 23.6189 19.4866 23.1745C19.7273 22.7208 19.8477 22.0866 19.8477 21.2718ZM22.2226 21.2718C22.2226 21.9847 22.13 22.619 21.9448 23.1745C21.7597 23.73 21.5004 24.1976 21.1671 24.5773C20.843 24.9476 20.4495 25.23 19.9865 25.4245C19.5328 25.6189 19.0375 25.7161 18.5005 25.7161C17.9542 25.7161 17.4496 25.6189 16.9866 25.4245C16.5329 25.23 16.1394 24.9476 15.8061 24.5773C15.482 24.1976 15.2274 23.73 15.0422 23.1745C14.8663 22.619 14.7783 21.9847 14.7783 21.2718C14.7783 20.5588 14.8663 19.9292 15.0422 19.3829C15.2274 18.8274 15.482 18.3644 15.8061 17.9941C16.1394 17.6144 16.5329 17.3274 16.9866 17.133C17.4496 16.9385 17.9542 16.8413 18.5005 16.8413C19.0375 16.8413 19.5328 16.9385 19.9865 17.133C20.4495 17.3274 20.843 17.6144 21.1671 17.9941C21.5004 18.3644 21.7597 18.8274 21.9448 19.3829C22.13 19.9292 22.2226 20.5588 22.2226 21.2718Z" fill="#D63D4A"/>
<path d="M11.6367 16.9844C12.1756 16.6734 12.8647 16.8577 13.1758 17.3965C13.2924 17.5985 13.3395 17.8217 13.3242 18.0381V24.5615C13.3241 25.1837 12.8194 25.6875 12.1973 25.6875C11.5752 25.6874 11.0704 25.1836 11.0703 24.5615V19.9131L11.042 19.9297C10.5031 20.2408 9.81405 20.0555 9.50293 19.5166C9.19199 18.9778 9.37624 18.2886 9.91504 17.9775L11.6367 16.9844Z" fill="#D63D4A"/>
</g>
</g>
</svg>
