<svg width="40" height="40" viewBox="0 0 40 40" fill="none" xmlns="http://www.w3.org/2000/svg">
<g style="mix-blend-mode:multiply">
<path d="M31.1108 5C34.179 5 36.6663 7.1993 36.6663 9.91228V23.4211C36.6663 26.134 34.179 28.3333 31.1108 28.3333H8.88856C5.82031 28.3333 3.33301 26.134 3.33301 23.4211L3.33301 9.91228C3.33301 7.1993 5.82032 5 8.88856 5L31.1108 5Z" fill="#FA967C"/>
<g style="mix-blend-mode:multiply">
<path d="M18.333 28.333C18.333 27.6427 18.8927 27.083 19.583 27.083C20.2734 27.083 20.833 27.6427 20.833 28.333V32.4997C20.833 33.19 20.2734 33.7497 19.583 33.7497C18.8927 33.7497 18.333 33.19 18.333 32.4997L18.333 28.333Z" fill="#D63D4A"/>
</g>
<path d="M23.333 31.667C24.0234 31.667 24.583 32.2266 24.583 32.917C24.583 33.6073 24.0234 34.167 23.333 34.167L15.833 34.167C15.1427 34.167 14.583 33.6073 14.583 32.917C14.583 32.2266 15.1427 31.667 15.833 31.667L23.333 31.667Z" fill="#D63D4A"/>
<path d="M6.66699 11.6663C6.66699 9.82539 8.15938 8.33301 10.0003 8.33301H30.0003C31.8413 8.33301 33.3337 9.82539 33.3337 11.6663V21.6663C33.3337 23.5073 31.8413 24.9997 30.0003 24.9997H10.0003C8.15937 24.9997 6.66699 23.5073 6.66699 21.6663V11.6663Z" fill="#D63D4A"/>
<path fill-rule="evenodd" clip-rule="evenodd" d="M23.1049 15.2336C23.4164 15.5452 23.4164 16.0502 23.1049 16.3617L20.2042 19.2624C19.8927 19.5739 19.3876 19.5739 19.0761 19.2624L16.9006 17.0869C16.5891 16.7754 16.5891 16.2703 16.9006 15.9588C17.2121 15.6473 17.7172 15.6473 18.0287 15.9588L19.6402 17.5703L21.9768 15.2336C22.2883 14.9221 22.7934 14.9221 23.1049 15.2336Z" fill="white"/>
</g>
</svg>
