<svg width="41" height="40" viewBox="0 0 41 40" fill="none" xmlns="http://www.w3.org/2000/svg">
<ellipse cx="20.2134" cy="31.0932" rx="18.963" ry="3.55556" fill="#FDCFC3"/>
<path d="M32.7084 24.5389C32.0002 28.773 29.4663 31.6975 20.4003 31.6975C11.3342 31.6975 8.8003 28.773 8.09209 24.5389C7.73347 24.4378 7.38696 24.2803 7.06607 24.0664L6.09733 23.4205C5.59969 23.0888 5.30078 22.5303 5.30078 21.9322V20.8668C5.30078 15.8132 7.71887 11.0646 11.806 8.09215C12.0759 7.89579 12.4063 7.79003 12.7401 7.79003C13.2274 7.79003 13.6536 7.99146 13.9573 8.30415C15.8419 7.17853 18.0456 6.53174 20.4003 6.53174C22.755 6.53174 24.9586 7.17853 26.8432 8.30415C27.1469 7.99146 27.5731 7.79003 28.0604 7.79003C28.3942 7.79003 28.7246 7.89579 28.9945 8.09215C33.0816 11.0646 35.4997 15.8132 35.4997 20.8668V21.9322C35.4997 22.5303 35.2008 23.0888 34.7032 23.4205L33.7344 24.0664C33.4136 24.2803 33.067 24.4378 32.7084 24.5389Z" fill="white"/>
<path d="M32.9827 19.1146C32.9827 26.064 32.9827 31.6975 20.3998 31.6975C7.81689 31.6975 7.81689 26.064 7.81689 19.1146C7.81689 12.1653 13.4504 6.53174 20.3998 6.53174C27.3491 6.53174 32.9827 12.1653 32.9827 19.1146Z" fill="#FA967C"/>
<ellipse cx="17.5685" cy="24.7771" rx="2.83115" ry="1.88743" fill="white"/>
<ellipse cx="23.2311" cy="24.7771" rx="2.83115" ry="1.88743" fill="white"/>
<path d="M17.2539 19.1138C17.2539 19.8087 16.6905 20.372 15.9956 20.372C15.3007 20.372 14.7373 19.8087 14.7373 19.1138C14.7373 18.4188 15.3007 17.8555 15.9956 17.8555C16.6905 17.8555 17.2539 18.4188 17.2539 19.1138Z" fill="#D63D4A"/>
<path d="M22.9162 22.5741C22.9162 23.6165 21.7895 24.4615 20.3996 24.4615C19.0097 24.4615 17.883 23.6165 17.883 22.5741C17.883 21.5317 19.0097 20.6866 20.3996 20.6866C21.7895 20.6866 22.9162 21.5317 22.9162 22.5741Z" fill="#D63D4A"/>
<path d="M24.8036 20.372C25.4986 20.372 26.0619 19.8087 26.0619 19.1138C26.0619 18.4188 25.4986 17.8555 24.8036 17.8555C24.1087 17.8555 23.5453 18.4188 23.5453 19.1138C23.5453 19.8087 24.1087 20.372 24.8036 20.372Z" fill="#D63D4A"/>
<path d="M15.4763 6.70168C16.7169 6.38155 17.5474 7.94744 16.5866 8.79493L16.4728 8.8953C13.4957 11.5213 11.6252 15.1786 11.2387 19.1295L11.0731 20.8219C11.0017 21.5515 10.6953 22.2381 10.2 22.7785C8.34344 24.8039 4.97462 23.8886 4.39819 21.2023L4.2347 20.4404C4.15503 20.0691 4.14407 19.6863 4.20239 19.3111L4.23389 19.1084C5.16778 13.0989 9.58767 8.22131 15.4763 6.70168Z" fill="#D63D4A"/>
<path d="M25.3243 6.70168C24.0838 6.38155 23.2532 7.94744 24.2141 8.79493L24.3278 8.8953C27.305 11.5213 29.1755 15.1786 29.562 19.1295L29.7275 20.8219C29.7989 21.5515 30.1053 22.2381 30.6007 22.7785C32.4572 24.8039 35.826 23.8886 36.4025 21.2023L36.566 20.4404C36.6456 20.0691 36.6566 19.6863 36.5983 19.3111L36.5668 19.1084C35.6329 13.0989 31.213 8.22131 25.3243 6.70168Z" fill="#D63D4A"/>
</svg>
