<svg width="24" height="24" viewBox="0 0 24 24" fill="none" xmlns="http://www.w3.org/2000/svg">
<g style="mix-blend-mode:multiply">
<path fill-rule="evenodd" clip-rule="evenodd" d="M5.41251 5.97643C5.67617 5.03283 6.45655 4.32706 7.43121 4.22732C8.52316 4.11558 10.1361 4 12.1365 4C14.137 4 15.7499 4.11558 16.8419 4.22732C17.8165 4.32706 18.5969 5.03283 18.8606 5.97643L19.9382 9.83302C19.9447 9.85662 19.9509 9.88018 19.9567 9.90369L21.3923 9.70194C21.8923 9.63166 22.3547 9.98006 22.425 10.4801C22.5655 11.4802 21.8687 12.405 20.8686 12.5455C20.7643 12.5602 20.6867 12.6494 20.6867 12.7547V19.5428C20.6867 19.7953 20.482 20 20.2295 20H17.4865C17.234 20 17.0293 19.7953 17.0293 19.5428V17.713C17.0293 17.4605 16.8246 17.2558 16.5722 17.2558H7.42632C7.17383 17.2558 6.96915 17.4605 6.96915 17.713V19.5428C6.96915 19.7953 6.76447 20 6.51198 20H3.76897C3.51648 20 3.31179 19.7953 3.31179 19.5428V12.6841C3.31179 12.6188 3.26368 12.5634 3.199 12.5543L3.13104 12.5448C2.13092 12.4042 1.43411 11.4795 1.57466 10.4794C1.64494 9.97935 2.1073 9.63094 2.60736 9.70122L4.30775 9.94019C4.31587 9.90458 4.32493 9.86884 4.33494 9.83302L5.41251 5.97643ZM14.3249 7.44133C14.6248 7.14143 14.6248 6.6552 14.3249 6.3553C14.025 6.0554 13.5388 6.0554 13.2389 6.3553L10.1828 9.4114C9.96312 9.63103 9.89742 9.96133 10.0163 10.2483C10.1351 10.5353 10.4152 10.7224 10.7258 10.7224H11.9279L9.16406 13.4862C8.86416 13.7861 8.86416 14.2723 9.16406 14.5722C9.46396 14.8721 9.95019 14.8721 10.2501 14.5722L14.3249 10.4974C14.5445 10.2778 14.6102 9.9475 14.4914 9.66053C14.3725 9.37357 14.0925 9.18647 13.7819 9.18647H12.5797L14.3249 7.44133Z" fill="#6D7882"/>
</g>
</svg>
