<svg width="40" height="40" viewBox="0 0 40 40" fill="none" xmlns="http://www.w3.org/2000/svg">
<ellipse cx="19.713" cy="31.0927" rx="18.963" ry="3.55556" fill="#FDCFC3"/>
<path d="M5.43924 18.5509C4.63432 18.1529 3.85582 19.1343 4.42652 19.8276L8.31397 24.5497C8.37242 24.6207 8.41871 24.7009 8.45097 24.787L10.5968 30.5148C10.9118 31.3556 12.151 31.1721 12.2088 30.276L12.6966 22.7114C12.7183 22.3757 12.5359 22.0598 12.2344 21.9107L5.43924 18.5509Z" fill="#D63D4A"/>
<path d="M27.3211 15.2968C27.2218 14.3588 26.7299 13.5068 25.9673 12.9519L14.9534 4.93888C14.3078 4.46916 13.4461 4.42372 12.7547 4.82293C11.7883 5.38083 11.4572 6.61647 12.0152 7.58279L24.9948 30.0642C25.5527 31.0305 26.7883 31.3616 27.7547 30.8037C28.4461 30.4045 28.8376 29.6355 28.7536 28.8415L27.3211 15.2968Z" fill="#D63D4A"/>
<path d="M22.4629 11.3204C24.8058 9.61096 27.7097 8.85332 30.5891 9.20024C32.4856 9.42873 33.6317 11.4138 32.8813 13.1705C31.7421 15.8376 29.634 17.9736 26.9821 19.1479L11.9372 25.81C10.6371 26.3857 9.11221 25.8885 8.4013 24.6572C7.69039 23.4259 8.02228 21.8567 9.17087 21.0186L22.4629 11.3204Z" fill="#FA967C"/>
<path d="M26.1887 11.0816C25.9217 11.1866 25.8276 11.5066 25.9711 11.7551L28.3596 15.8921C28.503 16.1406 28.8272 16.2191 29.0517 16.0403C29.9068 15.3592 30.5648 14.4276 30.9517 13.3263C31.3238 12.2671 30.5926 11.0005 29.4892 10.7932C28.342 10.5776 27.2062 10.6816 26.1887 11.0816Z" fill="white"/>
</svg>
