<svg width="24" height="24" viewBox="0 0 24 24" fill="none" xmlns="http://www.w3.org/2000/svg">
<path d="M15.4517 2.90771C14.6098 2.7022 14.1355 3.82152 14.8373 4.33175C17.1809 6.03557 18.721 8.68042 19.0064 11.551L19.1096 12.5899C19.1415 12.9104 19.2564 13.2178 19.4431 13.4818C20.373 14.7964 22.4157 14.4048 22.7705 12.8439L22.9493 12.0575C23.0072 11.8027 23.0157 11.5389 22.9744 11.2802L22.9302 11.0035C22.2997 7.05526 19.3467 3.85843 15.4517 2.90771Z" fill="#6D7882"/>
<path d="M8.54841 2.90864C9.39035 2.70314 9.86466 3.82245 9.16284 4.33269C6.81925 6.03651 5.27911 8.68136 4.99376 11.5519L4.89049 12.5908C4.85862 12.9114 4.74368 13.2188 4.55698 13.4827C3.62711 14.7973 1.58442 14.4057 1.2296 12.8448L1.05084 12.0584C0.992933 11.8037 0.984404 11.5399 1.02571 11.2812L1.0699 11.0044C1.70036 7.05619 4.65344 3.85936 8.54841 2.90864Z" fill="#6D7882"/>
<path fill-rule="evenodd" clip-rule="evenodd" d="M10.3486 3.06278C10.5907 3.72467 10.452 4.57793 9.72547 5.1061C7.598 6.65281 6.20358 9.05284 5.94578 11.6462L5.8425 12.6851C5.79419 13.1711 5.62005 13.6362 5.33807 14.0348C4.75788 14.8551 3.8828 15.237 3.01925 15.2318C3.38063 18.6551 4.97412 21.0875 12.0005 21.0875C19.0269 21.0875 20.6204 18.6551 20.9818 15.2318C20.118 15.2372 19.2426 14.8553 18.6622 14.0348C18.3803 13.6362 18.2061 13.1711 18.1578 12.6851L18.0545 11.6462C17.7967 9.05284 16.4023 6.65281 14.2748 5.1061C13.5483 4.5779 13.4096 3.72456 13.6517 3.06266C13.1162 2.96437 12.5644 2.91301 12.0005 2.91301C11.4364 2.91301 10.8843 2.96441 10.3486 3.06278ZM9.02456 13.6391C9.49415 13.6391 9.87483 13.272 9.87483 12.8192C9.87483 12.3664 9.49415 11.9993 9.02456 11.9993C8.55497 11.9993 8.17429 12.3664 8.17429 12.8192C8.17429 13.272 8.55497 13.6391 9.02456 13.6391ZM12.0005 16.3038C12.9397 16.3038 13.701 15.7532 13.701 15.074C13.701 14.3947 12.9397 13.8441 12.0005 13.8441C11.0613 13.8441 10.3 14.3947 10.3 15.074C10.3 15.7532 11.0613 16.3038 12.0005 16.3038ZM14.9764 13.6391C15.446 13.6391 15.8267 13.272 15.8267 12.8192C15.8267 12.3664 15.446 11.9993 14.9764 11.9993C14.5069 11.9993 14.1262 12.3664 14.1262 12.8192C14.1262 13.272 14.5069 13.6391 14.9764 13.6391Z" fill="#6D7882"/>
</svg>
