<svg width="24" height="24" viewBox="0 0 24 24" fill="none" xmlns="http://www.w3.org/2000/svg">
<path d="M3.34606 3.35171C4.27762 2.99256 6.29907 3.8156 7.5736 4.74429C6.02766 5.36977 4.74731 6.32919 3.74059 7.52847C3.30061 8.05268 2.91775 8.61906 2.58824 9.21597C3.10013 6.38692 2.11965 3.82539 3.34606 3.35171Z" fill="#6D7882"/>
<path d="M16.3949 4.73062C17.6703 3.80736 19.6776 2.99429 20.6048 3.35171C21.8141 3.81835 20.8789 6.31394 21.3421 9.09487C21.0282 8.54282 20.67 8.01685 20.2601 7.52847C19.2465 6.32083 17.9552 5.35586 16.3949 4.73062Z" fill="#6D7882"/>
<path fill-rule="evenodd" clip-rule="evenodd" d="M12 4.88458C18.7857 4.88458 22 10.0405 22 15.4676C21.9999 17.9569 20.9741 19.7515 19.3691 20.9656C17.8107 22.1446 15.7463 21.927 13.833 21.7254C13.2436 21.6633 12.6298 21.6297 12 21.6297C11.3702 21.6297 10.7565 21.6633 10.167 21.7254C8.25301 21.9269 6.18756 22.1446 4.62891 20.9647C3.02497 19.7504 2.00012 17.956 2 15.4676C2 10.0405 5.21429 4.88458 12 4.88458ZM12 14.4988C11.1716 14.4988 10.5 14.9465 10.5 15.4988C10.5004 16.0509 11.1718 16.4988 12 16.4988C12.8282 16.4988 13.4996 16.0509 13.5 15.4988C13.5 14.9465 12.8284 14.4988 12 14.4988ZM8.75 11.8367C8.24184 11.8369 7.83031 12.2495 7.83008 12.7576C7.83022 13.2658 8.24179 13.6783 8.75 13.6785C9.25811 13.6782 9.67075 13.2658 9.6709 12.7576C9.67067 12.2495 9.25806 11.837 8.75 11.8367ZM15.1953 11.8367C14.687 11.8367 14.2737 12.2494 14.2734 12.7576C14.2736 13.266 14.6869 13.6785 15.1953 13.6785C15.7032 13.6779 16.1151 13.2656 16.1152 12.7576C16.115 12.2497 15.7031 11.8373 15.1953 11.8367Z" fill="#6D7882"/>
</svg>
