<svg width="41" height="40" viewBox="0 0 41 40" fill="none" xmlns="http://www.w3.org/2000/svg">
<g clip-path="url(#clip0_2758_50361)">
<ellipse cx="20.213" cy="31.0922" rx="18.963" ry="3.55556" fill="#FDCFC3"/>
<path fill-rule="evenodd" clip-rule="evenodd" d="M14.3768 7.38916C13.9219 7.38932 13.4751 7.51936 13.0818 7.76611C12.6884 8.01286 12.3624 8.36755 12.1368 8.79425L7.5174 17.5273C7.29421 17.9488 7.17679 18.4259 7.17676 18.9115V25.1814C7.17679 25.614 7.27 26.0406 7.44902 26.4276L8.8916 29.5444C9.10586 30.0077 9.43532 30.3973 9.84305 30.6696C10.2508 30.9419 10.7206 31.0861 11.2 31.0861H12.338C13.0225 31.0861 13.6789 30.7924 14.1628 30.2696C14.6468 29.7468 14.9187 29.0376 14.9187 28.2983H25.2413C25.2413 29.0376 25.5132 29.7468 25.9971 30.2696C26.4811 30.7924 27.1375 31.0861 27.8219 31.0861H28.96C29.4393 31.0861 29.9092 30.9419 30.3169 30.6696C30.7246 30.3973 31.0541 30.0077 31.2684 29.5444L32.7109 26.4276C32.8903 26.0415 32.9832 25.6135 32.9832 25.1814V18.9115C32.9832 18.4259 32.8658 17.9488 32.6426 17.5273L28.0232 8.79425C27.7976 8.36755 27.4716 8.01286 27.0782 7.76611C26.6848 7.51936 26.2381 7.38932 25.7832 7.38916H14.3768Z" fill="#FA967C"/>
<g style="mix-blend-mode:multiply">
<path d="M10.0341 30.8125C9.62635 30.5402 9.29689 30.1506 9.08262 29.6873L8.36133 28.1289H32.1807L31.4594 29.6873C31.2451 30.1506 30.9157 30.5402 30.5079 30.8125C30.1002 31.0848 29.6303 31.229 29.151 31.229H28.0129C27.3285 31.229 26.6721 30.9353 26.1881 30.4125C25.7042 29.8897 25.4323 29.1805 25.4323 28.4412H15.1097C15.1097 29.1805 14.8378 29.8897 14.3539 30.4125C13.8699 30.9353 13.2135 31.229 12.5291 31.229H11.391C10.9117 31.229 10.4418 31.0848 10.0341 30.8125Z" fill="#D63D4A"/>
</g>
<g style="mix-blend-mode:multiply">
<path d="M11.1759 16.3583L13.7042 10.6694C13.8184 10.4126 14.073 10.2471 14.3541 10.2471H26.0718C26.3528 10.2471 26.6075 10.4126 26.7216 10.6694L29.25 16.3583C29.459 16.8285 29.1148 17.3582 28.6002 17.3582H11.8257C11.3111 17.3582 10.9669 16.8285 11.1759 16.3583Z" fill="#D63D4A"/>
</g>
<path fill-rule="evenodd" clip-rule="evenodd" d="M13.6957 24.5731C14.6776 24.5731 15.4735 23.7772 15.4735 22.7954C15.4735 21.8135 14.6776 21.0176 13.6957 21.0176C12.7139 21.0176 11.918 21.8135 11.918 22.7954C11.918 23.7772 12.7139 24.5731 13.6957 24.5731ZM26.7329 24.5731C27.7147 24.5731 28.5106 23.7772 28.5106 22.7954C28.5106 21.8135 27.7147 21.0176 26.7329 21.0176C25.751 21.0176 24.9551 21.8135 24.9551 22.7954C24.9551 23.7772 25.751 24.5731 26.7329 24.5731Z" fill="white"/>
</g>
<g style="mix-blend-mode:multiply">
<path fill-rule="evenodd" clip-rule="evenodd" d="M28.0919 5.20012C27.9341 5.34178 27.7689 5.47497 27.5969 5.59913C27.2989 5.79913 26.9639 5.93714 26.6119 6.00714C26.4589 6.03714 26.2989 6.05014 25.9799 6.07514C25.1789 6.13914 24.7779 6.17114 24.4438 6.28915C24.0618 6.4238 23.7149 6.64237 23.4284 6.92878C23.142 7.2152 22.9235 7.56217 22.7888 7.94419C22.6708 8.2782 22.6388 8.67921 22.5748 9.48023C22.5633 9.69195 22.5406 9.90292 22.5068 10.1122C22.4368 10.4643 22.2988 10.7993 22.0988 11.0973C22.0118 11.2273 21.9078 11.3493 21.6998 11.5923C21.1788 12.2043 20.9178 12.5103 20.7648 12.8303C20.4117 13.5703 20.4117 14.4304 20.7648 15.1704C20.9178 15.4904 21.1788 15.7964 21.6998 16.4084C21.9078 16.6514 22.0118 16.7734 22.0988 16.9034C22.2988 17.2014 22.4368 17.5364 22.5068 17.8884C22.5368 18.0414 22.5498 18.2014 22.5748 18.5205C22.6388 19.3215 22.6708 19.7225 22.7888 20.0565C22.9235 20.4385 23.142 20.7855 23.4284 21.0719C23.7149 21.3583 24.0618 21.5769 24.4438 21.7115C24.7779 21.8295 25.1789 21.8615 25.9799 21.9255C26.2989 21.9505 26.4589 21.9635 26.6119 21.9935C26.9639 22.0635 27.2989 22.2025 27.5969 22.4015C27.7269 22.4886 27.8489 22.5926 28.0919 22.8006C28.704 23.3216 29.01 23.5826 29.33 23.7356C30.07 24.0886 30.93 24.0886 31.67 23.7356C31.99 23.5826 32.296 23.3216 32.9081 22.8006C33.1511 22.5926 33.2731 22.4886 33.4031 22.4015C33.7011 22.2015 34.0361 22.0635 34.3881 21.9935C34.5411 21.9635 34.7011 21.9505 35.0201 21.9255C35.8211 21.8615 36.2221 21.8295 36.5562 21.7115C36.9382 21.5769 37.2851 21.3583 37.5716 21.0719C37.858 20.7855 38.0765 20.4385 38.2112 20.0565C38.3292 19.7225 38.3612 19.3215 38.4252 18.5205C38.4502 18.2014 38.4632 18.0414 38.4932 17.8884C38.5632 17.5364 38.7022 17.2014 38.9012 16.9034C38.9882 16.7734 39.0922 16.6514 39.3002 16.4084C39.8212 15.7964 40.0822 15.4904 40.2352 15.1704C40.5883 14.4304 40.5883 13.5703 40.2352 12.8303C40.0822 12.5103 39.8212 12.2043 39.3002 11.5923C39.1586 11.4344 39.0254 11.2692 38.9012 11.0973C38.7011 10.7993 38.5624 10.4644 38.4932 10.1122C38.4594 9.90292 38.4367 9.69195 38.4252 9.48023C38.3612 8.67921 38.3292 8.2782 38.2112 7.94419C38.0765 7.56217 37.858 7.2152 37.5716 6.92878C37.2851 6.64237 36.9382 6.4238 36.5562 6.28915C36.2221 6.17114 35.8211 6.13914 35.0201 6.07514C34.8084 6.06366 34.5974 6.04096 34.3881 6.00714C34.0359 5.93796 33.701 5.79925 33.4031 5.59913C33.2311 5.47497 33.0659 5.34178 32.9081 5.20012C32.296 4.67911 31.99 4.4181 31.67 4.2651C31.3048 4.09026 30.905 3.99951 30.5 3.99951C30.095 3.99951 29.6952 4.09026 29.33 4.2651C29.01 4.4181 28.704 4.67911 28.0919 5.20012ZM34.3311 10.1702C34.4834 10.3229 34.5689 10.5297 34.5689 10.7453C34.5689 10.9609 34.4834 11.1677 34.3311 11.3203L27.8199 17.8324C27.7457 17.9136 27.6559 17.979 27.5557 18.0245C27.4556 18.07 27.3473 18.0947 27.2373 18.0972C27.1274 18.0997 27.018 18.0798 26.916 18.0389C26.8139 17.9979 26.7211 17.9367 26.6434 17.859C26.5656 17.7812 26.5044 17.6885 26.4635 17.5864C26.4225 17.4843 26.4027 17.375 26.4052 17.265C26.4076 17.1551 26.4324 17.0467 26.4779 16.9466C26.5234 16.8465 26.5887 16.7566 26.6699 16.6824L33.1801 10.1712C33.3327 10.0189 33.5395 9.93341 33.7551 9.93341C33.9707 9.93341 34.1775 10.0189 34.3301 10.1712M34.2971 16.7144C34.2971 17.0022 34.1828 17.2782 33.9793 17.4816C33.7758 17.6851 33.4998 17.7994 33.2121 17.7994C32.9243 17.7994 32.6483 17.6851 32.4448 17.4816C32.2414 17.2782 32.127 17.0022 32.127 16.7144C32.127 16.4266 32.2414 16.1507 32.4448 15.9472C32.6483 15.7437 32.9243 15.6294 33.2121 15.6294C33.4998 15.6294 33.7758 15.7437 33.9793 15.9472C34.1828 16.1507 34.2971 16.4266 34.2971 16.7144ZM27.7869 12.3743C28.0747 12.3743 28.3507 12.26 28.5542 12.0565C28.7576 11.853 28.872 11.577 28.872 11.2893C28.872 11.0015 28.7576 10.7255 28.5542 10.522C28.3507 10.3186 28.0747 10.2042 27.7869 10.2042C27.4992 10.2042 27.2232 10.3186 27.0197 10.522C26.8162 10.7255 26.7019 11.0015 26.7019 11.2893C26.7019 11.577 26.8162 11.853 27.0197 12.0565C27.2232 12.26 27.4992 12.3743 27.7869 12.3743Z" fill="#D63D4A"/>
</g>
<defs>
<clipPath id="clip0_2758_50361">
<rect width="40" height="30.6667" fill="white" transform="translate(0.361328 7.16553)"/>
</clipPath>
</defs>
</svg>
