<svg width="40" height="40" viewBox="0 0 40 40" fill="none" xmlns="http://www.w3.org/2000/svg">
<ellipse cx="19.713" cy="31.0929" rx="18.963" ry="3.55556" fill="#FDCFC3"/>
<path d="M3.65381 8.53191C2.64752 8.83852 2.08031 9.90284 2.38691 10.9091L3.49423 14.5434C3.49522 14.5468 3.49624 14.5502 3.49727 14.5536L5.44034 20.9308C7.5866 27.9749 15.0368 31.9453 22.0809 29.7991L24.814 28.9663C30.3487 27.28 33.4683 21.4262 31.782 15.8916C30.0956 10.357 24.2419 7.23731 18.7072 8.92365L11.419 11.1443C10.4127 11.4509 9.34841 10.8837 9.0418 9.87739L8.76413 8.96607C8.45753 7.95977 7.39321 7.39256 6.38691 7.69917L3.65381 8.53191Z" fill="#D63D4A"/>
<path d="M4.32998 17.2867C3.71677 15.2741 4.85119 13.1455 6.86378 12.5322L18.7072 8.92369C24.2418 7.23734 30.0956 10.357 31.7819 15.8916C33.4683 21.4263 30.3486 27.28 24.814 28.9664L22.0809 29.7991C15.0368 31.9454 7.58656 27.9749 5.44031 20.9308L4.32998 17.2867Z" fill="#FA967C"/>
<path d="M11.7394 21.9984C11.5861 21.4953 11.8697 20.9631 12.3728 20.8098L25.1272 16.9237C25.6304 16.7704 26.1626 17.054 26.3159 17.5571C26.4692 18.0603 26.1856 18.5924 25.6824 18.7457L12.928 22.6319C12.4248 22.7852 11.8927 22.5016 11.7394 21.9984Z" fill="white"/>
<path d="M14.6717 25.0874C14.5184 24.5843 14.802 24.0521 15.3052 23.8988L24.4155 21.123C24.9186 20.9697 25.4508 21.2533 25.6041 21.7565C25.7574 22.2596 25.4738 22.7918 24.9707 22.9451L15.8603 25.7209C15.3572 25.8742 14.825 25.5906 14.6717 25.0874Z" fill="white"/>
<circle cx="30.3337" cy="23.3334" r="6.66667" fill="#D63D4A"/>
<g filter="url(#filter0_i_97_5390)">
<circle cx="32.8335" cy="23.3335" r="1.25" fill="#D63D4A"/>
</g>
<g filter="url(#filter1_i_97_5390)">
<circle cx="30.3335" cy="26.6667" r="1.25" fill="#D63D4A"/>
</g>
<g filter="url(#filter2_i_97_5390)">
<circle cx="32.0835" cy="26.25" r="1.25" fill="#D63D4A"/>
</g>
<g filter="url(#filter3_i_97_5390)">
<circle cx="31.0835" cy="23.75" r="1.25" fill="#D63D4A"/>
</g>
<defs>
<filter id="filter0_i_97_5390" x="31.5835" y="22.0835" width="2.5" height="2.5" filterUnits="userSpaceOnUse" color-interpolation-filters="sRGB">
<feFlood flood-opacity="0" result="BackgroundImageFix"/>
<feBlend mode="normal" in="SourceGraphic" in2="BackgroundImageFix" result="shape"/>
<feColorMatrix in="SourceAlpha" type="matrix" values="0 0 0 0 0 0 0 0 0 0 0 0 0 0 0 0 0 0 127 0" result="hardAlpha"/>
<feOffset dx="-0.25" dy="-0.5"/>
<feComposite in2="hardAlpha" operator="arithmetic" k2="-1" k3="1"/>
<feColorMatrix type="matrix" values="0 0 0 0 1 0 0 0 0 1 0 0 0 0 1 0 0 0 0.5 0"/>
<feBlend mode="normal" in2="shape" result="effect1_innerShadow_97_5390"/>
</filter>
<filter id="filter1_i_97_5390" x="29.0835" y="25.4167" width="2.5" height="2.5" filterUnits="userSpaceOnUse" color-interpolation-filters="sRGB">
<feFlood flood-opacity="0" result="BackgroundImageFix"/>
<feBlend mode="normal" in="SourceGraphic" in2="BackgroundImageFix" result="shape"/>
<feColorMatrix in="SourceAlpha" type="matrix" values="0 0 0 0 0 0 0 0 0 0 0 0 0 0 0 0 0 0 127 0" result="hardAlpha"/>
<feOffset dx="-0.25" dy="-0.5"/>
<feComposite in2="hardAlpha" operator="arithmetic" k2="-1" k3="1"/>
<feColorMatrix type="matrix" values="0 0 0 0 1 0 0 0 0 1 0 0 0 0 1 0 0 0 0.5 0"/>
<feBlend mode="normal" in2="shape" result="effect1_innerShadow_97_5390"/>
</filter>
<filter id="filter2_i_97_5390" x="30.8335" y="25" width="2.5" height="2.5" filterUnits="userSpaceOnUse" color-interpolation-filters="sRGB">
<feFlood flood-opacity="0" result="BackgroundImageFix"/>
<feBlend mode="normal" in="SourceGraphic" in2="BackgroundImageFix" result="shape"/>
<feColorMatrix in="SourceAlpha" type="matrix" values="0 0 0 0 0 0 0 0 0 0 0 0 0 0 0 0 0 0 127 0" result="hardAlpha"/>
<feOffset dx="-0.25" dy="-0.5"/>
<feComposite in2="hardAlpha" operator="arithmetic" k2="-1" k3="1"/>
<feColorMatrix type="matrix" values="0 0 0 0 1 0 0 0 0 1 0 0 0 0 1 0 0 0 0.5 0"/>
<feBlend mode="normal" in2="shape" result="effect1_innerShadow_97_5390"/>
</filter>
<filter id="filter3_i_97_5390" x="29.8335" y="22.5" width="2.5" height="2.5" filterUnits="userSpaceOnUse" color-interpolation-filters="sRGB">
<feFlood flood-opacity="0" result="BackgroundImageFix"/>
<feBlend mode="normal" in="SourceGraphic" in2="BackgroundImageFix" result="shape"/>
<feColorMatrix in="SourceAlpha" type="matrix" values="0 0 0 0 0 0 0 0 0 0 0 0 0 0 0 0 0 0 127 0" result="hardAlpha"/>
<feOffset dx="-0.25" dy="-0.5"/>
<feComposite in2="hardAlpha" operator="arithmetic" k2="-1" k3="1"/>
<feColorMatrix type="matrix" values="0 0 0 0 1 0 0 0 0 1 0 0 0 0 1 0 0 0 0.5 0"/>
<feBlend mode="normal" in2="shape" result="effect1_innerShadow_97_5390"/>
</filter>
</defs>
</svg>
