<svg width="41" height="40" viewBox="0 0 41 40" fill="none" xmlns="http://www.w3.org/2000/svg">
<ellipse cx="20.2134" cy="31.093" rx="18.963" ry="3.55556" fill="#FDCFC3"/>
<path d="M6.88697 7.69914C7.89312 7.39258 8.95776 7.95943 9.26455 8.96545L9.54221 9.87675C9.84882 10.883 10.9131 11.4503 11.9194 11.1436L19.2064 8.92339C24.741 7.23704 30.5953 10.3569 32.2816 15.8916C33.9679 21.4262 30.848 27.2804 25.3134 28.9668L22.581 29.7993C15.5369 31.9456 8.08584 27.9747 5.93959 20.9306L3.99671 14.554C3.99484 14.5479 3.99368 14.5412 3.99195 14.535L2.88702 10.9086C2.58075 9.9026 3.14773 8.83871 4.15361 8.53197L6.88697 7.69914Z" fill="#D63D4A"/>
<path d="M4.82956 17.2866C4.21635 15.274 5.35077 13.1454 7.36336 12.5322L19.2068 8.9236C24.7414 7.23726 30.5952 10.3569 32.2815 15.8916C33.9679 21.4262 30.8482 27.2799 25.3136 28.9663L22.5805 29.799C15.5364 31.9453 8.08615 27.9748 5.93989 20.9307L4.82956 17.2866Z" fill="#FA967C"/>
<path d="M12.239 21.9984C12.0857 21.4952 12.3693 20.9631 12.8725 20.8098L25.6269 16.9236C26.13 16.7703 26.6622 17.0539 26.8155 17.5571C26.9688 18.0602 26.6852 18.5924 26.1821 18.7457L13.4276 22.6318C12.9245 22.7851 12.3923 22.5015 12.239 21.9984Z" fill="white"/>
<path d="M15.1721 25.0874C15.0188 24.5842 15.3024 24.0521 15.8056 23.8987L24.9159 21.1229C25.419 20.9696 25.9512 21.2532 26.1045 21.7564C26.2578 22.2595 25.9742 22.7917 25.471 22.945L16.3607 25.7208C15.8576 25.8741 15.3254 25.5905 15.1721 25.0874Z" fill="white"/>
<circle cx="30.5002" cy="23.3333" r="6.66667" fill="#D63D4A"/>
<g filter="url(#filter0_i_3964_163671)">
<circle cx="34.6665" cy="23.3333" r="1.25" fill="#D63D4A"/>
</g>
<g filter="url(#filter1_i_3964_163671)">
<circle cx="30.5" cy="26.6667" r="1.25" fill="#D63D4A"/>
</g>
<g filter="url(#filter2_i_3964_163671)">
<circle cx="33.4165" cy="26.25" r="1.25" fill="#D63D4A"/>
</g>
<g filter="url(#filter3_i_3964_163671)">
<circle cx="31.75" cy="23.75" r="1.25" fill="#D63D4A"/>
</g>
<defs>
<filter id="filter0_i_3964_163671" x="33.4165" y="22.0833" width="2.5" height="2.5" filterUnits="userSpaceOnUse" color-interpolation-filters="sRGB">
<feFlood flood-opacity="0" result="BackgroundImageFix"/>
<feBlend mode="normal" in="SourceGraphic" in2="BackgroundImageFix" result="shape"/>
<feColorMatrix in="SourceAlpha" type="matrix" values="0 0 0 0 0 0 0 0 0 0 0 0 0 0 0 0 0 0 127 0" result="hardAlpha"/>
<feOffset dx="-0.416667" dy="-0.833333"/>
<feComposite in2="hardAlpha" operator="arithmetic" k2="-1" k3="1"/>
<feColorMatrix type="matrix" values="0 0 0 0 1 0 0 0 0 1 0 0 0 0 1 0 0 0 0.5 0"/>
<feBlend mode="normal" in2="shape" result="effect1_innerShadow_3964_163671"/>
</filter>
<filter id="filter1_i_3964_163671" x="29.25" y="25.4167" width="2.5" height="2.5" filterUnits="userSpaceOnUse" color-interpolation-filters="sRGB">
<feFlood flood-opacity="0" result="BackgroundImageFix"/>
<feBlend mode="normal" in="SourceGraphic" in2="BackgroundImageFix" result="shape"/>
<feColorMatrix in="SourceAlpha" type="matrix" values="0 0 0 0 0 0 0 0 0 0 0 0 0 0 0 0 0 0 127 0" result="hardAlpha"/>
<feOffset dx="-0.416667" dy="-0.833333"/>
<feComposite in2="hardAlpha" operator="arithmetic" k2="-1" k3="1"/>
<feColorMatrix type="matrix" values="0 0 0 0 1 0 0 0 0 1 0 0 0 0 1 0 0 0 0.5 0"/>
<feBlend mode="normal" in2="shape" result="effect1_innerShadow_3964_163671"/>
</filter>
<filter id="filter2_i_3964_163671" x="32.1665" y="25" width="2.5" height="2.5" filterUnits="userSpaceOnUse" color-interpolation-filters="sRGB">
<feFlood flood-opacity="0" result="BackgroundImageFix"/>
<feBlend mode="normal" in="SourceGraphic" in2="BackgroundImageFix" result="shape"/>
<feColorMatrix in="SourceAlpha" type="matrix" values="0 0 0 0 0 0 0 0 0 0 0 0 0 0 0 0 0 0 127 0" result="hardAlpha"/>
<feOffset dx="-0.416667" dy="-0.833333"/>
<feComposite in2="hardAlpha" operator="arithmetic" k2="-1" k3="1"/>
<feColorMatrix type="matrix" values="0 0 0 0 1 0 0 0 0 1 0 0 0 0 1 0 0 0 0.5 0"/>
<feBlend mode="normal" in2="shape" result="effect1_innerShadow_3964_163671"/>
</filter>
<filter id="filter3_i_3964_163671" x="30.5" y="22.5" width="2.5" height="2.5" filterUnits="userSpaceOnUse" color-interpolation-filters="sRGB">
<feFlood flood-opacity="0" result="BackgroundImageFix"/>
<feBlend mode="normal" in="SourceGraphic" in2="BackgroundImageFix" result="shape"/>
<feColorMatrix in="SourceAlpha" type="matrix" values="0 0 0 0 0 0 0 0 0 0 0 0 0 0 0 0 0 0 127 0" result="hardAlpha"/>
<feOffset dx="-0.416667" dy="-0.833333"/>
<feComposite in2="hardAlpha" operator="arithmetic" k2="-1" k3="1"/>
<feColorMatrix type="matrix" values="0 0 0 0 1 0 0 0 0 1 0 0 0 0 1 0 0 0 0.5 0"/>
<feBlend mode="normal" in2="shape" result="effect1_innerShadow_3964_163671"/>
</filter>
</defs>
</svg>
