<svg width="120" height="120" viewBox="0 0 120 120" fill="none" xmlns="http://www.w3.org/2000/svg">
<path d="M11.7236 42.9469C11.2161 38.2784 13.1211 33.6728 16.7781 30.7269C42.0087 10.4022 77.9915 10.4022 103.222 30.7269C106.879 33.6728 108.784 38.2783 108.277 42.9468L102.273 98.1819H17.7274L11.7236 42.9469Z" fill="#FFB19C"/>
<path d="M16.6127 99.1113H31.7367L26.5873 111.47C25.9521 112.994 24.4626 113.987 22.8111 113.987H18.337C16.7415 113.987 15.4867 112.624 15.6192 111.034L16.6127 99.1113Z" fill="#F8633C"/>
<path d="M103.388 99.1113H88.2637L93.4131 111.47C94.0483 112.994 95.5378 113.987 97.1893 113.987H101.663C103.259 113.987 104.514 112.624 104.381 111.034L103.388 99.1113Z" fill="#F8633C"/>
<path d="M107.728 54.5452C114.505 54.5453 120 60.0398 120 66.8176C120 69.4736 119.156 71.9321 117.722 73.9402C116.071 76.2517 114.234 78.5661 113.648 81.3456L110.67 95.47C109.461 101.205 104.401 105.31 98.54 105.31H21.46C15.5993 105.31 10.5392 101.205 9.33008 95.47L6.35141 81.3448C5.76537 78.5658 3.92882 76.2518 2.27819 73.9405C0.843974 71.9322 0 69.4736 0 66.8176C0.000143794 60.0398 5.49463 54.5453 12.2725 54.5452C19.0504 54.5452 24.5458 60.0397 24.5459 66.8176C24.5459 69.7451 24.4377 72.8048 25.7418 75.4257L28.8799 81.7327C29.718 83.4175 31.4376 84.4826 33.3193 84.4827H86.6807C88.5624 84.4826 90.282 83.4175 91.1201 81.7327L94.2576 75.4257C95.5615 72.8048 95.4541 69.745 95.4541 66.8176C95.4542 60.0397 100.95 54.5452 107.728 54.5452Z" fill="#FF805F"/>
<path d="M16.3638 83.1818C16.3638 75.6506 22.469 69.5454 30.0001 69.5454H90.0001C97.5313 69.5454 103.636 75.6506 103.636 83.1818V88.6363C103.636 93.155 99.9734 96.8181 95.4547 96.8181H24.5456C20.0269 96.8181 16.3638 93.155 16.3638 88.6363V83.1818Z" fill="#F8633C"/>
<circle cx="60.0002" cy="21.8181" r="17.7273" fill="#FFE540"/>
<path d="M60.0005 4.09082C69.7909 4.09096 77.7271 12.0279 77.7271 21.8184C77.727 26.6244 75.8128 30.9821 72.7073 34.175C72.7069 34.1754 72.707 34.176 72.7075 34.1763C72.708 34.1765 72.7081 34.1772 72.7077 34.1775C72.6872 34.1986 72.6656 34.2192 72.645 34.2402C72.5879 34.2984 72.5301 34.3557 72.4722 34.4131C72.4277 34.4571 72.3833 34.5013 72.3384 34.5449C72.2724 34.6089 72.2061 34.6724 72.1392 34.7354C72.1009 34.7713 72.0625 34.8071 72.0239 34.8428C71.9569 34.9047 71.8888 34.9655 71.8208 35.0264C71.7889 35.055 71.7572 35.0839 71.7251 35.1123C71.6502 35.1784 71.5746 35.2437 71.4985 35.3086C71.4551 35.3456 71.4114 35.3823 71.3677 35.4189C71.3065 35.4701 71.245 35.5209 71.1831 35.5713C71.137 35.6088 71.0909 35.6465 71.0444 35.6836C70.9741 35.7397 70.9028 35.7946 70.8315 35.8496C70.7935 35.879 70.7555 35.9084 70.7173 35.9375C70.639 35.997 70.5603 36.056 70.481 36.1143C70.4434 36.1418 70.4064 36.17 70.3687 36.1973C70.2882 36.2554 70.2069 36.3124 70.1255 36.3691C70.0898 36.394 70.054 36.4187 70.0181 36.4434C69.9535 36.4876 69.8889 36.5317 69.8237 36.5752C69.7584 36.6188 69.6924 36.6614 69.6265 36.7041C69.5699 36.7407 69.5135 36.7775 69.4565 36.8135C69.3988 36.85 69.3409 36.886 69.2827 36.9219C69.2112 36.9659 69.139 37.0087 69.0669 37.0518C69.0084 37.0867 68.9501 37.122 68.8911 37.1562C68.8265 37.1938 68.761 37.2298 68.6958 37.2666C68.6386 37.2989 68.5816 37.3316 68.5239 37.3633C68.4559 37.4007 68.3874 37.4371 68.3188 37.4736C68.2594 37.5053 68.2 37.5373 68.1401 37.5684C68.0689 37.6052 67.9971 37.6408 67.9253 37.6768C67.868 37.7054 67.811 37.7346 67.7534 37.7627C67.696 37.7907 67.6384 37.8183 67.5806 37.8457C67.4915 37.8879 67.4019 37.929 67.312 37.9697C67.2905 37.9795 67.2691 37.9894 67.2476 37.999C67.1448 38.0451 67.0417 38.0906 66.938 38.1348C66.8887 38.1557 66.839 38.1758 66.7896 38.1963C66.7113 38.2288 66.6331 38.2616 66.5542 38.293C66.4735 38.3251 66.3923 38.3558 66.311 38.3867C66.2625 38.4052 66.2142 38.4243 66.1655 38.4424C66.0809 38.4738 65.9959 38.5041 65.9106 38.5342C65.8489 38.556 65.7871 38.5775 65.7251 38.5986C65.6777 38.6148 65.6301 38.6307 65.5825 38.6465C65.4867 38.6782 65.3909 38.7101 65.2944 38.7402C65.2607 38.7508 65.2267 38.7602 65.1929 38.7705C64.9451 38.8463 64.6952 38.9173 64.4429 38.9824C64.4247 38.9871 64.4064 38.9915 64.3882 38.9961C63.4139 39.2443 62.4078 39.4121 61.3765 39.4912C61.3446 39.4937 61.3127 39.4958 61.2808 39.498C60.8586 39.5282 60.4325 39.5449 60.0027 39.5449C60.0025 39.5449 60.0024 39.5449 60.0022 39.5448L60.001 39.5442C60.0008 39.5441 60.0005 39.5443 60.0005 39.5445C60.0005 39.5448 60.0003 39.5449 60.0001 39.5449C59.9618 39.5449 59.9235 39.5432 59.8853 39.543C59.5155 39.5406 59.1487 39.5267 58.7847 39.502C58.7283 39.4981 58.6719 39.4956 58.6157 39.4912C58.5727 39.4879 58.5298 39.4831 58.4868 39.4795C58.385 39.4709 58.2834 39.4625 58.1821 39.4521C58.0832 39.4421 57.9847 39.4297 57.8862 39.418C57.8335 39.4117 57.7807 39.4061 57.728 39.3994C57.6739 39.3925 57.6199 39.3844 57.5659 39.377C57.3192 39.3431 57.074 39.3047 56.8306 39.2607C56.7725 39.2502 56.7146 39.2386 56.6567 39.2275C56.5693 39.2109 56.482 39.1947 56.395 39.1768C56.3451 39.1664 56.2954 39.1553 56.2456 39.1445C55.861 39.0616 55.4809 38.9669 55.106 38.8594C55.0472 38.8425 54.9887 38.8251 54.9302 38.8076C54.8424 38.7814 54.7547 38.755 54.6675 38.7275C54.6263 38.7146 54.5855 38.7008 54.5444 38.6875C54.4422 38.6544 54.3402 38.6208 54.2388 38.5859C54.2172 38.5785 54.1958 38.571 54.1743 38.5635C47.2461 36.1535 42.2731 29.5676 42.2729 21.8184C42.2729 21.5872 42.2788 21.3569 42.2876 21.1279C42.437 24.818 43.8083 28.1931 46.0077 30.8597C47.5313 32.707 50.1335 32.9162 52.4518 32.317C54.8561 31.6955 57.3864 31.3633 59.9985 31.3633C61.9165 31.3633 63.79 31.5433 65.602 31.8851C67.9504 32.3281 70.5271 31.9459 71.9238 30.0067C73.8599 27.3187 75.0005 24.0196 75.0005 20.4541C75.0003 11.6425 68.035 4.45869 59.3101 4.10547C59.539 4.0967 59.7694 4.09082 60.0005 4.09082Z" fill="#FFD434"/>
<path opacity="0.5" d="M60.0005 4.09082C62.9047 4.09086 65.6458 4.78933 68.0649 6.02734C66.5747 5.65385 65.0148 5.4541 63.4087 5.4541C52.8653 5.45432 44.3179 14.0024 44.3179 24.5459C44.3179 27.6369 45.0537 30.5559 46.3579 33.1387C43.807 30.068 42.273 26.1223 42.2729 21.8184C42.2729 12.0279 50.21 4.09082 60.0005 4.09082Z" fill="white"/>
<path d="M58.2908 19.4317C60.7419 19.4317 62.7276 17.4563 62.7276 15H66.818V28.6312H61.7037V22.8395H58.2959V28.6364H53.1816V15H58.2908V19.4317Z" fill="#FFB822"/>
<path opacity="0.5" d="M36.2354 42.5933C39.2625 42.5933 42.8729 43.2782 44.9128 44.3074C45.9317 44.8215 45.9323 46.0613 45.264 46.9865L40.3088 53.8464C38.9395 55.7419 36.0067 55.2892 35.4022 53.0304C34.0342 47.9183 33.282 42.5933 36.2354 42.5933ZM83.0488 42.5933C86.0021 42.5933 85.2499 47.9183 83.882 53.0304C83.2775 55.2892 80.3446 55.7419 78.9754 53.8464L74.0201 46.9864C73.3518 46.0613 73.3524 44.8215 74.3712 44.3075C76.4111 43.2782 80.0216 42.5933 83.0488 42.5933Z" fill="#EC3C19"/>
<path d="M60.0005 34.5916C65.1069 34.5916 69.9015 35.9217 74.0529 38.2533C74.9397 38.7514 76.0057 38.8252 76.9772 38.5238C79.095 37.8666 81.8202 37.4627 84.2017 37.4626C87.1858 37.4626 86.5654 42.6403 85.2341 47.814C85.0339 48.5923 85.1408 49.416 85.5082 50.1307C87.5077 54.0203 88.6362 58.4272 88.6362 63.0964C88.6362 68.0491 87.4301 72.7066 85.2466 76.7644C82.5898 81.7017 76.8455 83.6823 71.2388 83.6824H48.7612C43.1546 83.6823 37.4111 81.7016 34.7544 76.7644C32.5708 72.7065 31.3638 68.0492 31.3638 63.0964C31.3638 58.7778 32.3293 54.6834 34.0563 51.0154C34.3878 50.3113 34.4723 49.5129 34.2673 48.7621C32.7737 43.293 31.8817 37.4626 35.0483 37.4626C37.5547 37.4627 40.4413 37.9105 42.6002 38.6298C43.6345 38.9744 44.7886 38.9184 45.7344 38.3763C49.9347 35.9692 54.8059 34.5916 60.0005 34.5916Z" fill="#FFDFE0"/>
<ellipse opacity="0.3" cx="43.6365" cy="63.4092" rx="6.81818" ry="4.77273" fill="#FFA6A7"/>
<ellipse opacity="0.3" cx="76.3636" cy="63.4092" rx="6.81818" ry="4.77273" fill="#FFA6A7"/>
<ellipse cx="49.7729" cy="55.2272" rx="5.45455" ry="6.13636" fill="white"/>
<circle cx="52.3931" cy="56.159" r="2.26077" fill="#424242"/>
<ellipse cx="5.45455" cy="6.13636" rx="5.45455" ry="6.13636" transform="matrix(-1 0 0 1 75.6816 49.0908)" fill="white"/>
<circle cx="2.26077" cy="2.26077" r="2.26077" transform="matrix(-1 0 0 1 69.8677 53.8982)" fill="#424242"/>
<path d="M52.4653 68.9702C52.4653 68.9702 54.7261 71.9846 60.0012 71.9846C65.2763 71.9846 67.5371 68.9702 67.5371 68.9702" stroke="#FF8384" stroke-width="2.41148" stroke-linecap="round"/>
<ellipse cx="59.9985" cy="62.0458" rx="7.5" ry="6.13636" fill="#FFA6A7"/>
<ellipse cx="57.2714" cy="62.0457" rx="1.36364" ry="2.04545" fill="#FF8384"/>
<ellipse cx="62.7259" cy="62.0457" rx="1.36364" ry="2.04545" fill="#FF8384"/>
<path d="M24.6799 17.0172C24.932 15.4178 26.886 15.4178 27.1381 17.0172L27.8216 21.3521C27.8984 21.8397 28.1802 22.2486 28.5705 22.4391L31.9573 24.0921C33.0522 24.6265 32.9566 26.4816 31.8148 26.8575L28.7071 27.8803C28.2417 28.0335 27.8932 28.4878 27.8124 29.0468L27.1414 33.6875C26.906 35.3155 24.912 35.3155 24.6766 33.6875L24.0056 29.0468C23.9248 28.4878 23.5764 28.0335 23.1109 27.8803L20.0032 26.8575C18.8614 26.4816 18.7658 24.6265 19.8607 24.0921L23.2475 22.4391C23.6378 22.2486 23.9196 21.8397 23.9964 21.3521L24.6799 17.0172Z" fill="#FFE640"/>
<path d="M93.4209 1.29595C93.6983 -0.431988 95.8476 -0.431983 96.125 1.29596L96.8768 5.97918C96.9613 6.50595 97.2713 6.94779 97.7006 7.15359L101.426 8.9394C102.63 9.51672 102.525 11.521 101.269 11.927L97.8508 13.032C97.3389 13.1975 96.9556 13.6883 96.8667 14.2923L96.1286 19.3059C95.8696 21.0647 93.6763 21.0647 93.4173 19.3059L92.6792 14.2923C92.5903 13.6883 92.207 13.1975 91.6951 13.032L88.2766 11.927C87.0206 11.521 86.9154 9.51672 88.1198 8.9394L91.8453 7.15359C92.2746 6.94779 92.5846 6.50595 92.6691 5.97918L93.4209 1.29595Z" fill="#FFE640"/>
</svg>
