<svg width="32" height="33" viewBox="0 0 32 33" fill="none" xmlns="http://www.w3.org/2000/svg">
<path d="M27.8333 16.3333C27.8333 22.7766 22.61 28 16.1667 28C9.72334 28 4.5 22.7766 4.5 16.3333C4.5 9.88997 9.72334 4.66663 16.1667 4.66663C22.61 4.66663 27.8333 9.88997 27.8333 16.3333Z" fill="#8C97C8"/>
<g style="mix-blend-mode:multiply">
<path d="M24.5 16.3333C24.5 11.7309 20.769 7.99996 16.1667 7.99996C11.5643 7.99996 7.83333 11.7309 7.83333 16.3333C7.83333 17.2538 7.08714 18 6.16667 18C5.24619 18 4.5 17.2538 4.5 16.3333C4.5 9.88997 9.72334 4.66663 16.1667 4.66663C22.61 4.66663 27.8333 9.88997 27.8333 16.3333C27.8333 17.2538 27.0871 18 26.1667 18C25.2462 18 24.5 17.2538 24.5 16.3333Z" fill="#D63D4A"/>
<path d="M24.5 16.3333C24.5 11.7309 20.769 7.99996 16.1667 7.99996C11.5643 7.99996 7.83333 11.7309 7.83333 16.3333C7.83333 17.2538 7.08714 18 6.16667 18C5.24619 18 4.5 17.2538 4.5 16.3333C4.5 9.88997 9.72334 4.66663 16.1667 4.66663C22.61 4.66663 27.8333 9.88997 27.8333 16.3333C27.8333 17.2538 27.0871 18 26.1667 18C25.2462 18 24.5 17.2538 24.5 16.3333Z" fill="#5B658C"/>
</g>
<g style="mix-blend-mode:multiply">
<path d="M18.1772 13.6745C18.6325 13.2196 19.3704 13.2194 19.8256 13.6745C20.281 14.1298 20.281 14.8689 19.8256 15.3242L14.1576 20.9922C13.7023 21.4475 12.9633 21.4475 12.5079 20.9922C12.0528 20.537 12.053 19.7991 12.5079 19.3437L18.1772 13.6745Z" fill="#5B658C"/>
<path d="M18.8334 18.6667C19.5698 18.6667 20.1667 19.2637 20.1668 20C20.1668 20.7364 19.5698 21.3333 18.8334 21.3333C18.0971 21.3332 17.5001 20.7363 17.5001 20C17.5002 19.2637 18.0972 18.6667 18.8334 18.6667Z" fill="#5B658C"/>
<path d="M13.5001 13.3333C14.2364 13.3333 14.8333 13.9303 14.8334 14.6667C14.8334 15.403 14.2365 16 13.5001 16C12.7638 15.9999 12.1668 15.403 12.1668 14.6667C12.1668 13.9304 12.7638 13.3334 13.5001 13.3333Z" fill="#5B658C"/>
</g>
</svg>
