<svg width="32" height="33" viewBox="0 0 32 33" fill="none" xmlns="http://www.w3.org/2000/svg">
<path d="M5.79948 13.7408C7.43537 13.7411 8.76133 15.0671 8.76172 16.703V24.1107C8.76172 24.5198 8.43008 24.8514 8.02098 24.8514H5.79948C4.98128 24.8514 4.31771 24.1879 4.31771 23.3697V19.6924C4.31771 19.4282 4.17228 19.1895 3.96484 19.0258C3.27813 18.4841 2.83612 17.647 2.83594 16.7043C2.83594 15.0679 4.16308 13.7408 5.79948 13.7408Z" fill="#8C97C8"/>
<path d="M26.5391 13.7408C28.1753 13.7408 29.5023 15.0669 29.5026 16.703C29.5026 17.646 29.0606 18.4838 28.3737 19.0258C28.1663 19.1895 28.0208 19.4282 28.0208 19.6924V23.3697C28.0208 24.1879 27.3573 24.8514 26.5391 24.8514H24.3176C23.9085 24.8514 23.5768 24.5198 23.5768 24.1107V16.703C23.5771 15.0671 24.9031 13.7411 26.5391 13.7408Z" fill="#8C97C8"/>
<path d="M7.5026 7.62965C7.5026 5.99325 8.82917 4.66669 10.4656 4.66669H21.873C23.5094 4.66669 24.8359 5.99325 24.8359 7.62965V24.8667H7.5026V7.62965Z" fill="#8C97C8"/>
<g style="mix-blend-mode:multiply">
<path d="M12.8372 13.8886C13.4507 13.8886 13.9489 14.3662 13.9492 14.955C13.9492 15.5441 13.4509 16.0227 12.8372 16.0227C12.2238 16.0225 11.7266 15.544 11.7266 14.955C11.7269 14.3663 12.224 13.8889 12.8372 13.8886Z" fill="#5B658C"/>
<path d="M19.5039 13.8886C20.1174 13.8886 20.6156 14.3662 20.6159 14.955C20.6159 15.5441 20.1176 16.0227 19.5039 16.0227C18.8905 16.0225 18.3932 15.544 18.3932 14.955C18.3936 14.3663 18.8907 13.8889 19.5039 13.8886Z" fill="#5B658C"/>
<path d="M12.8372 8.70374C13.4508 8.70374 13.9491 9.18116 13.9492 9.77014C13.9492 10.3592 13.4509 10.8365 12.8372 10.8365C12.2238 10.8363 11.7266 10.3591 11.7266 9.77014C11.7267 9.1813 12.2239 8.70396 12.8372 8.70374Z" fill="#5B658C"/>
<path d="M19.5039 8.70374C20.1175 8.70374 20.6157 9.18116 20.6159 9.77014C20.6159 10.3592 20.1176 10.8365 19.5039 10.8365C18.8905 10.8363 18.3932 10.3591 18.3932 9.77014C18.3934 9.1813 18.8905 8.70396 19.5039 8.70374Z" fill="#5B658C"/>
</g>
<g style="mix-blend-mode:multiply">
<path d="M5.80078 24.8519H8.76374V25.5926C8.76374 26.0017 8.4321 26.3334 8.023 26.3334H6.54152C6.13242 26.3334 5.80078 26.0017 5.80078 25.5926V24.8519Z" fill="#5B658C"/>
<path d="M23.5786 24.8519H26.5415V25.5926C26.5415 26.0017 26.2099 26.3334 25.8008 26.3334H24.3193C23.9102 26.3334 23.5786 26.0017 23.5786 25.5926V24.8519Z" fill="#5B658C"/>
<path d="M8.76376 21.1482C8.76376 20.33 9.42704 19.6667 10.2452 19.6667H22.0971C22.9153 19.6667 23.5786 20.33 23.5786 21.1482L23.5786 24.8519H8.76374L8.76376 21.1482Z" fill="#5B658C"/>
</g>
</svg>
