<svg width="32" height="33" viewBox="0 0 32 33" fill="none" xmlns="http://www.w3.org/2000/svg">
<path d="M4.83203 10.6667C4.83203 9.19391 6.02594 8 7.4987 8H24.832C26.3048 8 27.4987 9.19391 27.4987 10.6667V25.3333C27.4987 26.8061 26.3048 28 24.832 28H7.4987C6.02594 28 4.83203 26.8061 4.83203 25.3333V10.6667Z" fill="#8C97C8"/>
<g style="mix-blend-mode:multiply">
<path d="M21.4987 5.33337C22.0878 5.33337 22.5651 5.81068 22.5651 6.39978V8.00004H24.832C26.3048 8.00004 27.4987 9.19395 27.4987 10.6667V13.3334H4.83203V10.6667C4.83203 9.19395 6.02594 8.00004 7.4987 8.00004H9.76562V6.39978C9.76562 5.81068 10.2429 5.33337 10.832 5.33337C11.4211 5.33337 11.8984 5.81068 11.8984 6.39978V8.00004H20.4323V6.39978C20.4323 5.81068 20.9096 5.33337 21.4987 5.33337Z" fill="#5B658C"/>
</g>
<path d="M19.4993 22.6667C20.2357 22.6667 20.8327 23.2636 20.8327 24C20.8327 24.7364 20.2357 25.3334 19.4993 25.3334C18.763 25.3334 18.166 24.7364 18.166 24C18.166 23.2636 18.763 22.6667 19.4993 22.6667Z" fill="white"/>
<path d="M23.4993 22.6667C24.2357 22.6667 24.8327 23.2636 24.8327 24C24.8327 24.7364 24.2357 25.3334 23.4993 25.3334C22.763 25.3334 22.166 24.7364 22.166 24C22.166 23.2636 22.763 22.6667 23.4993 22.6667Z" fill="white"/>
<path d="M23.4993 18.6667C24.2357 18.6667 24.8327 19.2636 24.8327 20C24.8327 20.7364 24.2357 21.3334 23.4993 21.3334C22.763 21.3334 22.166 20.7364 22.166 20C22.166 19.2636 22.763 18.6667 23.4993 18.6667Z" fill="white"/>
</svg>
