<svg width="32" height="32" viewBox="0 0 32 32" fill="none" xmlns="http://www.w3.org/2000/svg">
<path d="M11.2767 10.1326C13.6357 10.1327 15.2139 11.5236 15.1986 13.3202C15.2142 14.5857 14.3234 15.4919 13.0579 15.7108V15.8045C14.7139 16.0077 15.6358 17.0236 15.6204 18.4295C15.6361 20.367 13.7922 21.7576 11.2454 21.7577C8.76107 21.7577 6.97982 20.3827 6.93294 18.4139H9.30794C9.35482 19.2577 10.1673 19.8202 11.2611 19.8202C12.3859 19.8201 13.1986 19.1795 13.1829 18.2733C13.1983 17.3517 12.3701 16.6952 11.0423 16.6952H9.99544V14.9608H11.0423C12.1516 14.9607 12.9329 14.3513 12.9329 13.4608C12.9327 12.6017 12.2764 12.0077 11.2767 12.0077C10.2769 12.0077 9.44887 12.5704 9.41732 13.4295H7.16732C7.19886 11.4767 8.96439 10.1326 11.2767 10.1326Z" fill="#33363D"/>
<path fill-rule="evenodd" clip-rule="evenodd" d="M20.36 10.1326C23.188 10.1326 24.9067 12.258 24.9069 15.9452C24.9069 19.6639 23.1882 21.7577 20.36 21.7577C17.5321 21.7575 15.8132 19.6481 15.8132 15.9452C15.8133 12.2425 17.5323 10.1328 20.36 10.1326ZM20.36 12.0545C19.0478 12.0548 18.2195 13.3676 18.2194 15.9452C18.2038 18.5543 19.0477 19.8199 20.36 19.8202C21.6725 19.8202 22.5163 18.5545 22.5007 15.9452C22.5005 13.3673 21.6724 12.0545 20.36 12.0545Z" fill="#33363D"/>
<path fill-rule="evenodd" clip-rule="evenodd" d="M15.9993 2.6665C23.3629 2.66664 29.3325 8.63628 29.3327 15.9998C29.3325 23.3634 23.3629 29.333 15.9993 29.3332C8.63575 29.333 2.66616 23.3634 2.66602 15.9998C2.66619 8.63627 8.63577 2.66664 15.9993 2.6665ZM15.9993 4.79932C9.81398 4.79945 4.799 9.81448 4.79883 15.9998C4.79897 22.1852 9.81396 27.1989 15.9993 27.1991C22.1847 27.1989 27.1984 22.1852 27.1986 15.9998C27.1984 9.81448 22.1847 4.79946 15.9993 4.79932Z" fill="#33363D"/>
</svg>
