<svg width="32" height="33" viewBox="0 0 32 33" fill="none" xmlns="http://www.w3.org/2000/svg">
<path d="M0 10.5C0 4.97715 4.47715 0.5 10 0.5H22C27.5228 0.5 32 4.97715 32 10.5V22.5C32 28.0228 27.5228 32.5 22 32.5H10C4.47715 32.5 0 28.0228 0 22.5V10.5Z" fill="#F4F5F6"/>
<path d="M20.3217 7.66741C21.8666 7.73138 23.3303 8.37574 24.3901 9.47112C25.4475 10.5642 26.0164 12.0187 25.9614 13.5199C25.957 14.9387 25.3604 16.3718 24.5532 17.6781C23.7359 19.0007 22.6553 20.2696 21.5844 21.3705C19.4466 23.5683 17.2634 25.1829 17.0464 25.3295L16.6128 25.6225C16.3425 25.8045 15.9884 25.8046 15.7182 25.6225L15.2846 25.3295L15.2827 25.3285C15.0662 25.1814 12.8841 23.567 10.7466 21.3696C9.67578 20.2688 8.595 19.0004 7.7778 17.6781C6.97063 16.3719 6.37304 14.9386 6.36862 13.5199C6.31362 12.0189 6.88284 10.5641 7.93991 9.47112C8.99963 8.37557 10.4644 7.7315 12.0092 7.66741C12.024 7.6668 12.0394 7.66623 12.0542 7.66643C13.0317 7.68095 13.9907 7.94138 14.8335 8.42326C15.3251 8.7045 15.7306 9.13312 16.0493 9.54143C16.0886 9.5918 16.1277 9.64272 16.1655 9.69377C16.2033 9.64268 16.2424 9.59184 16.2817 9.54143C16.6004 9.13311 17.0059 8.70456 17.4975 8.42326C18.3403 7.94129 19.2993 7.68102 20.2768 7.66643C20.2916 7.66621 20.307 7.6668 20.3217 7.66741ZM16.1714 13.8715C15.7298 13.8717 15.3717 14.2297 15.3716 14.6713V15.8666H14.1665C13.7248 15.8667 13.3667 16.2247 13.3667 16.6664C13.3667 17.1082 13.7247 17.4661 14.1665 17.4662H15.3716V18.6713L15.3755 18.7533C15.4165 19.1565 15.7574 19.471 16.1714 19.4711C16.5855 19.4711 16.9262 19.1566 16.9673 18.7533L16.9712 18.6713V17.4662H18.1665L18.2485 17.4623C18.6518 17.4213 18.9663 17.0806 18.9663 16.6664C18.9662 16.2524 18.6518 15.9116 18.2485 15.8705L18.1665 15.8666H16.9712V14.6713C16.971 14.2296 16.6131 13.8715 16.1714 13.8715Z" fill="#6D7882"/>
</svg>
