<svg width="32" height="33" viewBox="0 0 32 33" fill="none" xmlns="http://www.w3.org/2000/svg">
<path d="M0 10.5C0 4.97715 4.47715 0.5 10 0.5H22C27.5228 0.5 32 4.97715 32 10.5V22.5C32 28.0228 27.5228 32.5 22 32.5H10C4.47715 32.5 0 28.0228 0 22.5V10.5Z" fill="#F4F5F6"/>
<path fill-rule="evenodd" clip-rule="evenodd" d="M16.1667 5.86682C17.2327 5.8669 18.1619 6.54612 18.487 7.51038C19.5102 7.55364 20.3689 8.33743 20.4538 9.36682H22.3669L22.5505 9.37561C23.4581 9.46783 24.1667 10.2347 24.1667 11.1666V24.8668C24.1666 25.8607 23.3607 26.6663 22.3669 26.6666H9.96648C8.97243 26.6666 8.16678 25.8608 8.16667 24.8668V11.1666C8.16667 10.1725 8.97236 9.36682 9.96648 9.36682H11.8747C11.9596 8.33635 12.8208 7.55215 13.8454 7.51038C14.1704 6.54593 15.1005 5.86682 16.1667 5.86682ZM12.1667 19.8668C11.7248 19.8668 11.3669 20.2248 11.3669 20.6666C11.3669 21.1085 11.7248 21.4664 12.1667 21.4664H16.3884L16.4704 21.4625C16.8736 21.4214 17.1882 21.0807 17.1882 20.6666C17.1882 20.2525 16.8736 19.9118 16.4704 19.8707L16.3884 19.8668H12.1667ZM12.1667 15.8668C11.7248 15.8668 11.3669 16.2248 11.3669 16.6666C11.3669 17.1085 11.7248 17.4664 12.1667 17.4664H20.1667L20.2487 17.4625C20.6519 17.4214 20.9665 17.0807 20.9665 16.6666C20.9665 16.2526 20.6519 15.9119 20.2487 15.8707L20.1667 15.8668H12.1667ZM16.1667 7.46643C15.6785 7.46643 15.3219 7.84663 15.3219 8.26428V8.30627L15.318 8.38831C15.277 8.79146 14.936 9.10577 14.5221 9.10608H13.9313C13.6534 9.10608 13.4667 9.3203 13.4665 9.53381V10.8668H18.8669V10.358L18.863 9.53772V9.53381L18.8542 9.45471C18.8148 9.27054 18.6414 9.10616 18.3981 9.10608H17.8073C17.3933 9.10589 17.0524 8.79152 17.0114 8.38831L17.0075 8.30627C17.0075 8.28434 17.0092 8.26437 17.0104 8.2467C17.0007 7.83599 16.648 7.46652 16.1667 7.46643Z" fill="#6D7882"/>
</svg>
