<svg width="25" height="25" viewBox="0 0 25 25" fill="none" xmlns="http://www.w3.org/2000/svg">
<path fill-rule="evenodd" clip-rule="evenodd" d="M12.2773 8.82931C9.61797 8.82931 9.08884 10.7207 7.53662 13.1137C6.35903 14.9291 2.39806 17.254 3.80945 19.7513C5.22122 22.2469 8.51541 20.6818 12.2773 20.6818C16.0391 20.6821 19.3328 22.2477 20.7452 19.7513C22.1571 17.2542 18.1911 14.929 17.0134 13.1137C15.4617 10.7213 14.9355 8.82991 12.2773 8.82931ZM5.04102 7.05976C3.72967 7.05976 2.66655 8.14729 2.66602 9.49025C2.66602 10.8337 3.72934 11.9231 5.04102 11.9231C6.35242 11.9228 7.41602 10.8335 7.41602 9.49025C7.41548 8.1475 6.35209 7.06009 5.04102 7.05976ZM19.291 7.05976C17.9797 7.05976 16.9166 8.14729 16.916 9.49025C16.916 10.8337 17.9793 11.9231 19.291 11.9231C20.6024 11.9228 21.666 10.8335 21.666 9.49025C21.6655 8.1475 20.6021 7.06009 19.291 7.05976ZM9.31555 3.16675C8.00413 3.167 6.94061 4.25637 6.94055 5.59959C6.94073 6.9427 8.0042 8.03217 9.31555 8.03242C10.6268 8.03209 11.6904 6.94265 11.6906 5.59959C11.6905 4.25642 10.6269 3.16708 9.31555 3.16675ZM15.0165 3.16675C13.7048 3.16675 12.6415 4.25621 12.6415 5.59959C12.6417 6.94286 13.7049 8.03242 15.0165 8.03242C16.3276 8.03184 17.3913 6.9425 17.3915 5.59959C17.3914 4.25658 16.3276 3.16734 15.0165 3.16675Z" fill="#6D7882"/>
</svg>
