<svg width="32" height="33" viewBox="0 0 32 33" fill="none" xmlns="http://www.w3.org/2000/svg">
<path d="M17.0503 3.50413L25.8652 7.02655C26.3453 7.21834 26.7591 7.56176 27.0512 8.01089C27.3433 8.46001 27.4997 8.99345 27.4997 9.53988V16.7364C27.4997 18.9792 26.9137 21.1777 25.8071 23.0856C24.7006 24.9935 23.1174 26.5354 21.2349 27.5384L17.0113 29.7874C16.749 29.9272 16.4597 30 16.1663 30C15.873 30 15.5837 29.9272 15.3214 29.7874L11.0978 27.5371C9.21528 26.534 7.63205 24.9922 6.52554 23.0843C5.41903 21.1764 4.83296 18.9779 4.83301 16.735V9.54122C4.83269 8.99456 4.98904 8.46083 5.28114 8.01144C5.57324 7.56205 5.98716 7.21843 6.46753 7.02655L15.2823 3.50413C15.8523 3.27646 16.4804 3.27646 17.0503 3.50413Z" fill="#8C97C8"/>
<path d="M7.00525 8.31437L12.3576 6.08631C12.5701 5.99785 12.7617 6.34161 12.5816 6.48504C9.81214 8.69173 7.81842 11.4616 6.60047 15.7601C6.53825 15.9797 6.1699 15.9358 6.17041 15.7076L6.18434 9.54229C6.18555 9.00496 6.50919 8.52087 7.00525 8.31437Z" fill="white"/>
<g style="mix-blend-mode:multiply">
<path d="M19.9437 15.8685C20.5329 15.8685 21.0986 16.0968 21.5153 16.5026C21.932 16.9086 22.1662 17.4598 22.1663 18.0339C22.1663 18.3784 22.0258 18.7095 21.7757 18.9532C21.5257 19.1967 21.1865 19.3334 20.833 19.3334H19.4515C19.3359 19.1777 19.2108 19.0279 19.07 18.8907C18.4539 18.2905 17.6482 17.9253 16.7952 17.8477C17.3057 17.2995 17.626 16.6068 17.708 15.8685H19.9437Z" fill="#5B658C"/>
<path d="M18.1663 11.3334C18.7245 11.3334 19.2599 11.5492 19.6546 11.9336C20.0493 12.3182 20.2717 12.8403 20.2718 13.3842C20.2718 13.9282 20.0494 14.45 19.6546 14.8347C19.2598 15.2194 18.7247 15.4362 18.1663 15.4362C18.0166 15.4362 17.8691 15.4183 17.7249 15.3881C17.7007 14.6096 17.4155 13.8662 16.9163 13.2722L16.6794 13.0157C16.5332 12.8733 16.3744 12.7469 16.208 12.6329C16.313 12.3733 16.4718 12.1346 16.6781 11.9336C17.0728 11.5492 17.6082 11.3334 18.1663 11.3334Z" fill="#5B658C"/>
</g>
<g style="mix-blend-mode:multiply">
<path fill-rule="evenodd" clip-rule="evenodd" d="M12.0926 18.625C11.405 18.625 10.7456 18.8911 10.2594 19.3648C9.77315 19.8386 9.5 20.4811 9.5 21.1511C9.5 21.553 9.66389 21.9385 9.95561 22.2228C10.2473 22.507 10.643 22.6667 11.0556 22.6667H17.2778C17.6903 22.6667 18.086 22.507 18.3777 22.2228C18.6694 21.9385 18.8333 21.553 18.8333 21.1511C18.8333 20.4811 18.5602 19.8386 18.074 19.3648C17.5878 18.8911 16.9283 18.625 16.2407 18.625H12.0926Z" fill="#5B658C"/>
<path d="M12.4299 14.0343C11.9693 14.4831 11.7106 15.0918 11.7106 15.7265C11.7106 16.3612 11.9693 16.9699 12.4299 17.4187C12.8906 17.8675 13.5153 18.1196 14.1667 18.1196C14.8181 18.1196 15.4428 17.8675 15.9034 17.4187C16.3641 16.9699 16.6228 16.3612 16.6228 15.7265C16.6228 15.0918 16.3641 14.4831 15.9034 14.0343C15.4428 13.5855 14.8181 13.3334 14.1667 13.3334C13.5153 13.3334 12.8906 13.5855 12.4299 14.0343Z" fill="#5B658C"/>
</g>
</svg>
