<svg width="32" height="33" viewBox="0 0 32 33" fill="none" xmlns="http://www.w3.org/2000/svg">
<path d="M13.0556 16.0834L9.5 23.5834L10.1667 26L13.5 27.3334H16.8333L18.1667 26.6667L19.1 25.0834L20.1667 22.8334V18.3334L17.3222 15.3334L13.0556 16.0834Z" fill="white"/>
<path d="M15.055 5.49282L14.2963 5.04106C13.9939 4.86102 13.6051 5.04135 13.5473 5.38846L13.4033 6.2522C12.9827 8.75577 11.2617 11.0821 9.36339 12.7168C5.64717 15.9185 4.83346 19.3981 5.98411 22.2704C7.08521 25.0191 9.8798 26.9011 12.7162 27.2152L13.3725 27.2874C11.7495 26.3015 10.7078 23.9982 11.0712 22.277C11.4301 20.5853 12.6546 19.0009 15.0065 17.539L16.1924 16.8037L16.635 18.1222C16.896 18.9013 17.3475 19.5272 17.8066 20.163C18.0268 20.4693 18.2504 20.779 18.4552 21.1084C19.1632 22.2518 19.3504 23.5233 18.8934 24.7849C18.4772 25.9317 17.7912 26.8333 16.8454 27.3334L17.9134 27.2152C20.5759 26.9208 22.5303 26.0159 23.7999 24.5026C25.0585 23.0024 25.5 21.0712 25.5 19.0151C25.5 17.1003 24.7083 15.1263 23.7746 13.4839C22.7949 11.7619 21.5478 10.3013 20.1787 8.90337C19.9408 8.66045 19.5507 8.73319 19.42 9.04707C19.3198 9.2876 19.1879 9.56447 18.889 10.0283C18.1683 8.12655 16.8157 6.52639 15.055 5.49282Z" fill="#8C97C8"/>
<g style="mix-blend-mode:multiply">
<path d="M18.875 23.9064C18.875 26.6472 22.4952 28.6668 23.8528 28.6668C25.2104 28.6668 28.8306 26.6472 28.8306 23.9064C28.8306 22.4636 28.8306 21.1579 28.8306 20.2447C28.8306 19.455 28.3204 18.7566 27.5693 18.5171L24.676 17.5948C24.1404 17.4241 23.5651 17.4241 23.0295 17.5948L20.1363 18.5171C19.3851 18.7566 18.875 19.455 18.875 20.2447C18.875 21.1579 18.875 22.4636 18.875 23.9064Z" fill="#5B658C"/>
</g>
<path d="M26.1976 20.95C26.438 20.7996 26.7588 20.8332 26.962 21.0464C27.165 21.2598 27.1827 21.582 27.0206 21.8146L26.9411 21.9084L23.7367 24.9566C23.6193 25.068 23.4624 25.1289 23.3005 25.1245C23.1385 25.1201 22.9846 25.051 22.8734 24.9331L20.7432 22.674L20.669 22.5763C20.5198 22.3353 20.5551 22.0154 20.7693 21.8133C20.9836 21.6112 21.3056 21.5942 21.5375 21.7573L21.6312 21.8381L23.3396 23.6506L26.1 21.0256L26.1976 20.95Z" fill="white"/>
<path d="M5.5 10.6667C5.5 8.82576 6.99238 7.33337 8.83333 7.33337C9.20152 7.33337 9.5 7.63185 9.5 8.00004C9.5 8.36823 9.20152 8.66671 8.83333 8.66671C7.72876 8.66671 6.83333 9.56214 6.83333 10.6667C6.83333 11.0349 6.53486 11.3334 6.16667 11.3334C5.79848 11.3334 5.5 11.0349 5.5 10.6667Z" fill="#5B658C"/>
<path d="M2.16797 11.3333V10C2.16797 6.68629 4.85426 4 8.16797 4H9.5013C9.86949 4 10.168 4.29848 10.168 4.66667C10.168 5.03486 9.86949 5.33333 9.5013 5.33333H8.16797C5.59064 5.33333 3.5013 7.42267 3.5013 10V11.3333C3.5013 11.7015 3.20283 12 2.83464 12C2.46645 12 2.16797 11.7015 2.16797 11.3333Z" fill="#5B658C"/>
</svg>
