<svg width="25" height="25" viewBox="0 0 25 25" fill="none" xmlns="http://www.w3.org/2000/svg">
<g clip-path="url(#clip0_10831_240417)">
<path fill-rule="evenodd" clip-rule="evenodd" d="M12.1667 2.16663C17.6896 2.16663 22.1667 6.64378 22.1667 12.1666C22.1667 17.6895 17.6896 22.1666 12.1667 22.1666C6.6439 22.1666 2.16675 17.6895 2.16675 12.1666C2.16675 6.64378 6.6439 2.16663 12.1667 2.16663ZM15.825 8.50745C15.3697 8.05275 14.6317 8.05272 14.1765 8.50745L8.50757 14.1764C8.05284 14.6316 8.05288 15.3696 8.50757 15.8248C8.9629 16.2802 9.70263 16.2802 10.158 15.8248L15.825 10.1578C16.2803 9.70251 16.2803 8.96278 15.825 8.50745ZM14.8328 13.4996C14.0968 13.4999 13.5 14.0967 13.4998 14.8326C13.4998 15.5688 14.0967 16.1664 14.8328 16.1666C15.5691 16.1666 16.1667 15.569 16.1667 14.8326C16.1665 14.0965 15.5689 13.4996 14.8328 13.4996ZM9.49976 8.16663C8.76379 8.16688 8.167 8.76367 8.16675 9.49963C8.16675 10.2358 8.76364 10.8334 9.49976 10.8336C10.2361 10.8336 10.8337 10.236 10.8337 9.49963C10.8335 8.76351 10.2359 8.16663 9.49976 8.16663Z" fill="#6D7882"/>
</g>
<defs>
<clipPath id="clip0_10831_240417">
<rect width="24" height="24" fill="white" transform="translate(0.166748 0.166626)"/>
</clipPath>
</defs>
</svg>
