<svg width="32" height="33" viewBox="0 0 32 33" fill="none" xmlns="http://www.w3.org/2000/svg">
<path d="M17.0533 3.50413L25.8681 7.02655C26.3482 7.21834 26.762 7.56176 27.0541 8.01089C27.3462 8.46001 27.5027 8.99345 27.5026 9.53988V16.7364C27.5026 18.9792 26.9166 21.1777 25.8101 23.0856C24.7036 24.9935 23.1203 26.5354 21.2378 27.5384L17.0142 29.7874C16.7519 29.9272 16.4626 30 16.1693 30C15.8759 30 15.5866 29.9272 15.3243 29.7874L11.1008 27.5371C9.21821 26.534 7.63498 24.9922 6.52847 23.0843C5.42196 21.1764 4.83589 18.9779 4.83594 16.735V9.54122C4.83562 8.99456 4.99197 8.46083 5.28407 8.01144C5.57617 7.56205 5.99009 7.21843 6.47046 7.02655L15.2853 3.50413C15.8552 3.27646 16.4833 3.27646 17.0533 3.50413Z" fill="#8C97C8"/>
<g style="mix-blend-mode:multiply">
<path fill-rule="evenodd" clip-rule="evenodd" d="M16.2632 20.6895C16.6074 20.6895 16.7935 20.8716 17.1214 21.2315L17.1395 21.2511C17.4349 21.5751 17.8803 22.0641 18.6861 21.9931C19.1667 21.9504 19.6257 21.6409 20.0096 21.2751C20.4098 20.8938 20.801 20.3843 21.1434 19.8167C21.8236 18.6884 22.3584 17.2514 22.3584 16.0042V15.9657C22.3584 14.8801 22.3584 12.6704 20.0765 11.6326C19.2264 11.248 18.4928 11.2984 17.8532 11.4301C17.6624 11.4715 17.4726 11.5171 17.284 11.5668C17.1774 11.5942 17.0796 11.6187 16.9904 11.6403C16.7534 11.7028 16.5092 11.7373 16.2632 11.7429C16.0346 11.7429 15.7989 11.7027 15.5315 11.6403C15.4411 11.6198 15.3417 11.5956 15.2333 11.5677C15.0508 11.5232 14.8539 11.4736 14.6705 11.436C14.0363 11.3061 13.3082 11.2548 12.4753 11.6335C10.1671 12.6832 10.168 14.8801 10.168 15.9692V16.0034C10.168 17.2574 10.7416 18.6995 11.4372 19.8244C11.7878 20.392 12.1816 20.8998 12.5728 21.2776C12.768 21.4665 12.9703 21.6307 13.1736 21.7538C13.3732 21.8743 13.6 21.9717 13.8394 21.9931C14.6452 22.0641 15.0915 21.5742 15.3869 21.2511L15.405 21.2315C15.7329 20.8724 15.919 20.6895 16.2632 20.6895Z" fill="#5B658C"/>
</g>
<path d="M17.4035 13.375C17.6941 13.2666 18.0309 13.3739 18.2017 13.6472C18.3964 13.9593 18.3014 14.3701 17.9894 14.5651L17.7551 14.7019C17.2053 15.0024 16.6305 15.1667 16.0363 15.1667C15.4418 15.1667 14.8663 15.0026 14.3163 14.7019L14.0832 14.5651L13.9764 14.4831C13.7514 14.2695 13.7003 13.9205 13.8709 13.6472C14.0416 13.3741 14.3773 13.267 14.6678 13.375L14.7889 13.4349L14.9556 13.5326C15.3389 13.7423 15.6974 13.8334 16.0363 13.8334C16.4236 13.8333 16.836 13.7139 17.2824 13.4349L17.4035 13.375Z" fill="#E5ECF9"/>
<path d="M7.00672 8.31437L12.359 6.08631C12.5715 5.99785 12.7631 6.34161 12.5831 6.48504C9.81361 8.69173 7.81988 11.4616 6.60193 15.7601C6.53972 15.9797 6.17136 15.9358 6.17188 15.7076L6.1858 9.54229C6.18702 9.00496 6.51065 8.52087 7.00672 8.31437Z" fill="white"/>
</svg>
