<svg width="40" height="40" viewBox="0 0 40 40" fill="none" xmlns="http://www.w3.org/2000/svg">
<path d="M7.03744 16.3426C9.0823 16.343 10.7397 18.0006 10.7402 20.0454V29.305C10.7402 29.8164 10.3257 30.2309 9.81431 30.2309H7.03744C6.01469 30.2309 5.18522 29.4015 5.18522 28.3787V23.7821C5.18522 23.4519 5.00343 23.1535 4.74413 22.9489C3.88575 22.2717 3.33323 21.2254 3.33301 20.047C3.33301 18.0015 4.99194 16.3426 7.03744 16.3426Z" fill="#FA967C"/>
<path d="M32.9619 16.3426C35.0072 16.3426 36.666 18.0002 36.6663 20.0454C36.6663 21.2241 36.1138 22.2714 35.2552 22.9489C34.9959 23.1535 34.8141 23.4519 34.8141 23.7821V28.3787C34.8141 29.4015 33.9847 30.2309 32.9619 30.2309H30.185C29.6737 30.2309 29.2591 29.8164 29.2591 29.305V20.0454C29.2595 18.0005 30.917 16.343 32.9619 16.3426Z" fill="#FA967C"/>
<path d="M9.16634 8.70371C9.16634 6.65821 10.8245 5 12.87 5H27.1293C29.1748 5 30.833 6.6582 30.833 8.7037V30.25H9.16634V8.70371Z" fill="#FA967C"/>
<path d="M15.8327 16.5275C16.5995 16.5275 17.2222 17.1245 17.2227 17.8605C17.2227 18.5969 16.5997 19.1952 15.8327 19.1952C15.0659 19.1949 14.4443 18.5967 14.4443 17.8605C14.4447 17.1246 15.0661 16.5278 15.8327 16.5275Z" fill="white"/>
<path d="M24.166 16.5275C24.9328 16.5275 25.5556 17.1245 25.556 17.8605C25.556 18.5969 24.9331 19.1952 24.166 19.1952C23.3992 19.1949 22.7777 18.5967 22.7777 17.8605C22.7781 17.1246 23.3995 16.5278 24.166 16.5275Z" fill="white"/>
<path d="M15.8327 10.0464C16.5996 10.0464 17.2225 10.6432 17.2227 11.3794C17.2227 12.1158 16.5997 12.7124 15.8327 12.7124C15.0659 12.7121 14.4443 12.1156 14.4443 11.3794C14.4445 10.6433 15.066 10.0467 15.8327 10.0464Z" fill="white"/>
<path d="M24.166 10.0464C24.933 10.0464 25.5558 10.6432 25.556 11.3794C25.556 12.1158 24.9331 12.7124 24.166 12.7124C23.3992 12.7121 22.7777 12.1156 22.7777 11.3794C22.7779 10.6433 23.3993 10.0467 24.166 10.0464Z" fill="white"/>
<path d="M7.03711 30.2315H10.7408V31.1574C10.7408 31.6688 10.3263 32.0833 9.81489 32.0833H7.96304C7.45166 32.0833 7.03711 31.6688 7.03711 31.1574V30.2315Z" fill="#D63D4A"/>
<path d="M29.2593 30.2315H32.963V31.1574C32.963 31.6688 32.5485 32.0833 32.0371 32.0833H30.1853C29.6739 32.0833 29.2593 31.6688 29.2593 31.1574V30.2315Z" fill="#D63D4A"/>
<path d="M10.7408 25.6019C10.7408 24.5791 11.5699 23.75 12.5927 23.75H27.4075C28.4303 23.75 29.2594 24.5791 29.2594 25.6019L29.2593 30.2315H10.7408L10.7408 25.6019Z" fill="#D63D4A"/>
</svg>
