<svg width="40" height="40" viewBox="0 0 40 40" fill="none" xmlns="http://www.w3.org/2000/svg">
<g style="mix-blend-mode:multiply">
<path d="M26.25 8.16112C26.25 7.63514 26.6764 7.20874 27.2024 7.20874H30.506C31.0319 7.20874 31.4583 7.63514 31.4583 8.16112V16.5837H26.25V8.16112Z" fill="#D63D4A"/>
</g>
<path d="M7.17998 18.66L19.3855 8.3323C19.7406 8.03184 20.2607 8.03184 20.6158 8.3323L32.8213 18.66C33.0352 18.8409 33.1585 19.1068 33.1585 19.387L33.1585 32.6089C33.1585 33.4075 32.504 34.0548 31.6965 34.0548H23.2901H16.7112H8.30476C7.49733 34.0548 6.84277 33.4075 6.84277 32.6089L6.84278 19.387C6.84278 19.1068 6.96612 18.8409 7.17998 18.66Z" fill="#FA967C"/>
<path d="M15.834 25.8699C15.834 25.3439 16.2604 24.9175 16.7864 24.9175H23.2149C23.7409 24.9175 24.1673 25.3439 24.1673 25.8699V34.0553H15.834L15.834 25.8699Z" fill="#FDCFC3"/>
<path fill-rule="evenodd" clip-rule="evenodd" d="M19.0668 6.51475C19.6025 6.05042 20.3981 6.05042 20.9339 6.51475L34.0918 17.9182C34.6867 18.4337 34.751 19.334 34.2354 19.9289C33.7198 20.5238 32.8196 20.5881 32.2246 20.0725L20.0003 9.47819L7.77601 20.0725C7.1811 20.5881 6.28086 20.5238 5.76526 19.9289C5.24967 19.334 5.31398 18.4337 5.90889 17.9182L19.0668 6.51475Z" fill="#285FA4"/>
<path fill-rule="evenodd" clip-rule="evenodd" d="M19.0668 6.51475C19.6025 6.05042 20.3981 6.05042 20.9339 6.51475L34.0918 17.9182C34.6867 18.4337 34.751 19.334 34.2354 19.9289C33.7198 20.5238 32.8196 20.5881 32.2246 20.0725L20.0003 9.47819L7.77601 20.0725C7.1811 20.5881 6.28086 20.5238 5.76526 19.9289C5.24967 19.334 5.31398 18.4337 5.90889 17.9182L19.0668 6.51475Z" fill="#D63D4A"/>
</svg>
