<svg width="40" height="40" viewBox="0 0 40 40" fill="none" xmlns="http://www.w3.org/2000/svg">
<path d="M5.83301 28.4091C5.83301 24.2252 9.22479 20.8334 13.4088 20.8334C13.8272 20.8334 14.1663 21.1726 14.1663 21.5909V31.5C14.1663 32.9728 12.9724 34.1667 11.4997 34.1667H7.67209C6.65639 34.1667 5.83301 33.3433 5.83301 32.3276V28.4091Z" fill="#FDCFC3"/>
<path d="M25.833 11.7425C25.833 7.55853 29.2248 4.16675 33.4088 4.16675C33.8272 4.16675 34.1663 4.50593 34.1663 4.92432V31.5001C34.1663 32.9728 32.9724 34.1667 31.4997 34.1667H28.4997C27.0269 34.1667 25.833 32.9728 25.833 31.5001V11.7425Z" fill="#D63D4A"/>
<path d="M15.833 20.0759C15.833 15.8919 19.2248 12.5001 23.4088 12.5001C23.8272 12.5001 24.1663 12.8393 24.1663 13.2577V31.5001C24.1663 32.9729 22.9724 34.1668 21.4997 34.1668H18.4997C17.0269 34.1668 15.833 32.9729 15.833 31.5001V20.0759Z" fill="#FA967C"/>
</svg>
