<svg width="40" height="40" viewBox="0 0 40 40" fill="none" xmlns="http://www.w3.org/2000/svg">
<g style="mix-blend-mode:multiply">
<path d="M32.2471 7.50018L7.7523 7.5C5.31159 7.5 3.33301 9.4291 3.33301 11.8088V28.191C3.33301 30.5707 5.31159 32.4998 7.7523 32.4998L32.2471 32.5C34.6878 32.5 36.6663 30.5709 36.6663 28.1912V11.809C36.6663 9.42929 34.6878 7.50018 32.2471 7.50018Z" fill="#FA967C"/>
<g style="mix-blend-mode:multiply">
<path d="M7.64181 7.5L32.3575 7.5C34.7365 7.5 36.6663 9.42986 36.6663 11.8088V14.1194H3.33301V11.8088C3.33301 9.42986 5.26288 7.5 7.64181 7.5Z" fill="#D63D4A"/>
</g>
<path d="M17.4044 10.8452C17.4044 11.5428 16.8289 12.1068 16.1171 12.1068C15.4052 12.1068 14.8297 11.5428 14.8297 10.8452C14.8297 10.1476 15.4079 9.58358 16.1171 9.58358C16.8262 9.58358 17.4044 10.1502 17.4044 10.8452Z" fill="#FA967C"/>
<path d="M12.0776 12.1068C12.7887 12.1068 13.365 11.542 13.365 10.8452C13.365 10.1484 12.7887 9.58358 12.0776 9.58358C11.3666 9.58358 10.7903 10.1484 10.7903 10.8452C10.7903 11.542 11.3666 12.1068 12.0776 12.1068Z" fill="#FA967C"/>
<path d="M8.04715 12.1067C8.75815 12.1067 9.33453 11.5419 9.33453 10.8451C9.33453 10.1483 8.75815 9.5835 8.04715 9.5835C7.33615 9.5835 6.75977 10.1483 6.75977 10.8451C6.75977 11.5419 7.33615 12.1067 8.04715 12.1067Z" fill="#FA967C"/>
<path d="M20.6275 28.4499C20.2955 28.8294 19.7052 28.8294 19.3732 28.4499L15.3763 23.8821C14.9049 23.3433 15.2875 22.5 16.0035 22.5H17.5003V18.3333C17.5003 17.8731 17.8734 17.5 18.3337 17.5H21.667C22.1272 17.5 22.5003 17.8731 22.5003 18.3333V22.5H23.9972C24.7132 22.5 25.0958 23.3433 24.6243 23.8821L20.6275 28.4499Z" fill="white"/>
</g>
</svg>
