<svg width="40" height="40" viewBox="0 0 40 40" fill="none" xmlns="http://www.w3.org/2000/svg">
<path d="M16.1114 19.2708L11.667 28.6458L12.5003 31.6666L16.667 33.3333H20.8337L22.5003 32.4999L23.667 30.5208L25.0003 27.7083V22.0833L21.4448 18.3333L16.1114 19.2708Z" fill="#FDCFC3"/>
<path d="M18.6107 6.03267L17.9243 5.62395C17.4204 5.32388 16.7724 5.62443 16.676 6.20295L16.5461 6.9819C16.0204 10.1114 13.8691 13.0192 11.4962 15.0627C6.85096 19.0648 5.83382 23.4143 7.27213 27.0047C8.64851 30.4405 12.1417 32.7931 15.6873 33.1856L16.5076 33.2759C14.4788 32.0435 13.1768 29.1644 13.631 27.0129C14.0797 24.8983 15.6102 22.9178 18.5501 21.0904L20.0325 20.1713L20.5858 21.8195C20.912 22.7933 21.4763 23.5757 22.0503 24.3703C22.3255 24.7533 22.6049 25.1404 22.861 25.5521C23.746 26.9814 23.9799 28.5708 23.4087 30.1478C22.8885 31.5812 22.031 32.7083 20.8487 33.3333L22.1838 33.1856C25.5118 32.8177 27.9549 31.6865 29.5419 29.7949C31.1151 27.9197 31.667 25.5056 31.667 22.9356C31.667 20.542 30.6774 18.0745 29.5102 16.0215C28.3335 13.9534 26.8484 12.1868 25.2158 10.5016C24.8215 10.0946 24.1921 10.2252 23.951 10.738C23.8352 10.9844 23.6741 11.2818 23.4032 11.7021C22.5024 9.32483 20.8116 7.32463 18.6107 6.03267Z" fill="#FA967C"/>
<g style="mix-blend-mode:multiply">
<path d="M23.3838 29.0497C23.3838 32.4758 27.909 35.0002 29.606 35.0002C31.303 35.0002 35.8282 32.4758 35.8282 29.0497C35.8282 27.2463 35.8282 25.6142 35.8282 24.4727C35.8282 23.4855 35.1906 22.6125 34.2516 22.3132L30.6351 21.1603C29.9656 20.9469 29.2465 20.9469 28.577 21.1603L24.9604 22.3132C24.0214 22.6125 23.3838 23.4855 23.3838 24.4727C23.3838 25.6142 23.3838 27.2463 23.3838 29.0497Z" fill="#D63D4A"/>
</g>
<path d="M32.5351 25.3542C32.8356 25.1661 33.2366 25.2081 33.4905 25.4747C33.7443 25.7415 33.7664 26.1442 33.5638 26.435L33.4645 26.5521L29.459 30.3624C29.3122 30.5017 29.116 30.5778 28.9137 30.5723C28.7112 30.5668 28.5189 30.4804 28.3799 30.3331L25.7171 27.5092L25.6243 27.3871C25.4378 27.0858 25.4819 26.686 25.7497 26.4333C26.0176 26.1807 26.42 26.1594 26.7099 26.3633L26.8271 26.4643L28.9626 28.7299L32.4131 25.4486L32.5351 25.3542Z" fill="white"/>
<path d="M6.66699 12.4999C6.66699 10.1987 8.53247 8.33325 10.8337 8.33325C11.2939 8.33325 11.667 8.70635 11.667 9.16659C11.667 9.62682 11.2939 9.99992 10.8337 9.99992C9.45295 9.99992 8.33366 11.1192 8.33366 12.4999C8.33366 12.9602 7.96056 13.3333 7.50033 13.3333C7.04009 13.3333 6.66699 12.9602 6.66699 12.4999Z" fill="#D63D4A"/>
<path d="M2.5 13.3334V11.6667C2.5 7.52461 5.85786 4.16675 10 4.16675H11.6667C12.1269 4.16675 12.5 4.53984 12.5 5.00008C12.5 5.46032 12.1269 5.83341 11.6667 5.83341H10C6.77834 5.83341 4.16667 8.44509 4.16667 11.6667V13.3334C4.16667 13.7937 3.79357 14.1667 3.33333 14.1667C2.8731 14.1667 2.5 13.7937 2.5 13.3334Z" fill="#D63D4A"/>
</svg>
