<svg width="40" height="40" viewBox="0 0 40 40" fill="none" xmlns="http://www.w3.org/2000/svg">
<path d="M21.1047 3.54694L32.1232 7.94996C32.7234 8.18971 33.2406 8.61898 33.6057 9.18039C33.9708 9.74179 34.1664 10.4086 34.1663 11.0916V20.0872C34.1664 22.8908 33.4338 25.639 32.0507 28.0238C30.6675 30.4087 28.6885 32.336 26.3353 33.5898L21.0559 36.4011C20.728 36.5758 20.3663 36.6668 19.9997 36.6668C19.633 36.6668 19.2714 36.5758 18.9435 36.4011L13.664 33.5882C11.3108 32.3343 9.33181 30.407 7.94867 28.0222C6.56554 25.6373 5.83295 22.8891 5.83301 20.0855V11.0933C5.83261 10.41 6.02804 9.74282 6.39317 9.18108C6.7583 8.61934 7.2757 8.18981 7.87616 7.94996L18.8947 3.54694C19.6071 3.26235 20.3922 3.26235 21.1047 3.54694Z" fill="#FA967C"/>
<path d="M8.54844 9.55984L15.2388 6.77477C15.5044 6.6642 15.7439 7.0939 15.5189 7.27318C12.0571 10.0315 9.56489 13.4938 8.04245 18.867C7.96468 19.1415 7.50424 19.0867 7.50488 18.8014L7.52229 11.0947C7.52381 10.4231 7.92835 9.81797 8.54844 9.55984Z" fill="white"/>
<g style="mix-blend-mode:multiply">
<path d="M24.7214 19.0024C25.4579 19.0024 26.165 19.2878 26.6859 19.7951C27.2067 20.3026 27.4996 20.9915 27.4997 21.7091C27.4997 22.1398 27.324 22.5537 27.0114 22.8582C26.6989 23.1626 26.2749 23.3335 25.833 23.3335H24.1061C23.9617 23.139 23.8053 22.9516 23.6292 22.7801C22.8592 22.0299 21.852 21.5734 20.7858 21.4764C21.4239 20.7911 21.8242 19.9253 21.9268 19.0024H24.7214Z" fill="#D63D4A"/>
<path d="M22.4997 13.3335C23.1973 13.3335 23.8666 13.6033 24.36 14.0838C24.8534 14.5645 25.1313 15.2172 25.1315 15.897C25.1315 16.577 24.8535 17.2293 24.36 17.7101C23.8665 18.191 23.1976 18.4621 22.4997 18.4621C22.3125 18.4621 22.1281 18.4397 21.9479 18.4019C21.9177 17.4288 21.5611 16.4995 20.9372 15.757L20.641 15.4364C20.4583 15.2584 20.2597 15.1004 20.0518 14.9578C20.183 14.6334 20.3815 14.335 20.6393 14.0838C21.1328 13.6033 21.802 13.3335 22.4997 13.3335Z" fill="#D63D4A"/>
</g>
<g style="mix-blend-mode:multiply">
<path fill-rule="evenodd" clip-rule="evenodd" d="M14.9077 22.448C14.0482 22.448 13.2239 22.7807 12.6162 23.3728C12.0084 23.965 11.667 24.7681 11.667 25.6056C11.667 26.1081 11.8719 26.59 12.2365 26.9453C12.6012 27.3006 13.0957 27.5002 13.6114 27.5002H21.3892C21.9049 27.5002 22.3995 27.3006 22.7641 26.9453C23.1288 26.59 23.3337 26.1081 23.3337 25.6056C23.3337 24.7681 22.9922 23.965 22.3845 23.3728C21.7767 22.7807 20.9524 22.448 20.0929 22.448H14.9077Z" fill="#D63D4A"/>
<path d="M15.3294 16.7097C14.7536 17.2707 14.4302 18.0315 14.4302 18.8249C14.4302 19.6183 14.7536 20.3792 15.3294 20.9402C15.9052 21.5012 16.6861 21.8163 17.5004 21.8163C18.3146 21.8163 19.0955 21.5012 19.6713 20.9402C20.2471 20.3792 20.5705 19.6183 20.5705 18.8249C20.5705 18.0315 20.2471 17.2707 19.6713 16.7097C19.0955 16.1487 18.3146 15.8335 17.5004 15.8335C16.6861 15.8335 15.9052 16.1487 15.3294 16.7097Z" fill="#D63D4A"/>
</g>
</svg>
