<svg width="40" height="40" viewBox="0 0 40 40" fill="none" xmlns="http://www.w3.org/2000/svg">
<g style="mix-blend-mode:multiply">
<path fill-rule="evenodd" clip-rule="evenodd" d="M13.181 5.83301C12.6372 5.8332 12.1031 5.98867 11.6328 6.28366C11.1625 6.57866 10.7728 7.0027 10.503 7.51282L4.98049 17.9534C4.71366 18.4572 4.57328 19.0277 4.57324 19.6082V27.104C4.57327 27.6212 4.68471 28.1313 4.89873 28.5939L6.62337 32.3201C6.87953 32.8739 7.27341 33.3397 7.76085 33.6652C8.24829 33.9908 8.81003 34.1632 9.3831 34.1633H10.7437C11.5619 34.1633 12.3467 33.8121 12.9253 33.1871C13.5038 32.562 13.8289 31.7142 13.8289 30.8303H26.1698C26.1698 31.7142 26.4948 32.562 27.0734 33.1871C27.652 33.8121 28.4367 34.1633 29.255 34.1633H30.6156C31.1886 34.1632 31.7504 33.9908 32.2378 33.6652C32.7253 33.3397 33.1191 32.8739 33.3753 32.3201L35.0999 28.5939C35.3143 28.1322 35.4254 27.6206 35.4254 27.104V19.6082C35.4254 19.0277 35.285 18.4572 35.0182 17.9534L29.4956 7.51282C29.2259 7.0027 28.8361 6.57866 28.3659 6.28366C27.8956 5.98867 27.3615 5.8332 26.8177 5.83301H13.181Z" fill="#FA967C"/>
<g style="mix-blend-mode:multiply">
<path d="M7.7537 33.6692C7.26626 33.3436 6.87239 32.8779 6.61622 32.3241L5.75391 30.4609H34.2305L33.3681 32.3241C33.112 32.8779 32.7181 33.3436 32.2307 33.6692C31.7432 33.9947 31.1815 34.1672 30.6084 34.1672H29.2478C28.4296 34.1672 27.6448 33.8161 27.0663 33.191C26.4877 32.5659 26.1626 31.7182 26.1626 30.8342H13.8217C13.8217 31.7182 13.4967 32.5659 12.9181 33.191C12.3395 33.8161 11.5548 34.1672 10.7365 34.1672H9.37595C8.80288 34.1672 8.24114 33.9947 7.7537 33.6692Z" fill="#D63D4A"/>
</g>
<g style="mix-blend-mode:multiply">
<path d="M9.70874 15.7591L12.2277 10.0915C12.4551 9.57976 12.9625 9.25 13.5225 9.25H26.7946C27.3546 9.25 27.862 9.57976 28.0894 10.0915L30.6084 15.7591C31.0248 16.6961 30.339 17.7515 29.3136 17.7515H11.0035C9.97817 17.7515 9.2923 16.6961 9.70874 15.7591Z" fill="#D63D4A"/>
</g>
<circle cx="12.3666" cy="24.2523" r="2.12537" fill="white"/>
<circle cx="27.9525" cy="24.2523" r="2.12537" fill="white"/>
<path fill-rule="evenodd" clip-rule="evenodd" d="M15.2213 9.66671C16.4416 8.48134 18.1269 7.74414 19.9834 7.74414C21.8399 7.74414 23.5252 8.48134 24.7455 9.66671C25.0617 9.97389 25.0629 10.473 24.748 10.7816C24.4332 11.0902 23.9217 11.0913 23.6054 10.7841C22.674 9.87936 21.3933 9.32086 19.9834 9.32086C18.5735 9.32086 17.2928 9.87936 16.3613 10.7841C16.0451 11.0913 15.5336 11.0902 15.2188 10.7816C14.9039 10.473 14.9051 9.97389 15.2213 9.66671Z" fill="white"/>
<path fill-rule="evenodd" clip-rule="evenodd" d="M19.981 12.5904C19.2068 12.5904 18.5022 12.8977 17.9865 13.3972C17.6698 13.7039 17.1583 13.702 16.8439 13.393C16.5296 13.084 16.5314 12.5849 16.8481 12.2781C17.6506 11.5008 18.7585 11.0137 19.981 11.0137C21.2019 11.0137 22.3162 11.4997 23.116 12.2802C23.4315 12.5881 23.4315 13.0872 23.116 13.3951C22.8005 13.703 22.2889 13.703 21.9734 13.3951C21.4647 12.8988 20.7568 12.5904 19.981 12.5904Z" fill="white"/>
<path d="M19.9849 16.3151C20.5228 16.3151 20.959 15.8895 20.959 15.3646C20.959 14.8396 20.5228 14.4141 19.9849 14.4141C19.4469 14.4141 19.0107 14.8396 19.0107 15.3646C19.0107 15.8895 19.4469 16.3151 19.9849 16.3151Z" fill="white"/>
</g>
</svg>
