<svg width="40" height="40" viewBox="0 0 40 40" fill="none" xmlns="http://www.w3.org/2000/svg">
<path d="M34.5837 19.5833C34.5837 27.6375 28.0545 34.1667 20.0003 34.1667C11.9462 34.1667 5.41699 27.6375 5.41699 19.5833C5.41699 11.5292 11.9462 5 20.0003 5C28.0545 5 34.5837 11.5292 34.5837 19.5833Z" fill="white"/>
<path d="M34.5837 19.5833C34.5837 27.6375 28.0545 34.1667 20.0003 34.1667C11.9462 34.1667 5.41699 27.6375 5.41699 19.5833C5.41699 11.5292 11.9462 5 20.0003 5C28.0545 5 34.5837 11.5292 34.5837 19.5833Z" fill="#FA967C"/>
<g style="mix-blend-mode:multiply">
<path d="M30.417 19.5833C30.417 13.8304 25.7533 9.16667 20.0003 9.16667C14.2474 9.16667 9.58366 13.8304 9.58366 19.5833C9.58366 20.7339 8.65092 21.6667 7.50033 21.6667C6.34973 21.6667 5.41699 20.7339 5.41699 19.5833C5.41699 11.5292 11.9462 5 20.0003 5C28.0545 5 34.5837 11.5292 34.5837 19.5833C34.5837 20.7339 33.6509 21.6667 32.5003 21.6667C31.3497 21.6667 30.417 20.7339 30.417 19.5833Z" fill="#D63D4A"/>
</g>
<g style="mix-blend-mode:multiply">
<path d="M22.5131 16.2598C23.0823 15.6912 24.0046 15.691 24.5737 16.2598C25.1429 16.829 25.1429 17.7528 24.5737 18.322L17.4887 25.4069C16.9195 25.9761 15.9957 25.9761 15.4265 25.4069C14.8577 24.8379 14.8579 23.9155 15.4265 23.3464L22.5131 16.2598Z" fill="#D63D4A"/>
<path d="M23.3334 22.5C24.2538 22.5 25 23.2463 25.0001 24.1667C25.0001 25.0872 24.2539 25.8333 23.3334 25.8333C22.413 25.8332 21.6668 25.0871 21.6668 24.1667C21.6669 23.2464 22.4131 22.5001 23.3334 22.5Z" fill="#D63D4A"/>
<path d="M16.6668 15.8333C17.5872 15.8333 18.3333 16.5796 18.3334 17.5C18.3334 18.4205 17.5872 19.1667 16.6668 19.1667C15.7464 19.1666 15.0001 18.4204 15.0001 17.5C15.0002 16.5797 15.7464 15.8334 16.6668 15.8333Z" fill="#D63D4A"/>
</g>
</svg>
