<svg width="40" height="40" viewBox="0 0 40 40" fill="none" xmlns="http://www.w3.org/2000/svg">
<path d="M5.83301 7.49984C5.83301 5.65889 7.32539 4.1665 9.16634 4.1665H30.833C32.674 4.1665 34.1663 5.65889 34.1663 7.49984V19.1605C34.1663 23.2947 31.9784 27.1202 28.4149 29.2164L25.9149 30.687C22.2638 32.8346 17.7355 32.8346 14.0844 30.687L11.5844 29.2164C8.02099 27.1202 5.83301 23.2947 5.83301 19.1605V7.49984Z" fill="#FA967C"/>
<path d="M13.333 32.5002C13.333 31.5797 14.0792 30.8335 14.9997 30.8335H24.9997C25.9201 30.8335 26.6663 31.5797 26.6663 32.5002V34.1668C26.6663 35.0873 25.9201 35.8335 24.9997 35.8335H14.9997C14.0792 35.8335 13.333 35.0873 13.333 34.1668V32.5002Z" fill="#D63D4A"/>
<path d="M21.667 12.4998C21.667 12.0396 21.2939 11.6665 20.8337 11.6665H19.167C18.7068 11.6665 18.3337 12.0396 18.3337 12.4998V15.8332H15.0003C14.5401 15.8332 14.167 16.2063 14.167 16.6665V18.3332C14.167 18.7934 14.5401 19.1665 15.0003 19.1665H18.3337V22.4998C18.3337 22.9601 18.7068 23.3332 19.167 23.3332H20.8337C21.2939 23.3332 21.667 22.9601 21.667 22.4998V19.1665H25.0003C25.4606 19.1665 25.8337 18.7934 25.8337 18.3332V16.6665C25.8337 16.2063 25.4606 15.8332 25.0003 15.8332H21.667V12.4998Z" fill="#D63D4A"/>
</svg>
