<svg width="40" height="40" viewBox="0 0 40 40" fill="none" xmlns="http://www.w3.org/2000/svg">
<rect x="5" y="11.666" width="30" height="20" rx="3.86471" fill="#FA967C"/>
<rect x="14.001" y="15.6675" width="12" height="12" rx="6" fill="#D63D4A"/>
<path d="M20.001 18.1665C20.4842 18.1665 20.876 18.5583 20.876 19.0415V20.7915H22.626C23.1092 20.7915 23.501 21.1833 23.501 21.6665C23.5007 22.1495 23.1091 22.5415 22.626 22.5415H20.876V24.2915C20.876 24.7748 20.4842 25.1665 20.001 25.1665C19.5177 25.1665 19.126 24.7748 19.126 24.2915V22.5415H17.376C16.8929 22.5415 16.5012 22.1495 16.501 21.6665C16.501 21.1833 16.8927 20.7915 17.376 20.7915H19.126V19.0415C19.126 18.5583 19.5177 18.1665 20.001 18.1665Z" fill="white"/>
<path d="M26 6.6665C27.1045 6.6665 27.9999 7.56201 28 8.6665V11.6665H25V9.72607C25 9.14138 24.5261 8.6676 23.9414 8.66748H16.0586C15.4739 8.66761 15 9.14138 15 9.72607V11.6665H12V8.6665C12.0001 7.56212 12.8956 6.66668 14 6.6665H26Z" fill="#D63D4A"/>
<path d="M8.33301 31.6675H11.6663V31.9224C11.6663 32.7021 11.0343 33.3341 10.2546 33.3341H9.74477C8.96508 33.3341 8.33301 32.7021 8.33301 31.9224V31.6675Z" fill="#D63D4A"/>
<path d="M28.333 31.6675H31.6663V31.9224C31.6663 32.7021 31.0343 33.3341 30.2546 33.3341H29.7448C28.9651 33.3341 28.333 32.7021 28.333 31.9224V31.6675Z" fill="#D63D4A"/>
</svg>
