<svg width="40" height="40" viewBox="0 0 40 40" fill="none" xmlns="http://www.w3.org/2000/svg">
<path d="M20.6924 2.68164C21.3208 2.43997 22.0132 2.43997 22.6416 2.68164L32.3643 6.4248C32.8938 6.6286 33.3498 6.99355 33.6719 7.4707C33.994 7.94784 34.167 8.51422 34.167 9.09473V16.7412C34.167 19.1242 33.5202 21.4602 32.2998 23.4873C32.0605 23.8849 31.7998 24.2666 31.5215 24.6328C31.5938 24.1179 31.6415 23.5985 31.6592 23.0762L31.667 22.5732V14.9277C31.6671 14.0182 31.397 13.126 30.8877 12.3711C30.4414 11.7099 29.828 11.1781 29.1104 10.8359L28.7959 10.7012L19.0742 6.95898C18.1873 6.61775 17.2196 6.57529 16.3125 6.83105L15.9268 6.95898L9.16699 9.56055V9.09668C9.16664 8.51585 9.33896 7.94818 9.66113 7.4707C9.98327 6.99332 10.44 6.62867 10.9697 6.4248L20.6924 2.68164Z" fill="white"/>
<path d="M20.6924 2.68213C21.3208 2.44045 22.0132 2.44046 22.6416 2.68213L32.3643 6.42529C32.8938 6.62909 33.3507 6.99402 33.6729 7.47119C33.9948 7.94824 34.167 8.51488 34.167 9.09521V16.7417C34.167 19.1247 33.5202 21.4607 32.2998 23.4878C32.0605 23.8853 31.7998 24.2671 31.5215 24.6333C31.5938 24.1184 31.6415 23.599 31.6592 23.0767L31.667 22.5737V14.9282C31.6671 14.0187 31.397 13.1264 30.8877 12.3716C30.4414 11.7104 29.828 11.1786 29.1104 10.8364L28.7959 10.7017L19.0742 6.95947C18.1873 6.61824 17.2196 6.57577 16.3125 6.83154L15.9268 6.95947L9.16699 9.56104V9.09717C9.16664 8.51634 9.33896 7.94867 9.66113 7.47119C9.98326 6.99381 10.44 6.62916 10.9697 6.42529L20.6924 2.68213Z" fill="#D63D4A"/>
<path d="M18.475 8.51492L28.1972 12.2575C28.7268 12.4613 29.1832 12.8262 29.5053 13.3034C29.8275 13.7805 30.0001 14.3473 30 14.9279V22.5742C30.0001 24.9572 29.3537 27.2931 28.1332 29.3203C26.9128 31.3474 25.1666 32.9856 23.0903 34.0514L18.4319 36.4409C18.1426 36.5895 17.8235 36.6668 17.5 36.6668C17.1765 36.6668 16.8574 36.5895 16.5681 36.4409L11.9097 34.05C9.83339 32.9842 8.08718 31.346 6.86676 29.3189C5.64635 27.2917 4.99995 24.9558 5 22.5727V14.9293C4.99965 14.3485 5.17209 13.7814 5.49426 13.3039C5.81643 12.8265 6.27296 12.4614 6.80278 12.2575L16.525 8.51492C17.1536 8.27302 17.8464 8.27302 18.475 8.51492Z" fill="#FA967C"/>
<path fill-rule="evenodd" clip-rule="evenodd" d="M22.5612 17.0111C23.1073 17.5052 23.1494 18.3483 22.6554 18.8944L17.3776 24.7277C17.1259 25.006 16.7685 25.1653 16.3932 25.1665C16.018 25.1677 15.6596 25.0108 15.406 24.7341L12.3505 21.4008C11.8529 20.858 11.8895 20.0146 12.4324 19.517C12.9752 19.0194 13.8186 19.0561 14.3162 19.5989L16.3825 21.853L20.678 17.1053C21.172 16.5592 22.0152 16.5171 22.5612 17.0111Z" fill="#D63D4A"/>
<path d="M7.39539 13.9197L13.2987 11.5524C13.533 11.4584 13.7444 11.8236 13.5458 11.976C10.4912 14.3206 8.29227 17.2636 6.94894 21.8308C6.88032 22.0641 6.47404 22.0175 6.47461 21.775L6.48997 15.2243C6.49131 14.6534 6.84826 14.1391 7.39539 13.9197Z" fill="white"/>
</svg>
