<svg width="40" height="40" viewBox="0 0 40 40" fill="none" xmlns="http://www.w3.org/2000/svg">
<path d="M10 18.3335C10 12.8106 14.4772 8.3335 20 8.3335C25.5228 8.3335 30 12.8106 30 18.3335V35.0002H10V18.3335Z" fill="#FA967C"/>
<g style="mix-blend-mode:multiply">
<path d="M26.6663 18.3332C26.6663 22.0151 23.6816 24.9998 19.9997 24.9998C16.3178 24.9998 13.333 22.0151 13.333 18.3332C13.333 14.6513 16.3178 11.6665 19.9997 11.6665C23.6816 11.6665 26.6663 14.6513 26.6663 18.3332Z" fill="#D63D4A"/>
</g>
<path d="M22.222 17.6675L22.3566 17.6805C22.6603 17.7427 22.8882 18.0116 22.8882 18.3337C22.8882 18.6558 22.6603 18.9247 22.3566 18.9869L22.222 18.9999H17.7776C17.4094 18.9999 17.1113 18.7019 17.1113 18.3337C17.1113 17.9655 17.4094 17.6675 17.7776 17.6675H22.222Z" fill="white"/>
<path d="M20.6664 20.555L20.6534 20.6896C20.5912 20.9933 20.3223 21.2212 20.0002 21.2212C19.6781 21.2212 19.4092 20.9933 19.347 20.6896L19.334 20.555L19.334 16.1106C19.334 15.7424 19.632 15.4443 20.0002 15.4443C20.3684 15.4443 20.6664 15.7424 20.6664 16.1106L20.6664 20.555Z" fill="white"/>
<g style="mix-blend-mode:multiply">
<path d="M6.66699 32.5C6.66699 31.1193 7.78628 30 9.16699 30H30.8337C32.2144 30 33.3337 31.1193 33.3337 32.5C33.3337 33.8807 32.2144 35 30.8337 35H9.16699C7.78628 35 6.66699 33.8807 6.66699 32.5Z" fill="#D63D4A"/>
</g>
<path d="M21.333 6.5L21.3265 6.63672C21.258 7.30888 20.6902 7.83301 20 7.83301C19.3098 7.83301 18.742 7.30888 18.6735 6.63672L18.667 6.5L18.667 4C18.667 3.26362 19.2636 2.66699 20 2.66699C20.7364 2.66699 21.333 3.26362 21.333 4L21.333 6.5Z" fill="#D63D4A"/>
<path d="M11.2622 9.37655L11.3543 9.47783C11.7812 10.0015 11.7503 10.7736 11.2622 11.2617C10.7741 11.7498 10.002 11.7807 9.47832 11.3538L9.37704 11.2617L7.60927 9.49394C7.08858 8.97324 7.08858 8.12949 7.60927 7.60879C8.12997 7.08809 8.97373 7.08809 9.49443 7.60879L11.2622 9.37655Z" fill="#D63D4A"/>
<path d="M28.9571 9.37655L28.865 9.47783C28.4381 10.0015 28.469 10.7736 28.9571 11.2617C29.4452 11.7498 30.2173 11.7807 30.741 11.3538L30.8423 11.2617L32.61 9.49394C33.1307 8.97324 33.1307 8.12949 32.61 7.60879C32.0893 7.08809 31.2456 7.08809 30.7249 7.60879L28.9571 9.37655Z" fill="#D63D4A"/>
</svg>
