<svg width="32" height="32" viewBox="0 0 32 32" fill="none" xmlns="http://www.w3.org/2000/svg">
<g clip-path="url(#clip0_17770_320569)">
<g clip-path="url(#clip1_17770_320569)">
<g clip-path="url(#clip2_17770_320569)">
<path d="M19.0059 12.4346C19.3183 12.1223 19.8243 12.1222 20.1367 12.4346C20.449 12.747 20.449 13.253 20.1367 13.5654L13.0654 20.6367C12.753 20.949 12.247 20.949 11.9346 20.6367C11.6222 20.3243 11.6223 19.8183 11.9346 19.5059L19.0059 12.4346Z" fill="#33363D"/>
<path d="M21.002 19.2002C21.4438 19.2002 21.8018 19.5582 21.8018 20C21.8018 20.4418 21.4438 20.7998 21.002 20.7998H17.002C16.5601 20.7998 16.2021 20.4418 16.2021 20C16.2021 19.5582 16.5601 19.2002 17.002 19.2002H21.002Z" fill="#33363D"/>
<path d="M12.7891 10.5C13.2309 10.5 13.5889 10.858 13.5889 11.2998V12.4951H14.7969C15.2387 12.4951 15.5967 12.8531 15.5967 13.2949C15.5967 13.7367 15.2387 14.0947 14.7969 14.0947H13.5889V15.2998C13.5889 15.7416 13.2309 16.0996 12.7891 16.0996C12.3472 16.0996 11.9893 15.7416 11.9893 15.2998V14.0947H10.7969C10.355 14.0947 9.99707 13.7367 9.99707 13.2949C9.99707 12.8531 10.355 12.4951 10.7969 12.4951H11.9893V11.2998C11.9893 10.858 12.3472 10.5 12.7891 10.5Z" fill="#33363D"/>
<path fill-rule="evenodd" clip-rule="evenodd" d="M22.5 7C24.1569 7 25.5 8.34315 25.5 10V23C25.5 24.6569 24.1569 26 22.5 26H9.5L9.3457 25.9961C7.76055 25.9158 6.5 24.6051 6.5 23V10C6.5 8.39489 7.76055 7.08421 9.3457 7.00391L9.5 7H22.5ZM9.5 8.59961C8.7268 8.59961 8.09961 9.2268 8.09961 10V23C8.09961 23.7732 8.7268 24.4004 9.5 24.4004H22.5C23.2732 24.4004 23.9004 23.7732 23.9004 23V10C23.9004 9.2268 23.2732 8.59961 22.5 8.59961H9.5Z" fill="#33363D"/>
</g>
</g>
</g>
<defs>
<clipPath id="clip0_17770_320569">
<rect width="32" height="32" fill="white"/>
</clipPath>
<clipPath id="clip1_17770_320569">
<rect width="24" height="24" fill="white" transform="translate(4 4)"/>
</clipPath>
<clipPath id="clip2_17770_320569">
<rect width="24" height="24" fill="white" transform="translate(4 4)"/>
</clipPath>
</defs>
</svg>
