<svg width="16" height="16" viewBox="0 0 16 16" fill="none" xmlns="http://www.w3.org/2000/svg">
<path fill-rule="evenodd" clip-rule="evenodd" d="M8.37747 13.1863C5.49143 13.3793 3.0014 11.2097 2.80996 8.34702C2.61852 5.48437 4.79749 3.00249 7.68353 2.80949C10.3025 2.63435 12.5967 4.40558 13.1407 6.87419C13.2041 7.16184 13.4887 7.34364 13.7763 7.28024C14.064 7.21685 14.2458 6.93227 14.1824 6.64462C13.5255 3.66426 10.7611 1.53464 7.61236 1.7452C4.14415 1.97714 1.51455 4.96215 1.74567 8.4182C1.9768 11.8743 4.98044 14.4825 8.44865 14.2506C11.0249 14.0783 13.1366 12.3877 13.959 10.1149C14.0593 9.83793 13.916 9.53215 13.639 9.43192C13.362 9.33169 13.0562 9.47498 12.956 9.75195C12.2733 11.6387 10.5191 13.0431 8.37747 13.1863Z" fill="#33363D"/>
<path d="M10.5333 7.80011L10.588 7.80271C10.8568 7.8301 11.0665 8.05722 11.0665 8.33331C11.0665 8.6094 10.8568 8.83653 10.588 8.86391L10.5333 8.86652L5.19995 8.86652C4.9054 8.86652 4.66675 8.62786 4.66675 8.33331C4.66675 8.03876 4.9054 7.80011 5.19995 7.80011L10.5333 7.80011Z" fill="#33363D"/>
<path d="M8.82296 5.95642C9.01826 5.76111 9.32702 5.74899 9.5365 5.91996L9.57686 5.95642L11.5769 7.95642L11.6133 7.99679C11.7729 8.19235 11.7729 8.4744 11.6133 8.66996L11.5769 8.71033L9.57686 10.7103C9.36858 10.9186 9.03124 10.9186 8.82296 10.7103C8.61468 10.502 8.61468 10.1647 8.82296 9.95642L10.446 8.33337L8.82296 6.71033L8.7865 6.66996C8.61552 6.46048 8.62765 6.15173 8.82296 5.95642Z" fill="#33363D"/>
</svg>
