<svg width="32" height="32" viewBox="0 0 32 32" fill="none" xmlns="http://www.w3.org/2000/svg">
<path fill-rule="evenodd" clip-rule="evenodd" d="M22.6304 8.23482C22.9428 7.92239 23.4493 7.92238 23.7618 8.23479C24.0742 8.5472 24.0742 9.05373 23.7618 9.36616L17.1294 15.999L23.7657 22.6357C24.0781 22.9481 24.0781 23.4546 23.7657 23.767C23.4532 24.0795 22.9467 24.0794 22.6343 23.767L15.998 17.1304L9.3618 23.767C9.04939 24.0794 8.54286 24.0795 8.23043 23.767C7.918 23.4546 7.91798 22.9481 8.23039 22.6357L14.8667 15.999L8.2343 9.36616C7.92189 9.05373 7.9219 8.5472 8.23433 8.23479C8.54676 7.92238 9.05329 7.92239 9.3657 8.23482L15.998 14.8676L22.6304 8.23482Z" fill="#33363D"/>
</svg>
