<svg width="33" height="32" viewBox="0 0 33 32" fill="none" xmlns="http://www.w3.org/2000/svg">
<path fill-rule="evenodd" clip-rule="evenodd" d="M11.4098 4.66669C11.0027 4.66683 10.6029 4.7832 10.2509 5.00401C9.89892 5.22481 9.60719 5.54221 9.40529 5.92404L5.27163 13.7389C5.0719 14.116 4.96682 14.543 4.9668 14.9775V20.5882C4.96682 20.9753 5.05023 21.3571 5.21043 21.7034L6.50133 24.4925C6.69307 24.907 6.98789 25.2557 7.35275 25.4993C7.7176 25.743 8.13807 25.8721 8.56701 25.8721H9.58542C10.1979 25.8721 10.7853 25.6093 11.2183 25.1414C11.6514 24.6736 11.8947 24.039 11.8947 23.3774H21.132C21.132 24.039 21.3753 24.6736 21.8084 25.1414C22.2414 25.6093 22.8288 25.8721 23.4413 25.8721H24.4597C24.8886 25.8721 25.3091 25.743 25.674 25.4993C26.0388 25.2557 26.3336 24.907 26.5254 24.4925L27.8163 21.7034C27.9768 21.3579 28.0599 20.9749 28.0599 20.5882V14.9775C28.0599 14.543 27.9548 14.116 27.7551 13.7389L23.6214 5.92404C23.4195 5.54221 23.1278 5.22481 22.7758 5.00401C22.4238 4.7832 22.024 4.66683 21.6169 4.66669H11.4098Z" fill="#FA967C"/>
<g style="mix-blend-mode:multiply">
<path d="M7.52397 25.6272C7.15911 25.3836 6.86429 25.0349 6.67255 24.6204L6.0271 23.2258H27.342L26.6966 24.6204C26.5049 25.0349 26.21 25.3836 25.8452 25.6272C25.4803 25.8709 25.0599 26 24.6309 26H23.6125C23 26 22.4127 25.7372 21.9796 25.2693C21.5465 24.8014 21.3032 24.1669 21.3032 23.5052H12.0659C12.0659 24.1669 11.8226 24.8014 11.3896 25.2693C10.9565 25.7372 10.3691 26 9.75664 26H8.73823C8.30928 26 7.88882 25.8709 7.52397 25.6272Z" fill="#D63D4A"/>
</g>
<g style="mix-blend-mode:multiply">
<path d="M8.62128 12.5217L10.7759 7.67383C10.8975 7.40018 11.1689 7.22382 11.4684 7.22382H21.7962C22.0957 7.22382 22.3671 7.40018 22.4887 7.67383L24.6433 12.5217C24.866 13.0228 24.4992 13.5873 23.9508 13.5873H9.31375C8.76537 13.5873 8.39856 13.0228 8.62128 12.5217Z" fill="#D63D4A"/>
</g>
<ellipse cx="10.7998" cy="18.4535" rx="1.59086" ry="1.59086" fill="white"/>
<ellipse cx="22.0911" cy="18.9242" rx="1.59086" ry="1.59086" fill="white"/>
<g style="mix-blend-mode:multiply">
<path d="M25.67 4C25.8072 4 25.9299 4.0854 25.9761 4.21326L26.3055 5.12652C26.4235 5.15577 26.5252 5.18563 26.6107 5.21612C26.7041 5.24941 26.8254 5.30074 26.9747 5.37012L27.7419 4.96412C27.8045 4.9308 27.8762 4.91873 27.9462 4.92976C28.0163 4.94079 28.0808 4.97431 28.1302 5.02526L28.8049 5.72292C28.8945 5.81578 28.9197 5.95158 28.8693 6.07011L28.5095 6.91337C28.569 7.02288 28.6169 7.11684 28.6533 7.19524C28.6925 7.28017 28.741 7.39839 28.7989 7.5499L29.6374 7.90923C29.7634 7.9629 29.8414 8.08889 29.833 8.22376L29.7714 9.19208C29.7672 9.25499 29.7446 9.31528 29.7064 9.36547C29.6682 9.41566 29.6162 9.45354 29.5567 9.47441L28.7625 9.75675C28.7398 9.86626 28.7158 9.96052 28.6906 10.0395C28.6498 10.162 28.6034 10.2825 28.5515 10.4007L28.9505 11.2827C28.9789 11.3447 28.9866 11.4141 28.9725 11.4807C28.9584 11.5474 28.9232 11.6077 28.8721 11.6528L28.1134 12.3304C28.0635 12.375 28.0011 12.4032 27.9347 12.4112C27.8682 12.4193 27.8009 12.4067 27.7419 12.3752L26.9598 11.9608C26.8376 12.0258 26.7113 12.083 26.5818 12.1321L26.2402 12.2599L25.9369 13.0999C25.9142 13.1613 25.8736 13.2144 25.8203 13.2525C25.7671 13.2905 25.7037 13.3116 25.6382 13.3132L24.7516 13.3332C24.6844 13.3348 24.6184 13.3156 24.5625 13.2783C24.5067 13.241 24.4637 13.1873 24.4394 13.1246L24.082 12.1787C23.96 12.137 23.8393 12.0918 23.7198 12.0434C23.6222 12.0011 23.526 11.9555 23.4314 11.9067L22.5448 12.2856C22.4864 12.3106 22.422 12.3181 22.3594 12.3071C22.2968 12.2961 22.2388 12.267 22.1925 12.2235L21.5364 11.608C21.4873 11.5625 21.454 11.5026 21.441 11.437C21.428 11.3714 21.4361 11.3034 21.464 11.2426L21.8453 10.4119C21.7948 10.3135 21.7478 10.2132 21.7044 10.1114C21.6538 9.98673 21.6071 9.86051 21.5644 9.73295L20.7291 9.47861C20.6612 9.45809 20.602 9.41572 20.5606 9.35809C20.5193 9.30045 20.4981 9.23078 20.5004 9.15988L20.5331 8.26343C20.5355 8.20496 20.5538 8.14826 20.586 8.09942C20.6183 8.05058 20.6632 8.01145 20.716 7.98623L21.5924 7.5653C21.6328 7.41659 21.6686 7.30024 21.6997 7.21624C21.7437 7.10342 21.7926 6.99256 21.8462 6.88397L21.4664 6.08131C21.4373 6.0204 21.4285 5.95182 21.4411 5.88553C21.4536 5.81923 21.487 5.75867 21.5364 5.71265L22.1916 5.09386C22.2374 5.05043 22.2949 5.02124 22.357 5.00981C22.4191 4.99838 22.4832 5.00521 22.5415 5.02946L23.4272 5.39532C23.5249 5.3303 23.6139 5.27679 23.6942 5.23479C23.7897 5.18439 23.9179 5.13057 24.0787 5.07332L24.3867 4.2142C24.4097 4.15147 24.4514 4.09731 24.5061 4.05901C24.5608 4.02071 24.626 4.00012 24.6928 4H25.67ZM25.1781 7.2755C24.4002 7.2755 23.7698 7.8985 23.7698 8.66756C23.7698 9.43662 24.4002 10.0601 25.1781 10.0601C25.956 10.0601 26.586 9.43662 26.586 8.66756C26.586 7.8985 25.956 7.2755 25.1781 7.2755Z" fill="black"/>
<path d="M25.67 4C25.8072 4 25.9299 4.0854 25.9761 4.21326L26.3055 5.12652C26.4235 5.15577 26.5252 5.18563 26.6107 5.21612C26.7041 5.24941 26.8254 5.30074 26.9747 5.37012L27.7419 4.96412C27.8045 4.9308 27.8762 4.91873 27.9462 4.92976C28.0163 4.94079 28.0808 4.97431 28.1302 5.02526L28.8049 5.72292C28.8945 5.81578 28.9197 5.95158 28.8693 6.07011L28.5095 6.91337C28.569 7.02288 28.6169 7.11684 28.6533 7.19524C28.6925 7.28017 28.741 7.39839 28.7989 7.5499L29.6374 7.90923C29.7634 7.9629 29.8414 8.08889 29.833 8.22376L29.7714 9.19208C29.7672 9.25499 29.7446 9.31528 29.7064 9.36547C29.6682 9.41566 29.6162 9.45354 29.5567 9.47441L28.7625 9.75675C28.7398 9.86626 28.7158 9.96052 28.6906 10.0395C28.6498 10.162 28.6034 10.2825 28.5515 10.4007L28.9505 11.2827C28.9789 11.3447 28.9866 11.4141 28.9725 11.4807C28.9584 11.5474 28.9232 11.6077 28.8721 11.6528L28.1134 12.3304C28.0635 12.375 28.0011 12.4032 27.9347 12.4112C27.8682 12.4193 27.8009 12.4067 27.7419 12.3752L26.9598 11.9608C26.8376 12.0258 26.7113 12.083 26.5818 12.1321L26.2402 12.2599L25.9369 13.0999C25.9142 13.1613 25.8736 13.2144 25.8203 13.2525C25.7671 13.2905 25.7037 13.3116 25.6382 13.3132L24.7516 13.3332C24.6844 13.3348 24.6184 13.3156 24.5625 13.2783C24.5067 13.241 24.4637 13.1873 24.4394 13.1246L24.082 12.1787C23.96 12.137 23.8393 12.0918 23.7198 12.0434C23.6222 12.0011 23.526 11.9555 23.4314 11.9067L22.5448 12.2856C22.4864 12.3106 22.422 12.3181 22.3594 12.3071C22.2968 12.2961 22.2388 12.267 22.1925 12.2235L21.5364 11.608C21.4873 11.5625 21.454 11.5026 21.441 11.437C21.428 11.3714 21.4361 11.3034 21.464 11.2426L21.8453 10.4119C21.7948 10.3135 21.7478 10.2132 21.7044 10.1114C21.6538 9.98673 21.6071 9.86051 21.5644 9.73295L20.7291 9.47861C20.6612 9.45809 20.602 9.41572 20.5606 9.35809C20.5193 9.30045 20.4981 9.23078 20.5004 9.15988L20.5331 8.26343C20.5355 8.20496 20.5538 8.14826 20.586 8.09942C20.6183 8.05058 20.6632 8.01145 20.716 7.98623L21.5924 7.5653C21.6328 7.41659 21.6686 7.30024 21.6997 7.21624C21.7437 7.10342 21.7926 6.99256 21.8462 6.88397L21.4664 6.08131C21.4373 6.0204 21.4285 5.95182 21.4411 5.88553C21.4536 5.81923 21.487 5.75867 21.5364 5.71265L22.1916 5.09386C22.2374 5.05043 22.2949 5.02124 22.357 5.00981C22.4191 4.99838 22.4832 5.00521 22.5415 5.02946L23.4272 5.39532C23.5249 5.3303 23.6139 5.27679 23.6942 5.23479C23.7897 5.18439 23.9179 5.13057 24.0787 5.07332L24.3867 4.2142C24.4097 4.15147 24.4514 4.09731 24.5061 4.05901C24.5608 4.02071 24.626 4.00012 24.6928 4H25.67ZM25.1781 7.2755C24.4002 7.2755 23.7698 7.8985 23.7698 8.66756C23.7698 9.43662 24.4002 10.0601 25.1781 10.0601C25.956 10.0601 26.586 9.43662 26.586 8.66756C26.586 7.8985 25.956 7.2755 25.1781 7.2755Z" fill="#D63D4A"/>
</g>
</svg>
