<svg width="33" height="32" viewBox="0 0 33 32" fill="none" xmlns="http://www.w3.org/2000/svg">
<rect x="7.16675" y="5.33331" width="18.6667" height="22.6667" rx="2.66667" fill="#D9D9D9"/>
<rect x="7.16675" y="5.33331" width="18.6667" height="22.6667" rx="2.66667" fill="#FA967C"/>
<path d="M13.8333 22.6667V18.6667H19.1666V22.6667L16.4999 22L13.8333 22.6667Z" fill="#D63D4A"/>
<g style="mix-blend-mode:multiply">
<circle cx="16.5001" cy="14.6666" r="5.33333" fill="#D63D4A"/>
</g>
<path d="M18.1365 12.944C18.3518 12.7431 18.6881 12.7547 18.8891 12.97C19.09 13.1854 19.0784 13.5217 18.8631 13.7226L16.0063 16.3893C15.8014 16.5806 15.4833 16.5806 15.2784 16.3893L14.1365 15.3229C13.9212 15.1219 13.9095 14.7843 14.1105 14.569C14.3113 14.3543 14.6479 14.3427 14.8631 14.5429L15.6417 15.2708L18.1365 12.944Z" fill="white"/>
<g style="mix-blend-mode:multiply">
<rect x="12.5" y="4" width="8" height="2.66667" rx="1.33333" fill="#D63D4A"/>
</g>
</svg>
