<svg width="33" height="32" viewBox="0 0 33 32" fill="none" xmlns="http://www.w3.org/2000/svg">
<rect x="6.90112" y="3.73334" width="19.2" height="24.5333" rx="1" fill="#D9D9D9"/>
<rect x="6.90112" y="3.73334" width="19.2" height="24.5333" rx="1" fill="#FA967C"/>
<path fill-rule="evenodd" clip-rule="evenodd" d="M10.1001 8.00002C10.1001 7.41091 10.5777 6.93335 11.1668 6.93335H17.8334C18.4225 6.93335 18.9001 7.41091 18.9001 8.00002C18.9001 8.58912 18.4225 9.06668 17.8334 9.06668H11.1668C10.5777 9.06668 10.1001 8.58912 10.1001 8.00002ZM10.1001 12.5332C10.1001 11.9441 10.5777 11.4666 11.1668 11.4666H20.5001C21.0892 11.4666 21.5668 11.9441 21.5668 12.5332C21.5668 13.1223 21.0892 13.5999 20.5001 13.5999H11.1668C10.5777 13.5999 10.1001 13.1223 10.1001 12.5332Z" fill="#D63D4A"/>
<g style="mix-blend-mode:multiply">
<path fill-rule="evenodd" clip-rule="evenodd" d="M19.7458 21.9124C20.1623 21.4958 20.8377 21.4958 21.2543 21.9124L23.9209 24.5791C24.3375 24.9956 24.3375 25.671 23.9209 26.0876C23.5044 26.5041 22.829 26.5041 22.4124 26.0876L19.7458 23.4209C19.3292 23.0043 19.3292 22.329 19.7458 21.9124Z" fill="black"/>
<path fill-rule="evenodd" clip-rule="evenodd" d="M19.7458 21.9124C20.1623 21.4958 20.8377 21.4958 21.2543 21.9124L23.9209 24.5791C24.3375 24.9956 24.3375 25.671 23.9209 26.0876C23.5044 26.5041 22.829 26.5041 22.4124 26.0876L19.7458 23.4209C19.3292 23.0043 19.3292 22.329 19.7458 21.9124Z" fill="#D63D4A"/>
</g>
<g style="mix-blend-mode:multiply">
<circle cx="18.5" cy="21.3333" r="4" fill="#D63D4A"/>
</g>
</svg>
