<svg width="33" height="32" viewBox="0 0 33 32" fill="none" xmlns="http://www.w3.org/2000/svg">
<path d="M8.5 14.6667C8.5 10.2484 12.0817 6.66669 16.5 6.66669V6.66669C20.9183 6.66669 24.5 10.2484 24.5 14.6667V28H8.5V14.6667Z" fill="#D9D9D9"/>
<path d="M8.5 14.6667C8.5 10.2484 12.0817 6.66669 16.5 6.66669V6.66669C20.9183 6.66669 24.5 10.2484 24.5 14.6667V28H8.5V14.6667Z" fill="#FA967C"/>
<g style="mix-blend-mode:multiply">
<circle cx="16.5001" cy="14.6666" r="5.33333" fill="#D63D4A"/>
</g>
<path d="M18.2778 14.1338L18.3854 14.1442C18.6284 14.194 18.8107 14.4091 18.8107 14.6668C18.8107 14.9245 18.6284 15.1396 18.3854 15.1893L18.2778 15.1998H14.7222C14.4276 15.1998 14.1892 14.9613 14.1892 14.6668C14.1892 14.3722 14.4276 14.1338 14.7222 14.1338H18.2778Z" fill="white"/>
<path d="M17.033 16.4443L17.0225 16.552C16.9728 16.7949 16.7577 16.9773 16.5 16.9773C16.2423 16.9773 16.0272 16.7949 15.9774 16.552L15.967 16.4443L15.967 12.8888C15.967 12.5942 16.2054 12.3558 16.5 12.3558C16.7945 12.3558 17.033 12.5942 17.033 12.8888L17.033 16.4443Z" fill="white"/>
<g style="mix-blend-mode:multiply">
<rect x="5.83325" y="24" width="21.3333" height="4" rx="2" fill="#D63D4A"/>
</g>
<path d="M17.5664 5.19989L17.5612 5.30927C17.5064 5.84699 17.0522 6.2663 16.5 6.2663C15.9478 6.2663 15.4936 5.84699 15.4388 5.30927L15.4336 5.19989L15.4336 3.19989C15.4336 2.61079 15.9109 2.13348 16.5 2.13348C17.0891 2.13348 17.5664 2.61079 17.5664 3.19989L17.5664 5.19989Z" fill="black"/>
<path d="M17.5664 5.19989L17.5612 5.30927C17.5064 5.84699 17.0522 6.2663 16.5 6.2663C15.9478 6.2663 15.4936 5.84699 15.4388 5.30927L15.4336 5.19989L15.4336 3.19989C15.4336 2.61079 15.9109 2.13348 16.5 2.13348C17.0891 2.13348 17.5664 2.61079 17.5664 3.19989L17.5664 5.19989Z" fill="#D63D4A"/>
<path d="M9.50983 7.50159L9.58349 7.58261C9.92499 8.00157 9.90028 8.61927 9.50983 9.00972C9.11938 9.40017 8.50168 9.42488 8.08273 9.08337L8.0017 9.00972L6.58749 7.5955C6.17093 7.17894 6.17093 6.50394 6.58749 6.08738C7.00405 5.67082 7.67906 5.67082 8.09562 6.08738L9.50983 7.50159Z" fill="black"/>
<path d="M9.50983 7.50159L9.58349 7.58261C9.92499 8.00157 9.90028 8.61927 9.50983 9.00972C9.11938 9.40017 8.50168 9.42488 8.08273 9.08337L8.0017 9.00972L6.58749 7.5955C6.17093 7.17894 6.17093 6.50394 6.58749 6.08738C7.00405 5.67082 7.67906 5.67082 8.09562 6.08738L9.50983 7.50159Z" fill="#D63D4A"/>
<path d="M23.665 7.50159L23.5913 7.58261C23.2498 8.00157 23.2745 8.61927 23.665 9.00972C24.0554 9.40017 24.6731 9.42488 25.0921 9.08337L25.1731 9.00972L26.5873 7.5955C27.0039 7.17894 27.0039 6.50394 26.5873 6.08738C26.1708 5.67082 25.4957 5.67082 25.0792 6.08738L23.665 7.50159Z" fill="black"/>
<path d="M23.665 7.50159L23.5913 7.58261C23.2498 8.00157 23.2745 8.61927 23.665 9.00972C24.0554 9.40017 24.6731 9.42488 25.0921 9.08337L25.1731 9.00972L26.5873 7.5955C27.0039 7.17894 27.0039 6.50394 26.5873 6.08738C26.1708 5.67082 25.4957 5.67082 25.0792 6.08738L23.665 7.50159Z" fill="#D63D4A"/>
</svg>
