<svg width="32" height="32" viewBox="0 0 32 32" fill="none" xmlns="http://www.w3.org/2000/svg">
<path fill-rule="evenodd" clip-rule="evenodd" d="M12.0836 18.943C12.3481 18.5891 12.8494 18.5166 13.2033 18.7811C14.0109 19.3846 14.9917 19.7112 15.9999 19.7125C17.0078 19.7111 17.9884 19.3844 18.7958 18.7811C19.1497 18.5166 19.651 18.5891 19.9155 18.943C20.18 19.2969 20.1075 19.7982 19.7535 20.0627C18.6699 20.8725 17.3538 21.3109 16.001 21.3125L15.9992 21.3125C14.646 21.3111 13.3295 20.8728 12.2455 20.0627C11.8916 19.7982 11.8191 19.2969 12.0836 18.943ZM8.39778 12.7996L8.39648 12.802C8.29189 12.9924 8.20475 13.2529 8.15471 13.7845C8.10163 14.3485 8.1 15.0764 8.1 16.1929V17.6388C8.1 19.535 8.10318 20.8018 8.22582 21.745C8.34318 22.6476 8.54406 23.0093 8.76359 23.2364C8.97602 23.456 9.30424 23.6535 10.1512 23.7713C11.0501 23.8964 12.262 23.9 14.1 23.9H17.9C19.738 23.9 20.9501 23.8964 21.8491 23.7713C22.6965 23.6535 23.0242 23.456 23.2359 23.2369C23.4555 23.0096 23.6564 22.6476 23.7738 21.7451C23.8966 20.8021 23.9 19.5353 23.9 17.6388V16.1938C23.9 15.0768 23.8984 14.349 23.8453 13.785C23.7953 13.2535 23.7081 12.9927 23.6032 12.8013L23.6016 12.7984C23.499 12.6104 23.3336 12.4061 22.9291 12.0961C22.4956 11.7637 21.901 11.3924 20.9774 10.8188L19.0666 9.63319C18.0865 9.02461 17.4523 8.63331 16.9359 8.38222C16.4522 8.14703 16.1976 8.1 16 8.1C15.8025 8.1 15.5483 8.14695 15.0648 8.38204C14.5485 8.63311 13.915 9.02398 12.9345 9.63249L12.9334 9.63317L11.0339 10.8118L11.0279 10.8155C10.1026 11.3901 9.50687 11.7622 9.0726 12.095C8.66741 12.4056 8.50121 12.6105 8.39778 12.7996ZM12.0908 8.27303C13.9958 7.09069 14.9476 6.5 16 6.5C17.0526 6.5 18.0054 7.0909 19.9102 8.27365L21.8214 9.45958C23.6161 10.574 24.5149 11.1322 25.006 12.0318C25.5 12.9324 25.5 14.0193 25.5 16.1938V17.6388C25.5 21.3447 25.499 23.1972 24.3866 24.3486C23.2741 25.5 21.4824 25.5 17.9 25.5H14.1C10.5175 25.5 8.7268 25.5 7.6134 24.3486C6.5 23.1972 6.5 21.3438 6.5 17.6388V16.1929C6.5 14.0192 6.5 12.9315 6.994 12.0318C7.48651 11.1313 8.38567 10.5729 10.1839 9.45629L12.0908 8.27303Z" fill="#6D7882"/>
<path fill-rule="evenodd" clip-rule="evenodd" d="M12.0836 18.943C12.3481 18.5891 12.8494 18.5166 13.2033 18.7811C14.0109 19.3846 14.9917 19.7112 15.9999 19.7125C17.0078 19.7111 17.9884 19.3844 18.7958 18.7811C19.1497 18.5166 19.651 18.5891 19.9155 18.943C20.18 19.2969 20.1075 19.7982 19.7535 20.0627C18.6699 20.8725 17.3538 21.3109 16.001 21.3125L15.9992 21.3125C14.646 21.3111 13.3295 20.8728 12.2455 20.0627C11.8916 19.7982 11.8191 19.2969 12.0836 18.943ZM8.39778 12.7996L8.39648 12.802C8.29189 12.9924 8.20475 13.2529 8.15471 13.7845C8.10163 14.3485 8.1 15.0764 8.1 16.1929V17.6388C8.1 19.535 8.10318 20.8018 8.22582 21.745C8.34318 22.6476 8.54406 23.0093 8.76359 23.2364C8.97602 23.456 9.30424 23.6535 10.1512 23.7713C11.0501 23.8964 12.262 23.9 14.1 23.9H17.9C19.738 23.9 20.9501 23.8964 21.8491 23.7713C22.6965 23.6535 23.0242 23.456 23.2359 23.2369C23.4555 23.0096 23.6564 22.6476 23.7738 21.7451C23.8966 20.8021 23.9 19.5353 23.9 17.6388V16.1938C23.9 15.0768 23.8984 14.349 23.8453 13.785C23.7953 13.2535 23.7081 12.9927 23.6032 12.8013L23.6016 12.7984C23.499 12.6104 23.3336 12.4061 22.9291 12.0961C22.4956 11.7637 21.901 11.3924 20.9774 10.8188L19.0666 9.63319C18.0865 9.02461 17.4523 8.63331 16.9359 8.38222C16.4522 8.14703 16.1976 8.1 16 8.1C15.8025 8.1 15.5483 8.14695 15.0648 8.38204C14.5485 8.63311 13.915 9.02398 12.9345 9.63249L12.9334 9.63317L11.0339 10.8118L11.0279 10.8155C10.1026 11.3901 9.50687 11.7622 9.0726 12.095C8.66741 12.4056 8.50121 12.6105 8.39778 12.7996ZM12.0908 8.27303C13.9958 7.09069 14.9476 6.5 16 6.5C17.0526 6.5 18.0054 7.0909 19.9102 8.27365L21.8214 9.45958C23.6161 10.574 24.5149 11.1322 25.006 12.0318C25.5 12.9324 25.5 14.0193 25.5 16.1938V17.6388C25.5 21.3447 25.499 23.1972 24.3866 24.3486C23.2741 25.5 21.4824 25.5 17.9 25.5H14.1C10.5175 25.5 8.7268 25.5 7.6134 24.3486C6.5 23.1972 6.5 21.3438 6.5 17.6388V16.1929C6.5 14.0192 6.5 12.9315 6.994 12.0318C7.48651 11.1313 8.38567 10.5729 10.1839 9.45629L12.0908 8.27303Z" fill="#33363D"/>
</svg>
