<svg width="24" height="24" viewBox="0 0 24 24" fill="none" xmlns="http://www.w3.org/2000/svg">
<path d="M14.082 16.2041C14.4853 16.2452 14.7998 16.5859 14.7998 17C14.7998 17.4141 14.4853 17.7548 14.082 17.7959L14 17.7998H10C9.55817 17.7998 9.2002 17.4418 9.2002 17C9.2002 16.5582 9.55817 16.2002 10 16.2002H14L14.082 16.2041Z" fill="white"/>
<path fill-rule="evenodd" clip-rule="evenodd" d="M12 2.5C13.0526 2.5 14.0055 3.09074 15.9102 4.27344L17.8213 5.45996C19.6159 6.57438 20.5148 7.13256 21.0059 8.03223C21.4997 8.93272 21.5 10.0193 21.5 12.1934V13.6387C21.5 17.3446 21.4991 19.1972 20.3867 20.3486C19.2743 21.5 17.4826 21.5 13.9004 21.5H10.0996C6.51742 21.5 4.72664 21.5 3.61328 20.3486C2.49992 19.1972 2.5 17.3436 2.5 13.6387V12.1924C2.5 10.0193 2.5003 8.93177 2.99414 8.03223C3.48664 7.13168 4.38546 6.57266 6.18359 5.45605L8.09082 4.27344C9.99585 3.0911 10.9476 2.5 12 2.5ZM12 4.09961C11.8025 4.09961 11.5479 4.14675 11.0645 4.38184C10.5482 4.63291 9.91488 5.0244 8.93457 5.63281L7.03418 6.81152L7.02832 6.81543C6.10299 7.39004 5.50654 7.76189 5.07227 8.09473C4.66713 8.40524 4.50088 8.6107 4.39746 8.7998L4.39648 8.80176C4.29192 8.99218 4.20434 9.25271 4.1543 9.78418C4.10123 10.3481 4.09961 11.0762 4.09961 12.1924V13.6387C4.09961 15.5349 4.10295 16.8019 4.22559 17.7451C4.34294 18.6476 4.54415 19.0093 4.76367 19.2363C4.9761 19.456 5.30438 19.6537 6.15137 19.7715C7.05015 19.8965 8.26194 19.9004 10.0996 19.9004H13.9004C15.7381 19.9004 16.9507 19.8965 17.8496 19.7715C18.6966 19.6536 19.0246 19.4564 19.2363 19.2373C19.4559 19.01 19.656 18.6476 19.7734 17.7451C19.8962 16.8021 19.9004 15.5352 19.9004 13.6387V12.1934C19.9004 11.0768 19.8988 10.349 19.8457 9.78516C19.7957 9.25409 19.7084 8.99307 19.6035 8.80176L19.6016 8.79883C19.4989 8.61081 19.3332 8.40577 18.9287 8.0957C18.4953 7.76347 17.9008 7.3917 16.9775 6.81836L15.0664 5.63281C14.0865 5.02434 13.4519 4.63291 12.9355 4.38184C12.4521 4.14683 12.1975 4.09961 12 4.09961Z" fill="white"/>
</svg>
