<svg width="32" height="32" viewBox="0 0 32 32" fill="none" xmlns="http://www.w3.org/2000/svg">
<path fill-rule="evenodd" clip-rule="evenodd" d="M16.2417 7.6C16.0484 7.6 15.8917 7.7567 15.8917 7.95C15.8917 8.1433 16.0484 8.3 16.2417 8.3C16.435 8.3 16.5917 8.1433 16.5917 7.95C16.5917 7.7567 16.435 7.6 16.2417 7.6ZM14.2917 7.95C14.2917 6.87304 15.1647 6 16.2417 6C17.3186 6 18.1917 6.87304 18.1917 7.95C18.1917 8.74119 17.7205 9.42232 17.0434 9.72809V11.4661H22.3272C23.3437 11.4661 24.1678 12.2901 24.1678 13.3066V21.3999C24.1678 21.4326 24.1669 21.4652 24.1652 21.4976V23.7449C24.1652 24.9198 22.7459 25.5095 21.9134 24.6805L20.467 23.2404H9.84055C8.82404 23.2404 8 22.4164 8 21.3999V13.3066C8 12.2901 8.82405 11.4661 9.84056 11.4661H15.4434V9.72965C14.7645 9.42464 14.2917 8.74254 14.2917 7.95ZM9.84056 13.0661C9.7077 13.0661 9.6 13.1738 9.6 13.3066V21.3999C9.6 21.5327 9.7077 21.6404 9.84055 21.6404H20.7974C21.009 21.6404 21.2119 21.7242 21.3619 21.8735L22.5652 23.0717V21.4736C22.5652 21.455 22.5659 21.4363 22.5672 21.4177C22.5676 21.4119 22.5678 21.406 22.5678 21.3999V13.3066C22.5678 13.1738 22.4601 13.0661 22.3272 13.0661H9.84056ZM12.8543 17.6486C13.1712 17.3407 13.6776 17.348 13.9856 17.6648C14.7233 18.4241 15.4414 18.7557 16.0988 18.7557C16.7622 18.7557 17.4575 18.4355 18.1773 17.7101C18.4885 17.3965 18.9951 17.3946 19.3087 17.7058C19.6223 18.017 19.6242 18.5235 19.313 18.8372C18.4044 19.7528 17.3246 20.3557 16.0988 20.3557C14.8672 20.3557 13.7614 19.73 12.8381 18.7799C12.5302 18.463 12.5374 17.9565 12.8543 17.6486Z" fill="#33363D"/>
</svg>
