<svg width="17" height="16" viewBox="0 0 17 16" fill="none" xmlns="http://www.w3.org/2000/svg">
<path d="M10.1642 4.5612C10.1381 4.0338 9.91698 3.53335 9.54183 3.1582C9.16668 2.78305 8.66623 2.56189 8.13883 2.53581L8.03337 2.5332C7.46757 2.5332 6.92498 2.75813 6.5249 3.1582C6.12482 3.55828 5.8999 4.10087 5.8999 4.66667L5.90251 4.77214C5.92859 5.29953 6.14975 5.79998 6.5249 6.17513C6.92498 6.57521 7.46757 6.80013 8.03337 6.80013L8.13883 6.79753C8.66623 6.77144 9.16668 6.55028 9.54183 6.17513C9.94191 5.77505 10.1668 5.23246 10.1668 4.66667L10.1642 4.5612ZM11.2293 4.82552C11.1901 5.61638 10.859 6.36712 10.2964 6.92969C9.73382 7.49225 8.98307 7.82335 8.19222 7.86263L8.03337 7.86654C7.18467 7.86654 6.37046 7.5298 5.77034 6.92969C5.20778 6.36712 4.87668 5.61638 4.8374 4.82552L4.8335 4.66667C4.8335 3.81797 5.17023 3.00376 5.77034 2.40365C6.37046 1.80353 7.18467 1.4668 8.03337 1.4668L8.19222 1.4707C8.98307 1.50998 9.73382 1.84108 10.2964 2.40365C10.8965 3.00376 11.2332 3.81797 11.2332 4.66667L11.2293 4.82552Z" fill="#33363D"/>
<path d="M12.797 11.6323C12.7674 11.0457 12.5175 10.4875 12.0912 10.0679C11.6647 9.64806 11.0943 9.39945 10.4916 9.36995L10.3705 9.3667H5.62964C4.98265 9.36672 4.36393 9.62004 3.90894 10.0679C3.4542 10.5155 3.19995 11.1208 3.19995 11.7502L3.20581 11.8693C3.23364 12.1458 3.35789 12.4073 3.56128 12.6076C3.79404 12.8367 4.11201 12.967 4.44474 12.967H11.5554L11.6798 12.9611C11.9666 12.933 12.2353 12.808 12.4389 12.6076C12.6713 12.3788 12.8002 12.0701 12.8002 11.7502L12.797 11.6323ZM13.864 11.8641C13.8354 12.4307 13.5941 12.9672 13.1869 13.368C12.7801 13.7684 12.2388 14.0029 11.67 14.0308L11.5554 14.0334H4.44474C3.83454 14.0334 3.24726 13.7952 2.81323 13.368C2.4061 12.9672 2.16477 12.4307 2.13615 11.8641L2.13354 11.7502C2.13355 10.8324 2.50365 9.95378 3.16024 9.30745C3.81652 8.66143 4.70508 8.30031 5.62964 8.30029H10.3705L10.543 8.3042C11.405 8.34621 12.2246 8.70172 12.8399 9.30745C13.4965 9.95379 13.8666 10.8324 13.8666 11.7502L13.864 11.8641Z" fill="#33363D"/>
<path d="M14.2332 8.13346L14.2305 8.1875C14.2033 8.45655 13.9762 8.66667 13.7 8.66667C13.4237 8.66667 13.1966 8.45655 13.1694 8.1875L13.1667 8.13346L13.1667 4.5332C13.1667 4.23865 13.4054 4 13.7 4C13.9945 4 14.2332 4.23865 14.2332 4.5332L14.2332 8.13346Z" fill="#33363D"/>
<path d="M15.5331 5.8667L15.5878 5.8693C15.8567 5.89669 16.0663 6.12381 16.0663 6.3999C16.0663 6.67599 15.8567 6.90312 15.5878 6.9305L15.5331 6.93311H11.8665C11.5719 6.93311 11.3333 6.69445 11.3333 6.3999C11.3333 6.10535 11.5719 5.8667 11.8665 5.8667H15.5331Z" fill="#33363D"/>
</svg>
