<svg width="32" height="32" viewBox="0 0 32 32" fill="none" xmlns="http://www.w3.org/2000/svg">
<path d="M20 24.2002C20.4418 24.2002 20.7998 24.5582 20.7998 25C20.7998 25.4418 20.4418 25.7998 20 25.7998H12C11.5582 25.7998 11.2002 25.4418 11.2002 25C11.2002 24.5582 11.5582 24.2002 12 24.2002H20ZM16 6.2002C17.9162 6.20024 19.7657 6.9026 21.1387 8.16992C22.5137 9.43925 23.2997 11.1751 23.2998 13C23.2997 15.6707 22.0211 17.8271 20.6133 19.3916C19.205 20.9566 17.6136 21.9929 16.8467 22.4443C16.3225 22.7529 15.6786 22.7526 15.1543 22.4443C14.3874 21.9929 12.795 20.9565 11.3867 19.3916C9.97892 17.8271 8.70027 15.6706 8.7002 13C8.70025 11.1751 9.4863 9.43926 10.8613 8.16992C12.2343 6.90256 14.0837 6.20024 16 6.2002ZM16 7.7998C14.4686 7.79985 13.0112 8.36271 11.9463 9.3457C10.8838 10.3267 10.2999 11.6427 10.2998 13C10.2999 15.1342 11.32 16.9253 12.5762 18.3213C13.8321 19.7169 15.2711 20.6565 15.9658 21.0654C15.9793 21.0733 15.991 21.0752 16 21.0752C16.0091 21.0752 16.0214 21.0735 16.0352 21.0654C16.73 20.6564 18.1679 19.7169 19.4238 18.3213C20.6801 16.9252 21.7001 15.1343 21.7002 13C21.7001 11.6427 21.1162 10.3267 20.0537 9.3457C18.9888 8.36271 17.5314 7.79985 16 7.7998Z" fill="#33363D"/>
</svg>
