<svg width="33" height="32" viewBox="0 0 33 32" fill="none" xmlns="http://www.w3.org/2000/svg">
<rect x="4.5" y="4" width="24" height="8" rx="2.66667" fill="#D9D9D9"/>
<rect x="4.5" y="4" width="24" height="8" rx="2.66667" fill="#D63D4A"/>
<path d="M7.16675 8H25.8334V25.3333C25.8334 26.8061 24.6395 28 23.1667 28H9.83341C8.36065 28 7.16675 26.8061 7.16675 25.3333V8Z" fill="#D9D9D9"/>
<path d="M7.16675 8H25.8334V25.3333C25.8334 26.8061 24.6395 28 23.1667 28H9.83341C8.36065 28 7.16675 26.8061 7.16675 25.3333V8Z" fill="#FA967C"/>
<g style="mix-blend-mode:multiply">
<path d="M16.4999 12.2669L16.6093 12.2721C17.147 12.3269 17.5663 12.7811 17.5663 13.3333C17.5663 13.8855 17.147 14.3397 16.6093 14.3945L16.4999 14.3997H9.83325C9.24415 14.3997 8.76685 13.9224 8.76685 13.3333C8.76685 12.7442 9.24415 12.2669 9.83325 12.2669H16.4999Z" fill="#D63D4A"/>
</g>
<g style="mix-blend-mode:multiply">
<path d="M19.1666 16.8001L19.276 16.8053C19.8137 16.8601 20.233 17.3143 20.233 17.8665C20.233 18.4187 19.8137 18.8729 19.276 18.9277L19.1666 18.9329H9.83325C9.24415 18.9329 8.76685 18.4556 8.76685 17.8665C8.76685 17.2774 9.24415 16.8001 9.83325 16.8001H19.1666Z" fill="#D63D4A"/>
</g>
</svg>
