<svg width="32" height="32" viewBox="0 0 32 32" fill="none" xmlns="http://www.w3.org/2000/svg">
<path fill-rule="evenodd" clip-rule="evenodd" d="M26.9336 5.33301C27.5227 5.33301 28.0003 5.81057 28.0003 6.39968V25.5999C28.0003 26.189 27.5227 26.6666 26.9336 26.6666C26.3445 26.6666 25.8669 26.189 25.8669 25.5999V6.39968C25.8669 5.81057 26.3445 5.33301 26.9336 5.33301Z" fill="#33363D"/>
<path fill-rule="evenodd" clip-rule="evenodd" d="M21.2254 21.3996C20.8205 20.9717 20.8393 20.2965 21.2672 19.8917L24.2538 17.0666L5.06667 17.0666C4.47756 17.0666 4 16.589 4 15.9999C4 15.4108 4.47756 14.9333 5.06667 14.9333L24.2538 14.9333L21.2672 12.1082C20.8393 11.7033 20.8205 11.0282 21.2254 10.6003C21.6302 10.1723 22.3053 10.1535 22.7333 10.5584L27.6666 15.225C27.8796 15.4265 28.0003 15.7068 28.0003 15.9999C28.0003 16.2931 27.8796 16.5734 27.6666 16.7748L22.7333 21.4415C22.3053 21.8463 21.6302 21.8276 21.2254 21.3996Z" fill="#33363D"/>
<path fill-rule="evenodd" clip-rule="evenodd" d="M10.7749 10.6003C11.1797 11.0282 11.161 11.7033 10.733 12.1082L6.82365 15.8062C6.71243 15.9114 6.71243 16.0885 6.82365 16.1937L10.733 19.8917C11.161 20.2965 11.1797 20.9716 10.7749 21.3996C10.3701 21.8276 9.69494 21.8463 9.26698 21.4415L5.35762 17.7435C4.35666 16.7966 4.35666 15.2033 5.35762 14.2564L9.26698 10.5584C9.69494 10.1535 10.3701 10.1723 10.7749 10.6003Z" fill="#33363D"/>
<path fill-rule="evenodd" clip-rule="evenodd" d="M5.06692 5.33301C5.65603 5.33301 6.13359 5.81057 6.13359 6.39967L6.13359 25.5999C6.13359 26.189 5.65603 26.6666 5.06692 26.6666C4.47782 26.6666 4.00025 26.189 4.00025 25.5999L4.00025 6.39967C4.00025 5.81057 4.47782 5.33301 5.06692 5.33301Z" fill="#33363D"/>
</svg>
