<svg width="32" height="33" viewBox="0 0 32 33" fill="none" xmlns="http://www.w3.org/2000/svg">
<path d="M21.5402 4.50112C23.6 4.58642 25.5516 5.44557 26.9647 6.90607C28.3745 8.36353 29.1331 10.3028 29.0597 12.3045C29.0538 14.1962 28.2584 16.1069 27.1821 17.8488C26.0924 19.6121 24.6516 21.304 23.2238 22.772C20.3734 25.7023 17.4624 27.8552 17.173 28.0506L16.5949 28.4412C16.2346 28.6839 15.7624 28.684 15.4022 28.4412L14.824 28.0506L14.8214 28.0493C14.5328 27.8531 11.6234 25.7005 8.77325 22.7707C7.34557 21.303 5.90452 19.6118 4.81492 17.8488C3.73869 16.1072 2.94191 14.1961 2.93601 12.3045C2.86268 10.3031 3.62164 8.36344 5.03107 6.90607C6.44403 5.44535 8.397 4.58658 10.4568 4.50112C10.4765 4.50031 10.4971 4.49955 10.5167 4.49982C11.8201 4.51919 13.0988 4.86641 14.2225 5.50893C14.878 5.88391 15.4186 6.4554 15.8436 6.99982C15.896 7.06698 15.9481 7.13488 15.9985 7.20294C16.0489 7.13482 16.101 7.06703 16.1535 6.99982C16.5784 6.45539 17.119 5.88399 17.7746 5.50893C18.8982 4.8663 20.1769 4.51927 21.4803 4.49982C21.5 4.49953 21.5205 4.50031 21.5402 4.50112ZM16.0063 12.7733C15.4175 12.7735 14.9401 13.2509 14.9399 13.8397V15.4334H13.3331C12.7442 15.4336 12.2668 15.9109 12.2667 16.4998C12.2667 17.0888 12.7442 17.5661 13.3331 17.5662H14.9399V19.173L14.9451 19.2824C14.9999 19.82 15.4543 20.2392 16.0063 20.2394C16.5585 20.2394 17.0128 19.8201 17.0675 19.2824L17.0727 19.173V17.5662H18.6665L18.7759 17.561C19.3136 17.5063 19.7329 17.052 19.7329 16.4998C19.7328 15.9477 19.3135 15.4934 18.7759 15.4386L18.6665 15.4334H17.0727V13.8397C17.0725 13.2507 16.5953 12.7733 16.0063 12.7733Z" fill="#F8633C"/>
</svg>
