<svg width="32" height="32" viewBox="0 0 32 32" fill="none" xmlns="http://www.w3.org/2000/svg">
<rect x="5.3335" y="4" width="17.3333" height="24" rx="2.66667" fill="#FA967C"/>
<rect x="12.8003" y="6.66602" width="2.4" height="4" rx="0.533333" fill="white"/>
<g style="mix-blend-mode:multiply">
<path fill-rule="evenodd" clip-rule="evenodd" d="M22.0736 2.96049C21.9473 3.07381 21.8151 3.18037 21.6775 3.27969C21.4391 3.4397 21.1711 3.5501 20.8895 3.6061C20.7671 3.6301 20.6391 3.6405 20.3839 3.6605C19.7431 3.71171 19.4223 3.73731 19.1551 3.83171C18.8495 3.93943 18.5719 4.11428 18.3428 4.34342C18.1136 4.57255 17.9388 4.85013 17.831 5.15574C17.7366 5.42295 17.711 5.74376 17.6598 6.38457C17.6507 6.55395 17.6325 6.72273 17.6054 6.89019C17.5494 7.17179 17.439 7.4398 17.279 7.6782C17.2094 7.78221 17.1262 7.87981 16.9598 8.07421C16.543 8.56383 16.3342 8.80863 16.2118 9.06464C15.9294 9.65665 15.9294 10.3447 16.2118 10.9367C16.3342 11.1927 16.543 11.4375 16.9598 11.9271C17.1262 12.1215 17.2094 12.2191 17.279 12.3231C17.439 12.5615 17.5494 12.8295 17.6054 13.1111C17.6294 13.2335 17.6398 13.3615 17.6598 13.6168C17.711 14.2576 17.7366 14.5784 17.831 14.8456C17.9388 15.1512 18.1136 15.4288 18.3428 15.6579C18.5719 15.887 18.8495 16.0619 19.1551 16.1696C19.4223 16.264 19.7431 16.2896 20.3839 16.3408C20.6391 16.3608 20.7671 16.3712 20.8895 16.3952C21.1711 16.4512 21.4391 16.5624 21.6775 16.7216C21.7815 16.7912 21.8791 16.8744 22.0736 17.0408C22.5632 17.4576 22.808 17.6665 23.064 17.7889C23.656 18.0713 24.344 18.0713 24.936 17.7889C25.192 17.6665 25.4368 17.4576 25.9264 17.0408C26.1209 16.8744 26.2185 16.7912 26.3225 16.7216C26.5609 16.5616 26.8289 16.4512 27.1105 16.3952C27.2329 16.3712 27.3609 16.3608 27.6161 16.3408C28.2569 16.2896 28.5777 16.264 28.8449 16.1696C29.1505 16.0619 29.4281 15.887 29.6572 15.6579C29.8864 15.4288 30.0612 15.1512 30.169 14.8456C30.2634 14.5784 30.289 14.2576 30.3402 13.6168C30.3602 13.3615 30.3706 13.2335 30.3946 13.1111C30.4506 12.8295 30.5618 12.5615 30.721 12.3231C30.7906 12.2191 30.8738 12.1215 31.0402 11.9271C31.457 11.4375 31.6658 11.1927 31.7882 10.9367C32.0706 10.3447 32.0706 9.65665 31.7882 9.06464C31.6658 8.80863 31.457 8.56383 31.0402 8.07421C30.9268 7.94795 30.8203 7.81576 30.721 7.6782C30.5609 7.43984 30.4499 7.17194 30.3946 6.89019C30.3675 6.72273 30.3493 6.55395 30.3402 6.38457C30.289 5.74376 30.2634 5.42295 30.169 5.15574C30.0612 4.85013 29.8864 4.57255 29.6572 4.34342C29.4281 4.11428 29.1505 3.93943 28.8449 3.83171C28.5777 3.73731 28.2569 3.71171 27.6161 3.6605C27.4467 3.65132 27.2779 3.63316 27.1105 3.6061C26.8287 3.55076 26.5608 3.43979 26.3225 3.27969C26.1849 3.18037 26.0527 3.07381 25.9264 2.96049C25.4368 2.54368 25.192 2.33487 24.936 2.21247C24.6438 2.0726 24.324 2 24 2C23.676 2 23.3562 2.0726 23.064 2.21247C22.808 2.33487 22.5632 2.54368 22.0736 2.96049ZM27.0649 6.93659C27.1867 7.05867 27.2551 7.22411 27.2551 7.3966C27.2551 7.56908 27.1867 7.73452 27.0649 7.85661L21.8559 13.0663C21.7966 13.1313 21.7247 13.1836 21.6446 13.22C21.5645 13.2564 21.4778 13.2761 21.3899 13.2781C21.3019 13.2801 21.2144 13.2643 21.1328 13.2315C21.0511 13.1987 20.9769 13.1498 20.9147 13.0876C20.8525 13.0253 20.8035 12.9512 20.7708 12.8695C20.738 12.7878 20.7221 12.7004 20.7241 12.6124C20.7261 12.5244 20.7459 12.4378 20.7823 12.3577C20.8187 12.2776 20.871 12.2057 20.9359 12.1463L26.1441 6.93739C26.2661 6.81555 26.4316 6.74712 26.6041 6.74712C26.7765 6.74712 26.942 6.81555 27.0641 6.93739M27.0377 12.1719C27.0377 12.4021 26.9462 12.6229 26.7834 12.7857C26.6207 12.9485 26.3999 13.0399 26.1697 13.0399C25.9394 13.0399 25.7187 12.9485 25.5559 12.7857C25.3931 12.6229 25.3016 12.4021 25.3016 12.1719C25.3016 11.9417 25.3931 11.7209 25.5559 11.5581C25.7187 11.3953 25.9394 11.3039 26.1697 11.3039C26.3999 11.3039 26.6207 11.3953 26.7834 11.5581C26.9462 11.7209 27.0377 11.9417 27.0377 12.1719ZM21.8295 8.69983C22.0598 8.69983 22.2805 8.60838 22.4433 8.44559C22.6061 8.28281 22.6976 8.06202 22.6976 7.83181C22.6976 7.60159 22.6061 7.38081 22.4433 7.21802C22.2805 7.05524 22.0598 6.96379 21.8295 6.96379C21.5993 6.96379 21.3785 7.05524 21.2158 7.21802C21.053 7.38081 20.9615 7.60159 20.9615 7.83181C20.9615 8.06202 21.053 8.28281 21.2158 8.44559C21.3785 8.60838 21.5993 8.69983 21.8295 8.69983Z" fill="#D63D4A"/>
</g>
</svg>
