<svg width="32" height="32" viewBox="0 0 32 32" fill="none" xmlns="http://www.w3.org/2000/svg">
<path d="M24.3334 14.6668C24.3334 20.3738 19.707 25.0002 14.0001 25.0002C8.29314 25.0002 3.66675 20.3738 3.66675 14.6668C3.66675 8.95989 8.29314 4.3335 14.0001 4.3335C19.707 4.3335 24.3334 8.95989 24.3334 14.6668Z" fill="#D63D4A"/>
<path d="M28.3334 16.0003C28.3334 21.7073 23.707 26.3337 18.0001 26.3337C12.2931 26.3337 7.66675 21.7073 7.66675 16.0003C7.66675 10.2934 12.2931 5.66699 18.0001 5.66699C23.707 5.66699 28.3334 10.2934 28.3334 16.0003Z" fill="#FA967C"/>
<ellipse cx="12.7621" cy="16.0956" rx="1.42857" ry="1.42857" fill="#D22424"/>
<ellipse cx="18.0001" cy="16.0956" rx="1.42857" ry="1.42857" fill="#D22424"/>
<ellipse cx="23.2384" cy="16.0956" rx="1.42857" ry="1.42857" fill="#D22424"/>
<path d="M23.6609 20.9237C24.1665 20.4934 24.9484 20.7719 25.0682 21.425L25.8769 25.8331C25.9967 26.4861 25.3646 27.024 24.7391 26.8012L20.5172 25.2975C19.8918 25.0747 19.742 24.2584 20.2477 23.8281L23.6609 20.9237Z" fill="#FA967C"/>
</svg>
