<svg width="32" height="32" viewBox="0 0 32 32" fill="none" xmlns="http://www.w3.org/2000/svg">
<rect x="6.66675" y="5.3335" width="18.6667" height="22.6667" rx="2" fill="#D9D9D9"/>
<rect x="6.66675" y="5.3335" width="18.6667" height="22.6667" rx="2" fill="#FA967C"/>
<g style="mix-blend-mode:multiply">
<ellipse cx="16.0001" cy="17.3333" rx="5.33333" ry="5.33333" fill="black"/>
<ellipse cx="16.0001" cy="17.3333" rx="5.33333" ry="5.33333" fill="#D63D4A"/>
</g>
<g style="mix-blend-mode:multiply">
<rect x="12" y="4" width="8" height="2.66667" rx="1" fill="#D63D4A"/>
</g>
<path d="M17.8695 15.4701C18.1277 15.7282 18.1277 16.1469 17.8695 16.405L16.9352 17.3393L17.8702 18.2743C18.1283 18.5325 18.1282 18.9511 17.8702 19.2093C17.612 19.4675 17.1934 19.4675 16.9352 19.2093L16.0002 18.2743L15.0645 19.21C14.8063 19.4678 14.3883 19.4674 14.1302 19.2093C13.8723 18.9512 13.8718 18.5332 14.1295 18.275L15.0652 17.3393L14.1302 16.4044C13.8723 16.1462 13.8721 15.7275 14.1302 15.4694C14.3884 15.2114 14.8071 15.2114 15.0652 15.4694L16.0002 16.4044L16.9345 15.4701C17.1926 15.2119 17.6113 15.212 17.8695 15.4701Z" fill="white"/>
</svg>
