<svg width="32" height="32" viewBox="0 0 32 32" fill="none" xmlns="http://www.w3.org/2000/svg">
<rect x="26.6667" y="9.3335" width="18.6667" height="22.6667" rx="2" transform="rotate(90 26.6667 9.3335)" fill="#D9D9D9"/>
<rect x="26.6667" y="9.3335" width="18.6667" height="22.6667" rx="2" transform="rotate(90 26.6667 9.3335)" fill="#FA967C"/>
<g clip-path="url(#clip0_4064_280708)">
<path d="M21.3455 20.6032L17.9422 14.7077C17.3682 13.7159 16.4318 13.7159 15.8578 14.7077L12.9378 19.7624L12.0265 18.1816C11.4526 17.1898 10.5162 17.1898 9.94221 18.1816L8.5426 20.6032C7.96866 21.595 8.43687 22.4106 9.58475 22.4106H20.3034C21.4513 22.4106 21.9195 21.595 21.3455 20.6032Z" fill="#D63D4A"/>
</g>
<g style="mix-blend-mode:multiply">
<ellipse cx="22.6666" cy="9.33333" rx="5.33333" ry="5.33333" fill="black"/>
<ellipse cx="22.6666" cy="9.33333" rx="5.33333" ry="5.33333" fill="#D63D4A"/>
</g>
<path d="M22.7112 6.66699C23.0763 6.66699 23.3723 6.963 23.3723 7.32812V8.64941H24.6946C25.0596 8.64941 25.3555 8.94556 25.3557 9.31055C25.3557 9.67567 25.0597 9.97168 24.6946 9.97168H23.3723V11.2949C23.3721 11.6599 23.0762 11.9561 22.7112 11.9561C22.3462 11.956 22.0502 11.6598 22.05 11.2949V9.97168H20.7278C20.3628 9.97157 20.0667 9.6756 20.0667 9.31055C20.0668 8.94563 20.3629 8.64952 20.7278 8.64941H22.05V7.32812C22.05 6.96305 22.3461 6.66706 22.7112 6.66699Z" fill="white"/>
<defs>
<clipPath id="clip0_4064_280708">
<rect width="14.555" height="9.70667" fill="white" transform="translate(7.66675 13.3335)"/>
</clipPath>
</defs>
</svg>
