<svg width="32" height="32" viewBox="0 0 32 32" fill="none" xmlns="http://www.w3.org/2000/svg">
<path fill-rule="evenodd" clip-rule="evenodd" d="M10.9095 4.6665C10.5025 4.66665 10.1027 4.78302 9.75069 5.00382C9.39868 5.22463 9.10694 5.54203 8.90505 5.92386L4.77138 13.7387C4.57166 14.1158 4.46658 14.5428 4.46655 14.9773V20.588C4.46658 20.9751 4.54999 21.3569 4.71018 21.7032L6.00109 24.4923C6.19283 24.9069 6.48765 25.2555 6.8525 25.4992C7.21736 25.7428 7.63782 25.8719 8.06677 25.8719H9.08517C9.69764 25.8719 10.285 25.6091 10.7181 25.1412C11.1512 24.6734 11.3945 24.0388 11.3945 23.3772H20.6317C20.6317 24.0388 20.875 24.6734 21.3081 25.1412C21.7412 25.6091 22.3286 25.8719 22.941 25.8719H23.9594C24.3884 25.8719 24.8089 25.7428 25.1737 25.4992C25.5386 25.2555 25.8334 24.9069 26.0251 24.4923L27.316 21.7032C27.4765 21.3577 27.5597 20.9747 27.5597 20.588V14.9773C27.5596 14.5428 27.4546 14.1158 27.2548 13.7387L23.1212 5.92386C22.9193 5.54203 22.6275 5.22463 22.2755 5.00382C21.9235 4.78302 21.5237 4.66665 21.1167 4.6665H10.9095Z" fill="#FA967C"/>
<g style="mix-blend-mode:multiply">
<path d="M7.02372 25.627C6.65887 25.3833 6.36405 25.0347 6.17231 24.6202L5.52686 23.2256H26.8418L26.1963 24.6202C26.0046 25.0347 25.7098 25.3833 25.3449 25.627C24.9801 25.8707 24.5596 25.9997 24.1307 25.9998H23.1123C22.4998 25.9998 21.9124 25.7369 21.4793 25.2691C21.0463 24.8012 20.8029 24.1667 20.8029 23.505H11.5657C11.5657 24.1667 11.3224 24.8012 10.8893 25.2691C10.4562 25.7369 9.86886 25.9998 9.25639 25.9998H8.23799C7.80904 25.9997 7.38857 25.8707 7.02372 25.627Z" fill="#D63D4A"/>
</g>
<g style="mix-blend-mode:multiply">
<path d="M8.12103 12.5215L10.2756 7.67365C10.3973 7.39999 10.6686 7.22363 10.9681 7.22363H21.296C21.5954 7.22363 21.8668 7.39999 21.9884 7.67365L24.1431 12.5215C24.3658 13.0226 23.999 13.5871 23.4506 13.5871H8.8135C8.26513 13.5871 7.89832 13.0226 8.12103 12.5215Z" fill="#D63D4A"/>
</g>
<g style="mix-blend-mode:multiply">
<ellipse cx="22.6666" cy="9.33333" rx="5.33333" ry="5.33333" fill="black"/>
<ellipse cx="22.6666" cy="9.33333" rx="5.33333" ry="5.33333" fill="#D63D4A"/>
</g>
<rect x="9.33325" y="16" width="13.3333" height="5.33333" rx="1" fill="white"/>
<circle cx="12.3333" cy="18.6665" r="1" fill="#D22424"/>
<circle cx="16" cy="18.6665" r="1" fill="#D22424"/>
<circle cx="19.6665" cy="18.6665" r="1" fill="#D22424"/>
<path d="M19.5336 11.918V10.3047C19.5337 10.0472 19.7423 9.83875 19.9997 9.83854H21.613L21.7081 9.84765C21.9204 9.89134 22.0803 10.0795 22.0805 10.3047C22.0805 10.53 21.9204 10.718 21.7081 10.7617L21.613 10.7721H21.126L21.3578 11.0039L21.5753 11.194C21.8033 11.3688 22.0641 11.498 22.3435 11.5729C22.7165 11.6728 23.1098 11.6729 23.4828 11.5729C23.8556 11.473 24.1956 11.2767 24.4685 11.0039C24.7415 10.7308 24.9376 10.3899 25.0375 10.0169L25.0713 9.92838C25.1684 9.73447 25.3914 9.62935 25.6091 9.6875C25.8581 9.75415 26.0065 10.0101 25.9398 10.2591L25.8799 10.4557C25.7258 10.9096 25.4688 11.3225 25.1286 11.6628C24.7399 12.0515 24.256 12.3315 23.725 12.474C23.1937 12.6164 22.6339 12.6163 22.1026 12.474C21.638 12.3495 21.2091 12.1204 20.8487 11.8047L20.6976 11.6641L20.4672 11.4323V11.918C20.4672 12.1757 20.2575 12.3854 19.9997 12.3854C19.7422 12.3852 19.5336 12.1756 19.5336 11.918ZM21.7641 5.95052C22.2953 5.80812 22.8552 5.8082 23.3865 5.95052C23.851 6.07505 24.28 6.304 24.6404 6.61979L24.7901 6.76041L25.0219 6.99218V6.50651C25.0219 6.24877 25.2316 6.03906 25.4893 6.03906C25.7468 6.03938 25.9555 6.24897 25.9555 6.50651V8.11979C25.9553 8.3585 25.7749 8.55837 25.5375 8.58333L23.7107 8.77343L23.6156 8.77474C23.3995 8.75355 23.221 8.58241 23.1976 8.35807C23.1711 8.10192 23.3569 7.87323 23.613 7.84635L24.4659 7.75651L24.1299 7.42057V7.41927C23.8571 7.14682 23.5168 6.95134 23.1443 6.85156C22.7715 6.75173 22.379 6.75172 22.0062 6.85156C21.6333 6.95154 21.2923 7.1475 21.0193 7.42057C20.7463 7.69365 20.5501 8.03456 20.4503 8.40755C20.3834 8.65628 20.1275 8.8036 19.8786 8.73698C19.6299 8.67013 19.4826 8.41417 19.5492 8.16536C19.6914 7.63454 19.9707 7.15045 20.3591 6.76172C20.7479 6.37281 21.2329 6.09293 21.7641 5.95052Z" fill="white"/>
</svg>
