<svg width="40" height="32" viewBox="0 0 40 32" fill="none" xmlns="http://www.w3.org/2000/svg">
<rect x="2.05225" y="24.8022" width="35.9524" height="4.73574" rx="2.36787" transform="rotate(0.631567 2.05225 24.8022)" fill="#ACB1B6" fill-opacity="0.28"/>
<g clip-path="url(#clip0_1714_62396)">
<path d="M36.9929 16.6651C36.9929 15.001 35.9363 13.5214 34.3631 12.9805L31.8566 12.1201H4.71708C3.77298 12.1201 3.00708 12.886 3.00708 13.8301V20.6276H36.9938L36.9929 16.6651Z" fill="#368BFF"/>
<path d="M3.00708 20.6274V21.5571C3.00708 22.4544 3.73428 23.1816 4.63158 23.1816H35.2829C36.227 23.1816 36.9929 22.4157 36.9929 21.4716V20.6274H3.00708Z" fill="#2D67D5"/>
<path d="M30.4392 28.3811C32.9245 28.3811 34.9392 26.3664 34.9392 23.8811C34.9392 21.3958 32.9245 19.3811 30.4392 19.3811C27.9539 19.3811 25.9392 21.3958 25.9392 23.8811C25.9392 26.3664 27.9539 28.3811 30.4392 28.3811Z" fill="#313D4C"/>
<path d="M30.4392 25.6811C31.4333 25.6811 32.2392 24.8752 32.2392 23.8811C32.2392 22.8869 31.4333 22.0811 30.4392 22.0811C29.445 22.0811 28.6392 22.8869 28.6392 23.8811C28.6392 24.8752 29.445 25.6811 30.4392 25.6811Z" fill="#6B7683"/>
<path d="M9.56079 28.3811C12.0461 28.3811 14.0608 26.3664 14.0608 23.8811C14.0608 21.3958 12.0461 19.3811 9.56079 19.3811C7.07551 19.3811 5.06079 21.3958 5.06079 23.8811C5.06079 26.3664 7.07551 28.3811 9.56079 28.3811Z" fill="#313D4C"/>
<path d="M9.56074 25.6811C10.5549 25.6811 11.3607 24.8752 11.3607 23.8811C11.3607 22.8869 10.5549 22.0811 9.56074 22.0811C8.56663 22.0811 7.76074 22.8869 7.76074 23.8811C7.76074 24.8752 8.56663 25.6811 9.56074 25.6811Z" fill="#6B7683"/>
<path d="M36.9929 18.8952H36.2801C35.6897 18.8952 35.2109 18.4164 35.2109 17.826C35.2109 17.2356 35.6897 16.7568 36.2801 16.7568H36.9929V18.8952Z" fill="white"/>
<path d="M3.00708 18.8953H4.57488C5.16528 18.8953 5.64408 18.4165 5.64408 17.827C5.64408 17.2366 5.16528 16.7578 4.57578 16.7578H3.00798V18.8953H3.00708Z" fill="#EF4452"/>
<path d="M26.8219 5.67514C25.948 4.49976 23.8448 3.52954 22.448 3.52954H10.8967C9.16422 3.52954 7.948 4.99976 7.35882 6.46534L5.10962 12.1199H31.8108L26.8219 5.67514Z" fill="#415164"/>
</g>
<defs>
<clipPath id="clip0_1714_62396">
<rect width="36" height="36" fill="white" transform="translate(2 -3)"/>
</clipPath>
</defs>
</svg>
