<svg width="20" height="21" viewBox="0 0 20 21" fill="none" xmlns="http://www.w3.org/2000/svg">
<path d="M16.8474 6.93787C16.6814 6.307 15.9037 6.20336 15.4424 6.66463L14.991 7.11605C14.5471 7.55996 13.828 7.55996 13.3841 7.11605C12.9402 6.67215 12.9402 5.95309 13.3841 5.50919L13.8355 5.05777C14.2968 4.59649 14.1932 3.81873 13.5623 3.65272C12.0284 3.24908 10.3289 3.64478 9.12482 4.84883C7.65003 6.31996 7.38221 8.54315 8.31772 10.2894C8.52683 10.6783 8.79464 11.0452 9.12482 11.3753C9.455 11.7055 9.82186 11.9733 10.2107 12.1824C11.957 13.118 14.1765 12.8501 15.6513 11.3753C16.8555 10.1741 17.2511 8.47271 16.8474 6.93787Z" fill="#9299A9"/>
<path d="M11.3207 11.252L5.4745 17.0982C4.93888 17.6338 4.06574 17.6338 3.53012 17.0982L3.40172 16.9698C2.86609 16.4342 2.86609 15.561 3.40172 15.0254L9.24792 9.1792" fill="#9299A9"/>
</svg>
