<svg width="20" height="21" viewBox="0 0 20 21" fill="none" xmlns="http://www.w3.org/2000/svg">
<path fill-rule="evenodd" clip-rule="evenodd" d="M6.34885 1.6784C6.23463 1.79263 6.17045 1.94755 6.17045 2.10909C6.17045 2.27063 6.23463 2.42556 6.34885 2.53978C6.46308 2.65401 6.618 2.71818 6.77955 2.71818H7.38864V3.93636H5.86591C5.13897 3.93636 4.44181 4.22514 3.92779 4.73916C3.41377 5.25318 3.125 5.95034 3.125 6.67727V15.8136C3.12487 16.4879 3.3733 17.1386 3.82278 17.6412C4.27226 18.1439 4.89125 18.4632 5.56136 18.5381V19.1636C5.56136 19.3252 5.62554 19.4801 5.73976 19.5943C5.85399 19.7086 6.00891 19.7727 6.17045 19.7727C6.332 19.7727 6.48692 19.7086 6.60115 19.5943C6.71537 19.4801 6.77955 19.3252 6.77955 19.1636V18.5545H12.8705V19.1636C12.8705 19.3252 12.9346 19.4801 13.0489 19.5943C13.1631 19.7086 13.318 19.7727 13.4795 19.7727C13.6411 19.7727 13.796 19.7086 13.9102 19.5943C14.0245 19.4801 14.0886 19.3252 14.0886 19.1636V18.5381C14.7588 18.4632 15.3777 18.1439 15.8272 17.6412C16.2767 17.1386 16.5251 16.4879 16.525 15.8136V6.67727C16.525 5.95034 16.2362 5.25318 15.7222 4.73916C15.2082 4.22514 14.511 3.93636 13.7841 3.93636H12.5659V2.71818H12.8705C13.032 2.71818 13.1869 2.65401 13.3011 2.53978C13.4154 2.42556 13.4795 2.27063 13.4795 2.10909C13.4795 1.94755 13.4154 1.79263 13.3011 1.6784C13.1869 1.56417 13.032 1.5 12.8705 1.5H6.77955C6.618 1.5 6.46308 1.56417 6.34885 1.6784ZM8.60682 3.93636V2.71818H11.3477V3.93636H8.60682ZM6.51246 7.22559C6.18953 7.22559 5.92773 7.48738 5.92773 7.81031C5.92773 8.13325 6.18953 8.39504 6.51246 8.39504H13.1394C13.4623 8.39504 13.7241 8.13325 13.7241 7.81031C13.7241 7.48738 13.4623 7.22559 13.1394 7.22559H6.51246Z" fill="#9299A9"/>
</svg>
