<svg width="20" height="21" viewBox="0 0 20 21" fill="none" xmlns="http://www.w3.org/2000/svg">
<path fill-rule="evenodd" clip-rule="evenodd" d="M6.66667 6.33333C6.66667 5.44928 7.01786 4.60143 7.64298 3.97631C8.2681 3.35119 9.11594 3 10 3C10.8841 3 11.7319 3.35119 12.357 3.97631C12.9821 4.60143 13.3333 5.44928 13.3333 6.33333C13.3333 7.21739 12.9821 8.06523 12.357 8.69036C11.7319 9.31548 10.8841 9.66667 10 9.66667C9.11594 9.66667 8.2681 9.31548 7.64298 8.69036C7.01786 8.06523 6.66667 7.21739 6.66667 6.33333ZM6.66667 11.3333C5.5616 11.3333 4.50179 11.7723 3.72039 12.5537C2.93899 13.3351 2.5 14.3949 2.5 15.5C2.5 16.163 2.76339 16.7989 3.23223 17.2678C3.70107 17.7366 4.33696 18 5 18H15C15.663 18 16.2989 17.7366 16.7678 17.2678C17.2366 16.7989 17.5 16.163 17.5 15.5C17.5 14.3949 17.061 13.3351 16.2796 12.5537C15.4982 11.7723 14.4384 11.3333 13.3333 11.3333H6.66667Z" fill="#9299A9"/>
</svg>
