<svg width="20" height="21" viewBox="0 0 20 21" fill="none" xmlns="http://www.w3.org/2000/svg">
<path d="M4.99996 17.9999C4.53972 17.9999 4.16663 17.6268 4.16663 17.1666V4.83325C4.16663 4.28097 4.61434 3.83325 5.16663 3.83325H11.2567C11.4951 3.83325 11.7003 4.00148 11.747 4.23519L11.9196 5.09798C11.9663 5.33169 12.1715 5.49992 12.4099 5.49992H15.6666C16.2189 5.49992 16.6666 5.94763 16.6666 6.49992V12.8333C16.6666 13.3855 16.2189 13.8333 15.6666 13.8333H11.2432C11.0049 13.8333 10.7996 13.665 10.7529 13.4313L10.5803 12.5685C10.5336 12.3348 10.3284 12.1666 10.0901 12.1666H6.33329C6.05715 12.1666 5.83329 12.3904 5.83329 12.6666V17.1666C5.83329 17.6268 5.4602 17.9999 4.99996 17.9999Z" fill="#9299A9"/>
</svg>
