<svg width="20" height="21" viewBox="0 0 20 21" fill="none" xmlns="http://www.w3.org/2000/svg">
<path fill-rule="evenodd" clip-rule="evenodd" d="M6.31675 3.83325C6.02297 3.83335 5.73444 3.91109 5.48039 4.0586C5.22634 4.20612 5.01579 4.41816 4.87008 4.67325L1.88675 9.89409C1.7426 10.1461 1.66677 10.4313 1.66675 10.7216V14.4699C1.66677 14.7285 1.72696 14.9836 1.84258 15.2149L2.77425 17.0783C2.91263 17.3552 3.12541 17.5881 3.38873 17.7509C3.65205 17.9137 3.9555 17.9999 4.26508 17.9999H5.00008C5.44211 17.9999 5.86603 17.8243 6.17859 17.5118C6.49115 17.1992 6.66675 16.7753 6.66675 16.3333H13.3334C13.3334 16.7753 13.509 17.1992 13.8216 17.5118C14.1341 17.8243 14.5581 17.9999 15.0001 17.9999H15.7351C16.0447 17.9999 16.3481 17.9137 16.6114 17.7509C16.8748 17.5881 17.0875 17.3552 17.2259 17.0783L18.1576 15.2149C18.2734 14.9841 18.3334 14.7283 18.3334 14.4699V10.7216C18.3334 10.4313 18.2576 10.1461 18.1134 9.89409L15.1301 4.67325C14.9844 4.41816 14.7738 4.20612 14.5198 4.0586C14.2657 3.91109 13.9772 3.83335 13.6834 3.83325H6.31675ZM10.0001 10.4999C8.66925 10.4999 7.44008 10.2141 6.20591 9.75409C6.00811 9.65529 5.77916 9.63912 5.56943 9.70914C5.3597 9.77915 5.18637 9.92961 5.08758 10.1274C4.98879 10.3252 4.97262 10.5542 5.04263 10.7639C5.11265 10.9736 5.26311 11.147 5.46091 11.2458C5.87258 11.4499 7.96675 12.1666 10.0001 12.1666C11.5451 12.1666 13.1401 11.9383 14.5376 11.2466C14.7344 11.1465 14.884 10.9731 14.9541 10.7638C15.0243 10.5544 15.0094 10.3259 14.9126 10.1274C14.8637 10.0294 14.796 9.94206 14.7133 9.87027C14.6306 9.79847 14.5346 9.74367 14.4308 9.709C14.3269 9.67433 14.2172 9.66047 14.108 9.6682C13.9988 9.67594 13.8922 9.70512 13.7942 9.75409C12.6567 10.3224 11.2467 10.4999 10.0001 10.4999Z" fill="#9299A9"/>
</svg>
