<svg version="1.1" xmlns="http://www.w3.org/2000/svg" xmlns:xlink="http://www.w3.org/1999/xlink" width="1560" height="804"><defs/><g><path fill="none" stroke="#02063B" paint-order="fill stroke markers" d=" M 20 444.7721551569383 L 21 446.8638114749528 L 22 448.9486299265371 L 23 451.02629275647524 L 24 453.0964833001672 L 25 455.15888603189285 L 26 457.2131866129026 L 27 459.25907193932665 L 28 461.2962301898968 L 29 463.32435087347204 L 30 465.3431248763618 L 31 467.3522445094392 L 32 469.3514035550368 L 33 471.3402973136191 L 34 473.3186226502222 L 35 475.28607804065643 L 36 477.2423636174622 L 37 479.1871812156146 L 38 481.12023441796725 L 39 483.0412286004309 L 40 484.94987097687783 L 41 486.84587064376683 L 42 488.7289386244807 L 43 490.5987879133704 L 44 492.45513351949865 L 45 494.29769251007644 L 46 496.1261840535862 L 47 497.9403294625839 L 48 499.7398522361754 L 49 501.52447810215864 L 50 503.2939350588267 L 51 505.04795341642466 L 52 506.7862658382539 L 53 508.5086073814181 L 54 510.214715537204 L 55 511.90433027109157 L 56 513.5771940623868 L 57 515.2330519434713 L 58 516.8716515386631 L 59 518.492743102682 L 60 520.0960795587146 L 61 521.6814165360714 L 62 523.2485124074335 L 63 524.7971283256786 L 64 526.3270282602859 L 65 527.8379790333094 L 66 529.3297503549179 L 67 530.8021148584944 L 68 532.2548481352899 L 69 533.6877287686261 L 70 535.1005383676429 L 71 536.4930616005839 L 72 537.8650862276156 L 73 539.2164031331763 L 74 540.546806357848 L 75 541.8560931297473 L 76 543.1440638954306 L 77 544.4105223503093 L 78 545.6552754685688 L 79 546.8781335325885 L 80 548.0789101618577 L 81 549.2574223413819 L 82 550.4134904495774 L 83 551.5469382856477 L 84 552.6575930964395 L 85 553.7452856027721 L 86 554.8098500252385 L 87 555.8511241094714 L 88 556.8689491508742 L 89 557.8631700188095 L 90 558.8336351802424 L 91 559.7801967228372 L 92 560.7027103775008 L 93 561.6010355403712 L 94 562.4750352942481 L 95 563.32457642946 L 96 564.149529464168 L 97 564.9497686641006 L 98 565.7251720617166 L 99 566.4756214747958 L 100 567.2010025244504 L 101 567.9012046525587 L 102 568.5761211386156 L 103 569.2256491159978 L 104 569.8496895876431 L 105 570.4481474411377 L 106 571.0209314632135 L 107 571.5679543536498 L 108 572.0891327385798 L 109 572.5843871831966 L 110 573.0536422038615 L 111 573.4968262796083 L 112 573.9138718630436 L 113 574.3047153906427 L 114 574.6692972924369 L 115 575.0075620010936 L 116 575.3194579603844 L 117 575.6049376330442 L 118 575.8639575080157 L 119 576.0964781070813 L 120 576.3024639908804 L 121 576.4818837643104 L 122 576.634710081312 L 123 576.7609196490375 L 124 576.8604932313998 L 125 576.9334156520057 L 126 576.979675796468 L 127 576.9992666140995 L 128 576.9921851189885 L 129 576.9584323904528 L 130 576.8980135728758 L 131 576.8109378749225 L 132 576.6972185681357 L 133 576.556872984913 L 134 576.3899225158659 L 135 576.1963926065589 L 136 575.9763127536313 L 137 575.7297165003018 L 138 575.4566414312559 L 139 575.1571291669175 L 140 574.8312253571049 L 141 574.4789796740743 L 142 574.1004458049478 L 143 573.6956814435314 L 144 573.2647482815215 L 145 572.8077119991024 L 146 572.3246422549355 L 147 571.8156126755425 L 148 571.2807008440834 L 149 570.7199882885325 L 150 570.1335604692513 L 151 569.5215067659643 L 152 568.8839204641354 L 153 568.2208987407505 L 154 567.5325426495058 L 155 566.8189571054065 L 156 566.0802508687759 L 157 565.3165365286786 L 158 564.5279304857611 L 159 563.7145529345097 L 160 562.8765278449323 L 161 562.0139829436629 L 162 561.1270496944943 L 163 560.2158632783418 L 164 559.280562572639 L 165 558.3212901301717 L 166 557.33819215735 L 167 556.3314184919257 L 168 555.301122580153 L 169 554.2474614534033 L 170 553.1705957042303 L 171 552.0706894618933 L 172 550.9479103673423 L 173 549.8024295476666 L 174 548.6344215900133 L 175 547.4440645149771 L 176 546.2315397494679 L 177 544.9970320990586 L 178 543.7407297198188 L 179 542.4628240896362 L 180 541.1635099790336 L 181 539.8429854214826 L 182 538.5014516832209 L 183 537.1391132325763 L 184 535.7561777088031 L 185 534.352855890435 L 186 532.9293616631589 L 187 531.4859119872172 L 188 530.0227268643384 L 189 528.5400293042068 L 190 527.0380452904725 L 191 525.5170037463082 L 192 523.9771364995185 L 193 522.4186782472057 L 194 520.8418665199988 L 195 519.2469416458509 L 196 517.6341467134098 L 197 516.0037275349672 L 198 514.3559326089944 L 199 512.6910130822677 L 200 511.009222711589 L 201 509.31081782511126 L 202 507.59605728326943 L 203 505.86520243932716 L 204 504.11851709954254 L 205 502.35626748296073 L 206 500.57872218083816 L 207 498.7861521157058 L 208 496.97883050007647 L 209 495.15703279480374 L 210 493.32103666709787 L 211 491.47112194820534 L 212 489.60757059075877 L 213 487.73066662580345 L 214 485.840696119507 L 215 483.9379471295591 L 216 482.0227096612671 L 217 480.09527562335575 L 218 478.1559387834758 L 219 476.2049947234301 L 220 474.2427407941225 L 221 472.2694760702377 L 222 470.2855013046581 L 223 468.29111888262474 L 224 466.28663277564965 L 225 464.2723484951865 L 226 462.2485730460664 L 227 460.2156148797059 L 228 458.17378384709514 L 229 456.1233911515717 L 230 454.0647493013894 L 231 451.9981720620875 L 232 449.9239744086684 L 233 447.84247247759134 L 234 445.7539835185885 L 235 443.65882584631197 L 236 441.5573187918183 L 237 439.4497826538976 L 238 437.3365386502561 L 239 435.21790886855763 L 240 433.09421621733316 L 241 430.96578437676527 L 242 428.8329377493547 L 243 426.69600141047675 L 244 424.5553010588355 L 245 422.41116296682253 L 246 420.26391393078893 L 247 418.1138812212367 L 248 415.9613925329381 L 249 413.80677593499064 L 250 411.65035982081486 L 251 409.4924728581024 L 252 407.3334439387226 L 253 405.1736021285949 L 254 403.01327661753436 L 255 400.852796669079 L 256 398.69249157030515 L 257 396.5326905816395 L 258 394.3737228866755 L 259 392.21591754200114 L 260 390.05960342704594 L 261 387.90510919395564 L 262 385.75276321750044 L 263 383.6028935450267 L 264 381.4558278464577 L 265 379.31189336435216 L 266 377.17141686402806 L 267 375.0347245837591 L 268 372.90214218505145 L 269 370.77399470300827 L 270 368.65060649679003 L 271 366.53230120017776 L 272 364.41940167224647 L 273 362.31222994815704 L 274 360.21110719007396 L 275 358.11635363821534 L 276 356.02828856204405 L 277 353.94723021160655 L 278 351.8734957690274 L 279 349.80740130016585 L 280 347.74926170644363 L 281 345.69939067684896 L 282 343.6581006401266 L 283 341.6257027171589 L 284 339.60250667354705 L 285 337.5888208723983 L 286 335.58495222732716 L 287 333.59120615567747 L 288 331.60788653197284 L 289 329.63529564160154 L 290 327.6737341347443 L 291 325.7235009805511 L 292 323.78489342157394 L 293 321.85820692846306 L 294 319.9437351549331 L 295 318.0417698930063 L 296 316.1526010285391 L 297 314.27651649703967 L 298 312.41380223978274 L 299 310.5647421602279 L 300 308.72961808074893 L 301 306.90870969968 L 302 305.10229454868613 L 303 303.310647950463 L 304 301.5340429767745 L 305 299.7727504068323 L 306 298.0270386860258 L 307 296.29717388500706 L 308 294.58341965913786 L 309 292.8860372083054 L 310 291.20528523711147 L 311 289.54141991544213 L 312 287.89469483942446 L 313 286.2653609927742 L 314 284.65366670854326 L 315 283.05985763126944 L 316 281.4841766795375 L 317 279.92686400895457 L 318 278.38815697554725 L 319 276.8682900995854 L 320 275.36749502983776 L 321 273.8860005082655 L 322 272.4240323351589 L 323 270.98181333472235 L 324 269.5595633211126 L 325 268.157499064936 L 326 266.7758342602101 L 327 265.4147794917933 L 328 264.07454220328884 L 329 262.75532666542773 L 330 261.4573339449348 L 331 260.1807618738836 L 332 258.92580501954404 L 333 257.69265465472733 L 334 256.4814987286335 L 335 255.29252183820554 L 336 254.1259051999943 L 337 252.98182662253805 L 338 251.86046047926263 L 339 250.7619776819041 L 340 249.6865456544596 L 341 248.6343283076696 L 342 247.60548601403556 L 343 246.60017558337705 L 344 245.61855023893168 L 345 244.66075959400177 L 346 243.72694962915125 L 347 242.81726266995614 L 348 241.93183736531213 L 349 241.07080866630284 L 350 240.23430780563086 L 351 239.42246227761666 L 352 238.63539581876634 L 353 237.87322838891254 L 354 237.136076152931 L 355 236.42405146303525 L 356 235.73726284165275 L 357 235.0758149648844 L 358 234.43980864655057 L 359 233.8293408228257 L 360 233.24450453746383 L 361 232.6853889276173 L 362 232.1520792102514 L 363 231.6446566691556 L 364 231.16319864255536 L 365 230.70777851132414 L 366 230.27846568779952 L 367 229.8753256052037 L 368 229.4984197076705 L 369 229.14780544088057 L 370 228.8235362433057 L 371 228.52566153806416 L 372 228.25422672538784 L 373 228.00927317570287 L 374 227.79083822332382 L 375 227.59895516076375 L 376 227.43365323365984 L 377 227.2949576363159 L 378 227.18288950786254 L 379 227.09746592903517 L 380 227.0386999195707 L 381 227.0066004362231 L 382 227.00117237139838 L 383 227.02241655240886 L 384 227.07032974134697 L 385 227.14490463557894 L 386 227.24612986885765 L 387 227.37399001305522 L 388 227.52846558051417 L 389 227.7095330270179 L 390 227.91716475537896 L 391 228.1513291196453 L 392 228.4119904299237 L 393 228.69910895781905 L 394 229.0126409424899 L 395 229.35253859731802 L 396 229.71875011719163 L 397 230.11121968640154 L 398 230.52988748714796 L 399 230.97468970865768 L 400 231.44555855690962 L 401 231.94242226496775 L 402 232.46520510391917 L 403 233.0138273944164 L 404 233.58820551882155 L 405 234.18825193395077 L 406 234.8138751844171 L 407 235.46497991656955 L 408 236.14146689302626 L 409 236.8432330077997 L 410 237.57017130201143 L 411 238.32217098019413 L 412 239.0991174271783 L 413 239.9008922255613 L 414 240.7273731737557 L 415 241.57843430461472 L 416 242.45394590463096 L 417 243.35377453370694 L 418 244.27778304549298 L 419 245.22583060829032 L 420 246.1977727265157 L 421 247.1934612627247 L 422 248.21274446018964 L 423 249.25546696602973 L 424 250.32146985488876 L 425 251.4105906531576 L 426 252.52266336373754 L 427 253.65751849134034 L 428 254.81498306832182 L 429 255.9948806810445 L 430 257.19703149676525 L 431 258.42125229104494 L 432 259.6673564756735 L 433 260.9351541271092 L 434 262.2244520154254 L 435 263.53505363376144 L 436 264.8667592282731 L 437 266.2193658285778 L 438 267.59266727869 L 439 268.9864542684425 L 440 270.400514365388 L 441 271.83463204717674 L 442 273.28858873440515 L 443 274.76216282393045 L 444 276.25512972264585 L 445 277.7672618817118 L 446 279.2983288312375 L 447 280.848097215408 L 448 282.4163308280504 L 449 284.00279064863514 L 450 285.6072348787061 L 451 287.229418978734 L 452 288.8690957053876 L 453 290.526015149217 L 454 292.1999247727434 L 455 293.89056944894907 L 456 295.59769150016257 L 457 297.32103073733197 L 458 299.0603244996819 L 459 300.8153076947459 L 460 302.585712838771 L 461 304.37127009748514 L 462 306.1717073272243 L 463 307.9867501164108 L 464 309.8161218273772 L 465 311.6595436385298 L 466 313.51673458684513 L 467 315.3874116106924 L 468 317.2712895929761 L 469 319.1680814045916 L 470 321.07749794818795 L 471 322.99924820223015 L 472 324.93303926535464 L 473 326.87857640101197 L 474 328.8355630823884 L 475 330.8037010376008 L 476 332.78269029515735 L 477 334.7722292296776 L 478 336.77201460786375 L 479 338.7817416347188 L 480 340.801104 L 481 342.82979392490586 L 482 344.86750220898557 L 483 346.91391827726534 L 484 348.96873022758456 L 485 351.0316248781337 L 486 353.102287815188 L 487 355.18040344102786 L 488 357.265655022041 L 489 359.3577247369965 L 490 361.45629372548535 L 491 363.5610421365194 L 492 365.67164917728076 L 493 367.7877931620151 L 494 369.9091515610613 L 495 372.0354010500091 L 496 374.1662175589787 L 497 376.30127632201277 L 498 378.44025192657585 L 499 380.58281836315166 L 500 382.72864907493124 L 501 384.8774170075848 L 502 387.0287946591097 L 503 389.1824541297456 L 504 391.33806717195165 L 505 393.4953052404354 L 506 395.653839542228 L 507 397.8133410867967 L 508 399.97348073618735 L 509 402.1339292551901 L 510 404.2943573615188 L 511 406.4544357759985 L 512 408.6138352727525 L 513 410.77222672938024 L 514 412.9292811771204 L 515 415.0846698509905 L 516 417.23806423989504 L 517 419.3891361366951 L 518 421.53755768823174 L 519 423.6830014452955 L 520 425.8251404125339 L 521 427.9636480982903 L 522 430.0981985643657 L 523 432.228466475696 L 524 434.35412714993805 L 525 436.47485660695526 L 526 438.59033161819696 L 527 440.7002297559626 L 528 442.80422944254497 L 529 444.902009999242 L 530 446.99325169523337 L 531 449.0776357963116 L 532 451.15484461346193 L 533 453.224561551282 L 534 455.2864711562359 L 535 457.34025916473325 L 536 459.3856125510275 L 537 461.4222195749255 L 538 463.44976982930086 L 539 465.46795428740427 L 540 467.4764653499635 L 541 469.474996892066 L 542 471.46324430981616 L 543 473.44090456676156 L 544 475.40767624007987 L 545 477.36325956651956 L 546 479.3073564880882 L 547 481.23967069748073 L 548 483.1599076832404 L 549 485.06777477464703 L 550 486.9629811863234 L 551 488.8452380625555 L 552 490.7142585213178 L 553 492.56975769799817 L 554 494.41145278881527 L 555 496.23906309392174 L 556 498.0523100601866 L 557 499.8509173236507 L 558 501.6346107516485 L 559 503.4031184845894 L 560 505.1561709773935 L 561 506.89350104057337 L 562 508.6148438809576 L 563 510.31993714204924 L 564 512.0085209440122 L 565 513.6803379232807 L 566 515.3351332717851 L 567 516.9726547757881 L 568 518.5926528543256 L 569 520.1948805972463 L 570 521.7790938028443 L 571 523.3450510150786 L 572 524.8925135603749 L 573 526.421245584002 L 574 527.9310140860198 L 575 529.4215889567915 L 576 530.892743012056 L 577 532.3442520275534 L 578 533.7758947731998 L 579 535.187453046806 L 580 536.5787117073352 L 581 537.9494587076922 L 582 539.2994851270432 L 583 540.6285852026584 L 584 541.9365563612722 L 585 543.2231992499588 L 586 544.4883177665164 L 587 545.7317190893556 L 588 546.9532137068882 L 589 548.1526154464113 L 590 549.329741502483 L 591 550.4844124647838 L 592 551.6164523454618 L 593 552.7256886059555 L 594 553.811952183291 L 595 554.8750775158496 L 596 555.9149025686016 L 597 556.9312688578028 L 598 557.9240214751496 L 599 558.8930091113891 L 600 559.8380840793807 L 601 560.759102336606 L 602 561.6559235071225 L 603 562.5284109029585 L 604 563.3764315449474 L 605 564.1998561829946 L 606 564.9985593157769 L 607 565.7724192098716 L 608 566.5213179183093 L 609 567.2451412985514 L 610 567.9437790298865 L 611 568.6171246302453 L 612 569.2650754724292 L 613 569.8875327997532 L 614 570.4844017410967 L 615 571.0555913253637 L 616 571.6010144953483 L 617 572.1205881210026 L 618 572.6142330121079 L 619 573.0818739303434 L 620 573.5234396007545 L 621 573.9388627226153 L 622 574.3280799796867 L 623 574.6910320498661 L 624 575.0276636142297 L 625 575.3379233654632 L 626 575.6217640156822 L 627 575.8791423036389 L 628 576.1100190013167 L 629 576.3143589199078 L 630 576.4921309151781 L 631 576.6433078922123 L 632 576.7678668095446 L 633 576.8657886826704 L 634 576.9370585869395 L 635 576.9816656598313 L 636 576.9996031026096 L 637 576.9908681813599 L 638 576.955462227405 L 639 576.8933906371029 L 640 576.8046628710239 L 641 576.6892924525088 L 642 576.5472969656078 L 643 576.3786980524004 L 644 576.1835214096968 L 645 575.9617967851214 L 646 575.7135579725787 L 647 575.4388428071031 L 648 575.1376931590918 L 649 574.8101549279235 L 650 574.4562780349622 L 651 574.0761164159494 L 652 573.6697280127827 L 653 573.237174764685 L 654 572.778522598764 L 655 572.2938414199642 L 656 571.7832051004123 L 657 571.2466914681578 L 658 570.6843822953114 L 659 570.0963632855816 L 660 569.4827240612118 L 661 568.8435581493219 L 662 568.1789629676517 L 663 567.4890398097149 L 664 566.7738938293587 L 665 566.0336340247388 L 666 565.2683732217054 L 667 564.4782280566067 L 668 563.6633189585131 L 669 562.8237701308611 L 670 561.9597095325237 L 671 561.0712688583069 L 672 560.1585835188786 L 673 559.2217926201288 L 674 558.2610389419694 L 675 557.2764689165715 L 676 556.2682326060478 L 677 555.2364836795805 L 678 554.1813793900001 L 679 553.1030805498182 L 680 552.0017515067174 L 681 550.8775601185021 L 682 549.7306777275145 L 683 548.5612791345209 L 684 547.3695425720678 L 685 546.1556496773183 L 686 544.9197854643671 L 687 543.6621382960429 L 688 542.3828998551976 L 689 541.082265115493 L 690 539.7604323116826 L 691 538.4176029093994 L 692 537.053981574448 L 693 535.6697761416123 L 694 534.2651975829772 L 695 532.840459975775 L 696 531.3957804697558 L 697 529.9313792540917 L 698 528.4474795238161 L 699 526.9443074458063 L 700 525.422092124313 L 701 523.8810655660402 L 702 522.3214626447858 L 703 520.7435210656417 L 704 519.1474813287668 L 705 517.5335866927286 L 706 515.9020831374295 L 707 514.2532193266145 L 708 512.5872465699728 L 709 510.9044187848332 L 710 509.2049924574651 L 711 507.4892266039849 L 712 505.75738273088007 L 713 504.00972479515036 L 714 502.24651916407754 L 715 500.4680345746285 L 716 498.67454209249416 L 717 496.86631507077686 L 718 495.0436291083263 L 719 493.20676200773573 L 720 491.35599373299954 L 721 489.4916063668446 L 722 487.613884067735 L 723 485.7231130265643 L 724 483.81958142303426 L 725 481.90357938173406 L 726 479.97539892791923 L 727 478.03533394300536 L 728 476.083680119774 L 729 474.1207349173074 L 730 472.14679751564955 L 731 470.1621687702079 L 732 468.1671511658998 L 733 466.1620487710471 L 734 464.14716719103507 L 735 462.1228135217308 L 736 460.0892963026804 L 737 458.04692547008045 L 738 455.99601230954244 L 739 453.9368694086456 L 740 451.8698106092967 L 741 449.79515095989416 L 742 447.7132066673122 L 743 445.62429504870465 L 744 443.52873448314335 L 745 441.4268443630906 L 746 439.31894504572176 L 747 437.20535780409614 L 748 435.08640477819165 L 749 432.96240892580687 L 750 430.8336939733357 L 751 428.7005843664296 L 752 426.5634052205451 L 753 424.42248227139396 L 754 422.2781418252942 L 755 420.130710709439 L 756 417.9805162220811 L 757 415.8278860826508 L 758 413.673148381804 L 759 411.5166315314197 L 760 409.3586642145424 L 761 407.1995753352892 L 762 405.0396939687178 L 763 402.8793493106722 L 764 400.7188706276091 L 765 398.5585872064113 L 766 396.39882830420225 L 767 394.23992309816026 L 768 392.0822006353497 L 769 389.92598978256717 L 770 387.77161917622027 L 771 385.6194171722364 L 772 383.469711796019 L 773 381.3228306924497 L 774 379.17910107595304 L 775 377.0388496806221 L 776 374.90240271042194 L 777 372.77008578946953 L 778 370.64222391240617 L 779 368.5191413948619 L 780 366.4011618240261 L 781 364.28860800932927 L 782 362.1818019332404 L 783 360.08106470219474 L 784 357.98671649765 L 785 355.89907652728914 L 786 353.81846297636605 L 787 351.7451929592122 L 788 349.6795824709015 L 789 347.62194633909075 L 790 345.5725981760332 L 791 343.53185033078194 L 792 341.5000138415814 L 793 339.477398388463 L 794 337.4643122460436 L 795 335.4610622365411 L 796 333.4679536830115 L 797 331.48529036281093 L 798 329.5133744612988 L 799 327.5525065257774 L 800 325.60298541968746 L 801 323.66510827705446 L 802 321.7391704572036 L 803 319.8254654997408 L 804 317.9242850798154 L 805 316.0359189636624 L 806 314.16065496444094 L 807 312.2987788983644 L 808 310.450574541141 L 809 308.61632358472 L 810 306.7963055943603 L 811 304.9907979660185 L 812 303.20007588407105 L 813 301.4244122793733 L 814 299.66407778765887 L 815 297.9193407082931 L 816 296.19046696337864 L 817 294.4777200572274 L 818 292.78136103619624 L 819 291.1016484489027 L 820 289.4388383068159 L 821 287.79318404523934 L 822 286.16493648468145 L 823 284.5543437926293 L 824 282.9616514457226 L 825 281.3871021923413 L 826 279.8309360156055 L 827 278.29339009680075 L 828 276.77469877922675 L 829 275.2750935324805 L 830 273.79480291717834 L 831 272.334052550118 L 832 270.89306506989374 L 833 269.4720601029611 L 834 268.07125423016475 L 835 266.69086095372654 L 836 265.3310906647067 L 837 263.99215061093577 L 838 262.6742448654285 L 839 261.3775742952789 L 840 260.10233653104694 L 841 258.84872593663505 L 842 257.6169335796663 L 843 256.40714720236144 L 844 255.219551192925 L 845 254.05432655744266 L 846 252.91165089229207 L 847 251.79169835707594 L 848 250.69463964807665 L 849 249.6206419722408 L 850 248.56986902169353 L 851 247.5424809487906 L 852 246.5386343417079 L 853 245.55848220057635 L 854 244.60217391416134 L 855 243.66985523709516 L 856 242.76166826766055 L 857 241.87775142613438 L 858 241.0182394336892 L 859 240.18326329186084 L 860 239.37295026258136 L 861 238.5874238487827 L 862 237.82680377557352 L 863 237.09120597199075 L 864 236.38074255333112 L 865 235.69552180406242 L 866 235.03564816132047 L 867 234.4012221989903 L 868 233.79234061237835 L 869 233.209096203474 L 870 232.65157786680578 L 871 232.11987057589212 L 872 231.61405537029086 L 873 231.13420934324688 L 874 230.68040562994287 L 875 230.25271339635185 L 876 229.85119782869555 L 877 229.47592012350935 L 878 229.12693747831472 L 879 228.80430308290175 L 880 228.5080661112222 L 881 228.2382717138948 L 882 227.99496101132343 L 883 227.7781710874302 L 884 227.58793498400294 L 885 227.42428169565943 L 886 227.28723616542814 L 887 227.17681928094657 L 888 227.09304787127766 L 889 227.03593470434484 L 890 227.00548848498602 L 891 227.00171385362688 L 892 227.0246113855735 L 893 227.07417759092482 L 894 227.15040491510436 L 895 227.25328174001191 L 896 227.382792385794 L 897 227.53891711323396 L 898 227.72163212676028 L 899 227.9309095780735 L 900 228.16671757039063 L 901 228.42902016330672 L 902 228.71777737827242 L 903 229.03294520468776 L 904 229.37447560660942 L 905 229.74231653007257 L 906 230.13641191102408 L 907 230.5567016838681 L 908 231.0031217906203 L 909 231.47560419067153 L 910 231.97407687115813 L 911 232.49846385793745 L 912 233.04868522716774 L 913 233.62465711748922 L 914 234.2262917428062 L 915 234.85349740566633 L 916 235.5061785112372 L 917 236.18423558187564 L 918 236.88756527229017 L 919 237.6160603852916 L 920 238.36960988813203 L 921 239.14809892942702 L 922 239.9514088566614 L 923 240.77941723427267 L 924 241.63199786231263 L 925 242.50902079568166 L 926 243.4103523639339 L 927 244.33585519165112 L 928 245.28538821937985 L 929 246.25880672513173 L 930 247.2559623464401 L 931 248.2767031029735 L 932 249.3208734196986 L 933 250.3883141505931 L 934 251.47886260290053 L 935 252.59235256192818 L 936 253.72861431637924 L 937 254.8874746842204 L 938 256.068757039076 L 939 257.2722813371495 L 940 258.49786414466337 L 941 259.7453186658182 L 942 261.01445477126254 L 943 262.30507902707035 L 944 263.6169947242246 L 945 264.95000190859673 L 946 266.3038974114244 L 947 267.6784748802751 L 948 269.0735248104989 L 949 270.4888345771586 L 950 271.92418846743783 L 951 273.37936771351735 L 952 274.85415052591986 L 953 276.348312127312 L 954 277.8616247867655 L 955 279.39385785446456 L 956 280.9447777968617 L 957 282.5141482322708 L 958 284.1017299668945 L 959 285.70728103128175 L 960 287.330556717206 L 961 288.9713096149636 L 962 290.6292896510809 L 963 292.30424412643055 L 964 293.9959177547444 L 965 295.704052701525 L 966 297.4283886233406 L 967 299.16866270750774 L 968 300.92460971214496 L 969 302.6959620066016 L 970 304.4824496122465 L 971 306.28380024361843 L 972 308.0997393499239 L 973 309.9299901568846 L 974 311.7742737089209 L 975 313.63230891166734 L 976 315.5038125748177 L 977 317.38849945528455 L 978 319.28608230067664 L 979 321.19627189307795 L 980 323.1187770931306 L 981 325.05330488440626 L 982 326.99956041806854 L 983 328.95724705780924 L 984 330.92606642506246 L 985 332.90571844447925 L 986 334.8959013896655 L 987 336.89631192916704 L 988 338.9066451727037 L 989 340.9265947176366 L 990 342.9558526956702 L 991 344.9941098197748 L 992 347.0410554313252 L 993 349.09637754745165 L 994 351.1597629085878 L 995 353.23089702621814 L 996 355.3094642308083 L 997 357.3951477199195 L 998 359.4876296064916 L 999 361.5865909672956 L 1000 363.6917118915395 L 1001 365.80267152963006 L 1002 367.91914814207155 L 1003 370.04081914850644 L 1004 372.1673611768782 L 1005 374.2984501127201 L 1006 376.4337611485536 L 1007 378.57296883339274 L 1008 380.71574712234957 L 1009 382.8617694263253 L 1010 385.0107086617895 L 1011 387.1622373006299 L 1012 389.3160274200743 L 1013 391.4717507526685 L 1014 393.629078736311 L 1015 395.78768256432784 L 1016 397.94723323559015 L 1017 400.1074016046557 L 1018 402.26785843193784 L 1019 404.42827443388364 L 1020 406.5883203331637 L 1021 408.7476669088563 L 1022 410.905985046627 L 1023 413.0629457888898 L 1024 415.2182203849436 L 1025 417.3714803410804 L 1026 419.5223974706502 L 1027 421.67064394408345 L 1028 423.8158923388542 L 1029 425.9578156893867 L 1030 428.0960875368865 L 1031 430.23038197910023 L 1032 432.3603737199849 L 1033 434.48573811929003 L 1034 436.60615124203497 L 1035 438.72128990788326 L 1036 440.8308317403977 L 1037 442.93445521617684 L 1038 445.03183971385886 L 1039 447.1226655629876 L 1040 449.20661409273725 L 1041 451.2833676804793 L 1042 453.3526098001954 L 1043 455.41402507071786 L 1044 457.4672993038003 L 1045 459.51211955200216 L 1046 461.5481741563884 L 1047 463.57515279402844 L 1048 465.59274652529587 L 1049 467.6006478409529 L 1050 469.5985507090213 L 1051 471.58615062142377 L 1052 473.56314464039707 L 1053 475.5292314446622 L 1054 477.48411137535135 L 1055 479.4274864816798 L 1056 481.35906056635645 L 1057 483.27853923073053 L 1058 485.18562991965973 L 1059 487.08004196610216 L 1060 488.9614866354153 L 1061 490.82967716936594 L 1062 492.6843288298333 L 1063 494.52515894220994 L 1064 496.3518869384825 L 1065 498.1642343999967 L 1066 499.96192509988987 L 1067 501.74468504519393 L 1068 503.5122425185936 L 1069 505.26432811984205 L 1070 507.00067480681895 L 1071 508.72101793623347 L 1072 510.42509530395864 L 1073 512.1126471849941 L 1074 513.7834163730536 L 1075 515.4371482197649 L 1076 517.0735906734836 L 1077 518.6924943177074 L 1078 520.2936124090924 L 1079 521.8767009150583 L 1080 523.4415185509848 L 1081 524.987826816984 L 1082 526.5153900342533 L 1083 528.0239753809946 L 1084 529.5133529279009 L 1085 530.9832956731991 L 1086 532.4335795772502 L 1087 533.8639835966941 L 1088 535.2742897181407 L 1089 536.6642829913986 L 1090 538.033751562235 L 1091 539.3824867046667 L 1092 540.710282852772 L 1093 542.0169376320223 L 1094 543.302251890126 L 1095 544.5660297273832 L 1096 545.8080785265424 L 1097 547.028208982159 L 1098 548.226235129447 L 1099 549.4019743726241 L 1100 550.55524751274 L 1101 551.6858787749907 L 1102 552.793695835507 L 1103 553.8785298476213 L 1104 554.9402154676002 L 1105 555.9785908798463 L 1106 556.9934978215605 L 1107 557.9847816068641 L 1108 558.9522911503745 L 1109 559.8958789902331 L 1110 560.8154013105801 L 1111 561.7107179634746 L 1112 562.5816924902547 L 1113 563.4281921423353 L 1114 564.250087901442 L 1115 565.0472544992741 L 1116 565.819570436598 L 1117 566.5669180017646 L 1118 567.2891832886512 L 1119 567.9862562140214 L 1120 568.6580305343037 L 1121 569.304403861785 L 1122 569.9252776802147 L 1123 570.5205573598212 L 1124 571.0901521717341 L 1125 571.6339753018126 L 1126 572.1519438638774 L 1127 572.6439789123435 L 1128 573.1100054542526 L 1129 573.5499524607033 L 1130 573.9637528776764 L 1131 574.3513436362556 L 1132 574.7126656622394 L 1133 575.0476638851451 L 1134 575.3562872466023 L 1135 575.638488708135 L 1136 575.8942252583307 L 1137 576.1234579193962 L 1138 576.3261517530977 L 1139 576.5022758660872 L 1140 576.6518034146095 L 1141 576.7747116085947 L 1142 576.8709817151312 L 1143 576.9405990613209 L 1144 576.9835530365158 L 1145 576.999837093935 L 1146 576.9894487516626 L 1147 576.9523895930258 L 1148 576.8886652663538 L 1149 576.7982854841168 L 1150 576.6812640214459 L 1151 576.5376187140333 L 1152 576.3673714554138 L 1153 576.1705481936285 L 1154 575.9471789272692 L 1155 575.6972977009067 L 1156 575.420942599902 L 1157 575.1181557446012 L 1158 574.788983283916 L 1159 574.4334753882896 L 1160 574.0516862420511 L 1161 573.6436740351555 L 1162 573.2095009543161 L 1163 572.7492331735257 L 1164 572.2629408439705 L 1165 571.7506980833391 L 1166 571.2125829645249 L 1167 570.6486775037274 L 1168 570.0590676479511 L 1169 569.4438432619072 L 1170 568.8030981143152 L 1171 568.1369298636132 L 1172 567.4454400430715 L 1173 566.7287340453194 L 1174 565.98692110628 L 1175 565.2201142885231 L 1176 564.428430464031 L 1177 563.6119902963869 L 1178 562.7709182223838 L 1179 561.9053424330583 L 1180 561.0153948541526 L 1181 560.1012111260077 L 1182 559.1629305828887 L 1183 558.2006962317504 L 1184 557.2146547304387 L 1185 556.2049563653393 L 1186 555.171755028472 L 1187 554.1152081940348 L 1188 553.0354768944035 L 1189 551.9327256955864 L 1190 550.807122672145 L 1191 549.6588393815741 L 1192 548.4880508381564 L 1193 547.294935486286 L 1194 546.0796751732728 L 1195 544.8424551216249 L 1196 543.5834639008195 L 1197 542.3028933985609 L 1198 541.0009387915354 L 1199 539.6777985156629 L 1200 538.3336742358524 L 1201 536.9687708152667 L 1202 535.5832962840966 L 1203 534.1774618078559 L 1204 532.7514816551956 L 1205 531.3055731652472 L 1206 529.8399567144966 L 1207 528.3548556831963 L 1208 526.8504964213184 L 1209 525.3271082140568 L 1210 523.7849232468795 L 1211 522.224176570142 L 1212 520.6451060632608 L 1213 519.0479523984583 L 1214 517.4329590040803 L 1215 515.8003720274954 L 1216 514.1504402975772 L 1217 512.4834152867799 L 1218 510.799551072811 L 1219 509.0991042999055 L 1220 507.38233413971057 L 1221 505.64950225178296 L 1222 503.90087274371035 L 1223 502.1367121308554 L 1224 500.3572892957375 L 1225 498.5628754470489 L 1226 496.7537440783213 L 1227 494.9301709262392 L 1228 493.092433928616 L 1229 491.2408131820304 L 1230 489.3755908991378 L 1231 487.4970513656551 L 1232 485.6054808970338 L 1233 483.70116779481964 L 1234 481.78440230271224 L 1235 479.8554765623288 L 1236 477.9146845686757 L 1237 475.96232212534187 L 1238 473.99868679941187 L 1239 472.02407787611503 L 1240 470.0387963132076 L 1241 468.0431446951054 L 1242 466.03742718676295 L 1243 464.02194948731704 L 1244 461.9970187834918 L 1245 459.9629437027813 L 1246 457.9200342664081 L 1247 455.8686018420742 L 1248 453.8089590965022 L 1249 451.7414199477813 L 1250 449.6662995175229 L 1251 447.5839140828295 L 1252 445.4945810280922 L 1253 443.3986187966144 L 1254 441.2963468420791 L 1255 439.1880855798573 L 1256 437.0741563381746 L 1257 434.9548813091341 L 1258 432.83058349961215 L 1259 430.70158668202515 L 1260 428.56821534498476 L 1261 426.4307946438387 L 1262 424.28965035111503 L 1263 422.14510880686777 L 1264 419.9974968689402 L 1265 417.8471418631451 L 1266 415.6943715333771 L 1267 413.53951399166033 L 1268 411.38289766813784 L 1269 409.22485126101657 L 1270 407.0657036864668 L 1271 404.9057840284932 L 1272 402.7454214887755 L 1273 400.58494533649576 L 1274 398.42468485815124 L 1275 396.26496930736846 L 1276 394.1061278547184 L 1277 391.9484895375485 L 1278 389.7923832098304 L 1279 387.63813749204076 L 1280 385.4860807210723 L 1281 383.33654090019223 L 1282 381.18984564905037 L 1283 379.04632215374363 L 1284 376.90629711695044 L 1285 374.7700967081347 L 1286 372.638046513835 L 1287 370.51047148803866 L 1288 368.38769590265656 L 1289 366.270043298097 L 1290 364.1578364339564 L 1291 362.05139723982364 L 1292 359.95104676621594 L 1293 357.85710513564396 L 1294 355.76989149382314 L 1295 353.68972396102896 L 1296 351.6169195836136 L 1297 349.55179428568124 L 1298 347.4946628209384 L 1299 345.44583872472003 L 1300 343.40563426620486 L 1301 341.3743604008176 L 1302 339.35232672283735 L 1303 337.3398414182102 L 1304 335.33721121757947 L 1305 333.34474134953246 L 1306 331.36273549408145 L 1307 329.39149573637786 L 1308 327.4313225206722 L 1309 325.48251460451905 L 1310 323.54536901324434 L 1311 321.62018099467366 L 1312 319.7072439741345 L 1313 317.8068495097308 L 1314 315.9192872479078 L 1315 314.04484487930523 L 1316 312.18380809490884 L 1317 310.3364605425092 L 1318 308.50308378346665 L 1319 306.68395724979956 L 1320 304.87935820159413 L 1321 303.08956168474793 L 1322 301.3148404890462 L 1323 299.55546510658695 L 1324 297.8117036905529 L 1325 296.0838220143438 L 1326 294.3720834310653 L 1327 292.67674883339254 L 1328 290.9980766138057 L 1329 289.33632262520894 L 1330 287.69174014193226 L 1331 286.06457982113085 L 1332 284.4550896645809 L 1333 282.8635149808804 L 1334 281.29009834806226 L 1335 279.73507957661974 L 1336 278.1986956729574 L 1337 276.68118080326747 L 1338 275.18276625784114 L 1339 273.7036804158144 L 1340 272.2441487103614 L 1341 270.80439359433456 L 1342 269.3846345063614 L 1343 267.98508783739646 L 1344 266.60596689774184 L 1345 265.2474818845358 L 1346 263.9098398497148 L 1347 262.59324466845806 L 1348 261.2978970081115 L 1349 260.02399429760464 L 1350 258.7717306973596 L 1351 257.541297069699 L 1352 256.3328809497543 L 1353 255.1466665168841 L 1354 253.98283456660184 L 1355 252.84156248302168 L 1356 251.72302421182044 L 1357 250.62739023372737 L 1358 249.55482753853974 L 1359 248.50549959967262 L 1360 247.47956634924148 L 1361 246.47718415368726 L 1362 245.49850578994406 L 1363 244.54368042215324 L 1364 243.6128535789299 L 1365 242.70616713118073 L 1366 241.823759270482 L 1367 240.96576448801662 L 1368 240.132313554077 L 1369 239.32353349813212 L 1370 238.53954758946776 L 1371 237.78047531839778 L 1372 237.04643237805323 L 1373 236.3375306467477 L 1374 235.6538781709265 L 1375 234.99557914869834 L 1376 234.36273391395494 L 1377 233.75543892107757 L 1378 233.1737867302368 L 1379 232.61786599328505 L 1380 232.08776144024438 L 1381 231.58355386639326 L 1382 231.1053201199513 L 1383 230.6531330903671 L 1384 230.22706169720863 L 1385 229.82717087965943 L 1386 229.45352158662018 L 1387 229.10617076741988 L 1388 228.7851713631356 L 1389 228.49057229852394 L 1390 228.22241847456385 L 1391 227.98075076161314 L 1392 227.7656059931794 L 1393 227.57701696030614 L 1394 227.4150124065747 L 1395 227.27961702372357 L 1396 227.1708514478849 L 1397 227.0887322564393 L 1398 227.03327196548932 L 1399 227.00447902795165 L 1400 227.00235783226887 L 1401 227.02690870174058 L 1402 227.07812789447416 L 1403 227.156007603955 L 1404 227.2605359602364 L 1405 227.39169703174878 L 1406 227.5494708277275 L 1407 227.73383330126035 L 1408 227.94475635295203 L 1409 228.18220783520735 L 1410 228.44615155713058 L 1411 228.7365472900417 L 1412 229.0533507736078 L 1413 229.39651372258885 L 1414 229.76598383419724 L 1415 230.16170479606893 L 1416 230.58361629484696 L 1417 231.0316540253736 L 1418 231.50574970049155 L 1419 232.00583106145132 L 1420 232.53182188892535 L 1421 233.0836420146242 L 1422 233.66120733351573 L 1423 234.26442981664323 L 1424 234.89321752454316 L 1425 235.5474746212573 L 1426 236.22710138893976 L 1427 236.9319942430556 L 1428 237.66204574816751 L 1429 238.41714463431194 L 1430 239.19717581395716 L 1431 240.00202039954476 L 1432 240.83155572160877 L 1433 241.68565534747364 L 1434 242.56418910052338 L 1435 243.46702308004268 L 1436 244.39401968162431 L 1437 245.3450376181435 L 1438 246.31993194129092 L 1439 247.3185540636654 L 1440 248.34075178141967 L 1441 249.38636929745982 L 1442 250.45524724519 L 1443 251.54722271280238 L 1444 252.66212926810726 L 1445 253.7997969838987 L 1446 254.9600524638553 L 1447 256.1427188689674 L 1448 257.3476159444899 L 1449 258.5745600474149 L 1450 259.82336417446265 L 1451 261.0938379905829 L 1452 262.3857878579647 L 1453 263.6990168655484 L 1454 265.03332485903957 L 1455 266.38850847141396 L 1456 267.76436115391414 L 1457 269.16067320752893 L 1458 270.5772318149567 L 1459 272.01382107304005 L 1460 273.47022202567297 L 1461 274.94621269717317 L 1462 276.44156812611243 L 1463 277.95606039960666 L 1464 279.4894586880509 L 1465 281.0415292803021 L 1466 282.6120356192981 L 1467 284.200738338115 L 1468 285.8073952964477 L 1469 287.43176161751705 L 1470 289.0735897253902 L 1471 290.7326293827174 L 1472 292.40862772886976 L 1473 294.10132931848 L 1474 295.81047616037347 L 1475 297.5358077568927 L 1476 299.277061143599 L 1477 301.0339709293521 L 1478 302.80626933676035 L 1479 304.5936862429912 L 1480 306.3959492209451 L 1481 308.212783580775 L 1482 310.0439124117537 L 1483 311.8890566244772 L 1484 313.74793499340456 L 1485 315.6202641997188 L 1486 317.5057588745093 L 1487 319.4041316422642 L 1488 321.3150931646734 L 1489 323.2383521847256 L 1490 325.1736155711012 L 1491 327.12058836284706 L 1492 329.078973814336 L 1493 331.0484734404931 L 1494 333.028787062289 L 1495 335.0196128524923 L 1496 337.0206473816696 L 1497 339.03158566443625 L 1498 341.0521212059375 L 1499 343.0819460485642 L 1500 345.12075081888696 L 1501 347.16822477481315 L 1502 349.2240558529452 L 1503 351.2879307161451 L 1504 353.3595348012889 L 1505 355.43855236721356 L 1506 357.5246665428387 L 1507 359.6175593754619 L 1508 361.7169118792204 L 1509 363.82240408370603 L 1510 365.93371508273725 L 1511 368.05052308326674 L 1512 370.17250545442874 L 1513 372.2993387767098 L 1514 374.4306988912464 L 1515 376.56626094922814 L 1516 378.70569946141114 L 1517 380.84868834772425 L 1518 382.994900986972 L 1519 385.14401026661375 L 1520 387.29568863262114 L 1521 389.44960813939974 L 1522 391.60544049977614 L 1523 393.7628571350308 L 1524 395.9215292249788 L 1525 398.0811277580871 L 1526 400.24132358161813 L 1527 402.40178745180077 L 1528 404.56219008400916 L 1529 406.72220220295173 L 1530 408.8814945928547 L 1531 411.0397381476427 L 1532 413.1966039210968 L 1533 415.35176317699165 L 1534 417.50488743919703 L 1535 419.6556485417457 L 1536 421.803718678848 L 1537 423.9487704548556 L 1538 426.0904769341581 L 1539 428.22851169101665" stroke-linecap="round" stroke-linejoin="round" stroke-miterlimit="10" stroke-width="16"/></g></svg>