<svg width="20" height="21" viewBox="0 0 20 21" fill="none" xmlns="http://www.w3.org/2000/svg">
<path d="M6.25001 2.16675C6.69204 2.16675 7.11596 2.34234 7.42852 2.6549C7.74108 2.96746 7.91668 3.39139 7.91668 3.83341C7.91668 4.27544 7.74108 4.69937 7.42852 5.01193C7.11596 5.32449 6.69204 5.50008 6.25001 5.50008C5.80798 5.50008 5.38406 5.32449 5.0715 5.01193C4.75894 4.69937 4.58334 4.27544 4.58334 3.83341C4.58334 3.39139 4.75894 2.96746 5.0715 2.6549C5.38406 2.34234 5.80798 2.16675 6.25001 2.16675ZM5.00001 6.33341H7.50001C7.94204 6.33341 8.36596 6.50901 8.67852 6.82157C8.99108 7.13413 9.16668 7.55805 9.16668 8.00008V12.5834H7.91668V18.8334H4.58334V12.5834H3.33334V8.00008C3.33334 7.55805 3.50894 7.13413 3.8215 6.82157C4.13406 6.50901 4.55798 6.33341 5.00001 6.33341ZM13.75 2.16675C14.192 2.16675 14.616 2.34234 14.9285 2.6549C15.2411 2.96746 15.4167 3.39139 15.4167 3.83341C15.4167 4.27544 15.2411 4.69937 14.9285 5.01193C14.616 5.32449 14.192 5.50008 13.75 5.50008C13.308 5.50008 12.8841 5.32449 12.5715 5.01193C12.2589 4.69937 12.0833 4.27544 12.0833 3.83341C12.0833 3.39139 12.2589 2.96746 12.5715 2.6549C12.8841 2.34234 13.308 2.16675 13.75 2.16675ZM12.5 18.8334V13.8334H10L12.1583 7.50841C12.3667 6.82508 13 6.33341 13.75 6.33341C14.5 6.33341 15.1333 6.82508 15.3417 7.50841L17.5 13.8334H15V18.8334H12.5Z" fill="#9299A9"/>
</svg>
