<svg width="20" height="21" viewBox="0 0 20 21" fill="none" xmlns="http://www.w3.org/2000/svg">
<path d="M17 9.5V15.4444C17 15.857 16.8361 16.2527 16.5444 16.5444C16.2527 16.8361 15.857 17 15.4444 17H4.55556C4.143 17 3.74733 16.8361 3.45561 16.5444C3.16389 16.2527 3 15.857 3 15.4444V9.5H17ZM13.1111 3C13.3174 3 13.5152 3.08194 13.6611 3.22781C13.8069 3.37367 13.8889 3.5715 13.8889 3.77778V4.55556H15.4444C15.857 4.55556 16.2527 4.71944 16.5444 5.01117C16.8361 5.30289 17 5.69855 17 6.11111V8H3V6.11111C3 5.69855 3.16389 5.30289 3.45561 5.01117C3.74733 4.71944 4.143 4.55556 4.55556 4.55556H6.11111V3.77778C6.11111 3.5715 6.19306 3.37367 6.33892 3.22781C6.48478 3.08194 6.68261 3 6.88889 3C7.09517 3 7.293 3.08194 7.43886 3.22781C7.58472 3.37367 7.66667 3.5715 7.66667 3.77778V4.55556H12.3333V3.77778C12.3333 3.5715 12.4153 3.37367 12.5611 3.22781C12.707 3.08194 12.9048 3 13.1111 3Z" fill="#9299A9"/>
</svg>
