<svg width="40" height="40" viewBox="0 0 40 40" fill="none" xmlns="http://www.w3.org/2000/svg">
<path fill-rule="evenodd" clip-rule="evenodd" d="M20 31.5189C20.847 31.5189 21.305 32.0026 22.112 32.9585L22.1565 33.0107C22.8835 33.8713 23.9795 35.1701 25.9627 34.9816C27.1454 34.8681 28.2748 34.0462 29.2197 33.0743C30.2045 32.0616 31.1672 30.7083 32.0098 29.2006C33.6839 26.2034 35 22.3865 35 19.0737V18.9715C35 16.0878 35 10.2182 29.3842 7.46169C27.2921 6.43991 25.4869 6.57387 23.9128 6.92355C23.4433 7.03356 22.9763 7.1547 22.5122 7.28685C22.2499 7.35951 22.009 7.4246 21.7897 7.48212C21.2064 7.64802 20.6053 7.73954 20 7.7546C19.4375 7.7546 18.8573 7.64788 18.1992 7.48212C17.9769 7.42763 17.7323 7.36329 17.4655 7.28912C17.0165 7.17105 16.5318 7.03935 16.0805 6.93944C14.5198 6.59431 12.7279 6.45807 10.6781 7.46396C4.99778 10.2523 5 16.0878 5 18.9806V19.0714C5 22.4024 6.41174 26.2329 8.12361 29.2211C8.98622 30.7288 9.95554 32.0775 10.9182 33.0811C11.3984 33.5829 11.8964 34.0189 12.3966 34.3459C12.8879 34.666 13.446 34.9249 14.0351 34.9816C16.0182 35.1701 17.1165 33.869 17.8435 33.0107L17.888 32.9585C18.695 32.0049 19.153 31.5189 20 31.5189Z" fill="#FA967C"/>
<mask id="mask0_97_8278" style="mask-type:alpha" maskUnits="userSpaceOnUse" x="5" y="6" width="30" height="29">
<path fill-rule="evenodd" clip-rule="evenodd" d="M20 31.5189C20.847 31.5189 21.305 32.0026 22.112 32.9585L22.1565 33.0107C22.8835 33.8713 23.9795 35.1701 25.9627 34.9816C27.1454 34.8681 28.2748 34.0462 29.2197 33.0743C30.2045 32.0616 31.1672 30.7083 32.0098 29.2006C33.6839 26.2034 35 22.3865 35 19.0737V18.9715C35 16.0878 35 10.2182 29.3842 7.46169C27.2921 6.43991 25.4869 6.57387 23.9128 6.92355C23.4433 7.03356 22.9763 7.1547 22.5122 7.28685C22.2499 7.35951 22.009 7.4246 21.7897 7.48212C21.2064 7.64802 20.6053 7.73954 20 7.7546C19.4375 7.7546 18.8573 7.64788 18.1992 7.48212C17.9769 7.42763 17.7323 7.36329 17.4655 7.28912C17.0165 7.17105 16.5318 7.03935 16.0805 6.93944C14.5198 6.59431 12.7279 6.45807 10.6781 7.46396C4.99778 10.2523 5 16.0878 5 18.9806V19.0714C5 22.4024 6.41174 26.2329 8.12361 29.2211C8.98622 30.7288 9.95554 32.0775 10.9182 33.0811C11.3984 33.5829 11.8964 34.0189 12.3966 34.3459C12.8879 34.666 13.446 34.9249 14.0351 34.9816C16.0182 35.1701 17.1165 33.869 17.8435 33.0107L17.888 32.9585C18.695 32.0049 19.153 31.5189 20 31.5189Z" fill="#D63D4A"/>
</mask>
<g mask="url(#mask0_97_8278)">
<ellipse cx="19.9999" cy="7.50008" rx="11.6667" ry="5.83333" fill="#D63D4A"/>
<ellipse cx="32.5802" cy="20.0001" rx="8.96271" ry="5.7795" transform="rotate(102.483 32.5802 20.0001)" fill="#D63D4A"/>
</g>
</svg>
