<svg width="40" height="40" viewBox="0 0 40 40" fill="none" xmlns="http://www.w3.org/2000/svg">
<path d="M33.3334 14.8248C33.3334 17.7695 32.1635 21.1623 30.6754 23.8265L9.44329 23.8447C7.92163 21.1886 6.66675 17.7836 6.66675 14.8227V14.742V14.739C6.66675 12.1666 6.66675 6.98256 11.7139 4.50502C13.536 3.6109 15.1288 3.732 16.5161 4.03878C16.9172 4.12759 17.348 4.24465 17.7472 4.34961C17.9844 4.41554 18.2018 4.47272 18.3994 4.52116C18.9843 4.6685 19.5001 4.76336 20.0001 4.76336C20.5381 4.74998 21.0725 4.66863 21.5909 4.52116C21.7859 4.47003 22 4.41217 22.2332 4.34759C22.6457 4.23012 23.0608 4.12244 23.4782 4.02465C24.8773 3.71383 26.482 3.59475 28.3416 4.503C33.3334 6.95326 33.3334 12.1706 33.3334 14.7339V14.8248Z" fill="#FA967C"/>
<path d="M24.2556 30.7156L16.1593 35.4796L15.9665 34.1165L24.4436 29.1286C24.4476 29.2726 24.4395 29.4169 24.4195 29.5573L24.2556 30.7156ZM16.503 36.9524L23.9977 32.5421L23.7706 34.1527L17.4797 37.8546C17.2883 37.8181 17.1033 37.7195 16.9356 37.5646C16.7679 37.4096 16.6208 37.2015 16.503 36.9524ZM20.2997 37.8703H22.0949C22.422 37.8705 22.7395 37.6894 22.9955 37.3567C23.2515 37.024 23.4309 36.5592 23.5045 36.0383L23.5127 35.98L20.2997 37.8703Z" fill="#D63D4A"/>
<path d="M15.5557 31.2067L19.2907 29.0082L21.8466 28.9814L15.7485 32.5699L15.5557 31.2067Z" fill="#D63D4A"/>
<rect x="12.5925" y="24.5371" width="14.8148" height="4.44444" rx="0.407407" fill="#D63D4A"/>
</svg>
