<svg width="32" height="32" viewBox="0 0 32 32" fill="none" xmlns="http://www.w3.org/2000/svg">
<path d="M12.5014 14.5887C12.6538 14.0199 13.2386 13.6827 13.8074 13.8348L22.8217 16.2502C23.3907 16.4026 23.7281 16.9871 23.5756 17.5562C23.423 18.125 22.8386 18.4625 22.2696 18.3101L13.2553 15.8947C12.6867 15.742 12.3491 15.1575 12.5014 14.5887Z" fill="#33363D"/>
<path fill-rule="evenodd" clip-rule="evenodd" d="M14.5535 5.53792C15.0898 5.37303 15.6611 5.35892 16.2045 5.50407L24.8829 7.82959L25.0847 7.89209C25.547 8.05247 25.9618 8.32479 26.2957 8.68376L26.4337 8.84261C26.7407 9.22171 26.9547 9.66969 27.0639 10.1473L28.797 17.7332L28.8373 17.9364C28.9156 18.4123 28.8897 18.9024 28.7644 19.37L27.4871 24.1395C27.3602 24.6125 27.1327 25.0605 26.8152 25.4403L25.0821 27.5171C24.7519 27.9129 24.334 28.2278 23.8608 28.4272L23.6537 28.5054C23.5137 28.5528 23.3702 28.5884 23.228 28.6147L23.2293 28.616C23.2084 28.62 23.1889 28.6233 23.1759 28.6252C23.1725 28.6256 23.1684 28.6261 23.1655 28.6265L22.922 28.6551L22.9207 28.6538C22.5909 28.6809 22.2491 28.6569 21.9116 28.5666L21.0444 28.3348C20.2245 28.1147 19.5487 27.5543 19.155 26.8075C18.9339 26.3871 18.814 25.9253 18.7879 25.4572L12.7032 23.8257C12.7645 23.9601 12.7995 24.1097 12.7996 24.2671V28.0002C12.7993 28.5888 12.3218 29.0663 11.7332 29.0666H4.53265C3.94424 29.066 3.46656 28.5886 3.46624 28.0002V24.2671C3.46635 23.6784 3.94411 23.2013 4.53265 23.2007H6.40635C6.30335 22.9634 6.22708 22.7134 6.18239 22.4559L6.18109 22.4546L5.95062 21.1226C5.94567 21.0938 5.94406 21.0641 5.9415 21.0353L5.72536 19.7879C5.64174 19.3042 5.66543 18.8039 5.79307 18.327L7.07171 13.5575C7.21487 13.0233 7.48632 12.5285 7.86208 12.1239L13.1563 6.42074C13.5375 6.01031 14.0185 5.70261 14.5535 5.53792ZM5.59906 26.9338H10.6655V25.3335H5.59906V26.9338ZM15.6524 7.56396C15.5045 7.52466 15.3416 7.52722 15.1798 7.57699C15.0164 7.62744 14.8545 7.72637 14.7188 7.87256L9.42458 13.5757C9.28965 13.7211 9.18628 13.9056 9.13161 14.1095L7.85427 18.8791L7.82562 19.0158C7.80453 19.1526 7.80658 19.2919 7.82953 19.4246L8.05999 20.7606C8.06471 20.7882 8.06659 20.8163 8.06911 20.8439L8.28395 22.0913C8.32023 22.3002 8.40956 22.4825 8.53005 22.62C8.64876 22.755 8.79638 22.8437 8.95192 22.8856L9.81651 23.1173C9.86996 23.1317 9.93171 23.1422 10.0001 23.1447L10.004 23.1434C10.0261 23.1442 10.0641 23.143 10.1303 23.1356C10.1512 23.1332 10.1701 23.1327 10.1824 23.1317L10.1811 23.1304C10.2689 23.1154 10.3583 23.0883 10.4441 23.0457L10.534 22.9963C10.7708 22.8467 10.9639 22.591 11.0483 22.2775L11.0808 22.1733C11.2733 21.669 11.8216 21.3825 12.3543 21.5249L20.2019 23.6278C20.7708 23.7803 21.1081 24.3649 20.9558 24.9338C20.872 25.247 20.911 25.5652 21.0418 25.814C21.1709 26.0588 21.3762 26.2155 21.5965 26.2749L22.4636 26.5067L22.5978 26.5288C22.6448 26.5327 22.6954 26.5331 22.7475 26.5288L22.7501 26.5275C22.7827 26.5249 22.8061 26.5222 22.8217 26.5197C22.8296 26.5183 22.8374 26.5168 22.8438 26.5158C22.8853 26.5079 22.9277 26.4992 22.9675 26.4858L23.0952 26.4325C23.221 26.3687 23.3415 26.274 23.4441 26.1512L25.1785 24.0731C25.2625 23.9725 25.3325 23.852 25.3829 23.7215L25.4272 23.5887L26.7045 18.8179L26.7371 18.6642C26.7517 18.5611 26.7525 18.4574 26.7423 18.3569L26.7188 18.2098L24.9845 10.6226C24.9511 10.4769 24.8916 10.347 24.8152 10.2384L24.7332 10.1369C24.6464 10.0437 24.5457 9.97424 24.4389 9.92855L24.3308 9.88949L15.6524 7.56396Z" fill="#33363D"/>
<path d="M2.20973 8.95459L5.54307 9.62126L5.64854 9.6473C6.16528 9.80633 6.48732 10.3349 6.379 10.8765C6.26324 11.4538 5.70128 11.8279 5.1238 11.7124L1.79046 11.0457L1.68499 11.0197C1.16833 10.8606 0.846234 10.3321 0.954525 9.79053C1.06306 9.24918 1.56361 8.88564 2.10166 8.93766L2.20973 8.95459Z" fill="#33363D"/>
<path d="M3.16677 4.00016C3.51178 3.5689 4.12409 3.47634 4.57822 3.76969L4.66677 3.8335L8.0001 6.50016L8.08213 6.57308C8.46768 6.95177 8.51167 7.56904 8.16677 8.00016C7.82172 8.4314 7.20943 8.52405 6.75531 8.23063L6.66677 8.16683L3.33343 5.50016L3.2514 5.42725C2.86593 5.04857 2.82194 4.43126 3.16677 4.00016Z" fill="#33363D"/>
<path d="M10.6668 0.26709C11.2559 0.26709 11.7332 0.744392 11.7332 1.3335V5.3335C11.7332 5.9226 11.2559 6.3999 10.6668 6.3999C10.0777 6.39983 9.60036 5.92255 9.60036 5.3335V1.3335C9.60036 0.744437 10.0777 0.267162 10.6668 0.26709Z" fill="#33363D"/>
</svg>
