<svg width="25" height="25" viewBox="0 0 25 25" fill="none" xmlns="http://www.w3.org/2000/svg">
<g clip-path="url(#clip0_14095_219962)">
<g clip-path="url(#clip1_14095_219962)">
<path d="M9.46797 9.46667C11.5298 9.46667 13.2013 7.7952 13.2013 5.73333C13.2013 3.67147 11.5298 2 9.46797 2C7.40611 2 5.73464 3.67147 5.73464 5.73333C5.73464 7.7952 7.40611 9.46667 9.46797 9.46667Z" fill="#6D7882"/>
<path d="M14.7975 13.9147L14.2776 12.8907C13.541 11.44 12.0463 10.5333 10.4 10.5333H9.7068C7.35643 10.5333 5.43931 12.368 5.37432 14.6827V14.7787L4.68113 20.9653C4.54032 22.224 5.54762 23.3333 6.83653 23.3333H18.4151C19.6607 23.3333 20.668 22.3413 20.668 21.1147C20.668 17.5947 18.1551 14.6507 14.7975 13.9147Z" fill="#6D7882"/>
</g>
</g>
<defs>
<clipPath id="clip0_14095_219962">
<rect width="24" height="24" fill="white" transform="translate(0.167969 0.666748)"/>
</clipPath>
<clipPath id="clip1_14095_219962">
<rect width="24" height="24" fill="white" transform="translate(0.167969 0.666748)"/>
</clipPath>
</defs>
</svg>
