<svg width="25" height="25" viewBox="0 0 25 25" fill="none" xmlns="http://www.w3.org/2000/svg">
<g style="mix-blend-mode:multiply">
<path fill-rule="evenodd" clip-rule="evenodd" d="M12.1458 3.66663C17.3802 3.66663 21.6236 5.7883 21.6236 8.40553C21.6236 9.61908 20.7103 10.7244 19.2099 11.5627C19.4095 11.8971 19.5174 12.251 19.5174 12.6179C19.5174 13.4483 18.9675 14.2137 18.0406 14.83C18.3134 15.1242 18.4643 15.4428 18.4643 15.7772C18.4643 16.3322 18.0513 16.8458 17.3475 17.2704C17.0436 18.4304 15.5919 20.366 11.9031 20.8133C8.86994 21.1809 7.52755 22.4473 6.73841 23.3791C6.66911 23.4604 6.53673 23.3993 6.55432 23.2938C6.93246 21.0253 7.44819 21.0041 8.9865 19.7921C9.9089 19.0651 9.05998 18.1735 8.61833 17.9615C8.57058 17.9481 8.52425 17.9312 8.47744 17.9173C8.47129 17.9166 8.46555 17.9152 8.45996 17.9152C8.45784 17.9137 8.45591 17.9116 8.45379 17.9101C6.86343 17.432 5.82724 16.6567 5.82724 15.7772C5.82724 15.443 5.97741 15.1241 6.24991 14.83C5.32349 14.2138 4.77415 13.4481 4.77415 12.6179C4.77415 12.2512 4.88122 11.897 5.08061 11.5627C3.58067 10.7244 2.66797 9.61887 2.66797 8.40553C2.66797 5.7883 6.91132 3.66663 12.1458 3.66663ZM16.2234 14.0885C16.189 14.0844 14.5407 13.8946 13.5084 14.7981C12.4711 15.7062 12.4463 17.3772 12.4461 17.3959C12.4703 17.3988 14.1254 17.5933 15.1611 16.6873C16.2037 15.7747 16.2234 14.0906 16.2234 14.0885ZM12.1458 5.7728C8.07462 5.77284 4.77415 6.95154 4.77415 8.40553C4.77415 9.85952 8.07462 11.0382 12.1458 11.0382C16.2169 11.0382 19.5174 9.85952 19.5174 8.40553C19.5174 6.95153 16.2169 5.77284 12.1458 5.7728Z" fill="#6D7882"/>
</g>
</svg>
