<svg width="25" height="25" viewBox="0 0 25 25" fill="none" xmlns="http://www.w3.org/2000/svg">
<path d="M19.168 3.66675C20.2725 3.66675 21.168 4.56218 21.168 5.66675V19.6667C21.168 20.7713 20.2725 21.6667 19.168 21.6667H5.16797C4.0634 21.6667 3.16797 20.7713 3.16797 19.6667V5.66675C3.16797 4.56218 4.0634 3.66675 5.16797 3.66675H19.168ZM12.168 8.66675C9.40654 8.66675 7.16797 10.9053 7.16797 13.6667C7.16797 16.4282 9.40654 18.6667 12.168 18.6667C14.9294 18.6667 17.168 16.4282 17.168 13.6667C17.168 10.9053 14.9294 8.66675 12.168 8.66675ZM13.9678 10.5486C15.0438 11.171 15.7676 12.3342 15.7676 13.6667C15.7676 15.655 14.1562 17.2664 12.168 17.2664C11.512 17.2664 10.8968 17.0914 10.3672 16.7849L13.9678 10.5486ZM5.66797 5.16675C5.11568 5.16675 4.66797 5.61446 4.66797 6.16675C4.66797 6.71903 5.11568 7.16675 5.66797 7.16675C6.22025 7.16675 6.66797 6.71903 6.66797 6.16675C6.66797 5.61446 6.22025 5.16675 5.66797 5.16675ZM8.66797 5.16675C8.11568 5.16675 7.66797 5.61446 7.66797 6.16675C7.66797 6.71903 8.11568 7.16675 8.66797 7.16675C9.22025 7.16675 9.66797 6.71903 9.66797 6.16675C9.66797 5.61446 9.22025 5.16675 8.66797 5.16675Z" fill="#6D7882"/>
</svg>
