<svg width="32" height="32" viewBox="0 0 32 32" fill="none" xmlns="http://www.w3.org/2000/svg">
<g clip-path="url(#clip0_19610_196302)">
<rect x="4" y="9.33203" width="24" height="16" rx="2.31882" fill="#C8A1EF"/>
<rect x="11.2002" y="12.5332" width="9.6" height="9.6" rx="4.8" fill="#9548E5"/>
<path d="M16 14.5312C16.3866 14.5312 16.7001 14.8449 16.7002 15.2314V16.6309H18.1006C18.4871 16.6309 18.8007 16.9446 18.8008 17.3311C18.8008 17.7177 18.4872 18.0312 18.1006 18.0312H16.7002V19.4316C16.7001 19.8182 16.3866 20.1318 16 20.1318C15.6137 20.1316 15.3008 19.818 15.3008 19.4316V18.0312H13.9004C13.5139 18.0311 13.2002 17.7176 13.2002 17.3311C13.2003 16.9446 13.514 16.631 13.9004 16.6309H15.3008V15.2314C15.3008 14.845 15.6137 14.5315 16 14.5312Z" fill="white"/>
<path d="M21.2002 5.33203C21.8629 5.33203 22.4004 5.86951 22.4004 6.53223V9.33203H20V7.56738C19.9998 7.21672 19.7159 6.9327 19.3652 6.93262H12.6357C12.285 6.93262 12.0002 7.21667 12 7.56738V9.33203H9.60059V6.53223C9.60061 5.86964 10.1373 5.33224 10.7998 5.33203H21.2002Z" fill="#9548E5"/>
<path d="M6.66699 25.334H9.33366V25.8203C9.33366 26.2881 8.95442 26.6673 8.4866 26.6673H7.51405C7.04623 26.6673 6.66699 26.2881 6.66699 25.8203V25.334Z" fill="#9548E5"/>
<path d="M22.667 25.334H25.3337V25.8203C25.3337 26.2881 24.9544 26.6673 24.4866 26.6673H23.514C23.0462 26.6673 22.667 26.2881 22.667 25.8203V25.334Z" fill="#9548E5"/>
</g>
<defs>
<clipPath id="clip0_19610_196302">
<rect width="32" height="32" fill="white"/>
</clipPath>
</defs>
</svg>
