<svg width="32" height="32" viewBox="0 0 32 32" fill="none" xmlns="http://www.w3.org/2000/svg">
<path d="M16.8841 2.8375L25.6989 6.35992C26.1791 6.55172 26.5928 6.89513 26.8849 7.34426C27.177 7.79339 27.3335 8.32682 27.3334 8.87325V16.0697C27.3335 18.3126 26.7474 20.5111 25.6409 22.419C24.5344 24.3269 22.9511 25.8688 21.0686 26.8718L16.845 29.1208C16.5827 29.2606 16.2934 29.3334 16.0001 29.3334C15.7068 29.3334 15.4175 29.2606 15.1551 29.1208L10.9316 26.8705C9.04902 25.8674 7.46579 24.3256 6.35928 22.4177C5.25277 20.5098 4.6667 18.3112 4.66675 16.0684V8.87459C4.66643 8.32793 4.82278 7.7942 5.11488 7.34481C5.40698 6.89542 5.8209 6.5518 6.30127 6.35992L15.1161 2.8375C15.6861 2.60983 16.3141 2.60983 16.8841 2.8375Z" fill="#8C97C8"/>
<g style="mix-blend-mode:multiply">
<path fill-rule="evenodd" clip-rule="evenodd" d="M16.0952 20.0229C16.4394 20.0229 16.6255 20.2049 16.9535 20.5648L16.9715 20.5845C17.2669 20.9085 17.7123 21.3974 18.5182 21.3265C18.9988 21.2837 19.4577 20.9743 19.8416 20.6084C20.2418 20.2272 20.633 19.7177 20.9754 19.1501C21.6557 18.0217 22.1905 16.5848 22.1905 15.3376V15.2991C22.1905 14.2135 22.1905 12.0038 19.9085 10.966C19.0584 10.5813 18.3248 10.6318 17.6852 10.7634C17.4944 10.8048 17.3046 10.8504 17.1161 10.9002C17.0095 10.9276 16.9116 10.9521 16.8225 10.9737C16.5855 11.0362 16.3412 11.0706 16.0952 11.0763C15.8667 11.0763 15.6309 11.0361 15.3635 10.9737C15.2731 10.9532 15.1738 10.929 15.0654 10.9011C14.8829 10.8566 14.6859 10.807 14.5025 10.7694C13.8684 10.6395 13.1402 10.5882 12.3073 10.9669C9.9991 12.0166 10 14.2135 10 15.3025V15.3367C10 16.5908 10.5737 18.0328 11.2693 19.1578C11.6198 19.7254 12.0137 20.2332 12.4049 20.611C12.6 20.7999 12.8023 20.964 13.0056 21.0871C13.2053 21.2077 13.432 21.3051 13.6714 21.3265C14.4772 21.3974 14.9235 20.9076 15.2189 20.5845L15.237 20.5648C15.5649 20.2058 15.751 20.0229 16.0952 20.0229Z" fill="#5B658C"/>
</g>
<path d="M17.2341 12.7085C17.5247 12.6 17.8614 12.7073 18.0322 12.9806C18.227 13.2927 18.132 13.7035 17.82 13.8986L17.5856 14.0353C17.0358 14.3358 16.4611 14.5001 15.8669 14.5001C15.2723 14.5001 14.6969 14.3361 14.1468 14.0353L13.9137 13.8986L13.807 13.8165C13.582 13.6029 13.5308 13.254 13.7015 12.9806C13.8722 12.7075 14.2079 12.6004 14.4984 12.7085L14.6195 12.7684L14.7861 12.866C15.1694 13.0757 15.528 13.1668 15.8669 13.1668C16.2542 13.1668 16.6666 13.0473 17.113 12.7684L17.2341 12.7085Z" fill="#E5ECF9"/>
<path d="M6.83899 7.64768L12.1913 5.41962C12.4038 5.33116 12.5954 5.67492 12.4154 5.81835C9.64588 8.02504 7.65216 10.7949 6.43421 15.0934C6.37199 15.313 6.00364 15.2692 6.00415 15.0409L6.01808 8.8756C6.01929 8.33827 6.34293 7.85418 6.83899 7.64768Z" fill="white"/>
</svg>
