<svg width="24" height="24" viewBox="0 0 24 24" fill="none" xmlns="http://www.w3.org/2000/svg">
<g clip-path="url(#clip0_100_3722)">
<path d="M13.0293 12.7002C12.9761 13.7336 12.8102 14.6388 12.5771 15.3047C12.4338 15.7141 12.2785 15.9957 12.1416 16.1611C12.0724 16.2447 12.0244 16.279 12 16.293C11.9756 16.279 11.9276 16.2447 11.8584 16.1611C11.7215 15.9957 11.5662 15.7141 11.4229 15.3047C11.1898 14.6388 11.0239 13.7336 10.9707 12.7002H13.0293Z" fill="#6D7882"/>
<path d="M9.56836 12.7002C9.62286 13.867 9.81008 14.9337 10.1016 15.7666C10.115 15.8049 10.1305 15.8422 10.1445 15.8799C8.90029 15.2838 7.9882 14.1068 7.75781 12.7002H9.56836Z" fill="#6D7882"/>
<path d="M16.2422 12.7002C16.0117 14.1071 15.0991 15.2839 13.8545 15.8799C13.8685 15.8421 13.885 15.805 13.8984 15.7666C14.1899 14.9337 14.3771 13.867 14.4316 12.7002H16.2422Z" fill="#6D7882"/>
<path d="M10.1016 8.2334C9.81008 9.06631 9.62286 10.133 9.56836 11.2998H7.75781C7.98823 9.89303 8.90009 8.71515 10.1445 8.11914C10.1304 8.15713 10.1151 8.19484 10.1016 8.2334Z" fill="#6D7882"/>
<path d="M12 7.70605C12.0243 7.71981 12.072 7.75478 12.1416 7.83887C12.2785 8.0043 12.4338 8.2859 12.5771 8.69531C12.8102 9.36125 12.9761 10.2664 13.0293 11.2998H10.9707C11.0239 10.2664 11.1898 9.36125 11.4229 8.69531C11.5662 8.2859 11.7215 8.0043 11.8584 7.83887C11.928 7.75478 11.9757 7.71981 12 7.70605Z" fill="#6D7882"/>
<path d="M13.8545 8.11914C15.0993 8.71503 16.0117 9.89273 16.2422 11.2998H14.4316C14.3771 10.133 14.1899 9.06631 13.8984 8.2334C13.8849 8.19473 13.8686 8.15724 13.8545 8.11914Z" fill="#6D7882"/>
<path fill-rule="evenodd" clip-rule="evenodd" d="M17 1C19.2091 1 21 2.79086 21 5V19C21 21.2091 19.2091 23 17 23H5C3.89543 23 3 22.1046 3 21V3C3 1.89543 3.89543 1 5 1H17ZM12 6.2998C8.85198 6.2998 6.2998 8.85198 6.2998 12C6.2998 15.148 8.85198 17.7002 12 17.7002C15.148 17.7002 17.7002 15.148 17.7002 12C17.7002 8.85198 15.148 6.2998 12 6.2998Z" fill="#6D7882"/>
</g>
<defs>
<clipPath id="clip0_100_3722">
<rect width="24" height="24" fill="white"/>
</clipPath>
</defs>
</svg>
