<svg width="32" height="32" viewBox="0 0 32 32" fill="none" xmlns="http://www.w3.org/2000/svg">
<g clip-path="url(#clip0_100_3377)">
<rect x="4.16675" y="9.49927" width="24" height="16" rx="2.31882" fill="#FA967C"/>
<rect x="4.16675" y="9.49927" width="24" height="16" rx="2.31882" fill="#8C97C8"/>
<g style="mix-blend-mode:multiply">
<rect x="11.3667" y="12.7002" width="9.6" height="9.6" rx="4.8" fill="#D63D4A"/>
<rect x="11.3667" y="12.7002" width="9.6" height="9.6" rx="4.8" fill="#5B658C"/>
</g>
<path d="M16.1663 14.6992C16.5528 14.6992 16.8664 15.0129 16.8665 15.3994V16.7988H18.2668C18.6534 16.7988 18.9669 17.1125 18.967 17.499C18.967 17.8856 18.6534 18.1992 18.2668 18.1992H16.8665V19.5996C16.8664 19.9862 16.5528 20.2998 16.1663 20.2998C15.7799 20.2995 15.4671 19.986 15.467 19.5996V18.1992H14.0667C13.6801 18.1991 13.3665 17.8856 13.3665 17.499C13.3666 17.1126 13.6802 16.7989 14.0667 16.7988H15.467V15.3994C15.4671 15.013 15.7799 14.6995 16.1663 14.6992Z" fill="white"/>
<g style="mix-blend-mode:multiply">
<path d="M21.3667 5.49951C22.0294 5.49951 22.5669 6.03699 22.5669 6.69971V9.49951H20.1665V7.73486C20.1663 7.3842 19.8824 7.10018 19.5317 7.1001H12.8022C12.4515 7.1001 12.1667 7.38415 12.1665 7.73486V9.49951H9.76709V6.69971C9.76712 6.03712 10.3038 5.49972 10.9663 5.49951H21.3667Z" fill="#D63D4A"/>
<path d="M21.3667 5.49951C22.0294 5.49951 22.5669 6.03699 22.5669 6.69971V9.49951H20.1665V7.73486C20.1663 7.3842 19.8824 7.10018 19.5317 7.1001H12.8022C12.4515 7.1001 12.1667 7.38415 12.1665 7.73486V9.49951H9.76709V6.69971C9.76712 6.03712 10.3038 5.49972 10.9663 5.49951H21.3667Z" fill="#5B658C"/>
</g>
<path d="M6.8335 25.5005H9.50016V25.9868C9.50016 26.4546 9.12092 26.8338 8.6531 26.8338H7.68056C7.21274 26.8338 6.8335 26.4546 6.8335 25.9868V25.5005Z" fill="#5B658C"/>
<path d="M22.8333 25.5005H25.4999V25.9868C25.4999 26.4546 25.1207 26.8338 24.6529 26.8338H23.6803C23.2125 26.8338 22.8333 26.4546 22.8333 25.9868V25.5005Z" fill="#5B658C"/>
</g>
<defs>
<clipPath id="clip0_100_3377">
<rect width="32" height="32" fill="white"/>
</clipPath>
</defs>
</svg>
