<svg width="32" height="32" viewBox="0 0 32 32" fill="none" xmlns="http://www.w3.org/2000/svg">
<path fill-rule="evenodd" clip-rule="evenodd" d="M16 19.7342C17.8408 19.7344 19.3333 21.2267 19.3333 23.0675C19.3328 24.908 17.8405 26.4007 16 26.4009C14.1595 26.4007 12.6672 24.908 12.6667 23.0675C12.6667 21.2267 14.1592 19.7343 16 19.7342ZM16 21.867C15.3374 21.8672 14.7995 22.4049 14.7995 23.0675C14.8 23.7298 15.3377 24.2666 16 24.2668C16.6623 24.2666 17.1987 23.7298 17.1992 23.0675C17.1992 22.4049 16.6626 21.8672 16 21.867Z" fill="#33363D"/>
<path fill-rule="evenodd" clip-rule="evenodd" d="M16 12.6665C17.8407 12.6666 19.3332 14.1591 19.3333 15.9998C19.3332 17.8406 17.8407 19.333 16 19.3332C14.1593 19.333 12.6668 17.8406 12.6667 15.9998C12.6668 14.1591 14.1593 12.6666 16 12.6665ZM16 14.7993C15.3375 14.7994 14.7997 15.3373 14.7995 15.9998C14.7996 16.6624 15.3375 17.1989 16 17.1991C16.6625 17.1989 17.1991 16.6624 17.1992 15.9998C17.199 15.3373 16.6625 14.7995 16 14.7993Z" fill="#33363D"/>
<path fill-rule="evenodd" clip-rule="evenodd" d="M16 5.6001C17.8408 5.60024 19.3333 7.09257 19.3333 8.93343C19.3332 10.7742 17.8407 12.2666 16 12.2668C14.1593 12.2666 12.6668 10.7742 12.6667 8.93343C12.6667 7.09256 14.1592 5.60023 16 5.6001ZM16 7.73291C15.3374 7.73304 14.7995 8.27077 14.7995 8.93343C14.7996 9.59597 15.3375 10.1325 16 10.1326C16.6625 10.1325 17.1991 9.59597 17.1992 8.93343C17.1992 8.27078 16.6626 7.73305 16 7.73291Z" fill="#33363D"/>
<path fill-rule="evenodd" clip-rule="evenodd" d="M21.6016 2.6665C22.9267 2.66679 24.0011 3.74108 24.0013 5.06624V26.9334C24.001 28.2585 22.9266 29.3329 21.6016 29.3332H10.401C9.07575 29.3332 8.00162 28.2586 8.0013 26.9334V5.06624C8.00148 3.74091 9.07567 2.6665 10.401 2.6665H21.6016ZM10.401 4.79932C10.2539 4.79932 10.1343 4.91912 10.1341 5.06624V26.9334C10.1344 27.0804 10.254 27.1991 10.401 27.1991H21.6016C21.7484 27.1988 21.8669 27.0803 21.8672 26.9334V5.06624C21.867 4.91929 21.7485 4.7996 21.6016 4.79932H10.401Z" fill="#33363D"/>
<path d="M4.58073 12.578C4.99805 12.1623 5.6728 12.1634 6.08854 12.5806C6.47829 12.9719 6.50144 13.5894 6.15885 14.0077L5.86719 14.3306C5.37979 14.9278 5.06641 15.7452 5.06641 16.6665C5.06641 17.5878 5.37979 18.4052 5.86719 19.0024L6.15885 19.3254C6.50143 19.7436 6.4783 20.3611 6.08854 20.7524C5.69883 21.1435 5.08102 21.17 4.66146 20.8293L4.58073 20.755L4.39323 20.5584C3.48058 19.5504 2.9336 18.1683 2.93359 16.6665C2.93359 15.0645 3.55601 13.5987 4.58073 12.578Z" fill="#33363D"/>
<path d="M25.9115 12.5806C26.3272 12.1634 27.0019 12.1623 27.4193 12.578C28.444 13.5987 29.0664 15.0645 29.0664 16.6665C29.0664 18.1683 28.5194 19.5504 27.6068 20.5584L27.4193 20.755L27.3385 20.8293C26.919 21.17 26.3012 21.1435 25.9115 20.7524C25.5217 20.3611 25.4986 19.7436 25.8411 19.3254L26.1328 19.0024C26.6202 18.4052 26.9336 17.5878 26.9336 16.6665C26.9336 15.7452 26.6202 14.9278 26.1328 14.3306L25.8411 14.0077C25.4986 13.5894 25.5217 12.9719 25.9115 12.5806Z" fill="#33363D"/>
</svg>
