<svg width="25" height="25" viewBox="0 0 25 25" fill="none" xmlns="http://www.w3.org/2000/svg">
<path fill-rule="evenodd" clip-rule="evenodd" d="M15.7656 1.66663C16.5387 1.66663 17.1658 2.29305 17.166 3.06604V5.66663H19.9609C21.4549 5.66674 22.6659 6.87778 22.666 8.3717V17.9615C22.6659 19.4555 21.4549 20.6665 19.9609 20.6666H19.666V21.6783C19.666 22.2241 19.2235 22.6666 18.6777 22.6666H17.6543C17.1085 22.6666 16.666 22.2241 16.666 21.6783V20.6666H7.66602V21.6783C7.66602 22.2241 7.22352 22.6666 6.67773 22.6666H5.6543C5.10851 22.6666 4.66602 22.2241 4.66602 21.6783V20.6666H4.37109C2.87717 20.6665 1.66613 19.4555 1.66602 17.9615V8.3717C1.66613 6.87778 2.87717 5.66674 4.37109 5.66663H7.16602V3.06604C7.16627 2.29305 7.79336 1.66663 8.56641 1.66663H15.7656ZM12.166 9.16663C11.7242 9.16663 11.3662 9.5246 11.3662 9.96643V12.1666H9.16602C8.72419 12.1666 8.36621 12.5246 8.36621 12.9664C8.36621 13.4083 8.72419 13.7662 9.16602 13.7662H11.3662V15.9664L11.3701 16.0485C11.4113 16.4517 11.7519 16.7662 12.166 16.7662C12.58 16.7661 12.9208 16.4516 12.9619 16.0485L12.9658 15.9664V13.7662H15.166L15.248 13.7623C15.6512 13.7211 15.9658 13.3804 15.9658 12.9664C15.9658 12.5524 15.6512 12.2118 15.248 12.1705L15.166 12.1666H12.9658V9.96643C12.9658 9.52466 12.6078 9.16672 12.166 9.16663ZM9.66602 3.66663C9.38987 3.66663 9.16602 3.89048 9.16602 4.16663V5.66663H15.166V4.16663C15.166 3.89048 14.9422 3.66663 14.666 3.66663H9.66602Z" fill="#6D7882"/>
</svg>
