<svg width="32" height="33" viewBox="0 0 32 33" fill="none" xmlns="http://www.w3.org/2000/svg">
<g style="mix-blend-mode:multiply">
<g clip-path="url(#clip0_10831_292229)">
<path d="M14.2761 7.90616C13.7608 7.39491 13.5 6.76375 13.5 6.00004C13.5 5.23949 13.7608 4.60201 14.2761 4.09393C14.7883 3.58584 15.375 3.33337 16.1263 3.33337C16.8776 3.33337 17.514 3.58584 18.0417 4.09393C18.5695 4.60201 18.8333 5.23633 18.8333 6.00004C18.8333 6.76375 18.5695 7.39491 18.0417 7.90616C17.514 8.41424 16.8496 8.66671 16.1263 8.66671C15.403 8.66671 14.7883 8.41424 14.2761 7.90616Z" fill="white"/>
<path d="M16.168 21.9997C17.6406 21.9997 18.8345 23.1938 18.8346 24.6664V27.333H13.5013V24.6664C13.5015 23.1938 14.6953 21.9997 16.168 21.9997Z" fill="#8C97C8"/>
<path d="M18.8346 9.99969C21.78 9.99969 24.1678 12.3877 24.168 15.333V21.9997C24.168 24.4848 22.4682 26.573 20.168 27.1651V24.6664C20.1678 22.4574 18.377 20.6664 16.168 20.6664C13.9589 20.6664 12.1681 22.4574 12.168 24.6664V27.1651C9.8677 26.573 8.16797 24.4848 8.16797 21.9997V15.333C8.16814 12.3877 10.5559 9.99969 13.5013 9.99969H18.8346Z" fill="#8C97C8"/>
<path d="M13.5 24.6667C13.5 23.194 14.6939 22.0001 16.1667 22.0001C17.6394 22.0001 18.8333 23.194 18.8333 24.6667V28.6667C18.8333 30.1395 17.6394 31.3334 16.1667 31.3334C14.6939 31.3334 13.5 30.1395 13.5 28.6667V24.6667Z" fill="#D9D9D9"/>
<path d="M13.5 24.6667C13.5 23.194 14.6939 22.0001 16.1667 22.0001C17.6394 22.0001 18.8333 23.194 18.8333 24.6667V28.6667C18.8333 30.1395 17.6394 31.3334 16.1667 31.3334C14.6939 31.3334 13.5 30.1395 13.5 28.6667V24.6667Z" fill="#5B658C"/>
<ellipse cx="12.1654" cy="15.3334" rx="1.33333" ry="1.33333" fill="white"/>
<ellipse cx="20.1654" cy="15.3334" rx="1.33333" ry="1.33333" fill="white"/>
<path d="M18.0326 7.33339C18.0326 6.84657 17.8924 6.46162 17.6133 6.13808L17.4857 6.00397C17.1114 5.6436 16.6755 5.46621 16.125 5.46621C15.5888 5.46621 15.2035 5.63298 14.8385 5.99485L14.8359 5.99746C14.4809 6.34775 14.2982 6.77654 14.2982 7.33339C14.2982 7.89168 14.4801 8.31635 14.8385 8.67194L14.9766 8.79694C15.3048 9.06983 15.676 9.20058 16.125 9.20058C16.5861 9.20058 16.998 9.06298 17.3424 8.78912L17.4857 8.66282C17.8512 8.30782 18.0326 7.887 18.0326 7.33339ZM19.6315 7.33339C19.6315 8.30598 19.286 9.14686 18.5977 9.81386L18.5951 9.81647C17.9109 10.4749 17.0445 10.7995 16.125 10.7995C15.3083 10.7995 14.5805 10.5435 13.9674 10.0391L13.7109 9.80735C13.0389 9.1405 12.6992 8.3024 12.6992 7.33339C12.6992 6.37038 13.037 5.52492 13.7109 4.85944L13.9648 4.62897C14.5706 4.12601 15.2797 3.86725 16.125 3.86725C17.0768 3.86725 17.914 4.19479 18.5951 4.85032L18.8385 5.10944C19.3676 5.73037 19.6315 6.4837 19.6315 7.33339Z" fill="#5B658C"/>
<path d="M25.5 6.00006L25.6367 6.00657C26.3089 6.07501 26.8333 6.64316 26.8333 7.33339C26.8333 8.02363 26.3089 8.59178 25.6367 8.66022L25.5 8.66673H6.83333C6.09695 8.66673 5.5 8.06977 5.5 7.33339C5.5 6.59701 6.09695 6.00006 6.83333 6.00006H25.5Z" fill="#5B658C"/>
<circle cx="16.168" cy="7.33337" r="2" fill="white"/>
</g>
</g>
<defs>
<clipPath id="clip0_10831_292229">
<rect width="21.3333" height="28" fill="white" transform="translate(5.5 3.33337)"/>
</clipPath>
</defs>
</svg>
