<svg width="32" height="33" viewBox="0 0 32 33" fill="none" xmlns="http://www.w3.org/2000/svg">
<path d="M12.8359 12.6669C15.4133 12.6669 17.5026 10.5776 17.5026 8.00022C17.5026 5.42289 15.4133 3.33356 12.8359 3.33356C10.2586 3.33356 8.16927 5.42289 8.16927 8.00022C8.16927 10.5776 10.2586 12.6669 12.8359 12.6669Z" fill="#8C97C8"/>
<path d="M19.4978 18.2269L18.8479 16.9469C17.9273 15.1336 16.0589 14.0002 14.001 14.0002H13.1345C10.1965 14.0002 7.80012 16.2936 7.71888 19.1869V19.3069L6.85239 27.0402C6.67638 28.6136 7.9355 30.0002 9.54664 30.0002H24.0198C25.5768 30.0002 26.8359 28.7602 26.8359 27.2269C26.8359 22.8269 23.6949 19.1469 19.4978 18.2269Z" fill="#8C97C8"/>
<g style="mix-blend-mode:multiply">
<path d="M25.9646 20.6667C25.5061 20.6735 25.0575 20.7946 24.6642 21.0177C24.271 21.2409 23.9469 21.7426 23.7248 22.1221C23.5027 21.7426 23.1787 21.2409 22.7854 21.0177C22.3921 20.7946 21.9436 20.6735 21.485 20.6667C20.754 20.6968 20.0652 20.9992 19.5692 21.508C19.0732 22.0167 18.8103 22.6904 18.8379 23.3819C18.8379 25.9912 23.2997 29.2702 23.4894 29.3981C23.6319 29.4934 23.8178 29.4934 23.9602 29.3981C24.15 29.271 28.6117 25.9912 28.6117 23.3819C28.6393 22.6904 28.3764 22.0167 27.8804 21.508C27.3844 20.9992 26.6957 20.6968 25.9646 20.6667Z" fill="#5B658C"/>
</g>
</svg>
