<svg width="25" height="25" viewBox="0 0 25 25" fill="none" xmlns="http://www.w3.org/2000/svg">
<path fill-rule="evenodd" clip-rule="evenodd" d="M7.74602 4.66675C7.39349 4.66686 7.04725 4.76015 6.74239 4.93717C6.43753 5.11419 6.18487 5.36864 6.01002 5.67475L2.43002 11.9397C2.25704 12.2421 2.16604 12.5844 2.16602 12.9327V17.4307C2.16604 17.7411 2.23828 18.0472 2.37702 18.3247L3.49502 20.5607C3.66107 20.8931 3.9164 21.1726 4.23239 21.3679C4.54837 21.5633 4.91252 21.6667 5.28402 21.6667H6.16602C6.69645 21.6667 7.20516 21.456 7.58023 21.081C7.9553 20.7059 8.16602 20.1972 8.16602 19.6667H16.166C16.166 20.1972 16.3767 20.7059 16.7518 21.081C17.1269 21.456 17.6356 21.6667 18.166 21.6667H19.048C19.4195 21.6667 19.7837 21.5633 20.0996 21.3679C20.4156 21.1726 20.671 20.8931 20.837 20.5607L21.955 18.3247C22.094 18.0477 22.166 17.7407 22.166 17.4307V12.9327C22.166 12.5844 22.075 12.2421 21.902 11.9397L18.322 5.67475C18.1472 5.36864 17.8945 5.11419 17.5896 4.93717C17.2848 4.76015 16.9385 4.66686 16.586 4.66675H7.74602ZM12.166 12.6667C10.569 12.6667 9.09402 12.3237 7.61302 11.7717C7.37565 11.6532 7.10091 11.6338 6.84923 11.7178C6.59756 11.8018 6.38957 11.9824 6.27102 12.2197C6.15246 12.4571 6.13306 12.7319 6.21708 12.9835C6.30109 13.2352 6.48165 13.4432 6.71902 13.5617C7.21302 13.8067 9.72602 14.6667 12.166 14.6667C14.02 14.6667 15.934 14.3927 17.611 13.5627C17.8472 13.4427 18.0267 13.2346 18.1109 12.9833C18.1951 12.7321 18.1772 12.4579 18.061 12.2197C18.0024 12.1022 17.9211 11.9973 17.8219 11.9112C17.7227 11.825 17.6075 11.7593 17.4829 11.7176C17.3582 11.676 17.2266 11.6594 17.0956 11.6687C16.9645 11.678 16.8365 11.713 16.719 11.7717C15.354 12.4537 13.662 12.6667 12.166 12.6667Z" fill="#6D7882"/>
</svg>
