<svg width="32" height="33" viewBox="0 0 32 33" fill="none" xmlns="http://www.w3.org/2000/svg">
<rect x="4.16669" y="9.99921" width="24" height="16" rx="2.31882" fill="#FA967C"/>
<rect x="4.16669" y="9.99921" width="24" height="16" rx="2.31882" fill="#8C97C8"/>
<g style="mix-blend-mode:multiply">
<rect x="11.3666" y="13.2002" width="9.6" height="9.6" rx="4.8" fill="#D63D4A"/>
<rect x="11.3666" y="13.2002" width="9.6" height="9.6" rx="4.8" fill="#5B658C"/>
</g>
<path d="M16.1662 15.1992C16.5528 15.1992 16.8663 15.5128 16.8664 15.8994V17.2988H18.2668C18.6533 17.2988 18.9669 17.6125 18.967 17.999C18.967 18.3856 18.6534 18.6992 18.2668 18.6992H16.8664V20.0995C16.8663 20.4861 16.5528 20.7997 16.1662 20.7997C15.7798 20.7995 15.467 20.4859 15.467 20.0995V18.6992H14.0666C13.6801 18.699 13.3664 18.3855 13.3664 17.999C13.3665 17.6125 13.6802 17.2989 14.0666 17.2988H15.467V15.8994C15.467 15.513 15.7799 15.1994 16.1662 15.1992Z" fill="white"/>
<g style="mix-blend-mode:multiply">
<path d="M21.3667 5.99945C22.0294 5.99945 22.5669 6.53693 22.5669 7.19965V9.99945H20.1665V8.2348C20.1663 7.88414 19.8824 7.60012 19.5317 7.60004H12.8022C12.4515 7.60004 12.1667 7.88409 12.1665 8.2348V9.99945H9.76709V7.19965C9.76712 6.53706 10.3038 5.99966 10.9663 5.99945H21.3667Z" fill="#D63D4A"/>
<path d="M21.3667 5.99945C22.0294 5.99945 22.5669 6.53693 22.5669 7.19965V9.99945H20.1665V8.2348C20.1663 7.88414 19.8824 7.60012 19.5317 7.60004H12.8022C12.4515 7.60004 12.1667 7.88409 12.1665 8.2348V9.99945H9.76709V7.19965C9.76712 6.53706 10.3038 5.99966 10.9663 5.99945H21.3667Z" fill="#5B658C"/>
</g>
<path d="M6.83337 26.0005H9.50004V26.4868C9.50004 26.9546 9.1208 27.3338 8.65298 27.3338H7.68043C7.21262 27.3338 6.83337 26.9546 6.83337 26.4868V26.0005Z" fill="#5B658C"/>
<path d="M22.8333 26.0005H25.4999V26.4868C25.4999 26.9546 25.1207 27.3338 24.6529 27.3338H23.6803C23.2125 27.3338 22.8333 26.9546 22.8333 26.4868V26.0005Z" fill="#5B658C"/>
</svg>
