<svg width="24" height="24" viewBox="0 0 24 24" fill="none" xmlns="http://www.w3.org/2000/svg">
<g clip-path="url(#clip0_101_331)">
<path fill-rule="evenodd" clip-rule="evenodd" d="M12 22C17.5228 22 22 17.5228 22 12C22 6.47715 17.5228 2 12 2C6.47715 2 2 6.47715 2 12C2 17.5228 6.47715 22 12 22ZM16.2551 9.76433C16.4011 9.3473 16.1813 8.89092 15.7643 8.74496C15.3473 8.599 14.8909 8.81874 14.7449 9.23577L13.75 12.0784L12.7551 9.23577C12.6428 8.9149 12.34 8.70005 12 8.70005C11.6601 8.70005 11.3572 8.9149 11.2449 9.23577L10.25 12.0784L9.2551 9.23577C9.10914 8.81874 8.65275 8.599 8.23573 8.74496C7.81871 8.89092 7.59897 9.3473 7.74493 9.76433L8.24741 11.2H7.5C7.05817 11.2 6.7 11.5582 6.7 12C6.7 12.4418 7.05817 12.8 7.5 12.8H8.80741L9.49493 14.7643C9.60723 15.0852 9.91006 15.3 10.25 15.3C10.59 15.3 10.8928 15.0852 11.0051 14.7643L12 11.9217L12.9949 14.7643C13.1072 15.0852 13.4101 15.3 13.75 15.3C14.09 15.3 14.3928 15.0852 14.5051 14.7643L15.1926 12.8H16.5C16.9418 12.8 17.3 12.4419 17.3 12C17.3 11.5582 16.9418 11.2 16.5 11.2H15.7526L16.2551 9.76433Z" fill="#6D7882"/>
</g>
<defs>
<clipPath id="clip0_101_331">
<rect width="24" height="24" fill="white"/>
</clipPath>
</defs>
</svg>
