<svg width="25" height="25" viewBox="0 0 25 25" fill="none" xmlns="http://www.w3.org/2000/svg">
<path d="M11.2397 22.1666H5.96631V14.1071C6.25921 13.9886 6.56287 13.897 6.87354 13.8326L11.2397 22.1666Z" fill="#6D7882"/>
<path d="M15.6665 19.4664C16.6054 19.4664 17.3667 20.2277 17.3667 21.1666C17.3667 21.5408 17.2444 21.8858 17.0396 22.1666H13.0464L11.6313 19.4664H15.6665Z" fill="#6D7882"/>
<path d="M16.3892 13.7223C17.7888 13.7224 19.1309 14.2785 20.1206 15.2682C21.1103 16.2579 21.6664 17.6 21.6665 18.9996C21.6665 19.8395 21.3326 20.645 20.7388 21.2389C20.2201 21.7575 19.5403 22.0772 18.8169 22.15C18.9137 21.8394 18.9663 21.5092 18.9663 21.1666C18.9663 19.3441 17.489 17.8668 15.6665 17.8668H10.7935L8.62256 13.7223H16.3892Z" fill="#6D7882"/>
<path d="M4.3667 21.8053C4.08458 21.6578 3.82349 21.4681 3.59424 21.2389C3.00037 20.645 2.6665 19.8395 2.6665 18.9996C2.66659 17.6 3.22274 16.2579 4.2124 15.2682C4.2628 15.2178 4.31451 15.1689 4.3667 15.1207V21.8053Z" fill="#6D7882"/>
<path d="M12.1665 3.16663C13.2862 3.16663 14.3601 3.6113 15.1519 4.40295C15.9437 5.19477 16.3892 6.26948 16.3892 7.38928C16.389 8.50893 15.9436 9.58292 15.1519 10.3746C14.3601 11.1663 13.2862 11.611 12.1665 11.611C11.0468 11.611 9.97295 11.1663 9.18115 10.3746C8.38943 9.58292 7.94396 8.50893 7.94385 7.38928C7.94385 6.26948 8.38933 5.19477 9.18115 4.40295C9.97295 3.6113 11.0468 3.16663 12.1665 3.16663Z" fill="#6D7882"/>
</svg>
