<svg width="24" height="24" viewBox="0 0 24 24" fill="none" xmlns="http://www.w3.org/2000/svg">
<g style="mix-blend-mode:multiply">
<path fill-rule="evenodd" clip-rule="evenodd" d="M11.9778 3C17.2122 3 21.4556 5.12168 21.4556 7.7389C21.4556 8.95245 20.5423 10.0578 19.0419 10.8961C19.2415 11.2305 19.3494 11.5844 19.3494 11.9513C19.3494 12.7817 18.7995 13.5471 17.8726 14.1634C18.1454 14.4576 18.2963 14.7762 18.2963 15.1105C18.2963 15.6656 17.8833 16.1792 17.1795 16.6038C16.8756 17.7637 15.4239 19.6994 11.7351 20.1466C8.70197 20.5143 7.35958 21.7806 6.57044 22.7125C6.50114 22.7938 6.36876 22.7327 6.38635 22.6272C6.76449 20.3587 7.28022 20.3374 8.81853 19.1254C9.74093 18.3985 8.89201 17.5069 8.45037 17.2949C8.40262 17.2815 8.35628 17.2646 8.30947 17.2506C8.30332 17.25 8.29758 17.2486 8.29199 17.2486C8.28987 17.2471 8.28794 17.245 8.28582 17.2434C6.69547 16.7653 5.65927 15.9901 5.65927 15.1105C5.65927 14.7764 5.80944 14.4575 6.08194 14.1634C5.15552 13.5472 4.60618 12.7815 4.60618 11.9513C4.60618 11.5846 4.71325 11.2304 4.91264 10.8961C3.4127 10.0578 2.5 8.95224 2.5 7.7389C2.5 5.12168 6.74336 3 11.9778 3ZM16.0554 13.4219C16.021 13.4178 14.3728 13.228 13.3404 14.1315C12.3031 15.0396 12.2783 16.7106 12.2781 16.7292C12.3024 16.7321 13.9575 16.9267 14.9931 16.0207C16.0357 15.108 16.0554 13.424 16.0554 13.4219ZM11.9778 5.10618C7.90665 5.10621 4.60618 6.28491 4.60618 7.7389C4.60618 9.19289 7.90665 10.3716 11.9778 10.3716C16.049 10.3716 19.3494 9.19289 19.3494 7.7389C19.3494 6.28491 16.049 5.10621 11.9778 5.10618Z" fill="#6D7882"/>
</g>
</svg>
