<svg width="32" height="32" viewBox="0 0 32 32" fill="none" xmlns="http://www.w3.org/2000/svg">
<g style="mix-blend-mode:multiply">
<g clip-path="url(#clip0_19610_193492)">
<path d="M14.1093 7.2388C13.594 6.72755 13.3333 6.09639 13.3333 5.33268C13.3333 4.57213 13.594 3.93465 14.1093 3.42657C14.6216 2.91848 15.2083 2.66602 15.9596 2.66602C16.7108 2.66602 17.3472 2.91848 17.875 3.42657C18.4027 3.93465 18.6666 4.56897 18.6666 5.33268C18.6666 6.09639 18.4027 6.72755 17.875 7.2388C17.3472 7.74688 16.6829 7.99935 15.9596 7.99935C15.2362 7.99935 14.6216 7.74688 14.1093 7.2388Z" fill="white"/>
<path d="M16 21.332C17.4727 21.332 18.6665 22.5261 18.6667 23.9987V26.6654H13.3333V23.9987C13.3335 22.5261 14.5273 21.332 16 21.332Z" fill="#C8A1EF"/>
<path d="M18.6667 9.33203C21.6121 9.33203 23.9998 11.72 24 14.6654V21.332C24 23.8171 22.3003 25.9053 20 26.4974V23.9987C19.9998 21.7897 18.209 19.9987 16 19.9987C13.791 19.9987 12.0002 21.7897 12 23.9987V26.4974C9.69973 25.9053 8 23.8171 8 21.332V14.6654C8.00018 11.72 10.3879 9.33203 13.3333 9.33203H18.6667Z" fill="#C8A1EF"/>
<path d="M13.3333 23.9987C13.3333 22.5259 14.5272 21.332 15.9999 21.332C17.4727 21.332 18.6666 22.5259 18.6666 23.9987V27.9987C18.6666 29.4715 17.4727 30.6654 15.9999 30.6654C14.5272 30.6654 13.3333 29.4715 13.3333 27.9987V23.9987Z" fill="#9548E5"/>
<ellipse cx="11.9998" cy="14.6654" rx="1.33333" ry="1.33333" fill="white"/>
<ellipse cx="19.9998" cy="14.6654" rx="1.33333" ry="1.33333" fill="white"/>
<path d="M17.867 6.66536C17.867 6.17854 17.7269 5.79359 17.4478 5.47005L17.3201 5.33594C16.9458 4.97557 16.51 4.79818 15.9595 4.79818C15.4232 4.79818 15.038 4.96495 14.673 5.32682L14.6704 5.32943C14.3154 5.67972 14.1326 6.10851 14.1326 6.66536C14.1326 7.22365 14.3146 7.64832 14.673 8.00391L14.811 8.12891C15.1393 8.4018 15.5105 8.53255 15.9595 8.53255C16.4206 8.53255 16.8325 8.39495 17.1769 8.12109L17.3201 7.99479C17.6857 7.63979 17.867 7.21897 17.867 6.66536ZM19.466 6.66536C19.466 7.63795 19.1204 8.47883 18.4321 9.14583L18.4295 9.14844C17.7454 9.80688 16.879 10.1315 15.9595 10.1315C15.1428 10.1315 14.415 9.87542 13.8019 9.37109L13.5454 9.13932C12.8734 8.47247 12.5337 7.63437 12.5337 6.66536C12.5337 5.70235 12.8715 4.85689 13.5454 4.19141L13.7993 3.96094C14.4051 3.45798 15.1141 3.19922 15.9595 3.19922C16.9113 3.19922 17.7484 3.52676 18.4295 4.18229L18.673 4.44141C19.202 5.06234 19.466 5.81568 19.466 6.66536Z" fill="#9548E5"/>
<path d="M25.3333 5.33203L25.47 5.33854C26.1421 5.40698 26.6666 5.97513 26.6666 6.66536C26.6666 7.3556 26.1421 7.92375 25.47 7.99219L25.3333 7.9987H6.66659C5.93021 7.9987 5.33325 7.40174 5.33325 6.66536C5.33325 5.92898 5.93021 5.33203 6.66659 5.33203H25.3333Z" fill="#9548E5"/>
<circle cx="16" cy="6.66602" r="2" fill="white"/>
</g>
</g>
<defs>
<clipPath id="clip0_19610_193492">
<rect width="21.3333" height="28" fill="white" transform="translate(5.33325 2.66602)"/>
</clipPath>
</defs>
</svg>
