<svg width="24" height="24" viewBox="0 0 24 24" fill="none" xmlns="http://www.w3.org/2000/svg">
<path fill-rule="evenodd" clip-rule="evenodd" d="M12 1.2002C13.066 1.20027 13.9953 1.87949 14.3203 2.84375C15.3435 2.88702 16.2022 3.6708 16.2871 4.7002H18.2002L18.3838 4.70898C19.2914 4.80121 20 5.56805 20 6.5V20.2002C19.9999 21.194 19.194 21.9997 18.2002 22H5.7998C4.80576 22 4.00011 21.1942 4 20.2002V6.5C4 5.50589 4.80569 4.7002 5.7998 4.7002H7.70801C7.79295 3.66973 8.65413 2.88553 9.67871 2.84375C10.0037 1.87931 10.9338 1.2002 12 1.2002ZM8 15.2002C7.55817 15.2002 7.2002 15.5582 7.2002 16C7.2002 16.4418 7.55817 16.7998 8 16.7998H12.2217L12.3037 16.7959C12.707 16.7548 13.0215 16.4141 13.0215 16C13.0215 15.5859 12.707 15.2452 12.3037 15.2041L12.2217 15.2002H8ZM8 11.2002C7.55817 11.2002 7.2002 11.5582 7.2002 12C7.2002 12.4418 7.55817 12.7998 8 12.7998H16L16.082 12.7959C16.4852 12.7547 16.7998 12.4141 16.7998 12C16.7998 11.5859 16.4852 11.2453 16.082 11.2041L16 11.2002H8ZM12 2.7998C11.5118 2.7998 11.1553 3.18001 11.1553 3.59766V3.63965L11.1514 3.72168C11.1104 4.12483 10.7694 4.43914 10.3555 4.43945H9.76465C9.48673 4.43945 9.30004 4.65368 9.2998 4.86719V6.2002H14.7002V5.69141L14.6963 4.87109V4.86719L14.6875 4.78809C14.6481 4.60392 14.4748 4.43954 14.2314 4.43945H13.6406C13.2266 4.43927 12.8857 4.1249 12.8447 3.72168L12.8408 3.63965C12.8408 3.61772 12.8426 3.59775 12.8438 3.58008C12.834 3.16937 12.4813 2.7999 12 2.7998Z" fill="#6D7882"/>
</svg>
