<svg width="25" height="25" viewBox="0 0 25 25" fill="none" xmlns="http://www.w3.org/2000/svg">
<path d="M13.666 2.66675C13.8781 2.66675 14.0814 2.75116 14.2314 2.90112L19.9307 8.60132C20.0806 8.7513 20.165 8.95467 20.165 9.16675V20.8669C20.165 21.8611 19.3593 22.6667 18.3652 22.6667H5.96582C4.9718 22.6666 4.16602 21.861 4.16602 20.8669V4.46655C4.16612 3.4726 4.97186 2.66685 5.96582 2.66675H13.666ZM8.16504 16.6667C7.72337 16.6669 7.36534 17.0249 7.36523 17.4666C7.36523 17.9083 7.7233 18.2663 8.16504 18.2664H15.165C15.6069 18.2664 15.9648 17.9084 15.9648 17.4666C15.9647 17.0248 15.6068 16.6667 15.165 16.6667H8.16504ZM8.16504 13.2673C7.7233 13.2674 7.36523 13.6254 7.36523 14.0671C7.36539 14.5088 7.7234 14.8668 8.16504 14.8669H12.165C12.6068 14.8669 12.9647 14.5088 12.9648 14.0671C12.9648 13.6253 12.6069 13.2673 12.165 13.2673H8.16504ZM14.4658 8.16675C14.4658 8.2772 14.5556 8.36694 14.666 8.36694H17.4346L14.4658 5.39819V8.16675Z" fill="#6D7882"/>
</svg>
