<svg width="25" height="25" viewBox="0 0 25 25" fill="none" xmlns="http://www.w3.org/2000/svg">
<path fill-rule="evenodd" clip-rule="evenodd" d="M16.4076 2.66782C17.9841 2.73501 19.4775 3.41151 20.5589 4.56198C21.6379 5.70991 22.2185 7.23726 22.1623 8.81384C22.1578 10.3038 21.5491 11.8087 20.7254 13.1806C19.8914 14.5694 18.7888 15.9019 17.696 17.0581C15.5145 19.3662 13.2869 21.0617 13.0653 21.2156L12.6229 21.5233C12.3471 21.7146 11.9859 21.7146 11.7101 21.5233L11.2677 21.2156L11.2657 21.2146C11.0469 21.0617 8.8194 19.366 6.637 17.0571C5.5443 15.901 4.44161 14.5693 3.60767 13.1806C2.78395 11.8088 2.17425 10.3038 2.16974 8.81384C2.11359 7.23739 2.69431 5.70987 3.77309 4.56198C4.85455 3.41139 6.34888 2.73502 7.92546 2.66782C7.94066 2.66718 7.95608 2.66657 7.9713 2.6668C8.96891 2.68205 9.94723 2.95538 10.8073 3.46159C11.3091 3.75699 11.7227 4.20695 12.0479 4.63582C12.0881 4.68881 12.1279 4.7421 12.1665 4.7958C12.2051 4.74209 12.2449 4.68882 12.2851 4.63582C12.6104 4.20693 13.0239 3.75698 13.5257 3.46159C14.3858 2.95537 15.3641 2.68204 16.3617 2.6668C16.377 2.66657 16.3923 2.66718 16.4076 2.66782ZM12.2153 10.3952C11.0728 10.3952 10.8454 11.2228 10.1785 12.2699C9.67257 13.0642 7.97077 14.0815 8.57716 15.1742C9.18372 16.2662 10.599 15.5813 12.2153 15.5813C13.8316 15.5815 15.2467 16.2665 15.8535 15.1742C16.4601 14.0816 14.7562 13.0642 14.2502 12.2699C13.5835 11.2231 13.3574 10.3955 12.2153 10.3952ZM9.1063 9.62094C8.54289 9.62094 8.08612 10.0968 8.08589 10.6844C8.08589 11.2722 8.54274 11.7489 9.1063 11.7489C9.66973 11.7488 10.1267 11.2721 10.1267 10.6844C10.1265 10.0969 9.66959 9.62108 9.1063 9.62094ZM15.2287 9.62094C14.6653 9.62094 14.2085 10.0968 14.2083 10.6844C14.2083 11.2722 14.6652 11.7489 15.2287 11.7489C15.7922 11.7488 16.2491 11.2721 16.2491 10.6844C16.2489 10.0969 15.792 9.62108 15.2287 9.62094ZM10.9428 7.91753C10.3794 7.91764 9.92245 8.3943 9.92242 8.98203C9.9225 9.56972 10.3794 10.0464 10.9428 10.0465C11.5062 10.0464 11.9632 9.5697 11.9632 8.98203C11.9632 8.39432 11.5062 7.91767 10.9428 7.91753ZM13.3922 7.91753C12.8287 7.91753 12.3718 8.39423 12.3718 8.98203C12.3719 9.56979 12.8287 10.0465 13.3922 10.0465C13.9555 10.0463 14.4125 9.56963 14.4126 8.98203C14.4126 8.39439 13.9555 7.91778 13.3922 7.91753Z" fill="#6D7882"/>
</svg>
