<svg width="32" height="32" viewBox="0 0 32 32" fill="none" xmlns="http://www.w3.org/2000/svg">
<g clip-path="url(#clip0_19610_197290)">
<path d="M4.66699 9.9987C4.66699 8.52594 5.8609 7.33203 7.33366 7.33203H24.667C26.1398 7.33203 27.3337 8.52594 27.3337 9.9987V24.6654C27.3337 26.1381 26.1398 27.332 24.667 27.332H7.33366C5.8609 27.332 4.66699 26.1381 4.66699 24.6654V9.9987Z" fill="#75D0D7"/>
<g style="mix-blend-mode:multiply">
<path d="M21.3337 4.66602C21.9228 4.66602 22.4001 5.14332 22.4001 5.73242V7.33268H24.667C26.1398 7.33268 27.3337 8.52659 27.3337 9.99935V12.666H4.66699V9.99935C4.66699 8.52659 5.8609 7.33268 7.33366 7.33268H9.60059V5.73242C9.60059 5.14332 10.0779 4.66602 10.667 4.66602C11.2561 4.66602 11.7334 5.14332 11.7334 5.73242V7.33268H20.2673V5.73242C20.2673 5.14332 20.7446 4.66602 21.3337 4.66602Z" fill="#19969F"/>
</g>
<path d="M19.3333 22C20.0697 22 20.6667 22.597 20.6667 23.3333C20.6667 24.0697 20.0697 24.6667 19.3333 24.6667C18.597 24.6667 18 24.0697 18 23.3333C18 22.597 18.597 22 19.3333 22Z" fill="white"/>
<path d="M23.3333 22C24.0697 22 24.6667 22.597 24.6667 23.3333C24.6667 24.0697 24.0697 24.6667 23.3333 24.6667C22.597 24.6667 22 24.0697 22 23.3333C22 22.597 22.597 22 23.3333 22Z" fill="white"/>
<path d="M23.3333 18C24.0697 18 24.6667 18.597 24.6667 19.3333C24.6667 20.0697 24.0697 20.6667 23.3333 20.6667C22.597 20.6667 22 20.0697 22 19.3333C22 18.597 22.597 18 23.3333 18Z" fill="white"/>
</g>
<defs>
<clipPath id="clip0_19610_197290">
<rect width="32" height="32" fill="white"/>
</clipPath>
</defs>
</svg>
