<svg width="25" height="25" viewBox="0 0 25 25" fill="none" xmlns="http://www.w3.org/2000/svg">
<path fill-rule="evenodd" clip-rule="evenodd" d="M19.168 4.16675C20.8248 4.16675 22.168 5.59384 22.168 7.35425V17.9792C22.168 19.7397 20.8248 21.1667 19.168 21.1667H5.16797C3.51111 21.1667 2.16797 19.7397 2.16797 17.9792V7.35425C2.16797 5.59384 3.51111 4.16675 5.16797 4.16675H19.168ZM3.91797 10.1667C3.50376 10.1667 3.16797 10.5025 3.16797 10.9167C3.16797 11.331 3.50376 11.6667 3.91797 11.6667H20.418C20.8322 11.6667 21.168 11.331 21.168 10.9167C21.168 10.5025 20.8322 10.1667 20.418 10.1667H3.91797ZM5.16797 6.16675C4.61568 6.16675 4.16797 6.61446 4.16797 7.16675C4.16797 7.71903 4.61568 8.16675 5.16797 8.16675C5.72025 8.16675 6.16797 7.71903 6.16797 7.16675C6.16797 6.61446 5.72025 6.16675 5.16797 6.16675ZM8.16797 6.16675C7.61568 6.16675 7.16797 6.61446 7.16797 7.16675C7.16797 7.71903 7.61568 8.16675 8.16797 8.16675C8.72025 8.16675 9.16797 7.71903 9.16797 7.16675C9.16797 6.61446 8.72025 6.16675 8.16797 6.16675ZM11.168 6.16675C10.6157 6.16675 10.168 6.61446 10.168 7.16675C10.168 7.71903 10.6157 8.16675 11.168 8.16675C11.7203 8.16675 12.168 7.71903 12.168 7.16675C12.168 6.61446 11.7203 6.16675 11.168 6.16675Z" fill="#6D7882"/>
</svg>
