<svg width="32" height="32" viewBox="0 0 32 32" fill="none" xmlns="http://www.w3.org/2000/svg">
<g clip-path="url(#clip0_19610_189868)">
<g style="mix-blend-mode:multiply">
<path d="M25.7979 6.00015L6.20209 6C4.24952 6 2.66666 7.54328 2.66666 9.44702V22.5528C2.66666 24.4566 4.24952 25.9999 6.20209 25.9999L25.7979 26C27.7505 26 29.3333 24.4567 29.3333 22.553V9.44717C29.3333 7.54343 27.7505 6.00015 25.7979 6.00015Z" fill="#FBB4C1"/>
<g style="mix-blend-mode:multiply">
<path d="M6.1137 6L25.8863 6C27.7894 6 29.3333 7.54389 29.3333 9.44702V11.2956H2.66666V9.44702C2.66666 7.54389 4.21056 6 6.1137 6Z" fill="#D63D4A"/>
</g>
<path d="M13.9234 8.67538C13.9234 9.23349 13.463 9.68468 12.8935 9.68468C12.324 9.68468 11.8636 9.23349 11.8636 8.67538C11.8636 8.11727 12.3262 7.66608 12.8935 7.66608C13.4608 7.66608 13.9234 8.11941 13.9234 8.67538Z" fill="#FBB4C1"/>
<path d="M9.66199 9.68468C10.2308 9.68468 10.6919 9.2328 10.6919 8.67538C10.6919 8.11796 10.2308 7.66608 9.66199 7.66608C9.09319 7.66608 8.63208 8.11796 8.63208 8.67538C8.63208 9.2328 9.09319 9.68468 9.66199 9.68468Z" fill="#FBB4C1"/>
<path d="M6.43759 9.68462C7.00639 9.68462 7.4675 9.23274 7.4675 8.67532C7.4675 8.1179 7.00639 7.66602 6.43759 7.66602C5.86879 7.66602 5.40768 8.1179 5.40768 8.67532C5.40768 9.23274 5.86879 9.68462 6.43759 9.68462Z" fill="#FBB4C1"/>
<path d="M16.3763 22.9033C16.1771 23.131 15.8229 23.131 15.6237 22.9033L12.0589 18.8293C11.776 18.506 12.0056 18 12.4352 18H14V14.5C14 14.2239 14.2238 14 14.5 14H17.5C17.7761 14 18 14.2239 18 14.5V18H19.5648C19.9943 18 20.2239 18.506 19.9411 18.8293L16.3763 22.9033Z" fill="#D63D4A"/>
</g>
</g>
<defs>
<clipPath id="clip0_19610_189868">
<rect width="32" height="32" fill="white"/>
</clipPath>
</defs>
</svg>
