<svg width="24" height="24" viewBox="0 0 24 24" fill="none" xmlns="http://www.w3.org/2000/svg">
<path fill-rule="evenodd" clip-rule="evenodd" d="M15.5996 1.5C16.3727 1.5 16.9997 2.12643 17 2.89941V5.5H19.7949C21.2888 5.50012 22.4999 6.71116 22.5 8.20508V17.7949C22.4999 19.2888 21.2888 20.4999 19.7949 20.5H19.5V21.5117C19.5 22.0575 19.0575 22.5 18.5117 22.5H17.4883C16.9425 22.5 16.5 22.0575 16.5 21.5117V20.5H7.5V21.5117C7.5 22.0575 7.05751 22.5 6.51172 22.5H5.48828C4.94249 22.5 4.5 22.0575 4.5 21.5117V20.5H4.20508C2.71116 20.4999 1.50012 19.2888 1.5 17.7949V8.20508C1.50012 6.71116 2.71116 5.50012 4.20508 5.5H7V2.89941C7.00025 2.12643 7.62735 1.5 8.40039 1.5H15.5996ZM12 9C11.5582 9 11.2002 9.35798 11.2002 9.7998V12H9C8.55817 12 8.2002 12.358 8.2002 12.7998C8.2002 13.2416 8.55817 13.5996 9 13.5996H11.2002V15.7998L11.2041 15.8818C11.2453 16.285 11.5859 16.5996 12 16.5996C12.414 16.5995 12.7547 16.285 12.7959 15.8818L12.7998 15.7998V13.5996H15L15.082 13.5957C15.4852 13.5545 15.7998 13.2138 15.7998 12.7998C15.7998 12.3858 15.4852 12.0451 15.082 12.0039L15 12H12.7998V9.7998C12.7998 9.35804 12.4417 9.0001 12 9ZM9.5 3.5C9.22386 3.5 9 3.72386 9 4V5.5H15V4C15 3.72386 14.7761 3.5 14.5 3.5H9.5Z" fill="#6D7882"/>
</svg>
