<svg width="25" height="25" viewBox="0 0 25 25" fill="none" xmlns="http://www.w3.org/2000/svg">
<path d="M18.5791 3.88004L18.5801 3.88102C18.5808 3.88113 18.582 3.88083 18.583 3.88102C18.585 3.8814 18.5876 3.88236 18.5908 3.88297C18.5974 3.88422 18.6067 3.88562 18.6182 3.88785C18.6414 3.89238 18.6749 3.89884 18.7158 3.90739C18.7976 3.92446 18.9125 3.95026 19.0498 3.98356C19.3227 4.04974 19.6945 4.14997 20.0723 4.28629C20.4404 4.41919 20.8622 4.60258 21.2061 4.84879C21.5214 5.0747 21.9681 5.49732 21.9678 6.13981C21.9669 6.98948 21.322 7.41438 20.8506 7.61149C20.3783 7.80894 19.7817 7.91367 19.3105 7.99918C18.7891 8.09383 18.3893 8.16994 18.1123 8.28336C18.3894 8.39703 18.7887 8.47463 19.3105 8.5695C19.7819 8.65517 20.3792 8.75952 20.8516 8.95719C21.323 9.15451 21.9677 9.57994 21.9678 10.4298C21.9676 11.2797 21.323 11.7053 20.8516 11.9025C20.3792 12.1 19.7818 12.2047 19.3105 12.2902C18.7889 12.3849 18.3893 12.4609 18.1123 12.5744C18.3893 12.6881 18.7886 12.7656 19.3105 12.8605C19.7818 12.9462 20.3792 13.0505 20.8516 13.2482C21.323 13.4455 21.9676 13.871 21.9678 14.7209C21.9676 15.566 21.3325 15.993 20.8604 16.1925C20.3907 16.391 19.7976 16.4956 19.3291 16.5812C18.8042 16.6771 18.4011 16.7546 18.1201 16.8713C18.0959 16.8813 18.0752 16.8928 18.0566 16.9015C18.0781 16.9136 18.1019 16.9299 18.1318 16.9445C18.3436 17.0477 18.6281 17.1318 18.9824 17.2218L19.7383 17.4074C20.1316 17.5068 20.5587 17.63 20.9121 17.8029C21.386 18.0348 22.0012 18.501 21.9668 19.3517C21.9415 19.9691 21.5032 20.3648 21.1992 20.5744C20.8667 20.8035 20.4645 20.9713 20.1152 21.092C19.7564 21.2158 19.4041 21.3066 19.1465 21.3654C19.0169 21.395 18.9082 21.4168 18.8311 21.4318C18.7924 21.4393 18.7612 21.4454 18.7393 21.4494C18.7284 21.4514 18.7192 21.4532 18.7129 21.4543C18.7102 21.4547 18.7078 21.4549 18.7061 21.4552H18.7031L18.7021 21.4562C18.2669 21.5297 17.8533 21.2361 17.7793 20.8009C17.7055 20.3653 17.999 19.9519 18.4346 19.8781C18.4352 19.878 18.4363 19.8783 18.4375 19.8781C18.4408 19.8775 18.4465 19.8765 18.4541 19.8752C18.4697 19.8723 18.494 19.8676 18.5254 19.8615C18.5884 19.8492 18.6802 19.8301 18.791 19.8048C19.0149 19.7537 19.3066 19.6781 19.5928 19.5793C19.8732 19.4824 20.1073 19.3753 20.2656 19.2716C20.2487 19.2625 20.2304 19.2509 20.209 19.2404C19.9286 19.1032 19.5188 18.9995 18.9844 18.8703C18.5058 18.7546 17.9028 18.6131 17.4307 18.383C16.9571 18.1521 16.3417 17.6886 16.3691 16.84L16.3809 16.6877C16.4755 15.9531 17.0646 15.5771 17.5059 15.3937C17.9789 15.1972 18.5732 15.0926 19.042 15.007C19.5604 14.9123 19.9541 14.8347 20.2266 14.7218C19.9494 14.6074 19.5484 14.53 19.0244 14.4347C18.5533 14.3491 17.9565 14.2445 17.4844 14.047C17.0426 13.8622 16.4487 13.4772 16.376 12.7297L16.3682 12.5754L16.376 12.4201C16.4487 11.6725 17.0426 11.2874 17.4844 11.1027C17.9567 10.9053 18.5542 10.8015 19.0254 10.716C19.5468 10.6213 19.9457 10.5433 20.2227 10.4298C19.9456 10.3162 19.5462 10.2386 19.0244 10.1437C18.5532 10.0581 17.9567 9.95351 17.4844 9.75602C17.0426 9.57126 16.4478 9.18636 16.375 8.43864L16.3682 8.28434L16.375 8.12907C16.4477 7.38132 17.0425 6.9964 17.4844 6.81168C17.9566 6.6143 18.5533 6.51047 19.0244 6.42496C19.5528 6.32907 19.9559 6.25092 20.2334 6.13492C20.2369 6.13346 20.2398 6.13053 20.2432 6.12907C20.0745 6.0153 19.8255 5.89808 19.5293 5.79118C19.2241 5.68104 18.9122 5.5963 18.6729 5.53825C18.5544 5.50953 18.4563 5.4879 18.3887 5.47379C18.355 5.46676 18.3284 5.46146 18.3115 5.45817C18.3035 5.45659 18.2976 5.45495 18.2939 5.45426H18.29L18.2109 5.43571C17.8213 5.32288 17.5729 4.93011 17.6475 4.52262C17.7223 4.11517 18.0938 3.83662 18.498 3.8693L18.5791 3.88004Z" fill="#6D7882"/>
<path d="M14.4199 4.09391C14.7532 3.90363 15.168 4.14464 15.168 4.52848V20.8048C15.168 21.1887 14.7532 21.4298 14.4199 21.2394L8.39844 17.799C8.24734 17.7126 8.07637 17.6672 7.90234 17.6672H4.16797C3.61579 17.6672 3.16815 17.2193 3.16797 16.6672V8.66715C3.16797 8.11487 3.61568 7.66715 4.16797 7.66715H7.90234C8.0763 7.66715 8.24739 7.62159 8.39844 7.53532L14.4199 4.09391Z" fill="#6D7882"/>
</svg>
