<svg width="24" height="24" viewBox="0 0 24 24" fill="none" xmlns="http://www.w3.org/2000/svg">
<path d="M19 3C20.1046 3 21 3.89543 21 5V19C21 20.1046 20.1046 21 19 21H5C3.89543 21 3 20.1046 3 19V5C3 3.89543 3.89543 3 5 3H19ZM12 8C9.23858 8 7 10.2386 7 13C7 15.7614 9.23858 18 12 18C14.7614 18 17 15.7614 17 13C17 10.2386 14.7614 8 12 8ZM13.7998 9.88184C14.8758 10.5043 15.5996 11.6675 15.5996 13C15.5996 14.9882 13.9882 16.5996 12 16.5996C11.344 16.5996 10.7289 16.4247 10.1992 16.1182L13.7998 9.88184ZM5.5 4.5C4.94772 4.5 4.5 4.94772 4.5 5.5C4.5 6.05228 4.94772 6.5 5.5 6.5C6.05228 6.5 6.5 6.05228 6.5 5.5C6.5 4.94772 6.05228 4.5 5.5 4.5ZM8.5 4.5C7.94772 4.5 7.5 4.94772 7.5 5.5C7.5 6.05228 7.94772 6.5 8.5 6.5C9.05228 6.5 9.5 6.05228 9.5 5.5C9.5 4.94772 9.05228 4.5 8.5 4.5Z" fill="#6D7882"/>
</svg>
