<svg width="25" height="25" viewBox="0 0 25 25" fill="none" xmlns="http://www.w3.org/2000/svg">
<g clip-path="url(#clip0_14095_196745)">
<g clip-path="url(#clip1_14095_196745)">
<path d="M15.2568 4.34165C15.6524 3.59068 16.7536 3.40465 17.2383 4.10142L21.8916 10.7899C22.8619 12.1851 22.4803 14.1071 21.0508 15.0262L11.2646 21.3172C10.6195 21.732 9.86852 21.953 9.10156 21.953H4.66797C3.01123 21.953 1.66815 20.6097 1.66797 18.953V17.3436C1.66815 15.1346 3.45894 13.3436 5.66797 13.3436H10.4678C10.8902 13.3436 11.2331 13.0014 11.2334 12.579C11.2334 12.1563 10.8904 11.8133 10.4678 11.8133H7.47559L7.95312 10.4745H9.86426C10.2869 10.4745 10.6299 10.1315 10.6299 9.70884C10.6297 9.28642 10.2867 8.94419 9.86426 8.94419H8.5L8.8916 7.84751C9.13857 7.156 9.85036 6.75976 10.584 6.79087C11.532 6.8312 12.67 6.72079 13.624 6.16978C14.2834 5.78889 14.8228 5.16549 15.2568 4.34165Z" fill="#6D7882"/>
</g>
</g>
<defs>
<clipPath id="clip0_14095_196745">
<rect width="24" height="24" fill="white" transform="translate(0.167969 0.666748)"/>
</clipPath>
<clipPath id="clip1_14095_196745">
<rect width="24" height="24" fill="white" transform="translate(0.167969 0.666748)"/>
</clipPath>
</defs>
</svg>
