<svg width="32" height="32" viewBox="0 0 32 32" fill="none" xmlns="http://www.w3.org/2000/svg">
<g clip-path="url(#clip0_19610_189805)">
<g style="mix-blend-mode:multiply">
<path fill-rule="evenodd" clip-rule="evenodd" d="M10.2195 4.66602C9.7845 4.66617 9.35721 4.79054 8.98099 5.02654C8.60476 5.26254 8.29296 5.60177 8.07717 6.00987L3.65914 14.3623C3.44568 14.7654 3.33337 15.2217 3.33334 15.6862V21.6828C3.33337 22.0966 3.42252 22.5046 3.59374 22.8747L4.97345 25.8557C5.17837 26.2987 5.49348 26.6714 5.88343 26.9318C6.27338 27.1922 6.72277 27.3302 7.18123 27.3302H8.26969C8.92429 27.3302 9.55208 27.0493 10.015 26.5493C10.4778 26.0492 10.7379 25.371 10.7379 24.6638H20.6106C20.6106 25.371 20.8706 26.0492 21.3335 26.5493C21.7963 27.0493 22.4241 27.3302 23.0787 27.3302H24.1672C24.6257 27.3302 25.075 27.1922 25.465 26.9318C25.855 26.6714 26.1701 26.2987 26.375 25.8557L27.7547 22.8747C27.9262 22.5054 28.0151 22.0961 28.0151 21.6828V15.6862C28.0151 15.2217 27.9028 14.7654 27.6893 14.3623L23.2713 6.00987C23.0555 5.60177 22.7437 5.26254 22.3674 5.02654C21.9912 4.79054 21.5639 4.66617 21.1289 4.66602H10.2195Z" fill="#FA967C"/>
<g style="mix-blend-mode:multiply">
<path d="M5.87691 26.9338C5.48695 26.6734 5.17185 26.3007 4.96692 25.8577L4.27707 24.3672H27.0583L26.3685 25.8577C26.1635 26.3007 25.8484 26.6734 25.4585 26.9338C25.0685 27.1942 24.6191 27.3322 24.1607 27.3322H23.0722C22.4176 27.3322 21.7898 27.0513 21.327 26.5512C20.8641 26.0512 20.604 25.373 20.604 24.6658H10.7313C10.7313 25.373 10.4713 26.0512 10.0084 26.5512C9.54556 27.0513 8.91777 27.3322 8.26317 27.3322H7.17471C6.71625 27.3322 6.26686 27.1942 5.87691 26.9338Z" fill="#786BEE"/>
</g>
<path d="M7.26455 13.0062L9.53161 7.90526C9.66806 7.59825 9.97252 7.40039 10.3085 7.40039H21.2945C21.6305 7.40039 21.9349 7.59825 22.0714 7.90526L24.3385 13.0062C24.5883 13.5684 24.1768 14.2016 23.5616 14.2016H8.04142C7.42621 14.2016 7.01468 13.5684 7.26455 13.0062Z" fill="#D5E0FF"/>
<ellipse cx="9.56758" cy="19.4015" rx="1.7003" ry="1.7003" fill="white"/>
<circle cx="22.0364" cy="19.4015" r="1.7003" fill="white"/>
<path d="M18.7067 23.2384C18.7067 25.9793 22.3269 27.9988 23.6845 27.9988C25.0421 27.9988 28.6623 25.9793 28.6623 23.2384C28.6623 21.7957 28.6623 20.49 28.6623 19.5768C28.6623 18.787 28.1522 18.0886 27.401 17.8492L24.5077 16.9269C23.9721 16.7561 23.3969 16.7561 22.8613 16.9269L19.968 17.8492C19.2169 18.0886 18.7067 18.787 18.7067 19.5768C18.7067 20.49 18.7067 21.7957 18.7067 23.2384Z" fill="#9548E5"/>
<path d="M21.0179 21.5882L23.1477 23.8464L26.3512 20.7988" stroke="white" stroke-width="0.914286" stroke-linecap="round" stroke-linejoin="round"/>
</g>
</g>
<defs>
<clipPath id="clip0_19610_189805">
<rect width="32" height="32" fill="white"/>
</clipPath>
</defs>
</svg>
