<svg width="32" height="33" viewBox="0 0 32 33" fill="none" xmlns="http://www.w3.org/2000/svg">
<g style="mix-blend-mode:multiply">
<path d="M25.0582 8.00012C27.5128 8.00012 29.5026 9.75956 29.5026 11.9299V22.737C29.5026 24.9073 27.5128 26.6668 25.0582 26.6668H7.28038C4.82578 26.6668 2.83594 24.9073 2.83594 22.737L2.83594 11.9299C2.83594 9.75956 4.82578 8.00012 7.28038 8.00012L25.0582 8.00012Z" fill="#8C97C8"/>
<g style="mix-blend-mode:multiply">
<rect x="8.16797" y="6.66675" width="16" height="2.66667" rx="1" fill="#5B658C"/>
</g>
<g style="mix-blend-mode:multiply">
<path d="M22.782 17.6841C22.782 17.0323 22.6857 16.5286 22.4931 16.1731C22.308 15.8175 22.0413 15.6397 21.6932 15.6397C21.345 15.6397 21.0784 15.8175 20.8932 16.1731C20.7154 16.5286 20.6265 17.0323 20.6265 17.6841C20.6265 18.336 20.7154 18.8434 20.8932 19.2063C21.0784 19.5619 21.345 19.7397 21.6932 19.7397C22.0413 19.7397 22.308 19.5619 22.4931 19.2063C22.6857 18.8434 22.782 18.336 22.782 17.6841ZM24.682 17.6841C24.682 18.2545 24.6079 18.7619 24.4598 19.2063C24.3116 19.6508 24.1042 20.0248 23.8376 20.3285C23.5783 20.6248 23.2635 20.8507 22.8931 21.0063C22.5302 21.1618 22.1339 21.2396 21.7043 21.2396C21.2672 21.2396 20.8636 21.1618 20.4932 21.0063C20.1302 20.8507 19.8154 20.6248 19.5488 20.3285C19.2895 20.0248 19.0858 19.6508 18.9377 19.2063C18.7969 18.7619 18.7266 18.2545 18.7266 17.6841C18.7266 17.1138 18.7969 16.6101 18.9377 16.1731C19.0858 15.7286 19.2895 15.3583 19.5488 15.062C19.8154 14.7583 20.1302 14.5287 20.4932 14.3731C20.8636 14.2175 21.2672 14.1398 21.7043 14.1398C22.1339 14.1398 22.5302 14.2175 22.8931 14.3731C23.2635 14.5287 23.5783 14.7583 23.8376 15.062C24.1042 15.3583 24.3116 15.7286 24.4598 16.1731C24.6079 16.6101 24.682 17.1138 24.682 17.6841Z" fill="#5B658C"/>
<path d="M16.0438 17.6841C16.0438 17.0323 15.9475 16.5286 15.7549 16.1731C15.5697 15.8175 15.303 15.6397 14.9549 15.6397C14.6067 15.6397 14.3401 15.8175 14.1549 16.1731C13.9771 16.5286 13.8882 17.0323 13.8882 17.6841C13.8882 18.336 13.9771 18.8434 14.1549 19.2063C14.3401 19.5619 14.6067 19.7397 14.9549 19.7397C15.303 19.7397 15.5697 19.5619 15.7549 19.2063C15.9475 18.8434 16.0438 18.336 16.0438 17.6841ZM17.9437 17.6841C17.9437 18.2545 17.8696 18.7619 17.7215 19.2063C17.5733 19.6508 17.3659 20.0248 17.0993 20.3285C16.84 20.6248 16.5252 20.8507 16.1549 21.0063C15.7919 21.1618 15.3956 21.2396 14.966 21.2396C14.529 21.2396 14.1253 21.1618 13.7549 21.0063C13.392 20.8507 13.0771 20.6248 12.8105 20.3285C12.5512 20.0248 12.3475 19.6508 12.1994 19.2063C12.0587 18.7619 11.9883 18.2545 11.9883 17.6841C11.9883 17.1138 12.0587 16.6101 12.1994 16.1731C12.3475 15.7286 12.5512 15.3583 12.8105 15.062C13.0771 14.7583 13.392 14.5287 13.7549 14.3731C14.1253 14.2175 14.529 14.1398 14.966 14.1398C15.3956 14.1398 15.7919 14.2175 16.1549 14.3731C16.5252 14.5287 16.84 14.7583 17.0993 15.062C17.3659 15.3583 17.5733 15.7286 17.7215 16.1731C17.8696 16.6101 17.9437 17.1138 17.9437 17.6841Z" fill="#5B658C"/>
<path d="M9.47656 14.2544C9.90766 14.0055 10.4591 14.1534 10.708 14.5845C10.7926 14.7311 10.8298 14.8916 10.8271 15.0493V20.3159C10.8271 20.8137 10.4235 21.2173 9.92578 21.2173C9.42818 21.2171 9.02447 20.8135 9.02441 20.3159V16.5972L9.00098 16.6108C8.56993 16.8597 8.01846 16.7117 7.76953 16.2808C7.52063 15.8497 7.66851 15.2982 8.09961 15.0493L9.47656 14.2544Z" fill="#5B658C"/>
</g>
</g>
</svg>
