<svg width="32" height="32" viewBox="0 0 32 32" fill="none" xmlns="http://www.w3.org/2000/svg">
<path fill-rule="evenodd" clip-rule="evenodd" d="M9.41306 13.8677C9.73427 13.8679 10.0388 14.0127 10.2412 14.2622C10.4431 14.5118 10.5223 14.84 10.456 15.1541L8.20733 25.8208C8.10283 26.3134 7.66674 26.667 7.16306 26.6672H2.66566C2.33928 26.6671 2.02935 26.5171 1.82712 26.2609C1.62526 26.0045 1.55316 25.6681 1.62921 25.3508L4.19952 14.6841L4.25681 14.5109C4.42308 14.1257 4.80506 13.8678 5.23598 13.8677H9.41306ZM4.01983 24.5344H6.29848L8.09796 16.0005H6.07582L4.01983 24.5344Z" fill="#33363D"/>
<path d="M12.7256 16.8495C12.8786 17.7841 13.3208 18.6541 13.999 19.3325L14.6839 19.8221L14.4 24.5344H17.0211V20.5291C17.0396 20.5294 17.0585 20.5317 17.0771 20.5318H19.1539V25.6008C19.1532 26.189 18.6759 26.6668 18.0875 26.6672H13.2685C12.975 26.6671 12.6926 26.5459 12.4912 26.3325C12.29 26.1189 12.1863 25.8299 12.2034 25.537L12.7256 16.8495Z" fill="#33363D"/>
<path d="M30.3688 25.3508C30.4448 25.668 30.3727 26.0045 30.1709 26.2609C29.9687 26.5171 29.6587 26.667 29.3323 26.6672H24.5133C23.9831 26.6671 23.5331 26.2764 23.4573 25.7518L22.7112 20.5318H24.8675L25.4391 24.5344H27.9782L27.0133 20.5318H28.2568L28.5693 20.5213C28.7808 20.5069 28.9856 20.4764 29.1839 20.4341L30.3688 25.3508Z" fill="#33363D"/>
<path d="M22.6657 13.3338C23.2545 13.3341 23.7321 13.8113 23.7321 14.4002C23.7314 14.9886 23.2541 15.4664 22.6657 15.4666C22.077 15.4665 21.5999 14.9888 21.5993 14.4002C21.5993 13.8112 22.0767 13.3339 22.6657 13.3338Z" fill="#33363D"/>
<path d="M22.6657 8.46665C23.1441 8.46694 23.5329 8.85537 23.5329 9.33383V12.0005C23.5321 12.4783 23.1436 12.8674 22.6657 12.8677C22.1876 12.8676 21.7992 12.4784 21.7985 12.0005V9.33383C21.7985 8.85525 22.1871 8.46675 22.6657 8.46665Z" fill="#33363D"/>
<path fill-rule="evenodd" clip-rule="evenodd" d="M22.1292 4.33514C23.0087 4.10964 24.0094 4.44867 24.5237 5.35206L30.1136 15.1698C30.1789 15.2846 30.2289 15.4037 30.2711 15.5226C30.2874 15.5686 30.3019 15.6146 30.3154 15.6607C30.322 15.6841 30.3279 15.7075 30.3336 15.731C30.3387 15.7556 30.3442 15.7806 30.3493 15.8052C30.3582 15.8482 30.3661 15.8911 30.3727 15.9341C30.3751 15.9511 30.3772 15.9679 30.3792 15.9849C30.3825 16.016 30.386 16.0475 30.3883 16.0786C30.3918 16.1251 30.3944 16.1717 30.3948 16.2179C30.3952 16.2649 30.3936 16.312 30.3909 16.3586C30.3888 16.3959 30.3859 16.4335 30.3818 16.4706C30.3761 16.5229 30.3678 16.5752 30.3584 16.6268C30.3525 16.6585 30.3461 16.6905 30.3388 16.7219C30.3274 16.7717 30.3146 16.8215 30.2998 16.8703C30.2877 16.9097 30.2736 16.9488 30.2594 16.9875C30.2449 17.0271 30.2306 17.0673 30.2138 17.106C30.1975 17.1434 30.1788 17.1802 30.1605 17.2166C30.1376 17.2622 30.1148 17.3082 30.0888 17.3521C30.0783 17.3697 30.066 17.3868 30.055 17.4041C29.8511 17.7273 29.5644 17.9959 29.2125 18.1724C29.1948 18.1812 29.1772 18.19 29.1592 18.1984C29.0988 18.2264 29.0354 18.2515 28.9717 18.2739C28.953 18.2805 28.9346 18.2874 28.9157 18.2935C28.8546 18.3131 28.7919 18.3284 28.7282 18.3429C28.5779 18.3761 28.4213 18.3988 28.2568 18.3989H17.0771L17.0042 18.3963C16.7839 18.3892 16.5774 18.3482 16.3844 18.2831C16.3568 18.2738 16.3295 18.2644 16.3024 18.2544C16.2768 18.2446 16.2518 18.2339 16.2269 18.2232C16.2007 18.212 16.1743 18.2016 16.1487 18.1893C16.1229 18.1769 16.0982 18.1625 16.0732 18.1489C16.0249 18.1232 15.977 18.0975 15.9313 18.0682C15.9073 18.0528 15.8843 18.0363 15.861 18.02C15.7921 17.972 15.7265 17.9205 15.6644 17.8651C15.6564 17.858 15.6489 17.85 15.6409 17.8429C15.6065 17.8113 15.5716 17.7804 15.5394 17.7466C15.5253 17.7311 15.5117 17.7153 15.4977 17.6997C15.493 17.6945 15.488 17.6893 15.4834 17.6841C15.4466 17.6424 15.4113 17.5996 15.3779 17.5552C15.3637 17.5359 15.3499 17.5163 15.3362 17.4966C15.3032 17.4495 15.2718 17.4016 15.2425 17.3521C15.2311 17.3335 15.2193 17.3151 15.2086 17.2961C15.1783 17.2412 15.1522 17.1842 15.1266 17.1268C15.1091 17.0874 15.0935 17.0474 15.0784 17.007C15.0592 16.9561 15.0392 16.9056 15.0237 16.8534C15.0173 16.8316 15.0124 16.809 15.0068 16.787C14.9913 16.7276 14.977 16.6679 14.9664 16.6073C14.964 16.5932 14.9621 16.5784 14.9599 16.5643C14.9503 16.5014 14.9445 16.438 14.9404 16.3742C14.94 16.3677 14.9395 16.3612 14.9391 16.3547C14.9382 16.3375 14.9374 16.3198 14.9365 16.3026C14.935 16.2532 14.9359 16.2038 14.9378 16.1541C14.9392 16.116 14.9408 16.0778 14.9443 16.0396C14.9673 15.7918 15.0331 15.5423 15.1487 15.3026L15.2191 15.1685L20.8089 5.35076C20.8345 5.30586 20.8617 5.26267 20.8896 5.22055C20.974 5.09339 21.068 4.97852 21.1709 4.8768C21.2394 4.80901 21.3118 4.74709 21.387 4.6906C21.6125 4.52133 21.8654 4.40287 22.1292 4.33514ZM22.6605 6.40675L17.0719 16.2258C17.0685 16.2319 17.0667 16.2375 17.0667 16.2375L17.0654 16.2414C17.0657 16.2452 17.0675 16.2532 17.0719 16.2609C17.0738 16.2638 17.0771 16.2674 17.0771 16.2674H28.2542C28.2542 16.2674 28.2575 16.2639 28.2594 16.2609C28.2638 16.2532 28.2656 16.2452 28.2659 16.2414L28.2646 16.2375C28.2646 16.2375 28.2628 16.2318 28.2594 16.2258L22.6709 6.40675C22.6694 6.40416 22.6657 6.40024 22.6657 6.40024C22.6657 6.40024 22.6619 6.40422 22.6605 6.40675Z" fill="#33363D"/>
</svg>
