<svg width="25" height="25" viewBox="0 0 25 25" fill="none" xmlns="http://www.w3.org/2000/svg">
<g clip-path="url(#clip0_10831_308291)">
<path d="M13.1958 13.3669C13.1426 14.4003 12.9767 15.3055 12.7437 15.9714C12.6003 16.3808 12.445 16.6625 12.3081 16.8279C12.2389 16.9115 12.1909 16.9458 12.1665 16.9597C12.1421 16.9458 12.0941 16.9115 12.0249 16.8279C11.888 16.6625 11.7327 16.3808 11.5894 15.9714C11.3563 15.3055 11.1904 14.4003 11.1372 13.3669H13.1958Z" fill="#6D7882"/>
<path d="M9.73486 13.3669C9.78936 14.5338 9.97658 15.6004 10.2681 16.4333C10.2815 16.4716 10.297 16.5089 10.311 16.5466C9.06679 15.9506 8.15471 14.7736 7.92432 13.3669H9.73486Z" fill="#6D7882"/>
<path d="M16.4087 13.3669C16.1782 14.7739 15.2656 15.9507 14.021 16.5466C14.035 16.5088 14.0515 16.4717 14.0649 16.4333C14.3564 15.6004 14.5436 14.5338 14.5981 13.3669H16.4087Z" fill="#6D7882"/>
<path d="M10.2681 8.90015C9.97658 9.73306 9.78936 10.7997 9.73486 11.9666H7.92432C8.15473 10.5598 9.0666 9.3819 10.311 8.78589C10.2969 8.82388 10.2816 8.86159 10.2681 8.90015Z" fill="#6D7882"/>
<path d="M12.1665 8.3728C12.1908 8.38656 12.2385 8.42153 12.3081 8.50562C12.445 8.67104 12.6003 8.95265 12.7437 9.36206C12.9767 10.028 13.1426 10.9332 13.1958 11.9666H11.1372C11.1904 10.9332 11.3563 10.028 11.5894 9.36206C11.7327 8.95265 11.888 8.67104 12.0249 8.50562C12.0945 8.42153 12.1422 8.38656 12.1665 8.3728Z" fill="#6D7882"/>
<path d="M14.021 8.78589C15.2658 9.38178 16.1782 10.5595 16.4087 11.9666H14.5981C14.5436 10.7997 14.3564 9.73306 14.0649 8.90015C14.0514 8.86148 14.0351 8.82399 14.021 8.78589Z" fill="#6D7882"/>
<path fill-rule="evenodd" clip-rule="evenodd" d="M17.1665 1.66675C19.3756 1.66675 21.1665 3.45761 21.1665 5.66675V19.6667C21.1665 21.8759 19.3756 23.6667 17.1665 23.6667H5.1665C4.06193 23.6667 3.1665 22.7713 3.1665 21.6667V3.66675C3.1665 2.56218 4.06193 1.66675 5.1665 1.66675H17.1665ZM12.1665 6.96655C9.01848 6.96655 6.46631 9.51872 6.46631 12.6667C6.46631 15.8148 9.01848 18.3669 12.1665 18.3669C15.3145 18.3669 17.8667 15.8148 17.8667 12.6667C17.8667 9.51872 15.3145 6.96655 12.1665 6.96655Z" fill="#6D7882"/>
</g>
<defs>
<clipPath id="clip0_10831_308291">
<rect width="24" height="24" fill="white" transform="translate(0.166504 0.666748)"/>
</clipPath>
</defs>
</svg>
