<svg width="25" height="25" viewBox="0 0 25 25" fill="none" xmlns="http://www.w3.org/2000/svg">
<path d="M12.1665 3.16675C13.2191 3.16675 14.172 3.75749 16.0767 4.94019L17.9878 6.12671C19.7824 7.24113 20.6813 7.79931 21.1724 8.69897C21.6662 9.59947 21.6665 10.686 21.6665 12.8601V14.3054C21.6665 18.0113 21.6656 19.864 20.5532 21.0154C19.4408 22.1667 17.6491 22.1667 14.0669 22.1667H10.2661C6.68392 22.1667 4.89314 22.1667 3.77979 21.0154C2.66643 19.864 2.6665 18.0104 2.6665 14.3054V12.8591C2.6665 10.686 2.66681 9.59852 3.16064 8.69897C3.65314 7.79843 4.55197 7.23941 6.3501 6.1228L8.25732 4.94019C10.1624 3.75785 11.1141 3.16675 12.1665 3.16675ZM10.1665 16.8669C9.72468 16.8669 9.3667 17.2249 9.3667 17.6667C9.3667 18.1086 9.72468 18.4666 10.1665 18.4666H14.1665L14.2485 18.4626C14.6518 18.4216 14.9663 18.0809 14.9663 17.6667C14.9663 17.2526 14.6518 16.9119 14.2485 16.8708L14.1665 16.8669H10.1665Z" fill="#6D7882"/>
</svg>
