<svg width="32" height="32" viewBox="0 0 32 32" fill="none" xmlns="http://www.w3.org/2000/svg">
<g clip-path="url(#clip0_19690_199540)">
<circle cx="15.9997" cy="15.6667" r="11.6667" fill="#FBB4C1"/>
<g style="mix-blend-mode:multiply">
<path d="M24.333 15.6667C24.333 11.0643 20.602 7.33333 15.9997 7.33333C11.3973 7.33333 7.66634 11.0643 7.66634 15.6667C7.66634 16.5871 6.92015 17.3333 5.99967 17.3333C5.0792 17.3333 4.33301 16.5871 4.33301 15.6667C4.33301 9.22334 9.55635 4 15.9997 4C22.443 4 27.6663 9.22334 27.6663 15.6667C27.6663 16.5871 26.9201 17.3333 25.9997 17.3333C25.0792 17.3333 24.333 16.5871 24.333 15.6667Z" fill="#D63D4A"/>
</g>
<g style="mix-blend-mode:multiply">
<path d="M13.1865 13.5234C13.046 13.0317 12.5335 12.7469 12.0418 12.8874C11.5501 13.0279 11.2654 13.5404 11.4059 14.0321L11.9946 16.0925H11.3703C10.8589 16.0925 10.4443 16.5071 10.4443 17.0185C10.4443 17.5298 10.8589 17.9444 11.3703 17.9444H12.5237L12.9932 19.5877C13.1027 19.9711 13.4454 20.2413 13.8438 20.2584C14.2422 20.2754 14.6068 20.0355 14.7488 19.6629L15.9999 16.3787L17.251 19.6629C17.393 20.0355 17.7576 20.2754 18.1559 20.2584C18.5543 20.2413 18.897 19.9711 19.0066 19.5877L19.4761 17.9444H20.6295C21.1409 17.9444 21.5554 17.5298 21.5554 17.0185C21.5554 16.5071 21.1409 16.0925 20.6295 16.0925H20.0052L20.5939 14.0321C20.7344 13.5404 20.4497 13.0279 19.958 12.8874C19.4663 12.7469 18.9538 13.0317 18.8133 13.5234L17.9907 16.4026L16.8652 13.4481C16.7284 13.0891 16.3841 12.8518 15.9999 12.8518C15.6157 12.8518 15.2714 13.0891 15.1346 13.4481L14.0091 16.4026L13.1865 13.5234Z" fill="#D63D4A"/>
</g>
</g>
<defs>
<clipPath id="clip0_19690_199540">
<rect width="32" height="32" fill="white"/>
</clipPath>
</defs>
</svg>
