<svg width="32" height="32" viewBox="0 0 32 32" fill="none" xmlns="http://www.w3.org/2000/svg">
<g clip-path="url(#clip0_19610_211975)">
<path d="M16.8853 2.83677L25.7001 6.35919C26.1803 6.55099 26.5941 6.8944 26.8861 7.34353C27.1782 7.79265 27.3347 8.32609 27.3346 8.87252V16.069C27.3347 18.3118 26.7486 20.5104 25.6421 22.4183C24.5356 24.3262 22.9524 25.868 21.0698 26.8711L16.8463 29.1201C16.5839 29.2599 16.2946 29.3327 16.0013 29.3327C15.708 29.3327 15.4187 29.2599 15.1563 29.1201L10.9328 26.8697C9.05024 25.8667 7.46701 24.3248 6.3605 22.4169C5.25399 20.509 4.66792 18.3105 4.66797 16.0677V8.87386C4.66765 8.3272 4.824 7.79347 5.1161 7.34408C5.4082 6.89469 5.82212 6.55107 6.30249 6.35919L15.1173 2.83677C15.6873 2.6091 16.3153 2.6091 16.8853 2.83677Z" fill="#75D0D7"/>
<g style="mix-blend-mode:multiply">
<path fill-rule="evenodd" clip-rule="evenodd" d="M16.0952 20.0221C16.4394 20.0221 16.6255 20.2042 16.9535 20.5641L16.9715 20.5838C17.2669 20.9077 17.7123 21.3967 18.5182 21.3257C18.9988 21.283 19.4577 20.9736 19.8416 20.6077C20.2418 20.2264 20.633 19.717 20.9754 19.1494C21.6557 18.021 22.1905 16.584 22.1905 15.3369V15.2984C22.1905 14.2128 22.1905 12.003 19.9085 10.9653C19.0584 10.5806 18.3248 10.6311 17.6852 10.7627C17.4944 10.8041 17.3046 10.8497 17.1161 10.8995C17.0095 10.9268 16.9116 10.9513 16.8225 10.973C16.5855 11.0354 16.3412 11.0699 16.0952 11.0756C15.8667 11.0756 15.6309 11.0354 15.3635 10.973C15.2731 10.9525 15.1738 10.9282 15.0654 10.9003C14.8829 10.8559 14.6859 10.8063 14.5025 10.7687C13.8684 10.6387 13.1402 10.5875 12.3073 10.9661C9.9991 12.0159 10 14.2128 10 15.3018V15.336C10 16.59 10.5737 18.0321 11.2693 19.1571C11.6198 19.7247 12.0137 20.2324 12.4049 20.6103C12.6 20.7992 12.8023 20.9633 13.0056 21.0864C13.2053 21.2069 13.432 21.3044 13.6714 21.3257C14.4772 21.3967 14.9235 20.9069 15.2189 20.5838L15.237 20.5641C15.5649 20.2051 15.751 20.0221 16.0952 20.0221Z" fill="#19969F"/>
</g>
<path d="M17.2355 12.7077C17.5262 12.5993 17.8629 12.7066 18.0337 12.9799C18.2284 13.292 18.1334 13.7028 17.8215 13.8978L17.5871 14.0346C17.0373 14.3351 16.4626 14.4994 15.8683 14.4994C15.2738 14.4994 14.6984 14.3353 14.1483 14.0346L13.9152 13.8978L13.8084 13.8158C13.5835 13.6022 13.5323 13.2532 13.703 12.9799C13.8736 12.7068 14.2094 12.5997 14.4998 12.7077L14.6209 12.7676L14.7876 12.8653C15.1709 13.075 15.5294 13.1661 15.8683 13.1661C16.2556 13.166 16.668 13.0466 17.1144 12.7676L17.2355 12.7077Z" fill="#75D0D7"/>
<path d="M6.83875 7.64866L12.1911 5.42059C12.4035 5.33214 12.5951 5.6759 12.4151 5.81933C9.64564 8.02602 7.65192 10.7958 6.43396 15.0944C6.37175 15.314 6.00339 15.2701 6.00391 15.0419L6.01784 8.87658C6.01905 8.33925 6.34268 7.85516 6.83875 7.64866Z" fill="white"/>
</g>
<defs>
<clipPath id="clip0_19610_211975">
<rect width="32" height="32" fill="white"/>
</clipPath>
</defs>
</svg>
