<svg width="40" height="40" viewBox="0 0 40 40" fill="none" xmlns="http://www.w3.org/2000/svg">
<path d="M4.9674 15.4167H35.0324C36.0099 15.4167 36.8054 16.2379 36.8054 17.2469V18.6251C36.8054 25.2868 31.5664 30.6945 25.1125 30.6945H14.8842C8.43335 30.6945 3.19434 25.2868 3.19434 18.6251V17.2469C3.19434 16.2379 3.9899 15.4167 4.9674 15.4167Z" fill="#FDCFC3"/>
<path d="M23.8232 9.64858C26.1111 10.8377 26.1111 13.3696 26.1111 14.6136L13.8889 14.6567V14.6175V14.616C13.8889 13.3677 13.8889 10.8519 16.2022 9.64956C17.0373 9.21565 17.7673 9.27442 18.4032 9.4233C18.5871 9.46639 18.7845 9.52321 18.9675 9.57414C19.0762 9.60613 19.1758 9.63389 19.2664 9.65739C19.5345 9.7289 19.7709 9.77493 20 9.77493C20.2466 9.76844 20.4915 9.72896 20.7292 9.65739C20.8185 9.63258 20.9166 9.6045 21.0235 9.57316C21.2126 9.51615 21.4028 9.4639 21.5942 9.41644C22.2354 9.2656 22.9709 9.20781 23.8232 9.64858Z" fill="#D63D4A"/>
<path fill-rule="evenodd" clip-rule="evenodd" d="M7.50008 21.0006C7.82949 21.0006 8.00759 21.2282 8.32143 21.678L8.33873 21.7026C8.62144 22.1076 9.04768 22.7188 9.81889 22.6301C10.2788 22.5767 10.7181 22.1898 11.0855 21.7325C11.4685 21.256 11.8429 20.6191 12.1706 19.9096C12.8216 18.4991 13.3334 16.7029 13.3334 15.144V15.0959C13.3334 13.7389 13.3334 10.9767 11.1495 9.67951C10.3359 9.19867 9.63387 9.26171 9.02175 9.42627C8.83914 9.47804 8.65753 9.53504 8.47706 9.59723C8.37504 9.63143 8.28138 9.66206 8.19607 9.68913C7.96924 9.7672 7.73547 9.81027 7.50008 9.81735C7.28134 9.81735 7.05569 9.76713 6.79977 9.68913C6.71331 9.66348 6.61821 9.63321 6.51446 9.5983C6.33981 9.54274 6.15133 9.48076 5.97582 9.43375C5.36889 9.27133 4.67203 9.20722 3.87489 9.68058C1.66588 10.9927 1.66675 13.7389 1.66675 15.1002V15.1429C1.66675 16.7104 2.21576 18.513 2.88149 19.9192C3.21694 20.6287 3.5939 21.2634 3.96826 21.7357C4.15501 21.9719 4.34868 22.177 4.54321 22.3309C4.73428 22.4816 4.95129 22.6034 5.18041 22.6301C5.95162 22.7188 6.37872 22.1065 6.66144 21.7026L6.67873 21.678C6.99257 21.2292 7.17068 21.0006 7.50008 21.0006Z" fill="#FA967C"/>
<path fill-rule="evenodd" clip-rule="evenodd" d="M32.5001 21.0006C32.8295 21.0006 33.0076 21.2282 33.3214 21.678L33.3387 21.7026C33.6214 22.1076 34.0477 22.7188 34.8189 22.6301C35.2788 22.5767 35.7181 22.1898 36.0855 21.7325C36.4685 21.256 36.8429 20.6191 37.1706 19.9096C37.8216 18.4991 38.3334 16.7029 38.3334 15.144V15.0959C38.3334 13.7389 38.3334 10.9767 36.1495 9.67951C35.3359 9.19867 34.6339 9.26171 34.0217 9.42627C33.8391 9.47804 33.6575 9.53504 33.4771 9.59723C33.375 9.63143 33.2814 9.66206 33.1961 9.68913C32.9692 9.7672 32.7355 9.81027 32.5001 9.81735C32.2813 9.81735 32.0557 9.76713 31.7998 9.68913C31.7133 9.66348 31.6182 9.63321 31.5145 9.5983C31.3398 9.54274 31.1513 9.48076 30.9758 9.43375C30.3689 9.27133 29.672 9.20722 28.8749 9.68058C26.6659 10.9927 26.6667 13.7389 26.6667 15.1002V15.1429C26.6667 16.7104 27.2158 18.513 27.8815 19.9192C28.2169 20.6287 28.5939 21.2634 28.9683 21.7357C29.155 21.9719 29.3487 22.177 29.5432 22.3309C29.7343 22.4816 29.9513 22.6034 30.1804 22.6301C30.9516 22.7188 31.3787 22.1065 31.6614 21.7026L31.6787 21.678C31.9926 21.2292 32.1707 21.0006 32.5001 21.0006Z" fill="#FA967C"/>
<rect x="29.1667" y="14.0278" width="6.11111" height="4.58333" rx="0.458333" fill="#D63D4A"/>
<rect x="4.72217" y="14.0278" width="6.11111" height="4.58333" rx="0.458333" fill="#D63D4A"/>
<path d="M32.9862 15.5554V17.3888H8.54175V15.5554H32.9862Z" fill="#D63D4A"/>
</svg>
