<svg width="32" height="32" viewBox="0 0 32 32" fill="none" xmlns="http://www.w3.org/2000/svg">
<path d="M6.63214 3.59963C6.9599 3.58947 7.27493 3.73198 7.485 3.98374L10.8183 7.98374L10.8834 8.07098C11.1858 8.51914 11.1059 9.13149 10.6816 9.48505C10.2291 9.86218 9.55615 9.80089 9.17901 9.34833L7.7324 7.61135V11.9994C7.7324 12.7799 7.45789 13.3657 7.09698 13.8379C6.9289 14.0578 6.74366 14.2524 6.58005 14.4173C6.40129 14.5975 6.26313 14.7278 6.1074 14.8926C5.82188 15.1947 5.57789 15.5074 5.39516 15.9291C5.21191 16.352 5.06574 16.9432 5.06573 17.821C5.06573 19.4587 5.71887 20.4337 6.49932 21.4121C6.96335 21.9938 7.60024 22.6919 8.00584 23.5801C8.02597 23.6241 8.04418 23.6692 8.06313 23.7142C8.12214 23.8545 8.17522 23.9992 8.22068 24.1491C8.23878 24.2087 8.25584 24.2689 8.27146 24.3301C8.28058 24.3659 8.28928 24.4019 8.2975 24.4382C8.30957 24.4914 8.32001 24.5452 8.33005 24.5996C8.33886 24.6474 8.34763 24.6954 8.35479 24.7442C8.36263 24.7974 8.36856 24.8512 8.37432 24.9056C8.37816 24.9419 8.38316 24.9782 8.38604 25.015C8.39327 25.1071 8.3969 25.2008 8.39776 25.2962C8.39787 25.3084 8.39906 25.3205 8.39906 25.3327V27.9994C8.39906 28.5885 7.92176 29.0671 7.33266 29.0671C6.78042 29.067 6.32602 28.6466 6.27146 28.1087L6.26625 27.9994V25.3327C6.26608 24.4594 5.76556 23.9123 4.83266 22.7429C3.94655 21.632 2.93292 20.1831 2.93292 17.821C2.93293 16.6991 3.1202 15.8123 3.43682 15.0814C3.75404 14.3493 4.1769 13.8309 4.55792 13.4278C4.73525 13.2401 4.93079 13.0494 5.06443 12.9147C5.21323 12.7647 5.31982 12.6494 5.40167 12.5423C5.54055 12.3607 5.59959 12.2186 5.59959 11.9994V7.92124L4.59308 9.29624C4.24485 9.77109 3.57721 9.87454 3.10219 9.52671C2.6278 9.17838 2.52402 8.51066 2.87172 8.03583L5.80531 4.03583C5.99919 3.77155 6.30457 3.61008 6.63214 3.59963Z" fill="#33363D"/>
<path d="M22.61 8.2663C23.1731 8.2665 23.7208 8.4282 24.1959 8.72593L24.3704 8.84312C24.7652 9.12988 25.0879 9.50758 25.317 9.94078L28.9551 16.8197L29.0462 17.0046C29.2451 17.4441 29.3469 17.9242 29.347 18.4082V23.347C29.3469 23.8367 29.2428 24.3277 29.0345 24.7767L27.8978 27.2311C27.6812 27.699 27.3593 28.1113 26.9538 28.4265L26.7741 28.5554C26.651 28.6375 26.5219 28.7092 26.3913 28.7715L26.3926 28.7728C26.3734 28.782 26.3565 28.7897 26.3444 28.7949C26.341 28.7964 26.3369 28.7976 26.334 28.7988L26.1061 28.89L26.1048 28.8887C25.7932 29.0003 25.457 29.0657 25.1074 29.0658H24.2103C23.361 29.0656 22.5639 28.6999 21.9902 28.0801C21.6675 27.7312 21.4322 27.316 21.2858 26.8705H14.9446C14.7982 27.3155 14.5628 27.7302 14.2402 28.0788C13.953 28.3889 13.6099 28.6334 13.235 28.8015C13.1806 28.8259 13.1332 28.844 13.1139 28.8509L13.0944 28.8587C13.0947 28.8582 13.0955 28.8568 13.097 28.8561C12.9818 28.9011 12.8374 28.9531 12.6738 28.9903L12.6725 28.989C12.4647 29.0364 12.2444 29.0658 12.015 29.0658H11.1191C10.868 29.0657 10.6206 29.0314 10.3808 28.9694C10.4781 28.6633 10.5318 28.3373 10.5319 27.9994V26.6986C10.5673 26.7303 10.6044 26.759 10.6426 26.7845C10.7924 26.8845 10.9577 26.9329 11.1191 26.933H12.015L12.1022 26.9278C12.1327 26.9241 12.1651 26.9185 12.1985 26.9108L12.2025 26.9095C12.2241 26.9046 12.2601 26.8935 12.3222 26.8692C12.3423 26.8613 12.3601 26.8551 12.3717 26.8509C12.4526 26.8137 12.5303 26.7646 12.6022 26.7012L12.6751 26.6296C12.8652 26.4238 12.986 26.1274 12.9863 25.8028L12.9915 25.6934C13.0471 25.1565 13.5013 24.7378 14.0527 24.7377H22.1777C22.7666 24.7377 23.2437 25.2153 23.2441 25.8041C23.2442 26.1285 23.3645 26.4257 23.5553 26.6322C23.7436 26.8355 23.9819 26.9328 24.2103 26.933H25.1074L25.2428 26.9199C25.2893 26.9115 25.338 26.8986 25.3873 26.8809L25.39 26.8796C25.4209 26.8685 25.442 26.86 25.4564 26.8535C25.464 26.8501 25.471 26.8458 25.4772 26.8431C25.5153 26.8247 25.5541 26.8053 25.5892 26.7819L25.6985 26.6973C25.8037 26.603 25.8956 26.4806 25.9629 26.3353L27.0996 23.8796C27.1546 23.7608 27.1915 23.6266 27.2064 23.4877L27.2142 23.347V18.4082C27.2141 18.2496 27.1845 18.095 27.1308 17.9538L27.0696 17.8171L23.4316 10.9382C23.3616 10.8059 23.2706 10.6952 23.1686 10.61L23.0631 10.5332C22.9551 10.4656 22.8397 10.4247 22.7246 10.4082L22.61 10.3991H13.6256C13.4725 10.3994 13.3159 10.4433 13.1725 10.5332C13.0277 10.6242 12.8973 10.7619 12.804 10.9382L9.16599 17.8171C9.07322 17.9924 9.02157 18.1971 9.02146 18.4082V21.1478C8.67149 20.671 8.34997 20.3104 8.16729 20.0814C7.49324 19.2363 7.19865 18.7345 7.19854 17.821C7.19861 17.192 7.30163 16.8952 7.35219 16.778C7.4014 16.6646 7.471 16.5555 7.65818 16.3574C7.79525 16.2125 7.85319 16.163 8.09438 15.9199C8.27688 15.736 8.53999 15.4634 8.79229 15.1335L9.00584 14.8353C9.48999 14.1094 9.86511 13.1735 9.86521 11.9994V11.9317L10.9186 9.94078C11.1805 9.44561 11.5654 9.02349 12.0397 8.72593C12.5151 8.42786 13.0631 8.26666 13.6256 8.2663H22.61Z" fill="#33363D"/>
<path d="M22.8001 16.933C23.3888 16.9333 23.8662 17.4107 23.8665 17.9994C23.8665 18.5883 23.389 19.0655 22.8001 19.0658H13.4668C12.8777 19.0658 12.4004 18.5885 12.4004 17.9994C12.4006 17.4105 12.8778 16.933 13.4668 16.933H22.8001Z" fill="#33363D"/>
</svg>
