<svg width="25" height="25" viewBox="0 0 25 25" fill="none" xmlns="http://www.w3.org/2000/svg">
<g style="mix-blend-mode:multiply">
<path d="M13.0089 2.66663C13.9291 2.66684 14.3414 3.41295 14.3414 4.33329V11.5555H18.1196C19.1167 11.5556 19.9607 12.2123 20.242 13.1169L20.2962 13.3296C20.3259 13.4744 20.3418 13.6242 20.3418 13.7777V18.2222C20.3417 20.6766 18.3518 22.6665 15.8974 22.6666H14.9414C15.6517 21.7899 16.1197 20.6099 16.1198 19.3333C16.1196 18.9039 15.7712 18.5564 15.3418 18.5564C14.9124 18.5564 14.564 18.9039 14.5638 19.3333C14.5637 20.2525 14.2172 21.1069 13.7023 21.7248C13.2447 22.2737 12.704 22.5838 12.2146 22.6525L12.0085 22.6666H9.94142C10.6517 21.7899 11.1197 20.6099 11.1198 19.3333C11.1196 18.9039 10.7712 18.5564 10.3418 18.5564C9.91238 18.5564 9.56402 18.9039 9.56381 19.3333C9.56375 20.2525 9.21721 21.1069 8.70227 21.7248C8.24468 22.2737 7.70397 22.5838 7.21464 22.6525L7.00847 22.6666H3.19771C2.98793 22.6666 2.89018 22.397 3.04363 22.2543C4.85571 20.5787 5.89729 18.2147 5.89736 15.7276V13.7777C5.89751 12.5507 6.89252 11.5557 8.11959 11.5555H11.8414V4.33329C11.8414 3.41282 12.0884 2.66663 13.0089 2.66663Z" fill="#6D7882"/>
</g>
</svg>
