<svg width="32" height="32" viewBox="0 0 32 32" fill="none" xmlns="http://www.w3.org/2000/svg">
<path d="M5.63029 13.0741C7.26618 13.0744 8.59214 14.4004 8.59253 16.0363V23.444C8.59253 23.8531 8.26089 24.1847 7.85179 24.1847H5.63029C4.81209 24.1847 4.14852 23.5212 4.14852 22.703V19.0257C4.14852 18.7615 4.00309 18.5228 3.79565 18.3592C3.10894 17.8174 2.66693 16.9803 2.66675 16.0376C2.66675 14.4012 3.99389 13.0741 5.63029 13.0741Z" fill="#8C97C8"/>
<path d="M26.3699 13.0741C28.0061 13.0741 29.3331 14.4002 29.3334 16.0363C29.3334 16.9793 28.8914 17.8171 28.2045 18.3591C27.9971 18.5228 27.8516 18.7615 27.8516 19.0257V22.703C27.8516 23.5212 27.1881 24.1847 26.3699 24.1847H24.1484C23.7393 24.1847 23.4076 23.8531 23.4076 23.444V16.0363C23.4079 14.4004 24.7339 13.0744 26.3699 13.0741Z" fill="#8C97C8"/>
<path d="M7.33342 6.96296C7.33342 5.32657 8.65998 4 10.2964 4H21.7038C23.3402 4 24.6667 5.32656 24.6667 6.96296V24.2H7.33342V6.96296Z" fill="#8C97C8"/>
<g style="mix-blend-mode:multiply">
<path d="M12.6663 13.222C13.2798 13.222 13.778 13.6996 13.7783 14.2884C13.7783 14.8775 13.28 15.3561 12.6663 15.3561C12.0529 15.3559 11.5557 14.8774 11.5557 14.2884C11.556 13.6997 12.0531 13.2222 12.6663 13.222Z" fill="#5B658C"/>
<path d="M19.333 13.222C19.9465 13.222 20.4447 13.6996 20.445 14.2884C20.445 14.8775 19.9467 15.3561 19.333 15.3561C18.7196 15.3559 18.2223 14.8774 18.2223 14.2884C18.2227 13.6997 18.7198 13.2222 19.333 13.222Z" fill="#5B658C"/>
<path d="M12.6663 8.03711C13.2799 8.03711 13.7782 8.51453 13.7783 9.10352C13.7783 9.69262 13.28 10.1699 12.6663 10.1699C12.0529 10.1697 11.5557 9.69248 11.5557 9.10352C11.5558 8.51467 12.053 8.03733 12.6663 8.03711Z" fill="#5B658C"/>
<path d="M19.333 8.03711C19.9466 8.03711 20.4448 8.51453 20.445 9.10352C20.445 9.69262 19.9467 10.1699 19.333 10.1699C18.7196 10.1697 18.2223 9.69248 18.2223 9.10352C18.2225 8.51467 18.7196 8.03733 19.333 8.03711Z" fill="#5B658C"/>
</g>
<g style="mix-blend-mode:multiply">
<path d="M5.62964 24.1852H8.5926V24.9259C8.5926 25.335 8.26096 25.6667 7.85186 25.6667H6.37038C5.96128 25.6667 5.62964 25.335 5.62964 24.9259V24.1852Z" fill="#5B658C"/>
<path d="M23.4074 24.1852H26.3704V24.9259C26.3704 25.335 26.0387 25.6667 25.6296 25.6667H24.1482C23.7391 25.6667 23.4074 25.335 23.4074 24.9259V24.1852Z" fill="#5B658C"/>
<path d="M8.59262 20.4815C8.59262 19.6633 9.2559 19 10.0741 19H21.926C22.7442 19 23.4074 19.6633 23.4074 20.4815L23.4074 24.1852H8.5926L8.59262 20.4815Z" fill="#5B658C"/>
</g>
</svg>
