<svg width="32" height="32" viewBox="0 0 32 32" fill="none" xmlns="http://www.w3.org/2000/svg">
<g clip-path="url(#clip0_19610_130961)">
<path d="M12.668 11.9993C15.2453 11.9993 17.3346 9.91001 17.3346 7.33268C17.3346 4.75535 15.2453 2.66602 12.668 2.66602C10.0906 2.66602 8.0013 4.75535 8.0013 7.33268C8.0013 9.91001 10.0906 11.9993 12.668 11.9993Z" fill="#EECBAE"/>
<path d="M19.3298 17.5593L18.68 16.2793C17.7593 14.466 15.8909 13.3327 13.833 13.3327H12.9665C10.0285 13.3327 7.63215 15.626 7.55091 18.5193V18.6393L6.68442 26.3727C6.50841 27.946 7.76754 29.3327 9.37868 29.3327H23.8519C25.4088 29.3327 26.668 28.0927 26.668 26.5593C26.668 22.1593 23.5269 18.4793 19.3298 17.5593Z" fill="#EECBAE"/>
<g style="mix-blend-mode:multiply">
<path d="M25.7967 20C25.3381 20.0067 24.8895 20.1278 24.4963 20.351C24.103 20.5741 23.7789 21.0758 23.5568 21.4553C23.3348 21.0758 23.0107 20.5741 22.6174 20.351C22.2242 20.1278 21.7756 20.0067 21.317 20C20.586 20.03 19.8972 20.3325 19.4013 20.8412C18.9053 21.35 18.6423 22.0237 18.6699 22.7152C18.6699 25.3244 23.1317 28.6035 23.3215 28.7313C23.4639 28.8267 23.6498 28.8267 23.7922 28.7313C23.982 28.6043 28.4438 25.3244 28.4438 22.7152C28.4713 22.0237 28.2084 21.35 27.7124 20.8412C27.2164 20.3325 26.5277 20.03 25.7967 20Z" fill="#7E6254"/>
</g>
</g>
<defs>
<clipPath id="clip0_19610_130961">
<rect width="32" height="32" fill="white"/>
</clipPath>
</defs>
</svg>
