<svg width="32" height="32" viewBox="0 0 32 32" fill="none" xmlns="http://www.w3.org/2000/svg">
<g clip-path="url(#clip0_19610_189905)">
<path d="M27.6667 15.6667C27.6667 22.11 22.4433 27.3333 16 27.3333C9.55669 27.3333 4.33334 22.11 4.33334 15.6667C4.33334 9.22334 9.55669 4 16 4C22.4433 4 27.6667 9.22334 27.6667 15.6667Z" fill="white"/>
<path d="M27.6667 15.6667C27.6667 22.11 22.4433 27.3333 16 27.3333C9.55669 27.3333 4.33334 22.11 4.33334 15.6667C4.33334 9.22334 9.55669 4 16 4C22.4433 4 27.6667 9.22334 27.6667 15.6667Z" fill="#EECBAE"/>
<g style="mix-blend-mode:multiply">
<path d="M24.3333 15.6667C24.3333 11.0643 20.6024 7.33333 16 7.33333C11.3976 7.33333 7.66668 11.0643 7.66668 15.6667C7.66668 16.5871 6.92048 17.3333 6.00001 17.3333C5.07954 17.3333 4.33334 16.5871 4.33334 15.6667C4.33334 9.22334 9.55669 4 16 4C22.4433 4 27.6667 9.22334 27.6667 15.6667C27.6667 16.5871 26.9205 17.3333 26 17.3333C25.0795 17.3333 24.3333 16.5871 24.3333 15.6667Z" fill="#7E6254"/>
</g>
<g style="mix-blend-mode:multiply">
<path d="M18.0105 13.0072C18.4658 12.5524 19.2037 12.5522 19.6589 13.0072C20.1143 13.4626 20.1143 14.2016 19.6589 14.657L13.991 20.3249C13.5356 20.7803 12.7966 20.7803 12.3412 20.3249C11.8862 19.8697 11.8864 19.1318 12.3412 18.6765L18.0105 13.0072Z" fill="#7E6254"/>
<path d="M18.6667 17.9994C19.4031 17.9994 20 18.5964 20.0001 19.3328C20.0001 20.0691 19.4031 20.6661 18.6667 20.6661C17.9304 20.666 17.3334 20.0691 17.3334 19.3328C17.3335 18.5965 17.9305 17.9995 18.6667 17.9994Z" fill="#7E6254"/>
<path d="M13.3334 12.6661C14.0697 12.6661 14.6667 13.2631 14.6667 13.9994C14.6667 14.7358 14.0698 15.3328 13.3334 15.3328C12.5971 15.3327 12.0001 14.7358 12.0001 13.9994C12.0002 13.2632 12.5971 12.6662 13.3334 12.6661Z" fill="#7E6254"/>
</g>
</g>
<defs>
<clipPath id="clip0_19610_189905">
<rect width="32" height="32" fill="white"/>
</clipPath>
</defs>
</svg>
