<svg width="32" height="32" viewBox="0 0 32 32" fill="none" xmlns="http://www.w3.org/2000/svg">
<g style="mix-blend-mode:multiply">
<g clip-path="url(#clip0_100_3455)">
<path d="M14.1093 7.23953C13.594 6.72829 13.3333 6.09712 13.3333 5.33342C13.3333 4.57286 13.594 3.93539 14.1093 3.4273C14.6216 2.91921 15.2083 2.66675 15.9596 2.66675C16.7108 2.66675 17.3472 2.91921 17.875 3.4273C18.4027 3.93539 18.6666 4.56971 18.6666 5.33342C18.6666 6.09712 18.4027 6.72829 17.875 7.23953C17.3472 7.74762 16.6829 8.00008 15.9596 8.00008C15.2362 8.00008 14.6216 7.74762 14.1093 7.23953Z" fill="white"/>
<path d="M16 21.333C17.4727 21.333 18.6665 22.5271 18.6667 23.9997V26.6663H13.3333V23.9997C13.3335 22.5271 14.5273 21.333 16 21.333Z" fill="#8C97C8"/>
<path d="M18.6667 9.33301C21.6121 9.33301 23.9998 11.721 24 14.6663V21.333C24 23.8181 22.3003 25.9063 20 26.4984V23.9997C19.9998 21.7907 18.209 19.9997 16 19.9997C13.791 19.9997 12.0002 21.7907 12 23.9997V26.4984C9.69973 25.9063 8 23.8181 8 21.333V14.6663C8.00018 11.721 10.3879 9.33301 13.3333 9.33301H18.6667Z" fill="#8C97C8"/>
<path d="M13.3333 24.0002C13.3333 22.5274 14.5272 21.3335 15.9999 21.3335C17.4727 21.3335 18.6666 22.5274 18.6666 24.0002V28.0002C18.6666 29.4729 17.4727 30.6668 15.9999 30.6668C14.5272 30.6668 13.3333 29.4729 13.3333 28.0002V24.0002Z" fill="#D9D9D9"/>
<path d="M13.3333 24.0002C13.3333 22.5274 14.5272 21.3335 15.9999 21.3335C17.4727 21.3335 18.6666 22.5274 18.6666 24.0002V28.0002C18.6666 29.4729 17.4727 30.6668 15.9999 30.6668C14.5272 30.6668 13.3333 29.4729 13.3333 28.0002V24.0002Z" fill="#5B658C"/>
<ellipse cx="11.9998" cy="14.6668" rx="1.33333" ry="1.33333" fill="white"/>
<ellipse cx="19.9998" cy="14.6668" rx="1.33333" ry="1.33333" fill="white"/>
<path d="M17.867 6.66683C17.867 6.18001 17.7269 5.79506 17.4478 5.47152L17.3201 5.3374C16.9458 4.97703 16.51 4.79964 15.9595 4.79964C15.4232 4.79964 15.038 4.96641 14.673 5.32829L14.6704 5.33089C14.3154 5.68119 14.1326 6.10997 14.1326 6.66683C14.1326 7.22512 14.3146 7.64978 14.673 8.00537L14.811 8.13037C15.1393 8.40326 15.5105 8.53402 15.9595 8.53402C16.4206 8.53402 16.8325 8.39641 17.1769 8.12256L17.3201 7.99626C17.6857 7.64126 17.867 7.22044 17.867 6.66683ZM19.466 6.66683C19.466 7.63941 19.1204 8.48029 18.4321 9.1473L18.4295 9.1499C17.7454 9.80834 16.879 10.133 15.9595 10.133C15.1428 10.133 14.415 9.87689 13.8019 9.37256L13.5454 9.14079C12.8734 8.47393 12.5337 7.63583 12.5337 6.66683C12.5337 5.70382 12.8715 4.85835 13.5454 4.19287L13.7993 3.9624C14.4051 3.45944 15.1141 3.20069 15.9595 3.20068C16.9113 3.20068 17.7484 3.52823 18.4295 4.18376L18.673 4.44287C19.202 5.0638 19.466 5.81714 19.466 6.66683Z" fill="#5B658C"/>
<path d="M25.3333 5.3335L25.47 5.34001C26.1421 5.40845 26.6666 5.97659 26.6666 6.66683C26.6666 7.35707 26.1421 7.92521 25.47 7.99365L25.3333 8.00016H6.66659C5.93021 8.00016 5.33325 7.40321 5.33325 6.66683C5.33325 5.93045 5.93021 5.3335 6.66659 5.3335H25.3333Z" fill="#5B658C"/>
<circle cx="16" cy="6.66675" r="2" fill="white"/>
</g>
</g>
<defs>
<clipPath id="clip0_100_3455">
<rect width="21.3333" height="28" fill="white" transform="translate(5.33325 2.66675)"/>
</clipPath>
</defs>
</svg>
