<svg width="24" height="24" viewBox="0 0 24 24" fill="none" xmlns="http://www.w3.org/2000/svg">
<g style="mix-blend-mode:multiply">
<path d="M12.8402 2C13.7604 2.00021 14.1727 2.74632 14.1727 3.66667V10.8889H17.9509C18.948 10.889 19.792 11.5457 20.0733 12.4503L20.1275 12.663C20.1572 12.8077 20.1731 12.9576 20.1731 13.1111V17.5556C20.173 20.01 18.1831 21.9999 15.7287 22H14.7727C15.483 21.1233 15.951 19.9433 15.9511 18.6667C15.9509 18.2373 15.6025 17.8898 15.1731 17.8898C14.7437 17.8898 14.3953 18.2373 14.3951 18.6667C14.395 19.5858 14.0485 20.4403 13.5336 21.0582C13.076 21.607 12.5353 21.9171 12.0459 21.9859L11.8398 22H9.77272C10.483 21.1233 10.951 19.9433 10.9511 18.6667C10.9509 18.2373 10.6025 17.8898 10.1731 17.8898C9.74368 17.8898 9.39532 18.2373 9.39511 18.6667C9.39504 19.5858 9.04851 20.4403 8.53357 21.0582C8.07598 21.607 7.53526 21.9171 7.04594 21.9859L6.83977 22H3.02901C2.81923 22 2.72148 21.7304 2.87493 21.5877C4.68701 19.912 5.72859 17.548 5.72866 15.061V13.1111C5.72881 11.884 6.72382 10.8891 7.95088 10.8889H11.6727V3.66667C11.6727 2.74619 11.9197 2 12.8402 2Z" fill="#6D7882"/>
</g>
</svg>
