<svg width="32" height="33" viewBox="0 0 32 33" fill="none" xmlns="http://www.w3.org/2000/svg">
<path d="M6.52823 5.401C6.52823 5.401 10.0289 7.36179 15.2799 7.36179C20.531 7.36179 24.0317 5.401 24.0317 5.401L29.811 23.0265C29.893 23.2766 29.8158 23.5481 29.598 23.6959C28.4028 24.5071 24.0523 26.9696 15.2799 26.9696C6.50763 26.9696 2.15706 24.5071 0.961917 23.6959C0.744102 23.5481 0.666922 23.2766 0.748942 23.0265L6.52823 5.401Z" fill="#8C97C8"/>
<path d="M25.6662 10.4076C25.4751 10.967 25.1812 11.5856 24.7539 12.1802C23.727 13.6086 21.9465 14.8745 19.0751 14.8746C17.9306 14.8746 17.1461 15.1819 16.6037 15.6237C16.337 15.8409 16.1195 16.0993 15.9431 16.3859C16.7599 16.7079 17.7504 17.5135 18.0091 17.7722C18.3751 18.138 19.4729 17.0406 19.8389 17.0404C20.2049 17.0404 20.2052 19.2356 19.4735 19.602C18.888 19.8948 17.2776 18.9919 16.5455 18.5039C16.6675 19.2359 16.8383 21.0661 16.5455 22.53C16.1793 24.3596 12.8856 25.091 9.22612 22.8954C6.63385 21.34 6.38174 18.8103 6.66449 17.0404C6.74822 16.5164 7.01966 16.3986 6.77213 16.0951C6.03153 15.4254 5.56641 14.4569 5.56641 13.3798C5.56652 11.3587 7.05829 10.0135 9.07942 10.0135C11.1005 10.0135 12.5194 11.3588 12.5195 13.3798C12.5195 13.7726 12.4703 14.151 12.378 14.5057C12.4687 14.7226 12.5195 14.9607 12.5195 15.2105C12.5194 15.8082 12.231 16.3367 11.7877 16.6706V16.6741L12.5195 17.0404C12.7635 15.6985 13.3984 13.0879 13.9839 13.3807C14.7152 13.7466 14.3494 14.1128 14.3494 15.9423C14.3493 17.4061 13.6172 18.7477 13.2513 19.2357L14.3494 19.602C14.3494 19.4254 14.3563 19.2145 14.3676 18.9857C14.3711 18.3826 14.4409 17.7349 14.6202 17.1116C14.6271 17.0877 14.6356 17.0642 14.6428 17.0404C14.654 17.0024 14.6654 16.9653 14.6775 16.9293C14.9217 16.1783 15.3372 15.4513 16.0143 14.8998C16.7508 14.3 17.7543 13.9406 19.0751 13.9406C21.6268 13.9405 23.1329 12.8359 23.996 11.635C24.4332 11.0268 24.71 10.3873 24.8667 9.84162C25.0077 9.35075 25.0416 8.97156 25.0308 8.77565L25.0238 8.70273L25.0186 8.60811C25.0204 8.56869 25.0273 8.53027 25.0386 8.49353L25.6662 10.4076Z" fill="white"/>
<g style="mix-blend-mode:multiply">
<path d="M28.6287 18.4076C28.1701 18.4143 27.7216 18.5354 27.3283 18.7586C26.935 18.9817 26.611 19.4834 26.3889 19.8629C26.1668 19.4834 25.8427 18.9817 25.4495 18.7586C25.0562 18.5354 24.6076 18.4143 24.149 18.4076C23.418 18.4376 22.7293 18.7401 22.2333 19.2488C21.7373 19.7576 21.4744 20.4313 21.502 21.1228C21.502 23.732 25.9637 27.0111 26.1535 27.1389C26.2959 27.2343 26.4818 27.2343 26.6243 27.1389C26.814 27.0118 31.2758 23.732 31.2758 21.1228C31.3034 20.4313 31.0405 19.7576 30.5445 19.2488C30.0485 18.7401 29.3597 18.4376 28.6287 18.4076Z" fill="#5B658C"/>
</g>
</svg>
