<svg width="25" height="25" viewBox="0 0 25 25" fill="none" xmlns="http://www.w3.org/2000/svg">
<g clip-path="url(#clip0_14095_196701)">
<g clip-path="url(#clip1_14095_196701)">
<g clip-path="url(#clip2_14095_196701)">
<path fill-rule="evenodd" clip-rule="evenodd" d="M11.4268 1.80811C11.9045 1.62028 12.4314 1.62028 12.9092 1.80811L20.2979 4.71338C20.7003 4.87161 21.0472 5.15535 21.292 5.52588C21.5368 5.89639 21.668 6.33684 21.668 6.7876V12.7241C21.668 14.5745 21.1765 16.3884 20.249 17.9624C19.3216 19.5363 17.9949 20.8087 16.417 21.6362L12.876 23.4917C12.6562 23.6069 12.4137 23.6665 12.168 23.6665C11.9222 23.6665 11.6798 23.6069 11.46 23.4917L7.91895 21.6353C6.34107 20.8078 5.01439 19.5353 4.08691 17.9614C3.15941 16.3874 2.66794 14.5735 2.66797 12.7231V6.78858C2.6677 6.33758 2.7991 5.89663 3.04395 5.52588C3.28878 5.1553 3.63555 4.87163 4.03809 4.71338L11.4268 1.80811ZM8.91895 13.6001C8.322 13.6002 7.74927 13.8355 7.32715 14.2534C6.90502 14.6714 6.66797 15.2385 6.66797 15.8296C6.66802 16.1841 6.81028 16.5242 7.06348 16.7749C7.31675 17.0256 7.66039 17.1664 8.01856 17.1665H13.4219C13.7801 17.1665 14.1246 17.0257 14.3779 16.7749C14.6311 16.5242 14.7734 16.1841 14.7734 15.8296C14.7734 15.2386 14.5363 14.6714 14.1143 14.2534C13.692 13.8354 13.1186 13.6001 12.5215 13.6001H8.91895ZM13.7959 11.1685C13.7246 11.8197 13.447 12.4309 13.0039 12.9146C13.7445 12.9831 14.4446 13.305 14.9795 13.8345C15.1017 13.9555 15.2102 14.0879 15.3105 14.2251H16.5098C16.8168 14.2251 17.112 14.105 17.3291 13.8901C17.5461 13.6752 17.668 13.3826 17.668 13.0786C17.6678 12.5722 17.4643 12.0862 17.1025 11.728C16.7407 11.3699 16.249 11.1685 15.7373 11.1685H13.7959ZM10.7207 8.93115C10.155 8.93115 9.61192 9.15429 9.21191 9.55029C8.81217 9.94625 8.58789 10.4836 8.58789 11.0435C8.588 11.6033 8.81201 12.1407 9.21191 12.5366C9.61192 12.9326 10.155 13.1548 10.7207 13.1548C11.2862 13.1548 11.8286 12.9324 12.2285 12.5366C12.6284 12.1407 12.8534 11.6033 12.8535 11.0435C12.8535 10.4834 12.6285 9.94629 12.2285 9.55029C11.8285 9.15431 11.2864 8.93117 10.7207 8.93115ZM14.1943 7.16651C13.7096 7.16651 13.2442 7.35759 12.9014 7.69678C12.7225 7.87398 12.5843 8.08421 12.4932 8.31299C12.6376 8.41363 12.7764 8.52528 12.9033 8.65088L13.1084 8.87744C13.5418 9.40154 13.7895 10.0578 13.8105 10.7446C13.9357 10.7713 14.0643 10.7866 14.1943 10.7866C14.6791 10.7866 15.1435 10.5956 15.4863 10.2563C15.8292 9.91692 16.0225 9.4561 16.0225 8.97608C16.0223 8.49627 15.829 8.03606 15.4863 7.69678C15.1435 7.35762 14.679 7.16652 14.1943 7.16651Z" fill="#6D7882"/>
</g>
</g>
</g>
<defs>
<clipPath id="clip0_14095_196701">
<rect width="24" height="24" fill="white" transform="translate(0.167969 0.666748)"/>
</clipPath>
<clipPath id="clip1_14095_196701">
<rect width="24" height="24" fill="white" transform="translate(0.167969 0.666748)"/>
</clipPath>
<clipPath id="clip2_14095_196701">
<rect width="24" height="24" fill="white" transform="translate(0.167969 0.666748)"/>
</clipPath>
</defs>
</svg>
