<svg width="32" height="32" viewBox="0 0 32 32" fill="none" xmlns="http://www.w3.org/2000/svg">
<g clip-path="url(#clip0_19610_130930)">
<path d="M6.35636 4.73438C6.35636 4.73438 9.85704 6.69516 15.1081 6.69516C20.3591 6.69516 23.8598 4.73438 23.8598 4.73438L29.6391 22.3599C29.7211 22.61 29.6439 22.8814 29.4261 23.0293C28.231 23.8405 23.8804 26.303 15.1081 26.303C6.33575 26.303 1.98519 23.8405 0.790042 23.0293C0.572228 22.8814 0.495047 22.61 0.577067 22.3599L6.35636 4.73438Z" fill="#C8A1EF"/>
<path d="M25.4982 9.74023C25.3071 10.2997 25.0132 10.9183 24.5859 11.5128C23.559 12.9413 21.7786 14.2072 18.9071 14.2072C17.7626 14.2072 16.9782 14.5146 16.4357 14.9564C16.1691 15.1736 15.9516 15.4319 15.7751 15.7185C16.5919 16.0406 17.5825 16.8462 17.8411 17.1048C18.2071 17.4706 19.3049 16.3732 19.671 16.373C20.0369 16.373 20.0372 18.5683 19.3055 18.9347C18.72 19.2274 17.1096 18.3246 16.3776 17.8366C16.4996 18.5685 16.6703 20.3987 16.3776 21.8626C16.0113 23.6922 12.7176 24.4237 9.05815 22.228C6.46589 20.6727 6.21377 18.1429 6.49653 16.373C6.58025 15.8491 6.85169 15.7312 6.60416 15.4277C5.86356 14.758 5.39844 13.7896 5.39844 12.7124C5.39855 10.6914 6.89032 9.34613 8.91145 9.34613C10.9325 9.34618 12.3514 10.6914 12.3515 12.7124C12.3515 13.1053 12.3023 13.4836 12.2101 13.8383C12.3007 14.0553 12.3515 14.2933 12.3515 14.5432C12.3515 15.1408 12.063 15.6693 11.6198 16.0032V16.0067L12.3515 16.373C12.5955 15.0311 13.2304 12.4205 13.816 12.7133C14.5473 13.0792 14.1814 13.4455 14.1814 15.2749C14.1813 16.7388 13.4493 18.0804 13.0833 18.5683L14.1814 18.9347C14.1814 18.7581 14.1883 18.5472 14.1996 18.3183C14.2032 17.7153 14.273 17.0675 14.4522 16.4442C14.4591 16.4203 14.4676 16.3969 14.4748 16.373C14.4861 16.335 14.4975 16.2979 14.5095 16.2619C14.7538 15.511 15.1692 14.7839 15.8463 14.2324C16.5828 13.6326 17.5863 13.2732 18.9071 13.2732C21.4588 13.2731 22.9649 12.1686 23.8281 10.9677C24.2653 10.3594 24.542 9.71993 24.6987 9.17426C24.8397 8.6834 24.8736 8.3042 24.8628 8.10829L24.8559 8.03537L24.8506 7.94075C24.8524 7.90133 24.8594 7.86291 24.8706 7.82617L25.4982 9.74023Z" fill="white"/>
<g style="mix-blend-mode:multiply">
<path d="M28.4607 17.7402C28.0022 17.747 27.5536 17.868 27.1603 18.0912C26.767 18.3143 26.443 18.8161 26.2209 19.1955C25.9988 18.8161 25.6748 18.3143 25.2815 18.0912C24.8882 17.868 24.4397 17.747 23.9811 17.7402C23.2501 17.7703 22.5613 18.0727 22.0653 18.5814C21.5693 19.0902 21.3064 19.7639 21.334 20.4554C21.334 23.0647 25.7957 26.3437 25.9855 26.4716C26.128 26.5669 26.3138 26.5669 26.4563 26.4716C26.6461 26.3445 31.1078 23.0647 31.1078 20.4554C31.1354 19.7639 30.8725 19.0902 30.3765 18.5814C29.8805 18.0727 29.1918 17.7703 28.4607 17.7402Z" fill="#9548E5"/>
</g>
</g>
<defs>
<clipPath id="clip0_19610_130930">
<rect width="32" height="32" fill="white"/>
</clipPath>
</defs>
</svg>
