<svg width="24" height="24" viewBox="0 0 24 24" fill="none" xmlns="http://www.w3.org/2000/svg">
<path d="M12 2.5C13.0526 2.5 14.0055 3.09074 15.9102 4.27344L17.8213 5.45996C19.6159 6.57438 20.5148 7.13256 21.0059 8.03223C21.4997 8.93272 21.5 10.0193 21.5 12.1934V13.6387C21.5 17.3446 21.4991 19.1972 20.3867 20.3486C19.2743 21.5 17.4826 21.5 13.9004 21.5H10.0996C6.51742 21.5 4.72664 21.5 3.61328 20.3486C2.49992 19.1972 2.5 17.3436 2.5 13.6387V12.1924C2.5 10.0193 2.5003 8.93177 2.99414 8.03223C3.48664 7.13168 4.38546 6.57266 6.18359 5.45605L8.09082 4.27344C9.99585 3.0911 10.9476 2.5 12 2.5ZM10 16.2002C9.55817 16.2002 9.2002 16.5582 9.2002 17C9.2002 17.4418 9.55817 17.7998 10 17.7998H14L14.082 17.7959C14.4853 17.7548 14.7998 17.4141 14.7998 17C14.7998 16.5859 14.4853 16.2452 14.082 16.2041L14 16.2002H10Z" fill="#6D7882"/>
</svg>
