<svg width="41" height="40" viewBox="0 0 41 40" fill="none" xmlns="http://www.w3.org/2000/svg">
<path d="M5.80041 15.4166H35.8654C36.8429 15.4166 37.6385 16.2378 37.6385 17.2468V18.625C37.6385 25.2867 32.3994 30.6944 25.9455 30.6944H15.7172C9.26636 30.6944 4.02734 25.2867 4.02734 18.625V17.2468C4.02734 16.2378 4.82291 15.4166 5.80041 15.4166Z" fill="#FDCFC3"/>
<path d="M24.6569 9.64846C26.9449 10.8376 26.9449 13.3695 26.9449 14.6135L14.7227 14.6566V14.6174V14.6159C14.7227 13.3676 14.7227 10.8518 17.0359 9.64944C17.8711 9.21552 18.6011 9.27429 19.2369 9.42318C19.4208 9.46627 19.6182 9.52308 19.8012 9.57402C19.9099 9.60601 20.0095 9.63376 20.1001 9.65727C20.3682 9.72877 20.6046 9.77481 20.8338 9.77481C21.0804 9.76832 21.3253 9.72884 21.5629 9.65727C21.6523 9.63246 21.7504 9.60438 21.8573 9.57304C22.0463 9.51603 22.2366 9.46378 22.4279 9.41632C23.0692 9.26548 23.8046 9.20769 24.6569 9.64846Z" fill="#D63D4A"/>
<path fill-rule="evenodd" clip-rule="evenodd" d="M8.33333 21.0006C8.66274 21.0006 8.84084 21.2282 9.15469 21.678L9.17198 21.7026C9.4547 22.1076 9.88093 22.7188 10.6521 22.6301C11.1121 22.5767 11.5513 22.1898 11.9188 21.7325C12.3018 21.256 12.6761 20.6191 13.0038 19.9096C13.6548 18.4991 14.1667 16.7029 14.1667 15.144V15.0959C14.1667 13.7389 14.1667 10.9767 11.9827 9.67951C11.1692 9.19867 10.4671 9.26171 9.855 9.42627C9.67239 9.47804 9.49078 9.53504 9.31031 9.59723C9.20829 9.63143 9.11463 9.66206 9.02932 9.68913C8.8025 9.7672 8.56872 9.81027 8.33333 9.81735C8.11459 9.81735 7.88894 9.76713 7.63302 9.68913C7.54656 9.66348 7.45146 9.63321 7.34771 9.5983C7.17307 9.54274 6.98459 9.48076 6.80908 9.43375C6.20214 9.27133 5.50529 9.20722 4.70814 9.68058C2.49914 10.9927 2.5 13.7389 2.5 15.1002V15.1429C2.5 16.7104 3.04901 18.513 3.71474 19.9192C4.0502 20.6287 4.42715 21.2634 4.80152 21.7357C4.98827 21.9719 5.18193 22.177 5.37646 22.3309C5.56754 22.4816 5.78455 22.6034 6.01366 22.6301C6.78487 22.7188 7.21197 22.1065 7.49469 21.7026L7.51198 21.678C7.82582 21.2292 8.00393 21.0006 8.33333 21.0006Z" fill="#FA967C"/>
<path fill-rule="evenodd" clip-rule="evenodd" d="M33.3333 21.0006C33.6627 21.0006 33.8408 21.2282 34.1547 21.678L34.172 21.7026C34.4547 22.1076 34.8809 22.7188 35.6521 22.6301C36.1121 22.5767 36.5513 22.1898 36.9188 21.7325C37.3018 21.256 37.6761 20.6191 38.0038 19.9096C38.6548 18.4991 39.1667 16.7029 39.1667 15.144V15.0959C39.1667 13.7389 39.1667 10.9767 36.9827 9.67951C36.1692 9.19867 35.4671 9.26171 34.855 9.42627C34.6724 9.47804 34.4908 9.53504 34.3103 9.59723C34.2083 9.63143 34.1146 9.66206 34.0293 9.68913C33.8025 9.7672 33.5687 9.81027 33.3333 9.81735C33.1146 9.81735 32.8889 9.76713 32.633 9.68913C32.5466 9.66348 32.4515 9.63321 32.3477 9.5983C32.1731 9.54274 31.9846 9.48076 31.8091 9.43375C31.2021 9.27133 30.5053 9.20722 29.7081 9.68058C27.4991 10.9927 27.5 13.7389 27.5 15.1002V15.1429C27.5 16.7104 28.049 18.513 28.7147 19.9192C29.0502 20.6287 29.4272 21.2634 29.8015 21.7357C29.9883 21.9719 30.1819 22.177 30.3765 22.3309C30.5675 22.4816 30.7845 22.6034 31.0137 22.6301C31.7849 22.7188 32.212 22.1065 32.4947 21.7026L32.512 21.678C32.8258 21.2292 33.0039 21.0006 33.3333 21.0006Z" fill="#FA967C"/>
<rect x="30" y="14.028" width="6.11111" height="4.58333" rx="0.458333" fill="#D63D4A"/>
<rect x="5.55469" y="14.028" width="6.11111" height="4.58333" rx="0.458333" fill="#D63D4A"/>
<path d="M33.8194 15.5554V17.3888H9.375V15.5554H33.8194Z" fill="#D63D4A"/>
</svg>
