<svg width="32" height="32" viewBox="0 0 32 32" fill="none" xmlns="http://www.w3.org/2000/svg">
<path d="M12.8888 15.4167L9.33325 22.9167L9.99992 25.3334L13.3333 26.6667H16.6666L17.9999 26.0001L18.9333 24.4167L19.9999 22.1667V17.6667L17.1555 14.6667L12.8888 15.4167Z" fill="white"/>
<path d="M14.8882 4.82613L14.1295 4.37437C13.8272 4.19433 13.4384 4.37466 13.3805 4.72177L13.2366 5.58552C12.816 8.08908 11.0949 10.4154 9.19664 12.0501C5.48043 15.2518 4.66671 18.7314 5.81736 21.6037C6.91846 24.3524 9.71305 26.2345 12.5495 26.5485L13.2057 26.6207C11.5827 25.6348 10.5411 23.3315 10.9044 21.6103C11.2634 19.9186 12.4878 18.3342 14.8398 16.8723L16.0257 16.137L16.4683 17.4556C16.7293 18.2346 17.1807 18.8605 17.6399 19.4963C17.8601 19.8027 18.0836 20.1123 18.2884 20.4417C18.9964 21.5851 19.1836 22.8566 18.7267 24.1182C18.3104 25.265 17.6245 26.1666 16.6786 26.6667L17.7467 26.5485C20.4091 26.2541 22.3636 25.3492 23.6332 23.8359C24.8917 22.3358 25.3333 20.4045 25.3333 18.3484C25.3333 16.4336 24.5416 14.4596 23.6078 12.8172C22.6281 11.0953 21.381 9.63462 20.012 8.23669C19.7741 7.99376 19.3839 8.06651 19.2532 8.38039C19.153 8.62092 19.0212 8.89778 18.7223 9.36165C18.0016 7.45986 16.6489 5.8597 14.8882 4.82613Z" fill="#8C97C8"/>
<g style="mix-blend-mode:multiply">
<path d="M18.7068 23.2396C18.7068 25.9805 22.327 28 23.6846 28C25.0421 28 28.6623 25.9805 28.6623 23.2396C28.6623 21.7969 28.6623 20.4912 28.6623 19.578C28.6623 18.7882 28.1522 18.0898 27.4011 17.8504L24.5078 16.9281C23.9722 16.7574 23.3969 16.7574 22.8613 16.9281L19.9681 17.8504C19.2169 18.0898 18.7068 18.7882 18.7068 19.578C18.7068 20.4912 18.7068 21.7969 18.7068 23.2396Z" fill="#5B658C"/>
</g>
<path d="M26.0282 20.2835C26.2685 20.133 26.5894 20.1666 26.7925 20.3798C26.9956 20.5933 27.0132 20.9154 26.8511 21.1481L26.7717 21.2418L23.5673 24.29C23.4499 24.4015 23.2929 24.4623 23.1311 24.458C22.9691 24.4536 22.8152 24.3844 22.704 24.2666L20.5738 22.0074L20.4996 21.9098C20.3504 21.6688 20.3856 21.3489 20.5998 21.1468C20.8142 20.9446 21.1361 20.9276 21.3681 21.0908L21.4618 21.1715L23.1701 22.984L25.9306 20.359L26.0282 20.2835Z" fill="white"/>
<path d="M5.33325 10.0001C5.33325 8.15913 6.82564 6.66675 8.66658 6.66675C9.03477 6.66675 9.33325 6.96522 9.33325 7.33341C9.33325 7.7016 9.03477 8.00008 8.66658 8.00008C7.56202 8.00008 6.66659 8.89551 6.66659 10.0001C6.66659 10.3683 6.36811 10.6667 5.99992 10.6667C5.63173 10.6667 5.33325 10.3683 5.33325 10.0001Z" fill="#5B658C"/>
<path d="M2 10.6666V9.33325C2 6.01954 4.68629 3.33325 8 3.33325H9.33333C9.70152 3.33325 10 3.63173 10 3.99992C10 4.36811 9.70152 4.66659 9.33333 4.66659H8C5.42267 4.66659 3.33333 6.75592 3.33333 9.33325V10.6666C3.33333 11.0348 3.03486 11.3333 2.66667 11.3333C2.29848 11.3333 2 11.0348 2 10.6666Z" fill="#5B658C"/>
</svg>
