<svg width="65" height="64" viewBox="0 0 65 64" fill="none" xmlns="http://www.w3.org/2000/svg">
<g opacity="0.2">
<rect width="64" height="64" transform="translate(0.5)" fill="#33363D"/>
<path d="M17.4873 18.8867V19.9121H9.35254V18.8867H12.7803V17.5488H10.29V14.5605H15.3193V13.584H10.2803V12.5879H16.5498V15.5371H11.54V16.5332H16.7549V17.5488H14.0205V18.8867H17.4873ZM25.3193 12.7832V13.623C25.3193 14.7363 25.3193 15.9863 24.958 17.8711L23.708 17.7441C24.0449 16.0645 24.0596 14.8145 24.0693 13.7695H18.835V12.7832H25.3193ZM26.1006 18.7988V19.8145H17.9951V18.7988H20.8955V15.7422H22.1357V18.7988H26.1006ZM36.0518 12.0215V14.5605H37.1846V15.5859H36.0518V18.0566H34.8018V12.0215H36.0518ZM28.8447 16.9141C29.4941 16.9141 30.2363 16.9141 31.0029 16.8945V16.3965C30.0361 16.2598 29.4307 15.791 29.4404 15.1074C29.4307 14.2871 30.2998 13.7793 31.6182 13.7793C32.9268 13.7793 33.7861 14.2871 33.7959 15.1074C33.7861 15.791 33.1953 16.2549 32.2432 16.3867V16.8457C32.9756 16.8164 33.7031 16.7578 34.3916 16.6699L34.4795 17.5293C32.6045 17.8613 30.5439 17.8809 28.9717 17.8809L28.8447 16.9141ZM36.0518 18.418V20.8984H34.8018V19.375H29.9775V18.418H36.0518ZM34.167 12.666V13.5742H29.0791V12.666H31.0029V11.9434H32.2432V12.666H34.167ZM31.6182 14.6094C30.9834 14.6094 30.6221 14.7656 30.6318 15.1074C30.6221 15.4297 30.9834 15.6152 31.6182 15.6152C32.2432 15.6152 32.5947 15.4297 32.6045 15.1074C32.5947 14.7656 32.2432 14.6094 31.6182 14.6094ZM45.0752 12.0117V17.2852H43.835V15.1855H42.4482V14.1797H43.835V12.0117H45.0752ZM42.0381 17.4805C43.9326 17.4902 45.0947 18.1152 45.1045 19.1992C45.0947 20.2734 43.9326 20.9082 42.0381 20.9082C40.1436 20.9082 38.9814 20.2734 38.9814 19.1992C38.9814 18.1152 40.1436 17.4902 42.0381 17.4805ZM42.0381 18.4375C40.8564 18.4375 40.2217 18.6816 40.2217 19.1992C40.2217 19.707 40.8564 19.9609 42.0381 19.9609C43.2197 19.9609 43.8643 19.707 43.8643 19.1992C43.8643 18.6816 43.2197 18.4375 42.0381 18.4375ZM42.7119 12.5488V13.5449H40.9443C40.9736 14.5801 41.5986 15.625 42.9854 16.084L42.3701 17.0605C41.3887 16.7432 40.7148 16.0986 40.3291 15.293C39.9336 16.2012 39.2256 16.9336 38.1709 17.2949L37.5264 16.3086C38.9863 15.8203 39.6406 14.6582 39.6748 13.5449H37.8877V12.5488H42.7119ZM51.9893 14.0234C51.9893 15.6543 52.7314 17.2949 54.2354 17.9297L53.5029 18.9258C52.4873 18.4668 51.7842 17.583 51.3838 16.4844C50.9785 17.6807 50.251 18.6475 49.167 19.1406L48.415 18.1055C49.9678 17.4512 50.7197 15.752 50.7295 14.0234V12.6953H51.9893V14.0234ZM55.9736 12.0117V20.918H54.7139V12.0117H55.9736ZM12.8975 27.6367C14.2549 27.6367 15.2314 28.8672 15.2412 30.8008C15.2314 32.7539 14.2549 33.9746 12.8975 33.9746C11.54 33.9746 10.5439 32.7539 10.5537 30.8008C10.5439 28.8672 11.54 27.6367 12.8975 27.6367ZM12.8975 28.7598C12.2139 28.7598 11.7549 29.4824 11.7549 30.8008C11.7549 32.1289 12.2139 32.8418 12.8975 32.8418C13.5908 32.8418 14.04 32.1289 14.0498 30.8008C14.04 29.4824 13.5908 28.7598 12.8975 28.7598ZM17.5166 27.0117V30.3613H18.8252V31.3965H17.5166V35.8984H16.2666V27.0117H17.5166ZM26.5889 27.0117V35.918H25.3291V27.0117H26.5889ZM21.7646 27.6367C23.1025 27.6367 24.0986 28.8672 24.0986 30.8008C24.0986 32.7539 23.1025 33.9746 21.7646 33.9746C20.3975 33.9746 19.4014 32.7539 19.4111 30.8008C19.4014 28.8672 20.3975 27.6367 21.7646 27.6367ZM21.7646 28.7598C21.0713 28.7598 20.6123 29.4824 20.6123 30.8008C20.6123 32.1289 21.0713 32.8418 21.7646 32.8418C22.4385 32.8418 22.8975 32.1289 22.8975 30.8008C22.8975 29.4824 22.4385 28.7598 21.7646 28.7598ZM34.9678 27.3535V28.1934C34.9678 29.0723 34.9678 29.9414 34.7139 31.123L33.4834 31.0254C33.5713 30.6299 33.625 30.2686 33.6592 29.9316L28.6299 30.1465L28.4736 29.1211L33.7275 29.0137L33.7373 28.3398H28.7178V27.3535H34.9678ZM35.876 31.5723V32.5586H27.8096V31.5723H30.8271V30.459H32.0771V31.5723H35.876ZM35.1143 34.7656V35.7617H28.7471V33.1055H29.9971V34.7656H35.1143ZM46.8428 32.334V33.3496H43.3955V35.9082H42.165V33.3496H38.7373V32.334H46.8428ZM46.1006 28.0371V29.0137H43.4346C43.5762 29.7949 44.5771 30.6738 46.4131 30.8789L45.9639 31.8555C44.46 31.6846 43.3711 31.0693 42.79 30.2539C42.2139 31.0791 41.1152 31.6846 39.5967 31.8555L39.1475 30.8789C40.9834 30.6738 41.9941 29.7998 42.1455 29.0137H39.4697V28.0371H42.165V27.0215H43.3955V28.0371H46.1006ZM54.3916 27.0117V30.4199H55.6514V31.4453H54.3916V35.8789H53.1416V27.0117H54.3916ZM52.0186 27.9199C52.0088 30.5762 50.9736 32.8809 47.9854 34.3457L47.2822 33.3887C49.3867 32.334 50.5146 30.918 50.749 28.9355H47.79V27.9199H52.0186ZM32.3262 42.0117V50.8984H31.1348V42.0117H32.3262ZM30.5098 42.1387V50.4883H29.3379V47.7344H28.293C27.9609 48.5986 27.3799 49.0918 26.6328 49.0918C25.4609 49.0918 24.6992 47.8613 24.6992 45.8594C24.6992 43.8672 25.4609 42.6465 26.6328 42.6465C27.375 42.6465 27.9561 43.1299 28.293 43.9844H29.3379V42.1387H30.5098ZM26.6328 43.8184C26.1152 43.8184 25.8223 44.502 25.832 45.8594C25.8223 47.2266 26.1152 47.9004 26.6328 47.8906C27.1504 47.9004 27.4629 47.2266 27.4629 45.8594C27.4629 44.502 27.1406 43.8184 26.6328 43.8184ZM28.5371 44.9805C28.5762 45.2539 28.5957 45.5469 28.5957 45.8594C28.5957 46.167 28.5762 46.46 28.5371 46.7285H29.3379V44.9805H28.5371ZM40.7539 42.0117V47.2852H39.5137V45.1855H38.127V44.1797H39.5137V42.0117H40.7539ZM37.7168 47.4805C39.6113 47.4902 40.7734 48.1152 40.7832 49.1992C40.7734 50.2734 39.6113 50.9082 37.7168 50.9082C35.8223 50.9082 34.6602 50.2734 34.6602 49.1992C34.6602 48.1152 35.8223 47.4902 37.7168 47.4805ZM37.7168 48.4375C36.5352 48.4375 35.9004 48.6816 35.9004 49.1992C35.9004 49.707 36.5352 49.9609 37.7168 49.9609C38.8984 49.9609 39.543 49.707 39.543 49.1992C39.543 48.6816 38.8984 48.4375 37.7168 48.4375ZM38.3906 42.5488V43.5449H36.623C36.6523 44.5801 37.2773 45.625 38.6641 46.084L38.0488 47.0605C37.0674 46.7432 36.3936 46.0986 36.0078 45.293C35.6123 46.2012 34.9043 46.9336 33.8496 47.2949L33.2051 46.3086C34.665 45.8203 35.3193 44.6582 35.3535 43.5449H33.5664V42.5488H38.3906Z" fill="white"/>
</g>
</svg>
