<svg width="110" height="110" viewBox="0 0 110 110" fill="none" xmlns="http://www.w3.org/2000/svg">
<path d="M0.922212 64.3159C0.50004 63.4843 1.10422 62.5 2.0368 62.5H107.964C108.896 62.5 109.501 63.4843 109.078 64.3159L107.102 68.2096C104.935 72.4773 104.935 77.5227 107.102 81.7904L109.078 85.6841C109.501 86.5157 108.896 87.5 107.964 87.5H2.0368C1.10422 87.5 0.500041 86.5157 0.922214 85.6841L2.89904 81.7904C5.06571 77.5227 5.0657 72.4773 2.89904 68.2096L0.922212 64.3159Z" fill="#ED3C19"/>
<path d="M55 13.7695C77.7711 13.7695 96.2305 32.2289 96.2305 55C96.2305 77.7711 77.7711 96.2305 55 96.2305C32.2289 96.2305 13.7695 77.7711 13.7695 55C13.7695 32.2289 32.2289 13.7695 55 13.7695Z" fill="#FEEFEC" stroke="#F8633C" stroke-width="2.53846"/>
<path d="M34.4053 36.0779L33.464 37.1144L28.4717 32.5981L29.413 31.5615L34.4053 36.0779Z" fill="#F8633C"/>
<path d="M39.2809 31.8154L38.3396 32.5769L33.3473 31.1384L33.305 31.1702L36.0127 34.4808L34.9338 35.3586L30.6819 30.1442L31.6338 29.3721L36.6155 30.8317L36.6684 30.7894L33.9607 27.4788L35.029 26.6009L39.2809 31.8154Z" fill="#F8633C"/>
<path d="M40.3711 25.0885C40.1173 25.0462 39.8423 25.1096 39.5461 25.2683C39.3346 25.3741 39.176 25.501 39.0596 25.6279C38.9433 25.7654 38.8692 25.9029 38.8481 26.051C38.8269 26.1991 38.8481 26.3366 38.9221 26.4741C39.0173 26.6644 39.1865 26.7808 39.4192 26.8019C39.6519 26.8231 39.9269 26.8019 40.2548 26.7173L40.8577 26.5692C41.4711 26.4106 42.0211 26.3789 42.4865 26.5058C42.9519 26.6327 43.3115 26.9183 43.5548 27.3942C43.7452 27.7644 43.8192 28.1241 43.7769 28.4837C43.7346 28.8433 43.576 29.1923 43.301 29.5202C43.026 29.8481 42.6558 30.1337 42.1798 30.3769C41.6933 30.6308 41.2385 30.7683 40.8048 30.8106C40.3711 30.8423 39.9798 30.7683 39.6308 30.5779C39.2817 30.3875 38.9961 30.0914 38.7635 29.6683L39.9692 29.0442C40.1385 29.3298 40.3711 29.4885 40.6673 29.5414C40.9635 29.5942 41.2808 29.5202 41.6192 29.3404C41.8308 29.2241 42.0106 29.0971 42.1375 28.9491C42.2644 28.801 42.349 28.6529 42.3808 28.4942C42.4125 28.3356 42.3808 28.1875 42.3067 28.0289C42.2115 27.8385 42.0423 27.7221 41.8202 27.701C41.5981 27.6798 41.2808 27.701 40.8894 27.7962L40.1596 27.976C38.9327 28.2721 38.1183 28.0077 37.6952 27.1933C37.5048 26.8337 37.4413 26.4741 37.4942 26.0933C37.5471 25.7231 37.7058 25.3635 37.9702 25.0356C38.2346 24.7077 38.5836 24.4327 39.0173 24.2106C39.451 23.9885 39.874 23.8616 40.2865 23.8404C40.699 23.8192 41.0692 23.8933 41.3865 24.0731C41.7144 24.2529 41.9683 24.5067 42.1586 24.8558L40.974 25.4692C40.826 25.2471 40.625 25.1202 40.3817 25.0779L40.3711 25.0885Z" fill="#F8633C"/>
<path d="M48.4939 20.9L49.6679 25.1096C49.7949 25.575 49.8054 26.0192 49.6679 26.4423C49.541 26.8654 49.3083 27.225 48.9593 27.5317C48.6103 27.8385 48.166 28.0711 47.6372 28.2192C47.1083 28.3673 46.6112 28.399 46.1564 28.3144C45.7016 28.2298 45.3103 28.0394 44.9824 27.7433C44.6651 27.4471 44.4324 27.0663 44.3054 26.601L43.1314 22.3913L44.4747 22.0211L45.617 26.125C45.6804 26.3683 45.8074 26.5798 45.966 26.7385C46.1353 26.9077 46.3256 27.0135 46.5689 27.0663C46.8016 27.1192 47.0554 27.1086 47.3093 27.0346C47.5737 26.9606 47.7958 26.8442 47.9651 26.675C48.1343 26.5058 48.2506 26.3154 48.3035 26.0827C48.3564 25.8606 48.3458 25.6173 48.2824 25.374L47.1401 21.2702L48.4939 20.8894V20.9Z" fill="#F8633C"/>
<path d="M50.6199 20.5721L53.2535 20.4029C53.7612 20.3711 54.1949 20.4346 54.5651 20.5827C54.9353 20.7413 55.2314 20.974 55.443 21.2913C55.6545 21.6086 55.7709 21.9894 55.8026 22.4336C55.8343 22.8885 55.7603 23.2904 55.5699 23.6288C55.3901 23.9673 55.1045 24.2317 54.7343 24.4221L56.3314 26.9394L54.7872 27.0452L53.3487 24.75L52.291 24.824L52.4497 27.2038L51.0535 27.299L50.6093 20.5827L50.6199 20.5721ZM53.2112 23.6183C54.0257 23.5654 54.417 23.2058 54.3641 22.5288C54.343 22.1904 54.2266 21.9365 54.0045 21.7673C53.793 21.5981 53.4757 21.5346 53.0737 21.5663L52.0901 21.6298L52.2276 23.6923L53.2112 23.6288V23.6183Z" fill="#F8633C"/>
<path d="M56.3101 26.8971L59.5572 20.5616L61.3341 20.8154L62.6985 27.8068L61.2177 27.5952L60.9322 25.9875L58.5206 25.6491L57.8014 27.1193L56.3101 26.9077V26.8971ZM60.7312 24.8558L60.2552 22.1904H60.2129L59.0177 24.6125L60.7312 24.8558Z" fill="#F8633C"/>
<path d="M68.2941 29.9115L67.1624 29.4884L65.9037 24.4432L65.8508 24.4221L64.3383 28.4202L63.0374 27.9231L65.4172 21.6298L66.5595 22.0634L67.797 27.0981L67.8604 27.1192L69.3729 23.1211L70.6739 23.6077L68.2941 29.9009V29.9115Z" fill="#F8633C"/>
<path d="M75.2532 28.3779C75.2426 28.1557 75.1791 27.9442 75.0522 27.7538C74.9359 27.5634 74.7666 27.3942 74.5445 27.2461C74.2484 27.0557 73.9522 26.9606 73.6349 26.9606C73.3176 26.9606 73.0109 27.0663 72.7041 27.2673C72.3974 27.4682 72.1224 27.7644 71.8685 28.1452C71.6041 28.5365 71.4455 28.9173 71.382 29.2769C71.3186 29.6365 71.3503 29.9538 71.4666 30.2394C71.5936 30.525 71.7945 30.7682 72.0907 30.9586C72.4185 31.1702 72.7464 31.2654 73.0743 31.2442C73.4128 31.2231 73.6984 31.075 73.9522 30.8106L75.1262 31.5932C74.8512 31.9211 74.5022 32.1644 74.1003 32.3336C73.6984 32.5029 73.2541 32.5557 72.7782 32.5134C72.3022 32.4606 71.8368 32.2913 71.382 31.9846C70.8743 31.6567 70.5041 31.2442 70.2609 30.7471C70.0176 30.2606 69.9224 29.7211 69.9859 29.1394C70.0493 28.5577 70.2714 27.9654 70.6734 27.3731C71.0647 26.7807 71.5195 26.3365 72.0272 26.0509C72.5455 25.7654 73.0743 25.6384 73.6243 25.6702C74.1743 25.7019 74.6926 25.8817 75.1897 26.2096C75.6234 26.4952 75.9618 26.8336 76.2051 27.225C76.4484 27.6163 76.5753 28.0394 76.5964 28.4836C76.6176 28.9279 76.5118 29.3827 76.2791 29.8481L75.0945 29.0759C75.2003 28.8538 75.2426 28.6211 75.232 28.399L75.2532 28.3779Z" fill="#F8633C"/>
<path d="M79.0717 29.1818L82.266 32.376L81.4515 33.1904L79.241 30.9904L78.0881 32.1539L80.14 34.1952L79.3256 35.0096L77.2737 32.9683L76.1208 34.1318L78.3419 36.3423L77.5275 37.1568L74.3227 33.9625L79.0717 29.1923V29.1818Z" fill="#F8633C"/>
<path d="M12.5 77.5C12.5 74.7386 14.7386 72.5 17.5 72.5H92.5C95.2614 72.5 97.5 74.7386 97.5 77.5V92.5C97.5 95.2614 95.2614 97.5 92.5 97.5H17.5C14.7386 97.5 12.5 95.2614 12.5 92.5V77.5Z" fill="#F8633C"/>
<path d="M79.9869 82.2125V80.0625H87.7369V82.2125H85.2244V90.125H82.5119V82.2125H79.9869Z" fill="white"/>
<path d="M70.0403 85.0875C70.0403 83.3875 70.3153 82.0375 71.1403 81.1C71.8528 80.2875 72.9028 79.8875 74.2528 79.8875C76.8278 79.8875 78.3028 81.3 78.3778 83.625H75.6903C75.6528 82.6375 75.2028 82.05 74.2528 82.05C73.7653 82.05 73.4278 82.2125 73.1653 82.5875C72.8528 83.0375 72.7528 83.725 72.7528 85.0875C72.7528 86.475 72.8528 87.15 73.1653 87.6125C73.4278 87.9875 73.7653 88.15 74.2528 88.15C75.2028 88.15 75.6653 87.55 75.6903 86.575H78.3778C78.3028 88.9 76.8278 90.3 74.2528 90.3C72.9028 90.3 71.8528 89.9 71.1403 89.0875C70.3153 88.15 70.0403 86.8125 70.0403 85.0875Z" fill="white"/>
<path d="M61.3237 90.125V80.0625H67.8737V82.2125H64.0362V83.8875H67.3612V86.05H64.0362V87.9875H67.9487V90.125H61.3237Z" fill="white"/>
<path d="M46.3659 89.1875L46.2909 87.9375C46.2409 87.0375 45.9409 86.75 45.2034 86.75H44.1534V90.125H41.4409V80.0625H45.8034C47.9909 80.0625 49.1284 81.2875 49.1284 83.1375C49.1284 84.5 48.4534 85.3625 47.4159 85.6625C48.4534 85.85 48.8659 86.4875 48.9534 87.8125L49.0409 89.175C49.0659 89.5875 49.1409 89.8875 49.2534 90.125H46.5534C46.4409 89.9125 46.3909 89.525 46.3659 89.1875ZM44.1534 84.6H45.2534C46.0159 84.6 46.4159 84.25 46.4159 83.4125C46.4159 82.55 46.0159 82.2125 45.2534 82.2125H44.1534V84.6Z" fill="white"/>
<path d="M32.5493 90.125V80.0625H39.0993V82.2125H35.2618V83.8875H38.5868V86.05H35.2618V87.9875H39.1743V90.125H32.5493Z" fill="white"/>
<path d="M26.9672 86.75H25.4547V90.125H22.7422V80.0625H26.9672C29.2172 80.0625 30.4297 81.2875 30.4297 83.4125C30.4297 85.55 29.2172 86.75 26.9672 86.75ZM25.4547 84.6H26.5547C27.3172 84.6 27.7172 84.2375 27.7172 83.4125C27.7172 82.5625 27.3172 82.2125 26.5547 82.2125H25.4547V84.6Z" fill="white"/>
<path d="M52.1995 80.0625V90.125H54.912V87.9875V86.05H58.237V83.8875H54.912V82.2125H58.7495V80.0625H52.1995Z" fill="white"/>
<path d="M5.84145 23.5996C6.0768 22.1335 7.90047 22.1335 8.13583 23.5996L8.7737 27.5732C8.84545 28.0202 9.10843 28.3951 9.47271 28.5697L12.6337 30.0849C13.6556 30.5748 13.5664 32.2754 12.5007 32.6198L9.60018 33.5575C9.16577 33.6979 8.8406 34.1143 8.76515 34.6268L8.13885 38.8807C7.91914 40.3731 6.05814 40.3731 5.83842 38.8807L5.21212 34.6268C5.13667 34.1143 4.8115 33.6979 4.3771 33.5575L1.47654 32.6198C0.410881 32.2754 0.321662 30.5748 1.34355 30.0849L4.50457 28.5697C4.86884 28.3951 5.13182 28.0202 5.20357 27.5732L5.84145 23.5996Z" fill="#FFE640"/>
<path d="M96.568 6.49231C96.8874 4.50256 99.3624 4.50256 99.6818 6.49232L100.547 11.8851C100.645 12.4917 101.002 13.0005 101.496 13.2375L105.786 15.2939C107.173 15.9586 107.052 18.2665 105.606 18.7341L101.669 20.0066C101.08 20.1972 100.638 20.7623 100.536 21.4578L99.6859 27.231C99.3877 29.2563 96.8621 29.2563 96.5639 27.231L95.7139 21.4578C95.6115 20.7623 95.1702 20.1972 94.5807 20.0066L90.6442 18.7341C89.1979 18.2666 89.0768 15.9586 90.4637 15.2939L94.7536 13.2375C95.248 13.0005 95.6049 12.4917 95.7023 11.8851L96.568 6.49231Z" fill="#FFE640"/>
<path d="M41.385 42.4266C40.3935 41.7656 39.0932 42.6152 39.3003 43.7887L42.1659 60.0271C42.3951 61.3259 41.4583 62.6916 41.4583 64.0104C41.4583 65.1322 42.3678 66.0417 43.4896 66.0417H66.5104C67.6322 66.0417 68.5417 65.1322 68.5417 64.0104C68.5417 62.6915 67.6048 61.3257 67.834 60.0268L70.6995 43.7887C70.9066 42.6152 69.6063 41.7656 68.6148 42.4266L63.5243 45.8203C62.2127 46.6947 60.4343 46.2686 59.6615 44.8946L56.1802 38.7057C55.6625 37.7853 54.3374 37.7853 53.8197 38.7057L50.3383 44.8946C49.5655 46.2686 47.7872 46.6947 46.4755 45.8203L41.385 42.4266Z" fill="#FF9567"/>
<path d="M56.3413 50.7065C56.4429 50.8081 56.5807 50.8652 56.7245 50.8652H59.1976C59.4967 50.8652 59.7393 51.1077 59.7393 51.4069V54.9277C59.7393 57.5452 57.6174 59.6678 55 59.668C52.3824 59.668 50.2598 57.5453 50.2598 54.9277V51.4069C50.2598 51.1077 50.5023 50.8652 50.8014 50.8652H52.7747C52.9183 50.8652 53.0561 50.8082 53.1577 50.7066L54.3669 49.4974C54.5785 49.2858 54.9215 49.2859 55.133 49.4975L56.3413 50.7065Z" fill="white"/>
</svg>
