<svg width="89" height="88" viewBox="0 0 89 88" fill="none" xmlns="http://www.w3.org/2000/svg">
<path d="M1.23752 51.4527C0.899782 50.7874 1.38312 50 2.12919 50H86.8708C87.6169 50 88.1002 50.7875 87.7625 51.4527L86.181 54.5677C84.4477 57.9818 84.4477 62.0182 86.181 65.4323L87.7625 68.5473C88.1002 69.2125 87.6169 70 86.8708 70H2.12919C1.38312 70 0.899783 69.2125 1.23752 68.5473L2.81898 65.4323C4.55232 62.0182 4.55231 57.9818 2.81898 54.5677L1.23752 51.4527Z" fill="#2EAA49"/>
<rect x="11.7692" y="11.2692" width="65.4615" height="65.4615" rx="32.7308" fill="#EAF6EC"/>
<rect x="11.7692" y="11.2692" width="65.4615" height="65.4615" rx="32.7308" stroke="#52BC69" stroke-width="2.53846"/>
<path d="M49.8498 32.0832C49.231 32.0832 48.6375 31.8373 48.1999 31.3998L46.6501 29.8499C45.7389 28.9387 44.2615 28.9387 43.3502 29.8499L41.8004 31.3998C41.3628 31.8373 40.7693 32.0832 40.1505 32.0832H35.6668C34.3782 32.0832 33.3335 33.1278 33.3335 34.4165V43.1665C33.3335 49.2877 42.4076 54.2498 45.0002 54.2498C47.5928 54.2498 56.6668 49.2877 56.6668 43.1665V34.4165C56.6668 33.1278 55.6222 32.0832 54.3335 32.0832H49.8498Z" fill="#73D388"/>
<path d="M45.8755 37.3335C46.1974 37.3336 46.4583 37.5946 46.4585 37.9165V40.5415H49.0835C49.4057 40.5415 49.6665 40.8033 49.6665 41.1255V42.8755C49.6663 43.1975 49.4056 43.4585 49.0835 43.4585H46.4585V46.0835C46.4585 46.4056 46.1975 46.6664 45.8755 46.6665H44.1255C43.8033 46.6665 43.5415 46.4057 43.5415 46.0835V43.4585H40.9165C40.5946 43.4583 40.3337 43.1974 40.3335 42.8755V41.1255C40.3335 40.8035 40.5945 40.5417 40.9165 40.5415H43.5415V37.9165C43.5417 37.5945 43.8034 37.3335 44.1255 37.3335H45.8755Z" fill="white"/>
<g clip-path="url(#clip0_5854_113135)">
<path d="M28.1015 27.9435L27.345 28.7765L23.333 25.147L24.0895 24.314L28.1015 27.9435Z" fill="#52BC69"/>
<path d="M32.0199 24.5181L31.2634 25.1301L27.2514 23.9741L27.2174 23.9996L29.3934 26.6601L28.5264 27.3656L25.1094 23.1751L25.8744 22.5546L29.8779 23.7276L29.9204 23.6936L27.7444 21.0331L28.6029 20.3276L32.0199 24.5181Z" fill="#52BC69"/>
<path d="M32.8957 19.1118C32.6917 19.0778 32.4707 19.1288 32.2327 19.2563C32.0627 19.3413 31.9352 19.4433 31.8417 19.5453C31.7482 19.6558 31.6887 19.7663 31.6717 19.8853C31.6547 20.0043 31.6717 20.1148 31.7312 20.2253C31.8077 20.3783 31.9437 20.4718 32.1307 20.4888C32.3177 20.5058 32.5387 20.4888 32.8022 20.4208L33.2867 20.3018C33.7797 20.1743 34.2217 20.1488 34.5957 20.2508C34.9697 20.3528 35.2587 20.5823 35.4542 20.9648C35.6072 21.2623 35.6667 21.5513 35.6327 21.8403C35.5987 22.1293 35.4712 22.4098 35.2502 22.6733C35.0292 22.9368 34.7317 23.1663 34.3492 23.3618C33.9582 23.5658 33.5927 23.6763 33.2442 23.7103C32.8957 23.7358 32.5812 23.6763 32.3007 23.5233C32.0202 23.3703 31.7907 23.1323 31.6037 22.7923L32.5727 22.2908C32.7087 22.5203 32.8957 22.6478 33.1337 22.6903C33.3717 22.7328 33.6267 22.6733 33.8987 22.5288C34.0687 22.4353 34.2132 22.3333 34.3152 22.2143C34.4172 22.0953 34.4852 21.9763 34.5107 21.8488C34.5362 21.7213 34.5107 21.6023 34.4512 21.4748C34.3747 21.3218 34.2387 21.2283 34.0602 21.2113C33.8817 21.1943 33.6267 21.2113 33.3122 21.2878L32.7257 21.4323C31.7397 21.6703 31.0852 21.4578 30.7452 20.8033C30.5922 20.5143 30.5412 20.2253 30.5837 19.9193C30.6262 19.6218 30.7537 19.3328 30.9662 19.0693C31.1787 18.8058 31.4592 18.5848 31.8077 18.4063C32.1562 18.2278 32.4962 18.1258 32.8277 18.1088C33.1592 18.0918 33.4567 18.1513 33.7117 18.2958C33.9752 18.4403 34.1792 18.6443 34.3322 18.9248L33.3802 19.4178C33.2612 19.2393 33.0997 19.1373 32.9042 19.1033L32.8957 19.1118Z" fill="#52BC69"/>
<path d="M39.4238 15.7458L40.3673 19.1288C40.4693 19.5028 40.4778 19.8598 40.3673 20.1998C40.2653 20.5398 40.0783 20.8288 39.7978 21.0753C39.5173 21.3218 39.1603 21.5088 38.7353 21.6278C38.3103 21.7468 37.9108 21.7723 37.5453 21.7043C37.1798 21.6363 36.8653 21.4833 36.6018 21.2453C36.3468 21.0073 36.1598 20.7013 36.0578 20.3273L35.1143 16.9443L36.1938 16.6468L37.1118 19.9448C37.1628 20.1403 37.2648 20.3103 37.3923 20.4378C37.5283 20.5738 37.6813 20.6588 37.8768 20.7013C38.0638 20.7438 38.2678 20.7353 38.4718 20.6758C38.6843 20.6163 38.8628 20.5228 38.9988 20.3868C39.1348 20.2508 39.2283 20.0978 39.2708 19.9108C39.3133 19.7323 39.3048 19.5368 39.2538 19.3413L38.3358 16.0433L39.4238 15.7373V15.7458Z" fill="#52BC69"/>
<path d="M41.132 15.4823L43.2485 15.3463C43.6565 15.3208 44.005 15.3718 44.3025 15.4908C44.6 15.6183 44.838 15.8053 45.008 16.0603C45.178 16.3153 45.2715 16.6213 45.297 16.9783C45.3225 17.3438 45.263 17.6668 45.11 17.9388C44.9655 18.2108 44.736 18.4233 44.4385 18.5763L45.722 20.5993L44.481 20.6843L43.325 18.8398L42.475 18.8993L42.6025 20.8118L41.4805 20.8883L41.1235 15.4908L41.132 15.4823ZM43.2145 17.9303C43.869 17.8878 44.1835 17.5988 44.141 17.0548C44.124 16.7828 44.0305 16.5788 43.852 16.4428C43.682 16.3068 43.427 16.2558 43.104 16.2813L42.3135 16.3323L42.424 17.9898L43.2145 17.9388V17.9303Z" fill="#52BC69"/>
<path d="M45.7051 20.5656L48.3146 15.4741L49.7426 15.6781L50.8391 21.2966L49.6491 21.1266L49.4196 19.8346L47.4816 19.5626L46.9036 20.7441L45.7051 20.5741V20.5656ZM49.2581 18.9251L48.8756 16.7831H48.8416L47.8811 18.7296L49.2581 18.9251Z" fill="#52BC69"/>
<path d="M55.3358 22.988L54.4263 22.648L53.4148 18.5935L53.3723 18.5765L52.1568 21.7895L51.1113 21.39L53.0238 16.3325L53.9418 16.681L54.9363 20.727L54.9873 20.744L56.2028 17.531L57.2483 17.922L55.3358 22.9795V22.988Z" fill="#52BC69"/>
<path d="M60.9281 21.7555C60.9196 21.577 60.8686 21.407 60.7666 21.254C60.6731 21.101 60.5371 20.965 60.3586 20.846C60.1206 20.693 59.8826 20.6165 59.6276 20.6165C59.3726 20.6165 59.1261 20.7015 58.8796 20.863C58.6331 21.0245 58.4121 21.2625 58.2081 21.5685C57.9956 21.883 57.8681 22.189 57.8171 22.478C57.7661 22.767 57.7916 23.022 57.8851 23.2515C57.9871 23.481 58.1486 23.6765 58.3866 23.8295C58.6501 23.9995 58.9136 24.076 59.1771 24.059C59.4491 24.042 59.6786 23.923 59.8826 23.7105L60.8261 24.3395C60.6051 24.603 60.3246 24.7985 60.0016 24.9345C59.6786 25.0705 59.3216 25.113 58.9391 25.079C58.5566 25.0365 58.1826 24.9005 57.8171 24.654C57.4091 24.3905 57.1116 24.059 56.9161 23.6595C56.7206 23.2685 56.6441 22.835 56.6951 22.3675C56.7461 21.9 56.9246 21.424 57.2476 20.948C57.5621 20.472 57.9276 20.115 58.3356 19.8855C58.7521 19.656 59.1771 19.554 59.6191 19.5795C60.0611 19.605 60.4776 19.7495 60.8771 20.013C61.2256 20.2425 61.4976 20.5145 61.6931 20.829C61.8886 21.1435 61.9906 21.4835 62.0076 21.8405C62.0246 22.1975 61.9396 22.563 61.7526 22.937L60.8006 22.3165C60.8856 22.138 60.9196 21.951 60.9111 21.7725L60.9281 21.7555Z" fill="#52BC69"/>
<path d="M63.9972 22.4014L66.5642 24.9684L65.9097 25.6229L64.1332 23.8549L63.2067 24.7899L64.8557 26.4304L64.2012 27.0849L62.5522 25.4444L61.6257 26.3794L63.4107 28.1559L62.7562 28.8104L60.1807 26.2434L63.9972 22.4099V22.4014Z" fill="#52BC69"/>
</g>
<rect x="10.5" y="58" width="68" height="20" rx="4" fill="#52BC69"/>
<path d="M28.5502 68.07C28.5502 65.52 29.4902 63.91 31.9202 63.91C33.9802 63.91 35.1602 65.04 35.2202 66.9H33.0702C33.0402 66.11 32.6802 65.64 31.9202 65.64C31.1302 65.64 30.7202 66.06 30.7202 68.07C30.7202 70.02 31.0802 70.52 31.9702 70.52C32.7202 70.52 33.1502 70.01 33.1802 69.2H31.9502V67.77H35.2102V72.1H33.6702L33.4802 71.23C33.2102 71.85 32.5002 72.24 31.6202 72.24C29.5402 72.24 28.5502 70.65 28.5502 68.07ZM41.5811 68.07C41.5811 66.99 41.5011 66.43 41.2611 66.07C41.0511 65.77 40.7711 65.64 40.3811 65.64C39.9911 65.64 39.7211 65.77 39.5111 66.07C39.2611 66.43 39.1811 66.99 39.1811 68.07C39.1811 69.17 39.2611 69.72 39.5111 70.09C39.7211 70.39 39.9911 70.52 40.3811 70.52C40.7711 70.52 41.0511 70.39 41.2611 70.09C41.5011 69.72 41.5811 69.17 41.5811 68.07ZM43.7511 68.07C43.7511 69.45 43.5311 70.52 42.8811 71.27C42.3111 71.92 41.4611 72.24 40.3811 72.24C39.3011 72.24 38.4611 71.92 37.8911 71.27C37.2311 70.52 37.0111 69.45 37.0111 68.07C37.0111 66.71 37.2311 65.63 37.8911 64.88C38.4611 64.23 39.3011 63.91 40.3811 63.91C41.4611 63.91 42.3111 64.23 42.8811 64.88C43.5311 65.63 43.7511 66.71 43.7511 68.07ZM50.0225 68.07C50.0225 66.99 49.9425 66.43 49.7025 66.07C49.4925 65.77 49.2125 65.64 48.8225 65.64C48.4325 65.64 48.1625 65.77 47.9525 66.07C47.7025 66.43 47.6225 66.99 47.6225 68.07C47.6225 69.17 47.7025 69.72 47.9525 70.09C48.1625 70.39 48.4325 70.52 48.8225 70.52C49.2125 70.52 49.4925 70.39 49.7025 70.09C49.9425 69.72 50.0225 69.17 50.0225 68.07ZM52.1925 68.07C52.1925 69.45 51.9725 70.52 51.3225 71.27C50.7525 71.92 49.9025 72.24 48.8225 72.24C47.7425 72.24 46.9025 71.92 46.3325 71.27C45.6725 70.52 45.4525 69.45 45.4525 68.07C45.4525 66.71 45.6725 65.63 46.3325 64.88C46.9025 64.23 47.7425 63.91 48.8225 63.91C49.9025 63.91 50.7525 64.23 51.3225 64.88C51.9725 65.63 52.1925 66.71 52.1925 68.07ZM57.1739 72.1H54.0339V64.05H57.1739C59.7439 64.05 60.4539 65.59 60.4539 68.07C60.4539 70.59 59.7339 72.1 57.1739 72.1ZM58.2939 68.07C58.2939 66.08 57.9139 65.7 57.1039 65.7H56.2039V70.45H57.1039C57.9539 70.45 58.2939 70.03 58.2939 68.07Z" fill="white"/>
<circle cx="19" cy="68" r="2.5" fill="#FFE640"/>
<circle cx="70" cy="68" r="2.5" fill="#FFE640"/>
<defs>
<clipPath id="clip0_5854_113135">
<rect width="44" height="14" fill="white" transform="translate(23 15)"/>
</clipPath>
</defs>
</svg>
