<svg width="88" height="88" viewBox="0 0 88 88" fill="none" xmlns="http://www.w3.org/2000/svg">
<path d="M0.737575 51.4527C0.399837 50.7874 0.883177 50 1.62924 50H86.3709C87.1169 50 87.6003 50.7875 87.2625 51.4527L85.6811 54.5677C83.9477 57.9818 83.9477 62.0182 85.6811 65.4323L87.2625 68.5473C87.6003 69.2125 87.1169 70 86.3709 70H1.62924C0.883178 70 0.399838 69.2125 0.737576 68.5473L2.31904 65.4323C4.05237 62.0182 4.05237 57.9818 2.31904 54.5677L0.737575 51.4527Z" fill="#ED3C19"/>
<path d="M44 11.2695C62.0767 11.2695 76.7305 25.9233 76.7305 44C76.7305 62.0767 62.0767 76.7305 44 76.7305C25.9233 76.7305 11.2695 62.0767 11.2695 44C11.2695 25.9233 25.9233 11.2695 44 11.2695Z" fill="#FEEFEC" stroke="#F8633C" stroke-width="2.53846"/>
<path d="M27.5243 28.8623L26.7712 29.6915L22.7773 26.0785L23.5304 25.2492L27.5243 28.8623Z" fill="#F8633C"/>
<path d="M31.4247 25.4523L30.6717 26.0615L26.6778 24.9108L26.644 24.9361L28.8101 27.5846L27.947 28.2869L24.5455 24.1154L25.307 23.4977L29.2924 24.6654L29.3347 24.6315L27.1686 21.9831L28.0232 21.2808L31.4247 25.4523Z" fill="#F8633C"/>
<path d="M32.2969 20.0708C32.0938 20.0369 31.8738 20.0877 31.6369 20.2146C31.4677 20.2992 31.3408 20.4008 31.2477 20.5023C31.1546 20.6123 31.0954 20.7223 31.0785 20.8408C31.0615 20.9592 31.0785 21.0692 31.1377 21.1792C31.2138 21.3315 31.3492 21.4246 31.5354 21.4415C31.7215 21.4585 31.9415 21.4415 32.2038 21.3739L32.6861 21.2554C33.1769 21.1285 33.6169 21.1031 33.9892 21.2046C34.3615 21.3062 34.6492 21.5346 34.8438 21.9154C34.9961 22.2115 35.0554 22.4992 35.0215 22.7869C34.9877 23.0746 34.8608 23.3539 34.6408 23.6162C34.4208 23.8785 34.1246 24.1069 33.7438 24.3015C33.3546 24.5046 32.9908 24.6146 32.6438 24.6485C32.2969 24.6739 31.9838 24.6146 31.7046 24.4623C31.4254 24.31 31.1969 24.0731 31.0108 23.7346L31.9754 23.2354C32.1108 23.4639 32.2969 23.5908 32.5338 23.6331C32.7708 23.6754 33.0246 23.6162 33.2954 23.4723C33.4646 23.3792 33.6085 23.2777 33.71 23.1592C33.8115 23.0408 33.8792 22.9223 33.9046 22.7954C33.93 22.6685 33.9046 22.55 33.8454 22.4231C33.7692 22.2708 33.6338 22.1777 33.4561 22.1608C33.2785 22.1439 33.0246 22.1608 32.7115 22.2369L32.1277 22.3808C31.1461 22.6177 30.4946 22.4062 30.1561 21.7546C30.0038 21.4669 29.9531 21.1792 29.9954 20.8746C30.0377 20.5785 30.1646 20.2908 30.3761 20.0285C30.5877 19.7662 30.8669 19.5462 31.2138 19.3685C31.5608 19.1908 31.8992 19.0892 32.2292 19.0723C32.5592 19.0554 32.8554 19.1146 33.1092 19.2585C33.3715 19.4023 33.5746 19.6054 33.7269 19.8846L32.7792 20.3754C32.6608 20.1977 32.5 20.0962 32.3054 20.0623L32.2969 20.0708Z" fill="#F8633C"/>
<path d="M38.7951 16.72L39.7344 20.0877C39.8359 20.46 39.8444 20.8154 39.7344 21.1538C39.6328 21.4923 39.4467 21.78 39.1674 22.0254C38.8882 22.2708 38.5328 22.4569 38.1097 22.5754C37.6867 22.6938 37.289 22.7192 36.9251 22.6515C36.5613 22.5838 36.2482 22.4315 35.9859 22.1946C35.732 21.9577 35.5459 21.6531 35.4444 21.2808L34.5051 17.9131L35.5797 17.6169L36.4936 20.9C36.5444 21.0946 36.6459 21.2638 36.7728 21.3908C36.9082 21.5261 37.0605 21.6108 37.2551 21.6531C37.4413 21.6954 37.6444 21.6869 37.8474 21.6277C38.059 21.5685 38.2367 21.4754 38.372 21.34C38.5074 21.2046 38.6005 21.0523 38.6428 20.8661C38.6851 20.6885 38.6767 20.4938 38.6259 20.2992L37.712 17.0161L38.7951 16.7115V16.72Z" fill="#F8633C"/>
<path d="M40.4959 16.4577L42.6028 16.3223C43.009 16.2969 43.3559 16.3477 43.6521 16.4662C43.9482 16.5931 44.1851 16.7792 44.3544 17.0331C44.5236 17.2869 44.6167 17.5915 44.6421 17.9469C44.6675 18.3108 44.6082 18.6323 44.4559 18.9031C44.3121 19.1738 44.0836 19.3854 43.7875 19.5377L45.0651 21.5515L43.8298 21.6361L42.679 19.8L41.8328 19.8592L41.9598 21.7631L40.8428 21.8392L40.4875 16.4662L40.4959 16.4577ZM42.569 18.8946C43.2205 18.8523 43.5336 18.5646 43.4913 18.0231C43.4744 17.7523 43.3813 17.5492 43.2036 17.4138C43.0344 17.2785 42.7805 17.2277 42.459 17.2531L41.6721 17.3038L41.7821 18.9538L42.569 18.9031V18.8946Z" fill="#F8633C"/>
<path d="M45.048 21.5177L47.6457 16.4493L49.0673 16.6523L50.1588 22.2454L48.9742 22.0762L48.7457 20.79L46.8165 20.5193L46.2411 21.6954L45.048 21.5262V21.5177ZM48.585 19.8846L48.2042 17.7523H48.1704L47.2142 19.69L48.585 19.8846Z" fill="#F8633C"/>
<path d="M54.6353 23.9292L53.7299 23.5908L52.723 19.5546L52.6807 19.5377L51.4707 22.7361L50.4299 22.3384L52.3337 17.3038L53.2476 17.6508L54.2376 21.6784L54.2883 21.6954L55.4983 18.4969L56.5391 18.8861L54.6353 23.9208V23.9292Z" fill="#F8633C"/>
<path d="M60.2025 22.7023C60.1941 22.5246 60.1433 22.3554 60.0418 22.2031C59.9487 22.0507 59.8133 21.9154 59.6356 21.7969C59.3987 21.6446 59.1618 21.5684 58.9079 21.5684C58.6541 21.5684 58.4087 21.6531 58.1633 21.8138C57.9179 21.9746 57.6979 22.2115 57.4948 22.5161C57.2833 22.8292 57.1564 23.1338 57.1056 23.4215C57.0548 23.7092 57.0802 23.9631 57.1733 24.1915C57.2748 24.42 57.4356 24.6146 57.6725 24.7669C57.9348 24.9361 58.1971 25.0123 58.4595 24.9954C58.7302 24.9784 58.9587 24.86 59.1618 24.6484L60.101 25.2746C59.881 25.5369 59.6018 25.7315 59.2802 25.8669C58.9587 26.0023 58.6033 26.0446 58.2225 26.0108C57.8418 25.9684 57.4695 25.8331 57.1056 25.5877C56.6995 25.3254 56.4033 24.9954 56.2087 24.5977C56.0141 24.2084 55.9379 23.7769 55.9887 23.3115C56.0395 22.8461 56.2171 22.3723 56.5387 21.8984C56.8518 21.4246 57.2156 21.0692 57.6218 20.8408C58.0364 20.6123 58.4595 20.5108 58.8995 20.5361C59.3395 20.5615 59.7541 20.7054 60.1518 20.9677C60.4987 21.1961 60.7695 21.4669 60.9641 21.78C61.1587 22.0931 61.2602 22.4315 61.2771 22.7869C61.2941 23.1423 61.2095 23.5061 61.0233 23.8784L60.0756 23.2608C60.1602 23.0831 60.1941 22.8969 60.1856 22.7192L60.2025 22.7023Z" fill="#F8633C"/>
<path d="M63.2574 23.3454L65.8128 25.9008L65.1612 26.5523L63.3928 24.7923L62.4705 25.7231L64.112 27.3562L63.4605 28.0077L61.8189 26.3746L60.8966 27.3054L62.6735 29.0739L62.022 29.7254L59.4582 27.17L63.2574 23.3539V23.3454Z" fill="#F8633C"/>
<path d="M10 62C10 59.7909 11.7909 58 14 58H74C76.2091 58 78 59.7909 78 62V74C78 76.2091 76.2091 78 74 78H14C11.7909 78 10 76.2091 10 74V62Z" fill="#F8633C"/>
<path d="M63.9901 65.77V64.05H70.1901V65.77H68.1801V72.1H66.0101V65.77H63.9901Z" fill="white"/>
<path d="M56.0329 68.07C56.0329 66.71 56.2528 65.63 56.9128 64.88C57.4828 64.23 58.3229 63.91 59.4029 63.91C61.4629 63.91 62.6428 65.04 62.7029 66.9H60.5528C60.5229 66.11 60.1629 65.64 59.4029 65.64C59.0129 65.64 58.7429 65.77 58.5329 66.07C58.2829 66.43 58.2029 66.98 58.2029 68.07C58.2029 69.18 58.2829 69.72 58.5329 70.09C58.7429 70.39 59.0129 70.52 59.4029 70.52C60.1629 70.52 60.5328 70.04 60.5528 69.26H62.7029C62.6428 71.12 61.4629 72.24 59.4029 72.24C58.3229 72.24 57.4828 71.92 56.9128 71.27C56.2528 70.52 56.0329 69.45 56.0329 68.07Z" fill="white"/>
<path d="M49.0596 72.1V64.05H54.2996V65.77H51.2296V67.11H53.8896V68.84H51.2296V70.39H54.3596V72.1H49.0596Z" fill="white"/>
<path d="M44.5939 69.4H43.3839V72.1H41.2139V64.05H44.5939C46.3939 64.05 47.3639 65.03 47.3639 66.73C47.3639 68.44 46.3939 69.4 44.5939 69.4ZM43.3839 67.68H44.2639C44.8739 67.68 45.1939 67.39 45.1939 66.73C45.1939 66.05 44.8739 65.77 44.2639 65.77H43.3839V67.68Z" fill="white"/>
<path d="M37.0933 71.35L37.0333 70.35C36.9933 69.63 36.7533 69.4 36.1633 69.4H35.3233V72.1H33.1533V64.05H36.6433C38.3933 64.05 39.3033 65.03 39.3033 66.51C39.3033 67.6 38.7633 68.29 37.9333 68.53C38.7633 68.68 39.0933 69.19 39.1633 70.25L39.2333 71.34C39.2533 71.67 39.3133 71.91 39.4033 72.1H37.2433C37.1533 71.93 37.1133 71.62 37.0933 71.35ZM35.3233 67.68H36.2033C36.8133 67.68 37.1333 67.4 37.1333 66.73C37.1333 66.04 36.8133 65.77 36.2033 65.77H35.3233V67.68Z" fill="white"/>
<path d="M26.04 72.1V64.05H31.28V65.77H28.21V67.11H30.87V68.84H28.21V70.39H31.34V72.1H26.04Z" fill="white"/>
<path d="M21.5743 69.4H20.3643V72.1H18.1943V64.05H21.5743C23.3743 64.05 24.3443 65.03 24.3443 66.73C24.3443 68.44 23.3743 69.4 21.5743 69.4ZM20.3643 67.68H21.2443C21.8543 67.68 22.1743 67.39 22.1743 66.73C22.1743 66.05 21.8543 65.77 21.2443 65.77H20.3643V67.68Z" fill="white"/>
<path d="M4.67316 18.8797C4.86144 17.7068 6.32038 17.7068 6.50866 18.8797L7.01896 22.0586C7.07636 22.4162 7.28674 22.7161 7.57817 22.8558L10.107 24.068C10.9245 24.4598 10.8531 25.8203 10.0006 26.0959L7.68014 26.846C7.33262 26.9583 7.07248 27.2915 7.01212 27.7014L6.51108 31.1046C6.33531 32.2985 4.84651 32.2985 4.67074 31.1046L4.16969 27.7014C4.10934 27.2915 3.8492 26.9583 3.50168 26.846L1.18123 26.0959C0.328705 25.8203 0.25733 24.4598 1.07484 24.068L3.60365 22.8558C3.89507 22.7161 4.10546 22.4162 4.16286 22.0586L4.67316 18.8797Z" fill="#FFE640"/>
<path d="M77.2544 5.19385C77.5099 3.60205 79.4899 3.60205 79.7454 5.19385L80.438 9.50809C80.5159 9.99336 80.8014 10.4004 81.1969 10.59L84.6289 12.2351C85.7383 12.7669 85.6415 14.6132 84.4845 14.9873L81.3353 16.0053C80.8637 16.1577 80.5106 16.6098 80.4287 17.1662L79.7487 21.7848C79.5102 23.4051 77.4897 23.4051 77.2511 21.7848L76.5711 17.1662C76.4892 16.6098 76.1362 16.1577 75.6645 16.0053L72.5154 14.9873C71.3584 14.6132 71.2615 12.7669 72.371 12.2351L75.8029 10.59C76.1984 10.4004 76.4839 9.99336 76.5618 9.50809L77.2544 5.19385Z" fill="#FFE640"/>
<path d="M33.1082 33.9414C32.315 33.4126 31.2748 34.0922 31.4404 35.031L33.7329 48.0217C33.9163 49.0608 33.1669 50.1533 33.1669 51.2084C33.1669 52.1059 33.8944 52.8334 34.7919 52.8334H53.2085C54.106 52.8334 54.8335 52.1059 54.8335 51.2084C54.8335 50.1532 54.084 49.0606 54.2674 48.0215L56.5598 35.031C56.7255 34.0922 55.6853 33.4126 54.8921 33.9414L50.8196 36.6563C49.7703 37.3558 48.3476 37.0149 47.7294 35.9158L44.9443 30.9646C44.5302 30.2283 43.4701 30.2283 43.0559 30.9646L40.2709 35.9158C39.6526 37.0149 38.2299 37.3558 37.1806 36.6563L33.1082 33.9414Z" fill="#FF9567"/>
<path d="M45.2422 40.5339C45.3438 40.6356 45.4816 40.6927 45.6254 40.6927H47.2498C47.549 40.6927 47.7915 40.9352 47.7915 41.2344V43.9427C47.7913 46.0364 46.0942 47.7334 44.0005 47.7337C41.9065 47.7337 40.2087 46.0366 40.2085 43.9427V41.2344C40.2085 40.9352 40.451 40.6927 40.7502 40.6927H42.3748C42.5184 40.6927 42.6562 40.6356 42.7578 40.534L43.6173 39.6745C43.8289 39.4629 44.172 39.4629 44.3835 39.6746L45.2422 40.5339Z" fill="white"/>
</svg>
