<svg width="89" height="88" viewBox="0 0 89 88" fill="none" xmlns="http://www.w3.org/2000/svg">
<path d="M1.23752 51.4527C0.899782 50.7874 1.38312 50 2.12919 50H86.8708C87.6169 50 88.1002 50.7875 87.7625 51.4527L86.181 54.5677C84.4477 57.9818 84.4477 62.0182 86.181 65.4323L87.7625 68.5473C88.1002 69.2125 87.6169 70 86.8708 70H2.12919C1.38312 70 0.899783 69.2125 1.23752 68.5473L2.81898 65.4323C4.55232 62.0182 4.55231 57.9818 2.81898 54.5677L1.23752 51.4527Z" fill="#237DE9"/>
<rect x="11.7692" y="11.2692" width="65.4615" height="65.4615" rx="32.7308" fill="#E3EFFF"/>
<rect x="11.7692" y="11.2692" width="65.4615" height="65.4615" rx="32.7308" stroke="#448FEB" stroke-width="2.53846"/>
<path d="M32.4443 34.8335H36.333V44.0493C33.6707 43.5087 31.6671 41.1553 31.667 38.3335V35.6108C31.6671 35.1814 32.0149 34.8336 32.4443 34.8335ZM56.5557 34.8335C56.9851 34.8336 57.3329 35.1814 57.333 35.6108V38.3335C57.3329 41.1553 55.3293 43.5087 52.667 44.0493V34.8335H56.5557Z" stroke="#6FACF6" stroke-width="2.33333"/>
<path d="M51.4998 31.3335C52.7883 31.3335 53.8336 32.378 53.8337 33.6665V40.6665C53.8337 44.8282 51.1092 48.3515 47.347 49.5551C46.7213 49.7552 46.2498 50.309 46.2498 50.966C46.2498 51.7212 46.862 52.3335 47.6173 52.3335H49.1672C49.8115 52.3335 50.3337 52.8558 50.3337 53.5C50.3337 54.1442 49.8115 54.6665 49.1672 54.6665H39.8333C39.189 54.6665 38.6667 54.1442 38.6667 53.5C38.6667 52.8558 39.189 52.3335 39.8333 52.3335H41.3822C42.1375 52.3335 42.7498 51.7212 42.7498 50.9659C42.7498 50.309 42.2783 49.7552 41.6526 49.555C37.8907 48.3513 35.1667 44.8279 35.1667 40.6665V33.6665C35.1669 32.3781 36.2113 31.3337 37.4998 31.3335H51.4998Z" fill="#6FACF6"/>
<path d="M43.9769 35.8934C44.1909 35.4598 44.8091 35.4598 45.0231 35.8934L45.9072 37.6848C45.9922 37.857 46.1564 37.9763 46.3464 38.0039L48.3234 38.2912C48.8018 38.3607 48.9929 38.9487 48.6467 39.2862L47.2161 40.6806C47.0786 40.8146 47.0159 41.0077 47.0484 41.1969L47.3861 43.1659C47.4678 43.6424 46.9676 44.0058 46.5397 43.7808L44.7714 42.8512C44.6015 42.7619 44.3985 42.7619 44.2286 42.8512L42.4603 43.7808C42.0324 44.0058 41.5322 43.6424 41.6139 43.1659L41.9516 41.1969C41.9841 41.0077 41.9214 40.8146 41.7839 40.6806L40.3533 39.2862C40.0071 38.9487 40.1982 38.3607 40.6766 38.2912L42.6536 38.0039C42.8436 37.9763 43.0078 37.857 43.0928 37.6848L43.9769 35.8934Z" fill="white"/>
<g clip-path="url(#clip0_5854_113205)">
<path d="M28.0238 28.8621L27.2707 29.6913L23.2769 26.0783L24.0299 25.249L28.0238 28.8621Z" fill="#448FEB"/>
<path d="M31.9244 25.4523L31.1713 26.0615L27.1775 24.9108L27.1436 24.9361L29.3098 27.5846L28.4467 28.2869L25.0452 24.1154L25.8067 23.4977L29.7921 24.6654L29.8344 24.6315L27.6682 21.9831L28.5229 21.2808L31.9244 25.4523Z" fill="#448FEB"/>
<path d="M32.7966 20.0706C32.5935 20.0368 32.3735 20.0875 32.1366 20.2145C31.9673 20.2991 31.8404 20.4006 31.7473 20.5021C31.6543 20.6121 31.595 20.7221 31.5781 20.8406C31.5612 20.9591 31.5781 21.0691 31.6373 21.1791C31.7135 21.3314 31.8489 21.4245 32.035 21.4414C32.2212 21.4583 32.4412 21.4414 32.7035 21.3737L33.1858 21.2552C33.6766 21.1283 34.1166 21.1029 34.4889 21.2045C34.8612 21.306 35.1489 21.5345 35.3435 21.9152C35.4958 22.2114 35.555 22.4991 35.5212 22.7868C35.4873 23.0745 35.3604 23.3537 35.1404 23.616C34.9204 23.8783 34.6243 24.1068 34.2435 24.3014C33.8543 24.5045 33.4904 24.6145 33.1435 24.6483C32.7966 24.6737 32.4835 24.6145 32.2043 24.4621C31.925 24.3098 31.6966 24.0729 31.5104 23.7345L32.475 23.2352C32.6104 23.4637 32.7966 23.5906 33.0335 23.6329C33.2704 23.6752 33.5243 23.616 33.795 23.4721C33.9643 23.3791 34.1081 23.2775 34.2097 23.1591C34.3112 23.0406 34.3789 22.9221 34.4043 22.7952C34.4297 22.6683 34.4043 22.5498 34.345 22.4229C34.2689 22.2706 34.1335 22.1775 33.9558 22.1606C33.7781 22.1437 33.5243 22.1606 33.2112 22.2368L32.6273 22.3806C31.6458 22.6175 30.9943 22.406 30.6558 21.7545C30.5035 21.4668 30.4527 21.1791 30.495 20.8745C30.5373 20.5783 30.6643 20.2906 30.8758 20.0283C31.0873 19.766 31.3666 19.546 31.7135 19.3683C32.0604 19.1906 32.3989 19.0891 32.7289 19.0721C33.0589 19.0552 33.355 19.1145 33.6089 19.2583C33.8712 19.4021 34.0743 19.6052 34.2266 19.8845L33.2789 20.3752C33.1604 20.1975 32.9997 20.096 32.805 20.0621L32.7966 20.0706Z" fill="#448FEB"/>
<path d="M39.2946 16.7199L40.2339 20.0876C40.3354 20.4599 40.3439 20.8153 40.2339 21.1537C40.1323 21.4922 39.9462 21.7799 39.6669 22.0253C39.3877 22.2707 39.0323 22.4568 38.6093 22.5753C38.1862 22.6937 37.7885 22.7191 37.4246 22.6514C37.0608 22.5837 36.7477 22.4314 36.4854 22.1945C36.2316 21.9576 36.0454 21.653 35.9439 21.2807L35.0046 17.913L36.0793 17.6168L36.9931 20.8999C37.0439 21.0945 37.1454 21.2637 37.2723 21.3907C37.4077 21.526 37.56 21.6107 37.7546 21.653C37.9408 21.6953 38.1439 21.6868 38.3469 21.6276C38.5585 21.5683 38.7362 21.4753 38.8716 21.3399C39.0069 21.2045 39.1 21.0522 39.1423 20.866C39.1846 20.6883 39.1762 20.4937 39.1254 20.2991L38.2116 17.016L39.2946 16.7114V16.7199Z" fill="#448FEB"/>
<path d="M40.9955 16.4577L43.1024 16.3223C43.5086 16.2969 43.8555 16.3477 44.1517 16.4662C44.4478 16.5931 44.6848 16.7792 44.854 17.0331C45.0232 17.2869 45.1163 17.5915 45.1417 17.9469C45.1671 18.3108 45.1078 18.6323 44.9555 18.9031C44.8117 19.1738 44.5832 19.3854 44.2871 19.5377L45.5648 21.5515L44.3294 21.6361L43.1786 19.8L42.3324 19.8592L42.4594 21.7631L41.3424 21.8392L40.9871 16.4662L40.9955 16.4577ZM43.0686 18.8946C43.7201 18.8523 44.0332 18.5646 43.9909 18.0231C43.974 17.7523 43.8809 17.5492 43.7032 17.4138C43.534 17.2785 43.2801 17.2277 42.9586 17.2531L42.1717 17.3038L42.2817 18.9538L43.0686 18.9031V18.8946Z" fill="#448FEB"/>
<path d="M45.5476 21.5177L48.1453 16.4492L49.5668 16.6523L50.6584 22.2454L49.4738 22.0761L49.2453 20.79L47.3161 20.5192L46.7407 21.6954L45.5476 21.5261V21.5177ZM49.0845 19.8846L48.7038 17.7523H48.6699L47.7138 19.69L49.0845 19.8846Z" fill="#448FEB"/>
<path d="M55.1348 23.9291L54.2294 23.5906L53.2225 19.5545L53.1802 19.5376L51.9702 22.736L50.9294 22.3383L52.8333 17.3037L53.7471 17.6506L54.7371 21.6783L54.7879 21.6953L55.9979 18.4968L57.0387 18.886L55.1348 23.9206V23.9291Z" fill="#448FEB"/>
<path d="M60.702 22.7022C60.6936 22.5245 60.6428 22.3553 60.5413 22.203C60.4482 22.0506 60.3128 21.9153 60.1351 21.7968C59.8982 21.6445 59.6613 21.5683 59.4074 21.5683C59.1536 21.5683 58.9082 21.653 58.6628 21.8137C58.4174 21.9745 58.1974 22.2114 57.9944 22.516C57.7828 22.8291 57.6559 23.1337 57.6051 23.4214C57.5544 23.7091 57.5797 23.963 57.6728 24.1914C57.7744 24.4199 57.9351 24.6145 58.172 24.7668C58.4344 24.936 58.6967 25.0122 58.959 24.9953C59.2297 24.9783 59.4582 24.8599 59.6613 24.6483L60.6005 25.2745C60.3805 25.5368 60.1013 25.7314 59.7797 25.8668C59.4582 26.0022 59.1028 26.0445 58.722 26.0106C58.3413 25.9683 57.969 25.833 57.6051 25.5876C57.199 25.3253 56.9028 24.9953 56.7082 24.5976C56.5136 24.2083 56.4374 23.7768 56.4882 23.3114C56.539 22.846 56.7167 22.3722 57.0382 21.8983C57.3513 21.4245 57.7151 21.0691 58.1213 20.8406C58.5359 20.6122 58.959 20.5106 59.399 20.536C59.839 20.5614 60.2536 20.7053 60.6513 20.9676C60.9982 21.196 61.269 21.4668 61.4636 21.7799C61.6582 22.093 61.7597 22.4314 61.7767 22.7868C61.7936 23.1422 61.709 23.506 61.5228 23.8783L60.5751 23.2606C60.6597 23.083 60.6936 22.8968 60.6851 22.7191L60.702 22.7022Z" fill="#448FEB"/>
<path d="M63.757 23.3452L66.3124 25.9006L65.6608 26.5521L63.8924 24.7921L62.9701 25.7229L64.6116 27.356L63.9601 28.0075L62.3185 26.3744L61.3962 27.3052L63.1731 29.0737L62.5216 29.7252L59.9578 27.1698L63.757 23.3537V23.3452Z" fill="#448FEB"/>
</g>
<rect x="10.5" y="58" width="68" height="20" rx="4" fill="#448FEB"/>
<path d="M25.3969 68.07C25.3969 65.52 26.3369 63.91 28.7669 63.91C30.8269 63.91 32.0069 65.04 32.0669 66.9H29.9169C29.8869 66.11 29.5269 65.64 28.7669 65.64C27.9769 65.64 27.5669 66.06 27.5669 68.07C27.5669 70.02 27.9269 70.52 28.8169 70.52C29.5669 70.52 29.9969 70.01 30.0269 69.2H28.7969V67.77H32.0569V72.1H30.5169L30.3269 71.23C30.0569 71.85 29.3469 72.24 28.4669 72.24C26.3869 72.24 25.3969 70.65 25.3969 68.07ZM37.9378 71.35L37.8778 70.35C37.8378 69.63 37.5978 69.4 37.0078 69.4H36.1678V72.1H33.9978V64.05H37.4878C39.2378 64.05 40.1478 65.03 40.1478 66.51C40.1478 67.6 39.6078 68.29 38.7778 68.53C39.6078 68.68 39.9378 69.19 40.0078 70.25L40.0778 71.34C40.0978 71.67 40.1578 71.91 40.2478 72.1H38.0878C37.9978 71.93 37.9578 71.62 37.9378 71.35ZM36.1678 67.68H37.0478C37.6578 67.68 37.9778 67.4 37.9778 66.73C37.9778 66.04 37.6578 65.77 37.0478 65.77H36.1678V67.68ZM42.0584 72.1V64.05H47.2984V65.77H44.2284V67.11H46.8884V68.84H44.2284V70.39H47.3584V72.1H42.0584ZM51.2916 64.05H53.4716L56.0116 72.1H53.8316L53.5016 70.81H51.2516L50.9216 72.1H48.7516L51.2916 64.05ZM53.0916 69.19L52.3816 66.39L51.6616 69.19H53.0916ZM56.6471 65.77V64.05H62.8471V65.77H60.8371V72.1H58.6671V65.77H56.6471Z" fill="white"/>
<path d="M16.869 64.0655C16.9985 63.3115 18.0015 63.3115 18.131 64.0655L18.4818 66.1091C18.5212 66.339 18.6659 66.5318 18.8662 66.6216L20.6048 67.4008C21.1668 67.6528 21.1178 68.5273 20.5317 68.7045L18.9363 69.1867C18.6974 69.2589 18.5186 69.4731 18.4771 69.7366L18.1326 71.9244C18.0118 72.6919 16.9882 72.6919 16.8674 71.9244L16.5229 69.7366C16.4814 69.4731 16.3026 69.2589 16.0637 69.1867L14.4683 68.7045C13.8822 68.5273 13.8332 67.6528 14.3952 67.4008L16.1338 66.6216C16.3341 66.5318 16.4788 66.339 16.5182 66.1091L16.869 64.0655Z" fill="#FFE640"/>
<path d="M70.869 64.0655C70.9985 63.3115 72.0015 63.3115 72.131 64.0655L72.4818 66.1091C72.5212 66.339 72.6659 66.5318 72.8662 66.6216L74.6048 67.4008C75.1668 67.6528 75.1178 68.5273 74.5317 68.7045L72.9363 69.1867C72.6974 69.2589 72.5186 69.4731 72.4771 69.7366L72.1326 71.9244C72.0118 72.6919 70.9882 72.6919 70.8674 71.9244L70.5229 69.7366C70.4814 69.4731 70.3026 69.2589 70.0637 69.1867L68.4683 68.7045C67.8822 68.5273 67.8332 67.6528 68.3952 67.4008L70.1338 66.6216C70.3341 66.5318 70.4788 66.339 70.5182 66.1091L70.869 64.0655Z" fill="#FFE640"/>
<defs>
<clipPath id="clip0_5854_113205">
<rect width="44" height="14" fill="white" transform="translate(22.5 16)"/>
</clipPath>
</defs>
</svg>
