<svg width="89" height="88" viewBox="0 0 89 88" fill="none" xmlns="http://www.w3.org/2000/svg">
<path d="M1.23752 51.4527C0.899782 50.7874 1.38312 50 2.12919 50H86.8708C87.6169 50 88.1002 50.7875 87.7625 51.4527L86.181 54.5677C84.4477 57.9818 84.4477 62.0182 86.181 65.4323L87.7625 68.5473C88.1002 69.2125 87.6169 70 86.8708 70H2.12919C1.38312 70 0.899783 69.2125 1.23752 68.5473L2.81898 65.4323C4.55232 62.0182 4.55231 57.9818 2.81898 54.5677L1.23752 51.4527Z" fill="#ED3C19"/>
<rect x="11.7692" y="11.2692" width="65.4615" height="65.4615" rx="32.7308" fill="#FEEFEC"/>
<rect x="11.7692" y="11.2692" width="65.4615" height="65.4615" rx="32.7308" stroke="#F8633C" stroke-width="2.53846"/>
<g clip-path="url(#clip0_5854_113277)">
<path d="M28.024 28.8621L27.2709 29.6913L23.2771 26.0783L24.0302 25.249L28.024 28.8621Z" fill="#F8633C"/>
<path d="M31.9246 25.4523L31.1716 26.0615L27.1777 24.9108L27.1439 24.9361L29.31 27.5846L28.4469 28.2869L25.0454 24.1154L25.8069 23.4977L29.7923 24.6654L29.8346 24.6315L27.6685 21.9831L28.5231 21.2808L31.9246 25.4523Z" fill="#F8633C"/>
<path d="M32.7968 20.0706C32.5937 20.0368 32.3737 20.0875 32.1368 20.2145C31.9676 20.2991 31.8407 20.4006 31.7476 20.5021C31.6545 20.6121 31.5953 20.7221 31.5784 20.8406C31.5614 20.9591 31.5784 21.0691 31.6376 21.1791C31.7137 21.3314 31.8491 21.4245 32.0353 21.4414C32.2214 21.4583 32.4414 21.4414 32.7037 21.3737L33.1861 21.2552C33.6768 21.1283 34.1168 21.1029 34.4891 21.2045C34.8614 21.306 35.1491 21.5345 35.3437 21.9152C35.4961 22.2114 35.5553 22.4991 35.5214 22.7868C35.4876 23.0745 35.3607 23.3537 35.1407 23.616C34.9207 23.8783 34.6245 24.1068 34.2437 24.3014C33.8545 24.5045 33.4907 24.6145 33.1437 24.6483C32.7968 24.6737 32.4837 24.6145 32.2045 24.4621C31.9253 24.3098 31.6968 24.0729 31.5107 23.7345L32.4753 23.2352C32.6107 23.4637 32.7968 23.5906 33.0337 23.6329C33.2707 23.6752 33.5245 23.616 33.7953 23.4721C33.9645 23.3791 34.1084 23.2775 34.2099 23.1591C34.3114 23.0406 34.3791 22.9221 34.4045 22.7952C34.4299 22.6683 34.4045 22.5498 34.3453 22.4229C34.2691 22.2706 34.1337 22.1775 33.9561 22.1606C33.7784 22.1437 33.5245 22.1606 33.2114 22.2368L32.6276 22.3806C31.6461 22.6175 30.9945 22.406 30.6561 21.7545C30.5037 21.4668 30.453 21.1791 30.4953 20.8745C30.5376 20.5783 30.6645 20.2906 30.8761 20.0283C31.0876 19.766 31.3668 19.546 31.7137 19.3683C32.0607 19.1906 32.3991 19.0891 32.7291 19.0721C33.0591 19.0552 33.3553 19.1145 33.6091 19.2583C33.8714 19.4021 34.0745 19.6052 34.2268 19.8845L33.2791 20.3752C33.1607 20.1975 32.9999 20.096 32.8053 20.0621L32.7968 20.0706Z" fill="#F8633C"/>
<path d="M39.2949 16.7199L40.2341 20.0876C40.3357 20.4599 40.3441 20.8153 40.2341 21.1537C40.1326 21.4922 39.9464 21.7799 39.6672 22.0253C39.388 22.2707 39.0326 22.4568 38.6095 22.5753C38.1864 22.6937 37.7887 22.7191 37.4249 22.6514C37.061 22.5837 36.748 22.4314 36.4857 22.1945C36.2318 21.9576 36.0457 21.653 35.9441 21.2807L35.0049 17.913L36.0795 17.6168L36.9933 20.8999C37.0441 21.0945 37.1457 21.2637 37.2726 21.3907C37.408 21.526 37.5603 21.6107 37.7549 21.653C37.941 21.6953 38.1441 21.6868 38.3472 21.6276C38.5587 21.5683 38.7364 21.4753 38.8718 21.3399C39.0072 21.2045 39.1003 21.0522 39.1426 20.866C39.1849 20.6883 39.1764 20.4937 39.1257 20.2991L38.2118 17.016L39.2949 16.7114V16.7199Z" fill="#F8633C"/>
<path d="M40.9958 16.4577L43.1027 16.3223C43.5088 16.2969 43.8558 16.3477 44.1519 16.4662C44.4481 16.5931 44.685 16.7792 44.8542 17.0331C45.0235 17.2869 45.1165 17.5915 45.1419 17.9469C45.1673 18.3108 45.1081 18.6323 44.9558 18.9031C44.8119 19.1738 44.5835 19.3854 44.2873 19.5377L45.565 21.5515L44.3296 21.6361L43.1788 19.8L42.3327 19.8592L42.4596 21.7631L41.3427 21.8392L40.9873 16.4662L40.9958 16.4577ZM43.0688 18.8946C43.7204 18.8523 44.0335 18.5646 43.9912 18.0231C43.9742 17.7523 43.8812 17.5492 43.7035 17.4138C43.5342 17.2785 43.2804 17.2277 42.9588 17.2531L42.1719 17.3038L42.2819 18.9538L43.0688 18.9031V18.8946Z" fill="#F8633C"/>
<path d="M45.5479 21.5177L48.1455 16.4492L49.5671 16.6523L50.6586 22.2454L49.474 22.0761L49.2455 20.79L47.3163 20.5192L46.7409 21.6954L45.5479 21.5261V21.5177ZM49.0848 19.8846L48.704 17.7523H48.6702L47.714 19.69L49.0848 19.8846Z" fill="#F8633C"/>
<path d="M55.1351 23.9291L54.2297 23.5906L53.2228 19.5545L53.1805 19.5376L51.9705 22.736L50.9297 22.3383L52.8335 17.3037L53.7474 17.6506L54.7374 21.6783L54.7882 21.6953L55.9982 18.4968L57.0389 18.886L55.1351 23.9206V23.9291Z" fill="#F8633C"/>
<path d="M60.7023 22.7022C60.6938 22.5245 60.6431 22.3553 60.5415 22.203C60.4484 22.0506 60.3131 21.9153 60.1354 21.7968C59.8984 21.6445 59.6615 21.5683 59.4077 21.5683C59.1538 21.5683 58.9084 21.653 58.6631 21.8137C58.4177 21.9745 58.1977 22.2114 57.9946 22.516C57.7831 22.8291 57.6561 23.1337 57.6054 23.4214C57.5546 23.7091 57.58 23.963 57.6731 24.1914C57.7746 24.4199 57.9354 24.6145 58.1723 24.7668C58.4346 24.936 58.6969 25.0122 58.9592 24.9953C59.23 24.9783 59.4584 24.8599 59.6615 24.6483L60.6008 25.2745C60.3808 25.5368 60.1015 25.7314 59.78 25.8668C59.4584 26.0022 59.1031 26.0445 58.7223 26.0106C58.3415 25.9683 57.9692 25.833 57.6054 25.5876C57.1992 25.3253 56.9031 24.9953 56.7084 24.5976C56.5138 24.2083 56.4377 23.7768 56.4884 23.3114C56.5392 22.846 56.7169 22.3722 57.0384 21.8983C57.3515 21.4245 57.7154 21.0691 58.1215 20.8406C58.5361 20.6122 58.9592 20.5106 59.3992 20.536C59.8392 20.5614 60.2538 20.7053 60.6515 20.9676C60.9984 21.196 61.2692 21.4668 61.4638 21.7799C61.6584 22.093 61.76 22.4314 61.7769 22.7868C61.7938 23.1422 61.7092 23.506 61.5231 23.8783L60.5754 23.2606C60.66 23.083 60.6938 22.8968 60.6854 22.7191L60.7023 22.7022Z" fill="#F8633C"/>
<path d="M63.7572 23.3452L66.3126 25.9006L65.6611 26.5521L63.8926 24.7921L62.9703 25.7229L64.6119 27.356L63.9603 28.0075L62.3188 26.3744L61.3965 27.3052L63.1734 29.0737L62.5219 29.7252L59.958 27.1698L63.7572 23.3537V23.3452Z" fill="#F8633C"/>
</g>
<rect x="10.5" y="58" width="68" height="20" rx="4" fill="#F8633C"/>
<path d="M22.0741 69.4H20.8641V72.1H18.6941V64.05H22.0741C23.8741 64.05 24.8441 65.03 24.8441 66.73C24.8441 68.44 23.8741 69.4 22.0741 69.4ZM20.8641 67.68H21.7441C22.3541 67.68 22.6741 67.39 22.6741 66.73C22.6741 66.05 22.3541 65.77 21.7441 65.77H20.8641V67.68ZM26.5398 72.1V64.05H31.7798V65.77H28.7098V67.11H31.3698V68.84H28.7098V70.39H31.8398V72.1H26.5398ZM37.5931 71.35L37.5331 70.35C37.4931 69.63 37.2531 69.4 36.6631 69.4H35.8231V72.1H33.6531V64.05H37.1431C38.8931 64.05 39.8031 65.03 39.8031 66.51C39.8031 67.6 39.2631 68.29 38.4331 68.53C39.2631 68.68 39.5931 69.19 39.6631 70.25L39.7331 71.34C39.7531 71.67 39.8131 71.91 39.9031 72.1H37.7431C37.6531 71.93 37.6131 71.62 37.5931 71.35ZM35.8231 67.68H36.7031C37.3131 67.68 37.6331 67.4 37.6331 66.73C37.6331 66.04 37.3131 65.77 36.7031 65.77H35.8231V67.68ZM45.0936 69.4H43.8836V72.1H41.7136V64.05H45.0936C46.8936 64.05 47.8636 65.03 47.8636 66.73C47.8636 68.44 46.8936 69.4 45.0936 69.4ZM43.8836 67.68H44.7636C45.3736 67.68 45.6936 67.39 45.6936 66.73C45.6936 66.05 45.3736 65.77 44.7636 65.77H43.8836V67.68ZM49.5593 72.1V64.05H54.7993V65.77H51.7293V67.11H54.3893V68.84H51.7293V70.39H54.8593V72.1H49.5593ZM56.5326 68.07C56.5326 66.71 56.7526 65.63 57.4126 64.88C57.9826 64.23 58.8226 63.91 59.9026 63.91C61.9626 63.91 63.1426 65.04 63.2026 66.9H61.0526C61.0226 66.11 60.6626 65.64 59.9026 65.64C59.5126 65.64 59.2426 65.77 59.0326 66.07C58.7826 66.43 58.7026 66.98 58.7026 68.07C58.7026 69.18 58.7826 69.72 59.0326 70.09C59.2426 70.39 59.5126 70.52 59.9026 70.52C60.6626 70.52 61.0326 70.04 61.0526 69.26H63.2026C63.1426 71.12 61.9626 72.24 59.9026 72.24C58.8226 72.24 57.9826 71.92 57.4126 71.27C56.7526 70.52 56.5326 69.45 56.5326 68.07ZM64.4899 65.77V64.05H70.6899V65.77H68.6799V72.1H66.5099V65.77H64.4899Z" fill="white"/>
<path d="M5.17316 18.8797C5.36144 17.7068 6.82038 17.7068 7.00866 18.8797L7.51896 22.0586C7.57636 22.4162 7.78674 22.7161 8.07817 22.8558L10.607 24.068C11.4245 24.4598 11.3531 25.8203 10.5006 26.0959L8.18014 26.846C7.83262 26.9583 7.57248 27.2915 7.51212 27.7014L7.01108 31.1046C6.83531 32.2985 5.34651 32.2985 5.17074 31.1046L4.66969 27.7014C4.60934 27.2915 4.3492 26.9583 4.00168 26.846L1.68123 26.0959C0.828705 25.8203 0.75733 24.4598 1.57484 24.068L4.10365 22.8558C4.39507 22.7161 4.60546 22.4162 4.66286 22.0586L5.17316 18.8797Z" fill="#FFE640"/>
<path d="M77.7544 5.19385C78.0099 3.60205 79.9899 3.60205 80.2454 5.19385L80.938 9.50809C81.0159 9.99336 81.3014 10.4004 81.6969 10.59L85.1289 12.2351C86.2383 12.7669 86.1415 14.6132 84.9845 14.9873L81.8353 16.0053C81.3637 16.1577 81.0106 16.6098 80.9287 17.1662L80.2487 21.7848C80.0102 23.4051 77.9897 23.4051 77.7511 21.7848L77.0711 17.1662C76.9892 16.6098 76.6362 16.1577 76.1645 16.0053L73.0153 14.9873C71.8583 14.6132 71.7615 12.7669 72.871 12.2351L76.3029 10.59C76.6984 10.4004 76.9839 9.99336 77.0618 9.50809L77.7544 5.19385Z" fill="#FFE640"/>
<path d="M33.608 33.9411C32.8147 33.4123 31.7745 34.092 31.9402 35.0308L34.2327 48.0215C34.416 49.0605 33.6666 50.1531 33.6666 51.2081C33.6666 52.1056 34.3942 52.8331 35.2916 52.8331H53.7083C54.6058 52.8331 55.3333 52.1056 55.3333 51.2081C55.3333 50.153 54.5838 49.0604 54.7671 48.0213L57.0596 35.0308C57.2253 34.092 56.185 33.4123 55.3918 33.9411L51.3194 36.6561C50.2701 37.3556 48.8474 37.0147 48.2291 35.9155L45.4441 30.9643C45.0299 30.228 43.9698 30.228 43.5557 30.9643L40.7706 35.9155C40.1524 37.0147 38.7297 37.3556 37.6804 36.6561L33.608 33.9411Z" fill="#FF9567"/>
<path d="M45.742 40.5342C45.8436 40.6359 45.9814 40.693 46.1251 40.693H47.7496C48.0487 40.693 48.2913 40.9355 48.2913 41.2346V43.943C48.2911 46.0368 46.5941 47.7339 44.5002 47.734C42.4063 47.734 40.7084 46.0369 40.7083 43.943V41.2346C40.7083 40.9355 40.9508 40.693 41.2499 40.693H42.8745C43.0182 40.693 43.1559 40.6359 43.2575 40.5343L44.1171 39.6748C44.3287 39.4632 44.6717 39.4632 44.8833 39.6749L45.742 40.5342Z" fill="white"/>
<defs>
<clipPath id="clip0_5854_113277">
<rect width="44" height="14" fill="white" transform="translate(22.5 16)"/>
</clipPath>
</defs>
</svg>
