<svg width="32" height="32" viewBox="0 0 32 32" fill="none" xmlns="http://www.w3.org/2000/svg">
<path d="M6.8335 7.5C6.8335 6.39543 7.72893 5.5 8.8335 5.5H23.5002C24.6047 5.5 25.5002 6.39543 25.5002 7.5V24.8333C25.5002 25.9379 24.6047 26.8333 23.5002 26.8333H8.83349C7.72892 26.8333 6.8335 25.9379 6.8335 24.8333V7.5Z" fill="#FA967C"/>
<path d="M12.1667 6.56667C12.1667 5.97756 12.6443 5.5 13.2334 5.5H19.1001C19.6892 5.5 20.1667 5.97756 20.1667 6.56667C20.1667 7.15577 19.6892 7.63333 19.1001 7.63333H13.2334C12.6443 7.63333 12.1667 7.15577 12.1667 6.56667Z" fill="white"/>
<path d="M13.2332 5.50033L13.1239 5.50553C12.5863 5.5604 12.167 6.01475 12.1668 6.56673C12.1668 7.11881 12.5863 7.57303 13.1239 7.62793L13.2332 7.63314H19.1004L19.2098 7.62793C19.7115 7.57669 20.1107 7.17791 20.1616 6.67611L20.1668 6.56673C20.1667 6.01475 19.7473 5.5604 19.2098 5.50553L19.1004 5.50033V4.16699C20.4257 4.16713 21.5 5.24146 21.5002 6.56673C21.5002 7.89213 20.4258 8.96633 19.1004 8.96647H13.2332C11.9909 8.96634 10.9696 8.02271 10.8465 6.81283L10.8335 6.56673L10.8465 6.32194C10.9693 5.11168 11.9906 4.16712 13.2332 4.16699V5.50033ZM19.1004 4.16699V5.50033H13.2332V4.16699H19.1004Z" fill="#FA967C"/>
<path fill-rule="evenodd" clip-rule="evenodd" d="M9.50024 22.9004C9.50024 22.3481 9.97781 21.9004 10.5669 21.9004H21.7669C22.356 21.9004 22.8336 22.3481 22.8336 22.9004C22.8336 23.4527 22.356 23.9004 21.7669 23.9004H10.5669C9.97781 23.9004 9.50024 23.4527 9.50024 22.9004Z" fill="#D63D4A"/>
<path d="M9.50024 18.9004C9.50024 18.3481 9.97781 17.9004 10.5669 17.9004H21.7669C22.356 17.9004 22.8336 18.3481 22.8336 18.9004C22.8336 19.4527 22.356 19.9004 21.7669 19.9004H10.5669C9.97781 19.9004 9.50024 19.4527 9.50024 18.9004Z" fill="#D63D4A"/>
<path d="M12.8335 9.83398C13.2937 9.83399 13.6665 10.2068 13.6665 10.667V12.333H15.3335C15.7936 12.3331 16.1664 12.706 16.1665 13.166C16.1665 13.6262 15.7936 13.9989 15.3335 13.999H13.6665V15.667C13.6663 16.127 13.2936 16.5 12.8335 16.5C12.3734 16.5 12.0007 16.127 12.0005 15.667V13.999H10.3335C9.87337 13.9989 9.50049 13.6262 9.50049 13.166C9.50059 12.706 9.87344 12.3331 10.3335 12.333H12.0005V10.667C12.0005 10.2068 12.3733 9.83398 12.8335 9.83398Z" fill="#D63D4A"/>
</svg>
