<svg width="32" height="32" viewBox="0 0 32 32" fill="none" xmlns="http://www.w3.org/2000/svg">
<path d="M14.0216 13.5583L10.081 5.67712C9.73409 4.98332 10.2386 4.16699 11.0143 4.16699L20.1593 4.16699C20.935 4.16699 21.4395 4.98332 21.0926 5.67712L17.152 13.5583H14.0216Z" fill="#FA967C"/>
<path d="M27.0653 19.2971C27.0653 24.3059 22.8914 28.1666 18.7175 28.1666H12.4567C8.28279 28.1666 4.10889 24.3059 4.10889 19.2971C4.10889 12.8181 9.24787 8.8623 15.5871 8.8623C21.9264 8.8623 27.0653 12.8181 27.0653 19.2971Z" fill="#FA967C"/>
<path d="M15.6613 15.4082C15.8725 15.4082 16.0899 15.4674 16.2718 15.6032C16.4258 15.7183 16.5568 15.8887 16.6322 16.1329L17.6758 19.8779L18.691 16.02C18.7523 15.7782 18.8887 15.6144 19.0601 15.5164C19.2389 15.4143 19.4627 15.3839 19.6959 15.433C19.9388 15.4819 20.1118 15.6071 20.2144 15.7733C20.3164 15.9384 20.3526 16.1519 20.292 16.3964L19.7585 18.292L20.8609 18.2921C21.0811 18.2921 21.2804 18.3807 21.4246 18.524C21.5689 18.6672 21.6581 18.8651 21.6581 19.0837C21.6581 19.3023 21.5689 19.5002 21.4246 19.6435C21.2804 19.7867 21.0811 19.8753 20.8609 19.8753L19.3126 19.8752L18.6647 22.1762C18.5961 22.4253 18.4711 22.601 18.3224 22.7216C18.1439 22.8664 17.9276 22.9329 17.715 22.939C17.4818 22.9394 17.2598 22.8798 17.0765 22.743C16.9186 22.6252 16.7862 22.4494 16.7107 22.1935L15.6467 18.2509L14.5437 22.1761C14.4734 22.4313 14.3417 22.61 14.1852 22.7311C13.9971 22.8766 13.7692 22.9395 13.5517 22.9395C13.3345 22.9395 13.115 22.88 12.9323 22.7429C12.7772 22.6265 12.6458 22.4536 12.5705 22.204L11.9225 19.8752L10.3131 19.8753C10.0929 19.8753 9.89364 19.7867 9.74937 19.6435C9.6051 19.5002 9.51587 19.3023 9.51587 19.0837C9.51587 18.8651 9.6051 18.6672 9.74937 18.524C9.89364 18.3807 10.0929 18.2921 10.3131 18.2921L11.4822 18.292L10.9802 16.4869C10.9081 16.2326 10.9386 16.015 11.0338 15.8426C11.1342 15.6609 11.3113 15.5223 11.5544 15.4538C11.8081 15.3921 12.0436 15.3934 12.2325 15.4764C12.4132 15.5557 12.5639 15.7044 12.6421 15.9679L13.6322 19.8741L14.6691 16.1723C14.7398 15.9148 14.8708 15.7355 15.0273 15.6144C15.2127 15.471 15.4382 15.4082 15.6613 15.4082Z" fill="#D63D4A"/>
<path d="M9.8479 8.57823C9.8479 8.1591 10.1877 7.81934 10.6068 7.81934H20.5672C20.9864 7.81934 21.3261 8.1591 21.3261 8.57823V9.1474C21.3261 9.56652 20.9864 9.90629 20.5672 9.90629H10.6068C10.1877 9.90629 9.8479 9.56652 9.8479 9.1474V8.57823Z" fill="#FA967C"/>
<path d="M9.8479 8.57823C9.8479 8.1591 10.1877 7.81934 10.6068 7.81934H20.5672C20.9864 7.81934 21.3261 8.1591 21.3261 8.57823V9.1474C21.3261 9.56652 20.9864 9.90629 20.5672 9.90629H10.6068C10.1877 9.90629 9.8479 9.56652 9.8479 9.1474V8.57823Z" fill="#D63D4A"/>
</svg>
