<svg width="32" height="32" viewBox="0 0 32 32" fill="none" xmlns="http://www.w3.org/2000/svg">
<g clip-path="url(#clip0_5129_131823)">
<path fill-rule="evenodd" clip-rule="evenodd" d="M10.9688 5.45215C10.581 5.45228 10.2002 5.56314 9.86482 5.7735C9.52947 5.98386 9.25155 6.28623 9.05921 6.64999L5.12121 14.0949C4.93094 14.4542 4.83084 14.861 4.83081 15.2749V20.62C4.83083 20.9888 4.9103 21.3525 5.06291 21.6824L6.29271 24.3395C6.47537 24.7344 6.75624 25.0666 7.10382 25.2987C7.4514 25.5308 7.85197 25.6538 8.26061 25.6538H9.23081C9.81429 25.6538 10.3739 25.4034 10.7864 24.9577C11.199 24.512 11.4308 23.9075 11.4308 23.2772H20.2308C20.2308 23.9075 20.4626 24.512 20.8752 24.9577C21.2878 25.4034 21.8473 25.6538 22.4308 25.6538H23.401C23.8097 25.6538 24.2102 25.5308 24.5578 25.2987C24.9054 25.0666 25.1862 24.7344 25.3689 24.3395L26.5987 21.6824C26.7516 21.3532 26.8308 20.9884 26.8308 20.62V15.2749C26.8308 14.861 26.7307 14.4542 26.5404 14.0949L22.6024 6.64999C22.4101 6.28623 22.1321 5.98386 21.7968 5.7735C21.4614 5.56314 21.0806 5.45228 20.6928 5.45215H10.9688Z" fill="#FA967C"/>
<g style="mix-blend-mode:multiply">
<path d="M7.26683 25.4205C6.91925 25.1884 6.63838 24.8563 6.45572 24.4614L5.84082 23.1328H26.1468L25.5319 24.4614C25.3493 24.8563 25.0684 25.1884 24.7208 25.4205C24.3732 25.6527 23.9727 25.7757 23.564 25.7757H22.5938C22.0103 25.7757 21.4508 25.5253 21.0382 25.0796C20.6256 24.6338 20.3938 24.0293 20.3938 23.399H11.5938C11.5938 24.0293 11.362 24.6338 10.9495 25.0796C10.5369 25.5253 9.9773 25.7757 9.39382 25.7757H8.42362C8.01498 25.7757 7.61441 25.6527 7.26683 25.4205Z" fill="#D63D4A"/>
</g>
<g style="mix-blend-mode:multiply">
<path d="M8.33466 12.8854L10.3554 8.33869C10.477 8.06503 10.7484 7.88867 11.0479 7.88867H20.8402C21.1397 7.88867 21.4111 8.06503 21.5327 8.33869L23.5534 12.8854C23.7762 13.3865 23.4093 13.9509 22.861 13.9509H9.02712C8.47875 13.9509 8.11194 13.3865 8.33466 12.8854Z" fill="#D63D4A"/>
</g>
<circle cx="10.3876" cy="18.5868" r="1.51556" fill="white"/>
<ellipse cx="21.5019" cy="18.5868" rx="1.51556" ry="1.51556" fill="white"/>
</g>
<defs>
<clipPath id="clip0_5129_131823">
<rect width="32" height="24.5333" fill="white" transform="translate(0.0556641 5.89941)"/>
</clipPath>
</defs>
</svg>
