<svg width="32" height="32" viewBox="0 0 32 32" fill="none" xmlns="http://www.w3.org/2000/svg">
<g style="mix-blend-mode:multiply">
<path d="M6.8335 6.70033C6.8335 5.30121 8.0274 4.16699 9.50016 4.16699H22.8335C24.3063 4.16699 25.5002 5.3012 25.5002 6.70033V25.6337C25.5002 27.0328 24.3063 28.167 22.8335 28.167H9.50016C8.0274 28.167 6.8335 27.0328 6.8335 25.6337V6.70033Z" fill="#FA967C"/>
<path fill-rule="evenodd" clip-rule="evenodd" d="M10.3 8.56667C10.3 7.97756 10.7776 7.5 11.3667 7.5H18.0334C18.6225 7.5 19.1 7.97756 19.1 8.56667C19.1 9.15577 18.6225 9.63333 18.0334 9.63333H11.3667C10.7776 9.63333 10.3 9.15577 10.3 8.56667ZM10.3 13.0999C10.3 12.5108 10.7776 12.0332 11.3667 12.0332H20.7C21.2892 12.0332 21.7667 12.5108 21.7667 13.0999C21.7667 13.689 21.2892 14.1665 20.7 14.1665H11.3667C10.7776 14.1665 10.3 13.689 10.3 13.0999Z" fill="#D63D4A"/>
<g style="mix-blend-mode:multiply">
<path d="M6.8335 22.3008H25.5002V25.8208C25.5002 27.1168 24.3063 28.1674 22.8335 28.1674H9.50016C8.0274 28.1674 6.8335 27.1168 6.8335 25.8208V22.3008Z" fill="#D63D4A"/>
</g>
<path d="M16.1668 26.5671C16.9032 26.5671 17.5002 25.9701 17.5002 25.2337C17.5002 24.4973 16.9032 23.9004 16.1668 23.9004C15.4304 23.9004 14.8335 24.4973 14.8335 25.2337C14.8335 25.9701 15.4304 26.5671 16.1668 26.5671Z" fill="#FA967C"/>
</g>
</svg>
