<svg width="88" height="88" viewBox="0 0 88 88" fill="none" xmlns="http://www.w3.org/2000/svg">
<path d="M0.737575 51.4527C0.399837 50.7874 0.883177 50 1.62924 50H86.3709C87.1169 50 87.6003 50.7875 87.2625 51.4527L85.6811 54.5677C83.9477 57.9818 83.9477 62.0182 85.6811 65.4323L87.2625 68.5473C87.6003 69.2125 87.1169 70 86.3709 70H1.62924C0.883178 70 0.399838 69.2125 0.737576 68.5473L2.31904 65.4323C4.05237 62.0182 4.05237 57.9818 2.31904 54.5677L0.737575 51.4527Z" fill="#237DE9"/>
<path d="M44 11.2695C62.0767 11.2695 76.7305 25.9233 76.7305 44C76.7305 62.0767 62.0767 76.7305 44 76.7305C25.9233 76.7305 11.2695 62.0767 11.2695 44C11.2695 25.9233 25.9233 11.2695 44 11.2695Z" fill="#E3EFFF" stroke="#448FEB" stroke-width="2.53846"/>
<path d="M31.9443 34.8337H35.833V44.0495C33.1707 43.5089 31.1671 41.1555 31.167 38.3337V35.611C31.1671 35.1816 31.5149 34.8337 31.9443 34.8337ZM56.0557 34.8337C56.4851 34.8337 56.8329 35.1816 56.833 35.611V38.3337C56.8329 41.1555 54.8293 43.5089 52.167 44.0495V34.8337H56.0557Z" stroke="#6FACF6" stroke-width="2.33333"/>
<path d="M50.9995 31.3333C52.2881 31.3333 53.3333 32.3778 53.3335 33.6663V40.6663C53.3335 44.828 50.609 48.3514 46.8468 49.5549C46.221 49.755 45.7495 50.3088 45.7495 50.9658C45.7495 51.7211 46.3618 52.3333 47.117 52.3333H48.667C49.3112 52.3333 49.8335 52.8556 49.8335 53.4998C49.8335 54.1441 49.3112 54.6663 48.667 54.6663H39.333C38.6888 54.6663 38.1665 54.1441 38.1665 53.4998C38.1665 52.8556 38.6888 52.3333 39.333 52.3333H40.8819C41.6372 52.3333 42.2495 51.721 42.2495 50.9657C42.2495 50.3088 41.778 49.755 41.1523 49.5548C37.3904 48.3511 34.6665 44.8278 34.6665 40.6663V33.6663C34.6667 32.3779 35.7111 31.3335 36.9995 31.3333H50.9995Z" fill="#6FACF6"/>
<path d="M43.4769 35.8932C43.6909 35.4597 44.3091 35.4597 44.5231 35.8932L45.4072 37.6846C45.4922 37.8568 45.6564 37.9761 45.8464 38.0037L47.8234 38.291C48.3018 38.3605 48.4929 38.9485 48.1467 39.286L46.7161 40.6804C46.5786 40.8144 46.5159 41.0075 46.5484 41.1967L46.8861 43.1657C46.9678 43.6422 46.4676 44.0056 46.0397 43.7806L44.2714 42.851C44.1015 42.7617 43.8985 42.7617 43.7286 42.851L41.9603 43.7806C41.5324 44.0056 41.0322 43.6422 41.1139 43.1657L41.4516 41.1967C41.4841 41.0075 41.4214 40.8144 41.2839 40.6804L39.8533 39.286C39.5071 38.9485 39.6982 38.3605 40.1766 38.291L42.1536 38.0037C42.3436 37.9761 42.5078 37.8568 42.5928 37.6846L43.4769 35.8932Z" fill="white"/>
<path d="M27.5238 28.8623L26.7707 29.6915L22.7769 26.0785L23.5299 25.2492L27.5238 28.8623Z" fill="#448FEB"/>
<path d="M31.4242 25.4523L30.6712 26.0615L26.6773 24.9108L26.6435 24.9361L28.8096 27.5846L27.9466 28.2869L24.545 24.1154L25.3066 23.4977L29.2919 24.6654L29.3342 24.6315L27.1681 21.9831L28.0227 21.2808L31.4242 25.4523Z" fill="#448FEB"/>
<path d="M32.2964 20.0708C32.0934 20.0369 31.8734 20.0877 31.6364 20.2146C31.4672 20.2992 31.3403 20.4008 31.2472 20.5023C31.1541 20.6123 31.0949 20.7223 31.078 20.8408C31.061 20.9592 31.078 21.0692 31.1372 21.1792C31.2134 21.3315 31.3487 21.4246 31.5349 21.4415C31.721 21.4585 31.941 21.4415 32.2034 21.3739L32.6857 21.2554C33.1764 21.1285 33.6164 21.1031 33.9887 21.2046C34.361 21.3062 34.6487 21.5346 34.8434 21.9154C34.9957 22.2115 35.0549 22.4992 35.021 22.7869C34.9872 23.0746 34.8603 23.3539 34.6403 23.6162C34.4203 23.8785 34.1241 24.1069 33.7434 24.3015C33.3541 24.5046 32.9903 24.6146 32.6434 24.6485C32.2964 24.6739 31.9834 24.6146 31.7041 24.4623C31.4249 24.31 31.1964 24.0731 31.0103 23.7346L31.9749 23.2354C32.1103 23.4639 32.2964 23.5908 32.5334 23.6331C32.7703 23.6754 33.0241 23.6162 33.2949 23.4723C33.4641 23.3792 33.608 23.2777 33.7095 23.1592C33.811 23.0408 33.8787 22.9223 33.9041 22.7954C33.9295 22.6685 33.9041 22.55 33.8449 22.4231C33.7687 22.2708 33.6334 22.1777 33.4557 22.1608C33.278 22.1439 33.0241 22.1608 32.711 22.2369L32.1272 22.3808C31.1457 22.6177 30.4941 22.4062 30.1557 21.7546C30.0034 21.4669 29.9526 21.1792 29.9949 20.8746C30.0372 20.5785 30.1641 20.2908 30.3757 20.0285C30.5872 19.7662 30.8664 19.5462 31.2134 19.3685C31.5603 19.1908 31.8987 19.0892 32.2287 19.0723C32.5587 19.0554 32.8549 19.1146 33.1087 19.2585C33.371 19.4023 33.5741 19.6054 33.7264 19.8846L32.7787 20.3754C32.6603 20.1977 32.4995 20.0962 32.3049 20.0623L32.2964 20.0708Z" fill="#448FEB"/>
<path d="M38.7946 16.72L39.7339 20.0877C39.8354 20.46 39.8439 20.8154 39.7339 21.1538C39.6323 21.4923 39.4462 21.78 39.1669 22.0254C38.8877 22.2708 38.5323 22.4569 38.1093 22.5754C37.6862 22.6938 37.2885 22.7192 36.9246 22.6515C36.5608 22.5838 36.2477 22.4315 35.9854 22.1946C35.7316 21.9577 35.5454 21.6531 35.4439 21.2808L34.5046 17.9131L35.5793 17.6169L36.4931 20.9C36.5439 21.0946 36.6454 21.2638 36.7723 21.3908C36.9077 21.5261 37.06 21.6108 37.2546 21.6531C37.4408 21.6954 37.6439 21.6869 37.8469 21.6277C38.0585 21.5685 38.2362 21.4754 38.3716 21.34C38.5069 21.2046 38.6 21.0523 38.6423 20.8661C38.6846 20.6885 38.6762 20.4938 38.6254 20.2992L37.7116 17.0161L38.7946 16.7115V16.72Z" fill="#448FEB"/>
<path d="M40.4954 16.4577L42.6023 16.3223C43.0085 16.2969 43.3554 16.3477 43.6516 16.4662C43.9477 16.5931 44.1847 16.7792 44.3539 17.0331C44.5231 17.2869 44.6162 17.5915 44.6416 17.9469C44.667 18.3108 44.6077 18.6323 44.4554 18.9031C44.3116 19.1738 44.0831 19.3854 43.787 19.5377L45.0647 21.5515L43.8293 21.6361L42.6785 19.8L41.8323 19.8592L41.9593 21.7631L40.8424 21.8392L40.487 16.4662L40.4954 16.4577ZM42.5685 18.8946C43.22 18.8523 43.5331 18.5646 43.4908 18.0231C43.4739 17.7523 43.3808 17.5492 43.2031 17.4138C43.0339 17.2785 42.78 17.2277 42.4585 17.2531L41.6716 17.3038L41.7816 18.9538L42.5685 18.9031V18.8946Z" fill="#448FEB"/>
<path d="M45.0476 21.5177L47.6453 16.4493L49.0668 16.6523L50.1583 22.2454L48.9737 22.0762L48.7452 20.79L46.816 20.5193L46.2406 21.6954L45.0476 21.5262V21.5177ZM48.5845 19.8846L48.2037 17.7523H48.1699L47.2137 19.69L48.5845 19.8846Z" fill="#448FEB"/>
<path d="M54.6348 23.9292L53.7294 23.5908L52.7225 19.5546L52.6802 19.5377L51.4702 22.7361L50.4294 22.3384L52.3332 17.3038L53.2471 17.6508L54.2371 21.6784L54.2879 21.6954L55.4979 18.4969L56.5386 18.8861L54.6348 23.9208V23.9292Z" fill="#448FEB"/>
<path d="M60.202 22.7023C60.1936 22.5246 60.1428 22.3554 60.0413 22.2031C59.9482 22.0507 59.8128 21.9154 59.6351 21.7969C59.3982 21.6446 59.1613 21.5684 58.9074 21.5684C58.6536 21.5684 58.4082 21.6531 58.1628 21.8138C57.9174 21.9746 57.6974 22.2115 57.4944 22.5161C57.2828 22.8292 57.1559 23.1338 57.1051 23.4215C57.0544 23.7092 57.0797 23.9631 57.1728 24.1915C57.2744 24.42 57.4351 24.6146 57.672 24.7669C57.9343 24.9361 58.1967 25.0123 58.459 24.9954C58.7297 24.9784 58.9582 24.86 59.1613 24.6484L60.1005 25.2746C59.8805 25.5369 59.6013 25.7315 59.2797 25.8669C58.9582 26.0023 58.6028 26.0446 58.222 26.0108C57.8413 25.9684 57.469 25.8331 57.1051 25.5877C56.699 25.3254 56.4028 24.9954 56.2082 24.5977C56.0136 24.2084 55.9374 23.7769 55.9882 23.3115C56.039 22.8461 56.2167 22.3723 56.5382 21.8984C56.8513 21.4246 57.2151 21.0692 57.6213 20.8408C58.0359 20.6123 58.459 20.5108 58.899 20.5361C59.339 20.5615 59.7536 20.7054 60.1513 20.9677C60.4982 21.1961 60.769 21.4669 60.9636 21.78C61.1582 22.0931 61.2597 22.4315 61.2767 22.7869C61.2936 23.1423 61.209 23.5061 61.0228 23.8784L60.0751 23.2608C60.1597 23.0831 60.1936 22.8969 60.1851 22.7192L60.202 22.7023Z" fill="#448FEB"/>
<path d="M63.2569 23.3454L65.8123 25.9008L65.1607 26.5523L63.3923 24.7923L62.47 25.7231L64.1115 27.3562L63.46 28.0077L61.8184 26.3746L60.8961 27.3054L62.6731 29.0739L62.0215 29.7254L59.4577 27.17L63.2569 23.3539V23.3454Z" fill="#448FEB"/>
<path d="M10 62C10 59.7909 11.7909 58 14 58H74C76.2091 58 78 59.7909 78 62V74C78 76.2091 76.2091 78 74 78H14C11.7909 78 10 76.2091 10 74V62Z" fill="#448FEB"/>
<path d="M56.1472 65.77V64.05H62.3472V65.77H60.3372V72.1H58.1672V65.77H56.1472Z" fill="white"/>
<path d="M50.7917 64.05H52.9717L55.5117 72.1H53.3317L53.0017 70.81H50.7517L50.4217 72.1H48.2517L50.7917 64.05ZM52.5917 69.19L51.8817 66.39L51.1617 69.19H52.5917Z" fill="white"/>
<path d="M41.5585 72.1V64.05H46.7985V65.77H43.7285V67.11H46.3885V68.84H43.7285V70.39H46.8585V72.1H41.5585Z" fill="white"/>
<path d="M37.4379 71.35L37.3779 70.35C37.3379 69.63 37.0979 69.4 36.5079 69.4H35.6679V72.1H33.4979V64.05H36.9879C38.7379 64.05 39.6479 65.03 39.6479 66.51C39.6479 67.6 39.1079 68.29 38.2779 68.53C39.1079 68.68 39.4379 69.19 39.5079 70.25L39.5779 71.34C39.5979 71.67 39.6579 71.91 39.7479 72.1H37.5879C37.4979 71.93 37.4579 71.62 37.4379 71.35ZM35.6679 67.68H36.5479C37.1579 67.68 37.4779 67.4 37.4779 66.73C37.4779 66.04 37.1579 65.77 36.5479 65.77H35.6679V67.68Z" fill="white"/>
<path d="M24.897 68.07C24.897 65.52 25.837 63.91 28.267 63.91C30.327 63.91 31.507 65.04 31.567 66.9H29.417C29.387 66.11 29.027 65.64 28.267 65.64C27.477 65.64 27.067 66.06 27.067 68.07C27.067 70.02 27.427 70.52 28.317 70.52C29.067 70.52 29.497 70.01 29.527 69.2H28.297V67.77H31.557V72.1H30.017L29.827 71.23C29.557 71.85 28.847 72.24 27.967 72.24C25.887 72.24 24.897 70.65 24.897 68.07Z" fill="white"/>
<path d="M16.369 64.0655C16.4985 63.3115 17.5015 63.3115 17.631 64.0655L17.9818 66.1091C18.0212 66.339 18.1659 66.5318 18.3662 66.6216L20.1048 67.4008C20.6668 67.6528 20.6178 68.5273 20.0317 68.7045L18.4363 69.1867C18.1974 69.2589 18.0186 69.4731 17.9771 69.7366L17.6326 71.9244C17.5118 72.6919 16.4882 72.6919 16.3674 71.9244L16.0229 69.7366C15.9814 69.4731 15.8026 69.2589 15.5637 69.1867L13.9683 68.7045C13.3822 68.5273 13.3332 67.6528 13.8952 67.4008L15.6338 66.6216C15.8341 66.5318 15.9788 66.339 16.0182 66.1091L16.369 64.0655Z" fill="#FFE640"/>
<path d="M70.369 64.0655C70.4985 63.3115 71.5015 63.3115 71.631 64.0655L71.9818 66.1091C72.0212 66.339 72.1659 66.5318 72.3662 66.6216L74.1048 67.4008C74.6668 67.6528 74.6178 68.5273 74.0317 68.7045L72.4363 69.1867C72.1974 69.2589 72.0186 69.4731 71.9771 69.7366L71.6326 71.9244C71.5118 72.6919 70.4882 72.6919 70.3674 71.9244L70.0229 69.7366C69.9814 69.4731 69.8026 69.2589 69.5637 69.1867L67.9683 68.7045C67.3822 68.5273 67.3332 67.6528 67.8952 67.4008L69.6338 66.6216C69.8341 66.5318 69.9788 66.339 70.0182 66.1091L70.369 64.0655Z" fill="#FFE640"/>
</svg>
