<svg width="88" height="88" viewBox="0 0 88 88" fill="none" xmlns="http://www.w3.org/2000/svg">
<path d="M0.737575 51.4527C0.399837 50.7874 0.883177 50 1.62924 50H86.3709C87.1169 50 87.6003 50.7875 87.2625 51.4527L85.6811 54.5677C83.9477 57.9818 83.9477 62.0182 85.6811 65.4323L87.2625 68.5473C87.6003 69.2125 87.1169 70 86.3709 70H1.62924C0.883178 70 0.399838 69.2125 0.737576 68.5473L2.31904 65.4323C4.05237 62.0182 4.05237 57.9818 2.31904 54.5677L0.737575 51.4527Z" fill="#2EAA49"/>
<path d="M44 11.2695C62.0767 11.2695 76.7305 25.9233 76.7305 44C76.7305 62.0767 62.0767 76.7305 44 76.7305C25.9233 76.7305 11.2695 62.0767 11.2695 44C11.2695 25.9233 25.9233 11.2695 44 11.2695Z" fill="#EAF6EC" stroke="#52BC69" stroke-width="2.53846"/>
<path d="M49.3498 32.0834C48.731 32.0834 48.1375 31.8375 47.6999 31.3999L46.1501 29.8501C45.2389 28.9389 43.7615 28.9389 42.8502 29.8501L41.3004 31.3999C40.8628 31.8375 40.2693 32.0834 39.6505 32.0834H35.1668C33.8782 32.0834 32.8335 33.128 32.8335 34.4167V43.1667C32.8335 49.2878 41.9076 54.25 44.5002 54.25C47.0928 54.25 56.1668 49.2878 56.1668 43.1667V34.4167C56.1668 33.128 55.1222 32.0834 53.8335 32.0834H49.3498Z" fill="#73D388"/>
<path d="M45.3755 37.3333C45.6973 37.3336 45.9583 37.5944 45.9585 37.9163V40.5413H48.5835C48.9056 40.5414 49.1665 40.8032 49.1665 41.1253V42.8753C49.1663 43.1972 48.9055 43.4582 48.5835 43.4583H45.9585V46.0833C45.9585 46.4053 45.6974 46.6661 45.3755 46.6663H43.6255C43.3033 46.6663 43.0415 46.4055 43.0415 46.0833V43.4583H40.4165C40.0945 43.4582 39.8337 43.1972 39.8335 42.8753V41.1253C39.8335 40.8032 40.0944 40.5414 40.4165 40.5413H43.0415V37.9163C43.0417 37.5943 43.3034 37.3333 43.6255 37.3333H45.3755Z" fill="white"/>
<path d="M27.6015 27.9435L26.845 28.7765L22.833 25.147L23.5895 24.314L27.6015 27.9435Z" fill="#52BC69"/>
<path d="M31.5197 24.518L30.7632 25.13L26.7512 23.974L26.7172 23.9995L28.8932 26.66L28.0262 27.3655L24.6092 23.175L25.3742 22.5545L29.3777 23.7275L29.4202 23.6935L27.2442 21.033L28.1027 20.3275L31.5197 24.518Z" fill="#52BC69"/>
<path d="M32.3959 19.112C32.1919 19.078 31.9709 19.129 31.7329 19.2565C31.5629 19.3415 31.4354 19.4435 31.3419 19.5455C31.2484 19.656 31.1889 19.7665 31.1719 19.8855C31.1549 20.0045 31.1719 20.115 31.2314 20.2255C31.3079 20.3785 31.4439 20.472 31.6309 20.489C31.8179 20.506 32.0389 20.489 32.3024 20.421L32.7869 20.302C33.2799 20.1745 33.7219 20.149 34.0959 20.251C34.4699 20.353 34.7589 20.5825 34.9544 20.965C35.1074 21.2625 35.1669 21.5515 35.1329 21.8405C35.0989 22.1295 34.9714 22.41 34.7504 22.6735C34.5294 22.937 34.2319 23.1665 33.8494 23.362C33.4584 23.566 33.0929 23.6765 32.7444 23.7105C32.3959 23.736 32.0814 23.6765 31.8009 23.5235C31.5204 23.3705 31.2909 23.1325 31.1039 22.7925L32.0729 22.291C32.2089 22.5205 32.3959 22.648 32.6339 22.6905C32.8719 22.733 33.1269 22.6735 33.3989 22.529C33.5689 22.4355 33.7134 22.3335 33.8154 22.2145C33.9174 22.0955 33.9854 21.9765 34.0109 21.849C34.0364 21.7215 34.0109 21.6025 33.9514 21.475C33.8749 21.322 33.7389 21.2285 33.5604 21.2115C33.3819 21.1945 33.1269 21.2115 32.8124 21.288L32.2259 21.4325C31.2399 21.6705 30.5854 21.458 30.2454 20.8035C30.0924 20.5145 30.0414 20.2255 30.0839 19.9195C30.1264 19.622 30.2539 19.333 30.4664 19.0695C30.6789 18.806 30.9594 18.585 31.3079 18.4065C31.6564 18.228 31.9964 18.126 32.3279 18.109C32.6594 18.092 32.9569 18.1515 33.2119 18.296C33.4754 18.4405 33.6794 18.6445 33.8324 18.925L32.8804 19.418C32.7614 19.2395 32.5999 19.1375 32.4044 19.1035L32.3959 19.112Z" fill="#52BC69"/>
<path d="M38.9236 15.746L39.8671 19.129C39.9691 19.503 39.9776 19.86 39.8671 20.2C39.7651 20.54 39.5781 20.829 39.2976 21.0755C39.0171 21.322 38.6601 21.509 38.2351 21.628C37.8101 21.747 37.4106 21.7725 37.0451 21.7045C36.6796 21.6365 36.3651 21.4835 36.1016 21.2455C35.8466 21.0075 35.6596 20.7015 35.5576 20.3275L34.6141 16.9445L35.6936 16.647L36.6116 19.945C36.6626 20.1405 36.7646 20.3105 36.8921 20.438C37.0281 20.574 37.1811 20.659 37.3766 20.7015C37.5636 20.744 37.7676 20.7355 37.9716 20.676C38.1841 20.6165 38.3626 20.523 38.4986 20.387C38.6346 20.251 38.7281 20.098 38.7706 19.911C38.8131 19.7325 38.8046 19.537 38.7536 19.3415L37.8356 16.0435L38.9236 15.7375V15.746Z" fill="#52BC69"/>
<path d="M40.6321 15.4825L42.7486 15.3465C43.1566 15.321 43.5051 15.372 43.8026 15.491C44.1001 15.6185 44.3381 15.8055 44.5081 16.0605C44.6781 16.3155 44.7716 16.6215 44.7971 16.9785C44.8226 17.344 44.7631 17.667 44.6101 17.939C44.4656 18.211 44.2361 18.4235 43.9386 18.5765L45.2221 20.5995L43.9811 20.6845L42.8251 18.84L41.9751 18.8995L42.1026 20.812L40.9806 20.8885L40.6236 15.491L40.6321 15.4825ZM42.7146 17.9305C43.3691 17.888 43.6836 17.599 43.6411 17.055C43.6241 16.783 43.5306 16.579 43.3521 16.443C43.1821 16.307 42.9271 16.256 42.6041 16.2815L41.8136 16.3325L41.9241 17.99L42.7146 17.939V17.9305Z" fill="#52BC69"/>
<path d="M45.2049 20.5655L47.8144 15.474L49.2424 15.678L50.3389 21.2965L49.1489 21.1265L48.9194 19.8345L46.9814 19.5625L46.4034 20.744L45.2049 20.574V20.5655ZM48.7579 18.925L48.3754 16.783H48.3414L47.3809 18.7295L48.7579 18.925Z" fill="#52BC69"/>
<path d="M54.8357 22.988L53.9262 22.648L52.9147 18.5935L52.8722 18.5765L51.6567 21.7895L50.6112 21.39L52.5237 16.3325L53.4417 16.681L54.4362 20.727L54.4872 20.744L55.7027 17.531L56.7482 17.922L54.8357 22.9795V22.988Z" fill="#52BC69"/>
<path d="M60.4283 21.7555C60.4198 21.577 60.3688 21.407 60.2668 21.254C60.1733 21.101 60.0373 20.965 59.8588 20.846C59.6208 20.693 59.3828 20.6165 59.1278 20.6165C58.8728 20.6165 58.6263 20.7015 58.3798 20.863C58.1333 21.0245 57.9123 21.2625 57.7083 21.5685C57.4958 21.883 57.3683 22.189 57.3173 22.478C57.2663 22.767 57.2918 23.022 57.3853 23.2515C57.4873 23.481 57.6488 23.6765 57.8868 23.8295C58.1503 23.9995 58.4138 24.076 58.6773 24.059C58.9493 24.042 59.1788 23.923 59.3828 23.7105L60.3263 24.3395C60.1053 24.603 59.8248 24.7985 59.5018 24.9345C59.1788 25.0705 58.8218 25.113 58.4393 25.079C58.0568 25.0365 57.6828 24.9005 57.3173 24.654C56.9093 24.3905 56.6118 24.059 56.4163 23.6595C56.2208 23.2685 56.1443 22.835 56.1953 22.3675C56.2463 21.9 56.4248 21.424 56.7478 20.948C57.0623 20.472 57.4278 20.115 57.8358 19.8855C58.2523 19.656 58.6773 19.554 59.1193 19.5795C59.5613 19.605 59.9778 19.7495 60.3773 20.013C60.7258 20.2425 60.9978 20.5145 61.1933 20.829C61.3888 21.1435 61.4908 21.4835 61.5078 21.8405C61.5248 22.1975 61.4398 22.563 61.2528 22.937L60.3008 22.3165C60.3858 22.138 60.4198 21.951 60.4113 21.7725L60.4283 21.7555Z" fill="#52BC69"/>
<path d="M63.497 22.4015L66.0641 24.9685L65.4095 25.623L63.633 23.855L62.7065 24.79L64.3555 26.4305L63.701 27.085L62.0521 25.4445L61.1255 26.3795L62.9105 28.156L62.2561 28.8105L59.6805 26.2435L63.497 22.41V22.4015Z" fill="#52BC69"/>
<path d="M10 62C10 59.7909 11.7909 58 14 58H74C76.2091 58 78 59.7909 78 62V74C78 76.2091 76.2091 78 74 78H14C11.7909 78 10 76.2091 10 74V62Z" fill="#52BC69"/>
<path d="M56.674 72.1H53.534V64.05H56.674C59.244 64.05 59.954 65.59 59.954 68.07C59.954 70.59 59.234 72.1 56.674 72.1ZM57.794 68.07C57.794 66.08 57.414 65.7 56.604 65.7H55.704V70.45H56.604C57.454 70.45 57.794 70.03 57.794 68.07Z" fill="white"/>
<path d="M49.5226 68.07C49.5226 66.99 49.4426 66.43 49.2026 66.07C48.9926 65.77 48.7126 65.64 48.3226 65.64C47.9326 65.64 47.6626 65.77 47.4526 66.07C47.2026 66.43 47.1226 66.99 47.1226 68.07C47.1226 69.17 47.2026 69.72 47.4526 70.09C47.6626 70.39 47.9326 70.52 48.3226 70.52C48.7126 70.52 48.9926 70.39 49.2026 70.09C49.4426 69.72 49.5226 69.17 49.5226 68.07ZM51.6926 68.07C51.6926 69.45 51.4726 70.52 50.8226 71.27C50.2526 71.92 49.4026 72.24 48.3226 72.24C47.2426 72.24 46.4026 71.92 45.8326 71.27C45.1726 70.52 44.9526 69.45 44.9526 68.07C44.9526 66.71 45.1726 65.63 45.8326 64.88C46.4026 64.23 47.2426 63.91 48.3226 63.91C49.4026 63.91 50.2526 64.23 50.8226 64.88C51.4726 65.63 51.6926 66.71 51.6926 68.07Z" fill="white"/>
<path d="M41.0812 68.07C41.0812 66.99 41.0012 66.43 40.7612 66.07C40.5512 65.77 40.2712 65.64 39.8812 65.64C39.4912 65.64 39.2212 65.77 39.0112 66.07C38.7612 66.43 38.6812 66.99 38.6812 68.07C38.6812 69.17 38.7612 69.72 39.0112 70.09C39.2212 70.39 39.4912 70.52 39.8812 70.52C40.2712 70.52 40.5512 70.39 40.7612 70.09C41.0012 69.72 41.0812 69.17 41.0812 68.07ZM43.2512 68.07C43.2512 69.45 43.0312 70.52 42.3812 71.27C41.8112 71.92 40.9612 72.24 39.8812 72.24C38.8012 72.24 37.9612 71.92 37.3912 71.27C36.7312 70.52 36.5112 69.45 36.5112 68.07C36.5112 66.71 36.7312 65.63 37.3912 64.88C37.9612 64.23 38.8012 63.91 39.8812 63.91C40.9612 63.91 41.8112 64.23 42.3812 64.88C43.0312 65.63 43.2512 66.71 43.2512 68.07Z" fill="white"/>
<path d="M28.0503 68.07C28.0503 65.52 28.9903 63.91 31.4203 63.91C33.4803 63.91 34.6603 65.04 34.7203 66.9H32.5703C32.5403 66.11 32.1803 65.64 31.4203 65.64C30.6303 65.64 30.2203 66.06 30.2203 68.07C30.2203 70.02 30.5803 70.52 31.4703 70.52C32.2203 70.52 32.6503 70.01 32.6803 69.2H31.4503V67.77H34.7103V72.1H33.1703L32.9803 71.23C32.7103 71.85 32.0003 72.24 31.1203 72.24C29.0403 72.24 28.0503 70.65 28.0503 68.07Z" fill="white"/>
<path d="M21 68C21 69.3807 19.8807 70.5 18.5 70.5C17.1193 70.5 16 69.3807 16 68C16 66.6193 17.1193 65.5 18.5 65.5C19.8807 65.5 21 66.6193 21 68Z" fill="#FFE640"/>
<path d="M72 68C72 69.3807 70.8807 70.5 69.5 70.5C68.1193 70.5 67 69.3807 67 68C67 66.6193 68.1193 65.5 69.5 65.5C70.8807 65.5 72 66.6193 72 68Z" fill="#FFE640"/>
</svg>
