<svg width="56" height="56" viewBox="0 0 56 56" fill="none" xmlns="http://www.w3.org/2000/svg">
<ellipse cx="27.5984" cy="43.53" rx="26.5481" ry="4.97778" fill="#ACB1B6" fill-opacity="0.2"/>
<g style="mix-blend-mode:multiply">
<path d="M36.0005 9.57992C36.0005 8.84354 36.5974 8.24658 37.3338 8.24658H41.3338C42.0702 8.24658 42.6672 8.84354 42.6672 9.57992V20.2466H36.0005V9.57992Z" fill="#7E6254"/>
</g>
<path d="M11.6308 22.8691L27.1395 9.74633C27.6366 9.32569 28.3649 9.32569 28.862 9.74633L44.3708 22.8691C44.6702 23.1225 44.8429 23.4948 44.8429 23.887V40.7582C44.8429 41.7803 44.005 42.609 42.9715 42.609H32.2113H23.7903H13.03C11.9965 42.609 11.1587 41.7803 11.1587 40.7582L11.1587 23.887C11.1587 23.4948 11.3314 23.1225 11.6308 22.8691Z" fill="#FFBA89"/>
<path d="M22.667 32.2464C22.667 31.51 23.2639 30.9131 24.0003 30.9131H32.0003C32.7367 30.9131 33.3337 31.51 33.3337 32.2464V42.6096H22.667L22.667 32.2464Z" fill="white"/>
<path fill-rule="evenodd" clip-rule="evenodd" d="M26.8052 7.35787C27.491 6.76352 28.5093 6.76352 29.1951 7.35787L46.0372 21.9543C46.7987 22.6143 46.881 23.7666 46.221 24.5281C45.5611 25.2896 44.4088 25.3719 43.6473 24.7119L28.0002 11.1511L12.353 24.7119C11.5916 25.3719 10.4392 25.2896 9.77928 24.5281C9.11933 23.7666 9.20163 22.6143 9.96312 21.9543L26.8052 7.35787Z" fill="#285FA4"/>
<path fill-rule="evenodd" clip-rule="evenodd" d="M26.8052 7.35787C27.491 6.76352 28.5093 6.76352 29.1951 7.35787L46.0372 21.9543C46.7987 22.6143 46.881 23.7666 46.221 24.5281C45.5611 25.2896 44.4088 25.3719 43.6473 24.7119L28.0002 11.1511L12.353 24.7119C11.5916 25.3719 10.4392 25.2896 9.77928 24.5281C9.11933 23.7666 9.20163 22.6143 9.96312 21.9543L26.8052 7.35787Z" fill="#D63D4A"/>
</svg>
