<svg width="57" height="56" viewBox="0 0 57 56" fill="none" xmlns="http://www.w3.org/2000/svg">
<ellipse cx="27.9979" cy="43.5295" rx="26.5481" ry="4.97778" fill="#ACB1B6" fill-opacity="0.2"/>
<path d="M14.1546 26.4548C15.1194 26.4548 15.924 27.1647 16.1961 28.0903C17.7455 33.3614 22.6186 37.21 28.3912 37.21C34.1636 37.2099 39.0368 33.3613 40.5862 28.0903C40.8583 27.1647 41.663 26.4548 42.6277 26.4548H46.6752C47.8277 26.4548 48.7381 27.4504 48.5105 28.5802C46.6195 37.9661 38.3297 45.0347 28.3866 45.0349C18.4437 45.0345 10.1537 37.966 8.26272 28.5802C8.0351 27.4504 8.94551 26.4548 10.098 26.4548H14.1546Z" fill="white"/>
<path fill-rule="evenodd" clip-rule="evenodd" d="M28.3976 3.96631C39.7367 3.96679 48.9282 13.16 48.9282 24.4992C48.9281 26.3496 48.6816 28.1421 48.2218 29.8472C47.8095 31.3759 46.3484 32.3237 44.7651 32.3241C42.1838 32.3241 40.5209 29.1109 40.9393 26.5636C41.05 25.8896 41.1079 25.1977 41.1079 24.4923C41.1079 24.0957 40.677 23.8615 40.3301 24.0539L36.3238 26.2765C36.0903 26.406 35.9228 26.6266 35.8414 26.8809C34.8319 30.0325 31.8798 32.3149 28.3931 32.3149C24.9063 32.3149 21.9541 30.0325 20.9447 26.8808C20.8633 26.6266 20.6959 26.406 20.4625 26.2765L16.4607 24.0552C16.1149 23.8633 15.6874 24.0969 15.6873 24.4923C15.6873 25.197 15.7455 25.8881 15.856 26.5614C16.2739 29.1095 14.61 32.3241 12.0278 32.3241C10.4445 32.3237 8.98342 31.3759 8.57113 29.8472C8.11133 28.1421 7.86483 26.3495 7.86475 24.4992C7.86475 13.1597 17.0581 3.96631 28.3976 3.96631ZM28.3976 11.7821C23.397 11.7821 19.0706 14.6701 16.9957 18.8692C16.6979 19.4717 17.1562 20.1429 17.8282 20.1543L21.2997 20.213C21.6358 20.2187 21.9476 20.0486 22.1503 19.7805C23.5781 17.8919 25.8429 16.6721 28.3931 16.672C30.9428 16.672 33.2059 17.8925 34.6336 19.7807C34.8362 20.0487 35.148 20.2187 35.484 20.213L38.9645 20.1542C39.6366 20.1429 40.095 19.4716 39.7972 18.8691C37.7222 14.6705 33.3976 11.7824 28.3976 11.7821Z" fill="white"/>
<path d="M14.1543 26.4546C15.119 26.4546 15.9237 27.1645 16.1958 28.0901C17.7452 33.3612 22.6182 37.2098 28.3908 37.2098C34.1633 37.2096 39.0365 33.3611 40.5859 28.0901C40.858 27.1645 41.6627 26.4546 42.6274 26.4546H46.6749C47.8274 26.4546 48.7378 27.4502 48.5102 28.58C46.6191 37.9659 38.3294 45.0345 28.3863 45.0347C18.4434 45.0342 10.1534 37.9658 8.26239 28.58C8.03477 27.4502 8.94518 26.4546 10.0977 26.4546H14.1543Z" fill="#D63D4A"/>
<g style="mix-blend-mode:multiply">
<path fill-rule="evenodd" clip-rule="evenodd" d="M28.3976 3.96631C39.7367 3.96679 48.9282 13.16 48.9282 24.4992C48.9281 26.3496 48.6816 28.1421 48.2218 29.8472C47.8095 31.3759 46.3484 32.3237 44.7651 32.3241C42.1838 32.3241 40.5209 29.1109 40.9393 26.5636C41.05 25.8896 41.1079 25.1977 41.1079 24.4923C41.1079 24.0957 40.6777 23.8626 40.3309 24.0548L36.3228 26.2765C36.0899 26.406 35.9234 26.6266 35.842 26.8804C35.2347 28.7763 33.9218 30.3524 32.2144 31.3101C31.6647 31.6183 31.3552 32.2645 31.5627 32.8595L32.4126 35.2954C32.6275 35.912 33.3096 36.2362 33.8983 35.9539C34.1133 35.8507 34.3237 35.7383 34.5317 35.6235C32.7112 36.6314 30.6194 37.2094 28.3908 37.2095C26.3487 37.2095 24.4216 36.7234 22.7124 35.8673C23.295 36.1355 23.9664 35.8161 24.1798 35.2043L25.0343 32.7547C25.2378 32.1713 24.9439 31.5384 24.4123 31.2235C22.7821 30.2577 21.5326 28.7175 20.9442 26.8804C20.8628 26.6266 20.6963 26.406 20.4634 26.2765L16.4598 24.0548C16.1141 23.8637 15.6874 24.0972 15.6873 24.4923C15.6873 25.197 15.7455 25.8881 15.856 26.5614C16.2739 29.1095 14.61 32.3241 12.0278 32.3241C10.4445 32.3237 8.98342 31.3759 8.57113 29.8472C8.11133 28.1421 7.86483 26.3495 7.86475 24.4992C7.86475 13.1597 17.0581 3.96631 28.3976 3.96631ZM28.3976 11.7821C23.3971 11.7821 19.0703 14.6697 16.9953 18.8687C16.6975 19.4712 17.1572 20.1424 17.8293 20.1538L21.2996 20.2131C21.6356 20.2187 21.9469 20.0481 22.1496 19.7801C23.5774 17.8915 25.8429 16.6721 28.3931 16.672C30.9428 16.672 33.2066 17.8919 34.6343 19.7801C34.8369 20.0481 35.1482 20.2187 35.4842 20.2131L38.9637 20.1538C39.6358 20.1425 40.0955 19.4712 39.7977 18.8687C37.7227 14.6702 33.3976 11.7824 28.3976 11.7821Z" fill="#FA967C"/>
<path d="M11.9299 36.772C11.9137 36.7503 11.8958 36.7299 11.8797 36.7082C11.8742 36.7007 11.8691 36.6929 11.8638 36.6854C11.8853 36.7146 11.9081 36.7429 11.9299 36.772Z" fill="#FA967C"/>
<path d="M44.8927 36.7082C44.8764 36.7302 44.8568 36.75 44.8403 36.772C44.862 36.7429 44.8848 36.7146 44.9064 36.6854C44.9013 36.6926 44.898 36.701 44.8927 36.7082Z" fill="#FA967C"/>
</g>
<rect x="24.48" y="20.5884" width="7.8217" height="7.8217" rx="3.91085" fill="white"/>
</svg>
