<svg width="20" height="20" viewBox="0 0 20 20" fill="none" xmlns="http://www.w3.org/2000/svg">
<g clip-path="url(#clip0_6357_30210)">
<path d="M10.663 0.128064L17.2741 2.76988C17.6342 2.91373 17.9446 3.17129 18.1636 3.50813C18.3827 3.84498 18.5 4.24505 18.5 4.65488V10.0522C18.5 11.7344 18.0605 13.3833 17.2306 14.8142C16.4007 16.2451 15.2133 17.4015 13.8014 18.1538L10.6337 19.8405C10.437 19.9454 10.22 20 10 20C9.78001 20 9.56303 19.9454 9.36628 19.8405L6.19861 18.1528C4.7867 17.4005 3.59928 16.2441 2.7694 14.8132C1.93952 13.3823 1.49997 11.7334 1.5 10.0512V4.65588C1.49976 4.24589 1.61702 3.84559 1.8361 3.50855C2.05517 3.1715 2.36562 2.91379 2.72589 2.76988L9.337 0.128064C9.76448 -0.0426881 10.2355 -0.0426881 10.663 0.128064Z" fill="#FA967C"/>
<g style="mix-blend-mode:multiply">
<path fill-rule="evenodd" clip-rule="evenodd" d="M12.2099 5.06812C12.3861 5.06818 12.5591 5.11865 12.7115 5.21424C12.8639 5.30984 12.9902 5.44724 13.0777 5.61253L14.8676 8.99669C14.954 9.15993 14.9999 9.3446 15 9.53266V11.9625C15 12.1299 14.9639 12.2956 14.8945 12.4452L14.3353 13.6533C14.2523 13.8327 14.1245 13.9835 13.9666 14.089C13.8086 14.1945 13.6263 14.2504 13.4406 14.2504H12.9996C12.7345 14.2504 12.4802 14.1364 12.2927 13.9339C12.1052 13.7313 11.9999 13.4565 11.9999 13.17H8.00011C8.00011 13.4565 7.89433 13.7313 7.70679 13.9339C7.51927 14.1365 7.26509 14.2504 6.99989 14.2504H6.55887C6.37316 14.2504 6.19088 14.1945 6.03292 14.089C5.87509 13.9835 5.74769 13.8326 5.6647 13.6533L5.10551 12.4452C5.03618 12.2953 5.00002 12.1301 5 11.9625V9.53266C5.00005 9.34465 5.04549 9.15989 5.13188 8.99669L6.92182 5.61253C7.00921 5.44726 7.13558 5.30985 7.28793 5.21424C7.44036 5.11863 7.61389 5.06818 7.79015 5.06812H12.2099ZM7.52585 10.3493C7.14548 10.3493 6.83698 10.6574 6.83689 11.0377C6.83689 11.4182 7.14543 11.7267 7.52585 11.7267C7.90622 11.7266 8.21429 11.4181 8.21429 11.0377C8.21419 10.6574 7.90616 10.3494 7.52585 10.3493ZM12.5775 10.3493C12.1972 10.3493 11.8887 10.6574 11.8886 11.0377C11.8886 11.4182 12.1971 11.7267 12.5775 11.7267C12.958 11.7266 13.2665 11.4181 13.2665 11.0377C13.2664 10.6574 12.9579 10.3494 12.5775 10.3493ZM7.9004 6.17542C7.71908 6.17548 7.55476 6.28252 7.48101 6.44815L6.66438 8.28557C6.52956 8.5892 6.75206 8.93123 7.0843 8.93127H13.0186C13.3508 8.93127 13.5733 8.58922 13.4385 8.28557L12.6219 6.44815C12.5481 6.28252 12.3838 6.1755 12.2025 6.17542H7.9004Z" fill="#D63D4A"/>
</g>
<path d="M3.12918 3.73576L7.14342 2.06471C7.30278 1.99837 7.44648 2.25619 7.31148 2.36376C5.23435 4.01878 3.73906 6.09615 2.82559 9.32007C2.77893 9.48476 2.50267 9.45187 2.50305 9.2807L2.5135 4.6567C2.51441 4.25371 2.75713 3.89064 3.12918 3.73576Z" fill="white"/>
</g>
<defs>
<clipPath id="clip0_6357_30210">
<rect width="20" height="20" fill="white"/>
</clipPath>
</defs>
</svg>
