<svg width="56" height="56" viewBox="0 0 56 56" fill="none" xmlns="http://www.w3.org/2000/svg">
<ellipse cx="27.5984" cy="43.53" rx="26.5481" ry="4.97778" fill="#ACB1B6" fill-opacity="0.2"/>
<path d="M45.0916 34.3536C44.1002 40.2813 40.5527 44.3757 27.8602 44.3757C15.1677 44.3757 11.6203 40.2813 10.6288 34.3536C10.1267 34.212 9.6416 33.9915 9.19235 33.692L7.83612 32.7879C7.13942 32.3234 6.72095 31.5415 6.72095 30.7042V29.2127C6.72095 22.1375 10.1063 15.4895 15.8282 11.3281C16.2062 11.0532 16.6687 10.9052 17.136 10.9052C17.8182 10.9052 18.4148 11.1872 18.8401 11.6249C21.4785 10.0491 24.5636 9.14355 27.8602 9.14355C31.1568 9.14355 34.2419 10.0491 36.8803 11.6249C37.3056 11.1872 37.9022 10.9052 38.5844 10.9052C39.0517 10.9052 39.5142 11.0532 39.8922 11.3281C45.6141 15.4895 48.9995 22.1375 48.9995 29.2127V30.7042C48.9995 31.5415 48.581 32.3234 47.8843 32.7879L46.5281 33.692C46.0788 33.9915 45.5937 34.212 45.0916 34.3536Z" fill="white"/>
<path d="M45.4762 26.7596C45.4762 36.4887 45.4762 44.3757 27.8602 44.3757C10.2441 44.3757 10.2441 36.4887 10.2441 26.7596C10.2441 17.0305 18.1311 9.14355 27.8602 9.14355C37.5893 9.14355 45.4762 17.0305 45.4762 26.7596Z" fill="#EECBAE"/>
<ellipse cx="23.8965" cy="34.6878" rx="3.96361" ry="2.64241" fill="white"/>
<ellipse cx="31.8237" cy="34.6878" rx="3.96361" ry="2.64241" fill="white"/>
<path d="M23.4561 26.7597C23.4561 27.7326 22.6674 28.5213 21.6945 28.5213C20.7216 28.5213 19.9329 27.7326 19.9329 26.7597C19.9329 25.7867 20.7216 24.998 21.6945 24.998C22.6674 24.998 23.4561 25.7867 23.4561 26.7597Z" fill="#7E6254"/>
<path d="M31.3833 31.6041C31.3833 33.0634 29.8059 34.2465 27.8601 34.2465C25.9143 34.2465 24.3369 33.0634 24.3369 31.6041C24.3369 30.1447 25.9143 28.9617 27.8601 28.9617C29.8059 28.9617 31.3833 30.1447 31.3833 31.6041Z" fill="#7E6254"/>
<path d="M34.0257 28.5213C34.9986 28.5213 35.7873 27.7326 35.7873 26.7597C35.7873 25.7867 34.9986 24.998 34.0257 24.998C33.0528 24.998 32.2641 25.7867 32.2641 26.7597C32.2641 27.7326 33.0528 28.5213 34.0257 28.5213Z" fill="#7E6254"/>
<path d="M20.9665 9.38275C22.7032 8.93457 23.866 11.1268 22.5209 12.3133L22.3616 12.4538C18.1936 16.1302 15.5749 21.2504 15.0338 26.7817L14.802 29.151C14.702 30.1725 14.2731 31.1338 13.5796 31.8903C10.9804 34.7258 6.26408 33.4445 5.45707 29.6836L5.22819 28.617C5.11664 28.0971 5.10131 27.5613 5.18296 27.0359L5.22706 26.7521C6.53451 18.3389 12.7223 11.5102 20.9665 9.38275Z" fill="#7E6254"/>
<path d="M34.7537 9.38275C33.0169 8.93457 31.8541 11.1268 33.1993 12.3133L33.3586 12.4538C37.5266 16.1302 40.1453 21.2504 40.6864 26.7817L40.9182 29.151C41.0181 30.1725 41.4471 31.1338 42.1406 31.8903C44.7397 34.7258 49.4561 33.4445 50.2631 29.6836L50.492 28.617C50.6035 28.0971 50.6188 27.5613 50.5372 27.0359L50.4931 26.7521C49.1856 18.3389 42.9978 11.5102 34.7537 9.38275Z" fill="#7E6254"/>
</svg>
