<svg width="16" height="16" viewBox="0 0 16 16" fill="none" xmlns="http://www.w3.org/2000/svg">
<g clip-path="url(#clip0_5137_3252)">
<path fill-rule="evenodd" clip-rule="evenodd" d="M5.03708 4.29622C5.03708 3.51039 5.34925 2.75675 5.90491 2.20108C6.46057 1.64542 7.21421 1.33325 8.00004 1.33325C8.78587 1.33325 9.53951 1.64542 10.0952 2.20108C10.6508 2.75675 10.963 3.51039 10.963 4.29622C10.963 5.08204 10.6508 5.83568 10.0952 6.39135C9.53951 6.94701 8.78587 7.25918 8.00004 7.25918C7.21421 7.25918 6.46057 6.94701 5.90491 6.39135C5.34925 5.83568 5.03708 5.08204 5.03708 4.29622ZM5.03708 8.74066C4.05479 8.74066 3.11274 9.13087 2.41816 9.82545C1.72358 10.52 1.33337 11.4621 1.33337 12.4444C1.33337 13.0337 1.5675 13.599 1.98425 14.0157C2.401 14.4325 2.96623 14.6666 3.5556 14.6666H12.4445C13.0339 14.6666 13.5991 14.4325 14.0158 14.0157C14.4326 13.599 14.6667 13.0337 14.6667 12.4444C14.6667 11.4621 14.2765 10.52 13.5819 9.82545C12.8873 9.13087 11.9453 8.74066 10.963 8.74066H5.03708Z" fill="#6D7882"/>
</g>
<defs>
<clipPath id="clip0_5137_3252">
<rect width="16" height="16" fill="white"/>
</clipPath>
</defs>
</svg>
