<svg width="57" height="56" viewBox="0 0 57 56" fill="none" xmlns="http://www.w3.org/2000/svg">
<ellipse cx="28.398" cy="43.5295" rx="26.5481" ry="4.97778" fill="#ACB1B6" fill-opacity="0.2"/>
<g style="mix-blend-mode:multiply">
<path d="M36.7998 8.81752C36.7998 8.50193 37.0556 8.24609 37.3712 8.24609H42.895C43.2106 8.24609 43.4665 8.50193 43.4665 8.81752V20.2461H36.7998V8.81752Z" fill="#D63D4A"/>
</g>
<path d="M12.1606 23.0974L28.4312 9.3299C28.6443 9.14962 28.9564 9.14963 29.1694 9.3299L45.4401 23.0974C45.5684 23.2059 45.6424 23.3655 45.6424 23.5336V40.7582C45.6424 41.7803 44.8046 42.609 43.7711 42.609H33.0109H24.5898H13.8296C12.7961 42.609 11.9583 41.7803 11.9583 40.7582L11.9583 23.5336C11.9583 23.3655 12.0323 23.2059 12.1606 23.0974Z" fill="#FBB4C1"/>
<path d="M23.4666 31.484C23.4666 31.1684 23.7224 30.9126 24.038 30.9126H33.5618C33.8774 30.9126 34.1332 31.1684 34.1332 31.484V42.6091H23.4666L23.4666 31.484Z" fill="#FFDBE2"/>
<path fill-rule="evenodd" clip-rule="evenodd" d="M27.605 7.35787C28.2908 6.76352 29.3091 6.76352 29.9949 7.35787L46.837 21.9543C47.5985 22.6143 47.6808 23.7666 47.0208 24.5281C46.3609 25.2896 45.2086 25.3719 44.4471 24.7119L28.8 11.1511L13.1528 24.7119C12.3914 25.3719 11.239 25.2896 10.5791 24.5281C9.91913 23.7666 10.0014 22.6143 10.7629 21.9543L27.605 7.35787Z" fill="#285FA4"/>
<path fill-rule="evenodd" clip-rule="evenodd" d="M27.605 7.35787C28.2908 6.76352 29.3091 6.76352 29.9949 7.35787L46.837 21.9543C47.5985 22.6143 47.6808 23.7666 47.0208 24.5281C46.3609 25.2896 45.2086 25.3719 44.4471 24.7119L28.8 11.1511L13.1528 24.7119C12.3914 25.3719 11.239 25.2896 10.5791 24.5281C9.91913 23.7666 10.0014 22.6143 10.7629 21.9543L27.605 7.35787Z" fill="#D63D4A"/>
</svg>
