<svg width="40" height="40" viewBox="0 0 40 40" fill="none" xmlns="http://www.w3.org/2000/svg">
<path fill-rule="evenodd" clip-rule="evenodd" d="M13.181 5.83337C12.6372 5.83356 12.1031 5.98903 11.6328 6.28403C11.1625 6.57902 10.7728 7.00307 10.503 7.51319L4.98049 17.9537C4.71366 18.4576 4.57328 19.028 4.57324 19.6085V27.1044C4.57327 27.6216 4.68471 28.1316 4.89873 28.5942L6.62337 32.3205C6.87953 32.8743 7.27341 33.3401 7.76085 33.6656C8.24829 33.9912 8.81003 34.1636 9.3831 34.1636H10.7437C11.5619 34.1636 12.3467 33.8125 12.9253 33.1874C13.5038 32.5624 13.8289 31.7146 13.8289 30.8307H26.1698C26.1698 31.7146 26.4948 32.5624 27.0734 33.1874C27.652 33.8125 28.4367 34.1636 29.255 34.1636H30.6156C31.1886 34.1636 31.7504 33.9912 32.2378 33.6656C32.7253 33.3401 33.1191 32.8743 33.3753 32.3205L35.0999 28.5942C35.3143 28.1326 35.4254 27.621 35.4254 27.1044V19.6085C35.4254 19.028 35.285 18.4576 35.0182 17.9537L29.4956 7.51319C29.2259 7.00307 28.8361 6.57902 28.3659 6.28403C27.8956 5.98903 27.3615 5.83356 26.8177 5.83337H13.181Z" fill="#FA967C"/>
<g style="mix-blend-mode:multiply">
<path d="M7.75273 33.6687C7.26529 33.3432 6.87141 32.8774 6.61525 32.3236L5.75293 30.4604H34.2295L33.3672 32.3236C33.111 32.8774 32.7171 33.3432 32.2297 33.6687C31.7422 33.9942 31.1805 34.1667 30.6074 34.1667H29.2469C28.4286 34.1667 27.6439 33.8156 27.0653 33.1905C26.4867 32.5655 26.1616 31.7177 26.1616 30.8337H13.8208C13.8208 31.7177 13.4957 32.5655 12.9171 33.1905C12.3385 33.8156 11.5538 34.1667 10.7356 34.1667H9.37498C8.80191 34.1667 8.24017 33.9942 7.75273 33.6687Z" fill="#D63D4A"/>
</g>
<g style="mix-blend-mode:multiply">
<path d="M9.35454 16.5564L12.3773 9.75524C12.5137 9.44822 12.8182 9.25037 13.1542 9.25037H27.163C27.4989 9.25037 27.8034 9.44822 27.9398 9.75524L30.9626 16.5564C31.2124 17.1186 30.8009 17.7519 30.1857 17.7519H10.1314C9.5162 17.7519 9.10468 17.1186 9.35454 16.5564Z" fill="#D63D4A"/>
</g>
<circle cx="12.3656" cy="24.2521" r="2.12537" fill="white"/>
<circle cx="27.9525" cy="24.2521" r="2.12537" fill="white"/>
</svg>
