<svg width="56" height="56" viewBox="0 0 56 56" fill="none" xmlns="http://www.w3.org/2000/svg">
<g clip-path="url(#clip0_10821_222110)">
<ellipse cx="27.5984" cy="45.8635" rx="26.5481" ry="4.97778" fill="#ACB1B6" fill-opacity="0.2"/>
<path d="M31.9673 23.2328C31.9673 21.0421 33.7432 19.2661 35.934 19.2661H43.8673C46.058 19.2661 47.834 21.0421 47.834 23.2328V40.5419C47.834 42.7326 46.058 44.5085 43.8673 44.5085H35.9339C33.7432 44.5085 31.9673 42.7326 31.9673 40.5419V23.2328Z" fill="#F56831"/>
<path d="M8.1665 10.7914C8.1665 8.60064 9.94244 6.82471 12.1332 6.82471H33.9498C36.1406 6.82471 37.9165 8.60064 37.9165 10.7914V40.5414C37.9165 42.7321 36.1406 44.508 33.9498 44.508H12.1332C9.94244 44.508 8.1665 42.7321 8.1665 40.5414V10.7914Z" fill="#FEBF6C"/>
<path d="M28.9922 23.6842C30.0874 23.6844 30.9746 24.5714 30.9746 25.6667C30.9746 26.7619 30.0874 27.649 28.9922 27.6491H17.0908C15.996 27.6485 15.1084 26.7616 15.1084 25.6667C15.1084 24.5717 15.996 23.6849 17.0908 23.6842H28.9922Z" fill="#FFDDB0"/>
<path d="M28.9922 15.75C30.087 15.7502 30.9741 16.6376 30.9746 17.7324C30.9746 18.8276 30.0873 19.7169 28.9922 19.7171H17.0908C15.9959 19.7166 15.1084 18.8275 15.1084 17.7324C15.1089 16.6378 15.9962 15.7505 17.0908 15.75H28.9922Z" fill="#FFDDB0"/>
<path d="M16.0996 36.5742C16.0996 35.4788 16.9876 34.5908 18.0829 34.5908H27.9996C29.095 34.5908 29.9829 35.4788 29.9829 36.5742V44.5075H16.0996V36.5742Z" fill="#FFDDB0"/>
</g>
<defs>
<clipPath id="clip0_10821_222110">
<rect width="56" height="56" fill="white"/>
</clipPath>
</defs>
</svg>
