<svg width="40" height="40" viewBox="0 0 40 40" fill="none" xmlns="http://www.w3.org/2000/svg">
<rect x="8.3335" y="6.66663" width="23.3333" height="28.3333" rx="2" fill="#FA967C"/>
<path d="M16.6665 28.3333V23.3333H23.3332V28.3333L19.9998 27.4999L16.6665 28.3333Z" fill="#D63D4A"/>
<g style="mix-blend-mode:multiply">
<circle cx="20.0002" cy="18.3333" r="6.66667" fill="#D63D4A"/>
</g>
<path d="M22.0458 16.18C22.315 15.9288 22.7354 15.9434 22.9866 16.2125C23.2377 16.4817 23.2232 16.9021 22.954 17.1533L19.383 20.4866C19.1269 20.7257 18.7294 20.7257 18.4732 20.4866L17.0458 19.1536C16.7766 18.9024 16.762 18.4804 17.0133 18.2112C17.2643 17.9429 17.685 17.9283 17.954 18.1787L18.9273 19.0885L22.0458 16.18Z" fill="white"/>
<g style="mix-blend-mode:multiply">
<rect x="15" y="5" width="10" height="3.33333" rx="1" fill="#D63D4A"/>
</g>
</svg>
