<svg width="57" height="56" viewBox="0 0 57 56" fill="none" xmlns="http://www.w3.org/2000/svg">
<ellipse cx="28.1983" cy="43.5295" rx="26.5481" ry="4.97778" fill="#ACB1B6" fill-opacity="0.2"/>
<path d="M8.21474 25.9715C7.08786 25.4143 5.99795 26.7882 6.79693 27.7588L12.2394 34.3698C12.3212 34.4692 12.386 34.5815 12.4312 34.702L15.4353 42.7209C15.8763 43.8981 17.6111 43.6412 17.6921 42.3867L18.3751 31.7961C18.4054 31.3261 18.1501 30.884 17.7279 30.6752L8.21474 25.9715Z" fill="#285FA4"/>
<path d="M38.8497 21.4154C38.7108 20.1022 38.0221 18.9094 36.9543 18.1326L21.535 6.91434C20.6311 6.25673 19.4248 6.19311 18.4567 6.752C17.1039 7.53307 16.6403 9.26295 17.4214 10.6158L35.5929 42.0898C36.374 43.4426 38.1039 43.9061 39.4567 43.1251C40.4247 42.5662 40.9728 41.4896 40.8553 40.378L38.8497 21.4154Z" fill="#285FA4"/>
<path d="M32.0477 15.8482C35.3278 13.4549 39.3932 12.3942 43.4245 12.8799C46.0795 13.1998 47.6841 15.979 46.6336 18.4382C45.0386 22.1722 42.0873 25.1627 38.3746 26.8067L17.3118 36.1336C15.4917 36.9396 13.3568 36.2435 12.3615 34.5197C11.3662 32.7958 11.8309 30.5989 13.4389 29.4256L32.0477 15.8482Z" fill="#65B9EC"/>
<path d="M37.0689 15.594C36.8048 15.7061 36.7107 16.0255 36.8541 16.274L40.4093 22.4317C40.5527 22.6802 40.8764 22.7583 41.1056 22.5857C42.3841 21.6222 43.366 20.2694 43.9326 18.6566C44.4536 17.1737 43.4298 15.4005 41.8851 15.1102C40.2051 14.7945 38.5426 14.9685 37.0689 15.594Z" fill="white"/>
</svg>
