<svg width="57" height="56" viewBox="0 0 57 56" fill="none" xmlns="http://www.w3.org/2000/svg">
<ellipse cx="28.0989" cy="45.8635" rx="26.5482" ry="4.97778" fill="#ACB1B6" fill-opacity="0.2"/>
<path d="M29.9557 4.94787L44.4742 10.7495C45.2651 11.0654 45.9466 11.631 46.4277 12.3708C46.9087 13.1105 47.1664 13.9891 47.1663 14.8891V26.7421C47.1664 30.4362 46.2011 34.0574 44.3786 37.1998C42.5562 40.3422 39.9485 42.8817 36.8478 44.5338L29.8914 48.238C29.4593 48.4683 28.9828 48.5882 28.4997 48.5882C28.0165 48.5882 27.5401 48.4683 27.108 48.238L20.1515 44.5316C17.0509 42.8795 14.4432 40.34 12.6207 37.1976C10.7982 34.0551 9.83293 30.434 9.83301 26.7399V14.8913C9.83248 13.9909 10.09 13.1118 10.5711 12.3717C11.0522 11.6315 11.734 11.0655 12.5252 10.7495L27.0437 4.94787C27.9824 4.57288 29.0169 4.57288 29.9557 4.94787Z" fill="#65B9EC"/>
<path fill-rule="evenodd" clip-rule="evenodd" d="M33.3529 15.7964C33.74 15.7965 34.12 15.9074 34.4547 16.1173C34.7894 16.3272 35.0667 16.629 35.2587 16.992L39.1895 24.4238C39.3794 24.7823 39.4802 25.1879 39.4803 25.6009V30.937C39.4803 31.3045 39.4011 31.6686 39.2486 31.997L38.0206 34.65C37.8383 35.0441 37.5577 35.3753 37.2108 35.607C36.8638 35.8387 36.4636 35.9615 36.0557 35.9615H35.0872C34.505 35.9613 33.9465 35.7111 33.5348 35.2664C33.1231 34.8215 32.8918 34.2179 32.8918 33.5888H24.108C24.108 34.218 23.8757 34.8215 23.4639 35.2664C23.052 35.7112 22.4938 35.9615 21.9115 35.9615H20.9429C20.5351 35.9614 20.1348 35.8387 19.7879 35.607C19.4413 35.3754 19.1615 35.0438 18.9793 34.65L17.7512 31.997C17.599 31.6679 17.5196 31.305 17.5195 30.937V25.6009C17.5196 25.188 17.6194 24.7823 17.8092 24.4238L21.74 16.992C21.9319 16.629 22.2094 16.3273 22.544 16.1173C22.8787 15.9073 23.2598 15.7965 23.6469 15.7964H33.3529ZM23.0665 27.3943C22.2312 27.3943 21.5537 28.0708 21.5535 28.9061C21.5535 29.7416 22.2311 30.4191 23.0665 30.4191C23.9018 30.4189 24.5784 29.7415 24.5784 28.9061C24.5781 28.0709 23.9017 27.3945 23.0665 27.3943ZM34.1604 27.3943C33.3251 27.3943 32.6476 28.0708 32.6474 28.9061C32.6474 29.7416 33.325 30.4191 34.1604 30.4191C34.9958 30.419 35.6734 29.7416 35.6734 28.9061C35.6732 28.0709 34.9957 27.3944 34.1604 27.3943ZM23.889 18.2281C23.4908 18.2282 23.13 18.4633 22.968 18.8271L21.1746 22.8622C20.8786 23.529 21.3672 24.2801 22.0968 24.2802H35.1289C35.8586 24.2802 36.3472 23.529 36.0511 22.8622L34.2577 18.8271C34.0958 18.4633 33.7349 18.2283 33.3367 18.2281H23.889Z" fill="#285FA4"/>
<path d="M13.4121 12.8704L22.2277 9.20063C22.5777 9.05494 22.8933 9.62113 22.5968 9.85736C18.0353 13.4919 14.7515 18.054 12.7454 25.134C12.643 25.4956 12.0363 25.4234 12.0371 25.0475L12.0601 14.8928C12.0621 14.0078 12.5951 13.2105 13.4121 12.8704Z" fill="white"/>
</svg>
