<svg width="40" height="40" viewBox="0 0 40 40" fill="none" xmlns="http://www.w3.org/2000/svg">
<path d="M8.33301 8.66662C8.33301 7.56205 9.22844 6.66663 10.333 6.66663H29.6663C30.7709 6.66663 31.6663 7.56206 31.6663 8.66663V31.3333C31.6663 32.4379 30.7709 33.3333 29.6663 33.3333H10.333C9.22844 33.3333 8.33301 32.4379 8.33301 31.3333V8.66662Z" fill="#FA967C"/>
<path d="M15 7.99996C15 7.26358 15.597 6.66663 16.3333 6.66663H23.6667C24.403 6.66663 25 7.26358 25 7.99996C25 8.73634 24.403 9.33329 23.6667 9.33329H16.3333C15.597 9.33329 15 8.73634 15 7.99996Z" fill="white"/>
<path d="M16.3327 6.66667L16.196 6.67318C15.5241 6.74176 14.9998 7.3097 14.9997 7.99967C14.9997 8.68978 15.524 9.25755 16.196 9.32617L16.3327 9.33268H23.6667L23.8034 9.32617C24.4305 9.26213 24.9294 8.76365 24.9932 8.13639L24.9997 7.99967C24.9995 7.3097 24.4753 6.74176 23.8034 6.67318L23.6667 6.66667V5C25.3233 5.00018 26.6662 6.34308 26.6663 7.99967C26.6663 9.65642 25.3234 10.9992 23.6667 10.9993H16.3327C14.7797 10.9992 13.5032 9.81965 13.3493 8.30729L13.333 7.99967L13.3493 7.69368C13.5027 6.18086 14.7794 5.00016 16.3327 5V6.66667ZM23.6667 5V6.66667H16.3327V5H23.6667Z" fill="#FA967C"/>
<path fill-rule="evenodd" clip-rule="evenodd" d="M11.666 28.4167C11.666 27.7264 12.263 27.1667 12.9993 27.1667H26.9993C27.7357 27.1667 28.3327 27.7264 28.3327 28.4167C28.3327 29.1071 27.7357 29.6667 26.9993 29.6667H12.9993C12.263 29.6667 11.666 29.1071 11.666 28.4167Z" fill="#D63D4A"/>
<path d="M11.666 23.4167C11.666 22.7264 12.263 22.1667 12.9993 22.1667H26.9993C27.7357 22.1667 28.3327 22.7264 28.3327 23.4167C28.3327 24.1071 27.7357 24.6667 26.9993 24.6667H12.9993C12.263 24.6667 11.666 24.1071 11.666 23.4167Z" fill="#D63D4A"/>
<path d="M15.833 12.083C16.4083 12.083 16.875 12.5497 16.875 13.125V15.207H18.958C19.5332 15.2071 19.999 15.6738 19.999 16.249C19.999 16.8242 19.5332 17.2909 18.958 17.291H16.875V19.374C16.875 19.9493 16.4083 20.416 15.833 20.416C15.2578 20.416 14.791 19.9493 14.791 19.374V17.291H12.708C12.1329 17.2909 11.667 16.8242 11.667 16.249C11.667 15.6738 12.1329 15.2072 12.708 15.207H14.791V13.125C14.791 12.5497 15.2578 12.083 15.833 12.083Z" fill="#D63D4A"/>
</svg>
