<svg width="57" height="56" viewBox="0 0 57 56" fill="none" xmlns="http://www.w3.org/2000/svg">
<ellipse cx="28.0989" cy="45.8635" rx="26.5481" ry="4.97778" fill="#ACB1B6" fill-opacity="0.2"/>
<path d="M12.167 10.5C12.167 7.92271 14.2563 5.83337 16.8337 5.83337H40.167C42.7443 5.83337 44.8337 7.92271 44.8337 10.5V43.1667C44.8337 45.744 42.7443 47.8334 40.167 47.8334H16.8337C14.2563 47.8334 12.167 45.744 12.167 43.1667V10.5Z" fill="#C8A1EF"/>
<path fill-rule="evenodd" clip-rule="evenodd" d="M17.3008 14.7003C17.3008 13.6694 18.1365 12.8336 19.1674 12.8336H30.8341C31.865 12.8336 32.7008 13.6694 32.7008 14.7003C32.7008 15.7312 31.865 16.567 30.8341 16.567H19.1674C18.1365 16.567 17.3008 15.7312 17.3008 14.7003ZM17.3008 22.6334C17.3008 21.6025 18.1365 20.7667 19.1674 20.7667H35.5008C36.5317 20.7667 37.3674 21.6025 37.3674 22.6334C37.3674 23.6643 36.5317 24.5001 35.5008 24.5001H19.1674C18.1365 24.5001 17.3008 23.6643 17.3008 22.6334Z" fill="#9548E5"/>
<path fill-rule="evenodd" clip-rule="evenodd" d="M33.246 36.2468C33.9749 35.5178 35.1568 35.5178 35.8858 36.2468L40.5525 40.9135C41.2815 41.6425 41.2815 42.8244 40.5525 43.5533C39.8235 44.2823 38.6416 44.2823 37.9126 43.5533L33.246 38.8867C32.517 38.1577 32.517 36.9758 33.246 36.2468Z" fill="#9548E5"/>
<path d="M39 35C39 38.866 35.866 42 32 42C28.134 42 25 38.866 25 35C25 31.134 28.134 28 32 28C35.866 28 39 31.134 39 35Z" fill="#9548E5"/>
</svg>
