<svg width="40" height="40" viewBox="0 0 40 40" fill="none" xmlns="http://www.w3.org/2000/svg">
<path d="M33.1375 21.6011C33.1375 29.2865 28.4212 34.2915 26.063 35.8333C29.3196 34.7659 35.8329 30.0692 35.8329 19.8221C35.8329 9.57486 26.7372 5.58984 22.6945 5.58984C11.5776 5.58984 8.54564 13.0618 9.55629 18.7546C8.88252 13.0618 15.2832 9.5037 20.3364 9.5037C25.3896 9.5037 33.1375 11.9943 33.1375 21.6011Z" fill="#D63D4A"/>
<path d="M15.6209 24.0919C19.3266 24.0919 19.6635 19.1106 24.7167 19.1106C27.0748 19.1106 30.1068 20.5338 30.1068 24.8035C30.1068 30.1405 24.0429 35.4776 17.6422 35.4776C11.2415 35.4776 4.16699 29.0731 4.16699 20.5338C4.16699 11.9945 10.9046 4.16675 20.3372 4.16675C27.8834 4.16675 32.5772 9.62243 33.8124 12.3503C30.8479 7.51125 24.829 6.30155 22.3585 6.30158C11.9152 6.30158 9.55708 14.1294 9.55708 17.6874C9.55708 22.3128 13.2628 24.0919 15.6209 24.0919Z" fill="#FA967C"/>
</svg>
