<svg width="21" height="20" viewBox="0 0 21 20" fill="none" xmlns="http://www.w3.org/2000/svg">
<g style="mix-blend-mode:multiply">
<path d="M10.085 2.08643C14.4569 2.08643 18.001 5.63048 18.001 10.0024C18.0009 10.6455 17.9234 11.2703 17.7783 11.8687C17.7421 12.0179 17.682 12.1541 17.6055 12.2778C17.5993 12.4119 17.5746 12.5498 17.5244 12.689C16.9608 14.2509 15.9196 15.5848 14.5771 16.5142C14.3068 16.7012 13.9811 16.7866 13.6523 16.7866H6.50293C6.17399 16.7866 5.84762 16.7014 5.57715 16.5142C3.5133 15.0856 2.16129 12.7015 2.16113 10.0015C2.16114 9.73737 2.17492 9.47572 2.2002 9.21826C2.2002 9.23919 2.20327 9.26004 2.2041 9.28076C2.56877 5.24726 5.95652 2.0866 10.085 2.08643ZM5.69727 9.71924C5.46869 9.59275 5.18556 9.74012 5.18555 10.0015C5.18555 10.0258 5.18617 10.0505 5.18652 10.0747C5.19078 10.3672 5.14686 10.6776 5.06543 10.9839C5.22442 11.1184 5.34735 11.3018 5.41406 11.5083C6.05017 13.4766 7.8981 14.8997 10.0781 14.8999C12.2583 14.8998 14.107 13.4767 14.7432 11.5083C14.7705 11.4236 14.8088 11.3433 14.8535 11.2681C14.8573 11.1765 14.8664 11.0859 14.8848 10.9976C14.9514 10.676 14.9863 10.3428 14.9863 10.0015C14.9863 9.95376 14.9334 9.92407 14.8916 9.94678L13.0537 10.9673C12.9594 11.0196 12.8879 11.1047 12.8447 11.2036C12.3797 12.2688 11.3206 13.0142 10.084 13.0142C8.6663 13.0141 7.47763 12.0356 7.15527 10.7173C7.12256 10.5838 7.04105 10.4656 6.9209 10.3989L5.69727 9.71924ZM10.0859 5.10107C8.19922 5.10107 6.56117 6.16718 5.74219 7.72998C5.59766 8.00579 5.80975 8.31763 6.12109 8.32275L7.31348 8.34229C7.46845 8.34483 7.61259 8.26619 7.70801 8.14404C8.25979 7.43783 9.11833 6.98297 10.084 6.98291C11.055 6.98291 11.9175 7.44366 12.4688 8.15674C12.5641 8.27987 12.7085 8.35957 12.8643 8.35693L14.0566 8.33643C14.3673 8.33117 14.5798 8.02036 14.4365 7.74463C13.6202 6.17404 11.9782 5.10128 10.0859 5.10107Z" fill="white"/>
<path d="M2.2019 9.84872C2.2019 10.3484 2.60695 10.7534 3.10661 10.7534H4.46231C4.90866 10.7534 5.27961 11.0829 5.41685 11.5076C6.05292 13.4761 7.90063 14.8998 10.0808 14.8999C12.2608 14.8996 14.1086 13.4759 14.7447 11.5076C14.882 11.0829 15.253 10.7534 15.6993 10.7534H16.9647C17.4979 10.7534 17.9198 11.2146 17.8035 11.735C17.013 15.2728 13.855 17.9173 10.0789 17.9175C5.70716 17.9174 2.1631 14.3731 2.16284 10.0015C2.16284 9.73731 2.17663 9.47577 2.2019 9.21826V9.84872Z" fill="#D63D4A"/>
<g style="mix-blend-mode:multiply">
<path d="M10.0823 2.0835C14.4542 2.0835 17.9982 5.62761 17.9983 9.99951C17.9983 10.6429 17.9208 11.268 17.7756 11.8667C17.603 12.5787 16.9233 13.0171 16.1907 13.0171C15.2776 13.0171 14.6967 11.8897 14.8821 10.9956C14.9489 10.6736 14.9836 10.3395 14.9836 9.99756C14.9836 9.95099 14.9317 9.92218 14.891 9.94477L13.0509 10.9652C12.9564 11.0176 12.8851 11.1026 12.8419 11.2016C12.377 12.267 11.3181 13.0131 10.0813 13.0132C8.66272 13.0132 7.47315 12.0336 7.15155 10.714C7.11894 10.5802 7.03754 10.4616 6.91714 10.3948L5.69417 9.7161C5.46591 9.58944 5.18286 9.73651 5.18286 9.99756C5.18286 10.0217 5.18349 10.0458 5.18384 10.0698C5.20264 11.361 4.33456 13.0171 3.04321 13.0171C2.99801 13.0173 2.96141 13.0539 2.96118 13.0991C2.96118 13.1866 2.84648 13.2126 2.81177 13.1323C2.39698 12.1715 2.16626 11.1125 2.16626 9.99951C2.16633 5.62772 5.71052 2.08369 10.0823 2.0835ZM10.0833 5.09717C8.19593 5.09717 6.55728 6.16384 5.73848 7.72737C5.59404 8.00317 5.80596 8.31443 6.11725 8.31955L7.31106 8.33917C7.46595 8.34172 7.60944 8.26323 7.70488 8.14121C8.25681 7.43556 9.11598 6.98193 10.0813 6.98193C11.0519 6.98198 11.9142 7.4412 12.4656 8.15364C12.561 8.27692 12.7053 8.35631 12.8611 8.35367L14.0544 8.33349C14.365 8.32823 14.5768 8.01798 14.4336 7.74224C13.6175 6.17102 11.976 5.09741 10.0833 5.09717Z" fill="#FA967C"/>
</g>
<rect x="8.57202" y="8.49219" width="3.01567" height="3.01567" rx="1.50784" fill="white"/>
</g>
</svg>
