<svg width="21" height="20" viewBox="0 0 21 20" fill="none" xmlns="http://www.w3.org/2000/svg">
<path d="M8.37607 10.2449C8.57667 10.4722 8.41775 10.8333 8.11713 10.8333H6.96599C6.75152 10.8333 6.58746 11.0291 6.63937 11.2403C7.17043 13.4017 9.056 15 11.3023 15C11.9914 15 12.6464 14.8493 13.2388 14.578C13.5929 14.4158 14.0581 14.8136 13.8116 15.1184C12.6345 16.5744 10.8692 17.5 8.8954 17.5C5.46457 17.5 2.66245 14.7041 2.48582 11.1862C2.47604 10.9915 2.32133 10.8333 2.12932 10.8333H0.848345C0.547719 10.8333 0.388801 10.4722 0.589405 10.2449L4.2238 6.12674C4.36197 5.97017 4.6035 5.97017 4.74168 6.12674L8.37607 10.2449Z" fill="#6D7882"/>
<path d="M12.1046 2.5C15.5354 2.5 18.3376 5.29594 18.5142 8.81379C18.524 9.00846 18.6787 9.16667 18.8707 9.16667H20.1517C20.4523 9.16667 20.6112 9.52782 20.4106 9.75512L16.7762 13.8733C16.638 14.0298 16.3965 14.0298 16.2583 13.8733L12.6239 9.75512C12.4233 9.52782 12.5822 9.16667 12.8829 9.16667H14.034C14.2485 9.16667 14.4125 8.97094 14.3606 8.75969C13.8296 6.59835 11.944 5 9.6977 5C9.00857 5 8.3536 5.15075 7.76123 5.42202C7.40712 5.58419 6.94189 5.18643 7.18836 4.88159C8.36552 3.4256 10.1308 2.5 12.1046 2.5Z" fill="#6D7882"/>
</svg>
