<svg width="21" height="20" viewBox="0 0 21 20" fill="none" xmlns="http://www.w3.org/2000/svg">
<path d="M11.75 1.66699C11.9268 1.66699 12.0967 1.73726 12.2217 1.8623L16.9707 6.6123C17.0957 6.73732 17.166 6.90721 17.166 7.08398V16.834C17.1658 17.6622 16.4943 18.334 15.666 18.334H5.33301C4.50489 18.3338 3.83327 17.6621 3.83301 16.834V3.16699C3.83301 2.33867 4.50473 1.66717 5.33301 1.66699H11.75ZM7.16602 13.333C6.79783 13.333 6.49902 13.6318 6.49902 14C6.49902 14.3682 6.79783 14.667 7.16602 14.667H12.999C13.3672 14.667 13.666 14.3682 13.666 14C13.666 13.6318 13.3672 13.333 12.999 13.333H7.16602ZM7.16602 10.5C6.79783 10.5 6.49902 10.7988 6.49902 11.167C6.49916 11.5351 6.79791 11.833 7.16602 11.833H10.499C10.8671 11.833 11.1659 11.5351 11.166 11.167C11.166 10.7988 10.8672 10.5 10.499 10.5H7.16602ZM12.417 6.25C12.417 6.34194 12.4911 6.41682 12.583 6.41699H14.8896L12.417 3.94336V6.25Z" fill="#6D7882"/>
</svg>
