<svg width="32" height="32" viewBox="0 0 32 32" fill="none" xmlns="http://www.w3.org/2000/svg">
<g style="mix-blend-mode:multiply">
<path fill-rule="evenodd" clip-rule="evenodd" d="M10.2182 4.66675C9.78319 4.6669 9.3559 4.79127 8.97968 5.02727C8.60345 5.26327 8.29165 5.6025 8.07586 6.0106L3.65783 14.363C3.44436 14.7661 3.33206 15.2225 3.33203 15.6869V21.6836C3.33206 22.0973 3.42121 22.5054 3.59242 22.8754L4.97213 25.8564C5.17706 26.2995 5.49216 26.6721 5.88212 26.9325C6.27207 27.193 6.72146 27.3309 7.17991 27.3309H8.26838C8.92298 27.3309 9.55077 27.05 10.0136 26.55C10.4765 26.0499 10.7366 25.3717 10.7366 24.6646H20.6092C20.6092 25.3717 20.8693 26.0499 21.3322 26.55C21.795 27.05 22.4228 27.3309 23.0774 27.3309H24.1659C24.6243 27.3309 25.0737 27.193 25.4637 26.9325C25.8536 26.6721 26.1687 26.2995 26.3737 25.8564L27.7534 22.8754C27.9249 22.5061 28.0138 22.0969 28.0138 21.6836V15.6869C28.0137 15.2225 27.9014 14.7661 27.688 14.363L23.2699 6.0106C23.0542 5.6025 22.7424 5.26327 22.3661 5.02727C21.9899 4.79127 21.5626 4.6669 21.1276 4.66675H10.2182Z" fill="#FA967C"/>
<g style="mix-blend-mode:multiply">
<path d="M5.87718 26.935C5.48723 26.6746 5.17213 26.3019 4.9672 25.8589L4.27734 24.3684H27.0586L26.3687 25.8589C26.1638 26.3019 25.8487 26.6746 25.4588 26.935C25.0688 27.1954 24.6194 27.3334 24.161 27.3334H23.0725C22.4179 27.3334 21.7901 27.0525 21.3272 26.5525C20.8644 26.0524 20.6043 25.3742 20.6043 24.667H10.7316C10.7316 25.3742 10.4716 26.0524 10.0087 26.5525C9.54584 27.0525 8.91805 27.3334 8.26345 27.3334H7.17498C6.71653 27.3334 6.26713 27.1954 5.87718 26.935Z" fill="#D63D4A"/>
</g>
<g style="mix-blend-mode:multiply">
<path d="M7.43882 12.6077L9.45399 8.07355C9.63592 7.6642 10.0419 7.40039 10.4898 7.40039H21.1075C21.5555 7.40039 21.9614 7.6642 22.1434 8.07355L24.1585 12.6077C24.4917 13.3573 23.943 14.2016 23.1227 14.2016H8.47465C7.65436 14.2016 7.10567 13.3573 7.43882 12.6077Z" fill="#D63D4A"/>
</g>
<ellipse cx="9.56749" cy="19.4017" rx="1.7003" ry="1.7003" fill="white"/>
<circle cx="22.0362" cy="19.4017" r="1.7003" fill="white"/>
<path d="M18.707 23.2396C18.707 25.9805 22.3272 28 23.6848 28C25.0424 28 28.6626 25.9805 28.6626 23.2396C28.6626 21.7969 28.6626 20.4912 28.6626 19.578C28.6626 18.7882 28.1525 18.0898 27.4013 17.8504L24.508 16.9281C23.9724 16.7574 23.3972 16.7574 22.8616 16.9281L19.9683 17.8504C19.2172 18.0898 18.707 18.7882 18.707 19.578C18.707 20.4912 18.707 21.7969 18.707 23.2396Z" fill="#D63D4A"/>
<path d="M21.0195 21.5896L23.1493 23.8479L26.3529 20.8003" stroke="white" stroke-width="0.914286" stroke-linecap="round" stroke-linejoin="round"/>
<path fill-rule="evenodd" clip-rule="evenodd" d="M11.8544 7.73361C12.8307 6.78532 14.1789 6.19556 15.6641 6.19556C17.1493 6.19556 18.4975 6.78532 19.4737 7.73361C19.7267 7.97936 19.7276 8.37868 19.4758 8.62554C19.2239 8.87239 18.8147 8.87329 18.5617 8.62755C17.8165 7.90373 16.792 7.45693 15.6641 7.45693C14.5361 7.45693 13.5116 7.90373 12.7664 8.62755C12.5134 8.87329 12.1042 8.87239 11.8523 8.62554C11.6005 8.37868 11.6014 7.97936 11.8544 7.73361Z" fill="white"/>
<path fill-rule="evenodd" clip-rule="evenodd" d="M15.6622 10.0727C15.0428 10.0727 14.4791 10.3185 14.0665 10.7181C13.8132 10.9634 13.404 10.962 13.1525 10.7148C12.901 10.4676 12.9025 10.0682 13.1558 9.82285C13.7979 9.20101 14.6842 8.81128 15.6622 8.81128C16.6388 8.81128 17.5303 9.20013 18.1702 9.8245C18.4226 10.0708 18.4226 10.4701 18.1702 10.7164C17.9177 10.9627 17.5085 10.9627 17.2561 10.7164C16.8491 10.3194 16.2828 10.0727 15.6622 10.0727Z" fill="white"/>
<path d="M15.666 13.0528C16.0964 13.0528 16.4453 12.7123 16.4453 12.2924C16.4453 11.8724 16.0964 11.532 15.666 11.532C15.2356 11.532 14.8867 11.8724 14.8867 12.2924C14.8867 12.7123 15.2356 13.0528 15.666 13.0528Z" fill="white"/>
</g>
</svg>
