<svg width="32" height="32" viewBox="0 0 32 32" fill="none" xmlns="http://www.w3.org/2000/svg">
<g style="mix-blend-mode:multiply">
<path fill-rule="evenodd" clip-rule="evenodd" d="M10.5464 4.66675C10.1113 4.6669 9.68403 4.79127 9.3078 5.02727C8.93157 5.26327 8.61977 5.6025 8.40399 6.0106L3.98596 14.363C3.77249 14.7661 3.66018 15.2225 3.66016 15.6869V21.6836C3.66018 22.0973 3.74933 22.5053 3.92055 22.8754L5.30026 25.8564C5.50519 26.2995 5.82029 26.6721 6.21024 26.9325C6.60019 27.193 7.04958 27.3309 7.50804 27.3309H8.5965C9.2511 27.3309 9.87889 27.05 10.3418 26.55C10.8046 26.0499 11.0647 25.3717 11.0647 24.6646H20.9374C20.9374 25.3717 21.1974 26.0499 21.6603 26.55C22.1232 27.05 22.7509 27.3309 23.4055 27.3309H24.494C24.9525 27.3309 25.4019 27.193 25.7918 26.9325C26.1818 26.6721 26.4969 26.2995 26.7018 25.8564L28.0815 22.8754C28.253 22.5061 28.3419 22.0969 28.3419 21.6836V15.6869C28.3419 15.2225 28.2296 14.7661 28.0161 14.363L23.5981 6.0106C23.3823 5.6025 23.0705 5.26327 22.6943 5.02727C22.318 4.79127 21.8907 4.6669 21.4557 4.66675H10.5464Z" fill="#FA967C"/>
<g style="mix-blend-mode:multiply">
<path d="M6.20531 26.935C5.81535 26.6746 5.50025 26.3019 5.29532 25.8589L4.60547 24.3684H27.3867L26.6969 25.8589C26.4919 26.3019 26.1768 26.6746 25.7869 26.935C25.3969 27.1954 24.9475 27.3334 24.4891 27.3334H23.4006C22.746 27.3334 22.1182 27.0525 21.6553 26.5525C21.1925 26.0524 20.9324 25.3742 20.9324 24.667H11.0597C11.0597 25.3742 10.7997 26.0524 10.3368 26.5525C9.87396 27.0525 9.24617 27.3334 8.59157 27.3334H7.50311C7.04465 27.3334 6.59526 27.1954 6.20531 26.935Z" fill="#D63D4A"/>
</g>
<g style="mix-blend-mode:multiply">
<path d="M7.58989 13.0062L9.85696 7.90526C9.99341 7.59825 10.2979 7.40039 10.6338 7.40039H21.6199C21.9558 7.40039 22.2603 7.59825 22.3967 7.90526L24.6638 13.0062C24.9137 13.5684 24.5021 14.2016 23.8869 14.2016H8.36677C7.75155 14.2016 7.34003 13.5684 7.58989 13.0062Z" fill="#D63D4A"/>
</g>
<circle cx="9.89561" cy="19.4017" r="1.7003" fill="white"/>
<circle cx="22.3644" cy="19.4017" r="1.7003" fill="white"/>
<path fill-rule="evenodd" clip-rule="evenodd" d="M12.1786 7.73361C13.1549 6.78532 14.5031 6.19556 15.9883 6.19556C17.4735 6.19556 18.8217 6.78532 19.7979 7.73361C20.0509 7.97936 20.0518 8.37868 19.8 8.62554C19.5482 8.87239 19.1389 8.87329 18.8859 8.62755C18.1408 7.90373 17.1162 7.45693 15.9883 7.45693C14.8604 7.45693 13.8358 7.90373 13.0906 8.62755C12.8377 8.87329 12.4284 8.87239 12.1766 8.62554C11.9247 8.37868 11.9256 7.97936 12.1786 7.73361Z" fill="white"/>
<path fill-rule="evenodd" clip-rule="evenodd" d="M15.9864 10.0727C15.367 10.0727 14.8033 10.3185 14.3908 10.7181C14.1374 10.9635 13.7282 10.962 13.4767 10.7148C13.2252 10.4676 13.2267 10.0682 13.4801 9.82285C14.1221 9.20101 15.0084 8.81128 15.9864 8.81128C16.9631 8.81128 17.8545 9.20013 18.4944 9.8245C18.7468 10.0708 18.7468 10.4701 18.4944 10.7164C18.242 10.9627 17.8327 10.9627 17.5803 10.7164C17.1734 10.3194 16.607 10.0727 15.9864 10.0727Z" fill="white"/>
<path d="M15.9902 13.0528C16.4206 13.0528 16.7695 12.7123 16.7695 12.2924C16.7695 11.8724 16.4206 11.532 15.9902 11.532C15.5598 11.532 15.2109 11.8724 15.2109 12.2924C15.2109 12.7123 15.5598 13.0528 15.9902 13.0528Z" fill="white"/>
</g>
</svg>
