<svg width="25" height="25" viewBox="0 0 25 25" fill="none" xmlns="http://www.w3.org/2000/svg">
<g style="mix-blend-mode:multiply">
<path d="M12.1679 4.55078C12.5503 4.55078 12.8602 4.86074 12.8602 5.24309L12.8602 10.7815C12.8602 11.1639 12.5503 11.4739 12.1679 11.4739C11.7856 11.4739 11.4756 11.1639 11.4756 10.7815L11.4756 5.24309C11.4756 4.86074 11.7856 4.55078 12.1679 4.55078Z" fill="#D63D4A"/>
<rect x="3.16663" y="10.7812" width="18" height="9.69231" rx="2.07692" fill="#FA967C"/>
<rect x="5.2439" y="4.55078" width="13.8462" height="2.07692" rx="1.03846" fill="#D63D4A"/>
<circle cx="17.9408" cy="13.6956" r="1.03737" fill="white"/>
<g style="mix-blend-mode:multiply">
<circle cx="8.3605" cy="15.6291" r="3.11538" fill="#D63D4A"/>
</g>
<path d="M5.79919 15.9743C5.79919 15.1831 6.27392 13.5216 8.17282 13.2051C7.53985 13.838 6.32667 15.315 5.79919 15.9743Z" fill="white"/>
</g>
</svg>
