<svg width="32" height="33" viewBox="0 0 32 33" fill="none" xmlns="http://www.w3.org/2000/svg">
<g style="mix-blend-mode:multiply">
<g style="mix-blend-mode:multiply">
<path d="M20.0007 3.8335C20.737 3.8335 21.334 4.43045 21.334 5.16683C21.334 5.90321 20.737 6.50016 20.0007 6.50016C19.6325 6.50016 19.334 6.79864 19.334 7.16683V11.8335C19.334 12.5699 18.737 13.1668 18.0007 13.1668H16.6673C15.9309 13.1668 15.334 12.5699 15.334 11.8335V7.16683C15.334 6.79864 15.0355 6.50016 14.6673 6.50016C13.9309 6.50016 13.334 5.90321 13.334 5.16683C13.334 4.43045 13.9309 3.8335 14.6673 3.8335H20.0007Z" fill="#5B658C"/>
</g>
<path d="M17.334 7.8335C23.225 7.8335 28.0006 12.6091 28.0006 18.5002C28.0006 24.3912 23.225 29.1668 17.334 29.1668C14.8863 29.1668 12.6322 28.3416 10.8327 26.9549C9.55109 25.9673 8.06829 25.1668 6.45033 25.1668H5.73372C4.77668 25.1667 4.00086 24.3908 4.00065 23.4338C4.00065 22.4765 4.77655 21.7008 5.73372 21.7007H7.26693C7.67215 21.7007 8.00065 21.3722 8.00065 20.967C8.00065 20.5617 7.67215 20.2332 7.26693 20.2332H3.06706C2.10991 20.2331 1.33402 19.4573 1.33398 18.5002C1.33398 17.543 2.10988 16.7672 3.06706 16.7671H8.60091C9.00578 16.7671 9.33398 16.4389 9.33398 16.034C9.33398 15.6292 9.00578 15.3009 8.60091 15.3009L7.1556 15.3003L5.73372 15.2996C4.77655 15.2995 4.00065 14.5238 4.00065 13.5666C4.00079 12.6095 4.77664 11.8336 5.73372 11.8335H6.45018C8.06823 11.8335 9.55108 11.0329 10.8327 10.0453C12.6322 8.65862 14.8864 7.8335 17.334 7.8335Z" fill="white"/>
<path d="M17.334 7.8335C23.225 7.8335 28.0006 12.6091 28.0006 18.5002C28.0006 24.3912 23.225 29.1668 17.334 29.1668C14.8863 29.1668 12.6322 28.3416 10.8327 26.9549C9.55109 25.9673 8.06829 25.1668 6.45033 25.1668H5.73372C4.77668 25.1667 4.00086 24.3908 4.00065 23.4338C4.00065 22.4765 4.77655 21.7008 5.73372 21.7007H7.26693C7.67215 21.7007 8.00065 21.3722 8.00065 20.967C8.00065 20.5617 7.67215 20.2332 7.26693 20.2332H3.06706C2.10991 20.2331 1.33402 19.4573 1.33398 18.5002C1.33398 17.543 2.10988 16.7672 3.06706 16.7671H8.60091C9.00578 16.7671 9.33398 16.4389 9.33398 16.034C9.33398 15.6292 9.00578 15.3009 8.60091 15.3009L7.1556 15.3003L5.73372 15.2996C4.77655 15.2995 4.00065 14.5238 4.00065 13.5666C4.00079 12.6095 4.77664 11.8336 5.73372 11.8335H6.45018C8.06823 11.8335 9.55108 11.0329 10.8327 10.0453C12.6322 8.65862 14.8864 7.8335 17.334 7.8335Z" fill="#8C97C8"/>
<g style="mix-blend-mode:multiply">
<path d="M16 18.383V13.1668C16 12.4304 16.597 11.8335 17.3333 11.8335C18.0697 11.8335 18.6667 12.4304 18.6667 13.1668V18.383L22.0885 20.7345L22.1966 20.8179C22.7121 21.2549 22.8233 22.0198 22.4323 22.5887C22.0412 23.1576 21.2868 23.3287 20.694 23.0041L20.5781 22.9325L17.1562 20.5796C16.478 20.1133 16.0555 19.3625 16.0052 18.547L16 18.383Z" fill="#5B658C"/>
</g>
</g>
</svg>
