<svg width="24" height="24" viewBox="0 0 24 24" fill="none" xmlns="http://www.w3.org/2000/svg">
<g clip-path="url(#clip0_97_8968)">
<g style="mix-blend-mode:multiply">
<g clip-path="url(#clip1_97_8968)">
<path d="M10.5821 5.42959C10.1956 5.04615 10 4.57278 10 4C10 3.42959 10.1956 2.95148 10.5821 2.57041C10.9662 2.18935 11.4063 2 11.9697 2C12.5332 2 13.0105 2.18935 13.4063 2.57041C13.8021 2.95148 14 3.42722 14 4C14 4.57278 13.8021 5.04615 13.4063 5.42959C13.0105 5.81065 12.5122 6 11.9697 6C11.4272 6 10.9662 5.81065 10.5821 5.42959Z" fill="white"/>
<path d="M12 16C13.1045 16 13.9999 16.8955 14 18V20H10V18C10.0001 16.8955 10.8955 16 12 16Z" fill="#FA967C"/>
<path d="M14 7C16.2091 7 17.9999 8.79097 18 11V16C18 17.8638 16.7252 19.43 15 19.874V18C14.9999 16.3433 13.6568 15 12 15C10.3432 15 9.00013 16.3433 9 18V19.874C7.2748 19.43 6 17.8638 6 16V11C6.00013 8.79097 7.79094 7 10 7H14Z" fill="#FA967C"/>
<path d="M10 18C10 16.8954 10.8954 16 12 16C13.1046 16 14 16.8954 14 18V21C14 22.1046 13.1046 23 12 23C10.8954 23 10 22.1046 10 21V18Z" fill="#D9D9D9"/>
<path d="M10 18C10 16.8954 10.8954 16 12 16C13.1046 16 14 16.8954 14 18V21C14 22.1046 13.1046 23 12 23C10.8954 23 10 22.1046 10 21V18Z" fill="#D63D4A"/>
<circle cx="9" cy="11" r="1" fill="white"/>
<circle cx="15" cy="11" r="1" fill="white"/>
<path d="M13.4004 5C13.4004 4.63488 13.2953 4.34617 13.0859 4.10352L12.9902 4.00293C12.7095 3.73265 12.3826 3.59961 11.9697 3.59961C11.5675 3.59961 11.2786 3.72469 11.0049 3.99609L11.0029 3.99805C10.7366 4.26077 10.5996 4.58236 10.5996 5C10.5996 5.41872 10.7361 5.73721 11.0049 6.00391L11.1084 6.09766C11.3546 6.30232 11.633 6.40039 11.9697 6.40039C12.3155 6.40039 12.6245 6.29719 12.8828 6.0918L12.9902 5.99707C13.2644 5.73082 13.4004 5.41521 13.4004 5ZM14.5996 5C14.5996 5.72944 14.3405 6.3601 13.8242 6.86035L13.8223 6.8623C13.3092 7.35614 12.6594 7.59961 11.9697 7.59961C11.3572 7.59961 10.8114 7.40754 10.3516 7.0293L10.1592 6.85547C9.65514 6.35533 9.40039 5.72675 9.40039 5C9.40039 4.27774 9.65373 3.64364 10.1592 3.14453L10.3496 2.97168C10.8039 2.59446 11.3357 2.40039 11.9697 2.40039C12.6836 2.40039 13.3114 2.64605 13.8223 3.1377L14.0049 3.33203C14.4016 3.79773 14.5996 4.36273 14.5996 5Z" fill="#D63D4A"/>
<path d="M19 4L19.1025 4.00488C19.6067 4.05621 20 4.48232 20 5C20 5.51768 19.6067 5.94379 19.1025 5.99512L19 6H5C4.44772 6 4 5.55228 4 5C4 4.44772 4.44772 4 5 4H19Z" fill="#D63D4A"/>
<circle cx="12" cy="5" r="1.5" fill="white"/>
</g>
</g>
</g>
<defs>
<clipPath id="clip0_97_8968">
<rect width="24" height="24" fill="white"/>
</clipPath>
<clipPath id="clip1_97_8968">
<rect width="16" height="21" fill="white" transform="translate(4 2)"/>
</clipPath>
</defs>
</svg>
