<svg width="32" height="32" viewBox="0 0 32 32" fill="none" xmlns="http://www.w3.org/2000/svg">
<g style="mix-blend-mode:multiply">
<path d="M25.798 6.00015L6.20218 6C4.24961 6 2.66675 7.54328 2.66675 9.44702V22.5528C2.66675 24.4566 4.24961 25.9999 6.20218 25.9999L25.798 26C27.7505 26 29.3334 24.4567 29.3334 22.553V9.44717C29.3334 7.54343 27.7505 6.00015 25.798 6.00015Z" fill="#8C97C8"/>
<g style="mix-blend-mode:multiply">
<path d="M6.11379 6L25.8864 6C27.7895 6 29.3334 7.54389 29.3334 9.44702V11.2956H2.66675V9.44702C2.66675 7.54389 4.21065 6 6.11379 6Z" fill="#5B658C"/>
</g>
<path d="M13.9236 8.67629C13.9236 9.2344 13.4632 9.6856 12.8937 9.6856C12.3242 9.6856 11.8638 9.2344 11.8638 8.67629C11.8638 8.11818 12.3264 7.66699 12.8937 7.66699C13.461 7.66699 13.9236 8.12032 13.9236 8.67629Z" fill="#8C97C8"/>
<path d="M9.66199 9.6856C10.2308 9.6856 10.6919 9.23372 10.6919 8.67629C10.6919 8.11887 10.2308 7.66699 9.66199 7.66699C9.09319 7.66699 8.63208 8.11887 8.63208 8.67629C8.63208 9.23372 9.09319 9.6856 9.66199 9.6856Z" fill="#8C97C8"/>
<path d="M6.43762 9.68559C7.00642 9.68559 7.46753 9.23371 7.46753 8.67629C7.46753 8.11887 7.00642 7.66699 6.43762 7.66699C5.86882 7.66699 5.40771 8.11887 5.40771 8.67629C5.40771 9.23371 5.86882 9.68559 6.43762 9.68559Z" fill="#8C97C8"/>
<path d="M16.2573 13.4668C13.7034 13.4668 11.9185 15.3864 11.9185 18.1335C11.9185 20.8807 13.6931 22.5334 16.4399 22.5334C17.839 22.5334 18.7932 22.2494 19.3462 22.0119C19.5956 21.9041 19.7319 21.6422 19.6676 21.3875L19.4182 20.3935C19.3796 20.2368 19.269 20.1045 19.1198 20.0335C18.9707 19.9601 18.7932 19.9552 18.6363 20.0188C18.1836 20.2025 17.6281 20.3714 16.6379 20.3714C15.9255 20.3714 14.781 20.1535 14.5135 18.8093H19.5236C19.8168 18.8093 20.0611 18.6012 20.092 18.3245L20.0997 18.2609C20.1177 18.114 20.146 17.8911 20.146 17.6169C20.146 15.5529 18.9424 13.4717 16.2547 13.4717L16.2573 13.4668ZM16.1415 15.5529C16.5659 15.5529 16.8874 15.6655 17.124 15.8957C17.3658 16.1307 17.4841 16.4466 17.5407 16.7208H14.6215C14.8144 16.2042 15.2362 15.5529 16.139 15.5529H16.1415Z" fill="white"/>
</g>
</svg>
