<svg width="32" height="32" viewBox="0 0 32 32" fill="none" xmlns="http://www.w3.org/2000/svg">
<path d="M5.93943 19.1804C6.36109 18.0598 7.32852 17.3333 8.39894 17.3333H23.6011C24.6715 17.3333 25.6389 18.0598 26.0606 19.1804L27.7808 23.7518C28.5375 25.7628 27.2423 27.9999 25.3213 27.9999H6.67874C4.7577 27.9999 3.4625 25.7628 4.21924 23.7518L5.93943 19.1804Z" fill="#FA967C"/>
<g style="mix-blend-mode:multiply">
<path d="M16.0605 4C20.4376 4.06514 24.0007 7.34684 23.9961 11.3145C23.9961 14.3532 21.7974 17.3224 19.6328 19.5146C19.2257 19.9271 18.8235 20.3095 18.4355 20.6611C17.7265 21.3039 17.0679 21.842 16.5518 22.2432C16.2229 22.4988 15.7644 22.4988 15.4355 22.2432C14.9198 21.8423 14.2613 21.3052 13.5527 20.6631L13.5537 20.6611V20.6592C13.1617 20.3081 12.7647 19.9263 12.3584 19.5146C10.1939 17.3181 7.99609 14.3531 7.99609 11.3145C7.99626 7.34693 11.5588 4.06528 15.9404 4H16.0605ZM13.3311 14.6133H15.0391V11.7881L17.0068 14.6133H18.6377V9.33301H16.9287V12.1592L14.9629 9.33301H13.3311V14.6133Z" fill="#D63D4A"/>
</g>
</svg>
