<svg width="21" height="20" viewBox="0 0 21 20" fill="none" xmlns="http://www.w3.org/2000/svg">
<path d="M17.3321 10.1966C17.3321 9.77471 17.1714 9.35013 16.7128 8.74887C16.3598 8.28622 15.8676 7.76524 15.2121 7.10255L14.5017 6.38965L13.1288 5.01758C12.5405 4.42935 12.1321 4.02119 11.7787 3.72934C11.4363 3.44657 11.1842 3.30608 10.9266 3.2321V3.23129C10.6691 3.15774 10.381 3.1438 9.94112 3.20199C9.48666 3.26211 8.92352 3.39102 8.11251 3.57797L8.11332 3.57878L7.1921 3.79118H7.19128C6.5058 3.94917 6.04146 4.0575 5.68819 4.17855C5.34978 4.29453 5.16962 4.40481 5.03715 4.53744C4.90413 4.67067 4.79355 4.85163 4.67745 5.19011C4.6169 5.36664 4.55946 5.57091 4.4976 5.81674L4.29008 6.6932L4.07768 7.61361V7.61443C3.89037 8.42493 3.76098 8.98788 3.70089 9.44223C3.64267 9.8824 3.6579 10.1703 3.73181 10.4277V10.4286L3.76273 10.5246C3.84271 10.75 3.98077 10.9808 4.22823 11.2806C4.51997 11.634 4.92756 12.043 5.51566 12.6315L6.88855 14.0036L7.60144 14.714C8.26378 15.3689 8.78431 15.861 9.24695 16.2139C9.84834 16.6726 10.2729 16.8331 10.6947 16.8332C11.117 16.8332 11.5419 16.6727 12.1433 16.2139C12.7602 15.7432 13.4804 15.0249 14.5025 14.0028C15.5241 12.9812 16.2422 12.2612 16.7128 11.6444C17.1713 11.0433 17.332 10.6188 17.3321 10.1966ZM18.6651 10.1966C18.665 11.0275 18.3217 11.7333 17.7723 12.4533C17.2347 13.158 16.4399 13.9509 15.4449 14.946C14.4496 15.9412 13.6569 16.7358 12.9522 17.2734C12.232 17.8229 11.5257 18.167 10.6947 18.167C9.86424 18.1669 9.15806 17.8235 8.43803 17.2743C7.90948 16.8711 7.33154 16.3232 6.6558 15.6548L5.94535 14.9468L4.57328 13.5739C4.0029 13.0031 3.54117 12.5425 3.19958 12.1286C2.89281 11.7568 2.65759 11.3936 2.50867 10.9771L2.45007 10.7956C2.30809 10.3009 2.30702 9.81351 2.37927 9.26726C2.44967 8.73503 2.59718 8.10024 2.77885 7.31413L2.99044 6.39372L3.20447 5.49122C3.27319 5.2187 3.34161 4.97419 3.41605 4.75717C3.5699 4.30869 3.76659 3.92306 4.09314 3.59587C4.4204 3.26807 4.8073 3.07095 5.25606 2.91716C5.68999 2.76847 6.23363 2.64405 6.8918 2.49236L7.81221 2.27914H7.81303L8.88481 2.03825C9.20837 1.96998 9.50012 1.91557 9.76615 1.88038C10.3121 1.80815 10.7992 1.80893 11.2937 1.95036H11.2945L11.4768 2.00896C11.8929 2.15819 12.2559 2.39392 12.6275 2.70069C13.0413 3.04238 13.5016 3.50397 14.072 4.07439L15.4449 5.44727H15.444C16.4398 6.44268 17.2347 7.23527 17.7723 7.93995C18.3217 8.66008 18.6651 9.36607 18.6651 10.1966Z" fill="#33363D"/>
<path d="M8.54355 7.06992C8.2181 6.74461 7.69044 6.74452 7.36504 7.06992C7.03976 7.39533 7.03976 7.92303 7.36504 8.24844C7.69044 8.57384 8.2181 8.57375 8.54355 8.24844C8.86899 7.92299 8.86899 7.39537 8.54355 7.06992ZM9.4867 6.12677C10.3328 6.97291 10.3328 8.34545 9.4867 9.19159C8.64055 10.0376 7.26856 10.0371 6.42246 9.19101C5.57648 8.3449 5.57648 6.97345 6.42246 6.12735C7.26856 5.28125 8.64055 5.28075 9.4867 6.12677Z" fill="#33363D"/>
<path d="M14.2499 9.99991C14.5103 9.73962 14.932 9.73961 15.1923 9.99991C15.4526 10.2602 15.4526 10.682 15.1923 10.9423L11.4423 14.6923C11.182 14.9525 10.7603 14.9525 10.4999 14.6923C10.2396 14.432 10.2396 14.0103 10.4999 13.7499L14.2499 9.99991Z" fill="#33363D"/>
</svg>
