<svg width="32" height="33" viewBox="0 0 32 33" fill="none" xmlns="http://www.w3.org/2000/svg">
<g style="mix-blend-mode:multiply">
<path fill-rule="evenodd" clip-rule="evenodd" d="M10.2202 5.1665C9.78514 5.16666 9.35786 5.29103 8.98163 5.52703C8.6054 5.76302 8.2936 6.10226 8.07782 6.51036L3.65978 14.8628C3.44632 15.2659 3.33401 15.7222 3.33398 16.1866V22.1833C3.33401 22.5971 3.42316 23.0051 3.59438 23.3752L4.97409 26.3562C5.17902 26.7992 5.49412 27.1719 5.88407 27.4323C6.27402 27.6927 6.72341 27.8307 7.18187 27.8307H8.27033C8.92493 27.8307 9.55272 27.5498 10.0156 27.0497C10.4785 26.5497 10.7385 25.8715 10.7385 25.1643H20.6112C20.6112 25.8715 20.8712 26.5497 21.3341 27.0497C21.797 27.5498 22.4248 27.8307 23.0794 27.8307H24.1678C24.6263 27.8307 25.0757 27.6927 25.4656 27.4323C25.8556 27.1719 26.1707 26.7992 26.3756 26.3562L27.7553 23.3752C27.9269 23.0059 28.0157 22.5966 28.0157 22.1833V16.1866C28.0157 15.7222 27.9034 15.2659 27.6899 14.8628L23.2719 6.51036C23.0561 6.10226 22.7443 5.76302 22.3681 5.52703C21.9919 5.29103 21.5646 5.16666 21.1295 5.1665H10.2202Z" fill="#8C97C8"/>
<g style="mix-blend-mode:multiply">
<path d="M5.87718 27.4348C5.48723 27.1743 5.17213 26.8017 4.9672 26.3587L4.27734 24.8682H27.0586L26.3687 26.3587C26.1638 26.8017 25.8487 27.1743 25.4588 27.4348C25.0688 27.6952 24.6194 27.8332 24.161 27.8332H23.0725C22.4179 27.8332 21.7901 27.5523 21.3272 27.0522C20.8644 26.5522 20.6043 25.874 20.6043 25.1668H10.7316C10.7316 25.874 10.4716 26.5522 10.0087 27.0522C9.54584 27.5523 8.91805 27.8332 8.26345 27.8332H7.17498C6.71653 27.8332 6.26713 27.6952 5.87718 27.4348Z" fill="#5B658C"/>
</g>
<g style="mix-blend-mode:multiply">
<path d="M7.26568 13.5062L9.53274 8.40526C9.66919 8.09825 9.97365 7.90039 10.3096 7.90039H21.2956C21.6316 7.90039 21.9361 8.09825 22.0725 8.40526L24.3396 13.5062C24.5895 14.0684 24.1779 14.7016 23.5627 14.7016H8.04255C7.42733 14.7016 7.01581 14.0684 7.26568 13.5062Z" fill="#5B658C"/>
</g>
<ellipse cx="9.56749" cy="19.9015" rx="1.7003" ry="1.7003" fill="white"/>
<circle cx="22.0362" cy="19.9015" r="1.7003" fill="white"/>
<g style="mix-blend-mode:multiply">
<ellipse cx="23.3333" cy="9.16683" rx="5.33333" ry="5.33333" fill="#5B658C"/>
</g>
<path d="M26.6008 11.4401L26.0022 10.8415C25.9648 10.8041 25.9149 10.7833 25.8619 10.7823L25.6873 10.7802L25.6416 10.5537C25.6239 10.4674 25.5532 10.403 25.4649 10.3926L25.2778 10.3718L25.2435 10.138C25.2373 10.0954 25.2165 10.0549 25.1864 10.0237L24.6055 9.44276L24.8102 9.23803C24.9162 9.13203 24.9505 8.96888 24.9037 8.80261C24.7271 8.17804 24.3259 7.53061 23.7762 6.98087C23.2254 6.43217 22.579 6.03103 21.9534 5.85437C21.7861 5.80656 21.6229 5.8419 21.518 5.9479L20.114 7.35187C20.008 7.45787 19.9737 7.61998 20.0205 7.7873C20.1971 8.41186 20.5983 9.05929 21.148 9.60903C21.6978 10.1588 22.3452 10.5599 22.9698 10.7366C23.0186 10.7501 23.0674 10.7574 23.1142 10.7574C23.2275 10.7574 23.3304 10.7179 23.4052 10.643L23.6099 10.4383L24.1908 11.0192C24.221 11.0504 24.2615 11.0702 24.3051 11.0764L24.539 11.1107L24.5597 11.2977C24.5691 11.3861 24.6335 11.4567 24.7208 11.4744L24.9474 11.5201L24.9494 11.6937C24.9494 11.7467 24.9713 11.7966 25.0087 11.835L25.6073 12.4336C25.6499 12.4762 25.7081 12.5001 25.7673 12.5001C25.7798 12.5001 25.7933 12.4991 25.8058 12.497L26.3067 12.4149C26.448 12.391 26.5581 12.2808 26.582 12.1395L26.6641 11.6396C26.6766 11.5669 26.6538 11.4921 26.6008 11.4401Z" fill="white"/>
</g>
</svg>
