<svg width="22" height="18" viewBox="0 0 22 18" fill="none" xmlns="http://www.w3.org/2000/svg">
<path d="M2.73198 11.1239C3.86502 11.1239 4.78354 10.2054 4.78354 9.07231C4.78354 7.93927 3.86502 7.02075 2.73198 7.02075C1.59893 7.02075 0.68042 7.93927 0.68042 9.07231C0.68042 10.2054 1.59893 11.1239 2.73198 11.1239Z" fill="#FA967C"/>
<path d="M19.2682 11.1239C20.4013 11.1239 21.3198 10.2054 21.3198 9.07231C21.3198 7.93927 20.4013 7.02075 19.2682 7.02075C18.1352 7.02075 17.2167 7.93927 17.2167 9.07231C17.2167 10.2054 18.1352 11.1239 19.2682 11.1239Z" fill="#FA967C"/>
<path d="M11.0002 17.3023C15.5454 17.3023 19.2301 13.6177 19.2301 9.07243C19.2301 4.52718 15.5454 0.842529 11.0002 0.842529C6.45492 0.842529 2.77026 4.52718 2.77026 9.07243C2.77026 13.6177 6.45492 17.3023 11.0002 17.3023Z" fill="#FA967C"/>
<ellipse cx="16.6599" cy="11.022" rx="1.47119" ry="1.02983" fill="white"/>
<ellipse cx="5.40954" cy="11.022" rx="1.47119" ry="1.02983" fill="white"/>
<path d="M8.69137 9.58286C9.09188 9.58286 9.41656 9.21148 9.41656 8.75335C9.41656 8.29522 9.09188 7.92383 8.69137 7.92383C8.29086 7.92383 7.96619 8.29522 7.96619 8.75335C7.96619 9.21148 8.29086 9.58286 8.69137 9.58286Z" fill="#D63D4A"/>
<path d="M14.0342 8.75335C14.0342 9.21172 13.7093 9.58286 13.309 9.58286C12.9088 9.58286 12.5839 9.21172 12.5839 8.75335C12.5839 8.29497 12.9088 7.92383 13.309 7.92383C13.7093 7.92383 14.0342 8.29497 14.0342 8.75335Z" fill="#D63D4A"/>
<path d="M2.84497 8.33919C2.84497 8.33919 6.25089 6.94114 8.31155 3.36047C8.31155 3.36047 8.48994 5.10803 7.86374 6.4187H14.1367C14.1367 6.4187 14.3151 5.28278 13.8673 3.27309C13.8673 3.27309 15.7496 6.50607 19.1537 7.81492C19.1537 7.81492 19.2429 0.302246 11.0894 0.302246C2.93599 0.302246 2.84497 6.76639 2.84497 8.33919Z" fill="#D63D4A"/>
<path d="M8.61926 10.7356C8.61926 12.0509 9.68481 13.1164 11.0001 13.1164C12.3153 13.1164 13.3809 12.0509 13.3809 10.7356H8.62097H8.61926Z" fill="#D63D4A"/>
</svg>
