<svg width="24" height="24" viewBox="0 0 24 24" fill="none" xmlns="http://www.w3.org/2000/svg">
<path d="M3.73198 14.1239C4.86502 14.1239 5.78354 13.2054 5.78354 12.0723C5.78354 10.9393 4.86502 10.0208 3.73198 10.0208C2.59893 10.0208 1.68042 10.9393 1.68042 12.0723C1.68042 13.2054 2.59893 14.1239 3.73198 14.1239Z" fill="#FA967C"/>
<path d="M20.2684 14.1239C21.4014 14.1239 22.3199 13.2054 22.3199 12.0723C22.3199 10.9393 21.4014 10.0208 20.2684 10.0208C19.1353 10.0208 18.2168 10.9393 18.2168 12.0723C18.2168 13.2054 19.1353 14.1239 20.2684 14.1239Z" fill="#FA967C"/>
<path d="M12.0002 20.3023C16.5454 20.3023 20.2301 16.6177 20.2301 12.0724C20.2301 7.52718 16.5454 3.84253 12.0002 3.84253C7.45492 3.84253 3.77026 7.52718 3.77026 12.0724C3.77026 16.6177 7.45492 20.3023 12.0002 20.3023Z" fill="#FA967C"/>
<ellipse cx="17.6599" cy="14.022" rx="1.47119" ry="1.02983" fill="white"/>
<ellipse cx="6.40942" cy="14.022" rx="1.47119" ry="1.02983" fill="white"/>
<path d="M9.69149 12.5829C10.092 12.5829 10.4167 12.2115 10.4167 11.7533C10.4167 11.2952 10.092 10.9238 9.69149 10.9238C9.29099 10.9238 8.96631 11.2952 8.96631 11.7533C8.96631 12.2115 9.29099 12.5829 9.69149 12.5829Z" fill="#D63D4A"/>
<path d="M15.0344 11.7533C15.0344 12.2117 14.7094 12.5829 14.3092 12.5829C13.909 12.5829 13.584 12.2117 13.584 11.7533C13.584 11.295 13.909 10.9238 14.3092 10.9238C14.7094 10.9238 15.0344 11.295 15.0344 11.7533Z" fill="#D63D4A"/>
<path d="M3.84497 11.3392C3.84497 11.3392 7.25089 9.94114 9.31155 6.36047C9.31155 6.36047 9.48994 8.10803 8.86374 9.4187H15.1367C15.1367 9.4187 15.3151 8.28278 14.8673 6.27309C14.8673 6.27309 16.7496 9.50607 20.1537 10.8149C20.1537 10.8149 20.2429 3.30225 12.0894 3.30225C3.93599 3.30225 3.84497 9.76639 3.84497 11.3392Z" fill="#D63D4A"/>
<path d="M9.61914 13.7356C9.61914 15.0509 10.6847 16.1164 11.9999 16.1164C13.3152 16.1164 14.3807 15.0509 14.3807 13.7356H9.62085H9.61914Z" fill="#D63D4A"/>
</svg>
