<svg width="24" height="24" viewBox="0 0 24 24" fill="none" xmlns="http://www.w3.org/2000/svg">
<g style="mix-blend-mode:multiply">
<path fill-rule="evenodd" clip-rule="evenodd" d="M12.0017 2.50293C17.248 2.50293 21.5015 6.75576 21.5017 12.002C21.5017 12.8584 21.3877 13.6883 21.1746 14.4775C21.1537 14.5549 21.1255 14.6285 21.0935 14.6992C21.0833 14.7489 21.0731 14.7994 21.0574 14.8496C20.4081 16.9184 19.0705 18.6828 17.3123 19.873C17.04 20.0574 16.7143 20.1435 16.3855 20.1436H7.60425C7.27542 20.1436 6.94986 20.0573 6.67749 19.873C4.91868 18.6828 3.58094 16.9187 2.9314 14.8496C2.90843 14.7765 2.89186 14.7038 2.88062 14.6318C2.86107 14.582 2.84412 14.5305 2.82983 14.4775C2.617 13.6883 2.50269 12.8583 2.50269 12.002C2.50287 6.75587 6.75563 2.50312 12.0017 2.50293ZM17.8826 12.002C17.8826 11.8169 17.681 11.708 17.5193 11.7979L15.6697 12.8252C15.5618 12.8851 15.4847 12.987 15.447 13.1045C14.9796 14.562 13.6135 15.6172 12.0007 15.6172C10.3884 15.6171 9.02214 14.5625 8.55444 13.1055C8.51672 12.988 8.43965 12.8861 8.33179 12.8262L6.48218 11.7988C6.32164 11.7097 6.12183 11.8183 6.12183 12.002C6.12187 12.3275 6.1489 12.6469 6.19995 12.958C6.2228 13.0973 6.23045 13.2408 6.22729 13.3857C6.28012 13.4708 6.32436 13.5628 6.35327 13.6611C7.07013 16.0996 9.32435 17.8797 11.9949 17.8799C14.6654 17.8796 16.9206 16.0997 17.6375 13.6611C17.6692 13.5531 17.7158 13.451 17.7761 13.3594C17.7747 13.2241 17.7831 13.0902 17.8044 12.96C17.8556 12.6484 17.8825 12.3281 17.8826 12.002ZM12.0027 6.12109C9.68966 6.12109 7.68772 7.45648 6.72729 9.39844C6.58949 9.67721 6.80208 9.98792 7.11304 9.99316L8.71753 10.0205C8.87294 10.0231 9.01732 9.94427 9.11108 9.82031C9.77158 8.94557 10.8201 8.37994 12.0007 8.37988C13.1812 8.37988 14.2289 8.94575 14.8894 9.82031C14.9832 9.94427 15.1276 10.0231 15.283 10.0205L16.8904 9.99316C17.2013 9.98793 17.4139 9.67722 17.2761 9.39844C16.316 7.45678 14.3153 6.12131 12.0027 6.12109Z" fill="white"/>
<path d="M5.41151 12.9043C5.85784 12.9043 6.23013 13.2327 6.35601 13.6609C7.07287 16.0995 9.32708 17.8798 11.9977 17.8799C14.6682 17.8795 16.9227 16.0994 17.6395 13.661C17.7654 13.2327 18.1377 12.9043 18.584 12.9043H20.4568C20.99 12.9043 21.4112 13.3649 21.3059 13.8876C20.431 18.2299 16.5959 21.4998 11.9958 21.5C7.39558 21.4999 3.56057 18.23 2.68567 13.8876C2.58036 13.3649 3.00157 12.9043 3.5348 12.9043H5.41151Z" fill="#D63D4A"/>
<g style="mix-blend-mode:multiply">
<path fill-rule="evenodd" clip-rule="evenodd" d="M12.0005 2.5C17.2471 2.50022 21.5 6.7539 21.5 12.0005C21.5 12.8567 21.3859 13.6861 21.1732 14.475C20.9824 15.1824 20.3063 15.6209 19.5737 15.6211C18.3793 15.6211 17.6099 14.1344 17.8035 12.9557C17.8548 12.6439 17.8816 12.3237 17.8816 11.9974C17.8815 11.8139 17.6825 11.706 17.522 11.7949L15.6675 12.8229C15.5597 12.8828 15.4827 12.9849 15.445 13.1023C15.164 13.9795 14.5566 14.7088 13.7665 15.1519C13.5122 15.2945 13.369 15.5935 13.465 15.8688L13.8582 16.9959C13.9577 17.2812 14.2733 17.4312 14.5457 17.3006C14.6451 17.2529 14.7425 17.2008 14.8388 17.1477C13.9964 17.6141 13.0285 17.8815 11.9974 17.8816C11.0525 17.8815 10.1608 17.6567 9.36999 17.2606C9.63954 17.3846 9.95019 17.2369 10.049 16.9537L10.4443 15.8203C10.5385 15.5504 10.4025 15.2575 10.1565 15.1118C9.40223 14.665 8.82407 13.9523 8.55183 13.1023C8.51416 12.9849 8.43713 12.8828 8.32937 12.8229L6.47692 11.7949C6.31698 11.7065 6.11951 11.8145 6.1195 11.9974C6.1195 12.3234 6.14642 12.6432 6.19752 12.9547C6.39091 14.1337 5.62102 15.6211 4.42625 15.6211C3.69367 15.6209 3.01761 15.1824 2.82684 14.475C2.61409 13.6861 2.50004 12.8567 2.5 12.0005C2.5 6.75376 6.75376 2.5 12.0005 2.5ZM12.0005 6.11634C9.68679 6.11634 7.68479 7.45245 6.72468 9.39529C6.58691 9.67409 6.79962 9.98466 7.11057 9.98993L8.7163 10.0173C8.87177 10.02 9.01579 9.94104 9.10957 9.81702C9.77021 8.94317 10.8185 8.37894 11.9984 8.37892C13.1782 8.37892 14.2256 8.94336 14.8862 9.81702C14.98 9.94103 15.124 10.02 15.2795 10.0173L16.8894 9.98993C17.2004 9.98467 17.4131 9.67411 17.2753 9.39529C16.3152 7.45266 14.314 6.11647 12.0005 6.11634Z" fill="#FA967C"/>
<path d="M4.38092 17.6791C4.37344 17.6691 4.36516 17.6596 4.35772 17.6496C4.35516 17.6461 4.3528 17.6425 4.35034 17.6391C4.36032 17.6526 4.37087 17.6657 4.38092 17.6791Z" fill="#FA967C"/>
<path d="M19.6328 17.6496C19.6252 17.6598 19.6161 17.6689 19.6085 17.6791C19.6186 17.6657 19.6291 17.6526 19.6391 17.6391C19.6368 17.6424 19.6352 17.6463 19.6328 17.6496Z" fill="#FA967C"/>
</g>
<path d="M10.2 12.0094C10.2 11.01 11.01 10.2 12.0094 10.2C13.0087 10.2 13.8188 11.01 13.8188 12.0094C13.8188 13.0087 13.0087 13.8188 12.0094 13.8188C11.01 13.8188 10.2 13.0087 10.2 12.0094Z" fill="white"/>
</g>
</svg>
