<svg width="32" height="32" viewBox="0 0 32 32" fill="none" xmlns="http://www.w3.org/2000/svg">
<path d="M26.667 21.5234C27.6901 21.5234 28.5185 22.3761 28.5186 23.4284C28.5186 24.4808 27.6901 25.3333 26.667 25.3333H4.51855C3.49554 25.3332 2.66699 24.4807 2.66699 23.4284C2.66709 22.3762 3.4956 21.5236 4.51855 21.5234H26.667Z" fill="#FA967C"/>
<path d="M17.4818 4.66406C18.301 4.66422 18.9633 5.34491 18.9635 6.1875V7.33073H18.9596V16.4102C18.9596 16.9183 19.3721 17.3307 19.8802 17.3307C20.3267 17.3306 20.6977 17.0119 20.7813 16.5898C20.7869 16.585 20.7939 16.5818 20.7995 16.5768V6.66406C20.7995 6.66406 21.107 6.80242 21.5091 6.99609C22.0251 7.21616 22.5174 7.47747 22.9831 7.77604C23.1269 7.86595 23.2618 7.95851 23.3854 8.04818C26.102 9.98067 27.8144 13.2232 27.8516 16.8542V19.9023H4.14844V16.8542C4.14855 13.4631 5.62048 10.4435 8 8.49089V8.46354C8.00154 8.45382 8.04613 8.30046 9.33333 7.55729C10.6666 6.78751 11.2005 6.66406 11.2005 6.66406V16.5768C11.2058 16.5815 11.212 16.5852 11.2174 16.5898C11.3009 17.012 11.6732 17.3306 12.1198 17.3307C12.6279 17.3307 13.0404 16.9182 13.0404 16.4102V7.33073H13.0365V6.1875C13.0367 5.34491 13.699 4.66422 14.5182 4.66406H17.4818Z" fill="#FA967C"/>
<g clip-path="url(#clip0_2353_51419)">
<g style="mix-blend-mode:multiply">
<circle cx="23.6673" cy="21.3333" r="5.33333" fill="#D63D4A"/>
</g>
<path d="M26.3402 19.2957C26.5806 19.1452 26.9014 19.1788 27.1045 19.392C27.3076 19.6055 27.3252 19.9276 27.1631 20.1603L27.0837 20.254L23.8793 23.3022C23.7619 23.4137 23.6049 23.4745 23.4431 23.4702C23.2811 23.4658 23.1272 23.3966 23.016 23.2788L20.8858 21.0196L20.8116 20.922C20.6624 20.681 20.6976 20.3611 20.9118 20.159C21.1262 19.9568 21.4481 19.9398 21.6801 20.103L21.7738 20.1837L23.4822 21.9962L26.2426 19.3712L26.3402 19.2957Z" fill="white"/>
</g>
<defs>
<clipPath id="clip0_2353_51419">
<path d="M18.667 21.3333C18.667 18.3878 21.0548 16 24.0003 16C26.9458 16 29.3337 18.3878 29.3337 21.3333C29.3337 24.2789 26.9458 26.6667 24.0003 26.6667C21.0548 26.6667 18.667 24.2789 18.667 21.3333Z" fill="white"/>
</clipPath>
</defs>
</svg>
