<svg width="32" height="32" viewBox="0 0 32 32" fill="none" xmlns="http://www.w3.org/2000/svg">
<g style="mix-blend-mode:multiply">
<path d="M6.66675 6.66667C6.66675 5.19391 7.86066 4 9.33341 4H22.6667C24.1395 4 25.3334 5.19391 25.3334 6.66667V26.6667C25.3334 28.1394 24.1395 29.3333 22.6667 29.3333H9.33341C7.86066 29.3333 6.66675 28.1394 6.66675 26.6667V6.66667Z" fill="#8C97C8"/>
<g style="mix-blend-mode:multiply">
<path d="M6.66675 22.6665H25.3334V26.6665C25.3334 28.1393 24.1395 29.3332 22.6667 29.3332H9.33341C7.86066 29.3332 6.66675 28.1393 6.66675 26.6665V22.6665Z" fill="#5B658C"/>
</g>
<path d="M16.0001 27.3332C16.7365 27.3332 17.3334 26.7362 17.3334 25.9998C17.3334 25.2635 16.7365 24.6665 16.0001 24.6665C15.2637 24.6665 14.6667 25.2635 14.6667 25.9998C14.6667 26.7362 15.2637 27.3332 16.0001 27.3332Z" fill="#8C97C8"/>
<path fill-rule="evenodd" clip-rule="evenodd" d="M20.449 10.9422C20.8858 11.3374 20.9195 12.012 20.5243 12.4488L16.3021 17.1155C16.1007 17.3381 15.8148 17.4655 15.5146 17.4665C15.2144 17.4675 14.9277 17.3419 14.7248 17.1206L12.2804 14.454C11.8823 14.0197 11.9116 13.345 12.3459 12.9469C12.7802 12.5488 13.4549 12.5781 13.853 13.0124L15.506 14.8157L18.9424 11.0175C19.3376 10.5807 20.0121 10.547 20.449 10.9422Z" fill="#5B658C"/>
</g>
</svg>
