<svg width="32" height="32" viewBox="0 0 32 32" fill="none" xmlns="http://www.w3.org/2000/svg">
<g clip-path="url(#clip0_19599_259415)">
<g style="mix-blend-mode:multiply">
<path d="M6.66797 6.66667C6.66797 5.19391 7.86188 4 9.33464 4H22.668C24.1407 4 25.3346 5.19391 25.3346 6.66667V26.6667C25.3346 28.1394 24.1407 29.3333 22.668 29.3333H9.33464C7.86188 29.3333 6.66797 28.1394 6.66797 26.6667V6.66667Z" fill="#FBB4C1"/>
<g style="mix-blend-mode:multiply">
<path d="M6.66797 22.6666H25.3346V26.6666C25.3346 28.1394 24.1407 29.3333 22.668 29.3333H9.33464C7.86188 29.3333 6.66797 28.1394 6.66797 26.6666V22.6666Z" fill="#D63D4A"/>
</g>
<path d="M16.0013 27.3333C16.7377 27.3333 17.3346 26.7363 17.3346 26C17.3346 25.2636 16.7377 24.6666 16.0013 24.6666C15.2649 24.6666 14.668 25.2636 14.668 26C14.668 26.7363 15.2649 27.3333 16.0013 27.3333Z" fill="#FBB4C1"/>
<path fill-rule="evenodd" clip-rule="evenodd" d="M20.449 10.9423C20.8858 11.3376 20.9195 12.0121 20.5243 12.4489L16.3021 17.1156C16.1007 17.3382 15.8148 17.4657 15.5146 17.4666C15.2144 17.4676 14.9277 17.342 14.7248 17.1207L12.2804 14.4541C11.8823 14.0198 11.9116 13.3451 12.3459 12.947C12.7802 12.5489 13.4549 12.5783 13.853 13.0125L15.506 14.8158L18.9424 11.0177C19.3376 10.5808 20.0121 10.5471 20.449 10.9423Z" fill="#D63D4A"/>
</g>
</g>
<defs>
<clipPath id="clip0_19599_259415">
<rect width="32" height="32" fill="white"/>
</clipPath>
</defs>
</svg>
