<svg width="32" height="33" viewBox="0 0 32 33" fill="none" xmlns="http://www.w3.org/2000/svg">
<g clip-path="url(#clip0_11337_196227)">
<g style="mix-blend-mode:multiply">
<path d="M6.83203 7.33317C6.83203 5.86041 8.02594 4.6665 9.4987 4.6665H22.832C24.3048 4.6665 25.4987 5.86041 25.4987 7.33317V27.3332C25.4987 28.8059 24.3048 29.9998 22.832 29.9998H9.4987C8.02594 29.9998 6.83203 28.8059 6.83203 27.3332V7.33317Z" fill="#8C97C8"/>
<g style="mix-blend-mode:multiply">
<path d="M6.83203 23.333H25.4987V27.333C25.4987 28.8058 24.3048 29.9997 22.832 29.9997H9.4987C8.02594 29.9997 6.83203 28.8058 6.83203 27.333V23.333Z" fill="#5B658C"/>
</g>
<path d="M16.1654 27.9997C16.9017 27.9997 17.4987 27.4027 17.4987 26.6663C17.4987 25.93 16.9017 25.333 16.1654 25.333C15.429 25.333 14.832 25.93 14.832 26.6663C14.832 27.4027 15.429 27.9997 16.1654 27.9997Z" fill="#8C97C8"/>
<path fill-rule="evenodd" clip-rule="evenodd" d="M20.615 11.6087C21.0518 12.0039 21.0856 12.6785 20.6903 13.1153L16.4681 17.782C16.2667 18.0046 15.9808 18.132 15.6806 18.133C15.3804 18.134 15.0937 18.0084 14.8908 17.7871L12.4464 15.1205C12.0483 14.6862 12.0777 14.0115 12.5119 13.6134C12.9462 13.2153 13.6209 13.2446 14.019 13.6789L15.672 15.4822L19.1084 11.684C19.5036 11.2472 20.1782 11.2135 20.615 11.6087Z" fill="#5B658C"/>
</g>
</g>
<defs>
<clipPath id="clip0_11337_196227">
<rect width="32" height="32" fill="white" transform="translate(0.166016 0.666504)"/>
</clipPath>
</defs>
</svg>
