<svg width="24" height="24" viewBox="0 0 24 24" fill="none" xmlns="http://www.w3.org/2000/svg">
<g style="mix-blend-mode:multiply">
<path d="M19.2355 16.5763C19.4405 16.4483 19.7022 16.4866 19.8625 16.6554L19.924 16.7355L22.424 20.7355L22.4689 20.8263C22.55 21.0441 22.4696 21.2959 22.2648 21.4239C22.0598 21.552 21.7981 21.5136 21.6378 21.3448L21.5763 21.2648L19.0763 17.2648L19.0314 17.1739C18.9504 16.9561 19.0307 16.7043 19.2355 16.5763ZM3.60757 16.6905C3.75124 16.508 4.00787 16.4449 4.22379 16.5528C4.43986 16.6609 4.54368 16.9044 4.48355 17.129L4.44742 17.2237L2.44742 21.2237C2.32392 21.4707 2.02351 21.5709 1.77652 21.4474C1.52954 21.3239 1.4294 21.0235 1.55289 20.7765L3.55289 16.7765L3.60757 16.6905Z" fill="#D63D4A"/>
<path fill-rule="evenodd" clip-rule="evenodd" d="M7.66465 3.5C7.33837 3.50011 7.0179 3.59339 6.73573 3.77039C6.45356 3.94739 6.21971 4.20182 6.05787 4.50789L2.74435 10.7722C2.58425 11.0745 2.50002 11.4168 2.5 11.7651V16.2626C2.50002 16.5729 2.56688 16.879 2.69529 17.1565L3.73008 19.3923C3.88377 19.7245 4.1201 20.004 4.41256 20.1993C4.70503 20.3947 5.04207 20.4981 5.38591 20.4981H6.20226C6.69321 20.4981 7.16405 20.2875 7.51121 19.9124C7.85836 19.5374 8.05339 19.0287 8.05339 18.4984H15.4579C15.4579 19.0287 15.6529 19.5374 16.0001 19.9124C16.3473 20.2875 16.8181 20.4981 17.309 20.4981H18.1254C18.4692 20.4981 18.8063 20.3947 19.0987 20.1993C19.3912 20.004 19.6275 19.7245 19.7812 19.3923L20.816 17.1565C20.9447 16.8795 21.0113 16.5726 21.0113 16.2626V11.7651C21.0113 11.4168 20.9271 11.0745 20.767 10.7722L17.4534 4.50789C17.2916 4.20182 17.0577 3.94739 16.7756 3.77039C16.4934 3.59339 16.1729 3.50011 15.8467 3.5H7.66465Z" fill="#FA967C"/>
<g style="mix-blend-mode:multiply">
<path d="M4.40764 20.2013C4.11518 20.006 3.87885 19.7265 3.72515 19.3942L3.20776 18.2764H20.2937L19.7763 19.3942C19.6226 19.7265 19.3863 20.006 19.0938 20.2013C18.8014 20.3966 18.4643 20.5001 18.1205 20.5001H17.3041C16.8132 20.5001 16.3423 20.2894 15.9952 19.9144C15.648 19.5394 15.453 19.0307 15.453 18.5003H8.04847C8.04847 19.0307 7.85344 19.5394 7.50629 19.9144C7.15913 20.2894 6.68829 20.5001 6.19734 20.5001H5.38099C5.03715 20.5001 4.70011 20.3966 4.40764 20.2013Z" fill="#D63D4A"/>
</g>
<g style="mix-blend-mode:multiply">
<path d="M5.58111 9.45576L7.09248 6.05516C7.22893 5.74815 7.53339 5.55029 7.86936 5.55029H15.8326C16.1686 5.55029 16.4731 5.74815 16.6095 6.05516L18.1209 9.45576C18.3708 10.018 17.9592 10.6512 17.344 10.6512H6.35798C5.74276 10.6512 5.33124 10.018 5.58111 9.45576Z" fill="#D63D4A"/>
</g>
<rect x="6.44189" y="12" width="10.625" height="4.25" rx="1.0625" fill="white"/>
<path d="M8.83252 13.3281C9.27262 13.3281 9.62939 13.6849 9.62939 14.125C9.62939 14.5651 9.27262 14.9219 8.83252 14.9219C8.39242 14.9219 8.03564 14.5651 8.03564 14.125C8.03564 13.6849 8.39242 13.3281 8.83252 13.3281ZM11.7544 13.3281C12.1945 13.3281 12.5513 13.6849 12.5513 14.125C12.5513 14.5651 12.1945 14.9219 11.7544 14.9219C11.3143 14.9219 10.9575 14.5651 10.9575 14.125C10.9575 13.6849 11.3143 13.3281 11.7544 13.3281ZM14.6763 13.3281C15.1164 13.3281 15.4731 13.6849 15.4731 14.125C15.4731 14.5651 15.1164 14.9219 14.6763 14.9219C14.2362 14.9219 13.8794 14.5651 13.8794 14.125C13.8794 13.6849 14.2362 13.3281 14.6763 13.3281Z" fill="#D63D4A"/>
<g style="mix-blend-mode:multiply">
<path d="M17 3.86603C17.2222 3.48113 17.7778 3.48113 18 3.86603L21 9.06218C21.2222 9.44708 20.9444 9.9282 20.5 9.9282H14.5C14.0556 9.9282 13.7778 9.44708 14 9.06218L17 3.86603Z" fill="#D63D4A"/>
</g>
<path d="M17.5 7.82223C17.1747 7.82223 16.9111 8.08588 16.9111 8.41111C16.9111 8.73635 17.1747 9 17.5 9C17.8252 9 18.0889 8.73635 18.0889 8.41111C18.0889 8.08588 17.8252 7.82223 17.5 7.82223Z" fill="white"/>
<path d="M17.8431 7.33633C17.8973 7.33633 17.9413 7.29239 17.9413 7.23818L17.9413 6.74744L17.9413 5.58889L17.9413 5.09815C17.9413 5.04394 17.8973 5 17.8431 5L17.1561 5C17.1019 5 17.0579 5.04394 17.0579 5.09815L17.0579 5.58889L17.0579 7.23818C17.0579 7.29239 17.1019 7.33633 17.1561 7.33633L17.8431 7.33633Z" fill="white"/>
</g>
</svg>
