<svg width="32" height="32" viewBox="0 0 32 32" fill="none" xmlns="http://www.w3.org/2000/svg">
<g style="mix-blend-mode:multiply">
<path fill-rule="evenodd" clip-rule="evenodd" d="M16.0013 3.33691C22.9963 3.33691 28.6677 9.00735 28.668 16.0023C28.668 17.1442 28.5159 18.2508 28.2318 19.3031C28.2039 19.4063 28.1663 19.5043 28.1237 19.5986C28.1101 19.6648 28.0965 19.7322 28.0755 19.7992C27.2098 22.5575 25.4264 24.9101 23.082 26.4971C22.719 26.7428 22.2848 26.8576 21.8464 26.8577H10.138C9.69958 26.8577 9.2655 26.7427 8.90234 26.4971C6.55726 24.9101 4.77361 22.5579 3.90755 19.7992C3.87693 19.7016 3.85483 19.6047 3.83984 19.5088C3.81378 19.4423 3.79119 19.3737 3.77214 19.3031C3.48836 18.2507 3.33594 17.1441 3.33594 16.0023C3.33619 9.0075 9.00653 3.33717 16.0013 3.33691ZM23.8424 16.0023C23.8424 15.7556 23.5737 15.6104 23.3581 15.7301L20.8919 17.0999C20.7481 17.1798 20.6453 17.3157 20.5951 17.4723C19.9718 19.4157 18.1503 20.8226 16 20.8226C13.8502 20.8225 12.0285 19.4163 11.4049 17.4736C11.3547 17.317 11.2519 17.1811 11.1081 17.1012L8.64193 15.7314C8.42788 15.6126 8.16146 15.7575 8.16146 16.0023C8.16152 16.4364 8.19756 16.8622 8.26562 17.277C8.29609 17.4627 8.30629 17.6541 8.30208 17.8473C8.37251 17.9607 8.4315 18.0834 8.47005 18.2145C9.42586 21.4658 12.4315 23.8393 15.9922 23.8395C19.5529 23.8392 22.5598 21.4659 23.5156 18.2145C23.558 18.0705 23.6201 17.9344 23.7005 17.8122C23.6986 17.6318 23.7098 17.4532 23.7383 17.2796C23.8065 16.8642 23.8424 16.4371 23.8424 16.0023ZM16.0026 8.16113C12.9186 8.16113 10.2493 9.94165 8.96875 12.5309C8.78502 12.9026 9.06847 13.3169 9.48307 13.3239L11.6224 13.3604C11.8296 13.3638 12.0221 13.2587 12.1471 13.0934C13.0278 11.9271 14.4259 11.1729 16 11.1729C17.5739 11.1729 18.9709 11.9273 19.8516 13.0934C19.9766 13.2587 20.1691 13.3638 20.3763 13.3604L22.5195 13.3239C22.9341 13.3169 23.2175 12.9026 23.0339 12.5309C21.7536 9.94204 19.0861 8.16142 16.0026 8.16113Z" fill="white"/>
<path d="M7.2147 17.2056C7.8098 17.2056 8.3062 17.6435 8.47403 18.2144C9.42984 21.4658 12.4355 23.8396 15.9963 23.8397C19.5569 23.8392 22.563 21.4657 23.5187 18.2145C23.6865 17.6435 24.1829 17.2056 24.7781 17.2056H27.2751C27.986 17.2056 28.5477 17.8197 28.4072 18.5167C27.2407 24.3064 22.1272 28.6662 15.9937 28.6665C9.86012 28.6664 4.74678 24.3065 3.58025 18.5167C3.43982 17.8197 4.00145 17.2056 4.71241 17.2056H7.2147Z" fill="#D63D4A"/>
<g style="mix-blend-mode:multiply">
<path fill-rule="evenodd" clip-rule="evenodd" d="M15.9994 3.33325C22.9948 3.33355 28.6654 9.00511 28.6654 16.0006C28.6653 17.1422 28.5132 18.2481 28.2296 19.3C27.9752 20.2431 27.0738 20.8278 26.097 20.828C24.5045 20.828 23.4786 18.8457 23.7367 17.2742C23.805 16.8584 23.8408 16.4316 23.8408 15.9964C23.8408 15.7517 23.5754 15.6079 23.3614 15.7265L20.8887 17.0971C20.745 17.177 20.6423 17.3131 20.592 17.4696C20.2174 18.6393 19.4075 19.6117 18.3541 20.2025C18.015 20.3926 17.824 20.7913 17.952 21.1584L18.4764 22.6611C18.609 23.0415 19.0297 23.2415 19.3929 23.0674C19.5256 23.0037 19.6554 22.9344 19.7837 22.8636C18.6606 23.4854 17.3701 23.8419 15.9952 23.842C14.7353 23.842 13.5465 23.5421 12.492 23.014C12.8514 23.1794 13.2656 22.9824 13.3973 22.6049L13.9245 21.0937C14.05 20.7338 13.8687 20.3433 13.5407 20.149C12.535 19.5532 11.7641 18.603 11.4011 17.4696C11.3509 17.3131 11.2482 17.177 11.1045 17.0971L8.63459 15.7265C8.42134 15.6086 8.15804 15.7526 8.15803 15.9964C8.15803 16.4311 8.19393 16.8575 8.26206 17.2728C8.51991 18.8449 7.49339 20.828 5.90037 20.828C4.92359 20.8278 4.02218 20.2431 3.76782 19.3C3.48416 18.248 3.33208 17.1422 3.33203 16.0006C3.33203 9.00493 9.00371 3.33325 15.9994 3.33325ZM15.9994 8.15503C12.9144 8.15503 10.2451 9.93651 8.96494 12.527C8.78125 12.8987 9.06486 13.3128 9.47945 13.3198L11.6204 13.3564C11.8277 13.3599 12.0197 13.2546 12.1448 13.0893C13.0256 11.9241 14.4233 11.1718 15.9966 11.1718C17.5696 11.1718 18.9662 11.9244 19.847 13.0893C19.972 13.2546 20.1641 13.3599 20.3713 13.3564L22.5179 13.3198C22.9326 13.3128 23.2162 12.8987 23.0325 12.527C21.7523 9.9368 19.084 8.15521 15.9994 8.15503Z" fill="#FA967C"/>
<path d="M5.83992 23.5721C5.82996 23.5587 5.81891 23.5461 5.80899 23.5327C5.80558 23.5281 5.80243 23.5233 5.79915 23.5187C5.81246 23.5367 5.82652 23.5541 5.83992 23.5721Z" fill="#FA967C"/>
<path d="M26.1758 23.5327C26.1657 23.5463 26.1536 23.5585 26.1434 23.5721C26.1568 23.5541 26.1709 23.5367 26.1842 23.5187C26.1811 23.5231 26.179 23.5283 26.1758 23.5327Z" fill="#FA967C"/>
</g>
<path d="M13.5977 16.0124C13.5977 14.68 14.6778 13.5999 16.0102 13.5999C17.3426 13.5999 18.4227 14.68 18.4227 16.0124C18.4227 17.3448 17.3426 18.4249 16.0102 18.4249C14.6778 18.4249 13.5977 17.3448 13.5977 16.0124Z" fill="white"/>
<ellipse cx="15.9974" cy="15.9998" rx="5.3333" ry="5.3333" fill="#D63D4A"/>
<path fill-rule="evenodd" clip-rule="evenodd" d="M15.9987 20.6755C13.4235 20.6755 11.332 18.584 11.332 16.0046C11.332 13.4252 13.4235 11.3379 15.9987 11.3379C18.5739 11.3379 20.6654 13.4294 20.6654 16.0046C20.6654 18.5797 18.5739 20.6712 15.9987 20.6712V20.6755ZM15.9987 11.9743C13.7757 11.9743 11.9684 13.7815 11.9684 16.0046C11.9684 18.2276 13.7714 20.0349 15.9987 20.0349C16.5332 20.0349 17.0593 19.9288 17.5514 19.7209C16.4314 19.4409 11.5484 17.99 16.1387 14.9609H17.7551C17.7551 14.9609 12.9526 17.5743 17.6066 19.6997C19.032 19.0761 20.029 17.6591 20.029 16.0088C20.029 13.7815 18.226 11.9785 15.9987 11.9785V11.9743ZM16.8642 14.6088C18.0902 13.7136 16.6945 13.0476 16.6945 13.0476C19.0575 13.2724 18.4254 14.6088 18.4254 14.6088H16.8642Z" fill="white"/>
</g>
</svg>
