<svg width="24" height="24" viewBox="0 0 24 24" fill="none" xmlns="http://www.w3.org/2000/svg">
<g style="mix-blend-mode:multiply">
<path d="M19.3484 4.50011L4.65157 4.5C3.18715 4.5 2 5.65746 2 7.08526V16.9146C2 18.3424 3.18715 19.4999 4.65157 19.4999L19.3484 19.5C20.8129 19.5 22 18.3425 22 16.9147V7.08537C22 5.65757 20.8129 4.50011 19.3484 4.50011Z" fill="#FA967C"/>
<g style="mix-blend-mode:multiply">
<path d="M4.58528 4.5L19.4147 4.5C20.8421 4.5 22 5.65792 22 7.08526V8.47167H2V7.08526C2 5.65792 3.15792 4.5 4.58528 4.5Z" fill="#D63D4A"/>
</g>
<path d="M10.4426 6.50698C10.4426 6.92556 10.0973 7.26395 9.67014 7.26395C9.24301 7.26395 8.89771 6.92556 8.89771 6.50698C8.89771 6.08839 9.24464 5.75 9.67014 5.75C10.0956 5.75 10.4426 6.09 10.4426 6.50698Z" fill="#FA967C"/>
<path d="M7.24631 7.26395C7.67291 7.26395 8.01874 6.92504 8.01874 6.50698C8.01874 6.08891 7.67291 5.75 7.24631 5.75C6.81971 5.75 6.47388 6.08891 6.47388 6.50698C6.47388 6.92504 6.81971 7.26395 7.24631 7.26395Z" fill="#FA967C"/>
<path d="M4.82809 7.26395C5.2547 7.26395 5.60052 6.92504 5.60052 6.50698C5.60052 6.08891 5.2547 5.75 4.82809 5.75C4.40149 5.75 4.05566 6.08891 4.05566 6.50698C4.05566 6.92504 4.40149 7.26395 4.82809 7.26395Z" fill="#FA967C"/>
<path d="M12.1928 10.1001C10.2774 10.1001 8.93872 11.5398 8.93872 13.6002C8.93872 15.6605 10.2697 16.9 12.3298 16.9C13.3791 16.9 14.0948 16.687 14.5095 16.5089C14.6966 16.4281 14.7988 16.2316 14.7506 16.0406L14.5635 15.2951C14.5346 15.1776 14.4516 15.0784 14.3397 15.0251C14.2279 14.9701 14.0948 14.9664 13.9771 15.0141C13.6376 15.1519 13.221 15.2786 12.4783 15.2786C11.944 15.2786 11.0856 15.1151 10.885 14.107H14.6426C14.8625 14.107 15.0457 13.9509 15.0689 13.7434L15.0747 13.6956C15.0882 13.5855 15.1094 13.4184 15.1094 13.2127C15.1094 11.6647 14.2066 10.1038 12.1909 10.1038L12.1928 10.1001ZM12.106 11.6647C12.4243 11.6647 12.6654 11.7491 12.8429 11.9217C13.0242 12.098 13.1129 12.3349 13.1554 12.5406H10.966C11.1107 12.1531 11.427 11.6647 12.1041 11.6647H12.106Z" fill="white"/>
</g>
</svg>
