<svg width="32" height="32" viewBox="0 0 32 32" fill="none" xmlns="http://www.w3.org/2000/svg">
<path d="M2.66797 8.00004C2.66797 6.52728 3.79555 5.33337 5.18649 5.33337H22.8161C24.2071 5.33337 25.3346 6.52728 25.3346 8.00004V21.3334C25.3346 22.8061 24.2071 24 22.8161 24H5.18649C3.79555 24 2.66797 22.8061 2.66797 21.3334V8.00004Z" fill="#32C9DC"/>
<g style="mix-blend-mode:multiply">
<path d="M20.001 2.2666C20.59 2.2666 21.0672 2.74405 21.0674 3.33301V5.33301H23.334C24.4384 5.33301 25.3338 6.22859 25.334 7.33301V10.667H2.66797V7.33301C2.66815 6.22859 3.56351 5.33301 4.66797 5.33301H6.93457V3.33301C6.93475 2.74405 7.41198 2.2666 8.00098 2.2666C8.58997 2.2666 9.06721 2.74405 9.06738 3.33301V5.33301H18.9346V3.33301C18.9347 2.74405 19.412 2.2666 20.001 2.2666Z" fill="#1A5EA7"/>
</g>
<g clip-path="url(#clip0_19535_509361)">
<g style="mix-blend-mode:multiply">
<circle cx="23.6693" cy="21.3333" r="5.33333" fill="white"/>
<circle cx="23.6693" cy="21.3333" r="5.33333" fill="#1A5EA7"/>
</g>
<path d="M26.3422 19.2925C26.5825 19.142 26.9033 19.1756 27.1065 19.3889C27.3095 19.6023 27.3272 19.9245 27.1651 20.1571L27.0857 20.2508L23.8812 23.299C23.7638 23.4105 23.6069 23.4714 23.445 23.467C23.283 23.4626 23.1292 23.3935 23.018 23.2756L20.8877 21.0165L20.8135 20.9188C20.6643 20.6778 20.6996 20.3579 20.9138 20.1558C21.1281 19.9537 21.4501 19.9366 21.682 20.0998L21.7758 20.1805L23.4841 21.993L26.2445 19.368L26.3422 19.2925Z" fill="white"/>
</g>
<defs>
<clipPath id="clip0_19535_509361">
<path d="M18.668 21.3333C18.668 18.3878 21.0558 16 24.0013 16C26.9468 16 29.3346 18.3878 29.3346 21.3333C29.3346 24.2789 26.9468 26.6667 24.0013 26.6667C21.0558 26.6667 18.668 24.2789 18.668 21.3333Z" fill="white"/>
</clipPath>
</defs>
</svg>
