<svg width="25" height="25" viewBox="0 0 25 25" fill="none" xmlns="http://www.w3.org/2000/svg">
<g style="mix-blend-mode:multiply">
<path fill-rule="evenodd" clip-rule="evenodd" d="M7.83128 4.16602C7.50499 4.16613 7.18453 4.25941 6.90236 4.43641C6.62019 4.61341 6.38634 4.86783 6.2245 5.17391L2.91098 11.4382C2.75088 11.7406 2.66665 12.0828 2.66663 12.4311V16.9286C2.66665 17.2389 2.73351 17.545 2.86192 17.8225L3.8967 20.0583C4.0504 20.3906 4.28673 20.67 4.57919 20.8654C4.87165 21.0607 5.2087 21.1642 5.55254 21.1642H6.36889C6.85984 21.1642 7.33068 20.9535 7.67783 20.5784C8.02499 20.2034 8.22002 19.6948 8.22002 19.1644H15.6245C15.6245 19.6948 15.8196 20.2034 16.1667 20.5784C16.5139 20.9535 16.9847 21.1642 17.4757 21.1642H18.292C18.6359 21.1642 18.9729 21.0607 19.2654 20.8654C19.5578 20.67 19.7942 20.3906 19.9479 20.0583L20.9826 17.8225C21.1113 17.5456 21.1779 17.2386 21.1779 16.9286V12.4311C21.1779 12.0828 21.0937 11.7406 20.9336 11.4382L17.6201 5.17391C17.4582 4.86783 17.2244 4.61341 16.9422 4.43641C16.66 4.25941 16.3396 4.16613 16.0133 4.16602H7.83128Z" fill="#FA967C"/>
<g style="mix-blend-mode:multiply">
<path d="M4.57427 20.8664C4.2818 20.671 4.04548 20.3916 3.89178 20.0593L3.37439 18.9414H20.4603L19.9429 20.0593C19.7892 20.3916 19.5529 20.671 19.2604 20.8664C18.968 21.0617 18.6309 21.1652 18.2871 21.1652H17.4708C16.9798 21.1652 16.509 20.9545 16.1618 20.5794C15.8146 20.2044 15.6196 19.6958 15.6196 19.1654H8.2151C8.2151 19.6958 8.02007 20.2044 7.67291 20.5794C7.32576 20.9545 6.85492 21.1652 6.36397 21.1652H5.54762C5.20378 21.1652 4.86673 21.0617 4.57427 20.8664Z" fill="#D63D4A"/>
</g>
<g style="mix-blend-mode:multiply">
<path d="M5.74785 10.1223L7.25923 6.72167C7.39568 6.41466 7.70014 6.2168 8.03611 6.2168H15.9994C16.3354 6.2168 16.6398 6.41465 16.7763 6.72167L18.2876 10.1223C18.5375 10.6845 18.126 11.3177 17.5108 11.3177H6.52473C5.90951 11.3177 5.49799 10.6845 5.74785 10.1223Z" fill="#D63D4A"/>
</g>
<circle cx="7.34224" cy="15.2166" r="1.27522" fill="white"/>
<circle cx="16.6939" cy="15.2166" r="1.27522" fill="white"/>
<g style="mix-blend-mode:multiply">
<circle cx="17.6666" cy="7.16602" r="4" fill="#D63D4A"/>
</g>
<path d="M19.4245 5.63583C19.6047 5.52297 19.8454 5.54817 19.9977 5.70809C20.15 5.86816 20.1632 6.1098 20.0417 6.28427L19.9821 6.35458L17.5788 8.64071C17.4907 8.72433 17.373 8.76997 17.2516 8.76669C17.1301 8.76339 17.0147 8.71154 16.9313 8.62313L15.3337 6.9288L15.278 6.85555C15.1661 6.67479 15.1925 6.43486 15.3532 6.28329C15.5139 6.13169 15.7554 6.11892 15.9294 6.2413L15.9997 6.30184L17.2809 7.66122L19.3512 5.69247L19.4245 5.63583Z" fill="white"/>
</g>
</svg>
