<svg width="25" height="25" viewBox="0 0 25 25" fill="none" xmlns="http://www.w3.org/2000/svg">
<g clip-path="url(#clip0_11120_174112)">
<g clip-path="url(#clip1_11120_174112)">
<g style="mix-blend-mode:multiply">
<g clip-path="url(#clip2_11120_174112)">
<path d="M10.7491 6.09609C10.3626 5.71266 10.167 5.23929 10.167 4.6665C10.167 4.09609 10.3626 3.61798 10.7491 3.23692C11.1332 2.85585 11.5733 2.6665 12.1367 2.6665C12.7002 2.6665 13.1775 2.85585 13.5733 3.23692C13.9691 3.61798 14.167 4.09372 14.167 4.6665C14.167 5.23929 13.9691 5.71266 13.5733 6.09609C13.1775 6.47715 12.6792 6.6665 12.1367 6.6665C11.5942 6.6665 11.1332 6.47715 10.7491 6.09609Z" fill="white"/>
<path d="M12.167 16.666C13.2715 16.666 14.1669 17.5616 14.167 18.666V20.666H10.167V18.666C10.1671 17.5616 11.0625 16.666 12.167 16.666Z" fill="#FA967C"/>
<path d="M14.167 7.66602C16.376 7.66602 18.1669 9.45699 18.167 11.666V16.666C18.167 18.5298 16.8922 20.096 15.167 20.54V18.666C15.1669 17.0093 13.8238 15.666 12.167 15.666C10.5102 15.666 9.16712 17.0093 9.16699 18.666V20.54C7.44179 20.096 6.16699 18.5298 6.16699 16.666V11.666C6.16712 9.45699 7.95793 7.66602 10.167 7.66602H14.167Z" fill="#FA967C"/>
<path d="M10.167 18.6665C10.167 17.5619 11.0624 16.6665 12.167 16.6665C13.2716 16.6665 14.167 17.5619 14.167 18.6665V21.6665C14.167 22.7711 13.2716 23.6665 12.167 23.6665C11.0624 23.6665 10.167 22.7711 10.167 21.6665V18.6665Z" fill="#D9D9D9"/>
<path d="M10.167 18.6665C10.167 17.5619 11.0624 16.6665 12.167 16.6665C13.2716 16.6665 14.167 17.5619 14.167 18.6665V21.6665C14.167 22.7711 13.2716 23.6665 12.167 23.6665C11.0624 23.6665 10.167 22.7711 10.167 21.6665V18.6665Z" fill="#D63D4A"/>
<circle cx="9.16699" cy="11.6665" r="1" fill="white"/>
<circle cx="15.167" cy="11.6665" r="1" fill="white"/>
<path d="M13.5674 5.6665C13.5674 5.30139 13.4623 5.01268 13.2529 4.77002L13.1572 4.66943C12.8765 4.39916 12.5496 4.26611 12.1367 4.26611C11.7345 4.26611 11.4456 4.39119 11.1719 4.6626L11.1699 4.66455C10.9036 4.92727 10.7666 5.24886 10.7666 5.6665C10.7666 6.08522 10.9031 6.40372 11.1719 6.67041L11.2754 6.76416C11.5216 6.96883 11.8 7.06689 12.1367 7.06689C12.4825 7.06689 12.7915 6.96369 13.0498 6.7583L13.1572 6.66357C13.4314 6.39732 13.5674 6.08171 13.5674 5.6665ZM14.7666 5.6665C14.7666 6.39594 14.5074 7.0266 13.9912 7.52686L13.9893 7.52881C13.4762 8.02264 12.8264 8.26611 12.1367 8.26611C11.5242 8.26611 10.9784 8.07405 10.5186 7.6958L10.3262 7.52197C9.82213 7.02183 9.56738 6.39326 9.56738 5.6665C9.56738 4.94424 9.82073 4.31014 10.3262 3.81104L10.5166 3.63818C10.9709 3.26096 11.5027 3.0669 12.1367 3.06689C12.8506 3.06689 13.4784 3.31255 13.9893 3.8042L14.1719 3.99854C14.5686 4.46423 14.7666 5.02924 14.7666 5.6665Z" fill="#D63D4A"/>
<path d="M19.167 4.6665L19.2695 4.67139C19.7737 4.72272 20.167 5.14883 20.167 5.6665C20.167 6.18418 19.7737 6.61029 19.2695 6.66162L19.167 6.6665H5.16699C4.61471 6.6665 4.16699 6.21879 4.16699 5.6665C4.16699 5.11422 4.61471 4.6665 5.16699 4.6665H19.167Z" fill="#D63D4A"/>
<circle cx="12.167" cy="5.6665" r="1.5" fill="white"/>
</g>
</g>
</g>
</g>
<defs>
<clipPath id="clip0_11120_174112">
<rect width="24" height="24" fill="white" transform="translate(0.166992 0.666504)"/>
</clipPath>
<clipPath id="clip1_11120_174112">
<rect width="24" height="24" fill="white" transform="translate(0.166992 0.666504)"/>
</clipPath>
<clipPath id="clip2_11120_174112">
<rect width="16" height="21" fill="white" transform="translate(4.16699 2.6665)"/>
</clipPath>
</defs>
</svg>
