<svg width="25" height="25" viewBox="0 0 25 25" fill="none" xmlns="http://www.w3.org/2000/svg">
<path d="M8.89056 7.84667L6.9275 13.3433H5.66663C3.45749 13.3433 1.66663 15.1341 1.66663 17.3433V18.952C1.66663 20.6088 3.00977 21.952 4.66663 21.952H9.10051C9.86752 21.952 10.6184 21.7314 11.2635 21.3167L21.0494 15.0258C22.4791 14.1066 22.8605 12.1844 21.8898 10.7891L17.2369 4.1005C16.7522 3.40374 15.6513 3.58961 15.2557 4.34058C14.8217 5.16462 14.2826 5.7884 13.6231 6.16934C12.6691 6.72047 11.531 6.83083 10.5829 6.7905C9.84917 6.75929 9.13756 7.15507 8.89056 7.84667Z" fill="#FA967C"/>
<mask id="mask0_11120_197570" style="mask-type:alpha" maskUnits="userSpaceOnUse" x="1" y="3" width="22" height="19">
<path d="M8.89056 7.84667L6.9275 13.3433H5.66663C3.45749 13.3433 1.66663 15.1341 1.66663 17.3433V18.952C1.66663 20.6088 3.00977 21.952 4.66663 21.952H9.10051C9.86752 21.952 10.6184 21.7314 11.2635 21.3167L21.0494 15.0258C22.4791 14.1066 22.8605 12.1844 21.8898 10.7891L17.2369 4.1005C16.7522 3.40374 15.6513 3.58961 15.2557 4.34058C14.8217 5.16462 14.2826 5.7884 13.6231 6.16934C12.6691 6.72047 11.531 6.83083 10.5829 6.7905C9.84917 6.75929 9.13756 7.15507 8.89056 7.84667Z" fill="#FA967C"/>
</mask>
<g mask="url(#mask0_11120_197570)">
<path d="M9.03329 7.44698L6.92747 13.3433H1.6666V18.952C1.6666 20.6088 3.00975 21.952 4.66661 21.952H9.10049C9.8675 21.952 10.6183 21.7314 11.2635 21.3167L21.0493 15.0258C22.4791 14.1066 22.8604 12.1844 21.8898 10.7891L17.2369 4.1005C16.7522 3.40374 15.6513 3.58961 15.2557 4.34058C14.8217 5.16462 14.2826 5.7884 13.6231 6.16934C12.522 6.80547 11.1755 6.85439 10.1592 6.76216C9.6716 6.71791 9.19795 6.98591 9.03329 7.44698Z" fill="#FA967C"/>
<path d="M9.17229 19.0824H1.6666L0.710083 22.9085L11.7101 22.4302L23.6666 14.2998L22.2318 10.4737L10.3107 18.7268C9.97623 18.9583 9.5791 19.0824 9.17229 19.0824Z" fill="#D63D4A"/>
<path fill-rule="evenodd" clip-rule="evenodd" d="M4.31528 9.70861C4.31528 9.286 4.65788 8.9434 5.08049 8.9434H9.8631C10.2857 8.9434 10.6283 9.286 10.6283 9.70861C10.6283 10.1312 10.2857 10.4738 9.8631 10.4738H5.08049C4.65788 10.4738 4.31528 10.1312 4.31528 9.70861ZM3.00574 12.5778C3.00574 12.1552 3.34834 11.8126 3.77095 11.8126H10.4666C10.8892 11.8126 11.2318 12.1552 11.2318 12.5778C11.2318 13.0005 10.8892 13.3431 10.4666 13.3431H3.77095C3.34834 13.3431 3.00574 13.0005 3.00574 12.5778Z" fill="#D63D4A"/>
</g>
</svg>
