<svg width="32" height="32" viewBox="0 0 32 32" fill="none" xmlns="http://www.w3.org/2000/svg">
<path d="M4.66797 9.99992C4.66797 8.52716 5.86188 7.33325 7.33464 7.33325H24.668C26.1407 7.33325 27.3346 8.52716 27.3346 9.99992V24.6666C27.3346 26.1393 26.1407 27.3333 24.668 27.3333H7.33464C5.86188 27.3333 4.66797 26.1393 4.66797 24.6666V9.99992Z" fill="#FA967C"/>
<g style="mix-blend-mode:multiply">
<path d="M21.3346 4.66675C21.9237 4.66675 22.401 5.14405 22.401 5.73315V7.33341H24.668C26.1407 7.33342 27.3346 8.52732 27.3346 10.0001V12.6667H4.66797V10.0001C4.66797 8.52732 5.86188 7.33341 7.33464 7.33341H9.60156V5.73315C9.60156 5.14405 10.0789 4.66675 10.668 4.66675C11.2571 4.66675 11.7344 5.14405 11.7344 5.73315V7.33341H20.2682V5.73315C20.2682 5.14405 20.7455 4.66675 21.3346 4.66675Z" fill="#D63D4A"/>
</g>
<g style="mix-blend-mode:multiply">
<path d="M12.301 20.5073C12.5516 20.5073 12.7605 20.6917 12.8312 20.9321C13.2336 22.301 14.499 23.3004 15.9982 23.3004C17.4973 23.3002 18.7629 22.3009 19.1653 20.9321C19.2359 20.6917 19.4449 20.5073 19.6955 20.5073H20.7468C21.0461 20.5073 21.2826 20.7659 21.2234 21.0593C20.7323 23.4969 18.5794 25.3325 15.9971 25.3326C13.4148 25.3325 11.262 23.4969 10.7708 21.0593C10.7117 20.7659 10.9482 20.5073 11.2475 20.5073H12.301Z" fill="#D63D4A"/>
</g>
<g style="mix-blend-mode:multiply">
<path fill-rule="evenodd" clip-rule="evenodd" d="M16.0012 14.6667C18.9464 14.6669 21.3337 17.0547 21.3337 19.9999C21.3337 20.4806 21.2697 20.9461 21.1503 21.389C21.0432 21.7861 20.6637 22.0323 20.2524 22.0324C19.5819 22.0324 19.15 21.1978 19.2587 20.5361C19.2875 20.3611 19.3025 20.1814 19.3025 19.9982C19.3025 19.8951 19.1908 19.8346 19.1007 19.8845L18.0596 20.4616C17.9991 20.4952 17.9559 20.5525 17.9347 20.6184C17.777 21.1109 17.436 21.5202 16.9925 21.769C16.8497 21.849 16.7694 22.0169 16.8232 22.1714L17.044 22.8041C17.0998 22.9643 17.277 23.0485 17.4299 22.9752C17.4857 22.9484 17.5404 22.9192 17.5944 22.8894C17.1216 23.1511 16.5782 23.3013 15.9994 23.3013C15.469 23.3013 14.9684 23.175 14.5245 22.9527C14.6758 23.0223 14.8502 22.9394 14.9056 22.7805L15.1276 22.1442C15.1804 21.9927 15.1041 21.8283 14.966 21.7465C14.5426 21.4956 14.218 21.0956 14.0652 20.6184C14.0441 20.5525 14.0008 20.4952 13.9403 20.4616L12.9004 19.8845C12.8107 19.8349 12.6998 19.8955 12.6998 19.9982C12.6998 20.1812 12.7149 20.3607 12.7436 20.5356C12.8522 21.1974 12.42 22.0324 11.7493 22.0324C11.338 22.0322 10.9585 21.7861 10.8514 21.389C10.732 20.9461 10.668 20.4805 10.668 19.9999C10.668 17.0546 13.0558 14.6667 16.0012 14.6667ZM16.0012 16.6968C14.7023 16.6968 13.5785 17.4468 13.0395 18.5375C12.9622 18.694 13.0816 18.8683 13.2561 18.8713L14.1575 18.8867C14.2448 18.8881 14.3256 18.8438 14.3783 18.7742C14.7492 18.2837 15.3376 17.9669 16 17.9669C16.6622 17.9669 17.2502 18.2838 17.6211 18.7742C17.6737 18.8438 17.7546 18.8881 17.8418 18.8867L18.7456 18.8713C18.9201 18.8683 19.0395 18.694 18.9622 18.5375C18.4232 17.447 17.2998 16.6969 16.0012 16.6968Z" fill="#D63D4A"/>
<path d="M11.7238 23.1876C11.7196 23.182 11.715 23.1767 11.7108 23.1711C11.7094 23.1691 11.708 23.1671 11.7067 23.1652C11.7123 23.1727 11.7182 23.1801 11.7238 23.1876Z" fill="#D63D4A"/>
<path d="M20.2856 23.1711C20.2813 23.1768 20.2762 23.1819 20.272 23.1876C20.2776 23.1801 20.2835 23.1727 20.2891 23.1652C20.2878 23.167 20.2869 23.1692 20.2856 23.1711Z" fill="#D63D4A"/>
</g>
<path d="M14.9922 20.005C14.9922 19.444 15.4469 18.9893 16.0079 18.9893C16.5689 18.9893 17.0236 19.444 17.0236 20.005C17.0236 20.5659 16.5689 21.0207 16.0079 21.0207C15.4469 21.0207 14.9922 20.5659 14.9922 20.005Z" fill="white"/>
</svg>
