<svg width="24" height="24" viewBox="0 0 24 24" fill="none" xmlns="http://www.w3.org/2000/svg">
<path d="M8.72394 7.18065L6.76087 12.6772H5.5C3.29086 12.6772 1.5 14.4681 1.5 16.6772V18.2859C1.5 19.9428 2.84315 21.2859 4.5 21.2859H8.93389C9.70089 21.2859 10.4517 21.0654 11.0969 20.6507L20.8827 14.3598C22.3125 13.4406 22.6938 11.5184 21.7232 10.123L17.0703 3.43449C16.5856 2.73772 15.4847 2.92359 15.0891 3.67456C14.6551 4.4986 14.116 5.12238 13.4565 5.50333C12.5025 6.05446 11.3643 6.16482 10.4163 6.12449C9.68254 6.09327 8.97094 6.48906 8.72394 7.18065Z" fill="#FA967C"/>
<mask id="mask0_97_8934" style="mask-type:alpha" maskUnits="userSpaceOnUse" x="1" y="3" width="22" height="19">
<path d="M8.72394 7.18065L6.76087 12.6772H5.5C3.29086 12.6772 1.5 14.4681 1.5 16.6772V18.2859C1.5 19.9428 2.84315 21.2859 4.5 21.2859H8.93389C9.70089 21.2859 10.4517 21.0654 11.0969 20.6507L20.8827 14.3598C22.3125 13.4406 22.6938 11.5184 21.7232 10.123L17.0703 3.43449C16.5856 2.73772 15.4847 2.92359 15.0891 3.67456C14.6551 4.4986 14.116 5.12238 13.4565 5.50333C12.5025 6.05446 11.3643 6.16482 10.4163 6.12449C9.68254 6.09327 8.97094 6.48906 8.72394 7.18065Z" fill="#FA967C"/>
</mask>
<g mask="url(#mask0_97_8934)">
<path d="M8.86666 6.78096L6.76085 12.6772H1.49998V18.2859C1.49998 19.9428 2.84313 21.2859 4.49998 21.2859H8.93387C9.70087 21.2859 10.4517 21.0654 11.0969 20.6507L20.8827 14.3598C22.3125 13.4406 22.6938 11.5184 21.7231 10.123L17.0702 3.43449C16.5855 2.73772 15.4846 2.92359 15.0891 3.67456C14.6551 4.4986 14.1159 5.12238 13.4565 5.50333C12.3553 6.13945 11.0089 6.18837 9.99256 6.09614C9.50498 6.05189 9.03133 6.3199 8.86666 6.78096Z" fill="#FA967C"/>
<path d="M9.00566 18.4164H1.49998L0.543457 22.2425L11.5435 21.7642L23.5 13.6338L22.0652 9.80768L10.1441 18.0608C9.80961 18.2923 9.41247 18.4164 9.00566 18.4164Z" fill="#D63D4A"/>
<path fill-rule="evenodd" clip-rule="evenodd" d="M4.14865 9.0426C4.14865 8.61998 4.49125 8.27738 4.91387 8.27738H9.69648C10.1191 8.27738 10.4617 8.61998 10.4617 9.0426C10.4617 9.46522 10.1191 9.80782 9.69648 9.80782H4.91387C4.49125 9.80782 4.14865 9.46522 4.14865 9.0426ZM2.83911 11.9118C2.83911 11.4892 3.18171 11.1466 3.60433 11.1466H10.3C10.7226 11.1466 11.0652 11.4892 11.0652 11.9118C11.0652 12.3344 10.7226 12.677 10.3 12.677H3.60433C3.18171 12.677 2.83911 12.3344 2.83911 11.9118Z" fill="#D63D4A"/>
</g>
</svg>
