<svg width="25" height="25" viewBox="0 0 25 25" fill="none" xmlns="http://www.w3.org/2000/svg">
<g style="mix-blend-mode:multiply">
<path fill-rule="evenodd" clip-rule="evenodd" d="M8.07542 4.16602C7.74913 4.16613 7.42867 4.25941 7.1465 4.43641C6.86433 4.61341 6.63048 4.86783 6.46864 5.17391L3.15512 11.4382C2.99502 11.7406 2.91079 12.0828 2.91077 12.4311V16.9286C2.91079 17.2389 2.97765 17.545 3.10606 17.8225L4.14084 20.0583C4.29454 20.3906 4.53087 20.67 4.82333 20.8654C5.11579 21.0607 5.45284 21.1642 5.79668 21.1642H6.61303C7.10398 21.1642 7.57482 20.9535 7.92197 20.5784C8.26913 20.2034 8.46416 19.6948 8.46416 19.1644H15.8687C15.8687 19.6948 16.0637 20.2034 16.4109 20.5784C16.758 20.9535 17.2289 21.1642 17.7198 21.1642H18.5362C18.88 21.1642 19.217 21.0607 19.5095 20.8654C19.802 20.67 20.0383 20.3906 20.192 20.0583L21.2268 17.8225C21.3554 17.5456 21.4221 17.2386 21.4221 16.9286V12.4311C21.4221 12.0828 21.3378 11.7406 21.1777 11.4382L17.8642 5.17391C17.7024 4.86783 17.4685 4.61341 17.1863 4.43641C16.9042 4.25941 16.5837 4.16613 16.2574 4.16602H8.07542Z" fill="#FA967C"/>
<g style="mix-blend-mode:multiply">
<path d="M4.81841 20.8664C4.52594 20.671 4.28962 20.3916 4.13592 20.0593L3.61853 18.9414H20.7045L20.1871 20.0593C20.0334 20.3916 19.797 20.671 19.5046 20.8664C19.2121 21.0617 18.8751 21.1652 18.5312 21.1652H17.7149C17.2239 21.1652 16.7531 20.9545 16.4059 20.5794C16.0588 20.2044 15.8638 19.6958 15.8638 19.1654H8.45924C8.45924 19.6958 8.26421 20.2044 7.91705 20.5794C7.5699 20.9545 7.09906 21.1652 6.60811 21.1652H5.79176C5.44792 21.1652 5.11087 21.0617 4.81841 20.8664Z" fill="#D63D4A"/>
</g>
<g style="mix-blend-mode:multiply">
<path d="M5.99187 10.1223L7.50325 6.72167C7.6397 6.41466 7.94415 6.2168 8.28012 6.2168H16.2434C16.5794 6.2168 16.8838 6.41465 17.0203 6.72167L18.5317 10.1223C18.7815 10.6845 18.37 11.3177 17.7548 11.3177H6.76875C6.15353 11.3177 5.74201 10.6845 5.99187 10.1223Z" fill="#D63D4A"/>
</g>
<circle cx="7.58638" cy="15.2166" r="1.27522" fill="white"/>
<circle cx="16.9381" cy="15.2166" r="1.27522" fill="white"/>
<path fill-rule="evenodd" clip-rule="evenodd" d="M9.29938 6.46604C10.0316 5.75482 11.0427 5.3125 12.1566 5.3125C13.2705 5.3125 14.2817 5.75482 15.0139 6.46604C15.2036 6.65035 15.2043 6.94984 15.0154 7.13498C14.8265 7.32012 14.5196 7.3208 14.3298 7.13649C13.771 6.59363 13.0026 6.25853 12.1566 6.25853C11.3107 6.25853 10.5423 6.59363 9.98339 7.13649C9.79365 7.3208 9.48671 7.32012 9.29783 7.13498C9.10894 6.94984 9.10964 6.65035 9.29938 6.46604Z" fill="white"/>
<path fill-rule="evenodd" clip-rule="evenodd" d="M12.1553 8.21947C11.6908 8.21947 11.268 8.40384 10.9586 8.70352C10.7686 8.88757 10.4617 8.88646 10.273 8.70106C10.0844 8.51565 10.0856 8.21616 10.2756 8.03212C10.7571 7.56574 11.4218 7.27344 12.1553 7.27344C12.8878 7.27344 13.5564 7.56508 14.0363 8.03335C14.2256 8.21807 14.2256 8.51757 14.0363 8.70229C13.847 8.88702 13.5401 8.88702 13.3507 8.70229C13.0455 8.40449 12.6208 8.21947 12.1553 8.21947Z" fill="white"/>
<path d="M12.1575 10.455C12.4803 10.455 12.7419 10.1997 12.7419 9.88475C12.7419 9.56978 12.4803 9.31445 12.1575 9.31445C11.8347 9.31445 11.573 9.56978 11.573 9.88475C11.573 10.1997 11.8347 10.455 12.1575 10.455Z" fill="white"/>
</g>
</svg>
