<svg width="32" height="32" viewBox="0 0 32 32" fill="none" xmlns="http://www.w3.org/2000/svg">
<g clip-path="url(#clip0_11337_206427)">
<g style="mix-blend-mode:multiply">
<path fill-rule="evenodd" clip-rule="evenodd" d="M10.3862 4.83301C9.95116 4.83316 9.52387 4.95753 9.14764 5.19353C8.77142 5.42953 8.45962 5.76876 8.24383 6.17686L3.8258 14.5293C3.61233 14.9324 3.50003 15.3887 3.5 15.8531V21.8498C3.50003 22.2636 3.58917 22.6716 3.76039 23.0417L5.1401 26.0227C5.34503 26.4657 5.66013 26.8384 6.05009 27.0988C6.44004 27.3592 6.88943 27.4972 7.34788 27.4972H8.43635C9.09095 27.4972 9.71874 27.2163 10.1816 26.7162C10.6445 26.2162 10.9045 25.538 10.9045 24.8308H20.7772C20.7772 25.538 21.0373 26.2162 21.5001 26.7162C21.963 27.2163 22.5908 27.4972 23.2454 27.4972H24.3339C24.7923 27.4972 25.2417 27.3592 25.6317 27.0988C26.0216 26.8384 26.3367 26.4657 26.5416 26.0227L27.9213 23.0417C28.0929 22.6724 28.1817 22.2631 28.1817 21.8498V15.8531C28.1817 15.3887 28.0694 14.9324 27.8559 14.5293L23.4379 6.17686C23.2221 5.76876 22.9103 5.42953 22.5341 5.19353C22.1579 4.95753 21.7306 4.83316 21.2955 4.83301H10.3862Z" fill="#8C97C8"/>
<g style="mix-blend-mode:multiply">
<path d="M6.0432 27.1013C5.65325 26.8408 5.33814 26.4682 5.13321 26.0252L4.44336 24.5347H27.2246L26.5348 26.0252C26.3298 26.4682 26.0147 26.8408 25.6248 27.1013C25.2348 27.3617 24.7854 27.4997 24.327 27.4997H23.2385C22.5839 27.4997 21.9561 27.2188 21.4932 26.7187C21.0304 26.2187 20.7703 25.5405 20.7703 24.8333H10.8976C10.8976 25.5405 10.6376 26.2187 10.1747 26.7187C9.71185 27.2188 9.08406 27.4997 8.42946 27.4997H7.341C6.88254 27.4997 6.43315 27.3617 6.0432 27.1013Z" fill="#5B658C"/>
</g>
<g style="mix-blend-mode:multiply">
<path d="M6.90039 14.3681L9.92314 7.56689H22.0142L25.0369 14.3681H6.90039Z" fill="#5B658C"/>
</g>
<ellipse cx="9.7335" cy="19.568" rx="1.7003" ry="1.7003" fill="white"/>
<circle cx="22.2023" cy="19.568" r="1.7003" fill="white"/>
<g style="mix-blend-mode:multiply">
<ellipse cx="23.4993" cy="8.83333" rx="5.33333" ry="5.33333" fill="#5B658C"/>
</g>
<path d="M26.7668 11.1066L26.1682 10.508C26.1308 10.4706 26.0809 10.4498 26.0279 10.4488L25.8533 10.4467L25.8076 10.2202C25.7899 10.1339 25.7192 10.0695 25.6309 10.0591L25.4439 10.0383L25.4096 9.80449C25.4033 9.76189 25.3825 9.72136 25.3524 9.69018L24.7715 9.10926L24.9762 8.90454C25.0822 8.79854 25.1165 8.63538 25.0697 8.46911C24.8931 7.84454 24.4919 7.19712 23.9422 6.64737C23.3914 6.09867 22.745 5.69754 22.1194 5.52087C21.9521 5.47307 21.789 5.5084 21.684 5.6144L20.28 7.01837C20.174 7.12437 20.1397 7.28649 20.1865 7.4538C20.3632 8.07837 20.7643 8.72579 21.314 9.27554C21.8638 9.82528 22.5112 10.2264 23.1358 10.4031C23.1846 10.4166 23.2335 10.4239 23.2802 10.4239C23.3935 10.4239 23.4964 10.3844 23.5712 10.3095L23.7759 10.1048L24.3568 10.6857C24.387 10.7169 24.4275 10.7367 24.4712 10.7429L24.705 10.7772L24.7258 10.9643C24.7351 11.0526 24.7995 11.1233 24.8868 11.1409L25.1134 11.1866L25.1155 11.3602C25.1155 11.4132 25.1373 11.4631 25.1747 11.5015L25.7733 12.1001C25.8159 12.1427 25.8741 12.1666 25.9333 12.1666C25.9458 12.1666 25.9593 12.1656 25.9718 12.1635L26.4727 12.0814C26.614 12.0575 26.7242 11.9473 26.7481 11.806L26.8302 11.3062C26.8426 11.2334 26.8198 11.1586 26.7668 11.1066Z" fill="white"/>
</g>
</g>
<defs>
<clipPath id="clip0_11337_206427">
<rect width="32" height="32" fill="white" transform="translate(0.166016 0.166504)"/>
</clipPath>
</defs>
</svg>
