<svg width="32" height="32" viewBox="0 0 32 32" fill="none" xmlns="http://www.w3.org/2000/svg">
<g style="mix-blend-mode:multiply">
<g style="mix-blend-mode:multiply">
<path d="M19.9987 3.33331C20.7351 3.33331 21.332 3.93027 21.332 4.66665C21.332 5.40303 20.7351 5.99998 19.9987 5.99998C19.6305 5.99998 19.332 6.29846 19.332 6.66665V11.3333C19.332 12.0697 18.7351 12.6666 17.9987 12.6666H16.6654C15.929 12.6666 15.332 12.0697 15.332 11.3333V6.66665C15.332 6.29846 15.0336 5.99998 14.6654 5.99998C13.929 5.99998 13.332 5.40303 13.332 4.66665C13.332 3.93027 13.929 3.33331 14.6654 3.33331H19.9987Z" fill="#D63D4A"/>
</g>
<path d="M17.332 7.33331C23.2231 7.33331 27.9987 12.1089 27.9987 18C27.9987 23.891 23.2231 28.6666 17.332 28.6666C14.8844 28.6666 12.6302 27.8414 10.8307 26.4547C9.54913 25.4671 8.06634 24.6666 6.44838 24.6666H5.73177C4.77473 24.6665 3.99891 23.8906 3.9987 22.9336C3.9987 21.9764 4.7746 21.2006 5.73177 21.2005H7.26497C7.6702 21.2005 7.9987 20.872 7.9987 20.4668C7.9987 20.0616 7.6702 19.7331 7.26497 19.7331H3.0651C2.10795 19.7329 1.33207 18.9572 1.33203 18C1.33203 17.0428 2.10793 16.267 3.0651 16.2669H8.59896C9.00382 16.2669 9.33203 15.9387 9.33203 15.5338C9.33203 15.129 9.00382 14.8008 8.59896 14.8008L7.15365 14.8001L5.73177 14.7995C4.7746 14.7993 3.9987 14.0236 3.9987 13.0664C3.99884 12.1093 4.77468 11.3335 5.73177 11.3333H6.44823C8.06627 11.3333 9.54913 10.5328 10.8308 9.54512C12.6303 8.15844 14.8844 7.33331 17.332 7.33331Z" fill="#FBB4C1"/>
<g style="mix-blend-mode:multiply">
<path d="M16 17.8828V12.6666C16 11.9303 16.597 11.3333 17.3333 11.3333C18.0697 11.3333 18.6667 11.9303 18.6667 12.6666V17.8828L22.0885 20.2344L22.1966 20.3177C22.7121 20.7548 22.8233 21.5196 22.4323 22.0885C22.0412 22.6575 21.2868 22.8286 20.694 22.5039L20.5781 22.4323L17.1562 20.0794C16.478 19.6131 16.0555 18.8623 16.0052 18.0469L16 17.8828Z" fill="#D63D4A"/>
</g>
</g>
</svg>
