<svg width="22" height="27" viewBox="0 0 22 27" fill="none" xmlns="http://www.w3.org/2000/svg">
<path d="M3 13.1665C3 8.74823 6.58172 5.1665 11 5.1665C15.4183 5.1665 19 8.74823 19 13.1665V26.4998H3V13.1665Z" fill="#8C97C8"/>
<g style="mix-blend-mode:multiply">
<path d="M16.3337 13.1668C16.3337 16.1123 13.9458 18.5002 11.0003 18.5002C8.05481 18.5002 5.66699 16.1123 5.66699 13.1668C5.66699 10.2213 8.05481 7.8335 11.0003 7.8335C13.9458 7.8335 16.3337 10.2213 16.3337 13.1668Z" fill="#5B658C"/>
</g>
<g style="mix-blend-mode:multiply">
<path d="M0.333008 24.5C0.333008 23.3954 1.22844 22.5 2.33301 22.5H19.6663C20.7709 22.5 21.6663 23.3954 21.6663 24.5C21.6663 25.6046 20.7709 26.5 19.6663 26.5H2.33301C1.22844 26.5 0.333008 25.6046 0.333008 24.5Z" fill="#5B658C"/>
</g>
<path d="M12.0664 3.69971L12.0612 3.80908C12.0064 4.34681 11.5522 4.76611 11 4.76611C10.4478 4.76611 9.99357 4.34681 9.9388 3.80908L9.93359 3.69971L9.93359 1.69971C9.93359 1.1106 10.4109 0.633301 11 0.633301C11.5891 0.633301 12.0664 1.1106 12.0664 1.69971L12.0664 3.69971Z" fill="#5B658C"/>
<path d="M4.01015 6.00154L4.08381 6.08256C4.42531 6.50151 4.4006 7.11921 4.01015 7.50966C3.6197 7.90011 3.002 7.92482 2.58305 7.58332L2.50202 7.50966L1.08781 6.09545C0.671251 5.67889 0.671251 5.00388 1.08781 4.58732C1.50437 4.17076 2.17938 4.17076 2.59594 4.58732L4.01015 6.00154Z" fill="#5B658C"/>
<path d="M18.1651 6.00154L18.0914 6.08256C17.7499 6.50151 17.7746 7.11921 18.1651 7.50966C18.5555 7.90011 19.1732 7.92482 19.5922 7.58332L19.6732 7.50966L21.0874 6.09545C21.504 5.67889 21.504 5.00388 21.0874 4.58732C20.6709 4.17076 19.9959 4.17076 19.5793 4.58732L18.1651 6.00154Z" fill="#5B658C"/>
</svg>
