<svg width="25" height="25" viewBox="0 0 25 25" fill="none" xmlns="http://www.w3.org/2000/svg">
<g style="mix-blend-mode:multiply">
<path d="M19.5154 5.16661L4.81856 5.1665C3.35414 5.1665 2.16699 6.32397 2.16699 7.75177V17.5811C2.16699 19.0089 3.35414 20.1664 4.81856 20.1664L19.5154 20.1665C20.9798 20.1665 22.167 19.009 22.167 17.5812V7.75188C22.167 6.32408 20.9798 5.16661 19.5154 5.16661Z" fill="#FA967C"/>
<g style="mix-blend-mode:multiply">
<path d="M4.75228 5.1665L19.5817 5.1665C21.0091 5.1665 22.167 6.32442 22.167 7.75177V9.13817H2.16699V7.75177C2.16699 6.32442 3.32492 5.1665 4.75228 5.1665Z" fill="#D63D4A"/>
</g>
<path d="M10.6093 7.17348C10.6093 7.59206 10.264 7.93046 9.83688 7.93046C9.40976 7.93046 9.06445 7.59206 9.06445 7.17348C9.06445 6.7549 9.41139 6.4165 9.83688 6.4165C10.2624 6.4165 10.6093 6.7565 10.6093 7.17348Z" fill="#FA967C"/>
<path d="M7.41305 7.93046C7.83966 7.93046 8.18548 7.59155 8.18548 7.17348C8.18548 6.75541 7.83966 6.4165 7.41305 6.4165C6.98645 6.4165 6.64062 6.75541 6.64062 7.17348C6.64062 7.59155 6.98645 7.93046 7.41305 7.93046Z" fill="#FA967C"/>
<path d="M4.99509 7.93046C5.42169 7.93046 5.76752 7.59155 5.76752 7.17348C5.76752 6.75541 5.42169 6.4165 4.99509 6.4165C4.56849 6.4165 4.22266 6.75541 4.22266 7.17348C4.22266 7.59155 4.56849 7.93046 4.99509 7.93046Z" fill="#FA967C"/>
<path d="M12.3596 10.7666C10.4442 10.7666 9.10547 12.2063 9.10547 14.2667C9.10547 16.327 10.4364 17.5666 12.4965 17.5666C13.5459 17.5666 14.2615 17.3535 14.6762 17.1754C14.8633 17.0946 14.9656 16.8981 14.9174 16.7071L14.7303 15.9616C14.7013 15.8441 14.6184 15.7449 14.5065 15.6917C14.3946 15.6366 14.2615 15.6329 14.1439 15.6806C13.8044 15.8184 13.3877 15.9451 12.6451 15.9451C12.1108 15.9451 11.2524 15.7816 11.0518 14.7735H14.8093C15.0292 14.7735 15.2125 14.6174 15.2356 14.4099L15.2414 14.3621C15.2549 14.252 15.2761 14.0849 15.2761 13.8792C15.2761 12.3312 14.3734 10.7703 12.3577 10.7703L12.3596 10.7666ZM12.2728 12.3312C12.5911 12.3312 12.8322 12.4156 13.0096 12.5882C13.191 12.7645 13.2797 13.0014 13.3221 13.2071H11.1328C11.2775 12.8196 11.5938 12.3312 12.2709 12.3312H12.2728Z" fill="white"/>
</g>
</svg>
