<svg width="17" height="16" viewBox="0 0 17 16" fill="none" xmlns="http://www.w3.org/2000/svg">
<path d="M8.49902 2C8.79353 2 9.03313 2.23871 9.0332 2.5332V7.4668H13.9668C14.2612 7.46687 14.4999 7.70555 14.5 8C14.5 8.29451 14.2613 8.53313 13.9668 8.5332H9.0332V13.4668C9.0332 13.7613 8.79358 14 8.49902 14C8.20468 13.9998 7.96582 13.7612 7.96582 13.4668V8.5332H3.0332C2.73871 8.53313 2.5 8.29451 2.5 8C2.50007 7.70555 2.73875 7.46687 3.0332 7.4668H7.96582V2.5332C7.96589 2.23886 8.20472 2.00025 8.49902 2Z" fill="#33363D"/>
</svg>
