<svg width="138" height="34" viewBox="0 0 138 34" fill="none" xmlns="http://www.w3.org/2000/svg">
<path fill-rule="evenodd" clip-rule="evenodd" d="M0.571508 1.49057C0.208592 1.87719 0 2.47224 0 3.24547V30.7491C0 31.5223 0.208592 32.1173 0.585075 32.4905L0.683436 32.5729L16.2312 17.162V16.8157L0.669869 1.4082L0.571508 1.49057Z" fill="url(#paint0_linear_97_9128)"/>
<path fill-rule="evenodd" clip-rule="evenodd" d="M21.4035 22.319L16.2175 17.177V16.8173L21.4052 11.6753L21.5171 11.7442L27.6528 15.2002C29.4097 16.1819 29.4097 17.799 27.6528 18.7941L21.5171 22.2501C21.5154 22.2501 21.4035 22.319 21.4035 22.319Z" fill="url(#paint1_linear_97_9128)"/>
<path fill-rule="evenodd" clip-rule="evenodd" d="M21.5155 22.2505L16.2176 16.9976L0.571533 32.5059C1.14304 33.1144 2.1046 33.1833 3.17978 32.5883L21.5155 22.2505Z" fill="url(#paint2_linear_97_9128)"/>
<path fill-rule="evenodd" clip-rule="evenodd" d="M21.5155 11.746L3.17978 1.42167C2.1063 0.81317 1.14304 0.895536 0.571533 1.50404L16.2159 16.9973L21.5155 11.746Z" fill="url(#paint3_linear_97_9128)"/>
<path opacity="0.2" fill-rule="evenodd" clip-rule="evenodd" d="M21.4035 22.1392L3.19321 32.3946C2.17569 32.9745 1.2684 32.9342 0.683321 32.408L0.584961 32.5055L0.683321 32.5879C1.2684 33.1124 2.17569 33.1544 3.19321 32.5745L21.529 22.2501L21.4035 22.1392Z" fill="black"/>
<path opacity="0.12" fill-rule="evenodd" clip-rule="evenodd" d="M27.6513 18.6146L21.3901 22.1396L21.5021 22.2505L27.6377 18.7945C28.5162 18.2969 28.9486 17.6481 28.9486 16.9976C28.8927 17.5926 28.4467 18.1591 27.6513 18.6146Z" fill="black"/>
<path opacity="0.25" fill-rule="evenodd" clip-rule="evenodd" d="M3.17976 1.60164L27.6512 15.382C28.4465 15.8241 28.8926 16.404 28.9621 16.9991C28.9621 16.3502 28.5296 15.6997 27.6512 15.2021L3.17976 1.42178C1.42284 0.426659 0 1.25536 0 3.2456V3.42546C0 1.43522 1.42284 0.619968 3.17976 1.60164Z" fill="white"/>
<path fill-rule="evenodd" clip-rule="evenodd" d="M34.935 16.1252C34.935 11.7195 38.671 8.13232 43.1159 8.13232C45.5732 8.13232 47.3217 9.08878 48.6411 10.3344L47.0876 11.8741C46.1447 10.9967 44.866 10.3159 43.1142 10.3159C39.8683 10.3159 37.3313 12.9062 37.3313 16.1235C37.3313 19.3408 39.8683 21.9345 43.1125 21.9345C45.2171 21.9345 46.4144 21.0974 47.1826 20.3343C47.8118 19.7107 48.2239 18.8147 48.3833 17.5859H43.1159V15.4074H50.5303C50.6083 15.7974 50.649 16.2647 50.649 16.7707C50.649 18.4062 50.1962 20.4351 48.7394 21.8791C47.3217 23.3415 45.5139 24.1214 43.1142 24.1214C38.6676 24.1214 34.9316 20.5377 34.9316 16.1286L34.935 16.1252ZM56.6422 13.8257C53.7711 13.8257 51.4274 15.9907 51.4274 18.971C51.4274 21.9362 53.7694 24.1164 56.6422 24.1164C59.515 24.1164 61.8536 21.9329 61.8536 18.9694C61.8536 15.989 59.5133 13.824 56.6422 13.8257ZM56.6422 22.0926C55.0701 22.0926 53.7117 20.8066 53.7117 18.9727C53.7117 17.1203 55.0684 15.8529 56.6422 15.8529C58.2142 15.8529 59.5709 17.1186 59.5709 18.9727C59.5709 20.8049 58.2159 22.0926 56.6422 22.0926ZM68.013 13.8257C65.1419 13.8257 62.8016 15.9907 62.8016 18.971C62.8016 21.9362 65.1419 24.1164 68.013 24.1164C70.8841 24.1164 73.2244 21.9329 73.2244 18.9694C73.2244 15.989 70.8858 13.824 68.013 13.8257ZM68.013 22.0926C66.4409 22.0926 65.0825 20.8066 65.0825 18.9727C65.0825 17.1203 66.4392 15.8529 68.013 15.8529C69.5851 15.8529 70.9434 17.1186 70.9434 18.9727C70.9434 20.8049 69.5851 22.0926 68.013 22.0926ZM81.9683 14.1383V14.9754H81.8903C81.3798 14.3686 80.3962 13.824 79.1582 13.824C76.5619 13.824 74.1792 16.0865 74.1792 18.9929C74.1792 21.8757 76.5602 24.1198 79.1582 24.1198C80.3962 24.1198 81.3798 23.5751 81.8903 22.9515H81.9683V23.6911C81.9683 25.6595 80.9067 26.7135 79.1956 26.7135C77.7982 26.7135 76.9333 25.7183 76.5788 24.8829L74.5913 25.7015C75.1611 27.0648 76.6772 28.7424 79.1939 28.7424C81.8665 28.7424 84.1288 27.1808 84.1288 23.3802V14.1367L81.9683 14.1383ZM79.3533 22.0926C77.7812 22.0926 76.4601 20.7848 76.4601 18.9929C76.4601 17.1808 77.7795 15.8546 79.3533 15.8546C80.9067 15.8546 82.126 17.1792 82.126 18.9929C82.1277 20.7848 80.9084 22.0926 79.3533 22.0926ZM85.7043 8.67863H87.9869V23.8071H85.7043V8.67863ZM94.243 22.0926C93.083 22.0926 92.2555 21.5647 91.728 20.5343L98.6709 17.6851L98.4318 17.1002C98.0011 15.9521 96.6817 13.8257 93.9869 13.8257C91.3125 13.8257 89.0893 15.9117 89.0893 18.9727C89.0893 21.8555 91.2922 24.1181 94.243 24.1181C96.624 24.1181 98.0011 22.6775 98.5709 21.837L96.8004 20.6688C96.2085 21.5278 95.4013 22.0942 94.243 22.0926ZM94.0649 15.8142C94.9688 15.8142 95.7354 16.263 95.9915 16.9052L91.3482 18.8164C91.2905 16.8278 92.9033 15.8142 94.0649 15.8142Z" fill="white"/>
<path fill-rule="evenodd" clip-rule="evenodd" d="M108.687 8.67871H103.229V23.8072H105.507V18.0769H108.688C111.214 18.0769 113.696 16.2648 113.696 13.3769C113.696 10.4941 111.215 8.68039 108.692 8.68039L108.687 8.67871ZM108.746 15.9706H105.507V10.7833H108.746C110.449 10.7833 111.419 12.1835 111.419 13.3769C111.419 14.5502 110.449 15.9706 108.746 15.9706ZM117.229 23.8072V8.67871H114.951V23.8072H117.229ZM127.46 23.7803V17.981C127.46 15.2949 125.435 13.7972 122.822 13.7972C121.175 13.7972 119.467 14.5183 118.76 16.1135L120.782 16.9489C121.214 16.1135 122.018 15.8395 122.864 15.8395C124.041 15.8395 125.238 16.5405 125.257 17.7877V17.9441C124.845 17.7104 123.963 17.3591 122.881 17.3591C120.702 17.3591 118.484 18.5458 118.484 20.7647C118.484 22.7902 120.271 24.093 122.274 24.093C123.807 24.093 124.65 23.4122 125.179 22.6154H125.257V23.7837H127.458L127.46 23.7803ZM122.551 22.0893C121.804 22.0893 120.763 21.7195 120.763 20.8067C120.763 19.6385 122.06 19.188 123.18 19.188C124.182 19.188 124.652 19.4014 125.262 19.6939C125.088 21.0521 123.929 22.0725 122.551 22.0893ZM135.47 14.1283L132.858 20.6857H132.78L130.07 14.1283H127.616L131.679 23.2962L129.361 28.3945H131.737L138 14.1283H135.47Z" fill="white"/>
<defs>
<linearGradient id="paint0_linear_97_9128" x1="14.8351" y1="2.94984" x2="-10.0403" y2="9.63677" gradientUnits="userSpaceOnUse">
<stop stop-color="#00A0FF"/>
<stop offset="0.007" stop-color="#00A1FF"/>
<stop offset="0.26" stop-color="#00BEFF"/>
<stop offset="0.512" stop-color="#00D2FF"/>
<stop offset="0.76" stop-color="#00DFFF"/>
<stop offset="1" stop-color="#00E3FF"/>
</linearGradient>
<linearGradient id="paint1_linear_97_9128" x1="29.939" y1="16.9979" x2="-0.427084" y2="16.9979" gradientUnits="userSpaceOnUse">
<stop stop-color="#FFE000"/>
<stop offset="0.409" stop-color="#FFBD00"/>
<stop offset="0.775" stop-color="#FFA500"/>
<stop offset="1" stop-color="#FF9C00"/>
</linearGradient>
<linearGradient id="paint2_linear_97_9128" x1="18.6347" y1="19.8552" x2="-1.09877" y2="53.3628" gradientUnits="userSpaceOnUse">
<stop stop-color="#FF3A44"/>
<stop offset="1" stop-color="#C31162"/>
</linearGradient>
<linearGradient id="paint3_linear_97_9128" x1="-3.36698" y1="-7.65843" x2="5.43666" y2="7.30651" gradientUnits="userSpaceOnUse">
<stop stop-color="#32A071"/>
<stop offset="0.069" stop-color="#2DA771"/>
<stop offset="0.476" stop-color="#15CF74"/>
<stop offset="0.801" stop-color="#06E775"/>
<stop offset="1" stop-color="#00F076"/>
</linearGradient>
</defs>
</svg>
