<svg width="20" height="20" viewBox="0 0 20 20" fill="none" xmlns="http://www.w3.org/2000/svg">
<path fill-rule="evenodd" clip-rule="evenodd" d="M9.99967 1.00012C10.888 1.00019 11.6624 1.5662 11.9333 2.36975C12.7859 2.40581 13.5015 3.05896 13.5723 3.91679H15.1665L15.3195 3.92411C16.0758 4.00097 16.6663 4.64 16.6663 5.41663V16.8335C16.6663 17.6617 15.9947 18.333 15.1665 18.3333H4.83284C4.00447 18.3333 3.3331 17.6618 3.33301 16.8335V5.41663C3.33301 4.5882 4.00442 3.91679 4.83284 3.91679H6.42301C6.4938 3.05807 7.21145 2.40457 8.06527 2.36975C8.33608 1.56605 9.11119 1.00012 9.99967 1.00012ZM6.66634 12.6668C6.29815 12.6668 5.99984 12.9651 5.99984 13.3333C5.99984 13.7015 6.29815 13.9998 6.66634 13.9998H10.1844L10.2528 13.9965C10.5888 13.9623 10.8509 13.6784 10.8509 13.3333C10.8509 12.9882 10.5888 12.7043 10.2528 12.67L10.1844 12.6668H6.66634ZM6.66634 9.33346C6.29815 9.33346 5.99984 9.63177 5.99984 9.99996C5.99984 10.3681 6.29815 10.6665 6.66634 10.6665H13.333L13.4014 10.6632C13.7374 10.6289 13.9995 10.345 13.9995 9.99996C13.9995 9.6549 13.7374 9.37101 13.4014 9.33671L13.333 9.33346H6.66634ZM9.99967 2.33313C9.59287 2.33313 9.29574 2.64997 9.29574 2.99801V3.033L9.29248 3.10136C9.25831 3.43732 8.97415 3.69925 8.62923 3.6995H8.13688C7.90529 3.6995 7.74971 3.87802 7.74951 4.05595V5.16679H12.2498V4.7428L12.2466 4.0592V4.05595L12.2393 3.99003C12.2064 3.83656 12.062 3.69957 11.8592 3.6995H11.3669C11.0219 3.69935 10.7378 3.43737 10.7036 3.10136L10.7004 3.033C10.7004 3.01472 10.7018 2.99808 10.7028 2.98336C10.6947 2.6411 10.4008 2.33321 9.99967 2.33313Z" fill="#33363D"/>
</svg>
