<svg width="20" height="21" viewBox="0 0 20 21" fill="none" xmlns="http://www.w3.org/2000/svg">
<path d="M6.98694 2.56594C7.42452 2.43401 7.89409 2.45592 8.31748 2.62805C8.74087 2.80017 9.09254 3.11211 9.31394 3.51194L9.38794 3.66094L10.0499 5.13194C10.2505 5.5785 10.3155 6.07411 10.2369 6.55728C10.1583 7.04045 9.93962 7.48992 9.60794 7.84994L9.47494 7.98194L8.43194 8.95494C8.24394 9.13294 8.38494 9.82194 9.06494 10.9999C9.67694 12.0599 10.1749 12.5549 10.4199 12.5819H10.4629L10.5159 12.5719L12.5659 11.9449C12.8415 11.8604 13.1355 11.8571 13.4128 11.9353C13.6902 12.0135 13.9392 12.17 14.1299 12.3859L14.2209 12.5009L15.5779 14.3809C15.8439 14.7494 15.9764 15.1975 15.9537 15.6514C15.931 16.1052 15.7544 16.5379 15.4529 16.8779L15.3309 17.0039L14.7889 17.5179C14.3022 17.9789 13.6934 18.2903 13.0348 18.4153C12.3763 18.5403 11.6957 18.4735 11.0739 18.2229C9.13894 17.4429 7.38094 15.6609 5.78394 12.8949C4.18394 10.1219 3.51894 7.70494 3.81594 5.63494C3.90581 5.00921 4.16348 4.4195 4.56157 3.92844C4.95967 3.43738 5.48333 3.0633 6.07694 2.84594L6.26994 2.78194L6.98694 2.56594Z" fill="#285FA4"/>
</svg>
