<svg width="20" height="21" viewBox="0 0 20 21" fill="none" xmlns="http://www.w3.org/2000/svg">
<path d="M10.2528 13.17C10.5888 13.2043 10.8509 13.4882 10.8509 13.8333C10.8509 14.1784 10.5888 14.4623 10.2528 14.4965L10.1844 14.4998H6.66634C6.29815 14.4998 5.99984 14.2015 5.99984 13.8333C5.99984 13.4651 6.29815 13.1668 6.66634 13.1668H10.1844L10.2528 13.17Z" fill="#8A949E"/>
<path d="M13.4014 9.83671C13.7374 9.87101 13.9995 10.1549 13.9995 10.5C13.9995 10.845 13.7374 11.1289 13.4014 11.1632L13.333 11.1665H6.66634C6.29815 11.1665 5.99984 10.8681 5.99984 10.5C5.99984 10.1318 6.29815 9.83346 6.66634 9.83346H13.333L13.4014 9.83671Z" fill="#8A949E"/>
<path fill-rule="evenodd" clip-rule="evenodd" d="M9.99967 1.50012C10.888 1.50019 11.6624 2.0662 11.9333 2.86975C12.7859 2.90581 13.5015 3.55896 13.5723 4.41679H15.1665L15.3195 4.42411C16.0758 4.50097 16.6663 5.14 16.6663 5.91663V17.3335C16.6663 18.1617 15.9947 18.833 15.1665 18.8333H4.83284C4.00447 18.8333 3.3331 18.1618 3.33301 17.3335V5.91663C3.33301 5.0882 4.00442 4.41679 4.83284 4.41679H6.42301C6.4938 3.55807 7.21145 2.90457 8.06527 2.86975C8.33608 2.06605 9.11119 1.50012 9.99967 1.50012ZM4.83284 5.7498C4.7408 5.7498 4.66602 5.82458 4.66602 5.91663V17.3335C4.6661 17.4254 4.74085 17.5003 4.83284 17.5003H15.1665C15.2583 17.5 15.3324 17.4253 15.3325 17.3335V5.91663C15.3325 5.83615 15.2757 5.76867 15.1999 5.75305L15.1665 5.7498H13.5828V5.92232C13.5828 6.53984 13.0705 6.99972 12.4932 6.9998H7.50618C6.91862 6.9998 6.4165 6.53001 6.4165 5.92232V5.7498H4.83284ZM9.99967 2.83313C9.59287 2.83313 9.29574 3.14997 9.29574 3.49801V3.533L9.29248 3.60136C9.25831 3.93732 8.97415 4.19925 8.62923 4.1995H8.13688C7.90529 4.1995 7.74971 4.37802 7.74951 4.55595V5.66679H12.2498V5.2428L12.2466 4.5592V4.55595L12.2393 4.49003C12.2064 4.33656 12.062 4.19957 11.8592 4.1995H11.3669C11.0219 4.19935 10.7378 3.93737 10.7036 3.60136L10.7004 3.533C10.7004 3.51472 10.7018 3.49808 10.7028 3.48336C10.6947 3.1411 10.4008 2.83321 9.99967 2.83313Z" fill="#8A949E"/>
</svg>
