<svg width="24" height="24" viewBox="0 0 24 24" fill="none" xmlns="http://www.w3.org/2000/svg">
<path d="M5.45417 9.63158C5.45417 7.87278 6.14382 6.18601 7.3714 4.94234C8.59898 3.69868 10.2639 3 12 3C13.7361 3 15.401 3.69868 16.6286 4.94234C17.8562 6.18601 18.5458 7.87278 18.5458 9.63158V12.4367L19.9481 15.9898C19.9922 16.1015 20.0085 16.2225 19.9958 16.3422C19.9831 16.4619 19.9416 16.5765 19.875 16.6762C19.8084 16.7759 19.7187 16.8575 19.6138 16.9139C19.5089 16.9704 19.3919 16.9999 19.2731 17H4.72685C4.60806 16.9999 4.4911 16.9704 4.38618 16.9139C4.28126 16.8575 4.19159 16.7759 4.12501 16.6762C4.05842 16.5765 4.01694 16.4619 4.0042 16.3422C3.99145 16.2225 4.00783 16.1015 4.05191 15.9898L5.45417 12.4367V9.63158Z" fill="#8A949E"/>
<path d="M9.50196 18.6C9.55445 19.9344 10.6528 21 12 21C13.3472 21 14.4455 19.9344 14.498 18.6H9.50196Z" fill="#8A949E"/>
</svg>
