<svg width="32" height="33" viewBox="0 0 32 33" fill="none" xmlns="http://www.w3.org/2000/svg">
<path d="M2.83398 8.66667C2.83398 7.19391 3.96156 6 5.3525 6H22.9821C24.3731 6 25.5007 7.19391 25.5007 8.66667V22C25.5007 23.4728 24.3731 24.6667 22.9821 24.6667H5.3525C3.96156 24.6667 2.83398 23.4728 2.83398 22V8.66667Z" fill="#FA967C"/>
<g style="mix-blend-mode:multiply">
<path d="M20.167 2.93329C20.756 2.93329 21.2332 3.41074 21.2334 3.99969V5.99969H23.5C24.6045 5.99969 25.4998 6.89528 25.5 7.99969V11.3337H2.83398V7.99969C2.83416 6.89528 3.72952 5.99969 4.83398 5.99969H7.10059V3.99969C7.10076 3.41074 7.578 2.93329 8.16699 2.93329C8.75599 2.93329 9.23322 3.41074 9.2334 3.99969V5.99969H19.1006V3.99969C19.1008 3.41074 19.578 2.93329 20.167 2.93329Z" fill="#D63D4A"/>
</g>
<g style="mix-blend-mode:multiply">
<circle cx="24.1673" cy="20.6667" r="5.33333" fill="white"/>
<circle cx="24.1673" cy="20.6667" r="5.33333" fill="#D63D4A"/>
</g>
<path d="M22.5462 19.0203C22.4653 18.7371 22.1701 18.5731 21.8869 18.654C21.6037 18.7349 21.4397 19.0301 21.5206 19.3133L21.8597 20.5001H21.5001C21.2056 20.5001 20.9668 20.7389 20.9668 21.0334C20.9668 21.328 21.2056 21.5667 21.5001 21.5667H22.1645L22.4349 22.5132C22.498 22.7341 22.6954 22.8897 22.9248 22.8995C23.1543 22.9094 23.3643 22.7712 23.4461 22.5566L24.1667 20.6649L24.8873 22.5566C24.9691 22.7712 25.1791 22.9094 25.4085 22.8995C25.638 22.8897 25.8354 22.7341 25.8985 22.5132L26.1689 21.5667H26.8333C27.1278 21.5667 27.3666 21.328 27.3666 21.0334C27.3666 20.7389 27.1278 20.5001 26.8333 20.5001H26.4737L26.8128 19.3133C26.8937 19.0301 26.7297 18.7349 26.4465 18.654C26.1633 18.5731 25.8681 18.7371 25.7872 19.0203L25.3133 20.6787L24.6651 18.977C24.5863 18.7702 24.388 18.6335 24.1667 18.6335C23.9454 18.6335 23.7471 18.7702 23.6683 18.977L23.02 20.6787L22.5462 19.0203Z" fill="white"/>
</svg>
