<svg width="32" height="33" viewBox="0 0 32 33" fill="none" xmlns="http://www.w3.org/2000/svg">
<circle cx="16.1676" cy="16.3333" r="11.6667" fill="white"/>
<circle cx="16.1676" cy="16.3333" r="11.6667" fill="#FA967C"/>
<circle cx="16.167" cy="16.3333" r="10" fill="#FA967C"/>
<g style="mix-blend-mode:multiply">
<path d="M24.501 16.6666C24.501 12.0643 20.77 8.3333 16.1676 8.3333C11.5653 8.3333 7.83431 12.0643 7.83431 16.6666C7.83431 17.5871 7.08812 18.3333 6.16764 18.3333C5.24717 18.3333 4.50098 17.5871 4.50098 16.6666C4.50098 10.2233 9.72432 4.99997 16.1676 4.99997C22.611 4.99997 27.8343 10.2233 27.8343 16.6666C27.8343 17.5871 27.0881 18.3333 26.1676 18.3333C25.2472 18.3333 24.501 17.5871 24.501 16.6666Z" fill="#D63D4A"/>
</g>
<g style="mix-blend-mode:plus-darker">
<path d="M17.2334 13.3333C18.9271 13.3333 20.2998 14.706 20.2998 16.3997C20.2998 18.0934 18.9271 19.4661 17.2334 19.4661H14.9668V21.7327C14.9668 22.3218 14.4895 22.7991 13.9004 22.7991C13.3113 22.7991 12.834 22.3218 12.834 21.7327V14.3997C12.834 14.3628 12.8352 14.3263 12.8389 14.2903C12.846 14.2204 12.8599 14.1525 12.8799 14.0872C12.8855 14.0689 12.8929 14.0513 12.8994 14.0335C12.9165 13.9868 12.9358 13.9412 12.959 13.8978C12.9665 13.8837 12.9753 13.8704 12.9834 13.8568C12.9909 13.8441 12.9978 13.831 13.0059 13.8187C13.0174 13.801 13.0295 13.7838 13.042 13.7669C13.0481 13.7587 13.0542 13.7505 13.0605 13.7425C13.0728 13.7268 13.0855 13.7115 13.0986 13.6966C13.1094 13.6843 13.1205 13.6722 13.1318 13.6605C13.1436 13.6482 13.1556 13.636 13.168 13.6243C13.1765 13.6163 13.1855 13.6087 13.1943 13.6009C13.2109 13.5862 13.2276 13.5716 13.2451 13.5579C13.2543 13.5508 13.264 13.5443 13.2734 13.5374C13.2895 13.5257 13.3056 13.514 13.3223 13.5032C13.337 13.4937 13.352 13.4847 13.3672 13.4759C13.3785 13.4693 13.3898 13.4625 13.4014 13.4564C13.4208 13.4461 13.4409 13.4371 13.4609 13.428C13.5005 13.4101 13.5411 13.3942 13.583 13.3812L13.6025 13.3753C13.6147 13.3718 13.6273 13.3696 13.6396 13.3665C13.6587 13.3617 13.6778 13.3566 13.6973 13.3528C13.763 13.3402 13.8309 13.3333 13.9004 13.3333H17.2334ZM14.9668 17.3333H17.2334C17.7489 17.3333 18.167 16.9152 18.167 16.3997C18.167 15.8843 17.7489 15.4661 17.2334 15.4661H14.9668V17.3333Z" fill="#D63D4A"/>
</g>
</svg>
