<svg width="33" height="32" viewBox="0 0 33 32" fill="none" xmlns="http://www.w3.org/2000/svg">
<path d="M6.56836 6.06668C6.56836 5.51439 7.01607 5.06668 7.56836 5.06668H24.7684C25.3206 5.06668 25.7684 5.5144 25.7684 6.06668V27.2667C25.7684 27.819 25.3206 28.2667 24.7684 28.2667H7.56836C7.01607 28.2667 6.56836 27.819 6.56836 27.2667V6.06668Z" fill="#FA967C"/>
<path fill-rule="evenodd" clip-rule="evenodd" d="M9.7666 9.06673C9.7666 8.47762 10.2442 8.00006 10.8333 8.00006H17.4999C18.089 8.00006 18.5666 8.47762 18.5666 9.06673C18.5666 9.65583 18.089 10.1334 17.4999 10.1334H10.8333C10.2442 10.1334 9.7666 9.65583 9.7666 9.06673ZM9.7666 13.5999C9.7666 13.0108 10.2442 12.5333 10.8333 12.5333H20.1666C20.7557 12.5333 21.2333 13.0108 21.2333 13.5999C21.2333 14.189 20.7557 14.6666 20.1666 14.6666H10.8333C10.2442 14.6666 9.7666 14.189 9.7666 13.5999Z" fill="#D63D4A"/>
<g style="mix-blend-mode:multiply">
<path fill-rule="evenodd" clip-rule="evenodd" d="M19.413 21.9124C19.8296 21.4959 20.5049 21.4959 20.9215 21.9124L23.5882 24.5791C24.0047 24.9957 24.0047 25.671 23.5882 26.0876C23.1716 26.5041 22.4962 26.5041 22.0797 26.0876L19.413 23.4209C18.9964 23.0044 18.9964 22.329 19.413 21.9124Z" fill="#D63D4A"/>
</g>
<g style="mix-blend-mode:multiply">
<circle cx="18.167" cy="21.3333" r="4" fill="#D63D4A"/>
</g>
</svg>
