<svg width="32" height="32" viewBox="0 0 32 32" fill="none" xmlns="http://www.w3.org/2000/svg">
<g style="mix-blend-mode:multiply">
<path fill-rule="evenodd" clip-rule="evenodd" d="M10.3862 4.83333C9.95116 4.83348 9.52387 4.95785 9.14764 5.19385C8.77142 5.42985 8.45962 5.76908 8.24383 6.17718L3.8258 14.5296C3.61233 14.9327 3.50003 15.3891 3.5 15.8535V21.8501C3.50003 22.2639 3.58917 22.6719 3.76039 23.042L5.1401 26.023C5.34503 26.4661 5.66013 26.8387 6.05009 27.0991C6.44004 27.3596 6.88943 27.4975 7.34788 27.4975H8.43635C9.09095 27.4975 9.71874 27.2166 10.1816 26.7166C10.6445 26.2165 10.9045 25.5383 10.9045 24.8312H20.7772C20.7772 25.5383 21.0373 26.2165 21.5001 26.7166C21.963 27.2166 22.5908 27.4975 23.2454 27.4975H24.3339C24.7923 27.4975 25.2417 27.3596 25.6317 27.0991C26.0216 26.8387 26.3367 26.4661 26.5416 26.023L27.9213 23.042C28.0929 22.6727 28.1817 22.2634 28.1817 21.8501V15.8535C28.1817 15.3891 28.0694 14.9327 27.8559 14.5296L23.4379 6.17718C23.2221 5.76908 22.9103 5.42985 22.5341 5.19385C22.1579 4.95785 21.7306 4.83348 21.2955 4.83333H10.3862Z" fill="#FA967C"/>
<g style="mix-blend-mode:multiply">
<path d="M6.0432 27.1016C5.65325 26.8412 5.33814 26.4685 5.13321 26.0255L4.44336 24.535H27.2246L26.5348 26.0255C26.3298 26.4685 26.0147 26.8412 25.6248 27.1016C25.2348 27.362 24.7854 27.5 24.327 27.5H23.2385C22.5839 27.5 21.9561 27.2191 21.4932 26.7191C21.0304 26.219 20.7703 25.5408 20.7703 24.8336H10.8976C10.8976 25.5408 10.6376 26.219 10.1747 26.7191C9.71185 27.2191 9.08406 27.5 8.42946 27.5H7.341C6.88254 27.5 6.43315 27.362 6.0432 27.1016Z" fill="#D63D4A"/>
</g>
<g style="mix-blend-mode:multiply">
<path d="M7.43071 13.1728L9.69778 8.07187C9.83423 7.76486 10.1387 7.567 10.4747 7.567H21.4607C21.7967 7.567 22.1011 7.76486 22.2376 8.07187L24.5046 13.1728C24.7545 13.735 24.343 14.3682 23.7278 14.3682H8.20759C7.59237 14.3682 7.18085 13.735 7.43071 13.1728Z" fill="#D63D4A"/>
</g>
<ellipse cx="9.73448" cy="19.5683" rx="1.7003" ry="1.7003" fill="white"/>
<circle cx="22.2032" cy="19.5683" r="1.7003" fill="white"/>
<g style="mix-blend-mode:multiply">
<ellipse cx="23.5003" cy="8.83333" rx="5.33333" ry="5.33333" fill="#D63D4A"/>
</g>
<path d="M23.644 7.52102C24.1652 7.52102 24.5877 7.09847 24.5877 6.57724C24.5877 6.05601 24.1652 5.63347 23.644 5.63347C23.1227 5.63347 22.7002 6.05601 22.7002 6.57724C22.7002 7.09847 23.1227 7.52102 23.644 7.52102Z" fill="white"/>
<path d="M23.0547 8.29974C22.9896 8.29974 22.9368 8.35255 22.9368 8.41771V9.24351V11.1003V11.9261C22.9368 11.9912 22.9896 12.044 23.0547 12.044H24.2344C24.2996 12.044 24.3524 11.9912 24.3524 11.9261V11.1003V8.41771C24.3524 8.35255 24.2996 8.29974 24.2344 8.29974H23.0547Z" fill="white"/>
</g>
</svg>
